 0 
SECTION
 2 
ENTITIES
 0 
POLYLINE
 8 
1
 66 
 1 
 10 
0.0
 20 
0.0
 30 
0.0
 0 
VERTEX
 8 
1
 10 
0.0
 20 
0.5035
 30 
0.0
 0 
VERTEX
 8 
1
 10 
0.10015
 20 
0.53405
 30 
0.0
 0 
VERTEX
 8 
1
 10 
0.20025
 20 
0.5546
 30 
0.0
 0 
VERTEX
 8 
1
 10 
0.30032
 20 
0.57065
 30 
0.0
 0 
VERTEX
 8 
1
 10 
0.40036
 20 
0.5807
 30 
0.0
 0 
VERTEX
 8 
1
 10 
0.50039
 20 
0.58625
 30 
0.0
 0 
VERTEX
 8 
1
 10 
0.6004
 20 
0.5878
 30 
0.0
 0 
VERTEX
 8 
1
 10 
0.70039
 20 
0.58585
 30 
0.0
 0 
VERTEX
 8 
1
 10 
0.80034
 20 
0.5759
 30 
0.0
 0 
VERTEX
 8 
1
 10 
0.8503
 20 
0.56767
 30 
0.0
 0 
VERTEX
 8 
1
 10 
0.90025
 20 
0.55645
 30 
0.0
 0 
VERTEX
 8 
1
 10 
0.92522
 20 
0.54884
 30 
0.0
 0 
VERTEX
 8 
1
 10 
0.95018
 20 
0.53922
 30 
0.0
 0 
VERTEX
 8 
1
 10 
0.97512
 20 
0.52711
 30 
0.0
 0 
VERTEX
 8 
1
 10 
0.98758
 20 
0.51806
 30 
0.0
 0 
VERTEX
 8 
1
 10 
1
 20 
0.5
 30 
0.0
 0 
VERTEX
 8 
1
 10 
0.98746
 20 
0.49206
 30 
0.0
 0 
VERTEX
 8 
1
 10 
0.97497
 20 
0.49411
 30 
0.0
 0 
VERTEX
 8 
1
 10 
0.94999
 20 
0.49673
 30 
0.0
 0 
VERTEX
 8 
1
 10 
0.925
 20 
0.50034
 30 
0.0
 0 
VERTEX
 8 
1
 10 
0.90002
 20 
0.50345
 30 
0.0
 0 
VERTEX
 8 
1
 10 
0.85005
 20 
0.51067
 30 
0.0
 0 
VERTEX
 8 
1
 10 
0.80008
 20 
0.5169
 30 
0.0
 0 
VERTEX
 8 
1
 10 
0.70012
 20 
0.52735
 30 
0.0
 0 
VERTEX
 8 
1
 10 
0.60015
 20 
0.5343
 30 
0.0
 0 
VERTEX
 8 
1
 10 
0.50017
 20 
0.53775
 30 
0.0
 0 
VERTEX
 8 
1
 10 
0.40017
 20 
0.5387
 30 
0.0
 0 
VERTEX
 8 
1
 10 
0.30016
 20 
0.53615
 30 
0.0
 0 
VERTEX
 8 
1
 10 
0.20013
 20 
0.5291
 30 
0.0
 0 
VERTEX
 8 
1
 10 
0.10007
 20 
0.51605
 30 
0.0
 0 
VERTEX
 8 
1
 10 
0.0
 20 
0.4965
 30 
0.0
 0 
SEQEND
 8 
1
 0 
ENDSEC
 0 
EOF
