 0 
SECTION
 2 
ENTITIES
 0 
POLYLINE
 8 
1
 66 
 1 
 10 
0.0
 20 
0.0
 30 
0.0
 0 
VERTEX
 8 
1
 10 
0.0
 20 
0.5
 30 
0.0
 0 
VERTEX
 8 
1
 10 
0.0010700
 20 
0.50031
 30 
0.0
 0 
VERTEX
 8 
1
 10 
0.0042799
 20 
0.50196
 30 
0.0
 0 
VERTEX
 8 
1
 10 
0.0096100
 20 
0.50444
 30 
0.0
 0 
VERTEX
 8 
1
 10 
0.017040
 20 
0.50763
 30 
0.0
 0 
VERTEX
 8 
1
 10 
0.026530
 20 
0.51129
 30 
0.0
 0 
VERTEX
 8 
1
 10 
0.03806
 20 
0.51529
 30 
0.0
 0 
VERTEX
 8 
1
 10 
0.051560
 20 
0.51968
 30 
0.0
 0 
VERTEX
 8 
1
 10 
0.06699
 20 
0.52428
 30 
0.0
 0 
VERTEX
 8 
1
 10 
0.08427
 20 
0.52923
 30 
0.0
 0 
VERTEX
 8 
1
 10 
0.10332
 20 
0.53437
 30 
0.0
 0 
VERTEX
 8 
1
 10 
0.12408
 20 
0.53985
 30 
0.0
 0 
VERTEX
 8 
1
 10 
0.14645
 20 
0.54548
 30 
0.0
 0 
VERTEX
 8 
1
 10 
0.17033
 20 
0.55138
 30 
0.0
 0 
VERTEX
 8 
1
 10 
0.19562
 20 
0.55733
 30 
0.0
 0 
VERTEX
 8 
1
 10 
0.22221
 20 
0.56344
 30 
0.0
 0 
VERTEX
 8 
1
 10 
0.25
 20 
0.56952
 30 
0.0
 0 
VERTEX
 8 
1
 10 
0.27886
 20 
0.57565
 30 
0.0
 0 
VERTEX
 8 
1
 10 
0.30866
 20 
0.58155
 30 
0.0
 0 
VERTEX
 8 
1
 10 
0.33928
 20 
0.58721
 30 
0.0
 0 
VERTEX
 8 
1
 10 
0.37059
 20 
0.59238
 30 
0.0
 0 
VERTEX
 8 
1
 10 
0.40245
 20 
0.59709
 30 
0.0
 0 
VERTEX
 8 
1
 10 
0.43474
 20 
0.60105
 30 
0.0
 0 
VERTEX
 8 
1
 10 
0.4673
 20 
0.6044
 30 
0.0
 0 
VERTEX
 8 
1
 10 
0.5
 20 
0.60692
 30 
0.0
 0 
VERTEX
 8 
1
 10 
0.5327
 20 
0.60879
 30 
0.0
 0 
VERTEX
 8 
1
 10 
0.56526
 20 
0.6098
 30 
0.0
 0 
VERTEX
 8 
1
 10 
0.59755
 20 
0.61015
 30 
0.0
 0 
VERTEX
 8 
1
 10 
0.62941
 20 
0.60964
 30 
0.0
 0 
VERTEX
 8 
1
 10 
0.66072
 20 
0.60852
 30 
0.0
 0 
VERTEX
 8 
1
 10 
0.69134
 20 
0.60652
 30 
0.0
 0 
VERTEX
 8 
1
 10 
0.72114
 20 
0.60386
 30 
0.0
 0 
VERTEX
 8 
1
 10 
0.75
 20 
0.60031
 30 
0.0
 0 
VERTEX
 8 
1
 10 
0.77779
 20 
0.59614
 30 
0.0
 0 
VERTEX
 8 
1
 10 
0.80438
 20 
0.59121
 30 
0.0
 0 
VERTEX
 8 
1
 10 
0.82967
 20 
0.58583
 30 
0.0
 0 
VERTEX
 8 
1
 10 
0.85355
 20 
0.57979
 30 
0.0
 0 
VERTEX
 8 
1
 10 
0.87592
 20 
0.57342
 30 
0.0
 0 
VERTEX
 8 
1
 10 
0.89668
 20 
0.56652
 30 
0.0
 0 
VERTEX
 8 
1
 10 
0.91573
 20 
0.55944
 30 
0.0
 0 
VERTEX
 8 
1
 10 
0.93301
 20 
0.55204
 30 
0.0
 0 
VERTEX
 8 
1
 10 
0.94844
 20 
0.54463
 30 
0.0
 0 
VERTEX
 8 
1
 10 
0.96194
 20 
0.53741
 30 
0.0
 0 
VERTEX
 8 
1
 10 
0.97347
 20 
0.53048
 30 
0.0
 0 
VERTEX
 8 
1
 10 
0.98296
 20 
0.52346
 30 
0.0
 0 
VERTEX
 8 
1
 10 
0.99039
 20 
0.51683
 30 
0.0
 0 
VERTEX
 8 
1
 10 
0.99572
 20 
0.51064
 30 
0.0
 0 
VERTEX
 8 
1
 10 
0.99893
 20 
0.50544
 30 
0.0
 0 
VERTEX
 8 
1
 10 
1
 20 
0.5
 30 
0.0
 0 
VERTEX
 8 
1
 10 
0.99893
 20 
0.49676
 30 
0.0
 0 
VERTEX
 8 
1
 10 
0.99572
 20 
0.49376
 30 
0.0
 0 
VERTEX
 8 
1
 10 
0.99039
 20 
0.49126
 30 
0.0
 0 
VERTEX
 8 
1
 10 
0.98296
 20 
0.48985
 30 
0.0
 0 
VERTEX
 8 
1
 10 
0.97347
 20 
0.48921
 30 
0.0
 0 
VERTEX
 8 
1
 10 
0.96194
 20 
0.48913
 30 
0.0
 0 
VERTEX
 8 
1
 10 
0.94844
 20 
0.48941
 30 
0.0
 0 
VERTEX
 8 
1
 10 
0.93301
 20 
0.49005
 30 
0.0
 0 
VERTEX
 8 
1
 10 
0.91573
 20 
0.49096
 30 
0.0
 0 
VERTEX
 8 
1
 10 
0.89668
 20 
0.49207
 30 
0.0
 0 
VERTEX
 8 
1
 10 
0.87592
 20 
0.49332
 30 
0.0
 0 
VERTEX
 8 
1
 10 
0.85355
 20 
0.49476
 30 
0.0
 0 
VERTEX
 8 
1
 10 
0.82967
 20 
0.4963
 30 
0.0
 0 
VERTEX
 8 
1
 10 
0.80438
 20 
0.49802
 30 
0.0
 0 
VERTEX
 8 
1
 10 
0.77779
 20 
0.49985
 30 
0.0
 0 
VERTEX
 8 
1
 10 
0.75
 20 
0.50185
 30 
0.0
 0 
VERTEX
 8 
1
 10 
0.72114
 20 
0.50391
 30 
0.0
 0 
VERTEX
 8 
1
 10 
0.69134
 20 
0.50615
 30 
0.0
 0 
VERTEX
 8 
1
 10 
0.66072
 20 
0.50847
 30 
0.0
 0 
VERTEX
 8 
1
 10 
0.62941
 20 
0.51099
 30 
0.0
 0 
VERTEX
 8 
1
 10 
0.59755
 20 
0.51356
 30 
0.0
 0 
VERTEX
 8 
1
 10 
0.56526
 20 
0.51622
 30 
0.0
 0 
VERTEX
 8 
1
 10 
0.5327
 20 
0.51885
 30 
0.0
 0 
VERTEX
 8 
1
 10 
0.5
 20 
0.52147
 30 
0.0
 0 
VERTEX
 8 
1
 10 
0.4673
 20 
0.52391
 30 
0.0
 0 
VERTEX
 8 
1
 10 
0.43474
 20 
0.5261
 30 
0.0
 0 
VERTEX
 8 
1
 10 
0.40245
 20 
0.5279
 30 
0.0
 0 
VERTEX
 8 
1
 10 
0.37059
 20 
0.52936
 30 
0.0
 0 
VERTEX
 8 
1
 10 
0.33928
 20 
0.53037
 30 
0.0
 0 
VERTEX
 8 
1
 10 
0.30866
 20 
0.53099
 30 
0.0
 0 
VERTEX
 8 
1
 10 
0.27886
 20 
0.53117
 30 
0.0
 0 
VERTEX
 8 
1
 10 
0.25
 20 
0.53097
 30 
0.0
 0 
VERTEX
 8 
1
 10 
0.22221
 20 
0.53036
 30 
0.0
 0 
VERTEX
 8 
1
 10 
0.19562
 20 
0.52937
 30 
0.0
 0 
VERTEX
 8 
1
 10 
0.17033
 20 
0.52797
 30 
0.0
 0 
VERTEX
 8 
1
 10 
0.14645
 20 
0.52619
 30 
0.0
 0 
VERTEX
 8 
1
 10 
0.12408
 20 
0.52407
 30 
0.0
 0 
VERTEX
 8 
1
 10 
0.10332
 20 
0.52169
 30 
0.0
 0 
VERTEX
 8 
1
 10 
0.08427
 20 
0.51911
 30 
0.0
 0 
VERTEX
 8 
1
 10 
0.06699
 20 
0.51639
 30 
0.0
 0 
VERTEX
 8 
1
 10 
0.051560
 20 
0.51357
 30 
0.0
 0 
VERTEX
 8 
1
 10 
0.03806
 20 
0.51071
 30 
0.0
 0 
VERTEX
 8 
1
 10 
0.026530
 20 
0.5079
 30 
0.0
 0 
VERTEX
 8 
1
 10 
0.017040
 20 
0.50527
 30 
0.0
 0 
VERTEX
 8 
1
 10 
0.0096100
 20 
0.5031
 30 
0.0
 0 
VERTEX
 8 
1
 10 
0.0042799
 20 
0.50136
 30 
0.0
 0 
VERTEX
 8 
1
 10 
0.0010700
 20 
0.50016
 30 
0.0
 0 
VERTEX
 8 
1
 10 
0.0
 20 
0.5
 30 
0.0
 0 
SEQEND
 8 
1
 0 
ENDSEC
 0 
EOF
