 0 
SECTION
 2 
ENTITIES
 0 
POLYLINE
 8 
1
 66 
 1 
 10 
0.0
 20 
0.0
 30 
0.0
 0 
VERTEX
 8 
1
 10 
0.0
 20 
0.50299
 30 
0.0
 0 
VERTEX
 8 
1
 10 
0.01
 20 
0.50322
 30 
0.0
 0 
VERTEX
 8 
1
 10 
0.025
 20 
0.50392
 30 
0.0
 0 
VERTEX
 8 
1
 10 
0.05
 20 
0.50598
 30 
0.0
 0 
VERTEX
 8 
1
 10 
0.075
 20 
0.50899
 30 
0.0
 0 
VERTEX
 8 
1
 10 
0.1
 20 
0.5126
 30 
0.0
 0 
VERTEX
 8 
1
 10 
0.15
 20 
0.52064
 30 
0.0
 0 
VERTEX
 8 
1
 10 
0.2
 20 
0.5286
 30 
0.0
 0 
VERTEX
 8 
1
 10 
0.25
 20 
0.536
 30 
0.0
 0 
VERTEX
 8 
1
 10 
0.3
 20 
0.54246
 30 
0.0
 0 
VERTEX
 8 
1
 10 
0.35
 20 
0.54792
 30 
0.0
 0 
VERTEX
 8 
1
 10 
0.4
 20 
0.55249
 30 
0.0
 0 
VERTEX
 8 
1
 10 
0.45
 20 
0.55623
 30 
0.0
 0 
VERTEX
 8 
1
 10 
0.5
 20 
0.55924
 30 
0.0
 0 
VERTEX
 8 
1
 10 
0.55
 20 
0.56154
 30 
0.0
 0 
VERTEX
 8 
1
 10 
0.6
 20 
0.56316
 30 
0.0
 0 
VERTEX
 8 
1
 10 
0.65
 20 
0.56409
 30 
0.0
 0 
VERTEX
 8 
1
 10 
0.7
 20 
0.56446
 30 
0.0
 0 
VERTEX
 8 
1
 10 
0.75
 20 
0.56431
 30 
0.0
 0 
VERTEX
 8 
1
 10 
0.8
 20 
0.56344
 30 
0.0
 0 
VERTEX
 8 
1
 10 
0.85
 20 
0.56098
 30 
0.0
 0 
VERTEX
 8 
1
 10 
0.875
 20 
0.55829
 30 
0.0
 0 
VERTEX
 8 
1
 10 
0.9
 20 
0.55421
 30 
0.0
 0 
VERTEX
 8 
1
 10 
0.92
 20 
0.54961
 30 
0.0
 0 
VERTEX
 8 
1
 10 
0.935
 20 
0.54523
 30 
0.0
 0 
VERTEX
 8 
1
 10 
0.95
 20 
0.53991
 30 
0.0
 0 
VERTEX
 8 
1
 10 
0.965
 20 
0.53335
 30 
0.0
 0 
VERTEX
 8 
1
 10 
0.975
 20 
0.52801
 30 
0.0
 0 
VERTEX
 8 
1
 10 
0.98
 20 
0.5249
 30 
0.0
 0 
VERTEX
 8 
1
 10 
0.984
 20 
0.52214
 30 
0.0
 0 
VERTEX
 8 
1
 10 
0.9875
 20 
0.51945
 30 
0.0
 0 
VERTEX
 8 
1
 10 
0.99
 20 
0.51732
 30 
0.0
 0 
VERTEX
 8 
1
 10 
0.992
 20 
0.51543
 30 
0.0
 0 
VERTEX
 8 
1
 10 
0.9935
 20 
0.51388
 30 
0.0
 0 
VERTEX
 8 
1
 10 
0.995
 20 
0.51214
 30 
0.0
 0 
VERTEX
 8 
1
 10 
0.9965
 20 
0.51013
 30 
0.0
 0 
VERTEX
 8 
1
 10 
0.998
 20 
0.50766
 30 
0.0
 0 
VERTEX
 8 
1
 10 
0.999
 20 
0.50541
 30 
0.0
 0 
VERTEX
 8 
1
 10 
0.9995
 20 
0.50377
 30 
0.0
 0 
VERTEX
 8 
1
 10 
0.9998
 20 
0.50238
 30 
0.0
 0 
VERTEX
 8 
1
 10 
1
 20 
0.5
 30 
0.0
 0 
VERTEX
 8 
1
 10 
0.9998
 20 
0.49767
 30 
0.0
 0 
VERTEX
 8 
1
 10 
0.9995
 20 
0.49612
 30 
0.0
 0 
VERTEX
 8 
1
 10 
0.999
 20 
0.49528
 30 
0.0
 0 
VERTEX
 8 
1
 10 
0.998
 20 
0.49349
 30 
0.0
 0 
VERTEX
 8 
1
 10 
0.9965
 20 
0.49156
 30 
0.0
 0 
VERTEX
 8 
1
 10 
0.995
 20 
0.49005
 30 
0.0
 0 
VERTEX
 8 
1
 10 
0.9935
 20 
0.4888
 30 
0.0
 0 
VERTEX
 8 
1
 10 
0.992
 20 
0.48773
 30 
0.0
 0 
VERTEX
 8 
1
 10 
0.99
 20 
0.4865
 30 
0.0
 0 
VERTEX
 8 
1
 10 
0.9875
 20 
0.48518
 30 
0.0
 0 
VERTEX
 8 
1
 10 
0.984
 20 
0.48366
 30 
0.0
 0 
VERTEX
 8 
1
 10 
0.98
 20 
0.48223
 30 
0.0
 0 
VERTEX
 8 
1
 10 
0.975
 20 
0.48078
 30 
0.0
 0 
VERTEX
 8 
1
 10 
0.965
 20 
0.47863
 30 
0.0
 0 
VERTEX
 8 
1
 10 
0.95
 20 
0.47635
 30 
0.0
 0 
VERTEX
 8 
1
 10 
0.935
 20 
0.47451
 30 
0.0
 0 
VERTEX
 8 
1
 10 
0.92
 20 
0.4729
 30 
0.0
 0 
VERTEX
 8 
1
 10 
0.9
 20 
0.47098
 30 
0.0
 0 
VERTEX
 8 
1
 10 
0.875
 20 
0.46896
 30 
0.0
 0 
VERTEX
 8 
1
 10 
0.85
 20 
0.46723
 30 
0.0
 0 
VERTEX
 8 
1
 10 
0.8
 20 
0.46449
 30 
0.0
 0 
VERTEX
 8 
1
 10 
0.75
 20 
0.46273
 30 
0.0
 0 
VERTEX
 8 
1
 10 
0.7
 20 
0.46172
 30 
0.0
 0 
VERTEX
 8 
1
 10 
0.65
 20 
0.46134
 30 
0.0
 0 
VERTEX
 8 
1
 10 
0.6
 20 
0.46152
 30 
0.0
 0 
VERTEX
 8 
1
 10 
0.55
 20 
0.46218
 30 
0.0
 0 
VERTEX
 8 
1
 10 
0.5
 20 
0.46335
 30 
0.0
 0 
VERTEX
 8 
1
 10 
0.45
 20 
0.46499
 30 
0.0
 0 
VERTEX
 8 
1
 10 
0.4
 20 
0.46703
 30 
0.0
 0 
VERTEX
 8 
1
 10 
0.35
 20 
0.46944
 30 
0.0
 0 
VERTEX
 8 
1
 10 
0.3
 20 
0.47215
 30 
0.0
 0 
VERTEX
 8 
1
 10 
0.25
 20 
0.47514
 30 
0.0
 0 
VERTEX
 8 
1
 10 
0.2
 20 
0.47847
 30 
0.0
 0 
VERTEX
 8 
1
 10 
0.15
 20 
0.48214
 30 
0.0
 0 
VERTEX
 8 
1
 10 
0.1
 20 
0.48626
 30 
0.0
 0 
VERTEX
 8 
1
 10 
0.075
 20 
0.48856
 30 
0.0
 0 
VERTEX
 8 
1
 10 
0.05
 20 
0.49112
 30 
0.0
 0 
VERTEX
 8 
1
 10 
0.025
 20 
0.49397
 30 
0.0
 0 
VERTEX
 8 
1
 10 
0.01
 20 
0.49579
 30 
0.0
 0 
VERTEX
 8 
1
 10 
0.0
 20 
0.497
 30 
0.0
 0 
SEQEND
 8 
1
 0 
ENDSEC
 0 
EOF
