 0 
SECTION
 2 
ENTITIES
 0 
POLYLINE
 8 
1
 66 
 1 
 10 
0.0
 20 
0.0
 30 
0.0
 0 
VERTEX
 8 
1
 10 
0.0
 20 
0.502
 30 
0.0
 0 
VERTEX
 8 
1
 10 
0.01
 20 
0.50083
 30 
0.0
 0 
VERTEX
 8 
1
 10 
0.02
 20 
0.50009
 30 
0.0
 0 
VERTEX
 8 
1
 10 
0.03
 20 
0.49974
 30 
0.0
 0 
VERTEX
 8 
1
 10 
0.05
 20 
0.50008
 30 
0.0
 0 
VERTEX
 8 
1
 10 
0.075
 20 
0.50224
 30 
0.0
 0 
VERTEX
 8 
1
 10 
0.1
 20 
0.50565
 30 
0.0
 0 
VERTEX
 8 
1
 10 
0.125
 20 
0.5099
 30 
0.0
 0 
VERTEX
 8 
1
 10 
0.15
 20 
0.51463
 30 
0.0
 0 
VERTEX
 8 
1
 10 
0.175
 20 
0.51951
 30 
0.0
 0 
VERTEX
 8 
1
 10 
0.2
 20 
0.52436
 30 
0.0
 0 
VERTEX
 8 
1
 10 
0.225
 20 
0.52914
 30 
0.0
 0 
VERTEX
 8 
1
 10 
0.25
 20 
0.53374
 30 
0.0
 0 
VERTEX
 8 
1
 10 
0.275
 20 
0.5381
 30 
0.0
 0 
VERTEX
 8 
1
 10 
0.3
 20 
0.54214
 30 
0.0
 0 
VERTEX
 8 
1
 10 
0.325
 20 
0.5458
 30 
0.0
 0 
VERTEX
 8 
1
 10 
0.35
 20 
0.54902
 30 
0.0
 0 
VERTEX
 8 
1
 10 
0.375
 20 
0.5518
 30 
0.0
 0 
VERTEX
 8 
1
 10 
0.4
 20 
0.55415
 30 
0.0
 0 
VERTEX
 8 
1
 10 
0.425
 20 
0.55606
 30 
0.0
 0 
VERTEX
 8 
1
 10 
0.45
 20 
0.55752
 30 
0.0
 0 
VERTEX
 8 
1
 10 
0.475
 20 
0.55863
 30 
0.0
 0 
VERTEX
 8 
1
 10 
0.5
 20 
0.55948
 30 
0.0
 0 
VERTEX
 8 
1
 10 
0.525
 20 
0.56018
 30 
0.0
 0 
VERTEX
 8 
1
 10 
0.55
 20 
0.56073
 30 
0.0
 0 
VERTEX
 8 
1
 10 
0.575
 20 
0.56114
 30 
0.0
 0 
VERTEX
 8 
1
 10 
0.6
 20 
0.5614
 30 
0.0
 0 
VERTEX
 8 
1
 10 
0.625
 20 
0.56152
 30 
0.0
 0 
VERTEX
 8 
1
 10 
0.65
 20 
0.56148
 30 
0.0
 0 
VERTEX
 8 
1
 10 
0.675
 20 
0.5613
 30 
0.0
 0 
VERTEX
 8 
1
 10 
0.7
 20 
0.56098
 30 
0.0
 0 
VERTEX
 8 
1
 10 
0.725
 20 
0.56053
 30 
0.0
 0 
VERTEX
 8 
1
 10 
0.75
 20 
0.55996
 30 
0.0
 0 
VERTEX
 8 
1
 10 
0.775
 20 
0.55928
 30 
0.0
 0 
VERTEX
 8 
1
 10 
0.8
 20 
0.55851
 30 
0.0
 0 
VERTEX
 8 
1
 10 
0.825
 20 
0.55754
 30 
0.0
 0 
VERTEX
 8 
1
 10 
0.85
 20 
0.55605
 30 
0.0
 0 
VERTEX
 8 
1
 10 
0.875
 20 
0.55364
 30 
0.0
 0 
VERTEX
 8 
1
 10 
0.9
 20 
0.55001
 30 
0.0
 0 
VERTEX
 8 
1
 10 
0.925
 20 
0.54469
 30 
0.0
 0 
VERTEX
 8 
1
 10 
0.95
 20 
0.53716
 30 
0.0
 0 
VERTEX
 8 
1
 10 
0.96
 20 
0.5333
 30 
0.0
 0 
VERTEX
 8 
1
 10 
0.97
 20 
0.52874
 30 
0.0
 0 
VERTEX
 8 
1
 10 
0.98
 20 
0.52316
 30 
0.0
 0 
VERTEX
 8 
1
 10 
0.99
 20 
0.51594
 30 
0.0
 0 
VERTEX
 8 
1
 10 
0.995
 20 
0.51105
 30 
0.0
 0 
VERTEX
 8 
1
 10 
0.998
 20 
0.50686
 30 
0.0
 0 
VERTEX
 8 
1
 10 
0.999
 20 
0.50479
 30 
0.0
 0 
VERTEX
 8 
1
 10 
0.9995
 20 
0.50329
 30 
0.0
 0 
VERTEX
 8 
1
 10 
1
 20 
0.5
 30 
0.0
 0 
VERTEX
 8 
1
 10 
0.9995
 20 
0.4972
 30 
0.0
 0 
VERTEX
 8 
1
 10 
0.999
 20 
0.49607
 30 
0.0
 0 
VERTEX
 8 
1
 10 
0.998
 20 
0.49449
 30 
0.0
 0 
VERTEX
 8 
1
 10 
0.995
 20 
0.49156
 30 
0.0
 0 
VERTEX
 8 
1
 10 
0.99
 20 
0.48856
 30 
0.0
 0 
VERTEX
 8 
1
 10 
0.98
 20 
0.48474
 30 
0.0
 0 
VERTEX
 8 
1
 10 
0.97
 20 
0.48203
 30 
0.0
 0 
VERTEX
 8 
1
 10 
0.96
 20 
0.47989
 30 
0.0
 0 
VERTEX
 8 
1
 10 
0.95
 20 
0.4781
 30 
0.0
 0 
VERTEX
 8 
1
 10 
0.925
 20 
0.47457
 30 
0.0
 0 
VERTEX
 8 
1
 10 
0.9
 20 
0.47187
 30 
0.0
 0 
VERTEX
 8 
1
 10 
0.875
 20 
0.46975
 30 
0.0
 0 
VERTEX
 8 
1
 10 
0.85
 20 
0.46803
 30 
0.0
 0 
VERTEX
 8 
1
 10 
0.825
 20 
0.4666
 30 
0.0
 0 
VERTEX
 8 
1
 10 
0.8
 20 
0.46541
 30 
0.0
 0 
VERTEX
 8 
1
 10 
0.775
 20 
0.46443
 30 
0.0
 0 
VERTEX
 8 
1
 10 
0.75
 20 
0.46361
 30 
0.0
 0 
VERTEX
 8 
1
 10 
0.725
 20 
0.46293
 30 
0.0
 0 
VERTEX
 8 
1
 10 
0.7
 20 
0.46238
 30 
0.0
 0 
VERTEX
 8 
1
 10 
0.675
 20 
0.46195
 30 
0.0
 0 
VERTEX
 8 
1
 10 
0.65
 20 
0.46167
 30 
0.0
 0 
VERTEX
 8 
1
 10 
0.625
 20 
0.46152
 30 
0.0
 0 
VERTEX
 8 
1
 10 
0.6
 20 
0.4615
 30 
0.0
 0 
VERTEX
 8 
1
 10 
0.575
 20 
0.46163
 30 
0.0
 0 
VERTEX
 8 
1
 10 
0.55
 20 
0.4619
 30 
0.0
 0 
VERTEX
 8 
1
 10 
0.525
 20 
0.46231
 30 
0.0
 0 
VERTEX
 8 
1
 10 
0.5
 20 
0.46286
 30 
0.0
 0 
VERTEX
 8 
1
 10 
0.475
 20 
0.46356
 30 
0.0
 0 
VERTEX
 8 
1
 10 
0.45
 20 
0.4644
 30 
0.0
 0 
VERTEX
 8 
1
 10 
0.425
 20 
0.46538
 30 
0.0
 0 
VERTEX
 8 
1
 10 
0.4
 20 
0.4665
 30 
0.0
 0 
VERTEX
 8 
1
 10 
0.375
 20 
0.46777
 30 
0.0
 0 
VERTEX
 8 
1
 10 
0.35
 20 
0.46917
 30 
0.0
 0 
VERTEX
 8 
1
 10 
0.325
 20 
0.47071
 30 
0.0
 0 
VERTEX
 8 
1
 10 
0.3
 20 
0.47238
 30 
0.0
 0 
VERTEX
 8 
1
 10 
0.275
 20 
0.47418
 30 
0.0
 0 
VERTEX
 8 
1
 10 
0.25
 20 
0.47611
 30 
0.0
 0 
VERTEX
 8 
1
 10 
0.225
 20 
0.47814
 30 
0.0
 0 
VERTEX
 8 
1
 10 
0.2
 20 
0.48028
 30 
0.0
 0 
VERTEX
 8 
1
 10 
0.175
 20 
0.48251
 30 
0.0
 0 
VERTEX
 8 
1
 10 
0.15
 20 
0.48482
 30 
0.0
 0 
VERTEX
 8 
1
 10 
0.125
 20 
0.48712
 30 
0.0
 0 
VERTEX
 8 
1
 10 
0.1
 20 
0.48939
 30 
0.0
 0 
VERTEX
 8 
1
 10 
0.075
 20 
0.49157
 30 
0.0
 0 
VERTEX
 8 
1
 10 
0.05
 20 
0.49355
 30 
0.0
 0 
VERTEX
 8 
1
 10 
0.03
 20 
0.49489
 30 
0.0
 0 
VERTEX
 8 
1
 10 
0.02
 20 
0.49543
 30 
0.0
 0 
VERTEX
 8 
1
 10 
0.01
 20 
0.49581
 30 
0.0
 0 
VERTEX
 8 
1
 10 
0.0
 20 
0.496
 30 
0.0
 0 
SEQEND
 8 
1
 0 
ENDSEC
 0 
EOF
