 0 
SECTION
 2 
ENTITIES
 0 
POLYLINE
 8 
1
 66 
 1 
 10 
0.0
 20 
0.0
 30 
0.0
 0 
VERTEX
 8 
1
 10 
0.0
 20 
0.50224
 30 
0.0
 0 
VERTEX
 8 
1
 10 
0.01065
 20 
0.50357
 30 
0.0
 0 
VERTEX
 8 
1
 10 
0.040630
 20 
0.5076
 30 
0.0
 0 
VERTEX
 8 
1
 10 
0.07061
 20 
0.51203
 30 
0.0
 0 
VERTEX
 8 
1
 10 
0.10059
 20 
0.51675
 30 
0.0
 0 
VERTEX
 8 
1
 10 
0.13057
 20 
0.52164
 30 
0.0
 0 
VERTEX
 8 
1
 10 
0.16055
 20 
0.52659
 30 
0.0
 0 
VERTEX
 8 
1
 10 
0.19053
 20 
0.53148
 30 
0.0
 0 
VERTEX
 8 
1
 10 
0.22051
 20 
0.53631
 30 
0.0
 0 
VERTEX
 8 
1
 10 
0.25049
 20 
0.54097
 30 
0.0
 0 
VERTEX
 8 
1
 10 
0.28047
 20 
0.54534
 30 
0.0
 0 
VERTEX
 8 
1
 10 
0.31045
 20 
0.54949
 30 
0.0
 0 
VERTEX
 8 
1
 10 
0.34043
 20 
0.55329
 30 
0.0
 0 
VERTEX
 8 
1
 10 
0.37041
 20 
0.55668
 30 
0.0
 0 
VERTEX
 8 
1
 10 
0.40039
 20 
0.55967
 30 
0.0
 0 
VERTEX
 8 
1
 10 
0.43037
 20 
0.56226
 30 
0.0
 0 
VERTEX
 8 
1
 10 
0.46035
 20 
0.56433
 30 
0.0
 0 
VERTEX
 8 
1
 10 
0.49033
 20 
0.566
 30 
0.0
 0 
VERTEX
 8 
1
 10 
0.52031
 20 
0.56721
 30 
0.0
 0 
VERTEX
 8 
1
 10 
0.55029
 20 
0.5679
 30 
0.0
 0 
VERTEX
 8 
1
 10 
0.58027
 20 
0.56819
 30 
0.0
 0 
VERTEX
 8 
1
 10 
0.61025
 20 
0.56802
 30 
0.0
 0 
VERTEX
 8 
1
 10 
0.64023
 20 
0.56744
 30 
0.0
 0 
VERTEX
 8 
1
 10 
0.67022
 20 
0.56646
 30 
0.0
 0 
VERTEX
 8 
1
 10 
0.7002
 20 
0.56514
 30 
0.0
 0 
VERTEX
 8 
1
 10 
0.73018
 20 
0.56347
 30 
0.0
 0 
VERTEX
 8 
1
 10 
0.76016
 20 
0.56146
 30 
0.0
 0 
VERTEX
 8 
1
 10 
0.79014
 20 
0.5591
 30 
0.0
 0 
VERTEX
 8 
1
 10 
0.82012
 20 
0.55645
 30 
0.0
 0 
VERTEX
 8 
1
 10 
0.8501
 20 
0.55346
 30 
0.0
 0 
VERTEX
 8 
1
 10 
0.88008
 20 
0.55001
 30 
0.0
 0 
VERTEX
 8 
1
 10 
0.91006
 20 
0.54581
 30 
0.0
 0 
VERTEX
 8 
1
 10 
0.94004
 20 
0.54022
 30 
0.0
 0 
VERTEX
 8 
1
 10 
0.97002
 20 
0.53159
 30 
0.0
 0 
VERTEX
 8 
1
 10 
0.98849
 20 
0.52158
 30 
0.0
 0 
VERTEX
 8 
1
 10 
0.99425
 20 
0.516
 30 
0.0
 0 
VERTEX
 8 
1
 10 
0.99712
 20 
0.51168
 30 
0.0
 0 
VERTEX
 8 
1
 10 
1
 20 
0.5
 30 
0.0
 0 
VERTEX
 8 
1
 10 
0.99712
 20 
0.48855
 30 
0.0
 0 
VERTEX
 8 
1
 10 
0.99425
 20 
0.48446
 30 
0.0
 0 
VERTEX
 8 
1
 10 
0.98849
 20 
0.47928
 30 
0.0
 0 
VERTEX
 8 
1
 10 
0.97002
 20 
0.47071
 30 
0.0
 0 
VERTEX
 8 
1
 10 
0.94004
 20 
0.46415
 30 
0.0
 0 
VERTEX
 8 
1
 10 
0.91006
 20 
0.46058
 30 
0.0
 0 
VERTEX
 8 
1
 10 
0.88008
 20 
0.45817
 30 
0.0
 0 
VERTEX
 8 
1
 10 
0.8501
 20 
0.45638
 30 
0.0
 0 
VERTEX
 8 
1
 10 
0.82012
 20 
0.45494
 30 
0.0
 0 
VERTEX
 8 
1
 10 
0.79014
 20 
0.45373
 30 
0.0
 0 
VERTEX
 8 
1
 10 
0.76016
 20 
0.4527
 30 
0.0
 0 
VERTEX
 8 
1
 10 
0.73018
 20 
0.45184
 30 
0.0
 0 
VERTEX
 8 
1
 10 
0.7002
 20 
0.45115
 30 
0.0
 0 
VERTEX
 8 
1
 10 
0.67022
 20 
0.45068
 30 
0.0
 0 
VERTEX
 8 
1
 10 
0.64023
 20 
0.4504
 30 
0.0
 0 
VERTEX
 8 
1
 10 
0.61025
 20 
0.4504
 30 
0.0
 0 
VERTEX
 8 
1
 10 
0.58027
 20 
0.45068
 30 
0.0
 0 
VERTEX
 8 
1
 10 
0.55029
 20 
0.45126
 30 
0.0
 0 
VERTEX
 8 
1
 10 
0.52031
 20 
0.45218
 30 
0.0
 0 
VERTEX
 8 
1
 10 
0.49033
 20 
0.45339
 30 
0.0
 0 
VERTEX
 8 
1
 10 
0.46035
 20 
0.45489
 30 
0.0
 0 
VERTEX
 8 
1
 10 
0.43037
 20 
0.45678
 30 
0.0
 0 
VERTEX
 8 
1
 10 
0.40039
 20 
0.45891
 30 
0.0
 0 
VERTEX
 8 
1
 10 
0.37041
 20 
0.46139
 30 
0.0
 0 
VERTEX
 8 
1
 10 
0.34043
 20 
0.46415
 30 
0.0
 0 
VERTEX
 8 
1
 10 
0.31045
 20 
0.46714
 30 
0.0
 0 
VERTEX
 8 
1
 10 
0.28047
 20 
0.47031
 30 
0.0
 0 
VERTEX
 8 
1
 10 
0.25049
 20 
0.47359
 30 
0.0
 0 
VERTEX
 8 
1
 10 
0.22051
 20 
0.47704
 30 
0.0
 0 
VERTEX
 8 
1
 10 
0.19053
 20 
0.48049
 30 
0.0
 0 
VERTEX
 8 
1
 10 
0.16055
 20 
0.48389
 30 
0.0
 0 
VERTEX
 8 
1
 10 
0.13057
 20 
0.48717
 30 
0.0
 0 
VERTEX
 8 
1
 10 
0.10059
 20 
0.49028
 30 
0.0
 0 
VERTEX
 8 
1
 10 
0.07061
 20 
0.49304
 30 
0.0
 0 
VERTEX
 8 
1
 10 
0.040630
 20 
0.4954
 30 
0.0
 0 
VERTEX
 8 
1
 10 
0.01065
 20 
0.49724
 30 
0.0
 0 
VERTEX
 8 
1
 10 
0.0
 20 
0.49776
 30 
0.0
 0 
SEQEND
 8 
1
 0 
ENDSEC
 0 
EOF
