 0 
SECTION
 2 
ENTITIES
 0 
POLYLINE
 8 
1
 66 
 1 
 10 
0.0
 20 
0.0
 30 
0.0
 0 
VERTEX
 8 
1
 10 
0.0
 20 
0.5
 30 
0.0
 0 
VERTEX
 8 
1
 10 
0.0033300
 20 
0.50057
 30 
0.0
 0 
VERTEX
 8 
1
 10 
0.0066699
 20 
0.50114
 30 
0.0
 0 
VERTEX
 8 
1
 10 
0.01
 20 
0.50171
 30 
0.0
 0 
VERTEX
 8 
1
 10 
0.01333
 20 
0.50228
 30 
0.0
 0 
VERTEX
 8 
1
 10 
0.02
 20 
0.5034
 30 
0.0
 0 
VERTEX
 8 
1
 10 
0.07333
 20 
0.5124
 30 
0.0
 0 
VERTEX
 8 
1
 10 
0.12667
 20 
0.5215
 30 
0.0
 0 
VERTEX
 8 
1
 10 
0.18
 20 
0.53065
 30 
0.0
 0 
VERTEX
 8 
1
 10 
0.24
 20 
0.54077
 30 
0.0
 0 
VERTEX
 8 
1
 10 
0.29333
 20 
0.54945
 30 
0.0
 0 
VERTEX
 8 
1
 10 
0.34667
 20 
0.55768
 30 
0.0
 0 
VERTEX
 8 
1
 10 
0.4
 20 
0.5653
 30 
0.0
 0 
VERTEX
 8 
1
 10 
0.45333
 20 
0.57214
 30 
0.0
 0 
VERTEX
 8 
1
 10 
0.50667
 20 
0.57799
 30 
0.0
 0 
VERTEX
 8 
1
 10 
0.56
 20 
0.58263
 30 
0.0
 0 
VERTEX
 8 
1
 10 
0.60667
 20 
0.58551
 30 
0.0
 0 
VERTEX
 8 
1
 10 
0.65333
 20 
0.5871
 30 
0.0
 0 
VERTEX
 8 
1
 10 
0.68667
 20 
0.58735
 30 
0.0
 0 
VERTEX
 8 
1
 10 
0.72667
 20 
0.58655
 30 
0.0
 0 
VERTEX
 8 
1
 10 
0.76667
 20 
0.58438
 30 
0.0
 0 
VERTEX
 8 
1
 10 
0.80667
 20 
0.58055
 30 
0.0
 0 
VERTEX
 8 
1
 10 
0.84
 20 
0.57577
 30 
0.0
 0 
VERTEX
 8 
1
 10 
0.87333
 20 
0.56914
 30 
0.0
 0 
VERTEX
 8 
1
 10 
0.90667
 20 
0.56012
 30 
0.0
 0 
VERTEX
 8 
1
 10 
0.94
 20 
0.54786
 30 
0.0
 0 
VERTEX
 8 
1
 10 
0.95333
 20 
0.54171
 30 
0.0
 0 
VERTEX
 8 
1
 10 
0.96667
 20 
0.53454
 30 
0.0
 0 
VERTEX
 8 
1
 10 
0.97333
 20 
0.53045
 30 
0.0
 0 
VERTEX
 8 
1
 10 
0.98
 20 
0.52587
 30 
0.0
 0 
VERTEX
 8 
1
 10 
0.98667
 20 
0.52052
 30 
0.0
 0 
VERTEX
 8 
1
 10 
0.99
 20 
0.51739
 30 
0.0
 0 
VERTEX
 8 
1
 10 
0.99333
 20 
0.51377
 30 
0.0
 0 
VERTEX
 8 
1
 10 
0.99667
 20 
0.50929
 30 
0.0
 0 
VERTEX
 8 
1
 10 
1
 20 
0.5
 30 
0.0
 0 
VERTEX
 8 
1
 10 
0.99667
 20 
0.49428
 30 
0.0
 0 
VERTEX
 8 
1
 10 
0.99333
 20 
0.49275
 30 
0.0
 0 
VERTEX
 8 
1
 10 
0.99
 20 
0.4919
 30 
0.0
 0 
VERTEX
 8 
1
 10 
0.98667
 20 
0.49138
 30 
0.0
 0 
VERTEX
 8 
1
 10 
0.98
 20 
0.49083
 30 
0.0
 0 
VERTEX
 8 
1
 10 
0.97333
 20 
0.4906
 30 
0.0
 0 
VERTEX
 8 
1
 10 
0.96667
 20 
0.49053
 30 
0.0
 0 
VERTEX
 8 
1
 10 
0.95333
 20 
0.49061
 30 
0.0
 0 
VERTEX
 8 
1
 10 
0.94
 20 
0.4908
 30 
0.0
 0 
VERTEX
 8 
1
 10 
0.90667
 20 
0.49134
 30 
0.0
 0 
VERTEX
 8 
1
 10 
0.87333
 20 
0.49179
 30 
0.0
 0 
VERTEX
 8 
1
 10 
0.84
 20 
0.49213
 30 
0.0
 0 
VERTEX
 8 
1
 10 
0.80667
 20 
0.49242
 30 
0.0
 0 
VERTEX
 8 
1
 10 
0.76667
 20 
0.49276
 30 
0.0
 0 
VERTEX
 8 
1
 10 
0.72667
 20 
0.49312
 30 
0.0
 0 
VERTEX
 8 
1
 10 
0.68667
 20 
0.4935
 30 
0.0
 0 
VERTEX
 8 
1
 10 
0.65333
 20 
0.49382
 30 
0.0
 0 
VERTEX
 8 
1
 10 
0.60667
 20 
0.49426
 30 
0.0
 0 
VERTEX
 8 
1
 10 
0.56
 20 
0.4947
 30 
0.0
 0 
VERTEX
 8 
1
 10 
0.50667
 20 
0.4952
 30 
0.0
 0 
VERTEX
 8 
1
 10 
0.45333
 20 
0.4957
 30 
0.0
 0 
VERTEX
 8 
1
 10 
0.4
 20 
0.4962
 30 
0.0
 0 
VERTEX
 8 
1
 10 
0.34667
 20 
0.4967
 30 
0.0
 0 
VERTEX
 8 
1
 10 
0.29333
 20 
0.49721
 30 
0.0
 0 
VERTEX
 8 
1
 10 
0.24
 20 
0.49771
 30 
0.0
 0 
VERTEX
 8 
1
 10 
0.18
 20 
0.49827
 30 
0.0
 0 
VERTEX
 8 
1
 10 
0.12667
 20 
0.49878
 30 
0.0
 0 
VERTEX
 8 
1
 10 
0.07333
 20 
0.4993
 30 
0.0
 0 
VERTEX
 8 
1
 10 
0.02
 20 
0.49981
 30 
0.0
 0 
VERTEX
 8 
1
 10 
0.01333
 20 
0.49987
 30 
0.0
 0 
VERTEX
 8 
1
 10 
0.01
 20 
0.49991
 30 
0.0
 0 
VERTEX
 8 
1
 10 
0.0066699
 20 
0.49994
 30 
0.0
 0 
VERTEX
 8 
1
 10 
0.0033300
 20 
0.49997
 30 
0.0
 0 
VERTEX
 8 
1
 10 
0.0
 20 
0.5
 30 
0.0
 0 
SEQEND
 8 
1
 0 
ENDSEC
 0 
EOF
