  0
SECTION
  2
HEADER
  9
$ACADVER
  1
AC1004
  9
$EXTMIN
 10
0.3157
 20
3.2138
  9
$EXTMAX
 10
62.8147
 20
36.9150
  9
$LIMMIN
 10
0.3157
 20
3.2138
  9
$LIMMAX
 10
62.8147
 20
36.9150
  9
$INSBASE
 10
0.0
 20
0.0
  9
$VIEWCTR
 10
7.21903
 20
4.5
  9
$VIEWSIZE
 40
9.0
  9
$SNAPMODE
 70
     0
  9
$SNAPUNIT
 10
1.0
 20
1.0
  9
$SNAPBASE
 10
0.0
 20
0.0
  9
$SNAPANG
 50
0.0
  9
$SNAPSTYLE
 70
     0
  9
$SNAPISOPAIR
 70
     0
  9
$GRIDMODE
 70
     0
  9
$GRIDUNIT
 10
0.0
 20
0.0
  9
$ORTHOMODE
 70
     0
  9
$REGENMODE
 70
     1
  9
$FILLMODE
 70
     1
  9
$QTEXTMODE
 70
     0
  9
$DRAGMODE
 70
     2
  9
$LTSCALE
 40
1.0
  9
$OSMODE
 70
     0
  9
$ATTMODE
 70
     1
  9
$TEXTSIZE
 40
0.2
  9
$TRACEWID
 40
0.05
  9
$TEXTSTYLE
  7
STANDARD
  9
$CLAYER
  8
0
  9
$CELTYPE
  6
BYLAYER
  9
$CECOLOR
 62
   256
  9
$DIMSCALE
 40
1.0
  9
$DIMASZ
 40
0.18
  9
$DIMEXO
 40
0.0625
  9
$DIMDLI
 40
0.38
  9
$DIMRND
 40
0.0
  9
$DIMDLE
 40
0.0
  9
$DIMEXE
 40
0.18
  9
$DIMTP
 40
0.0
  9
$DIMTM
 40
0.0
  9
$DIMTXT
 40
0.18
  9
$DIMCEN
 40
0.09
  9
$DIMTSZ
 40
0.0
  9
$DIMTOL
 70
     0
  9
$DIMLIM
 70
     0
  9
$DIMTIH
 70
     1
  9
$DIMTOH
 70
     1
  9
$DIMSE1
 70
     0
  9
$DIMSE2
 70
     0
  9
$DIMTAD
 70
     0
  9
$DIMZIN
 70
     0
  9
$DIMBLK
  1

  9
$DIMASO
 70
     1
  9
$DIMSHO
 70
     0
  9
$DIMPOST
  1

  9
$DIMAPOST
  1

  9
$DIMALT
 70
     0
  9
$DIMALTD
 70
     2
  9
$DIMALTF
 40
25.4
  9
$DIMLFAC
 40
1.0
  9
$LUNITS
 70
     2
  9
$LUPREC
 70
     4
  9
$AXISMODE
 70
     0
  9
$AXISUNIT
 10
0.0
 20
0.0
  9
$SKETCHINC
 40
0.1
  9
$FILLETRAD
 40
0.0
  9
$AUNITS
 70
     0
  9
$AUPREC
 70
     0
  9
$MENU
  1
acad
  9
$ELEVATION
 40
0.0
  9
$THICKNESS
 40
0.0
  9
$VIEWDIR
 10
0.0
 20
0.0
 30
1.0
  9
$LIMCHECK
 70
     0
  9
$BLIPMODE
 70
     1
  9
$CHAMFERA
 40
0.0
  9
$CHAMFERB
 40
0.0
  9
$FASTZOOM
 70
     1
  9
$SKPOLY
 70
     0
  9
$TDCREATE
 40
2447222.5666886573
  9
$TDUPDATE
 40
2447222.5666886573
  9
$TDINDWG
 40
0.0000000000
  9
$TDUSRTIMER
 40
0.0000000000
  9
$USRTIMER
 70
     1
  9
$ANGBASE
 50
0.0
  9
$ANGDIR
 70
     0
  9
$PDMODE
 70
     0
  9
$PDSIZE
 40
0.0
  9
$PLINEWID
 40
0.0
  9
$COORDS
 70
     0
  9
$SPLFRAME
 70
     0
  9
$SPLINESEGS
 70
     8
  9
$ATTDIA
 70
     0
  9
$ATTREQ
 70
     1
  9
$USERI1
 70
     0
  9
$USERI2
 70
     0
  9
$USERI3
 70
     0
  9
$USERI4
 70
     0
  9
$USERI5
 70
     0
  9
$USERR1
 40
0.0
  9
$USERR2
 40
0.0
  9
$USERR3
 40
0.0
  9
$USERR4
 40
0.0
  9
$USERR5
 40
0.0
  0
ENDSEC
  0
SECTION
  2
TABLES
  0
TABLE
  2
LTYPE
 70
     13
  0
LTYPE
  2
CONTINUOUS
 70
    64
  3
Solid line
 72
    65
 73
     0
 40
0.0
  0
LTYPE
  2
DASHED
 70
    64
  3
__ __ __ __ __ __ __ __ __ __ __ __ __ __ __
 72
    65
 73
     2
 40
0.75
 49
0.5
 49
-0.25
  0
LTYPE
  2
HIDDEN
 70
    64
  3
_ _ _ _ _ _ _ _ _ _ _ _ _ _ _ _ _ _ _ _ _ _ _
 72
    65
 73
     2
 40
0.375
 49
0.25
 49
-0.125
  0
LTYPE
  2
CENTER
 70
    64
  3
____ _ ____ _ ____ _ ____ _ ____ _ ____ _ ____
 72
    65
 73
     4
 40
2.0
 49
1.25
 49
-0.25
 49
0.25
 49
-0.25
  0
LTYPE
  2
PHANTOM
 70
    64
  3
_____ _ _ _____ _ _ _____ _ _ _____ _ _ ____
 72
    65
 73
     6
 40
2.5
 49
1.25
 49
-0.25
 49
0.25
 49
-0.25
 49
0.25
 49
-0.25
  0
LTYPE
  2
DOT
 70
    64
  3
...............................................
 72
    65
 73
     2
 40
0.25
 49
0.0
 49
-0.25
  0
LTYPE
  2
DASHDOT
 70
    64
  3
__ . __ . __ . __ . __ . __ . __ . __ . __ . __
 72
    65
 73
     4
 40
1.0
 49
0.5
 49
-0.25
 49
0.0
 49
-0.25
  0
LTYPE
  2
BORDER
 70
    64
  3
__ __ . __ __ . __ __ . __ __ . __ __ . __ __
 72
    65
 73
     6
 40
1.75
 49
0.5
 49
-0.25
 49
0.5
 49
-0.25
 49
0.0
 49
-0.25
  0
LTYPE
  2
DIVIDE
 70
    64
  3
__ . . __ . . __ . . __ . . __ . . __ . . __
 72
    65
 73
     6
 40
1.25
 49
0.5
 49
-0.25
 49
0.0
 49
-0.25
 49
0.0
 49
-0.25
  0
LTYPE
  2
DCTYPE1
 70
    64
  3
__ . . __ . . __ . . __ . . __ . . __ . . __
 72
    65
 73
     8
 40
2.5
 49
0.5
 49
-0.25
 49
0.125
 49
-0.25
 49
0.25
 49
-0.25
 49
0.125
 49
-0.25
  0
LTYPE
  2
DCTYPE2
 70
    64
  3
__ . . __ . . __ . . __ . . __ . . __ . . __
 72
    65
 73
     6
 40
2.05
 49
1.0
 49
-0.3
 49
0.15
 49
-0.15
 49
0.15
 49
-0.3
  0
LTYPE
  2
DCTYPE3
 70
    64
  3
__ . . __ . . __ . . __ . . __ . . __ . . __
 72
    65
 73
     6
 40
2.5
 49
0.8
 49
-0.2
 49
0.8
 49
-0.2
 49
0.3
 49
-0.2
  0
LTYPE
  2
DCTYPE4
 70
    64
  3
__ . . __ . . __ . . __ . . __ . . __ . . __
 72
    65
 73
     10
 40
3.97
 49
1.75
 49
-0.3
 49
0.3
 49
-0.3
 49
0.06
 49
-0.3
 49
0.06
 49
-0.3
 49
0.3
 49
-0.3
  0
ENDTAB
  0
TABLE
  2
LAYER
 70
    153
  0
LAYER
  2
0
 70
 64
 62
     7
  6
CONTINUOUS
  0
ENDTAB
  0
ENDSEC
  0
SECTION
  2
BLOCKS
  0
ENDSEC
  0
SECTION
  2
ENTITIES
  0
TEXT
  8
0
 62
     7
 10
0.3157
 20
28.2134
 40
7.2513
 50
0.0000
 51
0.0000
  1
AVERJANOV
 72
     5
 11
62.8147
 21
28.2134
  0
POLYLINE
  8
0
 62
     3
 66
     1
  6
CONTINUOUS
  0
VERTEX
  8
0
 62
     3
  6
CONTINUOUS
 10
0.3157
 20
4.0575
  0
VERTEX
  8
0
 62
     3
  6
CONTINUOUS
 10
0.3769
 20
4.1492
  0
VERTEX
  8
0
 62
     3
  6
CONTINUOUS
 10
0.4384
 20
4.2407
  0
VERTEX
  8
0
 62
     3
  6
CONTINUOUS
 10
0.5001
 20
4.3320
  0
VERTEX
  8
0
 62
     3
  6
CONTINUOUS
 10
0.5624
 20
4.4229
  0
VERTEX
  8
0
 62
     3
  6
CONTINUOUS
 10
0.6253
 20
4.5132
  0
VERTEX
  8
0
 62
     3
  6
CONTINUOUS
 10
0.6889
 20
4.6029
  0
VERTEX
  8
0
 62
     3
  6
CONTINUOUS
 10
0.7536
 20
4.6918
  0
VERTEX
  8
0
 62
     3
  6
CONTINUOUS
 10
0.8194
 20
4.7798
  0
VERTEX
  8
0
 62
     3
  6
CONTINUOUS
 10
0.8864
 20
4.8668
  0
VERTEX
  8
0
 62
     3
  6
CONTINUOUS
 10
0.9549
 20
4.9525
  0
VERTEX
  8
0
 62
     3
  6
CONTINUOUS
 10
1.0250
 20
5.0370
  0
VERTEX
  8
0
 62
     3
  6
CONTINUOUS
 10
1.0969
 20
5.1200
  0
VERTEX
  8
0
 62
     3
  6
CONTINUOUS
 10
1.1561
 20
5.1857
  0
VERTEX
  8
0
 62
     3
  6
CONTINUOUS
 10
1.2165
 20
5.2504
  0
VERTEX
  8
0
 62
     3
  6
CONTINUOUS
 10
1.2781
 20
5.3140
  0
VERTEX
  8
0
 62
     3
  6
CONTINUOUS
 10
1.3408
 20
5.3766
  0
VERTEX
  8
0
 62
     3
  6
CONTINUOUS
 10
1.4046
 20
5.4382
  0
VERTEX
  8
0
 62
     3
  6
CONTINUOUS
 10
1.4695
 20
5.4987
  0
VERTEX
  8
0
 62
     3
  6
CONTINUOUS
 10
1.5353
 20
5.5581
  0
VERTEX
  8
0
 62
     3
  6
CONTINUOUS
 10
1.6021
 20
5.6164
  0
VERTEX
  8
0
 62
     3
  6
CONTINUOUS
 10
1.6699
 20
5.6736
  0
VERTEX
  8
0
 62
     3
  6
CONTINUOUS
 10
1.7385
 20
5.7298
  0
VERTEX
  8
0
 62
     3
  6
CONTINUOUS
 10
1.8079
 20
5.7848
  0
VERTEX
  8
0
 62
     3
  6
CONTINUOUS
 10
1.8781
 20
5.8388
  0
VERTEX
  8
0
 62
     3
  6
CONTINUOUS
 10
2.0004
 20
5.9288
  0
VERTEX
  8
0
 62
     3
  6
CONTINUOUS
 10
2.1248
 20
6.0157
  0
VERTEX
  8
0
 62
     3
  6
CONTINUOUS
 10
2.2510
 20
6.0999
  0
VERTEX
  8
0
 62
     3
  6
CONTINUOUS
 10
2.3789
 20
6.1816
  0
VERTEX
  8
0
 62
     3
  6
CONTINUOUS
 10
2.5083
 20
6.2610
  0
VERTEX
  8
0
 62
     3
  6
CONTINUOUS
 10
2.6390
 20
6.3385
  0
VERTEX
  8
0
 62
     3
  6
CONTINUOUS
 10
2.7708
 20
6.4142
  0
VERTEX
  8
0
 62
     3
  6
CONTINUOUS
 10
2.9036
 20
6.4885
  0
VERTEX
  8
0
 62
     3
  6
CONTINUOUS
 10
3.0372
 20
6.5615
  0
VERTEX
  8
0
 62
     3
  6
CONTINUOUS
 10
3.1713
 20
6.6337
  0
VERTEX
  8
0
 62
     3
  6
CONTINUOUS
 10
3.3058
 20
6.7052
  0
VERTEX
  8
0
 62
     3
  6
CONTINUOUS
 10
3.4406
 20
6.7762
  0
VERTEX
  8
0
 62
     3
  6
CONTINUOUS
 10
3.5689
 20
6.8437
  0
VERTEX
  8
0
 62
     3
  6
CONTINUOUS
 10
3.6972
 20
6.9108
  0
VERTEX
  8
0
 62
     3
  6
CONTINUOUS
 10
3.8258
 20
6.9774
  0
VERTEX
  8
0
 62
     3
  6
CONTINUOUS
 10
3.9546
 20
7.0434
  0
VERTEX
  8
0
 62
     3
  6
CONTINUOUS
 10
4.0837
 20
7.1085
  0
VERTEX
  8
0
 62
     3
  6
CONTINUOUS
 10
4.2132
 20
7.1727
  0
VERTEX
  8
0
 62
     3
  6
CONTINUOUS
 10
4.3433
 20
7.2356
  0
VERTEX
  8
0
 62
     3
  6
CONTINUOUS
 10
4.4738
 20
7.2972
  0
VERTEX
  8
0
 62
     3
  6
CONTINUOUS
 10
4.6050
 20
7.3572
  0
VERTEX
  8
0
 62
     3
  6
CONTINUOUS
 10
4.7369
 20
7.4155
  0
VERTEX
  8
0
 62
     3
  6
CONTINUOUS
 10
4.8696
 20
7.4719
  0
VERTEX
  8
0
 62
     3
  6
CONTINUOUS
 10
5.0031
 20
7.5262
  0
VERTEX
  8
0
 62
     3
  6
CONTINUOUS
 10
5.1303
 20
7.5756
  0
VERTEX
  8
0
 62
     3
  6
CONTINUOUS
 10
5.2583
 20
7.6231
  0
VERTEX
  8
0
 62
     3
  6
CONTINUOUS
 10
5.3869
 20
7.6689
  0
VERTEX
  8
0
 62
     3
  6
CONTINUOUS
 10
5.5162
 20
7.7130
  0
VERTEX
  8
0
 62
     3
  6
CONTINUOUS
 10
5.6461
 20
7.7558
  0
VERTEX
  8
0
 62
     3
  6
CONTINUOUS
 10
5.7764
 20
7.7972
  0
VERTEX
  8
0
 62
     3
  6
CONTINUOUS
 10
5.9072
 20
7.8374
  0
VERTEX
  8
0
 62
     3
  6
CONTINUOUS
 10
6.0384
 20
7.8766
  0
VERTEX
  8
0
 62
     3
  6
CONTINUOUS
 10
6.1699
 20
7.9150
  0
VERTEX
  8
0
 62
     3
  6
CONTINUOUS
 10
6.3016
 20
7.9526
  0
VERTEX
  8
0
 62
     3
  6
CONTINUOUS
 10
6.4335
 20
7.9896
  0
VERTEX
  8
0
 62
     3
  6
CONTINUOUS
 10
6.5656
 20
8.0262
  0
VERTEX
  8
0
 62
     3
  6
CONTINUOUS
 10
6.8244
 20
8.0970
  0
VERTEX
  8
0
 62
     3
  6
CONTINUOUS
 10
7.0834
 20
8.1665
  0
VERTEX
  8
0
 62
     3
  6
CONTINUOUS
 10
7.3427
 20
8.2347
  0
VERTEX
  8
0
 62
     3
  6
CONTINUOUS
 10
7.6022
 20
8.3015
  0
VERTEX
  8
0
 62
     3
  6
CONTINUOUS
 10
7.8621
 20
8.3668
  0
VERTEX
  8
0
 62
     3
  6
CONTINUOUS
 10
8.1222
 20
8.4306
  0
VERTEX
  8
0
 62
     3
  6
CONTINUOUS
 10
8.3827
 20
8.4927
  0
VERTEX
  8
0
 62
     3
  6
CONTINUOUS
 10
8.6435
 20
8.5531
  0
VERTEX
  8
0
 62
     3
  6
CONTINUOUS
 10
8.9046
 20
8.6118
  0
VERTEX
  8
0
 62
     3
  6
CONTINUOUS
 10
9.1662
 20
8.6686
  0
VERTEX
  8
0
 62
     3
  6
CONTINUOUS
 10
9.4281
 20
8.7234
  0
VERTEX
  8
0
 62
     3
  6
CONTINUOUS
 10
9.6905
 20
8.7762
  0
VERTEX
  8
0
 62
     3
  6
CONTINUOUS
 10
9.9493
 20
8.8262
  0
VERTEX
  8
0
 62
     3
  6
CONTINUOUS
 10
10.2085
 20
8.8743
  0
VERTEX
  8
0
 62
     3
  6
CONTINUOUS
 10
10.4681
 20
8.9205
  0
VERTEX
  8
0
 62
     3
  6
CONTINUOUS
 10
10.7280
 20
8.9651
  0
VERTEX
  8
0
 62
     3
  6
CONTINUOUS
 10
10.9882
 20
9.0081
  0
VERTEX
  8
0
 62
     3
  6
CONTINUOUS
 10
11.2487
 20
9.0497
  0
VERTEX
  8
0
 62
     3
  6
CONTINUOUS
 10
11.5094
 20
9.0900
  0
VERTEX
  8
0
 62
     3
  6
CONTINUOUS
 10
11.7703
 20
9.1292
  0
VERTEX
  8
0
 62
     3
  6
CONTINUOUS
 10
12.0314
 20
9.1672
  0
VERTEX
  8
0
 62
     3
  6
CONTINUOUS
 10
12.2927
 20
9.2043
  0
VERTEX
  8
0
 62
     3
  6
CONTINUOUS
 10
12.5540
 20
9.2406
  0
VERTEX
  8
0
 62
     3
  6
CONTINUOUS
 10
12.8155
 20
9.2762
  0
VERTEX
  8
0
 62
     3
  6
CONTINUOUS
 10
13.0755
 20
9.3110
  0
VERTEX
  8
0
 62
     3
  6
CONTINUOUS
 10
13.3356
 20
9.3452
  0
VERTEX
  8
0
 62
     3
  6
CONTINUOUS
 10
13.5958
 20
9.3789
  0
VERTEX
  8
0
 62
     3
  6
CONTINUOUS
 10
13.8560
 20
9.4119
  0
VERTEX
  8
0
 62
     3
  6
CONTINUOUS
 10
14.1163
 20
9.4442
  0
VERTEX
  8
0
 62
     3
  6
CONTINUOUS
 10
14.3766
 20
9.4759
  0
VERTEX
  8
0
 62
     3
  6
CONTINUOUS
 10
14.6370
 20
9.5069
  0
VERTEX
  8
0
 62
     3
  6
CONTINUOUS
 10
14.8975
 20
9.5373
  0
VERTEX
  8
0
 62
     3
  6
CONTINUOUS
 10
15.1581
 20
9.5669
  0
VERTEX
  8
0
 62
     3
  6
CONTINUOUS
 10
15.4188
 20
9.5957
  0
VERTEX
  8
0
 62
     3
  6
CONTINUOUS
 10
15.6796
 20
9.6239
  0
VERTEX
  8
0
 62
     3
  6
CONTINUOUS
 10
15.9404
 20
9.6512
  0
VERTEX
  8
0
 62
     3
  6
CONTINUOUS
 10
16.2003
 20
9.6777
  0
VERTEX
  8
0
 62
     3
  6
CONTINUOUS
 10
16.4604
 20
9.7033
  0
VERTEX
  8
0
 62
     3
  6
CONTINUOUS
 10
16.7205
 20
9.7280
  0
VERTEX
  8
0
 62
     3
  6
CONTINUOUS
 10
16.9807
 20
9.7517
  0
VERTEX
  8
0
 62
     3
  6
CONTINUOUS
 10
17.2410
 20
9.7745
  0
VERTEX
  8
0
 62
     3
  6
CONTINUOUS
 10
17.5014
 20
9.7962
  0
VERTEX
  8
0
 62
     3
  6
CONTINUOUS
 10
17.7619
 20
9.8168
  0
VERTEX
  8
0
 62
     3
  6
CONTINUOUS
 10
18.0224
 20
9.8362
  0
VERTEX
  8
0
 62
     3
  6
CONTINUOUS
 10
18.2831
 20
9.8544
  0
VERTEX
  8
0
 62
     3
  6
CONTINUOUS
 10
18.5438
 20
9.8714
  0
VERTEX
  8
0
 62
     3
  6
CONTINUOUS
 10
18.8045
 20
9.8870
  0
VERTEX
  8
0
 62
     3
  6
CONTINUOUS
 10
19.0654
 20
9.9012
  0
VERTEX
  8
0
 62
     3
  6
CONTINUOUS
 10
19.5856
 20
9.9253
  0
VERTEX
  8
0
 62
     3
  6
CONTINUOUS
 10
20.1060
 20
9.9441
  0
VERTEX
  8
0
 62
     3
  6
CONTINUOUS
 10
20.6267
 20
9.9577
  0
VERTEX
  8
0
 62
     3
  6
CONTINUOUS
 10
21.1474
 20
9.9666
  0
VERTEX
  8
0
 62
     3
  6
CONTINUOUS
 10
21.6684
 20
9.9709
  0
VERTEX
  8
0
 62
     3
  6
CONTINUOUS
 10
22.1894
 20
9.9711
  0
VERTEX
  8
0
 62
     3
  6
CONTINUOUS
 10
22.7104
 20
9.9673
  0
VERTEX
  8
0
 62
     3
  6
CONTINUOUS
 10
23.2315
 20
9.9601
  0
VERTEX
  8
0
 62
     3
  6
CONTINUOUS
 10
23.7525
 20
9.9495
  0
VERTEX
  8
0
 62
     3
  6
CONTINUOUS
 10
24.2735
 20
9.9360
  0
VERTEX
  8
0
 62
     3
  6
CONTINUOUS
 10
24.7945
 20
9.9198
  0
VERTEX
  8
0
 62
     3
  6
CONTINUOUS
 10
25.3153
 20
9.9012
  0
VERTEX
  8
0
 62
     3
  6
CONTINUOUS
 10
25.8369
 20
9.8805
  0
VERTEX
  8
0
 62
     3
  6
CONTINUOUS
 10
26.3583
 20
9.8578
  0
VERTEX
  8
0
 62
     3
  6
CONTINUOUS
 10
26.8796
 20
9.8331
  0
VERTEX
  8
0
 62
     3
  6
CONTINUOUS
 10
27.4008
 20
9.8064
  0
VERTEX
  8
0
 62
     3
  6
CONTINUOUS
 10
27.9218
 20
9.7778
  0
VERTEX
  8
0
 62
     3
  6
CONTINUOUS
 10
28.4427
 20
9.7473
  0
VERTEX
  8
0
 62
     3
  6
CONTINUOUS
 10
28.9634
 20
9.7149
  0
VERTEX
  8
0
 62
     3
  6
CONTINUOUS
 10
29.4840
 20
9.6807
  0
VERTEX
  8
0
 62
     3
  6
CONTINUOUS
 10
30.0045
 20
9.6447
  0
VERTEX
  8
0
 62
     3
  6
CONTINUOUS
 10
30.5249
 20
9.6069
  0
VERTEX
  8
0
 62
     3
  6
CONTINUOUS
 10
31.0451
 20
9.5674
  0
VERTEX
  8
0
 62
     3
  6
CONTINUOUS
 10
31.5652
 20
9.5262
  0
VERTEX
  8
0
 62
     3
  6
CONTINUOUS
 10
32.0868
 20
9.4832
  0
VERTEX
  8
0
 62
     3
  6
CONTINUOUS
 10
32.6083
 20
9.4385
  0
VERTEX
  8
0
 62
     3
  6
CONTINUOUS
 10
33.1297
 20
9.3921
  0
VERTEX
  8
0
 62
     3
  6
CONTINUOUS
 10
33.6509
 20
9.3441
  0
VERTEX
  8
0
 62
     3
  6
CONTINUOUS
 10
34.1720
 20
9.2945
  0
VERTEX
  8
0
 62
     3
  6
CONTINUOUS
 10
34.6929
 20
9.2431
  0
VERTEX
  8
0
 62
     3
  6
CONTINUOUS
 10
35.2137
 20
9.1902
  0
VERTEX
  8
0
 62
     3
  6
CONTINUOUS
 10
35.7343
 20
9.1356
  0
VERTEX
  8
0
 62
     3
  6
CONTINUOUS
 10
36.2548
 20
9.0794
  0
VERTEX
  8
0
 62
     3
  6
CONTINUOUS
 10
36.7751
 20
9.0216
  0
VERTEX
  8
0
 62
     3
  6
CONTINUOUS
 10
37.2952
 20
8.9622
  0
VERTEX
  8
0
 62
     3
  6
CONTINUOUS
 10
37.8151
 20
8.9012
  0
VERTEX
  8
0
 62
     3
  6
CONTINUOUS
 10
38.3373
 20
8.8383
  0
VERTEX
  8
0
 62
     3
  6
CONTINUOUS
 10
38.8593
 20
8.7737
  0
VERTEX
  8
0
 62
     3
  6
CONTINUOUS
 10
39.3810
 20
8.7075
  0
VERTEX
  8
0
 62
     3
  6
CONTINUOUS
 10
39.9026
 20
8.6395
  0
VERTEX
  8
0
 62
     3
  6
CONTINUOUS
 10
40.4238
 20
8.5696
  0
VERTEX
  8
0
 62
     3
  6
CONTINUOUS
 10
40.9449
 20
8.4980
  0
VERTEX
  8
0
 62
     3
  6
CONTINUOUS
 10
41.4656
 20
8.4244
  0
VERTEX
  8
0
 62
     3
  6
CONTINUOUS
 10
41.9861
 20
8.3488
  0
VERTEX
  8
0
 62
     3
  6
CONTINUOUS
 10
42.5063
 20
8.2713
  0
VERTEX
  8
0
 62
     3
  6
CONTINUOUS
 10
43.0262
 20
8.1917
  0
VERTEX
  8
0
 62
     3
  6
CONTINUOUS
 10
43.5458
 20
8.1101
  0
VERTEX
  8
0
 62
     3
  6
CONTINUOUS
 10
44.0650
 20
8.0262
  0
VERTEX
  8
0
 62
     3
  6
CONTINUOUS
 10
44.5881
 20
7.9395
  0
VERTEX
  8
0
 62
     3
  6
CONTINUOUS
 10
45.1108
 20
7.8505
  0
VERTEX
  8
0
 62
     3
  6
CONTINUOUS
 10
45.6331
 20
7.7594
  0
VERTEX
  8
0
 62
     3
  6
CONTINUOUS
 10
46.1550
 20
7.6660
  0
VERTEX
  8
0
 62
     3
  6
CONTINUOUS
 10
46.6766
 20
7.5703
  0
VERTEX
  8
0
 62
     3
  6
CONTINUOUS
 10
47.1977
 20
7.4725
  0
VERTEX
  8
0
 62
     3
  6
CONTINUOUS
 10
47.7184
 20
7.3724
  0
VERTEX
  8
0
 62
     3
  6
CONTINUOUS
 10
48.2386
 20
7.2701
  0
VERTEX
  8
0
 62
     3
  6
CONTINUOUS
 10
48.7584
 20
7.1656
  0
VERTEX
  8
0
 62
     3
  6
CONTINUOUS
 10
49.2777
 20
7.0588
  0
VERTEX
  8
0
 62
     3
  6
CONTINUOUS
 10
49.7965
 20
6.9499
  0
VERTEX
  8
0
 62
     3
  6
CONTINUOUS
 10
50.3149
 20
6.8387
  0
VERTEX
  8
0
 62
     3
  6
CONTINUOUS
 10
50.8369
 20
6.7245
  0
VERTEX
  8
0
 62
     3
  6
CONTINUOUS
 10
51.3585
 20
6.6083
  0
VERTEX
  8
0
 62
     3
  6
CONTINUOUS
 10
51.8797
 20
6.4905
  0
VERTEX
  8
0
 62
     3
  6
CONTINUOUS
 10
52.4006
 20
6.3712
  0
VERTEX
  8
0
 62
     3
  6
CONTINUOUS
 10
52.9212
 20
6.2509
  0
VERTEX
  8
0
 62
     3
  6
CONTINUOUS
 10
53.4417
 20
6.1297
  0
VERTEX
  8
0
 62
     3
  6
CONTINUOUS
 10
53.9620
 20
6.0080
  0
VERTEX
  8
0
 62
     3
  6
CONTINUOUS
 10
54.4824
 20
5.8860
  0
VERTEX
  8
0
 62
     3
  6
CONTINUOUS
 10
55.0027
 20
5.7641
  0
VERTEX
  8
0
 62
     3
  6
CONTINUOUS
 10
55.5232
 20
5.6424
  0
VERTEX
  8
0
 62
     3
  6
CONTINUOUS
 10
56.0439
 20
5.5214
  0
VERTEX
  8
0
 62
     3
  6
CONTINUOUS
 10
56.5648
 20
5.4013
  0
VERTEX
  8
0
 62
     3
  6
CONTINUOUS
 10
56.8259
 20
5.3414
  0
VERTEX
  8
0
 62
     3
  6
CONTINUOUS
 10
57.0871
 20
5.2817
  0
VERTEX
  8
0
 62
     3
  6
CONTINUOUS
 10
57.3483
 20
5.2220
  0
VERTEX
  8
0
 62
     3
  6
CONTINUOUS
 10
57.6093
 20
5.1619
  0
VERTEX
  8
0
 62
     3
  6
CONTINUOUS
 10
57.8703
 20
5.1015
  0
VERTEX
  8
0
 62
     3
  6
CONTINUOUS
 10
58.1311
 20
5.0404
  0
VERTEX
  8
0
 62
     3
  6
CONTINUOUS
 10
58.3917
 20
4.9786
  0
VERTEX
  8
0
 62
     3
  6
CONTINUOUS
 10
58.6520
 20
4.9158
  0
VERTEX
  8
0
 62
     3
  6
CONTINUOUS
 10
58.9121
 20
4.8518
  0
VERTEX
  8
0
 62
     3
  6
CONTINUOUS
 10
59.1717
 20
4.7865
  0
VERTEX
  8
0
 62
     3
  6
CONTINUOUS
 10
59.4310
 20
4.7197
  0
VERTEX
  8
0
 62
     3
  6
CONTINUOUS
 10
59.6898
 20
4.6513
  0
VERTEX
  8
0
 62
     3
  6
CONTINUOUS
 10
59.9520
 20
4.5799
  0
VERTEX
  8
0
 62
     3
  6
CONTINUOUS
 10
60.2138
 20
4.5068
  0
VERTEX
  8
0
 62
     3
  6
CONTINUOUS
 10
60.4751
 20
4.4321
  0
VERTEX
  8
0
 62
     3
  6
CONTINUOUS
 10
60.7360
 20
4.3559
  0
VERTEX
  8
0
 62
     3
  6
CONTINUOUS
 10
60.9966
 20
4.2784
  0
VERTEX
  8
0
 62
     3
  6
CONTINUOUS
 10
61.2569
 20
4.1998
  0
VERTEX
  8
0
 62
     3
  6
CONTINUOUS
 10
61.5169
 20
4.1203
  0
VERTEX
  8
0
 62
     3
  6
CONTINUOUS
 10
61.7767
 20
4.0400
  0
VERTEX
  8
0
 62
     3
  6
CONTINUOUS
 10
62.0364
 20
3.9590
  0
VERTEX
  8
0
 62
     3
  6
CONTINUOUS
 10
62.2959
 20
3.8775
  0
VERTEX
  8
0
 62
     3
  6
CONTINUOUS
 10
62.5553
 20
3.7957
  0
VERTEX
  8
0
 62
     3
  6
CONTINUOUS
 10
62.8147
 20
3.7138
  0
SEQEND
  8
0
  0
POLYLINE
  8
0
 62
     1
 66
     1
  6
CONTINUOUS
  0
VERTEX
  8
0
 62
     1
  6
CONTINUOUS
 10
0.3157
 20
3.8388
  0
VERTEX
  8
0
 62
     1
  6
CONTINUOUS
 10
0.3776
 20
3.7899
  0
VERTEX
  8
0
 62
     1
  6
CONTINUOUS
 10
0.4398
 20
3.7414
  0
VERTEX
  8
0
 62
     1
  6
CONTINUOUS
 10
0.5022
 20
3.6934
  0
VERTEX
  8
0
 62
     1
  6
CONTINUOUS
 10
0.5649
 20
3.6464
  0
VERTEX
  8
0
 62
     1
  6
CONTINUOUS
 10
0.6282
 20
3.6005
  0
VERTEX
  8
0
 62
     1
  6
CONTINUOUS
 10
0.6922
 20
3.5562
  0
VERTEX
  8
0
 62
     1
  6
CONTINUOUS
 10
0.7569
 20
3.5137
  0
VERTEX
  8
0
 62
     1
  6
CONTINUOUS
 10
0.8226
 20
3.4733
  0
VERTEX
  8
0
 62
     1
  6
CONTINUOUS
 10
0.8893
 20
3.4353
  0
VERTEX
  8
0
 62
     1
  6
CONTINUOUS
 10
0.9571
 20
3.4000
  0
VERTEX
  8
0
 62
     1
  6
CONTINUOUS
 10
1.0263
 20
3.3677
  0
VERTEX
  8
0
 62
     1
  6
CONTINUOUS
 10
1.0969
 20
3.3388
  0
VERTEX
  8
0
 62
     1
  6
CONTINUOUS
 10
1.1583
 20
3.3169
  0
VERTEX
  8
0
 62
     1
  6
CONTINUOUS
 10
1.2208
 20
3.2975
  0
VERTEX
  8
0
 62
     1
  6
CONTINUOUS
 10
1.2842
 20
3.2805
  0
VERTEX
  8
0
 62
     1
  6
CONTINUOUS
 10
1.3484
 20
3.2658
  0
VERTEX
  8
0
 62
     1
  6
CONTINUOUS
 10
1.4132
 20
3.2532
  0
VERTEX
  8
0
 62
     1
  6
CONTINUOUS
 10
1.4787
 20
3.2426
  0
VERTEX
  8
0
 62
     1
  6
CONTINUOUS
 10
1.5447
 20
3.2338
  0
VERTEX
  8
0
 62
     1
  6
CONTINUOUS
 10
1.6111
 20
3.2268
  0
VERTEX
  8
0
 62
     1
  6
CONTINUOUS
 10
1.6777
 20
3.2215
  0
VERTEX
  8
0
 62
     1
  6
CONTINUOUS
 10
1.7445
 20
3.2176
  0
VERTEX
  8
0
 62
     1
  6
CONTINUOUS
 10
1.8113
 20
3.2151
  0
VERTEX
  8
0
 62
     1
  6
CONTINUOUS
 10
1.8781
 20
3.2138
  0
VERTEX
  8
0
 62
     1
  6
CONTINUOUS
 10
2.0105
 20
3.2145
  0
VERTEX
  8
0
 62
     1
  6
CONTINUOUS
 10
2.1423
 20
3.2193
  0
VERTEX
  8
0
 62
     1
  6
CONTINUOUS
 10
2.2736
 20
3.2277
  0
VERTEX
  8
0
 62
     1
  6
CONTINUOUS
 10
2.4044
 20
3.2392
  0
VERTEX
  8
0
 62
     1
  6
CONTINUOUS
 10
2.5348
 20
3.2537
  0
VERTEX
  8
0
 62
     1
  6
CONTINUOUS
 10
2.6648
 20
3.2706
  0
VERTEX
  8
0
 62
     1
  6
CONTINUOUS
 10
2.7945
 20
3.2895
  0
VERTEX
  8
0
 62
     1
  6
CONTINUOUS
 10
2.9240
 20
3.3101
  0
VERTEX
  8
0
 62
     1
  6
CONTINUOUS
 10
3.0533
 20
3.3319
  0
VERTEX
  8
0
 62
     1
  6
CONTINUOUS
 10
3.1824
 20
3.3547
  0
VERTEX
  8
0
 62
     1
  6
CONTINUOUS
 10
3.3115
 20
3.3780
  0
VERTEX
  8
0
 62
     1
  6
CONTINUOUS
 10
3.4406
 20
3.4013
  0
VERTEX
  8
0
 62
     1
  6
CONTINUOUS
 10
3.5704
 20
3.4246
  0
VERTEX
  8
0
 62
     1
  6
CONTINUOUS
 10
3.7003
 20
3.4475
  0
VERTEX
  8
0
 62
     1
  6
CONTINUOUS
 10
3.8303
 20
3.4700
  0
VERTEX
  8
0
 62
     1
  6
CONTINUOUS
 10
3.9603
 20
3.4922
  0
VERTEX
  8
0
 62
     1
  6
CONTINUOUS
 10
4.0904
 20
3.5140
  0
VERTEX
  8
0
 62
     1
  6
CONTINUOUS
 10
4.2205
 20
3.5352
  0
VERTEX
  8
0
 62
     1
  6
CONTINUOUS
 10
4.3507
 20
3.5560
  0
VERTEX
  8
0
 62
     1
  6
CONTINUOUS
 10
4.4810
 20
3.5763
  0
VERTEX
  8
0
 62
     1
  6
CONTINUOUS
 10
4.6114
 20
3.5960
  0
VERTEX
  8
0
 62
     1
  6
CONTINUOUS
 10
4.7419
 20
3.6151
  0
VERTEX
  8
0
 62
     1
  6
CONTINUOUS
 10
4.8724
 20
3.6335
  0
VERTEX
  8
0
 62
     1
  6
CONTINUOUS
 10
5.0031
 20
3.6513
  0
VERTEX
  8
0
 62
     1
  6
CONTINUOUS
 10
5.1331
 20
3.6683
  0
VERTEX
  8
0
 62
     1
  6
CONTINUOUS
 10
5.2632
 20
3.6847
  0
VERTEX
  8
0
 62
     1
  6
CONTINUOUS
 10
5.3934
 20
3.7006
  0
VERTEX
  8
0
 62
     1
  6
CONTINUOUS
 10
5.5236
 20
3.7162
  0
VERTEX
  8
0
 62
     1
  6
CONTINUOUS
 10
5.6539
 20
3.7314
  0
VERTEX
  8
0
 62
     1
  6
CONTINUOUS
 10
5.7841
 20
3.7465
  0
VERTEX
  8
0
 62
     1
  6
CONTINUOUS
 10
5.9144
 20
3.7615
  0
VERTEX
  8
0
 62
     1
  6
CONTINUOUS
 10
6.0447
 20
3.7765
  0
VERTEX
  8
0
 62
     1
  6
CONTINUOUS
 10
6.1750
 20
3.7916
  0
VERTEX
  8
0
 62
     1
  6
CONTINUOUS
 10
6.3052
 20
3.8070
  0
VERTEX
  8
0
 62
     1
  6
CONTINUOUS
 10
6.4354
 20
3.8227
  0
VERTEX
  8
0
 62
     1
  6
CONTINUOUS
 10
6.5656
 20
3.8388
  0
VERTEX
  8
0
 62
     1
  6
CONTINUOUS
 10
6.8270
 20
3.8728
  0
VERTEX
  8
0
 62
     1
  6
CONTINUOUS
 10
7.0882
 20
3.9087
  0
VERTEX
  8
0
 62
     1
  6
CONTINUOUS
 10
7.3492
 20
3.9465
  0
VERTEX
  8
0
 62
     1
  6
CONTINUOUS
 10
7.6099
 20
3.9859
  0
VERTEX
  8
0
 62
     1
  6
CONTINUOUS
 10
7.8704
 20
4.0268
  0
VERTEX
  8
0
 62
     1
  6
CONTINUOUS
 10
8.1308
 20
4.0689
  0
VERTEX
  8
0
 62
     1
  6
CONTINUOUS
 10
8.3909
 20
4.1122
  0
VERTEX
  8
0
 62
     1
  6
CONTINUOUS
 10
8.6510
 20
4.1564
  0
VERTEX
  8
0
 62
     1
  6
CONTINUOUS
 10
8.9110
 20
4.2013
  0
VERTEX
  8
0
 62
     1
  6
CONTINUOUS
 10
9.1709
 20
4.2468
  0
VERTEX
  8
0
 62
     1
  6
CONTINUOUS
 10
9.4307
 20
4.2927
  0
VERTEX
  8
0
 62
     1
  6
CONTINUOUS
 10
9.6905
 20
4.3388
  0
VERTEX
  8
0
 62
     1
  6
CONTINUOUS
 10
9.9503
 20
4.3849
  0
VERTEX
  8
0
 62
     1
  6
CONTINUOUS
 10
10.2102
 20
4.4309
  0
VERTEX
  8
0
 62
     1
  6
CONTINUOUS
 10
10.4701
 20
4.4766
  0
VERTEX
  8
0
 62
     1
  6
CONTINUOUS
 10
10.7300
 20
4.5217
  0
VERTEX
  8
0
 62
     1
  6
CONTINUOUS
 10
10.9901
 20
4.5660
  0
VERTEX
  8
0
 62
     1
  6
CONTINUOUS
 10
11.2503
 20
4.6094
  0
VERTEX
  8
0
 62
     1
  6
CONTINUOUS
 10
11.5107
 20
4.6517
  0
VERTEX
  8
0
 62
     1
  6
CONTINUOUS
 10
11.7712
 20
4.6926
  0
VERTEX
  8
0
 62
     1
  6
CONTINUOUS
 10
12.0319
 20
4.7319
  0
VERTEX
  8
0
 62
     1
  6
CONTINUOUS
 10
12.2928
 20
4.7695
  0
VERTEX
  8
0
 62
     1
  6
CONTINUOUS
 10
12.5540
 20
4.8052
  0
VERTEX
  8
0
 62
     1
  6
CONTINUOUS
 10
12.8155
 20
4.8388
  0
VERTEX
  8
0
 62
     1
  6
CONTINUOUS
 10
13.0752
 20
4.8698
  0
VERTEX
  8
0
 62
     1
  6
CONTINUOUS
 10
13.3352
 20
4.8989
  0
VERTEX
  8
0
 62
     1
  6
CONTINUOUS
 10
13.5954
 20
4.9264
  0
VERTEX
  8
0
 62
     1
  6
CONTINUOUS
 10
13.8558
 20
4.9524
  0
VERTEX
  8
0
 62
     1
  6
CONTINUOUS
 10
14.1163
 20
4.9775
  0
VERTEX
  8
0
 62
     1
  6
CONTINUOUS
 10
14.3769
 20
5.0019
  0
VERTEX
  8
0
 62
     1
  6
CONTINUOUS
 10
14.6376
 20
5.0259
  0
VERTEX
  8
0
 62
     1
  6
CONTINUOUS
 10
14.8983
 20
5.0498
  0
VERTEX
  8
0
 62
     1
  6
CONTINUOUS
 10
15.1589
 20
5.0740
  0
VERTEX
  8
0
 62
     1
  6
CONTINUOUS
 10
15.4195
 20
5.0987
  0
VERTEX
  8
0
 62
     1
  6
CONTINUOUS
 10
15.6800
 20
5.1244
  0
VERTEX
  8
0
 62
     1
  6
CONTINUOUS
 10
15.9404
 20
5.1513
  0
VERTEX
  8
0
 62
     1
  6
CONTINUOUS
 10
16.2012
 20
5.1797
  0
VERTEX
  8
0
 62
     1
  6
CONTINUOUS
 10
16.4618
 20
5.2094
  0
VERTEX
  8
0
 62
     1
  6
CONTINUOUS
 10
16.7223
 20
5.2401
  0
VERTEX
  8
0
 62
     1
  6
CONTINUOUS
 10
16.9827
 20
5.2717
  0
VERTEX
  8
0
 62
     1
  6
CONTINUOUS
 10
17.2430
 20
5.3039
  0
VERTEX
  8
0
 62
     1
  6
CONTINUOUS
 10
17.5033
 20
5.3365
  0
VERTEX
  8
0
 62
     1
  6
CONTINUOUS
 10
17.7635
 20
5.3692
  0
VERTEX
  8
0
 62
     1
  6
CONTINUOUS
 10
18.0238
 20
5.4018
  0
VERTEX
  8
0
 62
     1
  6
CONTINUOUS
 10
18.2841
 20
5.4340
  0
VERTEX
  8
0
 62
     1
  6
CONTINUOUS
 10
18.5444
 20
5.4657
  0
VERTEX
  8
0
 62
     1
  6
CONTINUOUS
 10
18.8048
 20
5.4965
  0
VERTEX
  8
0
 62
     1
  6
CONTINUOUS
 10
19.0654
 20
5.5263
  0
VERTEX
  8
0
 62
     1
  6
CONTINUOUS
 10
19.5844
 20
5.5818
  0
VERTEX
  8
0
 62
     1
  6
CONTINUOUS
 10
20.1038
 20
5.6327
  0
VERTEX
  8
0
 62
     1
  6
CONTINUOUS
 10
20.6237
 20
5.6791
  0
VERTEX
  8
0
 62
     1
  6
CONTINUOUS
 10
21.1440
 20
5.7216
  0
VERTEX
  8
0
 62
     1
  6
CONTINUOUS
 10
21.6647
 20
5.7605
  0
VERTEX
  8
0
 62
     1
  6
CONTINUOUS
 10
22.1856
 20
5.7962
  0
VERTEX
  8
0
 62
     1
  6
CONTINUOUS
 10
22.7069
 20
5.8290
  0
VERTEX
  8
0
 62
     1
  6
CONTINUOUS
 10
23.2283
 20
5.8594
  0
VERTEX
  8
0
 62
     1
  6
CONTINUOUS
 10
23.7499
 20
5.8876
  0
VERTEX
  8
0
 62
     1
  6
CONTINUOUS
 10
24.2716
 20
5.9142
  0
VERTEX
  8
0
 62
     1
  6
CONTINUOUS
 10
24.7934
 20
5.9395
  0
VERTEX
  8
0
 62
     1
  6
CONTINUOUS
 10
25.3153
 20
5.9638
  0
VERTEX
  8
0
 62
     1
  6
CONTINUOUS
 10
25.8361
 20
5.9874
  0
VERTEX
  8
0
 62
     1
  6
CONTINUOUS
 10
26.3569
 20
6.0102
  0
VERTEX
  8
0
 62
     1
  6
CONTINUOUS
 10
26.8777
 20
6.0320
  0
VERTEX
  8
0
 62
     1
  6
CONTINUOUS
 10
27.3985
 20
6.0527
  0
VERTEX
  8
0
 62
     1
  6
CONTINUOUS
 10
27.9193
 20
6.0720
  0
VERTEX
  8
0
 62
     1
  6
CONTINUOUS
 10
28.4401
 20
6.0897
  0
VERTEX
  8
0
 62
     1
  6
CONTINUOUS
 10
28.9609
 20
6.1056
  0
VERTEX
  8
0
 62
     1
  6
CONTINUOUS
 10
29.4817
 20
6.1195
  0
VERTEX
  8
0
 62
     1
  6
CONTINUOUS
 10
30.0026
 20
6.1313
  0
VERTEX
  8
0
 62
     1
  6
CONTINUOUS
 10
30.5234
 20
6.1406
  0
VERTEX
  8
0
 62
     1
  6
CONTINUOUS
 10
31.0443
 20
6.1473
  0
VERTEX
  8
0
 62
     1
  6
CONTINUOUS
 10
31.5652
 20
6.1513
  0
VERTEX
  8
0
 62
     1
  6
CONTINUOUS
 10
32.0860
 20
6.1522
  0
VERTEX
  8
0
 62
     1
  6
CONTINUOUS
 10
32.6067
 20
6.1504
  0
VERTEX
  8
0
 62
     1
  6
CONTINUOUS
 10
33.1276
 20
6.1460
  0
VERTEX
  8
0
 62
     1
  6
CONTINUOUS
 10
33.6484
 20
6.1393
  0
VERTEX
  8
0
 62
     1
  6
CONTINUOUS
 10
34.1692
 20
6.1304
  0
VERTEX
  8
0
 62
     1
  6
CONTINUOUS
 10
34.6900
 20
6.1196
  0
VERTEX
  8
0
 62
     1
  6
CONTINUOUS
 10
35.2109
 20
6.1070
  0
VERTEX
  8
0
 62
     1
  6
CONTINUOUS
 10
35.7317
 20
6.0930
  0
VERTEX
  8
0
 62
     1
  6
CONTINUOUS
 10
36.2526
 20
6.0777
  0
VERTEX
  8
0
 62
     1
  6
CONTINUOUS
 10
36.7734
 20
6.0613
  0
VERTEX
  8
0
 62
     1
  6
CONTINUOUS
 10
37.2943
 20
6.0441
  0
VERTEX
  8
0
 62
     1
  6
CONTINUOUS
 10
37.8151
 20
6.0263
  0
VERTEX
  8
0
 62
     1
  6
CONTINUOUS
 10
38.3364
 20
6.0079
  0
VERTEX
  8
0
 62
     1
  6
CONTINUOUS
 10
38.8578
 20
5.9889
  0
VERTEX
  8
0
 62
     1
  6
CONTINUOUS
 10
39.3790
 20
5.9691
  0
VERTEX
  8
0
 62
     1
  6
CONTINUOUS
 10
39.9003
 20
5.9481
  0
VERTEX
  8
0
 62
     1
  6
CONTINUOUS
 10
40.4214
 20
5.9258
  0
VERTEX
  8
0
 62
     1
  6
CONTINUOUS
 10
40.9424
 20
5.9020
  0
VERTEX
  8
0
 62
     1
  6
CONTINUOUS
 10
41.4632
 20
5.8764
  0
VERTEX
  8
0
 62
     1
  6
CONTINUOUS
 10
41.9840
 20
5.8488
  0
VERTEX
  8
0
 62
     1
  6
CONTINUOUS
 10
42.5045
 20
5.8189
  0
VERTEX
  8
0
 62
     1
  6
CONTINUOUS
 10
43.0249
 20
5.7866
  0
VERTEX
  8
0
 62
     1
  6
CONTINUOUS
 10
43.5451
 20
5.7517
  0
VERTEX
  8
0
 62
     1
  6
CONTINUOUS
 10
44.0650
 20
5.7138
  0
VERTEX
  8
0
 62
     1
  6
CONTINUOUS
 10
44.5866
 20
5.6726
  0
VERTEX
  8
0
 62
     1
  6
CONTINUOUS
 10
45.1080
 20
5.6286
  0
VERTEX
  8
0
 62
     1
  6
CONTINUOUS
 10
45.6292
 20
5.5820
  0
VERTEX
  8
0
 62
     1
  6
CONTINUOUS
 10
46.1503
 20
5.5330
  0
VERTEX
  8
0
 62
     1
  6
CONTINUOUS
 10
46.6711
 20
5.4819
  0
VERTEX
  8
0
 62
     1
  6
CONTINUOUS
 10
47.1919
 20
5.4290
  0
VERTEX
  8
0
 62
     1
  6
CONTINUOUS
 10
47.7125
 20
5.3746
  0
VERTEX
  8
0
 62
     1
  6
CONTINUOUS
 10
48.2331
 20
5.3189
  0
VERTEX
  8
0
 62
     1
  6
CONTINUOUS
 10
48.7536
 20
5.2622
  0
VERTEX
  8
0
 62
     1
  6
CONTINUOUS
 10
49.2740
 20
5.2048
  0
VERTEX
  8
0
 62
     1
  6
CONTINUOUS
 10
49.7944
 20
5.1469
  0
VERTEX
  8
0
 62
     1
  6
CONTINUOUS
 10
50.3149
 20
5.0888
  0
VERTEX
  8
0
 62
     1
  6
CONTINUOUS
 10
50.8371
 20
5.0304
  0
VERTEX
  8
0
 62
     1
  6
CONTINUOUS
 10
51.3593
 20
4.9718
  0
VERTEX
  8
0
 62
     1
  6
CONTINUOUS
 10
51.8814
 20
4.9124
  0
VERTEX
  8
0
 62
     1
  6
CONTINUOUS
 10
52.4034
 20
4.8518
  0
VERTEX
  8
0
 62
     1
  6
CONTINUOUS
 10
52.9251
 20
4.7897
  0
VERTEX
  8
0
 62
     1
  6
CONTINUOUS
 10
53.4465
 20
4.7256
  0
VERTEX
  8
0
 62
     1
  6
CONTINUOUS
 10
53.9675
 20
4.6591
  0
VERTEX
  8
0
 62
     1
  6
CONTINUOUS
 10
54.4881
 20
4.5898
  0
VERTEX
  8
0
 62
     1
  6
CONTINUOUS
 10
55.0082
 20
4.5172
  0
VERTEX
  8
0
 62
     1
  6
CONTINUOUS
 10
55.5277
 20
4.4411
  0
VERTEX
  8
0
 62
     1
  6
CONTINUOUS
 10
56.0466
 20
4.3609
  0
VERTEX
  8
0
 62
     1
  6
CONTINUOUS
 10
56.5648
 20
4.2763
  0
VERTEX
  8
0
 62
     1
  6
CONTINUOUS
 10
56.8256
 20
4.2319
  0
VERTEX
  8
0
 62
     1
  6
CONTINUOUS
 10
57.0862
 20
4.1864
  0
VERTEX
  8
0
 62
     1
  6
CONTINUOUS
 10
57.3467
 20
4.1401
  0
VERTEX
  8
0
 62
     1
  6
CONTINUOUS
 10
57.6071
 20
4.0930
  0
VERTEX
  8
0
 62
     1
  6
CONTINUOUS
 10
57.8674
 20
4.0455
  0
VERTEX
  8
0
 62
     1
  6
CONTINUOUS
 10
58.1276
 20
3.9976
  0
VERTEX
  8
0
 62
     1
  6
CONTINUOUS
 10
58.3879
 20
3.9496
  0
VERTEX
  8
0
 62
     1
  6
CONTINUOUS
 10
58.6481
 20
3.9017
  0
VERTEX
  8
0
 62
     1
  6
CONTINUOUS
 10
58.9084
 20
3.8539
  0
VERTEX
  8
0
 62
     1
  6
CONTINUOUS
 10
59.1688
 20
3.8066
  0
VERTEX
  8
0
 62
     1
  6
CONTINUOUS
 10
59.4292
 20
3.7598
  0
VERTEX
  8
0
 62
     1
  6
CONTINUOUS
 10
59.6898
 20
3.7138
  0
VERTEX
  8
0
 62
     1
  6
CONTINUOUS
 10
59.9496
 20
3.6688
  0
VERTEX
  8
0
 62
     1
  6
CONTINUOUS
 10
60.2096
 20
3.6247
  0
VERTEX
  8
0
 62
     1
  6
CONTINUOUS
 10
60.4698
 20
3.5814
  0
VERTEX
  8
0
 62
     1
  6
CONTINUOUS
 10
60.7300
 20
3.5388
  0
VERTEX
  8
0
 62
     1
  6
CONTINUOUS
 10
60.9904
 20
3.4968
  0
VERTEX
  8
0
 62
     1
  6
CONTINUOUS
 10
61.2508
 20
3.4554
  0
VERTEX
  8
0
 62
     1
  6
CONTINUOUS
 10
61.5114
 20
3.4144
  0
VERTEX
  8
0
 62
     1
  6
CONTINUOUS
 10
61.7720
 20
3.3738
  0
VERTEX
  8
0
 62
     1
  6
CONTINUOUS
 10
62.0326
 20
3.3335
  0
VERTEX
  8
0
 62
     1
  6
CONTINUOUS
 10
62.2933
 20
3.2935
  0
VERTEX
  8
0
 62
     1
  6
CONTINUOUS
 10
62.5540
 20
3.2536
  0
VERTEX
  8
0
 62
     1
  6
CONTINUOUS
 10
62.8147
 20
3.2138
  0
SEQEND
  8
0
  0
ENDSEC
  0
EOF
