 0 
SECTION
 2 
ENTITIES
 0 
POLYLINE
 8 
1
 66 
 1 
 10 
0.0
 20 
0.0
 30 
0.0
 0 
VERTEX
 8 
1
 10 
0.0
 20 
0.5
 30 
0.0
 0 
VERTEX
 8 
1
 10 
0.01
 20 
0.50123
 30 
0.0
 0 
VERTEX
 8 
1
 10 
0.02
 20 
0.50245
 30 
0.0
 0 
VERTEX
 8 
1
 10 
0.03
 20 
0.50367
 30 
0.0
 0 
VERTEX
 8 
1
 10 
0.04
 20 
0.50486
 30 
0.0
 0 
VERTEX
 8 
1
 10 
0.060000
 20 
0.5072
 30 
0.0
 0 
VERTEX
 8 
1
 10 
0.08
 20 
0.50941
 30 
0.0
 0 
VERTEX
 8 
1
 10 
0.1
 20 
0.51147
 30 
0.0
 0 
VERTEX
 8 
1
 10 
0.12
 20 
0.51334
 30 
0.0
 0 
VERTEX
 8 
1
 10 
0.14
 20 
0.51503
 30 
0.0
 0 
VERTEX
 8 
1
 10 
0.16
 20 
0.51655
 30 
0.0
 0 
VERTEX
 8 
1
 10 
0.18
 20 
0.5179
 30 
0.0
 0 
VERTEX
 8 
1
 10 
0.2
 20 
0.51911
 30 
0.0
 0 
VERTEX
 8 
1
 10 
0.22
 20 
0.52019
 30 
0.0
 0 
VERTEX
 8 
1
 10 
0.24
 20 
0.52117
 30 
0.0
 0 
VERTEX
 8 
1
 10 
0.26
 20 
0.52211
 30 
0.0
 0 
VERTEX
 8 
1
 10 
0.28
 20 
0.52305
 30 
0.0
 0 
VERTEX
 8 
1
 10 
0.3
 20 
0.52403
 30 
0.0
 0 
VERTEX
 8 
1
 10 
0.32
 20 
0.52509
 30 
0.0
 0 
VERTEX
 8 
1
 10 
0.34
 20 
0.52622
 30 
0.0
 0 
VERTEX
 8 
1
 10 
0.36
 20 
0.52737
 30 
0.0
 0 
VERTEX
 8 
1
 10 
0.38
 20 
0.52853
 30 
0.0
 0 
VERTEX
 8 
1
 10 
0.4
 20 
0.52965
 30 
0.0
 0 
VERTEX
 8 
1
 10 
0.42
 20 
0.53071
 30 
0.0
 0 
VERTEX
 8 
1
 10 
0.44
 20 
0.53176
 30 
0.0
 0 
VERTEX
 8 
1
 10 
0.46
 20 
0.53283
 30 
0.0
 0 
VERTEX
 8 
1
 10 
0.48
 20 
0.53398
 30 
0.0
 0 
VERTEX
 8 
1
 10 
0.5
 20 
0.53525
 30 
0.0
 0 
VERTEX
 8 
1
 10 
0.52
 20 
0.53667
 30 
0.0
 0 
VERTEX
 8 
1
 10 
0.54
 20 
0.53814
 30 
0.0
 0 
VERTEX
 8 
1
 10 
0.56
 20 
0.53954
 30 
0.0
 0 
VERTEX
 8 
1
 10 
0.58
 20 
0.54074
 30 
0.0
 0 
VERTEX
 8 
1
 10 
0.6
 20 
0.5416
 30 
0.0
 0 
VERTEX
 8 
1
 10 
0.62
 20 
0.54207
 30 
0.0
 0 
VERTEX
 8 
1
 10 
0.64
 20 
0.54229
 30 
0.0
 0 
VERTEX
 8 
1
 10 
0.66
 20 
0.54253
 30 
0.0
 0 
VERTEX
 8 
1
 10 
0.68
 20 
0.54301
 30 
0.0
 0 
VERTEX
 8 
1
 10 
0.7
 20 
0.54398
 30 
0.0
 0 
VERTEX
 8 
1
 10 
0.72
 20 
0.54568
 30 
0.0
 0 
VERTEX
 8 
1
 10 
0.74
 20 
0.54824
 30 
0.0
 0 
VERTEX
 8 
1
 10 
0.76
 20 
0.55021
 30 
0.0
 0 
VERTEX
 8 
1
 10 
0.78
 20 
0.55068
 30 
0.0
 0 
VERTEX
 8 
1
 10 
0.8
 20 
0.55051
 30 
0.0
 0 
VERTEX
 8 
1
 10 
0.82
 20 
0.55047
 30 
0.0
 0 
VERTEX
 8 
1
 10 
0.84
 20 
0.55046
 30 
0.0
 0 
VERTEX
 8 
1
 10 
0.86
 20 
0.55008
 30 
0.0
 0 
VERTEX
 8 
1
 10 
0.88
 20 
0.54914
 30 
0.0
 0 
VERTEX
 8 
1
 10 
0.9
 20 
0.54765
 30 
0.0
 0 
VERTEX
 8 
1
 10 
0.92
 20 
0.54544
 30 
0.0
 0 
VERTEX
 8 
1
 10 
0.94
 20 
0.54135
 30 
0.0
 0 
VERTEX
 8 
1
 10 
0.95
 20 
0.53877
 30 
0.0
 0 
VERTEX
 8 
1
 10 
0.96
 20 
0.5361
 30 
0.0
 0 
VERTEX
 8 
1
 10 
0.97
 20 
0.53267
 30 
0.0
 0 
VERTEX
 8 
1
 10 
0.98
 20 
0.52722
 30 
0.0
 0 
VERTEX
 8 
1
 10 
0.988
 20 
0.52095
 30 
0.0
 0 
VERTEX
 8 
1
 10 
0.992
 20 
0.51753
 30 
0.0
 0 
VERTEX
 8 
1
 10 
0.996
 20 
0.51403
 30 
0.0
 0 
VERTEX
 8 
1
 10 
0.998
 20 
0.51101
 30 
0.0
 0 
VERTEX
 8 
1
 10 
0.999
 20 
0.50845
 30 
0.0
 0 
VERTEX
 8 
1
 10 
0.9995
 20 
0.50646
 30 
0.0
 0 
VERTEX
 8 
1
 10 
1
 20 
0.5
 30 
0.0
 0 
VERTEX
 8 
1
 10 
0.9995
 20 
0.49531
 30 
0.0
 0 
VERTEX
 8 
1
 10 
0.999
 20 
0.49319
 30 
0.0
 0 
VERTEX
 8 
1
 10 
0.998
 20 
0.49045
 30 
0.0
 0 
VERTEX
 8 
1
 10 
0.996
 20 
0.48717
 30 
0.0
 0 
VERTEX
 8 
1
 10 
0.992
 20 
0.48373
 30 
0.0
 0 
VERTEX
 8 
1
 10 
0.988
 20 
0.48101
 30 
0.0
 0 
VERTEX
 8 
1
 10 
0.98
 20 
0.47589
 30 
0.0
 0 
VERTEX
 8 
1
 10 
0.97
 20 
0.47097
 30 
0.0
 0 
VERTEX
 8 
1
 10 
0.96
 20 
0.4678
 30 
0.0
 0 
VERTEX
 8 
1
 10 
0.95
 20 
0.46542
 30 
0.0
 0 
VERTEX
 8 
1
 10 
0.94
 20 
0.46315
 30 
0.0
 0 
VERTEX
 8 
1
 10 
0.92
 20 
0.45846
 30 
0.0
 0 
VERTEX
 8 
1
 10 
0.9
 20 
0.45382
 30 
0.0
 0 
VERTEX
 8 
1
 10 
0.88
 20 
0.44974
 30 
0.0
 0 
VERTEX
 8 
1
 10 
0.86
 20 
0.44628
 30 
0.0
 0 
VERTEX
 8 
1
 10 
0.84
 20 
0.44332
 30 
0.0
 0 
VERTEX
 8 
1
 10 
0.82
 20 
0.44083
 30 
0.0
 0 
VERTEX
 8 
1
 10 
0.8
 20 
0.43885
 30 
0.0
 0 
VERTEX
 8 
1
 10 
0.78
 20 
0.43735
 30 
0.0
 0 
VERTEX
 8 
1
 10 
0.76
 20 
0.43592
 30 
0.0
 0 
VERTEX
 8 
1
 10 
0.74
 20 
0.43405
 30 
0.0
 0 
VERTEX
 8 
1
 10 
0.72
 20 
0.43208
 30 
0.0
 0 
VERTEX
 8 
1
 10 
0.7
 20 
0.43105
 30 
0.0
 0 
VERTEX
 8 
1
 10 
0.68
 20 
0.43096
 30 
0.0
 0 
VERTEX
 8 
1
 10 
0.66
 20 
0.43162
 30 
0.0
 0 
VERTEX
 8 
1
 10 
0.64
 20 
0.43287
 30 
0.0
 0 
VERTEX
 8 
1
 10 
0.62
 20 
0.43454
 30 
0.0
 0 
VERTEX
 8 
1
 10 
0.6
 20 
0.43645
 30 
0.0
 0 
VERTEX
 8 
1
 10 
0.58
 20 
0.43846
 30 
0.0
 0 
VERTEX
 8 
1
 10 
0.56
 20 
0.44051
 30 
0.0
 0 
VERTEX
 8 
1
 10 
0.54
 20 
0.44259
 30 
0.0
 0 
VERTEX
 8 
1
 10 
0.52
 20 
0.44467
 30 
0.0
 0 
VERTEX
 8 
1
 10 
0.5
 20 
0.44674
 30 
0.0
 0 
VERTEX
 8 
1
 10 
0.48
 20 
0.44877
 30 
0.0
 0 
VERTEX
 8 
1
 10 
0.46
 20 
0.45079
 30 
0.0
 0 
VERTEX
 8 
1
 10 
0.44
 20 
0.45281
 30 
0.0
 0 
VERTEX
 8 
1
 10 
0.42
 20 
0.45485
 30 
0.0
 0 
VERTEX
 8 
1
 10 
0.4
 20 
0.45692
 30 
0.0
 0 
VERTEX
 8 
1
 10 
0.38
 20 
0.45905
 30 
0.0
 0 
VERTEX
 8 
1
 10 
0.36
 20 
0.46123
 30 
0.0
 0 
VERTEX
 8 
1
 10 
0.34
 20 
0.46344
 30 
0.0
 0 
VERTEX
 8 
1
 10 
0.32
 20 
0.46567
 30 
0.0
 0 
VERTEX
 8 
1
 10 
0.3
 20 
0.46791
 30 
0.0
 0 
VERTEX
 8 
1
 10 
0.28
 20 
0.47014
 30 
0.0
 0 
VERTEX
 8 
1
 10 
0.26
 20 
0.47236
 30 
0.0
 0 
VERTEX
 8 
1
 10 
0.24
 20 
0.47455
 30 
0.0
 0 
VERTEX
 8 
1
 10 
0.22
 20 
0.4767
 30 
0.0
 0 
VERTEX
 8 
1
 10 
0.2
 20 
0.47881
 30 
0.0
 0 
VERTEX
 8 
1
 10 
0.18
 20 
0.48087
 30 
0.0
 0 
VERTEX
 8 
1
 10 
0.16
 20 
0.4829
 30 
0.0
 0 
VERTEX
 8 
1
 10 
0.14
 20 
0.48491
 30 
0.0
 0 
VERTEX
 8 
1
 10 
0.12
 20 
0.48694
 30 
0.0
 0 
VERTEX
 8 
1
 10 
0.1
 20 
0.48901
 30 
0.0
 0 
VERTEX
 8 
1
 10 
0.08
 20 
0.49114
 30 
0.0
 0 
VERTEX
 8 
1
 10 
0.060000
 20 
0.49331
 30 
0.0
 0 
VERTEX
 8 
1
 10 
0.04
 20 
0.49552
 30 
0.0
 0 
VERTEX
 8 
1
 10 
0.03
 20 
0.49663
 30 
0.0
 0 
VERTEX
 8 
1
 10 
0.02
 20 
0.49775
 30 
0.0
 0 
VERTEX
 8 
1
 10 
0.01
 20 
0.49888
 30 
0.0
 0 
VERTEX
 8 
1
 10 
0.0
 20 
0.5
 30 
0.0
 0 
SEQEND
 8 
1
 0 
ENDSEC
 0 
EOF
