 0 
SECTION
 2 
ENTITIES
 0 
POLYLINE
 8 
1
 66 
 1 
 10 
0.0
 20 
0.0
 30 
0.0
 0 
VERTEX
 8 
1
 10 
0.0
 20 
0.5
 30 
0.0
 0 
VERTEX
 8 
1
 10 
0.01
 20 
0.50168
 30 
0.0
 0 
VERTEX
 8 
1
 10 
0.02
 20 
0.50335
 30 
0.0
 0 
VERTEX
 8 
1
 10 
0.03
 20 
0.50501
 30 
0.0
 0 
VERTEX
 8 
1
 10 
0.04
 20 
0.50665
 30 
0.0
 0 
VERTEX
 8 
1
 10 
0.060000
 20 
0.50985
 30 
0.0
 0 
VERTEX
 8 
1
 10 
0.08
 20 
0.51291
 30 
0.0
 0 
VERTEX
 8 
1
 10 
0.1
 20 
0.51577
 30 
0.0
 0 
VERTEX
 8 
1
 10 
0.12
 20 
0.51842
 30 
0.0
 0 
VERTEX
 8 
1
 10 
0.14
 20 
0.5209
 30 
0.0
 0 
VERTEX
 8 
1
 10 
0.16
 20 
0.52331
 30 
0.0
 0 
VERTEX
 8 
1
 10 
0.18
 20 
0.52574
 30 
0.0
 0 
VERTEX
 8 
1
 10 
0.2
 20 
0.52825
 30 
0.0
 0 
VERTEX
 8 
1
 10 
0.22
 20 
0.53091
 30 
0.0
 0 
VERTEX
 8 
1
 10 
0.24
 20 
0.53368
 30 
0.0
 0 
VERTEX
 8 
1
 10 
0.26
 20 
0.53649
 30 
0.0
 0 
VERTEX
 8 
1
 10 
0.28
 20 
0.53926
 30 
0.0
 0 
VERTEX
 8 
1
 10 
0.3
 20 
0.54192
 30 
0.0
 0 
VERTEX
 8 
1
 10 
0.32
 20 
0.54443
 30 
0.0
 0 
VERTEX
 8 
1
 10 
0.34
 20 
0.54677
 30 
0.0
 0 
VERTEX
 8 
1
 10 
0.36
 20 
0.54897
 30 
0.0
 0 
VERTEX
 8 
1
 10 
0.38
 20 
0.55104
 30 
0.0
 0 
VERTEX
 8 
1
 10 
0.4
 20 
0.553
 30 
0.0
 0 
VERTEX
 8 
1
 10 
0.42
 20 
0.55486
 30 
0.0
 0 
VERTEX
 8 
1
 10 
0.44
 20 
0.55658
 30 
0.0
 0 
VERTEX
 8 
1
 10 
0.46
 20 
0.55813
 30 
0.0
 0 
VERTEX
 8 
1
 10 
0.48
 20 
0.55947
 30 
0.0
 0 
VERTEX
 8 
1
 10 
0.5
 20 
0.56057
 30 
0.0
 0 
VERTEX
 8 
1
 10 
0.52
 20 
0.56141
 30 
0.0
 0 
VERTEX
 8 
1
 10 
0.54
 20 
0.56201
 30 
0.0
 0 
VERTEX
 8 
1
 10 
0.56
 20 
0.56241
 30 
0.0
 0 
VERTEX
 8 
1
 10 
0.58
 20 
0.56262
 30 
0.0
 0 
VERTEX
 8 
1
 10 
0.6
 20 
0.56268
 30 
0.0
 0 
VERTEX
 8 
1
 10 
0.62
 20 
0.5626
 30 
0.0
 0 
VERTEX
 8 
1
 10 
0.64
 20 
0.56238
 30 
0.0
 0 
VERTEX
 8 
1
 10 
0.66
 20 
0.56199
 30 
0.0
 0 
VERTEX
 8 
1
 10 
0.68
 20 
0.56143
 30 
0.0
 0 
VERTEX
 8 
1
 10 
0.7
 20 
0.56067
 30 
0.0
 0 
VERTEX
 8 
1
 10 
0.72
 20 
0.55971
 30 
0.0
 0 
VERTEX
 8 
1
 10 
0.74
 20 
0.5586
 30 
0.0
 0 
VERTEX
 8 
1
 10 
0.76
 20 
0.5574
 30 
0.0
 0 
VERTEX
 8 
1
 10 
0.78
 20 
0.55608
 30 
0.0
 0 
VERTEX
 8 
1
 10 
0.8
 20 
0.55455
 30 
0.0
 0 
VERTEX
 8 
1
 10 
0.82
 20 
0.55274
 30 
0.0
 0 
VERTEX
 8 
1
 10 
0.84
 20 
0.5506
 30 
0.0
 0 
VERTEX
 8 
1
 10 
0.86
 20 
0.54811
 30 
0.0
 0 
VERTEX
 8 
1
 10 
0.88
 20 
0.54514
 30 
0.0
 0 
VERTEX
 8 
1
 10 
0.9
 20 
0.54145
 30 
0.0
 0 
VERTEX
 8 
1
 10 
0.92
 20 
0.5369
 30 
0.0
 0 
VERTEX
 8 
1
 10 
0.94
 20 
0.53168
 30 
0.0
 0 
VERTEX
 8 
1
 10 
0.95
 20 
0.52839
 30 
0.0
 0 
VERTEX
 8 
1
 10 
0.96
 20 
0.52437
 30 
0.0
 0 
VERTEX
 8 
1
 10 
0.97
 20 
0.52019
 30 
0.0
 0 
VERTEX
 8 
1
 10 
0.98
 20 
0.51655
 30 
0.0
 0 
VERTEX
 8 
1
 10 
0.988
 20 
0.51262
 30 
0.0
 0 
VERTEX
 8 
1
 10 
0.992
 20 
0.50938
 30 
0.0
 0 
VERTEX
 8 
1
 10 
0.996
 20 
0.50597
 30 
0.0
 0 
VERTEX
 8 
1
 10 
0.998
 20 
0.50398
 30 
0.0
 0 
VERTEX
 8 
1
 10 
0.999
 20 
0.50267
 30 
0.0
 0 
VERTEX
 8 
1
 10 
0.9995
 20 
0.50178
 30 
0.0
 0 
VERTEX
 8 
1
 10 
1
 20 
0.5
 30 
0.0
 0 
VERTEX
 8 
1
 10 
0.9995
 20 
0.49726
 30 
0.0
 0 
VERTEX
 8 
1
 10 
0.999
 20 
0.49627
 30 
0.0
 0 
VERTEX
 8 
1
 10 
0.998
 20 
0.49485
 30 
0.0
 0 
VERTEX
 8 
1
 10 
0.996
 20 
0.49292
 30 
0.0
 0 
VERTEX
 8 
1
 10 
0.992
 20 
0.491
 30 
0.0
 0 
VERTEX
 8 
1
 10 
0.988
 20 
0.49048
 30 
0.0
 0 
VERTEX
 8 
1
 10 
0.98
 20 
0.48981
 30 
0.0
 0 
VERTEX
 8 
1
 10 
0.97
 20 
0.48903
 30 
0.0
 0 
VERTEX
 8 
1
 10 
0.96
 20 
0.48851
 30 
0.0
 0 
VERTEX
 8 
1
 10 
0.95
 20 
0.48806
 30 
0.0
 0 
VERTEX
 8 
1
 10 
0.94
 20 
0.48753
 30 
0.0
 0 
VERTEX
 8 
1
 10 
0.92
 20 
0.48636
 30 
0.0
 0 
VERTEX
 8 
1
 10 
0.9
 20 
0.48532
 30 
0.0
 0 
VERTEX
 8 
1
 10 
0.88
 20 
0.48432
 30 
0.0
 0 
VERTEX
 8 
1
 10 
0.86
 20 
0.48326
 30 
0.0
 0 
VERTEX
 8 
1
 10 
0.84
 20 
0.48206
 30 
0.0
 0 
VERTEX
 8 
1
 10 
0.82
 20 
0.48076
 30 
0.0
 0 
VERTEX
 8 
1
 10 
0.8
 20 
0.47954
 30 
0.0
 0 
VERTEX
 8 
1
 10 
0.78
 20 
0.47854
 30 
0.0
 0 
VERTEX
 8 
1
 10 
0.76
 20 
0.47765
 30 
0.0
 0 
VERTEX
 8 
1
 10 
0.74
 20 
0.47673
 30 
0.0
 0 
VERTEX
 8 
1
 10 
0.72
 20 
0.47576
 30 
0.0
 0 
VERTEX
 8 
1
 10 
0.7
 20 
0.47486
 30 
0.0
 0 
VERTEX
 8 
1
 10 
0.68
 20 
0.47414
 30 
0.0
 0 
VERTEX
 8 
1
 10 
0.66
 20 
0.47359
 30 
0.0
 0 
VERTEX
 8 
1
 10 
0.64
 20 
0.47319
 30 
0.0
 0 
VERTEX
 8 
1
 10 
0.62
 20 
0.47289
 30 
0.0
 0 
VERTEX
 8 
1
 10 
0.6
 20 
0.47268
 30 
0.0
 0 
VERTEX
 8 
1
 10 
0.58
 20 
0.47253
 30 
0.0
 0 
VERTEX
 8 
1
 10 
0.56
 20 
0.47247
 30 
0.0
 0 
VERTEX
 8 
1
 10 
0.54
 20 
0.47254
 30 
0.0
 0 
VERTEX
 8 
1
 10 
0.52
 20 
0.47278
 30 
0.0
 0 
VERTEX
 8 
1
 10 
0.5
 20 
0.47321
 30 
0.0
 0 
VERTEX
 8 
1
 10 
0.48
 20 
0.47388
 30 
0.0
 0 
VERTEX
 8 
1
 10 
0.46
 20 
0.47476
 30 
0.0
 0 
VERTEX
 8 
1
 10 
0.44
 20 
0.47578
 30 
0.0
 0 
VERTEX
 8 
1
 10 
0.42
 20 
0.47689
 30 
0.0
 0 
VERTEX
 8 
1
 10 
0.4
 20 
0.47802
 30 
0.0
 0 
VERTEX
 8 
1
 10 
0.38
 20 
0.47911
 30 
0.0
 0 
VERTEX
 8 
1
 10 
0.36
 20 
0.48017
 30 
0.0
 0 
VERTEX
 8 
1
 10 
0.34
 20 
0.48121
 30 
0.0
 0 
VERTEX
 8 
1
 10 
0.32
 20 
0.48226
 30 
0.0
 0 
VERTEX
 8 
1
 10 
0.3
 20 
0.48334
 30 
0.0
 0 
VERTEX
 8 
1
 10 
0.28
 20 
0.48444
 30 
0.0
 0 
VERTEX
 8 
1
 10 
0.26
 20 
0.48557
 30 
0.0
 0 
VERTEX
 8 
1
 10 
0.24
 20 
0.48671
 30 
0.0
 0 
VERTEX
 8 
1
 10 
0.22
 20 
0.48785
 30 
0.0
 0 
VERTEX
 8 
1
 10 
0.2
 20 
0.48896
 30 
0.0
 0 
VERTEX
 8 
1
 10 
0.18
 20 
0.49004
 30 
0.0
 0 
VERTEX
 8 
1
 10 
0.16
 20 
0.4911
 30 
0.0
 0 
VERTEX
 8 
1
 10 
0.14
 20 
0.49215
 30 
0.0
 0 
VERTEX
 8 
1
 10 
0.12
 20 
0.4932
 30 
0.0
 0 
VERTEX
 8 
1
 10 
0.1
 20 
0.49428
 30 
0.0
 0 
VERTEX
 8 
1
 10 
0.08
 20 
0.49538
 30 
0.0
 0 
VERTEX
 8 
1
 10 
0.060000
 20 
0.49651
 30 
0.0
 0 
VERTEX
 8 
1
 10 
0.04
 20 
0.49767
 30 
0.0
 0 
VERTEX
 8 
1
 10 
0.03
 20 
0.49825
 30 
0.0
 0 
VERTEX
 8 
1
 10 
0.02
 20 
0.49883
 30 
0.0
 0 
VERTEX
 8 
1
 10 
0.01
 20 
0.49941
 30 
0.0
 0 
VERTEX
 8 
1
 10 
0.0
 20 
0.5
 30 
0.0
 0 
SEQEND
 8 
1
 0 
ENDSEC
 0 
EOF
