 0 
SECTION
 2 
ENTITIES
 0 
POLYLINE
 8 
1
 66 
 1 
 10 
0.0
 20 
0.0
 30 
0.0
 0 
VERTEX
 8 
1
 10 
0.0
 20 
0.5
 30 
0.0
 0 
VERTEX
 8 
1
 10 
0.1
 20 
0.5145
 30 
0.0
 0 
VERTEX
 8 
1
 10 
0.2
 20 
0.529
 30 
0.0
 0 
VERTEX
 8 
1
 10 
0.3
 20 
0.5427
 30 
0.0
 0 
VERTEX
 8 
1
 10 
0.4
 20 
0.5541
 30 
0.0
 0 
VERTEX
 8 
1
 10 
0.5
 20 
0.5618
 30 
0.0
 0 
VERTEX
 8 
1
 10 
0.6
 20 
0.5644
 30 
0.0
 0 
VERTEX
 8 
1
 10 
0.7
 20 
0.5627
 30 
0.0
 0 
VERTEX
 8 
1
 10 
0.75
 20 
0.5604
 30 
0.0
 0 
VERTEX
 8 
1
 10 
0.8
 20 
0.557
 30 
0.0
 0 
VERTEX
 8 
1
 10 
0.85
 20 
0.552
 30 
0.0
 0 
VERTEX
 8 
1
 10 
0.9
 20 
0.5442
 30 
0.0
 0 
VERTEX
 8 
1
 10 
0.9247
 20 
0.5385
 30 
0.0
 0 
VERTEX
 8 
1
 10 
0.95
 20 
0.5303
 30 
0.0
 0 
VERTEX
 8 
1
 10 
0.975
 20 
0.5215
 30 
0.0
 0 
VERTEX
 8 
1
 10 
0.9874
 20 
0.5147
 30 
0.0
 0 
VERTEX
 8 
1
 10 
0.9926
 20 
0.512
 30 
0.0
 0 
VERTEX
 8 
1
 10 
0.995
 20 
0.5099
 30 
0.0
 0 
VERTEX
 8 
1
 10 
1
 20 
0.503
 30 
0.0
 0 
VERTEX
 8 
1
 10 
0.995
 20 
0.4954
 30 
0.0
 0 
VERTEX
 8 
1
 10 
0.9926
 20 
0.4945
 30 
0.0
 0 
VERTEX
 8 
1
 10 
0.9874
 20 
0.4935
 30 
0.0
 0 
VERTEX
 8 
1
 10 
0.975
 20 
0.4926
 30 
0.0
 0 
VERTEX
 8 
1
 10 
0.95
 20 
0.491
 30 
0.0
 0 
VERTEX
 8 
1
 10 
0.9247
 20 
0.4895
 30 
0.0
 0 
VERTEX
 8 
1
 10 
0.9
 20 
0.4882
 30 
0.0
 0 
VERTEX
 8 
1
 10 
0.85
 20 
0.4851
 30 
0.0
 0 
VERTEX
 8 
1
 10 
0.8
 20 
0.4823
 30 
0.0
 0 
VERTEX
 8 
1
 10 
0.75
 20 
0.4794
 30 
0.0
 0 
VERTEX
 8 
1
 10 
0.7
 20 
0.4773
 30 
0.0
 0 
VERTEX
 8 
1
 10 
0.6
 20 
0.4747
 30 
0.0
 0 
VERTEX
 8 
1
 10 
0.5
 20 
0.475
 30 
0.0
 0 
VERTEX
 8 
1
 10 
0.4
 20 
0.4792
 30 
0.0
 0 
VERTEX
 8 
1
 10 
0.3
 20 
0.4844
 30 
0.0
 0 
VERTEX
 8 
1
 10 
0.2
 20 
0.4895
 30 
0.0
 0 
VERTEX
 8 
1
 10 
0.1
 20 
0.4949
 30 
0.0
 0 
VERTEX
 8 
1
 10 
0.0
 20 
0.5
 30 
0.0
 0 
SEQEND
 8 
1
 0 
ENDSEC
 0 
EOF
