 0 
SECTION
 2 
ENTITIES
 0 
POLYLINE
 8 
1
 66 
 1 
 10 
0.0
 20 
0.0
 30 
0.0
 0 
VERTEX
 8 
1
 10 
0.0
 20 
0.5008
 30 
0.0
 0 
VERTEX
 8 
1
 10 
0.1
 20 
0.5145
 30 
0.0
 0 
VERTEX
 8 
1
 10 
0.2
 20 
0.5291
 30 
0.0
 0 
VERTEX
 8 
1
 10 
0.3
 20 
0.5437
 30 
0.0
 0 
VERTEX
 8 
1
 10 
0.4
 20 
0.5563
 30 
0.0
 0 
VERTEX
 8 
1
 10 
0.45
 20 
0.5611
 30 
0.0
 0 
VERTEX
 8 
1
 10 
0.5
 20 
0.5646
 30 
0.0
 0 
VERTEX
 8 
1
 10 
0.55
 20 
0.5668
 30 
0.0
 0 
VERTEX
 8 
1
 10 
0.6
 20 
0.5678
 30 
0.0
 0 
VERTEX
 8 
1
 10 
0.65
 20 
0.5678
 30 
0.0
 0 
VERTEX
 8 
1
 10 
0.7
 20 
0.5662
 30 
0.0
 0 
VERTEX
 8 
1
 10 
0.75
 20 
0.5643
 30 
0.0
 0 
VERTEX
 8 
1
 10 
0.8
 20 
0.5606
 30 
0.0
 0 
VERTEX
 8 
1
 10 
0.85
 20 
0.5549
 30 
0.0
 0 
VERTEX
 8 
1
 10 
0.9
 20 
0.5468
 30 
0.0
 0 
VERTEX
 8 
1
 10 
0.925
 20 
0.541
 30 
0.0
 0 
VERTEX
 8 
1
 10 
0.95
 20 
0.5335
 30 
0.0
 0 
VERTEX
 8 
1
 10 
0.975
 20 
0.5232
 30 
0.0
 0 
VERTEX
 8 
1
 10 
0.9875
 20 
0.516
 30 
0.0
 0 
VERTEX
 8 
1
 10 
0.9925
 20 
0.5123
 30 
0.0
 0 
VERTEX
 8 
1
 10 
0.995
 20 
0.51
 30 
0.0
 0 
VERTEX
 8 
1
 10 
0.9975
 20 
0.507
 30 
0.0
 0 
VERTEX
 8 
1
 10 
1
 20 
0.5
 30 
0.0
 0 
VERTEX
 8 
1
 10 
0.9975
 20 
0.4949
 30 
0.0
 0 
VERTEX
 8 
1
 10 
0.995
 20 
0.4934
 30 
0.0
 0 
VERTEX
 8 
1
 10 
0.9925
 20 
0.4923
 30 
0.0
 0 
VERTEX
 8 
1
 10 
0.9875
 20 
0.4909
 30 
0.0
 0 
VERTEX
 8 
1
 10 
0.975
 20 
0.4884
 30 
0.0
 0 
VERTEX
 8 
1
 10 
0.95
 20 
0.4852
 30 
0.0
 0 
VERTEX
 8 
1
 10 
0.925
 20 
0.4826
 30 
0.0
 0 
VERTEX
 8 
1
 10 
0.9
 20 
0.48
 30 
0.0
 0 
VERTEX
 8 
1
 10 
0.85
 20 
0.4754
 30 
0.0
 0 
VERTEX
 8 
1
 10 
0.8
 20 
0.4709
 30 
0.0
 0 
VERTEX
 8 
1
 10 
0.75
 20 
0.4669
 30 
0.0
 0 
VERTEX
 8 
1
 10 
0.7
 20 
0.4641
 30 
0.0
 0 
VERTEX
 8 
1
 10 
0.65
 20 
0.4612
 30 
0.0
 0 
VERTEX
 8 
1
 10 
0.6
 20 
0.4598
 30 
0.0
 0 
VERTEX
 8 
1
 10 
0.55
 20 
0.4596
 30 
0.0
 0 
VERTEX
 8 
1
 10 
0.5
 20 
0.4607
 30 
0.0
 0 
VERTEX
 8 
1
 10 
0.45
 20 
0.4629
 30 
0.0
 0 
VERTEX
 8 
1
 10 
0.4
 20 
0.4661
 30 
0.0
 0 
VERTEX
 8 
1
 10 
0.3
 20 
0.4743
 30 
0.0
 0 
VERTEX
 8 
1
 10 
0.2
 20 
0.4828
 30 
0.0
 0 
VERTEX
 8 
1
 10 
0.1
 20 
0.4914
 30 
0.0
 0 
VERTEX
 8 
1
 10 
0.0
 20 
0.4992
 30 
0.0
 0 
SEQEND
 8 
1
 0 
ENDSEC
 0 
EOF
