 0 
SECTION
 2 
ENTITIES
 0 
POLYLINE
 8 
1
 66 
 1 
 10 
0.0
 20 
0.0
 30 
0.0
 0 
VERTEX
 8 
1
 10 
0.0
 20 
0.5005
 30 
0.0
 0 
VERTEX
 8 
1
 10 
0.053
 20 
0.5076
 30 
0.0
 0 
VERTEX
 8 
1
 10 
0.1259
 20 
0.5183
 30 
0.0
 0 
VERTEX
 8 
1
 10 
0.3429
 20 
0.5422
 30 
0.0
 0 
VERTEX
 8 
1
 10 
0.3909
 20 
0.547
 30 
0.0
 0 
VERTEX
 8 
1
 10 
0.4514
 20 
0.5529
 30 
0.0
 0 
VERTEX
 8 
1
 10 
0.5096
 20 
0.5597
 30 
0.0
 0 
VERTEX
 8 
1
 10 
0.5553
 20 
0.5608
 30 
0.0
 0 
VERTEX
 8 
1
 10 
0.601
 20 
0.5625
 30 
0.0
 0 
VERTEX
 8 
1
 10 
0.6532
 20 
0.5629
 30 
0.0
 0 
VERTEX
 8 
1
 10 
0.7036
 20 
0.5623
 30 
0.0
 0 
VERTEX
 8 
1
 10 
0.75
 20 
0.5606
 30 
0.0
 0 
VERTEX
 8 
1
 10 
0.7964
 20 
0.5576
 30 
0.0
 0 
VERTEX
 8 
1
 10 
0.8489
 20 
0.5524
 30 
0.0
 0 
VERTEX
 8 
1
 10 
0.9025
 20 
0.5441
 30 
0.0
 0 
VERTEX
 8 
1
 10 
0.9206
 20 
0.5402
 30 
0.0
 0 
VERTEX
 8 
1
 10 
0.9495
 20 
0.5324
 30 
0.0
 0 
VERTEX
 8 
1
 10 
0.9763
 20 
0.5218
 30 
0.0
 0 
VERTEX
 8 
1
 10 
0.9871
 20 
0.5157
 30 
0.0
 0 
VERTEX
 8 
1
 10 
0.9922
 20 
0.512
 30 
0.0
 0 
VERTEX
 8 
1
 10 
0.994
 20 
0.5105
 30 
0.0
 0 
VERTEX
 8 
1
 10 
0.9981
 20 
0.5057
 30 
0.0
 0 
VERTEX
 8 
1
 10 
1
 20 
0.5
 30 
0.0
 0 
VERTEX
 8 
1
 10 
0.9978
 20 
0.496
 30 
0.0
 0 
VERTEX
 8 
1
 10 
0.9951
 20 
0.4943
 30 
0.0
 0 
VERTEX
 8 
1
 10 
0.993
 20 
0.4934
 30 
0.0
 0 
VERTEX
 8 
1
 10 
0.9875
 20 
0.4924
 30 
0.0
 0 
VERTEX
 8 
1
 10 
0.9791
 20 
0.4899
 30 
0.0
 0 
VERTEX
 8 
1
 10 
0.9445
 20 
0.4853
 30 
0.0
 0 
VERTEX
 8 
1
 10 
0.9184
 20 
0.4826
 30 
0.0
 0 
VERTEX
 8 
1
 10 
0.8922
 20 
0.4799
 30 
0.0
 0 
VERTEX
 8 
1
 10 
0.8429
 20 
0.4753
 30 
0.0
 0 
VERTEX
 8 
1
 10 
0.7964
 20 
0.4714
 30 
0.0
 0 
VERTEX
 8 
1
 10 
0.75
 20 
0.4681
 30 
0.0
 0 
VERTEX
 8 
1
 10 
0.7036
 20 
0.4653
 30 
0.0
 0 
VERTEX
 8 
1
 10 
0.6451
 20 
0.463
 30 
0.0
 0 
VERTEX
 8 
1
 10 
0.6004
 20 
0.4625
 30 
0.0
 0 
VERTEX
 8 
1
 10 
0.5468
 20 
0.4634
 30 
0.0
 0 
VERTEX
 8 
1
 10 
0.5089
 20 
0.4648
 30 
0.0
 0 
VERTEX
 8 
1
 10 
0.4566
 20 
0.4672
 30 
0.0
 0 
VERTEX
 8 
1
 10 
0.3731
 20 
0.4718
 30 
0.0
 0 
VERTEX
 8 
1
 10 
0.2604
 20 
0.478
 30 
0.0
 0 
VERTEX
 8 
1
 10 
0.2168
 20 
0.481
 30 
0.0
 0 
VERTEX
 8 
1
 10 
0.0646
 20 
0.4944
 30 
0.0
 0 
VERTEX
 8 
1
 10 
0.0
 20 
0.4995
 30 
0.0
 0 
SEQEND
 8 
1
 0 
ENDSEC
 0 
EOF
