 0 
SECTION
 2 
ENTITIES
 0 
POLYLINE
 8 
1
 66 
 1 
 10 
0.0
 20 
0.0
 30 
0.0
 0 
VERTEX
 8 
1
 10 
0.0
 20 
0.50095
 30 
0.0
 0 
VERTEX
 8 
1
 10 
0.01
 20 
0.50315
 30 
0.0
 0 
VERTEX
 8 
1
 10 
0.02
 20 
0.50534
 30 
0.0
 0 
VERTEX
 8 
1
 10 
0.03
 20 
0.50752
 30 
0.0
 0 
VERTEX
 8 
1
 10 
0.05
 20 
0.51183
 30 
0.0
 0 
VERTEX
 8 
1
 10 
0.07
 20 
0.51602
 30 
0.0
 0 
VERTEX
 8 
1
 10 
0.1
 20 
0.52199
 30 
0.0
 0 
VERTEX
 8 
1
 10 
0.14
 20 
0.52919
 30 
0.0
 0 
VERTEX
 8 
1
 10 
0.18
 20 
0.53543
 30 
0.0
 0 
VERTEX
 8 
1
 10 
0.22
 20 
0.54069
 30 
0.0
 0 
VERTEX
 8 
1
 10 
0.26
 20 
0.54501
 30 
0.0
 0 
VERTEX
 8 
1
 10 
0.3
 20 
0.54847
 30 
0.0
 0 
VERTEX
 8 
1
 10 
0.35
 20 
0.55179
 30 
0.0
 0 
VERTEX
 8 
1
 10 
0.4
 20 
0.55413
 30 
0.0
 0 
VERTEX
 8 
1
 10 
0.45
 20 
0.55562
 30 
0.0
 0 
VERTEX
 8 
1
 10 
0.5
 20 
0.55634
 30 
0.0
 0 
VERTEX
 8 
1
 10 
0.55
 20 
0.55632
 30 
0.0
 0 
VERTEX
 8 
1
 10 
0.6
 20 
0.55562
 30 
0.0
 0 
VERTEX
 8 
1
 10 
0.65
 20 
0.55426
 30 
0.0
 0 
VERTEX
 8 
1
 10 
0.7
 20 
0.55231
 30 
0.0
 0 
VERTEX
 8 
1
 10 
0.74
 20 
0.5503
 30 
0.0
 0 
VERTEX
 8 
1
 10 
0.78
 20 
0.54788
 30 
0.0
 0 
VERTEX
 8 
1
 10 
0.81
 20 
0.54576
 30 
0.0
 0 
VERTEX
 8 
1
 10 
0.84
 20 
0.54322
 30 
0.0
 0 
VERTEX
 8 
1
 10 
0.86
 20 
0.54121
 30 
0.0
 0 
VERTEX
 8 
1
 10 
0.88
 20 
0.53888
 30 
0.0
 0 
VERTEX
 8 
1
 10 
0.9
 20 
0.53617
 30 
0.0
 0 
VERTEX
 8 
1
 10 
0.92
 20 
0.53304
 30 
0.0
 0 
VERTEX
 8 
1
 10 
0.93
 20 
0.53129
 30 
0.0
 0 
VERTEX
 8 
1
 10 
0.94
 20 
0.5294
 30 
0.0
 0 
VERTEX
 8 
1
 10 
0.95
 20 
0.52735
 30 
0.0
 0 
VERTEX
 8 
1
 10 
0.96
 20 
0.52508
 30 
0.0
 0 
VERTEX
 8 
1
 10 
0.968
 20 
0.52305
 30 
0.0
 0 
VERTEX
 8 
1
 10 
0.974
 20 
0.52136
 30 
0.0
 0 
VERTEX
 8 
1
 10 
0.98
 20 
0.51946
 30 
0.0
 0 
VERTEX
 8 
1
 10 
0.986
 20 
0.51717
 30 
0.0
 0 
VERTEX
 8 
1
 10 
0.988
 20 
0.51624
 30 
0.0
 0 
VERTEX
 8 
1
 10 
0.99
 20 
0.51519
 30 
0.0
 0 
VERTEX
 8 
1
 10 
0.992
 20 
0.51398
 30 
0.0
 0 
VERTEX
 8 
1
 10 
0.994
 20 
0.51251
 30 
0.0
 0 
VERTEX
 8 
1
 10 
0.995
 20 
0.51163
 30 
0.0
 0 
VERTEX
 8 
1
 10 
0.996
 20 
0.51061
 30 
0.0
 0 
VERTEX
 8 
1
 10 
0.997
 20 
0.50939
 30 
0.0
 0 
VERTEX
 8 
1
 10 
0.998
 20 
0.50782
 30 
0.0
 0 
VERTEX
 8 
1
 10 
0.9986
 20 
0.50657
 30 
0.0
 0 
VERTEX
 8 
1
 10 
0.9992
 20 
0.505
 30 
0.0
 0 
VERTEX
 8 
1
 10 
0.9996
 20 
0.50359
 30 
0.0
 0 
VERTEX
 8 
1
 10 
0.9998
 20 
0.5026
 30 
0.0
 0 
VERTEX
 8 
1
 10 
0.9999
 20 
0.50168
 30 
0.0
 0 
VERTEX
 8 
1
 10 
1
 20 
0.5
 30 
0.0
 0 
VERTEX
 8 
1
 10 
0.9999
 20 
0.49838
 30 
0.0
 0 
VERTEX
 8 
1
 10 
0.9998
 20 
0.4975
 30 
0.0
 0 
VERTEX
 8 
1
 10 
0.9996
 20 
0.49646
 30 
0.0
 0 
VERTEX
 8 
1
 10 
0.9992
 20 
0.49505
 30 
0.0
 0 
VERTEX
 8 
1
 10 
0.9986
 20 
0.49351
 30 
0.0
 0 
VERTEX
 8 
1
 10 
0.998
 20 
0.49229
 30 
0.0
 0 
VERTEX
 8 
1
 10 
0.997
 20 
0.49065
 30 
0.0
 0 
VERTEX
 8 
1
 10 
0.996
 20 
0.48938
 30 
0.0
 0 
VERTEX
 8 
1
 10 
0.995
 20 
0.4882
 30 
0.0
 0 
VERTEX
 8 
1
 10 
0.994
 20 
0.48722
 30 
0.0
 0 
VERTEX
 8 
1
 10 
0.992
 20 
0.4856
 30 
0.0
 0 
VERTEX
 8 
1
 10 
0.99
 20 
0.48424
 30 
0.0
 0 
VERTEX
 8 
1
 10 
0.988
 20 
0.48312
 30 
0.0
 0 
VERTEX
 8 
1
 10 
0.986
 20 
0.48199
 30 
0.0
 0 
VERTEX
 8 
1
 10 
0.98
 20 
0.47922
 30 
0.0
 0 
VERTEX
 8 
1
 10 
0.974
 20 
0.47704
 30 
0.0
 0 
VERTEX
 8 
1
 10 
0.968
 20 
0.47509
 30 
0.0
 0 
VERTEX
 8 
1
 10 
0.96
 20 
0.47285
 30 
0.0
 0 
VERTEX
 8 
1
 10 
0.95
 20 
0.47046
 30 
0.0
 0 
VERTEX
 8 
1
 10 
0.94
 20 
0.46841
 30 
0.0
 0 
VERTEX
 8 
1
 10 
0.93
 20 
0.46665
 30 
0.0
 0 
VERTEX
 8 
1
 10 
0.92
 20 
0.46511
 30 
0.0
 0 
VERTEX
 8 
1
 10 
0.9
 20 
0.46261
 30 
0.0
 0 
VERTEX
 8 
1
 10 
0.88
 20 
0.4607
 30 
0.0
 0 
VERTEX
 8 
1
 10 
0.86
 20 
0.45918
 30 
0.0
 0 
VERTEX
 8 
1
 10 
0.84
 20 
0.45799
 30 
0.0
 0 
VERTEX
 8 
1
 10 
0.81
 20 
0.45659
 30 
0.0
 0 
VERTEX
 8 
1
 10 
0.78
 20 
0.45555
 30 
0.0
 0 
VERTEX
 8 
1
 10 
0.74
 20 
0.4546
 30 
0.0
 0 
VERTEX
 8 
1
 10 
0.7
 20 
0.45419
 30 
0.0
 0 
VERTEX
 8 
1
 10 
0.65
 20 
0.45412
 30 
0.0
 0 
VERTEX
 8 
1
 10 
0.6
 20 
0.45492
 30 
0.0
 0 
VERTEX
 8 
1
 10 
0.55
 20 
0.45662
 30 
0.0
 0 
VERTEX
 8 
1
 10 
0.5
 20 
0.45941
 30 
0.0
 0 
VERTEX
 8 
1
 10 
0.45
 20 
0.46341
 30 
0.0
 0 
VERTEX
 8 
1
 10 
0.4
 20 
0.46869
 30 
0.0
 0 
VERTEX
 8 
1
 10 
0.35
 20 
0.4751
 30 
0.0
 0 
VERTEX
 8 
1
 10 
0.3
 20 
0.48232
 30 
0.0
 0 
VERTEX
 8 
1
 10 
0.26
 20 
0.48804
 30 
0.0
 0 
VERTEX
 8 
1
 10 
0.22
 20 
0.49386
 30 
0.0
 0 
VERTEX
 8 
1
 10 
0.18
 20 
0.49868
 30 
0.0
 0 
VERTEX
 8 
1
 10 
0.14
 20 
0.50214
 30 
0.0
 0 
VERTEX
 8 
1
 10 
0.1
 20 
0.50388
 30 
0.0
 0 
VERTEX
 8 
1
 10 
0.07
 20 
0.50394
 30 
0.0
 0 
VERTEX
 8 
1
 10 
0.05
 20 
0.50334
 30 
0.0
 0 
VERTEX
 8 
1
 10 
0.03
 20 
0.50224
 30 
0.0
 0 
VERTEX
 8 
1
 10 
0.02
 20 
0.50149
 30 
0.0
 0 
VERTEX
 8 
1
 10 
0.01
 20 
0.50061
 30 
0.0
 0 
VERTEX
 8 
1
 10 
0.0
 20 
0.49959
 30 
0.0
 0 
SEQEND
 8 
1
 0 
ENDSEC
 0 
EOF
