 0 
SECTION
 2 
ENTITIES
 0 
POLYLINE
 8 
1
 66 
 1 
 10 
0.0
 20 
0.0
 30 
0.0
 0 
VERTEX
 8 
1
 10 
0.0
 20 
0.5004
 30 
0.0
 0 
VERTEX
 8 
1
 10 
0.05
 20 
0.5116
 30 
0.0
 0 
VERTEX
 8 
1
 10 
0.1
 20 
0.5218
 30 
0.0
 0 
VERTEX
 8 
1
 10 
0.15
 20 
0.5307
 30 
0.0
 0 
VERTEX
 8 
1
 10 
0.2
 20 
0.5384
 30 
0.0
 0 
VERTEX
 8 
1
 10 
0.25
 20 
0.545
 30 
0.0
 0 
VERTEX
 8 
1
 10 
0.3
 20 
0.5503
 30 
0.0
 0 
VERTEX
 8 
1
 10 
0.35
 20 
0.5548
 30 
0.0
 0 
VERTEX
 8 
1
 10 
0.4
 20 
0.5585
 30 
0.0
 0 
VERTEX
 8 
1
 10 
0.45
 20 
0.5613
 30 
0.0
 0 
VERTEX
 8 
1
 10 
0.5
 20 
0.5636
 30 
0.0
 0 
VERTEX
 8 
1
 10 
0.55
 20 
0.5654
 30 
0.0
 0 
VERTEX
 8 
1
 10 
0.6
 20 
0.5667
 30 
0.0
 0 
VERTEX
 8 
1
 10 
0.65
 20 
0.5673
 30 
0.0
 0 
VERTEX
 8 
1
 10 
0.7
 20 
0.5674
 30 
0.0
 0 
VERTEX
 8 
1
 10 
0.75
 20 
0.5665
 30 
0.0
 0 
VERTEX
 8 
1
 10 
0.8
 20 
0.5643
 30 
0.0
 0 
VERTEX
 8 
1
 10 
0.85
 20 
0.5599
 30 
0.0
 0 
VERTEX
 8 
1
 10 
0.875
 20 
0.5566
 30 
0.0
 0 
VERTEX
 8 
1
 10 
0.9
 20 
0.5521
 30 
0.0
 0 
VERTEX
 8 
1
 10 
0.925
 20 
0.5465
 30 
0.0
 0 
VERTEX
 8 
1
 10 
0.95
 20 
0.5384
 30 
0.0
 0 
VERTEX
 8 
1
 10 
0.9625
 20 
0.5334
 30 
0.0
 0 
VERTEX
 8 
1
 10 
0.975
 20 
0.5271
 30 
0.0
 0 
VERTEX
 8 
1
 10 
0.98
 20 
0.5242
 30 
0.0
 0 
VERTEX
 8 
1
 10 
0.985
 20 
0.5207
 30 
0.0
 0 
VERTEX
 8 
1
 10 
0.995
 20 
0.5112
 30 
0.0
 0 
VERTEX
 8 
1
 10 
0.9975
 20 
0.5078
 30 
0.0
 0 
VERTEX
 8 
1
 10 
0.999
 20 
0.505
 30 
0.0
 0 
VERTEX
 8 
1
 10 
0.9995
 20 
0.5037
 30 
0.0
 0 
VERTEX
 8 
1
 10 
1
 20 
0.5
 30 
0.0
 0 
VERTEX
 8 
1
 10 
0.9995
 20 
0.4982
 30 
0.0
 0 
VERTEX
 8 
1
 10 
0.999
 20 
0.4973
 30 
0.0
 0 
VERTEX
 8 
1
 10 
0.9975
 20 
0.4957
 30 
0.0
 0 
VERTEX
 8 
1
 10 
0.995
 20 
0.4942
 30 
0.0
 0 
VERTEX
 8 
1
 10 
0.985
 20 
0.4902
 30 
0.0
 0 
VERTEX
 8 
1
 10 
0.98
 20 
0.4888
 30 
0.0
 0 
VERTEX
 8 
1
 10 
0.975
 20 
0.4875
 30 
0.0
 0 
VERTEX
 8 
1
 10 
0.9625
 20 
0.4848
 30 
0.0
 0 
VERTEX
 8 
1
 10 
0.95
 20 
0.4825
 30 
0.0
 0 
VERTEX
 8 
1
 10 
0.925
 20 
0.4784
 30 
0.0
 0 
VERTEX
 8 
1
 10 
0.9
 20 
0.4746
 30 
0.0
 0 
VERTEX
 8 
1
 10 
0.875
 20 
0.4712
 30 
0.0
 0 
VERTEX
 8 
1
 10 
0.85
 20 
0.468
 30 
0.0
 0 
VERTEX
 8 
1
 10 
0.8
 20 
0.4625
 30 
0.0
 0 
VERTEX
 8 
1
 10 
0.75
 20 
0.4583
 30 
0.0
 0 
VERTEX
 8 
1
 10 
0.7
 20 
0.4555
 30 
0.0
 0 
VERTEX
 8 
1
 10 
0.65
 20 
0.4542
 30 
0.0
 0 
VERTEX
 8 
1
 10 
0.6
 20 
0.4543
 30 
0.0
 0 
VERTEX
 8 
1
 10 
0.55
 20 
0.4557
 30 
0.0
 0 
VERTEX
 8 
1
 10 
0.5
 20 
0.4583
 30 
0.0
 0 
VERTEX
 8 
1
 10 
0.45
 20 
0.4617
 30 
0.0
 0 
VERTEX
 8 
1
 10 
0.4
 20 
0.4656
 30 
0.0
 0 
VERTEX
 8 
1
 10 
0.35
 20 
0.4697
 30 
0.0
 0 
VERTEX
 8 
1
 10 
0.3
 20 
0.474
 30 
0.0
 0 
VERTEX
 8 
1
 10 
0.25
 20 
0.4782
 30 
0.0
 0 
VERTEX
 8 
1
 10 
0.2
 20 
0.4826
 30 
0.0
 0 
VERTEX
 8 
1
 10 
0.15
 20 
0.4868
 30 
0.0
 0 
VERTEX
 8 
1
 10 
0.1
 20 
0.491
 30 
0.0
 0 
VERTEX
 8 
1
 10 
0.05
 20 
0.4953
 30 
0.0
 0 
VERTEX
 8 
1
 10 
0.0
 20 
0.4996
 30 
0.0
 0 
SEQEND
 8 
1
 0 
ENDSEC
 0 
EOF
