  0
SECTION
  2
HEADER
  9
$ACADVER
  1
AC1004
  9
$EXTMIN
 10
0.0063
 20
0.5290
  9
$EXTMAX
 10
6.0059
 20
3.4045
  9
$LIMMIN
 10
0.0063
 20
0.5290
  9
$LIMMAX
 10
6.0059
 20
3.4045
  9
$INSBASE
 10
0.0
 20
0.0
  9
$VIEWCTR
 10
7.21903
 20
4.5
  9
$VIEWSIZE
 40
9.0
  9
$SNAPMODE
 70
     0
  9
$SNAPUNIT
 10
1.0
 20
1.0
  9
$SNAPBASE
 10
0.0
 20
0.0
  9
$SNAPANG
 50
0.0
  9
$SNAPSTYLE
 70
     0
  9
$SNAPISOPAIR
 70
     0
  9
$GRIDMODE
 70
     0
  9
$GRIDUNIT
 10
0.0
 20
0.0
  9
$ORTHOMODE
 70
     0
  9
$REGENMODE
 70
     1
  9
$FILLMODE
 70
     1
  9
$QTEXTMODE
 70
     0
  9
$DRAGMODE
 70
     2
  9
$LTSCALE
 40
1.0
  9
$OSMODE
 70
     0
  9
$ATTMODE
 70
     1
  9
$TEXTSIZE
 40
0.2
  9
$TRACEWID
 40
0.05
  9
$TEXTSTYLE
  7
STANDARD
  9
$CLAYER
  8
0
  9
$CELTYPE
  6
BYLAYER
  9
$CECOLOR
 62
   256
  9
$DIMSCALE
 40
1.0
  9
$DIMASZ
 40
0.18
  9
$DIMEXO
 40
0.0625
  9
$DIMDLI
 40
0.38
  9
$DIMRND
 40
0.0
  9
$DIMDLE
 40
0.0
  9
$DIMEXE
 40
0.18
  9
$DIMTP
 40
0.0
  9
$DIMTM
 40
0.0
  9
$DIMTXT
 40
0.18
  9
$DIMCEN
 40
0.09
  9
$DIMTSZ
 40
0.0
  9
$DIMTOL
 70
     0
  9
$DIMLIM
 70
     0
  9
$DIMTIH
 70
     1
  9
$DIMTOH
 70
     1
  9
$DIMSE1
 70
     0
  9
$DIMSE2
 70
     0
  9
$DIMTAD
 70
     0
  9
$DIMZIN
 70
     0
  9
$DIMBLK
  1

  9
$DIMASO
 70
     1
  9
$DIMSHO
 70
     0
  9
$DIMPOST
  1

  9
$DIMAPOST
  1

  9
$DIMALT
 70
     0
  9
$DIMALTD
 70
     2
  9
$DIMALTF
 40
25.4
  9
$DIMLFAC
 40
1.0
  9
$LUNITS
 70
     2
  9
$LUPREC
 70
     4
  9
$AXISMODE
 70
     0
  9
$AXISUNIT
 10
0.0
 20
0.0
  9
$SKETCHINC
 40
0.1
  9
$FILLETRAD
 40
0.0
  9
$AUNITS
 70
     0
  9
$AUPREC
 70
     0
  9
$MENU
  1
acad
  9
$ELEVATION
 40
0.0
  9
$THICKNESS
 40
0.0
  9
$VIEWDIR
 10
0.0
 20
0.0
 30
1.0
  9
$LIMCHECK
 70
     0
  9
$BLIPMODE
 70
     1
  9
$CHAMFERA
 40
0.0
  9
$CHAMFERB
 40
0.0
  9
$FASTZOOM
 70
     1
  9
$SKPOLY
 70
     0
  9
$TDCREATE
 40
2447222.5666886573
  9
$TDUPDATE
 40
2447222.5666886573
  9
$TDINDWG
 40
0.0000000000
  9
$TDUSRTIMER
 40
0.0000000000
  9
$USRTIMER
 70
     1
  9
$ANGBASE
 50
0.0
  9
$ANGDIR
 70
     0
  9
$PDMODE
 70
     0
  9
$PDSIZE
 40
0.0
  9
$PLINEWID
 40
0.0
  9
$COORDS
 70
     0
  9
$SPLFRAME
 70
     0
  9
$SPLINESEGS
 70
     8
  9
$ATTDIA
 70
     0
  9
$ATTREQ
 70
     1
  9
$USERI1
 70
     0
  9
$USERI2
 70
     0
  9
$USERI3
 70
     0
  9
$USERI4
 70
     0
  9
$USERI5
 70
     0
  9
$USERR1
 40
0.0
  9
$USERR2
 40
0.0
  9
$USERR3
 40
0.0
  9
$USERR4
 40
0.0
  9
$USERR5
 40
0.0
  0
ENDSEC
  0
SECTION
  2
TABLES
  0
TABLE
  2
LTYPE
 70
     13
  0
LTYPE
  2
CONTINUOUS
 70
    64
  3
Solid line
 72
    65
 73
     0
 40
0.0
  0
LTYPE
  2
DASHED
 70
    64
  3
__ __ __ __ __ __ __ __ __ __ __ __ __ __ __
 72
    65
 73
     2
 40
0.75
 49
0.5
 49
-0.25
  0
LTYPE
  2
HIDDEN
 70
    64
  3
_ _ _ _ _ _ _ _ _ _ _ _ _ _ _ _ _ _ _ _ _ _ _
 72
    65
 73
     2
 40
0.375
 49
0.25
 49
-0.125
  0
LTYPE
  2
CENTER
 70
    64
  3
____ _ ____ _ ____ _ ____ _ ____ _ ____ _ ____
 72
    65
 73
     4
 40
2.0
 49
1.25
 49
-0.25
 49
0.25
 49
-0.25
  0
LTYPE
  2
PHANTOM
 70
    64
  3
_____ _ _ _____ _ _ _____ _ _ _____ _ _ ____
 72
    65
 73
     6
 40
2.5
 49
1.25
 49
-0.25
 49
0.25
 49
-0.25
 49
0.25
 49
-0.25
  0
LTYPE
  2
DOT
 70
    64
  3
...............................................
 72
    65
 73
     2
 40
0.25
 49
0.0
 49
-0.25
  0
LTYPE
  2
DASHDOT
 70
    64
  3
__ . __ . __ . __ . __ . __ . __ . __ . __ . __
 72
    65
 73
     4
 40
1.0
 49
0.5
 49
-0.25
 49
0.0
 49
-0.25
  0
LTYPE
  2
BORDER
 70
    64
  3
__ __ . __ __ . __ __ . __ __ . __ __ . __ __
 72
    65
 73
     6
 40
1.75
 49
0.5
 49
-0.25
 49
0.5
 49
-0.25
 49
0.0
 49
-0.25
  0
LTYPE
  2
DIVIDE
 70
    64
  3
__ . . __ . . __ . . __ . . __ . . __ . . __
 72
    65
 73
     6
 40
1.25
 49
0.5
 49
-0.25
 49
0.0
 49
-0.25
 49
0.0
 49
-0.25
  0
LTYPE
  2
DCTYPE1
 70
    64
  3
__ . . __ . . __ . . __ . . __ . . __ . . __
 72
    65
 73
     8
 40
2.5
 49
0.5
 49
-0.25
 49
0.125
 49
-0.25
 49
0.25
 49
-0.25
 49
0.125
 49
-0.25
  0
LTYPE
  2
DCTYPE2
 70
    64
  3
__ . . __ . . __ . . __ . . __ . . __ . . __
 72
    65
 73
     6
 40
2.05
 49
1.0
 49
-0.3
 49
0.15
 49
-0.15
 49
0.15
 49
-0.3
  0
LTYPE
  2
DCTYPE3
 70
    64
  3
__ . . __ . . __ . . __ . . __ . . __ . . __
 72
    65
 73
     6
 40
2.5
 49
0.8
 49
-0.2
 49
0.8
 49
-0.2
 49
0.3
 49
-0.2
  0
LTYPE
  2
DCTYPE4
 70
    64
  3
__ . . __ . . __ . . __ . . __ . . __ . . __
 72
    65
 73
     10
 40
3.97
 49
1.75
 49
-0.3
 49
0.3
 49
-0.3
 49
0.06
 49
-0.3
 49
0.06
 49
-0.3
 49
0.3
 49
-0.3
  0
ENDTAB
  0
TABLE
  2
LAYER
 70
    153
  0
LAYER
  2
0
 70
 64
 62
     7
  6
CONTINUOUS
  0
ENDTAB
  0
ENDSEC
  0
SECTION
  2
BLOCKS
  0
ENDSEC
  0
SECTION
  2
ENTITIES
  0
TEXT
  8
0
 62
     7
 10
0.0063
 20
2.9291
 40
0.3962
  1
BENEDEK B10307B
 72
     5
 11
6.0059
 21
2.9291
  0
POLYLINE
  8
0
 62
     3
 66
     1
  6
CONTINUOUS
  0
VERTEX
  8
0
 62
     3
  6
CONTINUOUS
 10
0.0063
 20
0.5982
  0
VERTEX
  8
0
 62
     3
  6
CONTINUOUS
 10
0.0070
 20
0.6026
  0
VERTEX
  8
0
 62
     3
  6
CONTINUOUS
 10
0.0077
 20
0.6070
  0
VERTEX
  8
0
 62
     3
  6
CONTINUOUS
 10
0.0085
 20
0.6114
  0
VERTEX
  8
0
 62
     3
  6
CONTINUOUS
 10
0.0092
 20
0.6158
  0
VERTEX
  8
0
 62
     3
  6
CONTINUOUS
 10
0.0101
 20
0.6201
  0
VERTEX
  8
0
 62
     3
  6
CONTINUOUS
 10
0.0110
 20
0.6245
  0
VERTEX
  8
0
 62
     3
  6
CONTINUOUS
 10
0.0119
 20
0.6288
  0
VERTEX
  8
0
 62
     3
  6
CONTINUOUS
 10
0.0130
 20
0.6330
  0
VERTEX
  8
0
 62
     3
  6
CONTINUOUS
 10
0.0141
 20
0.6373
  0
VERTEX
  8
0
 62
     3
  6
CONTINUOUS
 10
0.0154
 20
0.6415
  0
VERTEX
  8
0
 62
     3
  6
CONTINUOUS
 10
0.0168
 20
0.6457
  0
VERTEX
  8
0
 62
     3
  6
CONTINUOUS
 10
0.0183
 20
0.6498
  0
VERTEX
  8
0
 62
     3
  6
CONTINUOUS
 10
0.0191
 20
0.6518
  0
VERTEX
  8
0
 62
     3
  6
CONTINUOUS
 10
0.0199
 20
0.6538
  0
VERTEX
  8
0
 62
     3
  6
CONTINUOUS
 10
0.0208
 20
0.6558
  0
VERTEX
  8
0
 62
     3
  6
CONTINUOUS
 10
0.0217
 20
0.6577
  0
VERTEX
  8
0
 62
     3
  6
CONTINUOUS
 10
0.0226
 20
0.6597
  0
VERTEX
  8
0
 62
     3
  6
CONTINUOUS
 10
0.0236
 20
0.6616
  0
VERTEX
  8
0
 62
     3
  6
CONTINUOUS
 10
0.0246
 20
0.6635
  0
VERTEX
  8
0
 62
     3
  6
CONTINUOUS
 10
0.0257
 20
0.6654
  0
VERTEX
  8
0
 62
     3
  6
CONTINUOUS
 10
0.0268
 20
0.6672
  0
VERTEX
  8
0
 62
     3
  6
CONTINUOUS
 10
0.0279
 20
0.6691
  0
VERTEX
  8
0
 62
     3
  6
CONTINUOUS
 10
0.0291
 20
0.6709
  0
VERTEX
  8
0
 62
     3
  6
CONTINUOUS
 10
0.0303
 20
0.6726
  0
VERTEX
  8
0
 62
     3
  6
CONTINUOUS
 10
0.0313
 20
0.6740
  0
VERTEX
  8
0
 62
     3
  6
CONTINUOUS
 10
0.0322
 20
0.6753
  0
VERTEX
  8
0
 62
     3
  6
CONTINUOUS
 10
0.0332
 20
0.6766
  0
VERTEX
  8
0
 62
     3
  6
CONTINUOUS
 10
0.0342
 20
0.6779
  0
VERTEX
  8
0
 62
     3
  6
CONTINUOUS
 10
0.0352
 20
0.6792
  0
VERTEX
  8
0
 62
     3
  6
CONTINUOUS
 10
0.0362
 20
0.6805
  0
VERTEX
  8
0
 62
     3
  6
CONTINUOUS
 10
0.0373
 20
0.6818
  0
VERTEX
  8
0
 62
     3
  6
CONTINUOUS
 10
0.0383
 20
0.6830
  0
VERTEX
  8
0
 62
     3
  6
CONTINUOUS
 10
0.0393
 20
0.6843
  0
VERTEX
  8
0
 62
     3
  6
CONTINUOUS
 10
0.0403
 20
0.6856
  0
VERTEX
  8
0
 62
     3
  6
CONTINUOUS
 10
0.0413
 20
0.6869
  0
VERTEX
  8
0
 62
     3
  6
CONTINUOUS
 10
0.0423
 20
0.6882
  0
VERTEX
  8
0
 62
     3
  6
CONTINUOUS
 10
0.0433
 20
0.6897
  0
VERTEX
  8
0
 62
     3
  6
CONTINUOUS
 10
0.0444
 20
0.6911
  0
VERTEX
  8
0
 62
     3
  6
CONTINUOUS
 10
0.0454
 20
0.6925
  0
VERTEX
  8
0
 62
     3
  6
CONTINUOUS
 10
0.0464
 20
0.6940
  0
VERTEX
  8
0
 62
     3
  6
CONTINUOUS
 10
0.0474
 20
0.6954
  0
VERTEX
  8
0
 62
     3
  6
CONTINUOUS
 10
0.0483
 20
0.6969
  0
VERTEX
  8
0
 62
     3
  6
CONTINUOUS
 10
0.0493
 20
0.6984
  0
VERTEX
  8
0
 62
     3
  6
CONTINUOUS
 10
0.0503
 20
0.6998
  0
VERTEX
  8
0
 62
     3
  6
CONTINUOUS
 10
0.0513
 20
0.7013
  0
VERTEX
  8
0
 62
     3
  6
CONTINUOUS
 10
0.0523
 20
0.7027
  0
VERTEX
  8
0
 62
     3
  6
CONTINUOUS
 10
0.0533
 20
0.7042
  0
VERTEX
  8
0
 62
     3
  6
CONTINUOUS
 10
0.0543
 20
0.7056
  0
VERTEX
  8
0
 62
     3
  6
CONTINUOUS
 10
0.0564
 20
0.7085
  0
VERTEX
  8
0
 62
     3
  6
CONTINUOUS
 10
0.0585
 20
0.7113
  0
VERTEX
  8
0
 62
     3
  6
CONTINUOUS
 10
0.0606
 20
0.7141
  0
VERTEX
  8
0
 62
     3
  6
CONTINUOUS
 10
0.0628
 20
0.7168
  0
VERTEX
  8
0
 62
     3
  6
CONTINUOUS
 10
0.0651
 20
0.7195
  0
VERTEX
  8
0
 62
     3
  6
CONTINUOUS
 10
0.0673
 20
0.7222
  0
VERTEX
  8
0
 62
     3
  6
CONTINUOUS
 10
0.0696
 20
0.7249
  0
VERTEX
  8
0
 62
     3
  6
CONTINUOUS
 10
0.0719
 20
0.7275
  0
VERTEX
  8
0
 62
     3
  6
CONTINUOUS
 10
0.0743
 20
0.7301
  0
VERTEX
  8
0
 62
     3
  6
CONTINUOUS
 10
0.0766
 20
0.7328
  0
VERTEX
  8
0
 62
     3
  6
CONTINUOUS
 10
0.0790
 20
0.7354
  0
VERTEX
  8
0
 62
     3
  6
CONTINUOUS
 10
0.0813
 20
0.7380
  0
VERTEX
  8
0
 62
     3
  6
CONTINUOUS
 10
0.0875
 20
0.7450
  0
VERTEX
  8
0
 62
     3
  6
CONTINUOUS
 10
0.0936
 20
0.7520
  0
VERTEX
  8
0
 62
     3
  6
CONTINUOUS
 10
0.0998
 20
0.7589
  0
VERTEX
  8
0
 62
     3
  6
CONTINUOUS
 10
0.1059
 20
0.7659
  0
VERTEX
  8
0
 62
     3
  6
CONTINUOUS
 10
0.1120
 20
0.7729
  0
VERTEX
  8
0
 62
     3
  6
CONTINUOUS
 10
0.1182
 20
0.7798
  0
VERTEX
  8
0
 62
     3
  6
CONTINUOUS
 10
0.1244
 20
0.7867
  0
VERTEX
  8
0
 62
     3
  6
CONTINUOUS
 10
0.1306
 20
0.7935
  0
VERTEX
  8
0
 62
     3
  6
CONTINUOUS
 10
0.1369
 20
0.8003
  0
VERTEX
  8
0
 62
     3
  6
CONTINUOUS
 10
0.1433
 20
0.8071
  0
VERTEX
  8
0
 62
     3
  6
CONTINUOUS
 10
0.1498
 20
0.8137
  0
VERTEX
  8
0
 62
     3
  6
CONTINUOUS
 10
0.1563
 20
0.8202
  0
VERTEX
  8
0
 62
     3
  6
CONTINUOUS
 10
0.1677
 20
0.8312
  0
VERTEX
  8
0
 62
     3
  6
CONTINUOUS
 10
0.1794
 20
0.8418
  0
VERTEX
  8
0
 62
     3
  6
CONTINUOUS
 10
0.1913
 20
0.8522
  0
VERTEX
  8
0
 62
     3
  6
CONTINUOUS
 10
0.2035
 20
0.8624
  0
VERTEX
  8
0
 62
     3
  6
CONTINUOUS
 10
0.2158
 20
0.8723
  0
VERTEX
  8
0
 62
     3
  6
CONTINUOUS
 10
0.2284
 20
0.8820
  0
VERTEX
  8
0
 62
     3
  6
CONTINUOUS
 10
0.2411
 20
0.8916
  0
VERTEX
  8
0
 62
     3
  6
CONTINUOUS
 10
0.2539
 20
0.9010
  0
VERTEX
  8
0
 62
     3
  6
CONTINUOUS
 10
0.2669
 20
0.9102
  0
VERTEX
  8
0
 62
     3
  6
CONTINUOUS
 10
0.2800
 20
0.9193
  0
VERTEX
  8
0
 62
     3
  6
CONTINUOUS
 10
0.2931
 20
0.9283
  0
VERTEX
  8
0
 62
     3
  6
CONTINUOUS
 10
0.3063
 20
0.9372
  0
VERTEX
  8
0
 62
     3
  6
CONTINUOUS
 10
0.3185
 20
0.9454
  0
VERTEX
  8
0
 62
     3
  6
CONTINUOUS
 10
0.3308
 20
0.9535
  0
VERTEX
  8
0
 62
     3
  6
CONTINUOUS
 10
0.3430
 20
0.9616
  0
VERTEX
  8
0
 62
     3
  6
CONTINUOUS
 10
0.3554
 20
0.9696
  0
VERTEX
  8
0
 62
     3
  6
CONTINUOUS
 10
0.3677
 20
0.9774
  0
VERTEX
  8
0
 62
     3
  6
CONTINUOUS
 10
0.3802
 20
0.9852
  0
VERTEX
  8
0
 62
     3
  6
CONTINUOUS
 10
0.3927
 20
0.9928
  0
VERTEX
  8
0
 62
     3
  6
CONTINUOUS
 10
0.4052
 20
1.0004
  0
VERTEX
  8
0
 62
     3
  6
CONTINUOUS
 10
0.4179
 20
1.0078
  0
VERTEX
  8
0
 62
     3
  6
CONTINUOUS
 10
0.4306
 20
1.0150
  0
VERTEX
  8
0
 62
     3
  6
CONTINUOUS
 10
0.4434
 20
1.0221
  0
VERTEX
  8
0
 62
     3
  6
CONTINUOUS
 10
0.4563
 20
1.0290
  0
VERTEX
  8
0
 62
     3
  6
CONTINUOUS
 10
0.4684
 20
1.0353
  0
VERTEX
  8
0
 62
     3
  6
CONTINUOUS
 10
0.4806
 20
1.0415
  0
VERTEX
  8
0
 62
     3
  6
CONTINUOUS
 10
0.4929
 20
1.0475
  0
VERTEX
  8
0
 62
     3
  6
CONTINUOUS
 10
0.5053
 20
1.0534
  0
VERTEX
  8
0
 62
     3
  6
CONTINUOUS
 10
0.5177
 20
1.0591
  0
VERTEX
  8
0
 62
     3
  6
CONTINUOUS
 10
0.5302
 20
1.0648
  0
VERTEX
  8
0
 62
     3
  6
CONTINUOUS
 10
0.5428
 20
1.0703
  0
VERTEX
  8
0
 62
     3
  6
CONTINUOUS
 10
0.5554
 20
1.0757
  0
VERTEX
  8
0
 62
     3
  6
CONTINUOUS
 10
0.5680
 20
1.0809
  0
VERTEX
  8
0
 62
     3
  6
CONTINUOUS
 10
0.5807
 20
1.0861
  0
VERTEX
  8
0
 62
     3
  6
CONTINUOUS
 10
0.5935
 20
1.0912
  0
VERTEX
  8
0
 62
     3
  6
CONTINUOUS
 10
0.6063
 20
1.0962
  0
VERTEX
  8
0
 62
     3
  6
CONTINUOUS
 10
0.6308
 20
1.1055
  0
VERTEX
  8
0
 62
     3
  6
CONTINUOUS
 10
0.6554
 20
1.1146
  0
VERTEX
  8
0
 62
     3
  6
CONTINUOUS
 10
0.6801
 20
1.1233
  0
VERTEX
  8
0
 62
     3
  6
CONTINUOUS
 10
0.7049
 20
1.1317
  0
VERTEX
  8
0
 62
     3
  6
CONTINUOUS
 10
0.7298
 20
1.1399
  0
VERTEX
  8
0
 62
     3
  6
CONTINUOUS
 10
0.7547
 20
1.1477
  0
VERTEX
  8
0
 62
     3
  6
CONTINUOUS
 10
0.7798
 20
1.1553
  0
VERTEX
  8
0
 62
     3
  6
CONTINUOUS
 10
0.8049
 20
1.1626
  0
VERTEX
  8
0
 62
     3
  6
CONTINUOUS
 10
0.8302
 20
1.1697
  0
VERTEX
  8
0
 62
     3
  6
CONTINUOUS
 10
0.8555
 20
1.1764
  0
VERTEX
  8
0
 62
     3
  6
CONTINUOUS
 10
0.8808
 20
1.1829
  0
VERTEX
  8
0
 62
     3
  6
CONTINUOUS
 10
0.9062
 20
1.1892
  0
VERTEX
  8
0
 62
     3
  6
CONTINUOUS
 10
0.9310
 20
1.1950
  0
VERTEX
  8
0
 62
     3
  6
CONTINUOUS
 10
0.9558
 20
1.2006
  0
VERTEX
  8
0
 62
     3
  6
CONTINUOUS
 10
0.9807
 20
1.2060
  0
VERTEX
  8
0
 62
     3
  6
CONTINUOUS
 10
1.0056
 20
1.2112
  0
VERTEX
  8
0
 62
     3
  6
CONTINUOUS
 10
1.0305
 20
1.2161
  0
VERTEX
  8
0
 62
     3
  6
CONTINUOUS
 10
1.0555
 20
1.2208
  0
VERTEX
  8
0
 62
     3
  6
CONTINUOUS
 10
1.0805
 20
1.2252
  0
VERTEX
  8
0
 62
     3
  6
CONTINUOUS
 10
1.1056
 20
1.2295
  0
VERTEX
  8
0
 62
     3
  6
CONTINUOUS
 10
1.1307
 20
1.2335
  0
VERTEX
  8
0
 62
     3
  6
CONTINUOUS
 10
1.1559
 20
1.2374
  0
VERTEX
  8
0
 62
     3
  6
CONTINUOUS
 10
1.1810
 20
1.2410
  0
VERTEX
  8
0
 62
     3
  6
CONTINUOUS
 10
1.2062
 20
1.2444
  0
VERTEX
  8
0
 62
     3
  6
CONTINUOUS
 10
1.2311
 20
1.2476
  0
VERTEX
  8
0
 62
     3
  6
CONTINUOUS
 10
1.2560
 20
1.2506
  0
VERTEX
  8
0
 62
     3
  6
CONTINUOUS
 10
1.2810
 20
1.2534
  0
VERTEX
  8
0
 62
     3
  6
CONTINUOUS
 10
1.3060
 20
1.2560
  0
VERTEX
  8
0
 62
     3
  6
CONTINUOUS
 10
1.3309
 20
1.2584
  0
VERTEX
  8
0
 62
     3
  6
CONTINUOUS
 10
1.3559
 20
1.2606
  0
VERTEX
  8
0
 62
     3
  6
CONTINUOUS
 10
1.3810
 20
1.2626
  0
VERTEX
  8
0
 62
     3
  6
CONTINUOUS
 10
1.4060
 20
1.2645
  0
VERTEX
  8
0
 62
     3
  6
CONTINUOUS
 10
1.4310
 20
1.2662
  0
VERTEX
  8
0
 62
     3
  6
CONTINUOUS
 10
1.4561
 20
1.2677
  0
VERTEX
  8
0
 62
     3
  6
CONTINUOUS
 10
1.4811
 20
1.2690
  0
VERTEX
  8
0
 62
     3
  6
CONTINUOUS
 10
1.5062
 20
1.2702
  0
VERTEX
  8
0
 62
     3
  6
CONTINUOUS
 10
1.5312
 20
1.2712
  0
VERTEX
  8
0
 62
     3
  6
CONTINUOUS
 10
1.5562
 20
1.2720
  0
VERTEX
  8
0
 62
     3
  6
CONTINUOUS
 10
1.5812
 20
1.2727
  0
VERTEX
  8
0
 62
     3
  6
CONTINUOUS
 10
1.6062
 20
1.2732
  0
VERTEX
  8
0
 62
     3
  6
CONTINUOUS
 10
1.6312
 20
1.2736
  0
VERTEX
  8
0
 62
     3
  6
CONTINUOUS
 10
1.6562
 20
1.2739
  0
VERTEX
  8
0
 62
     3
  6
CONTINUOUS
 10
1.6812
 20
1.2740
  0
VERTEX
  8
0
 62
     3
  6
CONTINUOUS
 10
1.7062
 20
1.2741
  0
VERTEX
  8
0
 62
     3
  6
CONTINUOUS
 10
1.7312
 20
1.2740
  0
VERTEX
  8
0
 62
     3
  6
CONTINUOUS
 10
1.7562
 20
1.2738
  0
VERTEX
  8
0
 62
     3
  6
CONTINUOUS
 10
1.7812
 20
1.2735
  0
VERTEX
  8
0
 62
     3
  6
CONTINUOUS
 10
1.8062
 20
1.2732
  0
VERTEX
  8
0
 62
     3
  6
CONTINUOUS
 10
1.8562
 20
1.2723
  0
VERTEX
  8
0
 62
     3
  6
CONTINUOUS
 10
1.9063
 20
1.2711
  0
VERTEX
  8
0
 62
     3
  6
CONTINUOUS
 10
1.9564
 20
1.2695
  0
VERTEX
  8
0
 62
     3
  6
CONTINUOUS
 10
2.0064
 20
1.2677
  0
VERTEX
  8
0
 62
     3
  6
CONTINUOUS
 10
2.0564
 20
1.2657
  0
VERTEX
  8
0
 62
     3
  6
CONTINUOUS
 10
2.1064
 20
1.2633
  0
VERTEX
  8
0
 62
     3
  6
CONTINUOUS
 10
2.1564
 20
1.2606
  0
VERTEX
  8
0
 62
     3
  6
CONTINUOUS
 10
2.2064
 20
1.2577
  0
VERTEX
  8
0
 62
     3
  6
CONTINUOUS
 10
2.2564
 20
1.2545
  0
VERTEX
  8
0
 62
     3
  6
CONTINUOUS
 10
2.3063
 20
1.2510
  0
VERTEX
  8
0
 62
     3
  6
CONTINUOUS
 10
2.3562
 20
1.2472
  0
VERTEX
  8
0
 62
     3
  6
CONTINUOUS
 10
2.4061
 20
1.2432
  0
VERTEX
  8
0
 62
     3
  6
CONTINUOUS
 10
2.4563
 20
1.2389
  0
VERTEX
  8
0
 62
     3
  6
CONTINUOUS
 10
2.5064
 20
1.2343
  0
VERTEX
  8
0
 62
     3
  6
CONTINUOUS
 10
2.5565
 20
1.2295
  0
VERTEX
  8
0
 62
     3
  6
CONTINUOUS
 10
2.6065
 20
1.2244
  0
VERTEX
  8
0
 62
     3
  6
CONTINUOUS
 10
2.6566
 20
1.2191
  0
VERTEX
  8
0
 62
     3
  6
CONTINUOUS
 10
2.7066
 20
1.2136
  0
VERTEX
  8
0
 62
     3
  6
CONTINUOUS
 10
2.7566
 20
1.2078
  0
VERTEX
  8
0
 62
     3
  6
CONTINUOUS
 10
2.8065
 20
1.2019
  0
VERTEX
  8
0
 62
     3
  6
CONTINUOUS
 10
2.8564
 20
1.1957
  0
VERTEX
  8
0
 62
     3
  6
CONTINUOUS
 10
2.9064
 20
1.1893
  0
VERTEX
  8
0
 62
     3
  6
CONTINUOUS
 10
2.9562
 20
1.1827
  0
VERTEX
  8
0
 62
     3
  6
CONTINUOUS
 10
3.0061
 20
1.1760
  0
VERTEX
  8
0
 62
     3
  6
CONTINUOUS
 10
3.0562
 20
1.1690
  0
VERTEX
  8
0
 62
     3
  6
CONTINUOUS
 10
3.1063
 20
1.1619
  0
VERTEX
  8
0
 62
     3
  6
CONTINUOUS
 10
3.1564
 20
1.1546
  0
VERTEX
  8
0
 62
     3
  6
CONTINUOUS
 10
3.2065
 20
1.1472
  0
VERTEX
  8
0
 62
     3
  6
CONTINUOUS
 10
3.2565
 20
1.1396
  0
VERTEX
  8
0
 62
     3
  6
CONTINUOUS
 10
3.3065
 20
1.1318
  0
VERTEX
  8
0
 62
     3
  6
CONTINUOUS
 10
3.3565
 20
1.1239
  0
VERTEX
  8
0
 62
     3
  6
CONTINUOUS
 10
3.4064
 20
1.1159
  0
VERTEX
  8
0
 62
     3
  6
CONTINUOUS
 10
3.4564
 20
1.1077
  0
VERTEX
  8
0
 62
     3
  6
CONTINUOUS
 10
3.5063
 20
1.0994
  0
VERTEX
  8
0
 62
     3
  6
CONTINUOUS
 10
3.5562
 20
1.0910
  0
VERTEX
  8
0
 62
     3
  6
CONTINUOUS
 10
3.6061
 20
1.0824
  0
VERTEX
  8
0
 62
     3
  6
CONTINUOUS
 10
3.6562
 20
1.0737
  0
VERTEX
  8
0
 62
     3
  6
CONTINUOUS
 10
3.7063
 20
1.0649
  0
VERTEX
  8
0
 62
     3
  6
CONTINUOUS
 10
3.7564
 20
1.0559
  0
VERTEX
  8
0
 62
     3
  6
CONTINUOUS
 10
3.8065
 20
1.0468
  0
VERTEX
  8
0
 62
     3
  6
CONTINUOUS
 10
3.8565
 20
1.0376
  0
VERTEX
  8
0
 62
     3
  6
CONTINUOUS
 10
3.9065
 20
1.0283
  0
VERTEX
  8
0
 62
     3
  6
CONTINUOUS
 10
3.9565
 20
1.0188
  0
VERTEX
  8
0
 62
     3
  6
CONTINUOUS
 10
4.0065
 20
1.0091
  0
VERTEX
  8
0
 62
     3
  6
CONTINUOUS
 10
4.0564
 20
0.9994
  0
VERTEX
  8
0
 62
     3
  6
CONTINUOUS
 10
4.1063
 20
0.9894
  0
VERTEX
  8
0
 62
     3
  6
CONTINUOUS
 10
4.1562
 20
0.9793
  0
VERTEX
  8
0
 62
     3
  6
CONTINUOUS
 10
4.2060
 20
0.9690
  0
VERTEX
  8
0
 62
     3
  6
CONTINUOUS
 10
4.2561
 20
0.9585
  0
VERTEX
  8
0
 62
     3
  6
CONTINUOUS
 10
4.3062
 20
0.9479
  0
VERTEX
  8
0
 62
     3
  6
CONTINUOUS
 10
4.3563
 20
0.9371
  0
VERTEX
  8
0
 62
     3
  6
CONTINUOUS
 10
4.4063
 20
0.9261
  0
VERTEX
  8
0
 62
     3
  6
CONTINUOUS
 10
4.4563
 20
0.9151
  0
VERTEX
  8
0
 62
     3
  6
CONTINUOUS
 10
4.5063
 20
0.9040
  0
VERTEX
  8
0
 62
     3
  6
CONTINUOUS
 10
4.5562
 20
0.8928
  0
VERTEX
  8
0
 62
     3
  6
CONTINUOUS
 10
4.6062
 20
0.8816
  0
VERTEX
  8
0
 62
     3
  6
CONTINUOUS
 10
4.6561
 20
0.8703
  0
VERTEX
  8
0
 62
     3
  6
CONTINUOUS
 10
4.7061
 20
0.8590
  0
VERTEX
  8
0
 62
     3
  6
CONTINUOUS
 10
4.7560
 20
0.8477
  0
VERTEX
  8
0
 62
     3
  6
CONTINUOUS
 10
4.8060
 20
0.8364
  0
VERTEX
  8
0
 62
     3
  6
CONTINUOUS
 10
4.8561
 20
0.8251
  0
VERTEX
  8
0
 62
     3
  6
CONTINUOUS
 10
4.9062
 20
0.8139
  0
VERTEX
  8
0
 62
     3
  6
CONTINUOUS
 10
4.9563
 20
0.8026
  0
VERTEX
  8
0
 62
     3
  6
CONTINUOUS
 10
5.0064
 20
0.7912
  0
VERTEX
  8
0
 62
     3
  6
CONTINUOUS
 10
5.0564
 20
0.7798
  0
VERTEX
  8
0
 62
     3
  6
CONTINUOUS
 10
5.1065
 20
0.7683
  0
VERTEX
  8
0
 62
     3
  6
CONTINUOUS
 10
5.1565
 20
0.7567
  0
VERTEX
  8
0
 62
     3
  6
CONTINUOUS
 10
5.2065
 20
0.7449
  0
VERTEX
  8
0
 62
     3
  6
CONTINUOUS
 10
5.2564
 20
0.7330
  0
VERTEX
  8
0
 62
     3
  6
CONTINUOUS
 10
5.3063
 20
0.7209
  0
VERTEX
  8
0
 62
     3
  6
CONTINUOUS
 10
5.3562
 20
0.7086
  0
VERTEX
  8
0
 62
     3
  6
CONTINUOUS
 10
5.4059
 20
0.6960
  0
VERTEX
  8
0
 62
     3
  6
CONTINUOUS
 10
5.4562
 20
0.6831
  0
VERTEX
  8
0
 62
     3
  6
CONTINUOUS
 10
5.5064
 20
0.6699
  0
VERTEX
  8
0
 62
     3
  6
CONTINUOUS
 10
5.5565
 20
0.6565
  0
VERTEX
  8
0
 62
     3
  6
CONTINUOUS
 10
5.6065
 20
0.6428
  0
VERTEX
  8
0
 62
     3
  6
CONTINUOUS
 10
5.6566
 20
0.6290
  0
VERTEX
  8
0
 62
     3
  6
CONTINUOUS
 10
5.7065
 20
0.6151
  0
VERTEX
  8
0
 62
     3
  6
CONTINUOUS
 10
5.7565
 20
0.6010
  0
VERTEX
  8
0
 62
     3
  6
CONTINUOUS
 10
5.8064
 20
0.5868
  0
VERTEX
  8
0
 62
     3
  6
CONTINUOUS
 10
5.8563
 20
0.5725
  0
VERTEX
  8
0
 62
     3
  6
CONTINUOUS
 10
5.9062
 20
0.5581
  0
VERTEX
  8
0
 62
     3
  6
CONTINUOUS
 10
5.9561
 20
0.5437
  0
VERTEX
  8
0
 62
     3
  6
CONTINUOUS
 10
6.0059
 20
0.5292
  0
SEQEND
  8
0
  0
POLYLINE
  8
0
 62
     1
 66
     1
  6
CONTINUOUS
  0
VERTEX
  8
0
 62
     1
  6
CONTINUOUS
 10
0.0063
 20
0.5982
  0
VERTEX
  8
0
 62
     1
  6
CONTINUOUS
 10
0.0072
 20
0.5962
  0
VERTEX
  8
0
 62
     1
  6
CONTINUOUS
 10
0.0080
 20
0.5941
  0
VERTEX
  8
0
 62
     1
  6
CONTINUOUS
 10
0.0089
 20
0.5921
  0
VERTEX
  8
0
 62
     1
  6
CONTINUOUS
 10
0.0098
 20
0.5901
  0
VERTEX
  8
0
 62
     1
  6
CONTINUOUS
 10
0.0107
 20
0.5881
  0
VERTEX
  8
0
 62
     1
  6
CONTINUOUS
 10
0.0116
 20
0.5861
  0
VERTEX
  8
0
 62
     1
  6
CONTINUOUS
 10
0.0126
 20
0.5841
  0
VERTEX
  8
0
 62
     1
  6
CONTINUOUS
 10
0.0136
 20
0.5822
  0
VERTEX
  8
0
 62
     1
  6
CONTINUOUS
 10
0.0147
 20
0.5803
  0
VERTEX
  8
0
 62
     1
  6
CONTINUOUS
 10
0.0158
 20
0.5784
  0
VERTEX
  8
0
 62
     1
  6
CONTINUOUS
 10
0.0170
 20
0.5766
  0
VERTEX
  8
0
 62
     1
  6
CONTINUOUS
 10
0.0183
 20
0.5748
  0
VERTEX
  8
0
 62
     1
  6
CONTINUOUS
 10
0.0192
 20
0.5737
  0
VERTEX
  8
0
 62
     1
  6
CONTINUOUS
 10
0.0201
 20
0.5726
  0
VERTEX
  8
0
 62
     1
  6
CONTINUOUS
 10
0.0210
 20
0.5715
  0
VERTEX
  8
0
 62
     1
  6
CONTINUOUS
 10
0.0220
 20
0.5704
  0
VERTEX
  8
0
 62
     1
  6
CONTINUOUS
 10
0.0230
 20
0.5694
  0
VERTEX
  8
0
 62
     1
  6
CONTINUOUS
 10
0.0240
 20
0.5683
  0
VERTEX
  8
0
 62
     1
  6
CONTINUOUS
 10
0.0250
 20
0.5673
  0
VERTEX
  8
0
 62
     1
  6
CONTINUOUS
 10
0.0261
 20
0.5663
  0
VERTEX
  8
0
 62
     1
  6
CONTINUOUS
 10
0.0271
 20
0.5652
  0
VERTEX
  8
0
 62
     1
  6
CONTINUOUS
 10
0.0282
 20
0.5642
  0
VERTEX
  8
0
 62
     1
  6
CONTINUOUS
 10
0.0292
 20
0.5632
  0
VERTEX
  8
0
 62
     1
  6
CONTINUOUS
 10
0.0303
 20
0.5622
  0
VERTEX
  8
0
 62
     1
  6
CONTINUOUS
 10
0.0313
 20
0.5614
  0
VERTEX
  8
0
 62
     1
  6
CONTINUOUS
 10
0.0322
 20
0.5605
  0
VERTEX
  8
0
 62
     1
  6
CONTINUOUS
 10
0.0332
 20
0.5596
  0
VERTEX
  8
0
 62
     1
  6
CONTINUOUS
 10
0.0342
 20
0.5587
  0
VERTEX
  8
0
 62
     1
  6
CONTINUOUS
 10
0.0351
 20
0.5579
  0
VERTEX
  8
0
 62
     1
  6
CONTINUOUS
 10
0.0361
 20
0.5570
  0
VERTEX
  8
0
 62
     1
  6
CONTINUOUS
 10
0.0371
 20
0.5562
  0
VERTEX
  8
0
 62
     1
  6
CONTINUOUS
 10
0.0381
 20
0.5554
  0
VERTEX
  8
0
 62
     1
  6
CONTINUOUS
 10
0.0391
 20
0.5546
  0
VERTEX
  8
0
 62
     1
  6
CONTINUOUS
 10
0.0402
 20
0.5538
  0
VERTEX
  8
0
 62
     1
  6
CONTINUOUS
 10
0.0412
 20
0.5531
  0
VERTEX
  8
0
 62
     1
  6
CONTINUOUS
 10
0.0423
 20
0.5523
  0
VERTEX
  8
0
 62
     1
  6
CONTINUOUS
 10
0.0432
 20
0.5517
  0
VERTEX
  8
0
 62
     1
  6
CONTINUOUS
 10
0.0442
 20
0.5512
  0
VERTEX
  8
0
 62
     1
  6
CONTINUOUS
 10
0.0452
 20
0.5506
  0
VERTEX
  8
0
 62
     1
  6
CONTINUOUS
 10
0.0462
 20
0.5500
  0
VERTEX
  8
0
 62
     1
  6
CONTINUOUS
 10
0.0472
 20
0.5495
  0
VERTEX
  8
0
 62
     1
  6
CONTINUOUS
 10
0.0482
 20
0.5490
  0
VERTEX
  8
0
 62
     1
  6
CONTINUOUS
 10
0.0492
 20
0.5485
  0
VERTEX
  8
0
 62
     1
  6
CONTINUOUS
 10
0.0502
 20
0.5480
  0
VERTEX
  8
0
 62
     1
  6
CONTINUOUS
 10
0.0512
 20
0.5475
  0
VERTEX
  8
0
 62
     1
  6
CONTINUOUS
 10
0.0522
 20
0.5470
  0
VERTEX
  8
0
 62
     1
  6
CONTINUOUS
 10
0.0533
 20
0.5465
  0
VERTEX
  8
0
 62
     1
  6
CONTINUOUS
 10
0.0543
 20
0.5460
  0
VERTEX
  8
0
 62
     1
  6
CONTINUOUS
 10
0.0565
 20
0.5450
  0
VERTEX
  8
0
 62
     1
  6
CONTINUOUS
 10
0.0587
 20
0.5440
  0
VERTEX
  8
0
 62
     1
  6
CONTINUOUS
 10
0.0610
 20
0.5430
  0
VERTEX
  8
0
 62
     1
  6
CONTINUOUS
 10
0.0632
 20
0.5421
  0
VERTEX
  8
0
 62
     1
  6
CONTINUOUS
 10
0.0654
 20
0.5411
  0
VERTEX
  8
0
 62
     1
  6
CONTINUOUS
 10
0.0677
 20
0.5402
  0
VERTEX
  8
0
 62
     1
  6
CONTINUOUS
 10
0.0699
 20
0.5393
  0
VERTEX
  8
0
 62
     1
  6
CONTINUOUS
 10
0.0722
 20
0.5384
  0
VERTEX
  8
0
 62
     1
  6
CONTINUOUS
 10
0.0744
 20
0.5375
  0
VERTEX
  8
0
 62
     1
  6
CONTINUOUS
 10
0.0767
 20
0.5367
  0
VERTEX
  8
0
 62
     1
  6
CONTINUOUS
 10
0.0790
 20
0.5360
  0
VERTEX
  8
0
 62
     1
  6
CONTINUOUS
 10
0.0813
 20
0.5352
  0
VERTEX
  8
0
 62
     1
  6
CONTINUOUS
 10
0.0873
 20
0.5336
  0
VERTEX
  8
0
 62
     1
  6
CONTINUOUS
 10
0.0934
 20
0.5323
  0
VERTEX
  8
0
 62
     1
  6
CONTINUOUS
 10
0.0995
 20
0.5312
  0
VERTEX
  8
0
 62
     1
  6
CONTINUOUS
 10
0.1057
 20
0.5303
  0
VERTEX
  8
0
 62
     1
  6
CONTINUOUS
 10
0.1119
 20
0.5297
  0
VERTEX
  8
0
 62
     1
  6
CONTINUOUS
 10
0.1182
 20
0.5293
  0
VERTEX
  8
0
 62
     1
  6
CONTINUOUS
 10
0.1245
 20
0.5290
  0
VERTEX
  8
0
 62
     1
  6
CONTINUOUS
 10
0.1308
 20
0.5289
  0
VERTEX
  8
0
 62
     1
  6
CONTINUOUS
 10
0.1372
 20
0.5289
  0
VERTEX
  8
0
 62
     1
  6
CONTINUOUS
 10
0.1436
 20
0.5290
  0
VERTEX
  8
0
 62
     1
  6
CONTINUOUS
 10
0.1499
 20
0.5291
  0
VERTEX
  8
0
 62
     1
  6
CONTINUOUS
 10
0.1563
 20
0.5292
  0
VERTEX
  8
0
 62
     1
  6
CONTINUOUS
 10
0.1690
 20
0.5296
  0
VERTEX
  8
0
 62
     1
  6
CONTINUOUS
 10
0.1816
 20
0.5300
  0
VERTEX
  8
0
 62
     1
  6
CONTINUOUS
 10
0.1942
 20
0.5304
  0
VERTEX
  8
0
 62
     1
  6
CONTINUOUS
 10
0.2067
 20
0.5308
  0
VERTEX
  8
0
 62
     1
  6
CONTINUOUS
 10
0.2192
 20
0.5313
  0
VERTEX
  8
0
 62
     1
  6
CONTINUOUS
 10
0.2317
 20
0.5319
  0
VERTEX
  8
0
 62
     1
  6
CONTINUOUS
 10
0.2441
 20
0.5324
  0
VERTEX
  8
0
 62
     1
  6
CONTINUOUS
 10
0.2566
 20
0.5331
  0
VERTEX
  8
0
 62
     1
  6
CONTINUOUS
 10
0.2690
 20
0.5338
  0
VERTEX
  8
0
 62
     1
  6
CONTINUOUS
 10
0.2814
 20
0.5346
  0
VERTEX
  8
0
 62
     1
  6
CONTINUOUS
 10
0.2939
 20
0.5355
  0
VERTEX
  8
0
 62
     1
  6
CONTINUOUS
 10
0.3063
 20
0.5364
  0
VERTEX
  8
0
 62
     1
  6
CONTINUOUS
 10
0.3188
 20
0.5375
  0
VERTEX
  8
0
 62
     1
  6
CONTINUOUS
 10
0.3313
 20
0.5386
  0
VERTEX
  8
0
 62
     1
  6
CONTINUOUS
 10
0.3438
 20
0.5398
  0
VERTEX
  8
0
 62
     1
  6
CONTINUOUS
 10
0.3563
 20
0.5411
  0
VERTEX
  8
0
 62
     1
  6
CONTINUOUS
 10
0.3688
 20
0.5424
  0
VERTEX
  8
0
 62
     1
  6
CONTINUOUS
 10
0.3813
 20
0.5439
  0
VERTEX
  8
0
 62
     1
  6
CONTINUOUS
 10
0.3938
 20
0.5453
  0
VERTEX
  8
0
 62
     1
  6
CONTINUOUS
 10
0.4063
 20
0.5468
  0
VERTEX
  8
0
 62
     1
  6
CONTINUOUS
 10
0.4188
 20
0.5484
  0
VERTEX
  8
0
 62
     1
  6
CONTINUOUS
 10
0.4313
 20
0.5500
  0
VERTEX
  8
0
 62
     1
  6
CONTINUOUS
 10
0.4438
 20
0.5516
  0
VERTEX
  8
0
 62
     1
  6
CONTINUOUS
 10
0.4563
 20
0.5532
  0
VERTEX
  8
0
 62
     1
  6
CONTINUOUS
 10
0.4688
 20
0.5549
  0
VERTEX
  8
0
 62
     1
  6
CONTINUOUS
 10
0.4813
 20
0.5566
  0
VERTEX
  8
0
 62
     1
  6
CONTINUOUS
 10
0.4938
 20
0.5583
  0
VERTEX
  8
0
 62
     1
  6
CONTINUOUS
 10
0.5063
 20
0.5601
  0
VERTEX
  8
0
 62
     1
  6
CONTINUOUS
 10
0.5188
 20
0.5618
  0
VERTEX
  8
0
 62
     1
  6
CONTINUOUS
 10
0.5313
 20
0.5636
  0
VERTEX
  8
0
 62
     1
  6
CONTINUOUS
 10
0.5438
 20
0.5653
  0
VERTEX
  8
0
 62
     1
  6
CONTINUOUS
 10
0.5563
 20
0.5671
  0
VERTEX
  8
0
 62
     1
  6
CONTINUOUS
 10
0.5688
 20
0.5689
  0
VERTEX
  8
0
 62
     1
  6
CONTINUOUS
 10
0.5813
 20
0.5707
  0
VERTEX
  8
0
 62
     1
  6
CONTINUOUS
 10
0.5938
 20
0.5725
  0
VERTEX
  8
0
 62
     1
  6
CONTINUOUS
 10
0.6063
 20
0.5742
  0
VERTEX
  8
0
 62
     1
  6
CONTINUOUS
 10
0.6312
 20
0.5778
  0
VERTEX
  8
0
 62
     1
  6
CONTINUOUS
 10
0.6562
 20
0.5813
  0
VERTEX
  8
0
 62
     1
  6
CONTINUOUS
 10
0.6812
 20
0.5848
  0
VERTEX
  8
0
 62
     1
  6
CONTINUOUS
 10
0.7062
 20
0.5883
  0
VERTEX
  8
0
 62
     1
  6
CONTINUOUS
 10
0.7312
 20
0.5918
  0
VERTEX
  8
0
 62
     1
  6
CONTINUOUS
 10
0.7562
 20
0.5952
  0
VERTEX
  8
0
 62
     1
  6
CONTINUOUS
 10
0.7812
 20
0.5986
  0
VERTEX
  8
0
 62
     1
  6
CONTINUOUS
 10
0.8062
 20
0.6020
  0
VERTEX
  8
0
 62
     1
  6
CONTINUOUS
 10
0.8312
 20
0.6053
  0
VERTEX
  8
0
 62
     1
  6
CONTINUOUS
 10
0.8562
 20
0.6086
  0
VERTEX
  8
0
 62
     1
  6
CONTINUOUS
 10
0.8812
 20
0.6118
  0
VERTEX
  8
0
 62
     1
  6
CONTINUOUS
 10
0.9062
 20
0.6150
  0
VERTEX
  8
0
 62
     1
  6
CONTINUOUS
 10
0.9312
 20
0.6182
  0
VERTEX
  8
0
 62
     1
  6
CONTINUOUS
 10
0.9562
 20
0.6213
  0
VERTEX
  8
0
 62
     1
  6
CONTINUOUS
 10
0.9812
 20
0.6243
  0
VERTEX
  8
0
 62
     1
  6
CONTINUOUS
 10
1.0061
 20
0.6273
  0
VERTEX
  8
0
 62
     1
  6
CONTINUOUS
 10
1.0311
 20
0.6303
  0
VERTEX
  8
0
 62
     1
  6
CONTINUOUS
 10
1.0561
 20
0.6331
  0
VERTEX
  8
0
 62
     1
  6
CONTINUOUS
 10
1.0811
 20
0.6360
  0
VERTEX
  8
0
 62
     1
  6
CONTINUOUS
 10
1.1061
 20
0.6387
  0
VERTEX
  8
0
 62
     1
  6
CONTINUOUS
 10
1.1311
 20
0.6415
  0
VERTEX
  8
0
 62
     1
  6
CONTINUOUS
 10
1.1562
 20
0.6441
  0
VERTEX
  8
0
 62
     1
  6
CONTINUOUS
 10
1.1812
 20
0.6467
  0
VERTEX
  8
0
 62
     1
  6
CONTINUOUS
 10
1.2062
 20
0.6492
  0
VERTEX
  8
0
 62
     1
  6
CONTINUOUS
 10
1.2312
 20
0.6517
  0
VERTEX
  8
0
 62
     1
  6
CONTINUOUS
 10
1.2562
 20
0.6541
  0
VERTEX
  8
0
 62
     1
  6
CONTINUOUS
 10
1.2811
 20
0.6564
  0
VERTEX
  8
0
 62
     1
  6
CONTINUOUS
 10
1.3061
 20
0.6587
  0
VERTEX
  8
0
 62
     1
  6
CONTINUOUS
 10
1.3311
 20
0.6608
  0
VERTEX
  8
0
 62
     1
  6
CONTINUOUS
 10
1.3561
 20
0.6629
  0
VERTEX
  8
0
 62
     1
  6
CONTINUOUS
 10
1.3811
 20
0.6649
  0
VERTEX
  8
0
 62
     1
  6
CONTINUOUS
 10
1.4061
 20
0.6668
  0
VERTEX
  8
0
 62
     1
  6
CONTINUOUS
 10
1.4311
 20
0.6686
  0
VERTEX
  8
0
 62
     1
  6
CONTINUOUS
 10
1.4561
 20
0.6702
  0
VERTEX
  8
0
 62
     1
  6
CONTINUOUS
 10
1.4812
 20
0.6718
  0
VERTEX
  8
0
 62
     1
  6
CONTINUOUS
 10
1.5062
 20
0.6732
  0
VERTEX
  8
0
 62
     1
  6
CONTINUOUS
 10
1.5312
 20
0.6746
  0
VERTEX
  8
0
 62
     1
  6
CONTINUOUS
 10
1.5562
 20
0.6758
  0
VERTEX
  8
0
 62
     1
  6
CONTINUOUS
 10
1.5811
 20
0.6768
  0
VERTEX
  8
0
 62
     1
  6
CONTINUOUS
 10
1.6061
 20
0.6778
  0
VERTEX
  8
0
 62
     1
  6
CONTINUOUS
 10
1.6311
 20
0.6787
  0
VERTEX
  8
0
 62
     1
  6
CONTINUOUS
 10
1.6561
 20
0.6796
  0
VERTEX
  8
0
 62
     1
  6
CONTINUOUS
 10
1.6811
 20
0.6803
  0
VERTEX
  8
0
 62
     1
  6
CONTINUOUS
 10
1.7061
 20
0.6810
  0
VERTEX
  8
0
 62
     1
  6
CONTINUOUS
 10
1.7312
 20
0.6817
  0
VERTEX
  8
0
 62
     1
  6
CONTINUOUS
 10
1.7562
 20
0.6823
  0
VERTEX
  8
0
 62
     1
  6
CONTINUOUS
 10
1.7812
 20
0.6829
  0
VERTEX
  8
0
 62
     1
  6
CONTINUOUS
 10
1.8062
 20
0.6834
  0
VERTEX
  8
0
 62
     1
  6
CONTINUOUS
 10
1.8562
 20
0.6845
  0
VERTEX
  8
0
 62
     1
  6
CONTINUOUS
 10
1.9062
 20
0.6855
  0
VERTEX
  8
0
 62
     1
  6
CONTINUOUS
 10
1.9562
 20
0.6864
  0
VERTEX
  8
0
 62
     1
  6
CONTINUOUS
 10
2.0062
 20
0.6873
  0
VERTEX
  8
0
 62
     1
  6
CONTINUOUS
 10
2.0562
 20
0.6880
  0
VERTEX
  8
0
 62
     1
  6
CONTINUOUS
 10
2.1062
 20
0.6886
  0
VERTEX
  8
0
 62
     1
  6
CONTINUOUS
 10
2.1562
 20
0.6891
  0
VERTEX
  8
0
 62
     1
  6
CONTINUOUS
 10
2.2062
 20
0.6895
  0
VERTEX
  8
0
 62
     1
  6
CONTINUOUS
 10
2.2562
 20
0.6897
  0
VERTEX
  8
0
 62
     1
  6
CONTINUOUS
 10
2.3062
 20
0.6898
  0
VERTEX
  8
0
 62
     1
  6
CONTINUOUS
 10
2.3562
 20
0.6897
  0
VERTEX
  8
0
 62
     1
  6
CONTINUOUS
 10
2.4061
 20
0.6894
  0
VERTEX
  8
0
 62
     1
  6
CONTINUOUS
 10
2.4562
 20
0.6890
  0
VERTEX
  8
0
 62
     1
  6
CONTINUOUS
 10
2.5062
 20
0.6883
  0
VERTEX
  8
0
 62
     1
  6
CONTINUOUS
 10
2.5562
 20
0.6875
  0
VERTEX
  8
0
 62
     1
  6
CONTINUOUS
 10
2.6062
 20
0.6866
  0
VERTEX
  8
0
 62
     1
  6
CONTINUOUS
 10
2.6562
 20
0.6855
  0
VERTEX
  8
0
 62
     1
  6
CONTINUOUS
 10
2.7062
 20
0.6842
  0
VERTEX
  8
0
 62
     1
  6
CONTINUOUS
 10
2.7562
 20
0.6828
  0
VERTEX
  8
0
 62
     1
  6
CONTINUOUS
 10
2.8062
 20
0.6814
  0
VERTEX
  8
0
 62
     1
  6
CONTINUOUS
 10
2.8562
 20
0.6798
  0
VERTEX
  8
0
 62
     1
  6
CONTINUOUS
 10
2.9061
 20
0.6781
  0
VERTEX
  8
0
 62
     1
  6
CONTINUOUS
 10
2.9561
 20
0.6763
  0
VERTEX
  8
0
 62
     1
  6
CONTINUOUS
 10
3.0061
 20
0.6744
  0
VERTEX
  8
0
 62
     1
  6
CONTINUOUS
 10
3.0561
 20
0.6725
  0
VERTEX
  8
0
 62
     1
  6
CONTINUOUS
 10
3.1061
 20
0.6706
  0
VERTEX
  8
0
 62
     1
  6
CONTINUOUS
 10
3.1561
 20
0.6685
  0
VERTEX
  8
0
 62
     1
  6
CONTINUOUS
 10
3.2061
 20
0.6665
  0
VERTEX
  8
0
 62
     1
  6
CONTINUOUS
 10
3.2561
 20
0.6644
  0
VERTEX
  8
0
 62
     1
  6
CONTINUOUS
 10
3.3061
 20
0.6622
  0
VERTEX
  8
0
 62
     1
  6
CONTINUOUS
 10
3.3561
 20
0.6601
  0
VERTEX
  8
0
 62
     1
  6
CONTINUOUS
 10
3.4061
 20
0.6579
  0
VERTEX
  8
0
 62
     1
  6
CONTINUOUS
 10
3.4561
 20
0.6557
  0
VERTEX
  8
0
 62
     1
  6
CONTINUOUS
 10
3.5061
 20
0.6536
  0
VERTEX
  8
0
 62
     1
  6
CONTINUOUS
 10
3.5561
 20
0.6514
  0
VERTEX
  8
0
 62
     1
  6
CONTINUOUS
 10
3.6061
 20
0.6492
  0
VERTEX
  8
0
 62
     1
  6
CONTINUOUS
 10
3.6561
 20
0.6471
  0
VERTEX
  8
0
 62
     1
  6
CONTINUOUS
 10
3.7061
 20
0.6450
  0
VERTEX
  8
0
 62
     1
  6
CONTINUOUS
 10
3.7561
 20
0.6428
  0
VERTEX
  8
0
 62
     1
  6
CONTINUOUS
 10
3.8061
 20
0.6407
  0
VERTEX
  8
0
 62
     1
  6
CONTINUOUS
 10
3.8561
 20
0.6385
  0
VERTEX
  8
0
 62
     1
  6
CONTINUOUS
 10
3.9061
 20
0.6364
  0
VERTEX
  8
0
 62
     1
  6
CONTINUOUS
 10
3.9561
 20
0.6342
  0
VERTEX
  8
0
 62
     1
  6
CONTINUOUS
 10
4.0061
 20
0.6319
  0
VERTEX
  8
0
 62
     1
  6
CONTINUOUS
 10
4.0561
 20
0.6296
  0
VERTEX
  8
0
 62
     1
  6
CONTINUOUS
 10
4.1061
 20
0.6272
  0
VERTEX
  8
0
 62
     1
  6
CONTINUOUS
 10
4.1560
 20
0.6248
  0
VERTEX
  8
0
 62
     1
  6
CONTINUOUS
 10
4.2060
 20
0.6222
  0
VERTEX
  8
0
 62
     1
  6
CONTINUOUS
 10
4.2560
 20
0.6196
  0
VERTEX
  8
0
 62
     1
  6
CONTINUOUS
 10
4.3060
 20
0.6169
  0
VERTEX
  8
0
 62
     1
  6
CONTINUOUS
 10
4.3560
 20
0.6142
  0
VERTEX
  8
0
 62
     1
  6
CONTINUOUS
 10
4.4060
 20
0.6114
  0
VERTEX
  8
0
 62
     1
  6
CONTINUOUS
 10
4.4560
 20
0.6086
  0
VERTEX
  8
0
 62
     1
  6
CONTINUOUS
 10
4.5060
 20
0.6058
  0
VERTEX
  8
0
 62
     1
  6
CONTINUOUS
 10
4.5560
 20
0.6029
  0
VERTEX
  8
0
 62
     1
  6
CONTINUOUS
 10
4.6060
 20
0.6001
  0
VERTEX
  8
0
 62
     1
  6
CONTINUOUS
 10
4.6560
 20
0.5973
  0
VERTEX
  8
0
 62
     1
  6
CONTINUOUS
 10
4.7060
 20
0.5946
  0
VERTEX
  8
0
 62
     1
  6
CONTINUOUS
 10
4.7560
 20
0.5919
  0
VERTEX
  8
0
 62
     1
  6
CONTINUOUS
 10
4.8060
 20
0.5892
  0
VERTEX
  8
0
 62
     1
  6
CONTINUOUS
 10
4.8560
 20
0.5867
  0
VERTEX
  8
0
 62
     1
  6
CONTINUOUS
 10
4.9060
 20
0.5842
  0
VERTEX
  8
0
 62
     1
  6
CONTINUOUS
 10
4.9560
 20
0.5818
  0
VERTEX
  8
0
 62
     1
  6
CONTINUOUS
 10
5.0060
 20
0.5795
  0
VERTEX
  8
0
 62
     1
  6
CONTINUOUS
 10
5.0560
 20
0.5772
  0
VERTEX
  8
0
 62
     1
  6
CONTINUOUS
 10
5.1060
 20
0.5749
  0
VERTEX
  8
0
 62
     1
  6
CONTINUOUS
 10
5.1560
 20
0.5726
  0
VERTEX
  8
0
 62
     1
  6
CONTINUOUS
 10
5.2060
 20
0.5704
  0
VERTEX
  8
0
 62
     1
  6
CONTINUOUS
 10
5.2560
 20
0.5681
  0
VERTEX
  8
0
 62
     1
  6
CONTINUOUS
 10
5.3060
 20
0.5658
  0
VERTEX
  8
0
 62
     1
  6
CONTINUOUS
 10
5.3560
 20
0.5634
  0
VERTEX
  8
0
 62
     1
  6
CONTINUOUS
 10
5.4059
 20
0.5610
  0
VERTEX
  8
0
 62
     1
  6
CONTINUOUS
 10
5.4560
 20
0.5586
  0
VERTEX
  8
0
 62
     1
  6
CONTINUOUS
 10
5.5060
 20
0.5561
  0
VERTEX
  8
0
 62
     1
  6
CONTINUOUS
 10
5.5560
 20
0.5536
  0
VERTEX
  8
0
 62
     1
  6
CONTINUOUS
 10
5.6060
 20
0.5510
  0
VERTEX
  8
0
 62
     1
  6
CONTINUOUS
 10
5.6560
 20
0.5483
  0
VERTEX
  8
0
 62
     1
  6
CONTINUOUS
 10
5.7060
 20
0.5457
  0
VERTEX
  8
0
 62
     1
  6
CONTINUOUS
 10
5.7560
 20
0.5430
  0
VERTEX
  8
0
 62
     1
  6
CONTINUOUS
 10
5.8059
 20
0.5403
  0
VERTEX
  8
0
 62
     1
  6
CONTINUOUS
 10
5.8559
 20
0.5375
  0
VERTEX
  8
0
 62
     1
  6
CONTINUOUS
 10
5.9059
 20
0.5348
  0
VERTEX
  8
0
 62
     1
  6
CONTINUOUS
 10
5.9559
 20
0.5320
  0
VERTEX
  8
0
 62
     1
  6
CONTINUOUS
 10
6.0059
 20
0.5292
  0
SEQEND
  8
0
  0
ENDSEC
  0
EOF
