  0
SECTION
  2
HEADER
  9
$ACADVER
  1
AC1004
  9
$EXTMIN
 10
0.2524
 20
3.8273
  9
$EXTMAX
 10
50.2345
 20
27.7830
  9
$LIMMIN
 10
0.2524
 20
3.8273
  9
$LIMMAX
 10
50.2345
 20
27.7830
  9
$INSBASE
 10
0.0
 20
0.0
  9
$VIEWCTR
 10
7.21903
 20
4.5
  9
$VIEWSIZE
 40
9.0
  9
$SNAPMODE
 70
     0
  9
$SNAPUNIT
 10
1.0
 20
1.0
  9
$SNAPBASE
 10
0.0
 20
0.0
  9
$SNAPANG
 50
0.0
  9
$SNAPSTYLE
 70
     0
  9
$SNAPISOPAIR
 70
     0
  9
$GRIDMODE
 70
     0
  9
$GRIDUNIT
 10
0.0
 20
0.0
  9
$ORTHOMODE
 70
     0
  9
$REGENMODE
 70
     1
  9
$FILLMODE
 70
     1
  9
$QTEXTMODE
 70
     0
  9
$DRAGMODE
 70
     2
  9
$LTSCALE
 40
1.0
  9
$OSMODE
 70
     0
  9
$ATTMODE
 70
     1
  9
$TEXTSIZE
 40
0.2
  9
$TRACEWID
 40
0.05
  9
$TEXTSTYLE
  7
STANDARD
  9
$CLAYER
  8
0
  9
$CELTYPE
  6
BYLAYER
  9
$CECOLOR
 62
   256
  9
$DIMSCALE
 40
1.0
  9
$DIMASZ
 40
0.18
  9
$DIMEXO
 40
0.0625
  9
$DIMDLI
 40
0.38
  9
$DIMRND
 40
0.0
  9
$DIMDLE
 40
0.0
  9
$DIMEXE
 40
0.18
  9
$DIMTP
 40
0.0
  9
$DIMTM
 40
0.0
  9
$DIMTXT
 40
0.18
  9
$DIMCEN
 40
0.09
  9
$DIMTSZ
 40
0.0
  9
$DIMTOL
 70
     0
  9
$DIMLIM
 70
     0
  9
$DIMTIH
 70
     1
  9
$DIMTOH
 70
     1
  9
$DIMSE1
 70
     0
  9
$DIMSE2
 70
     0
  9
$DIMTAD
 70
     0
  9
$DIMZIN
 70
     0
  9
$DIMBLK
  1

  9
$DIMASO
 70
     1
  9
$DIMSHO
 70
     0
  9
$DIMPOST
  1

  9
$DIMAPOST
  1

  9
$DIMALT
 70
     0
  9
$DIMALTD
 70
     2
  9
$DIMALTF
 40
25.4
  9
$DIMLFAC
 40
1.0
  9
$LUNITS
 70
     2
  9
$LUPREC
 70
     4
  9
$AXISMODE
 70
     0
  9
$AXISUNIT
 10
0.0
 20
0.0
  9
$SKETCHINC
 40
0.1
  9
$FILLETRAD
 40
0.0
  9
$AUNITS
 70
     0
  9
$AUPREC
 70
     0
  9
$MENU
  1
acad
  9
$ELEVATION
 40
0.0
  9
$THICKNESS
 40
0.0
  9
$VIEWDIR
 10
0.0
 20
0.0
 30
1.0
  9
$LIMCHECK
 70
     0
  9
$BLIPMODE
 70
     1
  9
$CHAMFERA
 40
0.0
  9
$CHAMFERB
 40
0.0
  9
$FASTZOOM
 70
     1
  9
$SKPOLY
 70
     0
  9
$TDCREATE
 40
2447222.5666886573
  9
$TDUPDATE
 40
2447222.5666886573
  9
$TDINDWG
 40
0.0000000000
  9
$TDUSRTIMER
 40
0.0000000000
  9
$USRTIMER
 70
     1
  9
$ANGBASE
 50
0.0
  9
$ANGDIR
 70
     0
  9
$PDMODE
 70
     0
  9
$PDSIZE
 40
0.0
  9
$PLINEWID
 40
0.0
  9
$COORDS
 70
     0
  9
$SPLFRAME
 70
     0
  9
$SPLINESEGS
 70
     8
  9
$ATTDIA
 70
     0
  9
$ATTREQ
 70
     1
  9
$USERI1
 70
     0
  9
$USERI2
 70
     0
  9
$USERI3
 70
     0
  9
$USERI4
 70
     0
  9
$USERI5
 70
     0
  9
$USERR1
 40
0.0
  9
$USERR2
 40
0.0
  9
$USERR3
 40
0.0
  9
$USERR4
 40
0.0
  9
$USERR5
 40
0.0
  0
ENDSEC
  0
SECTION
  2
TABLES
  0
TABLE
  2
LTYPE
 70
     13
  0
LTYPE
  2
CONTINUOUS
 70
    64
  3
Solid line
 72
    65
 73
     0
 40
0.0
  0
LTYPE
  2
DASHED
 70
    64
  3
__ __ __ __ __ __ __ __ __ __ __ __ __ __ __
 72
    65
 73
     2
 40
0.75
 49
0.5
 49
-0.25
  0
LTYPE
  2
HIDDEN
 70
    64
  3
_ _ _ _ _ _ _ _ _ _ _ _ _ _ _ _ _ _ _ _ _ _ _
 72
    65
 73
     2
 40
0.375
 49
0.25
 49
-0.125
  0
LTYPE
  2
CENTER
 70
    64
  3
____ _ ____ _ ____ _ ____ _ ____ _ ____ _ ____
 72
    65
 73
     4
 40
2.0
 49
1.25
 49
-0.25
 49
0.25
 49
-0.25
  0
LTYPE
  2
PHANTOM
 70
    64
  3
_____ _ _ _____ _ _ _____ _ _ _____ _ _ ____
 72
    65
 73
     6
 40
2.5
 49
1.25
 49
-0.25
 49
0.25
 49
-0.25
 49
0.25
 49
-0.25
  0
LTYPE
  2
DOT
 70
    64
  3
...............................................
 72
    65
 73
     2
 40
0.25
 49
0.0
 49
-0.25
  0
LTYPE
  2
DASHDOT
 70
    64
  3
__ . __ . __ . __ . __ . __ . __ . __ . __ . __
 72
    65
 73
     4
 40
1.0
 49
0.5
 49
-0.25
 49
0.0
 49
-0.25
  0
LTYPE
  2
BORDER
 70
    64
  3
__ __ . __ __ . __ __ . __ __ . __ __ . __ __
 72
    65
 73
     6
 40
1.75
 49
0.5
 49
-0.25
 49
0.5
 49
-0.25
 49
0.0
 49
-0.25
  0
LTYPE
  2
DIVIDE
 70
    64
  3
__ . . __ . . __ . . __ . . __ . . __ . . __
 72
    65
 73
     6
 40
1.25
 49
0.5
 49
-0.25
 49
0.0
 49
-0.25
 49
0.0
 49
-0.25
  0
LTYPE
  2
DCTYPE1
 70
    64
  3
__ . . __ . . __ . . __ . . __ . . __ . . __
 72
    65
 73
     8
 40
2.5
 49
0.5
 49
-0.25
 49
0.125
 49
-0.25
 49
0.25
 49
-0.25
 49
0.125
 49
-0.25
  0
LTYPE
  2
DCTYPE2
 70
    64
  3
__ . . __ . . __ . . __ . . __ . . __ . . __
 72
    65
 73
     6
 40
2.05
 49
1.0
 49
-0.3
 49
0.15
 49
-0.15
 49
0.15
 49
-0.3
  0
LTYPE
  2
DCTYPE3
 70
    64
  3
__ . . __ . . __ . . __ . . __ . . __ . . __
 72
    65
 73
     6
 40
2.5
 49
0.8
 49
-0.2
 49
0.8
 49
-0.2
 49
0.3
 49
-0.2
  0
LTYPE
  2
DCTYPE4
 70
    64
  3
__ . . __ . . __ . . __ . . __ . . __ . . __
 72
    65
 73
     10
 40
3.97
 49
1.75
 49
-0.3
 49
0.3
 49
-0.3
 49
0.06
 49
-0.3
 49
0.06
 49
-0.3
 49
0.3
 49
-0.3
  0
ENDTAB
  0
TABLE
  2
LAYER
 70
    153
  0
LAYER
  2
0
 70
 64
 62
     7
  6
CONTINUOUS
  0
ENDTAB
  0
ENDSEC
  0
SECTION
  2
BLOCKS
  0
ENDSEC
  0
SECTION
  2
ENTITIES
  0
TEXT
  8
0
 62
     7
 10
0.2524
 20
23.8221
 40
3.3007
 50
0.0000
 51
0.0000
  1
BENEDEK B12355D
 72
     5
 11
50.2345
 21
23.8221
  0
POLYLINE
  8
0
 62
     3
 66
     1
  6
CONTINUOUS
  0
VERTEX
  8
0
 62
     3
  6
CONTINUOUS
 10
0.2524
 20
5.1688
  0
VERTEX
  8
0
 62
     3
  6
CONTINUOUS
 10
0.2590
 20
5.1974
  0
VERTEX
  8
0
 62
     3
  6
CONTINUOUS
 10
0.2656
 20
5.2259
  0
VERTEX
  8
0
 62
     3
  6
CONTINUOUS
 10
0.2724
 20
5.2543
  0
VERTEX
  8
0
 62
     3
  6
CONTINUOUS
 10
0.2794
 20
5.2827
  0
VERTEX
  8
0
 62
     3
  6
CONTINUOUS
 10
0.2867
 20
5.3110
  0
VERTEX
  8
0
 62
     3
  6
CONTINUOUS
 10
0.2943
 20
5.3391
  0
VERTEX
  8
0
 62
     3
  6
CONTINUOUS
 10
0.3025
 20
5.3671
  0
VERTEX
  8
0
 62
     3
  6
CONTINUOUS
 10
0.3111
 20
5.3949
  0
VERTEX
  8
0
 62
     3
  6
CONTINUOUS
 10
0.3203
 20
5.4225
  0
VERTEX
  8
0
 62
     3
  6
CONTINUOUS
 10
0.3303
 20
5.4498
  0
VERTEX
  8
0
 62
     3
  6
CONTINUOUS
 10
0.3409
 20
5.4769
  0
VERTEX
  8
0
 62
     3
  6
CONTINUOUS
 10
0.3524
 20
5.5037
  0
VERTEX
  8
0
 62
     3
  6
CONTINUOUS
 10
0.3591
 20
5.5184
  0
VERTEX
  8
0
 62
     3
  6
CONTINUOUS
 10
0.3661
 20
5.5329
  0
VERTEX
  8
0
 62
     3
  6
CONTINUOUS
 10
0.3734
 20
5.5473
  0
VERTEX
  8
0
 62
     3
  6
CONTINUOUS
 10
0.3809
 20
5.5616
  0
VERTEX
  8
0
 62
     3
  6
CONTINUOUS
 10
0.3888
 20
5.5757
  0
VERTEX
  8
0
 62
     3
  6
CONTINUOUS
 10
0.3969
 20
5.5896
  0
VERTEX
  8
0
 62
     3
  6
CONTINUOUS
 10
0.4054
 20
5.6033
  0
VERTEX
  8
0
 62
     3
  6
CONTINUOUS
 10
0.4142
 20
5.6169
  0
VERTEX
  8
0
 62
     3
  6
CONTINUOUS
 10
0.4232
 20
5.6302
  0
VERTEX
  8
0
 62
     3
  6
CONTINUOUS
 10
0.4326
 20
5.6433
  0
VERTEX
  8
0
 62
     3
  6
CONTINUOUS
 10
0.4423
 20
5.6561
  0
VERTEX
  8
0
 62
     3
  6
CONTINUOUS
 10
0.4524
 20
5.6687
  0
VERTEX
  8
0
 62
     3
  6
CONTINUOUS
 10
0.4603
 20
5.6781
  0
VERTEX
  8
0
 62
     3
  6
CONTINUOUS
 10
0.4684
 20
5.6875
  0
VERTEX
  8
0
 62
     3
  6
CONTINUOUS
 10
0.4767
 20
5.6967
  0
VERTEX
  8
0
 62
     3
  6
CONTINUOUS
 10
0.4851
 20
5.7059
  0
VERTEX
  8
0
 62
     3
  6
CONTINUOUS
 10
0.4935
 20
5.7149
  0
VERTEX
  8
0
 62
     3
  6
CONTINUOUS
 10
0.5020
 20
5.7240
  0
VERTEX
  8
0
 62
     3
  6
CONTINUOUS
 10
0.5105
 20
5.7330
  0
VERTEX
  8
0
 62
     3
  6
CONTINUOUS
 10
0.5190
 20
5.7420
  0
VERTEX
  8
0
 62
     3
  6
CONTINUOUS
 10
0.5275
 20
5.7510
  0
VERTEX
  8
0
 62
     3
  6
CONTINUOUS
 10
0.5359
 20
5.7601
  0
VERTEX
  8
0
 62
     3
  6
CONTINUOUS
 10
0.5442
 20
5.7693
  0
VERTEX
  8
0
 62
     3
  6
CONTINUOUS
 10
0.5523
 20
5.7786
  0
VERTEX
  8
0
 62
     3
  6
CONTINUOUS
 10
0.5612
 20
5.7890
  0
VERTEX
  8
0
 62
     3
  6
CONTINUOUS
 10
0.5698
 20
5.7995
  0
VERTEX
  8
0
 62
     3
  6
CONTINUOUS
 10
0.5784
 20
5.8102
  0
VERTEX
  8
0
 62
     3
  6
CONTINUOUS
 10
0.5868
 20
5.8210
  0
VERTEX
  8
0
 62
     3
  6
CONTINUOUS
 10
0.5951
 20
5.8318
  0
VERTEX
  8
0
 62
     3
  6
CONTINUOUS
 10
0.6033
 20
5.8427
  0
VERTEX
  8
0
 62
     3
  6
CONTINUOUS
 10
0.6115
 20
5.8537
  0
VERTEX
  8
0
 62
     3
  6
CONTINUOUS
 10
0.6196
 20
5.8647
  0
VERTEX
  8
0
 62
     3
  6
CONTINUOUS
 10
0.6277
 20
5.8757
  0
VERTEX
  8
0
 62
     3
  6
CONTINUOUS
 10
0.6359
 20
5.8867
  0
VERTEX
  8
0
 62
     3
  6
CONTINUOUS
 10
0.6441
 20
5.8977
  0
VERTEX
  8
0
 62
     3
  6
CONTINUOUS
 10
0.6523
 20
5.9086
  0
VERTEX
  8
0
 62
     3
  6
CONTINUOUS
 10
0.6696
 20
5.9310
  0
VERTEX
  8
0
 62
     3
  6
CONTINUOUS
 10
0.6873
 20
5.9532
  0
VERTEX
  8
0
 62
     3
  6
CONTINUOUS
 10
0.7053
 20
5.9751
  0
VERTEX
  8
0
 62
     3
  6
CONTINUOUS
 10
0.7235
 20
5.9967
  0
VERTEX
  8
0
 62
     3
  6
CONTINUOUS
 10
0.7420
 20
6.0182
  0
VERTEX
  8
0
 62
     3
  6
CONTINUOUS
 10
0.7608
 20
6.0394
  0
VERTEX
  8
0
 62
     3
  6
CONTINUOUS
 10
0.7798
 20
6.0605
  0
VERTEX
  8
0
 62
     3
  6
CONTINUOUS
 10
0.7989
 20
6.0813
  0
VERTEX
  8
0
 62
     3
  6
CONTINUOUS
 10
0.8183
 20
6.1021
  0
VERTEX
  8
0
 62
     3
  6
CONTINUOUS
 10
0.8378
 20
6.1227
  0
VERTEX
  8
0
 62
     3
  6
CONTINUOUS
 10
0.8575
 20
6.1431
  0
VERTEX
  8
0
 62
     3
  6
CONTINUOUS
 10
0.8772
 20
6.1635
  0
VERTEX
  8
0
 62
     3
  6
CONTINUOUS
 10
0.9265
 20
6.2135
  0
VERTEX
  8
0
 62
     3
  6
CONTINUOUS
 10
0.9764
 20
6.2630
  0
VERTEX
  8
0
 62
     3
  6
CONTINUOUS
 10
1.0268
 20
6.3120
  0
VERTEX
  8
0
 62
     3
  6
CONTINUOUS
 10
1.0777
 20
6.3604
  0
VERTEX
  8
0
 62
     3
  6
CONTINUOUS
 10
1.1291
 20
6.4082
  0
VERTEX
  8
0
 62
     3
  6
CONTINUOUS
 10
1.1810
 20
6.4555
  0
VERTEX
  8
0
 62
     3
  6
CONTINUOUS
 10
1.2333
 20
6.5023
  0
VERTEX
  8
0
 62
     3
  6
CONTINUOUS
 10
1.2862
 20
6.5486
  0
VERTEX
  8
0
 62
     3
  6
CONTINUOUS
 10
1.3395
 20
6.5943
  0
VERTEX
  8
0
 62
     3
  6
CONTINUOUS
 10
1.3932
 20
6.6395
  0
VERTEX
  8
0
 62
     3
  6
CONTINUOUS
 10
1.4474
 20
6.6841
  0
VERTEX
  8
0
 62
     3
  6
CONTINUOUS
 10
1.5020
 20
6.7283
  0
VERTEX
  8
0
 62
     3
  6
CONTINUOUS
 10
1.6003
 20
6.8056
  0
VERTEX
  8
0
 62
     3
  6
CONTINUOUS
 10
1.6998
 20
6.8813
  0
VERTEX
  8
0
 62
     3
  6
CONTINUOUS
 10
1.8005
 20
6.9554
  0
VERTEX
  8
0
 62
     3
  6
CONTINUOUS
 10
1.9024
 20
7.0280
  0
VERTEX
  8
0
 62
     3
  6
CONTINUOUS
 10
2.0054
 20
7.0991
  0
VERTEX
  8
0
 62
     3
  6
CONTINUOUS
 10
2.1094
 20
7.1687
  0
VERTEX
  8
0
 62
     3
  6
CONTINUOUS
 10
2.2143
 20
7.2369
  0
VERTEX
  8
0
 62
     3
  6
CONTINUOUS
 10
2.3202
 20
7.3037
  0
VERTEX
  8
0
 62
     3
  6
CONTINUOUS
 10
2.4269
 20
7.3692
  0
VERTEX
  8
0
 62
     3
  6
CONTINUOUS
 10
2.5344
 20
7.4334
  0
VERTEX
  8
0
 62
     3
  6
CONTINUOUS
 10
2.6426
 20
7.4963
  0
VERTEX
  8
0
 62
     3
  6
CONTINUOUS
 10
2.7515
 20
7.5580
  0
VERTEX
  8
0
 62
     3
  6
CONTINUOUS
 10
2.8534
 20
7.6143
  0
VERTEX
  8
0
 62
     3
  6
CONTINUOUS
 10
2.9557
 20
7.6696
  0
VERTEX
  8
0
 62
     3
  6
CONTINUOUS
 10
3.0585
 20
7.7240
  0
VERTEX
  8
0
 62
     3
  6
CONTINUOUS
 10
3.1617
 20
7.7775
  0
VERTEX
  8
0
 62
     3
  6
CONTINUOUS
 10
3.2654
 20
7.8301
  0
VERTEX
  8
0
 62
     3
  6
CONTINUOUS
 10
3.3695
 20
7.8819
  0
VERTEX
  8
0
 62
     3
  6
CONTINUOUS
 10
3.4739
 20
7.9329
  0
VERTEX
  8
0
 62
     3
  6
CONTINUOUS
 10
3.5788
 20
7.9832
  0
VERTEX
  8
0
 62
     3
  6
CONTINUOUS
 10
3.6839
 20
8.0328
  0
VERTEX
  8
0
 62
     3
  6
CONTINUOUS
 10
3.7894
 20
8.0817
  0
VERTEX
  8
0
 62
     3
  6
CONTINUOUS
 10
3.8951
 20
8.1300
  0
VERTEX
  8
0
 62
     3
  6
CONTINUOUS
 10
4.0011
 20
8.1778
  0
VERTEX
  8
0
 62
     3
  6
CONTINUOUS
 10
4.1040
 20
8.2235
  0
VERTEX
  8
0
 62
     3
  6
CONTINUOUS
 10
4.2072
 20
8.2687
  0
VERTEX
  8
0
 62
     3
  6
CONTINUOUS
 10
4.3105
 20
8.3135
  0
VERTEX
  8
0
 62
     3
  6
CONTINUOUS
 10
4.4141
 20
8.3577
  0
VERTEX
  8
0
 62
     3
  6
CONTINUOUS
 10
4.5179
 20
8.4014
  0
VERTEX
  8
0
 62
     3
  6
CONTINUOUS
 10
4.6219
 20
8.4446
  0
VERTEX
  8
0
 62
     3
  6
CONTINUOUS
 10
4.7261
 20
8.4873
  0
VERTEX
  8
0
 62
     3
  6
CONTINUOUS
 10
4.8306
 20
8.5294
  0
VERTEX
  8
0
 62
     3
  6
CONTINUOUS
 10
4.9353
 20
8.5710
  0
VERTEX
  8
0
 62
     3
  6
CONTINUOUS
 10
5.0402
 20
8.6121
  0
VERTEX
  8
0
 62
     3
  6
CONTINUOUS
 10
5.1453
 20
8.6526
  0
VERTEX
  8
0
 62
     3
  6
CONTINUOUS
 10
5.2506
 20
8.6926
  0
VERTEX
  8
0
 62
     3
  6
CONTINUOUS
 10
5.4549
 20
8.7683
  0
VERTEX
  8
0
 62
     3
  6
CONTINUOUS
 10
5.6599
 20
8.8419
  0
VERTEX
  8
0
 62
     3
  6
CONTINUOUS
 10
5.8657
 20
8.9133
  0
VERTEX
  8
0
 62
     3
  6
CONTINUOUS
 10
6.0723
 20
8.9826
  0
VERTEX
  8
0
 62
     3
  6
CONTINUOUS
 10
6.2796
 20
9.0496
  0
VERTEX
  8
0
 62
     3
  6
CONTINUOUS
 10
6.4876
 20
9.1144
  0
VERTEX
  8
0
 62
     3
  6
CONTINUOUS
 10
6.6964
 20
9.1768
  0
VERTEX
  8
0
 62
     3
  6
CONTINUOUS
 10
6.9058
 20
9.2368
  0
VERTEX
  8
0
 62
     3
  6
CONTINUOUS
 10
7.1158
 20
9.2945
  0
VERTEX
  8
0
 62
     3
  6
CONTINUOUS
 10
7.3265
 20
9.3496
  0
VERTEX
  8
0
 62
     3
  6
CONTINUOUS
 10
7.5378
 20
9.4022
  0
VERTEX
  8
0
 62
     3
  6
CONTINUOUS
 10
7.7497
 20
9.4523
  0
VERTEX
  8
0
 62
     3
  6
CONTINUOUS
 10
7.9559
 20
9.4984
  0
VERTEX
  8
0
 62
     3
  6
CONTINUOUS
 10
8.1625
 20
9.5421
  0
VERTEX
  8
0
 62
     3
  6
CONTINUOUS
 10
8.3696
 20
9.5836
  0
VERTEX
  8
0
 62
     3
  6
CONTINUOUS
 10
8.5771
 20
9.6230
  0
VERTEX
  8
0
 62
     3
  6
CONTINUOUS
 10
8.7850
 20
9.6603
  0
VERTEX
  8
0
 62
     3
  6
CONTINUOUS
 10
8.9933
 20
9.6956
  0
VERTEX
  8
0
 62
     3
  6
CONTINUOUS
 10
9.2019
 20
9.7291
  0
VERTEX
  8
0
 62
     3
  6
CONTINUOUS
 10
9.4109
 20
9.7608
  0
VERTEX
  8
0
 62
     3
  6
CONTINUOUS
 10
9.6200
 20
9.7909
  0
VERTEX
  8
0
 62
     3
  6
CONTINUOUS
 10
9.8295
 20
9.8194
  0
VERTEX
  8
0
 62
     3
  6
CONTINUOUS
 10
10.0391
 20
9.8464
  0
VERTEX
  8
0
 62
     3
  6
CONTINUOUS
 10
10.2488
 20
9.8721
  0
VERTEX
  8
0
 62
     3
  6
CONTINUOUS
 10
10.4565
 20
9.8963
  0
VERTEX
  8
0
 62
     3
  6
CONTINUOUS
 10
10.6644
 20
9.9193
  0
VERTEX
  8
0
 62
     3
  6
CONTINUOUS
 10
10.8723
 20
9.9409
  0
VERTEX
  8
0
 62
     3
  6
CONTINUOUS
 10
11.0803
 20
9.9614
  0
VERTEX
  8
0
 62
     3
  6
CONTINUOUS
 10
11.2885
 20
9.9805
  0
VERTEX
  8
0
 62
     3
  6
CONTINUOUS
 10
11.4967
 20
9.9983
  0
VERTEX
  8
0
 62
     3
  6
CONTINUOUS
 10
11.7051
 20
10.0148
  0
VERTEX
  8
0
 62
     3
  6
CONTINUOUS
 10
11.9135
 20
10.0300
  0
VERTEX
  8
0
 62
     3
  6
CONTINUOUS
 10
12.1220
 20
10.0438
  0
VERTEX
  8
0
 62
     3
  6
CONTINUOUS
 10
12.3306
 20
10.0563
  0
VERTEX
  8
0
 62
     3
  6
CONTINUOUS
 10
12.5392
 20
10.0674
  0
VERTEX
  8
0
 62
     3
  6
CONTINUOUS
 10
12.7479
 20
10.0771
  0
VERTEX
  8
0
 62
     3
  6
CONTINUOUS
 10
12.9560
 20
10.0854
  0
VERTEX
  8
0
 62
     3
  6
CONTINUOUS
 10
13.1642
 20
10.0923
  0
VERTEX
  8
0
 62
     3
  6
CONTINUOUS
 10
13.3724
 20
10.0980
  0
VERTEX
  8
0
 62
     3
  6
CONTINUOUS
 10
13.5806
 20
10.1025
  0
VERTEX
  8
0
 62
     3
  6
CONTINUOUS
 10
13.7889
 20
10.1058
  0
VERTEX
  8
0
 62
     3
  6
CONTINUOUS
 10
13.9971
 20
10.1080
  0
VERTEX
  8
0
 62
     3
  6
CONTINUOUS
 10
14.2055
 20
10.1092
  0
VERTEX
  8
0
 62
     3
  6
CONTINUOUS
 10
14.4138
 20
10.1095
  0
VERTEX
  8
0
 62
     3
  6
CONTINUOUS
 10
14.6221
 20
10.1088
  0
VERTEX
  8
0
 62
     3
  6
CONTINUOUS
 10
14.8304
 20
10.1073
  0
VERTEX
  8
0
 62
     3
  6
CONTINUOUS
 10
15.0387
 20
10.1050
  0
VERTEX
  8
0
 62
     3
  6
CONTINUOUS
 10
15.2471
 20
10.1021
  0
VERTEX
  8
0
 62
     3
  6
CONTINUOUS
 10
15.6641
 20
10.0941
  0
VERTEX
  8
0
 62
     3
  6
CONTINUOUS
 10
16.0810
 20
10.0836
  0
VERTEX
  8
0
 62
     3
  6
CONTINUOUS
 10
16.4978
 20
10.0707
  0
VERTEX
  8
0
 62
     3
  6
CONTINUOUS
 10
16.9146
 20
10.0555
  0
VERTEX
  8
0
 62
     3
  6
CONTINUOUS
 10
17.3313
 20
10.0380
  0
VERTEX
  8
0
 62
     3
  6
CONTINUOUS
 10
17.7478
 20
10.0185
  0
VERTEX
  8
0
 62
     3
  6
CONTINUOUS
 10
18.1643
 20
9.9969
  0
VERTEX
  8
0
 62
     3
  6
CONTINUOUS
 10
18.5807
 20
9.9734
  0
VERTEX
  8
0
 62
     3
  6
CONTINUOUS
 10
18.9970
 20
9.9480
  0
VERTEX
  8
0
 62
     3
  6
CONTINUOUS
 10
19.4132
 20
9.9210
  0
VERTEX
  8
0
 62
     3
  6
CONTINUOUS
 10
19.8293
 20
9.8923
  0
VERTEX
  8
0
 62
     3
  6
CONTINUOUS
 10
20.2453
 20
9.8621
  0
VERTEX
  8
0
 62
     3
  6
CONTINUOUS
 10
20.6626
 20
9.8304
  0
VERTEX
  8
0
 62
     3
  6
CONTINUOUS
 10
21.0798
 20
9.7972
  0
VERTEX
  8
0
 62
     3
  6
CONTINUOUS
 10
21.4969
 20
9.7625
  0
VERTEX
  8
0
 62
     3
  6
CONTINUOUS
 10
21.9139
 20
9.7263
  0
VERTEX
  8
0
 62
     3
  6
CONTINUOUS
 10
22.3307
 20
9.6885
  0
VERTEX
  8
0
 62
     3
  6
CONTINUOUS
 10
22.7474
 20
9.6491
  0
VERTEX
  8
0
 62
     3
  6
CONTINUOUS
 10
23.1639
 20
9.6081
  0
VERTEX
  8
0
 62
     3
  6
CONTINUOUS
 10
23.5802
 20
9.5654
  0
VERTEX
  8
0
 62
     3
  6
CONTINUOUS
 10
23.9963
 20
9.5210
  0
VERTEX
  8
0
 62
     3
  6
CONTINUOUS
 10
24.4122
 20
9.4749
  0
VERTEX
  8
0
 62
     3
  6
CONTINUOUS
 10
24.8280
 20
9.4270
  0
VERTEX
  8
0
 62
     3
  6
CONTINUOUS
 10
25.2435
 20
9.3773
  0
VERTEX
  8
0
 62
     3
  6
CONTINUOUS
 10
25.6611
 20
9.3255
  0
VERTEX
  8
0
 62
     3
  6
CONTINUOUS
 10
26.0786
 20
9.2719
  0
VERTEX
  8
0
 62
     3
  6
CONTINUOUS
 10
26.4958
 20
9.2165
  0
VERTEX
  8
0
 62
     3
  6
CONTINUOUS
 10
26.9128
 20
9.1595
  0
VERTEX
  8
0
 62
     3
  6
CONTINUOUS
 10
27.3296
 20
9.1010
  0
VERTEX
  8
0
 62
     3
  6
CONTINUOUS
 10
27.7462
 20
9.0409
  0
VERTEX
  8
0
 62
     3
  6
CONTINUOUS
 10
28.1625
 20
8.9794
  0
VERTEX
  8
0
 62
     3
  6
CONTINUOUS
 10
28.5787
 20
8.9165
  0
VERTEX
  8
0
 62
     3
  6
CONTINUOUS
 10
28.9947
 20
8.8523
  0
VERTEX
  8
0
 62
     3
  6
CONTINUOUS
 10
29.4106
 20
8.7868
  0
VERTEX
  8
0
 62
     3
  6
CONTINUOUS
 10
29.8262
 20
8.7203
  0
VERTEX
  8
0
 62
     3
  6
CONTINUOUS
 10
30.2417
 20
8.6526
  0
VERTEX
  8
0
 62
     3
  6
CONTINUOUS
 10
30.6595
 20
8.5834
  0
VERTEX
  8
0
 62
     3
  6
CONTINUOUS
 10
31.0771
 20
8.5132
  0
VERTEX
  8
0
 62
     3
  6
CONTINUOUS
 10
31.4946
 20
8.4418
  0
VERTEX
  8
0
 62
     3
  6
CONTINUOUS
 10
31.9118
 20
8.3692
  0
VERTEX
  8
0
 62
     3
  6
CONTINUOUS
 10
32.3288
 20
8.2954
  0
VERTEX
  8
0
 62
     3
  6
CONTINUOUS
 10
32.7455
 20
8.2202
  0
VERTEX
  8
0
 62
     3
  6
CONTINUOUS
 10
33.1620
 20
8.1436
  0
VERTEX
  8
0
 62
     3
  6
CONTINUOUS
 10
33.5782
 20
8.0656
  0
VERTEX
  8
0
 62
     3
  6
CONTINUOUS
 10
33.9941
 20
7.9861
  0
VERTEX
  8
0
 62
     3
  6
CONTINUOUS
 10
34.4097
 20
7.9050
  0
VERTEX
  8
0
 62
     3
  6
CONTINUOUS
 10
34.8250
 20
7.8223
  0
VERTEX
  8
0
 62
     3
  6
CONTINUOUS
 10
35.2399
 20
7.7379
  0
VERTEX
  8
0
 62
     3
  6
CONTINUOUS
 10
35.6580
 20
7.6510
  0
VERTEX
  8
0
 62
     3
  6
CONTINUOUS
 10
36.0759
 20
7.5625
  0
VERTEX
  8
0
 62
     3
  6
CONTINUOUS
 10
36.4933
 20
7.4723
  0
VERTEX
  8
0
 62
     3
  6
CONTINUOUS
 10
36.9105
 20
7.3807
  0
VERTEX
  8
0
 62
     3
  6
CONTINUOUS
 10
37.3274
 20
7.2876
  0
VERTEX
  8
0
 62
     3
  6
CONTINUOUS
 10
37.7439
 20
7.1932
  0
VERTEX
  8
0
 62
     3
  6
CONTINUOUS
 10
38.1602
 20
7.0975
  0
VERTEX
  8
0
 62
     3
  6
CONTINUOUS
 10
38.5763
 20
7.0006
  0
VERTEX
  8
0
 62
     3
  6
CONTINUOUS
 10
38.9920
 20
6.9027
  0
VERTEX
  8
0
 62
     3
  6
CONTINUOUS
 10
39.4076
 20
6.8038
  0
VERTEX
  8
0
 62
     3
  6
CONTINUOUS
 10
39.8229
 20
6.7040
  0
VERTEX
  8
0
 62
     3
  6
CONTINUOUS
 10
40.2381
 20
6.6033
  0
VERTEX
  8
0
 62
     3
  6
CONTINUOUS
 10
40.6557
 20
6.5013
  0
VERTEX
  8
0
 62
     3
  6
CONTINUOUS
 10
41.0731
 20
6.3985
  0
VERTEX
  8
0
 62
     3
  6
CONTINUOUS
 10
41.4903
 20
6.2949
  0
VERTEX
  8
0
 62
     3
  6
CONTINUOUS
 10
41.9073
 20
6.1906
  0
VERTEX
  8
0
 62
     3
  6
CONTINUOUS
 10
42.3241
 20
6.0856
  0
VERTEX
  8
0
 62
     3
  6
CONTINUOUS
 10
42.7408
 20
5.9798
  0
VERTEX
  8
0
 62
     3
  6
CONTINUOUS
 10
43.1572
 20
5.8732
  0
VERTEX
  8
0
 62
     3
  6
CONTINUOUS
 10
43.5734
 20
5.7659
  0
VERTEX
  8
0
 62
     3
  6
CONTINUOUS
 10
43.9894
 20
5.6578
  0
VERTEX
  8
0
 62
     3
  6
CONTINUOUS
 10
44.4053
 20
5.5489
  0
VERTEX
  8
0
 62
     3
  6
CONTINUOUS
 10
44.8209
 20
5.4392
  0
VERTEX
  8
0
 62
     3
  6
CONTINUOUS
 10
45.2363
 20
5.3288
  0
VERTEX
  8
0
 62
     3
  6
CONTINUOUS
 10
45.6535
 20
5.2170
  0
VERTEX
  8
0
 62
     3
  6
CONTINUOUS
 10
46.0706
 20
5.1045
  0
VERTEX
  8
0
 62
     3
  6
CONTINUOUS
 10
46.4875
 20
4.9914
  0
VERTEX
  8
0
 62
     3
  6
CONTINUOUS
 10
46.9042
 20
4.8776
  0
VERTEX
  8
0
 62
     3
  6
CONTINUOUS
 10
47.3208
 20
4.7634
  0
VERTEX
  8
0
 62
     3
  6
CONTINUOUS
 10
47.7373
 20
4.6486
  0
VERTEX
  8
0
 62
     3
  6
CONTINUOUS
 10
48.1537
 20
4.5335
  0
VERTEX
  8
0
 62
     3
  6
CONTINUOUS
 10
48.5699
 20
4.4181
  0
VERTEX
  8
0
 62
     3
  6
CONTINUOUS
 10
48.9861
 20
4.3023
  0
VERTEX
  8
0
 62
     3
  6
CONTINUOUS
 10
49.4023
 20
4.1864
  0
VERTEX
  8
0
 62
     3
  6
CONTINUOUS
 10
49.8184
 20
4.0704
  0
VERTEX
  8
0
 62
     3
  6
CONTINUOUS
 10
50.2345
 20
3.9543
  0
SEQEND
  8
0
  0
POLYLINE
  8
0
 62
     1
 66
     1
  6
CONTINUOUS
  0
VERTEX
  8
0
 62
     1
  6
CONTINUOUS
 10
0.2524
 20
5.1688
  0
VERTEX
  8
0
 62
     1
  6
CONTINUOUS
 10
0.2586
 20
5.1436
  0
VERTEX
  8
0
 62
     1
  6
CONTINUOUS
 10
0.2648
 20
5.1184
  0
VERTEX
  8
0
 62
     1
  6
CONTINUOUS
 10
0.2712
 20
5.0932
  0
VERTEX
  8
0
 62
     1
  6
CONTINUOUS
 10
0.2778
 20
5.0682
  0
VERTEX
  8
0
 62
     1
  6
CONTINUOUS
 10
0.2849
 20
5.0434
  0
VERTEX
  8
0
 62
     1
  6
CONTINUOUS
 10
0.2924
 20
5.0189
  0
VERTEX
  8
0
 62
     1
  6
CONTINUOUS
 10
0.3005
 20
4.9946
  0
VERTEX
  8
0
 62
     1
  6
CONTINUOUS
 10
0.3092
 20
4.9706
  0
VERTEX
  8
0
 62
     1
  6
CONTINUOUS
 10
0.3186
 20
4.9470
  0
VERTEX
  8
0
 62
     1
  6
CONTINUOUS
 10
0.3289
 20
4.9238
  0
VERTEX
  8
0
 62
     1
  6
CONTINUOUS
 10
0.3402
 20
4.9011
  0
VERTEX
  8
0
 62
     1
  6
CONTINUOUS
 10
0.3524
 20
4.8789
  0
VERTEX
  8
0
 62
     1
  6
CONTINUOUS
 10
0.3594
 20
4.8673
  0
VERTEX
  8
0
 62
     1
  6
CONTINUOUS
 10
0.3667
 20
4.8558
  0
VERTEX
  8
0
 62
     1
  6
CONTINUOUS
 10
0.3743
 20
4.8445
  0
VERTEX
  8
0
 62
     1
  6
CONTINUOUS
 10
0.3821
 20
4.8333
  0
VERTEX
  8
0
 62
     1
  6
CONTINUOUS
 10
0.3902
 20
4.8222
  0
VERTEX
  8
0
 62
     1
  6
CONTINUOUS
 10
0.3985
 20
4.8114
  0
VERTEX
  8
0
 62
     1
  6
CONTINUOUS
 10
0.4071
 20
4.8006
  0
VERTEX
  8
0
 62
     1
  6
CONTINUOUS
 10
0.4158
 20
4.7900
  0
VERTEX
  8
0
 62
     1
  6
CONTINUOUS
 10
0.4247
 20
4.7796
  0
VERTEX
  8
0
 62
     1
  6
CONTINUOUS
 10
0.4338
 20
4.7692
  0
VERTEX
  8
0
 62
     1
  6
CONTINUOUS
 10
0.4430
 20
4.7590
  0
VERTEX
  8
0
 62
     1
  6
CONTINUOUS
 10
0.4524
 20
4.7490
  0
VERTEX
  8
0
 62
     1
  6
CONTINUOUS
 10
0.4603
 20
4.7406
  0
VERTEX
  8
0
 62
     1
  6
CONTINUOUS
 10
0.4683
 20
4.7324
  0
VERTEX
  8
0
 62
     1
  6
CONTINUOUS
 10
0.4764
 20
4.7242
  0
VERTEX
  8
0
 62
     1
  6
CONTINUOUS
 10
0.4846
 20
4.7161
  0
VERTEX
  8
0
 62
     1
  6
CONTINUOUS
 10
0.4928
 20
4.7081
  0
VERTEX
  8
0
 62
     1
  6
CONTINUOUS
 10
0.5012
 20
4.7001
  0
VERTEX
  8
0
 62
     1
  6
CONTINUOUS
 10
0.5095
 20
4.6923
  0
VERTEX
  8
0
 62
     1
  6
CONTINUOUS
 10
0.5180
 20
4.6845
  0
VERTEX
  8
0
 62
     1
  6
CONTINUOUS
 10
0.5265
 20
4.6768
  0
VERTEX
  8
0
 62
     1
  6
CONTINUOUS
 10
0.5350
 20
4.6691
  0
VERTEX
  8
0
 62
     1
  6
CONTINUOUS
 10
0.5437
 20
4.6615
  0
VERTEX
  8
0
 62
     1
  6
CONTINUOUS
 10
0.5523
 20
4.6540
  0
VERTEX
  8
0
 62
     1
  6
CONTINUOUS
 10
0.5604
 20
4.6471
  0
VERTEX
  8
0
 62
     1
  6
CONTINUOUS
 10
0.5686
 20
4.6402
  0
VERTEX
  8
0
 62
     1
  6
CONTINUOUS
 10
0.5768
 20
4.6334
  0
VERTEX
  8
0
 62
     1
  6
CONTINUOUS
 10
0.5850
 20
4.6266
  0
VERTEX
  8
0
 62
     1
  6
CONTINUOUS
 10
0.5933
 20
4.6199
  0
VERTEX
  8
0
 62
     1
  6
CONTINUOUS
 10
0.6016
 20
4.6132
  0
VERTEX
  8
0
 62
     1
  6
CONTINUOUS
 10
0.6100
 20
4.6066
  0
VERTEX
  8
0
 62
     1
  6
CONTINUOUS
 10
0.6184
 20
4.6000
  0
VERTEX
  8
0
 62
     1
  6
CONTINUOUS
 10
0.6268
 20
4.5934
  0
VERTEX
  8
0
 62
     1
  6
CONTINUOUS
 10
0.6353
 20
4.5869
  0
VERTEX
  8
0
 62
     1
  6
CONTINUOUS
 10
0.6438
 20
4.5805
  0
VERTEX
  8
0
 62
     1
  6
CONTINUOUS
 10
0.6523
 20
4.5740
  0
VERTEX
  8
0
 62
     1
  6
CONTINUOUS
 10
0.6702
 20
4.5608
  0
VERTEX
  8
0
 62
     1
  6
CONTINUOUS
 10
0.6883
 20
4.5476
  0
VERTEX
  8
0
 62
     1
  6
CONTINUOUS
 10
0.7066
 20
4.5347
  0
VERTEX
  8
0
 62
     1
  6
CONTINUOUS
 10
0.7250
 20
4.5220
  0
VERTEX
  8
0
 62
     1
  6
CONTINUOUS
 10
0.7435
 20
4.5095
  0
VERTEX
  8
0
 62
     1
  6
CONTINUOUS
 10
0.7621
 20
4.4973
  0
VERTEX
  8
0
 62
     1
  6
CONTINUOUS
 10
0.7810
 20
4.4853
  0
VERTEX
  8
0
 62
     1
  6
CONTINUOUS
 10
0.7999
 20
4.4735
  0
VERTEX
  8
0
 62
     1
  6
CONTINUOUS
 10
0.8190
 20
4.4620
  0
VERTEX
  8
0
 62
     1
  6
CONTINUOUS
 10
0.8383
 20
4.4507
  0
VERTEX
  8
0
 62
     1
  6
CONTINUOUS
 10
0.8577
 20
4.4398
  0
VERTEX
  8
0
 62
     1
  6
CONTINUOUS
 10
0.8772
 20
4.4291
  0
VERTEX
  8
0
 62
     1
  6
CONTINUOUS
 10
0.9261
 20
4.4040
  0
VERTEX
  8
0
 62
     1
  6
CONTINUOUS
 10
0.9758
 20
4.3807
  0
VERTEX
  8
0
 62
     1
  6
CONTINUOUS
 10
1.0262
 20
4.3589
  0
VERTEX
  8
0
 62
     1
  6
CONTINUOUS
 10
1.0774
 20
4.3386
  0
VERTEX
  8
0
 62
     1
  6
CONTINUOUS
 10
1.1291
 20
4.3197
  0
VERTEX
  8
0
 62
     1
  6
CONTINUOUS
 10
1.1813
 20
4.3020
  0
VERTEX
  8
0
 62
     1
  6
CONTINUOUS
 10
1.2341
 20
4.2853
  0
VERTEX
  8
0
 62
     1
  6
CONTINUOUS
 10
1.2872
 20
4.2697
  0
VERTEX
  8
0
 62
     1
  6
CONTINUOUS
 10
1.3406
 20
4.2548
  0
VERTEX
  8
0
 62
     1
  6
CONTINUOUS
 10
1.3942
 20
4.2407
  0
VERTEX
  8
0
 62
     1
  6
CONTINUOUS
 10
1.4481
 20
4.2272
  0
VERTEX
  8
0
 62
     1
  6
CONTINUOUS
 10
1.5020
 20
4.2142
  0
VERTEX
  8
0
 62
     1
  6
CONTINUOUS
 10
1.6056
 20
4.1901
  0
VERTEX
  8
0
 62
     1
  6
CONTINUOUS
 10
1.7093
 20
4.1672
  0
VERTEX
  8
0
 62
     1
  6
CONTINUOUS
 10
1.8131
 20
4.1455
  0
VERTEX
  8
0
 62
     1
  6
CONTINUOUS
 10
1.9170
 20
4.1249
  0
VERTEX
  8
0
 62
     1
  6
CONTINUOUS
 10
2.0209
 20
4.1054
  0
VERTEX
  8
0
 62
     1
  6
CONTINUOUS
 10
2.1250
 20
4.0869
  0
VERTEX
  8
0
 62
     1
  6
CONTINUOUS
 10
2.2291
 20
4.0693
  0
VERTEX
  8
0
 62
     1
  6
CONTINUOUS
 10
2.3334
 20
4.0527
  0
VERTEX
  8
0
 62
     1
  6
CONTINUOUS
 10
2.4378
 20
4.0369
  0
VERTEX
  8
0
 62
     1
  6
CONTINUOUS
 10
2.5422
 20
4.0219
  0
VERTEX
  8
0
 62
     1
  6
CONTINUOUS
 10
2.6468
 20
4.0077
  0
VERTEX
  8
0
 62
     1
  6
CONTINUOUS
 10
2.7515
 20
3.9943
  0
VERTEX
  8
0
 62
     1
  6
CONTINUOUS
 10
2.8552
 20
3.9816
  0
VERTEX
  8
0
 62
     1
  6
CONTINUOUS
 10
2.9590
 20
3.9696
  0
VERTEX
  8
0
 62
     1
  6
CONTINUOUS
 10
3.0629
 20
3.9582
  0
VERTEX
  8
0
 62
     1
  6
CONTINUOUS
 10
3.1669
 20
3.9473
  0
VERTEX
  8
0
 62
     1
  6
CONTINUOUS
 10
3.2710
 20
3.9371
  0
VERTEX
  8
0
 62
     1
  6
CONTINUOUS
 10
3.3751
 20
3.9274
  0
VERTEX
  8
0
 62
     1
  6
CONTINUOUS
 10
3.4793
 20
3.9182
  0
VERTEX
  8
0
 62
     1
  6
CONTINUOUS
 10
3.5836
 20
3.9095
  0
VERTEX
  8
0
 62
     1
  6
CONTINUOUS
 10
3.6879
 20
3.9013
  0
VERTEX
  8
0
 62
     1
  6
CONTINUOUS
 10
3.7923
 20
3.8935
  0
VERTEX
  8
0
 62
     1
  6
CONTINUOUS
 10
3.8967
 20
3.8862
  0
VERTEX
  8
0
 62
     1
  6
CONTINUOUS
 10
4.0011
 20
3.8793
  0
VERTEX
  8
0
 62
     1
  6
CONTINUOUS
 10
4.1052
 20
3.8728
  0
VERTEX
  8
0
 62
     1
  6
CONTINUOUS
 10
4.2093
 20
3.8667
  0
VERTEX
  8
0
 62
     1
  6
CONTINUOUS
 10
4.3134
 20
3.8610
  0
VERTEX
  8
0
 62
     1
  6
CONTINUOUS
 10
4.4175
 20
3.8557
  0
VERTEX
  8
0
 62
     1
  6
CONTINUOUS
 10
4.5216
 20
3.8508
  0
VERTEX
  8
0
 62
     1
  6
CONTINUOUS
 10
4.6257
 20
3.8464
  0
VERTEX
  8
0
 62
     1
  6
CONTINUOUS
 10
4.7298
 20
3.8424
  0
VERTEX
  8
0
 62
     1
  6
CONTINUOUS
 10
4.8340
 20
3.8388
  0
VERTEX
  8
0
 62
     1
  6
CONTINUOUS
 10
4.9381
 20
3.8357
  0
VERTEX
  8
0
 62
     1
  6
CONTINUOUS
 10
5.0423
 20
3.8331
  0
VERTEX
  8
0
 62
     1
  6
CONTINUOUS
 10
5.1465
 20
3.8310
  0
VERTEX
  8
0
 62
     1
  6
CONTINUOUS
 10
5.2506
 20
3.8293
  0
VERTEX
  8
0
 62
     1
  6
CONTINUOUS
 10
5.4589
 20
3.8275
  0
VERTEX
  8
0
 62
     1
  6
CONTINUOUS
 10
5.6672
 20
3.8274
  0
VERTEX
  8
0
 62
     1
  6
CONTINUOUS
 10
5.8755
 20
3.8291
  0
VERTEX
  8
0
 62
     1
  6
CONTINUOUS
 10
6.0837
 20
3.8323
  0
VERTEX
  8
0
 62
     1
  6
CONTINUOUS
 10
6.2920
 20
3.8368
  0
VERTEX
  8
0
 62
     1
  6
CONTINUOUS
 10
6.5003
 20
3.8426
  0
VERTEX
  8
0
 62
     1
  6
CONTINUOUS
 10
6.7086
 20
3.8494
  0
VERTEX
  8
0
 62
     1
  6
CONTINUOUS
 10
6.9169
 20
3.8572
  0
VERTEX
  8
0
 62
     1
  6
CONTINUOUS
 10
7.1251
 20
3.8657
  0
VERTEX
  8
0
 62
     1
  6
CONTINUOUS
 10
7.3333
 20
3.8748
  0
VERTEX
  8
0
 62
     1
  6
CONTINUOUS
 10
7.5416
 20
3.8844
  0
VERTEX
  8
0
 62
     1
  6
CONTINUOUS
 10
7.7497
 20
3.8943
  0
VERTEX
  8
0
 62
     1
  6
CONTINUOUS
 10
7.9581
 20
3.9044
  0
VERTEX
  8
0
 62
     1
  6
CONTINUOUS
 10
8.1664
 20
3.9145
  0
VERTEX
  8
0
 62
     1
  6
CONTINUOUS
 10
8.3746
 20
3.9248
  0
VERTEX
  8
0
 62
     1
  6
CONTINUOUS
 10
8.5829
 20
3.9351
  0
VERTEX
  8
0
 62
     1
  6
CONTINUOUS
 10
8.7912
 20
3.9454
  0
VERTEX
  8
0
 62
     1
  6
CONTINUOUS
 10
8.9994
 20
3.9556
  0
VERTEX
  8
0
 62
     1
  6
CONTINUOUS
 10
9.2076
 20
3.9658
  0
VERTEX
  8
0
 62
     1
  6
CONTINUOUS
 10
9.4159
 20
3.9759
  0
VERTEX
  8
0
 62
     1
  6
CONTINUOUS
 10
9.6241
 20
3.9858
  0
VERTEX
  8
0
 62
     1
  6
CONTINUOUS
 10
9.8323
 20
3.9955
  0
VERTEX
  8
0
 62
     1
  6
CONTINUOUS
 10
10.0406
 20
4.0050
  0
VERTEX
  8
0
 62
     1
  6
CONTINUOUS
 10
10.2488
 20
4.0142
  0
VERTEX
  8
0
 62
     1
  6
CONTINUOUS
 10
10.4570
 20
4.0232
  0
VERTEX
  8
0
 62
     1
  6
CONTINUOUS
 10
10.6652
 20
4.0318
  0
VERTEX
  8
0
 62
     1
  6
CONTINUOUS
 10
10.8734
 20
4.0402
  0
VERTEX
  8
0
 62
     1
  6
CONTINUOUS
 10
11.0817
 20
4.0482
  0
VERTEX
  8
0
 62
     1
  6
CONTINUOUS
 10
11.2899
 20
4.0560
  0
VERTEX
  8
0
 62
     1
  6
CONTINUOUS
 10
11.4982
 20
4.0636
  0
VERTEX
  8
0
 62
     1
  6
CONTINUOUS
 10
11.7065
 20
4.0709
  0
VERTEX
  8
0
 62
     1
  6
CONTINUOUS
 10
11.9147
 20
4.0780
  0
VERTEX
  8
0
 62
     1
  6
CONTINUOUS
 10
12.1230
 20
4.0849
  0
VERTEX
  8
0
 62
     1
  6
CONTINUOUS
 10
12.3313
 20
4.0915
  0
VERTEX
  8
0
 62
     1
  6
CONTINUOUS
 10
12.5396
 20
4.0980
  0
VERTEX
  8
0
 62
     1
  6
CONTINUOUS
 10
12.7479
 20
4.1042
  0
VERTEX
  8
0
 62
     1
  6
CONTINUOUS
 10
12.9562
 20
4.1103
  0
VERTEX
  8
0
 62
     1
  6
CONTINUOUS
 10
13.1644
 20
4.1162
  0
VERTEX
  8
0
 62
     1
  6
CONTINUOUS
 10
13.3727
 20
4.1218
  0
VERTEX
  8
0
 62
     1
  6
CONTINUOUS
 10
13.5809
 20
4.1274
  0
VERTEX
  8
0
 62
     1
  6
CONTINUOUS
 10
13.7892
 20
4.1327
  0
VERTEX
  8
0
 62
     1
  6
CONTINUOUS
 10
13.9974
 20
4.1378
  0
VERTEX
  8
0
 62
     1
  6
CONTINUOUS
 10
14.2057
 20
4.1427
  0
VERTEX
  8
0
 62
     1
  6
CONTINUOUS
 10
14.4140
 20
4.1474
  0
VERTEX
  8
0
 62
     1
  6
CONTINUOUS
 10
14.6222
 20
4.1519
  0
VERTEX
  8
0
 62
     1
  6
CONTINUOUS
 10
14.8305
 20
4.1562
  0
VERTEX
  8
0
 62
     1
  6
CONTINUOUS
 10
15.0388
 20
4.1603
  0
VERTEX
  8
0
 62
     1
  6
CONTINUOUS
 10
15.2471
 20
4.1642
  0
VERTEX
  8
0
 62
     1
  6
CONTINUOUS
 10
15.6635
 20
4.1713
  0
VERTEX
  8
0
 62
     1
  6
CONTINUOUS
 10
16.0800
 20
4.1777
  0
VERTEX
  8
0
 62
     1
  6
CONTINUOUS
 10
16.4965
 20
4.1833
  0
VERTEX
  8
0
 62
     1
  6
CONTINUOUS
 10
16.9130
 20
4.1883
  0
VERTEX
  8
0
 62
     1
  6
CONTINUOUS
 10
17.3295
 20
4.1927
  0
VERTEX
  8
0
 62
     1
  6
CONTINUOUS
 10
17.7460
 20
4.1967
  0
VERTEX
  8
0
 62
     1
  6
CONTINUOUS
 10
18.1626
 20
4.2002
  0
VERTEX
  8
0
 62
     1
  6
CONTINUOUS
 10
18.5791
 20
4.2034
  0
VERTEX
  8
0
 62
     1
  6
CONTINUOUS
 10
18.9956
 20
4.2063
  0
VERTEX
  8
0
 62
     1
  6
CONTINUOUS
 10
19.4122
 20
4.2090
  0
VERTEX
  8
0
 62
     1
  6
CONTINUOUS
 10
19.8287
 20
4.2116
  0
VERTEX
  8
0
 62
     1
  6
CONTINUOUS
 10
20.2453
 20
4.2142
  0
VERTEX
  8
0
 62
     1
  6
CONTINUOUS
 10
20.6618
 20
4.2167
  0
VERTEX
  8
0
 62
     1
  6
CONTINUOUS
 10
21.0783
 20
4.2193
  0
VERTEX
  8
0
 62
     1
  6
CONTINUOUS
 10
21.4948
 20
4.2218
  0
VERTEX
  8
0
 62
     1
  6
CONTINUOUS
 10
21.9113
 20
4.2243
  0
VERTEX
  8
0
 62
     1
  6
CONTINUOUS
 10
22.3278
 20
4.2267
  0
VERTEX
  8
0
 62
     1
  6
CONTINUOUS
 10
22.7444
 20
4.2290
  0
VERTEX
  8
0
 62
     1
  6
CONTINUOUS
 10
23.1609
 20
4.2311
  0
VERTEX
  8
0
 62
     1
  6
CONTINUOUS
 10
23.5774
 20
4.2331
  0
VERTEX
  8
0
 62
     1
  6
CONTINUOUS
 10
23.9939
 20
4.2350
  0
VERTEX
  8
0
 62
     1
  6
CONTINUOUS
 10
24.4104
 20
4.2366
  0
VERTEX
  8
0
 62
     1
  6
CONTINUOUS
 10
24.8269
 20
4.2380
  0
VERTEX
  8
0
 62
     1
  6
CONTINUOUS
 10
25.2435
 20
4.2392
  0
VERTEX
  8
0
 62
     1
  6
CONTINUOUS
 10
25.6600
 20
4.2401
  0
VERTEX
  8
0
 62
     1
  6
CONTINUOUS
 10
26.0765
 20
4.2406
  0
VERTEX
  8
0
 62
     1
  6
CONTINUOUS
 10
26.4930
 20
4.2410
  0
VERTEX
  8
0
 62
     1
  6
CONTINUOUS
 10
26.9095
 20
4.2410
  0
VERTEX
  8
0
 62
     1
  6
CONTINUOUS
 10
27.3261
 20
4.2407
  0
VERTEX
  8
0
 62
     1
  6
CONTINUOUS
 10
27.7426
 20
4.2400
  0
VERTEX
  8
0
 62
     1
  6
CONTINUOUS
 10
28.1591
 20
4.2391
  0
VERTEX
  8
0
 62
     1
  6
CONTINUOUS
 10
28.5756
 20
4.2378
  0
VERTEX
  8
0
 62
     1
  6
CONTINUOUS
 10
28.9921
 20
4.2362
  0
VERTEX
  8
0
 62
     1
  6
CONTINUOUS
 10
29.4087
 20
4.2342
  0
VERTEX
  8
0
 62
     1
  6
CONTINUOUS
 10
29.8252
 20
4.2319
  0
VERTEX
  8
0
 62
     1
  6
CONTINUOUS
 10
30.2417
 20
4.2292
  0
VERTEX
  8
0
 62
     1
  6
CONTINUOUS
 10
30.6582
 20
4.2261
  0
VERTEX
  8
0
 62
     1
  6
CONTINUOUS
 10
31.0748
 20
4.2226
  0
VERTEX
  8
0
 62
     1
  6
CONTINUOUS
 10
31.4913
 20
4.2188
  0
VERTEX
  8
0
 62
     1
  6
CONTINUOUS
 10
31.9078
 20
4.2145
  0
VERTEX
  8
0
 62
     1
  6
CONTINUOUS
 10
32.3244
 20
4.2098
  0
VERTEX
  8
0
 62
     1
  6
CONTINUOUS
 10
32.7409
 20
4.2047
  0
VERTEX
  8
0
 62
     1
  6
CONTINUOUS
 10
33.1574
 20
4.1991
  0
VERTEX
  8
0
 62
     1
  6
CONTINUOUS
 10
33.5739
 20
4.1931
  0
VERTEX
  8
0
 62
     1
  6
CONTINUOUS
 10
33.9904
 20
4.1866
  0
VERTEX
  8
0
 62
     1
  6
CONTINUOUS
 10
34.4069
 20
4.1796
  0
VERTEX
  8
0
 62
     1
  6
CONTINUOUS
 10
34.8234
 20
4.1722
  0
VERTEX
  8
0
 62
     1
  6
CONTINUOUS
 10
35.2399
 20
4.1642
  0
VERTEX
  8
0
 62
     1
  6
CONTINUOUS
 10
35.6564
 20
4.1557
  0
VERTEX
  8
0
 62
     1
  6
CONTINUOUS
 10
36.0730
 20
4.1468
  0
VERTEX
  8
0
 62
     1
  6
CONTINUOUS
 10
36.4895
 20
4.1374
  0
VERTEX
  8
0
 62
     1
  6
CONTINUOUS
 10
36.9060
 20
4.1277
  0
VERTEX
  8
0
 62
     1
  6
CONTINUOUS
 10
37.3225
 20
4.1177
  0
VERTEX
  8
0
 62
     1
  6
CONTINUOUS
 10
37.7390
 20
4.1075
  0
VERTEX
  8
0
 62
     1
  6
CONTINUOUS
 10
38.1556
 20
4.0971
  0
VERTEX
  8
0
 62
     1
  6
CONTINUOUS
 10
38.5721
 20
4.0865
  0
VERTEX
  8
0
 62
     1
  6
CONTINUOUS
 10
38.9886
 20
4.0759
  0
VERTEX
  8
0
 62
     1
  6
CONTINUOUS
 10
39.4051
 20
4.0653
  0
VERTEX
  8
0
 62
     1
  6
CONTINUOUS
 10
39.8216
 20
4.0547
  0
VERTEX
  8
0
 62
     1
  6
CONTINUOUS
 10
40.2381
 20
4.0442
  0
VERTEX
  8
0
 62
     1
  6
CONTINUOUS
 10
40.6546
 20
4.0339
  0
VERTEX
  8
0
 62
     1
  6
CONTINUOUS
 10
41.0711
 20
4.0237
  0
VERTEX
  8
0
 62
     1
  6
CONTINUOUS
 10
41.4876
 20
4.0136
  0
VERTEX
  8
0
 62
     1
  6
CONTINUOUS
 10
41.9041
 20
4.0037
  0
VERTEX
  8
0
 62
     1
  6
CONTINUOUS
 10
42.3206
 20
3.9940
  0
VERTEX
  8
0
 62
     1
  6
CONTINUOUS
 10
42.7371
 20
3.9843
  0
VERTEX
  8
0
 62
     1
  6
CONTINUOUS
 10
43.1536
 20
3.9748
  0
VERTEX
  8
0
 62
     1
  6
CONTINUOUS
 10
43.5702
 20
3.9655
  0
VERTEX
  8
0
 62
     1
  6
CONTINUOUS
 10
43.9867
 20
3.9562
  0
VERTEX
  8
0
 62
     1
  6
CONTINUOUS
 10
44.4032
 20
3.9471
  0
VERTEX
  8
0
 62
     1
  6
CONTINUOUS
 10
44.8197
 20
3.9381
  0
VERTEX
  8
0
 62
     1
  6
CONTINUOUS
 10
45.2363
 20
3.9293
  0
VERTEX
  8
0
 62
     1
  6
CONTINUOUS
 10
45.6528
 20
3.9205
  0
VERTEX
  8
0
 62
     1
  6
CONTINUOUS
 10
46.0693
 20
3.9119
  0
VERTEX
  8
0
 62
     1
  6
CONTINUOUS
 10
46.4858
 20
3.9033
  0
VERTEX
  8
0
 62
     1
  6
CONTINUOUS
 10
46.9023
 20
3.8949
  0
VERTEX
  8
0
 62
     1
  6
CONTINUOUS
 10
47.3189
 20
3.8865
  0
VERTEX
  8
0
 62
     1
  6
CONTINUOUS
 10
47.7354
 20
3.8782
  0
VERTEX
  8
0
 62
     1
  6
CONTINUOUS
 10
48.1519
 20
3.8700
  0
VERTEX
  8
0
 62
     1
  6
CONTINUOUS
 10
48.5684
 20
3.8618
  0
VERTEX
  8
0
 62
     1
  6
CONTINUOUS
 10
48.9849
 20
3.8536
  0
VERTEX
  8
0
 62
     1
  6
CONTINUOUS
 10
49.4015
 20
3.8455
  0
VERTEX
  8
0
 62
     1
  6
CONTINUOUS
 10
49.8180
 20
3.8374
  0
VERTEX
  8
0
 62
     1
  6
CONTINUOUS
 10
50.2345
 20
3.8293
  0
SEQEND
  8
0
  0
ENDSEC
  0
EOF
