  0
SECTION
  2
HEADER
  9
$ACADVER
  1
AC1004
  9
$EXTMIN
 10
0.0505
 20
0.8715
  9
$EXTMAX
 10
10.0502
 20
5.7877
  9
$LIMMIN
 10
0.0505
 20
0.8715
  9
$LIMMAX
 10
10.0502
 20
5.7877
  9
$INSBASE
 10
0.0
 20
0.0
  9
$VIEWCTR
 10
7.21903
 20
4.5
  9
$VIEWSIZE
 40
9.0
  9
$SNAPMODE
 70
     0
  9
$SNAPUNIT
 10
1.0
 20
1.0
  9
$SNAPBASE
 10
0.0
 20
0.0
  9
$SNAPANG
 50
0.0
  9
$SNAPSTYLE
 70
     0
  9
$SNAPISOPAIR
 70
     0
  9
$GRIDMODE
 70
     0
  9
$GRIDUNIT
 10
0.0
 20
0.0
  9
$ORTHOMODE
 70
     0
  9
$REGENMODE
 70
     1
  9
$FILLMODE
 70
     1
  9
$QTEXTMODE
 70
     0
  9
$DRAGMODE
 70
     2
  9
$LTSCALE
 40
1.0
  9
$OSMODE
 70
     0
  9
$ATTMODE
 70
     1
  9
$TEXTSIZE
 40
0.2
  9
$TRACEWID
 40
0.05
  9
$TEXTSTYLE
  7
STANDARD
  9
$CLAYER
  8
0
  9
$CELTYPE
  6
BYLAYER
  9
$CECOLOR
 62
   256
  9
$DIMSCALE
 40
1.0
  9
$DIMASZ
 40
0.18
  9
$DIMEXO
 40
0.0625
  9
$DIMDLI
 40
0.38
  9
$DIMRND
 40
0.0
  9
$DIMDLE
 40
0.0
  9
$DIMEXE
 40
0.18
  9
$DIMTP
 40
0.0
  9
$DIMTM
 40
0.0
  9
$DIMTXT
 40
0.18
  9
$DIMCEN
 40
0.09
  9
$DIMTSZ
 40
0.0
  9
$DIMTOL
 70
     0
  9
$DIMLIM
 70
     0
  9
$DIMTIH
 70
     1
  9
$DIMTOH
 70
     1
  9
$DIMSE1
 70
     0
  9
$DIMSE2
 70
     0
  9
$DIMTAD
 70
     0
  9
$DIMZIN
 70
     0
  9
$DIMBLK
  1

  9
$DIMASO
 70
     1
  9
$DIMSHO
 70
     0
  9
$DIMPOST
  1

  9
$DIMAPOST
  1

  9
$DIMALT
 70
     0
  9
$DIMALTD
 70
     2
  9
$DIMALTF
 40
25.4
  9
$DIMLFAC
 40
1.0
  9
$LUNITS
 70
     2
  9
$LUPREC
 70
     4
  9
$AXISMODE
 70
     0
  9
$AXISUNIT
 10
0.0
 20
0.0
  9
$SKETCHINC
 40
0.1
  9
$FILLETRAD
 40
0.0
  9
$AUNITS
 70
     0
  9
$AUPREC
 70
     0
  9
$MENU
  1
acad
  9
$ELEVATION
 40
0.0
  9
$THICKNESS
 40
0.0
  9
$VIEWDIR
 10
0.0
 20
0.0
 30
1.0
  9
$LIMCHECK
 70
     0
  9
$BLIPMODE
 70
     1
  9
$CHAMFERA
 40
0.0
  9
$CHAMFERB
 40
0.0
  9
$FASTZOOM
 70
     1
  9
$SKPOLY
 70
     0
  9
$TDCREATE
 40
2447222.5666886573
  9
$TDUPDATE
 40
2447222.5666886573
  9
$TDINDWG
 40
0.0000000000
  9
$TDUSRTIMER
 40
0.0000000000
  9
$USRTIMER
 70
     1
  9
$ANGBASE
 50
0.0
  9
$ANGDIR
 70
     0
  9
$PDMODE
 70
     0
  9
$PDSIZE
 40
0.0
  9
$PLINEWID
 40
0.0
  9
$COORDS
 70
     0
  9
$SPLFRAME
 70
     0
  9
$SPLINESEGS
 70
     8
  9
$ATTDIA
 70
     0
  9
$ATTREQ
 70
     1
  9
$USERI1
 70
     0
  9
$USERI2
 70
     0
  9
$USERI3
 70
     0
  9
$USERI4
 70
     0
  9
$USERI5
 70
     0
  9
$USERR1
 40
0.0
  9
$USERR2
 40
0.0
  9
$USERR3
 40
0.0
  9
$USERR4
 40
0.0
  9
$USERR5
 40
0.0
  0
ENDSEC
  0
SECTION
  2
TABLES
  0
TABLE
  2
LTYPE
 70
     13
  0
LTYPE
  2
CONTINUOUS
 70
    64
  3
Solid line
 72
    65
 73
     0
 40
0.0
  0
LTYPE
  2
DASHED
 70
    64
  3
__ __ __ __ __ __ __ __ __ __ __ __ __ __ __
 72
    65
 73
     2
 40
0.75
 49
0.5
 49
-0.25
  0
LTYPE
  2
HIDDEN
 70
    64
  3
_ _ _ _ _ _ _ _ _ _ _ _ _ _ _ _ _ _ _ _ _ _ _
 72
    65
 73
     2
 40
0.375
 49
0.25
 49
-0.125
  0
LTYPE
  2
CENTER
 70
    64
  3
____ _ ____ _ ____ _ ____ _ ____ _ ____ _ ____
 72
    65
 73
     4
 40
2.0
 49
1.25
 49
-0.25
 49
0.25
 49
-0.25
  0
LTYPE
  2
PHANTOM
 70
    64
  3
_____ _ _ _____ _ _ _____ _ _ _____ _ _ ____
 72
    65
 73
     6
 40
2.5
 49
1.25
 49
-0.25
 49
0.25
 49
-0.25
 49
0.25
 49
-0.25
  0
LTYPE
  2
DOT
 70
    64
  3
...............................................
 72
    65
 73
     2
 40
0.25
 49
0.0
 49
-0.25
  0
LTYPE
  2
DASHDOT
 70
    64
  3
__ . __ . __ . __ . __ . __ . __ . __ . __ . __
 72
    65
 73
     4
 40
1.0
 49
0.5
 49
-0.25
 49
0.0
 49
-0.25
  0
LTYPE
  2
BORDER
 70
    64
  3
__ __ . __ __ . __ __ . __ __ . __ __ . __ __
 72
    65
 73
     6
 40
1.75
 49
0.5
 49
-0.25
 49
0.5
 49
-0.25
 49
0.0
 49
-0.25
  0
LTYPE
  2
DIVIDE
 70
    64
  3
__ . . __ . . __ . . __ . . __ . . __ . . __
 72
    65
 73
     6
 40
1.25
 49
0.5
 49
-0.25
 49
0.0
 49
-0.25
 49
0.0
 49
-0.25
  0
LTYPE
  2
DCTYPE1
 70
    64
  3
__ . . __ . . __ . . __ . . __ . . __ . . __
 72
    65
 73
     8
 40
2.5
 49
0.5
 49
-0.25
 49
0.125
 49
-0.25
 49
0.25
 49
-0.25
 49
0.125
 49
-0.25
  0
LTYPE
  2
DCTYPE2
 70
    64
  3
__ . . __ . . __ . . __ . . __ . . __ . . __
 72
    65
 73
     6
 40
2.05
 49
1.0
 49
-0.3
 49
0.15
 49
-0.15
 49
0.15
 49
-0.3
  0
LTYPE
  2
DCTYPE3
 70
    64
  3
__ . . __ . . __ . . __ . . __ . . __ . . __
 72
    65
 73
     6
 40
2.5
 49
0.8
 49
-0.2
 49
0.8
 49
-0.2
 49
0.3
 49
-0.2
  0
LTYPE
  2
DCTYPE4
 70
    64
  3
__ . . __ . . __ . . __ . . __ . . __ . . __
 72
    65
 73
     10
 40
3.97
 49
1.75
 49
-0.3
 49
0.3
 49
-0.3
 49
0.06
 49
-0.3
 49
0.06
 49
-0.3
 49
0.3
 49
-0.3
  0
ENDTAB
  0
TABLE
  2
LAYER
 70
    153
  0
LAYER
  2
0
 70
 64
 62
     7
  6
CONTINUOUS
  0
ENDTAB
  0
ENDSEC
  0
SECTION
  2
BLOCKS
  0
ENDSEC
  0
SECTION
  2
ENTITIES
  0
TEXT
  8
0
 62
     7
 10
0.0505
 20
4.8714
 40
0.7636
 50
0.0000
 51
0.0000
  1
BENEDEK 8356B
 72
     5
 11
10.0502
 21
4.8714
  0
POLYLINE
  8
0
 62
     3
 66
     1
  6
CONTINUOUS
  0
VERTEX
  8
0
 62
     3
  6
CONTINUOUS
 10
0.0505
 20
0.9825
  0
VERTEX
  8
0
 62
     3
  6
CONTINUOUS
 10
0.0600
 20
0.9990
  0
VERTEX
  8
0
 62
     3
  6
CONTINUOUS
 10
0.0695
 20
1.0155
  0
VERTEX
  8
0
 62
     3
  6
CONTINUOUS
 10
0.0791
 20
1.0319
  0
VERTEX
  8
0
 62
     3
  6
CONTINUOUS
 10
0.0888
 20
1.0482
  0
VERTEX
  8
0
 62
     3
  6
CONTINUOUS
 10
0.0987
 20
1.0644
  0
VERTEX
  8
0
 62
     3
  6
CONTINUOUS
 10
0.1087
 20
1.0805
  0
VERTEX
  8
0
 62
     3
  6
CONTINUOUS
 10
0.1190
 20
1.0963
  0
VERTEX
  8
0
 62
     3
  6
CONTINUOUS
 10
0.1296
 20
1.1119
  0
VERTEX
  8
0
 62
     3
  6
CONTINUOUS
 10
0.1405
 20
1.1273
  0
VERTEX
  8
0
 62
     3
  6
CONTINUOUS
 10
0.1518
 20
1.1424
  0
VERTEX
  8
0
 62
     3
  6
CONTINUOUS
 10
0.1634
 20
1.1571
  0
VERTEX
  8
0
 62
     3
  6
CONTINUOUS
 10
0.1755
 20
1.1715
  0
VERTEX
  8
0
 62
     3
  6
CONTINUOUS
 10
0.1849
 20
1.1820
  0
VERTEX
  8
0
 62
     3
  6
CONTINUOUS
 10
0.1945
 20
1.1923
  0
VERTEX
  8
0
 62
     3
  6
CONTINUOUS
 10
0.2043
 20
1.2024
  0
VERTEX
  8
0
 62
     3
  6
CONTINUOUS
 10
0.2144
 20
1.2124
  0
VERTEX
  8
0
 62
     3
  6
CONTINUOUS
 10
0.2246
 20
1.2221
  0
VERTEX
  8
0
 62
     3
  6
CONTINUOUS
 10
0.2351
 20
1.2317
  0
VERTEX
  8
0
 62
     3
  6
CONTINUOUS
 10
0.2457
 20
1.2412
  0
VERTEX
  8
0
 62
     3
  6
CONTINUOUS
 10
0.2564
 20
1.2505
  0
VERTEX
  8
0
 62
     3
  6
CONTINUOUS
 10
0.2673
 20
1.2597
  0
VERTEX
  8
0
 62
     3
  6
CONTINUOUS
 10
0.2783
 20
1.2687
  0
VERTEX
  8
0
 62
     3
  6
CONTINUOUS
 10
0.2893
 20
1.2776
  0
VERTEX
  8
0
 62
     3
  6
CONTINUOUS
 10
0.3005
 20
1.2865
  0
VERTEX
  8
0
 62
     3
  6
CONTINUOUS
 10
0.3204
 20
1.3019
  0
VERTEX
  8
0
 62
     3
  6
CONTINUOUS
 10
0.3405
 20
1.3171
  0
VERTEX
  8
0
 62
     3
  6
CONTINUOUS
 10
0.3608
 20
1.3320
  0
VERTEX
  8
0
 62
     3
  6
CONTINUOUS
 10
0.3812
 20
1.3466
  0
VERTEX
  8
0
 62
     3
  6
CONTINUOUS
 10
0.4018
 20
1.3610
  0
VERTEX
  8
0
 62
     3
  6
CONTINUOUS
 10
0.4226
 20
1.3751
  0
VERTEX
  8
0
 62
     3
  6
CONTINUOUS
 10
0.4435
 20
1.3889
  0
VERTEX
  8
0
 62
     3
  6
CONTINUOUS
 10
0.4646
 20
1.4025
  0
VERTEX
  8
0
 62
     3
  6
CONTINUOUS
 10
0.4859
 20
1.4159
  0
VERTEX
  8
0
 62
     3
  6
CONTINUOUS
 10
0.5073
 20
1.4290
  0
VERTEX
  8
0
 62
     3
  6
CONTINUOUS
 10
0.5288
 20
1.4418
  0
VERTEX
  8
0
 62
     3
  6
CONTINUOUS
 10
0.5505
 20
1.4545
  0
VERTEX
  8
0
 62
     3
  6
CONTINUOUS
 10
0.5707
 20
1.4660
  0
VERTEX
  8
0
 62
     3
  6
CONTINUOUS
 10
0.5911
 20
1.4773
  0
VERTEX
  8
0
 62
     3
  6
CONTINUOUS
 10
0.6116
 20
1.4884
  0
VERTEX
  8
0
 62
     3
  6
CONTINUOUS
 10
0.6321
 20
1.4993
  0
VERTEX
  8
0
 62
     3
  6
CONTINUOUS
 10
0.6528
 20
1.5100
  0
VERTEX
  8
0
 62
     3
  6
CONTINUOUS
 10
0.6736
 20
1.5206
  0
VERTEX
  8
0
 62
     3
  6
CONTINUOUS
 10
0.6945
 20
1.5309
  0
VERTEX
  8
0
 62
     3
  6
CONTINUOUS
 10
0.7155
 20
1.5410
  0
VERTEX
  8
0
 62
     3
  6
CONTINUOUS
 10
0.7366
 20
1.5509
  0
VERTEX
  8
0
 62
     3
  6
CONTINUOUS
 10
0.7578
 20
1.5606
  0
VERTEX
  8
0
 62
     3
  6
CONTINUOUS
 10
0.7791
 20
1.5701
  0
VERTEX
  8
0
 62
     3
  6
CONTINUOUS
 10
0.8005
 20
1.5795
  0
VERTEX
  8
0
 62
     3
  6
CONTINUOUS
 10
0.8209
 20
1.5882
  0
VERTEX
  8
0
 62
     3
  6
CONTINUOUS
 10
0.8415
 20
1.5967
  0
VERTEX
  8
0
 62
     3
  6
CONTINUOUS
 10
0.8621
 20
1.6050
  0
VERTEX
  8
0
 62
     3
  6
CONTINUOUS
 10
0.8827
 20
1.6131
  0
VERTEX
  8
0
 62
     3
  6
CONTINUOUS
 10
0.9035
 20
1.6211
  0
VERTEX
  8
0
 62
     3
  6
CONTINUOUS
 10
0.9243
 20
1.6289
  0
VERTEX
  8
0
 62
     3
  6
CONTINUOUS
 10
0.9452
 20
1.6364
  0
VERTEX
  8
0
 62
     3
  6
CONTINUOUS
 10
0.9661
 20
1.6438
  0
VERTEX
  8
0
 62
     3
  6
CONTINUOUS
 10
0.9871
 20
1.6510
  0
VERTEX
  8
0
 62
     3
  6
CONTINUOUS
 10
1.0082
 20
1.6580
  0
VERTEX
  8
0
 62
     3
  6
CONTINUOUS
 10
1.0293
 20
1.6648
  0
VERTEX
  8
0
 62
     3
  6
CONTINUOUS
 10
1.0505
 20
1.6715
  0
VERTEX
  8
0
 62
     3
  6
CONTINUOUS
 10
1.0914
 20
1.6837
  0
VERTEX
  8
0
 62
     3
  6
CONTINUOUS
 10
1.1326
 20
1.6952
  0
VERTEX
  8
0
 62
     3
  6
CONTINUOUS
 10
1.1739
 20
1.7061
  0
VERTEX
  8
0
 62
     3
  6
CONTINUOUS
 10
1.2153
 20
1.7164
  0
VERTEX
  8
0
 62
     3
  6
CONTINUOUS
 10
1.2569
 20
1.7263
  0
VERTEX
  8
0
 62
     3
  6
CONTINUOUS
 10
1.2986
 20
1.7357
  0
VERTEX
  8
0
 62
     3
  6
CONTINUOUS
 10
1.3405
 20
1.7448
  0
VERTEX
  8
0
 62
     3
  6
CONTINUOUS
 10
1.3824
 20
1.7535
  0
VERTEX
  8
0
 62
     3
  6
CONTINUOUS
 10
1.4243
 20
1.7620
  0
VERTEX
  8
0
 62
     3
  6
CONTINUOUS
 10
1.4663
 20
1.7703
  0
VERTEX
  8
0
 62
     3
  6
CONTINUOUS
 10
1.5084
 20
1.7784
  0
VERTEX
  8
0
 62
     3
  6
CONTINUOUS
 10
1.5505
 20
1.7865
  0
VERTEX
  8
0
 62
     3
  6
CONTINUOUS
 10
1.5920
 20
1.7944
  0
VERTEX
  8
0
 62
     3
  6
CONTINUOUS
 10
1.6336
 20
1.8022
  0
VERTEX
  8
0
 62
     3
  6
CONTINUOUS
 10
1.6751
 20
1.8100
  0
VERTEX
  8
0
 62
     3
  6
CONTINUOUS
 10
1.7167
 20
1.8176
  0
VERTEX
  8
0
 62
     3
  6
CONTINUOUS
 10
1.7583
 20
1.8250
  0
VERTEX
  8
0
 62
     3
  6
CONTINUOUS
 10
1.7999
 20
1.8322
  0
VERTEX
  8
0
 62
     3
  6
CONTINUOUS
 10
1.8416
 20
1.8392
  0
VERTEX
  8
0
 62
     3
  6
CONTINUOUS
 10
1.8832
 20
1.8458
  0
VERTEX
  8
0
 62
     3
  6
CONTINUOUS
 10
1.9250
 20
1.8521
  0
VERTEX
  8
0
 62
     3
  6
CONTINUOUS
 10
1.9667
 20
1.8580
  0
VERTEX
  8
0
 62
     3
  6
CONTINUOUS
 10
2.0086
 20
1.8635
  0
VERTEX
  8
0
 62
     3
  6
CONTINUOUS
 10
2.0504
 20
1.8685
  0
VERTEX
  8
0
 62
     3
  6
CONTINUOUS
 10
2.0919
 20
1.8729
  0
VERTEX
  8
0
 62
     3
  6
CONTINUOUS
 10
2.1334
 20
1.8769
  0
VERTEX
  8
0
 62
     3
  6
CONTINUOUS
 10
2.1750
 20
1.8805
  0
VERTEX
  8
0
 62
     3
  6
CONTINUOUS
 10
2.2166
 20
1.8836
  0
VERTEX
  8
0
 62
     3
  6
CONTINUOUS
 10
2.2583
 20
1.8865
  0
VERTEX
  8
0
 62
     3
  6
CONTINUOUS
 10
2.2999
 20
1.8890
  0
VERTEX
  8
0
 62
     3
  6
CONTINUOUS
 10
2.3417
 20
1.8912
  0
VERTEX
  8
0
 62
     3
  6
CONTINUOUS
 10
2.3834
 20
1.8932
  0
VERTEX
  8
0
 62
     3
  6
CONTINUOUS
 10
2.4251
 20
1.8950
  0
VERTEX
  8
0
 62
     3
  6
CONTINUOUS
 10
2.4669
 20
1.8966
  0
VERTEX
  8
0
 62
     3
  6
CONTINUOUS
 10
2.5087
 20
1.8981
  0
VERTEX
  8
0
 62
     3
  6
CONTINUOUS
 10
2.5504
 20
1.8995
  0
VERTEX
  8
0
 62
     3
  6
CONTINUOUS
 10
2.5921
 20
1.9008
  0
VERTEX
  8
0
 62
     3
  6
CONTINUOUS
 10
2.6338
 20
1.9020
  0
VERTEX
  8
0
 62
     3
  6
CONTINUOUS
 10
2.6755
 20
1.9032
  0
VERTEX
  8
0
 62
     3
  6
CONTINUOUS
 10
2.7171
 20
1.9043
  0
VERTEX
  8
0
 62
     3
  6
CONTINUOUS
 10
2.7588
 20
1.9053
  0
VERTEX
  8
0
 62
     3
  6
CONTINUOUS
 10
2.8005
 20
1.9061
  0
VERTEX
  8
0
 62
     3
  6
CONTINUOUS
 10
2.8421
 20
1.9069
  0
VERTEX
  8
0
 62
     3
  6
CONTINUOUS
 10
2.8838
 20
1.9075
  0
VERTEX
  8
0
 62
     3
  6
CONTINUOUS
 10
2.9254
 20
1.9080
  0
VERTEX
  8
0
 62
     3
  6
CONTINUOUS
 10
2.9671
 20
1.9083
  0
VERTEX
  8
0
 62
     3
  6
CONTINUOUS
 10
3.0088
 20
1.9085
  0
VERTEX
  8
0
 62
     3
  6
CONTINUOUS
 10
3.0504
 20
1.9085
  0
VERTEX
  8
0
 62
     3
  6
CONTINUOUS
 10
3.1338
 20
1.9079
  0
VERTEX
  8
0
 62
     3
  6
CONTINUOUS
 10
3.2172
 20
1.9066
  0
VERTEX
  8
0
 62
     3
  6
CONTINUOUS
 10
3.3006
 20
1.9047
  0
VERTEX
  8
0
 62
     3
  6
CONTINUOUS
 10
3.3840
 20
1.9021
  0
VERTEX
  8
0
 62
     3
  6
CONTINUOUS
 10
3.4673
 20
1.8989
  0
VERTEX
  8
0
 62
     3
  6
CONTINUOUS
 10
3.5507
 20
1.8952
  0
VERTEX
  8
0
 62
     3
  6
CONTINUOUS
 10
3.6340
 20
1.8909
  0
VERTEX
  8
0
 62
     3
  6
CONTINUOUS
 10
3.7174
 20
1.8861
  0
VERTEX
  8
0
 62
     3
  6
CONTINUOUS
 10
3.8007
 20
1.8808
  0
VERTEX
  8
0
 62
     3
  6
CONTINUOUS
 10
3.8839
 20
1.8751
  0
VERTEX
  8
0
 62
     3
  6
CONTINUOUS
 10
3.9672
 20
1.8690
  0
VERTEX
  8
0
 62
     3
  6
CONTINUOUS
 10
4.0504
 20
1.8625
  0
VERTEX
  8
0
 62
     3
  6
CONTINUOUS
 10
4.1339
 20
1.8556
  0
VERTEX
  8
0
 62
     3
  6
CONTINUOUS
 10
4.2174
 20
1.8483
  0
VERTEX
  8
0
 62
     3
  6
CONTINUOUS
 10
4.3008
 20
1.8408
  0
VERTEX
  8
0
 62
     3
  6
CONTINUOUS
 10
4.3842
 20
1.8329
  0
VERTEX
  8
0
 62
     3
  6
CONTINUOUS
 10
4.4676
 20
1.8247
  0
VERTEX
  8
0
 62
     3
  6
CONTINUOUS
 10
4.5510
 20
1.8162
  0
VERTEX
  8
0
 62
     3
  6
CONTINUOUS
 10
4.6343
 20
1.8074
  0
VERTEX
  8
0
 62
     3
  6
CONTINUOUS
 10
4.7175
 20
1.7983
  0
VERTEX
  8
0
 62
     3
  6
CONTINUOUS
 10
4.8008
 20
1.7890
  0
VERTEX
  8
0
 62
     3
  6
CONTINUOUS
 10
4.8840
 20
1.7794
  0
VERTEX
  8
0
 62
     3
  6
CONTINUOUS
 10
4.9672
 20
1.7695
  0
VERTEX
  8
0
 62
     3
  6
CONTINUOUS
 10
5.0504
 20
1.7595
  0
VERTEX
  8
0
 62
     3
  6
CONTINUOUS
 10
5.1338
 20
1.7491
  0
VERTEX
  8
0
 62
     3
  6
CONTINUOUS
 10
5.2173
 20
1.7385
  0
VERTEX
  8
0
 62
     3
  6
CONTINUOUS
 10
5.3007
 20
1.7277
  0
VERTEX
  8
0
 62
     3
  6
CONTINUOUS
 10
5.3841
 20
1.7167
  0
VERTEX
  8
0
 62
     3
  6
CONTINUOUS
 10
5.4675
 20
1.7054
  0
VERTEX
  8
0
 62
     3
  6
CONTINUOUS
 10
5.5508
 20
1.6940
  0
VERTEX
  8
0
 62
     3
  6
CONTINUOUS
 10
5.6341
 20
1.6824
  0
VERTEX
  8
0
 62
     3
  6
CONTINUOUS
 10
5.7174
 20
1.6705
  0
VERTEX
  8
0
 62
     3
  6
CONTINUOUS
 10
5.8007
 20
1.6585
  0
VERTEX
  8
0
 62
     3
  6
CONTINUOUS
 10
5.8839
 20
1.6463
  0
VERTEX
  8
0
 62
     3
  6
CONTINUOUS
 10
5.9671
 20
1.6340
  0
VERTEX
  8
0
 62
     3
  6
CONTINUOUS
 10
6.0503
 20
1.6215
  0
VERTEX
  8
0
 62
     3
  6
CONTINUOUS
 10
6.1337
 20
1.6087
  0
VERTEX
  8
0
 62
     3
  6
CONTINUOUS
 10
6.2172
 20
1.5959
  0
VERTEX
  8
0
 62
     3
  6
CONTINUOUS
 10
6.3005
 20
1.5828
  0
VERTEX
  8
0
 62
     3
  6
CONTINUOUS
 10
6.3839
 20
1.5697
  0
VERTEX
  8
0
 62
     3
  6
CONTINUOUS
 10
6.4672
 20
1.5565
  0
VERTEX
  8
0
 62
     3
  6
CONTINUOUS
 10
6.5506
 20
1.5431
  0
VERTEX
  8
0
 62
     3
  6
CONTINUOUS
 10
6.6339
 20
1.5297
  0
VERTEX
  8
0
 62
     3
  6
CONTINUOUS
 10
6.7172
 20
1.5161
  0
VERTEX
  8
0
 62
     3
  6
CONTINUOUS
 10
6.8005
 20
1.5025
  0
VERTEX
  8
0
 62
     3
  6
CONTINUOUS
 10
6.8837
 20
1.4889
  0
VERTEX
  8
0
 62
     3
  6
CONTINUOUS
 10
6.9670
 20
1.4752
  0
VERTEX
  8
0
 62
     3
  6
CONTINUOUS
 10
7.0503
 20
1.4615
  0
VERTEX
  8
0
 62
     3
  6
CONTINUOUS
 10
7.1337
 20
1.4477
  0
VERTEX
  8
0
 62
     3
  6
CONTINUOUS
 10
7.2171
 20
1.4339
  0
VERTEX
  8
0
 62
     3
  6
CONTINUOUS
 10
7.3005
 20
1.4200
  0
VERTEX
  8
0
 62
     3
  6
CONTINUOUS
 10
7.3838
 20
1.4061
  0
VERTEX
  8
0
 62
     3
  6
CONTINUOUS
 10
7.4672
 20
1.3921
  0
VERTEX
  8
0
 62
     3
  6
CONTINUOUS
 10
7.5506
 20
1.3781
  0
VERTEX
  8
0
 62
     3
  6
CONTINUOUS
 10
7.6339
 20
1.3639
  0
VERTEX
  8
0
 62
     3
  6
CONTINUOUS
 10
7.7172
 20
1.3497
  0
VERTEX
  8
0
 62
     3
  6
CONTINUOUS
 10
7.8005
 20
1.3353
  0
VERTEX
  8
0
 62
     3
  6
CONTINUOUS
 10
7.8838
 20
1.3209
  0
VERTEX
  8
0
 62
     3
  6
CONTINUOUS
 10
7.9670
 20
1.3062
  0
VERTEX
  8
0
 62
     3
  6
CONTINUOUS
 10
8.0503
 20
1.2915
  0
VERTEX
  8
0
 62
     3
  6
CONTINUOUS
 10
8.1337
 20
1.2765
  0
VERTEX
  8
0
 62
     3
  6
CONTINUOUS
 10
8.2172
 20
1.2614
  0
VERTEX
  8
0
 62
     3
  6
CONTINUOUS
 10
8.3006
 20
1.2461
  0
VERTEX
  8
0
 62
     3
  6
CONTINUOUS
 10
8.3839
 20
1.2307
  0
VERTEX
  8
0
 62
     3
  6
CONTINUOUS
 10
8.4673
 20
1.2152
  0
VERTEX
  8
0
 62
     3
  6
CONTINUOUS
 10
8.5506
 20
1.1995
  0
VERTEX
  8
0
 62
     3
  6
CONTINUOUS
 10
8.6339
 20
1.1838
  0
VERTEX
  8
0
 62
     3
  6
CONTINUOUS
 10
8.7172
 20
1.1679
  0
VERTEX
  8
0
 62
     3
  6
CONTINUOUS
 10
8.8005
 20
1.1519
  0
VERTEX
  8
0
 62
     3
  6
CONTINUOUS
 10
8.8838
 20
1.1359
  0
VERTEX
  8
0
 62
     3
  6
CONTINUOUS
 10
8.9670
 20
1.1197
  0
VERTEX
  8
0
 62
     3
  6
CONTINUOUS
 10
9.0502
 20
1.1035
  0
VERTEX
  8
0
 62
     3
  6
CONTINUOUS
 10
9.1336
 20
1.0871
  0
VERTEX
  8
0
 62
     3
  6
CONTINUOUS
 10
9.2170
 20
1.0707
  0
VERTEX
  8
0
 62
     3
  6
CONTINUOUS
 10
9.3003
 20
1.0543
  0
VERTEX
  8
0
 62
     3
  6
CONTINUOUS
 10
9.3837
 20
1.0378
  0
VERTEX
  8
0
 62
     3
  6
CONTINUOUS
 10
9.4670
 20
1.0212
  0
VERTEX
  8
0
 62
     3
  6
CONTINUOUS
 10
9.5503
 20
1.0046
  0
VERTEX
  8
0
 62
     3
  6
CONTINUOUS
 10
9.6337
 20
0.9880
  0
VERTEX
  8
0
 62
     3
  6
CONTINUOUS
 10
9.7170
 20
0.9713
  0
VERTEX
  8
0
 62
     3
  6
CONTINUOUS
 10
9.8003
 20
0.9546
  0
VERTEX
  8
0
 62
     3
  6
CONTINUOUS
 10
9.8836
 20
0.9379
  0
VERTEX
  8
0
 62
     3
  6
CONTINUOUS
 10
9.9669
 20
0.9212
  0
VERTEX
  8
0
 62
     3
  6
CONTINUOUS
 10
10.0502
 20
0.9045
  0
SEQEND
  8
0
  0
POLYLINE
  8
0
 62
     1
 66
     1
  6
CONTINUOUS
  0
VERTEX
  8
0
 62
     1
  6
CONTINUOUS
 10
0.0505
 20
0.9825
  0
VERTEX
  8
0
 62
     1
  6
CONTINUOUS
 10
0.0602
 20
0.9729
  0
VERTEX
  8
0
 62
     1
  6
CONTINUOUS
 10
0.0699
 20
0.9634
  0
VERTEX
  8
0
 62
     1
  6
CONTINUOUS
 10
0.0797
 20
0.9540
  0
VERTEX
  8
0
 62
     1
  6
CONTINUOUS
 10
0.0896
 20
0.9448
  0
VERTEX
  8
0
 62
     1
  6
CONTINUOUS
 10
0.0996
 20
0.9360
  0
VERTEX
  8
0
 62
     1
  6
CONTINUOUS
 10
0.1097
 20
0.9275
  0
VERTEX
  8
0
 62
     1
  6
CONTINUOUS
 10
0.1201
 20
0.9195
  0
VERTEX
  8
0
 62
     1
  6
CONTINUOUS
 10
0.1306
 20
0.9119
  0
VERTEX
  8
0
 62
     1
  6
CONTINUOUS
 10
0.1414
 20
0.9050
  0
VERTEX
  8
0
 62
     1
  6
CONTINUOUS
 10
0.1524
 20
0.8987
  0
VERTEX
  8
0
 62
     1
  6
CONTINUOUS
 10
0.1638
 20
0.8932
  0
VERTEX
  8
0
 62
     1
  6
CONTINUOUS
 10
0.1755
 20
0.8885
  0
VERTEX
  8
0
 62
     1
  6
CONTINUOUS
 10
0.1852
 20
0.8853
  0
VERTEX
  8
0
 62
     1
  6
CONTINUOUS
 10
0.1950
 20
0.8827
  0
VERTEX
  8
0
 62
     1
  6
CONTINUOUS
 10
0.2051
 20
0.8805
  0
VERTEX
  8
0
 62
     1
  6
CONTINUOUS
 10
0.2153
 20
0.8788
  0
VERTEX
  8
0
 62
     1
  6
CONTINUOUS
 10
0.2257
 20
0.8774
  0
VERTEX
  8
0
 62
     1
  6
CONTINUOUS
 10
0.2362
 20
0.8764
  0
VERTEX
  8
0
 62
     1
  6
CONTINUOUS
 10
0.2468
 20
0.8756
  0
VERTEX
  8
0
 62
     1
  6
CONTINUOUS
 10
0.2575
 20
0.8751
  0
VERTEX
  8
0
 62
     1
  6
CONTINUOUS
 10
0.2682
 20
0.8748
  0
VERTEX
  8
0
 62
     1
  6
CONTINUOUS
 10
0.2790
 20
0.8746
  0
VERTEX
  8
0
 62
     1
  6
CONTINUOUS
 10
0.2897
 20
0.8745
  0
VERTEX
  8
0
 62
     1
  6
CONTINUOUS
 10
0.3005
 20
0.8745
  0
VERTEX
  8
0
 62
     1
  6
CONTINUOUS
 10
0.3218
 20
0.8744
  0
VERTEX
  8
0
 62
     1
  6
CONTINUOUS
 10
0.3429
 20
0.8742
  0
VERTEX
  8
0
 62
     1
  6
CONTINUOUS
 10
0.3640
 20
0.8741
  0
VERTEX
  8
0
 62
     1
  6
CONTINUOUS
 10
0.3849
 20
0.8740
  0
VERTEX
  8
0
 62
     1
  6
CONTINUOUS
 10
0.4057
 20
0.8740
  0
VERTEX
  8
0
 62
     1
  6
CONTINUOUS
 10
0.4265
 20
0.8740
  0
VERTEX
  8
0
 62
     1
  6
CONTINUOUS
 10
0.4472
 20
0.8741
  0
VERTEX
  8
0
 62
     1
  6
CONTINUOUS
 10
0.4679
 20
0.8743
  0
VERTEX
  8
0
 62
     1
  6
CONTINUOUS
 10
0.4886
 20
0.8746
  0
VERTEX
  8
0
 62
     1
  6
CONTINUOUS
 10
0.5092
 20
0.8751
  0
VERTEX
  8
0
 62
     1
  6
CONTINUOUS
 10
0.5298
 20
0.8757
  0
VERTEX
  8
0
 62
     1
  6
CONTINUOUS
 10
0.5505
 20
0.8765
  0
VERTEX
  8
0
 62
     1
  6
CONTINUOUS
 10
0.5712
 20
0.8775
  0
VERTEX
  8
0
 62
     1
  6
CONTINUOUS
 10
0.5920
 20
0.8787
  0
VERTEX
  8
0
 62
     1
  6
CONTINUOUS
 10
0.6128
 20
0.8800
  0
VERTEX
  8
0
 62
     1
  6
CONTINUOUS
 10
0.6336
 20
0.8815
  0
VERTEX
  8
0
 62
     1
  6
CONTINUOUS
 10
0.6545
 20
0.8831
  0
VERTEX
  8
0
 62
     1
  6
CONTINUOUS
 10
0.6753
 20
0.8848
  0
VERTEX
  8
0
 62
     1
  6
CONTINUOUS
 10
0.6962
 20
0.8866
  0
VERTEX
  8
0
 62
     1
  6
CONTINUOUS
 10
0.7170
 20
0.8885
  0
VERTEX
  8
0
 62
     1
  6
CONTINUOUS
 10
0.7379
 20
0.8905
  0
VERTEX
  8
0
 62
     1
  6
CONTINUOUS
 10
0.7588
 20
0.8925
  0
VERTEX
  8
0
 62
     1
  6
CONTINUOUS
 10
0.7796
 20
0.8945
  0
VERTEX
  8
0
 62
     1
  6
CONTINUOUS
 10
0.8005
 20
0.8965
  0
VERTEX
  8
0
 62
     1
  6
CONTINUOUS
 10
0.8214
 20
0.8985
  0
VERTEX
  8
0
 62
     1
  6
CONTINUOUS
 10
0.8422
 20
0.9005
  0
VERTEX
  8
0
 62
     1
  6
CONTINUOUS
 10
0.8631
 20
0.9025
  0
VERTEX
  8
0
 62
     1
  6
CONTINUOUS
 10
0.8840
 20
0.9045
  0
VERTEX
  8
0
 62
     1
  6
CONTINUOUS
 10
0.9048
 20
0.9065
  0
VERTEX
  8
0
 62
     1
  6
CONTINUOUS
 10
0.9256
 20
0.9085
  0
VERTEX
  8
0
 62
     1
  6
CONTINUOUS
 10
0.9465
 20
0.9105
  0
VERTEX
  8
0
 62
     1
  6
CONTINUOUS
 10
0.9673
 20
0.9126
  0
VERTEX
  8
0
 62
     1
  6
CONTINUOUS
 10
0.9881
 20
0.9148
  0
VERTEX
  8
0
 62
     1
  6
CONTINUOUS
 10
1.0089
 20
0.9169
  0
VERTEX
  8
0
 62
     1
  6
CONTINUOUS
 10
1.0297
 20
0.9192
  0
VERTEX
  8
0
 62
     1
  6
CONTINUOUS
 10
1.0505
 20
0.9215
  0
VERTEX
  8
0
 62
     1
  6
CONTINUOUS
 10
1.0922
 20
0.9263
  0
VERTEX
  8
0
 62
     1
  6
CONTINUOUS
 10
1.1339
 20
0.9314
  0
VERTEX
  8
0
 62
     1
  6
CONTINUOUS
 10
1.1757
 20
0.9367
  0
VERTEX
  8
0
 62
     1
  6
CONTINUOUS
 10
1.2173
 20
0.9422
  0
VERTEX
  8
0
 62
     1
  6
CONTINUOUS
 10
1.2590
 20
0.9479
  0
VERTEX
  8
0
 62
     1
  6
CONTINUOUS
 10
1.3007
 20
0.9537
  0
VERTEX
  8
0
 62
     1
  6
CONTINUOUS
 10
1.3423
 20
0.9597
  0
VERTEX
  8
0
 62
     1
  6
CONTINUOUS
 10
1.3840
 20
0.9658
  0
VERTEX
  8
0
 62
     1
  6
CONTINUOUS
 10
1.4256
 20
0.9719
  0
VERTEX
  8
0
 62
     1
  6
CONTINUOUS
 10
1.4672
 20
0.9781
  0
VERTEX
  8
0
 62
     1
  6
CONTINUOUS
 10
1.5088
 20
0.9843
  0
VERTEX
  8
0
 62
     1
  6
CONTINUOUS
 10
1.5505
 20
0.9905
  0
VERTEX
  8
0
 62
     1
  6
CONTINUOUS
 10
1.5921
 20
0.9966
  0
VERTEX
  8
0
 62
     1
  6
CONTINUOUS
 10
1.6337
 20
1.0027
  0
VERTEX
  8
0
 62
     1
  6
CONTINUOUS
 10
1.6753
 20
1.0088
  0
VERTEX
  8
0
 62
     1
  6
CONTINUOUS
 10
1.7169
 20
1.0147
  0
VERTEX
  8
0
 62
     1
  6
CONTINUOUS
 10
1.7586
 20
1.0206
  0
VERTEX
  8
0
 62
     1
  6
CONTINUOUS
 10
1.8002
 20
1.0264
  0
VERTEX
  8
0
 62
     1
  6
CONTINUOUS
 10
1.8419
 20
1.0321
  0
VERTEX
  8
0
 62
     1
  6
CONTINUOUS
 10
1.8836
 20
1.0377
  0
VERTEX
  8
0
 62
     1
  6
CONTINUOUS
 10
1.9253
 20
1.0431
  0
VERTEX
  8
0
 62
     1
  6
CONTINUOUS
 10
1.9670
 20
1.0484
  0
VERTEX
  8
0
 62
     1
  6
CONTINUOUS
 10
2.0087
 20
1.0535
  0
VERTEX
  8
0
 62
     1
  6
CONTINUOUS
 10
2.0504
 20
1.0585
  0
VERTEX
  8
0
 62
     1
  6
CONTINUOUS
 10
2.0920
 20
1.0632
  0
VERTEX
  8
0
 62
     1
  6
CONTINUOUS
 10
2.1336
 20
1.0678
  0
VERTEX
  8
0
 62
     1
  6
CONTINUOUS
 10
2.1752
 20
1.0723
  0
VERTEX
  8
0
 62
     1
  6
CONTINUOUS
 10
2.2169
 20
1.0766
  0
VERTEX
  8
0
 62
     1
  6
CONTINUOUS
 10
2.2585
 20
1.0807
  0
VERTEX
  8
0
 62
     1
  6
CONTINUOUS
 10
2.3002
 20
1.0847
  0
VERTEX
  8
0
 62
     1
  6
CONTINUOUS
 10
2.3419
 20
1.0886
  0
VERTEX
  8
0
 62
     1
  6
CONTINUOUS
 10
2.3836
 20
1.0924
  0
VERTEX
  8
0
 62
     1
  6
CONTINUOUS
 10
2.4253
 20
1.0960
  0
VERTEX
  8
0
 62
     1
  6
CONTINUOUS
 10
2.4670
 20
1.0996
  0
VERTEX
  8
0
 62
     1
  6
CONTINUOUS
 10
2.5087
 20
1.1031
  0
VERTEX
  8
0
 62
     1
  6
CONTINUOUS
 10
2.5504
 20
1.1065
  0
VERTEX
  8
0
 62
     1
  6
CONTINUOUS
 10
2.5921
 20
1.1098
  0
VERTEX
  8
0
 62
     1
  6
CONTINUOUS
 10
2.6337
 20
1.1131
  0
VERTEX
  8
0
 62
     1
  6
CONTINUOUS
 10
2.6754
 20
1.1162
  0
VERTEX
  8
0
 62
     1
  6
CONTINUOUS
 10
2.7170
 20
1.1193
  0
VERTEX
  8
0
 62
     1
  6
CONTINUOUS
 10
2.7587
 20
1.1224
  0
VERTEX
  8
0
 62
     1
  6
CONTINUOUS
 10
2.8003
 20
1.1253
  0
VERTEX
  8
0
 62
     1
  6
CONTINUOUS
 10
2.8420
 20
1.1282
  0
VERTEX
  8
0
 62
     1
  6
CONTINUOUS
 10
2.8837
 20
1.1310
  0
VERTEX
  8
0
 62
     1
  6
CONTINUOUS
 10
2.9253
 20
1.1338
  0
VERTEX
  8
0
 62
     1
  6
CONTINUOUS
 10
2.9670
 20
1.1364
  0
VERTEX
  8
0
 62
     1
  6
CONTINUOUS
 10
3.0087
 20
1.1390
  0
VERTEX
  8
0
 62
     1
  6
CONTINUOUS
 10
3.0504
 20
1.1415
  0
VERTEX
  8
0
 62
     1
  6
CONTINUOUS
 10
3.1337
 20
1.1462
  0
VERTEX
  8
0
 62
     1
  6
CONTINUOUS
 10
3.2169
 20
1.1506
  0
VERTEX
  8
0
 62
     1
  6
CONTINUOUS
 10
3.3002
 20
1.1546
  0
VERTEX
  8
0
 62
     1
  6
CONTINUOUS
 10
3.3835
 20
1.1583
  0
VERTEX
  8
0
 62
     1
  6
CONTINUOUS
 10
3.4668
 20
1.1617
  0
VERTEX
  8
0
 62
     1
  6
CONTINUOUS
 10
3.5502
 20
1.1648
  0
VERTEX
  8
0
 62
     1
  6
CONTINUOUS
 10
3.6335
 20
1.1676
  0
VERTEX
  8
0
 62
     1
  6
CONTINUOUS
 10
3.7169
 20
1.1700
  0
VERTEX
  8
0
 62
     1
  6
CONTINUOUS
 10
3.8003
 20
1.1721
  0
VERTEX
  8
0
 62
     1
  6
CONTINUOUS
 10
3.8836
 20
1.1739
  0
VERTEX
  8
0
 62
     1
  6
CONTINUOUS
 10
3.9670
 20
1.1753
  0
VERTEX
  8
0
 62
     1
  6
CONTINUOUS
 10
4.0504
 20
1.1765
  0
VERTEX
  8
0
 62
     1
  6
CONTINUOUS
 10
4.1337
 20
1.1773
  0
VERTEX
  8
0
 62
     1
  6
CONTINUOUS
 10
4.2171
 20
1.1778
  0
VERTEX
  8
0
 62
     1
  6
CONTINUOUS
 10
4.3004
 20
1.1781
  0
VERTEX
  8
0
 62
     1
  6
CONTINUOUS
 10
4.3837
 20
1.1780
  0
VERTEX
  8
0
 62
     1
  6
CONTINUOUS
 10
4.4671
 20
1.1777
  0
VERTEX
  8
0
 62
     1
  6
CONTINUOUS
 10
4.5504
 20
1.1772
  0
VERTEX
  8
0
 62
     1
  6
CONTINUOUS
 10
4.6337
 20
1.1764
  0
VERTEX
  8
0
 62
     1
  6
CONTINUOUS
 10
4.7171
 20
1.1754
  0
VERTEX
  8
0
 62
     1
  6
CONTINUOUS
 10
4.8004
 20
1.1742
  0
VERTEX
  8
0
 62
     1
  6
CONTINUOUS
 10
4.8837
 20
1.1728
  0
VERTEX
  8
0
 62
     1
  6
CONTINUOUS
 10
4.9670
 20
1.1712
  0
VERTEX
  8
0
 62
     1
  6
CONTINUOUS
 10
5.0504
 20
1.1695
  0
VERTEX
  8
0
 62
     1
  6
CONTINUOUS
 10
5.1337
 20
1.1676
  0
VERTEX
  8
0
 62
     1
  6
CONTINUOUS
 10
5.2171
 20
1.1655
  0
VERTEX
  8
0
 62
     1
  6
CONTINUOUS
 10
5.3004
 20
1.1634
  0
VERTEX
  8
0
 62
     1
  6
CONTINUOUS
 10
5.3837
 20
1.1610
  0
VERTEX
  8
0
 62
     1
  6
CONTINUOUS
 10
5.4671
 20
1.1586
  0
VERTEX
  8
0
 62
     1
  6
CONTINUOUS
 10
5.5504
 20
1.1560
  0
VERTEX
  8
0
 62
     1
  6
CONTINUOUS
 10
5.6337
 20
1.1534
  0
VERTEX
  8
0
 62
     1
  6
CONTINUOUS
 10
5.7171
 20
1.1506
  0
VERTEX
  8
0
 62
     1
  6
CONTINUOUS
 10
5.8004
 20
1.1477
  0
VERTEX
  8
0
 62
     1
  6
CONTINUOUS
 10
5.8837
 20
1.1447
  0
VERTEX
  8
0
 62
     1
  6
CONTINUOUS
 10
5.9670
 20
1.1416
  0
VERTEX
  8
0
 62
     1
  6
CONTINUOUS
 10
6.0503
 20
1.1385
  0
VERTEX
  8
0
 62
     1
  6
CONTINUOUS
 10
6.1337
 20
1.1352
  0
VERTEX
  8
0
 62
     1
  6
CONTINUOUS
 10
6.2170
 20
1.1319
  0
VERTEX
  8
0
 62
     1
  6
CONTINUOUS
 10
6.3004
 20
1.1285
  0
VERTEX
  8
0
 62
     1
  6
CONTINUOUS
 10
6.3837
 20
1.1250
  0
VERTEX
  8
0
 62
     1
  6
CONTINUOUS
 10
6.4671
 20
1.1214
  0
VERTEX
  8
0
 62
     1
  6
CONTINUOUS
 10
6.5504
 20
1.1178
  0
VERTEX
  8
0
 62
     1
  6
CONTINUOUS
 10
6.6337
 20
1.1140
  0
VERTEX
  8
0
 62
     1
  6
CONTINUOUS
 10
6.7170
 20
1.1101
  0
VERTEX
  8
0
 62
     1
  6
CONTINUOUS
 10
6.8004
 20
1.1061
  0
VERTEX
  8
0
 62
     1
  6
CONTINUOUS
 10
6.8837
 20
1.1020
  0
VERTEX
  8
0
 62
     1
  6
CONTINUOUS
 10
6.9670
 20
1.0978
  0
VERTEX
  8
0
 62
     1
  6
CONTINUOUS
 10
7.0503
 20
1.0935
  0
VERTEX
  8
0
 62
     1
  6
CONTINUOUS
 10
7.1337
 20
1.0890
  0
VERTEX
  8
0
 62
     1
  6
CONTINUOUS
 10
7.2170
 20
1.0845
  0
VERTEX
  8
0
 62
     1
  6
CONTINUOUS
 10
7.3004
 20
1.0798
  0
VERTEX
  8
0
 62
     1
  6
CONTINUOUS
 10
7.3837
 20
1.0750
  0
VERTEX
  8
0
 62
     1
  6
CONTINUOUS
 10
7.4670
 20
1.0701
  0
VERTEX
  8
0
 62
     1
  6
CONTINUOUS
 10
7.5504
 20
1.0652
  0
VERTEX
  8
0
 62
     1
  6
CONTINUOUS
 10
7.6337
 20
1.0601
  0
VERTEX
  8
0
 62
     1
  6
CONTINUOUS
 10
7.7170
 20
1.0549
  0
VERTEX
  8
0
 62
     1
  6
CONTINUOUS
 10
7.8003
 20
1.0497
  0
VERTEX
  8
0
 62
     1
  6
CONTINUOUS
 10
7.8836
 20
1.0444
  0
VERTEX
  8
0
 62
     1
  6
CONTINUOUS
 10
7.9670
 20
1.0390
  0
VERTEX
  8
0
 62
     1
  6
CONTINUOUS
 10
8.0503
 20
1.0335
  0
VERTEX
  8
0
 62
     1
  6
CONTINUOUS
 10
8.1336
 20
1.0279
  0
VERTEX
  8
0
 62
     1
  6
CONTINUOUS
 10
8.2170
 20
1.0223
  0
VERTEX
  8
0
 62
     1
  6
CONTINUOUS
 10
8.3004
 20
1.0166
  0
VERTEX
  8
0
 62
     1
  6
CONTINUOUS
 10
8.3837
 20
1.0108
  0
VERTEX
  8
0
 62
     1
  6
CONTINUOUS
 10
8.4671
 20
1.0049
  0
VERTEX
  8
0
 62
     1
  6
CONTINUOUS
 10
8.5504
 20
0.9989
  0
VERTEX
  8
0
 62
     1
  6
CONTINUOUS
 10
8.6337
 20
0.9928
  0
VERTEX
  8
0
 62
     1
  6
CONTINUOUS
 10
8.7170
 20
0.9866
  0
VERTEX
  8
0
 62
     1
  6
CONTINUOUS
 10
8.8004
 20
0.9803
  0
VERTEX
  8
0
 62
     1
  6
CONTINUOUS
 10
8.8837
 20
0.9738
  0
VERTEX
  8
0
 62
     1
  6
CONTINUOUS
 10
8.9670
 20
0.9672
  0
VERTEX
  8
0
 62
     1
  6
CONTINUOUS
 10
9.0502
 20
0.9605
  0
VERTEX
  8
0
 62
     1
  6
CONTINUOUS
 10
9.1336
 20
0.9536
  0
VERTEX
  8
0
 62
     1
  6
CONTINUOUS
 10
9.2170
 20
0.9466
  0
VERTEX
  8
0
 62
     1
  6
CONTINUOUS
 10
9.3003
 20
0.9394
  0
VERTEX
  8
0
 62
     1
  6
CONTINUOUS
 10
9.3837
 20
0.9321
  0
VERTEX
  8
0
 62
     1
  6
CONTINUOUS
 10
9.4670
 20
0.9248
  0
VERTEX
  8
0
 62
     1
  6
CONTINUOUS
 10
9.5503
 20
0.9173
  0
VERTEX
  8
0
 62
     1
  6
CONTINUOUS
 10
9.6337
 20
0.9098
  0
VERTEX
  8
0
 62
     1
  6
CONTINUOUS
 10
9.7170
 20
0.9022
  0
VERTEX
  8
0
 62
     1
  6
CONTINUOUS
 10
9.8003
 20
0.8946
  0
VERTEX
  8
0
 62
     1
  6
CONTINUOUS
 10
9.8836
 20
0.8869
  0
VERTEX
  8
0
 62
     1
  6
CONTINUOUS
 10
9.9669
 20
0.8792
  0
VERTEX
  8
0
 62
     1
  6
CONTINUOUS
 10
10.0502
 20
0.8715
  0
SEQEND
  8
0
  0
ENDSEC
  0
EOF
