  0
SECTION
  2
HEADER
  9
$ACADVER
  1
AC1004
  9
$EXTMIN
 10
0.0505
 20
0.8996
  9
$EXTMAX
 10
10.0503
 20
5.7508
  9
$LIMMIN
 10
0.0505
 20
0.8996
  9
$LIMMAX
 10
10.0503
 20
5.7508
  9
$INSBASE
 10
0.0
 20
0.0
  9
$VIEWCTR
 10
7.21903
 20
4.5
  9
$VIEWSIZE
 40
9.0
  9
$SNAPMODE
 70
     0
  9
$SNAPUNIT
 10
1.0
 20
1.0
  9
$SNAPBASE
 10
0.0
 20
0.0
  9
$SNAPANG
 50
0.0
  9
$SNAPSTYLE
 70
     0
  9
$SNAPISOPAIR
 70
     0
  9
$GRIDMODE
 70
     0
  9
$GRIDUNIT
 10
0.0
 20
0.0
  9
$ORTHOMODE
 70
     0
  9
$REGENMODE
 70
     1
  9
$FILLMODE
 70
     1
  9
$QTEXTMODE
 70
     0
  9
$DRAGMODE
 70
     2
  9
$LTSCALE
 40
1.0
  9
$OSMODE
 70
     0
  9
$ATTMODE
 70
     1
  9
$TEXTSIZE
 40
0.2
  9
$TRACEWID
 40
0.05
  9
$TEXTSTYLE
  7
STANDARD
  9
$CLAYER
  8
0
  9
$CELTYPE
  6
BYLAYER
  9
$CECOLOR
 62
   256
  9
$DIMSCALE
 40
1.0
  9
$DIMASZ
 40
0.18
  9
$DIMEXO
 40
0.0625
  9
$DIMDLI
 40
0.38
  9
$DIMRND
 40
0.0
  9
$DIMDLE
 40
0.0
  9
$DIMEXE
 40
0.18
  9
$DIMTP
 40
0.0
  9
$DIMTM
 40
0.0
  9
$DIMTXT
 40
0.18
  9
$DIMCEN
 40
0.09
  9
$DIMTSZ
 40
0.0
  9
$DIMTOL
 70
     0
  9
$DIMLIM
 70
     0
  9
$DIMTIH
 70
     1
  9
$DIMTOH
 70
     1
  9
$DIMSE1
 70
     0
  9
$DIMSE2
 70
     0
  9
$DIMTAD
 70
     0
  9
$DIMZIN
 70
     0
  9
$DIMBLK
  1

  9
$DIMASO
 70
     1
  9
$DIMSHO
 70
     0
  9
$DIMPOST
  1

  9
$DIMAPOST
  1

  9
$DIMALT
 70
     0
  9
$DIMALTD
 70
     2
  9
$DIMALTF
 40
25.4
  9
$DIMLFAC
 40
1.0
  9
$LUNITS
 70
     2
  9
$LUPREC
 70
     4
  9
$AXISMODE
 70
     0
  9
$AXISUNIT
 10
0.0
 20
0.0
  9
$SKETCHINC
 40
0.1
  9
$FILLETRAD
 40
0.0
  9
$AUNITS
 70
     0
  9
$AUPREC
 70
     0
  9
$MENU
  1
acad
  9
$ELEVATION
 40
0.0
  9
$THICKNESS
 40
0.0
  9
$VIEWDIR
 10
0.0
 20
0.0
 30
1.0
  9
$LIMCHECK
 70
     0
  9
$BLIPMODE
 70
     1
  9
$CHAMFERA
 40
0.0
  9
$CHAMFERB
 40
0.0
  9
$FASTZOOM
 70
     1
  9
$SKPOLY
 70
     0
  9
$TDCREATE
 40
2447222.5666886573
  9
$TDUPDATE
 40
2447222.5666886573
  9
$TDINDWG
 40
0.0000000000
  9
$TDUSRTIMER
 40
0.0000000000
  9
$USRTIMER
 70
     1
  9
$ANGBASE
 50
0.0
  9
$ANGDIR
 70
     0
  9
$PDMODE
 70
     0
  9
$PDSIZE
 40
0.0
  9
$PLINEWID
 40
0.0
  9
$COORDS
 70
     0
  9
$SPLFRAME
 70
     0
  9
$SPLINESEGS
 70
     8
  9
$ATTDIA
 70
     0
  9
$ATTREQ
 70
     1
  9
$USERI1
 70
     0
  9
$USERI2
 70
     0
  9
$USERI3
 70
     0
  9
$USERI4
 70
     0
  9
$USERI5
 70
     0
  9
$USERR1
 40
0.0
  9
$USERR2
 40
0.0
  9
$USERR3
 40
0.0
  9
$USERR4
 40
0.0
  9
$USERR5
 40
0.0
  0
ENDSEC
  0
SECTION
  2
TABLES
  0
TABLE
  2
LTYPE
 70
     13
  0
LTYPE
  2
CONTINUOUS
 70
    64
  3
Solid line
 72
    65
 73
     0
 40
0.0
  0
LTYPE
  2
DASHED
 70
    64
  3
__ __ __ __ __ __ __ __ __ __ __ __ __ __ __
 72
    65
 73
     2
 40
0.75
 49
0.5
 49
-0.25
  0
LTYPE
  2
HIDDEN
 70
    64
  3
_ _ _ _ _ _ _ _ _ _ _ _ _ _ _ _ _ _ _ _ _ _ _
 72
    65
 73
     2
 40
0.375
 49
0.25
 49
-0.125
  0
LTYPE
  2
CENTER
 70
    64
  3
____ _ ____ _ ____ _ ____ _ ____ _ ____ _ ____
 72
    65
 73
     4
 40
2.0
 49
1.25
 49
-0.25
 49
0.25
 49
-0.25
  0
LTYPE
  2
PHANTOM
 70
    64
  3
_____ _ _ _____ _ _ _____ _ _ _____ _ _ ____
 72
    65
 73
     6
 40
2.5
 49
1.25
 49
-0.25
 49
0.25
 49
-0.25
 49
0.25
 49
-0.25
  0
LTYPE
  2
DOT
 70
    64
  3
...............................................
 72
    65
 73
     2
 40
0.25
 49
0.0
 49
-0.25
  0
LTYPE
  2
DASHDOT
 70
    64
  3
__ . __ . __ . __ . __ . __ . __ . __ . __ . __
 72
    65
 73
     4
 40
1.0
 49
0.5
 49
-0.25
 49
0.0
 49
-0.25
  0
LTYPE
  2
BORDER
 70
    64
  3
__ __ . __ __ . __ __ . __ __ . __ __ . __ __
 72
    65
 73
     6
 40
1.75
 49
0.5
 49
-0.25
 49
0.5
 49
-0.25
 49
0.0
 49
-0.25
  0
LTYPE
  2
DIVIDE
 70
    64
  3
__ . . __ . . __ . . __ . . __ . . __ . . __
 72
    65
 73
     6
 40
1.25
 49
0.5
 49
-0.25
 49
0.0
 49
-0.25
 49
0.0
 49
-0.25
  0
LTYPE
  2
DCTYPE1
 70
    64
  3
__ . . __ . . __ . . __ . . __ . . __ . . __
 72
    65
 73
     8
 40
2.5
 49
0.5
 49
-0.25
 49
0.125
 49
-0.25
 49
0.25
 49
-0.25
 49
0.125
 49
-0.25
  0
LTYPE
  2
DCTYPE2
 70
    64
  3
__ . . __ . . __ . . __ . . __ . . __ . . __
 72
    65
 73
     6
 40
2.05
 49
1.0
 49
-0.3
 49
0.15
 49
-0.15
 49
0.15
 49
-0.3
  0
LTYPE
  2
DCTYPE3
 70
    64
  3
__ . . __ . . __ . . __ . . __ . . __ . . __
 72
    65
 73
     6
 40
2.5
 49
0.8
 49
-0.2
 49
0.8
 49
-0.2
 49
0.3
 49
-0.2
  0
LTYPE
  2
DCTYPE4
 70
    64
  3
__ . . __ . . __ . . __ . . __ . . __ . . __
 72
    65
 73
     10
 40
3.97
 49
1.75
 49
-0.3
 49
0.3
 49
-0.3
 49
0.06
 49
-0.3
 49
0.06
 49
-0.3
 49
0.3
 49
-0.3
  0
ENDTAB
  0
TABLE
  2
LAYER
 70
    153
  0
LAYER
  2
0
 70
 64
 62
     7
  6
CONTINUOUS
  0
ENDTAB
  0
ENDSEC
  0
SECTION
  2
BLOCKS
  0
ENDSEC
  0
SECTION
  2
ENTITIES
  0
TEXT
  8
0
 62
     7
 10
0.0505
 20
4.8995
 40
0.7094
 50
0.0000
 51
0.0000
  1
BENEDEK 8356B3
 72
     5
 11
10.0503
 21
4.8995
  0
POLYLINE
  8
0
 62
     3
 66
     1
  6
CONTINUOUS
  0
VERTEX
  8
0
 62
     3
  6
CONTINUOUS
 10
0.0505
 20
1.0096
  0
VERTEX
  8
0
 62
     3
  6
CONTINUOUS
 10
0.0597
 20
1.0260
  0
VERTEX
  8
0
 62
     3
  6
CONTINUOUS
 10
0.0690
 20
1.0425
  0
VERTEX
  8
0
 62
     3
  6
CONTINUOUS
 10
0.0784
 20
1.0588
  0
VERTEX
  8
0
 62
     3
  6
CONTINUOUS
 10
0.0880
 20
1.0750
  0
VERTEX
  8
0
 62
     3
  6
CONTINUOUS
 10
0.0977
 20
1.0910
  0
VERTEX
  8
0
 62
     3
  6
CONTINUOUS
 10
0.1077
 20
1.1068
  0
VERTEX
  8
0
 62
     3
  6
CONTINUOUS
 10
0.1180
 20
1.1224
  0
VERTEX
  8
0
 62
     3
  6
CONTINUOUS
 10
0.1286
 20
1.1376
  0
VERTEX
  8
0
 62
     3
  6
CONTINUOUS
 10
0.1396
 20
1.1525
  0
VERTEX
  8
0
 62
     3
  6
CONTINUOUS
 10
0.1511
 20
1.1670
  0
VERTEX
  8
0
 62
     3
  6
CONTINUOUS
 10
0.1630
 20
1.1810
  0
VERTEX
  8
0
 62
     3
  6
CONTINUOUS
 10
0.1755
 20
1.1946
  0
VERTEX
  8
0
 62
     3
  6
CONTINUOUS
 10
0.1848
 20
1.2040
  0
VERTEX
  8
0
 62
     3
  6
CONTINUOUS
 10
0.1944
 20
1.2131
  0
VERTEX
  8
0
 62
     3
  6
CONTINUOUS
 10
0.2042
 20
1.2220
  0
VERTEX
  8
0
 62
     3
  6
CONTINUOUS
 10
0.2143
 20
1.2307
  0
VERTEX
  8
0
 62
     3
  6
CONTINUOUS
 10
0.2246
 20
1.2392
  0
VERTEX
  8
0
 62
     3
  6
CONTINUOUS
 10
0.2351
 20
1.2475
  0
VERTEX
  8
0
 62
     3
  6
CONTINUOUS
 10
0.2457
 20
1.2557
  0
VERTEX
  8
0
 62
     3
  6
CONTINUOUS
 10
0.2565
 20
1.2637
  0
VERTEX
  8
0
 62
     3
  6
CONTINUOUS
 10
0.2674
 20
1.2715
  0
VERTEX
  8
0
 62
     3
  6
CONTINUOUS
 10
0.2784
 20
1.2793
  0
VERTEX
  8
0
 62
     3
  6
CONTINUOUS
 10
0.2894
 20
1.2870
  0
VERTEX
  8
0
 62
     3
  6
CONTINUOUS
 10
0.3005
 20
1.2946
  0
VERTEX
  8
0
 62
     3
  6
CONTINUOUS
 10
0.3208
 20
1.3083
  0
VERTEX
  8
0
 62
     3
  6
CONTINUOUS
 10
0.3411
 20
1.3218
  0
VERTEX
  8
0
 62
     3
  6
CONTINUOUS
 10
0.3616
 20
1.3351
  0
VERTEX
  8
0
 62
     3
  6
CONTINUOUS
 10
0.3821
 20
1.3482
  0
VERTEX
  8
0
 62
     3
  6
CONTINUOUS
 10
0.4027
 20
1.3611
  0
VERTEX
  8
0
 62
     3
  6
CONTINUOUS
 10
0.4235
 20
1.3737
  0
VERTEX
  8
0
 62
     3
  6
CONTINUOUS
 10
0.4443
 20
1.3862
  0
VERTEX
  8
0
 62
     3
  6
CONTINUOUS
 10
0.4653
 20
1.3983
  0
VERTEX
  8
0
 62
     3
  6
CONTINUOUS
 10
0.4864
 20
1.4103
  0
VERTEX
  8
0
 62
     3
  6
CONTINUOUS
 10
0.5076
 20
1.4220
  0
VERTEX
  8
0
 62
     3
  6
CONTINUOUS
 10
0.5290
 20
1.4334
  0
VERTEX
  8
0
 62
     3
  6
CONTINUOUS
 10
0.5505
 20
1.4446
  0
VERTEX
  8
0
 62
     3
  6
CONTINUOUS
 10
0.5708
 20
1.4548
  0
VERTEX
  8
0
 62
     3
  6
CONTINUOUS
 10
0.5912
 20
1.4647
  0
VERTEX
  8
0
 62
     3
  6
CONTINUOUS
 10
0.6118
 20
1.4745
  0
VERTEX
  8
0
 62
     3
  6
CONTINUOUS
 10
0.6324
 20
1.4840
  0
VERTEX
  8
0
 62
     3
  6
CONTINUOUS
 10
0.6532
 20
1.4934
  0
VERTEX
  8
0
 62
     3
  6
CONTINUOUS
 10
0.6740
 20
1.5026
  0
VERTEX
  8
0
 62
     3
  6
CONTINUOUS
 10
0.6949
 20
1.5116
  0
VERTEX
  8
0
 62
     3
  6
CONTINUOUS
 10
0.7159
 20
1.5204
  0
VERTEX
  8
0
 62
     3
  6
CONTINUOUS
 10
0.7370
 20
1.5291
  0
VERTEX
  8
0
 62
     3
  6
CONTINUOUS
 10
0.7581
 20
1.5377
  0
VERTEX
  8
0
 62
     3
  6
CONTINUOUS
 10
0.7793
 20
1.5462
  0
VERTEX
  8
0
 62
     3
  6
CONTINUOUS
 10
0.8005
 20
1.5546
  0
VERTEX
  8
0
 62
     3
  6
CONTINUOUS
 10
0.8211
 20
1.5626
  0
VERTEX
  8
0
 62
     3
  6
CONTINUOUS
 10
0.8418
 20
1.5706
  0
VERTEX
  8
0
 62
     3
  6
CONTINUOUS
 10
0.8625
 20
1.5785
  0
VERTEX
  8
0
 62
     3
  6
CONTINUOUS
 10
0.8833
 20
1.5862
  0
VERTEX
  8
0
 62
     3
  6
CONTINUOUS
 10
0.9040
 20
1.5939
  0
VERTEX
  8
0
 62
     3
  6
CONTINUOUS
 10
0.9248
 20
1.6015
  0
VERTEX
  8
0
 62
     3
  6
CONTINUOUS
 10
0.9457
 20
1.6090
  0
VERTEX
  8
0
 62
     3
  6
CONTINUOUS
 10
0.9666
 20
1.6163
  0
VERTEX
  8
0
 62
     3
  6
CONTINUOUS
 10
0.9875
 20
1.6236
  0
VERTEX
  8
0
 62
     3
  6
CONTINUOUS
 10
1.0084
 20
1.6307
  0
VERTEX
  8
0
 62
     3
  6
CONTINUOUS
 10
1.0294
 20
1.6377
  0
VERTEX
  8
0
 62
     3
  6
CONTINUOUS
 10
1.0505
 20
1.6446
  0
VERTEX
  8
0
 62
     3
  6
CONTINUOUS
 10
1.0914
 20
1.6575
  0
VERTEX
  8
0
 62
     3
  6
CONTINUOUS
 10
1.1325
 20
1.6700
  0
VERTEX
  8
0
 62
     3
  6
CONTINUOUS
 10
1.1738
 20
1.6820
  0
VERTEX
  8
0
 62
     3
  6
CONTINUOUS
 10
1.2152
 20
1.6936
  0
VERTEX
  8
0
 62
     3
  6
CONTINUOUS
 10
1.2567
 20
1.7046
  0
VERTEX
  8
0
 62
     3
  6
CONTINUOUS
 10
1.2984
 20
1.7152
  0
VERTEX
  8
0
 62
     3
  6
CONTINUOUS
 10
1.3402
 20
1.7254
  0
VERTEX
  8
0
 62
     3
  6
CONTINUOUS
 10
1.3820
 20
1.7351
  0
VERTEX
  8
0
 62
     3
  6
CONTINUOUS
 10
1.4240
 20
1.7444
  0
VERTEX
  8
0
 62
     3
  6
CONTINUOUS
 10
1.4661
 20
1.7532
  0
VERTEX
  8
0
 62
     3
  6
CONTINUOUS
 10
1.5082
 20
1.7616
  0
VERTEX
  8
0
 62
     3
  6
CONTINUOUS
 10
1.5505
 20
1.7696
  0
VERTEX
  8
0
 62
     3
  6
CONTINUOUS
 10
1.5919
 20
1.7770
  0
VERTEX
  8
0
 62
     3
  6
CONTINUOUS
 10
1.6334
 20
1.7840
  0
VERTEX
  8
0
 62
     3
  6
CONTINUOUS
 10
1.6749
 20
1.7907
  0
VERTEX
  8
0
 62
     3
  6
CONTINUOUS
 10
1.7165
 20
1.7971
  0
VERTEX
  8
0
 62
     3
  6
CONTINUOUS
 10
1.7582
 20
1.8032
  0
VERTEX
  8
0
 62
     3
  6
CONTINUOUS
 10
1.7998
 20
1.8090
  0
VERTEX
  8
0
 62
     3
  6
CONTINUOUS
 10
1.8415
 20
1.8145
  0
VERTEX
  8
0
 62
     3
  6
CONTINUOUS
 10
1.8833
 20
1.8199
  0
VERTEX
  8
0
 62
     3
  6
CONTINUOUS
 10
1.9250
 20
1.8250
  0
VERTEX
  8
0
 62
     3
  6
CONTINUOUS
 10
1.9668
 20
1.8300
  0
VERTEX
  8
0
 62
     3
  6
CONTINUOUS
 10
2.0086
 20
1.8348
  0
VERTEX
  8
0
 62
     3
  6
CONTINUOUS
 10
2.0505
 20
1.8396
  0
VERTEX
  8
0
 62
     3
  6
CONTINUOUS
 10
2.0921
 20
1.8442
  0
VERTEX
  8
0
 62
     3
  6
CONTINUOUS
 10
2.1337
 20
1.8487
  0
VERTEX
  8
0
 62
     3
  6
CONTINUOUS
 10
2.1753
 20
1.8531
  0
VERTEX
  8
0
 62
     3
  6
CONTINUOUS
 10
2.2169
 20
1.8573
  0
VERTEX
  8
0
 62
     3
  6
CONTINUOUS
 10
2.2586
 20
1.8614
  0
VERTEX
  8
0
 62
     3
  6
CONTINUOUS
 10
2.3002
 20
1.8653
  0
VERTEX
  8
0
 62
     3
  6
CONTINUOUS
 10
2.3419
 20
1.8691
  0
VERTEX
  8
0
 62
     3
  6
CONTINUOUS
 10
2.3836
 20
1.8726
  0
VERTEX
  8
0
 62
     3
  6
CONTINUOUS
 10
2.4253
 20
1.8760
  0
VERTEX
  8
0
 62
     3
  6
CONTINUOUS
 10
2.4670
 20
1.8791
  0
VERTEX
  8
0
 62
     3
  6
CONTINUOUS
 10
2.5087
 20
1.8820
  0
VERTEX
  8
0
 62
     3
  6
CONTINUOUS
 10
2.5505
 20
1.8846
  0
VERTEX
  8
0
 62
     3
  6
CONTINUOUS
 10
2.5921
 20
1.8869
  0
VERTEX
  8
0
 62
     3
  6
CONTINUOUS
 10
2.6337
 20
1.8890
  0
VERTEX
  8
0
 62
     3
  6
CONTINUOUS
 10
2.6753
 20
1.8908
  0
VERTEX
  8
0
 62
     3
  6
CONTINUOUS
 10
2.7170
 20
1.8924
  0
VERTEX
  8
0
 62
     3
  6
CONTINUOUS
 10
2.7586
 20
1.8939
  0
VERTEX
  8
0
 62
     3
  6
CONTINUOUS
 10
2.8003
 20
1.8951
  0
VERTEX
  8
0
 62
     3
  6
CONTINUOUS
 10
2.8420
 20
1.8961
  0
VERTEX
  8
0
 62
     3
  6
CONTINUOUS
 10
2.8837
 20
1.8971
  0
VERTEX
  8
0
 62
     3
  6
CONTINUOUS
 10
2.9254
 20
1.8978
  0
VERTEX
  8
0
 62
     3
  6
CONTINUOUS
 10
2.9671
 20
1.8985
  0
VERTEX
  8
0
 62
     3
  6
CONTINUOUS
 10
3.0088
 20
1.8991
  0
VERTEX
  8
0
 62
     3
  6
CONTINUOUS
 10
3.0504
 20
1.8996
  0
VERTEX
  8
0
 62
     3
  6
CONTINUOUS
 10
3.1338
 20
1.9003
  0
VERTEX
  8
0
 62
     3
  6
CONTINUOUS
 10
3.2172
 20
1.9009
  0
VERTEX
  8
0
 62
     3
  6
CONTINUOUS
 10
3.3005
 20
1.9011
  0
VERTEX
  8
0
 62
     3
  6
CONTINUOUS
 10
3.3839
 20
1.9011
  0
VERTEX
  8
0
 62
     3
  6
CONTINUOUS
 10
3.4672
 20
1.9008
  0
VERTEX
  8
0
 62
     3
  6
CONTINUOUS
 10
3.5505
 20
1.9001
  0
VERTEX
  8
0
 62
     3
  6
CONTINUOUS
 10
3.6339
 20
1.8992
  0
VERTEX
  8
0
 62
     3
  6
CONTINUOUS
 10
3.7172
 20
1.8980
  0
VERTEX
  8
0
 62
     3
  6
CONTINUOUS
 10
3.8005
 20
1.8964
  0
VERTEX
  8
0
 62
     3
  6
CONTINUOUS
 10
3.8838
 20
1.8945
  0
VERTEX
  8
0
 62
     3
  6
CONTINUOUS
 10
3.9671
 20
1.8922
  0
VERTEX
  8
0
 62
     3
  6
CONTINUOUS
 10
4.0504
 20
1.8896
  0
VERTEX
  8
0
 62
     3
  6
CONTINUOUS
 10
4.1339
 20
1.8866
  0
VERTEX
  8
0
 62
     3
  6
CONTINUOUS
 10
4.2173
 20
1.8832
  0
VERTEX
  8
0
 62
     3
  6
CONTINUOUS
 10
4.3007
 20
1.8794
  0
VERTEX
  8
0
 62
     3
  6
CONTINUOUS
 10
4.3841
 20
1.8753
  0
VERTEX
  8
0
 62
     3
  6
CONTINUOUS
 10
4.4675
 20
1.8709
  0
VERTEX
  8
0
 62
     3
  6
CONTINUOUS
 10
4.5508
 20
1.8660
  0
VERTEX
  8
0
 62
     3
  6
CONTINUOUS
 10
4.6341
 20
1.8609
  0
VERTEX
  8
0
 62
     3
  6
CONTINUOUS
 10
4.7175
 20
1.8553
  0
VERTEX
  8
0
 62
     3
  6
CONTINUOUS
 10
4.8007
 20
1.8494
  0
VERTEX
  8
0
 62
     3
  6
CONTINUOUS
 10
4.8840
 20
1.8431
  0
VERTEX
  8
0
 62
     3
  6
CONTINUOUS
 10
4.9672
 20
1.8365
  0
VERTEX
  8
0
 62
     3
  6
CONTINUOUS
 10
5.0504
 20
1.8296
  0
VERTEX
  8
0
 62
     3
  6
CONTINUOUS
 10
5.1339
 20
1.8222
  0
VERTEX
  8
0
 62
     3
  6
CONTINUOUS
 10
5.2173
 20
1.8146
  0
VERTEX
  8
0
 62
     3
  6
CONTINUOUS
 10
5.3007
 20
1.8066
  0
VERTEX
  8
0
 62
     3
  6
CONTINUOUS
 10
5.3841
 20
1.7983
  0
VERTEX
  8
0
 62
     3
  6
CONTINUOUS
 10
5.4674
 20
1.7898
  0
VERTEX
  8
0
 62
     3
  6
CONTINUOUS
 10
5.5508
 20
1.7810
  0
VERTEX
  8
0
 62
     3
  6
CONTINUOUS
 10
5.6341
 20
1.7720
  0
VERTEX
  8
0
 62
     3
  6
CONTINUOUS
 10
5.7174
 20
1.7629
  0
VERTEX
  8
0
 62
     3
  6
CONTINUOUS
 10
5.8006
 20
1.7535
  0
VERTEX
  8
0
 62
     3
  6
CONTINUOUS
 10
5.8839
 20
1.7440
  0
VERTEX
  8
0
 62
     3
  6
CONTINUOUS
 10
5.9672
 20
1.7343
  0
VERTEX
  8
0
 62
     3
  6
CONTINUOUS
 10
6.0504
 20
1.7246
  0
VERTEX
  8
0
 62
     3
  6
CONTINUOUS
 10
6.1339
 20
1.7147
  0
VERTEX
  8
0
 62
     3
  6
CONTINUOUS
 10
6.2174
 20
1.7047
  0
VERTEX
  8
0
 62
     3
  6
CONTINUOUS
 10
6.3009
 20
1.6945
  0
VERTEX
  8
0
 62
     3
  6
CONTINUOUS
 10
6.3844
 20
1.6841
  0
VERTEX
  8
0
 62
     3
  6
CONTINUOUS
 10
6.4678
 20
1.6735
  0
VERTEX
  8
0
 62
     3
  6
CONTINUOUS
 10
6.5512
 20
1.6626
  0
VERTEX
  8
0
 62
     3
  6
CONTINUOUS
 10
6.6346
 20
1.6514
  0
VERTEX
  8
0
 62
     3
  6
CONTINUOUS
 10
6.7179
 20
1.6399
  0
VERTEX
  8
0
 62
     3
  6
CONTINUOUS
 10
6.8011
 20
1.6280
  0
VERTEX
  8
0
 62
     3
  6
CONTINUOUS
 10
6.8843
 20
1.6156
  0
VERTEX
  8
0
 62
     3
  6
CONTINUOUS
 10
6.9674
 20
1.6028
  0
VERTEX
  8
0
 62
     3
  6
CONTINUOUS
 10
7.0504
 20
1.5896
  0
VERTEX
  8
0
 62
     3
  6
CONTINUOUS
 10
7.1340
 20
1.5757
  0
VERTEX
  8
0
 62
     3
  6
CONTINUOUS
 10
7.2175
 20
1.5613
  0
VERTEX
  8
0
 62
     3
  6
CONTINUOUS
 10
7.3009
 20
1.5465
  0
VERTEX
  8
0
 62
     3
  6
CONTINUOUS
 10
7.3843
 20
1.5314
  0
VERTEX
  8
0
 62
     3
  6
CONTINUOUS
 10
7.4676
 20
1.5159
  0
VERTEX
  8
0
 62
     3
  6
CONTINUOUS
 10
7.5509
 20
1.5003
  0
VERTEX
  8
0
 62
     3
  6
CONTINUOUS
 10
7.6342
 20
1.4844
  0
VERTEX
  8
0
 62
     3
  6
CONTINUOUS
 10
7.7174
 20
1.4684
  0
VERTEX
  8
0
 62
     3
  6
CONTINUOUS
 10
7.8006
 20
1.4524
  0
VERTEX
  8
0
 62
     3
  6
CONTINUOUS
 10
7.8839
 20
1.4364
  0
VERTEX
  8
0
 62
     3
  6
CONTINUOUS
 10
7.9671
 20
1.4204
  0
VERTEX
  8
0
 62
     3
  6
CONTINUOUS
 10
8.0504
 20
1.4046
  0
VERTEX
  8
0
 62
     3
  6
CONTINUOUS
 10
8.1337
 20
1.3889
  0
VERTEX
  8
0
 62
     3
  6
CONTINUOUS
 10
8.2171
 20
1.3733
  0
VERTEX
  8
0
 62
     3
  6
CONTINUOUS
 10
8.3005
 20
1.3578
  0
VERTEX
  8
0
 62
     3
  6
CONTINUOUS
 10
8.3839
 20
1.3424
  0
VERTEX
  8
0
 62
     3
  6
CONTINUOUS
 10
8.4673
 20
1.3269
  0
VERTEX
  8
0
 62
     3
  6
CONTINUOUS
 10
8.5507
 20
1.3114
  0
VERTEX
  8
0
 62
     3
  6
CONTINUOUS
 10
8.6340
 20
1.2958
  0
VERTEX
  8
0
 62
     3
  6
CONTINUOUS
 10
8.7174
 20
1.2800
  0
VERTEX
  8
0
 62
     3
  6
CONTINUOUS
 10
8.8007
 20
1.2641
  0
VERTEX
  8
0
 62
     3
  6
CONTINUOUS
 10
8.8840
 20
1.2479
  0
VERTEX
  8
0
 62
     3
  6
CONTINUOUS
 10
8.9672
 20
1.2314
  0
VERTEX
  8
0
 62
     3
  6
CONTINUOUS
 10
9.0503
 20
1.2146
  0
VERTEX
  8
0
 62
     3
  6
CONTINUOUS
 10
9.0922
 20
1.2060
  0
VERTEX
  8
0
 62
     3
  6
CONTINUOUS
 10
9.1341
 20
1.1972
  0
VERTEX
  8
0
 62
     3
  6
CONTINUOUS
 10
9.1759
 20
1.1883
  0
VERTEX
  8
0
 62
     3
  6
CONTINUOUS
 10
9.2178
 20
1.1793
  0
VERTEX
  8
0
 62
     3
  6
CONTINUOUS
 10
9.2595
 20
1.1701
  0
VERTEX
  8
0
 62
     3
  6
CONTINUOUS
 10
9.3012
 20
1.1607
  0
VERTEX
  8
0
 62
     3
  6
CONTINUOUS
 10
9.3429
 20
1.1512
  0
VERTEX
  8
0
 62
     3
  6
CONTINUOUS
 10
9.3845
 20
1.1414
  0
VERTEX
  8
0
 62
     3
  6
CONTINUOUS
 10
9.4261
 20
1.1313
  0
VERTEX
  8
0
 62
     3
  6
CONTINUOUS
 10
9.4676
 20
1.1210
  0
VERTEX
  8
0
 62
     3
  6
CONTINUOUS
 10
9.5090
 20
1.1104
  0
VERTEX
  8
0
 62
     3
  6
CONTINUOUS
 10
9.5503
 20
1.0996
  0
VERTEX
  8
0
 62
     3
  6
CONTINUOUS
 10
9.5923
 20
1.0882
  0
VERTEX
  8
0
 62
     3
  6
CONTINUOUS
 10
9.6342
 20
1.0765
  0
VERTEX
  8
0
 62
     3
  6
CONTINUOUS
 10
9.6760
 20
1.0646
  0
VERTEX
  8
0
 62
     3
  6
CONTINUOUS
 10
9.7178
 20
1.0524
  0
VERTEX
  8
0
 62
     3
  6
CONTINUOUS
 10
9.7595
 20
1.0400
  0
VERTEX
  8
0
 62
     3
  6
CONTINUOUS
 10
9.8011
 20
1.0275
  0
VERTEX
  8
0
 62
     3
  6
CONTINUOUS
 10
9.8427
 20
1.0147
  0
VERTEX
  8
0
 62
     3
  6
CONTINUOUS
 10
9.8843
 20
1.0019
  0
VERTEX
  8
0
 62
     3
  6
CONTINUOUS
 10
9.9258
 20
0.9889
  0
VERTEX
  8
0
 62
     3
  6
CONTINUOUS
 10
9.9673
 20
0.9758
  0
VERTEX
  8
0
 62
     3
  6
CONTINUOUS
 10
10.0088
 20
0.9627
  0
VERTEX
  8
0
 62
     3
  6
CONTINUOUS
 10
10.0503
 20
0.9496
  0
SEQEND
  8
0
  0
POLYLINE
  8
0
 62
     1
 66
     1
  6
CONTINUOUS
  0
VERTEX
  8
0
 62
     1
  6
CONTINUOUS
 10
0.0505
 20
1.0096
  0
VERTEX
  8
0
 62
     1
  6
CONTINUOUS
 10
0.0604
 20
1.0011
  0
VERTEX
  8
0
 62
     1
  6
CONTINUOUS
 10
0.0702
 20
0.9927
  0
VERTEX
  8
0
 62
     1
  6
CONTINUOUS
 10
0.0802
 20
0.9845
  0
VERTEX
  8
0
 62
     1
  6
CONTINUOUS
 10
0.0902
 20
0.9764
  0
VERTEX
  8
0
 62
     1
  6
CONTINUOUS
 10
0.1003
 20
0.9685
  0
VERTEX
  8
0
 62
     1
  6
CONTINUOUS
 10
0.1105
 20
0.9609
  0
VERTEX
  8
0
 62
     1
  6
CONTINUOUS
 10
0.1208
 20
0.9537
  0
VERTEX
  8
0
 62
     1
  6
CONTINUOUS
 10
0.1313
 20
0.9468
  0
VERTEX
  8
0
 62
     1
  6
CONTINUOUS
 10
0.1420
 20
0.9404
  0
VERTEX
  8
0
 62
     1
  6
CONTINUOUS
 10
0.1529
 20
0.9346
  0
VERTEX
  8
0
 62
     1
  6
CONTINUOUS
 10
0.1641
 20
0.9293
  0
VERTEX
  8
0
 62
     1
  6
CONTINUOUS
 10
0.1755
 20
0.9246
  0
VERTEX
  8
0
 62
     1
  6
CONTINUOUS
 10
0.1853
 20
0.9212
  0
VERTEX
  8
0
 62
     1
  6
CONTINUOUS
 10
0.1952
 20
0.9182
  0
VERTEX
  8
0
 62
     1
  6
CONTINUOUS
 10
0.2053
 20
0.9157
  0
VERTEX
  8
0
 62
     1
  6
CONTINUOUS
 10
0.2156
 20
0.9135
  0
VERTEX
  8
0
 62
     1
  6
CONTINUOUS
 10
0.2259
 20
0.9116
  0
VERTEX
  8
0
 62
     1
  6
CONTINUOUS
 10
0.2364
 20
0.9100
  0
VERTEX
  8
0
 62
     1
  6
CONTINUOUS
 10
0.2470
 20
0.9087
  0
VERTEX
  8
0
 62
     1
  6
CONTINUOUS
 10
0.2576
 20
0.9076
  0
VERTEX
  8
0
 62
     1
  6
CONTINUOUS
 10
0.2683
 20
0.9067
  0
VERTEX
  8
0
 62
     1
  6
CONTINUOUS
 10
0.2790
 20
0.9059
  0
VERTEX
  8
0
 62
     1
  6
CONTINUOUS
 10
0.2898
 20
0.9052
  0
VERTEX
  8
0
 62
     1
  6
CONTINUOUS
 10
0.3005
 20
0.9046
  0
VERTEX
  8
0
 62
     1
  6
CONTINUOUS
 10
0.3216
 20
0.9034
  0
VERTEX
  8
0
 62
     1
  6
CONTINUOUS
 10
0.3427
 20
0.9024
  0
VERTEX
  8
0
 62
     1
  6
CONTINUOUS
 10
0.3637
 20
0.9015
  0
VERTEX
  8
0
 62
     1
  6
CONTINUOUS
 10
0.3847
 20
0.9007
  0
VERTEX
  8
0
 62
     1
  6
CONTINUOUS
 10
0.4055
 20
0.9002
  0
VERTEX
  8
0
 62
     1
  6
CONTINUOUS
 10
0.4264
 20
0.8999
  0
VERTEX
  8
0
 62
     1
  6
CONTINUOUS
 10
0.4471
 20
0.8999
  0
VERTEX
  8
0
 62
     1
  6
CONTINUOUS
 10
0.4679
 20
0.9001
  0
VERTEX
  8
0
 62
     1
  6
CONTINUOUS
 10
0.4886
 20
0.9007
  0
VERTEX
  8
0
 62
     1
  6
CONTINUOUS
 10
0.5092
 20
0.9016
  0
VERTEX
  8
0
 62
     1
  6
CONTINUOUS
 10
0.5299
 20
0.9029
  0
VERTEX
  8
0
 62
     1
  6
CONTINUOUS
 10
0.5505
 20
0.9046
  0
VERTEX
  8
0
 62
     1
  6
CONTINUOUS
 10
0.5714
 20
0.9067
  0
VERTEX
  8
0
 62
     1
  6
CONTINUOUS
 10
0.5922
 20
0.9092
  0
VERTEX
  8
0
 62
     1
  6
CONTINUOUS
 10
0.6131
 20
0.9121
  0
VERTEX
  8
0
 62
     1
  6
CONTINUOUS
 10
0.6339
 20
0.9152
  0
VERTEX
  8
0
 62
     1
  6
CONTINUOUS
 10
0.6547
 20
0.9186
  0
VERTEX
  8
0
 62
     1
  6
CONTINUOUS
 10
0.6755
 20
0.9221
  0
VERTEX
  8
0
 62
     1
  6
CONTINUOUS
 10
0.6963
 20
0.9258
  0
VERTEX
  8
0
 62
     1
  6
CONTINUOUS
 10
0.7172
 20
0.9296
  0
VERTEX
  8
0
 62
     1
  6
CONTINUOUS
 10
0.7380
 20
0.9334
  0
VERTEX
  8
0
 62
     1
  6
CONTINUOUS
 10
0.7588
 20
0.9372
  0
VERTEX
  8
0
 62
     1
  6
CONTINUOUS
 10
0.7796
 20
0.9410
  0
VERTEX
  8
0
 62
     1
  6
CONTINUOUS
 10
0.8005
 20
0.9446
  0
VERTEX
  8
0
 62
     1
  6
CONTINUOUS
 10
0.8213
 20
0.9480
  0
VERTEX
  8
0
 62
     1
  6
CONTINUOUS
 10
0.8421
 20
0.9513
  0
VERTEX
  8
0
 62
     1
  6
CONTINUOUS
 10
0.8629
 20
0.9545
  0
VERTEX
  8
0
 62
     1
  6
CONTINUOUS
 10
0.8837
 20
0.9575
  0
VERTEX
  8
0
 62
     1
  6
CONTINUOUS
 10
0.9046
 20
0.9605
  0
VERTEX
  8
0
 62
     1
  6
CONTINUOUS
 10
0.9254
 20
0.9633
  0
VERTEX
  8
0
 62
     1
  6
CONTINUOUS
 10
0.9462
 20
0.9661
  0
VERTEX
  8
0
 62
     1
  6
CONTINUOUS
 10
0.9671
 20
0.9689
  0
VERTEX
  8
0
 62
     1
  6
CONTINUOUS
 10
0.9879
 20
0.9716
  0
VERTEX
  8
0
 62
     1
  6
CONTINUOUS
 10
1.0088
 20
0.9742
  0
VERTEX
  8
0
 62
     1
  6
CONTINUOUS
 10
1.0296
 20
0.9769
  0
VERTEX
  8
0
 62
     1
  6
CONTINUOUS
 10
1.0505
 20
0.9796
  0
VERTEX
  8
0
 62
     1
  6
CONTINUOUS
 10
1.0921
 20
0.9850
  0
VERTEX
  8
0
 62
     1
  6
CONTINUOUS
 10
1.1338
 20
0.9905
  0
VERTEX
  8
0
 62
     1
  6
CONTINUOUS
 10
1.1754
 20
0.9961
  0
VERTEX
  8
0
 62
     1
  6
CONTINUOUS
 10
1.2171
 20
1.0017
  0
VERTEX
  8
0
 62
     1
  6
CONTINUOUS
 10
1.2587
 20
1.0073
  0
VERTEX
  8
0
 62
     1
  6
CONTINUOUS
 10
1.3003
 20
1.0129
  0
VERTEX
  8
0
 62
     1
  6
CONTINUOUS
 10
1.3420
 20
1.0184
  0
VERTEX
  8
0
 62
     1
  6
CONTINUOUS
 10
1.3837
 20
1.0239
  0
VERTEX
  8
0
 62
     1
  6
CONTINUOUS
 10
1.4254
 20
1.0293
  0
VERTEX
  8
0
 62
     1
  6
CONTINUOUS
 10
1.4670
 20
1.0345
  0
VERTEX
  8
0
 62
     1
  6
CONTINUOUS
 10
1.5088
 20
1.0396
  0
VERTEX
  8
0
 62
     1
  6
CONTINUOUS
 10
1.5505
 20
1.0446
  0
VERTEX
  8
0
 62
     1
  6
CONTINUOUS
 10
1.5921
 20
1.0493
  0
VERTEX
  8
0
 62
     1
  6
CONTINUOUS
 10
1.6337
 20
1.0539
  0
VERTEX
  8
0
 62
     1
  6
CONTINUOUS
 10
1.6753
 20
1.0583
  0
VERTEX
  8
0
 62
     1
  6
CONTINUOUS
 10
1.7170
 20
1.0626
  0
VERTEX
  8
0
 62
     1
  6
CONTINUOUS
 10
1.7587
 20
1.0668
  0
VERTEX
  8
0
 62
     1
  6
CONTINUOUS
 10
1.8003
 20
1.0709
  0
VERTEX
  8
0
 62
     1
  6
CONTINUOUS
 10
1.8420
 20
1.0749
  0
VERTEX
  8
0
 62
     1
  6
CONTINUOUS
 10
1.8837
 20
1.0788
  0
VERTEX
  8
0
 62
     1
  6
CONTINUOUS
 10
1.9254
 20
1.0828
  0
VERTEX
  8
0
 62
     1
  6
CONTINUOUS
 10
1.9671
 20
1.0867
  0
VERTEX
  8
0
 62
     1
  6
CONTINUOUS
 10
2.0088
 20
1.0906
  0
VERTEX
  8
0
 62
     1
  6
CONTINUOUS
 10
2.0505
 20
1.0946
  0
VERTEX
  8
0
 62
     1
  6
CONTINUOUS
 10
2.0921
 20
1.0986
  0
VERTEX
  8
0
 62
     1
  6
CONTINUOUS
 10
2.1338
 20
1.1026
  0
VERTEX
  8
0
 62
     1
  6
CONTINUOUS
 10
2.1754
 20
1.1066
  0
VERTEX
  8
0
 62
     1
  6
CONTINUOUS
 10
2.2171
 20
1.1106
  0
VERTEX
  8
0
 62
     1
  6
CONTINUOUS
 10
2.2587
 20
1.1146
  0
VERTEX
  8
0
 62
     1
  6
CONTINUOUS
 10
2.3004
 20
1.1185
  0
VERTEX
  8
0
 62
     1
  6
CONTINUOUS
 10
2.3420
 20
1.1224
  0
VERTEX
  8
0
 62
     1
  6
CONTINUOUS
 10
2.3837
 20
1.1261
  0
VERTEX
  8
0
 62
     1
  6
CONTINUOUS
 10
2.4254
 20
1.1297
  0
VERTEX
  8
0
 62
     1
  6
CONTINUOUS
 10
2.4670
 20
1.1332
  0
VERTEX
  8
0
 62
     1
  6
CONTINUOUS
 10
2.5087
 20
1.1365
  0
VERTEX
  8
0
 62
     1
  6
CONTINUOUS
 10
2.5505
 20
1.1396
  0
VERTEX
  8
0
 62
     1
  6
CONTINUOUS
 10
2.5921
 20
1.1425
  0
VERTEX
  8
0
 62
     1
  6
CONTINUOUS
 10
2.6337
 20
1.1452
  0
VERTEX
  8
0
 62
     1
  6
CONTINUOUS
 10
2.6753
 20
1.1477
  0
VERTEX
  8
0
 62
     1
  6
CONTINUOUS
 10
2.7170
 20
1.1500
  0
VERTEX
  8
0
 62
     1
  6
CONTINUOUS
 10
2.7586
 20
1.1522
  0
VERTEX
  8
0
 62
     1
  6
CONTINUOUS
 10
2.8003
 20
1.1543
  0
VERTEX
  8
0
 62
     1
  6
CONTINUOUS
 10
2.8420
 20
1.1562
  0
VERTEX
  8
0
 62
     1
  6
CONTINUOUS
 10
2.8837
 20
1.1581
  0
VERTEX
  8
0
 62
     1
  6
CONTINUOUS
 10
2.9254
 20
1.1598
  0
VERTEX
  8
0
 62
     1
  6
CONTINUOUS
 10
2.9671
 20
1.1615
  0
VERTEX
  8
0
 62
     1
  6
CONTINUOUS
 10
3.0088
 20
1.1630
  0
VERTEX
  8
0
 62
     1
  6
CONTINUOUS
 10
3.0504
 20
1.1646
  0
VERTEX
  8
0
 62
     1
  6
CONTINUOUS
 10
3.1338
 20
1.1675
  0
VERTEX
  8
0
 62
     1
  6
CONTINUOUS
 10
3.2171
 20
1.1703
  0
VERTEX
  8
0
 62
     1
  6
CONTINUOUS
 10
3.3004
 20
1.1729
  0
VERTEX
  8
0
 62
     1
  6
CONTINUOUS
 10
3.3837
 20
1.1754
  0
VERTEX
  8
0
 62
     1
  6
CONTINUOUS
 10
3.4671
 20
1.1778
  0
VERTEX
  8
0
 62
     1
  6
CONTINUOUS
 10
3.5504
 20
1.1799
  0
VERTEX
  8
0
 62
     1
  6
CONTINUOUS
 10
3.6337
 20
1.1819
  0
VERTEX
  8
0
 62
     1
  6
CONTINUOUS
 10
3.7171
 20
1.1838
  0
VERTEX
  8
0
 62
     1
  6
CONTINUOUS
 10
3.8004
 20
1.1855
  0
VERTEX
  8
0
 62
     1
  6
CONTINUOUS
 10
3.8837
 20
1.1870
  0
VERTEX
  8
0
 62
     1
  6
CONTINUOUS
 10
3.9671
 20
1.1884
  0
VERTEX
  8
0
 62
     1
  6
CONTINUOUS
 10
4.0504
 20
1.1896
  0
VERTEX
  8
0
 62
     1
  6
CONTINUOUS
 10
4.1338
 20
1.1906
  0
VERTEX
  8
0
 62
     1
  6
CONTINUOUS
 10
4.2171
 20
1.1915
  0
VERTEX
  8
0
 62
     1
  6
CONTINUOUS
 10
4.3004
 20
1.1922
  0
VERTEX
  8
0
 62
     1
  6
CONTINUOUS
 10
4.3838
 20
1.1927
  0
VERTEX
  8
0
 62
     1
  6
CONTINUOUS
 10
4.4671
 20
1.1930
  0
VERTEX
  8
0
 62
     1
  6
CONTINUOUS
 10
4.5504
 20
1.1932
  0
VERTEX
  8
0
 62
     1
  6
CONTINUOUS
 10
4.6338
 20
1.1931
  0
VERTEX
  8
0
 62
     1
  6
CONTINUOUS
 10
4.7171
 20
1.1928
  0
VERTEX
  8
0
 62
     1
  6
CONTINUOUS
 10
4.8004
 20
1.1923
  0
VERTEX
  8
0
 62
     1
  6
CONTINUOUS
 10
4.8838
 20
1.1916
  0
VERTEX
  8
0
 62
     1
  6
CONTINUOUS
 10
4.9671
 20
1.1907
  0
VERTEX
  8
0
 62
     1
  6
CONTINUOUS
 10
5.0504
 20
1.1896
  0
VERTEX
  8
0
 62
     1
  6
CONTINUOUS
 10
5.1338
 20
1.1882
  0
VERTEX
  8
0
 62
     1
  6
CONTINUOUS
 10
5.2171
 20
1.1866
  0
VERTEX
  8
0
 62
     1
  6
CONTINUOUS
 10
5.3005
 20
1.1847
  0
VERTEX
  8
0
 62
     1
  6
CONTINUOUS
 10
5.3838
 20
1.1827
  0
VERTEX
  8
0
 62
     1
  6
CONTINUOUS
 10
5.4672
 20
1.1805
  0
VERTEX
  8
0
 62
     1
  6
CONTINUOUS
 10
5.5505
 20
1.1780
  0
VERTEX
  8
0
 62
     1
  6
CONTINUOUS
 10
5.6338
 20
1.1754
  0
VERTEX
  8
0
 62
     1
  6
CONTINUOUS
 10
5.7172
 20
1.1725
  0
VERTEX
  8
0
 62
     1
  6
CONTINUOUS
 10
5.8005
 20
1.1695
  0
VERTEX
  8
0
 62
     1
  6
CONTINUOUS
 10
5.8838
 20
1.1664
  0
VERTEX
  8
0
 62
     1
  6
CONTINUOUS
 10
5.9671
 20
1.1631
  0
VERTEX
  8
0
 62
     1
  6
CONTINUOUS
 10
6.0504
 20
1.1596
  0
VERTEX
  8
0
 62
     1
  6
CONTINUOUS
 10
6.1338
 20
1.1559
  0
VERTEX
  8
0
 62
     1
  6
CONTINUOUS
 10
6.2171
 20
1.1522
  0
VERTEX
  8
0
 62
     1
  6
CONTINUOUS
 10
6.3005
 20
1.1483
  0
VERTEX
  8
0
 62
     1
  6
CONTINUOUS
 10
6.3838
 20
1.1443
  0
VERTEX
  8
0
 62
     1
  6
CONTINUOUS
 10
6.4671
 20
1.1402
  0
VERTEX
  8
0
 62
     1
  6
CONTINUOUS
 10
6.5505
 20
1.1360
  0
VERTEX
  8
0
 62
     1
  6
CONTINUOUS
 10
6.6338
 20
1.1317
  0
VERTEX
  8
0
 62
     1
  6
CONTINUOUS
 10
6.7171
 20
1.1274
  0
VERTEX
  8
0
 62
     1
  6
CONTINUOUS
 10
6.8004
 20
1.1230
  0
VERTEX
  8
0
 62
     1
  6
CONTINUOUS
 10
6.8838
 20
1.1186
  0
VERTEX
  8
0
 62
     1
  6
CONTINUOUS
 10
6.9671
 20
1.1141
  0
VERTEX
  8
0
 62
     1
  6
CONTINUOUS
 10
7.0504
 20
1.1096
  0
VERTEX
  8
0
 62
     1
  6
CONTINUOUS
 10
7.1337
 20
1.1051
  0
VERTEX
  8
0
 62
     1
  6
CONTINUOUS
 10
7.2170
 20
1.1005
  0
VERTEX
  8
0
 62
     1
  6
CONTINUOUS
 10
7.3004
 20
1.0960
  0
VERTEX
  8
0
 62
     1
  6
CONTINUOUS
 10
7.3837
 20
1.0914
  0
VERTEX
  8
0
 62
     1
  6
CONTINUOUS
 10
7.4670
 20
1.0869
  0
VERTEX
  8
0
 62
     1
  6
CONTINUOUS
 10
7.5504
 20
1.0823
  0
VERTEX
  8
0
 62
     1
  6
CONTINUOUS
 10
7.6337
 20
1.0777
  0
VERTEX
  8
0
 62
     1
  6
CONTINUOUS
 10
7.7170
 20
1.0731
  0
VERTEX
  8
0
 62
     1
  6
CONTINUOUS
 10
7.8004
 20
1.0685
  0
VERTEX
  8
0
 62
     1
  6
CONTINUOUS
 10
7.8837
 20
1.0639
  0
VERTEX
  8
0
 62
     1
  6
CONTINUOUS
 10
7.9670
 20
1.0592
  0
VERTEX
  8
0
 62
     1
  6
CONTINUOUS
 10
8.0504
 20
1.0546
  0
VERTEX
  8
0
 62
     1
  6
CONTINUOUS
 10
8.1337
 20
1.0499
  0
VERTEX
  8
0
 62
     1
  6
CONTINUOUS
 10
8.2171
 20
1.0452
  0
VERTEX
  8
0
 62
     1
  6
CONTINUOUS
 10
8.3005
 20
1.0404
  0
VERTEX
  8
0
 62
     1
  6
CONTINUOUS
 10
8.3839
 20
1.0355
  0
VERTEX
  8
0
 62
     1
  6
CONTINUOUS
 10
8.4672
 20
1.0305
  0
VERTEX
  8
0
 62
     1
  6
CONTINUOUS
 10
8.5506
 20
1.0254
  0
VERTEX
  8
0
 62
     1
  6
CONTINUOUS
 10
8.6339
 20
1.0200
  0
VERTEX
  8
0
 62
     1
  6
CONTINUOUS
 10
8.7173
 20
1.0145
  0
VERTEX
  8
0
 62
     1
  6
CONTINUOUS
 10
8.8006
 20
1.0087
  0
VERTEX
  8
0
 62
     1
  6
CONTINUOUS
 10
8.8838
 20
1.0026
  0
VERTEX
  8
0
 62
     1
  6
CONTINUOUS
 10
8.9671
 20
0.9963
  0
VERTEX
  8
0
 62
     1
  6
CONTINUOUS
 10
9.0503
 20
0.9896
  0
VERTEX
  8
0
 62
     1
  6
CONTINUOUS
 10
9.0920
 20
0.9861
  0
VERTEX
  8
0
 62
     1
  6
CONTINUOUS
 10
9.1337
 20
0.9825
  0
VERTEX
  8
0
 62
     1
  6
CONTINUOUS
 10
9.1754
 20
0.9789
  0
VERTEX
  8
0
 62
     1
  6
CONTINUOUS
 10
9.2171
 20
0.9752
  0
VERTEX
  8
0
 62
     1
  6
CONTINUOUS
 10
9.2587
 20
0.9715
  0
VERTEX
  8
0
 62
     1
  6
CONTINUOUS
 10
9.3004
 20
0.9677
  0
VERTEX
  8
0
 62
     1
  6
CONTINUOUS
 10
9.3420
 20
0.9639
  0
VERTEX
  8
0
 62
     1
  6
CONTINUOUS
 10
9.3837
 20
0.9600
  0
VERTEX
  8
0
 62
     1
  6
CONTINUOUS
 10
9.4254
 20
0.9562
  0
VERTEX
  8
0
 62
     1
  6
CONTINUOUS
 10
9.4670
 20
0.9523
  0
VERTEX
  8
0
 62
     1
  6
CONTINUOUS
 10
9.5087
 20
0.9484
  0
VERTEX
  8
0
 62
     1
  6
CONTINUOUS
 10
9.5503
 20
0.9446
  0
VERTEX
  8
0
 62
     1
  6
CONTINUOUS
 10
9.5920
 20
0.9408
  0
VERTEX
  8
0
 62
     1
  6
CONTINUOUS
 10
9.6337
 20
0.9369
  0
VERTEX
  8
0
 62
     1
  6
CONTINUOUS
 10
9.6753
 20
0.9332
  0
VERTEX
  8
0
 62
     1
  6
CONTINUOUS
 10
9.7170
 20
0.9294
  0
VERTEX
  8
0
 62
     1
  6
CONTINUOUS
 10
9.7586
 20
0.9256
  0
VERTEX
  8
0
 62
     1
  6
CONTINUOUS
 10
9.8003
 20
0.9219
  0
VERTEX
  8
0
 62
     1
  6
CONTINUOUS
 10
9.8420
 20
0.9181
  0
VERTEX
  8
0
 62
     1
  6
CONTINUOUS
 10
9.8836
 20
0.9144
  0
VERTEX
  8
0
 62
     1
  6
CONTINUOUS
 10
9.9253
 20
0.9107
  0
VERTEX
  8
0
 62
     1
  6
CONTINUOUS
 10
9.9670
 20
0.9070
  0
VERTEX
  8
0
 62
     1
  6
CONTINUOUS
 10
10.0087
 20
0.9033
  0
VERTEX
  8
0
 62
     1
  6
CONTINUOUS
 10
10.0503
 20
0.8996
  0
SEQEND
  8
0
  0
ENDSEC
  0
EOF
