  0
SECTION
  2
HEADER
  9
$ACADVER
  1
AC1004
  9
$EXTMIN
 10
0.0404
 20
0.6881
  9
$EXTMAX
 10
8.0398
 20
4.5671
  9
$LIMMIN
 10
0.0404
 20
0.6881
  9
$LIMMAX
 10
8.0398
 20
4.5671
  9
$INSBASE
 10
0.0
 20
0.0
  9
$VIEWCTR
 10
7.21903
 20
4.5
  9
$VIEWSIZE
 40
9.0
  9
$SNAPMODE
 70
     0
  9
$SNAPUNIT
 10
1.0
 20
1.0
  9
$SNAPBASE
 10
0.0
 20
0.0
  9
$SNAPANG
 50
0.0
  9
$SNAPSTYLE
 70
     0
  9
$SNAPISOPAIR
 70
     0
  9
$GRIDMODE
 70
     0
  9
$GRIDUNIT
 10
0.0
 20
0.0
  9
$ORTHOMODE
 70
     0
  9
$REGENMODE
 70
     1
  9
$FILLMODE
 70
     1
  9
$QTEXTMODE
 70
     0
  9
$DRAGMODE
 70
     2
  9
$LTSCALE
 40
1.0
  9
$OSMODE
 70
     0
  9
$ATTMODE
 70
     1
  9
$TEXTSIZE
 40
0.2
  9
$TRACEWID
 40
0.05
  9
$TEXTSTYLE
  7
STANDARD
  9
$CLAYER
  8
0
  9
$CELTYPE
  6
BYLAYER
  9
$CECOLOR
 62
   256
  9
$DIMSCALE
 40
1.0
  9
$DIMASZ
 40
0.18
  9
$DIMEXO
 40
0.0625
  9
$DIMDLI
 40
0.38
  9
$DIMRND
 40
0.0
  9
$DIMDLE
 40
0.0
  9
$DIMEXE
 40
0.18
  9
$DIMTP
 40
0.0
  9
$DIMTM
 40
0.0
  9
$DIMTXT
 40
0.18
  9
$DIMCEN
 40
0.09
  9
$DIMTSZ
 40
0.0
  9
$DIMTOL
 70
     0
  9
$DIMLIM
 70
     0
  9
$DIMTIH
 70
     1
  9
$DIMTOH
 70
     1
  9
$DIMSE1
 70
     0
  9
$DIMSE2
 70
     0
  9
$DIMTAD
 70
     0
  9
$DIMZIN
 70
     0
  9
$DIMBLK
  1

  9
$DIMASO
 70
     1
  9
$DIMSHO
 70
     0
  9
$DIMPOST
  1

  9
$DIMAPOST
  1

  9
$DIMALT
 70
     0
  9
$DIMALTD
 70
     2
  9
$DIMALTF
 40
25.4
  9
$DIMLFAC
 40
1.0
  9
$LUNITS
 70
     2
  9
$LUPREC
 70
     4
  9
$AXISMODE
 70
     0
  9
$AXISUNIT
 10
0.0
 20
0.0
  9
$SKETCHINC
 40
0.1
  9
$FILLETRAD
 40
0.0
  9
$AUNITS
 70
     0
  9
$AUPREC
 70
     0
  9
$MENU
  1
acad
  9
$ELEVATION
 40
0.0
  9
$THICKNESS
 40
0.0
  9
$VIEWDIR
 10
0.0
 20
0.0
 30
1.0
  9
$LIMCHECK
 70
     0
  9
$BLIPMODE
 70
     1
  9
$CHAMFERA
 40
0.0
  9
$CHAMFERB
 40
0.0
  9
$FASTZOOM
 70
     1
  9
$SKPOLY
 70
     0
  9
$TDCREATE
 40
2447222.5666886573
  9
$TDUPDATE
 40
2447222.5666886573
  9
$TDINDWG
 40
0.0000000000
  9
$TDUSRTIMER
 40
0.0000000000
  9
$USRTIMER
 70
     1
  9
$ANGBASE
 50
0.0
  9
$ANGDIR
 70
     0
  9
$PDMODE
 70
     0
  9
$PDSIZE
 40
0.0
  9
$PLINEWID
 40
0.0
  9
$COORDS
 70
     0
  9
$SPLFRAME
 70
     0
  9
$SPLINESEGS
 70
     8
  9
$ATTDIA
 70
     0
  9
$ATTREQ
 70
     1
  9
$USERI1
 70
     0
  9
$USERI2
 70
     0
  9
$USERI3
 70
     0
  9
$USERI4
 70
     0
  9
$USERI5
 70
     0
  9
$USERR1
 40
0.0
  9
$USERR2
 40
0.0
  9
$USERR3
 40
0.0
  9
$USERR4
 40
0.0
  9
$USERR5
 40
0.0
  0
ENDSEC
  0
SECTION
  2
TABLES
  0
TABLE
  2
LTYPE
 70
     13
  0
LTYPE
  2
CONTINUOUS
 70
    64
  3
Solid line
 72
    65
 73
     0
 40
0.0
  0
LTYPE
  2
DASHED
 70
    64
  3
__ __ __ __ __ __ __ __ __ __ __ __ __ __ __
 72
    65
 73
     2
 40
0.75
 49
0.5
 49
-0.25
  0
LTYPE
  2
HIDDEN
 70
    64
  3
_ _ _ _ _ _ _ _ _ _ _ _ _ _ _ _ _ _ _ _ _ _ _
 72
    65
 73
     2
 40
0.375
 49
0.25
 49
-0.125
  0
LTYPE
  2
CENTER
 70
    64
  3
____ _ ____ _ ____ _ ____ _ ____ _ ____ _ ____
 72
    65
 73
     4
 40
2.0
 49
1.25
 49
-0.25
 49
0.25
 49
-0.25
  0
LTYPE
  2
PHANTOM
 70
    64
  3
_____ _ _ _____ _ _ _____ _ _ _____ _ _ ____
 72
    65
 73
     6
 40
2.5
 49
1.25
 49
-0.25
 49
0.25
 49
-0.25
 49
0.25
 49
-0.25
  0
LTYPE
  2
DOT
 70
    64
  3
...............................................
 72
    65
 73
     2
 40
0.25
 49
0.0
 49
-0.25
  0
LTYPE
  2
DASHDOT
 70
    64
  3
__ . __ . __ . __ . __ . __ . __ . __ . __ . __
 72
    65
 73
     4
 40
1.0
 49
0.5
 49
-0.25
 49
0.0
 49
-0.25
  0
LTYPE
  2
BORDER
 70
    64
  3
__ __ . __ __ . __ __ . __ __ . __ __ . __ __
 72
    65
 73
     6
 40
1.75
 49
0.5
 49
-0.25
 49
0.5
 49
-0.25
 49
0.0
 49
-0.25
  0
LTYPE
  2
DIVIDE
 70
    64
  3
__ . . __ . . __ . . __ . . __ . . __ . . __
 72
    65
 73
     6
 40
1.25
 49
0.5
 49
-0.25
 49
0.0
 49
-0.25
 49
0.0
 49
-0.25
  0
LTYPE
  2
DCTYPE1
 70
    64
  3
__ . . __ . . __ . . __ . . __ . . __ . . __
 72
    65
 73
     8
 40
2.5
 49
0.5
 49
-0.25
 49
0.125
 49
-0.25
 49
0.25
 49
-0.25
 49
0.125
 49
-0.25
  0
LTYPE
  2
DCTYPE2
 70
    64
  3
__ . . __ . . __ . . __ . . __ . . __ . . __
 72
    65
 73
     6
 40
2.05
 49
1.0
 49
-0.3
 49
0.15
 49
-0.15
 49
0.15
 49
-0.3
  0
LTYPE
  2
DCTYPE3
 70
    64
  3
__ . . __ . . __ . . __ . . __ . . __ . . __
 72
    65
 73
     6
 40
2.5
 49
0.8
 49
-0.2
 49
0.8
 49
-0.2
 49
0.3
 49
-0.2
  0
LTYPE
  2
DCTYPE4
 70
    64
  3
__ . . __ . . __ . . __ . . __ . . __ . . __
 72
    65
 73
     10
 40
3.97
 49
1.75
 49
-0.3
 49
0.3
 49
-0.3
 49
0.06
 49
-0.3
 49
0.06
 49
-0.3
 49
0.3
 49
-0.3
  0
ENDTAB
  0
TABLE
  2
LAYER
 70
    153
  0
LAYER
  2
0
 70
 64
 62
     7
  6
CONTINUOUS
  0
ENDTAB
  0
ENDSEC
  0
SECTION
  2
BLOCKS
  0
ENDSEC
  0
SECTION
  2
ENTITIES
  0
TEXT
  8
0
 62
     7
 10
0.0404
 20
3.8883
 40
0.5656
 50
0.0000
 51
0.0000
  1
BENEDEK B9304B
 72
     5
 11
8.0398
 21
3.8883
  0
POLYLINE
  8
0
 62
     3
 66
     1
  6
CONTINUOUS
  0
VERTEX
  8
0
 62
     3
  6
CONTINUOUS
 10
0.0404
 20
0.8086
  0
VERTEX
  8
0
 62
     3
  6
CONTINUOUS
 10
0.0418
 20
0.8123
  0
VERTEX
  8
0
 62
     3
  6
CONTINUOUS
 10
0.0431
 20
0.8161
  0
VERTEX
  8
0
 62
     3
  6
CONTINUOUS
 10
0.0445
 20
0.8199
  0
VERTEX
  8
0
 62
     3
  6
CONTINUOUS
 10
0.0458
 20
0.8237
  0
VERTEX
  8
0
 62
     3
  6
CONTINUOUS
 10
0.0472
 20
0.8275
  0
VERTEX
  8
0
 62
     3
  6
CONTINUOUS
 10
0.0485
 20
0.8313
  0
VERTEX
  8
0
 62
     3
  6
CONTINUOUS
 10
0.0499
 20
0.8351
  0
VERTEX
  8
0
 62
     3
  6
CONTINUOUS
 10
0.0512
 20
0.8389
  0
VERTEX
  8
0
 62
     3
  6
CONTINUOUS
 10
0.0525
 20
0.8428
  0
VERTEX
  8
0
 62
     3
  6
CONTINUOUS
 10
0.0538
 20
0.8467
  0
VERTEX
  8
0
 62
     3
  6
CONTINUOUS
 10
0.0551
 20
0.8506
  0
VERTEX
  8
0
 62
     3
  6
CONTINUOUS
 10
0.0564
 20
0.8546
  0
VERTEX
  8
0
 62
     3
  6
CONTINUOUS
 10
0.0574
 20
0.8576
  0
VERTEX
  8
0
 62
     3
  6
CONTINUOUS
 10
0.0584
 20
0.8607
  0
VERTEX
  8
0
 62
     3
  6
CONTINUOUS
 10
0.0594
 20
0.8638
  0
VERTEX
  8
0
 62
     3
  6
CONTINUOUS
 10
0.0604
 20
0.8668
  0
VERTEX
  8
0
 62
     3
  6
CONTINUOUS
 10
0.0615
 20
0.8698
  0
VERTEX
  8
0
 62
     3
  6
CONTINUOUS
 10
0.0627
 20
0.8728
  0
VERTEX
  8
0
 62
     3
  6
CONTINUOUS
 10
0.0640
 20
0.8757
  0
VERTEX
  8
0
 62
     3
  6
CONTINUOUS
 10
0.0654
 20
0.8785
  0
VERTEX
  8
0
 62
     3
  6
CONTINUOUS
 10
0.0669
 20
0.8812
  0
VERTEX
  8
0
 62
     3
  6
CONTINUOUS
 10
0.0686
 20
0.8838
  0
VERTEX
  8
0
 62
     3
  6
CONTINUOUS
 10
0.0704
 20
0.8862
  0
VERTEX
  8
0
 62
     3
  6
CONTINUOUS
 10
0.0724
 20
0.8886
  0
VERTEX
  8
0
 62
     3
  6
CONTINUOUS
 10
0.0736
 20
0.8898
  0
VERTEX
  8
0
 62
     3
  6
CONTINUOUS
 10
0.0749
 20
0.8910
  0
VERTEX
  8
0
 62
     3
  6
CONTINUOUS
 10
0.0762
 20
0.8922
  0
VERTEX
  8
0
 62
     3
  6
CONTINUOUS
 10
0.0775
 20
0.8933
  0
VERTEX
  8
0
 62
     3
  6
CONTINUOUS
 10
0.0789
 20
0.8945
  0
VERTEX
  8
0
 62
     3
  6
CONTINUOUS
 10
0.0803
 20
0.8956
  0
VERTEX
  8
0
 62
     3
  6
CONTINUOUS
 10
0.0817
 20
0.8967
  0
VERTEX
  8
0
 62
     3
  6
CONTINUOUS
 10
0.0831
 20
0.8978
  0
VERTEX
  8
0
 62
     3
  6
CONTINUOUS
 10
0.0845
 20
0.8990
  0
VERTEX
  8
0
 62
     3
  6
CONTINUOUS
 10
0.0858
 20
0.9001
  0
VERTEX
  8
0
 62
     3
  6
CONTINUOUS
 10
0.0871
 20
0.9013
  0
VERTEX
  8
0
 62
     3
  6
CONTINUOUS
 10
0.0884
 20
0.9026
  0
VERTEX
  8
0
 62
     3
  6
CONTINUOUS
 10
0.0900
 20
0.9042
  0
VERTEX
  8
0
 62
     3
  6
CONTINUOUS
 10
0.0914
 20
0.9059
  0
VERTEX
  8
0
 62
     3
  6
CONTINUOUS
 10
0.0929
 20
0.9077
  0
VERTEX
  8
0
 62
     3
  6
CONTINUOUS
 10
0.0942
 20
0.9095
  0
VERTEX
  8
0
 62
     3
  6
CONTINUOUS
 10
0.0955
 20
0.9113
  0
VERTEX
  8
0
 62
     3
  6
CONTINUOUS
 10
0.0968
 20
0.9132
  0
VERTEX
  8
0
 62
     3
  6
CONTINUOUS
 10
0.0981
 20
0.9151
  0
VERTEX
  8
0
 62
     3
  6
CONTINUOUS
 10
0.0993
 20
0.9170
  0
VERTEX
  8
0
 62
     3
  6
CONTINUOUS
 10
0.1006
 20
0.9189
  0
VERTEX
  8
0
 62
     3
  6
CONTINUOUS
 10
0.1018
 20
0.9208
  0
VERTEX
  8
0
 62
     3
  6
CONTINUOUS
 10
0.1031
 20
0.9227
  0
VERTEX
  8
0
 62
     3
  6
CONTINUOUS
 10
0.1044
 20
0.9246
  0
VERTEX
  8
0
 62
     3
  6
CONTINUOUS
 10
0.1069
 20
0.9280
  0
VERTEX
  8
0
 62
     3
  6
CONTINUOUS
 10
0.1096
 20
0.9312
  0
VERTEX
  8
0
 62
     3
  6
CONTINUOUS
 10
0.1124
 20
0.9344
  0
VERTEX
  8
0
 62
     3
  6
CONTINUOUS
 10
0.1153
 20
0.9375
  0
VERTEX
  8
0
 62
     3
  6
CONTINUOUS
 10
0.1182
 20
0.9406
  0
VERTEX
  8
0
 62
     3
  6
CONTINUOUS
 10
0.1213
 20
0.9435
  0
VERTEX
  8
0
 62
     3
  6
CONTINUOUS
 10
0.1244
 20
0.9464
  0
VERTEX
  8
0
 62
     3
  6
CONTINUOUS
 10
0.1275
 20
0.9493
  0
VERTEX
  8
0
 62
     3
  6
CONTINUOUS
 10
0.1307
 20
0.9521
  0
VERTEX
  8
0
 62
     3
  6
CONTINUOUS
 10
0.1339
 20
0.9549
  0
VERTEX
  8
0
 62
     3
  6
CONTINUOUS
 10
0.1372
 20
0.9577
  0
VERTEX
  8
0
 62
     3
  6
CONTINUOUS
 10
0.1404
 20
0.9606
  0
VERTEX
  8
0
 62
     3
  6
CONTINUOUS
 10
0.1488
 20
0.9680
  0
VERTEX
  8
0
 62
     3
  6
CONTINUOUS
 10
0.1571
 20
0.9755
  0
VERTEX
  8
0
 62
     3
  6
CONTINUOUS
 10
0.1653
 20
0.9830
  0
VERTEX
  8
0
 62
     3
  6
CONTINUOUS
 10
0.1735
 20
0.9906
  0
VERTEX
  8
0
 62
     3
  6
CONTINUOUS
 10
0.1817
 20
0.9981
  0
VERTEX
  8
0
 62
     3
  6
CONTINUOUS
 10
0.1898
 20
1.0056
  0
VERTEX
  8
0
 62
     3
  6
CONTINUOUS
 10
0.1981
 20
1.0131
  0
VERTEX
  8
0
 62
     3
  6
CONTINUOUS
 10
0.2063
 20
1.0205
  0
VERTEX
  8
0
 62
     3
  6
CONTINUOUS
 10
0.2147
 20
1.0277
  0
VERTEX
  8
0
 62
     3
  6
CONTINUOUS
 10
0.2231
 20
1.0348
  0
VERTEX
  8
0
 62
     3
  6
CONTINUOUS
 10
0.2317
 20
1.0418
  0
VERTEX
  8
0
 62
     3
  6
CONTINUOUS
 10
0.2404
 20
1.0486
  0
VERTEX
  8
0
 62
     3
  6
CONTINUOUS
 10
0.2555
 20
1.0595
  0
VERTEX
  8
0
 62
     3
  6
CONTINUOUS
 10
0.2710
 20
1.0698
  0
VERTEX
  8
0
 62
     3
  6
CONTINUOUS
 10
0.2869
 20
1.0797
  0
VERTEX
  8
0
 62
     3
  6
CONTINUOUS
 10
0.3031
 20
1.0890
  0
VERTEX
  8
0
 62
     3
  6
CONTINUOUS
 10
0.3197
 20
1.0979
  0
VERTEX
  8
0
 62
     3
  6
CONTINUOUS
 10
0.3365
 20
1.1064
  0
VERTEX
  8
0
 62
     3
  6
CONTINUOUS
 10
0.3535
 20
1.1146
  0
VERTEX
  8
0
 62
     3
  6
CONTINUOUS
 10
0.3707
 20
1.1226
  0
VERTEX
  8
0
 62
     3
  6
CONTINUOUS
 10
0.3880
 20
1.1303
  0
VERTEX
  8
0
 62
     3
  6
CONTINUOUS
 10
0.4054
 20
1.1378
  0
VERTEX
  8
0
 62
     3
  6
CONTINUOUS
 10
0.4229
 20
1.1452
  0
VERTEX
  8
0
 62
     3
  6
CONTINUOUS
 10
0.4404
 20
1.1525
  0
VERTEX
  8
0
 62
     3
  6
CONTINUOUS
 10
0.4570
 20
1.1595
  0
VERTEX
  8
0
 62
     3
  6
CONTINUOUS
 10
0.4737
 20
1.1665
  0
VERTEX
  8
0
 62
     3
  6
CONTINUOUS
 10
0.4903
 20
1.1734
  0
VERTEX
  8
0
 62
     3
  6
CONTINUOUS
 10
0.5069
 20
1.1803
  0
VERTEX
  8
0
 62
     3
  6
CONTINUOUS
 10
0.5235
 20
1.1871
  0
VERTEX
  8
0
 62
     3
  6
CONTINUOUS
 10
0.5401
 20
1.1939
  0
VERTEX
  8
0
 62
     3
  6
CONTINUOUS
 10
0.5568
 20
1.2006
  0
VERTEX
  8
0
 62
     3
  6
CONTINUOUS
 10
0.5734
 20
1.2072
  0
VERTEX
  8
0
 62
     3
  6
CONTINUOUS
 10
0.5901
 20
1.2137
  0
VERTEX
  8
0
 62
     3
  6
CONTINUOUS
 10
0.6068
 20
1.2201
  0
VERTEX
  8
0
 62
     3
  6
CONTINUOUS
 10
0.6236
 20
1.2264
  0
VERTEX
  8
0
 62
     3
  6
CONTINUOUS
 10
0.6404
 20
1.2325
  0
VERTEX
  8
0
 62
     3
  6
CONTINUOUS
 10
0.6568
 20
1.2384
  0
VERTEX
  8
0
 62
     3
  6
CONTINUOUS
 10
0.6733
 20
1.2442
  0
VERTEX
  8
0
 62
     3
  6
CONTINUOUS
 10
0.6898
 20
1.2499
  0
VERTEX
  8
0
 62
     3
  6
CONTINUOUS
 10
0.7064
 20
1.2554
  0
VERTEX
  8
0
 62
     3
  6
CONTINUOUS
 10
0.7230
 20
1.2609
  0
VERTEX
  8
0
 62
     3
  6
CONTINUOUS
 10
0.7397
 20
1.2662
  0
VERTEX
  8
0
 62
     3
  6
CONTINUOUS
 10
0.7564
 20
1.2715
  0
VERTEX
  8
0
 62
     3
  6
CONTINUOUS
 10
0.7731
 20
1.2767
  0
VERTEX
  8
0
 62
     3
  6
CONTINUOUS
 10
0.7899
 20
1.2817
  0
VERTEX
  8
0
 62
     3
  6
CONTINUOUS
 10
0.8067
 20
1.2867
  0
VERTEX
  8
0
 62
     3
  6
CONTINUOUS
 10
0.8235
 20
1.2917
  0
VERTEX
  8
0
 62
     3
  6
CONTINUOUS
 10
0.8403
 20
1.2965
  0
VERTEX
  8
0
 62
     3
  6
CONTINUOUS
 10
0.8733
 20
1.3058
  0
VERTEX
  8
0
 62
     3
  6
CONTINUOUS
 10
0.9063
 20
1.3149
  0
VERTEX
  8
0
 62
     3
  6
CONTINUOUS
 10
0.9394
 20
1.3237
  0
VERTEX
  8
0
 62
     3
  6
CONTINUOUS
 10
0.9726
 20
1.3322
  0
VERTEX
  8
0
 62
     3
  6
CONTINUOUS
 10
1.0058
 20
1.3404
  0
VERTEX
  8
0
 62
     3
  6
CONTINUOUS
 10
1.0391
 20
1.3483
  0
VERTEX
  8
0
 62
     3
  6
CONTINUOUS
 10
1.0725
 20
1.3559
  0
VERTEX
  8
0
 62
     3
  6
CONTINUOUS
 10
1.1059
 20
1.3631
  0
VERTEX
  8
0
 62
     3
  6
CONTINUOUS
 10
1.1394
 20
1.3700
  0
VERTEX
  8
0
 62
     3
  6
CONTINUOUS
 10
1.1730
 20
1.3766
  0
VERTEX
  8
0
 62
     3
  6
CONTINUOUS
 10
1.2066
 20
1.3827
  0
VERTEX
  8
0
 62
     3
  6
CONTINUOUS
 10
1.2403
 20
1.3885
  0
VERTEX
  8
0
 62
     3
  6
CONTINUOUS
 10
1.2734
 20
1.3938
  0
VERTEX
  8
0
 62
     3
  6
CONTINUOUS
 10
1.3066
 20
1.3988
  0
VERTEX
  8
0
 62
     3
  6
CONTINUOUS
 10
1.3398
 20
1.4034
  0
VERTEX
  8
0
 62
     3
  6
CONTINUOUS
 10
1.3730
 20
1.4077
  0
VERTEX
  8
0
 62
     3
  6
CONTINUOUS
 10
1.4063
 20
1.4116
  0
VERTEX
  8
0
 62
     3
  6
CONTINUOUS
 10
1.4397
 20
1.4153
  0
VERTEX
  8
0
 62
     3
  6
CONTINUOUS
 10
1.4731
 20
1.4188
  0
VERTEX
  8
0
 62
     3
  6
CONTINUOUS
 10
1.5065
 20
1.4219
  0
VERTEX
  8
0
 62
     3
  6
CONTINUOUS
 10
1.5399
 20
1.4249
  0
VERTEX
  8
0
 62
     3
  6
CONTINUOUS
 10
1.5733
 20
1.4276
  0
VERTEX
  8
0
 62
     3
  6
CONTINUOUS
 10
1.6068
 20
1.4302
  0
VERTEX
  8
0
 62
     3
  6
CONTINUOUS
 10
1.6403
 20
1.4325
  0
VERTEX
  8
0
 62
     3
  6
CONTINUOUS
 10
1.6736
 20
1.4347
  0
VERTEX
  8
0
 62
     3
  6
CONTINUOUS
 10
1.7069
 20
1.4368
  0
VERTEX
  8
0
 62
     3
  6
CONTINUOUS
 10
1.7402
 20
1.4386
  0
VERTEX
  8
0
 62
     3
  6
CONTINUOUS
 10
1.7735
 20
1.4404
  0
VERTEX
  8
0
 62
     3
  6
CONTINUOUS
 10
1.8069
 20
1.4420
  0
VERTEX
  8
0
 62
     3
  6
CONTINUOUS
 10
1.8402
 20
1.4434
  0
VERTEX
  8
0
 62
     3
  6
CONTINUOUS
 10
1.8735
 20
1.4446
  0
VERTEX
  8
0
 62
     3
  6
CONTINUOUS
 10
1.9069
 20
1.4457
  0
VERTEX
  8
0
 62
     3
  6
CONTINUOUS
 10
1.9402
 20
1.4467
  0
VERTEX
  8
0
 62
     3
  6
CONTINUOUS
 10
1.9736
 20
1.4474
  0
VERTEX
  8
0
 62
     3
  6
CONTINUOUS
 10
2.0069
 20
1.4481
  0
VERTEX
  8
0
 62
     3
  6
CONTINUOUS
 10
2.0402
 20
1.4485
  0
VERTEX
  8
0
 62
     3
  6
CONTINUOUS
 10
2.0736
 20
1.4488
  0
VERTEX
  8
0
 62
     3
  6
CONTINUOUS
 10
2.1069
 20
1.4490
  0
VERTEX
  8
0
 62
     3
  6
CONTINUOUS
 10
2.1402
 20
1.4490
  0
VERTEX
  8
0
 62
     3
  6
CONTINUOUS
 10
2.1736
 20
1.4488
  0
VERTEX
  8
0
 62
     3
  6
CONTINUOUS
 10
2.2069
 20
1.4486
  0
VERTEX
  8
0
 62
     3
  6
CONTINUOUS
 10
2.2402
 20
1.4483
  0
VERTEX
  8
0
 62
     3
  6
CONTINUOUS
 10
2.2735
 20
1.4478
  0
VERTEX
  8
0
 62
     3
  6
CONTINUOUS
 10
2.3069
 20
1.4473
  0
VERTEX
  8
0
 62
     3
  6
CONTINUOUS
 10
2.3402
 20
1.4467
  0
VERTEX
  8
0
 62
     3
  6
CONTINUOUS
 10
2.3735
 20
1.4460
  0
VERTEX
  8
0
 62
     3
  6
CONTINUOUS
 10
2.4069
 20
1.4453
  0
VERTEX
  8
0
 62
     3
  6
CONTINUOUS
 10
2.4402
 20
1.4445
  0
VERTEX
  8
0
 62
     3
  6
CONTINUOUS
 10
2.5069
 20
1.4429
  0
VERTEX
  8
0
 62
     3
  6
CONTINUOUS
 10
2.5737
 20
1.4411
  0
VERTEX
  8
0
 62
     3
  6
CONTINUOUS
 10
2.6404
 20
1.4391
  0
VERTEX
  8
0
 62
     3
  6
CONTINUOUS
 10
2.7071
 20
1.4370
  0
VERTEX
  8
0
 62
     3
  6
CONTINUOUS
 10
2.7738
 20
1.4345
  0
VERTEX
  8
0
 62
     3
  6
CONTINUOUS
 10
2.8405
 20
1.4319
  0
VERTEX
  8
0
 62
     3
  6
CONTINUOUS
 10
2.9072
 20
1.4289
  0
VERTEX
  8
0
 62
     3
  6
CONTINUOUS
 10
2.9738
 20
1.4256
  0
VERTEX
  8
0
 62
     3
  6
CONTINUOUS
 10
3.0405
 20
1.4219
  0
VERTEX
  8
0
 62
     3
  6
CONTINUOUS
 10
3.1071
 20
1.4179
  0
VERTEX
  8
0
 62
     3
  6
CONTINUOUS
 10
3.1736
 20
1.4134
  0
VERTEX
  8
0
 62
     3
  6
CONTINUOUS
 10
3.2402
 20
1.4085
  0
VERTEX
  8
0
 62
     3
  6
CONTINUOUS
 10
3.3069
 20
1.4032
  0
VERTEX
  8
0
 62
     3
  6
CONTINUOUS
 10
3.3736
 20
1.3974
  0
VERTEX
  8
0
 62
     3
  6
CONTINUOUS
 10
3.4403
 20
1.3912
  0
VERTEX
  8
0
 62
     3
  6
CONTINUOUS
 10
3.5070
 20
1.3848
  0
VERTEX
  8
0
 62
     3
  6
CONTINUOUS
 10
3.5737
 20
1.3781
  0
VERTEX
  8
0
 62
     3
  6
CONTINUOUS
 10
3.6403
 20
1.3712
  0
VERTEX
  8
0
 62
     3
  6
CONTINUOUS
 10
3.7069
 20
1.3641
  0
VERTEX
  8
0
 62
     3
  6
CONTINUOUS
 10
3.7736
 20
1.3570
  0
VERTEX
  8
0
 62
     3
  6
CONTINUOUS
 10
3.8402
 20
1.3498
  0
VERTEX
  8
0
 62
     3
  6
CONTINUOUS
 10
3.9068
 20
1.3426
  0
VERTEX
  8
0
 62
     3
  6
CONTINUOUS
 10
3.9734
 20
1.3355
  0
VERTEX
  8
0
 62
     3
  6
CONTINUOUS
 10
4.0401
 20
1.3285
  0
VERTEX
  8
0
 62
     3
  6
CONTINUOUS
 10
4.1068
 20
1.3217
  0
VERTEX
  8
0
 62
     3
  6
CONTINUOUS
 10
4.1735
 20
1.3150
  0
VERTEX
  8
0
 62
     3
  6
CONTINUOUS
 10
4.2402
 20
1.3084
  0
VERTEX
  8
0
 62
     3
  6
CONTINUOUS
 10
4.3069
 20
1.3018
  0
VERTEX
  8
0
 62
     3
  6
CONTINUOUS
 10
4.3736
 20
1.2952
  0
VERTEX
  8
0
 62
     3
  6
CONTINUOUS
 10
4.4403
 20
1.2886
  0
VERTEX
  8
0
 62
     3
  6
CONTINUOUS
 10
4.5070
 20
1.2818
  0
VERTEX
  8
0
 62
     3
  6
CONTINUOUS
 10
4.5737
 20
1.2749
  0
VERTEX
  8
0
 62
     3
  6
CONTINUOUS
 10
4.6403
 20
1.2677
  0
VERTEX
  8
0
 62
     3
  6
CONTINUOUS
 10
4.7069
 20
1.2603
  0
VERTEX
  8
0
 62
     3
  6
CONTINUOUS
 10
4.7735
 20
1.2526
  0
VERTEX
  8
0
 62
     3
  6
CONTINUOUS
 10
4.8400
 20
1.2445
  0
VERTEX
  8
0
 62
     3
  6
CONTINUOUS
 10
4.9068
 20
1.2360
  0
VERTEX
  8
0
 62
     3
  6
CONTINUOUS
 10
4.9736
 20
1.2272
  0
VERTEX
  8
0
 62
     3
  6
CONTINUOUS
 10
5.0403
 20
1.2180
  0
VERTEX
  8
0
 62
     3
  6
CONTINUOUS
 10
5.1070
 20
1.2086
  0
VERTEX
  8
0
 62
     3
  6
CONTINUOUS
 10
5.1737
 20
1.1989
  0
VERTEX
  8
0
 62
     3
  6
CONTINUOUS
 10
5.2403
 20
1.1890
  0
VERTEX
  8
0
 62
     3
  6
CONTINUOUS
 10
5.3069
 20
1.1790
  0
VERTEX
  8
0
 62
     3
  6
CONTINUOUS
 10
5.3735
 20
1.1689
  0
VERTEX
  8
0
 62
     3
  6
CONTINUOUS
 10
5.4401
 20
1.1588
  0
VERTEX
  8
0
 62
     3
  6
CONTINUOUS
 10
5.5067
 20
1.1487
  0
VERTEX
  8
0
 62
     3
  6
CONTINUOUS
 10
5.5733
 20
1.1386
  0
VERTEX
  8
0
 62
     3
  6
CONTINUOUS
 10
5.6400
 20
1.1285
  0
VERTEX
  8
0
 62
     3
  6
CONTINUOUS
 10
5.7067
 20
1.1186
  0
VERTEX
  8
0
 62
     3
  6
CONTINUOUS
 10
5.7734
 20
1.1088
  0
VERTEX
  8
0
 62
     3
  6
CONTINUOUS
 10
5.8401
 20
1.0991
  0
VERTEX
  8
0
 62
     3
  6
CONTINUOUS
 10
5.9068
 20
1.0894
  0
VERTEX
  8
0
 62
     3
  6
CONTINUOUS
 10
5.9735
 20
1.0796
  0
VERTEX
  8
0
 62
     3
  6
CONTINUOUS
 10
6.0402
 20
1.0699
  0
VERTEX
  8
0
 62
     3
  6
CONTINUOUS
 10
6.1069
 20
1.0600
  0
VERTEX
  8
0
 62
     3
  6
CONTINUOUS
 10
6.1735
 20
1.0501
  0
VERTEX
  8
0
 62
     3
  6
CONTINUOUS
 10
6.2402
 20
1.0400
  0
VERTEX
  8
0
 62
     3
  6
CONTINUOUS
 10
6.3068
 20
1.0297
  0
VERTEX
  8
0
 62
     3
  6
CONTINUOUS
 10
6.3734
 20
1.0193
  0
VERTEX
  8
0
 62
     3
  6
CONTINUOUS
 10
6.4399
 20
1.0086
  0
VERTEX
  8
0
 62
     3
  6
CONTINUOUS
 10
6.5067
 20
0.9975
  0
VERTEX
  8
0
 62
     3
  6
CONTINUOUS
 10
6.5735
 20
0.9862
  0
VERTEX
  8
0
 62
     3
  6
CONTINUOUS
 10
6.6402
 20
0.9747
  0
VERTEX
  8
0
 62
     3
  6
CONTINUOUS
 10
6.7069
 20
0.9630
  0
VERTEX
  8
0
 62
     3
  6
CONTINUOUS
 10
6.7736
 20
0.9510
  0
VERTEX
  8
0
 62
     3
  6
CONTINUOUS
 10
6.8403
 20
0.9390
  0
VERTEX
  8
0
 62
     3
  6
CONTINUOUS
 10
6.9069
 20
0.9268
  0
VERTEX
  8
0
 62
     3
  6
CONTINUOUS
 10
6.9735
 20
0.9144
  0
VERTEX
  8
0
 62
     3
  6
CONTINUOUS
 10
7.0401
 20
0.9020
  0
VERTEX
  8
0
 62
     3
  6
CONTINUOUS
 10
7.1067
 20
0.8896
  0
VERTEX
  8
0
 62
     3
  6
CONTINUOUS
 10
7.1733
 20
0.8771
  0
VERTEX
  8
0
 62
     3
  6
CONTINUOUS
 10
7.2398
 20
0.8646
  0
VERTEX
  8
0
 62
     3
  6
CONTINUOUS
 10
7.2732
 20
0.8583
  0
VERTEX
  8
0
 62
     3
  6
CONTINUOUS
 10
7.3065
 20
0.8520
  0
VERTEX
  8
0
 62
     3
  6
CONTINUOUS
 10
7.3399
 20
0.8458
  0
VERTEX
  8
0
 62
     3
  6
CONTINUOUS
 10
7.3732
 20
0.8395
  0
VERTEX
  8
0
 62
     3
  6
CONTINUOUS
 10
7.4066
 20
0.8332
  0
VERTEX
  8
0
 62
     3
  6
CONTINUOUS
 10
7.4399
 20
0.8269
  0
VERTEX
  8
0
 62
     3
  6
CONTINUOUS
 10
7.4732
 20
0.8206
  0
VERTEX
  8
0
 62
     3
  6
CONTINUOUS
 10
7.5066
 20
0.8142
  0
VERTEX
  8
0
 62
     3
  6
CONTINUOUS
 10
7.5399
 20
0.8079
  0
VERTEX
  8
0
 62
     3
  6
CONTINUOUS
 10
7.5732
 20
0.8015
  0
VERTEX
  8
0
 62
     3
  6
CONTINUOUS
 10
7.6065
 20
0.7950
  0
VERTEX
  8
0
 62
     3
  6
CONTINUOUS
 10
7.6398
 20
0.7886
  0
VERTEX
  8
0
 62
     3
  6
CONTINUOUS
 10
7.6732
 20
0.7821
  0
VERTEX
  8
0
 62
     3
  6
CONTINUOUS
 10
7.7065
 20
0.7755
  0
VERTEX
  8
0
 62
     3
  6
CONTINUOUS
 10
7.7399
 20
0.7689
  0
VERTEX
  8
0
 62
     3
  6
CONTINUOUS
 10
7.7732
 20
0.7623
  0
VERTEX
  8
0
 62
     3
  6
CONTINUOUS
 10
7.8065
 20
0.7556
  0
VERTEX
  8
0
 62
     3
  6
CONTINUOUS
 10
7.8399
 20
0.7489
  0
VERTEX
  8
0
 62
     3
  6
CONTINUOUS
 10
7.8732
 20
0.7422
  0
VERTEX
  8
0
 62
     3
  6
CONTINUOUS
 10
7.9065
 20
0.7355
  0
VERTEX
  8
0
 62
     3
  6
CONTINUOUS
 10
7.9398
 20
0.7288
  0
VERTEX
  8
0
 62
     3
  6
CONTINUOUS
 10
7.9731
 20
0.7221
  0
VERTEX
  8
0
 62
     3
  6
CONTINUOUS
 10
8.0065
 20
0.7153
  0
VERTEX
  8
0
 62
     3
  6
CONTINUOUS
 10
8.0398
 20
0.7086
  0
SEQEND
  8
0
  0
POLYLINE
  8
0
 62
     1
 66
     1
  6
CONTINUOUS
  0
VERTEX
  8
0
 62
     1
  6
CONTINUOUS
 10
0.0404
 20
0.8086
  0
VERTEX
  8
0
 62
     1
  6
CONTINUOUS
 10
0.0413
 20
0.8049
  0
VERTEX
  8
0
 62
     1
  6
CONTINUOUS
 10
0.0422
 20
0.8013
  0
VERTEX
  8
0
 62
     1
  6
CONTINUOUS
 10
0.0432
 20
0.7977
  0
VERTEX
  8
0
 62
     1
  6
CONTINUOUS
 10
0.0442
 20
0.7941
  0
VERTEX
  8
0
 62
     1
  6
CONTINUOUS
 10
0.0453
 20
0.7905
  0
VERTEX
  8
0
 62
     1
  6
CONTINUOUS
 10
0.0465
 20
0.7871
  0
VERTEX
  8
0
 62
     1
  6
CONTINUOUS
 10
0.0478
 20
0.7836
  0
VERTEX
  8
0
 62
     1
  6
CONTINUOUS
 10
0.0492
 20
0.7803
  0
VERTEX
  8
0
 62
     1
  6
CONTINUOUS
 10
0.0507
 20
0.7770
  0
VERTEX
  8
0
 62
     1
  6
CONTINUOUS
 10
0.0524
 20
0.7738
  0
VERTEX
  8
0
 62
     1
  6
CONTINUOUS
 10
0.0543
 20
0.7707
  0
VERTEX
  8
0
 62
     1
  6
CONTINUOUS
 10
0.0564
 20
0.7678
  0
VERTEX
  8
0
 62
     1
  6
CONTINUOUS
 10
0.0575
 20
0.7664
  0
VERTEX
  8
0
 62
     1
  6
CONTINUOUS
 10
0.0586
 20
0.7650
  0
VERTEX
  8
0
 62
     1
  6
CONTINUOUS
 10
0.0598
 20
0.7636
  0
VERTEX
  8
0
 62
     1
  6
CONTINUOUS
 10
0.0611
 20
0.7623
  0
VERTEX
  8
0
 62
     1
  6
CONTINUOUS
 10
0.0624
 20
0.7611
  0
VERTEX
  8
0
 62
     1
  6
CONTINUOUS
 10
0.0637
 20
0.7598
  0
VERTEX
  8
0
 62
     1
  6
CONTINUOUS
 10
0.0651
 20
0.7586
  0
VERTEX
  8
0
 62
     1
  6
CONTINUOUS
 10
0.0665
 20
0.7575
  0
VERTEX
  8
0
 62
     1
  6
CONTINUOUS
 10
0.0679
 20
0.7564
  0
VERTEX
  8
0
 62
     1
  6
CONTINUOUS
 10
0.0694
 20
0.7553
  0
VERTEX
  8
0
 62
     1
  6
CONTINUOUS
 10
0.0709
 20
0.7543
  0
VERTEX
  8
0
 62
     1
  6
CONTINUOUS
 10
0.0724
 20
0.7534
  0
VERTEX
  8
0
 62
     1
  6
CONTINUOUS
 10
0.0737
 20
0.7526
  0
VERTEX
  8
0
 62
     1
  6
CONTINUOUS
 10
0.0749
 20
0.7519
  0
VERTEX
  8
0
 62
     1
  6
CONTINUOUS
 10
0.0762
 20
0.7513
  0
VERTEX
  8
0
 62
     1
  6
CONTINUOUS
 10
0.0776
 20
0.7506
  0
VERTEX
  8
0
 62
     1
  6
CONTINUOUS
 10
0.0789
 20
0.7500
  0
VERTEX
  8
0
 62
     1
  6
CONTINUOUS
 10
0.0802
 20
0.7494
  0
VERTEX
  8
0
 62
     1
  6
CONTINUOUS
 10
0.0816
 20
0.7488
  0
VERTEX
  8
0
 62
     1
  6
CONTINUOUS
 10
0.0829
 20
0.7483
  0
VERTEX
  8
0
 62
     1
  6
CONTINUOUS
 10
0.0843
 20
0.7477
  0
VERTEX
  8
0
 62
     1
  6
CONTINUOUS
 10
0.0857
 20
0.7472
  0
VERTEX
  8
0
 62
     1
  6
CONTINUOUS
 10
0.0870
 20
0.7467
  0
VERTEX
  8
0
 62
     1
  6
CONTINUOUS
 10
0.0884
 20
0.7462
  0
VERTEX
  8
0
 62
     1
  6
CONTINUOUS
 10
0.0897
 20
0.7457
  0
VERTEX
  8
0
 62
     1
  6
CONTINUOUS
 10
0.0911
 20
0.7452
  0
VERTEX
  8
0
 62
     1
  6
CONTINUOUS
 10
0.0924
 20
0.7447
  0
VERTEX
  8
0
 62
     1
  6
CONTINUOUS
 10
0.0937
 20
0.7443
  0
VERTEX
  8
0
 62
     1
  6
CONTINUOUS
 10
0.0951
 20
0.7438
  0
VERTEX
  8
0
 62
     1
  6
CONTINUOUS
 10
0.0964
 20
0.7433
  0
VERTEX
  8
0
 62
     1
  6
CONTINUOUS
 10
0.0977
 20
0.7429
  0
VERTEX
  8
0
 62
     1
  6
CONTINUOUS
 10
0.0991
 20
0.7424
  0
VERTEX
  8
0
 62
     1
  6
CONTINUOUS
 10
0.1004
 20
0.7419
  0
VERTEX
  8
0
 62
     1
  6
CONTINUOUS
 10
0.1017
 20
0.7415
  0
VERTEX
  8
0
 62
     1
  6
CONTINUOUS
 10
0.1031
 20
0.7410
  0
VERTEX
  8
0
 62
     1
  6
CONTINUOUS
 10
0.1044
 20
0.7406
  0
VERTEX
  8
0
 62
     1
  6
CONTINUOUS
 10
0.1074
 20
0.7396
  0
VERTEX
  8
0
 62
     1
  6
CONTINUOUS
 10
0.1104
 20
0.7385
  0
VERTEX
  8
0
 62
     1
  6
CONTINUOUS
 10
0.1134
 20
0.7375
  0
VERTEX
  8
0
 62
     1
  6
CONTINUOUS
 10
0.1164
 20
0.7365
  0
VERTEX
  8
0
 62
     1
  6
CONTINUOUS
 10
0.1194
 20
0.7355
  0
VERTEX
  8
0
 62
     1
  6
CONTINUOUS
 10
0.1224
 20
0.7345
  0
VERTEX
  8
0
 62
     1
  6
CONTINUOUS
 10
0.1254
 20
0.7335
  0
VERTEX
  8
0
 62
     1
  6
CONTINUOUS
 10
0.1284
 20
0.7325
  0
VERTEX
  8
0
 62
     1
  6
CONTINUOUS
 10
0.1314
 20
0.7315
  0
VERTEX
  8
0
 62
     1
  6
CONTINUOUS
 10
0.1344
 20
0.7306
  0
VERTEX
  8
0
 62
     1
  6
CONTINUOUS
 10
0.1374
 20
0.7296
  0
VERTEX
  8
0
 62
     1
  6
CONTINUOUS
 10
0.1404
 20
0.7286
  0
VERTEX
  8
0
 62
     1
  6
CONTINUOUS
 10
0.1486
 20
0.7259
  0
VERTEX
  8
0
 62
     1
  6
CONTINUOUS
 10
0.1569
 20
0.7232
  0
VERTEX
  8
0
 62
     1
  6
CONTINUOUS
 10
0.1652
 20
0.7206
  0
VERTEX
  8
0
 62
     1
  6
CONTINUOUS
 10
0.1734
 20
0.7180
  0
VERTEX
  8
0
 62
     1
  6
CONTINUOUS
 10
0.1817
 20
0.7155
  0
VERTEX
  8
0
 62
     1
  6
CONTINUOUS
 10
0.1900
 20
0.7131
  0
VERTEX
  8
0
 62
     1
  6
CONTINUOUS
 10
0.1984
 20
0.7107
  0
VERTEX
  8
0
 62
     1
  6
CONTINUOUS
 10
0.2067
 20
0.7085
  0
VERTEX
  8
0
 62
     1
  6
CONTINUOUS
 10
0.2151
 20
0.7063
  0
VERTEX
  8
0
 62
     1
  6
CONTINUOUS
 10
0.2235
 20
0.7043
  0
VERTEX
  8
0
 62
     1
  6
CONTINUOUS
 10
0.2319
 20
0.7024
  0
VERTEX
  8
0
 62
     1
  6
CONTINUOUS
 10
0.2404
 20
0.7006
  0
VERTEX
  8
0
 62
     1
  6
CONTINUOUS
 10
0.2568
 20
0.6975
  0
VERTEX
  8
0
 62
     1
  6
CONTINUOUS
 10
0.2732
 20
0.6950
  0
VERTEX
  8
0
 62
     1
  6
CONTINUOUS
 10
0.2897
 20
0.6929
  0
VERTEX
  8
0
 62
     1
  6
CONTINUOUS
 10
0.3063
 20
0.6913
  0
VERTEX
  8
0
 62
     1
  6
CONTINUOUS
 10
0.3230
 20
0.6900
  0
VERTEX
  8
0
 62
     1
  6
CONTINUOUS
 10
0.3397
 20
0.6891
  0
VERTEX
  8
0
 62
     1
  6
CONTINUOUS
 10
0.3565
 20
0.6885
  0
VERTEX
  8
0
 62
     1
  6
CONTINUOUS
 10
0.3732
 20
0.6881
  0
VERTEX
  8
0
 62
     1
  6
CONTINUOUS
 10
0.3900
 20
0.6880
  0
VERTEX
  8
0
 62
     1
  6
CONTINUOUS
 10
0.4068
 20
0.6881
  0
VERTEX
  8
0
 62
     1
  6
CONTINUOUS
 10
0.4236
 20
0.6883
  0
VERTEX
  8
0
 62
     1
  6
CONTINUOUS
 10
0.4404
 20
0.6886
  0
VERTEX
  8
0
 62
     1
  6
CONTINUOUS
 10
0.4571
 20
0.6890
  0
VERTEX
  8
0
 62
     1
  6
CONTINUOUS
 10
0.4738
 20
0.6894
  0
VERTEX
  8
0
 62
     1
  6
CONTINUOUS
 10
0.4905
 20
0.6899
  0
VERTEX
  8
0
 62
     1
  6
CONTINUOUS
 10
0.5072
 20
0.6904
  0
VERTEX
  8
0
 62
     1
  6
CONTINUOUS
 10
0.5239
 20
0.6911
  0
VERTEX
  8
0
 62
     1
  6
CONTINUOUS
 10
0.5405
 20
0.6917
  0
VERTEX
  8
0
 62
     1
  6
CONTINUOUS
 10
0.5572
 20
0.6924
  0
VERTEX
  8
0
 62
     1
  6
CONTINUOUS
 10
0.5738
 20
0.6932
  0
VERTEX
  8
0
 62
     1
  6
CONTINUOUS
 10
0.5905
 20
0.6940
  0
VERTEX
  8
0
 62
     1
  6
CONTINUOUS
 10
0.6071
 20
0.6948
  0
VERTEX
  8
0
 62
     1
  6
CONTINUOUS
 10
0.6237
 20
0.6957
  0
VERTEX
  8
0
 62
     1
  6
CONTINUOUS
 10
0.6404
 20
0.6966
  0
VERTEX
  8
0
 62
     1
  6
CONTINUOUS
 10
0.6570
 20
0.6975
  0
VERTEX
  8
0
 62
     1
  6
CONTINUOUS
 10
0.6737
 20
0.6985
  0
VERTEX
  8
0
 62
     1
  6
CONTINUOUS
 10
0.6903
 20
0.6995
  0
VERTEX
  8
0
 62
     1
  6
CONTINUOUS
 10
0.7070
 20
0.7005
  0
VERTEX
  8
0
 62
     1
  6
CONTINUOUS
 10
0.7236
 20
0.7015
  0
VERTEX
  8
0
 62
     1
  6
CONTINUOUS
 10
0.7403
 20
0.7025
  0
VERTEX
  8
0
 62
     1
  6
CONTINUOUS
 10
0.7570
 20
0.7036
  0
VERTEX
  8
0
 62
     1
  6
CONTINUOUS
 10
0.7736
 20
0.7046
  0
VERTEX
  8
0
 62
     1
  6
CONTINUOUS
 10
0.7903
 20
0.7056
  0
VERTEX
  8
0
 62
     1
  6
CONTINUOUS
 10
0.8070
 20
0.7066
  0
VERTEX
  8
0
 62
     1
  6
CONTINUOUS
 10
0.8237
 20
0.7076
  0
VERTEX
  8
0
 62
     1
  6
CONTINUOUS
 10
0.8403
 20
0.7086
  0
VERTEX
  8
0
 62
     1
  6
CONTINUOUS
 10
0.8737
 20
0.7104
  0
VERTEX
  8
0
 62
     1
  6
CONTINUOUS
 10
0.9070
 20
0.7121
  0
VERTEX
  8
0
 62
     1
  6
CONTINUOUS
 10
0.9403
 20
0.7138
  0
VERTEX
  8
0
 62
     1
  6
CONTINUOUS
 10
0.9736
 20
0.7153
  0
VERTEX
  8
0
 62
     1
  6
CONTINUOUS
 10
1.0070
 20
0.7167
  0
VERTEX
  8
0
 62
     1
  6
CONTINUOUS
 10
1.0403
 20
0.7180
  0
VERTEX
  8
0
 62
     1
  6
CONTINUOUS
 10
1.0736
 20
0.7193
  0
VERTEX
  8
0
 62
     1
  6
CONTINUOUS
 10
1.1070
 20
0.7205
  0
VERTEX
  8
0
 62
     1
  6
CONTINUOUS
 10
1.1403
 20
0.7216
  0
VERTEX
  8
0
 62
     1
  6
CONTINUOUS
 10
1.1736
 20
0.7226
  0
VERTEX
  8
0
 62
     1
  6
CONTINUOUS
 10
1.2070
 20
0.7236
  0
VERTEX
  8
0
 62
     1
  6
CONTINUOUS
 10
1.2403
 20
0.7246
  0
VERTEX
  8
0
 62
     1
  6
CONTINUOUS
 10
1.2736
 20
0.7255
  0
VERTEX
  8
0
 62
     1
  6
CONTINUOUS
 10
1.3070
 20
0.7263
  0
VERTEX
  8
0
 62
     1
  6
CONTINUOUS
 10
1.3403
 20
0.7271
  0
VERTEX
  8
0
 62
     1
  6
CONTINUOUS
 10
1.3736
 20
0.7279
  0
VERTEX
  8
0
 62
     1
  6
CONTINUOUS
 10
1.4069
 20
0.7286
  0
VERTEX
  8
0
 62
     1
  6
CONTINUOUS
 10
1.4403
 20
0.7293
  0
VERTEX
  8
0
 62
     1
  6
CONTINUOUS
 10
1.4736
 20
0.7299
  0
VERTEX
  8
0
 62
     1
  6
CONTINUOUS
 10
1.5069
 20
0.7305
  0
VERTEX
  8
0
 62
     1
  6
CONTINUOUS
 10
1.5403
 20
0.7311
  0
VERTEX
  8
0
 62
     1
  6
CONTINUOUS
 10
1.5736
 20
0.7316
  0
VERTEX
  8
0
 62
     1
  6
CONTINUOUS
 10
1.6069
 20
0.7321
  0
VERTEX
  8
0
 62
     1
  6
CONTINUOUS
 10
1.6403
 20
0.7326
  0
VERTEX
  8
0
 62
     1
  6
CONTINUOUS
 10
1.6736
 20
0.7330
  0
VERTEX
  8
0
 62
     1
  6
CONTINUOUS
 10
1.7069
 20
0.7334
  0
VERTEX
  8
0
 62
     1
  6
CONTINUOUS
 10
1.7403
 20
0.7338
  0
VERTEX
  8
0
 62
     1
  6
CONTINUOUS
 10
1.7736
 20
0.7341
  0
VERTEX
  8
0
 62
     1
  6
CONTINUOUS
 10
1.8069
 20
0.7345
  0
VERTEX
  8
0
 62
     1
  6
CONTINUOUS
 10
1.8403
 20
0.7348
  0
VERTEX
  8
0
 62
     1
  6
CONTINUOUS
 10
1.8736
 20
0.7351
  0
VERTEX
  8
0
 62
     1
  6
CONTINUOUS
 10
1.9069
 20
0.7354
  0
VERTEX
  8
0
 62
     1
  6
CONTINUOUS
 10
1.9403
 20
0.7357
  0
VERTEX
  8
0
 62
     1
  6
CONTINUOUS
 10
1.9736
 20
0.7360
  0
VERTEX
  8
0
 62
     1
  6
CONTINUOUS
 10
2.0069
 20
0.7363
  0
VERTEX
  8
0
 62
     1
  6
CONTINUOUS
 10
2.0402
 20
0.7366
  0
VERTEX
  8
0
 62
     1
  6
CONTINUOUS
 10
2.0736
 20
0.7369
  0
VERTEX
  8
0
 62
     1
  6
CONTINUOUS
 10
2.1069
 20
0.7372
  0
VERTEX
  8
0
 62
     1
  6
CONTINUOUS
 10
2.1402
 20
0.7375
  0
VERTEX
  8
0
 62
     1
  6
CONTINUOUS
 10
2.1736
 20
0.7379
  0
VERTEX
  8
0
 62
     1
  6
CONTINUOUS
 10
2.2069
 20
0.7382
  0
VERTEX
  8
0
 62
     1
  6
CONTINUOUS
 10
2.2402
 20
0.7385
  0
VERTEX
  8
0
 62
     1
  6
CONTINUOUS
 10
2.2736
 20
0.7389
  0
VERTEX
  8
0
 62
     1
  6
CONTINUOUS
 10
2.3069
 20
0.7392
  0
VERTEX
  8
0
 62
     1
  6
CONTINUOUS
 10
2.3402
 20
0.7396
  0
VERTEX
  8
0
 62
     1
  6
CONTINUOUS
 10
2.3736
 20
0.7399
  0
VERTEX
  8
0
 62
     1
  6
CONTINUOUS
 10
2.4069
 20
0.7402
  0
VERTEX
  8
0
 62
     1
  6
CONTINUOUS
 10
2.4402
 20
0.7406
  0
VERTEX
  8
0
 62
     1
  6
CONTINUOUS
 10
2.5069
 20
0.7412
  0
VERTEX
  8
0
 62
     1
  6
CONTINUOUS
 10
2.5735
 20
0.7419
  0
VERTEX
  8
0
 62
     1
  6
CONTINUOUS
 10
2.6402
 20
0.7425
  0
VERTEX
  8
0
 62
     1
  6
CONTINUOUS
 10
2.7069
 20
0.7432
  0
VERTEX
  8
0
 62
     1
  6
CONTINUOUS
 10
2.7735
 20
0.7438
  0
VERTEX
  8
0
 62
     1
  6
CONTINUOUS
 10
2.8402
 20
0.7445
  0
VERTEX
  8
0
 62
     1
  6
CONTINUOUS
 10
2.9068
 20
0.7451
  0
VERTEX
  8
0
 62
     1
  6
CONTINUOUS
 10
2.9735
 20
0.7458
  0
VERTEX
  8
0
 62
     1
  6
CONTINUOUS
 10
3.0402
 20
0.7464
  0
VERTEX
  8
0
 62
     1
  6
CONTINUOUS
 10
3.1068
 20
0.7471
  0
VERTEX
  8
0
 62
     1
  6
CONTINUOUS
 10
3.1735
 20
0.7478
  0
VERTEX
  8
0
 62
     1
  6
CONTINUOUS
 10
3.2402
 20
0.7486
  0
VERTEX
  8
0
 62
     1
  6
CONTINUOUS
 10
3.3068
 20
0.7493
  0
VERTEX
  8
0
 62
     1
  6
CONTINUOUS
 10
3.3735
 20
0.7501
  0
VERTEX
  8
0
 62
     1
  6
CONTINUOUS
 10
3.4401
 20
0.7509
  0
VERTEX
  8
0
 62
     1
  6
CONTINUOUS
 10
3.5068
 20
0.7517
  0
VERTEX
  8
0
 62
     1
  6
CONTINUOUS
 10
3.5735
 20
0.7524
  0
VERTEX
  8
0
 62
     1
  6
CONTINUOUS
 10
3.6401
 20
0.7532
  0
VERTEX
  8
0
 62
     1
  6
CONTINUOUS
 10
3.7068
 20
0.7539
  0
VERTEX
  8
0
 62
     1
  6
CONTINUOUS
 10
3.7734
 20
0.7545
  0
VERTEX
  8
0
 62
     1
  6
CONTINUOUS
 10
3.8401
 20
0.7552
  0
VERTEX
  8
0
 62
     1
  6
CONTINUOUS
 10
3.9068
 20
0.7557
  0
VERTEX
  8
0
 62
     1
  6
CONTINUOUS
 10
3.9734
 20
0.7562
  0
VERTEX
  8
0
 62
     1
  6
CONTINUOUS
 10
4.0401
 20
0.7566
  0
VERTEX
  8
0
 62
     1
  6
CONTINUOUS
 10
4.1067
 20
0.7569
  0
VERTEX
  8
0
 62
     1
  6
CONTINUOUS
 10
4.1734
 20
0.7571
  0
VERTEX
  8
0
 62
     1
  6
CONTINUOUS
 10
4.2401
 20
0.7572
  0
VERTEX
  8
0
 62
     1
  6
CONTINUOUS
 10
4.3067
 20
0.7573
  0
VERTEX
  8
0
 62
     1
  6
CONTINUOUS
 10
4.3734
 20
0.7573
  0
VERTEX
  8
0
 62
     1
  6
CONTINUOUS
 10
4.4401
 20
0.7573
  0
VERTEX
  8
0
 62
     1
  6
CONTINUOUS
 10
4.5067
 20
0.7573
  0
VERTEX
  8
0
 62
     1
  6
CONTINUOUS
 10
4.5734
 20
0.7571
  0
VERTEX
  8
0
 62
     1
  6
CONTINUOUS
 10
4.6400
 20
0.7570
  0
VERTEX
  8
0
 62
     1
  6
CONTINUOUS
 10
4.7067
 20
0.7569
  0
VERTEX
  8
0
 62
     1
  6
CONTINUOUS
 10
4.7734
 20
0.7567
  0
VERTEX
  8
0
 62
     1
  6
CONTINUOUS
 10
4.8400
 20
0.7566
  0
VERTEX
  8
0
 62
     1
  6
CONTINUOUS
 10
4.9067
 20
0.7564
  0
VERTEX
  8
0
 62
     1
  6
CONTINUOUS
 10
4.9734
 20
0.7563
  0
VERTEX
  8
0
 62
     1
  6
CONTINUOUS
 10
5.0400
 20
0.7561
  0
VERTEX
  8
0
 62
     1
  6
CONTINUOUS
 10
5.1067
 20
0.7560
  0
VERTEX
  8
0
 62
     1
  6
CONTINUOUS
 10
5.1733
 20
0.7557
  0
VERTEX
  8
0
 62
     1
  6
CONTINUOUS
 10
5.2400
 20
0.7555
  0
VERTEX
  8
0
 62
     1
  6
CONTINUOUS
 10
5.3067
 20
0.7552
  0
VERTEX
  8
0
 62
     1
  6
CONTINUOUS
 10
5.3733
 20
0.7548
  0
VERTEX
  8
0
 62
     1
  6
CONTINUOUS
 10
5.4400
 20
0.7544
  0
VERTEX
  8
0
 62
     1
  6
CONTINUOUS
 10
5.5066
 20
0.7539
  0
VERTEX
  8
0
 62
     1
  6
CONTINUOUS
 10
5.5733
 20
0.7533
  0
VERTEX
  8
0
 62
     1
  6
CONTINUOUS
 10
5.6400
 20
0.7526
  0
VERTEX
  8
0
 62
     1
  6
CONTINUOUS
 10
5.7066
 20
0.7518
  0
VERTEX
  8
0
 62
     1
  6
CONTINUOUS
 10
5.7733
 20
0.7508
  0
VERTEX
  8
0
 62
     1
  6
CONTINUOUS
 10
5.8400
 20
0.7498
  0
VERTEX
  8
0
 62
     1
  6
CONTINUOUS
 10
5.9066
 20
0.7487
  0
VERTEX
  8
0
 62
     1
  6
CONTINUOUS
 10
5.9733
 20
0.7474
  0
VERTEX
  8
0
 62
     1
  6
CONTINUOUS
 10
6.0400
 20
0.7461
  0
VERTEX
  8
0
 62
     1
  6
CONTINUOUS
 10
6.1066
 20
0.7447
  0
VERTEX
  8
0
 62
     1
  6
CONTINUOUS
 10
6.1733
 20
0.7432
  0
VERTEX
  8
0
 62
     1
  6
CONTINUOUS
 10
6.2399
 20
0.7417
  0
VERTEX
  8
0
 62
     1
  6
CONTINUOUS
 10
6.3066
 20
0.7400
  0
VERTEX
  8
0
 62
     1
  6
CONTINUOUS
 10
6.3732
 20
0.7383
  0
VERTEX
  8
0
 62
     1
  6
CONTINUOUS
 10
6.4399
 20
0.7366
  0
VERTEX
  8
0
 62
     1
  6
CONTINUOUS
 10
6.5066
 20
0.7347
  0
VERTEX
  8
0
 62
     1
  6
CONTINUOUS
 10
6.5732
 20
0.7329
  0
VERTEX
  8
0
 62
     1
  6
CONTINUOUS
 10
6.6399
 20
0.7309
  0
VERTEX
  8
0
 62
     1
  6
CONTINUOUS
 10
6.7066
 20
0.7290
  0
VERTEX
  8
0
 62
     1
  6
CONTINUOUS
 10
6.7732
 20
0.7270
  0
VERTEX
  8
0
 62
     1
  6
CONTINUOUS
 10
6.8399
 20
0.7249
  0
VERTEX
  8
0
 62
     1
  6
CONTINUOUS
 10
6.9065
 20
0.7229
  0
VERTEX
  8
0
 62
     1
  6
CONTINUOUS
 10
6.9732
 20
0.7208
  0
VERTEX
  8
0
 62
     1
  6
CONTINUOUS
 10
7.0399
 20
0.7188
  0
VERTEX
  8
0
 62
     1
  6
CONTINUOUS
 10
7.1065
 20
0.7167
  0
VERTEX
  8
0
 62
     1
  6
CONTINUOUS
 10
7.1732
 20
0.7146
  0
VERTEX
  8
0
 62
     1
  6
CONTINUOUS
 10
7.2398
 20
0.7126
  0
VERTEX
  8
0
 62
     1
  6
CONTINUOUS
 10
7.2732
 20
0.7116
  0
VERTEX
  8
0
 62
     1
  6
CONTINUOUS
 10
7.3065
 20
0.7106
  0
VERTEX
  8
0
 62
     1
  6
CONTINUOUS
 10
7.3398
 20
0.7095
  0
VERTEX
  8
0
 62
     1
  6
CONTINUOUS
 10
7.3732
 20
0.7085
  0
VERTEX
  8
0
 62
     1
  6
CONTINUOUS
 10
7.4065
 20
0.7075
  0
VERTEX
  8
0
 62
     1
  6
CONTINUOUS
 10
7.4398
 20
0.7065
  0
VERTEX
  8
0
 62
     1
  6
CONTINUOUS
 10
7.4731
 20
0.7055
  0
VERTEX
  8
0
 62
     1
  6
CONTINUOUS
 10
7.5065
 20
0.7046
  0
VERTEX
  8
0
 62
     1
  6
CONTINUOUS
 10
7.5398
 20
0.7036
  0
VERTEX
  8
0
 62
     1
  6
CONTINUOUS
 10
7.5731
 20
0.7026
  0
VERTEX
  8
0
 62
     1
  6
CONTINUOUS
 10
7.6065
 20
0.7016
  0
VERTEX
  8
0
 62
     1
  6
CONTINUOUS
 10
7.6398
 20
0.7006
  0
VERTEX
  8
0
 62
     1
  6
CONTINUOUS
 10
7.6731
 20
0.6996
  0
VERTEX
  8
0
 62
     1
  6
CONTINUOUS
 10
7.7065
 20
0.6986
  0
VERTEX
  8
0
 62
     1
  6
CONTINUOUS
 10
7.7398
 20
0.6976
  0
VERTEX
  8
0
 62
     1
  6
CONTINUOUS
 10
7.7731
 20
0.6966
  0
VERTEX
  8
0
 62
     1
  6
CONTINUOUS
 10
7.8065
 20
0.6956
  0
VERTEX
  8
0
 62
     1
  6
CONTINUOUS
 10
7.8398
 20
0.6946
  0
VERTEX
  8
0
 62
     1
  6
CONTINUOUS
 10
7.8731
 20
0.6936
  0
VERTEX
  8
0
 62
     1
  6
CONTINUOUS
 10
7.9065
 20
0.6926
  0
VERTEX
  8
0
 62
     1
  6
CONTINUOUS
 10
7.9398
 20
0.6916
  0
VERTEX
  8
0
 62
     1
  6
CONTINUOUS
 10
7.9731
 20
0.6906
  0
VERTEX
  8
0
 62
     1
  6
CONTINUOUS
 10
8.0064
 20
0.6896
  0
VERTEX
  8
0
 62
     1
  6
CONTINUOUS
 10
8.0398
 20
0.6886
  0
SEQEND
  8
0
  0
ENDSEC
  0
EOF
