  0
SECTION
  2
HEADER
  9
$ACADVER
  1
AC1004
  9
$EXTMIN
 10
0.0505
 20
0.8701
  9
$EXTMAX
 10
10.0495
 20
5.7187
  9
$LIMMIN
 10
0.0505
 20
0.8701
  9
$LIMMAX
 10
10.0495
 20
5.7187
  9
$INSBASE
 10
0.0
 20
0.0
  9
$VIEWCTR
 10
7.21903
 20
4.5
  9
$VIEWSIZE
 40
9.0
  9
$SNAPMODE
 70
     0
  9
$SNAPUNIT
 10
1.0
 20
1.0
  9
$SNAPBASE
 10
0.0
 20
0.0
  9
$SNAPANG
 50
0.0
  9
$SNAPSTYLE
 70
     0
  9
$SNAPISOPAIR
 70
     0
  9
$GRIDMODE
 70
     0
  9
$GRIDUNIT
 10
0.0
 20
0.0
  9
$ORTHOMODE
 70
     0
  9
$REGENMODE
 70
     1
  9
$FILLMODE
 70
     1
  9
$QTEXTMODE
 70
     0
  9
$DRAGMODE
 70
     2
  9
$LTSCALE
 40
1.0
  9
$OSMODE
 70
     0
  9
$ATTMODE
 70
     1
  9
$TEXTSIZE
 40
0.2
  9
$TRACEWID
 40
0.05
  9
$TEXTSTYLE
  7
STANDARD
  9
$CLAYER
  8
0
  9
$CELTYPE
  6
BYLAYER
  9
$CECOLOR
 62
   256
  9
$DIMSCALE
 40
1.0
  9
$DIMASZ
 40
0.18
  9
$DIMEXO
 40
0.0625
  9
$DIMDLI
 40
0.38
  9
$DIMRND
 40
0.0
  9
$DIMDLE
 40
0.0
  9
$DIMEXE
 40
0.18
  9
$DIMTP
 40
0.0
  9
$DIMTM
 40
0.0
  9
$DIMTXT
 40
0.18
  9
$DIMCEN
 40
0.09
  9
$DIMTSZ
 40
0.0
  9
$DIMTOL
 70
     0
  9
$DIMLIM
 70
     0
  9
$DIMTIH
 70
     1
  9
$DIMTOH
 70
     1
  9
$DIMSE1
 70
     0
  9
$DIMSE2
 70
     0
  9
$DIMTAD
 70
     0
  9
$DIMZIN
 70
     0
  9
$DIMBLK
  1

  9
$DIMASO
 70
     1
  9
$DIMSHO
 70
     0
  9
$DIMPOST
  1

  9
$DIMAPOST
  1

  9
$DIMALT
 70
     0
  9
$DIMALTD
 70
     2
  9
$DIMALTF
 40
25.4
  9
$DIMLFAC
 40
1.0
  9
$LUNITS
 70
     2
  9
$LUPREC
 70
     4
  9
$AXISMODE
 70
     0
  9
$AXISUNIT
 10
0.0
 20
0.0
  9
$SKETCHINC
 40
0.1
  9
$FILLETRAD
 40
0.0
  9
$AUNITS
 70
     0
  9
$AUPREC
 70
     0
  9
$MENU
  1
acad
  9
$ELEVATION
 40
0.0
  9
$THICKNESS
 40
0.0
  9
$VIEWDIR
 10
0.0
 20
0.0
 30
1.0
  9
$LIMCHECK
 70
     0
  9
$BLIPMODE
 70
     1
  9
$CHAMFERA
 40
0.0
  9
$CHAMFERB
 40
0.0
  9
$FASTZOOM
 70
     1
  9
$SKPOLY
 70
     0
  9
$TDCREATE
 40
2447222.5666886573
  9
$TDUPDATE
 40
2447222.5666886573
  9
$TDINDWG
 40
0.0000000000
  9
$TDUSRTIMER
 40
0.0000000000
  9
$USRTIMER
 70
     1
  9
$ANGBASE
 50
0.0
  9
$ANGDIR
 70
     0
  9
$PDMODE
 70
     0
  9
$PDSIZE
 40
0.0
  9
$PLINEWID
 40
0.0
  9
$COORDS
 70
     0
  9
$SPLFRAME
 70
     0
  9
$SPLINESEGS
 70
     8
  9
$ATTDIA
 70
     0
  9
$ATTREQ
 70
     1
  9
$USERI1
 70
     0
  9
$USERI2
 70
     0
  9
$USERI3
 70
     0
  9
$USERI4
 70
     0
  9
$USERI5
 70
     0
  9
$USERR1
 40
0.0
  9
$USERR2
 40
0.0
  9
$USERR3
 40
0.0
  9
$USERR4
 40
0.0
  9
$USERR5
 40
0.0
  0
ENDSEC
  0
SECTION
  2
TABLES
  0
TABLE
  2
LTYPE
 70
     13
  0
LTYPE
  2
CONTINUOUS
 70
    64
  3
Solid line
 72
    65
 73
     0
 40
0.0
  0
LTYPE
  2
DASHED
 70
    64
  3
__ __ __ __ __ __ __ __ __ __ __ __ __ __ __
 72
    65
 73
     2
 40
0.75
 49
0.5
 49
-0.25
  0
LTYPE
  2
HIDDEN
 70
    64
  3
_ _ _ _ _ _ _ _ _ _ _ _ _ _ _ _ _ _ _ _ _ _ _
 72
    65
 73
     2
 40
0.375
 49
0.25
 49
-0.125
  0
LTYPE
  2
CENTER
 70
    64
  3
____ _ ____ _ ____ _ ____ _ ____ _ ____ _ ____
 72
    65
 73
     4
 40
2.0
 49
1.25
 49
-0.25
 49
0.25
 49
-0.25
  0
LTYPE
  2
PHANTOM
 70
    64
  3
_____ _ _ _____ _ _ _____ _ _ _____ _ _ ____
 72
    65
 73
     6
 40
2.5
 49
1.25
 49
-0.25
 49
0.25
 49
-0.25
 49
0.25
 49
-0.25
  0
LTYPE
  2
DOT
 70
    64
  3
...............................................
 72
    65
 73
     2
 40
0.25
 49
0.0
 49
-0.25
  0
LTYPE
  2
DASHDOT
 70
    64
  3
__ . __ . __ . __ . __ . __ . __ . __ . __ . __
 72
    65
 73
     4
 40
1.0
 49
0.5
 49
-0.25
 49
0.0
 49
-0.25
  0
LTYPE
  2
BORDER
 70
    64
  3
__ __ . __ __ . __ __ . __ __ . __ __ . __ __
 72
    65
 73
     6
 40
1.75
 49
0.5
 49
-0.25
 49
0.5
 49
-0.25
 49
0.0
 49
-0.25
  0
LTYPE
  2
DIVIDE
 70
    64
  3
__ . . __ . . __ . . __ . . __ . . __ . . __
 72
    65
 73
     6
 40
1.25
 49
0.5
 49
-0.25
 49
0.0
 49
-0.25
 49
0.0
 49
-0.25
  0
LTYPE
  2
DCTYPE1
 70
    64
  3
__ . . __ . . __ . . __ . . __ . . __ . . __
 72
    65
 73
     8
 40
2.5
 49
0.5
 49
-0.25
 49
0.125
 49
-0.25
 49
0.25
 49
-0.25
 49
0.125
 49
-0.25
  0
LTYPE
  2
DCTYPE2
 70
    64
  3
__ . . __ . . __ . . __ . . __ . . __ . . __
 72
    65
 73
     6
 40
2.05
 49
1.0
 49
-0.3
 49
0.15
 49
-0.15
 49
0.15
 49
-0.3
  0
LTYPE
  2
DCTYPE3
 70
    64
  3
__ . . __ . . __ . . __ . . __ . . __ . . __
 72
    65
 73
     6
 40
2.5
 49
0.8
 49
-0.2
 49
0.8
 49
-0.2
 49
0.3
 49
-0.2
  0
LTYPE
  2
DCTYPE4
 70
    64
  3
__ . . __ . . __ . . __ . . __ . . __ . . __
 72
    65
 73
     10
 40
3.97
 49
1.75
 49
-0.3
 49
0.3
 49
-0.3
 49
0.06
 49
-0.3
 49
0.06
 49
-0.3
 49
0.3
 49
-0.3
  0
ENDTAB
  0
TABLE
  2
LAYER
 70
    153
  0
LAYER
  2
0
 70
 64
 62
     7
  6
CONTINUOUS
  0
ENDTAB
  0
ENDSEC
  0
SECTION
  2
BLOCKS
  0
ENDSEC
  0
SECTION
  2
ENTITIES
  0
TEXT
  8
0
 62
     7
 10
0.0505
 20
4.8703
 40
0.7070
 50
0.0000
 51
0.0000
  1
BENEDEK B9404B
 72
     5
 11
10.0495
 21
4.8703
  0
POLYLINE
  8
0
 62
     3
 66
     1
  6
CONTINUOUS
  0
VERTEX
  8
0
 62
     3
  6
CONTINUOUS
 10
0.0505
 20
1.0107
  0
VERTEX
  8
0
 62
     3
  6
CONTINUOUS
 10
0.0518
 20
1.0159
  0
VERTEX
  8
0
 62
     3
  6
CONTINUOUS
 10
0.0532
 20
1.0211
  0
VERTEX
  8
0
 62
     3
  6
CONTINUOUS
 10
0.0545
 20
1.0264
  0
VERTEX
  8
0
 62
     3
  6
CONTINUOUS
 10
0.0560
 20
1.0316
  0
VERTEX
  8
0
 62
     3
  6
CONTINUOUS
 10
0.0574
 20
1.0367
  0
VERTEX
  8
0
 62
     3
  6
CONTINUOUS
 10
0.0590
 20
1.0419
  0
VERTEX
  8
0
 62
     3
  6
CONTINUOUS
 10
0.0606
 20
1.0470
  0
VERTEX
  8
0
 62
     3
  6
CONTINUOUS
 10
0.0623
 20
1.0520
  0
VERTEX
  8
0
 62
     3
  6
CONTINUOUS
 10
0.0642
 20
1.0570
  0
VERTEX
  8
0
 62
     3
  6
CONTINUOUS
 10
0.0661
 20
1.0620
  0
VERTEX
  8
0
 62
     3
  6
CONTINUOUS
 10
0.0682
 20
1.0669
  0
VERTEX
  8
0
 62
     3
  6
CONTINUOUS
 10
0.0705
 20
1.0717
  0
VERTEX
  8
0
 62
     3
  6
CONTINUOUS
 10
0.0719
 20
1.0745
  0
VERTEX
  8
0
 62
     3
  6
CONTINUOUS
 10
0.0734
 20
1.0773
  0
VERTEX
  8
0
 62
     3
  6
CONTINUOUS
 10
0.0749
 20
1.0800
  0
VERTEX
  8
0
 62
     3
  6
CONTINUOUS
 10
0.0765
 20
1.0827
  0
VERTEX
  8
0
 62
     3
  6
CONTINUOUS
 10
0.0781
 20
1.0854
  0
VERTEX
  8
0
 62
     3
  6
CONTINUOUS
 10
0.0797
 20
1.0881
  0
VERTEX
  8
0
 62
     3
  6
CONTINUOUS
 10
0.0814
 20
1.0908
  0
VERTEX
  8
0
 62
     3
  6
CONTINUOUS
 10
0.0832
 20
1.0934
  0
VERTEX
  8
0
 62
     3
  6
CONTINUOUS
 10
0.0850
 20
1.0960
  0
VERTEX
  8
0
 62
     3
  6
CONTINUOUS
 10
0.0868
 20
1.0986
  0
VERTEX
  8
0
 62
     3
  6
CONTINUOUS
 10
0.0886
 20
1.1011
  0
VERTEX
  8
0
 62
     3
  6
CONTINUOUS
 10
0.0905
 20
1.1037
  0
VERTEX
  8
0
 62
     3
  6
CONTINUOUS
 10
0.0921
 20
1.1059
  0
VERTEX
  8
0
 62
     3
  6
CONTINUOUS
 10
0.0938
 20
1.1080
  0
VERTEX
  8
0
 62
     3
  6
CONTINUOUS
 10
0.0955
 20
1.1102
  0
VERTEX
  8
0
 62
     3
  6
CONTINUOUS
 10
0.0972
 20
1.1124
  0
VERTEX
  8
0
 62
     3
  6
CONTINUOUS
 10
0.0988
 20
1.1145
  0
VERTEX
  8
0
 62
     3
  6
CONTINUOUS
 10
0.1005
 20
1.1167
  0
VERTEX
  8
0
 62
     3
  6
CONTINUOUS
 10
0.1022
 20
1.1188
  0
VERTEX
  8
0
 62
     3
  6
CONTINUOUS
 10
0.1039
 20
1.1210
  0
VERTEX
  8
0
 62
     3
  6
CONTINUOUS
 10
0.1056
 20
1.1231
  0
VERTEX
  8
0
 62
     3
  6
CONTINUOUS
 10
0.1072
 20
1.1253
  0
VERTEX
  8
0
 62
     3
  6
CONTINUOUS
 10
0.1089
 20
1.1275
  0
VERTEX
  8
0
 62
     3
  6
CONTINUOUS
 10
0.1105
 20
1.1297
  0
VERTEX
  8
0
 62
     3
  6
CONTINUOUS
 10
0.1122
 20
1.1320
  0
VERTEX
  8
0
 62
     3
  6
CONTINUOUS
 10
0.1138
 20
1.1344
  0
VERTEX
  8
0
 62
     3
  6
CONTINUOUS
 10
0.1155
 20
1.1367
  0
VERTEX
  8
0
 62
     3
  6
CONTINUOUS
 10
0.1171
 20
1.1391
  0
VERTEX
  8
0
 62
     3
  6
CONTINUOUS
 10
0.1187
 20
1.1414
  0
VERTEX
  8
0
 62
     3
  6
CONTINUOUS
 10
0.1204
 20
1.1438
  0
VERTEX
  8
0
 62
     3
  6
CONTINUOUS
 10
0.1220
 20
1.1462
  0
VERTEX
  8
0
 62
     3
  6
CONTINUOUS
 10
0.1237
 20
1.1485
  0
VERTEX
  8
0
 62
     3
  6
CONTINUOUS
 10
0.1253
 20
1.1508
  0
VERTEX
  8
0
 62
     3
  6
CONTINUOUS
 10
0.1270
 20
1.1531
  0
VERTEX
  8
0
 62
     3
  6
CONTINUOUS
 10
0.1287
 20
1.1554
  0
VERTEX
  8
0
 62
     3
  6
CONTINUOUS
 10
0.1305
 20
1.1577
  0
VERTEX
  8
0
 62
     3
  6
CONTINUOUS
 10
0.1338
 20
1.1617
  0
VERTEX
  8
0
 62
     3
  6
CONTINUOUS
 10
0.1372
 20
1.1656
  0
VERTEX
  8
0
 62
     3
  6
CONTINUOUS
 10
0.1407
 20
1.1694
  0
VERTEX
  8
0
 62
     3
  6
CONTINUOUS
 10
0.1443
 20
1.1731
  0
VERTEX
  8
0
 62
     3
  6
CONTINUOUS
 10
0.1480
 20
1.1767
  0
VERTEX
  8
0
 62
     3
  6
CONTINUOUS
 10
0.1517
 20
1.1803
  0
VERTEX
  8
0
 62
     3
  6
CONTINUOUS
 10
0.1556
 20
1.1838
  0
VERTEX
  8
0
 62
     3
  6
CONTINUOUS
 10
0.1595
 20
1.1873
  0
VERTEX
  8
0
 62
     3
  6
CONTINUOUS
 10
0.1634
 20
1.1907
  0
VERTEX
  8
0
 62
     3
  6
CONTINUOUS
 10
0.1674
 20
1.1940
  0
VERTEX
  8
0
 62
     3
  6
CONTINUOUS
 10
0.1715
 20
1.1974
  0
VERTEX
  8
0
 62
     3
  6
CONTINUOUS
 10
0.1755
 20
1.2007
  0
VERTEX
  8
0
 62
     3
  6
CONTINUOUS
 10
0.1857
 20
1.2090
  0
VERTEX
  8
0
 62
     3
  6
CONTINUOUS
 10
0.1960
 20
1.2171
  0
VERTEX
  8
0
 62
     3
  6
CONTINUOUS
 10
0.2063
 20
1.2252
  0
VERTEX
  8
0
 62
     3
  6
CONTINUOUS
 10
0.2166
 20
1.2333
  0
VERTEX
  8
0
 62
     3
  6
CONTINUOUS
 10
0.2270
 20
1.2412
  0
VERTEX
  8
0
 62
     3
  6
CONTINUOUS
 10
0.2374
 20
1.2491
  0
VERTEX
  8
0
 62
     3
  6
CONTINUOUS
 10
0.2479
 20
1.2570
  0
VERTEX
  8
0
 62
     3
  6
CONTINUOUS
 10
0.2584
 20
1.2648
  0
VERTEX
  8
0
 62
     3
  6
CONTINUOUS
 10
0.2689
 20
1.2725
  0
VERTEX
  8
0
 62
     3
  6
CONTINUOUS
 10
0.2794
 20
1.2802
  0
VERTEX
  8
0
 62
     3
  6
CONTINUOUS
 10
0.2899
 20
1.2880
  0
VERTEX
  8
0
 62
     3
  6
CONTINUOUS
 10
0.3005
 20
1.2957
  0
VERTEX
  8
0
 62
     3
  6
CONTINUOUS
 10
0.3208
 20
1.3105
  0
VERTEX
  8
0
 62
     3
  6
CONTINUOUS
 10
0.3412
 20
1.3253
  0
VERTEX
  8
0
 62
     3
  6
CONTINUOUS
 10
0.3617
 20
1.3400
  0
VERTEX
  8
0
 62
     3
  6
CONTINUOUS
 10
0.3822
 20
1.3546
  0
VERTEX
  8
0
 62
     3
  6
CONTINUOUS
 10
0.4028
 20
1.3691
  0
VERTEX
  8
0
 62
     3
  6
CONTINUOUS
 10
0.4235
 20
1.3835
  0
VERTEX
  8
0
 62
     3
  6
CONTINUOUS
 10
0.4443
 20
1.3977
  0
VERTEX
  8
0
 62
     3
  6
CONTINUOUS
 10
0.4652
 20
1.4118
  0
VERTEX
  8
0
 62
     3
  6
CONTINUOUS
 10
0.4863
 20
1.4256
  0
VERTEX
  8
0
 62
     3
  6
CONTINUOUS
 10
0.5075
 20
1.4392
  0
VERTEX
  8
0
 62
     3
  6
CONTINUOUS
 10
0.5289
 20
1.4526
  0
VERTEX
  8
0
 62
     3
  6
CONTINUOUS
 10
0.5505
 20
1.4656
  0
VERTEX
  8
0
 62
     3
  6
CONTINUOUS
 10
0.5705
 20
1.4775
  0
VERTEX
  8
0
 62
     3
  6
CONTINUOUS
 10
0.5908
 20
1.4890
  0
VERTEX
  8
0
 62
     3
  6
CONTINUOUS
 10
0.6111
 20
1.5004
  0
VERTEX
  8
0
 62
     3
  6
CONTINUOUS
 10
0.6317
 20
1.5114
  0
VERTEX
  8
0
 62
     3
  6
CONTINUOUS
 10
0.6523
 20
1.5222
  0
VERTEX
  8
0
 62
     3
  6
CONTINUOUS
 10
0.6731
 20
1.5327
  0
VERTEX
  8
0
 62
     3
  6
CONTINUOUS
 10
0.6940
 20
1.5430
  0
VERTEX
  8
0
 62
     3
  6
CONTINUOUS
 10
0.7151
 20
1.5531
  0
VERTEX
  8
0
 62
     3
  6
CONTINUOUS
 10
0.7362
 20
1.5628
  0
VERTEX
  8
0
 62
     3
  6
CONTINUOUS
 10
0.7575
 20
1.5724
  0
VERTEX
  8
0
 62
     3
  6
CONTINUOUS
 10
0.7789
 20
1.5816
  0
VERTEX
  8
0
 62
     3
  6
CONTINUOUS
 10
0.8004
 20
1.5906
  0
VERTEX
  8
0
 62
     3
  6
CONTINUOUS
 10
0.8208
 20
1.5989
  0
VERTEX
  8
0
 62
     3
  6
CONTINUOUS
 10
0.8413
 20
1.6070
  0
VERTEX
  8
0
 62
     3
  6
CONTINUOUS
 10
0.8619
 20
1.6148
  0
VERTEX
  8
0
 62
     3
  6
CONTINUOUS
 10
0.8826
 20
1.6224
  0
VERTEX
  8
0
 62
     3
  6
CONTINUOUS
 10
0.9033
 20
1.6298
  0
VERTEX
  8
0
 62
     3
  6
CONTINUOUS
 10
0.9241
 20
1.6370
  0
VERTEX
  8
0
 62
     3
  6
CONTINUOUS
 10
0.9450
 20
1.6440
  0
VERTEX
  8
0
 62
     3
  6
CONTINUOUS
 10
0.9660
 20
1.6507
  0
VERTEX
  8
0
 62
     3
  6
CONTINUOUS
 10
0.9870
 20
1.6572
  0
VERTEX
  8
0
 62
     3
  6
CONTINUOUS
 10
1.0081
 20
1.6636
  0
VERTEX
  8
0
 62
     3
  6
CONTINUOUS
 10
1.0292
 20
1.6697
  0
VERTEX
  8
0
 62
     3
  6
CONTINUOUS
 10
1.0504
 20
1.6756
  0
VERTEX
  8
0
 62
     3
  6
CONTINUOUS
 10
1.0914
 20
1.6865
  0
VERTEX
  8
0
 62
     3
  6
CONTINUOUS
 10
1.1326
 20
1.6966
  0
VERTEX
  8
0
 62
     3
  6
CONTINUOUS
 10
1.1739
 20
1.7061
  0
VERTEX
  8
0
 62
     3
  6
CONTINUOUS
 10
1.2153
 20
1.7150
  0
VERTEX
  8
0
 62
     3
  6
CONTINUOUS
 10
1.2569
 20
1.7234
  0
VERTEX
  8
0
 62
     3
  6
CONTINUOUS
 10
1.2986
 20
1.7312
  0
VERTEX
  8
0
 62
     3
  6
CONTINUOUS
 10
1.3404
 20
1.7386
  0
VERTEX
  8
0
 62
     3
  6
CONTINUOUS
 10
1.3823
 20
1.7456
  0
VERTEX
  8
0
 62
     3
  6
CONTINUOUS
 10
1.4243
 20
1.7523
  0
VERTEX
  8
0
 62
     3
  6
CONTINUOUS
 10
1.4663
 20
1.7586
  0
VERTEX
  8
0
 62
     3
  6
CONTINUOUS
 10
1.5083
 20
1.7647
  0
VERTEX
  8
0
 62
     3
  6
CONTINUOUS
 10
1.5504
 20
1.7706
  0
VERTEX
  8
0
 62
     3
  6
CONTINUOUS
 10
1.5920
 20
1.7763
  0
VERTEX
  8
0
 62
     3
  6
CONTINUOUS
 10
1.6336
 20
1.7819
  0
VERTEX
  8
0
 62
     3
  6
CONTINUOUS
 10
1.6752
 20
1.7873
  0
VERTEX
  8
0
 62
     3
  6
CONTINUOUS
 10
1.7169
 20
1.7926
  0
VERTEX
  8
0
 62
     3
  6
CONTINUOUS
 10
1.7585
 20
1.7977
  0
VERTEX
  8
0
 62
     3
  6
CONTINUOUS
 10
1.8001
 20
1.8028
  0
VERTEX
  8
0
 62
     3
  6
CONTINUOUS
 10
1.8418
 20
1.8077
  0
VERTEX
  8
0
 62
     3
  6
CONTINUOUS
 10
1.8835
 20
1.8125
  0
VERTEX
  8
0
 62
     3
  6
CONTINUOUS
 10
1.9252
 20
1.8172
  0
VERTEX
  8
0
 62
     3
  6
CONTINUOUS
 10
1.9669
 20
1.8218
  0
VERTEX
  8
0
 62
     3
  6
CONTINUOUS
 10
2.0086
 20
1.8262
  0
VERTEX
  8
0
 62
     3
  6
CONTINUOUS
 10
2.0503
 20
1.8306
  0
VERTEX
  8
0
 62
     3
  6
CONTINUOUS
 10
2.0919
 20
1.8349
  0
VERTEX
  8
0
 62
     3
  6
CONTINUOUS
 10
2.1335
 20
1.8390
  0
VERTEX
  8
0
 62
     3
  6
CONTINUOUS
 10
2.1751
 20
1.8431
  0
VERTEX
  8
0
 62
     3
  6
CONTINUOUS
 10
2.2167
 20
1.8469
  0
VERTEX
  8
0
 62
     3
  6
CONTINUOUS
 10
2.2584
 20
1.8507
  0
VERTEX
  8
0
 62
     3
  6
CONTINUOUS
 10
2.3000
 20
1.8542
  0
VERTEX
  8
0
 62
     3
  6
CONTINUOUS
 10
2.3417
 20
1.8575
  0
VERTEX
  8
0
 62
     3
  6
CONTINUOUS
 10
2.3834
 20
1.8607
  0
VERTEX
  8
0
 62
     3
  6
CONTINUOUS
 10
2.4251
 20
1.8635
  0
VERTEX
  8
0
 62
     3
  6
CONTINUOUS
 10
2.4668
 20
1.8662
  0
VERTEX
  8
0
 62
     3
  6
CONTINUOUS
 10
2.5085
 20
1.8685
  0
VERTEX
  8
0
 62
     3
  6
CONTINUOUS
 10
2.5503
 20
1.8706
  0
VERTEX
  8
0
 62
     3
  6
CONTINUOUS
 10
2.5919
 20
1.8724
  0
VERTEX
  8
0
 62
     3
  6
CONTINUOUS
 10
2.6335
 20
1.8739
  0
VERTEX
  8
0
 62
     3
  6
CONTINUOUS
 10
2.6752
 20
1.8751
  0
VERTEX
  8
0
 62
     3
  6
CONTINUOUS
 10
2.7168
 20
1.8760
  0
VERTEX
  8
0
 62
     3
  6
CONTINUOUS
 10
2.7585
 20
1.8767
  0
VERTEX
  8
0
 62
     3
  6
CONTINUOUS
 10
2.8002
 20
1.8772
  0
VERTEX
  8
0
 62
     3
  6
CONTINUOUS
 10
2.8418
 20
1.8774
  0
VERTEX
  8
0
 62
     3
  6
CONTINUOUS
 10
2.8835
 20
1.8774
  0
VERTEX
  8
0
 62
     3
  6
CONTINUOUS
 10
2.9252
 20
1.8772
  0
VERTEX
  8
0
 62
     3
  6
CONTINUOUS
 10
2.9669
 20
1.8768
  0
VERTEX
  8
0
 62
     3
  6
CONTINUOUS
 10
3.0085
 20
1.8763
  0
VERTEX
  8
0
 62
     3
  6
CONTINUOUS
 10
3.0502
 20
1.8756
  0
VERTEX
  8
0
 62
     3
  6
CONTINUOUS
 10
3.1336
 20
1.8738
  0
VERTEX
  8
0
 62
     3
  6
CONTINUOUS
 10
3.2170
 20
1.8714
  0
VERTEX
  8
0
 62
     3
  6
CONTINUOUS
 10
3.3004
 20
1.8685
  0
VERTEX
  8
0
 62
     3
  6
CONTINUOUS
 10
3.3838
 20
1.8651
  0
VERTEX
  8
0
 62
     3
  6
CONTINUOUS
 10
3.4671
 20
1.8613
  0
VERTEX
  8
0
 62
     3
  6
CONTINUOUS
 10
3.5504
 20
1.8571
  0
VERTEX
  8
0
 62
     3
  6
CONTINUOUS
 10
3.6338
 20
1.8525
  0
VERTEX
  8
0
 62
     3
  6
CONTINUOUS
 10
3.7171
 20
1.8476
  0
VERTEX
  8
0
 62
     3
  6
CONTINUOUS
 10
3.8003
 20
1.8424
  0
VERTEX
  8
0
 62
     3
  6
CONTINUOUS
 10
3.8836
 20
1.8370
  0
VERTEX
  8
0
 62
     3
  6
CONTINUOUS
 10
3.9669
 20
1.8314
  0
VERTEX
  8
0
 62
     3
  6
CONTINUOUS
 10
4.0501
 20
1.8256
  0
VERTEX
  8
0
 62
     3
  6
CONTINUOUS
 10
4.1335
 20
1.8197
  0
VERTEX
  8
0
 62
     3
  6
CONTINUOUS
 10
4.2170
 20
1.8136
  0
VERTEX
  8
0
 62
     3
  6
CONTINUOUS
 10
4.3004
 20
1.8073
  0
VERTEX
  8
0
 62
     3
  6
CONTINUOUS
 10
4.3838
 20
1.8009
  0
VERTEX
  8
0
 62
     3
  6
CONTINUOUS
 10
4.4671
 20
1.7942
  0
VERTEX
  8
0
 62
     3
  6
CONTINUOUS
 10
4.5505
 20
1.7874
  0
VERTEX
  8
0
 62
     3
  6
CONTINUOUS
 10
4.6338
 20
1.7803
  0
VERTEX
  8
0
 62
     3
  6
CONTINUOUS
 10
4.7171
 20
1.7729
  0
VERTEX
  8
0
 62
     3
  6
CONTINUOUS
 10
4.8004
 20
1.7653
  0
VERTEX
  8
0
 62
     3
  6
CONTINUOUS
 10
4.8836
 20
1.7574
  0
VERTEX
  8
0
 62
     3
  6
CONTINUOUS
 10
4.9668
 20
1.7492
  0
VERTEX
  8
0
 62
     3
  6
CONTINUOUS
 10
5.0500
 20
1.7406
  0
VERTEX
  8
0
 62
     3
  6
CONTINUOUS
 10
5.1335
 20
1.7317
  0
VERTEX
  8
0
 62
     3
  6
CONTINUOUS
 10
5.2170
 20
1.7224
  0
VERTEX
  8
0
 62
     3
  6
CONTINUOUS
 10
5.3004
 20
1.7129
  0
VERTEX
  8
0
 62
     3
  6
CONTINUOUS
 10
5.3838
 20
1.7030
  0
VERTEX
  8
0
 62
     3
  6
CONTINUOUS
 10
5.4671
 20
1.6929
  0
VERTEX
  8
0
 62
     3
  6
CONTINUOUS
 10
5.5505
 20
1.6825
  0
VERTEX
  8
0
 62
     3
  6
CONTINUOUS
 10
5.6338
 20
1.6719
  0
VERTEX
  8
0
 62
     3
  6
CONTINUOUS
 10
5.7170
 20
1.6610
  0
VERTEX
  8
0
 62
     3
  6
CONTINUOUS
 10
5.8003
 20
1.6499
  0
VERTEX
  8
0
 62
     3
  6
CONTINUOUS
 10
5.8835
 20
1.6387
  0
VERTEX
  8
0
 62
     3
  6
CONTINUOUS
 10
5.9667
 20
1.6272
  0
VERTEX
  8
0
 62
     3
  6
CONTINUOUS
 10
6.0499
 20
1.6156
  0
VERTEX
  8
0
 62
     3
  6
CONTINUOUS
 10
6.1334
 20
1.6039
  0
VERTEX
  8
0
 62
     3
  6
CONTINUOUS
 10
6.2169
 20
1.5919
  0
VERTEX
  8
0
 62
     3
  6
CONTINUOUS
 10
6.3004
 20
1.5798
  0
VERTEX
  8
0
 62
     3
  6
CONTINUOUS
 10
6.3838
 20
1.5675
  0
VERTEX
  8
0
 62
     3
  6
CONTINUOUS
 10
6.4672
 20
1.5550
  0
VERTEX
  8
0
 62
     3
  6
CONTINUOUS
 10
6.5506
 20
1.5423
  0
VERTEX
  8
0
 62
     3
  6
CONTINUOUS
 10
6.6339
 20
1.5294
  0
VERTEX
  8
0
 62
     3
  6
CONTINUOUS
 10
6.7172
 20
1.5162
  0
VERTEX
  8
0
 62
     3
  6
CONTINUOUS
 10
6.8004
 20
1.5027
  0
VERTEX
  8
0
 62
     3
  6
CONTINUOUS
 10
6.8836
 20
1.4890
  0
VERTEX
  8
0
 62
     3
  6
CONTINUOUS
 10
6.9667
 20
1.4750
  0
VERTEX
  8
0
 62
     3
  6
CONTINUOUS
 10
7.0498
 20
1.4606
  0
VERTEX
  8
0
 62
     3
  6
CONTINUOUS
 10
7.1333
 20
1.4459
  0
VERTEX
  8
0
 62
     3
  6
CONTINUOUS
 10
7.2167
 20
1.4309
  0
VERTEX
  8
0
 62
     3
  6
CONTINUOUS
 10
7.3000
 20
1.4157
  0
VERTEX
  8
0
 62
     3
  6
CONTINUOUS
 10
7.3833
 20
1.4003
  0
VERTEX
  8
0
 62
     3
  6
CONTINUOUS
 10
7.4666
 20
1.3847
  0
VERTEX
  8
0
 62
     3
  6
CONTINUOUS
 10
7.5499
 20
1.3691
  0
VERTEX
  8
0
 62
     3
  6
CONTINUOUS
 10
7.6332
 20
1.3534
  0
VERTEX
  8
0
 62
     3
  6
CONTINUOUS
 10
7.7164
 20
1.3377
  0
VERTEX
  8
0
 62
     3
  6
CONTINUOUS
 10
7.7997
 20
1.3220
  0
VERTEX
  8
0
 62
     3
  6
CONTINUOUS
 10
7.8830
 20
1.3064
  0
VERTEX
  8
0
 62
     3
  6
CONTINUOUS
 10
7.9664
 20
1.2910
  0
VERTEX
  8
0
 62
     3
  6
CONTINUOUS
 10
8.0497
 20
1.2757
  0
VERTEX
  8
0
 62
     3
  6
CONTINUOUS
 10
8.1331
 20
1.2606
  0
VERTEX
  8
0
 62
     3
  6
CONTINUOUS
 10
8.2165
 20
1.2457
  0
VERTEX
  8
0
 62
     3
  6
CONTINUOUS
 10
8.3000
 20
1.2308
  0
VERTEX
  8
0
 62
     3
  6
CONTINUOUS
 10
8.3834
 20
1.2160
  0
VERTEX
  8
0
 62
     3
  6
CONTINUOUS
 10
8.4669
 20
1.2012
  0
VERTEX
  8
0
 62
     3
  6
CONTINUOUS
 10
8.5503
 20
1.1862
  0
VERTEX
  8
0
 62
     3
  6
CONTINUOUS
 10
8.6337
 20
1.1711
  0
VERTEX
  8
0
 62
     3
  6
CONTINUOUS
 10
8.7170
 20
1.1558
  0
VERTEX
  8
0
 62
     3
  6
CONTINUOUS
 10
8.8003
 20
1.1401
  0
VERTEX
  8
0
 62
     3
  6
CONTINUOUS
 10
8.8835
 20
1.1241
  0
VERTEX
  8
0
 62
     3
  6
CONTINUOUS
 10
8.9666
 20
1.1076
  0
VERTEX
  8
0
 62
     3
  6
CONTINUOUS
 10
9.0496
 20
1.0907
  0
VERTEX
  8
0
 62
     3
  6
CONTINUOUS
 10
9.0914
 20
1.0819
  0
VERTEX
  8
0
 62
     3
  6
CONTINUOUS
 10
9.1331
 20
1.0731
  0
VERTEX
  8
0
 62
     3
  6
CONTINUOUS
 10
9.1748
 20
1.0641
  0
VERTEX
  8
0
 62
     3
  6
CONTINUOUS
 10
9.2165
 20
1.0550
  0
VERTEX
  8
0
 62
     3
  6
CONTINUOUS
 10
9.2581
 20
1.0459
  0
VERTEX
  8
0
 62
     3
  6
CONTINUOUS
 10
9.2998
 20
1.0367
  0
VERTEX
  8
0
 62
     3
  6
CONTINUOUS
 10
9.3414
 20
1.0274
  0
VERTEX
  8
0
 62
     3
  6
CONTINUOUS
 10
9.3831
 20
1.0181
  0
VERTEX
  8
0
 62
     3
  6
CONTINUOUS
 10
9.4247
 20
1.0087
  0
VERTEX
  8
0
 62
     3
  6
CONTINUOUS
 10
9.4663
 20
0.9994
  0
VERTEX
  8
0
 62
     3
  6
CONTINUOUS
 10
9.5079
 20
0.9900
  0
VERTEX
  8
0
 62
     3
  6
CONTINUOUS
 10
9.5496
 20
0.9807
  0
VERTEX
  8
0
 62
     3
  6
CONTINUOUS
 10
9.5912
 20
0.9714
  0
VERTEX
  8
0
 62
     3
  6
CONTINUOUS
 10
9.6329
 20
0.9621
  0
VERTEX
  8
0
 62
     3
  6
CONTINUOUS
 10
9.6745
 20
0.9529
  0
VERTEX
  8
0
 62
     3
  6
CONTINUOUS
 10
9.7162
 20
0.9437
  0
VERTEX
  8
0
 62
     3
  6
CONTINUOUS
 10
9.7578
 20
0.9345
  0
VERTEX
  8
0
 62
     3
  6
CONTINUOUS
 10
9.7995
 20
0.9254
  0
VERTEX
  8
0
 62
     3
  6
CONTINUOUS
 10
9.8411
 20
0.9162
  0
VERTEX
  8
0
 62
     3
  6
CONTINUOUS
 10
9.8828
 20
0.9071
  0
VERTEX
  8
0
 62
     3
  6
CONTINUOUS
 10
9.9245
 20
0.8980
  0
VERTEX
  8
0
 62
     3
  6
CONTINUOUS
 10
9.9662
 20
0.8889
  0
VERTEX
  8
0
 62
     3
  6
CONTINUOUS
 10
10.0078
 20
0.8798
  0
VERTEX
  8
0
 62
     3
  6
CONTINUOUS
 10
10.0495
 20
0.8707
  0
SEQEND
  8
0
  0
POLYLINE
  8
0
 62
     1
 66
     1
  6
CONTINUOUS
  0
VERTEX
  8
0
 62
     1
  6
CONTINUOUS
 10
0.0505
 20
1.0107
  0
VERTEX
  8
0
 62
     1
  6
CONTINUOUS
 10
0.0515
 20
1.0053
  0
VERTEX
  8
0
 62
     1
  6
CONTINUOUS
 10
0.0525
 20
1.0000
  0
VERTEX
  8
0
 62
     1
  6
CONTINUOUS
 10
0.0536
 20
0.9947
  0
VERTEX
  8
0
 62
     1
  6
CONTINUOUS
 10
0.0548
 20
0.9894
  0
VERTEX
  8
0
 62
     1
  6
CONTINUOUS
 10
0.0561
 20
0.9842
  0
VERTEX
  8
0
 62
     1
  6
CONTINUOUS
 10
0.0575
 20
0.9791
  0
VERTEX
  8
0
 62
     1
  6
CONTINUOUS
 10
0.0591
 20
0.9741
  0
VERTEX
  8
0
 62
     1
  6
CONTINUOUS
 10
0.0609
 20
0.9691
  0
VERTEX
  8
0
 62
     1
  6
CONTINUOUS
 10
0.0629
 20
0.9643
  0
VERTEX
  8
0
 62
     1
  6
CONTINUOUS
 10
0.0651
 20
0.9596
  0
VERTEX
  8
0
 62
     1
  6
CONTINUOUS
 10
0.0677
 20
0.9551
  0
VERTEX
  8
0
 62
     1
  6
CONTINUOUS
 10
0.0705
 20
0.9507
  0
VERTEX
  8
0
 62
     1
  6
CONTINUOUS
 10
0.0719
 20
0.9488
  0
VERTEX
  8
0
 62
     1
  6
CONTINUOUS
 10
0.0733
 20
0.9469
  0
VERTEX
  8
0
 62
     1
  6
CONTINUOUS
 10
0.0748
 20
0.9451
  0
VERTEX
  8
0
 62
     1
  6
CONTINUOUS
 10
0.0764
 20
0.9433
  0
VERTEX
  8
0
 62
     1
  6
CONTINUOUS
 10
0.0780
 20
0.9416
  0
VERTEX
  8
0
 62
     1
  6
CONTINUOUS
 10
0.0796
 20
0.9399
  0
VERTEX
  8
0
 62
     1
  6
CONTINUOUS
 10
0.0813
 20
0.9382
  0
VERTEX
  8
0
 62
     1
  6
CONTINUOUS
 10
0.0831
 20
0.9366
  0
VERTEX
  8
0
 62
     1
  6
CONTINUOUS
 10
0.0849
 20
0.9351
  0
VERTEX
  8
0
 62
     1
  6
CONTINUOUS
 10
0.0867
 20
0.9336
  0
VERTEX
  8
0
 62
     1
  6
CONTINUOUS
 10
0.0886
 20
0.9321
  0
VERTEX
  8
0
 62
     1
  6
CONTINUOUS
 10
0.0905
 20
0.9307
  0
VERTEX
  8
0
 62
     1
  6
CONTINUOUS
 10
0.0921
 20
0.9296
  0
VERTEX
  8
0
 62
     1
  6
CONTINUOUS
 10
0.0937
 20
0.9285
  0
VERTEX
  8
0
 62
     1
  6
CONTINUOUS
 10
0.0953
 20
0.9274
  0
VERTEX
  8
0
 62
     1
  6
CONTINUOUS
 10
0.0970
 20
0.9264
  0
VERTEX
  8
0
 62
     1
  6
CONTINUOUS
 10
0.0987
 20
0.9254
  0
VERTEX
  8
0
 62
     1
  6
CONTINUOUS
 10
0.1003
 20
0.9244
  0
VERTEX
  8
0
 62
     1
  6
CONTINUOUS
 10
0.1020
 20
0.9235
  0
VERTEX
  8
0
 62
     1
  6
CONTINUOUS
 10
0.1037
 20
0.9225
  0
VERTEX
  8
0
 62
     1
  6
CONTINUOUS
 10
0.1054
 20
0.9215
  0
VERTEX
  8
0
 62
     1
  6
CONTINUOUS
 10
0.1071
 20
0.9206
  0
VERTEX
  8
0
 62
     1
  6
CONTINUOUS
 10
0.1088
 20
0.9196
  0
VERTEX
  8
0
 62
     1
  6
CONTINUOUS
 10
0.1105
 20
0.9187
  0
VERTEX
  8
0
 62
     1
  6
CONTINUOUS
 10
0.1122
 20
0.9178
  0
VERTEX
  8
0
 62
     1
  6
CONTINUOUS
 10
0.1138
 20
0.9168
  0
VERTEX
  8
0
 62
     1
  6
CONTINUOUS
 10
0.1155
 20
0.9159
  0
VERTEX
  8
0
 62
     1
  6
CONTINUOUS
 10
0.1171
 20
0.9150
  0
VERTEX
  8
0
 62
     1
  6
CONTINUOUS
 10
0.1188
 20
0.9140
  0
VERTEX
  8
0
 62
     1
  6
CONTINUOUS
 10
0.1204
 20
0.9131
  0
VERTEX
  8
0
 62
     1
  6
CONTINUOUS
 10
0.1221
 20
0.9122
  0
VERTEX
  8
0
 62
     1
  6
CONTINUOUS
 10
0.1238
 20
0.9113
  0
VERTEX
  8
0
 62
     1
  6
CONTINUOUS
 10
0.1254
 20
0.9103
  0
VERTEX
  8
0
 62
     1
  6
CONTINUOUS
 10
0.1271
 20
0.9094
  0
VERTEX
  8
0
 62
     1
  6
CONTINUOUS
 10
0.1288
 20
0.9086
  0
VERTEX
  8
0
 62
     1
  6
CONTINUOUS
 10
0.1305
 20
0.9077
  0
VERTEX
  8
0
 62
     1
  6
CONTINUOUS
 10
0.1341
 20
0.9059
  0
VERTEX
  8
0
 62
     1
  6
CONTINUOUS
 10
0.1377
 20
0.9042
  0
VERTEX
  8
0
 62
     1
  6
CONTINUOUS
 10
0.1414
 20
0.9026
  0
VERTEX
  8
0
 62
     1
  6
CONTINUOUS
 10
0.1451
 20
0.9011
  0
VERTEX
  8
0
 62
     1
  6
CONTINUOUS
 10
0.1488
 20
0.8996
  0
VERTEX
  8
0
 62
     1
  6
CONTINUOUS
 10
0.1526
 20
0.8982
  0
VERTEX
  8
0
 62
     1
  6
CONTINUOUS
 10
0.1563
 20
0.8968
  0
VERTEX
  8
0
 62
     1
  6
CONTINUOUS
 10
0.1601
 20
0.8955
  0
VERTEX
  8
0
 62
     1
  6
CONTINUOUS
 10
0.1639
 20
0.8942
  0
VERTEX
  8
0
 62
     1
  6
CONTINUOUS
 10
0.1678
 20
0.8930
  0
VERTEX
  8
0
 62
     1
  6
CONTINUOUS
 10
0.1716
 20
0.8918
  0
VERTEX
  8
0
 62
     1
  6
CONTINUOUS
 10
0.1755
 20
0.8907
  0
VERTEX
  8
0
 62
     1
  6
CONTINUOUS
 10
0.1857
 20
0.8879
  0
VERTEX
  8
0
 62
     1
  6
CONTINUOUS
 10
0.1959
 20
0.8853
  0
VERTEX
  8
0
 62
     1
  6
CONTINUOUS
 10
0.2063
 20
0.8829
  0
VERTEX
  8
0
 62
     1
  6
CONTINUOUS
 10
0.2166
 20
0.8807
  0
VERTEX
  8
0
 62
     1
  6
CONTINUOUS
 10
0.2270
 20
0.8788
  0
VERTEX
  8
0
 62
     1
  6
CONTINUOUS
 10
0.2374
 20
0.8770
  0
VERTEX
  8
0
 62
     1
  6
CONTINUOUS
 10
0.2479
 20
0.8755
  0
VERTEX
  8
0
 62
     1
  6
CONTINUOUS
 10
0.2584
 20
0.8742
  0
VERTEX
  8
0
 62
     1
  6
CONTINUOUS
 10
0.2689
 20
0.8730
  0
VERTEX
  8
0
 62
     1
  6
CONTINUOUS
 10
0.2794
 20
0.8721
  0
VERTEX
  8
0
 62
     1
  6
CONTINUOUS
 10
0.2899
 20
0.8713
  0
VERTEX
  8
0
 62
     1
  6
CONTINUOUS
 10
0.3005
 20
0.8707
  0
VERTEX
  8
0
 62
     1
  6
CONTINUOUS
 10
0.3213
 20
0.8700
  0
VERTEX
  8
0
 62
     1
  6
CONTINUOUS
 10
0.3422
 20
0.8700
  0
VERTEX
  8
0
 62
     1
  6
CONTINUOUS
 10
0.3630
 20
0.8704
  0
VERTEX
  8
0
 62
     1
  6
CONTINUOUS
 10
0.3838
 20
0.8714
  0
VERTEX
  8
0
 62
     1
  6
CONTINUOUS
 10
0.4046
 20
0.8727
  0
VERTEX
  8
0
 62
     1
  6
CONTINUOUS
 10
0.4255
 20
0.8742
  0
VERTEX
  8
0
 62
     1
  6
CONTINUOUS
 10
0.4463
 20
0.8761
  0
VERTEX
  8
0
 62
     1
  6
CONTINUOUS
 10
0.4671
 20
0.8780
  0
VERTEX
  8
0
 62
     1
  6
CONTINUOUS
 10
0.4880
 20
0.8800
  0
VERTEX
  8
0
 62
     1
  6
CONTINUOUS
 10
0.5088
 20
0.8820
  0
VERTEX
  8
0
 62
     1
  6
CONTINUOUS
 10
0.5296
 20
0.8839
  0
VERTEX
  8
0
 62
     1
  6
CONTINUOUS
 10
0.5505
 20
0.8857
  0
VERTEX
  8
0
 62
     1
  6
CONTINUOUS
 10
0.5713
 20
0.8872
  0
VERTEX
  8
0
 62
     1
  6
CONTINUOUS
 10
0.5921
 20
0.8886
  0
VERTEX
  8
0
 62
     1
  6
CONTINUOUS
 10
0.6129
 20
0.8897
  0
VERTEX
  8
0
 62
     1
  6
CONTINUOUS
 10
0.6337
 20
0.8906
  0
VERTEX
  8
0
 62
     1
  6
CONTINUOUS
 10
0.6546
 20
0.8915
  0
VERTEX
  8
0
 62
     1
  6
CONTINUOUS
 10
0.6754
 20
0.8922
  0
VERTEX
  8
0
 62
     1
  6
CONTINUOUS
 10
0.6962
 20
0.8928
  0
VERTEX
  8
0
 62
     1
  6
CONTINUOUS
 10
0.7171
 20
0.8934
  0
VERTEX
  8
0
 62
     1
  6
CONTINUOUS
 10
0.7379
 20
0.8940
  0
VERTEX
  8
0
 62
     1
  6
CONTINUOUS
 10
0.7588
 20
0.8945
  0
VERTEX
  8
0
 62
     1
  6
CONTINUOUS
 10
0.7796
 20
0.8951
  0
VERTEX
  8
0
 62
     1
  6
CONTINUOUS
 10
0.8004
 20
0.8957
  0
VERTEX
  8
0
 62
     1
  6
CONTINUOUS
 10
0.8213
 20
0.8964
  0
VERTEX
  8
0
 62
     1
  6
CONTINUOUS
 10
0.8421
 20
0.8971
  0
VERTEX
  8
0
 62
     1
  6
CONTINUOUS
 10
0.8629
 20
0.8979
  0
VERTEX
  8
0
 62
     1
  6
CONTINUOUS
 10
0.8838
 20
0.8988
  0
VERTEX
  8
0
 62
     1
  6
CONTINUOUS
 10
0.9046
 20
0.8997
  0
VERTEX
  8
0
 62
     1
  6
CONTINUOUS
 10
0.9254
 20
0.9005
  0
VERTEX
  8
0
 62
     1
  6
CONTINUOUS
 10
0.9462
 20
0.9014
  0
VERTEX
  8
0
 62
     1
  6
CONTINUOUS
 10
0.9671
 20
0.9023
  0
VERTEX
  8
0
 62
     1
  6
CONTINUOUS
 10
0.9879
 20
0.9032
  0
VERTEX
  8
0
 62
     1
  6
CONTINUOUS
 10
1.0087
 20
0.9041
  0
VERTEX
  8
0
 62
     1
  6
CONTINUOUS
 10
1.0296
 20
0.9049
  0
VERTEX
  8
0
 62
     1
  6
CONTINUOUS
 10
1.0504
 20
0.9057
  0
VERTEX
  8
0
 62
     1
  6
CONTINUOUS
 10
1.0920
 20
0.9071
  0
VERTEX
  8
0
 62
     1
  6
CONTINUOUS
 10
1.1337
 20
0.9083
  0
VERTEX
  8
0
 62
     1
  6
CONTINUOUS
 10
1.1754
 20
0.9093
  0
VERTEX
  8
0
 62
     1
  6
CONTINUOUS
 10
1.2170
 20
0.9102
  0
VERTEX
  8
0
 62
     1
  6
CONTINUOUS
 10
1.2587
 20
0.9110
  0
VERTEX
  8
0
 62
     1
  6
CONTINUOUS
 10
1.3003
 20
0.9117
  0
VERTEX
  8
0
 62
     1
  6
CONTINUOUS
 10
1.3420
 20
0.9124
  0
VERTEX
  8
0
 62
     1
  6
CONTINUOUS
 10
1.3837
 20
0.9130
  0
VERTEX
  8
0
 62
     1
  6
CONTINUOUS
 10
1.4254
 20
0.9136
  0
VERTEX
  8
0
 62
     1
  6
CONTINUOUS
 10
1.4670
 20
0.9142
  0
VERTEX
  8
0
 62
     1
  6
CONTINUOUS
 10
1.5087
 20
0.9149
  0
VERTEX
  8
0
 62
     1
  6
CONTINUOUS
 10
1.5504
 20
0.9157
  0
VERTEX
  8
0
 62
     1
  6
CONTINUOUS
 10
1.5920
 20
0.9166
  0
VERTEX
  8
0
 62
     1
  6
CONTINUOUS
 10
1.6337
 20
0.9176
  0
VERTEX
  8
0
 62
     1
  6
CONTINUOUS
 10
1.6754
 20
0.9187
  0
VERTEX
  8
0
 62
     1
  6
CONTINUOUS
 10
1.7170
 20
0.9198
  0
VERTEX
  8
0
 62
     1
  6
CONTINUOUS
 10
1.7587
 20
0.9211
  0
VERTEX
  8
0
 62
     1
  6
CONTINUOUS
 10
1.8004
 20
0.9223
  0
VERTEX
  8
0
 62
     1
  6
CONTINUOUS
 10
1.8420
 20
0.9237
  0
VERTEX
  8
0
 62
     1
  6
CONTINUOUS
 10
1.8837
 20
0.9251
  0
VERTEX
  8
0
 62
     1
  6
CONTINUOUS
 10
1.9253
 20
0.9265
  0
VERTEX
  8
0
 62
     1
  6
CONTINUOUS
 10
1.9670
 20
0.9279
  0
VERTEX
  8
0
 62
     1
  6
CONTINUOUS
 10
2.0086
 20
0.9293
  0
VERTEX
  8
0
 62
     1
  6
CONTINUOUS
 10
2.0503
 20
0.9307
  0
VERTEX
  8
0
 62
     1
  6
CONTINUOUS
 10
2.0920
 20
0.9321
  0
VERTEX
  8
0
 62
     1
  6
CONTINUOUS
 10
2.1336
 20
0.9335
  0
VERTEX
  8
0
 62
     1
  6
CONTINUOUS
 10
2.1753
 20
0.9348
  0
VERTEX
  8
0
 62
     1
  6
CONTINUOUS
 10
2.2169
 20
0.9362
  0
VERTEX
  8
0
 62
     1
  6
CONTINUOUS
 10
2.2586
 20
0.9375
  0
VERTEX
  8
0
 62
     1
  6
CONTINUOUS
 10
2.3003
 20
0.9387
  0
VERTEX
  8
0
 62
     1
  6
CONTINUOUS
 10
2.3419
 20
0.9400
  0
VERTEX
  8
0
 62
     1
  6
CONTINUOUS
 10
2.3836
 20
0.9412
  0
VERTEX
  8
0
 62
     1
  6
CONTINUOUS
 10
2.4253
 20
0.9424
  0
VERTEX
  8
0
 62
     1
  6
CONTINUOUS
 10
2.4669
 20
0.9435
  0
VERTEX
  8
0
 62
     1
  6
CONTINUOUS
 10
2.5086
 20
0.9446
  0
VERTEX
  8
0
 62
     1
  6
CONTINUOUS
 10
2.5503
 20
0.9457
  0
VERTEX
  8
0
 62
     1
  6
CONTINUOUS
 10
2.5919
 20
0.9467
  0
VERTEX
  8
0
 62
     1
  6
CONTINUOUS
 10
2.6336
 20
0.9477
  0
VERTEX
  8
0
 62
     1
  6
CONTINUOUS
 10
2.6752
 20
0.9487
  0
VERTEX
  8
0
 62
     1
  6
CONTINUOUS
 10
2.7169
 20
0.9496
  0
VERTEX
  8
0
 62
     1
  6
CONTINUOUS
 10
2.7586
 20
0.9505
  0
VERTEX
  8
0
 62
     1
  6
CONTINUOUS
 10
2.8002
 20
0.9513
  0
VERTEX
  8
0
 62
     1
  6
CONTINUOUS
 10
2.8419
 20
0.9521
  0
VERTEX
  8
0
 62
     1
  6
CONTINUOUS
 10
2.8835
 20
0.9529
  0
VERTEX
  8
0
 62
     1
  6
CONTINUOUS
 10
2.9252
 20
0.9536
  0
VERTEX
  8
0
 62
     1
  6
CONTINUOUS
 10
2.9669
 20
0.9544
  0
VERTEX
  8
0
 62
     1
  6
CONTINUOUS
 10
3.0085
 20
0.9550
  0
VERTEX
  8
0
 62
     1
  6
CONTINUOUS
 10
3.0502
 20
0.9557
  0
VERTEX
  8
0
 62
     1
  6
CONTINUOUS
 10
3.1335
 20
0.9569
  0
VERTEX
  8
0
 62
     1
  6
CONTINUOUS
 10
3.2168
 20
0.9581
  0
VERTEX
  8
0
 62
     1
  6
CONTINUOUS
 10
3.3002
 20
0.9591
  0
VERTEX
  8
0
 62
     1
  6
CONTINUOUS
 10
3.3835
 20
0.9601
  0
VERTEX
  8
0
 62
     1
  6
CONTINUOUS
 10
3.4668
 20
0.9610
  0
VERTEX
  8
0
 62
     1
  6
CONTINUOUS
 10
3.5501
 20
0.9618
  0
VERTEX
  8
0
 62
     1
  6
CONTINUOUS
 10
3.6335
 20
0.9626
  0
VERTEX
  8
0
 62
     1
  6
CONTINUOUS
 10
3.7168
 20
0.9633
  0
VERTEX
  8
0
 62
     1
  6
CONTINUOUS
 10
3.8001
 20
0.9640
  0
VERTEX
  8
0
 62
     1
  6
CONTINUOUS
 10
3.8835
 20
0.9646
  0
VERTEX
  8
0
 62
     1
  6
CONTINUOUS
 10
3.9668
 20
0.9651
  0
VERTEX
  8
0
 62
     1
  6
CONTINUOUS
 10
4.0501
 20
0.9657
  0
VERTEX
  8
0
 62
     1
  6
CONTINUOUS
 10
4.1334
 20
0.9662
  0
VERTEX
  8
0
 62
     1
  6
CONTINUOUS
 10
4.2168
 20
0.9667
  0
VERTEX
  8
0
 62
     1
  6
CONTINUOUS
 10
4.3001
 20
0.9672
  0
VERTEX
  8
0
 62
     1
  6
CONTINUOUS
 10
4.3834
 20
0.9677
  0
VERTEX
  8
0
 62
     1
  6
CONTINUOUS
 10
4.4667
 20
0.9681
  0
VERTEX
  8
0
 62
     1
  6
CONTINUOUS
 10
4.5501
 20
0.9686
  0
VERTEX
  8
0
 62
     1
  6
CONTINUOUS
 10
4.6334
 20
0.9690
  0
VERTEX
  8
0
 62
     1
  6
CONTINUOUS
 10
4.7167
 20
0.9693
  0
VERTEX
  8
0
 62
     1
  6
CONTINUOUS
 10
4.8000
 20
0.9697
  0
VERTEX
  8
0
 62
     1
  6
CONTINUOUS
 10
4.8834
 20
0.9701
  0
VERTEX
  8
0
 62
     1
  6
CONTINUOUS
 10
4.9667
 20
0.9704
  0
VERTEX
  8
0
 62
     1
  6
CONTINUOUS
 10
5.0500
 20
0.9707
  0
VERTEX
  8
0
 62
     1
  6
CONTINUOUS
 10
5.1333
 20
0.9710
  0
VERTEX
  8
0
 62
     1
  6
CONTINUOUS
 10
5.2167
 20
0.9712
  0
VERTEX
  8
0
 62
     1
  6
CONTINUOUS
 10
5.3000
 20
0.9715
  0
VERTEX
  8
0
 62
     1
  6
CONTINUOUS
 10
5.3833
 20
0.9717
  0
VERTEX
  8
0
 62
     1
  6
CONTINUOUS
 10
5.4666
 20
0.9718
  0
VERTEX
  8
0
 62
     1
  6
CONTINUOUS
 10
5.5500
 20
0.9719
  0
VERTEX
  8
0
 62
     1
  6
CONTINUOUS
 10
5.6333
 20
0.9719
  0
VERTEX
  8
0
 62
     1
  6
CONTINUOUS
 10
5.7166
 20
0.9718
  0
VERTEX
  8
0
 62
     1
  6
CONTINUOUS
 10
5.7999
 20
0.9717
  0
VERTEX
  8
0
 62
     1
  6
CONTINUOUS
 10
5.8833
 20
0.9715
  0
VERTEX
  8
0
 62
     1
  6
CONTINUOUS
 10
5.9666
 20
0.9711
  0
VERTEX
  8
0
 62
     1
  6
CONTINUOUS
 10
6.0499
 20
0.9707
  0
VERTEX
  8
0
 62
     1
  6
CONTINUOUS
 10
6.1332
 20
0.9702
  0
VERTEX
  8
0
 62
     1
  6
CONTINUOUS
 10
6.2166
 20
0.9695
  0
VERTEX
  8
0
 62
     1
  6
CONTINUOUS
 10
6.2999
 20
0.9687
  0
VERTEX
  8
0
 62
     1
  6
CONTINUOUS
 10
6.3832
 20
0.9678
  0
VERTEX
  8
0
 62
     1
  6
CONTINUOUS
 10
6.4666
 20
0.9668
  0
VERTEX
  8
0
 62
     1
  6
CONTINUOUS
 10
6.5499
 20
0.9656
  0
VERTEX
  8
0
 62
     1
  6
CONTINUOUS
 10
6.6332
 20
0.9643
  0
VERTEX
  8
0
 62
     1
  6
CONTINUOUS
 10
6.7166
 20
0.9629
  0
VERTEX
  8
0
 62
     1
  6
CONTINUOUS
 10
6.7999
 20
0.9613
  0
VERTEX
  8
0
 62
     1
  6
CONTINUOUS
 10
6.8832
 20
0.9596
  0
VERTEX
  8
0
 62
     1
  6
CONTINUOUS
 10
6.9665
 20
0.9577
  0
VERTEX
  8
0
 62
     1
  6
CONTINUOUS
 10
7.0498
 20
0.9557
  0
VERTEX
  8
0
 62
     1
  6
CONTINUOUS
 10
7.1331
 20
0.9535
  0
VERTEX
  8
0
 62
     1
  6
CONTINUOUS
 10
7.2165
 20
0.9512
  0
VERTEX
  8
0
 62
     1
  6
CONTINUOUS
 10
7.2998
 20
0.9488
  0
VERTEX
  8
0
 62
     1
  6
CONTINUOUS
 10
7.3831
 20
0.9463
  0
VERTEX
  8
0
 62
     1
  6
CONTINUOUS
 10
7.4665
 20
0.9437
  0
VERTEX
  8
0
 62
     1
  6
CONTINUOUS
 10
7.5498
 20
0.9410
  0
VERTEX
  8
0
 62
     1
  6
CONTINUOUS
 10
7.6331
 20
0.9384
  0
VERTEX
  8
0
 62
     1
  6
CONTINUOUS
 10
7.7164
 20
0.9358
  0
VERTEX
  8
0
 62
     1
  6
CONTINUOUS
 10
7.7997
 20
0.9331
  0
VERTEX
  8
0
 62
     1
  6
CONTINUOUS
 10
7.8831
 20
0.9306
  0
VERTEX
  8
0
 62
     1
  6
CONTINUOUS
 10
7.9664
 20
0.9281
  0
VERTEX
  8
0
 62
     1
  6
CONTINUOUS
 10
8.0497
 20
0.9257
  0
VERTEX
  8
0
 62
     1
  6
CONTINUOUS
 10
8.1330
 20
0.9234
  0
VERTEX
  8
0
 62
     1
  6
CONTINUOUS
 10
8.2164
 20
0.9212
  0
VERTEX
  8
0
 62
     1
  6
CONTINUOUS
 10
8.2997
 20
0.9191
  0
VERTEX
  8
0
 62
     1
  6
CONTINUOUS
 10
8.3830
 20
0.9171
  0
VERTEX
  8
0
 62
     1
  6
CONTINUOUS
 10
8.4663
 20
0.9151
  0
VERTEX
  8
0
 62
     1
  6
CONTINUOUS
 10
8.5497
 20
0.9131
  0
VERTEX
  8
0
 62
     1
  6
CONTINUOUS
 10
8.6330
 20
0.9112
  0
VERTEX
  8
0
 62
     1
  6
CONTINUOUS
 10
8.7163
 20
0.9092
  0
VERTEX
  8
0
 62
     1
  6
CONTINUOUS
 10
8.7996
 20
0.9072
  0
VERTEX
  8
0
 62
     1
  6
CONTINUOUS
 10
8.8830
 20
0.9051
  0
VERTEX
  8
0
 62
     1
  6
CONTINUOUS
 10
8.9663
 20
0.9029
  0
VERTEX
  8
0
 62
     1
  6
CONTINUOUS
 10
9.0496
 20
0.9007
  0
VERTEX
  8
0
 62
     1
  6
CONTINUOUS
 10
9.0913
 20
0.8995
  0
VERTEX
  8
0
 62
     1
  6
CONTINUOUS
 10
9.1329
 20
0.8984
  0
VERTEX
  8
0
 62
     1
  6
CONTINUOUS
 10
9.1746
 20
0.8971
  0
VERTEX
  8
0
 62
     1
  6
CONTINUOUS
 10
9.2163
 20
0.8959
  0
VERTEX
  8
0
 62
     1
  6
CONTINUOUS
 10
9.2579
 20
0.8947
  0
VERTEX
  8
0
 62
     1
  6
CONTINUOUS
 10
9.2996
 20
0.8934
  0
VERTEX
  8
0
 62
     1
  6
CONTINUOUS
 10
9.3413
 20
0.8921
  0
VERTEX
  8
0
 62
     1
  6
CONTINUOUS
 10
9.3829
 20
0.8908
  0
VERTEX
  8
0
 62
     1
  6
CONTINUOUS
 10
9.4246
 20
0.8896
  0
VERTEX
  8
0
 62
     1
  6
CONTINUOUS
 10
9.4662
 20
0.8883
  0
VERTEX
  8
0
 62
     1
  6
CONTINUOUS
 10
9.5079
 20
0.8870
  0
VERTEX
  8
0
 62
     1
  6
CONTINUOUS
 10
9.5496
 20
0.8857
  0
VERTEX
  8
0
 62
     1
  6
CONTINUOUS
 10
9.5912
 20
0.8844
  0
VERTEX
  8
0
 62
     1
  6
CONTINUOUS
 10
9.6329
 20
0.8832
  0
VERTEX
  8
0
 62
     1
  6
CONTINUOUS
 10
9.6746
 20
0.8819
  0
VERTEX
  8
0
 62
     1
  6
CONTINUOUS
 10
9.7162
 20
0.8806
  0
VERTEX
  8
0
 62
     1
  6
CONTINUOUS
 10
9.7579
 20
0.8794
  0
VERTEX
  8
0
 62
     1
  6
CONTINUOUS
 10
9.7995
 20
0.8781
  0
VERTEX
  8
0
 62
     1
  6
CONTINUOUS
 10
9.8412
 20
0.8769
  0
VERTEX
  8
0
 62
     1
  6
CONTINUOUS
 10
9.8829
 20
0.8757
  0
VERTEX
  8
0
 62
     1
  6
CONTINUOUS
 10
9.9245
 20
0.8744
  0
VERTEX
  8
0
 62
     1
  6
CONTINUOUS
 10
9.9662
 20
0.8732
  0
VERTEX
  8
0
 62
     1
  6
CONTINUOUS
 10
10.0079
 20
0.8719
  0
VERTEX
  8
0
 62
     1
  6
CONTINUOUS
 10
10.0495
 20
0.8707
  0
SEQEND
  8
0
  0
ENDSEC
  0
EOF
