 0 
SECTION
 2 
ENTITIES
 0 
POLYLINE
 8 
1
 66 
 1 
 10 
0.0
 20 
0.0
 30 
0.0
 0 
VERTEX
 8 
1
 10 
0.0
 20 
0.5004
 30 
0.0
 0 
VERTEX
 8 
1
 10 
0.05
 20 
0.51141
 30 
0.0
 0 
VERTEX
 8 
1
 10 
0.1
 20 
0.52242
 30 
0.0
 0 
VERTEX
 8 
1
 10 
0.2
 20 
0.54364
 30 
0.0
 0 
VERTEX
 8 
1
 10 
0.3
 20 
0.56286
 30 
0.0
 0 
VERTEX
 8 
1
 10 
0.4
 20 
0.57888
 30 
0.0
 0 
VERTEX
 8 
1
 10 
0.5
 20 
0.5905
 30 
0.0
 0 
VERTEX
 8 
1
 10 
0.6
 20 
0.59752
 30 
0.0
 0 
VERTEX
 8 
1
 10 
0.7
 20 
0.59794
 30 
0.0
 0 
VERTEX
 8 
1
 10 
0.8
 20 
0.58956
 30 
0.0
 0 
VERTEX
 8 
1
 10 
0.85
 20 
0.58015
 30 
0.0
 0 
VERTEX
 8 
1
 10 
0.9
 20 
0.5676
 30 
0.0
 0 
VERTEX
 8 
1
 10 
0.925
 20 
0.5594
 30 
0.0
 0 
VERTEX
 8 
1
 10 
0.95
 20 
0.549
 30 
0.0
 0 
VERTEX
 8 
1
 10 
0.975
 20 
0.5348
 30 
0.0
 0 
VERTEX
 8 
1
 10 
0.99
 20 
0.52138
 30 
0.0
 0 
VERTEX
 8 
1
 10 
1
 20 
0.5
 30 
0.0
 0 
VERTEX
 8 
1
 10 
0.9875
 20 
0.4859
 30 
0.0
 0 
VERTEX
 8 
1
 10 
0.975
 20 
0.4809
 30 
0.0
 0 
VERTEX
 8 
1
 10 
0.95
 20 
0.4757
 30 
0.0
 0 
VERTEX
 8 
1
 10 
0.925
 20 
0.4723
 30 
0.0
 0 
VERTEX
 8 
1
 10 
0.9
 20 
0.4704
 30 
0.0
 0 
VERTEX
 8 
1
 10 
0.85
 20 
0.46847
 30 
0.0
 0 
VERTEX
 8 
1
 10 
0.8
 20 
0.46716
 30 
0.0
 0 
VERTEX
 8 
1
 10 
0.7
 20 
0.46734
 30 
0.0
 0 
VERTEX
 8 
1
 10 
0.6
 20 
0.46932
 30 
0.0
 0 
VERTEX
 8 
1
 10 
0.5
 20 
0.4721
 30 
0.0
 0 
VERTEX
 8 
1
 10 
0.4
 20 
0.47588
 30 
0.0
 0 
VERTEX
 8 
1
 10 
0.3
 20 
0.48126
 30 
0.0
 0 
VERTEX
 8 
1
 10 
0.2
 20 
0.48684
 30 
0.0
 0 
VERTEX
 8 
1
 10 
0.1
 20 
0.49282
 30 
0.0
 0 
VERTEX
 8 
1
 10 
0.05
 20 
0.49621
 30 
0.0
 0 
VERTEX
 8 
1
 10 
0.0
 20 
0.5
 30 
0.0
 0 
SEQEND
 8 
1
 0 
ENDSEC
 0 
EOF
