  0
SECTION
  2
HEADER
  9
$ACADVER
  1
AC1004
  9
$EXTMIN
 10
0.1615
 20
-1.6143
  9
$EXTMAX
 10
32.1477
 20
15.3531
  9
$LIMMIN
 10
0.1615
 20
-1.6143
  9
$LIMMAX
 10
32.1477
 20
15.3531
  9
$INSBASE
 10
0.0
 20
0.0
  9
$VIEWCTR
 10
7.21903
 20
4.5
  9
$VIEWSIZE
 40
9.0
  9
$SNAPMODE
 70
     0
  9
$SNAPUNIT
 10
1.0
 20
1.0
  9
$SNAPBASE
 10
0.0
 20
0.0
  9
$SNAPANG
 50
0.0
  9
$SNAPSTYLE
 70
     0
  9
$SNAPISOPAIR
 70
     0
  9
$GRIDMODE
 70
     0
  9
$GRIDUNIT
 10
0.0
 20
0.0
  9
$ORTHOMODE
 70
     0
  9
$REGENMODE
 70
     1
  9
$FILLMODE
 70
     1
  9
$QTEXTMODE
 70
     0
  9
$DRAGMODE
 70
     2
  9
$LTSCALE
 40
1.0
  9
$OSMODE
 70
     0
  9
$ATTMODE
 70
     1
  9
$TEXTSIZE
 40
0.2
  9
$TRACEWID
 40
0.05
  9
$TEXTSTYLE
  7
STANDARD
  9
$CLAYER
  8
0
  9
$CELTYPE
  6
BYLAYER
  9
$CECOLOR
 62
   256
  9
$DIMSCALE
 40
1.0
  9
$DIMASZ
 40
0.18
  9
$DIMEXO
 40
0.0625
  9
$DIMDLI
 40
0.38
  9
$DIMRND
 40
0.0
  9
$DIMDLE
 40
0.0
  9
$DIMEXE
 40
0.18
  9
$DIMTP
 40
0.0
  9
$DIMTM
 40
0.0
  9
$DIMTXT
 40
0.18
  9
$DIMCEN
 40
0.09
  9
$DIMTSZ
 40
0.0
  9
$DIMTOL
 70
     0
  9
$DIMLIM
 70
     0
  9
$DIMTIH
 70
     1
  9
$DIMTOH
 70
     1
  9
$DIMSE1
 70
     0
  9
$DIMSE2
 70
     0
  9
$DIMTAD
 70
     0
  9
$DIMZIN
 70
     0
  9
$DIMBLK
  1

  9
$DIMASO
 70
     1
  9
$DIMSHO
 70
     0
  9
$DIMPOST
  1

  9
$DIMAPOST
  1

  9
$DIMALT
 70
     0
  9
$DIMALTD
 70
     2
  9
$DIMALTF
 40
25.4
  9
$DIMLFAC
 40
1.0
  9
$LUNITS
 70
     2
  9
$LUPREC
 70
     4
  9
$AXISMODE
 70
     0
  9
$AXISUNIT
 10
0.0
 20
0.0
  9
$SKETCHINC
 40
0.1
  9
$FILLETRAD
 40
0.0
  9
$AUNITS
 70
     0
  9
$AUPREC
 70
     0
  9
$MENU
  1
acad
  9
$ELEVATION
 40
0.0
  9
$THICKNESS
 40
0.0
  9
$VIEWDIR
 10
0.0
 20
0.0
 30
1.0
  9
$LIMCHECK
 70
     0
  9
$BLIPMODE
 70
     1
  9
$CHAMFERA
 40
0.0
  9
$CHAMFERB
 40
0.0
  9
$FASTZOOM
 70
     1
  9
$SKPOLY
 70
     0
  9
$TDCREATE
 40
2447222.5666886573
  9
$TDUPDATE
 40
2447222.5666886573
  9
$TDINDWG
 40
0.0000000000
  9
$TDUSRTIMER
 40
0.0000000000
  9
$USRTIMER
 70
     1
  9
$ANGBASE
 50
0.0
  9
$ANGDIR
 70
     0
  9
$PDMODE
 70
     0
  9
$PDSIZE
 40
0.0
  9
$PLINEWID
 40
0.0
  9
$COORDS
 70
     0
  9
$SPLFRAME
 70
     0
  9
$SPLINESEGS
 70
     8
  9
$ATTDIA
 70
     0
  9
$ATTREQ
 70
     1
  9
$USERI1
 70
     0
  9
$USERI2
 70
     0
  9
$USERI3
 70
     0
  9
$USERI4
 70
     0
  9
$USERI5
 70
     0
  9
$USERR1
 40
0.0
  9
$USERR2
 40
0.0
  9
$USERR3
 40
0.0
  9
$USERR4
 40
0.0
  9
$USERR5
 40
0.0
  0
ENDSEC
  0
SECTION
  2
TABLES
  0
TABLE
  2
LTYPE
 70
     13
  0
LTYPE
  2
CONTINUOUS
 70
    64
  3
Solid line
 72
    65
 73
     0
 40
0.0
  0
LTYPE
  2
DASHED
 70
    64
  3
__ __ __ __ __ __ __ __ __ __ __ __ __ __ __
 72
    65
 73
     2
 40
0.75
 49
0.5
 49
-0.25
  0
LTYPE
  2
HIDDEN
 70
    64
  3
_ _ _ _ _ _ _ _ _ _ _ _ _ _ _ _ _ _ _ _ _ _ _
 72
    65
 73
     2
 40
0.375
 49
0.25
 49
-0.125
  0
LTYPE
  2
CENTER
 70
    64
  3
____ _ ____ _ ____ _ ____ _ ____ _ ____ _ ____
 72
    65
 73
     4
 40
2.0
 49
1.25
 49
-0.25
 49
0.25
 49
-0.25
  0
LTYPE
  2
PHANTOM
 70
    64
  3
_____ _ _ _____ _ _ _____ _ _ _____ _ _ ____
 72
    65
 73
     6
 40
2.5
 49
1.25
 49
-0.25
 49
0.25
 49
-0.25
 49
0.25
 49
-0.25
  0
LTYPE
  2
DOT
 70
    64
  3
...............................................
 72
    65
 73
     2
 40
0.25
 49
0.0
 49
-0.25
  0
LTYPE
  2
DASHDOT
 70
    64
  3
__ . __ . __ . __ . __ . __ . __ . __ . __ . __
 72
    65
 73
     4
 40
1.0
 49
0.5
 49
-0.25
 49
0.0
 49
-0.25
  0
LTYPE
  2
BORDER
 70
    64
  3
__ __ . __ __ . __ __ . __ __ . __ __ . __ __
 72
    65
 73
     6
 40
1.75
 49
0.5
 49
-0.25
 49
0.5
 49
-0.25
 49
0.0
 49
-0.25
  0
LTYPE
  2
DIVIDE
 70
    64
  3
__ . . __ . . __ . . __ . . __ . . __ . . __
 72
    65
 73
     6
 40
1.25
 49
0.5
 49
-0.25
 49
0.0
 49
-0.25
 49
0.0
 49
-0.25
  0
LTYPE
  2
DCTYPE1
 70
    64
  3
__ . . __ . . __ . . __ . . __ . . __ . . __
 72
    65
 73
     8
 40
2.5
 49
0.5
 49
-0.25
 49
0.125
 49
-0.25
 49
0.25
 49
-0.25
 49
0.125
 49
-0.25
  0
LTYPE
  2
DCTYPE2
 70
    64
  3
__ . . __ . . __ . . __ . . __ . . __ . . __
 72
    65
 73
     6
 40
2.05
 49
1.0
 49
-0.3
 49
0.15
 49
-0.15
 49
0.15
 49
-0.3
  0
LTYPE
  2
DCTYPE3
 70
    64
  3
__ . . __ . . __ . . __ . . __ . . __ . . __
 72
    65
 73
     6
 40
2.5
 49
0.8
 49
-0.2
 49
0.8
 49
-0.2
 49
0.3
 49
-0.2
  0
LTYPE
  2
DCTYPE4
 70
    64
  3
__ . . __ . . __ . . __ . . __ . . __ . . __
 72
    65
 73
     10
 40
3.97
 49
1.75
 49
-0.3
 49
0.3
 49
-0.3
 49
0.06
 49
-0.3
 49
0.06
 49
-0.3
 49
0.3
 49
-0.3
  0
ENDTAB
  0
TABLE
  2
LAYER
 70
    153
  0
LAYER
  2
0
 70
 64
 62
     3
  6
CONTINUOUS
  0
ENDTAB
  0
ENDSEC
  0
SECTION
  2
BLOCKS
  0
ENDSEC
  0
SECTION
  2
ENTITIES
  0
POLYLINE
  8
0
 62
     3
 66
     1
  6
CONTINUOUS
  0
VERTEX
  8
0
 62
     3
  6
CONTINUOUS
 10
0.1615
 20
-0.2446
  0
VERTEX
  8
0
 62
     3
  6
CONTINUOUS
 10
0.1875
 20
-0.1773
  0
VERTEX
  8
0
 62
     3
  6
CONTINUOUS
 10
0.2137
 20
-0.1103
  0
VERTEX
  8
0
 62
     3
  6
CONTINUOUS
 10
0.2406
 20
-0.0438
  0
VERTEX
  8
0
 62
     3
  6
CONTINUOUS
 10
0.2683
 20
0.0218
  0
VERTEX
  8
0
 62
     3
  6
CONTINUOUS
 10
0.2974
 20
0.0864
  0
VERTEX
  8
0
 62
     3
  6
CONTINUOUS
 10
0.3280
 20
0.1495
  0
VERTEX
  8
0
 62
     3
  6
CONTINUOUS
 10
0.3604
 20
0.2111
  0
VERTEX
  8
0
 62
     3
  6
CONTINUOUS
 10
0.3950
 20
0.2707
  0
VERTEX
  8
0
 62
     3
  6
CONTINUOUS
 10
0.4321
 20
0.3282
  0
VERTEX
  8
0
 62
     3
  6
CONTINUOUS
 10
0.4720
 20
0.3832
  0
VERTEX
  8
0
 62
     3
  6
CONTINUOUS
 10
0.5150
 20
0.4354
  0
VERTEX
  8
0
 62
     3
  6
CONTINUOUS
 10
0.5614
 20
0.4847
  0
VERTEX
  8
0
 62
     3
  6
CONTINUOUS
 10
0.5903
 20
0.5121
  0
VERTEX
  8
0
 62
     3
  6
CONTINUOUS
 10
0.6205
 20
0.5386
  0
VERTEX
  8
0
 62
     3
  6
CONTINUOUS
 10
0.6517
 20
0.5640
  0
VERTEX
  8
0
 62
     3
  6
CONTINUOUS
 10
0.6838
 20
0.5887
  0
VERTEX
  8
0
 62
     3
  6
CONTINUOUS
 10
0.7168
 20
0.6125
  0
VERTEX
  8
0
 62
     3
  6
CONTINUOUS
 10
0.7505
 20
0.6357
  0
VERTEX
  8
0
 62
     3
  6
CONTINUOUS
 10
0.7848
 20
0.6583
  0
VERTEX
  8
0
 62
     3
  6
CONTINUOUS
 10
0.8195
 20
0.6805
  0
VERTEX
  8
0
 62
     3
  6
CONTINUOUS
 10
0.8547
 20
0.7023
  0
VERTEX
  8
0
 62
     3
  6
CONTINUOUS
 10
0.8901
 20
0.7237
  0
VERTEX
  8
0
 62
     3
  6
CONTINUOUS
 10
0.9256
 20
0.7450
  0
VERTEX
  8
0
 62
     3
  6
CONTINUOUS
 10
0.9612
 20
0.7661
  0
VERTEX
  8
0
 62
     3
  6
CONTINUOUS
 10
1.0277
 20
0.8057
  0
VERTEX
  8
0
 62
     3
  6
CONTINUOUS
 10
1.0940
 20
0.8452
  0
VERTEX
  8
0
 62
     3
  6
CONTINUOUS
 10
1.1601
 20
0.8844
  0
VERTEX
  8
0
 62
     3
  6
CONTINUOUS
 10
1.2261
 20
0.9234
  0
VERTEX
  8
0
 62
     3
  6
CONTINUOUS
 10
1.2922
 20
0.9620
  0
VERTEX
  8
0
 62
     3
  6
CONTINUOUS
 10
1.3583
 20
1.0000
  0
VERTEX
  8
0
 62
     3
  6
CONTINUOUS
 10
1.4245
 20
1.0376
  0
VERTEX
  8
0
 62
     3
  6
CONTINUOUS
 10
1.4910
 20
1.0745
  0
VERTEX
  8
0
 62
     3
  6
CONTINUOUS
 10
1.5578
 20
1.1107
  0
VERTEX
  8
0
 62
     3
  6
CONTINUOUS
 10
1.6250
 20
1.1460
  0
VERTEX
  8
0
 62
     3
  6
CONTINUOUS
 10
1.6927
 20
1.1805
  0
VERTEX
  8
0
 62
     3
  6
CONTINUOUS
 10
1.7609
 20
1.2140
  0
VERTEX
  8
0
 62
     3
  6
CONTINUOUS
 10
1.8256
 20
1.2446
  0
VERTEX
  8
0
 62
     3
  6
CONTINUOUS
 10
1.8909
 20
1.2743
  0
VERTEX
  8
0
 62
     3
  6
CONTINUOUS
 10
1.9566
 20
1.3032
  0
VERTEX
  8
0
 62
     3
  6
CONTINUOUS
 10
2.0228
 20
1.3314
  0
VERTEX
  8
0
 62
     3
  6
CONTINUOUS
 10
2.0892
 20
1.3590
  0
VERTEX
  8
0
 62
     3
  6
CONTINUOUS
 10
2.1560
 20
1.3860
  0
VERTEX
  8
0
 62
     3
  6
CONTINUOUS
 10
2.2231
 20
1.4125
  0
VERTEX
  8
0
 62
     3
  6
CONTINUOUS
 10
2.2903
 20
1.4385
  0
VERTEX
  8
0
 62
     3
  6
CONTINUOUS
 10
2.3577
 20
1.4643
  0
VERTEX
  8
0
 62
     3
  6
CONTINUOUS
 10
2.4253
 20
1.4898
  0
VERTEX
  8
0
 62
     3
  6
CONTINUOUS
 10
2.4929
 20
1.5150
  0
VERTEX
  8
0
 62
     3
  6
CONTINUOUS
 10
2.5605
 20
1.5402
  0
VERTEX
  8
0
 62
     3
  6
CONTINUOUS
 10
2.6269
 20
1.5649
  0
VERTEX
  8
0
 62
     3
  6
CONTINUOUS
 10
2.6932
 20
1.5894
  0
VERTEX
  8
0
 62
     3
  6
CONTINUOUS
 10
2.7596
 20
1.6139
  0
VERTEX
  8
0
 62
     3
  6
CONTINUOUS
 10
2.8260
 20
1.6382
  0
VERTEX
  8
0
 62
     3
  6
CONTINUOUS
 10
2.8925
 20
1.6623
  0
VERTEX
  8
0
 62
     3
  6
CONTINUOUS
 10
2.9590
 20
1.6861
  0
VERTEX
  8
0
 62
     3
  6
CONTINUOUS
 10
3.0255
 20
1.7097
  0
VERTEX
  8
0
 62
     3
  6
CONTINUOUS
 10
3.0922
 20
1.7329
  0
VERTEX
  8
0
 62
     3
  6
CONTINUOUS
 10
3.1590
 20
1.7558
  0
VERTEX
  8
0
 62
     3
  6
CONTINUOUS
 10
3.2259
 20
1.7782
  0
VERTEX
  8
0
 62
     3
  6
CONTINUOUS
 10
3.2930
 20
1.8002
  0
VERTEX
  8
0
 62
     3
  6
CONTINUOUS
 10
3.3602
 20
1.8217
  0
VERTEX
  8
0
 62
     3
  6
CONTINUOUS
 10
3.4909
 20
1.8619
  0
VERTEX
  8
0
 62
     3
  6
CONTINUOUS
 10
3.6223
 20
1.9001
  0
VERTEX
  8
0
 62
     3
  6
CONTINUOUS
 10
3.7542
 20
1.9365
  0
VERTEX
  8
0
 62
     3
  6
CONTINUOUS
 10
3.8867
 20
1.9712
  0
VERTEX
  8
0
 62
     3
  6
CONTINUOUS
 10
4.0196
 20
2.0043
  0
VERTEX
  8
0
 62
     3
  6
CONTINUOUS
 10
4.1530
 20
2.0359
  0
VERTEX
  8
0
 62
     3
  6
CONTINUOUS
 10
4.2867
 20
2.0661
  0
VERTEX
  8
0
 62
     3
  6
CONTINUOUS
 10
4.4208
 20
2.0949
  0
VERTEX
  8
0
 62
     3
  6
CONTINUOUS
 10
4.5552
 20
2.1225
  0
VERTEX
  8
0
 62
     3
  6
CONTINUOUS
 10
4.6898
 20
2.1491
  0
VERTEX
  8
0
 62
     3
  6
CONTINUOUS
 10
4.8245
 20
2.1745
  0
VERTEX
  8
0
 62
     3
  6
CONTINUOUS
 10
4.9595
 20
2.1991
  0
VERTEX
  8
0
 62
     3
  6
CONTINUOUS
 10
5.0923
 20
2.2225
  0
VERTEX
  8
0
 62
     3
  6
CONTINUOUS
 10
5.2251
 20
2.2451
  0
VERTEX
  8
0
 62
     3
  6
CONTINUOUS
 10
5.3581
 20
2.2669
  0
VERTEX
  8
0
 62
     3
  6
CONTINUOUS
 10
5.4911
 20
2.2879
  0
VERTEX
  8
0
 62
     3
  6
CONTINUOUS
 10
5.6243
 20
2.3082
  0
VERTEX
  8
0
 62
     3
  6
CONTINUOUS
 10
5.7575
 20
2.3277
  0
VERTEX
  8
0
 62
     3
  6
CONTINUOUS
 10
5.8908
 20
2.3465
  0
VERTEX
  8
0
 62
     3
  6
CONTINUOUS
 10
6.0243
 20
2.3645
  0
VERTEX
  8
0
 62
     3
  6
CONTINUOUS
 10
6.1578
 20
2.3818
  0
VERTEX
  8
0
 62
     3
  6
CONTINUOUS
 10
6.2913
 20
2.3984
  0
VERTEX
  8
0
 62
     3
  6
CONTINUOUS
 10
6.4250
 20
2.4143
  0
VERTEX
  8
0
 62
     3
  6
CONTINUOUS
 10
6.5588
 20
2.4294
  0
VERTEX
  8
0
 62
     3
  6
CONTINUOUS
 10
6.8242
 20
2.4574
  0
VERTEX
  8
0
 62
     3
  6
CONTINUOUS
 10
7.0900
 20
2.4827
  0
VERTEX
  8
0
 62
     3
  6
CONTINUOUS
 10
7.3560
 20
2.5053
  0
VERTEX
  8
0
 62
     3
  6
CONTINUOUS
 10
7.6222
 20
2.5254
  0
VERTEX
  8
0
 62
     3
  6
CONTINUOUS
 10
7.8887
 20
2.5430
  0
VERTEX
  8
0
 62
     3
  6
CONTINUOUS
 10
8.1554
 20
2.5582
  0
VERTEX
  8
0
 62
     3
  6
CONTINUOUS
 10
8.4222
 20
2.5710
  0
VERTEX
  8
0
 62
     3
  6
CONTINUOUS
 10
8.6891
 20
2.5815
  0
VERTEX
  8
0
 62
     3
  6
CONTINUOUS
 10
8.9561
 20
2.5898
  0
VERTEX
  8
0
 62
     3
  6
CONTINUOUS
 10
9.2232
 20
2.5960
  0
VERTEX
  8
0
 62
     3
  6
CONTINUOUS
 10
9.4903
 20
2.6001
  0
VERTEX
  8
0
 62
     3
  6
CONTINUOUS
 10
9.7574
 20
2.6022
  0
VERTEX
  8
0
 62
     3
  6
CONTINUOUS
 10
10.0242
 20
2.6023
  0
VERTEX
  8
0
 62
     3
  6
CONTINUOUS
 10
10.2910
 20
2.6005
  0
VERTEX
  8
0
 62
     3
  6
CONTINUOUS
 10
10.5578
 20
2.5970
  0
VERTEX
  8
0
 62
     3
  6
CONTINUOUS
 10
10.8245
 20
2.5917
  0
VERTEX
  8
0
 62
     3
  6
CONTINUOUS
 10
11.0911
 20
2.5847
  0
VERTEX
  8
0
 62
     3
  6
CONTINUOUS
 10
11.3577
 20
2.5760
  0
VERTEX
  8
0
 62
     3
  6
CONTINUOUS
 10
11.6243
 20
2.5658
  0
VERTEX
  8
0
 62
     3
  6
CONTINUOUS
 10
11.8908
 20
2.5541
  0
VERTEX
  8
0
 62
     3
  6
CONTINUOUS
 10
12.1572
 20
2.5409
  0
VERTEX
  8
0
 62
     3
  6
CONTINUOUS
 10
12.4235
 20
2.5264
  0
VERTEX
  8
0
 62
     3
  6
CONTINUOUS
 10
12.6898
 20
2.5105
  0
VERTEX
  8
0
 62
     3
  6
CONTINUOUS
 10
12.9560
 20
2.4934
  0
VERTEX
  8
0
 62
     3
  6
CONTINUOUS
 10
13.2232
 20
2.4750
  0
VERTEX
  8
0
 62
     3
  6
CONTINUOUS
 10
13.4903
 20
2.4554
  0
VERTEX
  8
0
 62
     3
  6
CONTINUOUS
 10
13.7573
 20
2.4345
  0
VERTEX
  8
0
 62
     3
  6
CONTINUOUS
 10
14.0242
 20
2.4124
  0
VERTEX
  8
0
 62
     3
  6
CONTINUOUS
 10
14.2909
 20
2.3890
  0
VERTEX
  8
0
 62
     3
  6
CONTINUOUS
 10
14.5576
 20
2.3644
  0
VERTEX
  8
0
 62
     3
  6
CONTINUOUS
 10
14.8241
 20
2.3385
  0
VERTEX
  8
0
 62
     3
  6
CONTINUOUS
 10
15.0905
 20
2.3114
  0
VERTEX
  8
0
 62
     3
  6
CONTINUOUS
 10
15.3568
 20
2.2829
  0
VERTEX
  8
0
 62
     3
  6
CONTINUOUS
 10
15.6229
 20
2.2531
  0
VERTEX
  8
0
 62
     3
  6
CONTINUOUS
 10
15.8889
 20
2.2220
  0
VERTEX
  8
0
 62
     3
  6
CONTINUOUS
 10
16.1546
 20
2.1895
  0
VERTEX
  8
0
 62
     3
  6
CONTINUOUS
 10
16.4221
 20
2.1555
  0
VERTEX
  8
0
 62
     3
  6
CONTINUOUS
 10
16.6893
 20
2.1202
  0
VERTEX
  8
0
 62
     3
  6
CONTINUOUS
 10
16.9564
 20
2.0836
  0
VERTEX
  8
0
 62
     3
  6
CONTINUOUS
 10
17.2233
 20
2.0459
  0
VERTEX
  8
0
 62
     3
  6
CONTINUOUS
 10
17.4901
 20
2.0069
  0
VERTEX
  8
0
 62
     3
  6
CONTINUOUS
 10
17.7567
 20
1.9669
  0
VERTEX
  8
0
 62
     3
  6
CONTINUOUS
 10
18.0232
 20
1.9258
  0
VERTEX
  8
0
 62
     3
  6
CONTINUOUS
 10
18.2895
 20
1.8837
  0
VERTEX
  8
0
 62
     3
  6
CONTINUOUS
 10
18.5556
 20
1.8407
  0
VERTEX
  8
0
 62
     3
  6
CONTINUOUS
 10
18.8216
 20
1.7968
  0
VERTEX
  8
0
 62
     3
  6
CONTINUOUS
 10
19.0875
 20
1.7521
  0
VERTEX
  8
0
 62
     3
  6
CONTINUOUS
 10
19.3533
 20
1.7065
  0
VERTEX
  8
0
 62
     3
  6
CONTINUOUS
 10
19.6206
 20
1.6600
  0
VERTEX
  8
0
 62
     3
  6
CONTINUOUS
 10
19.8878
 20
1.6126
  0
VERTEX
  8
0
 62
     3
  6
CONTINUOUS
 10
20.1548
 20
1.5646
  0
VERTEX
  8
0
 62
     3
  6
CONTINUOUS
 10
20.4217
 20
1.5158
  0
VERTEX
  8
0
 62
     3
  6
CONTINUOUS
 10
20.6885
 20
1.4662
  0
VERTEX
  8
0
 62
     3
  6
CONTINUOUS
 10
20.9551
 20
1.4160
  0
VERTEX
  8
0
 62
     3
  6
CONTINUOUS
 10
21.2216
 20
1.3650
  0
VERTEX
  8
0
 62
     3
  6
CONTINUOUS
 10
21.4880
 20
1.3132
  0
VERTEX
  8
0
 62
     3
  6
CONTINUOUS
 10
21.7542
 20
1.2607
  0
VERTEX
  8
0
 62
     3
  6
CONTINUOUS
 10
22.0202
 20
1.2075
  0
VERTEX
  8
0
 62
     3
  6
CONTINUOUS
 10
22.2861
 20
1.1535
  0
VERTEX
  8
0
 62
     3
  6
CONTINUOUS
 10
22.5519
 20
1.0988
  0
VERTEX
  8
0
 62
     3
  6
CONTINUOUS
 10
22.8192
 20
1.0430
  0
VERTEX
  8
0
 62
     3
  6
CONTINUOUS
 10
23.0863
 20
0.9865
  0
VERTEX
  8
0
 62
     3
  6
CONTINUOUS
 10
23.3533
 20
0.9293
  0
VERTEX
  8
0
 62
     3
  6
CONTINUOUS
 10
23.6201
 20
0.8715
  0
VERTEX
  8
0
 62
     3
  6
CONTINUOUS
 10
23.8868
 20
0.8130
  0
VERTEX
  8
0
 62
     3
  6
CONTINUOUS
 10
24.1534
 20
0.7540
  0
VERTEX
  8
0
 62
     3
  6
CONTINUOUS
 10
24.4199
 20
0.6943
  0
VERTEX
  8
0
 62
     3
  6
CONTINUOUS
 10
24.6862
 20
0.6342
  0
VERTEX
  8
0
 62
     3
  6
CONTINUOUS
 10
24.9525
 20
0.5735
  0
VERTEX
  8
0
 62
     3
  6
CONTINUOUS
 10
25.2186
 20
0.5123
  0
VERTEX
  8
0
 62
     3
  6
CONTINUOUS
 10
25.4846
 20
0.4507
  0
VERTEX
  8
0
 62
     3
  6
CONTINUOUS
 10
25.7505
 20
0.3887
  0
VERTEX
  8
0
 62
     3
  6
CONTINUOUS
 10
26.0175
 20
0.3260
  0
VERTEX
  8
0
 62
     3
  6
CONTINUOUS
 10
26.2844
 20
0.2629
  0
VERTEX
  8
0
 62
     3
  6
CONTINUOUS
 10
26.5512
 20
0.1995
  0
VERTEX
  8
0
 62
     3
  6
CONTINUOUS
 10
26.8179
 20
0.1357
  0
VERTEX
  8
0
 62
     3
  6
CONTINUOUS
 10
27.0846
 20
0.0716
  0
VERTEX
  8
0
 62
     3
  6
CONTINUOUS
 10
27.3511
 20
0.0071
  0
VERTEX
  8
0
 62
     3
  6
CONTINUOUS
 10
27.6176
 20
-0.0576
  0
VERTEX
  8
0
 62
     3
  6
CONTINUOUS
 10
27.8841
 20
-0.1226
  0
VERTEX
  8
0
 62
     3
  6
CONTINUOUS
 10
28.1504
 20
-0.1879
  0
VERTEX
  8
0
 62
     3
  6
CONTINUOUS
 10
28.4167
 20
-0.2535
  0
VERTEX
  8
0
 62
     3
  6
CONTINUOUS
 10
28.6829
 20
-0.3193
  0
VERTEX
  8
0
 62
     3
  6
CONTINUOUS
 10
28.9491
 20
-0.3854
  0
VERTEX
  8
0
 62
     3
  6
CONTINUOUS
 10
29.0824
 20
-0.4185
  0
VERTEX
  8
0
 62
     3
  6
CONTINUOUS
 10
29.2157
 20
-0.4517
  0
VERTEX
  8
0
 62
     3
  6
CONTINUOUS
 10
29.3490
 20
-0.4850
  0
VERTEX
  8
0
 62
     3
  6
CONTINUOUS
 10
29.4823
 20
-0.5183
  0
VERTEX
  8
0
 62
     3
  6
CONTINUOUS
 10
29.6156
 20
-0.5516
  0
VERTEX
  8
0
 62
     3
  6
CONTINUOUS
 10
29.7489
 20
-0.5849
  0
VERTEX
  8
0
 62
     3
  6
CONTINUOUS
 10
29.8821
 20
-0.6183
  0
VERTEX
  8
0
 62
     3
  6
CONTINUOUS
 10
30.0154
 20
-0.6516
  0
VERTEX
  8
0
 62
     3
  6
CONTINUOUS
 10
30.1487
 20
-0.6850
  0
VERTEX
  8
0
 62
     3
  6
CONTINUOUS
 10
30.2819
 20
-0.7184
  0
VERTEX
  8
0
 62
     3
  6
CONTINUOUS
 10
30.4152
 20
-0.7518
  0
VERTEX
  8
0
 62
     3
  6
CONTINUOUS
 10
30.5484
 20
-0.7852
  0
VERTEX
  8
0
 62
     3
  6
CONTINUOUS
 10
30.6817
 20
-0.8185
  0
VERTEX
  8
0
 62
     3
  6
CONTINUOUS
 10
30.8150
 20
-0.8519
  0
VERTEX
  8
0
 62
     3
  6
CONTINUOUS
 10
30.9482
 20
-0.8852
  0
VERTEX
  8
0
 62
     3
  6
CONTINUOUS
 10
31.0815
 20
-0.9186
  0
VERTEX
  8
0
 62
     3
  6
CONTINUOUS
 10
31.2148
 20
-0.9519
  0
VERTEX
  8
0
 62
     3
  6
CONTINUOUS
 10
31.3481
 20
-0.9852
  0
VERTEX
  8
0
 62
     3
  6
CONTINUOUS
 10
31.4813
 20
-1.0185
  0
VERTEX
  8
0
 62
     3
  6
CONTINUOUS
 10
31.6146
 20
-1.0518
  0
VERTEX
  8
0
 62
     3
  6
CONTINUOUS
 10
31.7479
 20
-1.0851
  0
VERTEX
  8
0
 62
     3
  6
CONTINUOUS
 10
31.8812
 20
-1.1184
  0
VERTEX
  8
0
 62
     3
  6
CONTINUOUS
 10
32.0145
 20
-1.1517
  0
VERTEX
  8
0
 62
     3
  6
CONTINUOUS
 10
32.1477
 20
-1.1850
  0
SEQEND
  8
0
  0
POLYLINE
  8
0
 62
     1
 66
     1
  6
CONTINUOUS
  0
VERTEX
  8
0
 62
     1
  6
CONTINUOUS
 10
0.1615
 20
-0.2446
  0
VERTEX
  8
0
 62
     1
  6
CONTINUOUS
 10
0.1908
 20
-0.2886
  0
VERTEX
  8
0
 62
     1
  6
CONTINUOUS
 10
0.2202
 20
-0.3323
  0
VERTEX
  8
0
 62
     1
  6
CONTINUOUS
 10
0.2499
 20
-0.3756
  0
VERTEX
  8
0
 62
     1
  6
CONTINUOUS
 10
0.2802
 20
-0.4182
  0
VERTEX
  8
0
 62
     1
  6
CONTINUOUS
 10
0.3111
 20
-0.4598
  0
VERTEX
  8
0
 62
     1
  6
CONTINUOUS
 10
0.3429
 20
-0.5003
  0
VERTEX
  8
0
 62
     1
  6
CONTINUOUS
 10
0.3757
 20
-0.5393
  0
VERTEX
  8
0
 62
     1
  6
CONTINUOUS
 10
0.4098
 20
-0.5767
  0
VERTEX
  8
0
 62
     1
  6
CONTINUOUS
 10
0.4452
 20
-0.6123
  0
VERTEX
  8
0
 62
     1
  6
CONTINUOUS
 10
0.4821
 20
-0.6457
  0
VERTEX
  8
0
 62
     1
  6
CONTINUOUS
 10
0.5208
 20
-0.6767
  0
VERTEX
  8
0
 62
     1
  6
CONTINUOUS
 10
0.5614
 20
-0.7052
  0
VERTEX
  8
0
 62
     1
  6
CONTINUOUS
 10
0.5912
 20
-0.7237
  0
VERTEX
  8
0
 62
     1
  6
CONTINUOUS
 10
0.6220
 20
-0.7408
  0
VERTEX
  8
0
 62
     1
  6
CONTINUOUS
 10
0.6536
 20
-0.7568
  0
VERTEX
  8
0
 62
     1
  6
CONTINUOUS
 10
0.6860
 20
-0.7717
  0
VERTEX
  8
0
 62
     1
  6
CONTINUOUS
 10
0.7190
 20
-0.7856
  0
VERTEX
  8
0
 62
     1
  6
CONTINUOUS
 10
0.7526
 20
-0.7987
  0
VERTEX
  8
0
 62
     1
  6
CONTINUOUS
 10
0.7867
 20
-0.8110
  0
VERTEX
  8
0
 62
     1
  6
CONTINUOUS
 10
0.8212
 20
-0.8227
  0
VERTEX
  8
0
 62
     1
  6
CONTINUOUS
 10
0.8560
 20
-0.8338
  0
VERTEX
  8
0
 62
     1
  6
CONTINUOUS
 10
0.8910
 20
-0.8446
  0
VERTEX
  8
0
 62
     1
  6
CONTINUOUS
 10
0.9261
 20
-0.8550
  0
VERTEX
  8
0
 62
     1
  6
CONTINUOUS
 10
0.9612
 20
-0.8651
  0
VERTEX
  8
0
 62
     1
  6
CONTINUOUS
 10
1.0283
 20
-0.8843
  0
VERTEX
  8
0
 62
     1
  6
CONTINUOUS
 10
1.0951
 20
-0.9031
  0
VERTEX
  8
0
 62
     1
  6
CONTINUOUS
 10
1.1618
 20
-0.9215
  0
VERTEX
  8
0
 62
     1
  6
CONTINUOUS
 10
1.2283
 20
-0.9395
  0
VERTEX
  8
0
 62
     1
  6
CONTINUOUS
 10
1.2948
 20
-0.9569
  0
VERTEX
  8
0
 62
     1
  6
CONTINUOUS
 10
1.3612
 20
-0.9739
  0
VERTEX
  8
0
 62
     1
  6
CONTINUOUS
 10
1.4276
 20
-0.9903
  0
VERTEX
  8
0
 62
     1
  6
CONTINUOUS
 10
1.4940
 20
-1.0062
  0
VERTEX
  8
0
 62
     1
  6
CONTINUOUS
 10
1.5605
 20
-1.0215
  0
VERTEX
  8
0
 62
     1
  6
CONTINUOUS
 10
1.6271
 20
-1.0361
  0
VERTEX
  8
0
 62
     1
  6
CONTINUOUS
 10
1.6939
 20
-1.0501
  0
VERTEX
  8
0
 62
     1
  6
CONTINUOUS
 10
1.7609
 20
-1.0635
  0
VERTEX
  8
0
 62
     1
  6
CONTINUOUS
 10
1.8268
 20
-1.0759
  0
VERTEX
  8
0
 62
     1
  6
CONTINUOUS
 10
1.8929
 20
-1.0876
  0
VERTEX
  8
0
 62
     1
  6
CONTINUOUS
 10
1.9593
 20
-1.0989
  0
VERTEX
  8
0
 62
     1
  6
CONTINUOUS
 10
2.0257
 20
-1.1096
  0
VERTEX
  8
0
 62
     1
  6
CONTINUOUS
 10
2.0923
 20
-1.1199
  0
VERTEX
  8
0
 62
     1
  6
CONTINUOUS
 10
2.1590
 20
-1.1298
  0
VERTEX
  8
0
 62
     1
  6
CONTINUOUS
 10
2.2259
 20
-1.1394
  0
VERTEX
  8
0
 62
     1
  6
CONTINUOUS
 10
2.2927
 20
-1.1488
  0
VERTEX
  8
0
 62
     1
  6
CONTINUOUS
 10
2.3597
 20
-1.1580
  0
VERTEX
  8
0
 62
     1
  6
CONTINUOUS
 10
2.4266
 20
-1.1670
  0
VERTEX
  8
0
 62
     1
  6
CONTINUOUS
 10
2.4936
 20
-1.1760
  0
VERTEX
  8
0
 62
     1
  6
CONTINUOUS
 10
2.5605
 20
-1.1850
  0
VERTEX
  8
0
 62
     1
  6
CONTINUOUS
 10
2.6272
 20
-1.1940
  0
VERTEX
  8
0
 62
     1
  6
CONTINUOUS
 10
2.6939
 20
-1.2031
  0
VERTEX
  8
0
 62
     1
  6
CONTINUOUS
 10
2.7605
 20
-1.2121
  0
VERTEX
  8
0
 62
     1
  6
CONTINUOUS
 10
2.8271
 20
-1.2211
  0
VERTEX
  8
0
 62
     1
  6
CONTINUOUS
 10
2.8937
 20
-1.2301
  0
VERTEX
  8
0
 62
     1
  6
CONTINUOUS
 10
2.9603
 20
-1.2389
  0
VERTEX
  8
0
 62
     1
  6
CONTINUOUS
 10
3.0269
 20
-1.2475
  0
VERTEX
  8
0
 62
     1
  6
CONTINUOUS
 10
3.0935
 20
-1.2560
  0
VERTEX
  8
0
 62
     1
  6
CONTINUOUS
 10
3.1601
 20
-1.2643
  0
VERTEX
  8
0
 62
     1
  6
CONTINUOUS
 10
3.2268
 20
-1.2723
  0
VERTEX
  8
0
 62
     1
  6
CONTINUOUS
 10
3.2935
 20
-1.2800
  0
VERTEX
  8
0
 62
     1
  6
CONTINUOUS
 10
3.3602
 20
-1.2874
  0
VERTEX
  8
0
 62
     1
  6
CONTINUOUS
 10
3.4929
 20
-1.3010
  0
VERTEX
  8
0
 62
     1
  6
CONTINUOUS
 10
3.6258
 20
-1.3133
  0
VERTEX
  8
0
 62
     1
  6
CONTINUOUS
 10
3.7589
 20
-1.3245
  0
VERTEX
  8
0
 62
     1
  6
CONTINUOUS
 10
3.8920
 20
-1.3347
  0
VERTEX
  8
0
 62
     1
  6
CONTINUOUS
 10
4.0253
 20
-1.3440
  0
VERTEX
  8
0
 62
     1
  6
CONTINUOUS
 10
4.1586
 20
-1.3525
  0
VERTEX
  8
0
 62
     1
  6
CONTINUOUS
 10
4.2920
 20
-1.3604
  0
VERTEX
  8
0
 62
     1
  6
CONTINUOUS
 10
4.4255
 20
-1.3679
  0
VERTEX
  8
0
 62
     1
  6
CONTINUOUS
 10
4.5590
 20
-1.3751
  0
VERTEX
  8
0
 62
     1
  6
CONTINUOUS
 10
4.6925
 20
-1.3821
  0
VERTEX
  8
0
 62
     1
  6
CONTINUOUS
 10
4.8260
 20
-1.3891
  0
VERTEX
  8
0
 62
     1
  6
CONTINUOUS
 10
4.9595
 20
-1.3961
  0
VERTEX
  8
0
 62
     1
  6
CONTINUOUS
 10
5.0928
 20
-1.4034
  0
VERTEX
  8
0
 62
     1
  6
CONTINUOUS
 10
5.2262
 20
-1.4109
  0
VERTEX
  8
0
 62
     1
  6
CONTINUOUS
 10
5.3595
 20
-1.4185
  0
VERTEX
  8
0
 62
     1
  6
CONTINUOUS
 10
5.4927
 20
-1.4262
  0
VERTEX
  8
0
 62
     1
  6
CONTINUOUS
 10
5.6260
 20
-1.4339
  0
VERTEX
  8
0
 62
     1
  6
CONTINUOUS
 10
5.7593
 20
-1.4417
  0
VERTEX
  8
0
 62
     1
  6
CONTINUOUS
 10
5.8925
 20
-1.4494
  0
VERTEX
  8
0
 62
     1
  6
CONTINUOUS
 10
6.0257
 20
-1.4571
  0
VERTEX
  8
0
 62
     1
  6
CONTINUOUS
 10
6.1590
 20
-1.4645
  0
VERTEX
  8
0
 62
     1
  6
CONTINUOUS
 10
6.2922
 20
-1.4718
  0
VERTEX
  8
0
 62
     1
  6
CONTINUOUS
 10
6.4255
 20
-1.4789
  0
VERTEX
  8
0
 62
     1
  6
CONTINUOUS
 10
6.5588
 20
-1.4857
  0
VERTEX
  8
0
 62
     1
  6
CONTINUOUS
 10
6.8251
 20
-1.4983
  0
VERTEX
  8
0
 62
     1
  6
CONTINUOUS
 10
7.0914
 20
-1.5096
  0
VERTEX
  8
0
 62
     1
  6
CONTINUOUS
 10
7.3579
 20
-1.5198
  0
VERTEX
  8
0
 62
     1
  6
CONTINUOUS
 10
7.6244
 20
-1.5289
  0
VERTEX
  8
0
 62
     1
  6
CONTINUOUS
 10
7.8909
 20
-1.5371
  0
VERTEX
  8
0
 62
     1
  6
CONTINUOUS
 10
8.1575
 20
-1.5444
  0
VERTEX
  8
0
 62
     1
  6
CONTINUOUS
 10
8.4241
 20
-1.5510
  0
VERTEX
  8
0
 62
     1
  6
CONTINUOUS
 10
8.6907
 20
-1.5568
  0
VERTEX
  8
0
 62
     1
  6
CONTINUOUS
 10
8.9574
 20
-1.5621
  0
VERTEX
  8
0
 62
     1
  6
CONTINUOUS
 10
9.2241
 20
-1.5669
  0
VERTEX
  8
0
 62
     1
  6
CONTINUOUS
 10
9.4907
 20
-1.5712
  0
VERTEX
  8
0
 62
     1
  6
CONTINUOUS
 10
9.7574
 20
-1.5752
  0
VERTEX
  8
0
 62
     1
  6
CONTINUOUS
 10
10.0240
 20
-1.5790
  0
VERTEX
  8
0
 62
     1
  6
CONTINUOUS
 10
10.2905
 20
-1.5826
  0
VERTEX
  8
0
 62
     1
  6
CONTINUOUS
 10
10.5571
 20
-1.5860
  0
VERTEX
  8
0
 62
     1
  6
CONTINUOUS
 10
10.8237
 20
-1.5891
  0
VERTEX
  8
0
 62
     1
  6
CONTINUOUS
 10
11.0902
 20
-1.5921
  0
VERTEX
  8
0
 62
     1
  6
CONTINUOUS
 10
11.3568
 20
-1.5948
  0
VERTEX
  8
0
 62
     1
  6
CONTINUOUS
 10
11.6233
 20
-1.5973
  0
VERTEX
  8
0
 62
     1
  6
CONTINUOUS
 10
11.8898
 20
-1.5997
  0
VERTEX
  8
0
 62
     1
  6
CONTINUOUS
 10
12.1564
 20
-1.6018
  0
VERTEX
  8
0
 62
     1
  6
CONTINUOUS
 10
12.4229
 20
-1.6038
  0
VERTEX
  8
0
 62
     1
  6
CONTINUOUS
 10
12.6895
 20
-1.6056
  0
VERTEX
  8
0
 62
     1
  6
CONTINUOUS
 10
12.9560
 20
-1.6072
  0
VERTEX
  8
0
 62
     1
  6
CONTINUOUS
 10
13.2226
 20
-1.6087
  0
VERTEX
  8
0
 62
     1
  6
CONTINUOUS
 10
13.4891
 20
-1.6100
  0
VERTEX
  8
0
 62
     1
  6
CONTINUOUS
 10
13.7556
 20
-1.6111
  0
VERTEX
  8
0
 62
     1
  6
CONTINUOUS
 10
14.0222
 20
-1.6120
  0
VERTEX
  8
0
 62
     1
  6
CONTINUOUS
 10
14.2887
 20
-1.6128
  0
VERTEX
  8
0
 62
     1
  6
CONTINUOUS
 10
14.5553
 20
-1.6134
  0
VERTEX
  8
0
 62
     1
  6
CONTINUOUS
 10
14.8219
 20
-1.6139
  0
VERTEX
  8
0
 62
     1
  6
CONTINUOUS
 10
15.0884
 20
-1.6141
  0
VERTEX
  8
0
 62
     1
  6
CONTINUOUS
 10
15.3550
 20
-1.6143
  0
VERTEX
  8
0
 62
     1
  6
CONTINUOUS
 10
15.6215
 20
-1.6142
  0
VERTEX
  8
0
 62
     1
  6
CONTINUOUS
 10
15.8881
 20
-1.6140
  0
VERTEX
  8
0
 62
     1
  6
CONTINUOUS
 10
16.1546
 20
-1.6136
  0
VERTEX
  8
0
 62
     1
  6
CONTINUOUS
 10
16.4212
 20
-1.6131
  0
VERTEX
  8
0
 62
     1
  6
CONTINUOUS
 10
16.6878
 20
-1.6124
  0
VERTEX
  8
0
 62
     1
  6
CONTINUOUS
 10
16.9543
 20
-1.6114
  0
VERTEX
  8
0
 62
     1
  6
CONTINUOUS
 10
17.2209
 20
-1.6102
  0
VERTEX
  8
0
 62
     1
  6
CONTINUOUS
 10
17.4875
 20
-1.6087
  0
VERTEX
  8
0
 62
     1
  6
CONTINUOUS
 10
17.7540
 20
-1.6069
  0
VERTEX
  8
0
 62
     1
  6
CONTINUOUS
 10
18.0206
 20
-1.6048
  0
VERTEX
  8
0
 62
     1
  6
CONTINUOUS
 10
18.2871
 20
-1.6023
  0
VERTEX
  8
0
 62
     1
  6
CONTINUOUS
 10
18.5537
 20
-1.5994
  0
VERTEX
  8
0
 62
     1
  6
CONTINUOUS
 10
18.8202
 20
-1.5961
  0
VERTEX
  8
0
 62
     1
  6
CONTINUOUS
 10
19.0867
 20
-1.5923
  0
VERTEX
  8
0
 62
     1
  6
CONTINUOUS
 10
19.3533
 20
-1.5880
  0
VERTEX
  8
0
 62
     1
  6
CONTINUOUS
 10
19.6198
 20
-1.5833
  0
VERTEX
  8
0
 62
     1
  6
CONTINUOUS
 10
19.8864
 20
-1.5780
  0
VERTEX
  8
0
 62
     1
  6
CONTINUOUS
 10
20.1530
 20
-1.5724
  0
VERTEX
  8
0
 62
     1
  6
CONTINUOUS
 10
20.4195
 20
-1.5664
  0
VERTEX
  8
0
 62
     1
  6
CONTINUOUS
 10
20.6861
 20
-1.5601
  0
VERTEX
  8
0
 62
     1
  6
CONTINUOUS
 10
20.9526
 20
-1.5535
  0
VERTEX
  8
0
 62
     1
  6
CONTINUOUS
 10
21.2192
 20
-1.5467
  0
VERTEX
  8
0
 62
     1
  6
CONTINUOUS
 10
21.4857
 20
-1.5397
  0
VERTEX
  8
0
 62
     1
  6
CONTINUOUS
 10
21.7523
 20
-1.5327
  0
VERTEX
  8
0
 62
     1
  6
CONTINUOUS
 10
22.0188
 20
-1.5255
  0
VERTEX
  8
0
 62
     1
  6
CONTINUOUS
 10
22.2853
 20
-1.5184
  0
VERTEX
  8
0
 62
     1
  6
CONTINUOUS
 10
22.5519
 20
-1.5113
  0
VERTEX
  8
0
 62
     1
  6
CONTINUOUS
 10
22.8184
 20
-1.5042
  0
VERTEX
  8
0
 62
     1
  6
CONTINUOUS
 10
23.0850
 20
-1.4973
  0
VERTEX
  8
0
 62
     1
  6
CONTINUOUS
 10
23.3515
 20
-1.4904
  0
VERTEX
  8
0
 62
     1
  6
CONTINUOUS
 10
23.6181
 20
-1.4835
  0
VERTEX
  8
0
 62
     1
  6
CONTINUOUS
 10
23.8846
 20
-1.4766
  0
VERTEX
  8
0
 62
     1
  6
CONTINUOUS
 10
24.1512
 20
-1.4698
  0
VERTEX
  8
0
 62
     1
  6
CONTINUOUS
 10
24.4178
 20
-1.4630
  0
VERTEX
  8
0
 62
     1
  6
CONTINUOUS
 10
24.6843
 20
-1.4561
  0
VERTEX
  8
0
 62
     1
  6
CONTINUOUS
 10
24.9509
 20
-1.4492
  0
VERTEX
  8
0
 62
     1
  6
CONTINUOUS
 10
25.2174
 20
-1.4422
  0
VERTEX
  8
0
 62
     1
  6
CONTINUOUS
 10
25.4840
 20
-1.4352
  0
VERTEX
  8
0
 62
     1
  6
CONTINUOUS
 10
25.7505
 20
-1.4281
  0
VERTEX
  8
0
 62
     1
  6
CONTINUOUS
 10
26.0171
 20
-1.4209
  0
VERTEX
  8
0
 62
     1
  6
CONTINUOUS
 10
26.2836
 20
-1.4136
  0
VERTEX
  8
0
 62
     1
  6
CONTINUOUS
 10
26.5502
 20
-1.4061
  0
VERTEX
  8
0
 62
     1
  6
CONTINUOUS
 10
26.8168
 20
-1.3986
  0
VERTEX
  8
0
 62
     1
  6
CONTINUOUS
 10
27.0833
 20
-1.3909
  0
VERTEX
  8
0
 62
     1
  6
CONTINUOUS
 10
27.3499
 20
-1.3830
  0
VERTEX
  8
0
 62
     1
  6
CONTINUOUS
 10
27.6164
 20
-1.3750
  0
VERTEX
  8
0
 62
     1
  6
CONTINUOUS
 10
27.8830
 20
-1.3668
  0
VERTEX
  8
0
 62
     1
  6
CONTINUOUS
 10
28.1495
 20
-1.3584
  0
VERTEX
  8
0
 62
     1
  6
CONTINUOUS
 10
28.4161
 20
-1.3499
  0
VERTEX
  8
0
 62
     1
  6
CONTINUOUS
 10
28.6826
 20
-1.3411
  0
VERTEX
  8
0
 62
     1
  6
CONTINUOUS
 10
28.9491
 20
-1.3321
  0
VERTEX
  8
0
 62
     1
  6
CONTINUOUS
 10
29.0824
 20
-1.3276
  0
VERTEX
  8
0
 62
     1
  6
CONTINUOUS
 10
29.2157
 20
-1.3229
  0
VERTEX
  8
0
 62
     1
  6
CONTINUOUS
 10
29.3490
 20
-1.3182
  0
VERTEX
  8
0
 62
     1
  6
CONTINUOUS
 10
29.4823
 20
-1.3135
  0
VERTEX
  8
0
 62
     1
  6
CONTINUOUS
 10
29.6156
 20
-1.3086
  0
VERTEX
  8
0
 62
     1
  6
CONTINUOUS
 10
29.7488
 20
-1.3036
  0
VERTEX
  8
0
 62
     1
  6
CONTINUOUS
 10
29.8821
 20
-1.2986
  0
VERTEX
  8
0
 62
     1
  6
CONTINUOUS
 10
30.0154
 20
-1.2934
  0
VERTEX
  8
0
 62
     1
  6
CONTINUOUS
 10
30.1487
 20
-1.2881
  0
VERTEX
  8
0
 62
     1
  6
CONTINUOUS
 10
30.2819
 20
-1.2826
  0
VERTEX
  8
0
 62
     1
  6
CONTINUOUS
 10
30.4152
 20
-1.2771
  0
VERTEX
  8
0
 62
     1
  6
CONTINUOUS
 10
30.5484
 20
-1.2714
  0
VERTEX
  8
0
 62
     1
  6
CONTINUOUS
 10
30.6817
 20
-1.2655
  0
VERTEX
  8
0
 62
     1
  6
CONTINUOUS
 10
30.8150
 20
-1.2595
  0
VERTEX
  8
0
 62
     1
  6
CONTINUOUS
 10
30.9483
 20
-1.2534
  0
VERTEX
  8
0
 62
     1
  6
CONTINUOUS
 10
31.0816
 20
-1.2471
  0
VERTEX
  8
0
 62
     1
  6
CONTINUOUS
 10
31.2149
 20
-1.2408
  0
VERTEX
  8
0
 62
     1
  6
CONTINUOUS
 10
31.3481
 20
-1.2344
  0
VERTEX
  8
0
 62
     1
  6
CONTINUOUS
 10
31.4814
 20
-1.2279
  0
VERTEX
  8
0
 62
     1
  6
CONTINUOUS
 10
31.6147
 20
-1.2213
  0
VERTEX
  8
0
 62
     1
  6
CONTINUOUS
 10
31.7479
 20
-1.2147
  0
VERTEX
  8
0
 62
     1
  6
CONTINUOUS
 10
31.8812
 20
-1.2080
  0
VERTEX
  8
0
 62
     1
  6
CONTINUOUS
 10
32.0145
 20
-1.2013
  0
VERTEX
  8
0
 62
     1
  6
CONTINUOUS
 10
32.1477
 20
-1.1946
  0
SEQEND
  8
0
  0
TEXT
  8
0
 62
     7
 10
0.8219
 20
11.5083
 40
3.2040
 50
0.0000
 51
0.0000
  1
BOEING 106
 72
     5
 11
31.6415
 21
11.5083
  0
ENDSEC
  0
EOF
