  0
SECTION
  2
HEADER
  9
$ACADVER
  1
AC1004
  9
$EXTMIN
 10
0.1616
 20
1.3626
  9
$EXTMAX
 10
32.1511
 20
18.4965
  9
$LIMMIN
 10
0.1616
 20
1.3626
  9
$LIMMAX
 10
32.1511
 20
18.4965
  9
$INSBASE
 10
0.0
 20
0.0
  9
$VIEWCTR
 10
7.21903
 20
4.5
  9
$VIEWSIZE
 40
9.0
  9
$SNAPMODE
 70
     0
  9
$SNAPUNIT
 10
1.0
 20
1.0
  9
$SNAPBASE
 10
0.0
 20
0.0
  9
$SNAPANG
 50
0.0
  9
$SNAPSTYLE
 70
     0
  9
$SNAPISOPAIR
 70
     0
  9
$GRIDMODE
 70
     0
  9
$GRIDUNIT
 10
0.0
 20
0.0
  9
$ORTHOMODE
 70
     0
  9
$REGENMODE
 70
     1
  9
$FILLMODE
 70
     1
  9
$QTEXTMODE
 70
     0
  9
$DRAGMODE
 70
     2
  9
$LTSCALE
 40
1.0
  9
$OSMODE
 70
     0
  9
$ATTMODE
 70
     1
  9
$TEXTSIZE
 40
0.2
  9
$TRACEWID
 40
0.05
  9
$TEXTSTYLE
  7
STANDARD
  9
$CLAYER
  8
0
  9
$CELTYPE
  6
BYLAYER
  9
$CECOLOR
 62
   256
  9
$DIMSCALE
 40
1.0
  9
$DIMASZ
 40
0.18
  9
$DIMEXO
 40
0.0625
  9
$DIMDLI
 40
0.38
  9
$DIMRND
 40
0.0
  9
$DIMDLE
 40
0.0
  9
$DIMEXE
 40
0.18
  9
$DIMTP
 40
0.0
  9
$DIMTM
 40
0.0
  9
$DIMTXT
 40
0.18
  9
$DIMCEN
 40
0.09
  9
$DIMTSZ
 40
0.0
  9
$DIMTOL
 70
     0
  9
$DIMLIM
 70
     0
  9
$DIMTIH
 70
     1
  9
$DIMTOH
 70
     1
  9
$DIMSE1
 70
     0
  9
$DIMSE2
 70
     0
  9
$DIMTAD
 70
     0
  9
$DIMZIN
 70
     0
  9
$DIMBLK
  1

  9
$DIMASO
 70
     1
  9
$DIMSHO
 70
     0
  9
$DIMPOST
  1

  9
$DIMAPOST
  1

  9
$DIMALT
 70
     0
  9
$DIMALTD
 70
     2
  9
$DIMALTF
 40
25.4
  9
$DIMLFAC
 40
1.0
  9
$LUNITS
 70
     2
  9
$LUPREC
 70
     4
  9
$AXISMODE
 70
     0
  9
$AXISUNIT
 10
0.0
 20
0.0
  9
$SKETCHINC
 40
0.1
  9
$FILLETRAD
 40
0.0
  9
$AUNITS
 70
     0
  9
$AUPREC
 70
     0
  9
$MENU
  1
acad
  9
$ELEVATION
 40
0.0
  9
$THICKNESS
 40
0.0
  9
$VIEWDIR
 10
0.0
 20
0.0
 30
1.0
  9
$LIMCHECK
 70
     0
  9
$BLIPMODE
 70
     1
  9
$CHAMFERA
 40
0.0
  9
$CHAMFERB
 40
0.0
  9
$FASTZOOM
 70
     1
  9
$SKPOLY
 70
     0
  9
$TDCREATE
 40
2447222.5666886573
  9
$TDUPDATE
 40
2447222.5666886573
  9
$TDINDWG
 40
0.0000000000
  9
$TDUSRTIMER
 40
0.0000000000
  9
$USRTIMER
 70
     1
  9
$ANGBASE
 50
0.0
  9
$ANGDIR
 70
     0
  9
$PDMODE
 70
     0
  9
$PDSIZE
 40
0.0
  9
$PLINEWID
 40
0.0
  9
$COORDS
 70
     0
  9
$SPLFRAME
 70
     0
  9
$SPLINESEGS
 70
     8
  9
$ATTDIA
 70
     0
  9
$ATTREQ
 70
     1
  9
$USERI1
 70
     0
  9
$USERI2
 70
     0
  9
$USERI3
 70
     0
  9
$USERI4
 70
     0
  9
$USERI5
 70
     0
  9
$USERR1
 40
0.0
  9
$USERR2
 40
0.0
  9
$USERR3
 40
0.0
  9
$USERR4
 40
0.0
  9
$USERR5
 40
0.0
  0
ENDSEC
  0
SECTION
  2
TABLES
  0
TABLE
  2
LTYPE
 70
     13
  0
LTYPE
  2
CONTINUOUS
 70
    64
  3
Solid line
 72
    65
 73
     0
 40
0.0
  0
LTYPE
  2
DASHED
 70
    64
  3
__ __ __ __ __ __ __ __ __ __ __ __ __ __ __
 72
    65
 73
     2
 40
0.75
 49
0.5
 49
-0.25
  0
LTYPE
  2
HIDDEN
 70
    64
  3
_ _ _ _ _ _ _ _ _ _ _ _ _ _ _ _ _ _ _ _ _ _ _
 72
    65
 73
     2
 40
0.375
 49
0.25
 49
-0.125
  0
LTYPE
  2
CENTER
 70
    64
  3
____ _ ____ _ ____ _ ____ _ ____ _ ____ _ ____
 72
    65
 73
     4
 40
2.0
 49
1.25
 49
-0.25
 49
0.25
 49
-0.25
  0
LTYPE
  2
PHANTOM
 70
    64
  3
_____ _ _ _____ _ _ _____ _ _ _____ _ _ ____
 72
    65
 73
     6
 40
2.5
 49
1.25
 49
-0.25
 49
0.25
 49
-0.25
 49
0.25
 49
-0.25
  0
LTYPE
  2
DOT
 70
    64
  3
...............................................
 72
    65
 73
     2
 40
0.25
 49
0.0
 49
-0.25
  0
LTYPE
  2
DASHDOT
 70
    64
  3
__ . __ . __ . __ . __ . __ . __ . __ . __ . __
 72
    65
 73
     4
 40
1.0
 49
0.5
 49
-0.25
 49
0.0
 49
-0.25
  0
LTYPE
  2
BORDER
 70
    64
  3
__ __ . __ __ . __ __ . __ __ . __ __ . __ __
 72
    65
 73
     6
 40
1.75
 49
0.5
 49
-0.25
 49
0.5
 49
-0.25
 49
0.0
 49
-0.25
  0
LTYPE
  2
DIVIDE
 70
    64
  3
__ . . __ . . __ . . __ . . __ . . __ . . __
 72
    65
 73
     6
 40
1.25
 49
0.5
 49
-0.25
 49
0.0
 49
-0.25
 49
0.0
 49
-0.25
  0
LTYPE
  2
DCTYPE1
 70
    64
  3
__ . . __ . . __ . . __ . . __ . . __ . . __
 72
    65
 73
     8
 40
2.5
 49
0.5
 49
-0.25
 49
0.125
 49
-0.25
 49
0.25
 49
-0.25
 49
0.125
 49
-0.25
  0
LTYPE
  2
DCTYPE2
 70
    64
  3
__ . . __ . . __ . . __ . . __ . . __ . . __
 72
    65
 73
     6
 40
2.05
 49
1.0
 49
-0.3
 49
0.15
 49
-0.15
 49
0.15
 49
-0.3
  0
LTYPE
  2
DCTYPE3
 70
    64
  3
__ . . __ . . __ . . __ . . __ . . __ . . __
 72
    65
 73
     6
 40
2.5
 49
0.8
 49
-0.2
 49
0.8
 49
-0.2
 49
0.3
 49
-0.2
  0
LTYPE
  2
DCTYPE4
 70
    64
  3
__ . . __ . . __ . . __ . . __ . . __ . . __
 72
    65
 73
     10
 40
3.97
 49
1.75
 49
-0.3
 49
0.3
 49
-0.3
 49
0.06
 49
-0.3
 49
0.06
 49
-0.3
 49
0.3
 49
-0.3
  0
ENDTAB
  0
TABLE
  2
LAYER
 70
    153
  0
LAYER
  2
0
 70
 64
 62
     7
  6
CONTINUOUS
  0
ENDTAB
  0
ENDSEC
  0
SECTION
  2
BLOCKS
  0
ENDSEC
  0
SECTION
  2
ENTITIES
  0
TEXT
  8
0
 62
     7
 10
0.1616
 20
14.5057
 40
3.3256
 50
0.0000
 51
0.0000
  1
BOEING 103
 72
     5
 11
32.1511
 21
14.5057
  0
POLYLINE
  8
0
 62
     3
 66
     1
  6
CONTINUOUS
  0
VERTEX
  8
0
 62
     3
  6
CONTINUOUS
 10
0.1616
 20
2.5289
  0
VERTEX
  8
0
 62
     3
  6
CONTINUOUS
 10
0.1888
 20
2.6015
  0
VERTEX
  8
0
 62
     3
  6
CONTINUOUS
 10
0.2164
 20
2.6740
  0
VERTEX
  8
0
 62
     3
  6
CONTINUOUS
 10
0.2444
 20
2.7461
  0
VERTEX
  8
0
 62
     3
  6
CONTINUOUS
 10
0.2732
 20
2.8178
  0
VERTEX
  8
0
 62
     3
  6
CONTINUOUS
 10
0.3030
 20
2.8888
  0
VERTEX
  8
0
 62
     3
  6
CONTINUOUS
 10
0.3341
 20
2.9591
  0
VERTEX
  8
0
 62
     3
  6
CONTINUOUS
 10
0.3667
 20
3.0283
  0
VERTEX
  8
0
 62
     3
  6
CONTINUOUS
 10
0.4010
 20
3.0964
  0
VERTEX
  8
0
 62
     3
  6
CONTINUOUS
 10
0.4375
 20
3.1632
  0
VERTEX
  8
0
 62
     3
  6
CONTINUOUS
 10
0.4762
 20
3.2285
  0
VERTEX
  8
0
 62
     3
  6
CONTINUOUS
 10
0.5174
 20
3.2923
  0
VERTEX
  8
0
 62
     3
  6
CONTINUOUS
 10
0.5614
 20
3.3542
  0
VERTEX
  8
0
 62
     3
  6
CONTINUOUS
 10
0.5897
 20
3.3910
  0
VERTEX
  8
0
 62
     3
  6
CONTINUOUS
 10
0.6191
 20
3.4270
  0
VERTEX
  8
0
 62
     3
  6
CONTINUOUS
 10
0.6495
 20
3.4623
  0
VERTEX
  8
0
 62
     3
  6
CONTINUOUS
 10
0.6809
 20
3.4969
  0
VERTEX
  8
0
 62
     3
  6
CONTINUOUS
 10
0.7132
 20
3.5307
  0
VERTEX
  8
0
 62
     3
  6
CONTINUOUS
 10
0.7464
 20
3.5637
  0
VERTEX
  8
0
 62
     3
  6
CONTINUOUS
 10
0.7804
 20
3.5959
  0
VERTEX
  8
0
 62
     3
  6
CONTINUOUS
 10
0.8152
 20
3.6272
  0
VERTEX
  8
0
 62
     3
  6
CONTINUOUS
 10
0.8508
 20
3.6578
  0
VERTEX
  8
0
 62
     3
  6
CONTINUOUS
 10
0.8870
 20
3.6875
  0
VERTEX
  8
0
 62
     3
  6
CONTINUOUS
 10
0.9239
 20
3.7164
  0
VERTEX
  8
0
 62
     3
  6
CONTINUOUS
 10
0.9613
 20
3.7445
  0
VERTEX
  8
0
 62
     3
  6
CONTINUOUS
 10
1.0230
 20
3.7880
  0
VERTEX
  8
0
 62
     3
  6
CONTINUOUS
 10
1.0860
 20
3.8295
  0
VERTEX
  8
0
 62
     3
  6
CONTINUOUS
 10
1.1502
 20
3.8690
  0
VERTEX
  8
0
 62
     3
  6
CONTINUOUS
 10
1.2154
 20
3.9068
  0
VERTEX
  8
0
 62
     3
  6
CONTINUOUS
 10
1.2816
 20
3.9429
  0
VERTEX
  8
0
 62
     3
  6
CONTINUOUS
 10
1.3485
 20
3.9777
  0
VERTEX
  8
0
 62
     3
  6
CONTINUOUS
 10
1.4162
 20
4.0113
  0
VERTEX
  8
0
 62
     3
  6
CONTINUOUS
 10
1.4845
 20
4.0438
  0
VERTEX
  8
0
 62
     3
  6
CONTINUOUS
 10
1.5532
 20
4.0754
  0
VERTEX
  8
0
 62
     3
  6
CONTINUOUS
 10
1.6223
 20
4.1063
  0
VERTEX
  8
0
 62
     3
  6
CONTINUOUS
 10
1.6916
 20
4.1367
  0
VERTEX
  8
0
 62
     3
  6
CONTINUOUS
 10
1.7610
 20
4.1667
  0
VERTEX
  8
0
 62
     3
  6
CONTINUOUS
 10
1.8272
 20
4.1951
  0
VERTEX
  8
0
 62
     3
  6
CONTINUOUS
 10
1.8934
 20
4.2233
  0
VERTEX
  8
0
 62
     3
  6
CONTINUOUS
 10
1.9597
 20
4.2513
  0
VERTEX
  8
0
 62
     3
  6
CONTINUOUS
 10
2.0260
 20
4.2789
  0
VERTEX
  8
0
 62
     3
  6
CONTINUOUS
 10
2.0923
 20
4.3063
  0
VERTEX
  8
0
 62
     3
  6
CONTINUOUS
 10
2.1588
 20
4.3334
  0
VERTEX
  8
0
 62
     3
  6
CONTINUOUS
 10
2.2254
 20
4.3601
  0
VERTEX
  8
0
 62
     3
  6
CONTINUOUS
 10
2.2922
 20
4.3863
  0
VERTEX
  8
0
 62
     3
  6
CONTINUOUS
 10
2.3590
 20
4.4121
  0
VERTEX
  8
0
 62
     3
  6
CONTINUOUS
 10
2.4261
 20
4.4375
  0
VERTEX
  8
0
 62
     3
  6
CONTINUOUS
 10
2.4933
 20
4.4623
  0
VERTEX
  8
0
 62
     3
  6
CONTINUOUS
 10
2.5608
 20
4.4866
  0
VERTEX
  8
0
 62
     3
  6
CONTINUOUS
 10
2.6266
 20
4.5097
  0
VERTEX
  8
0
 62
     3
  6
CONTINUOUS
 10
2.6926
 20
4.5323
  0
VERTEX
  8
0
 62
     3
  6
CONTINUOUS
 10
2.7588
 20
4.5543
  0
VERTEX
  8
0
 62
     3
  6
CONTINUOUS
 10
2.8251
 20
4.5759
  0
VERTEX
  8
0
 62
     3
  6
CONTINUOUS
 10
2.8916
 20
4.5971
  0
VERTEX
  8
0
 62
     3
  6
CONTINUOUS
 10
2.9583
 20
4.6179
  0
VERTEX
  8
0
 62
     3
  6
CONTINUOUS
 10
3.0251
 20
4.6384
  0
VERTEX
  8
0
 62
     3
  6
CONTINUOUS
 10
3.0920
 20
4.6585
  0
VERTEX
  8
0
 62
     3
  6
CONTINUOUS
 10
3.1590
 20
4.6782
  0
VERTEX
  8
0
 62
     3
  6
CONTINUOUS
 10
3.2261
 20
4.6978
  0
VERTEX
  8
0
 62
     3
  6
CONTINUOUS
 10
3.2933
 20
4.7171
  0
VERTEX
  8
0
 62
     3
  6
CONTINUOUS
 10
3.3605
 20
4.7361
  0
VERTEX
  8
0
 62
     3
  6
CONTINUOUS
 10
3.4926
 20
4.7730
  0
VERTEX
  8
0
 62
     3
  6
CONTINUOUS
 10
3.6248
 20
4.8091
  0
VERTEX
  8
0
 62
     3
  6
CONTINUOUS
 10
3.7573
 20
4.8444
  0
VERTEX
  8
0
 62
     3
  6
CONTINUOUS
 10
3.8900
 20
4.8788
  0
VERTEX
  8
0
 62
     3
  6
CONTINUOUS
 10
4.0229
 20
4.9123
  0
VERTEX
  8
0
 62
     3
  6
CONTINUOUS
 10
4.1560
 20
4.9447
  0
VERTEX
  8
0
 62
     3
  6
CONTINUOUS
 10
4.2894
 20
4.9760
  0
VERTEX
  8
0
 62
     3
  6
CONTINUOUS
 10
4.4230
 20
5.0061
  0
VERTEX
  8
0
 62
     3
  6
CONTINUOUS
 10
4.5569
 20
5.0350
  0
VERTEX
  8
0
 62
     3
  6
CONTINUOUS
 10
4.6910
 20
5.0626
  0
VERTEX
  8
0
 62
     3
  6
CONTINUOUS
 10
4.8254
 20
5.0888
  0
VERTEX
  8
0
 62
     3
  6
CONTINUOUS
 10
4.9600
 20
5.1136
  0
VERTEX
  8
0
 62
     3
  6
CONTINUOUS
 10
5.0923
 20
5.1365
  0
VERTEX
  8
0
 62
     3
  6
CONTINUOUS
 10
5.2248
 20
5.1579
  0
VERTEX
  8
0
 62
     3
  6
CONTINUOUS
 10
5.3576
 20
5.1781
  0
VERTEX
  8
0
 62
     3
  6
CONTINUOUS
 10
5.4906
 20
5.1970
  0
VERTEX
  8
0
 62
     3
  6
CONTINUOUS
 10
5.6237
 20
5.2148
  0
VERTEX
  8
0
 62
     3
  6
CONTINUOUS
 10
5.7571
 20
5.2314
  0
VERTEX
  8
0
 62
     3
  6
CONTINUOUS
 10
5.8905
 20
5.2470
  0
VERTEX
  8
0
 62
     3
  6
CONTINUOUS
 10
6.0241
 20
5.2616
  0
VERTEX
  8
0
 62
     3
  6
CONTINUOUS
 10
6.1579
 20
5.2754
  0
VERTEX
  8
0
 62
     3
  6
CONTINUOUS
 10
6.2917
 20
5.2883
  0
VERTEX
  8
0
 62
     3
  6
CONTINUOUS
 10
6.4255
 20
5.3005
  0
VERTEX
  8
0
 62
     3
  6
CONTINUOUS
 10
6.5595
 20
5.3119
  0
VERTEX
  8
0
 62
     3
  6
CONTINUOUS
 10
6.8256
 20
5.3329
  0
VERTEX
  8
0
 62
     3
  6
CONTINUOUS
 10
7.0918
 20
5.3515
  0
VERTEX
  8
0
 62
     3
  6
CONTINUOUS
 10
7.3582
 20
5.3680
  0
VERTEX
  8
0
 62
     3
  6
CONTINUOUS
 10
7.6246
 20
5.3823
  0
VERTEX
  8
0
 62
     3
  6
CONTINUOUS
 10
7.8911
 20
5.3946
  0
VERTEX
  8
0
 62
     3
  6
CONTINUOUS
 10
8.1578
 20
5.4050
  0
VERTEX
  8
0
 62
     3
  6
CONTINUOUS
 10
8.4244
 20
5.4136
  0
VERTEX
  8
0
 62
     3
  6
CONTINUOUS
 10
8.6912
 20
5.4205
  0
VERTEX
  8
0
 62
     3
  6
CONTINUOUS
 10
8.9579
 20
5.4259
  0
VERTEX
  8
0
 62
     3
  6
CONTINUOUS
 10
9.2247
 20
5.4297
  0
VERTEX
  8
0
 62
     3
  6
CONTINUOUS
 10
9.4916
 20
5.4322
  0
VERTEX
  8
0
 62
     3
  6
CONTINUOUS
 10
9.7584
 20
5.4335
  0
VERTEX
  8
0
 62
     3
  6
CONTINUOUS
 10
10.0252
 20
5.4336
  0
VERTEX
  8
0
 62
     3
  6
CONTINUOUS
 10
10.2919
 20
5.4325
  0
VERTEX
  8
0
 62
     3
  6
CONTINUOUS
 10
10.5586
 20
5.4302
  0
VERTEX
  8
0
 62
     3
  6
CONTINUOUS
 10
10.8253
 20
5.4266
  0
VERTEX
  8
0
 62
     3
  6
CONTINUOUS
 10
11.0920
 20
5.4218
  0
VERTEX
  8
0
 62
     3
  6
CONTINUOUS
 10
11.3586
 20
5.4157
  0
VERTEX
  8
0
 62
     3
  6
CONTINUOUS
 10
11.6252
 20
5.4083
  0
VERTEX
  8
0
 62
     3
  6
CONTINUOUS
 10
11.8918
 20
5.3995
  0
VERTEX
  8
0
 62
     3
  6
CONTINUOUS
 10
12.1583
 20
5.3894
  0
VERTEX
  8
0
 62
     3
  6
CONTINUOUS
 10
12.4247
 20
5.3778
  0
VERTEX
  8
0
 62
     3
  6
CONTINUOUS
 10
12.6911
 20
5.3648
  0
VERTEX
  8
0
 62
     3
  6
CONTINUOUS
 10
12.9574
 20
5.3503
  0
VERTEX
  8
0
 62
     3
  6
CONTINUOUS
 10
13.2245
 20
5.3343
  0
VERTEX
  8
0
 62
     3
  6
CONTINUOUS
 10
13.4916
 20
5.3168
  0
VERTEX
  8
0
 62
     3
  6
CONTINUOUS
 10
13.7585
 20
5.2979
  0
VERTEX
  8
0
 62
     3
  6
CONTINUOUS
 10
14.0254
 20
5.2776
  0
VERTEX
  8
0
 62
     3
  6
CONTINUOUS
 10
14.2922
 20
5.2559
  0
VERTEX
  8
0
 62
     3
  6
CONTINUOUS
 10
14.5588
 20
5.2329
  0
VERTEX
  8
0
 62
     3
  6
CONTINUOUS
 10
14.8254
 20
5.2086
  0
VERTEX
  8
0
 62
     3
  6
CONTINUOUS
 10
15.0918
 20
5.1831
  0
VERTEX
  8
0
 62
     3
  6
CONTINUOUS
 10
15.3581
 20
5.1563
  0
VERTEX
  8
0
 62
     3
  6
CONTINUOUS
 10
15.6243
 20
5.1283
  0
VERTEX
  8
0
 62
     3
  6
CONTINUOUS
 10
15.8904
 20
5.0991
  0
VERTEX
  8
0
 62
     3
  6
CONTINUOUS
 10
16.1563
 20
5.0688
  0
VERTEX
  8
0
 62
     3
  6
CONTINUOUS
 10
16.4236
 20
5.0373
  0
VERTEX
  8
0
 62
     3
  6
CONTINUOUS
 10
16.6908
 20
5.0046
  0
VERTEX
  8
0
 62
     3
  6
CONTINUOUS
 10
16.9578
 20
4.9710
  0
VERTEX
  8
0
 62
     3
  6
CONTINUOUS
 10
17.2246
 20
4.9363
  0
VERTEX
  8
0
 62
     3
  6
CONTINUOUS
 10
17.4914
 20
4.9007
  0
VERTEX
  8
0
 62
     3
  6
CONTINUOUS
 10
17.7580
 20
4.8642
  0
VERTEX
  8
0
 62
     3
  6
CONTINUOUS
 10
18.0245
 20
4.8267
  0
VERTEX
  8
0
 62
     3
  6
CONTINUOUS
 10
18.2909
 20
4.7884
  0
VERTEX
  8
0
 62
     3
  6
CONTINUOUS
 10
18.5572
 20
4.7493
  0
VERTEX
  8
0
 62
     3
  6
CONTINUOUS
 10
18.8233
 20
4.7094
  0
VERTEX
  8
0
 62
     3
  6
CONTINUOUS
 10
19.0894
 20
4.6687
  0
VERTEX
  8
0
 62
     3
  6
CONTINUOUS
 10
19.3553
 20
4.6274
  0
VERTEX
  8
0
 62
     3
  6
CONTINUOUS
 10
19.6226
 20
4.5851
  0
VERTEX
  8
0
 62
     3
  6
CONTINUOUS
 10
19.8897
 20
4.5421
  0
VERTEX
  8
0
 62
     3
  6
CONTINUOUS
 10
20.1568
 20
4.4983
  0
VERTEX
  8
0
 62
     3
  6
CONTINUOUS
 10
20.4237
 20
4.4539
  0
VERTEX
  8
0
 62
     3
  6
CONTINUOUS
 10
20.6905
 20
4.4087
  0
VERTEX
  8
0
 62
     3
  6
CONTINUOUS
 10
20.9572
 20
4.3628
  0
VERTEX
  8
0
 62
     3
  6
CONTINUOUS
 10
21.2237
 20
4.3161
  0
VERTEX
  8
0
 62
     3
  6
CONTINUOUS
 10
21.4901
 20
4.2686
  0
VERTEX
  8
0
 62
     3
  6
CONTINUOUS
 10
21.7564
 20
4.2204
  0
VERTEX
  8
0
 62
     3
  6
CONTINUOUS
 10
22.0225
 20
4.1713
  0
VERTEX
  8
0
 62
     3
  6
CONTINUOUS
 10
22.2884
 20
4.1214
  0
VERTEX
  8
0
 62
     3
  6
CONTINUOUS
 10
22.5542
 20
4.0707
  0
VERTEX
  8
0
 62
     3
  6
CONTINUOUS
 10
22.8216
 20
4.0189
  0
VERTEX
  8
0
 62
     3
  6
CONTINUOUS
 10
23.0889
 20
3.9662
  0
VERTEX
  8
0
 62
     3
  6
CONTINUOUS
 10
23.3560
 20
3.9127
  0
VERTEX
  8
0
 62
     3
  6
CONTINUOUS
 10
23.6230
 20
3.8584
  0
VERTEX
  8
0
 62
     3
  6
CONTINUOUS
 10
23.8897
 20
3.8034
  0
VERTEX
  8
0
 62
     3
  6
CONTINUOUS
 10
24.1564
 20
3.7476
  0
VERTEX
  8
0
 62
     3
  6
CONTINUOUS
 10
24.4229
 20
3.6911
  0
VERTEX
  8
0
 62
     3
  6
CONTINUOUS
 10
24.6892
 20
3.6340
  0
VERTEX
  8
0
 62
     3
  6
CONTINUOUS
 10
24.9554
 20
3.5762
  0
VERTEX
  8
0
 62
     3
  6
CONTINUOUS
 10
25.2215
 20
3.5177
  0
VERTEX
  8
0
 62
     3
  6
CONTINUOUS
 10
25.4874
 20
3.4586
  0
VERTEX
  8
0
 62
     3
  6
CONTINUOUS
 10
25.7532
 20
3.3990
  0
VERTEX
  8
0
 62
     3
  6
CONTINUOUS
 10
26.0203
 20
3.3384
  0
VERTEX
  8
0
 62
     3
  6
CONTINUOUS
 10
26.2873
 20
3.2773
  0
VERTEX
  8
0
 62
     3
  6
CONTINUOUS
 10
26.5541
 20
3.2157
  0
VERTEX
  8
0
 62
     3
  6
CONTINUOUS
 10
26.8209
 20
3.1536
  0
VERTEX
  8
0
 62
     3
  6
CONTINUOUS
 10
27.0876
 20
3.0911
  0
VERTEX
  8
0
 62
     3
  6
CONTINUOUS
 10
27.3541
 20
3.0282
  0
VERTEX
  8
0
 62
     3
  6
CONTINUOUS
 10
27.6206
 20
2.9649
  0
VERTEX
  8
0
 62
     3
  6
CONTINUOUS
 10
27.8870
 20
2.9012
  0
VERTEX
  8
0
 62
     3
  6
CONTINUOUS
 10
28.1534
 20
2.8373
  0
VERTEX
  8
0
 62
     3
  6
CONTINUOUS
 10
28.4197
 20
2.7731
  0
VERTEX
  8
0
 62
     3
  6
CONTINUOUS
 10
28.6859
 20
2.7087
  0
VERTEX
  8
0
 62
     3
  6
CONTINUOUS
 10
28.9521
 20
2.6440
  0
VERTEX
  8
0
 62
     3
  6
CONTINUOUS
 10
29.0858
 20
2.6115
  0
VERTEX
  8
0
 62
     3
  6
CONTINUOUS
 10
29.2195
 20
2.5788
  0
VERTEX
  8
0
 62
     3
  6
CONTINUOUS
 10
29.3532
 20
2.5460
  0
VERTEX
  8
0
 62
     3
  6
CONTINUOUS
 10
29.4868
 20
2.5130
  0
VERTEX
  8
0
 62
     3
  6
CONTINUOUS
 10
29.6203
 20
2.4798
  0
VERTEX
  8
0
 62
     3
  6
CONTINUOUS
 10
29.7538
 20
2.4462
  0
VERTEX
  8
0
 62
     3
  6
CONTINUOUS
 10
29.8871
 20
2.4122
  0
VERTEX
  8
0
 62
     3
  6
CONTINUOUS
 10
30.0203
 20
2.3778
  0
VERTEX
  8
0
 62
     3
  6
CONTINUOUS
 10
30.1534
 20
2.3428
  0
VERTEX
  8
0
 62
     3
  6
CONTINUOUS
 10
30.2863
 20
2.3074
  0
VERTEX
  8
0
 62
     3
  6
CONTINUOUS
 10
30.4190
 20
2.2713
  0
VERTEX
  8
0
 62
     3
  6
CONTINUOUS
 10
30.5516
 20
2.2346
  0
VERTEX
  8
0
 62
     3
  6
CONTINUOUS
 10
30.6856
 20
2.1966
  0
VERTEX
  8
0
 62
     3
  6
CONTINUOUS
 10
30.8195
 20
2.1580
  0
VERTEX
  8
0
 62
     3
  6
CONTINUOUS
 10
30.9531
 20
2.1188
  0
VERTEX
  8
0
 62
     3
  6
CONTINUOUS
 10
31.0866
 20
2.0791
  0
VERTEX
  8
0
 62
     3
  6
CONTINUOUS
 10
31.2200
 20
2.0388
  0
VERTEX
  8
0
 62
     3
  6
CONTINUOUS
 10
31.3532
 20
1.9981
  0
VERTEX
  8
0
 62
     3
  6
CONTINUOUS
 10
31.4864
 20
1.9570
  0
VERTEX
  8
0
 62
     3
  6
CONTINUOUS
 10
31.6194
 20
1.9157
  0
VERTEX
  8
0
 62
     3
  6
CONTINUOUS
 10
31.7524
 20
1.8740
  0
VERTEX
  8
0
 62
     3
  6
CONTINUOUS
 10
31.8853
 20
1.8322
  0
VERTEX
  8
0
 62
     3
  6
CONTINUOUS
 10
32.0182
 20
1.7903
  0
VERTEX
  8
0
 62
     3
  6
CONTINUOUS
 10
32.1511
 20
1.7483
  0
SEQEND
  8
0
  0
POLYLINE
  8
0
 62
     1
 66
     1
  6
CONTINUOUS
  0
VERTEX
  8
0
 62
     1
  6
CONTINUOUS
 10
0.1616
 20
2.5289
  0
VERTEX
  8
0
 62
     1
  6
CONTINUOUS
 10
0.1925
 20
2.4934
  0
VERTEX
  8
0
 62
     1
  6
CONTINUOUS
 10
0.2235
 20
2.4582
  0
VERTEX
  8
0
 62
     1
  6
CONTINUOUS
 10
0.2547
 20
2.4232
  0
VERTEX
  8
0
 62
     1
  6
CONTINUOUS
 10
0.2862
 20
2.3886
  0
VERTEX
  8
0
 62
     1
  6
CONTINUOUS
 10
0.3181
 20
2.3547
  0
VERTEX
  8
0
 62
     1
  6
CONTINUOUS
 10
0.3505
 20
2.3214
  0
VERTEX
  8
0
 62
     1
  6
CONTINUOUS
 10
0.3836
 20
2.2890
  0
VERTEX
  8
0
 62
     1
  6
CONTINUOUS
 10
0.4173
 20
2.2576
  0
VERTEX
  8
0
 62
     1
  6
CONTINUOUS
 10
0.4519
 20
2.2274
  0
VERTEX
  8
0
 62
     1
  6
CONTINUOUS
 10
0.4873
 20
2.1984
  0
VERTEX
  8
0
 62
     1
  6
CONTINUOUS
 10
0.5238
 20
2.1709
  0
VERTEX
  8
0
 62
     1
  6
CONTINUOUS
 10
0.5614
 20
2.1450
  0
VERTEX
  8
0
 62
     1
  6
CONTINUOUS
 10
0.5920
 20
2.1257
  0
VERTEX
  8
0
 62
     1
  6
CONTINUOUS
 10
0.6233
 20
2.1074
  0
VERTEX
  8
0
 62
     1
  6
CONTINUOUS
 10
0.6552
 20
2.0900
  0
VERTEX
  8
0
 62
     1
  6
CONTINUOUS
 10
0.6876
 20
2.0735
  0
VERTEX
  8
0
 62
     1
  6
CONTINUOUS
 10
0.7207
 20
2.0579
  0
VERTEX
  8
0
 62
     1
  6
CONTINUOUS
 10
0.7541
 20
2.0430
  0
VERTEX
  8
0
 62
     1
  6
CONTINUOUS
 10
0.7880
 20
2.0288
  0
VERTEX
  8
0
 62
     1
  6
CONTINUOUS
 10
0.8222
 20
2.0152
  0
VERTEX
  8
0
 62
     1
  6
CONTINUOUS
 10
0.8567
 20
2.0022
  0
VERTEX
  8
0
 62
     1
  6
CONTINUOUS
 10
0.8914
 20
1.9896
  0
VERTEX
  8
0
 62
     1
  6
CONTINUOUS
 10
0.9263
 20
1.9776
  0
VERTEX
  8
0
 62
     1
  6
CONTINUOUS
 10
0.9613
 20
1.9658
  0
VERTEX
  8
0
 62
     1
  6
CONTINUOUS
 10
1.0271
 20
1.9447
  0
VERTEX
  8
0
 62
     1
  6
CONTINUOUS
 10
1.0931
 20
1.9246
  0
VERTEX
  8
0
 62
     1
  6
CONTINUOUS
 10
1.1592
 20
1.9054
  0
VERTEX
  8
0
 62
     1
  6
CONTINUOUS
 10
1.2255
 20
1.8873
  0
VERTEX
  8
0
 62
     1
  6
CONTINUOUS
 10
1.2919
 20
1.8701
  0
VERTEX
  8
0
 62
     1
  6
CONTINUOUS
 10
1.3585
 20
1.8539
  0
VERTEX
  8
0
 62
     1
  6
CONTINUOUS
 10
1.4252
 20
1.8385
  0
VERTEX
  8
0
 62
     1
  6
CONTINUOUS
 10
1.4921
 20
1.8240
  0
VERTEX
  8
0
 62
     1
  6
CONTINUOUS
 10
1.5591
 20
1.8103
  0
VERTEX
  8
0
 62
     1
  6
CONTINUOUS
 10
1.6263
 20
1.7974
  0
VERTEX
  8
0
 62
     1
  6
CONTINUOUS
 10
1.6936
 20
1.7853
  0
VERTEX
  8
0
 62
     1
  6
CONTINUOUS
 10
1.7610
 20
1.7739
  0
VERTEX
  8
0
 62
     1
  6
CONTINUOUS
 10
1.8273
 20
1.7634
  0
VERTEX
  8
0
 62
     1
  6
CONTINUOUS
 10
1.8937
 20
1.7535
  0
VERTEX
  8
0
 62
     1
  6
CONTINUOUS
 10
1.9601
 20
1.7442
  0
VERTEX
  8
0
 62
     1
  6
CONTINUOUS
 10
2.0267
 20
1.7353
  0
VERTEX
  8
0
 62
     1
  6
CONTINUOUS
 10
2.0933
 20
1.7267
  0
VERTEX
  8
0
 62
     1
  6
CONTINUOUS
 10
2.1600
 20
1.7185
  0
VERTEX
  8
0
 62
     1
  6
CONTINUOUS
 10
2.2268
 20
1.7105
  0
VERTEX
  8
0
 62
     1
  6
CONTINUOUS
 10
2.2936
 20
1.7027
  0
VERTEX
  8
0
 62
     1
  6
CONTINUOUS
 10
2.3604
 20
1.6950
  0
VERTEX
  8
0
 62
     1
  6
CONTINUOUS
 10
2.4272
 20
1.6872
  0
VERTEX
  8
0
 62
     1
  6
CONTINUOUS
 10
2.4940
 20
1.6795
  0
VERTEX
  8
0
 62
     1
  6
CONTINUOUS
 10
2.5608
 20
1.6715
  0
VERTEX
  8
0
 62
     1
  6
CONTINUOUS
 10
2.6275
 20
1.6634
  0
VERTEX
  8
0
 62
     1
  6
CONTINUOUS
 10
2.6941
 20
1.6552
  0
VERTEX
  8
0
 62
     1
  6
CONTINUOUS
 10
2.7608
 20
1.6468
  0
VERTEX
  8
0
 62
     1
  6
CONTINUOUS
 10
2.8274
 20
1.6384
  0
VERTEX
  8
0
 62
     1
  6
CONTINUOUS
 10
2.8940
 20
1.6300
  0
VERTEX
  8
0
 62
     1
  6
CONTINUOUS
 10
2.9606
 20
1.6216
  0
VERTEX
  8
0
 62
     1
  6
CONTINUOUS
 10
3.0272
 20
1.6134
  0
VERTEX
  8
0
 62
     1
  6
CONTINUOUS
 10
3.0938
 20
1.6053
  0
VERTEX
  8
0
 62
     1
  6
CONTINUOUS
 10
3.1605
 20
1.5974
  0
VERTEX
  8
0
 62
     1
  6
CONTINUOUS
 10
3.2271
 20
1.5898
  0
VERTEX
  8
0
 62
     1
  6
CONTINUOUS
 10
3.2938
 20
1.5825
  0
VERTEX
  8
0
 62
     1
  6
CONTINUOUS
 10
3.3605
 20
1.5756
  0
VERTEX
  8
0
 62
     1
  6
CONTINUOUS
 10
3.4933
 20
1.5630
  0
VERTEX
  8
0
 62
     1
  6
CONTINUOUS
 10
3.6262
 20
1.5519
  0
VERTEX
  8
0
 62
     1
  6
CONTINUOUS
 10
3.7593
 20
1.5422
  0
VERTEX
  8
0
 62
     1
  6
CONTINUOUS
 10
3.8924
 20
1.5337
  0
VERTEX
  8
0
 62
     1
  6
CONTINUOUS
 10
4.0257
 20
1.5263
  0
VERTEX
  8
0
 62
     1
  6
CONTINUOUS
 10
4.1591
 20
1.5198
  0
VERTEX
  8
0
 62
     1
  6
CONTINUOUS
 10
4.2925
 20
1.5141
  0
VERTEX
  8
0
 62
     1
  6
CONTINUOUS
 10
4.4259
 20
1.5091
  0
VERTEX
  8
0
 62
     1
  6
CONTINUOUS
 10
4.5594
 20
1.5045
  0
VERTEX
  8
0
 62
     1
  6
CONTINUOUS
 10
4.6930
 20
1.5003
  0
VERTEX
  8
0
 62
     1
  6
CONTINUOUS
 10
4.8265
 20
1.4963
  0
VERTEX
  8
0
 62
     1
  6
CONTINUOUS
 10
4.9600
 20
1.4924
  0
VERTEX
  8
0
 62
     1
  6
CONTINUOUS
 10
5.0934
 20
1.4884
  0
VERTEX
  8
0
 62
     1
  6
CONTINUOUS
 10
5.2267
 20
1.4843
  0
VERTEX
  8
0
 62
     1
  6
CONTINUOUS
 10
5.3600
 20
1.4802
  0
VERTEX
  8
0
 62
     1
  6
CONTINUOUS
 10
5.4933
 20
1.4760
  0
VERTEX
  8
0
 62
     1
  6
CONTINUOUS
 10
5.6266
 20
1.4717
  0
VERTEX
  8
0
 62
     1
  6
CONTINUOUS
 10
5.7599
 20
1.4675
  0
VERTEX
  8
0
 62
     1
  6
CONTINUOUS
 10
5.8932
 20
1.4631
  0
VERTEX
  8
0
 62
     1
  6
CONTINUOUS
 10
6.0264
 20
1.4588
  0
VERTEX
  8
0
 62
     1
  6
CONTINUOUS
 10
6.1597
 20
1.4544
  0
VERTEX
  8
0
 62
     1
  6
CONTINUOUS
 10
6.2930
 20
1.4500
  0
VERTEX
  8
0
 62
     1
  6
CONTINUOUS
 10
6.4262
 20
1.4456
  0
VERTEX
  8
0
 62
     1
  6
CONTINUOUS
 10
6.5595
 20
1.4412
  0
VERTEX
  8
0
 62
     1
  6
CONTINUOUS
 10
6.8259
 20
1.4325
  0
VERTEX
  8
0
 62
     1
  6
CONTINUOUS
 10
7.0924
 20
1.4239
  0
VERTEX
  8
0
 62
     1
  6
CONTINUOUS
 10
7.3590
 20
1.4155
  0
VERTEX
  8
0
 62
     1
  6
CONTINUOUS
 10
7.6255
 20
1.4074
  0
VERTEX
  8
0
 62
     1
  6
CONTINUOUS
 10
7.8921
 20
1.3998
  0
VERTEX
  8
0
 62
     1
  6
CONTINUOUS
 10
8.1587
 20
1.3926
  0
VERTEX
  8
0
 62
     1
  6
CONTINUOUS
 10
8.4253
 20
1.3859
  0
VERTEX
  8
0
 62
     1
  6
CONTINUOUS
 10
8.6919
 20
1.3800
  0
VERTEX
  8
0
 62
     1
  6
CONTINUOUS
 10
8.9585
 20
1.3748
  0
VERTEX
  8
0
 62
     1
  6
CONTINUOUS
 10
9.2251
 20
1.3704
  0
VERTEX
  8
0
 62
     1
  6
CONTINUOUS
 10
9.4918
 20
1.3669
  0
VERTEX
  8
0
 62
     1
  6
CONTINUOUS
 10
9.7584
 20
1.3644
  0
VERTEX
  8
0
 62
     1
  6
CONTINUOUS
 10
10.0250
 20
1.3630
  0
VERTEX
  8
0
 62
     1
  6
CONTINUOUS
 10
10.2916
 20
1.3626
  0
VERTEX
  8
0
 62
     1
  6
CONTINUOUS
 10
10.5581
 20
1.3630
  0
VERTEX
  8
0
 62
     1
  6
CONTINUOUS
 10
10.8247
 20
1.3641
  0
VERTEX
  8
0
 62
     1
  6
CONTINUOUS
 10
11.0913
 20
1.3658
  0
VERTEX
  8
0
 62
     1
  6
CONTINUOUS
 10
11.3579
 20
1.3680
  0
VERTEX
  8
0
 62
     1
  6
CONTINUOUS
 10
11.6245
 20
1.3705
  0
VERTEX
  8
0
 62
     1
  6
CONTINUOUS
 10
11.8911
 20
1.3732
  0
VERTEX
  8
0
 62
     1
  6
CONTINUOUS
 10
12.1576
 20
1.3760
  0
VERTEX
  8
0
 62
     1
  6
CONTINUOUS
 10
12.4242
 20
1.3787
  0
VERTEX
  8
0
 62
     1
  6
CONTINUOUS
 10
12.6908
 20
1.3813
  0
VERTEX
  8
0
 62
     1
  6
CONTINUOUS
 10
12.9574
 20
1.3836
  0
VERTEX
  8
0
 62
     1
  6
CONTINUOUS
 10
13.2239
 20
1.3855
  0
VERTEX
  8
0
 62
     1
  6
CONTINUOUS
 10
13.4905
 20
1.3871
  0
VERTEX
  8
0
 62
     1
  6
CONTINUOUS
 10
13.7571
 20
1.3883
  0
VERTEX
  8
0
 62
     1
  6
CONTINUOUS
 10
14.0237
 20
1.3892
  0
VERTEX
  8
0
 62
     1
  6
CONTINUOUS
 10
14.2902
 20
1.3898
  0
VERTEX
  8
0
 62
     1
  6
CONTINUOUS
 10
14.5568
 20
1.3902
  0
VERTEX
  8
0
 62
     1
  6
CONTINUOUS
 10
14.8234
 20
1.3904
  0
VERTEX
  8
0
 62
     1
  6
CONTINUOUS
 10
15.0900
 20
1.3905
  0
VERTEX
  8
0
 62
     1
  6
CONTINUOUS
 10
15.3566
 20
1.3904
  0
VERTEX
  8
0
 62
     1
  6
CONTINUOUS
 10
15.6231
 20
1.3903
  0
VERTEX
  8
0
 62
     1
  6
CONTINUOUS
 10
15.8897
 20
1.3902
  0
VERTEX
  8
0
 62
     1
  6
CONTINUOUS
 10
16.1563
 20
1.3900
  0
VERTEX
  8
0
 62
     1
  6
CONTINUOUS
 10
16.4229
 20
1.3899
  0
VERTEX
  8
0
 62
     1
  6
CONTINUOUS
 10
16.6895
 20
1.3900
  0
VERTEX
  8
0
 62
     1
  6
CONTINUOUS
 10
16.9562
 20
1.3902
  0
VERTEX
  8
0
 62
     1
  6
CONTINUOUS
 10
17.2228
 20
1.3907
  0
VERTEX
  8
0
 62
     1
  6
CONTINUOUS
 10
17.4894
 20
1.3916
  0
VERTEX
  8
0
 62
     1
  6
CONTINUOUS
 10
17.7560
 20
1.3930
  0
VERTEX
  8
0
 62
     1
  6
CONTINUOUS
 10
18.0226
 20
1.3949
  0
VERTEX
  8
0
 62
     1
  6
CONTINUOUS
 10
18.2891
 20
1.3975
  0
VERTEX
  8
0
 62
     1
  6
CONTINUOUS
 10
18.5557
 20
1.4007
  0
VERTEX
  8
0
 62
     1
  6
CONTINUOUS
 10
18.8223
 20
1.4048
  0
VERTEX
  8
0
 62
     1
  6
CONTINUOUS
 10
19.0888
 20
1.4097
  0
VERTEX
  8
0
 62
     1
  6
CONTINUOUS
 10
19.3553
 20
1.4156
  0
VERTEX
  8
0
 62
     1
  6
CONTINUOUS
 10
19.6219
 20
1.4225
  0
VERTEX
  8
0
 62
     1
  6
CONTINUOUS
 10
19.8885
 20
1.4304
  0
VERTEX
  8
0
 62
     1
  6
CONTINUOUS
 10
20.1551
 20
1.4389
  0
VERTEX
  8
0
 62
     1
  6
CONTINUOUS
 10
20.4217
 20
1.4481
  0
VERTEX
  8
0
 62
     1
  6
CONTINUOUS
 10
20.6882
 20
1.4577
  0
VERTEX
  8
0
 62
     1
  6
CONTINUOUS
 10
20.9548
 20
1.4676
  0
VERTEX
  8
0
 62
     1
  6
CONTINUOUS
 10
21.2214
 20
1.4776
  0
VERTEX
  8
0
 62
     1
  6
CONTINUOUS
 10
21.4879
 20
1.4876
  0
VERTEX
  8
0
 62
     1
  6
CONTINUOUS
 10
21.7545
 20
1.4974
  0
VERTEX
  8
0
 62
     1
  6
CONTINUOUS
 10
22.0210
 20
1.5069
  0
VERTEX
  8
0
 62
     1
  6
CONTINUOUS
 10
22.2876
 20
1.5160
  0
VERTEX
  8
0
 62
     1
  6
CONTINUOUS
 10
22.5542
 20
1.5244
  0
VERTEX
  8
0
 62
     1
  6
CONTINUOUS
 10
22.8207
 20
1.5321
  0
VERTEX
  8
0
 62
     1
  6
CONTINUOUS
 10
23.0873
 20
1.5390
  0
VERTEX
  8
0
 62
     1
  6
CONTINUOUS
 10
23.3538
 20
1.5454
  0
VERTEX
  8
0
 62
     1
  6
CONTINUOUS
 10
23.6204
 20
1.5512
  0
VERTEX
  8
0
 62
     1
  6
CONTINUOUS
 10
23.8870
 20
1.5566
  0
VERTEX
  8
0
 62
     1
  6
CONTINUOUS
 10
24.1536
 20
1.5616
  0
VERTEX
  8
0
 62
     1
  6
CONTINUOUS
 10
24.4202
 20
1.5663
  0
VERTEX
  8
0
 62
     1
  6
CONTINUOUS
 10
24.6868
 20
1.5708
  0
VERTEX
  8
0
 62
     1
  6
CONTINUOUS
 10
24.9534
 20
1.5752
  0
VERTEX
  8
0
 62
     1
  6
CONTINUOUS
 10
25.2200
 20
1.5795
  0
VERTEX
  8
0
 62
     1
  6
CONTINUOUS
 10
25.4866
 20
1.5839
  0
VERTEX
  8
0
 62
     1
  6
CONTINUOUS
 10
25.7532
 20
1.5884
  0
VERTEX
  8
0
 62
     1
  6
CONTINUOUS
 10
26.0198
 20
1.5930
  0
VERTEX
  8
0
 62
     1
  6
CONTINUOUS
 10
26.2864
 20
1.5979
  0
VERTEX
  8
0
 62
     1
  6
CONTINUOUS
 10
26.5530
 20
1.6029
  0
VERTEX
  8
0
 62
     1
  6
CONTINUOUS
 10
26.8195
 20
1.6081
  0
VERTEX
  8
0
 62
     1
  6
CONTINUOUS
 10
27.0861
 20
1.6134
  0
VERTEX
  8
0
 62
     1
  6
CONTINUOUS
 10
27.3527
 20
1.6188
  0
VERTEX
  8
0
 62
     1
  6
CONTINUOUS
 10
27.6193
 20
1.6242
  0
VERTEX
  8
0
 62
     1
  6
CONTINUOUS
 10
27.8858
 20
1.6298
  0
VERTEX
  8
0
 62
     1
  6
CONTINUOUS
 10
28.1524
 20
1.6354
  0
VERTEX
  8
0
 62
     1
  6
CONTINUOUS
 10
28.4190
 20
1.6410
  0
VERTEX
  8
0
 62
     1
  6
CONTINUOUS
 10
28.6856
 20
1.6467
  0
VERTEX
  8
0
 62
     1
  6
CONTINUOUS
 10
28.9521
 20
1.6523
  0
VERTEX
  8
0
 62
     1
  6
CONTINUOUS
 10
29.0854
 20
1.6552
  0
VERTEX
  8
0
 62
     1
  6
CONTINUOUS
 10
29.2187
 20
1.6580
  0
VERTEX
  8
0
 62
     1
  6
CONTINUOUS
 10
29.3520
 20
1.6608
  0
VERTEX
  8
0
 62
     1
  6
CONTINUOUS
 10
29.4853
 20
1.6635
  0
VERTEX
  8
0
 62
     1
  6
CONTINUOUS
 10
29.6186
 20
1.6663
  0
VERTEX
  8
0
 62
     1
  6
CONTINUOUS
 10
29.7519
 20
1.6690
  0
VERTEX
  8
0
 62
     1
  6
CONTINUOUS
 10
29.8852
 20
1.6717
  0
VERTEX
  8
0
 62
     1
  6
CONTINUOUS
 10
30.0184
 20
1.6743
  0
VERTEX
  8
0
 62
     1
  6
CONTINUOUS
 10
30.1517
 20
1.6769
  0
VERTEX
  8
0
 62
     1
  6
CONTINUOUS
 10
30.2850
 20
1.6794
  0
VERTEX
  8
0
 62
     1
  6
CONTINUOUS
 10
30.4183
 20
1.6819
  0
VERTEX
  8
0
 62
     1
  6
CONTINUOUS
 10
30.5516
 20
1.6843
  0
VERTEX
  8
0
 62
     1
  6
CONTINUOUS
 10
30.6849
 20
1.6867
  0
VERTEX
  8
0
 62
     1
  6
CONTINUOUS
 10
30.8182
 20
1.6890
  0
VERTEX
  8
0
 62
     1
  6
CONTINUOUS
 10
30.9515
 20
1.6912
  0
VERTEX
  8
0
 62
     1
  6
CONTINUOUS
 10
31.0848
 20
1.6934
  0
VERTEX
  8
0
 62
     1
  6
CONTINUOUS
 10
31.2181
 20
1.6956
  0
VERTEX
  8
0
 62
     1
  6
CONTINUOUS
 10
31.3513
 20
1.6977
  0
VERTEX
  8
0
 62
     1
  6
CONTINUOUS
 10
31.4846
 20
1.6998
  0
VERTEX
  8
0
 62
     1
  6
CONTINUOUS
 10
31.6179
 20
1.7019
  0
VERTEX
  8
0
 62
     1
  6
CONTINUOUS
 10
31.7512
 20
1.7039
  0
VERTEX
  8
0
 62
     1
  6
CONTINUOUS
 10
31.8845
 20
1.7059
  0
VERTEX
  8
0
 62
     1
  6
CONTINUOUS
 10
32.0178
 20
1.7079
  0
VERTEX
  8
0
 62
     1
  6
CONTINUOUS
 10
32.1511
 20
1.7099
  0
SEQEND
  8
0
  0
ENDSEC
  0
EOF
