 0 
SECTION
 2 
ENTITIES
 0 
POLYLINE
 8 
1
 66 
 1 
 10 
0.0
 20 
0.0
 30 
0.0
 0 
VERTEX
 8 
1
 10 
0.0
 20 
0.5
 30 
0.0
 0 
VERTEX
 8 
1
 10 
0.0012699
 20 
0.50012
 30 
0.0
 0 
VERTEX
 8 
1
 10 
0.0050900
 20 
0.50048
 30 
0.0
 0 
VERTEX
 8 
1
 10 
0.011430
 20 
0.50108
 30 
0.0
 0 
VERTEX
 8 
1
 10 
0.02025
 20 
0.50191
 30 
0.0
 0 
VERTEX
 8 
1
 10 
0.031529
 20 
0.50298
 30 
0.0
 0 
VERTEX
 8 
1
 10 
0.04518
 20 
0.50427
 30 
0.0
 0 
VERTEX
 8 
1
 10 
0.06116
 20 
0.50578
 30 
0.0
 0 
VERTEX
 8 
1
 10 
0.079370
 20 
0.5075
 30 
0.0
 0 
VERTEX
 8 
1
 10 
0.09973
 20 
0.50943
 30 
0.0
 0 
VERTEX
 8 
1
 10 
0.12213
 20 
0.51155
 30 
0.0
 0 
VERTEX
 8 
1
 10 
0.14645
 20 
0.51386
 30 
0.0
 0 
VERTEX
 8 
1
 10 
0.17257
 20 
0.51633
 30 
0.0
 0 
VERTEX
 8 
1
 10 
0.20036
 20 
0.51897
 30 
0.0
 0 
VERTEX
 8 
1
 10 
0.22968
 20 
0.52176
 30 
0.0
 0 
VERTEX
 8 
1
 10 
0.26038
 20 
0.52468
 30 
0.0
 0 
VERTEX
 8 
1
 10 
0.29229
 20 
0.52771
 30 
0.0
 0 
VERTEX
 8 
1
 10 
0.32527
 20 
0.53077
 30 
0.0
 0 
VERTEX
 8 
1
 10 
0.35913
 20 
0.53379
 30 
0.0
 0 
VERTEX
 8 
1
 10 
0.39372
 20 
0.5367
 30 
0.0
 0 
VERTEX
 8 
1
 10 
0.42884
 20 
0.53942
 30 
0.0
 0 
VERTEX
 8 
1
 10 
0.46433
 20 
0.54191
 30 
0.0
 0 
VERTEX
 8 
1
 10 
0.5
 20 
0.54412
 30 
0.0
 0 
VERTEX
 8 
1
 10 
0.53567
 20 
0.54598
 30 
0.0
 0 
VERTEX
 8 
1
 10 
0.57116
 20 
0.54747
 30 
0.0
 0 
VERTEX
 8 
1
 10 
0.60628
 20 
0.54855
 30 
0.0
 0 
VERTEX
 8 
1
 10 
0.64087
 20 
0.54923
 30 
0.0
 0 
VERTEX
 8 
1
 10 
0.67473
 20 
0.5495
 30 
0.0
 0 
VERTEX
 8 
1
 10 
0.70771
 20 
0.54935
 30 
0.0
 0 
VERTEX
 8 
1
 10 
0.73962
 20 
0.54881
 30 
0.0
 0 
VERTEX
 8 
1
 10 
0.77032
 20 
0.54787
 30 
0.0
 0 
VERTEX
 8 
1
 10 
0.79964
 20 
0.54655
 30 
0.0
 0 
VERTEX
 8 
1
 10 
0.82743
 20 
0.54487
 30 
0.0
 0 
VERTEX
 8 
1
 10 
0.85355
 20 
0.54282
 30 
0.0
 0 
VERTEX
 8 
1
 10 
0.87788
 20 
0.54042
 30 
0.0
 0 
VERTEX
 8 
1
 10 
0.90027
 20 
0.53766
 30 
0.0
 0 
VERTEX
 8 
1
 10 
0.92063
 20 
0.53456
 30 
0.0
 0 
VERTEX
 8 
1
 10 
0.93884
 20 
0.53113
 30 
0.0
 0 
VERTEX
 8 
1
 10 
0.95482
 20 
0.5274
 30 
0.0
 0 
VERTEX
 8 
1
 10 
0.96848
 20 
0.52339
 30 
0.0
 0 
VERTEX
 8 
1
 10 
0.97975
 20 
0.51914
 30 
0.0
 0 
VERTEX
 8 
1
 10 
0.98857
 20 
0.51467
 30 
0.0
 0 
VERTEX
 8 
1
 10 
0.99491
 20 
0.51
 30 
0.0
 0 
VERTEX
 8 
1
 10 
0.99873
 20 
0.50519
 30 
0.0
 0 
VERTEX
 8 
1
 10 
1
 20 
0.5
 30 
0.0
 0 
VERTEX
 8 
1
 10 
0.99873
 20 
0.49481
 30 
0.0
 0 
VERTEX
 8 
1
 10 
0.99491
 20 
0.49
 30 
0.0
 0 
VERTEX
 8 
1
 10 
0.98857
 20 
0.48533
 30 
0.0
 0 
VERTEX
 8 
1
 10 
0.97975
 20 
0.48086
 30 
0.0
 0 
VERTEX
 8 
1
 10 
0.96848
 20 
0.47661
 30 
0.0
 0 
VERTEX
 8 
1
 10 
0.95482
 20 
0.4726
 30 
0.0
 0 
VERTEX
 8 
1
 10 
0.93884
 20 
0.46887
 30 
0.0
 0 
VERTEX
 8 
1
 10 
0.92063
 20 
0.46544
 30 
0.0
 0 
VERTEX
 8 
1
 10 
0.90027
 20 
0.46234
 30 
0.0
 0 
VERTEX
 8 
1
 10 
0.87788
 20 
0.45958
 30 
0.0
 0 
VERTEX
 8 
1
 10 
0.85355
 20 
0.45718
 30 
0.0
 0 
VERTEX
 8 
1
 10 
0.82743
 20 
0.45513
 30 
0.0
 0 
VERTEX
 8 
1
 10 
0.79964
 20 
0.45345
 30 
0.0
 0 
VERTEX
 8 
1
 10 
0.77032
 20 
0.45213
 30 
0.0
 0 
VERTEX
 8 
1
 10 
0.73962
 20 
0.45119
 30 
0.0
 0 
VERTEX
 8 
1
 10 
0.70771
 20 
0.45065
 30 
0.0
 0 
VERTEX
 8 
1
 10 
0.67473
 20 
0.4505
 30 
0.0
 0 
VERTEX
 8 
1
 10 
0.64087
 20 
0.45077
 30 
0.0
 0 
VERTEX
 8 
1
 10 
0.60628
 20 
0.45145
 30 
0.0
 0 
VERTEX
 8 
1
 10 
0.57116
 20 
0.45253
 30 
0.0
 0 
VERTEX
 8 
1
 10 
0.53567
 20 
0.45402
 30 
0.0
 0 
VERTEX
 8 
1
 10 
0.5
 20 
0.45588
 30 
0.0
 0 
VERTEX
 8 
1
 10 
0.46433
 20 
0.45809
 30 
0.0
 0 
VERTEX
 8 
1
 10 
0.42884
 20 
0.46058
 30 
0.0
 0 
VERTEX
 8 
1
 10 
0.39372
 20 
0.4633
 30 
0.0
 0 
VERTEX
 8 
1
 10 
0.35913
 20 
0.46621
 30 
0.0
 0 
VERTEX
 8 
1
 10 
0.32527
 20 
0.46923
 30 
0.0
 0 
VERTEX
 8 
1
 10 
0.29229
 20 
0.47229
 30 
0.0
 0 
VERTEX
 8 
1
 10 
0.26038
 20 
0.47532
 30 
0.0
 0 
VERTEX
 8 
1
 10 
0.22968
 20 
0.47824
 30 
0.0
 0 
VERTEX
 8 
1
 10 
0.20036
 20 
0.48103
 30 
0.0
 0 
VERTEX
 8 
1
 10 
0.17257
 20 
0.48367
 30 
0.0
 0 
VERTEX
 8 
1
 10 
0.14645
 20 
0.48614
 30 
0.0
 0 
VERTEX
 8 
1
 10 
0.12213
 20 
0.48845
 30 
0.0
 0 
VERTEX
 8 
1
 10 
0.09973
 20 
0.49057
 30 
0.0
 0 
VERTEX
 8 
1
 10 
0.079370
 20 
0.4925
 30 
0.0
 0 
VERTEX
 8 
1
 10 
0.06116
 20 
0.49422
 30 
0.0
 0 
VERTEX
 8 
1
 10 
0.04518
 20 
0.49573
 30 
0.0
 0 
VERTEX
 8 
1
 10 
0.031529
 20 
0.49702
 30 
0.0
 0 
VERTEX
 8 
1
 10 
0.02025
 20 
0.49809
 30 
0.0
 0 
VERTEX
 8 
1
 10 
0.011430
 20 
0.49892
 30 
0.0
 0 
VERTEX
 8 
1
 10 
0.0050900
 20 
0.49952
 30 
0.0
 0 
VERTEX
 8 
1
 10 
0.0012699
 20 
0.49988
 30 
0.0
 0 
VERTEX
 8 
1
 10 
0.0
 20 
0.5
 30 
0.0
 0 
SEQEND
 8 
1
 0 
ENDSEC
 0 
EOF
