 0 
SECTION
 2 
ENTITIES
 0 
POLYLINE
 8 
1
 66 
 1 
 10 
0.0
 20 
0.0
 30 
0.0
 0 
VERTEX
 8 
1
 10 
0.0
 20 
0.50093
 30 
0.0
 0 
VERTEX
 8 
1
 10 
0.0024100
 20 
0.50145
 30 
0.0
 0 
VERTEX
 8 
1
 10 
0.0096100
 20 
0.50302
 30 
0.0
 0 
VERTEX
 8 
1
 10 
0.02153
 20 
0.50564
 30 
0.0
 0 
VERTEX
 8 
1
 10 
0.03806
 20 
0.50927
 30 
0.0
 0 
VERTEX
 8 
1
 10 
0.05904
 20 
0.51387
 30 
0.0
 0 
VERTEX
 8 
1
 10 
0.08426
 20 
0.51922
 30 
0.0
 0 
VERTEX
 8 
1
 10 
0.11349
 20 
0.52487
 30 
0.0
 0 
VERTEX
 8 
1
 10 
0.14645
 20 
0.53096
 30 
0.0
 0 
VERTEX
 8 
1
 10 
0.1828
 20 
0.53722
 30 
0.0
 0 
VERTEX
 8 
1
 10 
0.22221
 20 
0.54325
 30 
0.0
 0 
VERTEX
 8 
1
 10 
0.2643
 20 
0.54879
 30 
0.0
 0 
VERTEX
 8 
1
 10 
0.30866
 20 
0.55379
 30 
0.0
 0 
VERTEX
 8 
1
 10 
0.35486
 20 
0.55817
 30 
0.0
 0 
VERTEX
 8 
1
 10 
0.40245
 20 
0.5618
 30 
0.0
 0 
VERTEX
 8 
1
 10 
0.45099
 20 
0.5646
 30 
0.0
 0 
VERTEX
 8 
1
 10 
0.5
 20 
0.56652
 30 
0.0
 0 
VERTEX
 8 
1
 10 
0.54901
 20 
0.56751
 30 
0.0
 0 
VERTEX
 8 
1
 10 
0.59754
 20 
0.56755
 30 
0.0
 0 
VERTEX
 8 
1
 10 
0.64514
 20 
0.56666
 30 
0.0
 0 
VERTEX
 8 
1
 10 
0.69134
 20 
0.56501
 30 
0.0
 0 
VERTEX
 8 
1
 10 
0.7357
 20 
0.56264
 30 
0.0
 0 
VERTEX
 8 
1
 10 
0.77778
 20 
0.55955
 30 
0.0
 0 
VERTEX
 8 
1
 10 
0.8172
 20 
0.55586
 30 
0.0
 0 
VERTEX
 8 
1
 10 
0.85355
 20 
0.55165
 30 
0.0
 0 
VERTEX
 8 
1
 10 
0.88651
 20 
0.54693
 30 
0.0
 0 
VERTEX
 8 
1
 10 
0.91573
 20 
0.54169
 30 
0.0
 0 
VERTEX
 8 
1
 10 
0.94096
 20 
0.53596
 30 
0.0
 0 
VERTEX
 8 
1
 10 
0.96194
 20 
0.52973
 30 
0.0
 0 
VERTEX
 8 
1
 10 
0.97847
 20 
0.52306
 30 
0.0
 0 
VERTEX
 8 
1
 10 
0.99039
 20 
0.51597
 30 
0.0
 0 
VERTEX
 8 
1
 10 
0.99759
 20 
0.50848
 30 
0.0
 0 
VERTEX
 8 
1
 10 
1
 20 
0.5
 30 
0.0
 0 
VERTEX
 8 
1
 10 
0.99759
 20 
0.49299
 30 
0.0
 0 
VERTEX
 8 
1
 10 
0.99039
 20 
0.4864
 30 
0.0
 0 
VERTEX
 8 
1
 10 
0.97847
 20 
0.48075
 30 
0.0
 0 
VERTEX
 8 
1
 10 
0.96194
 20 
0.47596
 30 
0.0
 0 
VERTEX
 8 
1
 10 
0.94096
 20 
0.47192
 30 
0.0
 0 
VERTEX
 8 
1
 10 
0.91573
 20 
0.4685
 30 
0.0
 0 
VERTEX
 8 
1
 10 
0.88651
 20 
0.46563
 30 
0.0
 0 
VERTEX
 8 
1
 10 
0.85355
 20 
0.46323
 30 
0.0
 0 
VERTEX
 8 
1
 10 
0.8172
 20 
0.46126
 30 
0.0
 0 
VERTEX
 8 
1
 10 
0.77778
 20 
0.45969
 30 
0.0
 0 
VERTEX
 8 
1
 10 
0.7357
 20 
0.45851
 30 
0.0
 0 
VERTEX
 8 
1
 10 
0.69134
 20 
0.45775
 30 
0.0
 0 
VERTEX
 8 
1
 10 
0.64514
 20 
0.45745
 30 
0.0
 0 
VERTEX
 8 
1
 10 
0.59754
 20 
0.45767
 30 
0.0
 0 
VERTEX
 8 
1
 10 
0.54901
 20 
0.45847
 30 
0.0
 0 
VERTEX
 8 
1
 10 
0.5
 20 
0.4598
 30 
0.0
 0 
VERTEX
 8 
1
 10 
0.45099
 20 
0.46166
 30 
0.0
 0 
VERTEX
 8 
1
 10 
0.40245
 20 
0.46414
 30 
0.0
 0 
VERTEX
 8 
1
 10 
0.35486
 20 
0.46702
 30 
0.0
 0 
VERTEX
 8 
1
 10 
0.30866
 20 
0.47021
 30 
0.0
 0 
VERTEX
 8 
1
 10 
0.2643
 20 
0.47366
 30 
0.0
 0 
VERTEX
 8 
1
 10 
0.22221
 20 
0.47713
 30 
0.0
 0 
VERTEX
 8 
1
 10 
0.1828
 20 
0.4805
 30 
0.0
 0 
VERTEX
 8 
1
 10 
0.14645
 20 
0.48369
 30 
0.0
 0 
VERTEX
 8 
1
 10 
0.11349
 20 
0.48686
 30 
0.0
 0 
VERTEX
 8 
1
 10 
0.08426
 20 
0.48986
 30 
0.0
 0 
VERTEX
 8 
1
 10 
0.05904
 20 
0.49255
 30 
0.0
 0 
VERTEX
 8 
1
 10 
0.03806
 20 
0.49484
 30 
0.0
 0 
VERTEX
 8 
1
 10 
0.02153
 20 
0.4967
 30 
0.0
 0 
VERTEX
 8 
1
 10 
0.0096100
 20 
0.49803
 30 
0.0
 0 
VERTEX
 8 
1
 10 
0.0024100
 20 
0.49881
 30 
0.0
 0 
VERTEX
 8 
1
 10 
0.0
 20 
0.49907
 30 
0.0
 0 
SEQEND
 8 
1
 0 
ENDSEC
 0 
EOF
