 0 
SECTION
 2 
ENTITIES
 0 
POLYLINE
 8 
1
 66 
 1 
 10 
0.0
 20 
0.0
 30 
0.0
 0 
VERTEX
 8 
1
 10 
0.0
 20 
0.50127
 30 
0.0
 0 
VERTEX
 8 
1
 10 
0.0024100
 20 
0.50185
 30 
0.0
 0 
VERTEX
 8 
1
 10 
0.0096100
 20 
0.50358
 30 
0.0
 0 
VERTEX
 8 
1
 10 
0.02153
 20 
0.50645
 30 
0.0
 0 
VERTEX
 8 
1
 10 
0.03806
 20 
0.51046
 30 
0.0
 0 
VERTEX
 8 
1
 10 
0.05904
 20 
0.51541
 30 
0.0
 0 
VERTEX
 8 
1
 10 
0.08426
 20 
0.52108
 30 
0.0
 0 
VERTEX
 8 
1
 10 
0.11349
 20 
0.52718
 30 
0.0
 0 
VERTEX
 8 
1
 10 
0.14645
 20 
0.53328
 30 
0.0
 0 
VERTEX
 8 
1
 10 
0.1828
 20 
0.53929
 30 
0.0
 0 
VERTEX
 8 
1
 10 
0.22221
 20 
0.5453
 30 
0.0
 0 
VERTEX
 8 
1
 10 
0.2643
 20 
0.55091
 30 
0.0
 0 
VERTEX
 8 
1
 10 
0.30866
 20 
0.556
 30 
0.0
 0 
VERTEX
 8 
1
 10 
0.35486
 20 
0.56047
 30 
0.0
 0 
VERTEX
 8 
1
 10 
0.40245
 20 
0.56419
 30 
0.0
 0 
VERTEX
 8 
1
 10 
0.45099
 20 
0.56707
 30 
0.0
 0 
VERTEX
 8 
1
 10 
0.5
 20 
0.56907
 30 
0.0
 0 
VERTEX
 8 
1
 10 
0.54901
 20 
0.57012
 30 
0.0
 0 
VERTEX
 8 
1
 10 
0.59754
 20 
0.57023
 30 
0.0
 0 
VERTEX
 8 
1
 10 
0.64514
 20 
0.56942
 30 
0.0
 0 
VERTEX
 8 
1
 10 
0.69134
 20 
0.56785
 30 
0.0
 0 
VERTEX
 8 
1
 10 
0.7357
 20 
0.56564
 30 
0.0
 0 
VERTEX
 8 
1
 10 
0.77778
 20 
0.56282
 30 
0.0
 0 
VERTEX
 8 
1
 10 
0.8172
 20 
0.55949
 30 
0.0
 0 
VERTEX
 8 
1
 10 
0.85355
 20 
0.5557
 30 
0.0
 0 
VERTEX
 8 
1
 10 
0.88651
 20 
0.55115
 30 
0.0
 0 
VERTEX
 8 
1
 10 
0.91573
 20 
0.54576
 30 
0.0
 0 
VERTEX
 8 
1
 10 
0.94096
 20 
0.54008
 30 
0.0
 0 
VERTEX
 8 
1
 10 
0.96194
 20 
0.53381
 30 
0.0
 0 
VERTEX
 8 
1
 10 
0.97847
 20 
0.5268
 30 
0.0
 0 
VERTEX
 8 
1
 10 
0.99039
 20 
0.51941
 30 
0.0
 0 
VERTEX
 8 
1
 10 
0.99759
 20 
0.51086
 30 
0.0
 0 
VERTEX
 8 
1
 10 
1
 20 
0.5
 30 
0.0
 0 
VERTEX
 8 
1
 10 
0.99759
 20 
0.49214
 30 
0.0
 0 
VERTEX
 8 
1
 10 
0.99039
 20 
0.48497
 30 
0.0
 0 
VERTEX
 8 
1
 10 
0.97847
 20 
0.47958
 30 
0.0
 0 
VERTEX
 8 
1
 10 
0.96194
 20 
0.47563
 30 
0.0
 0 
VERTEX
 8 
1
 10 
0.94096
 20 
0.47289
 30 
0.0
 0 
VERTEX
 8 
1
 10 
0.91573
 20 
0.47109
 30 
0.0
 0 
VERTEX
 8 
1
 10 
0.88651
 20 
0.46969
 30 
0.0
 0 
VERTEX
 8 
1
 10 
0.85355
 20 
0.46848
 30 
0.0
 0 
VERTEX
 8 
1
 10 
0.8172
 20 
0.46725
 30 
0.0
 0 
VERTEX
 8 
1
 10 
0.77778
 20 
0.46631
 30 
0.0
 0 
VERTEX
 8 
1
 10 
0.7357
 20 
0.46557
 30 
0.0
 0 
VERTEX
 8 
1
 10 
0.69134
 20 
0.4651
 30 
0.0
 0 
VERTEX
 8 
1
 10 
0.64514
 20 
0.46492
 30 
0.0
 0 
VERTEX
 8 
1
 10 
0.59754
 20 
0.46511
 30 
0.0
 0 
VERTEX
 8 
1
 10 
0.54901
 20 
0.46581
 30 
0.0
 0 
VERTEX
 8 
1
 10 
0.5
 20 
0.46699
 30 
0.0
 0 
VERTEX
 8 
1
 10 
0.45099
 20 
0.46863
 30 
0.0
 0 
VERTEX
 8 
1
 10 
0.40245
 20 
0.47079
 30 
0.0
 0 
VERTEX
 8 
1
 10 
0.35486
 20 
0.47331
 30 
0.0
 0 
VERTEX
 8 
1
 10 
0.30866
 20 
0.47601
 30 
0.0
 0 
VERTEX
 8 
1
 10 
0.2643
 20 
0.47877
 30 
0.0
 0 
VERTEX
 8 
1
 10 
0.22221
 20 
0.48145
 30 
0.0
 0 
VERTEX
 8 
1
 10 
0.1828
 20 
0.48407
 30 
0.0
 0 
VERTEX
 8 
1
 10 
0.14645
 20 
0.48671
 30 
0.0
 0 
VERTEX
 8 
1
 10 
0.11349
 20 
0.48925
 30 
0.0
 0 
VERTEX
 8 
1
 10 
0.08426
 20 
0.49161
 30 
0.0
 0 
VERTEX
 8 
1
 10 
0.05904
 20 
0.49371
 30 
0.0
 0 
VERTEX
 8 
1
 10 
0.03806
 20 
0.49547
 30 
0.0
 0 
VERTEX
 8 
1
 10 
0.02153
 20 
0.49688
 30 
0.0
 0 
VERTEX
 8 
1
 10 
0.0096100
 20 
0.4979
 30 
0.0
 0 
VERTEX
 8 
1
 10 
0.0024100
 20 
0.49852
 30 
0.0
 0 
VERTEX
 8 
1
 10 
0.0
 20 
0.49873
 30 
0.0
 0 
SEQEND
 8 
1
 0 
ENDSEC
 0 
EOF
