 0 
SECTION
 2 
ENTITIES
 0 
POLYLINE
 8 
1
 66 
 1 
 10 
0.0
 20 
0.0
 30 
0.0
 0 
VERTEX
 8 
1
 10 
0.0
 20 
0.50129
 30 
0.0
 0 
VERTEX
 8 
1
 10 
0.05008
 20 
0.51441
 30 
0.0
 0 
VERTEX
 8 
1
 10 
0.10014
 20 
0.52513
 30 
0.0
 0 
VERTEX
 8 
1
 10 
0.15019
 20 
0.53403
 30 
0.0
 0 
VERTEX
 8 
1
 10 
0.20023
 20 
0.54139
 30 
0.0
 0 
VERTEX
 8 
1
 10 
0.25027
 20 
0.54766
 30 
0.0
 0 
VERTEX
 8 
1
 10 
0.3003
 20 
0.55286
 30 
0.0
 0 
VERTEX
 8 
1
 10 
0.35032
 20 
0.55711
 30 
0.0
 0 
VERTEX
 8 
1
 10 
0.40034
 20 
0.56043
 30 
0.0
 0 
VERTEX
 8 
1
 10 
0.45036
 20 
0.56306
 30 
0.0
 0 
VERTEX
 8 
1
 10 
0.50037
 20 
0.56485
 30 
0.0
 0 
VERTEX
 8 
1
 10 
0.55037
 20 
0.56606
 30 
0.0
 0 
VERTEX
 8 
1
 10 
0.60037
 20 
0.5658
 30 
0.0
 0 
VERTEX
 8 
1
 10 
0.65037
 20 
0.56484
 30 
0.0
 0 
VERTEX
 8 
1
 10 
0.70035
 20 
0.5628
 30 
0.0
 0 
VERTEX
 8 
1
 10 
0.75034
 20 
0.5597
 30 
0.0
 0 
VERTEX
 8 
1
 10 
0.80031
 20 
0.55556
 30 
0.0
 0 
VERTEX
 8 
1
 10 
0.8203
 20 
0.55334
 30 
0.0
 0 
VERTEX
 8 
1
 10 
0.84029
 20 
0.55111
 30 
0.0
 0 
VERTEX
 8 
1
 10 
0.86027
 20 
0.5485
 30 
0.0
 0 
VERTEX
 8 
1
 10 
0.88026
 20 
0.54555
 30 
0.0
 0 
VERTEX
 8 
1
 10 
0.90024
 20 
0.54257
 30 
0.0
 0 
VERTEX
 8 
1
 10 
0.92022
 20 
0.53873
 30 
0.0
 0 
VERTEX
 8 
1
 10 
0.94019
 20 
0.53413
 30 
0.0
 0 
VERTEX
 8 
1
 10 
0.96016
 20 
0.52813
 30 
0.0
 0 
VERTEX
 8 
1
 10 
0.98012
 20 
0.52044
 30 
0.0
 0 
VERTEX
 8 
1
 10 
0.99008
 20 
0.51399
 30 
0.0
 0 
VERTEX
 8 
1
 10 
0.99257
 20 
0.51185
 30 
0.0
 0 
VERTEX
 8 
1
 10 
0.99505
 20 
0.5093
 30 
0.0
 0 
VERTEX
 8 
1
 10 
0.99753
 20 
0.506
 30 
0.0
 0 
VERTEX
 8 
1
 10 
1
 20 
0.5
 30 
0.0
 0 
VERTEX
 8 
1
 10 
0.99744
 20 
0.49019
 30 
0.0
 0 
VERTEX
 8 
1
 10 
0.99493
 20 
0.48736
 30 
0.0
 0 
VERTEX
 8 
1
 10 
0.99242
 20 
0.48543
 30 
0.0
 0 
VERTEX
 8 
1
 10 
0.98991
 20 
0.48381
 30 
0.0
 0 
VERTEX
 8 
1
 10 
0.97988
 20 
0.47887
 30 
0.0
 0 
VERTEX
 8 
1
 10 
0.95984
 20 
0.47148
 30 
0.0
 0 
VERTEX
 8 
1
 10 
0.93981
 20 
0.46548
 30 
0.0
 0 
VERTEX
 8 
1
 10 
0.91978
 20 
0.46063
 30 
0.0
 0 
VERTEX
 8 
1
 10 
0.89976
 20 
0.45658
 30 
0.0
 0 
VERTEX
 8 
1
 10 
0.87974
 20 
0.45348
 30 
0.0
 0 
VERTEX
 8 
1
 10 
0.85972
 20 
0.45037
 30 
0.0
 0 
VERTEX
 8 
1
 10 
0.83971
 20 
0.44765
 30 
0.0
 0 
VERTEX
 8 
1
 10 
0.81969
 20 
0.44533
 30 
0.0
 0 
VERTEX
 8 
1
 10 
0.79968
 20 
0.44301
 30 
0.0
 0 
VERTEX
 8 
1
 10 
0.74966
 20 
0.43897
 30 
0.0
 0 
VERTEX
 8 
1
 10 
0.69964
 20 
0.43621
 30 
0.0
 0 
VERTEX
 8 
1
 10 
0.64963
 20 
0.43473
 30 
0.0
 0 
VERTEX
 8 
1
 10 
0.59963
 20 
0.43459
 30 
0.0
 0 
VERTEX
 8 
1
 10 
0.54964
 20 
0.43573
 30 
0.0
 0 
VERTEX
 8 
1
 10 
0.49965
 20 
0.43815
 30 
0.0
 0 
VERTEX
 8 
1
 10 
0.44967
 20 
0.44172
 30 
0.0
 0 
VERTEX
 8 
1
 10 
0.3997
 20 
0.44637
 30 
0.0
 0 
VERTEX
 8 
1
 10 
0.34973
 20 
0.45216
 30 
0.0
 0 
VERTEX
 8 
1
 10 
0.29977
 20 
0.45866
 30 
0.0
 0 
VERTEX
 8 
1
 10 
0.24981
 20 
0.46562
 30 
0.0
 0 
VERTEX
 8 
1
 10 
0.19985
 20 
0.47309
 30 
0.0
 0 
VERTEX
 8 
1
 10 
0.14989
 20 
0.48069
 30 
0.0
 0 
VERTEX
 8 
1
 10 
0.09993
 20 
0.48782
 30 
0.0
 0 
VERTEX
 8 
1
 10 
0.04997
 20 
0.49397
 30 
0.0
 0 
VERTEX
 8 
1
 10 
0.0
 20 
0.49871
 30 
0.0
 0 
SEQEND
 8 
1
 0 
ENDSEC
 0 
EOF
