 0 
SECTION
 2 
ENTITIES
 0 
POLYLINE
 8 
1
 66 
 1 
 10 
0.0
 20 
0.0
 30 
0.0
 0 
VERTEX
 8 
1
 10 
0.0
 20 
0.50005
 30 
0.0
 0 
VERTEX
 8 
1
 10 
0.0024600
 20 
0.50169
 30 
0.0
 0 
VERTEX
 8 
1
 10 
0.0092999
 20 
0.50579
 30 
0.0
 0 
VERTEX
 8 
1
 10 
0.01963
 20 
0.51111
 30 
0.0
 0 
VERTEX
 8 
1
 10 
0.03302
 20 
0.51721
 30 
0.0
 0 
VERTEX
 8 
1
 10 
0.04956
 20 
0.52452
 30 
0.0
 0 
VERTEX
 8 
1
 10 
0.06936
 20 
0.53317
 30 
0.0
 0 
VERTEX
 8 
1
 10 
0.092250
 20 
0.54292
 30 
0.0
 0 
VERTEX
 8 
1
 10 
0.11798
 20 
0.55367
 30 
0.0
 0 
VERTEX
 8 
1
 10 
0.1463
 20 
0.56522
 30 
0.0
 0 
VERTEX
 8 
1
 10 
0.17691
 20 
0.57725
 30 
0.0
 0 
VERTEX
 8 
1
 10 
0.20952
 20 
0.58942
 30 
0.0
 0 
VERTEX
 8 
1
 10 
0.24384
 20 
0.60143
 30 
0.0
 0 
VERTEX
 8 
1
 10 
0.27957
 20 
0.61298
 30 
0.0
 0 
VERTEX
 8 
1
 10 
0.31641
 20 
0.62384
 30 
0.0
 0 
VERTEX
 8 
1
 10 
0.35406
 20 
0.63374
 30 
0.0
 0 
VERTEX
 8 
1
 10 
0.39222
 20 
0.64243
 30 
0.0
 0 
VERTEX
 8 
1
 10 
0.43063
 20 
0.6497
 30 
0.0
 0 
VERTEX
 8 
1
 10 
0.46901
 20 
0.65538
 30 
0.0
 0 
VERTEX
 8 
1
 10 
0.50735
 20 
0.65942
 30 
0.0
 0 
VERTEX
 8 
1
 10 
0.54565
 20 
0.66176
 30 
0.0
 0 
VERTEX
 8 
1
 10 
0.58362
 20 
0.6624
 30 
0.0
 0 
VERTEX
 8 
1
 10 
0.62113
 20 
0.66133
 30 
0.0
 0 
VERTEX
 8 
1
 10 
0.65796
 20 
0.65862
 30 
0.0
 0 
VERTEX
 8 
1
 10 
0.69391
 20 
0.65434
 30 
0.0
 0 
VERTEX
 8 
1
 10 
0.7288
 20 
0.64859
 30 
0.0
 0 
VERTEX
 8 
1
 10 
0.7624
 20 
0.64148
 30 
0.0
 0 
VERTEX
 8 
1
 10 
0.79451
 20 
0.6331
 30 
0.0
 0 
VERTEX
 8 
1
 10 
0.82496
 20 
0.62355
 30 
0.0
 0 
VERTEX
 8 
1
 10 
0.85352
 20 
0.61291
 30 
0.0
 0 
VERTEX
 8 
1
 10 
0.88001
 20 
0.60132
 30 
0.0
 0 
VERTEX
 8 
1
 10 
0.90424
 20 
0.58896
 30 
0.0
 0 
VERTEX
 8 
1
 10 
0.92605
 20 
0.57611
 30 
0.0
 0 
VERTEX
 8 
1
 10 
0.94532
 20 
0.56312
 30 
0.0
 0 
VERTEX
 8 
1
 10 
0.96189
 20 
0.55032
 30 
0.0
 0 
VERTEX
 8 
1
 10 
0.97567
 20 
0.53793
 30 
0.0
 0 
VERTEX
 8 
1
 10 
0.98662
 20 
0.52615
 30 
0.0
 0 
VERTEX
 8 
1
 10 
0.99452
 20 
0.51531
 30 
0.0
 0 
VERTEX
 8 
1
 10 
0.99902
 20 
0.50586
 30 
0.0
 0 
VERTEX
 8 
1
 10 
1
 20 
0.50014
 30 
0.0
 0 
VERTEX
 8 
1
 10 
0.99902
 20 
0.4955
 30 
0.0
 0 
VERTEX
 8 
1
 10 
0.99452
 20 
0.49086
 30 
0.0
 0 
VERTEX
 8 
1
 10 
0.98662
 20 
0.48821
 30 
0.0
 0 
VERTEX
 8 
1
 10 
0.97567
 20 
0.48731
 30 
0.0
 0 
VERTEX
 8 
1
 10 
0.96189
 20 
0.48791
 30 
0.0
 0 
VERTEX
 8 
1
 10 
0.94532
 20 
0.48972
 30 
0.0
 0 
VERTEX
 8 
1
 10 
0.92605
 20 
0.49241
 30 
0.0
 0 
VERTEX
 8 
1
 10 
0.90424
 20 
0.49565
 30 
0.0
 0 
VERTEX
 8 
1
 10 
0.88001
 20 
0.49924
 30 
0.0
 0 
VERTEX
 8 
1
 10 
0.85352
 20 
0.5032
 30 
0.0
 0 
VERTEX
 8 
1
 10 
0.82496
 20 
0.50748
 30 
0.0
 0 
VERTEX
 8 
1
 10 
0.79451
 20 
0.51201
 30 
0.0
 0 
VERTEX
 8 
1
 10 
0.7624
 20 
0.51667
 30 
0.0
 0 
VERTEX
 8 
1
 10 
0.7288
 20 
0.52136
 30 
0.0
 0 
VERTEX
 8 
1
 10 
0.69391
 20 
0.52597
 30 
0.0
 0 
VERTEX
 8 
1
 10 
0.65796
 20 
0.5304
 30 
0.0
 0 
VERTEX
 8 
1
 10 
0.62113
 20 
0.53457
 30 
0.0
 0 
VERTEX
 8 
1
 10 
0.58362
 20 
0.53839
 30 
0.0
 0 
VERTEX
 8 
1
 10 
0.54565
 20 
0.54178
 30 
0.0
 0 
VERTEX
 8 
1
 10 
0.50735
 20 
0.54466
 30 
0.0
 0 
VERTEX
 8 
1
 10 
0.46901
 20 
0.54693
 30 
0.0
 0 
VERTEX
 8 
1
 10 
0.43063
 20 
0.54851
 30 
0.0
 0 
VERTEX
 8 
1
 10 
0.39222
 20 
0.54933
 30 
0.0
 0 
VERTEX
 8 
1
 10 
0.35406
 20 
0.54932
 30 
0.0
 0 
VERTEX
 8 
1
 10 
0.31641
 20 
0.54845
 30 
0.0
 0 
VERTEX
 8 
1
 10 
0.27957
 20 
0.54672
 30 
0.0
 0 
VERTEX
 8 
1
 10 
0.24384
 20 
0.54423
 30 
0.0
 0 
VERTEX
 8 
1
 10 
0.20952
 20 
0.54108
 30 
0.0
 0 
VERTEX
 8 
1
 10 
0.17691
 20 
0.53739
 30 
0.0
 0 
VERTEX
 8 
1
 10 
0.1463
 20 
0.53322
 30 
0.0
 0 
VERTEX
 8 
1
 10 
0.11798
 20 
0.52867
 30 
0.0
 0 
VERTEX
 8 
1
 10 
0.092250
 20 
0.52386
 30 
0.0
 0 
VERTEX
 8 
1
 10 
0.06936
 20 
0.51896
 30 
0.0
 0 
VERTEX
 8 
1
 10 
0.04956
 20 
0.5141
 30 
0.0
 0 
VERTEX
 8 
1
 10 
0.03302
 20 
0.50936
 30 
0.0
 0 
VERTEX
 8 
1
 10 
0.01963
 20 
0.50516
 30 
0.0
 0 
VERTEX
 8 
1
 10 
0.0092999
 20 
0.50212
 30 
0.0
 0 
VERTEX
 8 
1
 10 
0.0024600
 20 
0.50044
 30 
0.0
 0 
VERTEX
 8 
1
 10 
0.0
 20 
0.49994
 30 
0.0
 0 
SEQEND
 8 
1
 0 
ENDSEC
 0 
EOF
