 0 
SECTION
 2 
ENTITIES
 0 
POLYLINE
 8 
1
 66 
 1 
 10 
0.0
 20 
0.0
 30 
0.0
 0 
VERTEX
 8 
1
 10 
0.0
 20 
0.5
 30 
0.0
 0 
VERTEX
 8 
1
 10 
0.0012100
 20 
0.50101
 30 
0.0
 0 
VERTEX
 8 
1
 10 
0.0045600
 20 
0.50271
 30 
0.0
 0 
VERTEX
 8 
1
 10 
0.01095
 20 
0.50398
 30 
0.0
 0 
VERTEX
 8 
1
 10 
0.01971
 20 
0.50676
 30 
0.0
 0 
VERTEX
 8 
1
 10 
0.03118
 20 
0.50928
 30 
0.0
 0 
VERTEX
 8 
1
 10 
0.04536
 20 
0.51184
 30 
0.0
 0 
VERTEX
 8 
1
 10 
0.06193
 20 
0.51451
 30 
0.0
 0 
VERTEX
 8 
1
 10 
0.08097
 20 
0.5174
 30 
0.0
 0 
VERTEX
 8 
1
 10 
0.10239
 20 
0.5206
 30 
0.0
 0 
VERTEX
 8 
1
 10 
0.12609
 20 
0.524
 30 
0.0
 0 
VERTEX
 8 
1
 10 
0.15176
 20 
0.52778
 30 
0.0
 0 
VERTEX
 8 
1
 10 
0.1795
 20 
0.53194
 30 
0.0
 0 
VERTEX
 8 
1
 10 
0.20889
 20 
0.53654
 30 
0.0
 0 
VERTEX
 8 
1
 10 
0.23987
 20 
0.54139
 30 
0.0
 0 
VERTEX
 8 
1
 10 
0.27219
 20 
0.54676
 30 
0.0
 0 
VERTEX
 8 
1
 10 
0.3057
 20 
0.55243
 30 
0.0
 0 
VERTEX
 8 
1
 10 
0.34006
 20 
0.55858
 30 
0.0
 0 
VERTEX
 8 
1
 10 
0.37509
 20 
0.565
 30 
0.0
 0 
VERTEX
 8 
1
 10 
0.41049
 20 
0.57184
 30 
0.0
 0 
VERTEX
 8 
1
 10 
0.44597
 20 
0.57889
 30 
0.0
 0 
VERTEX
 8 
1
 10 
0.48143
 20 
0.58625
 30 
0.0
 0 
VERTEX
 8 
1
 10 
0.51637
 20 
0.59375
 30 
0.0
 0 
VERTEX
 8 
1
 10 
0.55062
 20 
0.6012
 30 
0.0
 0 
VERTEX
 8 
1
 10 
0.58386
 20 
0.60866
 30 
0.0
 0 
VERTEX
 8 
1
 10 
0.61603
 20 
0.61582
 30 
0.0
 0 
VERTEX
 8 
1
 10 
0.64672
 20 
0.62285
 30 
0.0
 0 
VERTEX
 8 
1
 10 
0.67543
 20 
0.62951
 30 
0.0
 0 
VERTEX
 8 
1
 10 
0.70027
 20 
0.63592
 30 
0.0
 0 
VERTEX
 8 
1
 10 
0.72284
 20 
0.63962
 30 
0.0
 0 
VERTEX
 8 
1
 10 
0.74561
 20 
0.64003
 30 
0.0
 0 
VERTEX
 8 
1
 10 
0.76804
 20 
0.6385
 30 
0.0
 0 
VERTEX
 8 
1
 10 
0.7901
 20 
0.63553
 30 
0.0
 0 
VERTEX
 8 
1
 10 
0.81147
 20 
0.6313
 30 
0.0
 0 
VERTEX
 8 
1
 10 
0.83204
 20 
0.62599
 30 
0.0
 0 
VERTEX
 8 
1
 10 
0.85178
 20 
0.6198
 30 
0.0
 0 
VERTEX
 8 
1
 10 
0.87069
 20 
0.61284
 30 
0.0
 0 
VERTEX
 8 
1
 10 
0.88847
 20 
0.60518
 30 
0.0
 0 
VERTEX
 8 
1
 10 
0.90509
 20 
0.59691
 30 
0.0
 0 
VERTEX
 8 
1
 10 
0.92065
 20 
0.58825
 30 
0.0
 0 
VERTEX
 8 
1
 10 
0.93485
 20 
0.57917
 30 
0.0
 0 
VERTEX
 8 
1
 10 
0.94777
 20 
0.56987
 30 
0.0
 0 
VERTEX
 8 
1
 10 
0.95929
 20 
0.56045
 30 
0.0
 0 
VERTEX
 8 
1
 10 
0.96952
 20 
0.55101
 30 
0.0
 0 
VERTEX
 8 
1
 10 
0.97791
 20 
0.54202
 30 
0.0
 0 
VERTEX
 8 
1
 10 
0.9852
 20 
0.53302
 30 
0.0
 0 
VERTEX
 8 
1
 10 
0.99097
 20 
0.5243
 30 
0.0
 0 
VERTEX
 8 
1
 10 
0.99529
 20 
0.51605
 30 
0.0
 0 
VERTEX
 8 
1
 10 
0.99816
 20 
0.50847
 30 
0.0
 0 
VERTEX
 8 
1
 10 
0.99964
 20 
0.50178
 30 
0.0
 0 
VERTEX
 8 
1
 10 
1
 20 
0.5
 30 
0.0
 0 
VERTEX
 8 
1
 10 
0.99985
 20 
0.49597
 30 
0.0
 0 
VERTEX
 8 
1
 10 
0.99884
 20 
0.49157
 30 
0.0
 0 
VERTEX
 8 
1
 10 
0.9968
 20 
0.48857
 30 
0.0
 0 
VERTEX
 8 
1
 10 
0.9938
 20 
0.4863
 30 
0.0
 0 
VERTEX
 8 
1
 10 
0.98935
 20 
0.4846
 30 
0.0
 0 
VERTEX
 8 
1
 10 
0.98245
 20 
0.48349
 30 
0.0
 0 
VERTEX
 8 
1
 10 
0.97348
 20 
0.4831
 30 
0.0
 0 
VERTEX
 8 
1
 10 
0.96241
 20 
0.48393
 30 
0.0
 0 
VERTEX
 8 
1
 10 
0.94823
 20 
0.48599
 30 
0.0
 0 
VERTEX
 8 
1
 10 
0.93092
 20 
0.48957
 30 
0.0
 0 
VERTEX
 8 
1
 10 
0.91356
 20 
0.49366
 30 
0.0
 0 
VERTEX
 8 
1
 10 
0.89319
 20 
0.49788
 30 
0.0
 0 
VERTEX
 8 
1
 10 
0.87281
 20 
0.5022
 30 
0.0
 0 
VERTEX
 8 
1
 10 
0.85039
 20 
0.50695
 30 
0.0
 0 
VERTEX
 8 
1
 10 
0.82402
 20 
0.51114
 30 
0.0
 0 
VERTEX
 8 
1
 10 
0.79375
 20 
0.51428
 30 
0.0
 0 
VERTEX
 8 
1
 10 
0.77365
 20 
0.51542
 30 
0.0
 0 
VERTEX
 8 
1
 10 
0.73365
 20 
0.51539
 30 
0.0
 0 
VERTEX
 8 
1
 10 
0.70378
 20 
0.51396
 30 
0.0
 0 
VERTEX
 8 
1
 10 
0.67396
 20 
0.51182
 30 
0.0
 0 
VERTEX
 8 
1
 10 
0.64122
 20 
0.50893
 30 
0.0
 0 
VERTEX
 8 
1
 10 
0.61148
 20 
0.50589
 30 
0.0
 0 
VERTEX
 8 
1
 10 
0.58225
 20 
0.50291
 30 
0.0
 0 
VERTEX
 8 
1
 10 
0.54324
 20 
0.49956
 30 
0.0
 0 
VERTEX
 8 
1
 10 
0.50645
 20 
0.49711
 30 
0.0
 0 
VERTEX
 8 
1
 10 
0.47044
 20 
0.49503
 30 
0.0
 0 
VERTEX
 8 
1
 10 
0.43512
 20 
0.49291
 30 
0.0
 0 
VERTEX
 8 
1
 10 
0.40058
 20 
0.49116
 30 
0.0
 0 
VERTEX
 8 
1
 10 
0.36678
 20 
0.48997
 30 
0.0
 0 
VERTEX
 8 
1
 10 
0.33377
 20 
0.48896
 30 
0.0
 0 
VERTEX
 8 
1
 10 
0.30165
 20 
0.48803
 30 
0.0
 0 
VERTEX
 8 
1
 10 
0.27023
 20 
0.48716
 30 
0.0
 0 
VERTEX
 8 
1
 10 
0.23999
 20 
0.48639
 30 
0.0
 0 
VERTEX
 8 
1
 10 
0.21115
 20 
0.48575
 30 
0.0
 0 
VERTEX
 8 
1
 10 
0.18359
 20 
0.48532
 30 
0.0
 0 
VERTEX
 8 
1
 10 
0.15746
 20 
0.48562
 30 
0.0
 0 
VERTEX
 8 
1
 10 
0.1331
 20 
0.48637
 30 
0.0
 0 
VERTEX
 8 
1
 10 
0.11001
 20 
0.48734
 30 
0.0
 0 
VERTEX
 8 
1
 10 
0.088589
 20 
0.48866
 30 
0.0
 0 
VERTEX
 8 
1
 10 
0.06936
 20 
0.49017
 30 
0.0
 0 
VERTEX
 8 
1
 10 
0.05202
 20 
0.49185
 30 
0.0
 0 
VERTEX
 8 
1
 10 
0.03694
 20 
0.49383
 30 
0.0
 0 
VERTEX
 8 
1
 10 
0.02437
 20 
0.49573
 30 
0.0
 0 
VERTEX
 8 
1
 10 
0.01436
 20 
0.49705
 30 
0.0
 0 
VERTEX
 8 
1
 10 
0.0069700
 20 
0.49801
 30 
0.0
 0 
VERTEX
 8 
1
 10 
0.0019700
 20 
0.49917
 30 
0.0
 0 
VERTEX
 8 
1
 10 
0.0
 20 
0.5
 30 
0.0
 0 
SEQEND
 8 
1
 0 
ENDSEC
 0 
EOF
