 0 
SECTION
 2 
ENTITIES
 0 
POLYLINE
 8 
1
 66 
 1 
 10 
0.0
 20 
0.0
 30 
0.0
 0 
VERTEX
 8 
1
 10 
0.0
 20 
0.5012
 30 
0.0
 0 
VERTEX
 8 
1
 10 
0.05
 20 
0.51352
 30 
0.0
 0 
VERTEX
 8 
1
 10 
0.1
 20 
0.52524
 30 
0.0
 0 
VERTEX
 8 
1
 10 
0.2
 20 
0.54668
 30 
0.0
 0 
VERTEX
 8 
1
 10 
0.3
 20 
0.56522
 30 
0.0
 0 
VERTEX
 8 
1
 10 
0.4
 20 
0.58046
 30 
0.0
 0 
VERTEX
 8 
1
 10 
0.5
 20 
0.5916
 30 
0.0
 0 
VERTEX
 8 
1
 10 
0.6
 20 
0.59774
 30 
0.0
 0 
VERTEX
 8 
1
 10 
0.7
 20 
0.59818
 30 
0.0
 0 
VERTEX
 8 
1
 10 
0.8
 20 
0.59052
 30 
0.0
 0 
VERTEX
 8 
1
 10 
0.85
 20 
0.58204
 30 
0.0
 0 
VERTEX
 8 
1
 10 
0.9
 20 
0.56936
 30 
0.0
 0 
VERTEX
 8 
1
 10 
0.925
 20 
0.56097
 30 
0.0
 0 
VERTEX
 8 
1
 10 
0.95
 20 
0.55068
 30 
0.0
 0 
VERTEX
 8 
1
 10 
0.975
 20 
0.53559
 30 
0.0
 0 
VERTEX
 8 
1
 10 
0.9875
 20 
0.52395
 30 
0.0
 0 
VERTEX
 8 
1
 10 
1
 20 
0.5
 30 
0.0
 0 
VERTEX
 8 
1
 10 
0.9875
 20 
0.48304
 30 
0.0
 0 
VERTEX
 8 
1
 10 
0.975
 20 
0.47929
 30 
0.0
 0 
VERTEX
 8 
1
 10 
0.95
 20 
0.47648
 30 
0.0
 0 
VERTEX
 8 
1
 10 
0.925
 20 
0.47547
 30 
0.0
 0 
VERTEX
 8 
1
 10 
0.9
 20 
0.47546
 30 
0.0
 0 
VERTEX
 8 
1
 10 
0.85
 20 
0.47654
 30 
0.0
 0 
VERTEX
 8 
1
 10 
0.8
 20 
0.47792
 30 
0.0
 0 
VERTEX
 8 
1
 10 
0.7
 20 
0.48068
 30 
0.0
 0 
VERTEX
 8 
1
 10 
0.6
 20 
0.48344
 30 
0.0
 0 
VERTEX
 8 
1
 10 
0.5
 20 
0.4862
 30 
0.0
 0 
VERTEX
 8 
1
 10 
0.4
 20 
0.48896
 30 
0.0
 0 
VERTEX
 8 
1
 10 
0.3
 20 
0.49172
 30 
0.0
 0 
VERTEX
 8 
1
 10 
0.2
 20 
0.49448
 30 
0.0
 0 
VERTEX
 8 
1
 10 
0.1
 20 
0.49724
 30 
0.0
 0 
VERTEX
 8 
1
 10 
0.05
 20 
0.49862
 30 
0.0
 0 
VERTEX
 8 
1
 10 
0.0
 20 
0.5
 30 
0.0
 0 
SEQEND
 8 
1
 0 
ENDSEC
 0 
EOF
