  0
SECTION
  2
HEADER
  9
$ACADVER
  1
AC1004
  9
$EXTMIN
 10
0.0808
 20
-0.1543
  9
$EXTMAX
 10
16.0773
 20
8.6945
  9
$LIMMIN
 10
0.0808
 20
-0.1543
  9
$LIMMAX
 10
16.0773
 20
8.6945
  9
$INSBASE
 10
0.0
 20
0.0
  9
$VIEWCTR
 10
7.21903
 20
4.5
  9
$VIEWSIZE
 40
9.0
  9
$SNAPMODE
 70
     0
  9
$SNAPUNIT
 10
1.0
 20
1.0
  9
$SNAPBASE
 10
0.0
 20
0.0
  9
$SNAPANG
 50
0.0
  9
$SNAPSTYLE
 70
     0
  9
$SNAPISOPAIR
 70
     0
  9
$GRIDMODE
 70
     0
  9
$GRIDUNIT
 10
0.0
 20
0.0
  9
$ORTHOMODE
 70
     0
  9
$REGENMODE
 70
     1
  9
$FILLMODE
 70
     1
  9
$QTEXTMODE
 70
     0
  9
$DRAGMODE
 70
     2
  9
$LTSCALE
 40
1.0
  9
$OSMODE
 70
     0
  9
$ATTMODE
 70
     1
  9
$TEXTSIZE
 40
0.2
  9
$TRACEWID
 40
0.05
  9
$TEXTSTYLE
  7
STANDARD
  9
$CLAYER
  8
0
  9
$CELTYPE
  6
BYLAYER
  9
$CECOLOR
 62
   256
  9
$DIMSCALE
 40
1.0
  9
$DIMASZ
 40
0.18
  9
$DIMEXO
 40
0.0625
  9
$DIMDLI
 40
0.38
  9
$DIMRND
 40
0.0
  9
$DIMDLE
 40
0.0
  9
$DIMEXE
 40
0.18
  9
$DIMTP
 40
0.0
  9
$DIMTM
 40
0.0
  9
$DIMTXT
 40
0.18
  9
$DIMCEN
 40
0.09
  9
$DIMTSZ
 40
0.0
  9
$DIMTOL
 70
     0
  9
$DIMLIM
 70
     0
  9
$DIMTIH
 70
     1
  9
$DIMTOH
 70
     1
  9
$DIMSE1
 70
     0
  9
$DIMSE2
 70
     0
  9
$DIMTAD
 70
     0
  9
$DIMZIN
 70
     0
  9
$DIMBLK
  1

  9
$DIMASO
 70
     1
  9
$DIMSHO
 70
     0
  9
$DIMPOST
  1

  9
$DIMAPOST
  1

  9
$DIMALT
 70
     0
  9
$DIMALTD
 70
     2
  9
$DIMALTF
 40
25.4
  9
$DIMLFAC
 40
1.0
  9
$LUNITS
 70
     2
  9
$LUPREC
 70
     4
  9
$AXISMODE
 70
     0
  9
$AXISUNIT
 10
0.0
 20
0.0
  9
$SKETCHINC
 40
0.1
  9
$FILLETRAD
 40
0.0
  9
$AUNITS
 70
     0
  9
$AUPREC
 70
     0
  9
$MENU
  1
acad
  9
$ELEVATION
 40
0.0
  9
$THICKNESS
 40
0.0
  9
$VIEWDIR
 10
0.0
 20
0.0
 30
1.0
  9
$LIMCHECK
 70
     0
  9
$BLIPMODE
 70
     1
  9
$CHAMFERA
 40
0.0
  9
$CHAMFERB
 40
0.0
  9
$FASTZOOM
 70
     1
  9
$SKPOLY
 70
     0
  9
$TDCREATE
 40
2447222.5666886573
  9
$TDUPDATE
 40
2447222.5666886573
  9
$TDINDWG
 40
0.0000000000
  9
$TDUSRTIMER
 40
0.0000000000
  9
$USRTIMER
 70
     1
  9
$ANGBASE
 50
0.0
  9
$ANGDIR
 70
     0
  9
$PDMODE
 70
     0
  9
$PDSIZE
 40
0.0
  9
$PLINEWID
 40
0.0
  9
$COORDS
 70
     0
  9
$SPLFRAME
 70
     0
  9
$SPLINESEGS
 70
     8
  9
$ATTDIA
 70
     0
  9
$ATTREQ
 70
     1
  9
$USERI1
 70
     0
  9
$USERI2
 70
     0
  9
$USERI3
 70
     0
  9
$USERI4
 70
     0
  9
$USERI5
 70
     0
  9
$USERR1
 40
0.0
  9
$USERR2
 40
0.0
  9
$USERR3
 40
0.0
  9
$USERR4
 40
0.0
  9
$USERR5
 40
0.0
  0
ENDSEC
  0
SECTION
  2
TABLES
  0
TABLE
  2
LTYPE
 70
     13
  0
LTYPE
  2
CONTINUOUS
 70
    64
  3
Solid line
 72
    65
 73
     0
 40
0.0
  0
LTYPE
  2
DASHED
 70
    64
  3
__ __ __ __ __ __ __ __ __ __ __ __ __ __ __
 72
    65
 73
     2
 40
0.75
 49
0.5
 49
-0.25
  0
LTYPE
  2
HIDDEN
 70
    64
  3
_ _ _ _ _ _ _ _ _ _ _ _ _ _ _ _ _ _ _ _ _ _ _
 72
    65
 73
     2
 40
0.375
 49
0.25
 49
-0.125
  0
LTYPE
  2
CENTER
 70
    64
  3
____ _ ____ _ ____ _ ____ _ ____ _ ____ _ ____
 72
    65
 73
     4
 40
2.0
 49
1.25
 49
-0.25
 49
0.25
 49
-0.25
  0
LTYPE
  2
PHANTOM
 70
    64
  3
_____ _ _ _____ _ _ _____ _ _ _____ _ _ ____
 72
    65
 73
     6
 40
2.5
 49
1.25
 49
-0.25
 49
0.25
 49
-0.25
 49
0.25
 49
-0.25
  0
LTYPE
  2
DOT
 70
    64
  3
...............................................
 72
    65
 73
     2
 40
0.25
 49
0.0
 49
-0.25
  0
LTYPE
  2
DASHDOT
 70
    64
  3
__ . __ . __ . __ . __ . __ . __ . __ . __ . __
 72
    65
 73
     4
 40
1.0
 49
0.5
 49
-0.25
 49
0.0
 49
-0.25
  0
LTYPE
  2
BORDER
 70
    64
  3
__ __ . __ __ . __ __ . __ __ . __ __ . __ __
 72
    65
 73
     6
 40
1.75
 49
0.5
 49
-0.25
 49
0.5
 49
-0.25
 49
0.0
 49
-0.25
  0
LTYPE
  2
DIVIDE
 70
    64
  3
__ . . __ . . __ . . __ . . __ . . __ . . __
 72
    65
 73
     6
 40
1.25
 49
0.5
 49
-0.25
 49
0.0
 49
-0.25
 49
0.0
 49
-0.25
  0
LTYPE
  2
DCTYPE1
 70
    64
  3
__ . . __ . . __ . . __ . . __ . . __ . . __
 72
    65
 73
     8
 40
2.5
 49
0.5
 49
-0.25
 49
0.125
 49
-0.25
 49
0.25
 49
-0.25
 49
0.125
 49
-0.25
  0
LTYPE
  2
DCTYPE2
 70
    64
  3
__ . . __ . . __ . . __ . . __ . . __ . . __
 72
    65
 73
     6
 40
2.05
 49
1.0
 49
-0.3
 49
0.15
 49
-0.15
 49
0.15
 49
-0.3
  0
LTYPE
  2
DCTYPE3
 70
    64
  3
__ . . __ . . __ . . __ . . __ . . __ . . __
 72
    65
 73
     6
 40
2.5
 49
0.8
 49
-0.2
 49
0.8
 49
-0.2
 49
0.3
 49
-0.2
  0
LTYPE
  2
DCTYPE4
 70
    64
  3
__ . . __ . . __ . . __ . . __ . . __ . . __
 72
    65
 73
     10
 40
3.97
 49
1.75
 49
-0.3
 49
0.3
 49
-0.3
 49
0.06
 49
-0.3
 49
0.06
 49
-0.3
 49
0.3
 49
-0.3
  0
ENDTAB
  0
TABLE
  2
LAYER
 70
    153
  0
LAYER
  2
0
 70
 64
 62
     7
  6
CONTINUOUS
  0
ENDTAB
  0
ENDSEC
  0
SECTION
  2
BLOCKS
  0
ENDSEC
  0
SECTION
  2
ENTITIES
  0
TEXT
  8
0
 62
     7
 10
0.0808
 20
6.2514
 40
2.0359
 50
0.0000
 51
0.0000
  1
CLARK YH
 72
     5
 11
16.0773
 21
6.2514
  0
POLYLINE
  8
0
 62
     3
 66
     1
  6
CONTINUOUS
  0
VERTEX
  8
0
 62
     3
  6
CONTINUOUS
 10
0.0808
 20
0.5086
  0
VERTEX
  8
0
 62
     3
  6
CONTINUOUS
 10
0.1113
 20
0.5481
  0
VERTEX
  8
0
 62
     3
  6
CONTINUOUS
 10
0.1419
 20
0.5875
  0
VERTEX
  8
0
 62
     3
  6
CONTINUOUS
 10
0.1727
 20
0.6266
  0
VERTEX
  8
0
 62
     3
  6
CONTINUOUS
 10
0.2039
 20
0.6652
  0
VERTEX
  8
0
 62
     3
  6
CONTINUOUS
 10
0.2356
 20
0.7032
  0
VERTEX
  8
0
 62
     3
  6
CONTINUOUS
 10
0.2679
 20
0.7405
  0
VERTEX
  8
0
 62
     3
  6
CONTINUOUS
 10
0.3009
 20
0.7769
  0
VERTEX
  8
0
 62
     3
  6
CONTINUOUS
 10
0.3347
 20
0.8123
  0
VERTEX
  8
0
 62
     3
  6
CONTINUOUS
 10
0.3695
 20
0.8465
  0
VERTEX
  8
0
 62
     3
  6
CONTINUOUS
 10
0.4053
 20
0.8794
  0
VERTEX
  8
0
 62
     3
  6
CONTINUOUS
 10
0.4424
 20
0.9108
  0
VERTEX
  8
0
 62
     3
  6
CONTINUOUS
 10
0.4807
 20
0.9405
  0
VERTEX
  8
0
 62
     3
  6
CONTINUOUS
 10
0.5110
 20
0.9622
  0
VERTEX
  8
0
 62
     3
  6
CONTINUOUS
 10
0.5421
 20
0.9828
  0
VERTEX
  8
0
 62
     3
  6
CONTINUOUS
 10
0.5739
 20
1.0025
  0
VERTEX
  8
0
 62
     3
  6
CONTINUOUS
 10
0.6063
 20
1.0214
  0
VERTEX
  8
0
 62
     3
  6
CONTINUOUS
 10
0.6393
 20
1.0394
  0
VERTEX
  8
0
 62
     3
  6
CONTINUOUS
 10
0.6728
 20
1.0568
  0
VERTEX
  8
0
 62
     3
  6
CONTINUOUS
 10
0.7067
 20
1.0734
  0
VERTEX
  8
0
 62
     3
  6
CONTINUOUS
 10
0.7410
 20
1.0894
  0
VERTEX
  8
0
 62
     3
  6
CONTINUOUS
 10
0.7756
 20
1.1049
  0
VERTEX
  8
0
 62
     3
  6
CONTINUOUS
 10
0.8105
 20
1.1198
  0
VERTEX
  8
0
 62
     3
  6
CONTINUOUS
 10
0.8455
 20
1.1344
  0
VERTEX
  8
0
 62
     3
  6
CONTINUOUS
 10
0.8806
 20
1.1485
  0
VERTEX
  8
0
 62
     3
  6
CONTINUOUS
 10
0.9138
 20
1.1615
  0
VERTEX
  8
0
 62
     3
  6
CONTINUOUS
 10
0.9470
 20
1.1743
  0
VERTEX
  8
0
 62
     3
  6
CONTINUOUS
 10
0.9802
 20
1.1868
  0
VERTEX
  8
0
 62
     3
  6
CONTINUOUS
 10
1.0135
 20
1.1991
  0
VERTEX
  8
0
 62
     3
  6
CONTINUOUS
 10
1.0467
 20
1.2112
  0
VERTEX
  8
0
 62
     3
  6
CONTINUOUS
 10
1.0801
 20
1.2231
  0
VERTEX
  8
0
 62
     3
  6
CONTINUOUS
 10
1.1134
 20
1.2349
  0
VERTEX
  8
0
 62
     3
  6
CONTINUOUS
 10
1.1468
 20
1.2466
  0
VERTEX
  8
0
 62
     3
  6
CONTINUOUS
 10
1.1802
 20
1.2582
  0
VERTEX
  8
0
 62
     3
  6
CONTINUOUS
 10
1.2136
 20
1.2696
  0
VERTEX
  8
0
 62
     3
  6
CONTINUOUS
 10
1.2471
 20
1.2811
  0
VERTEX
  8
0
 62
     3
  6
CONTINUOUS
 10
1.2805
 20
1.2925
  0
VERTEX
  8
0
 62
     3
  6
CONTINUOUS
 10
1.3136
 20
1.3037
  0
VERTEX
  8
0
 62
     3
  6
CONTINUOUS
 10
1.3467
 20
1.3149
  0
VERTEX
  8
0
 62
     3
  6
CONTINUOUS
 10
1.3799
 20
1.3261
  0
VERTEX
  8
0
 62
     3
  6
CONTINUOUS
 10
1.4131
 20
1.3371
  0
VERTEX
  8
0
 62
     3
  6
CONTINUOUS
 10
1.4463
 20
1.3481
  0
VERTEX
  8
0
 62
     3
  6
CONTINUOUS
 10
1.4796
 20
1.3590
  0
VERTEX
  8
0
 62
     3
  6
CONTINUOUS
 10
1.5129
 20
1.3697
  0
VERTEX
  8
0
 62
     3
  6
CONTINUOUS
 10
1.5463
 20
1.3803
  0
VERTEX
  8
0
 62
     3
  6
CONTINUOUS
 10
1.5797
 20
1.3906
  0
VERTEX
  8
0
 62
     3
  6
CONTINUOUS
 10
1.6132
 20
1.4008
  0
VERTEX
  8
0
 62
     3
  6
CONTINUOUS
 10
1.6468
 20
1.4107
  0
VERTEX
  8
0
 62
     3
  6
CONTINUOUS
 10
1.6804
 20
1.4204
  0
VERTEX
  8
0
 62
     3
  6
CONTINUOUS
 10
1.7460
 20
1.4385
  0
VERTEX
  8
0
 62
     3
  6
CONTINUOUS
 10
1.8118
 20
1.4556
  0
VERTEX
  8
0
 62
     3
  6
CONTINUOUS
 10
1.8779
 20
1.4717
  0
VERTEX
  8
0
 62
     3
  6
CONTINUOUS
 10
1.9442
 20
1.4869
  0
VERTEX
  8
0
 62
     3
  6
CONTINUOUS
 10
2.0107
 20
1.5013
  0
VERTEX
  8
0
 62
     3
  6
CONTINUOUS
 10
2.0773
 20
1.5148
  0
VERTEX
  8
0
 62
     3
  6
CONTINUOUS
 10
2.1442
 20
1.5275
  0
VERTEX
  8
0
 62
     3
  6
CONTINUOUS
 10
2.2112
 20
1.5394
  0
VERTEX
  8
0
 62
     3
  6
CONTINUOUS
 10
2.2783
 20
1.5507
  0
VERTEX
  8
0
 62
     3
  6
CONTINUOUS
 10
2.3455
 20
1.5612
  0
VERTEX
  8
0
 62
     3
  6
CONTINUOUS
 10
2.4129
 20
1.5711
  0
VERTEX
  8
0
 62
     3
  6
CONTINUOUS
 10
2.4803
 20
1.5804
  0
VERTEX
  8
0
 62
     3
  6
CONTINUOUS
 10
2.5467
 20
1.5890
  0
VERTEX
  8
0
 62
     3
  6
CONTINUOUS
 10
2.6132
 20
1.5971
  0
VERTEX
  8
0
 62
     3
  6
CONTINUOUS
 10
2.6798
 20
1.6047
  0
VERTEX
  8
0
 62
     3
  6
CONTINUOUS
 10
2.7464
 20
1.6119
  0
VERTEX
  8
0
 62
     3
  6
CONTINUOUS
 10
2.8130
 20
1.6187
  0
VERTEX
  8
0
 62
     3
  6
CONTINUOUS
 10
2.8797
 20
1.6253
  0
VERTEX
  8
0
 62
     3
  6
CONTINUOUS
 10
2.9463
 20
1.6315
  0
VERTEX
  8
0
 62
     3
  6
CONTINUOUS
 10
3.0131
 20
1.6375
  0
VERTEX
  8
0
 62
     3
  6
CONTINUOUS
 10
3.0798
 20
1.6434
  0
VERTEX
  8
0
 62
     3
  6
CONTINUOUS
 10
3.1465
 20
1.6491
  0
VERTEX
  8
0
 62
     3
  6
CONTINUOUS
 10
3.2133
 20
1.6548
  0
VERTEX
  8
0
 62
     3
  6
CONTINUOUS
 10
3.2801
 20
1.6604
  0
VERTEX
  8
0
 62
     3
  6
CONTINUOUS
 10
3.4132
 20
1.6716
  0
VERTEX
  8
0
 62
     3
  6
CONTINUOUS
 10
3.5464
 20
1.6827
  0
VERTEX
  8
0
 62
     3
  6
CONTINUOUS
 10
3.6796
 20
1.6935
  0
VERTEX
  8
0
 62
     3
  6
CONTINUOUS
 10
3.8129
 20
1.7040
  0
VERTEX
  8
0
 62
     3
  6
CONTINUOUS
 10
3.9462
 20
1.7140
  0
VERTEX
  8
0
 62
     3
  6
CONTINUOUS
 10
4.0795
 20
1.7232
  0
VERTEX
  8
0
 62
     3
  6
CONTINUOUS
 10
4.2128
 20
1.7317
  0
VERTEX
  8
0
 62
     3
  6
CONTINUOUS
 10
4.3461
 20
1.7391
  0
VERTEX
  8
0
 62
     3
  6
CONTINUOUS
 10
4.4795
 20
1.7455
  0
VERTEX
  8
0
 62
     3
  6
CONTINUOUS
 10
4.6129
 20
1.7506
  0
VERTEX
  8
0
 62
     3
  6
CONTINUOUS
 10
4.7463
 20
1.7542
  0
VERTEX
  8
0
 62
     3
  6
CONTINUOUS
 10
4.8797
 20
1.7564
  0
VERTEX
  8
0
 62
     3
  6
CONTINUOUS
 10
5.0131
 20
1.7568
  0
VERTEX
  8
0
 62
     3
  6
CONTINUOUS
 10
5.1464
 20
1.7557
  0
VERTEX
  8
0
 62
     3
  6
CONTINUOUS
 10
5.2798
 20
1.7531
  0
VERTEX
  8
0
 62
     3
  6
CONTINUOUS
 10
5.4131
 20
1.7491
  0
VERTEX
  8
0
 62
     3
  6
CONTINUOUS
 10
5.5465
 20
1.7440
  0
VERTEX
  8
0
 62
     3
  6
CONTINUOUS
 10
5.6798
 20
1.7377
  0
VERTEX
  8
0
 62
     3
  6
CONTINUOUS
 10
5.8131
 20
1.7305
  0
VERTEX
  8
0
 62
     3
  6
CONTINUOUS
 10
5.9464
 20
1.7225
  0
VERTEX
  8
0
 62
     3
  6
CONTINUOUS
 10
6.0797
 20
1.7137
  0
VERTEX
  8
0
 62
     3
  6
CONTINUOUS
 10
6.2130
 20
1.7044
  0
VERTEX
  8
0
 62
     3
  6
CONTINUOUS
 10
6.3462
 20
1.6945
  0
VERTEX
  8
0
 62
     3
  6
CONTINUOUS
 10
6.4794
 20
1.6844
  0
VERTEX
  8
0
 62
     3
  6
CONTINUOUS
 10
6.6130
 20
1.6739
  0
VERTEX
  8
0
 62
     3
  6
CONTINUOUS
 10
6.7466
 20
1.6632
  0
VERTEX
  8
0
 62
     3
  6
CONTINUOUS
 10
6.8801
 20
1.6521
  0
VERTEX
  8
0
 62
     3
  6
CONTINUOUS
 10
7.0135
 20
1.6408
  0
VERTEX
  8
0
 62
     3
  6
CONTINUOUS
 10
7.1469
 20
1.6290
  0
VERTEX
  8
0
 62
     3
  6
CONTINUOUS
 10
7.2803
 20
1.6168
  0
VERTEX
  8
0
 62
     3
  6
CONTINUOUS
 10
7.4136
 20
1.6041
  0
VERTEX
  8
0
 62
     3
  6
CONTINUOUS
 10
7.5468
 20
1.5910
  0
VERTEX
  8
0
 62
     3
  6
CONTINUOUS
 10
7.6800
 20
1.5772
  0
VERTEX
  8
0
 62
     3
  6
CONTINUOUS
 10
7.8131
 20
1.5629
  0
VERTEX
  8
0
 62
     3
  6
CONTINUOUS
 10
7.9461
 20
1.5480
  0
VERTEX
  8
0
 62
     3
  6
CONTINUOUS
 10
8.0790
 20
1.5324
  0
VERTEX
  8
0
 62
     3
  6
CONTINUOUS
 10
8.2126
 20
1.5160
  0
VERTEX
  8
0
 62
     3
  6
CONTINUOUS
 10
8.3461
 20
1.4990
  0
VERTEX
  8
0
 62
     3
  6
CONTINUOUS
 10
8.4795
 20
1.4814
  0
VERTEX
  8
0
 62
     3
  6
CONTINUOUS
 10
8.6129
 20
1.4633
  0
VERTEX
  8
0
 62
     3
  6
CONTINUOUS
 10
8.7462
 20
1.4448
  0
VERTEX
  8
0
 62
     3
  6
CONTINUOUS
 10
8.8794
 20
1.4258
  0
VERTEX
  8
0
 62
     3
  6
CONTINUOUS
 10
9.0127
 20
1.4066
  0
VERTEX
  8
0
 62
     3
  6
CONTINUOUS
 10
9.1459
 20
1.3872
  0
VERTEX
  8
0
 62
     3
  6
CONTINUOUS
 10
9.2791
 20
1.3676
  0
VERTEX
  8
0
 62
     3
  6
CONTINUOUS
 10
9.4123
 20
1.3479
  0
VERTEX
  8
0
 62
     3
  6
CONTINUOUS
 10
9.5455
 20
1.3281
  0
VERTEX
  8
0
 62
     3
  6
CONTINUOUS
 10
9.6787
 20
1.3085
  0
VERTEX
  8
0
 62
     3
  6
CONTINUOUS
 10
9.8122
 20
1.2888
  0
VERTEX
  8
0
 62
     3
  6
CONTINUOUS
 10
9.9457
 20
1.2692
  0
VERTEX
  8
0
 62
     3
  6
CONTINUOUS
 10
10.0792
 20
1.2496
  0
VERTEX
  8
0
 62
     3
  6
CONTINUOUS
 10
10.2126
 20
1.2299
  0
VERTEX
  8
0
 62
     3
  6
CONTINUOUS
 10
10.3461
 20
1.2100
  0
VERTEX
  8
0
 62
     3
  6
CONTINUOUS
 10
10.4795
 20
1.1899
  0
VERTEX
  8
0
 62
     3
  6
CONTINUOUS
 10
10.6128
 20
1.1695
  0
VERTEX
  8
0
 62
     3
  6
CONTINUOUS
 10
10.7461
 20
1.1487
  0
VERTEX
  8
0
 62
     3
  6
CONTINUOUS
 10
10.8793
 20
1.1275
  0
VERTEX
  8
0
 62
     3
  6
CONTINUOUS
 10
11.0124
 20
1.1058
  0
VERTEX
  8
0
 62
     3
  6
CONTINUOUS
 10
11.1454
 20
1.0835
  0
VERTEX
  8
0
 62
     3
  6
CONTINUOUS
 10
11.2783
 20
1.0605
  0
VERTEX
  8
0
 62
     3
  6
CONTINUOUS
 10
11.4120
 20
1.0367
  0
VERTEX
  8
0
 62
     3
  6
CONTINUOUS
 10
11.5456
 20
1.0122
  0
VERTEX
  8
0
 62
     3
  6
CONTINUOUS
 10
11.6790
 20
0.9872
  0
VERTEX
  8
0
 62
     3
  6
CONTINUOUS
 10
11.8124
 20
0.9616
  0
VERTEX
  8
0
 62
     3
  6
CONTINUOUS
 10
11.9457
 20
0.9357
  0
VERTEX
  8
0
 62
     3
  6
CONTINUOUS
 10
12.0790
 20
0.9093
  0
VERTEX
  8
0
 62
     3
  6
CONTINUOUS
 10
12.2122
 20
0.8828
  0
VERTEX
  8
0
 62
     3
  6
CONTINUOUS
 10
12.3453
 20
0.8560
  0
VERTEX
  8
0
 62
     3
  6
CONTINUOUS
 10
12.4785
 20
0.8291
  0
VERTEX
  8
0
 62
     3
  6
CONTINUOUS
 10
12.6116
 20
0.8022
  0
VERTEX
  8
0
 62
     3
  6
CONTINUOUS
 10
12.7448
 20
0.7753
  0
VERTEX
  8
0
 62
     3
  6
CONTINUOUS
 10
12.8780
 20
0.7486
  0
VERTEX
  8
0
 62
     3
  6
CONTINUOUS
 10
13.0111
 20
0.7220
  0
VERTEX
  8
0
 62
     3
  6
CONTINUOUS
 10
13.1442
 20
0.6957
  0
VERTEX
  8
0
 62
     3
  6
CONTINUOUS
 10
13.2773
 20
0.6695
  0
VERTEX
  8
0
 62
     3
  6
CONTINUOUS
 10
13.4105
 20
0.6436
  0
VERTEX
  8
0
 62
     3
  6
CONTINUOUS
 10
13.5438
 20
0.6179
  0
VERTEX
  8
0
 62
     3
  6
CONTINUOUS
 10
13.6770
 20
0.5924
  0
VERTEX
  8
0
 62
     3
  6
CONTINUOUS
 10
13.8103
 20
0.5672
  0
VERTEX
  8
0
 62
     3
  6
CONTINUOUS
 10
13.9437
 20
0.5422
  0
VERTEX
  8
0
 62
     3
  6
CONTINUOUS
 10
14.0771
 20
0.5174
  0
VERTEX
  8
0
 62
     3
  6
CONTINUOUS
 10
14.2106
 20
0.4929
  0
VERTEX
  8
0
 62
     3
  6
CONTINUOUS
 10
14.3441
 20
0.4686
  0
VERTEX
  8
0
 62
     3
  6
CONTINUOUS
 10
14.4776
 20
0.4446
  0
VERTEX
  8
0
 62
     3
  6
CONTINUOUS
 10
14.5442
 20
0.4328
  0
VERTEX
  8
0
 62
     3
  6
CONTINUOUS
 10
14.6108
 20
0.4210
  0
VERTEX
  8
0
 62
     3
  6
CONTINUOUS
 10
14.6773
 20
0.4093
  0
VERTEX
  8
0
 62
     3
  6
CONTINUOUS
 10
14.7439
 20
0.3977
  0
VERTEX
  8
0
 62
     3
  6
CONTINUOUS
 10
14.8106
 20
0.3862
  0
VERTEX
  8
0
 62
     3
  6
CONTINUOUS
 10
14.8772
 20
0.3747
  0
VERTEX
  8
0
 62
     3
  6
CONTINUOUS
 10
14.9439
 20
0.3634
  0
VERTEX
  8
0
 62
     3
  6
CONTINUOUS
 10
15.0105
 20
0.3522
  0
VERTEX
  8
0
 62
     3
  6
CONTINUOUS
 10
15.0772
 20
0.3411
  0
VERTEX
  8
0
 62
     3
  6
CONTINUOUS
 10
15.1439
 20
0.3302
  0
VERTEX
  8
0
 62
     3
  6
CONTINUOUS
 10
15.2107
 20
0.3194
  0
VERTEX
  8
0
 62
     3
  6
CONTINUOUS
 10
15.2774
 20
0.3087
  0
VERTEX
  8
0
 62
     3
  6
CONTINUOUS
 10
15.3440
 20
0.2982
  0
VERTEX
  8
0
 62
     3
  6
CONTINUOUS
 10
15.4106
 20
0.2878
  0
VERTEX
  8
0
 62
     3
  6
CONTINUOUS
 10
15.4772
 20
0.2775
  0
VERTEX
  8
0
 62
     3
  6
CONTINUOUS
 10
15.5438
 20
0.2674
  0
VERTEX
  8
0
 62
     3
  6
CONTINUOUS
 10
15.6105
 20
0.2573
  0
VERTEX
  8
0
 62
     3
  6
CONTINUOUS
 10
15.6771
 20
0.2474
  0
VERTEX
  8
0
 62
     3
  6
CONTINUOUS
 10
15.7438
 20
0.2375
  0
VERTEX
  8
0
 62
     3
  6
CONTINUOUS
 10
15.8105
 20
0.2277
  0
VERTEX
  8
0
 62
     3
  6
CONTINUOUS
 10
15.8772
 20
0.2179
  0
VERTEX
  8
0
 62
     3
  6
CONTINUOUS
 10
15.9439
 20
0.2081
  0
VERTEX
  8
0
 62
     3
  6
CONTINUOUS
 10
16.0106
 20
0.1984
  0
VERTEX
  8
0
 62
     3
  6
CONTINUOUS
 10
16.0773
 20
0.1887
  0
SEQEND
  8
0
  0
POLYLINE
  8
0
 62
     1
 66
     1
  6
CONTINUOUS
  0
VERTEX
  8
0
 62
     1
  6
CONTINUOUS
 10
0.0808
 20
0.5086
  0
VERTEX
  8
0
 62
     1
  6
CONTINUOUS
 10
0.1111
 20
0.4732
  0
VERTEX
  8
0
 62
     1
  6
CONTINUOUS
 10
0.1416
 20
0.4379
  0
VERTEX
  8
0
 62
     1
  6
CONTINUOUS
 10
0.1724
 20
0.4031
  0
VERTEX
  8
0
 62
     1
  6
CONTINUOUS
 10
0.2035
 20
0.3691
  0
VERTEX
  8
0
 62
     1
  6
CONTINUOUS
 10
0.2351
 20
0.3359
  0
VERTEX
  8
0
 62
     1
  6
CONTINUOUS
 10
0.2673
 20
0.3039
  0
VERTEX
  8
0
 62
     1
  6
CONTINUOUS
 10
0.3003
 20
0.2732
  0
VERTEX
  8
0
 62
     1
  6
CONTINUOUS
 10
0.3341
 20
0.2442
  0
VERTEX
  8
0
 62
     1
  6
CONTINUOUS
 10
0.3689
 20
0.2170
  0
VERTEX
  8
0
 62
     1
  6
CONTINUOUS
 10
0.4049
 20
0.1918
  0
VERTEX
  8
0
 62
     1
  6
CONTINUOUS
 10
0.4421
 20
0.1690
  0
VERTEX
  8
0
 62
     1
  6
CONTINUOUS
 10
0.4807
 20
0.1487
  0
VERTEX
  8
0
 62
     1
  6
CONTINUOUS
 10
0.5113
 20
0.1349
  0
VERTEX
  8
0
 62
     1
  6
CONTINUOUS
 10
0.5427
 20
0.1226
  0
VERTEX
  8
0
 62
     1
  6
CONTINUOUS
 10
0.5748
 20
0.1116
  0
VERTEX
  8
0
 62
     1
  6
CONTINUOUS
 10
0.6076
 20
0.1017
  0
VERTEX
  8
0
 62
     1
  6
CONTINUOUS
 10
0.6408
 20
0.0929
  0
VERTEX
  8
0
 62
     1
  6
CONTINUOUS
 10
0.6745
 20
0.0848
  0
VERTEX
  8
0
 62
     1
  6
CONTINUOUS
 10
0.7085
 20
0.0774
  0
VERTEX
  8
0
 62
     1
  6
CONTINUOUS
 10
0.7428
 20
0.0705
  0
VERTEX
  8
0
 62
     1
  6
CONTINUOUS
 10
0.7772
 20
0.0640
  0
VERTEX
  8
0
 62
     1
  6
CONTINUOUS
 10
0.8117
 20
0.0576
  0
VERTEX
  8
0
 62
     1
  6
CONTINUOUS
 10
0.8462
 20
0.0512
  0
VERTEX
  8
0
 62
     1
  6
CONTINUOUS
 10
0.8806
 20
0.0447
  0
VERTEX
  8
0
 62
     1
  6
CONTINUOUS
 10
0.9144
 20
0.0381
  0
VERTEX
  8
0
 62
     1
  6
CONTINUOUS
 10
0.9480
 20
0.0312
  0
VERTEX
  8
0
 62
     1
  6
CONTINUOUS
 10
0.9814
 20
0.0241
  0
VERTEX
  8
0
 62
     1
  6
CONTINUOUS
 10
1.0148
 20
0.0170
  0
VERTEX
  8
0
 62
     1
  6
CONTINUOUS
 10
1.0481
 20
0.0098
  0
VERTEX
  8
0
 62
     1
  6
CONTINUOUS
 10
1.0813
 20
0.0027
  0
VERTEX
  8
0
 62
     1
  6
CONTINUOUS
 10
1.1144
 20
-0.0043
  0
VERTEX
  8
0
 62
     1
  6
CONTINUOUS
 10
1.1476
 20
-0.0111
  0
VERTEX
  8
0
 62
     1
  6
CONTINUOUS
 10
1.1807
 20
-0.0177
  0
VERTEX
  8
0
 62
     1
  6
CONTINUOUS
 10
1.2139
 20
-0.0240
  0
VERTEX
  8
0
 62
     1
  6
CONTINUOUS
 10
1.2472
 20
-0.0298
  0
VERTEX
  8
0
 62
     1
  6
CONTINUOUS
 10
1.2805
 20
-0.0352
  0
VERTEX
  8
0
 62
     1
  6
CONTINUOUS
 10
1.3135
 20
-0.0401
  0
VERTEX
  8
0
 62
     1
  6
CONTINUOUS
 10
1.3466
 20
-0.0445
  0
VERTEX
  8
0
 62
     1
  6
CONTINUOUS
 10
1.3797
 20
-0.0485
  0
VERTEX
  8
0
 62
     1
  6
CONTINUOUS
 10
1.4130
 20
-0.0521
  0
VERTEX
  8
0
 62
     1
  6
CONTINUOUS
 10
1.4463
 20
-0.0555
  0
VERTEX
  8
0
 62
     1
  6
CONTINUOUS
 10
1.4797
 20
-0.0586
  0
VERTEX
  8
0
 62
     1
  6
CONTINUOUS
 10
1.5131
 20
-0.0615
  0
VERTEX
  8
0
 62
     1
  6
CONTINUOUS
 10
1.5465
 20
-0.0643
  0
VERTEX
  8
0
 62
     1
  6
CONTINUOUS
 10
1.5800
 20
-0.0670
  0
VERTEX
  8
0
 62
     1
  6
CONTINUOUS
 10
1.6135
 20
-0.0697
  0
VERTEX
  8
0
 62
     1
  6
CONTINUOUS
 10
1.6470
 20
-0.0724
  0
VERTEX
  8
0
 62
     1
  6
CONTINUOUS
 10
1.6804
 20
-0.0752
  0
VERTEX
  8
0
 62
     1
  6
CONTINUOUS
 10
1.7473
 20
-0.0812
  0
VERTEX
  8
0
 62
     1
  6
CONTINUOUS
 10
1.8140
 20
-0.0876
  0
VERTEX
  8
0
 62
     1
  6
CONTINUOUS
 10
1.8807
 20
-0.0942
  0
VERTEX
  8
0
 62
     1
  6
CONTINUOUS
 10
1.9474
 20
-0.1011
  0
VERTEX
  8
0
 62
     1
  6
CONTINUOUS
 10
2.0140
 20
-0.1079
  0
VERTEX
  8
0
 62
     1
  6
CONTINUOUS
 10
2.0806
 20
-0.1148
  0
VERTEX
  8
0
 62
     1
  6
CONTINUOUS
 10
2.1472
 20
-0.1214
  0
VERTEX
  8
0
 62
     1
  6
CONTINUOUS
 10
2.2137
 20
-0.1277
  0
VERTEX
  8
0
 62
     1
  6
CONTINUOUS
 10
2.2803
 20
-0.1335
  0
VERTEX
  8
0
 62
     1
  6
CONTINUOUS
 10
2.3469
 20
-0.1388
  0
VERTEX
  8
0
 62
     1
  6
CONTINUOUS
 10
2.4136
 20
-0.1434
  0
VERTEX
  8
0
 62
     1
  6
CONTINUOUS
 10
2.4803
 20
-0.1472
  0
VERTEX
  8
0
 62
     1
  6
CONTINUOUS
 10
2.5467
 20
-0.1501
  0
VERTEX
  8
0
 62
     1
  6
CONTINUOUS
 10
2.6133
 20
-0.1522
  0
VERTEX
  8
0
 62
     1
  6
CONTINUOUS
 10
2.6798
 20
-0.1535
  0
VERTEX
  8
0
 62
     1
  6
CONTINUOUS
 10
2.7464
 20
-0.1542
  0
VERTEX
  8
0
 62
     1
  6
CONTINUOUS
 10
2.8131
 20
-0.1543
  0
VERTEX
  8
0
 62
     1
  6
CONTINUOUS
 10
2.8798
 20
-0.1540
  0
VERTEX
  8
0
 62
     1
  6
CONTINUOUS
 10
2.9465
 20
-0.1533
  0
VERTEX
  8
0
 62
     1
  6
CONTINUOUS
 10
3.0132
 20
-0.1523
  0
VERTEX
  8
0
 62
     1
  6
CONTINUOUS
 10
3.0799
 20
-0.1511
  0
VERTEX
  8
0
 62
     1
  6
CONTINUOUS
 10
3.1466
 20
-0.1498
  0
VERTEX
  8
0
 62
     1
  6
CONTINUOUS
 10
3.2134
 20
-0.1485
  0
VERTEX
  8
0
 62
     1
  6
CONTINUOUS
 10
3.2801
 20
-0.1472
  0
VERTEX
  8
0
 62
     1
  6
CONTINUOUS
 10
3.4135
 20
-0.1452
  0
VERTEX
  8
0
 62
     1
  6
CONTINUOUS
 10
3.5469
 20
-0.1438
  0
VERTEX
  8
0
 62
     1
  6
CONTINUOUS
 10
3.6803
 20
-0.1429
  0
VERTEX
  8
0
 62
     1
  6
CONTINUOUS
 10
3.8136
 20
-0.1425
  0
VERTEX
  8
0
 62
     1
  6
CONTINUOUS
 10
3.9469
 20
-0.1425
  0
VERTEX
  8
0
 62
     1
  6
CONTINUOUS
 10
4.0802
 20
-0.1428
  0
VERTEX
  8
0
 62
     1
  6
CONTINUOUS
 10
4.2135
 20
-0.1433
  0
VERTEX
  8
0
 62
     1
  6
CONTINUOUS
 10
4.3467
 20
-0.1441
  0
VERTEX
  8
0
 62
     1
  6
CONTINUOUS
 10
4.4800
 20
-0.1449
  0
VERTEX
  8
0
 62
     1
  6
CONTINUOUS
 10
4.6132
 20
-0.1457
  0
VERTEX
  8
0
 62
     1
  6
CONTINUOUS
 10
4.7465
 20
-0.1465
  0
VERTEX
  8
0
 62
     1
  6
CONTINUOUS
 10
4.8797
 20
-0.1472
  0
VERTEX
  8
0
 62
     1
  6
CONTINUOUS
 10
5.0130
 20
-0.1478
  0
VERTEX
  8
0
 62
     1
  6
CONTINUOUS
 10
5.1463
 20
-0.1481
  0
VERTEX
  8
0
 62
     1
  6
CONTINUOUS
 10
5.2796
 20
-0.1483
  0
VERTEX
  8
0
 62
     1
  6
CONTINUOUS
 10
5.4129
 20
-0.1484
  0
VERTEX
  8
0
 62
     1
  6
CONTINUOUS
 10
5.5462
 20
-0.1484
  0
VERTEX
  8
0
 62
     1
  6
CONTINUOUS
 10
5.6795
 20
-0.1483
  0
VERTEX
  8
0
 62
     1
  6
CONTINUOUS
 10
5.8128
 20
-0.1482
  0
VERTEX
  8
0
 62
     1
  6
CONTINUOUS
 10
5.9461
 20
-0.1480
  0
VERTEX
  8
0
 62
     1
  6
CONTINUOUS
 10
6.0794
 20
-0.1478
  0
VERTEX
  8
0
 62
     1
  6
CONTINUOUS
 10
6.2127
 20
-0.1476
  0
VERTEX
  8
0
 62
     1
  6
CONTINUOUS
 10
6.3461
 20
-0.1474
  0
VERTEX
  8
0
 62
     1
  6
CONTINUOUS
 10
6.4794
 20
-0.1472
  0
VERTEX
  8
0
 62
     1
  6
CONTINUOUS
 10
6.6127
 20
-0.1471
  0
VERTEX
  8
0
 62
     1
  6
CONTINUOUS
 10
6.7460
 20
-0.1471
  0
VERTEX
  8
0
 62
     1
  6
CONTINUOUS
 10
6.8793
 20
-0.1471
  0
VERTEX
  8
0
 62
     1
  6
CONTINUOUS
 10
7.0126
 20
-0.1471
  0
VERTEX
  8
0
 62
     1
  6
CONTINUOUS
 10
7.1459
 20
-0.1472
  0
VERTEX
  8
0
 62
     1
  6
CONTINUOUS
 10
7.2792
 20
-0.1472
  0
VERTEX
  8
0
 62
     1
  6
CONTINUOUS
 10
7.4125
 20
-0.1473
  0
VERTEX
  8
0
 62
     1
  6
CONTINUOUS
 10
7.5458
 20
-0.1473
  0
VERTEX
  8
0
 62
     1
  6
CONTINUOUS
 10
7.6791
 20
-0.1474
  0
VERTEX
  8
0
 62
     1
  6
CONTINUOUS
 10
7.8124
 20
-0.1474
  0
VERTEX
  8
0
 62
     1
  6
CONTINUOUS
 10
7.9457
 20
-0.1473
  0
VERTEX
  8
0
 62
     1
  6
CONTINUOUS
 10
8.0790
 20
-0.1472
  0
VERTEX
  8
0
 62
     1
  6
CONTINUOUS
 10
8.2123
 20
-0.1471
  0
VERTEX
  8
0
 62
     1
  6
CONTINUOUS
 10
8.3456
 20
-0.1469
  0
VERTEX
  8
0
 62
     1
  6
CONTINUOUS
 10
8.4789
 20
-0.1467
  0
VERTEX
  8
0
 62
     1
  6
CONTINUOUS
 10
8.6122
 20
-0.1465
  0
VERTEX
  8
0
 62
     1
  6
CONTINUOUS
 10
8.7455
 20
-0.1463
  0
VERTEX
  8
0
 62
     1
  6
CONTINUOUS
 10
8.8788
 20
-0.1461
  0
VERTEX
  8
0
 62
     1
  6
CONTINUOUS
 10
9.0121
 20
-0.1460
  0
VERTEX
  8
0
 62
     1
  6
CONTINUOUS
 10
9.1454
 20
-0.1460
  0
VERTEX
  8
0
 62
     1
  6
CONTINUOUS
 10
9.2787
 20
-0.1461
  0
VERTEX
  8
0
 62
     1
  6
CONTINUOUS
 10
9.4120
 20
-0.1463
  0
VERTEX
  8
0
 62
     1
  6
CONTINUOUS
 10
9.5454
 20
-0.1467
  0
VERTEX
  8
0
 62
     1
  6
CONTINUOUS
 10
9.6787
 20
-0.1472
  0
VERTEX
  8
0
 62
     1
  6
CONTINUOUS
 10
9.8120
 20
-0.1479
  0
VERTEX
  8
0
 62
     1
  6
CONTINUOUS
 10
9.9453
 20
-0.1487
  0
VERTEX
  8
0
 62
     1
  6
CONTINUOUS
 10
10.0786
 20
-0.1495
  0
VERTEX
  8
0
 62
     1
  6
CONTINUOUS
 10
10.2119
 20
-0.1504
  0
VERTEX
  8
0
 62
     1
  6
CONTINUOUS
 10
10.3452
 20
-0.1511
  0
VERTEX
  8
0
 62
     1
  6
CONTINUOUS
 10
10.4786
 20
-0.1516
  0
VERTEX
  8
0
 62
     1
  6
CONTINUOUS
 10
10.6119
 20
-0.1519
  0
VERTEX
  8
0
 62
     1
  6
CONTINUOUS
 10
10.7452
 20
-0.1519
  0
VERTEX
  8
0
 62
     1
  6
CONTINUOUS
 10
10.8785
 20
-0.1515
  0
VERTEX
  8
0
 62
     1
  6
CONTINUOUS
 10
11.0118
 20
-0.1506
  0
VERTEX
  8
0
 62
     1
  6
CONTINUOUS
 10
11.1450
 20
-0.1492
  0
VERTEX
  8
0
 62
     1
  6
CONTINUOUS
 10
11.2783
 20
-0.1472
  0
VERTEX
  8
0
 62
     1
  6
CONTINUOUS
 10
11.4117
 20
-0.1446
  0
VERTEX
  8
0
 62
     1
  6
CONTINUOUS
 10
11.5451
 20
-0.1413
  0
VERTEX
  8
0
 62
     1
  6
CONTINUOUS
 10
11.6784
 20
-0.1375
  0
VERTEX
  8
0
 62
     1
  6
CONTINUOUS
 10
11.8117
 20
-0.1331
  0
VERTEX
  8
0
 62
     1
  6
CONTINUOUS
 10
11.9451
 20
-0.1282
  0
VERTEX
  8
0
 62
     1
  6
CONTINUOUS
 10
12.0784
 20
-0.1228
  0
VERTEX
  8
0
 62
     1
  6
CONTINUOUS
 10
12.2117
 20
-0.1170
  0
VERTEX
  8
0
 62
     1
  6
CONTINUOUS
 10
12.3450
 20
-0.1109
  0
VERTEX
  8
0
 62
     1
  6
CONTINUOUS
 10
12.4782
 20
-0.1044
  0
VERTEX
  8
0
 62
     1
  6
CONTINUOUS
 10
12.6115
 20
-0.0976
  0
VERTEX
  8
0
 62
     1
  6
CONTINUOUS
 10
12.7447
 20
-0.0905
  0
VERTEX
  8
0
 62
     1
  6
CONTINUOUS
 10
12.8780
 20
-0.0832
  0
VERTEX
  8
0
 62
     1
  6
CONTINUOUS
 10
13.0113
 20
-0.0758
  0
VERTEX
  8
0
 62
     1
  6
CONTINUOUS
 10
13.1446
 20
-0.0682
  0
VERTEX
  8
0
 62
     1
  6
CONTINUOUS
 10
13.2779
 20
-0.0604
  0
VERTEX
  8
0
 62
     1
  6
CONTINUOUS
 10
13.4112
 20
-0.0525
  0
VERTEX
  8
0
 62
     1
  6
CONTINUOUS
 10
13.5445
 20
-0.0446
  0
VERTEX
  8
0
 62
     1
  6
CONTINUOUS
 10
13.6778
 20
-0.0365
  0
VERTEX
  8
0
 62
     1
  6
CONTINUOUS
 10
13.8111
 20
-0.0284
  0
VERTEX
  8
0
 62
     1
  6
CONTINUOUS
 10
13.9444
 20
-0.0202
  0
VERTEX
  8
0
 62
     1
  6
CONTINUOUS
 10
14.0777
 20
-0.0120
  0
VERTEX
  8
0
 62
     1
  6
CONTINUOUS
 10
14.2110
 20
-0.0037
  0
VERTEX
  8
0
 62
     1
  6
CONTINUOUS
 10
14.3443
 20
0.0045
  0
VERTEX
  8
0
 62
     1
  6
CONTINUOUS
 10
14.4776
 20
0.0127
  0
VERTEX
  8
0
 62
     1
  6
CONTINUOUS
 10
14.5443
 20
0.0168
  0
VERTEX
  8
0
 62
     1
  6
CONTINUOUS
 10
14.6111
 20
0.0210
  0
VERTEX
  8
0
 62
     1
  6
CONTINUOUS
 10
14.6778
 20
0.0252
  0
VERTEX
  8
0
 62
     1
  6
CONTINUOUS
 10
14.7445
 20
0.0295
  0
VERTEX
  8
0
 62
     1
  6
CONTINUOUS
 10
14.8112
 20
0.0339
  0
VERTEX
  8
0
 62
     1
  6
CONTINUOUS
 10
14.8779
 20
0.0385
  0
VERTEX
  8
0
 62
     1
  6
CONTINUOUS
 10
14.9446
 20
0.0434
  0
VERTEX
  8
0
 62
     1
  6
CONTINUOUS
 10
15.0112
 20
0.0484
  0
VERTEX
  8
0
 62
     1
  6
CONTINUOUS
 10
15.0778
 20
0.0538
  0
VERTEX
  8
0
 62
     1
  6
CONTINUOUS
 10
15.1444
 20
0.0595
  0
VERTEX
  8
0
 62
     1
  6
CONTINUOUS
 10
15.2109
 20
0.0655
  0
VERTEX
  8
0
 62
     1
  6
CONTINUOUS
 10
15.2774
 20
0.0719
  0
VERTEX
  8
0
 62
     1
  6
CONTINUOUS
 10
15.3442
 20
0.0788
  0
VERTEX
  8
0
 62
     1
  6
CONTINUOUS
 10
15.4110
 20
0.0861
  0
VERTEX
  8
0
 62
     1
  6
CONTINUOUS
 10
15.4777
 20
0.0937
  0
VERTEX
  8
0
 62
     1
  6
CONTINUOUS
 10
15.5444
 20
0.1017
  0
VERTEX
  8
0
 62
     1
  6
CONTINUOUS
 10
15.6111
 20
0.1099
  0
VERTEX
  8
0
 62
     1
  6
CONTINUOUS
 10
15.6777
 20
0.1184
  0
VERTEX
  8
0
 62
     1
  6
CONTINUOUS
 10
15.7444
 20
0.1271
  0
VERTEX
  8
0
 62
     1
  6
CONTINUOUS
 10
15.8110
 20
0.1360
  0
VERTEX
  8
0
 62
     1
  6
CONTINUOUS
 10
15.8776
 20
0.1451
  0
VERTEX
  8
0
 62
     1
  6
CONTINUOUS
 10
15.9441
 20
0.1542
  0
VERTEX
  8
0
 62
     1
  6
CONTINUOUS
 10
16.0107
 20
0.1634
  0
VERTEX
  8
0
 62
     1
  6
CONTINUOUS
 10
16.0773
 20
0.1727
  0
SEQEND
  8
0
  0
ENDSEC
  0
EOF
