 0 
SECTION
 2 
ENTITIES
 0 
POLYLINE
 8 
1
 66 
 1 
 10 
0.0
 20 
0.0
 30 
0.0
 0 
VERTEX
 8 
1
 10 
0.0
 20 
0.501
 30 
0.0
 0 
VERTEX
 8 
1
 10 
0.05
 20 
0.51355
 30 
0.0
 0 
VERTEX
 8 
1
 10 
0.1
 20 
0.52521
 30 
0.0
 0 
VERTEX
 8 
1
 10 
0.2
 20 
0.54582
 30 
0.0
 0 
VERTEX
 8 
1
 10 
0.3
 20 
0.56323
 30 
0.0
 0 
VERTEX
 8 
1
 10 
0.4
 20 
0.57674
 30 
0.0
 0 
VERTEX
 8 
1
 10 
0.5
 20 
0.58595
 30 
0.0
 0 
VERTEX
 8 
1
 10 
0.6
 20 
0.59056
 30 
0.0
 0 
VERTEX
 8 
1
 10 
0.7
 20 
0.59047
 30 
0.0
 0 
VERTEX
 8 
1
 10 
0.8
 20 
0.58308
 30 
0.0
 0 
VERTEX
 8 
1
 10 
0.85
 20 
0.57494
 30 
0.0
 0 
VERTEX
 8 
1
 10 
0.9
 20 
0.56249
 30 
0.0
 0 
VERTEX
 8 
1
 10 
0.925
 20 
0.55452
 30 
0.0
 0 
VERTEX
 8 
1
 10 
0.95
 20 
0.54444
 30 
0.0
 0 
VERTEX
 8 
1
 10 
0.975
 20 
0.53117
 30 
0.0
 0 
VERTEX
 8 
1
 10 
0.9875
 20 
0.52199
 30 
0.0
 0 
VERTEX
 8 
1
 10 
1
 20 
0.5
 30 
0.0
 0 
VERTEX
 8 
1
 10 
0.9875
 20 
0.48389
 30 
0.0
 0 
VERTEX
 8 
1
 10 
0.975
 20 
0.47947
 30 
0.0
 0 
VERTEX
 8 
1
 10 
0.95
 20 
0.47424
 30 
0.0
 0 
VERTEX
 8 
1
 10 
0.925
 20 
0.47172
 30 
0.0
 0 
VERTEX
 8 
1
 10 
0.9
 20 
0.47069
 30 
0.0
 0 
VERTEX
 8 
1
 10 
0.85
 20 
0.47053
 30 
0.0
 0 
VERTEX
 8 
1
 10 
0.8
 20 
0.47208
 30 
0.0
 0 
VERTEX
 8 
1
 10 
0.7
 20 
0.47827
 30 
0.0
 0 
VERTEX
 8 
1
 10 
0.6
 20 
0.48456
 30 
0.0
 0 
VERTEX
 8 
1
 10 
0.5
 20 
0.48715
 30 
0.0
 0 
VERTEX
 8 
1
 10 
0.4
 20 
0.48764
 30 
0.0
 0 
VERTEX
 8 
1
 10 
0.3
 20 
0.48793
 30 
0.0
 0 
VERTEX
 8 
1
 10 
0.2
 20 
0.49052
 30 
0.0
 0 
VERTEX
 8 
1
 10 
0.1
 20 
0.49451
 30 
0.0
 0 
VERTEX
 8 
1
 10 
0.05
 20 
0.49715
 30 
0.0
 0 
VERTEX
 8 
1
 10 
0.0
 20 
0.5
 30 
0.0
 0 
SEQEND
 8 
1
 0 
ENDSEC
 0 
EOF
