 0 
SECTION
 2 
ENTITIES
 0 
POLYLINE
 8 
1
 66 
 1 
 10 
0.0
 20 
0.0
 30 
0.0
 0 
VERTEX
 8 
1
 10 
0.0
 20 
17,5
 30 
0.0
 0 
VERTEX
 8 
1
 10 
1
 20 
0.511
 30 
0.0
 0 
VERTEX
 8 
1
 10 
0.9875
 20 
0.529
 30 
0.0
 0 
VERTEX
 8 
1
 10 
0.975
 20 
0.5394
 30 
0.0
 0 
VERTEX
 8 
1
 10 
0.95
 20 
0.5538
 30 
0.0
 0 
VERTEX
 8 
1
 10 
0.925
 20 
0.564
 30 
0.0
 0 
VERTEX
 8 
1
 10 
0.9
 20 
0.573
 30 
0.0
 0 
VERTEX
 8 
1
 10 
0.85
 20 
0.5864
 30 
0.0
 0 
VERTEX
 8 
1
 10 
0.8
 20 
0.5956
 30 
0.0
 0 
VERTEX
 8 
1
 10 
0.7
 20 
0.6036
 30 
0.0
 0 
VERTEX
 8 
1
 10 
0.6
 20 
0.6036
 30 
0.0
 0 
VERTEX
 8 
1
 10 
0.5
 20 
0.597
 30 
0.0
 0 
VERTEX
 8 
1
 10 
0.4
 20 
0.585
 30 
0.0
 0 
VERTEX
 8 
1
 10 
0.3
 20 
0.57
 30 
0.0
 0 
VERTEX
 8 
1
 10 
0.2
 20 
0.55
 30 
0.0
 0 
VERTEX
 8 
1
 10 
0.1
 20 
0.528
 30 
0.0
 0 
VERTEX
 8 
1
 10 
0.05
 20 
0.517
 30 
0.0
 0 
VERTEX
 8 
1
 10 
0.0
 20 
0.505
 30 
0.0
 0 
VERTEX
 8 
1
 10 
1
 20 
0.511
 30 
0.0
 0 
VERTEX
 8 
1
 10 
0.9875
 20 
0.501
 30 
0.0
 0 
VERTEX
 8 
1
 10 
0.975
 20 
0.5
 30 
0.0
 0 
VERTEX
 8 
1
 10 
0.95
 20 
0.5
 30 
0.0
 0 
VERTEX
 8 
1
 10 
0.925
 20 
0.5026
 30 
0.0
 0 
VERTEX
 8 
1
 10 
0.9
 20 
0.5064
 30 
0.0
 0 
VERTEX
 8 
1
 10 
0.85
 20 
0.512
 30 
0.0
 0 
VERTEX
 8 
1
 10 
0.8
 20 
0.515
 30 
0.0
 0 
VERTEX
 8 
1
 10 
0.7
 20 
0.519
 30 
0.0
 0 
VERTEX
 8 
1
 10 
0.6
 20 
0.522
 30 
0.0
 0 
VERTEX
 8 
1
 10 
0.5
 20 
0.5212
 30 
0.0
 0 
VERTEX
 8 
1
 10 
0.4
 20 
0.5164
 30 
0.0
 0 
VERTEX
 8 
1
 10 
0.3
 20 
0.5124
 30 
0.0
 0 
VERTEX
 8 
1
 10 
0.2
 20 
0.5084
 30 
0.0
 0 
VERTEX
 8 
1
 10 
0.1
 20 
0.504
 30 
0.0
 0 
VERTEX
 8 
1
 10 
0.05
 20 
0.502
 30 
0.0
 0 
VERTEX
 8 
1
 10 
0.0
 20 
0.5
 30 
0.0
 0 
SEQEND
 8 
1
 0 
ENDSEC
 0 
EOF
