  0
SECTION
  2
HEADER
  9
$ACADVER
  1
AC1004
  9
$EXTMIN
 10
0.0404
 20
0.5525
  9
$EXTMAX
 10
8.0404
 20
4.6839
  9
$LIMMIN
 10
0.0404
 20
0.5525
  9
$LIMMAX
 10
8.0404
 20
4.6839
  9
$INSBASE
 10
0.0
 20
0.0
  9
$VIEWCTR
 10
7.21903
 20
4.5
  9
$VIEWSIZE
 40
9.0
  9
$SNAPMODE
 70
     0
  9
$SNAPUNIT
 10
1.0
 20
1.0
  9
$SNAPBASE
 10
0.0
 20
0.0
  9
$SNAPANG
 50
0.0
  9
$SNAPSTYLE
 70
     0
  9
$SNAPISOPAIR
 70
     0
  9
$GRIDMODE
 70
     0
  9
$GRIDUNIT
 10
0.0
 20
0.0
  9
$ORTHOMODE
 70
     0
  9
$REGENMODE
 70
     1
  9
$FILLMODE
 70
     1
  9
$QTEXTMODE
 70
     0
  9
$DRAGMODE
 70
     2
  9
$LTSCALE
 40
1.0
  9
$OSMODE
 70
     0
  9
$ATTMODE
 70
     1
  9
$TEXTSIZE
 40
0.2
  9
$TRACEWID
 40
0.05
  9
$TEXTSTYLE
  7
STANDARD
  9
$CLAYER
  8
0
  9
$CELTYPE
  6
BYLAYER
  9
$CECOLOR
 62
   256
  9
$DIMSCALE
 40
1.0
  9
$DIMASZ
 40
0.18
  9
$DIMEXO
 40
0.0625
  9
$DIMDLI
 40
0.38
  9
$DIMRND
 40
0.0
  9
$DIMDLE
 40
0.0
  9
$DIMEXE
 40
0.18
  9
$DIMTP
 40
0.0
  9
$DIMTM
 40
0.0
  9
$DIMTXT
 40
0.18
  9
$DIMCEN
 40
0.09
  9
$DIMTSZ
 40
0.0
  9
$DIMTOL
 70
     0
  9
$DIMLIM
 70
     0
  9
$DIMTIH
 70
     1
  9
$DIMTOH
 70
     1
  9
$DIMSE1
 70
     0
  9
$DIMSE2
 70
     0
  9
$DIMTAD
 70
     0
  9
$DIMZIN
 70
     0
  9
$DIMBLK
  1

  9
$DIMASO
 70
     1
  9
$DIMSHO
 70
     0
  9
$DIMPOST
  1

  9
$DIMAPOST
  1

  9
$DIMALT
 70
     0
  9
$DIMALTD
 70
     2
  9
$DIMALTF
 40
25.4
  9
$DIMLFAC
 40
1.0
  9
$LUNITS
 70
     2
  9
$LUPREC
 70
     4
  9
$AXISMODE
 70
     0
  9
$AXISUNIT
 10
0.0
 20
0.0
  9
$SKETCHINC
 40
0.1
  9
$FILLETRAD
 40
0.0
  9
$AUNITS
 70
     0
  9
$AUPREC
 70
     0
  9
$MENU
  1
acad
  9
$ELEVATION
 40
0.0
  9
$THICKNESS
 40
0.0
  9
$VIEWDIR
 10
0.0
 20
0.0
 30
1.0
  9
$LIMCHECK
 70
     0
  9
$BLIPMODE
 70
     1
  9
$CHAMFERA
 40
0.0
  9
$CHAMFERB
 40
0.0
  9
$FASTZOOM
 70
     1
  9
$SKPOLY
 70
     0
  9
$TDCREATE
 40
2447222.5666886573
  9
$TDUPDATE
 40
2447222.5666886573
  9
$TDINDWG
 40
0.0000000000
  9
$TDUSRTIMER
 40
0.0000000000
  9
$USRTIMER
 70
     1
  9
$ANGBASE
 50
0.0
  9
$ANGDIR
 70
     0
  9
$PDMODE
 70
     0
  9
$PDSIZE
 40
0.0
  9
$PLINEWID
 40
0.0
  9
$COORDS
 70
     0
  9
$SPLFRAME
 70
     0
  9
$SPLINESEGS
 70
     8
  9
$ATTDIA
 70
     0
  9
$ATTREQ
 70
     1
  9
$USERI1
 70
     0
  9
$USERI2
 70
     0
  9
$USERI3
 70
     0
  9
$USERI4
 70
     0
  9
$USERI5
 70
     0
  9
$USERR1
 40
0.0
  9
$USERR2
 40
0.0
  9
$USERR3
 40
0.0
  9
$USERR4
 40
0.0
  9
$USERR5
 40
0.0
  0
ENDSEC
  0
SECTION
  2
TABLES
  0
TABLE
  2
LTYPE
 70
     13
  0
LTYPE
  2
CONTINUOUS
 70
    64
  3
Solid line
 72
    65
 73
     0
 40
0.0
  0
LTYPE
  2
DASHED
 70
    64
  3
__ __ __ __ __ __ __ __ __ __ __ __ __ __ __
 72
    65
 73
     2
 40
0.75
 49
0.5
 49
-0.25
  0
LTYPE
  2
HIDDEN
 70
    64
  3
_ _ _ _ _ _ _ _ _ _ _ _ _ _ _ _ _ _ _ _ _ _ _
 72
    65
 73
     2
 40
0.375
 49
0.25
 49
-0.125
  0
LTYPE
  2
CENTER
 70
    64
  3
____ _ ____ _ ____ _ ____ _ ____ _ ____ _ ____
 72
    65
 73
     4
 40
2.0
 49
1.25
 49
-0.25
 49
0.25
 49
-0.25
  0
LTYPE
  2
PHANTOM
 70
    64
  3
_____ _ _ _____ _ _ _____ _ _ _____ _ _ ____
 72
    65
 73
     6
 40
2.5
 49
1.25
 49
-0.25
 49
0.25
 49
-0.25
 49
0.25
 49
-0.25
  0
LTYPE
  2
DOT
 70
    64
  3
...............................................
 72
    65
 73
     2
 40
0.25
 49
0.0
 49
-0.25
  0
LTYPE
  2
DASHDOT
 70
    64
  3
__ . __ . __ . __ . __ . __ . __ . __ . __ . __
 72
    65
 73
     4
 40
1.0
 49
0.5
 49
-0.25
 49
0.0
 49
-0.25
  0
LTYPE
  2
BORDER
 70
    64
  3
__ __ . __ __ . __ __ . __ __ . __ __ . __ __
 72
    65
 73
     6
 40
1.75
 49
0.5
 49
-0.25
 49
0.5
 49
-0.25
 49
0.0
 49
-0.25
  0
LTYPE
  2
DIVIDE
 70
    64
  3
__ . . __ . . __ . . __ . . __ . . __ . . __
 72
    65
 73
     6
 40
1.25
 49
0.5
 49
-0.25
 49
0.0
 49
-0.25
 49
0.0
 49
-0.25
  0
LTYPE
  2
DCTYPE1
 70
    64
  3
__ . . __ . . __ . . __ . . __ . . __ . . __
 72
    65
 73
     8
 40
2.5
 49
0.5
 49
-0.25
 49
0.125
 49
-0.25
 49
0.25
 49
-0.25
 49
0.125
 49
-0.25
  0
LTYPE
  2
DCTYPE2
 70
    64
  3
__ . . __ . . __ . . __ . . __ . . __ . . __
 72
    65
 73
     6
 40
2.05
 49
1.0
 49
-0.3
 49
0.15
 49
-0.15
 49
0.15
 49
-0.3
  0
LTYPE
  2
DCTYPE3
 70
    64
  3
__ . . __ . . __ . . __ . . __ . . __ . . __
 72
    65
 73
     6
 40
2.5
 49
0.8
 49
-0.2
 49
0.8
 49
-0.2
 49
0.3
 49
-0.2
  0
LTYPE
  2
DCTYPE4
 70
    64
  3
__ . . __ . . __ . . __ . . __ . . __ . . __
 72
    65
 73
     10
 40
3.97
 49
1.75
 49
-0.3
 49
0.3
 49
-0.3
 49
0.06
 49
-0.3
 49
0.06
 49
-0.3
 49
0.3
 49
-0.3
  0
ENDTAB
  0
TABLE
  2
LAYER
 70
    153
  0
LAYER
  2
0
 70
 64
 62
     7
  6
CONTINUOUS
  0
ENDTAB
  0
ENDSEC
  0
SECTION
  2
BLOCKS
  0
ENDSEC
  0
SECTION
  2
ENTITIES
  0
TEXT
  8
0
 62
     7
 10
0.0404
 20
3.8260
 40
0.7149
 50
0.0000
 51
0.0000
  1
DAVIS A93B17
 72
     5
 11
8.0404
 21
3.8260
  0
POLYLINE
  8
0
 62
     3
 66
     1
  6
CONTINUOUS
  0
VERTEX
  8
0
 62
     3
  6
CONTINUOUS
 10
0.0404
 20
0.6260
  0
VERTEX
  8
0
 62
     3
  6
CONTINUOUS
 10
0.0472
 20
0.6414
  0
VERTEX
  8
0
 62
     3
  6
CONTINUOUS
 10
0.0541
 20
0.6567
  0
VERTEX
  8
0
 62
     3
  6
CONTINUOUS
 10
0.0611
 20
0.6719
  0
VERTEX
  8
0
 62
     3
  6
CONTINUOUS
 10
0.0683
 20
0.6870
  0
VERTEX
  8
0
 62
     3
  6
CONTINUOUS
 10
0.0758
 20
0.7018
  0
VERTEX
  8
0
 62
     3
  6
CONTINUOUS
 10
0.0835
 20
0.7163
  0
VERTEX
  8
0
 62
     3
  6
CONTINUOUS
 10
0.0917
 20
0.7304
  0
VERTEX
  8
0
 62
     3
  6
CONTINUOUS
 10
0.1003
 20
0.7442
  0
VERTEX
  8
0
 62
     3
  6
CONTINUOUS
 10
0.1094
 20
0.7575
  0
VERTEX
  8
0
 62
     3
  6
CONTINUOUS
 10
0.1191
 20
0.7703
  0
VERTEX
  8
0
 62
     3
  6
CONTINUOUS
 10
0.1294
 20
0.7825
  0
VERTEX
  8
0
 62
     3
  6
CONTINUOUS
 10
0.1404
 20
0.7940
  0
VERTEX
  8
0
 62
     3
  6
CONTINUOUS
 10
0.1477
 20
0.8009
  0
VERTEX
  8
0
 62
     3
  6
CONTINUOUS
 10
0.1553
 20
0.8076
  0
VERTEX
  8
0
 62
     3
  6
CONTINUOUS
 10
0.1632
 20
0.8141
  0
VERTEX
  8
0
 62
     3
  6
CONTINUOUS
 10
0.1713
 20
0.8203
  0
VERTEX
  8
0
 62
     3
  6
CONTINUOUS
 10
0.1795
 20
0.8264
  0
VERTEX
  8
0
 62
     3
  6
CONTINUOUS
 10
0.1879
 20
0.8323
  0
VERTEX
  8
0
 62
     3
  6
CONTINUOUS
 10
0.1965
 20
0.8381
  0
VERTEX
  8
0
 62
     3
  6
CONTINUOUS
 10
0.2052
 20
0.8438
  0
VERTEX
  8
0
 62
     3
  6
CONTINUOUS
 10
0.2139
 20
0.8494
  0
VERTEX
  8
0
 62
     3
  6
CONTINUOUS
 10
0.2227
 20
0.8550
  0
VERTEX
  8
0
 62
     3
  6
CONTINUOUS
 10
0.2316
 20
0.8605
  0
VERTEX
  8
0
 62
     3
  6
CONTINUOUS
 10
0.2404
 20
0.8660
  0
VERTEX
  8
0
 62
     3
  6
CONTINUOUS
 10
0.2570
 20
0.8765
  0
VERTEX
  8
0
 62
     3
  6
CONTINUOUS
 10
0.2736
 20
0.8870
  0
VERTEX
  8
0
 62
     3
  6
CONTINUOUS
 10
0.2901
 20
0.8975
  0
VERTEX
  8
0
 62
     3
  6
CONTINUOUS
 10
0.3066
 20
0.9080
  0
VERTEX
  8
0
 62
     3
  6
CONTINUOUS
 10
0.3230
 20
0.9184
  0
VERTEX
  8
0
 62
     3
  6
CONTINUOUS
 10
0.3395
 20
0.9287
  0
VERTEX
  8
0
 62
     3
  6
CONTINUOUS
 10
0.3561
 20
0.9388
  0
VERTEX
  8
0
 62
     3
  6
CONTINUOUS
 10
0.3727
 20
0.9487
  0
VERTEX
  8
0
 62
     3
  6
CONTINUOUS
 10
0.3894
 20
0.9585
  0
VERTEX
  8
0
 62
     3
  6
CONTINUOUS
 10
0.4062
 20
0.9680
  0
VERTEX
  8
0
 62
     3
  6
CONTINUOUS
 10
0.4232
 20
0.9772
  0
VERTEX
  8
0
 62
     3
  6
CONTINUOUS
 10
0.4404
 20
0.9860
  0
VERTEX
  8
0
 62
     3
  6
CONTINUOUS
 10
0.4564
 20
0.9939
  0
VERTEX
  8
0
 62
     3
  6
CONTINUOUS
 10
0.4726
 20
1.0015
  0
VERTEX
  8
0
 62
     3
  6
CONTINUOUS
 10
0.4890
 20
1.0088
  0
VERTEX
  8
0
 62
     3
  6
CONTINUOUS
 10
0.5055
 20
1.0159
  0
VERTEX
  8
0
 62
     3
  6
CONTINUOUS
 10
0.5221
 20
1.0227
  0
VERTEX
  8
0
 62
     3
  6
CONTINUOUS
 10
0.5388
 20
1.0293
  0
VERTEX
  8
0
 62
     3
  6
CONTINUOUS
 10
0.5556
 20
1.0358
  0
VERTEX
  8
0
 62
     3
  6
CONTINUOUS
 10
0.5724
 20
1.0421
  0
VERTEX
  8
0
 62
     3
  6
CONTINUOUS
 10
0.5894
 20
1.0482
  0
VERTEX
  8
0
 62
     3
  6
CONTINUOUS
 10
0.6064
 20
1.0543
  0
VERTEX
  8
0
 62
     3
  6
CONTINUOUS
 10
0.6234
 20
1.0602
  0
VERTEX
  8
0
 62
     3
  6
CONTINUOUS
 10
0.6404
 20
1.0660
  0
VERTEX
  8
0
 62
     3
  6
CONTINUOUS
 10
0.6570
 20
1.0716
  0
VERTEX
  8
0
 62
     3
  6
CONTINUOUS
 10
0.6736
 20
1.0772
  0
VERTEX
  8
0
 62
     3
  6
CONTINUOUS
 10
0.6903
 20
1.0827
  0
VERTEX
  8
0
 62
     3
  6
CONTINUOUS
 10
0.7069
 20
1.0882
  0
VERTEX
  8
0
 62
     3
  6
CONTINUOUS
 10
0.7236
 20
1.0936
  0
VERTEX
  8
0
 62
     3
  6
CONTINUOUS
 10
0.7402
 20
1.0989
  0
VERTEX
  8
0
 62
     3
  6
CONTINUOUS
 10
0.7569
 20
1.1042
  0
VERTEX
  8
0
 62
     3
  6
CONTINUOUS
 10
0.7736
 20
1.1095
  0
VERTEX
  8
0
 62
     3
  6
CONTINUOUS
 10
0.7903
 20
1.1147
  0
VERTEX
  8
0
 62
     3
  6
CONTINUOUS
 10
0.8070
 20
1.1198
  0
VERTEX
  8
0
 62
     3
  6
CONTINUOUS
 10
0.8237
 20
1.1249
  0
VERTEX
  8
0
 62
     3
  6
CONTINUOUS
 10
0.8404
 20
1.1300
  0
VERTEX
  8
0
 62
     3
  6
CONTINUOUS
 10
0.9061
 20
1.1495
  0
VERTEX
  8
0
 62
     3
  6
CONTINUOUS
 10
0.9720
 20
1.1683
  0
VERTEX
  8
0
 62
     3
  6
CONTINUOUS
 10
1.0381
 20
1.1864
  0
VERTEX
  8
0
 62
     3
  6
CONTINUOUS
 10
1.1044
 20
1.2039
  0
VERTEX
  8
0
 62
     3
  6
CONTINUOUS
 10
1.1709
 20
1.2208
  0
VERTEX
  8
0
 62
     3
  6
CONTINUOUS
 10
1.2375
 20
1.2371
  0
VERTEX
  8
0
 62
     3
  6
CONTINUOUS
 10
1.3043
 20
1.2528
  0
VERTEX
  8
0
 62
     3
  6
CONTINUOUS
 10
1.3713
 20
1.2678
  0
VERTEX
  8
0
 62
     3
  6
CONTINUOUS
 10
1.4384
 20
1.2823
  0
VERTEX
  8
0
 62
     3
  6
CONTINUOUS
 10
1.5056
 20
1.2961
  0
VERTEX
  8
0
 62
     3
  6
CONTINUOUS
 10
1.5729
 20
1.3093
  0
VERTEX
  8
0
 62
     3
  6
CONTINUOUS
 10
1.6404
 20
1.3220
  0
VERTEX
  8
0
 62
     3
  6
CONTINUOUS
 10
1.7066
 20
1.3339
  0
VERTEX
  8
0
 62
     3
  6
CONTINUOUS
 10
1.7730
 20
1.3452
  0
VERTEX
  8
0
 62
     3
  6
CONTINUOUS
 10
1.8394
 20
1.3559
  0
VERTEX
  8
0
 62
     3
  6
CONTINUOUS
 10
1.9059
 20
1.3660
  0
VERTEX
  8
0
 62
     3
  6
CONTINUOUS
 10
1.9725
 20
1.3756
  0
VERTEX
  8
0
 62
     3
  6
CONTINUOUS
 10
2.0392
 20
1.3846
  0
VERTEX
  8
0
 62
     3
  6
CONTINUOUS
 10
2.1059
 20
1.3930
  0
VERTEX
  8
0
 62
     3
  6
CONTINUOUS
 10
2.1727
 20
1.4008
  0
VERTEX
  8
0
 62
     3
  6
CONTINUOUS
 10
2.2395
 20
1.4080
  0
VERTEX
  8
0
 62
     3
  6
CONTINUOUS
 10
2.3064
 20
1.4146
  0
VERTEX
  8
0
 62
     3
  6
CONTINUOUS
 10
2.3734
 20
1.4206
  0
VERTEX
  8
0
 62
     3
  6
CONTINUOUS
 10
2.4404
 20
1.4260
  0
VERTEX
  8
0
 62
     3
  6
CONTINUOUS
 10
2.5069
 20
1.4308
  0
VERTEX
  8
0
 62
     3
  6
CONTINUOUS
 10
2.5735
 20
1.4349
  0
VERTEX
  8
0
 62
     3
  6
CONTINUOUS
 10
2.6401
 20
1.4385
  0
VERTEX
  8
0
 62
     3
  6
CONTINUOUS
 10
2.7067
 20
1.4416
  0
VERTEX
  8
0
 62
     3
  6
CONTINUOUS
 10
2.7734
 20
1.4442
  0
VERTEX
  8
0
 62
     3
  6
CONTINUOUS
 10
2.8401
 20
1.4463
  0
VERTEX
  8
0
 62
     3
  6
CONTINUOUS
 10
2.9068
 20
1.4479
  0
VERTEX
  8
0
 62
     3
  6
CONTINUOUS
 10
2.9735
 20
1.4491
  0
VERTEX
  8
0
 62
     3
  6
CONTINUOUS
 10
3.0402
 20
1.4499
  0
VERTEX
  8
0
 62
     3
  6
CONTINUOUS
 10
3.1069
 20
1.4503
  0
VERTEX
  8
0
 62
     3
  6
CONTINUOUS
 10
3.1737
 20
1.4503
  0
VERTEX
  8
0
 62
     3
  6
CONTINUOUS
 10
3.2404
 20
1.4500
  0
VERTEX
  8
0
 62
     3
  6
CONTINUOUS
 10
3.3072
 20
1.4494
  0
VERTEX
  8
0
 62
     3
  6
CONTINUOUS
 10
3.3739
 20
1.4485
  0
VERTEX
  8
0
 62
     3
  6
CONTINUOUS
 10
3.4407
 20
1.4472
  0
VERTEX
  8
0
 62
     3
  6
CONTINUOUS
 10
3.5074
 20
1.4456
  0
VERTEX
  8
0
 62
     3
  6
CONTINUOUS
 10
3.5741
 20
1.4436
  0
VERTEX
  8
0
 62
     3
  6
CONTINUOUS
 10
3.6408
 20
1.4412
  0
VERTEX
  8
0
 62
     3
  6
CONTINUOUS
 10
3.7075
 20
1.4384
  0
VERTEX
  8
0
 62
     3
  6
CONTINUOUS
 10
3.7741
 20
1.4352
  0
VERTEX
  8
0
 62
     3
  6
CONTINUOUS
 10
3.8407
 20
1.4316
  0
VERTEX
  8
0
 62
     3
  6
CONTINUOUS
 10
3.9073
 20
1.4275
  0
VERTEX
  8
0
 62
     3
  6
CONTINUOUS
 10
3.9739
 20
1.4230
  0
VERTEX
  8
0
 62
     3
  6
CONTINUOUS
 10
4.0404
 20
1.4180
  0
VERTEX
  8
0
 62
     3
  6
CONTINUOUS
 10
4.1072
 20
1.4125
  0
VERTEX
  8
0
 62
     3
  6
CONTINUOUS
 10
4.1740
 20
1.4066
  0
VERTEX
  8
0
 62
     3
  6
CONTINUOUS
 10
4.2408
 20
1.4002
  0
VERTEX
  8
0
 62
     3
  6
CONTINUOUS
 10
4.3075
 20
1.3934
  0
VERTEX
  8
0
 62
     3
  6
CONTINUOUS
 10
4.3742
 20
1.3863
  0
VERTEX
  8
0
 62
     3
  6
CONTINUOUS
 10
4.4409
 20
1.3789
  0
VERTEX
  8
0
 62
     3
  6
CONTINUOUS
 10
4.5075
 20
1.3712
  0
VERTEX
  8
0
 62
     3
  6
CONTINUOUS
 10
4.5741
 20
1.3633
  0
VERTEX
  8
0
 62
     3
  6
CONTINUOUS
 10
4.6407
 20
1.3552
  0
VERTEX
  8
0
 62
     3
  6
CONTINUOUS
 10
4.7073
 20
1.3469
  0
VERTEX
  8
0
 62
     3
  6
CONTINUOUS
 10
4.7739
 20
1.3385
  0
VERTEX
  8
0
 62
     3
  6
CONTINUOUS
 10
4.8404
 20
1.3300
  0
VERTEX
  8
0
 62
     3
  6
CONTINUOUS
 10
4.9072
 20
1.3214
  0
VERTEX
  8
0
 62
     3
  6
CONTINUOUS
 10
4.9740
 20
1.3128
  0
VERTEX
  8
0
 62
     3
  6
CONTINUOUS
 10
5.0407
 20
1.3040
  0
VERTEX
  8
0
 62
     3
  6
CONTINUOUS
 10
5.1074
 20
1.2951
  0
VERTEX
  8
0
 62
     3
  6
CONTINUOUS
 10
5.1742
 20
1.2861
  0
VERTEX
  8
0
 62
     3
  6
CONTINUOUS
 10
5.2408
 20
1.2770
  0
VERTEX
  8
0
 62
     3
  6
CONTINUOUS
 10
5.3075
 20
1.2677
  0
VERTEX
  8
0
 62
     3
  6
CONTINUOUS
 10
5.3742
 20
1.2582
  0
VERTEX
  8
0
 62
     3
  6
CONTINUOUS
 10
5.4408
 20
1.2485
  0
VERTEX
  8
0
 62
     3
  6
CONTINUOUS
 10
5.5073
 20
1.2386
  0
VERTEX
  8
0
 62
     3
  6
CONTINUOUS
 10
5.5739
 20
1.2284
  0
VERTEX
  8
0
 62
     3
  6
CONTINUOUS
 10
5.6404
 20
1.2180
  0
VERTEX
  8
0
 62
     3
  6
CONTINUOUS
 10
5.7074
 20
1.2072
  0
VERTEX
  8
0
 62
     3
  6
CONTINUOUS
 10
5.7744
 20
1.1962
  0
VERTEX
  8
0
 62
     3
  6
CONTINUOUS
 10
5.8413
 20
1.1848
  0
VERTEX
  8
0
 62
     3
  6
CONTINUOUS
 10
5.9082
 20
1.1731
  0
VERTEX
  8
0
 62
     3
  6
CONTINUOUS
 10
5.9750
 20
1.1610
  0
VERTEX
  8
0
 62
     3
  6
CONTINUOUS
 10
6.0417
 20
1.1486
  0
VERTEX
  8
0
 62
     3
  6
CONTINUOUS
 10
6.1084
 20
1.1358
  0
VERTEX
  8
0
 62
     3
  6
CONTINUOUS
 10
6.1749
 20
1.1227
  0
VERTEX
  8
0
 62
     3
  6
CONTINUOUS
 10
6.2414
 20
1.1091
  0
VERTEX
  8
0
 62
     3
  6
CONTINUOUS
 10
6.3079
 20
1.0952
  0
VERTEX
  8
0
 62
     3
  6
CONTINUOUS
 10
6.3742
 20
1.0808
  0
VERTEX
  8
0
 62
     3
  6
CONTINUOUS
 10
6.4404
 20
1.0660
  0
VERTEX
  8
0
 62
     3
  6
CONTINUOUS
 10
6.5075
 20
1.0505
  0
VERTEX
  8
0
 62
     3
  6
CONTINUOUS
 10
6.5745
 20
1.0346
  0
VERTEX
  8
0
 62
     3
  6
CONTINUOUS
 10
6.6415
 20
1.0183
  0
VERTEX
  8
0
 62
     3
  6
CONTINUOUS
 10
6.7083
 20
1.0016
  0
VERTEX
  8
0
 62
     3
  6
CONTINUOUS
 10
6.7750
 20
0.9846
  0
VERTEX
  8
0
 62
     3
  6
CONTINUOUS
 10
6.8417
 20
0.9672
  0
VERTEX
  8
0
 62
     3
  6
CONTINUOUS
 10
6.9083
 20
0.9496
  0
VERTEX
  8
0
 62
     3
  6
CONTINUOUS
 10
6.9748
 20
0.9317
  0
VERTEX
  8
0
 62
     3
  6
CONTINUOUS
 10
7.0413
 20
0.9135
  0
VERTEX
  8
0
 62
     3
  6
CONTINUOUS
 10
7.1077
 20
0.8952
  0
VERTEX
  8
0
 62
     3
  6
CONTINUOUS
 10
7.1741
 20
0.8767
  0
VERTEX
  8
0
 62
     3
  6
CONTINUOUS
 10
7.2404
 20
0.8580
  0
VERTEX
  8
0
 62
     3
  6
CONTINUOUS
 10
7.3072
 20
0.8391
  0
VERTEX
  8
0
 62
     3
  6
CONTINUOUS
 10
7.3740
 20
0.8201
  0
VERTEX
  8
0
 62
     3
  6
CONTINUOUS
 10
7.4407
 20
0.8009
  0
VERTEX
  8
0
 62
     3
  6
CONTINUOUS
 10
7.5074
 20
0.7817
  0
VERTEX
  8
0
 62
     3
  6
CONTINUOUS
 10
7.5741
 20
0.7624
  0
VERTEX
  8
0
 62
     3
  6
CONTINUOUS
 10
7.6407
 20
0.7431
  0
VERTEX
  8
0
 62
     3
  6
CONTINUOUS
 10
7.7074
 20
0.7237
  0
VERTEX
  8
0
 62
     3
  6
CONTINUOUS
 10
7.7740
 20
0.7042
  0
VERTEX
  8
0
 62
     3
  6
CONTINUOUS
 10
7.8406
 20
0.6847
  0
VERTEX
  8
0
 62
     3
  6
CONTINUOUS
 10
7.9072
 20
0.6651
  0
VERTEX
  8
0
 62
     3
  6
CONTINUOUS
 10
7.9738
 20
0.6456
  0
VERTEX
  8
0
 62
     3
  6
CONTINUOUS
 10
8.0404
 20
0.6260
  0
SEQEND
  8
0
  0
POLYLINE
  8
0
 62
     1
 66
     1
  6
CONTINUOUS
  0
VERTEX
  8
0
 62
     1
  6
CONTINUOUS
 10
0.0404
 20
0.6260
  0
VERTEX
  8
0
 62
     1
  6
CONTINUOUS
 10
0.0484
 20
0.6203
  0
VERTEX
  8
0
 62
     1
  6
CONTINUOUS
 10
0.0564
 20
0.6146
  0
VERTEX
  8
0
 62
     1
  6
CONTINUOUS
 10
0.0645
 20
0.6090
  0
VERTEX
  8
0
 62
     1
  6
CONTINUOUS
 10
0.0726
 20
0.6035
  0
VERTEX
  8
0
 62
     1
  6
CONTINUOUS
 10
0.0807
 20
0.5983
  0
VERTEX
  8
0
 62
     1
  6
CONTINUOUS
 10
0.0889
 20
0.5932
  0
VERTEX
  8
0
 62
     1
  6
CONTINUOUS
 10
0.0972
 20
0.5884
  0
VERTEX
  8
0
 62
     1
  6
CONTINUOUS
 10
0.1056
 20
0.5839
  0
VERTEX
  8
0
 62
     1
  6
CONTINUOUS
 10
0.1141
 20
0.5798
  0
VERTEX
  8
0
 62
     1
  6
CONTINUOUS
 10
0.1227
 20
0.5761
  0
VERTEX
  8
0
 62
     1
  6
CONTINUOUS
 10
0.1315
 20
0.5728
  0
VERTEX
  8
0
 62
     1
  6
CONTINUOUS
 10
0.1404
 20
0.5700
  0
VERTEX
  8
0
 62
     1
  6
CONTINUOUS
 10
0.1483
 20
0.5680
  0
VERTEX
  8
0
 62
     1
  6
CONTINUOUS
 10
0.1564
 20
0.5664
  0
VERTEX
  8
0
 62
     1
  6
CONTINUOUS
 10
0.1645
 20
0.5651
  0
VERTEX
  8
0
 62
     1
  6
CONTINUOUS
 10
0.1728
 20
0.5641
  0
VERTEX
  8
0
 62
     1
  6
CONTINUOUS
 10
0.1811
 20
0.5633
  0
VERTEX
  8
0
 62
     1
  6
CONTINUOUS
 10
0.1895
 20
0.5628
  0
VERTEX
  8
0
 62
     1
  6
CONTINUOUS
 10
0.1979
 20
0.5624
  0
VERTEX
  8
0
 62
     1
  6
CONTINUOUS
 10
0.2064
 20
0.5622
  0
VERTEX
  8
0
 62
     1
  6
CONTINUOUS
 10
0.2149
 20
0.5621
  0
VERTEX
  8
0
 62
     1
  6
CONTINUOUS
 10
0.2234
 20
0.5621
  0
VERTEX
  8
0
 62
     1
  6
CONTINUOUS
 10
0.2319
 20
0.5620
  0
VERTEX
  8
0
 62
     1
  6
CONTINUOUS
 10
0.2404
 20
0.5620
  0
VERTEX
  8
0
 62
     1
  6
CONTINUOUS
 10
0.2573
 20
0.5618
  0
VERTEX
  8
0
 62
     1
  6
CONTINUOUS
 10
0.2742
 20
0.5614
  0
VERTEX
  8
0
 62
     1
  6
CONTINUOUS
 10
0.2909
 20
0.5609
  0
VERTEX
  8
0
 62
     1
  6
CONTINUOUS
 10
0.3077
 20
0.5603
  0
VERTEX
  8
0
 62
     1
  6
CONTINUOUS
 10
0.3243
 20
0.5595
  0
VERTEX
  8
0
 62
     1
  6
CONTINUOUS
 10
0.3410
 20
0.5587
  0
VERTEX
  8
0
 62
     1
  6
CONTINUOUS
 10
0.3575
 20
0.5579
  0
VERTEX
  8
0
 62
     1
  6
CONTINUOUS
 10
0.3741
 20
0.5570
  0
VERTEX
  8
0
 62
     1
  6
CONTINUOUS
 10
0.3907
 20
0.5562
  0
VERTEX
  8
0
 62
     1
  6
CONTINUOUS
 10
0.4073
 20
0.5554
  0
VERTEX
  8
0
 62
     1
  6
CONTINUOUS
 10
0.4238
 20
0.5547
  0
VERTEX
  8
0
 62
     1
  6
CONTINUOUS
 10
0.4404
 20
0.5540
  0
VERTEX
  8
0
 62
     1
  6
CONTINUOUS
 10
0.4570
 20
0.5535
  0
VERTEX
  8
0
 62
     1
  6
CONTINUOUS
 10
0.4736
 20
0.5531
  0
VERTEX
  8
0
 62
     1
  6
CONTINUOUS
 10
0.4903
 20
0.5528
  0
VERTEX
  8
0
 62
     1
  6
CONTINUOUS
 10
0.5069
 20
0.5526
  0
VERTEX
  8
0
 62
     1
  6
CONTINUOUS
 10
0.5236
 20
0.5525
  0
VERTEX
  8
0
 62
     1
  6
CONTINUOUS
 10
0.5402
 20
0.5525
  0
VERTEX
  8
0
 62
     1
  6
CONTINUOUS
 10
0.5569
 20
0.5526
  0
VERTEX
  8
0
 62
     1
  6
CONTINUOUS
 10
0.5736
 20
0.5527
  0
VERTEX
  8
0
 62
     1
  6
CONTINUOUS
 10
0.5903
 20
0.5530
  0
VERTEX
  8
0
 62
     1
  6
CONTINUOUS
 10
0.6070
 20
0.5533
  0
VERTEX
  8
0
 62
     1
  6
CONTINUOUS
 10
0.6237
 20
0.5536
  0
VERTEX
  8
0
 62
     1
  6
CONTINUOUS
 10
0.6404
 20
0.5540
  0
VERTEX
  8
0
 62
     1
  6
CONTINUOUS
 10
0.6571
 20
0.5545
  0
VERTEX
  8
0
 62
     1
  6
CONTINUOUS
 10
0.6738
 20
0.5550
  0
VERTEX
  8
0
 62
     1
  6
CONTINUOUS
 10
0.6905
 20
0.5555
  0
VERTEX
  8
0
 62
     1
  6
CONTINUOUS
 10
0.7071
 20
0.5561
  0
VERTEX
  8
0
 62
     1
  6
CONTINUOUS
 10
0.7238
 20
0.5567
  0
VERTEX
  8
0
 62
     1
  6
CONTINUOUS
 10
0.7405
 20
0.5573
  0
VERTEX
  8
0
 62
     1
  6
CONTINUOUS
 10
0.7571
 20
0.5580
  0
VERTEX
  8
0
 62
     1
  6
CONTINUOUS
 10
0.7738
 20
0.5588
  0
VERTEX
  8
0
 62
     1
  6
CONTINUOUS
 10
0.7905
 20
0.5595
  0
VERTEX
  8
0
 62
     1
  6
CONTINUOUS
 10
0.8071
 20
0.5603
  0
VERTEX
  8
0
 62
     1
  6
CONTINUOUS
 10
0.8238
 20
0.5611
  0
VERTEX
  8
0
 62
     1
  6
CONTINUOUS
 10
0.8404
 20
0.5620
  0
VERTEX
  8
0
 62
     1
  6
CONTINUOUS
 10
0.9071
 20
0.5658
  0
VERTEX
  8
0
 62
     1
  6
CONTINUOUS
 10
0.9739
 20
0.5700
  0
VERTEX
  8
0
 62
     1
  6
CONTINUOUS
 10
1.0406
 20
0.5746
  0
VERTEX
  8
0
 62
     1
  6
CONTINUOUS
 10
1.1072
 20
0.5796
  0
VERTEX
  8
0
 62
     1
  6
CONTINUOUS
 10
1.1739
 20
0.5849
  0
VERTEX
  8
0
 62
     1
  6
CONTINUOUS
 10
1.2406
 20
0.5904
  0
VERTEX
  8
0
 62
     1
  6
CONTINUOUS
 10
1.3072
 20
0.5961
  0
VERTEX
  8
0
 62
     1
  6
CONTINUOUS
 10
1.3739
 20
0.6020
  0
VERTEX
  8
0
 62
     1
  6
CONTINUOUS
 10
1.4405
 20
0.6080
  0
VERTEX
  8
0
 62
     1
  6
CONTINUOUS
 10
1.5071
 20
0.6140
  0
VERTEX
  8
0
 62
     1
  6
CONTINUOUS
 10
1.5738
 20
0.6200
  0
VERTEX
  8
0
 62
     1
  6
CONTINUOUS
 10
1.6404
 20
0.6260
  0
VERTEX
  8
0
 62
     1
  6
CONTINUOUS
 10
1.7070
 20
0.6319
  0
VERTEX
  8
0
 62
     1
  6
CONTINUOUS
 10
1.7737
 20
0.6377
  0
VERTEX
  8
0
 62
     1
  6
CONTINUOUS
 10
1.8403
 20
0.6434
  0
VERTEX
  8
0
 62
     1
  6
CONTINUOUS
 10
1.9070
 20
0.6490
  0
VERTEX
  8
0
 62
     1
  6
CONTINUOUS
 10
1.9736
 20
0.6545
  0
VERTEX
  8
0
 62
     1
  6
CONTINUOUS
 10
2.0403
 20
0.6599
  0
VERTEX
  8
0
 62
     1
  6
CONTINUOUS
 10
2.1070
 20
0.6652
  0
VERTEX
  8
0
 62
     1
  6
CONTINUOUS
 10
2.1736
 20
0.6704
  0
VERTEX
  8
0
 62
     1
  6
CONTINUOUS
 10
2.2403
 20
0.6754
  0
VERTEX
  8
0
 62
     1
  6
CONTINUOUS
 10
2.3070
 20
0.6804
  0
VERTEX
  8
0
 62
     1
  6
CONTINUOUS
 10
2.3737
 20
0.6853
  0
VERTEX
  8
0
 62
     1
  6
CONTINUOUS
 10
2.4404
 20
0.6900
  0
VERTEX
  8
0
 62
     1
  6
CONTINUOUS
 10
2.5070
 20
0.6946
  0
VERTEX
  8
0
 62
     1
  6
CONTINUOUS
 10
2.5737
 20
0.6992
  0
VERTEX
  8
0
 62
     1
  6
CONTINUOUS
 10
2.6403
 20
0.7035
  0
VERTEX
  8
0
 62
     1
  6
CONTINUOUS
 10
2.7069
 20
0.7078
  0
VERTEX
  8
0
 62
     1
  6
CONTINUOUS
 10
2.7736
 20
0.7120
  0
VERTEX
  8
0
 62
     1
  6
CONTINUOUS
 10
2.8403
 20
0.7161
  0
VERTEX
  8
0
 62
     1
  6
CONTINUOUS
 10
2.9069
 20
0.7200
  0
VERTEX
  8
0
 62
     1
  6
CONTINUOUS
 10
2.9736
 20
0.7238
  0
VERTEX
  8
0
 62
     1
  6
CONTINUOUS
 10
3.0403
 20
0.7276
  0
VERTEX
  8
0
 62
     1
  6
CONTINUOUS
 10
3.1070
 20
0.7312
  0
VERTEX
  8
0
 62
     1
  6
CONTINUOUS
 10
3.1737
 20
0.7346
  0
VERTEX
  8
0
 62
     1
  6
CONTINUOUS
 10
3.2404
 20
0.7380
  0
VERTEX
  8
0
 62
     1
  6
CONTINUOUS
 10
3.3070
 20
0.7413
  0
VERTEX
  8
0
 62
     1
  6
CONTINUOUS
 10
3.3737
 20
0.7444
  0
VERTEX
  8
0
 62
     1
  6
CONTINUOUS
 10
3.4403
 20
0.7474
  0
VERTEX
  8
0
 62
     1
  6
CONTINUOUS
 10
3.5070
 20
0.7504
  0
VERTEX
  8
0
 62
     1
  6
CONTINUOUS
 10
3.5737
 20
0.7532
  0
VERTEX
  8
0
 62
     1
  6
CONTINUOUS
 10
3.6403
 20
0.7559
  0
VERTEX
  8
0
 62
     1
  6
CONTINUOUS
 10
3.7070
 20
0.7585
  0
VERTEX
  8
0
 62
     1
  6
CONTINUOUS
 10
3.7737
 20
0.7610
  0
VERTEX
  8
0
 62
     1
  6
CONTINUOUS
 10
3.8403
 20
0.7634
  0
VERTEX
  8
0
 62
     1
  6
CONTINUOUS
 10
3.9070
 20
0.7657
  0
VERTEX
  8
0
 62
     1
  6
CONTINUOUS
 10
3.9737
 20
0.7679
  0
VERTEX
  8
0
 62
     1
  6
CONTINUOUS
 10
4.0404
 20
0.7700
  0
VERTEX
  8
0
 62
     1
  6
CONTINUOUS
 10
4.1071
 20
0.7720
  0
VERTEX
  8
0
 62
     1
  6
CONTINUOUS
 10
4.1737
 20
0.7739
  0
VERTEX
  8
0
 62
     1
  6
CONTINUOUS
 10
4.2404
 20
0.7758
  0
VERTEX
  8
0
 62
     1
  6
CONTINUOUS
 10
4.3070
 20
0.7774
  0
VERTEX
  8
0
 62
     1
  6
CONTINUOUS
 10
4.3737
 20
0.7790
  0
VERTEX
  8
0
 62
     1
  6
CONTINUOUS
 10
4.4404
 20
0.7805
  0
VERTEX
  8
0
 62
     1
  6
CONTINUOUS
 10
4.5070
 20
0.7818
  0
VERTEX
  8
0
 62
     1
  6
CONTINUOUS
 10
4.5737
 20
0.7829
  0
VERTEX
  8
0
 62
     1
  6
CONTINUOUS
 10
4.6404
 20
0.7839
  0
VERTEX
  8
0
 62
     1
  6
CONTINUOUS
 10
4.7070
 20
0.7848
  0
VERTEX
  8
0
 62
     1
  6
CONTINUOUS
 10
4.7737
 20
0.7855
  0
VERTEX
  8
0
 62
     1
  6
CONTINUOUS
 10
4.8404
 20
0.7860
  0
VERTEX
  8
0
 62
     1
  6
CONTINUOUS
 10
4.9071
 20
0.7864
  0
VERTEX
  8
0
 62
     1
  6
CONTINUOUS
 10
4.9737
 20
0.7865
  0
VERTEX
  8
0
 62
     1
  6
CONTINUOUS
 10
5.0404
 20
0.7865
  0
VERTEX
  8
0
 62
     1
  6
CONTINUOUS
 10
5.1071
 20
0.7863
  0
VERTEX
  8
0
 62
     1
  6
CONTINUOUS
 10
5.1738
 20
0.7859
  0
VERTEX
  8
0
 62
     1
  6
CONTINUOUS
 10
5.2404
 20
0.7853
  0
VERTEX
  8
0
 62
     1
  6
CONTINUOUS
 10
5.3071
 20
0.7846
  0
VERTEX
  8
0
 62
     1
  6
CONTINUOUS
 10
5.3738
 20
0.7836
  0
VERTEX
  8
0
 62
     1
  6
CONTINUOUS
 10
5.4404
 20
0.7825
  0
VERTEX
  8
0
 62
     1
  6
CONTINUOUS
 10
5.5071
 20
0.7812
  0
VERTEX
  8
0
 62
     1
  6
CONTINUOUS
 10
5.5738
 20
0.7797
  0
VERTEX
  8
0
 62
     1
  6
CONTINUOUS
 10
5.6404
 20
0.7780
  0
VERTEX
  8
0
 62
     1
  6
CONTINUOUS
 10
5.7071
 20
0.7761
  0
VERTEX
  8
0
 62
     1
  6
CONTINUOUS
 10
5.7738
 20
0.7741
  0
VERTEX
  8
0
 62
     1
  6
CONTINUOUS
 10
5.8405
 20
0.7719
  0
VERTEX
  8
0
 62
     1
  6
CONTINUOUS
 10
5.9071
 20
0.7695
  0
VERTEX
  8
0
 62
     1
  6
CONTINUOUS
 10
5.9738
 20
0.7669
  0
VERTEX
  8
0
 62
     1
  6
CONTINUOUS
 10
6.0405
 20
0.7643
  0
VERTEX
  8
0
 62
     1
  6
CONTINUOUS
 10
6.1071
 20
0.7615
  0
VERTEX
  8
0
 62
     1
  6
CONTINUOUS
 10
6.1738
 20
0.7586
  0
VERTEX
  8
0
 62
     1
  6
CONTINUOUS
 10
6.2405
 20
0.7556
  0
VERTEX
  8
0
 62
     1
  6
CONTINUOUS
 10
6.3071
 20
0.7525
  0
VERTEX
  8
0
 62
     1
  6
CONTINUOUS
 10
6.3738
 20
0.7493
  0
VERTEX
  8
0
 62
     1
  6
CONTINUOUS
 10
6.4404
 20
0.7460
  0
VERTEX
  8
0
 62
     1
  6
CONTINUOUS
 10
6.5071
 20
0.7427
  0
VERTEX
  8
0
 62
     1
  6
CONTINUOUS
 10
6.5738
 20
0.7393
  0
VERTEX
  8
0
 62
     1
  6
CONTINUOUS
 10
6.6405
 20
0.7358
  0
VERTEX
  8
0
 62
     1
  6
CONTINUOUS
 10
6.7072
 20
0.7322
  0
VERTEX
  8
0
 62
     1
  6
CONTINUOUS
 10
6.7739
 20
0.7285
  0
VERTEX
  8
0
 62
     1
  6
CONTINUOUS
 10
6.8406
 20
0.7247
  0
VERTEX
  8
0
 62
     1
  6
CONTINUOUS
 10
6.9073
 20
0.7207
  0
VERTEX
  8
0
 62
     1
  6
CONTINUOUS
 10
6.9739
 20
0.7165
  0
VERTEX
  8
0
 62
     1
  6
CONTINUOUS
 10
7.0406
 20
0.7122
  0
VERTEX
  8
0
 62
     1
  6
CONTINUOUS
 10
7.1072
 20
0.7077
  0
VERTEX
  8
0
 62
     1
  6
CONTINUOUS
 10
7.1738
 20
0.7030
  0
VERTEX
  8
0
 62
     1
  6
CONTINUOUS
 10
7.2404
 20
0.6980
  0
VERTEX
  8
0
 62
     1
  6
CONTINUOUS
 10
7.3071
 20
0.6928
  0
VERTEX
  8
0
 62
     1
  6
CONTINUOUS
 10
7.3738
 20
0.6874
  0
VERTEX
  8
0
 62
     1
  6
CONTINUOUS
 10
7.4405
 20
0.6819
  0
VERTEX
  8
0
 62
     1
  6
CONTINUOUS
 10
7.5072
 20
0.6761
  0
VERTEX
  8
0
 62
     1
  6
CONTINUOUS
 10
7.5739
 20
0.6702
  0
VERTEX
  8
0
 62
     1
  6
CONTINUOUS
 10
7.6406
 20
0.6641
  0
VERTEX
  8
0
 62
     1
  6
CONTINUOUS
 10
7.7072
 20
0.6579
  0
VERTEX
  8
0
 62
     1
  6
CONTINUOUS
 10
7.7739
 20
0.6517
  0
VERTEX
  8
0
 62
     1
  6
CONTINUOUS
 10
7.8405
 20
0.6453
  0
VERTEX
  8
0
 62
     1
  6
CONTINUOUS
 10
7.9071
 20
0.6389
  0
VERTEX
  8
0
 62
     1
  6
CONTINUOUS
 10
7.9738
 20
0.6325
  0
VERTEX
  8
0
 62
     1
  6
CONTINUOUS
 10
8.0404
 20
0.6260
  0
SEQEND
  8
0
  0
ENDSEC
  0
EOF
