  0
SECTION
  2
HEADER
  9
$ACADVER
  1
AC1004
  9
$EXTMIN
 10
0.0505
 20
0.7229
  9
$EXTMAX
 10
10.0505
 20
5.7968
  9
$LIMMIN
 10
0.0505
 20
0.7229
  9
$LIMMAX
 10
10.0505
 20
5.7968
  9
$INSBASE
 10
0.0
 20
0.0
  9
$VIEWCTR
 10
7.21903
 20
4.5
  9
$VIEWSIZE
 40
9.0
  9
$SNAPMODE
 70
     0
  9
$SNAPUNIT
 10
1.0
 20
1.0
  9
$SNAPBASE
 10
0.0
 20
0.0
  9
$SNAPANG
 50
0.0
  9
$SNAPSTYLE
 70
     0
  9
$SNAPISOPAIR
 70
     0
  9
$GRIDMODE
 70
     0
  9
$GRIDUNIT
 10
0.0
 20
0.0
  9
$ORTHOMODE
 70
     0
  9
$REGENMODE
 70
     1
  9
$FILLMODE
 70
     1
  9
$QTEXTMODE
 70
     0
  9
$DRAGMODE
 70
     2
  9
$LTSCALE
 40
1.0
  9
$OSMODE
 70
     0
  9
$ATTMODE
 70
     1
  9
$TEXTSIZE
 40
0.2
  9
$TRACEWID
 40
0.05
  9
$TEXTSTYLE
  7
STANDARD
  9
$CLAYER
  8
0
  9
$CELTYPE
  6
BYLAYER
  9
$CECOLOR
 62
   256
  9
$DIMSCALE
 40
1.0
  9
$DIMASZ
 40
0.18
  9
$DIMEXO
 40
0.0625
  9
$DIMDLI
 40
0.38
  9
$DIMRND
 40
0.0
  9
$DIMDLE
 40
0.0
  9
$DIMEXE
 40
0.18
  9
$DIMTP
 40
0.0
  9
$DIMTM
 40
0.0
  9
$DIMTXT
 40
0.18
  9
$DIMCEN
 40
0.09
  9
$DIMTSZ
 40
0.0
  9
$DIMTOL
 70
     0
  9
$DIMLIM
 70
     0
  9
$DIMTIH
 70
     1
  9
$DIMTOH
 70
     1
  9
$DIMSE1
 70
     0
  9
$DIMSE2
 70
     0
  9
$DIMTAD
 70
     0
  9
$DIMZIN
 70
     0
  9
$DIMBLK
  1

  9
$DIMASO
 70
     1
  9
$DIMSHO
 70
     0
  9
$DIMPOST
  1

  9
$DIMAPOST
  1

  9
$DIMALT
 70
     0
  9
$DIMALTD
 70
     2
  9
$DIMALTF
 40
25.4
  9
$DIMLFAC
 40
1.0
  9
$LUNITS
 70
     2
  9
$LUPREC
 70
     4
  9
$AXISMODE
 70
     0
  9
$AXISUNIT
 10
0.0
 20
0.0
  9
$SKETCHINC
 40
0.1
  9
$FILLETRAD
 40
0.0
  9
$AUNITS
 70
     0
  9
$AUPREC
 70
     0
  9
$MENU
  1
acad
  9
$ELEVATION
 40
0.0
  9
$THICKNESS
 40
0.0
  9
$VIEWDIR
 10
0.0
 20
0.0
 30
1.0
  9
$LIMCHECK
 70
     0
  9
$BLIPMODE
 70
     1
  9
$CHAMFERA
 40
0.0
  9
$CHAMFERB
 40
0.0
  9
$FASTZOOM
 70
     1
  9
$SKPOLY
 70
     0
  9
$TDCREATE
 40
2447222.5666886573
  9
$TDUPDATE
 40
2447222.5666886573
  9
$TDINDWG
 40
0.0000000000
  9
$TDUSRTIMER
 40
0.0000000000
  9
$USRTIMER
 70
     1
  9
$ANGBASE
 50
0.0
  9
$ANGDIR
 70
     0
  9
$PDMODE
 70
     0
  9
$PDSIZE
 40
0.0
  9
$PLINEWID
 40
0.0
  9
$COORDS
 70
     0
  9
$SPLFRAME
 70
     0
  9
$SPLINESEGS
 70
     8
  9
$ATTDIA
 70
     0
  9
$ATTREQ
 70
     1
  9
$USERI1
 70
     0
  9
$USERI2
 70
     0
  9
$USERI3
 70
     0
  9
$USERI4
 70
     0
  9
$USERI5
 70
     0
  9
$USERR1
 40
0.0
  9
$USERR2
 40
0.0
  9
$USERR3
 40
0.0
  9
$USERR4
 40
0.0
  9
$USERR5
 40
0.0
  0
ENDSEC
  0
SECTION
  2
TABLES
  0
TABLE
  2
LTYPE
 70
     13
  0
LTYPE
  2
CONTINUOUS
 70
    64
  3
Solid line
 72
    65
 73
     0
 40
0.0
  0
LTYPE
  2
DASHED
 70
    64
  3
__ __ __ __ __ __ __ __ __ __ __ __ __ __ __
 72
    65
 73
     2
 40
0.75
 49
0.5
 49
-0.25
  0
LTYPE
  2
HIDDEN
 70
    64
  3
_ _ _ _ _ _ _ _ _ _ _ _ _ _ _ _ _ _ _ _ _ _ _
 72
    65
 73
     2
 40
0.375
 49
0.25
 49
-0.125
  0
LTYPE
  2
CENTER
 70
    64
  3
____ _ ____ _ ____ _ ____ _ ____ _ ____ _ ____
 72
    65
 73
     4
 40
2.0
 49
1.25
 49
-0.25
 49
0.25
 49
-0.25
  0
LTYPE
  2
PHANTOM
 70
    64
  3
_____ _ _ _____ _ _ _____ _ _ _____ _ _ ____
 72
    65
 73
     6
 40
2.5
 49
1.25
 49
-0.25
 49
0.25
 49
-0.25
 49
0.25
 49
-0.25
  0
LTYPE
  2
DOT
 70
    64
  3
...............................................
 72
    65
 73
     2
 40
0.25
 49
0.0
 49
-0.25
  0
LTYPE
  2
DASHDOT
 70
    64
  3
__ . __ . __ . __ . __ . __ . __ . __ . __ . __
 72
    65
 73
     4
 40
1.0
 49
0.5
 49
-0.25
 49
0.0
 49
-0.25
  0
LTYPE
  2
BORDER
 70
    64
  3
__ __ . __ __ . __ __ . __ __ . __ __ . __ __
 72
    65
 73
     6
 40
1.75
 49
0.5
 49
-0.25
 49
0.5
 49
-0.25
 49
0.0
 49
-0.25
  0
LTYPE
  2
DIVIDE
 70
    64
  3
__ . . __ . . __ . . __ . . __ . . __ . . __
 72
    65
 73
     6
 40
1.25
 49
0.5
 49
-0.25
 49
0.0
 49
-0.25
 49
0.0
 49
-0.25
  0
LTYPE
  2
DCTYPE1
 70
    64
  3
__ . . __ . . __ . . __ . . __ . . __ . . __
 72
    65
 73
     8
 40
2.5
 49
0.5
 49
-0.25
 49
0.125
 49
-0.25
 49
0.25
 49
-0.25
 49
0.125
 49
-0.25
  0
LTYPE
  2
DCTYPE2
 70
    64
  3
__ . . __ . . __ . . __ . . __ . . __ . . __
 72
    65
 73
     6
 40
2.05
 49
1.0
 49
-0.3
 49
0.15
 49
-0.15
 49
0.15
 49
-0.3
  0
LTYPE
  2
DCTYPE3
 70
    64
  3
__ . . __ . . __ . . __ . . __ . . __ . . __
 72
    65
 73
     6
 40
2.5
 49
0.8
 49
-0.2
 49
0.8
 49
-0.2
 49
0.3
 49
-0.2
  0
LTYPE
  2
DCTYPE4
 70
    64
  3
__ . . __ . . __ . . __ . . __ . . __ . . __
 72
    65
 73
     10
 40
3.97
 49
1.75
 49
-0.3
 49
0.3
 49
-0.3
 49
0.06
 49
-0.3
 49
0.06
 49
-0.3
 49
0.3
 49
-0.3
  0
ENDTAB
  0
TABLE
  2
LAYER
 70
    153
  0
LAYER
  2
0
 70
 64
 62
     7
  6
CONTINUOUS
  0
ENDTAB
  0
ENDSEC
  0
SECTION
  2
BLOCKS
  0
ENDSEC
  0
SECTION
  2
ENTITIES
  0
TEXT
  8
0
 62
     7
 10
0.0505
 20
4.8163
 40
0.8171
 50
0.0000
 51
0.0000
  1
DAVIS AB76B17
 72
     5
 11
10.0505
 21
4.8163
  0
POLYLINE
  8
0
 62
     3
 66
     1
  6
CONTINUOUS
  0
VERTEX
  8
0
 62
     3
  6
CONTINUOUS
 10
0.0505
 20
0.8163
  0
VERTEX
  8
0
 62
     3
  6
CONTINUOUS
 10
0.0591
 20
0.8354
  0
VERTEX
  8
0
 62
     3
  6
CONTINUOUS
 10
0.0677
 20
0.8544
  0
VERTEX
  8
0
 62
     3
  6
CONTINUOUS
 10
0.0765
 20
0.8733
  0
VERTEX
  8
0
 62
     3
  6
CONTINUOUS
 10
0.0855
 20
0.8920
  0
VERTEX
  8
0
 62
     3
  6
CONTINUOUS
 10
0.0948
 20
0.9104
  0
VERTEX
  8
0
 62
     3
  6
CONTINUOUS
 10
0.1046
 20
0.9285
  0
VERTEX
  8
0
 62
     3
  6
CONTINUOUS
 10
0.1148
 20
0.9461
  0
VERTEX
  8
0
 62
     3
  6
CONTINUOUS
 10
0.1255
 20
0.9632
  0
VERTEX
  8
0
 62
     3
  6
CONTINUOUS
 10
0.1369
 20
0.9798
  0
VERTEX
  8
0
 62
     3
  6
CONTINUOUS
 10
0.1489
 20
0.9957
  0
VERTEX
  8
0
 62
     3
  6
CONTINUOUS
 10
0.1618
 20
1.0109
  0
VERTEX
  8
0
 62
     3
  6
CONTINUOUS
 10
0.1755
 20
1.0253
  0
VERTEX
  8
0
 62
     3
  6
CONTINUOUS
 10
0.1847
 20
1.0340
  0
VERTEX
  8
0
 62
     3
  6
CONTINUOUS
 10
0.1942
 20
1.0424
  0
VERTEX
  8
0
 62
     3
  6
CONTINUOUS
 10
0.2040
 20
1.0505
  0
VERTEX
  8
0
 62
     3
  6
CONTINUOUS
 10
0.2141
 20
1.0584
  0
VERTEX
  8
0
 62
     3
  6
CONTINUOUS
 10
0.2245
 20
1.0660
  0
VERTEX
  8
0
 62
     3
  6
CONTINUOUS
 10
0.2350
 20
1.0735
  0
VERTEX
  8
0
 62
     3
  6
CONTINUOUS
 10
0.2457
 20
1.0808
  0
VERTEX
  8
0
 62
     3
  6
CONTINUOUS
 10
0.2566
 20
1.0880
  0
VERTEX
  8
0
 62
     3
  6
CONTINUOUS
 10
0.2675
 20
1.0951
  0
VERTEX
  8
0
 62
     3
  6
CONTINUOUS
 10
0.2785
 20
1.1022
  0
VERTEX
  8
0
 62
     3
  6
CONTINUOUS
 10
0.2895
 20
1.1092
  0
VERTEX
  8
0
 62
     3
  6
CONTINUOUS
 10
0.3005
 20
1.1163
  0
VERTEX
  8
0
 62
     3
  6
CONTINUOUS
 10
0.3213
 20
1.1297
  0
VERTEX
  8
0
 62
     3
  6
CONTINUOUS
 10
0.3420
 20
1.1433
  0
VERTEX
  8
0
 62
     3
  6
CONTINUOUS
 10
0.3625
 20
1.1569
  0
VERTEX
  8
0
 62
     3
  6
CONTINUOUS
 10
0.3831
 20
1.1704
  0
VERTEX
  8
0
 62
     3
  6
CONTINUOUS
 10
0.4036
 20
1.1839
  0
VERTEX
  8
0
 62
     3
  6
CONTINUOUS
 10
0.4242
 20
1.1972
  0
VERTEX
  8
0
 62
     3
  6
CONTINUOUS
 10
0.4448
 20
1.2102
  0
VERTEX
  8
0
 62
     3
  6
CONTINUOUS
 10
0.4655
 20
1.2230
  0
VERTEX
  8
0
 62
     3
  6
CONTINUOUS
 10
0.4864
 20
1.2355
  0
VERTEX
  8
0
 62
     3
  6
CONTINUOUS
 10
0.5076
 20
1.2476
  0
VERTEX
  8
0
 62
     3
  6
CONTINUOUS
 10
0.5289
 20
1.2592
  0
VERTEX
  8
0
 62
     3
  6
CONTINUOUS
 10
0.5505
 20
1.2703
  0
VERTEX
  8
0
 62
     3
  6
CONTINUOUS
 10
0.5705
 20
1.2799
  0
VERTEX
  8
0
 62
     3
  6
CONTINUOUS
 10
0.5907
 20
1.2891
  0
VERTEX
  8
0
 62
     3
  6
CONTINUOUS
 10
0.6111
 20
1.2979
  0
VERTEX
  8
0
 62
     3
  6
CONTINUOUS
 10
0.6318
 20
1.3063
  0
VERTEX
  8
0
 62
     3
  6
CONTINUOUS
 10
0.6525
 20
1.3144
  0
VERTEX
  8
0
 62
     3
  6
CONTINUOUS
 10
0.6735
 20
1.3223
  0
VERTEX
  8
0
 62
     3
  6
CONTINUOUS
 10
0.6945
 20
1.3299
  0
VERTEX
  8
0
 62
     3
  6
CONTINUOUS
 10
0.7156
 20
1.3374
  0
VERTEX
  8
0
 62
     3
  6
CONTINUOUS
 10
0.7368
 20
1.3447
  0
VERTEX
  8
0
 62
     3
  6
CONTINUOUS
 10
0.7580
 20
1.3519
  0
VERTEX
  8
0
 62
     3
  6
CONTINUOUS
 10
0.7793
 20
1.3591
  0
VERTEX
  8
0
 62
     3
  6
CONTINUOUS
 10
0.8005
 20
1.3663
  0
VERTEX
  8
0
 62
     3
  6
CONTINUOUS
 10
0.8214
 20
1.3734
  0
VERTEX
  8
0
 62
     3
  6
CONTINUOUS
 10
0.8423
 20
1.3805
  0
VERTEX
  8
0
 62
     3
  6
CONTINUOUS
 10
0.8631
 20
1.3876
  0
VERTEX
  8
0
 62
     3
  6
CONTINUOUS
 10
0.8839
 20
1.3948
  0
VERTEX
  8
0
 62
     3
  6
CONTINUOUS
 10
0.9048
 20
1.4020
  0
VERTEX
  8
0
 62
     3
  6
CONTINUOUS
 10
0.9256
 20
1.4091
  0
VERTEX
  8
0
 62
     3
  6
CONTINUOUS
 10
0.9464
 20
1.4162
  0
VERTEX
  8
0
 62
     3
  6
CONTINUOUS
 10
0.9672
 20
1.4233
  0
VERTEX
  8
0
 62
     3
  6
CONTINUOUS
 10
0.9880
 20
1.4304
  0
VERTEX
  8
0
 62
     3
  6
CONTINUOUS
 10
1.0088
 20
1.4374
  0
VERTEX
  8
0
 62
     3
  6
CONTINUOUS
 10
1.0296
 20
1.4444
  0
VERTEX
  8
0
 62
     3
  6
CONTINUOUS
 10
1.0505
 20
1.4513
  0
VERTEX
  8
0
 62
     3
  6
CONTINUOUS
 10
1.0916
 20
1.4646
  0
VERTEX
  8
0
 62
     3
  6
CONTINUOUS
 10
1.1328
 20
1.4776
  0
VERTEX
  8
0
 62
     3
  6
CONTINUOUS
 10
1.1742
 20
1.4904
  0
VERTEX
  8
0
 62
     3
  6
CONTINUOUS
 10
1.2156
 20
1.5028
  0
VERTEX
  8
0
 62
     3
  6
CONTINUOUS
 10
1.2571
 20
1.5149
  0
VERTEX
  8
0
 62
     3
  6
CONTINUOUS
 10
1.2988
 20
1.5267
  0
VERTEX
  8
0
 62
     3
  6
CONTINUOUS
 10
1.3405
 20
1.5382
  0
VERTEX
  8
0
 62
     3
  6
CONTINUOUS
 10
1.3823
 20
1.5493
  0
VERTEX
  8
0
 62
     3
  6
CONTINUOUS
 10
1.4243
 20
1.5601
  0
VERTEX
  8
0
 62
     3
  6
CONTINUOUS
 10
1.4663
 20
1.5705
  0
VERTEX
  8
0
 62
     3
  6
CONTINUOUS
 10
1.5083
 20
1.5806
  0
VERTEX
  8
0
 62
     3
  6
CONTINUOUS
 10
1.5505
 20
1.5903
  0
VERTEX
  8
0
 62
     3
  6
CONTINUOUS
 10
1.5919
 20
1.5994
  0
VERTEX
  8
0
 62
     3
  6
CONTINUOUS
 10
1.6334
 20
1.6082
  0
VERTEX
  8
0
 62
     3
  6
CONTINUOUS
 10
1.6750
 20
1.6167
  0
VERTEX
  8
0
 62
     3
  6
CONTINUOUS
 10
1.7166
 20
1.6250
  0
VERTEX
  8
0
 62
     3
  6
CONTINUOUS
 10
1.7582
 20
1.6330
  0
VERTEX
  8
0
 62
     3
  6
CONTINUOUS
 10
1.7999
 20
1.6408
  0
VERTEX
  8
0
 62
     3
  6
CONTINUOUS
 10
1.8416
 20
1.6485
  0
VERTEX
  8
0
 62
     3
  6
CONTINUOUS
 10
1.8834
 20
1.6560
  0
VERTEX
  8
0
 62
     3
  6
CONTINUOUS
 10
1.9251
 20
1.6634
  0
VERTEX
  8
0
 62
     3
  6
CONTINUOUS
 10
1.9669
 20
1.6707
  0
VERTEX
  8
0
 62
     3
  6
CONTINUOUS
 10
2.0087
 20
1.6780
  0
VERTEX
  8
0
 62
     3
  6
CONTINUOUS
 10
2.0505
 20
1.6853
  0
VERTEX
  8
0
 62
     3
  6
CONTINUOUS
 10
2.0921
 20
1.6925
  0
VERTEX
  8
0
 62
     3
  6
CONTINUOUS
 10
2.1337
 20
1.6998
  0
VERTEX
  8
0
 62
     3
  6
CONTINUOUS
 10
2.1753
 20
1.7070
  0
VERTEX
  8
0
 62
     3
  6
CONTINUOUS
 10
2.2169
 20
1.7141
  0
VERTEX
  8
0
 62
     3
  6
CONTINUOUS
 10
2.2585
 20
1.7212
  0
VERTEX
  8
0
 62
     3
  6
CONTINUOUS
 10
2.3002
 20
1.7282
  0
VERTEX
  8
0
 62
     3
  6
CONTINUOUS
 10
2.3418
 20
1.7350
  0
VERTEX
  8
0
 62
     3
  6
CONTINUOUS
 10
2.3835
 20
1.7417
  0
VERTEX
  8
0
 62
     3
  6
CONTINUOUS
 10
2.4252
 20
1.7482
  0
VERTEX
  8
0
 62
     3
  6
CONTINUOUS
 10
2.4669
 20
1.7544
  0
VERTEX
  8
0
 62
     3
  6
CONTINUOUS
 10
2.5087
 20
1.7605
  0
VERTEX
  8
0
 62
     3
  6
CONTINUOUS
 10
2.5505
 20
1.7663
  0
VERTEX
  8
0
 62
     3
  6
CONTINUOUS
 10
2.5920
 20
1.7717
  0
VERTEX
  8
0
 62
     3
  6
CONTINUOUS
 10
2.6336
 20
1.7769
  0
VERTEX
  8
0
 62
     3
  6
CONTINUOUS
 10
2.6751
 20
1.7818
  0
VERTEX
  8
0
 62
     3
  6
CONTINUOUS
 10
2.7168
 20
1.7865
  0
VERTEX
  8
0
 62
     3
  6
CONTINUOUS
 10
2.7584
 20
1.7909
  0
VERTEX
  8
0
 62
     3
  6
CONTINUOUS
 10
2.8001
 20
1.7951
  0
VERTEX
  8
0
 62
     3
  6
CONTINUOUS
 10
2.8418
 20
1.7991
  0
VERTEX
  8
0
 62
     3
  6
CONTINUOUS
 10
2.8835
 20
1.8029
  0
VERTEX
  8
0
 62
     3
  6
CONTINUOUS
 10
2.9252
 20
1.8065
  0
VERTEX
  8
0
 62
     3
  6
CONTINUOUS
 10
2.9670
 20
1.8099
  0
VERTEX
  8
0
 62
     3
  6
CONTINUOUS
 10
3.0087
 20
1.8132
  0
VERTEX
  8
0
 62
     3
  6
CONTINUOUS
 10
3.0505
 20
1.8163
  0
VERTEX
  8
0
 62
     3
  6
CONTINUOUS
 10
3.1337
 20
1.8220
  0
VERTEX
  8
0
 62
     3
  6
CONTINUOUS
 10
3.2170
 20
1.8271
  0
VERTEX
  8
0
 62
     3
  6
CONTINUOUS
 10
3.3002
 20
1.8317
  0
VERTEX
  8
0
 62
     3
  6
CONTINUOUS
 10
3.3835
 20
1.8357
  0
VERTEX
  8
0
 62
     3
  6
CONTINUOUS
 10
3.4669
 20
1.8391
  0
VERTEX
  8
0
 62
     3
  6
CONTINUOUS
 10
3.5502
 20
1.8420
  0
VERTEX
  8
0
 62
     3
  6
CONTINUOUS
 10
3.6336
 20
1.8443
  0
VERTEX
  8
0
 62
     3
  6
CONTINUOUS
 10
3.7170
 20
1.8460
  0
VERTEX
  8
0
 62
     3
  6
CONTINUOUS
 10
3.8003
 20
1.8471
  0
VERTEX
  8
0
 62
     3
  6
CONTINUOUS
 10
3.8837
 20
1.8477
  0
VERTEX
  8
0
 62
     3
  6
CONTINUOUS
 10
3.9671
 20
1.8478
  0
VERTEX
  8
0
 62
     3
  6
CONTINUOUS
 10
4.0505
 20
1.8473
  0
VERTEX
  8
0
 62
     3
  6
CONTINUOUS
 10
4.1339
 20
1.8462
  0
VERTEX
  8
0
 62
     3
  6
CONTINUOUS
 10
4.2173
 20
1.8446
  0
VERTEX
  8
0
 62
     3
  6
CONTINUOUS
 10
4.3008
 20
1.8424
  0
VERTEX
  8
0
 62
     3
  6
CONTINUOUS
 10
4.3841
 20
1.8398
  0
VERTEX
  8
0
 62
     3
  6
CONTINUOUS
 10
4.4675
 20
1.8366
  0
VERTEX
  8
0
 62
     3
  6
CONTINUOUS
 10
4.5509
 20
1.8329
  0
VERTEX
  8
0
 62
     3
  6
CONTINUOUS
 10
4.6342
 20
1.8288
  0
VERTEX
  8
0
 62
     3
  6
CONTINUOUS
 10
4.7175
 20
1.8242
  0
VERTEX
  8
0
 62
     3
  6
CONTINUOUS
 10
4.8008
 20
1.8191
  0
VERTEX
  8
0
 62
     3
  6
CONTINUOUS
 10
4.8841
 20
1.8136
  0
VERTEX
  8
0
 62
     3
  6
CONTINUOUS
 10
4.9673
 20
1.8076
  0
VERTEX
  8
0
 62
     3
  6
CONTINUOUS
 10
5.0505
 20
1.8013
  0
VERTEX
  8
0
 62
     3
  6
CONTINUOUS
 10
5.1340
 20
1.7945
  0
VERTEX
  8
0
 62
     3
  6
CONTINUOUS
 10
5.2175
 20
1.7873
  0
VERTEX
  8
0
 62
     3
  6
CONTINUOUS
 10
5.3010
 20
1.7797
  0
VERTEX
  8
0
 62
     3
  6
CONTINUOUS
 10
5.3844
 20
1.7717
  0
VERTEX
  8
0
 62
     3
  6
CONTINUOUS
 10
5.4678
 20
1.7634
  0
VERTEX
  8
0
 62
     3
  6
CONTINUOUS
 10
5.5512
 20
1.7548
  0
VERTEX
  8
0
 62
     3
  6
CONTINUOUS
 10
5.6345
 20
1.7458
  0
VERTEX
  8
0
 62
     3
  6
CONTINUOUS
 10
5.7178
 20
1.7365
  0
VERTEX
  8
0
 62
     3
  6
CONTINUOUS
 10
5.8010
 20
1.7269
  0
VERTEX
  8
0
 62
     3
  6
CONTINUOUS
 10
5.8842
 20
1.7169
  0
VERTEX
  8
0
 62
     3
  6
CONTINUOUS
 10
5.9674
 20
1.7067
  0
VERTEX
  8
0
 62
     3
  6
CONTINUOUS
 10
6.0505
 20
1.6963
  0
VERTEX
  8
0
 62
     3
  6
CONTINUOUS
 10
6.1340
 20
1.6855
  0
VERTEX
  8
0
 62
     3
  6
CONTINUOUS
 10
6.2175
 20
1.6744
  0
VERTEX
  8
0
 62
     3
  6
CONTINUOUS
 10
6.3009
 20
1.6632
  0
VERTEX
  8
0
 62
     3
  6
CONTINUOUS
 10
6.3843
 20
1.6516
  0
VERTEX
  8
0
 62
     3
  6
CONTINUOUS
 10
6.4676
 20
1.6399
  0
VERTEX
  8
0
 62
     3
  6
CONTINUOUS
 10
6.5510
 20
1.6280
  0
VERTEX
  8
0
 62
     3
  6
CONTINUOUS
 10
6.6343
 20
1.6158
  0
VERTEX
  8
0
 62
     3
  6
CONTINUOUS
 10
6.7176
 20
1.6034
  0
VERTEX
  8
0
 62
     3
  6
CONTINUOUS
 10
6.8008
 20
1.5909
  0
VERTEX
  8
0
 62
     3
  6
CONTINUOUS
 10
6.8841
 20
1.5782
  0
VERTEX
  8
0
 62
     3
  6
CONTINUOUS
 10
6.9673
 20
1.5653
  0
VERTEX
  8
0
 62
     3
  6
CONTINUOUS
 10
7.0505
 20
1.5523
  0
VERTEX
  8
0
 62
     3
  6
CONTINUOUS
 10
7.1342
 20
1.5390
  0
VERTEX
  8
0
 62
     3
  6
CONTINUOUS
 10
7.2179
 20
1.5255
  0
VERTEX
  8
0
 62
     3
  6
CONTINUOUS
 10
7.3015
 20
1.5118
  0
VERTEX
  8
0
 62
     3
  6
CONTINUOUS
 10
7.3851
 20
1.4977
  0
VERTEX
  8
0
 62
     3
  6
CONTINUOUS
 10
7.4687
 20
1.4834
  0
VERTEX
  8
0
 62
     3
  6
CONTINUOUS
 10
7.5521
 20
1.4686
  0
VERTEX
  8
0
 62
     3
  6
CONTINUOUS
 10
7.6355
 20
1.4534
  0
VERTEX
  8
0
 62
     3
  6
CONTINUOUS
 10
7.7187
 20
1.4378
  0
VERTEX
  8
0
 62
     3
  6
CONTINUOUS
 10
7.8019
 20
1.4216
  0
VERTEX
  8
0
 62
     3
  6
CONTINUOUS
 10
7.8849
 20
1.4048
  0
VERTEX
  8
0
 62
     3
  6
CONTINUOUS
 10
7.9678
 20
1.3874
  0
VERTEX
  8
0
 62
     3
  6
CONTINUOUS
 10
8.0505
 20
1.3693
  0
VERTEX
  8
0
 62
     3
  6
CONTINUOUS
 10
8.1344
 20
1.3502
  0
VERTEX
  8
0
 62
     3
  6
CONTINUOUS
 10
8.2182
 20
1.3304
  0
VERTEX
  8
0
 62
     3
  6
CONTINUOUS
 10
8.3018
 20
1.3099
  0
VERTEX
  8
0
 62
     3
  6
CONTINUOUS
 10
8.3853
 20
1.2890
  0
VERTEX
  8
0
 62
     3
  6
CONTINUOUS
 10
8.4687
 20
1.2675
  0
VERTEX
  8
0
 62
     3
  6
CONTINUOUS
 10
8.5520
 20
1.2457
  0
VERTEX
  8
0
 62
     3
  6
CONTINUOUS
 10
8.6352
 20
1.2234
  0
VERTEX
  8
0
 62
     3
  6
CONTINUOUS
 10
8.7184
 20
1.2009
  0
VERTEX
  8
0
 62
     3
  6
CONTINUOUS
 10
8.8015
 20
1.1782
  0
VERTEX
  8
0
 62
     3
  6
CONTINUOUS
 10
8.8845
 20
1.1553
  0
VERTEX
  8
0
 62
     3
  6
CONTINUOUS
 10
8.9675
 20
1.1323
  0
VERTEX
  8
0
 62
     3
  6
CONTINUOUS
 10
9.0505
 20
1.1093
  0
VERTEX
  8
0
 62
     3
  6
CONTINUOUS
 10
9.0922
 20
1.0977
  0
VERTEX
  8
0
 62
     3
  6
CONTINUOUS
 10
9.1340
 20
1.0861
  0
VERTEX
  8
0
 62
     3
  6
CONTINUOUS
 10
9.1757
 20
1.0745
  0
VERTEX
  8
0
 62
     3
  6
CONTINUOUS
 10
9.2174
 20
1.0629
  0
VERTEX
  8
0
 62
     3
  6
CONTINUOUS
 10
9.2591
 20
1.0513
  0
VERTEX
  8
0
 62
     3
  6
CONTINUOUS
 10
9.3008
 20
1.0396
  0
VERTEX
  8
0
 62
     3
  6
CONTINUOUS
 10
9.3425
 20
1.0279
  0
VERTEX
  8
0
 62
     3
  6
CONTINUOUS
 10
9.3841
 20
1.0162
  0
VERTEX
  8
0
 62
     3
  6
CONTINUOUS
 10
9.4257
 20
1.0043
  0
VERTEX
  8
0
 62
     3
  6
CONTINUOUS
 10
9.4674
 20
0.9924
  0
VERTEX
  8
0
 62
     3
  6
CONTINUOUS
 10
9.5089
 20
0.9804
  0
VERTEX
  8
0
 62
     3
  6
CONTINUOUS
 10
9.5505
 20
0.9683
  0
VERTEX
  8
0
 62
     3
  6
CONTINUOUS
 10
9.5923
 20
0.9560
  0
VERTEX
  8
0
 62
     3
  6
CONTINUOUS
 10
9.6340
 20
0.9436
  0
VERTEX
  8
0
 62
     3
  6
CONTINUOUS
 10
9.6757
 20
0.9311
  0
VERTEX
  8
0
 62
     3
  6
CONTINUOUS
 10
9.7174
 20
0.9186
  0
VERTEX
  8
0
 62
     3
  6
CONTINUOUS
 10
9.7591
 20
0.9059
  0
VERTEX
  8
0
 62
     3
  6
CONTINUOUS
 10
9.8008
 20
0.8932
  0
VERTEX
  8
0
 62
     3
  6
CONTINUOUS
 10
9.8424
 20
0.8805
  0
VERTEX
  8
0
 62
     3
  6
CONTINUOUS
 10
9.8841
 20
0.8677
  0
VERTEX
  8
0
 62
     3
  6
CONTINUOUS
 10
9.9257
 20
0.8549
  0
VERTEX
  8
0
 62
     3
  6
CONTINUOUS
 10
9.9673
 20
0.8420
  0
VERTEX
  8
0
 62
     3
  6
CONTINUOUS
 10
10.0089
 20
0.8291
  0
VERTEX
  8
0
 62
     3
  6
CONTINUOUS
 10
10.0505
 20
0.8163
  0
SEQEND
  8
0
  0
POLYLINE
  8
0
 62
     1
 66
     1
  6
CONTINUOUS
  0
VERTEX
  8
0
 62
     1
  6
CONTINUOUS
 10
0.0505
 20
0.8163
  0
VERTEX
  8
0
 62
     1
  6
CONTINUOUS
 10
0.0605
 20
0.8088
  0
VERTEX
  8
0
 62
     1
  6
CONTINUOUS
 10
0.0705
 20
0.8015
  0
VERTEX
  8
0
 62
     1
  6
CONTINUOUS
 10
0.0805
 20
0.7942
  0
VERTEX
  8
0
 62
     1
  6
CONTINUOUS
 10
0.0906
 20
0.7871
  0
VERTEX
  8
0
 62
     1
  6
CONTINUOUS
 10
0.1008
 20
0.7803
  0
VERTEX
  8
0
 62
     1
  6
CONTINUOUS
 10
0.1110
 20
0.7737
  0
VERTEX
  8
0
 62
     1
  6
CONTINUOUS
 10
0.1214
 20
0.7675
  0
VERTEX
  8
0
 62
     1
  6
CONTINUOUS
 10
0.1319
 20
0.7616
  0
VERTEX
  8
0
 62
     1
  6
CONTINUOUS
 10
0.1425
 20
0.7562
  0
VERTEX
  8
0
 62
     1
  6
CONTINUOUS
 10
0.1533
 20
0.7513
  0
VERTEX
  8
0
 62
     1
  6
CONTINUOUS
 10
0.1643
 20
0.7470
  0
VERTEX
  8
0
 62
     1
  6
CONTINUOUS
 10
0.1755
 20
0.7433
  0
VERTEX
  8
0
 62
     1
  6
CONTINUOUS
 10
0.1854
 20
0.7406
  0
VERTEX
  8
0
 62
     1
  6
CONTINUOUS
 10
0.1954
 20
0.7383
  0
VERTEX
  8
0
 62
     1
  6
CONTINUOUS
 10
0.2056
 20
0.7365
  0
VERTEX
  8
0
 62
     1
  6
CONTINUOUS
 10
0.2159
 20
0.7351
  0
VERTEX
  8
0
 62
     1
  6
CONTINUOUS
 10
0.2263
 20
0.7339
  0
VERTEX
  8
0
 62
     1
  6
CONTINUOUS
 10
0.2367
 20
0.7331
  0
VERTEX
  8
0
 62
     1
  6
CONTINUOUS
 10
0.2473
 20
0.7325
  0
VERTEX
  8
0
 62
     1
  6
CONTINUOUS
 10
0.2579
 20
0.7320
  0
VERTEX
  8
0
 62
     1
  6
CONTINUOUS
 10
0.2685
 20
0.7318
  0
VERTEX
  8
0
 62
     1
  6
CONTINUOUS
 10
0.2792
 20
0.7316
  0
VERTEX
  8
0
 62
     1
  6
CONTINUOUS
 10
0.2899
 20
0.7314
  0
VERTEX
  8
0
 62
     1
  6
CONTINUOUS
 10
0.3005
 20
0.7313
  0
VERTEX
  8
0
 62
     1
  6
CONTINUOUS
 10
0.3217
 20
0.7309
  0
VERTEX
  8
0
 62
     1
  6
CONTINUOUS
 10
0.3427
 20
0.7303
  0
VERTEX
  8
0
 62
     1
  6
CONTINUOUS
 10
0.3637
 20
0.7297
  0
VERTEX
  8
0
 62
     1
  6
CONTINUOUS
 10
0.3846
 20
0.7289
  0
VERTEX
  8
0
 62
     1
  6
CONTINUOUS
 10
0.4054
 20
0.7281
  0
VERTEX
  8
0
 62
     1
  6
CONTINUOUS
 10
0.4262
 20
0.7273
  0
VERTEX
  8
0
 62
     1
  6
CONTINUOUS
 10
0.4469
 20
0.7264
  0
VERTEX
  8
0
 62
     1
  6
CONTINUOUS
 10
0.4677
 20
0.7256
  0
VERTEX
  8
0
 62
     1
  6
CONTINUOUS
 10
0.4884
 20
0.7249
  0
VERTEX
  8
0
 62
     1
  6
CONTINUOUS
 10
0.5091
 20
0.7242
  0
VERTEX
  8
0
 62
     1
  6
CONTINUOUS
 10
0.5298
 20
0.7237
  0
VERTEX
  8
0
 62
     1
  6
CONTINUOUS
 10
0.5505
 20
0.7233
  0
VERTEX
  8
0
 62
     1
  6
CONTINUOUS
 10
0.5713
 20
0.7230
  0
VERTEX
  8
0
 62
     1
  6
CONTINUOUS
 10
0.5920
 20
0.7229
  0
VERTEX
  8
0
 62
     1
  6
CONTINUOUS
 10
0.6128
 20
0.7230
  0
VERTEX
  8
0
 62
     1
  6
CONTINUOUS
 10
0.6336
 20
0.7232
  0
VERTEX
  8
0
 62
     1
  6
CONTINUOUS
 10
0.6545
 20
0.7235
  0
VERTEX
  8
0
 62
     1
  6
CONTINUOUS
 10
0.6753
 20
0.7239
  0
VERTEX
  8
0
 62
     1
  6
CONTINUOUS
 10
0.6962
 20
0.7245
  0
VERTEX
  8
0
 62
     1
  6
CONTINUOUS
 10
0.7171
 20
0.7251
  0
VERTEX
  8
0
 62
     1
  6
CONTINUOUS
 10
0.7379
 20
0.7258
  0
VERTEX
  8
0
 62
     1
  6
CONTINUOUS
 10
0.7588
 20
0.7266
  0
VERTEX
  8
0
 62
     1
  6
CONTINUOUS
 10
0.7796
 20
0.7274
  0
VERTEX
  8
0
 62
     1
  6
CONTINUOUS
 10
0.8005
 20
0.7283
  0
VERTEX
  8
0
 62
     1
  6
CONTINUOUS
 10
0.8214
 20
0.7292
  0
VERTEX
  8
0
 62
     1
  6
CONTINUOUS
 10
0.8422
 20
0.7301
  0
VERTEX
  8
0
 62
     1
  6
CONTINUOUS
 10
0.8631
 20
0.7311
  0
VERTEX
  8
0
 62
     1
  6
CONTINUOUS
 10
0.8839
 20
0.7321
  0
VERTEX
  8
0
 62
     1
  6
CONTINUOUS
 10
0.9048
 20
0.7332
  0
VERTEX
  8
0
 62
     1
  6
CONTINUOUS
 10
0.9256
 20
0.7342
  0
VERTEX
  8
0
 62
     1
  6
CONTINUOUS
 10
0.9464
 20
0.7353
  0
VERTEX
  8
0
 62
     1
  6
CONTINUOUS
 10
0.9672
 20
0.7365
  0
VERTEX
  8
0
 62
     1
  6
CONTINUOUS
 10
0.9881
 20
0.7376
  0
VERTEX
  8
0
 62
     1
  6
CONTINUOUS
 10
1.0089
 20
0.7388
  0
VERTEX
  8
0
 62
     1
  6
CONTINUOUS
 10
1.0297
 20
0.7400
  0
VERTEX
  8
0
 62
     1
  6
CONTINUOUS
 10
1.0505
 20
0.7413
  0
VERTEX
  8
0
 62
     1
  6
CONTINUOUS
 10
1.0922
 20
0.7438
  0
VERTEX
  8
0
 62
     1
  6
CONTINUOUS
 10
1.1338
 20
0.7465
  0
VERTEX
  8
0
 62
     1
  6
CONTINUOUS
 10
1.1755
 20
0.7492
  0
VERTEX
  8
0
 62
     1
  6
CONTINUOUS
 10
1.2172
 20
0.7520
  0
VERTEX
  8
0
 62
     1
  6
CONTINUOUS
 10
1.2589
 20
0.7549
  0
VERTEX
  8
0
 62
     1
  6
CONTINUOUS
 10
1.3005
 20
0.7578
  0
VERTEX
  8
0
 62
     1
  6
CONTINUOUS
 10
1.3422
 20
0.7608
  0
VERTEX
  8
0
 62
     1
  6
CONTINUOUS
 10
1.3839
 20
0.7639
  0
VERTEX
  8
0
 62
     1
  6
CONTINUOUS
 10
1.4255
 20
0.7669
  0
VERTEX
  8
0
 62
     1
  6
CONTINUOUS
 10
1.4672
 20
0.7700
  0
VERTEX
  8
0
 62
     1
  6
CONTINUOUS
 10
1.5088
 20
0.7731
  0
VERTEX
  8
0
 62
     1
  6
CONTINUOUS
 10
1.5505
 20
0.7763
  0
VERTEX
  8
0
 62
     1
  6
CONTINUOUS
 10
1.5922
 20
0.7794
  0
VERTEX
  8
0
 62
     1
  6
CONTINUOUS
 10
1.6339
 20
0.7825
  0
VERTEX
  8
0
 62
     1
  6
CONTINUOUS
 10
1.6756
 20
0.7857
  0
VERTEX
  8
0
 62
     1
  6
CONTINUOUS
 10
1.7172
 20
0.7888
  0
VERTEX
  8
0
 62
     1
  6
CONTINUOUS
 10
1.7589
 20
0.7921
  0
VERTEX
  8
0
 62
     1
  6
CONTINUOUS
 10
1.8006
 20
0.7953
  0
VERTEX
  8
0
 62
     1
  6
CONTINUOUS
 10
1.8423
 20
0.7986
  0
VERTEX
  8
0
 62
     1
  6
CONTINUOUS
 10
1.8839
 20
0.8020
  0
VERTEX
  8
0
 62
     1
  6
CONTINUOUS
 10
1.9256
 20
0.8054
  0
VERTEX
  8
0
 62
     1
  6
CONTINUOUS
 10
1.9672
 20
0.8089
  0
VERTEX
  8
0
 62
     1
  6
CONTINUOUS
 10
2.0089
 20
0.8126
  0
VERTEX
  8
0
 62
     1
  6
CONTINUOUS
 10
2.0505
 20
0.8163
  0
VERTEX
  8
0
 62
     1
  6
CONTINUOUS
 10
2.0922
 20
0.8201
  0
VERTEX
  8
0
 62
     1
  6
CONTINUOUS
 10
2.1338
 20
0.8240
  0
VERTEX
  8
0
 62
     1
  6
CONTINUOUS
 10
2.1755
 20
0.8279
  0
VERTEX
  8
0
 62
     1
  6
CONTINUOUS
 10
2.2172
 20
0.8320
  0
VERTEX
  8
0
 62
     1
  6
CONTINUOUS
 10
2.2588
 20
0.8360
  0
VERTEX
  8
0
 62
     1
  6
CONTINUOUS
 10
2.3005
 20
0.8400
  0
VERTEX
  8
0
 62
     1
  6
CONTINUOUS
 10
2.3421
 20
0.8441
  0
VERTEX
  8
0
 62
     1
  6
CONTINUOUS
 10
2.3838
 20
0.8480
  0
VERTEX
  8
0
 62
     1
  6
CONTINUOUS
 10
2.4255
 20
0.8520
  0
VERTEX
  8
0
 62
     1
  6
CONTINUOUS
 10
2.4671
 20
0.8558
  0
VERTEX
  8
0
 62
     1
  6
CONTINUOUS
 10
2.5088
 20
0.8596
  0
VERTEX
  8
0
 62
     1
  6
CONTINUOUS
 10
2.5505
 20
0.8633
  0
VERTEX
  8
0
 62
     1
  6
CONTINUOUS
 10
2.5921
 20
0.8668
  0
VERTEX
  8
0
 62
     1
  6
CONTINUOUS
 10
2.6338
 20
0.8702
  0
VERTEX
  8
0
 62
     1
  6
CONTINUOUS
 10
2.6754
 20
0.8734
  0
VERTEX
  8
0
 62
     1
  6
CONTINUOUS
 10
2.7171
 20
0.8766
  0
VERTEX
  8
0
 62
     1
  6
CONTINUOUS
 10
2.7587
 20
0.8797
  0
VERTEX
  8
0
 62
     1
  6
CONTINUOUS
 10
2.8004
 20
0.8826
  0
VERTEX
  8
0
 62
     1
  6
CONTINUOUS
 10
2.8421
 20
0.8856
  0
VERTEX
  8
0
 62
     1
  6
CONTINUOUS
 10
2.8838
 20
0.8884
  0
VERTEX
  8
0
 62
     1
  6
CONTINUOUS
 10
2.9254
 20
0.8912
  0
VERTEX
  8
0
 62
     1
  6
CONTINUOUS
 10
2.9671
 20
0.8939
  0
VERTEX
  8
0
 62
     1
  6
CONTINUOUS
 10
3.0088
 20
0.8966
  0
VERTEX
  8
0
 62
     1
  6
CONTINUOUS
 10
3.0505
 20
0.8993
  0
VERTEX
  8
0
 62
     1
  6
CONTINUOUS
 10
3.1338
 20
0.9045
  0
VERTEX
  8
0
 62
     1
  6
CONTINUOUS
 10
3.2171
 20
0.9097
  0
VERTEX
  8
0
 62
     1
  6
CONTINUOUS
 10
3.3004
 20
0.9148
  0
VERTEX
  8
0
 62
     1
  6
CONTINUOUS
 10
3.3838
 20
0.9198
  0
VERTEX
  8
0
 62
     1
  6
CONTINUOUS
 10
3.4671
 20
0.9248
  0
VERTEX
  8
0
 62
     1
  6
CONTINUOUS
 10
3.5504
 20
0.9296
  0
VERTEX
  8
0
 62
     1
  6
CONTINUOUS
 10
3.6337
 20
0.9343
  0
VERTEX
  8
0
 62
     1
  6
CONTINUOUS
 10
3.7171
 20
0.9389
  0
VERTEX
  8
0
 62
     1
  6
CONTINUOUS
 10
3.8004
 20
0.9435
  0
VERTEX
  8
0
 62
     1
  6
CONTINUOUS
 10
3.8838
 20
0.9478
  0
VERTEX
  8
0
 62
     1
  6
CONTINUOUS
 10
3.9671
 20
0.9521
  0
VERTEX
  8
0
 62
     1
  6
CONTINUOUS
 10
4.0505
 20
0.9563
  0
VERTEX
  8
0
 62
     1
  6
CONTINUOUS
 10
4.1338
 20
0.9603
  0
VERTEX
  8
0
 62
     1
  6
CONTINUOUS
 10
4.2171
 20
0.9642
  0
VERTEX
  8
0
 62
     1
  6
CONTINUOUS
 10
4.3004
 20
0.9679
  0
VERTEX
  8
0
 62
     1
  6
CONTINUOUS
 10
4.3838
 20
0.9715
  0
VERTEX
  8
0
 62
     1
  6
CONTINUOUS
 10
4.4671
 20
0.9750
  0
VERTEX
  8
0
 62
     1
  6
CONTINUOUS
 10
4.5504
 20
0.9784
  0
VERTEX
  8
0
 62
     1
  6
CONTINUOUS
 10
4.6337
 20
0.9817
  0
VERTEX
  8
0
 62
     1
  6
CONTINUOUS
 10
4.7171
 20
0.9848
  0
VERTEX
  8
0
 62
     1
  6
CONTINUOUS
 10
4.8004
 20
0.9879
  0
VERTEX
  8
0
 62
     1
  6
CONTINUOUS
 10
4.8838
 20
0.9908
  0
VERTEX
  8
0
 62
     1
  6
CONTINUOUS
 10
4.9671
 20
0.9936
  0
VERTEX
  8
0
 62
     1
  6
CONTINUOUS
 10
5.0505
 20
0.9963
  0
VERTEX
  8
0
 62
     1
  6
CONTINUOUS
 10
5.1338
 20
0.9988
  0
VERTEX
  8
0
 62
     1
  6
CONTINUOUS
 10
5.2171
 20
1.0013
  0
VERTEX
  8
0
 62
     1
  6
CONTINUOUS
 10
5.3005
 20
1.0036
  0
VERTEX
  8
0
 62
     1
  6
CONTINUOUS
 10
5.3838
 20
1.0058
  0
VERTEX
  8
0
 62
     1
  6
CONTINUOUS
 10
5.4671
 20
1.0078
  0
VERTEX
  8
0
 62
     1
  6
CONTINUOUS
 10
5.5504
 20
1.0096
  0
VERTEX
  8
0
 62
     1
  6
CONTINUOUS
 10
5.6338
 20
1.0112
  0
VERTEX
  8
0
 62
     1
  6
CONTINUOUS
 10
5.7171
 20
1.0127
  0
VERTEX
  8
0
 62
     1
  6
CONTINUOUS
 10
5.8005
 20
1.0139
  0
VERTEX
  8
0
 62
     1
  6
CONTINUOUS
 10
5.8838
 20
1.0150
  0
VERTEX
  8
0
 62
     1
  6
CONTINUOUS
 10
5.9672
 20
1.0157
  0
VERTEX
  8
0
 62
     1
  6
CONTINUOUS
 10
6.0505
 20
1.0163
  0
VERTEX
  8
0
 62
     1
  6
CONTINUOUS
 10
6.1338
 20
1.0165
  0
VERTEX
  8
0
 62
     1
  6
CONTINUOUS
 10
6.2172
 20
1.0166
  0
VERTEX
  8
0
 62
     1
  6
CONTINUOUS
 10
6.3005
 20
1.0163
  0
VERTEX
  8
0
 62
     1
  6
CONTINUOUS
 10
6.3839
 20
1.0158
  0
VERTEX
  8
0
 62
     1
  6
CONTINUOUS
 10
6.4672
 20
1.0151
  0
VERTEX
  8
0
 62
     1
  6
CONTINUOUS
 10
6.5506
 20
1.0141
  0
VERTEX
  8
0
 62
     1
  6
CONTINUOUS
 10
6.6339
 20
1.0129
  0
VERTEX
  8
0
 62
     1
  6
CONTINUOUS
 10
6.7172
 20
1.0114
  0
VERTEX
  8
0
 62
     1
  6
CONTINUOUS
 10
6.8006
 20
1.0097
  0
VERTEX
  8
0
 62
     1
  6
CONTINUOUS
 10
6.8839
 20
1.0078
  0
VERTEX
  8
0
 62
     1
  6
CONTINUOUS
 10
6.9672
 20
1.0056
  0
VERTEX
  8
0
 62
     1
  6
CONTINUOUS
 10
7.0505
 20
1.0033
  0
VERTEX
  8
0
 62
     1
  6
CONTINUOUS
 10
7.1339
 20
1.0007
  0
VERTEX
  8
0
 62
     1
  6
CONTINUOUS
 10
7.2172
 20
0.9979
  0
VERTEX
  8
0
 62
     1
  6
CONTINUOUS
 10
7.3006
 20
0.9949
  0
VERTEX
  8
0
 62
     1
  6
CONTINUOUS
 10
7.3839
 20
0.9917
  0
VERTEX
  8
0
 62
     1
  6
CONTINUOUS
 10
7.4672
 20
0.9884
  0
VERTEX
  8
0
 62
     1
  6
CONTINUOUS
 10
7.5505
 20
0.9850
  0
VERTEX
  8
0
 62
     1
  6
CONTINUOUS
 10
7.6339
 20
0.9815
  0
VERTEX
  8
0
 62
     1
  6
CONTINUOUS
 10
7.7172
 20
0.9780
  0
VERTEX
  8
0
 62
     1
  6
CONTINUOUS
 10
7.8005
 20
0.9743
  0
VERTEX
  8
0
 62
     1
  6
CONTINUOUS
 10
7.8838
 20
0.9706
  0
VERTEX
  8
0
 62
     1
  6
CONTINUOUS
 10
7.9672
 20
0.9670
  0
VERTEX
  8
0
 62
     1
  6
CONTINUOUS
 10
8.0505
 20
0.9633
  0
VERTEX
  8
0
 62
     1
  6
CONTINUOUS
 10
8.1339
 20
0.9596
  0
VERTEX
  8
0
 62
     1
  6
CONTINUOUS
 10
8.2173
 20
0.9559
  0
VERTEX
  8
0
 62
     1
  6
CONTINUOUS
 10
8.3007
 20
0.9521
  0
VERTEX
  8
0
 62
     1
  6
CONTINUOUS
 10
8.3841
 20
0.9483
  0
VERTEX
  8
0
 62
     1
  6
CONTINUOUS
 10
8.4674
 20
0.9442
  0
VERTEX
  8
0
 62
     1
  6
CONTINUOUS
 10
8.5508
 20
0.9400
  0
VERTEX
  8
0
 62
     1
  6
CONTINUOUS
 10
8.6341
 20
0.9356
  0
VERTEX
  8
0
 62
     1
  6
CONTINUOUS
 10
8.7175
 20
0.9308
  0
VERTEX
  8
0
 62
     1
  6
CONTINUOUS
 10
8.8008
 20
0.9258
  0
VERTEX
  8
0
 62
     1
  6
CONTINUOUS
 10
8.8840
 20
0.9204
  0
VERTEX
  8
0
 62
     1
  6
CONTINUOUS
 10
8.9673
 20
0.9145
  0
VERTEX
  8
0
 62
     1
  6
CONTINUOUS
 10
9.0505
 20
0.9083
  0
VERTEX
  8
0
 62
     1
  6
CONTINUOUS
 10
9.0922
 20
0.9049
  0
VERTEX
  8
0
 62
     1
  6
CONTINUOUS
 10
9.1339
 20
0.9015
  0
VERTEX
  8
0
 62
     1
  6
CONTINUOUS
 10
9.1756
 20
0.8979
  0
VERTEX
  8
0
 62
     1
  6
CONTINUOUS
 10
9.2172
 20
0.8943
  0
VERTEX
  8
0
 62
     1
  6
CONTINUOUS
 10
9.2589
 20
0.8906
  0
VERTEX
  8
0
 62
     1
  6
CONTINUOUS
 10
9.3006
 20
0.8868
  0
VERTEX
  8
0
 62
     1
  6
CONTINUOUS
 10
9.3422
 20
0.8829
  0
VERTEX
  8
0
 62
     1
  6
CONTINUOUS
 10
9.3839
 20
0.8791
  0
VERTEX
  8
0
 62
     1
  6
CONTINUOUS
 10
9.4256
 20
0.8751
  0
VERTEX
  8
0
 62
     1
  6
CONTINUOUS
 10
9.4672
 20
0.8712
  0
VERTEX
  8
0
 62
     1
  6
CONTINUOUS
 10
9.5089
 20
0.8672
  0
VERTEX
  8
0
 62
     1
  6
CONTINUOUS
 10
9.5505
 20
0.8633
  0
VERTEX
  8
0
 62
     1
  6
CONTINUOUS
 10
9.5922
 20
0.8593
  0
VERTEX
  8
0
 62
     1
  6
CONTINUOUS
 10
9.6338
 20
0.8554
  0
VERTEX
  8
0
 62
     1
  6
CONTINUOUS
 10
9.6755
 20
0.8514
  0
VERTEX
  8
0
 62
     1
  6
CONTINUOUS
 10
9.7172
 20
0.8475
  0
VERTEX
  8
0
 62
     1
  6
CONTINUOUS
 10
9.7588
 20
0.8436
  0
VERTEX
  8
0
 62
     1
  6
CONTINUOUS
 10
9.8005
 20
0.8397
  0
VERTEX
  8
0
 62
     1
  6
CONTINUOUS
 10
9.8422
 20
0.8358
  0
VERTEX
  8
0
 62
     1
  6
CONTINUOUS
 10
9.8838
 20
0.8319
  0
VERTEX
  8
0
 62
     1
  6
CONTINUOUS
 10
9.9255
 20
0.8280
  0
VERTEX
  8
0
 62
     1
  6
CONTINUOUS
 10
9.9672
 20
0.8241
  0
VERTEX
  8
0
 62
     1
  6
CONTINUOUS
 10
10.0088
 20
0.8202
  0
VERTEX
  8
0
 62
     1
  6
CONTINUOUS
 10
10.0505
 20
0.8163
  0
SEQEND
  8
0
  0
ENDSEC
  0
EOF
