 0 
SECTION
 2 
ENTITIES
 0 
POLYLINE
 8 
1
 66 
 1 
 10 
0.0
 20 
0.0
 30 
0.0
 0 
VERTEX
 8 
1
 10 
0.0
 20 
0.5
 30 
0.0
 0 
VERTEX
 8 
1
 10 
0.01633
 20 
0.50367
 30 
0.0
 0 
VERTEX
 8 
1
 10 
0.03517
 20 
0.5082
 30 
0.0
 0 
VERTEX
 8 
1
 10 
0.05771
 20 
0.51391
 30 
0.0
 0 
VERTEX
 8 
1
 10 
0.08487
 20 
0.52116
 30 
0.0
 0 
VERTEX
 8 
1
 10 
0.11526
 20 
0.52971
 30 
0.0
 0 
VERTEX
 8 
1
 10 
0.1456
 20 
0.5386
 30 
0.0
 0 
VERTEX
 8 
1
 10 
0.17606
 20 
0.54779
 30 
0.0
 0 
VERTEX
 8 
1
 10 
0.20669
 20 
0.55709
 30 
0.0
 0 
VERTEX
 8 
1
 10 
0.23663
 20 
0.56601
 30 
0.0
 0 
VERTEX
 8 
1
 10 
0.266
 20 
0.57431
 30 
0.0
 0 
VERTEX
 8 
1
 10 
0.29504
 20 
0.5819
 30 
0.0
 0 
VERTEX
 8 
1
 10 
0.324
 20 
0.58877
 30 
0.0
 0 
VERTEX
 8 
1
 10 
0.35299
 20 
0.59494
 30 
0.0
 0 
VERTEX
 8 
1
 10 
0.38207
 20 
0.6004
 30 
0.0
 0 
VERTEX
 8 
1
 10 
0.4113
 20 
0.60516
 30 
0.0
 0 
VERTEX
 8 
1
 10 
0.44069
 20 
0.60923
 30 
0.0
 0 
VERTEX
 8 
1
 10 
0.47024
 20 
0.61264
 30 
0.0
 0 
VERTEX
 8 
1
 10 
0.49993
 20 
0.61539
 30 
0.0
 0 
VERTEX
 8 
1
 10 
0.52971
 20 
0.6175
 30 
0.0
 0 
VERTEX
 8 
1
 10 
0.5595
 20 
0.61898
 30 
0.0
 0 
VERTEX
 8 
1
 10 
0.58924
 20 
0.61979
 30 
0.0
 0 
VERTEX
 8 
1
 10 
0.61891
 20 
0.61991
 30 
0.0
 0 
VERTEX
 8 
1
 10 
0.64846
 20 
0.61934
 30 
0.0
 0 
VERTEX
 8 
1
 10 
0.67784
 20 
0.61804
 30 
0.0
 0 
VERTEX
 8 
1
 10 
0.707
 20 
0.61599
 30 
0.0
 0 
VERTEX
 8 
1
 10 
0.7359
 20 
0.61316
 30 
0.0
 0 
VERTEX
 8 
1
 10 
0.76444
 20 
0.60952
 30 
0.0
 0 
VERTEX
 8 
1
 10 
0.79253
 20 
0.60505
 30 
0.0
 0 
VERTEX
 8 
1
 10 
0.82002
 20 
0.59969
 30 
0.0
 0 
VERTEX
 8 
1
 10 
0.84676
 20 
0.59342
 30 
0.0
 0 
VERTEX
 8 
1
 10 
0.87249
 20 
0.58623
 30 
0.0
 0 
VERTEX
 8 
1
 10 
0.89691
 20 
0.57809
 30 
0.0
 0 
VERTEX
 8 
1
 10 
0.91965
 20 
0.56905
 30 
0.0
 0 
VERTEX
 8 
1
 10 
0.94028
 20 
0.55921
 30 
0.0
 0 
VERTEX
 8 
1
 10 
0.95832
 20 
0.54873
 30 
0.0
 0 
VERTEX
 8 
1
 10 
0.9733
 20 
0.53795
 30 
0.0
 0 
VERTEX
 8 
1
 10 
0.98485
 20 
0.52749
 30 
0.0
 0 
VERTEX
 8 
1
 10 
0.99275
 20 
0.51811
 30 
0.0
 0 
VERTEX
 8 
1
 10 
0.99743
 20 
0.51025
 30 
0.0
 0 
VERTEX
 8 
1
 10 
0.99965
 20 
0.50406
 30 
0.0
 0 
VERTEX
 8 
1
 10 
1
 20 
0.5
 30 
0.0
 0 
VERTEX
 8 
1
 10 
0.99982
 20 
0.49675
 30 
0.0
 0 
VERTEX
 8 
1
 10 
0.99883
 20 
0.49287
 30 
0.0
 0 
VERTEX
 8 
1
 10 
0.99704
 20 
0.48994
 30 
0.0
 0 
VERTEX
 8 
1
 10 
0.99431
 20 
0.48767
 30 
0.0
 0 
VERTEX
 8 
1
 10 
0.99001
 20 
0.48595
 30 
0.0
 0 
VERTEX
 8 
1
 10 
0.98275
 20 
0.48471
 30 
0.0
 0 
VERTEX
 8 
1
 10 
0.97027
 20 
0.48402
 30 
0.0
 0 
VERTEX
 8 
1
 10 
0.95098
 20 
0.48437
 30 
0.0
 0 
VERTEX
 8 
1
 10 
0.92572
 20 
0.48582
 30 
0.0
 0 
VERTEX
 8 
1
 10 
0.89704
 20 
0.48806
 30 
0.0
 0 
VERTEX
 8 
1
 10 
0.86669
 20 
0.49078
 30 
0.0
 0 
VERTEX
 8 
1
 10 
0.83549
 20 
0.49371
 30 
0.0
 0 
VERTEX
 8 
1
 10 
0.80383
 20 
0.4967
 30 
0.0
 0 
VERTEX
 8 
1
 10 
0.77189
 20 
0.49967
 30 
0.0
 0 
VERTEX
 8 
1
 10 
0.73984
 20 
0.50256
 30 
0.0
 0 
VERTEX
 8 
1
 10 
0.70788
 20 
0.50532
 30 
0.0
 0 
VERTEX
 8 
1
 10 
0.67602
 20 
0.50793
 30 
0.0
 0 
VERTEX
 8 
1
 10 
0.64422
 20 
0.51037
 30 
0.0
 0 
VERTEX
 8 
1
 10 
0.61251
 20 
0.51263
 30 
0.0
 0 
VERTEX
 8 
1
 10 
0.58087
 20 
0.51467
 30 
0.0
 0 
VERTEX
 8 
1
 10 
0.54929
 20 
0.51648
 30 
0.0
 0 
VERTEX
 8 
1
 10 
0.5178
 20 
0.51803
 30 
0.0
 0 
VERTEX
 8 
1
 10 
0.48637
 20 
0.5193
 30 
0.0
 0 
VERTEX
 8 
1
 10 
0.45499
 20 
0.52025
 30 
0.0
 0 
VERTEX
 8 
1
 10 
0.42364
 20 
0.52089
 30 
0.0
 0 
VERTEX
 8 
1
 10 
0.39232
 20 
0.52124
 30 
0.0
 0 
VERTEX
 8 
1
 10 
0.36104
 20 
0.52126
 30 
0.0
 0 
VERTEX
 8 
1
 10 
0.32978
 20 
0.52097
 30 
0.0
 0 
VERTEX
 8 
1
 10 
0.29854
 20 
0.52038
 30 
0.0
 0 
VERTEX
 8 
1
 10 
0.26732
 20 
0.51949
 30 
0.0
 0 
VERTEX
 8 
1
 10 
0.23615
 20 
0.51831
 30 
0.0
 0 
VERTEX
 8 
1
 10 
0.20503
 20 
0.51683
 30 
0.0
 0 
VERTEX
 8 
1
 10 
0.17394
 20 
0.51503
 30 
0.0
 0 
VERTEX
 8 
1
 10 
0.14278
 20 
0.51293
 30 
0.0
 0 
VERTEX
 8 
1
 10 
0.11119
 20 
0.51051
 30 
0.0
 0 
VERTEX
 8 
1
 10 
0.08072
 20 
0.50792
 30 
0.0
 0 
VERTEX
 8 
1
 10 
0.0544
 20 
0.5055
 30 
0.0
 0 
VERTEX
 8 
1
 10 
0.03293
 20 
0.50341
 30 
0.0
 0 
VERTEX
 8 
1
 10 
0.01512
 20 
0.50158
 30 
0.0
 0 
VERTEX
 8 
1
 10 
0.0
 20 
0.5
 30 
0.0
 0 
SEQEND
 8 
1
 0 
ENDSEC
 0 
EOF
