 0 
SECTION
 2 
ENTITIES
 0 
POLYLINE
 8 
1
 66 
 1 
 10 
0.0
 20 
0.0
 30 
0.0
 0 
VERTEX
 8 
1
 10 
0.0
 20 
0.5
 30 
0.0
 0 
VERTEX
 8 
1
 10 
0.0016199
 20 
0.50039
 30 
0.0
 0 
VERTEX
 8 
1
 10 
0.0064699
 20 
0.50157
 30 
0.0
 0 
VERTEX
 8 
1
 10 
0.01453
 20 
0.50353
 30 
0.0
 0 
VERTEX
 8 
1
 10 
0.02573
 20 
0.50625
 30 
0.0
 0 
VERTEX
 8 
1
 10 
0.04001
 20 
0.50971
 30 
0.0
 0 
VERTEX
 8 
1
 10 
0.05727
 20 
0.5139
 30 
0.0
 0 
VERTEX
 8 
1
 10 
0.0774
 20 
0.51879
 30 
0.0
 0 
VERTEX
 8 
1
 10 
0.10028
 20 
0.52434
 30 
0.0
 0 
VERTEX
 8 
1
 10 
0.12574
 20 
0.53053
 30 
0.0
 0 
VERTEX
 8 
1
 10 
0.15364
 20 
0.5373
 30 
0.0
 0 
VERTEX
 8 
1
 10 
0.18378
 20 
0.54462
 30 
0.0
 0 
VERTEX
 8 
1
 10 
0.21597
 20 
0.55244
 30 
0.0
 0 
VERTEX
 8 
1
 10 
0.25
 20 
0.56065
 30 
0.0
 0 
VERTEX
 8 
1
 10 
0.28565
 20 
0.56966
 30 
0.0
 0 
VERTEX
 8 
1
 10 
0.3227
 20 
0.57959
 30 
0.0
 0 
VERTEX
 8 
1
 10 
0.36089
 20 
0.59015
 30 
0.0
 0 
VERTEX
 8 
1
 10 
0.39999
 20 
0.60095
 30 
0.0
 0 
VERTEX
 8 
1
 10 
0.43973
 20 
0.61155
 30 
0.0
 0 
VERTEX
 8 
1
 10 
0.47987
 20 
0.62149
 30 
0.0
 0 
VERTEX
 8 
1
 10 
0.52013
 20 
0.63034
 30 
0.0
 0 
VERTEX
 8 
1
 10 
0.56027
 20 
0.63769
 30 
0.0
 0 
VERTEX
 8 
1
 10 
0.60001
 20 
0.64324
 30 
0.0
 0 
VERTEX
 8 
1
 10 
0.63911
 20 
0.64675
 30 
0.0
 0 
VERTEX
 8 
1
 10 
0.6773
 20 
0.64811
 30 
0.0
 0 
VERTEX
 8 
1
 10 
0.71435
 20 
0.64733
 30 
0.0
 0 
VERTEX
 8 
1
 10 
0.75
 20 
0.64446
 30 
0.0
 0 
VERTEX
 8 
1
 10 
0.78403
 20 
0.63958
 30 
0.0
 0 
VERTEX
 8 
1
 10 
0.81622
 20 
0.63278
 30 
0.0
 0 
VERTEX
 8 
1
 10 
0.84636
 20 
0.62417
 30 
0.0
 0 
VERTEX
 8 
1
 10 
0.87426
 20 
0.6139
 30 
0.0
 0 
VERTEX
 8 
1
 10 
0.89972
 20 
0.60217
 30 
0.0
 0 
VERTEX
 8 
1
 10 
0.92259
 20 
0.58928
 30 
0.0
 0 
VERTEX
 8 
1
 10 
0.94273
 20 
0.57561
 30 
0.0
 0 
VERTEX
 8 
1
 10 
0.95999
 20 
0.56168
 30 
0.0
 0 
VERTEX
 8 
1
 10 
0.97427
 20 
0.54813
 30 
0.0
 0 
VERTEX
 8 
1
 10 
0.98547
 20 
0.53477
 30 
0.0
 0 
VERTEX
 8 
1
 10 
0.99353
 20 
0.52152
 30 
0.0
 0 
VERTEX
 8 
1
 10 
0.99838
 20 
0.50915
 30 
0.0
 0 
VERTEX
 8 
1
 10 
1
 20 
0.5
 30 
0.0
 0 
VERTEX
 8 
1
 10 
0.99838
 20 
0.48866
 30 
0.0
 0 
VERTEX
 8 
1
 10 
0.99353
 20 
0.48113
 30 
0.0
 0 
VERTEX
 8 
1
 10 
0.98547
 20 
0.47378
 30 
0.0
 0 
VERTEX
 8 
1
 10 
0.97427
 20 
0.46639
 30 
0.0
 0 
VERTEX
 8 
1
 10 
0.95999
 20 
0.45937
 30 
0.0
 0 
VERTEX
 8 
1
 10 
0.94273
 20 
0.45309
 30 
0.0
 0 
VERTEX
 8 
1
 10 
0.92259
 20 
0.44787
 30 
0.0
 0 
VERTEX
 8 
1
 10 
0.89972
 20 
0.44415
 30 
0.0
 0 
VERTEX
 8 
1
 10 
0.87426
 20 
0.44154
 30 
0.0
 0 
VERTEX
 8 
1
 10 
0.84636
 20 
0.43944
 30 
0.0
 0 
VERTEX
 8 
1
 10 
0.81622
 20 
0.43794
 30 
0.0
 0 
VERTEX
 8 
1
 10 
0.78403
 20 
0.43717
 30 
0.0
 0 
VERTEX
 8 
1
 10 
0.75
 20 
0.43721
 30 
0.0
 0 
VERTEX
 8 
1
 10 
0.71435
 20 
0.43812
 30 
0.0
 0 
VERTEX
 8 
1
 10 
0.6773
 20 
0.43991
 30 
0.0
 0 
VERTEX
 8 
1
 10 
0.63911
 20 
0.44254
 30 
0.0
 0 
VERTEX
 8 
1
 10 
0.60001
 20 
0.44587
 30 
0.0
 0 
VERTEX
 8 
1
 10 
0.56027
 20 
0.44967
 30 
0.0
 0 
VERTEX
 8 
1
 10 
0.52013
 20 
0.45367
 30 
0.0
 0 
VERTEX
 8 
1
 10 
0.47987
 20 
0.45761
 30 
0.0
 0 
VERTEX
 8 
1
 10 
0.43973
 20 
0.46124
 30 
0.0
 0 
VERTEX
 8 
1
 10 
0.39999
 20 
0.46469
 30 
0.0
 0 
VERTEX
 8 
1
 10 
0.36089
 20 
0.46814
 30 
0.0
 0 
VERTEX
 8 
1
 10 
0.3227
 20 
0.47152
 30 
0.0
 0 
VERTEX
 8 
1
 10 
0.28565
 20 
0.47479
 30 
0.0
 0 
VERTEX
 8 
1
 10 
0.25
 20 
0.47794
 30 
0.0
 0 
VERTEX
 8 
1
 10 
0.21597
 20 
0.48094
 30 
0.0
 0 
VERTEX
 8 
1
 10 
0.18378
 20 
0.48378
 30 
0.0
 0 
VERTEX
 8 
1
 10 
0.15364
 20 
0.48644
 30 
0.0
 0 
VERTEX
 8 
1
 10 
0.12574
 20 
0.4889
 30 
0.0
 0 
VERTEX
 8 
1
 10 
0.10028
 20 
0.49115
 30 
0.0
 0 
VERTEX
 8 
1
 10 
0.0774
 20 
0.49317
 30 
0.0
 0 
VERTEX
 8 
1
 10 
0.05727
 20 
0.49495
 30 
0.0
 0 
VERTEX
 8 
1
 10 
0.04001
 20 
0.49647
 30 
0.0
 0 
VERTEX
 8 
1
 10 
0.02573
 20 
0.49773
 30 
0.0
 0 
VERTEX
 8 
1
 10 
0.01453
 20 
0.49872
 30 
0.0
 0 
VERTEX
 8 
1
 10 
0.0064699
 20 
0.49943
 30 
0.0
 0 
VERTEX
 8 
1
 10 
0.0016199
 20 
0.49986
 30 
0.0
 0 
VERTEX
 8 
1
 10 
0.0
 20 
0.5
 30 
0.0
 0 
SEQEND
 8 
1
 0 
ENDSEC
 0 
EOF
