 0 
SECTION
 2 
ENTITIES
 0 
POLYLINE
 8 
1
 66 
 1 
 10 
0.0
 20 
0.0
 30 
0.0
 0 
VERTEX
 8 
1
 10 
0.0
 20 
0.5
 30 
0.0
 0 
VERTEX
 8 
1
 10 
0.01996
 20 
0.50828
 30 
0.0
 0 
VERTEX
 8 
1
 10 
0.03992
 20 
0.51477
 30 
0.0
 0 
VERTEX
 8 
1
 10 
0.05988
 20 
0.52156
 30 
0.0
 0 
VERTEX
 8 
1
 10 
0.0998
 20 
0.53313
 30 
0.0
 0 
VERTEX
 8 
1
 10 
0.13972
 20 
0.54422
 30 
0.0
 0 
VERTEX
 8 
1
 10 
0.17964
 20 
0.55309
 30 
0.0
 0 
VERTEX
 8 
1
 10 
0.21956
 20 
0.56168
 30 
0.0
 0 
VERTEX
 8 
1
 10 
0.25948
 20 
0.57006
 30 
0.0
 0 
VERTEX
 8 
1
 10 
0.2994
 20 
0.57705
 30 
0.0
 0 
VERTEX
 8 
1
 10 
0.31936
 20 
0.58024
 30 
0.0
 0 
VERTEX
 8 
1
 10 
0.33533
 20 
0.58243
 30 
0.0
 0 
VERTEX
 8 
1
 10 
0.35928
 20 
0.58543
 30 
0.0
 0 
VERTEX
 8 
1
 10 
0.37924
 20 
0.58782
 30 
0.0
 0 
VERTEX
 8 
1
 10 
0.3992
 20 
0.59002
 30 
0.0
 0 
VERTEX
 8 
1
 10 
0.41916
 20 
0.59182
 30 
0.0
 0 
VERTEX
 8 
1
 10 
0.43912
 20 
0.59341
 30 
0.0
 0 
VERTEX
 8 
1
 10 
0.45908
 20 
0.59481
 30 
0.0
 0 
VERTEX
 8 
1
 10 
0.47904
 20 
0.59621
 30 
0.0
 0 
VERTEX
 8 
1
 10 
0.499
 20 
0.59721
 30 
0.0
 0 
VERTEX
 8 
1
 10 
0.51896
 20 
0.598
 30 
0.0
 0 
VERTEX
 8 
1
 10 
0.53892
 20 
0.5986
 30 
0.0
 0 
VERTEX
 8 
1
 10 
0.55888
 20 
0.5988
 30 
0.0
 0 
VERTEX
 8 
1
 10 
0.57884
 20 
0.599
 30 
0.0
 0 
VERTEX
 8 
1
 10 
0.5988
 20 
0.5986
 30 
0.0
 0 
VERTEX
 8 
1
 10 
0.61876
 20 
0.5982
 30 
0.0
 0 
VERTEX
 8 
1
 10 
0.63872
 20 
0.5978
 30 
0.0
 0 
VERTEX
 8 
1
 10 
0.65868
 20 
0.59721
 30 
0.0
 0 
VERTEX
 8 
1
 10 
0.67864
 20 
0.59641
 30 
0.0
 0 
VERTEX
 8 
1
 10 
0.6986
 20 
0.59561
 30 
0.0
 0 
VERTEX
 8 
1
 10 
0.71856
 20 
0.59461
 30 
0.0
 0 
VERTEX
 8 
1
 10 
0.73852
 20 
0.59341
 30 
0.0
 0 
VERTEX
 8 
1
 10 
0.77844
 20 
0.58982
 30 
0.0
 0 
VERTEX
 8 
1
 10 
0.7984
 20 
0.58703
 30 
0.0
 0 
VERTEX
 8 
1
 10 
0.81836
 20 
0.58403
 30 
0.0
 0 
VERTEX
 8 
1
 10 
0.83832
 20 
0.58064
 30 
0.0
 0 
VERTEX
 8 
1
 10 
0.85828
 20 
0.57685
 30 
0.0
 0 
VERTEX
 8 
1
 10 
0.8982
 20 
0.56844
 30 
0.0
 0 
VERTEX
 8 
1
 10 
0.90818
 20 
0.56547
 30 
0.0
 0 
VERTEX
 8 
1
 10 
0.92814
 20 
0.55948
 30 
0.0
 0 
VERTEX
 8 
1
 10 
0.9481
 20 
0.5517
 30 
0.0
 0 
VERTEX
 8 
1
 10 
0.95808
 20 
0.54711
 30 
0.0
 0 
VERTEX
 8 
1
 10 
0.96806
 20 
0.54152
 30 
0.0
 0 
VERTEX
 8 
1
 10 
0.97804
 20 
0.53473
 30 
0.0
 0 
VERTEX
 8 
1
 10 
0.98802
 20 
0.5259
 30 
0.0
 0 
VERTEX
 8 
1
 10 
1
 20 
0.5
 30 
0.0
 0 
VERTEX
 8 
1
 10 
0.98802
 20 
0.48263
 30 
0.0
 0 
VERTEX
 8 
1
 10 
0.97804
 20 
0.47744
 30 
0.0
 0 
VERTEX
 8 
1
 10 
0.96806
 20 
0.47385
 30 
0.0
 0 
VERTEX
 8 
1
 10 
0.95808
 20 
0.47098
 30 
0.0
 0 
VERTEX
 8 
1
 10 
0.9481
 20 
0.46846
 30 
0.0
 0 
VERTEX
 8 
1
 10 
0.92814
 20 
0.46475
 30 
0.0
 0 
VERTEX
 8 
1
 10 
0.90818
 20 
0.4612
 30 
0.0
 0 
VERTEX
 8 
1
 10 
0.8982
 20 
0.45968
 30 
0.0
 0 
VERTEX
 8 
1
 10 
0.87824
 20 
0.45689
 30 
0.0
 0 
VERTEX
 8 
1
 10 
0.85828
 20 
0.45429
 30 
0.0
 0 
VERTEX
 8 
1
 10 
0.83832
 20 
0.45229
 30 
0.0
 0 
VERTEX
 8 
1
 10 
0.81836
 20 
0.4501
 30 
0.0
 0 
VERTEX
 8 
1
 10 
0.7984
 20 
0.44791
 30 
0.0
 0 
VERTEX
 8 
1
 10 
0.77844
 20 
0.44591
 30 
0.0
 0 
VERTEX
 8 
1
 10 
0.75848
 20 
0.44411
 30 
0.0
 0 
VERTEX
 8 
1
 10 
0.73852
 20 
0.44232
 30 
0.0
 0 
VERTEX
 8 
1
 10 
0.6986
 20 
0.43952
 30 
0.0
 0 
VERTEX
 8 
1
 10 
0.67864
 20 
0.43832
 30 
0.0
 0 
VERTEX
 8 
1
 10 
0.65868
 20 
0.43753
 30 
0.0
 0 
VERTEX
 8 
1
 10 
0.63872
 20 
0.43673
 30 
0.0
 0 
VERTEX
 8 
1
 10 
0.61876
 20 
0.43653
 30 
0.0
 0 
VERTEX
 8 
1
 10 
0.5988
 20 
0.43653
 30 
0.0
 0 
VERTEX
 8 
1
 10 
0.55888
 20 
0.43773
 30 
0.0
 0 
VERTEX
 8 
1
 10 
0.53892
 20 
0.43892
 30 
0.0
 0 
VERTEX
 8 
1
 10 
0.51896
 20 
0.44012
 30 
0.0
 0 
VERTEX
 8 
1
 10 
0.499
 20 
0.44172
 30 
0.0
 0 
VERTEX
 8 
1
 10 
0.47904
 20 
0.44371
 30 
0.0
 0 
VERTEX
 8 
1
 10 
0.45908
 20 
0.44571
 30 
0.0
 0 
VERTEX
 8 
1
 10 
0.43912
 20 
0.4481
 30 
0.0
 0 
VERTEX
 8 
1
 10 
0.41916
 20 
0.4507
 30 
0.0
 0 
VERTEX
 8 
1
 10 
0.3992
 20 
0.45349
 30 
0.0
 0 
VERTEX
 8 
1
 10 
0.37924
 20 
0.45669
 30 
0.0
 0 
VERTEX
 8 
1
 10 
0.35928
 20 
0.45988
 30 
0.0
 0 
VERTEX
 8 
1
 10 
0.33533
 20 
0.46407
 30 
0.0
 0 
VERTEX
 8 
1
 10 
0.31936
 20 
0.46727
 30 
0.0
 0 
VERTEX
 8 
1
 10 
0.2994
 20 
0.47126
 30 
0.0
 0 
VERTEX
 8 
1
 10 
0.2794
 20 
0.47565
 30 
0.0
 0 
VERTEX
 8 
1
 10 
0.25948
 20 
0.48024
 30 
0.0
 0 
VERTEX
 8 
1
 10 
0.23952
 20 
0.48503
 30 
0.0
 0 
VERTEX
 8 
1
 10 
0.21956
 20 
0.48922
 30 
0.0
 0 
VERTEX
 8 
1
 10 
0.1996
 20 
0.49262
 30 
0.0
 0 
VERTEX
 8 
1
 10 
0.17964
 20 
0.49561
 30 
0.0
 0 
VERTEX
 8 
1
 10 
0.15968
 20 
0.4978
 30 
0.0
 0 
VERTEX
 8 
1
 10 
0.13972
 20 
0.5
 30 
0.0
 0 
VERTEX
 8 
1
 10 
0.11976
 20 
0.502
 30 
0.0
 0 
VERTEX
 8 
1
 10 
0.0998
 20 
0.503
 30 
0.0
 0 
VERTEX
 8 
1
 10 
0.07985
 20 
0.5029
 30 
0.0
 0 
VERTEX
 8 
1
 10 
0.05988
 20 
0.5026
 30 
0.0
 0 
VERTEX
 8 
1
 10 
0.0394
 20 
0.5023
 30 
0.0
 0 
VERTEX
 8 
1
 10 
0.01996
 20 
0.501
 30 
0.0
 0 
VERTEX
 8 
1
 10 
0.0
 20 
0.5
 30 
0.0
 0 
SEQEND
 8 
1
 0 
ENDSEC
 0 
EOF
