 0 
SECTION
 2 
ENTITIES
 0 
POLYLINE
 8 
1
 66 
 1 
 10 
0.0
 20 
0.0
 30 
0.0
 0 
VERTEX
 8 
1
 10 
1
 20 
0.5
 30 
0.0
 0 
VERTEX
 8 
1
 10 
0.9998543
 20 
0.5020791
 30 
0.0
 0 
VERTEX
 8 
1
 10 
0.9994011
 20 
0.5043226
 30 
0.0
 0 
VERTEX
 8 
1
 10 
0.9986591
 20 
0.5066716
 30 
0.0
 0 
VERTEX
 8 
1
 10 
0.9976534
 20 
0.509141
 30 
0.0
 0 
VERTEX
 8 
1
 10 
0.9963859
 20 
0.5117609
 30 
0.0
 0 
VERTEX
 8 
1
 10 
0.9948428
 20 
0.5145612
 30 
0.0
 0 
VERTEX
 8 
1
 10 
0.992984
 20 
0.517576
 30 
0.0
 0 
VERTEX
 8 
1
 10 
0.9907567
 20 
0.5208453
 30 
0.0
 0 
VERTEX
 8 
1
 10 
0.988089
 20 
0.5244164
 30 
0.0
 0 
VERTEX
 8 
1
 10 
0.9848829
 20 
0.5283474
 30 
0.0
 0 
VERTEX
 8 
1
 10 
0.9810166
 20 
0.5327004
 30 
0.0
 0 
VERTEX
 8 
1
 10 
0.9763352
 20 
0.5375507
 30 
0.0
 0 
VERTEX
 8 
1
 10 
0.9706649
 20 
0.5429706
 30 
0.0
 0 
VERTEX
 8 
1
 10 
0.9638287
 20 
0.5490064
 30 
0.0
 0 
VERTEX
 8 
1
 10 
0.9556877
 20 
0.5556434
 30 
0.0
 0 
VERTEX
 8 
1
 10 
0.9461887
 20 
0.5627835
 30 
0.0
 0 
VERTEX
 8 
1
 10 
0.9353984
 20 
0.5702568
 30 
0.0
 0 
VERTEX
 8 
1
 10 
0.9234674
 20 
0.577869
 30 
0.0
 0 
VERTEX
 8 
1
 10 
0.9105844
 20 
0.5854478
 30 
0.0
 0 
VERTEX
 8 
1
 10 
0.8969283
 20 
0.5928688
 30 
0.0
 0 
VERTEX
 8 
1
 10 
0.8826539
 20 
0.600049
 30 
0.0
 0 
VERTEX
 8 
1
 10 
0.867891
 20 
0.60693
 30 
0.0
 0 
VERTEX
 8 
1
 10 
0.8527405
 20 
0.6134707
 30 
0.0
 0 
VERTEX
 8 
1
 10 
0.8372765
 20 
0.6196449
 30 
0.0
 0 
VERTEX
 8 
1
 10 
0.8215559
 20 
0.6254346
 30 
0.0
 0 
VERTEX
 8 
1
 10 
0.8056216
 20 
0.6308288
 30 
0.0
 0 
VERTEX
 8 
1
 10 
0.7895097
 20 
0.6358162
 30 
0.0
 0 
VERTEX
 8 
1
 10 
0.773249
 20 
0.6403919
 30 
0.0
 0 
VERTEX
 8 
1
 10 
0.7568677
 20 
0.644547
 30 
0.0
 0 
VERTEX
 8 
1
 10 
0.7403887
 20 
0.6482752
 30 
0.0
 0 
VERTEX
 8 
1
 10 
0.723829
 20 
0.6515715
 30 
0.0
 0 
VERTEX
 8 
1
 10 
0.7072066
 20 
0.6544291
 30 
0.0
 0 
VERTEX
 8 
1
 10 
0.6905334
 20 
0.6568438
 30 
0.0
 0 
VERTEX
 8 
1
 10 
0.6738245
 20 
0.6588125
 30 
0.0
 0 
VERTEX
 8 
1
 10 
0.6571018
 20 
0.6603344
 30 
0.0
 0 
VERTEX
 8 
1
 10 
0.6403953
 20 
0.6614033
 30 
0.0
 0 
VERTEX
 8 
1
 10 
0.6237431
 20 
0.6620161
 30 
0.0
 0 
VERTEX
 8 
1
 10 
0.6071851
 20 
0.6621598
 30 
0.0
 0 
VERTEX
 8 
1
 10 
0.5907403
 20 
0.6618164
 30 
0.0
 0 
VERTEX
 8 
1
 10 
0.5743996
 20 
0.6609678
 30 
0.0
 0 
VERTEX
 8 
1
 10 
0.5581141
 20 
0.6595972
 30 
0.0
 0 
VERTEX
 8 
1
 10 
0.5418226
 20 
0.6577047
 30 
0.0
 0 
VERTEX
 8 
1
 10 
0.5254973
 20 
0.6553063
 30 
0.0
 0 
VERTEX
 8 
1
 10 
0.5091362
 20 
0.6524111
 30 
0.0
 0 
VERTEX
 8 
1
 10 
0.4927143
 20 
0.6490139
 30 
0.0
 0 
VERTEX
 8 
1
 10 
0.4761665
 20 
0.645114
 30 
0.0
 0 
VERTEX
 8 
1
 10 
0.4594189
 20 
0.6407256
 30 
0.0
 0 
VERTEX
 8 
1
 10 
0.4424166
 20 
0.6358796
 30 
0.0
 0 
VERTEX
 8 
1
 10 
0.4251216
 20 
0.6306111
 30 
0.0
 0 
VERTEX
 8 
1
 10 
0.407497
 20 
0.6249652
 30 
0.0
 0 
VERTEX
 8 
1
 10 
0.3895199
 20 
0.6189999
 30 
0.0
 0 
VERTEX
 8 
1
 10 
0.3712035
 20 
0.6127943
 30 
0.0
 0 
VERTEX
 8 
1
 10 
0.3526369
 20 
0.6064491
 30 
0.0
 0 
VERTEX
 8 
1
 10 
0.3339841
 20 
0.600065
 30 
0.0
 0 
VERTEX
 8 
1
 10 
0.3153985
 20 
0.5937368
 30 
0.0
 0 
VERTEX
 8 
1
 10 
0.2969311
 20 
0.5875234
 30 
0.0
 0 
VERTEX
 8 
1
 10 
0.2785609
 20 
0.5814578
 30 
0.0
 0 
VERTEX
 8 
1
 10 
0.2602079
 20 
0.5755411
 30 
0.0
 0 
VERTEX
 8 
1
 10 
0.2417892
 20 
0.5697446
 30 
0.0
 0 
VERTEX
 8 
1
 10 
0.2232686
 20 
0.5640372
 30 
0.0
 0 
VERTEX
 8 
1
 10 
0.2046341
 20 
0.5584011
 30 
0.0
 0 
VERTEX
 8 
1
 10 
0.1858857
 20 
0.552819
 30 
0.0
 0 
VERTEX
 8 
1
 10 
0.1670344
 20 
0.5472762
 30 
0.0
 0 
VERTEX
 8 
1
 10 
0.1481043
 20 
0.5417615
 30 
0.0
 0 
VERTEX
 8 
1
 10 
0.129137
 20 
0.5362789
 30 
0.0
 0 
VERTEX
 8 
1
 10 
0.110175
 20 
0.5308382
 30 
0.0
 0 
VERTEX
 8 
1
 10 
0.091275
 20 
0.5254544
 30 
0.0
 0 
VERTEX
 8 
1
 10 
0.072549
 20 
0.5201603
 30 
0.0
 0 
VERTEX
 8 
1
 10 
0.0542494
 20 
0.5150235
 30 
0.0
 0 
VERTEX
 8 
1
 10 
0.0368541
 20 
0.5101742
 30 
0.0
 0 
VERTEX
 8 
1
 10 
0.0210835
 20 
0.5058041
 30 
0.0
 0 
VERTEX
 8 
1
 10 
0.0076007
 20 
0.502088
 30 
0.0
 0 
VERTEX
 8 
1
 10 
0.0
 20 
0.5
 30 
0.0
 0 
VERTEX
 8 
1
 10 
1
 20 
0.5
 30 
0.0
 0 
VERTEX
 8 
1
 10 
0.9998195
 20 
0.4978186
 30 
0.0
 0 
VERTEX
 8 
1
 10 
0.9992746
 20 
0.4956437
 30 
0.0
 0 
VERTEX
 8 
1
 10 
0.9983711
 20 
0.4934895
 30 
0.0
 0 
VERTEX
 8 
1
 10 
0.9971217
 20 
0.4913688
 30 
0.0
 0 
VERTEX
 8 
1
 10 
0.9955194
 20 
0.4893137
 30 
0.0
 0 
VERTEX
 8 
1
 10 
0.9935324
 20 
0.4873752
 30 
0.0
 0 
VERTEX
 8 
1
 10 
0.9911317
 20 
0.4856085
 30 
0.0
 0 
VERTEX
 8 
1
 10 
0.9882943
 20 
0.4840434
 30 
0.0
 0 
VERTEX
 8 
1
 10 
0.9849904
 20 
0.48269
 30 
0.0
 0 
VERTEX
 8 
1
 10 
0.9811609
 20 
0.4815216
 30 
0.0
 0 
VERTEX
 8 
1
 10 
0.9767096
 20 
0.4804642
 30 
0.0
 0 
VERTEX
 8 
1
 10 
0.9714913
 20 
0.479397
 30 
0.0
 0 
VERTEX
 8 
1
 10 
0.965315
 20 
0.4782285
 30 
0.0
 0 
VERTEX
 8 
1
 10 
0.9579337
 20 
0.476959
 30 
0.0
 0 
VERTEX
 8 
1
 10 
0.9490635
 20 
0.475658
 30 
0.0
 0 
VERTEX
 8 
1
 10 
0.9383995
 20 
0.474396
 30 
0.0
 0 
VERTEX
 8 
1
 10 
0.9256688
 20 
0.4732084
 30 
0.0
 0 
VERTEX
 8 
1
 10 
0.9108715
 20 
0.4720663
 30 
0.0
 0 
VERTEX
 8 
1
 10 
0.8944245
 20 
0.471017
 30 
0.0
 0 
VERTEX
 8 
1
 10 
0.8768369
 20 
0.4701205
 30 
0.0
 0 
VERTEX
 8 
1
 10 
0.8585046
 20 
0.4693913
 30 
0.0
 0 
VERTEX
 8 
1
 10 
0.8396936
 20 
0.4688009
 30 
0.0
 0 
VERTEX
 8 
1
 10 
0.8205998
 20 
0.4683369
 30 
0.0
 0 
VERTEX
 8 
1
 10 
0.8013293
 20 
0.4679832
 30 
0.0
 0 
VERTEX
 8 
1
 10 
0.7819459
 20 
0.4677317
 30 
0.0
 0 
VERTEX
 8 
1
 10 
0.7624857
 20 
0.4675693
 30 
0.0
 0 
VERTEX
 8 
1
 10 
0.7429767
 20 
0.467492
 30 
0.0
 0 
VERTEX
 8 
1
 10 
0.7234288
 20 
0.4674938
 30 
0.0
 0 
VERTEX
 8 
1
 10 
0.70386
 20 
0.4675705
 30 
0.0
 0 
VERTEX
 8 
1
 10 
0.6842703
 20 
0.4677213
 30 
0.0
 0 
VERTEX
 8 
1
 10 
0.6646667
 20 
0.4679401
 30 
0.0
 0 
VERTEX
 8 
1
 10 
0.6450673
 20 
0.4682239
 30 
0.0
 0 
VERTEX
 8 
1
 10 
0.6255039
 20 
0.4685727
 30 
0.0
 0 
VERTEX
 8 
1
 10 
0.6060057
 20 
0.4690013
 30 
0.0
 0 
VERTEX
 8 
1
 10 
0.5865437
 20 
0.4695278
 30 
0.0
 0 
VERTEX
 8 
1
 10 
0.5670678
 20 
0.4701544
 30 
0.0
 0 
VERTEX
 8 
1
 10 
0.5475451
 20 
0.470874
 30 
0.0
 0 
VERTEX
 8 
1
 10 
0.5279465
 20 
0.4716747
 30 
0.0
 0 
VERTEX
 8 
1
 10 
0.508259
 20 
0.4725416
 30 
0.0
 0 
VERTEX
 8 
1
 10 
0.4884947
 20 
0.4734536
 30 
0.0
 0 
VERTEX
 8 
1
 10 
0.4686804
 20 
0.4743987
 30 
0.0
 0 
VERTEX
 8 
1
 10 
0.4488351
 20 
0.4753738
 30 
0.0
 0 
VERTEX
 8 
1
 10 
0.4289609
 20 
0.476374
 30 
0.0
 0 
VERTEX
 8 
1
 10 
0.4090547
 20 
0.4773973
 30 
0.0
 0 
VERTEX
 8 
1
 10 
0.3891166
 20 
0.4784345
 30 
0.0
 0 
VERTEX
 8 
1
 10 
0.3691545
 20 
0.4794789
 30 
0.0
 0 
VERTEX
 8 
1
 10 
0.3491813
 20 
0.4805282
 30 
0.0
 0 
VERTEX
 8 
1
 10 
0.3292122
 20 
0.4815746
 30 
0.0
 0 
VERTEX
 8 
1
 10 
0.3092531
 20 
0.4826139
 30 
0.0
 0 
VERTEX
 8 
1
 10 
0.2893059
 20 
0.4836432
 30 
0.0
 0 
VERTEX
 8 
1
 10 
0.2693697
 20 
0.4846615
 30 
0.0
 0 
VERTEX
 8 
1
 10 
0.2494415
 20 
0.4856667
 30 
0.0
 0 
VERTEX
 8 
1
 10 
0.2295232
 20 
0.486657
 30 
0.0
 0 
VERTEX
 8 
1
 10 
0.209613
 20 
0.4876322
 30 
0.0
 0 
VERTEX
 8 
1
 10 
0.1897227
 20 
0.4885904
 30 
0.0
 0 
VERTEX
 8 
1
 10 
0.1698614
 20 
0.4895276
 30 
0.0
 0 
VERTEX
 8 
1
 10 
0.150041
 20 
0.4904377
 30 
0.0
 0 
VERTEX
 8 
1
 10 
0.1302916
 20 
0.4913247
 30 
0.0
 0 
VERTEX
 8 
1
 10 
0.1107412
 20 
0.4922243
 30 
0.0
 0 
VERTEX
 8 
1
 10 
0.0915039
 20 
0.4931855
 30 
0.0
 0 
VERTEX
 8 
1
 10 
0.0726807
 20 
0.4942429
 30 
0.0
 0 
VERTEX
 8 
1
 10 
0.0544595
 20 
0.4954133
 30 
0.0
 0 
VERTEX
 8 
1
 10 
0.0371985
 20 
0.496684
 30 
0.0
 0 
VERTEX
 8 
1
 10 
0.0214533
 20 
0.4979903
 30 
0.0
 0 
VERTEX
 8 
1
 10 
0.0078028
 20 
0.499238
 30 
0.0
 0 
VERTEX
 8 
1
 10 
0.0
 20 
0.5
 30 
0.0
 0 
SEQEND
 8 
1
 0 
ENDSEC
 0 
EOF
