 0 
SECTION
 2 
ENTITIES
 0 
POLYLINE
 8 
1
 66 
 1 
 10 
0.0
 20 
0.0
 30 
0.0
 0 
VERTEX
 8 
1
 10 
1
 20 
0.5
 30 
0.0
 0 
VERTEX
 8 
1
 10 
0.9986752
 20 
0.5050461
 30 
0.0
 0 
VERTEX
 8 
1
 10 
0.9955283
 20 
0.5094186
 30 
0.0
 0 
VERTEX
 8 
1
 10 
0.9904213
 20 
0.5138426
 30 
0.0
 0 
VERTEX
 8 
1
 10 
0.9835042
 20 
0.5183179
 30 
0.0
 0 
VERTEX
 8 
1
 10 
0.974827
 20 
0.5227745
 30 
0.0
 0 
VERTEX
 8 
1
 10 
0.9523323
 20 
0.5314815
 30 
0.0
 0 
VERTEX
 8 
1
 10 
0.9233068
 20 
0.5397133
 30 
0.0
 0 
VERTEX
 8 
1
 10 
0.8882206
 20 
0.5472594
 30 
0.0
 0 
VERTEX
 8 
1
 10 
0.8475933
 20 
0.5538597
 30 
0.0
 0 
VERTEX
 8 
1
 10 
0.801995
 20 
0.5593335
 30 
0.0
 0 
VERTEX
 8 
1
 10 
0.702053
 20 
0.5635972
 30 
0.0
 0 
VERTEX
 8 
1
 10 
0.6985349
 20 
0.5664599
 30 
0.0
 0 
VERTEX
 8 
1
 10 
0.6422231
 20 
0.5679714
 30 
0.0
 0 
VERTEX
 8 
1
 10 
0.5840201
 20 
0.5680342
 30 
0.0
 0 
VERTEX
 8 
1
 10 
0.5544882
 20 
0.5674958
 30 
0.0
 0 
VERTEX
 8 
1
 10 
0.4951335
 20 
0.5652194
 30 
0.0
 0 
VERTEX
 8 
1
 10 
0.407014
 20 
0.5585138
 30 
0.0
 0 
VERTEX
 8 
1
 10 
0.3499358
 20 
0.5514254
 30 
0.0
 0 
VERTEX
 8 
1
 10 
0.2949858
 20 
0.5415553
 30 
0.0
 0 
VERTEX
 8 
1
 10 
0.2377441
 20 
0.5296667
 30 
0.0
 0 
VERTEX
 8 
1
 10 
0.1831657
 20 
0.5220965
 30 
0.0
 0 
VERTEX
 8 
1
 10 
0.0925627
 20 
0.5107725
 30 
0.0
 0 
VERTEX
 8 
1
 10 
0.0
 20 
0.5
 30 
0.0
 0 
VERTEX
 8 
1
 10 
1
 20 
0.5
 30 
0.0
 0 
VERTEX
 8 
1
 10 
0.9971058
 20 
0.4923066
 30 
0.0
 0 
VERTEX
 8 
1
 10 
0.9924026
 20 
0.4883598
 30 
0.0
 0 
VERTEX
 8 
1
 10 
0.9856926
 20 
0.4887548
 30 
0.0
 0 
VERTEX
 8 
1
 10 
0.9548684
 20 
0.4715965
 30 
0.0
 0 
VERTEX
 8 
1
 10 
0.9259209
 20 
0.4634874
 30 
0.0
 0 
VERTEX
 8 
1
 10 
0.8970738
 20 
0.4558582
 30 
0.0
 0 
VERTEX
 8 
1
 10 
0.8500663
 20 
0.4488924
 30 
0.0
 0 
VERTEX
 8 
1
 10 
0.7546633
 20 
0.437932
 30 
0.0
 0 
VERTEX
 8 
1
 10 
0.7014179
 20 
0.434311
 30 
0.0
 0 
VERTEX
 8 
1
 10 
0.6454834
 20 
0.432162
 30 
0.0
 0 
VERTEX
 8 
1
 10 
0.58766
 20 
0.4315744
 30 
0.0
 0 
VERTEX
 8 
1
 10 
0.3822476
 20 
0.442806
 30 
0.0
 0 
VERTEX
 8 
1
 10 
0.2983121
 20 
0.4547184
 30 
0.0
 0 
VERTEX
 8 
1
 10 
0.1922418
 20 
0.4752874
 30 
0.0
 0 
VERTEX
 8 
1
 10 
0.0987887
 20 
0.4913069
 30 
0.0
 0 
VERTEX
 8 
1
 10 
0.0
 20 
0.5
 30 
0.0
 0 
SEQEND
 8 
1
 0 
ENDSEC
 0 
EOF
