 0 
SECTION
 2 
ENTITIES
 0 
POLYLINE
 8 
1
 66 
 1 
 10 
0.0
 20 
0.0
 30 
0.0
 0 
VERTEX
 8 
1
 10 
0.0
 20 
0.5
 30 
0.0
 0 
VERTEX
 8 
1
 10 
0.0037800
 20 
0.50037
 30 
0.0
 0 
VERTEX
 8 
1
 10 
0.01468
 20 
0.50177
 30 
0.0
 0 
VERTEX
 8 
1
 10 
0.031800
 20 
0.50434
 30 
0.0
 0 
VERTEX
 8 
1
 10 
0.05464
 20 
0.50767
 30 
0.0
 0 
VERTEX
 8 
1
 10 
0.08316
 20 
0.5116
 30 
0.0
 0 
VERTEX
 8 
1
 10 
0.11709
 20 
0.51636
 30 
0.0
 0 
VERTEX
 8 
1
 10 
0.15581
 20 
0.52211
 30 
0.0
 0 
VERTEX
 8 
1
 10 
0.19862
 20 
0.52884
 30 
0.0
 0 
VERTEX
 8 
1
 10 
0.2448
 20 
0.53647
 30 
0.0
 0 
VERTEX
 8 
1
 10 
0.29361
 20 
0.54486
 30 
0.0
 0 
VERTEX
 8 
1
 10 
0.34426
 20 
0.55375
 30 
0.0
 0 
VERTEX
 8 
1
 10 
0.39603
 20 
0.56288
 30 
0.0
 0 
VERTEX
 8 
1
 10 
0.44821
 20 
0.57192
 30 
0.0
 0 
VERTEX
 8 
1
 10 
0.50017
 20 
0.58052
 30 
0.0
 0 
VERTEX
 8 
1
 10 
0.55131
 20 
0.58836
 30 
0.0
 0 
VERTEX
 8 
1
 10 
0.60111
 20 
0.59509
 30 
0.0
 0 
VERTEX
 8 
1
 10 
0.64912
 20 
0.60043
 30 
0.0
 0 
VERTEX
 8 
1
 10 
0.69494
 20 
0.6041
 30 
0.0
 0 
VERTEX
 8 
1
 10 
0.73823
 20 
0.60593
 30 
0.0
 0 
VERTEX
 8 
1
 10 
0.77871
 20 
0.60576
 30 
0.0
 0 
VERTEX
 8 
1
 10 
0.81612
 20 
0.6035
 30 
0.0
 0 
VERTEX
 8 
1
 10 
0.8503
 20 
0.59913
 30 
0.0
 0 
VERTEX
 8 
1
 10 
0.88107
 20 
0.59272
 30 
0.0
 0 
VERTEX
 8 
1
 10 
0.90826
 20 
0.58421
 30 
0.0
 0 
VERTEX
 8 
1
 10 
0.9321
 20 
0.57374
 30 
0.0
 0 
VERTEX
 8 
1
 10 
0.95268
 20 
0.56183
 30 
0.0
 0 
VERTEX
 8 
1
 10 
0.96976
 20 
0.549
 30 
0.0
 0 
VERTEX
 8 
1
 10 
0.9832
 20 
0.53568
 30 
0.0
 0 
VERTEX
 8 
1
 10 
0.99282
 20 
0.52226
 30 
0.0
 0 
VERTEX
 8 
1
 10 
1
 20 
0.5
 30 
0.0
 0 
VERTEX
 8 
1
 10 
0.9957
 20 
0.48679
 30 
0.0
 0 
VERTEX
 8 
1
 10 
0.98586
 20 
0.47635
 30 
0.0
 0 
VERTEX
 8 
1
 10 
0.97145
 20 
0.46599
 30 
0.0
 0 
VERTEX
 8 
1
 10 
0.95293
 20 
0.45626
 30 
0.0
 0 
VERTEX
 8 
1
 10 
0.93052
 20 
0.44759
 30 
0.0
 0 
VERTEX
 8 
1
 10 
0.90437
 20 
0.44041
 30 
0.0
 0 
VERTEX
 8 
1
 10 
0.87455
 20 
0.43509
 30 
0.0
 0 
VERTEX
 8 
1
 10 
0.84109
 20 
0.43191
 30 
0.0
 0 
VERTEX
 8 
1
 10 
0.80385
 20 
0.43108
 30 
0.0
 0 
VERTEX
 8 
1
 10 
0.76254
 20 
0.43241
 30 
0.0
 0 
VERTEX
 8 
1
 10 
0.71732
 20 
0.43521
 30 
0.0
 0 
VERTEX
 8 
1
 10 
0.66882
 20 
0.43899
 30 
0.0
 0 
VERTEX
 8 
1
 10 
0.61772
 20 
0.44351
 30 
0.0
 0 
VERTEX
 8 
1
 10 
0.56467
 20 
0.44851
 30 
0.0
 0 
VERTEX
 8 
1
 10 
0.51039
 20 
0.45381
 30 
0.0
 0 
VERTEX
 8 
1
 10 
0.45558
 20 
0.45923
 30 
0.0
 0 
VERTEX
 8 
1
 10 
0.40098
 20 
0.46461
 30 
0.0
 0 
VERTEX
 8 
1
 10 
0.34731
 20 
0.46984
 30 
0.0
 0 
VERTEX
 8 
1
 10 
0.29528
 20 
0.47479
 30 
0.0
 0 
VERTEX
 8 
1
 10 
0.24559
 20 
0.47938
 30 
0.0
 0 
VERTEX
 8 
1
 10 
0.19893
 20 
0.48355
 30 
0.0
 0 
VERTEX
 8 
1
 10 
0.15593
 20 
0.48724
 30 
0.0
 0 
VERTEX
 8 
1
 10 
0.11719
 20 
0.49044
 30 
0.0
 0 
VERTEX
 8 
1
 10 
0.08328
 20 
0.49316
 30 
0.0
 0 
VERTEX
 8 
1
 10 
0.05471
 20 
0.49545
 30 
0.0
 0 
VERTEX
 8 
1
 10 
0.03178
 20 
0.49746
 30 
0.0
 0 
VERTEX
 8 
1
 10 
0.01462
 20 
0.49903
 30 
0.0
 0 
VERTEX
 8 
1
 10 
0.0037599
 20 
0.49982
 30 
0.0
 0 
VERTEX
 8 
1
 10 
0.0
 20 
0.5
 30 
0.0
 0 
SEQEND
 8 
1
 0 
ENDSEC
 0 
EOF
