 0 
SECTION
 2 
ENTITIES
 0 
POLYLINE
 8 
1
 66 
 1 
 10 
0.0
 20 
0.0
 30 
0.0
 0 
VERTEX
 8 
1
 10 
0.0
 20 
0.5
 30 
0.0
 0 
VERTEX
 8 
1
 10 
0.0036300
 20 
0.50079
 30 
0.0
 0 
VERTEX
 8 
1
 10 
0.01394
 20 
0.50339
 30 
0.0
 0 
VERTEX
 8 
1
 10 
0.02986
 20 
0.50762
 30 
0.0
 0 
VERTEX
 8 
1
 10 
0.05096
 20 
0.51275
 30 
0.0
 0 
VERTEX
 8 
1
 10 
0.07743
 20 
0.51849
 30 
0.0
 0 
VERTEX
 8 
1
 10 
0.1091
 20 
0.52507
 30 
0.0
 0 
VERTEX
 8 
1
 10 
0.14541
 20 
0.53259
 30 
0.0
 0 
VERTEX
 8 
1
 10 
0.18576
 20 
0.54102
 30 
0.0
 0 
VERTEX
 8 
1
 10 
0.22949
 20 
0.55024
 30 
0.0
 0 
VERTEX
 8 
1
 10 
0.27591
 20 
0.56008
 30 
0.0
 0 
VERTEX
 8 
1
 10 
0.32432
 20 
0.57031
 30 
0.0
 0 
VERTEX
 8 
1
 10 
0.37404
 20 
0.58062
 30 
0.0
 0 
VERTEX
 8 
1
 10 
0.42443
 20 
0.59072
 30 
0.0
 0 
VERTEX
 8 
1
 10 
0.47487
 20 
0.60027
 30 
0.0
 0 
VERTEX
 8 
1
 10 
0.52479
 20 
0.60893
 30 
0.0
 0 
VERTEX
 8 
1
 10 
0.57368
 20 
0.61637
 30 
0.0
 0 
VERTEX
 8 
1
 10 
0.62112
 20 
0.62232
 30 
0.0
 0 
VERTEX
 8 
1
 10 
0.66669
 20 
0.62652
 30 
0.0
 0 
VERTEX
 8 
1
 10 
0.71005
 20 
0.62874
 30 
0.0
 0 
VERTEX
 8 
1
 10 
0.75089
 20 
0.62886
 30 
0.0
 0 
VERTEX
 8 
1
 10 
0.78895
 20 
0.62673
 30 
0.0
 0 
VERTEX
 8 
1
 10 
0.8241
 20 
0.62225
 30 
0.0
 0 
VERTEX
 8 
1
 10 
0.85623
 20 
0.61551
 30 
0.0
 0 
VERTEX
 8 
1
 10 
0.88525
 20 
0.60655
 30 
0.0
 0 
VERTEX
 8 
1
 10 
0.91125
 20 
0.59557
 30 
0.0
 0 
VERTEX
 8 
1
 10 
0.93424
 20 
0.58305
 30 
0.0
 0 
VERTEX
 8 
1
 10 
0.95402
 20 
0.56947
 30 
0.0
 0 
VERTEX
 8 
1
 10 
0.9704
 20 
0.55518
 30 
0.0
 0 
VERTEX
 8 
1
 10 
0.98326
 20 
0.54058
 30 
0.0
 0 
VERTEX
 8 
1
 10 
0.99249
 20 
0.52605
 30 
0.0
 0 
VERTEX
 8 
1
 10 
0.99808
 20 
0.51207
 30 
0.0
 0 
VERTEX
 8 
1
 10 
1
 20 
0.5
 30 
0.0
 0 
VERTEX
 8 
1
 10 
0.99755
 20 
0.48895
 30 
0.0
 0 
VERTEX
 8 
1
 10 
0.98974
 20 
0.48052
 30 
0.0
 0 
VERTEX
 8 
1
 10 
0.97676
 20 
0.4731
 30 
0.0
 0 
VERTEX
 8 
1
 10 
0.95916
 20 
0.46735
 30 
0.0
 0 
VERTEX
 8 
1
 10 
0.9368
 20 
0.46366
 30 
0.0
 0 
VERTEX
 8 
1
 10 
0.90946
 20 
0.46224
 30 
0.0
 0 
VERTEX
 8 
1
 10 
0.87674
 20 
0.46286
 30 
0.0
 0 
VERTEX
 8 
1
 10 
0.83872
 20 
0.46484
 30 
0.0
 0 
VERTEX
 8 
1
 10 
0.79596
 20 
0.46771
 30 
0.0
 0 
VERTEX
 8 
1
 10 
0.74906
 20 
0.47119
 30 
0.0
 0 
VERTEX
 8 
1
 10 
0.69866
 20 
0.47503
 30 
0.0
 0 
VERTEX
 8 
1
 10 
0.64545
 20 
0.47904
 30 
0.0
 0 
VERTEX
 8 
1
 10 
0.59013
 20 
0.48304
 30 
0.0
 0 
VERTEX
 8 
1
 10 
0.53346
 20 
0.48691
 30 
0.0
 0 
VERTEX
 8 
1
 10 
0.47618
 20 
0.4905
 30 
0.0
 0 
VERTEX
 8 
1
 10 
0.41907
 20 
0.49371
 30 
0.0
 0 
VERTEX
 8 
1
 10 
0.3629
 20 
0.4965
 30 
0.0
 0 
VERTEX
 8 
1
 10 
0.30841
 20 
0.49878
 30 
0.0
 0 
VERTEX
 8 
1
 10 
0.25636
 20 
0.50052
 30 
0.0
 0 
VERTEX
 8 
1
 10 
0.20746
 20 
0.50174
 30 
0.0
 0 
VERTEX
 8 
1
 10 
0.16238
 20 
0.50245
 30 
0.0
 0 
VERTEX
 8 
1
 10 
0.12178
 20 
0.50268
 30 
0.0
 0 
VERTEX
 8 
1
 10 
0.08624
 20 
0.50251
 30 
0.0
 0 
VERTEX
 8 
1
 10 
0.05629
 20 
0.50207
 30 
0.0
 0 
VERTEX
 8 
1
 10 
0.03233
 20 
0.50153
 30 
0.0
 0 
VERTEX
 8 
1
 10 
0.01466
 20 
0.50092
 30 
0.0
 0 
VERTEX
 8 
1
 10 
0.0037199
 20 
0.5003
 30 
0.0
 0 
VERTEX
 8 
1
 10 
0.0
 20 
0.5
 30 
0.0
 0 
SEQEND
 8 
1
 0 
ENDSEC
 0 
EOF
