 0 
SECTION
 2 
ENTITIES
 0 
POLYLINE
 8 
1
 66 
 1 
 10 
0.0
 20 
0.0
 30 
0.0
 0 
VERTEX
 8 
1
 10 
0.0
 20 
0.5
 30 
0.0
 0 
VERTEX
 8 
1
 10 
0.049950
 20 
0.50805
 30 
0.0
 0 
VERTEX
 8 
1
 10 
0.0999
 20 
0.51601
 30 
0.0
 0 
VERTEX
 8 
1
 10 
0.14985
 20 
0.5239
 30 
0.0
 0 
VERTEX
 8 
1
 10 
0.1998
 20 
0.53196
 30 
0.0
 0 
VERTEX
 8 
1
 10 
0.24974
 20 
0.54065
 30 
0.0
 0 
VERTEX
 8 
1
 10 
0.29968
 20 
0.55018
 30 
0.0
 0 
VERTEX
 8 
1
 10 
0.34962
 20 
0.56025
 30 
0.0
 0 
VERTEX
 8 
1
 10 
0.39956
 20 
0.56974
 30 
0.0
 0 
VERTEX
 8 
1
 10 
0.44951
 20 
0.57829
 30 
0.0
 0 
VERTEX
 8 
1
 10 
0.49946
 20 
0.58626
 30 
0.0
 0 
VERTEX
 8 
1
 10 
0.54941
 20 
0.59416
 30 
0.0
 0 
VERTEX
 8 
1
 10 
0.59936
 20 
0.60169
 30 
0.0
 0 
VERTEX
 8 
1
 10 
0.64933
 20 
0.60713
 30 
0.0
 0 
VERTEX
 8 
1
 10 
0.69931
 20 
0.6104
 30 
0.0
 0 
VERTEX
 8 
1
 10 
0.7493
 20 
0.61131
 30 
0.0
 0 
VERTEX
 8 
1
 10 
0.79932
 20 
0.60885
 30 
0.0
 0 
VERTEX
 8 
1
 10 
0.84936
 20 
0.60127
 30 
0.0
 0 
VERTEX
 8 
1
 10 
0.89946
 20 
0.58532
 30 
0.0
 0 
VERTEX
 8 
1
 10 
0.94962
 20 
0.56034
 30 
0.0
 0 
VERTEX
 8 
1
 10 
0.97475
 20 
0.53944
 30 
0.0
 0 
VERTEX
 8 
1
 10 
0.98734
 20 
0.52471
 30 
0.0
 0 
VERTEX
 8 
1
 10 
0.99239
 20 
0.51761
 30 
0.0
 0 
VERTEX
 8 
1
 10 
0.99492
 20 
0.51293
 30 
0.0
 0 
VERTEX
 8 
1
 10 
0.99898
 20 
0.50326
 30 
0.0
 0 
VERTEX
 8 
1
 10 
0.9998
 20 
0.50076
 30 
0.0
 0 
VERTEX
 8 
1
 10 
1
 20 
0.5
 30 
0.0
 0 
VERTEX
 8 
1
 10 
0.99991
 20 
0.48198
 30 
0.0
 0 
VERTEX
 8 
1
 10 
0.99912
 20 
0.48011
 30 
0.0
 0 
VERTEX
 8 
1
 10 
0.99517
 20 
0.47344
 30 
0.0
 0 
VERTEX
 8 
1
 10 
0.99268
 20 
0.47081
 30 
0.0
 0 
VERTEX
 8 
1
 10 
0.98771
 20 
0.46654
 30 
0.0
 0 
VERTEX
 8 
1
 10 
0.97527
 20 
0.45707
 30 
0.0
 0 
VERTEX
 8 
1
 10 
0.95034
 20 
0.4452
 30 
0.0
 0 
VERTEX
 8 
1
 10 
0.90042
 20 
0.43305
 30 
0.0
 0 
VERTEX
 8 
1
 10 
0.85044
 20 
0.43058
 30 
0.0
 0 
VERTEX
 8 
1
 10 
0.80043
 20 
0.43157
 30 
0.0
 0 
VERTEX
 8 
1
 10 
0.75041
 20 
0.43465
 30 
0.0
 0 
VERTEX
 8 
1
 10 
0.70038
 20 
0.43989
 30 
0.0
 0 
VERTEX
 8 
1
 10 
0.65035
 20 
0.44495
 30 
0.0
 0 
VERTEX
 8 
1
 10 
0.60031
 20 
0.45009
 30 
0.0
 0 
VERTEX
 8 
1
 10 
0.55028
 20 
0.45535
 30 
0.0
 0 
VERTEX
 8 
1
 10 
0.50025
 20 
0.46005
 30 
0.0
 0 
VERTEX
 8 
1
 10 
0.45022
 20 
0.4646
 30 
0.0
 0 
VERTEX
 8 
1
 10 
0.40019
 20 
0.4694
 30 
0.0
 0 
VERTEX
 8 
1
 10 
0.35017
 20 
0.47335
 30 
0.0
 0 
VERTEX
 8 
1
 10 
0.30014
 20 
0.47833
 30 
0.0
 0 
VERTEX
 8 
1
 10 
0.25011
 20 
0.48273
 30 
0.0
 0 
VERTEX
 8 
1
 10 
0.20009
 20 
0.48611
 30 
0.0
 0 
VERTEX
 8 
1
 10 
0.15006
 20 
0.4898
 30 
0.0
 0 
VERTEX
 8 
1
 10 
0.10004
 20 
0.49315
 30 
0.0
 0 
VERTEX
 8 
1
 10 
0.05002
 20 
0.49677
 30 
0.0
 0 
VERTEX
 8 
1
 10 
0.0
 20 
0.5
 30 
0.0
 0 
SEQEND
 8 
1
 0 
ENDSEC
 0 
EOF
