 0 
SECTION
 2 
ENTITIES
 0 
POLYLINE
 8 
1
 66 
 1 
 10 
0.0
 20 
0.0
 30 
0.0
 0 
VERTEX
 8 
1
 10 
0.0
 20 
0.5
 30 
0.0
 0 
VERTEX
 8 
1
 10 
0.0014499
 20 
0.50051
 30 
0.0
 0 
VERTEX
 8 
1
 10 
0.0056199
 20 
0.50214
 30 
0.0
 0 
VERTEX
 8 
1
 10 
0.01209
 20 
0.50497
 30 
0.0
 0 
VERTEX
 8 
1
 10 
0.02046
 20 
0.5088
 30 
0.0
 0 
VERTEX
 8 
1
 10 
0.03048
 20 
0.51329
 30 
0.0
 0 
VERTEX
 8 
1
 10 
0.04213
 20 
0.51807
 30 
0.0
 0 
VERTEX
 8 
1
 10 
0.05558
 20 
0.5229
 30 
0.0
 0 
VERTEX
 8 
1
 10 
0.07102
 20 
0.52778
 30 
0.0
 0 
VERTEX
 8 
1
 10 
0.08846
 20 
0.53284
 30 
0.0
 0 
VERTEX
 8 
1
 10 
0.10776
 20 
0.53813
 30 
0.0
 0 
VERTEX
 8 
1
 10 
0.12881
 20 
0.54364
 30 
0.0
 0 
VERTEX
 8 
1
 10 
0.1515
 20 
0.54935
 30 
0.0
 0 
VERTEX
 8 
1
 10 
0.17568
 20 
0.55526
 30 
0.0
 0 
VERTEX
 8 
1
 10 
0.20122
 20 
0.56133
 30 
0.0
 0 
VERTEX
 8 
1
 10 
0.22798
 20 
0.56752
 30 
0.0
 0 
VERTEX
 8 
1
 10 
0.25581
 20 
0.5738
 30 
0.0
 0 
VERTEX
 8 
1
 10 
0.28455
 20 
0.58011
 30 
0.0
 0 
VERTEX
 8 
1
 10 
0.31406
 20 
0.5864
 30 
0.0
 0 
VERTEX
 8 
1
 10 
0.34418
 20 
0.59262
 30 
0.0
 0 
VERTEX
 8 
1
 10 
0.37475
 20 
0.5987
 30 
0.0
 0 
VERTEX
 8 
1
 10 
0.40563
 20 
0.60458
 30 
0.0
 0 
VERTEX
 8 
1
 10 
0.43668
 20 
0.6102
 30 
0.0
 0 
VERTEX
 8 
1
 10 
0.46774
 20 
0.61548
 30 
0.0
 0 
VERTEX
 8 
1
 10 
0.49868
 20 
0.62036
 30 
0.0
 0 
VERTEX
 8 
1
 10 
0.52937
 20 
0.62477
 30 
0.0
 0 
VERTEX
 8 
1
 10 
0.55968
 20 
0.62864
 30 
0.0
 0 
VERTEX
 8 
1
 10 
0.5895
 20 
0.63192
 30 
0.0
 0 
VERTEX
 8 
1
 10 
0.61871
 20 
0.63454
 30 
0.0
 0 
VERTEX
 8 
1
 10 
0.64722
 20 
0.63644
 30 
0.0
 0 
VERTEX
 8 
1
 10 
0.67491
 20 
0.63757
 30 
0.0
 0 
VERTEX
 8 
1
 10 
0.7017
 20 
0.63787
 30 
0.0
 0 
VERTEX
 8 
1
 10 
0.72754
 20 
0.63727
 30 
0.0
 0 
VERTEX
 8 
1
 10 
0.75239
 20 
0.63575
 30 
0.0
 0 
VERTEX
 8 
1
 10 
0.77621
 20 
0.63328
 30 
0.0
 0 
VERTEX
 8 
1
 10 
0.79898
 20 
0.62985
 30 
0.0
 0 
VERTEX
 8 
1
 10 
0.82071
 20 
0.62549
 30 
0.0
 0 
VERTEX
 8 
1
 10 
0.84137
 20 
0.62025
 30 
0.0
 0 
VERTEX
 8 
1
 10 
0.86096
 20 
0.61418
 30 
0.0
 0 
VERTEX
 8 
1
 10 
0.87947
 20 
0.60736
 30 
0.0
 0 
VERTEX
 8 
1
 10 
0.89688
 20 
0.59991
 30 
0.0
 0 
VERTEX
 8 
1
 10 
0.91312
 20 
0.59195
 30 
0.0
 0 
VERTEX
 8 
1
 10 
0.92814
 20 
0.58357
 30 
0.0
 0 
VERTEX
 8 
1
 10 
0.94186
 20 
0.57486
 30 
0.0
 0 
VERTEX
 8 
1
 10 
0.95424
 20 
0.56589
 30 
0.0
 0 
VERTEX
 8 
1
 10 
0.96522
 20 
0.55676
 30 
0.0
 0 
VERTEX
 8 
1
 10 
0.97476
 20 
0.54757
 30 
0.0
 0 
VERTEX
 8 
1
 10 
0.98283
 20 
0.53839
 30 
0.0
 0 
VERTEX
 8 
1
 10 
0.98939
 20 
0.52934
 30 
0.0
 0 
VERTEX
 8 
1
 10 
0.99704
 20 
0.51331
 30 
0.0
 0 
VERTEX
 8 
1
 10 
0.99934
 20 
0.50581
 30 
0.0
 0 
VERTEX
 8 
1
 10 
0.99998
 20 
0.49897
 30 
0.0
 0 
VERTEX
 8 
1
 10 
0.99874
 20 
0.49325
 30 
0.0
 0 
VERTEX
 8 
1
 10 
0.99493
 20 
0.48835
 30 
0.0
 0 
VERTEX
 8 
1
 10 
0.98846
 20 
0.48359
 30 
0.0
 0 
VERTEX
 8 
1
 10 
0.97985
 20 
0.47898
 30 
0.0
 0 
VERTEX
 8 
1
 10 
0.96923
 20 
0.47462
 30 
0.0
 0 
VERTEX
 8 
1
 10 
0.95666
 20 
0.47063
 30 
0.0
 0 
VERTEX
 8 
1
 10 
0.94211
 20 
0.46706
 30 
0.0
 0 
VERTEX
 8 
1
 10 
0.92559
 20 
0.46387
 30 
0.0
 0 
VERTEX
 8 
1
 10 
0.90716
 20 
0.46102
 30 
0.0
 0 
VERTEX
 8 
1
 10 
0.88691
 20 
0.45848
 30 
0.0
 0 
VERTEX
 8 
1
 10 
0.86495
 20 
0.45622
 30 
0.0
 0 
VERTEX
 8 
1
 10 
0.8414
 20 
0.45425
 30 
0.0
 0 
VERTEX
 8 
1
 10 
0.81639
 20 
0.45255
 30 
0.0
 0 
VERTEX
 8 
1
 10 
0.79003
 20 
0.45113
 30 
0.0
 0 
VERTEX
 8 
1
 10 
0.76247
 20 
0.45
 30 
0.0
 0 
VERTEX
 8 
1
 10 
0.73383
 20 
0.44916
 30 
0.0
 0 
VERTEX
 8 
1
 10 
0.70426
 20 
0.44861
 30 
0.0
 0 
VERTEX
 8 
1
 10 
0.6739
 20 
0.44838
 30 
0.0
 0 
VERTEX
 8 
1
 10 
0.64289
 20 
0.44847
 30 
0.0
 0 
VERTEX
 8 
1
 10 
0.61139
 20 
0.4489
 30 
0.0
 0 
VERTEX
 8 
1
 10 
0.57955
 20 
0.44969
 30 
0.0
 0 
VERTEX
 8 
1
 10 
0.54751
 20 
0.4509
 30 
0.0
 0 
VERTEX
 8 
1
 10 
0.5154
 20 
0.45261
 30 
0.0
 0 
VERTEX
 8 
1
 10 
0.48326
 20 
0.45484
 30 
0.0
 0 
VERTEX
 8 
1
 10 
0.45116
 20 
0.45761
 30 
0.0
 0 
VERTEX
 8 
1
 10 
0.41917
 20 
0.46088
 30 
0.0
 0 
VERTEX
 8 
1
 10 
0.38736
 20 
0.46463
 30 
0.0
 0 
VERTEX
 8 
1
 10 
0.35581
 20 
0.46884
 30 
0.0
 0 
VERTEX
 8 
1
 10 
0.32453
 20 
0.47352
 30 
0.0
 0 
VERTEX
 8 
1
 10 
0.2934
 20 
0.4785
 30 
0.0
 0 
VERTEX
 8 
1
 10 
0.26251
 20 
0.48346
 30 
0.0
 0 
VERTEX
 8 
1
 10 
0.23209
 20 
0.48814
 30 
0.0
 0 
VERTEX
 8 
1
 10 
0.20241
 20 
0.49238
 30 
0.0
 0 
VERTEX
 8 
1
 10 
0.17374
 20 
0.49605
 30 
0.0
 0 
VERTEX
 8 
1
 10 
0.14636
 20 
0.49907
 30 
0.0
 0 
VERTEX
 8 
1
 10 
0.12056
 20 
0.50137
 30 
0.0
 0 
VERTEX
 8 
1
 10 
0.0966
 20 
0.50294
 30 
0.0
 0 
VERTEX
 8 
1
 10 
0.07476
 20 
0.5038
 30 
0.0
 0 
VERTEX
 8 
1
 10 
0.05532
 20 
0.50397
 30 
0.0
 0 
VERTEX
 8 
1
 10 
0.03856
 20 
0.50357
 30 
0.0
 0 
VERTEX
 8 
1
 10 
0.024700
 20 
0.50278
 30 
0.0
 0 
VERTEX
 8 
1
 10 
0.01388
 20 
0.50183
 30 
0.0
 0 
VERTEX
 8 
1
 10 
0.0061600
 20 
0.50092
 30 
0.0
 0 
VERTEX
 8 
1
 10 
0.0015399
 20 
0.50025
 30 
0.0
 0 
VERTEX
 8 
1
 10 
0.0
 20 
0.5
 30 
0.0
 0 
SEQEND
 8 
1
 0 
ENDSEC
 0 
EOF
