 0 
SECTION
 2 
ENTITIES
 0 
POLYLINE
 8 
1
 66 
 1 
 10 
0.0
 20 
0.0
 30 
0.0
 0 
VERTEX
 8 
1
 10 
0.0
 20 
0.5
 30 
0.0
 0 
VERTEX
 8 
1
 10 
0.00339
 20 
0.50051
 30 
0.0
 0 
VERTEX
 8 
1
 10 
0.01326
 20 
0.5022
 30 
0.0
 0 
VERTEX
 8 
1
 10 
0.028919
 20 
0.50522
 30 
0.0
 0 
VERTEX
 8 
1
 10 
0.04977
 20 
0.50932
 30 
0.0
 0 
VERTEX
 8 
1
 10 
0.07548
 20 
0.51415
 30 
0.0
 0 
VERTEX
 8 
1
 10 
0.10586
 20 
0.51957
 30 
0.0
 0 
VERTEX
 8 
1
 10 
0.14055
 20 
0.52558
 30 
0.0
 0 
VERTEX
 8 
1
 10 
0.17904
 20 
0.53215
 30 
0.0
 0 
VERTEX
 8 
1
 10 
0.22077
 20 
0.53914
 30 
0.0
 0 
VERTEX
 8 
1
 10 
0.26516
 20 
0.54643
 30 
0.0
 0 
VERTEX
 8 
1
 10 
0.31161
 20 
0.55382
 30 
0.0
 0 
VERTEX
 8 
1
 10 
0.35948
 20 
0.56112
 30 
0.0
 0 
VERTEX
 8 
1
 10 
0.40813
 20 
0.56808
 30 
0.0
 0 
VERTEX
 8 
1
 10 
0.45694
 20 
0.57437
 30 
0.0
 0 
VERTEX
 8 
1
 10 
0.50542
 20 
0.57955
 30 
0.0
 0 
VERTEX
 8 
1
 10 
0.55327
 20 
0.58333
 30 
0.0
 0 
VERTEX
 8 
1
 10 
0.60021
 20 
0.58552
 30 
0.0
 0 
VERTEX
 8 
1
 10 
0.64597
 20 
0.58604
 30 
0.0
 0 
VERTEX
 8 
1
 10 
0.69032
 20 
0.58488
 30 
0.0
 0 
VERTEX
 8 
1
 10 
0.73304
 20 
0.58214
 30 
0.0
 0 
VERTEX
 8 
1
 10 
0.7738
 20 
0.57807
 30 
0.0
 0 
VERTEX
 8 
1
 10 
0.81219
 20 
0.57285
 30 
0.0
 0 
VERTEX
 8 
1
 10 
0.84782
 20 
0.56664
 30 
0.0
 0 
VERTEX
 8 
1
 10 
0.88032
 20 
0.55958
 30 
0.0
 0 
VERTEX
 8 
1
 10 
0.90939
 20 
0.55183
 30 
0.0
 0 
VERTEX
 8 
1
 10 
0.93475
 20 
0.54354
 30 
0.0
 0 
VERTEX
 8 
1
 10 
0.95617
 20 
0.53489
 30 
0.0
 0 
VERTEX
 8 
1
 10 
0.97348
 20 
0.5261
 30 
0.0
 0 
VERTEX
 8 
1
 10 
0.98656
 20 
0.51741
 30 
0.0
 0 
VERTEX
 8 
1
 10 
0.99535
 20 
0.50917
 30 
0.0
 0 
VERTEX
 8 
1
 10 
0.99974
 20 
0.50192
 30 
0.0
 0 
VERTEX
 8 
1
 10 
0.99871
 20 
0.49627
 30 
0.0
 0 
VERTEX
 8 
1
 10 
0.99181
 20 
0.49163
 30 
0.0
 0 
VERTEX
 8 
1
 10 
0.97956
 20 
0.4875
 30 
0.0
 0 
VERTEX
 8 
1
 10 
0.96209
 20 
0.48414
 30 
0.0
 0 
VERTEX
 8 
1
 10 
0.93951
 20 
0.48161
 30 
0.0
 0 
VERTEX
 8 
1
 10 
0.91199
 20 
0.47992
 30 
0.0
 0 
VERTEX
 8 
1
 10 
0.87974
 20 
0.47903
 30 
0.0
 0 
VERTEX
 8 
1
 10 
0.84303
 20 
0.4789
 30 
0.0
 0 
VERTEX
 8 
1
 10 
0.80222
 20 
0.47941
 30 
0.0
 0 
VERTEX
 8 
1
 10 
0.75773
 20 
0.48046
 30 
0.0
 0 
VERTEX
 8 
1
 10 
0.71002
 20 
0.48194
 30 
0.0
 0 
VERTEX
 8 
1
 10 
0.65965
 20 
0.48373
 30 
0.0
 0 
VERTEX
 8 
1
 10 
0.6072
 20 
0.48571
 30 
0.0
 0 
VERTEX
 8 
1
 10 
0.55328
 20 
0.48777
 30 
0.0
 0 
VERTEX
 8 
1
 10 
0.49855
 20 
0.48982
 30 
0.0
 0 
VERTEX
 8 
1
 10 
0.4437
 20 
0.49177
 30 
0.0
 0 
VERTEX
 8 
1
 10 
0.38941
 20 
0.49356
 30 
0.0
 0 
VERTEX
 8 
1
 10 
0.33636
 20 
0.49515
 30 
0.0
 0 
VERTEX
 8 
1
 10 
0.28521
 20 
0.4965
 30 
0.0
 0 
VERTEX
 8 
1
 10 
0.23661
 20 
0.49761
 30 
0.0
 0 
VERTEX
 8 
1
 10 
0.19118
 20 
0.49847
 30 
0.0
 0 
VERTEX
 8 
1
 10 
0.1495
 20 
0.4991
 30 
0.0
 0 
VERTEX
 8 
1
 10 
0.11212
 20 
0.49952
 30 
0.0
 0 
VERTEX
 8 
1
 10 
0.07952
 20 
0.49982
 30 
0.0
 0 
VERTEX
 8 
1
 10 
0.05206
 20 
0.5001
 30 
0.0
 0 
VERTEX
 8 
1
 10 
0.029970
 20 
0.50033
 30 
0.0
 0 
VERTEX
 8 
1
 10 
0.013599
 20 
0.50034
 30 
0.0
 0 
VERTEX
 8 
1
 10 
0.0034499
 20 
0.50014
 30 
0.0
 0 
VERTEX
 8 
1
 10 
0.0
 20 
0.5
 30 
0.0
 0 
SEQEND
 8 
1
 0 
ENDSEC
 0 
EOF
