 0 
SECTION
 2 
ENTITIES
 0 
POLYLINE
 8 
1
 66 
 1 
 10 
0.0
 20 
0.0
 30 
0.0
 0 
VERTEX
 8 
1
 10 
0.0
 20 
0.5
 30 
0.0
 0 
VERTEX
 8 
1
 10 
0.0035800
 20 
0.5005
 30 
0.0
 0 
VERTEX
 8 
1
 10 
0.01396
 20 
0.50219
 30 
0.0
 0 
VERTEX
 8 
1
 10 
0.0304
 20 
0.5053
 30 
0.0
 0 
VERTEX
 8 
1
 10 
0.05222
 20 
0.50961
 30 
0.0
 0 
VERTEX
 8 
1
 10 
0.07904
 20 
0.51478
 30 
0.0
 0 
VERTEX
 8 
1
 10 
0.11061
 20 
0.52069
 30 
0.0
 0 
VERTEX
 8 
1
 10 
0.14651
 20 
0.52733
 30 
0.0
 0 
VERTEX
 8 
1
 10 
0.18616
 20 
0.53467
 30 
0.0
 0 
VERTEX
 8 
1
 10 
0.22895
 20 
0.54254
 30 
0.0
 0 
VERTEX
 8 
1
 10 
0.27425
 20 
0.5508
 30 
0.0
 0 
VERTEX
 8 
1
 10 
0.3214
 20 
0.55921
 30 
0.0
 0 
VERTEX
 8 
1
 10 
0.36972
 20 
0.56753
 30 
0.0
 0 
VERTEX
 8 
1
 10 
0.41854
 20 
0.57543
 30 
0.0
 0 
VERTEX
 8 
1
 10 
0.46718
 20 
0.58247
 30 
0.0
 0 
VERTEX
 8 
1
 10 
0.51525
 20 
0.58808
 30 
0.0
 0 
VERTEX
 8 
1
 10 
0.56265
 20 
0.59193
 30 
0.0
 0 
VERTEX
 8 
1
 10 
0.60915
 20 
0.59396
 30 
0.0
 0 
VERTEX
 8 
1
 10 
0.65449
 20 
0.59415
 30 
0.0
 0 
VERTEX
 8 
1
 10 
0.6984
 20 
0.59252
 30 
0.0
 0 
VERTEX
 8 
1
 10 
0.74067
 20 
0.5892
 30 
0.0
 0 
VERTEX
 8 
1
 10 
0.78097
 20 
0.58444
 30 
0.0
 0 
VERTEX
 8 
1
 10 
0.81888
 20 
0.57846
 30 
0.0
 0 
VERTEX
 8 
1
 10 
0.85401
 20 
0.57142
 30 
0.0
 0 
VERTEX
 8 
1
 10 
0.88598
 20 
0.56348
 30 
0.0
 0 
VERTEX
 8 
1
 10 
0.91449
 20 
0.55481
 30 
0.0
 0 
VERTEX
 8 
1
 10 
0.93925
 20 
0.54559
 30 
0.0
 0 
VERTEX
 8 
1
 10 
0.96004
 20 
0.53603
 30 
0.0
 0 
VERTEX
 8 
1
 10 
0.97665
 20 
0.52636
 30 
0.0
 0 
VERTEX
 8 
1
 10 
0.98896
 20 
0.51686
 30 
0.0
 0 
VERTEX
 8 
1
 10 
0.99682
 20 
0.50792
 30 
0.0
 0 
VERTEX
 8 
1
 10 
1
 20 
0.50023
 30 
0.0
 0 
VERTEX
 8 
1
 10 
0.99721
 20 
0.49363
 30 
0.0
 0 
VERTEX
 8 
1
 10 
0.98836
 20 
0.48725
 30 
0.0
 0 
VERTEX
 8 
1
 10 
0.97445
 20 
0.48109
 30 
0.0
 0 
VERTEX
 8 
1
 10 
0.95562
 20 
0.47548
 30 
0.0
 0 
VERTEX
 8 
1
 10 
0.93203
 20 
0.47053
 30 
0.0
 0 
VERTEX
 8 
1
 10 
0.9039
 20 
0.46634
 30 
0.0
 0 
VERTEX
 8 
1
 10 
0.87148
 20 
0.46298
 30 
0.0
 0 
VERTEX
 8 
1
 10 
0.83507
 20 
0.46046
 30 
0.0
 0 
VERTEX
 8 
1
 10 
0.79505
 20 
0.45882
 30 
0.0
 0 
VERTEX
 8 
1
 10 
0.75182
 20 
0.45804
 30 
0.0
 0 
VERTEX
 8 
1
 10 
0.70587
 20 
0.45814
 30 
0.0
 0 
VERTEX
 8 
1
 10 
0.65769
 20 
0.45922
 30 
0.0
 0 
VERTEX
 8 
1
 10 
0.60764
 20 
0.46143
 30 
0.0
 0 
VERTEX
 8 
1
 10 
0.55585
 20 
0.46463
 30 
0.0
 0 
VERTEX
 8 
1
 10 
0.50277
 20 
0.46838
 30 
0.0
 0 
VERTEX
 8 
1
 10 
0.44909
 20 
0.47238
 30 
0.0
 0 
VERTEX
 8 
1
 10 
0.39553
 20 
0.47641
 30 
0.0
 0 
VERTEX
 8 
1
 10 
0.34282
 20 
0.48033
 30 
0.0
 0 
VERTEX
 8 
1
 10 
0.29166
 20 
0.48402
 30 
0.0
 0 
VERTEX
 8 
1
 10 
0.24275
 20 
0.48738
 30 
0.0
 0 
VERTEX
 8 
1
 10 
0.19677
 20 
0.49035
 30 
0.0
 0 
VERTEX
 8 
1
 10 
0.15436
 20 
0.49289
 30 
0.0
 0 
VERTEX
 8 
1
 10 
0.11612
 20 
0.495
 30 
0.0
 0 
VERTEX
 8 
1
 10 
0.08262
 20 
0.49673
 30 
0.0
 0 
VERTEX
 8 
1
 10 
0.05428
 20 
0.49818
 30 
0.0
 0 
VERTEX
 8 
1
 10 
0.031360
 20 
0.4993
 30 
0.0
 0 
VERTEX
 8 
1
 10 
0.01428
 20 
0.49992
 30 
0.0
 0 
VERTEX
 8 
1
 10 
0.0036300
 20 
0.50004
 30 
0.0
 0 
VERTEX
 8 
1
 10 
0.0
 20 
0.5
 30 
0.0
 0 
SEQEND
 8 
1
 0 
ENDSEC
 0 
EOF
