 0 
SECTION
 2 
ENTITIES
 0 
POLYLINE
 8 
1
 66 
 1 
 10 
0.0
 20 
0.0
 30 
0.0
 0 
VERTEX
 8 
1
 10 
0.0
 20 
0.5
 30 
0.0
 0 
VERTEX
 8 
1
 10 
0.0035500
 20 
0.50066
 30 
0.0
 0 
VERTEX
 8 
1
 10 
0.01375
 20 
0.50282
 30 
0.0
 0 
VERTEX
 8 
1
 10 
0.029699
 20 
0.5066
 30 
0.0
 0 
VERTEX
 8 
1
 10 
0.050679
 20 
0.51158
 30 
0.0
 0 
VERTEX
 8 
1
 10 
0.07639
 20 
0.51723
 30 
0.0
 0 
VERTEX
 8 
1
 10 
0.10675
 20 
0.52333
 30 
0.0
 0 
VERTEX
 8 
1
 10 
0.14146
 20 
0.52995
 30 
0.0
 0 
VERTEX
 8 
1
 10 
0.18
 20 
0.53705
 30 
0.0
 0 
VERTEX
 8 
1
 10 
0.22181
 20 
0.5445
 30 
0.0
 0 
VERTEX
 8 
1
 10 
0.26631
 20 
0.55217
 30 
0.0
 0 
VERTEX
 8 
1
 10 
0.31288
 20 
0.55988
 30 
0.0
 0 
VERTEX
 8 
1
 10 
0.3609
 20 
0.56741
 30 
0.0
 0 
VERTEX
 8 
1
 10 
0.40972
 20 
0.57452
 30 
0.0
 0 
VERTEX
 8 
1
 10 
0.4587
 20 
0.58087
 30 
0.0
 0 
VERTEX
 8 
1
 10 
0.50736
 20 
0.58604
 30 
0.0
 0 
VERTEX
 8 
1
 10 
0.5554
 20 
0.58973
 30 
0.0
 0 
VERTEX
 8 
1
 10 
0.60252
 20 
0.59175
 30 
0.0
 0 
VERTEX
 8 
1
 10 
0.64846
 20 
0.59203
 30 
0.0
 0 
VERTEX
 8 
1
 10 
0.69296
 20 
0.59055
 30 
0.0
 0 
VERTEX
 8 
1
 10 
0.73581
 20 
0.58742
 30 
0.0
 0 
VERTEX
 8 
1
 10 
0.77668
 20 
0.58289
 30 
0.0
 0 
VERTEX
 8 
1
 10 
0.81514
 20 
0.57717
 30 
0.0
 0 
VERTEX
 8 
1
 10 
0.8508
 20 
0.57039
 30 
0.0
 0 
VERTEX
 8 
1
 10 
0.88329
 20 
0.56271
 30 
0.0
 0 
VERTEX
 8 
1
 10 
0.91228
 20 
0.5543
 30 
0.0
 0 
VERTEX
 8 
1
 10 
0.9375
 20 
0.54532
 30 
0.0
 0 
VERTEX
 8 
1
 10 
0.95872
 20 
0.53597
 30 
0.0
 0 
VERTEX
 8 
1
 10 
0.97573
 20 
0.52648
 30 
0.0
 0 
VERTEX
 8 
1
 10 
0.98839
 20 
0.5171
 30 
0.0
 0 
VERTEX
 8 
1
 10 
0.99656
 20 
0.50823
 30 
0.0
 0 
VERTEX
 8 
1
 10 
0.99998
 20 
0.50051
 30 
0.0
 0 
VERTEX
 8 
1
 10 
0.99742
 20 
0.49375
 30 
0.0
 0 
VERTEX
 8 
1
 10 
0.98885
 20 
0.48704
 30 
0.0
 0 
VERTEX
 8 
1
 10 
0.97529
 20 
0.48047
 30 
0.0
 0 
VERTEX
 8 
1
 10 
0.95689
 20 
0.47436
 30 
0.0
 0 
VERTEX
 8 
1
 10 
0.93384
 20 
0.46887
 30 
0.0
 0 
VERTEX
 8 
1
 10 
0.90634
 20 
0.46412
 30 
0.0
 0 
VERTEX
 8 
1
 10 
0.87466
 20 
0.46021
 30 
0.0
 0 
VERTEX
 8 
1
 10 
0.83909
 20 
0.45719
 30 
0.0
 0 
VERTEX
 8 
1
 10 
0.80001
 20 
0.45511
 30 
0.0
 0 
VERTEX
 8 
1
 10 
0.75781
 20 
0.45403
 30 
0.0
 0 
VERTEX
 8 
1
 10 
0.71298
 20 
0.45398
 30 
0.0
 0 
VERTEX
 8 
1
 10 
0.66602
 20 
0.45517
 30 
0.0
 0 
VERTEX
 8 
1
 10 
0.61714
 20 
0.4579
 30 
0.0
 0 
VERTEX
 8 
1
 10 
0.56621
 20 
0.46201
 30 
0.0
 0 
VERTEX
 8 
1
 10 
0.51357
 20 
0.46686
 30 
0.0
 0 
VERTEX
 8 
1
 10 
0.45993
 20 
0.47199
 30 
0.0
 0 
VERTEX
 8 
1
 10 
0.40605
 20 
0.47711
 30 
0.0
 0 
VERTEX
 8 
1
 10 
0.3527
 20 
0.48201
 30 
0.0
 0 
VERTEX
 8 
1
 10 
0.30063
 20 
0.4865
 30 
0.0
 0 
VERTEX
 8 
1
 10 
0.2506
 20 
0.49046
 30 
0.0
 0 
VERTEX
 8 
1
 10 
0.20335
 20 
0.4938
 30 
0.0
 0 
VERTEX
 8 
1
 10 
0.15957
 20 
0.49647
 30 
0.0
 0 
VERTEX
 8 
1
 10 
0.11995
 20 
0.49844
 30 
0.0
 0 
VERTEX
 8 
1
 10 
0.08511
 20 
0.49976
 30 
0.0
 0 
VERTEX
 8 
1
 10 
0.05559
 20 
0.50051
 30 
0.0
 0 
VERTEX
 8 
1
 10 
0.03187
 20 
0.50076
 30 
0.0
 0 
VERTEX
 8 
1
 10 
0.01439
 20 
0.5006
 30 
0.0
 0 
VERTEX
 8 
1
 10 
0.0036399
 20 
0.50021
 30 
0.0
 0 
VERTEX
 8 
1
 10 
0.0
 20 
0.5
 30 
0.0
 0 
SEQEND
 8 
1
 0 
ENDSEC
 0 
EOF
