 0 
SECTION
 2 
ENTITIES
 0 
POLYLINE
 8 
1
 66 
 1 
 10 
0.0
 20 
0.0
 30 
0.0
 0 
VERTEX
 8 
1
 10 
0.0
 20 
0.5
 30 
0.0
 0 
VERTEX
 8 
1
 10 
0.0035300
 20 
0.50045
 30 
0.0
 0 
VERTEX
 8 
1
 10 
0.01375
 20 
0.50202
 30 
0.0
 0 
VERTEX
 8 
1
 10 
0.02989
 20 
0.50489
 30 
0.0
 0 
VERTEX
 8 
1
 10 
0.0513
 20 
0.50881
 30 
0.0
 0 
VERTEX
 8 
1
 10 
0.07762
 20 
0.51337
 30 
0.0
 0 
VERTEX
 8 
1
 10 
0.10872
 20 
0.51841
 30 
0.0
 0 
VERTEX
 8 
1
 10 
0.14424
 20 
0.524
 30 
0.0
 0 
VERTEX
 8 
1
 10 
0.18367
 20 
0.53011
 30 
0.0
 0 
VERTEX
 8 
1
 10 
0.22643
 20 
0.53666
 30 
0.0
 0 
VERTEX
 8 
1
 10 
0.27194
 20 
0.54352
 30 
0.0
 0 
VERTEX
 8 
1
 10 
0.31957
 20 
0.55055
 30 
0.0
 0 
VERTEX
 8 
1
 10 
0.36868
 20 
0.55759
 30 
0.0
 0 
VERTEX
 8 
1
 10 
0.41861
 20 
0.56441
 30 
0.0
 0 
VERTEX
 8 
1
 10 
0.46871
 20 
0.57079
 30 
0.0
 0 
VERTEX
 8 
1
 10 
0.51831
 20 
0.57638
 30 
0.0
 0 
VERTEX
 8 
1
 10 
0.56694
 20 
0.58075
 30 
0.0
 0 
VERTEX
 8 
1
 10 
0.61433
 20 
0.58362
 30 
0.0
 0 
VERTEX
 8 
1
 10 
0.66019
 20 
0.58483
 30 
0.0
 0 
VERTEX
 8 
1
 10 
0.70427
 20 
0.5843
 30 
0.0
 0 
VERTEX
 8 
1
 10 
0.74637
 20 
0.58205
 30 
0.0
 0 
VERTEX
 8 
1
 10 
0.78629
 20 
0.57819
 30 
0.0
 0 
VERTEX
 8 
1
 10 
0.82375
 20 
0.573
 30 
0.0
 0 
VERTEX
 8 
1
 10 
0.85838
 20 
0.56669
 30 
0.0
 0 
VERTEX
 8 
1
 10 
0.88982
 20 
0.55944
 30 
0.0
 0 
VERTEX
 8 
1
 10 
0.91775
 20 
0.55143
 30 
0.0
 0 
VERTEX
 8 
1
 10 
0.94192
 20 
0.54282
 30 
0.0
 0 
VERTEX
 8 
1
 10 
0.96209
 20 
0.53383
 30 
0.0
 0 
VERTEX
 8 
1
 10 
0.97811
 20 
0.52468
 30 
0.0
 0 
VERTEX
 8 
1
 10 
0.98985
 20 
0.51565
 30 
0.0
 0 
VERTEX
 8 
1
 10 
0.99721
 20 
0.50714
 30 
0.0
 0 
VERTEX
 8 
1
 10 
1
 20 
0.49985
 30 
0.0
 0 
VERTEX
 8 
1
 10 
0.99696
 20 
0.49374
 30 
0.0
 0 
VERTEX
 8 
1
 10 
0.98788
 20 
0.48796
 30 
0.0
 0 
VERTEX
 8 
1
 10 
0.97372
 20 
0.4825
 30 
0.0
 0 
VERTEX
 8 
1
 10 
0.95457
 20 
0.47766
 30 
0.0
 0 
VERTEX
 8 
1
 10 
0.93057
 20 
0.47351
 30 
0.0
 0 
VERTEX
 8 
1
 10 
0.90193
 20 
0.47009
 30 
0.0
 0 
VERTEX
 8 
1
 10 
0.86891
 20 
0.46743
 30 
0.0
 0 
VERTEX
 8 
1
 10 
0.83183
 20 
0.46552
 30 
0.0
 0 
VERTEX
 8 
1
 10 
0.79107
 20 
0.46435
 30 
0.0
 0 
VERTEX
 8 
1
 10 
0.74708
 20 
0.46389
 30 
0.0
 0 
VERTEX
 8 
1
 10 
0.70034
 20 
0.46414
 30 
0.0
 0 
VERTEX
 8 
1
 10 
0.65139
 20 
0.46513
 30 
0.0
 0 
VERTEX
 8 
1
 10 
0.60063
 20 
0.46698
 30 
0.0
 0 
VERTEX
 8 
1
 10 
0.54835
 20 
0.46956
 30 
0.0
 0 
VERTEX
 8 
1
 10 
0.49505
 20 
0.47256
 30 
0.0
 0 
VERTEX
 8 
1
 10 
0.4414
 20 
0.47575
 30 
0.0
 0 
VERTEX
 8 
1
 10 
0.38811
 20 
0.47898
 30 
0.0
 0 
VERTEX
 8 
1
 10 
0.33586
 20 
0.48213
 30 
0.0
 0 
VERTEX
 8 
1
 10 
0.28533
 20 
0.48512
 30 
0.0
 0 
VERTEX
 8 
1
 10 
0.23717
 20 
0.48788
 30 
0.0
 0 
VERTEX
 8 
1
 10 
0.19204
 20 
0.49037
 30 
0.0
 0 
VERTEX
 8 
1
 10 
0.15052
 20 
0.49256
 30 
0.0
 0 
VERTEX
 8 
1
 10 
0.11319
 20 
0.49445
 30 
0.0
 0 
VERTEX
 8 
1
 10 
0.08058
 20 
0.4961
 30 
0.0
 0 
VERTEX
 8 
1
 10 
0.05301
 20 
0.49761
 30 
0.0
 0 
VERTEX
 8 
1
 10 
0.0307
 20 
0.49892
 30 
0.0
 0 
VERTEX
 8 
1
 10 
0.01402
 20 
0.49974
 30 
0.0
 0 
VERTEX
 8 
1
 10 
0.0035699
 20 
0.5
 30 
0.0
 0 
VERTEX
 8 
1
 10 
0.0
 20 
0.5
 30 
0.0
 0 
SEQEND
 8 
1
 0 
ENDSEC
 0 
EOF
