 0 
SECTION
 2 
ENTITIES
 0 
POLYLINE
 8 
1
 66 
 1 
 10 
0.0
 20 
0.0
 30 
0.0
 0 
VERTEX
 8 
1
 10 
0.0
 20 
0.5
 30 
0.0
 0 
VERTEX
 8 
1
 10 
0.00361
 20 
0.50008
 30 
0.0
 0 
VERTEX
 8 
1
 10 
0.01425
 20 
0.50062
 30 
0.0
 0 
VERTEX
 8 
1
 10 
0.03145
 20 
0.50206
 30 
0.0
 0 
VERTEX
 8 
1
 10 
0.05463
 20 
0.50456
 30 
0.0
 0 
VERTEX
 8 
1
 10 
0.08329
 20 
0.50809
 30 
0.0
 0 
VERTEX
 8 
1
 10 
0.11697
 20 
0.51269
 30 
0.0
 0 
VERTEX
 8 
1
 10 
0.15506
 20 
0.51844
 30 
0.0
 0 
VERTEX
 8 
1
 10 
0.19678
 20 
0.52531
 30 
0.0
 0 
VERTEX
 8 
1
 10 
0.24135
 20 
0.53311
 30 
0.0
 0 
VERTEX
 8 
1
 10 
0.28798
 20 
0.54156
 30 
0.0
 0 
VERTEX
 8 
1
 10 
0.33592
 20 
0.55031
 30 
0.0
 0 
VERTEX
 8 
1
 10 
0.38445
 20 
0.5589
 30 
0.0
 0 
VERTEX
 8 
1
 10 
0.43293
 20 
0.56675
 30 
0.0
 0 
VERTEX
 8 
1
 10 
0.48107
 20 
0.57317
 30 
0.0
 0 
VERTEX
 8 
1
 10 
0.52887
 20 
0.57784
 30 
0.0
 0 
VERTEX
 8 
1
 10 
0.57619
 20 
0.58072
 30 
0.0
 0 
VERTEX
 8 
1
 10 
0.62286
 20 
0.58188
 30 
0.0
 0 
VERTEX
 8 
1
 10 
0.66856
 20 
0.58152
 30 
0.0
 0 
VERTEX
 8 
1
 10 
0.7128
 20 
0.57983
 30 
0.0
 0 
VERTEX
 8 
1
 10 
0.75514
 20 
0.57687
 30 
0.0
 0 
VERTEX
 8 
1
 10 
0.79515
 20 
0.57275
 30 
0.0
 0 
VERTEX
 8 
1
 10 
0.83243
 20 
0.56754
 30 
0.0
 0 
VERTEX
 8 
1
 10 
0.86663
 20 
0.56136
 30 
0.0
 0 
VERTEX
 8 
1
 10 
0.89744
 20 
0.55432
 30 
0.0
 0 
VERTEX
 8 
1
 10 
0.92457
 20 
0.54658
 30 
0.0
 0 
VERTEX
 8 
1
 10 
0.9478
 20 
0.5383
 30 
0.0
 0 
VERTEX
 8 
1
 10 
0.96693
 20 
0.52968
 30 
0.0
 0 
VERTEX
 8 
1
 10 
0.98182
 20 
0.52095
 30 
0.0
 0 
VERTEX
 8 
1
 10 
0.99239
 20 
0.51241
 30 
0.0
 0 
VERTEX
 8 
1
 10 
0.99852
 20 
0.50452
 30 
0.0
 0 
VERTEX
 8 
1
 10 
0.99975
 20 
0.49828
 30 
0.0
 0 
VERTEX
 8 
1
 10 
0.99508
 20 
0.4931
 30 
0.0
 0 
VERTEX
 8 
1
 10 
0.98448
 20 
0.48792
 30 
0.0
 0 
VERTEX
 8 
1
 10 
0.96866
 20 
0.48311
 30 
0.0
 0 
VERTEX
 8 
1
 10 
0.94779
 20 
0.47887
 30 
0.0
 0 
VERTEX
 8 
1
 10 
0.92205
 20 
0.47526
 30 
0.0
 0 
VERTEX
 8 
1
 10 
0.89166
 20 
0.47231
 30 
0.0
 0 
VERTEX
 8 
1
 10 
0.85688
 20 
0.47004
 30 
0.0
 0 
VERTEX
 8 
1
 10 
0.81806
 20 
0.46839
 30 
0.0
 0 
VERTEX
 8 
1
 10 
0.7756
 20 
0.46734
 30 
0.0
 0 
VERTEX
 8 
1
 10 
0.72996
 20 
0.46684
 30 
0.0
 0 
VERTEX
 8 
1
 10 
0.68162
 20 
0.46682
 30 
0.0
 0 
VERTEX
 8 
1
 10 
0.63115
 20 
0.46723
 30 
0.0
 0 
VERTEX
 8 
1
 10 
0.57911
 20 
0.46801
 30 
0.0
 0 
VERTEX
 8 
1
 10 
0.5261
 20 
0.46912
 30 
0.0
 0 
VERTEX
 8 
1
 10 
0.47275
 20 
0.47051
 30 
0.0
 0 
VERTEX
 8 
1
 10 
0.41968
 20 
0.47213
 30 
0.0
 0 
VERTEX
 8 
1
 10 
0.3675
 20 
0.47396
 30 
0.0
 0 
VERTEX
 8 
1
 10 
0.31682
 20 
0.47596
 30 
0.0
 0 
VERTEX
 8 
1
 10 
0.26824
 20 
0.47809
 30 
0.0
 0 
VERTEX
 8 
1
 10 
0.22233
 20 
0.48033
 30 
0.0
 0 
VERTEX
 8 
1
 10 
0.17963
 20 
0.48267
 30 
0.0
 0 
VERTEX
 8 
1
 10 
0.14064
 20 
0.48508
 30 
0.0
 0 
VERTEX
 8 
1
 10 
0.10584
 20 
0.48756
 30 
0.0
 0 
VERTEX
 8 
1
 10 
0.07565
 20 
0.49019
 30 
0.0
 0 
VERTEX
 8 
1
 10 
0.05023
 20 
0.49309
 30 
0.0
 0 
VERTEX
 8 
1
 10 
0.02949
 20 
0.49603
 30 
0.0
 0 
VERTEX
 8 
1
 10 
0.01367
 20 
0.49838
 30 
0.0
 0 
VERTEX
 8 
1
 10 
0.0035300
 20 
0.49966
 30 
0.0
 0 
VERTEX
 8 
1
 10 
0.0
 20 
0.5
 30 
0.0
 0 
SEQEND
 8 
1
 0 
ENDSEC
 0 
EOF
