 0 
SECTION
 2 
ENTITIES
 0 
POLYLINE
 8 
1
 66 
 1 
 10 
0.0
 20 
0.0
 30 
0.0
 0 
VERTEX
 8 
1
 10 
0.0
 20 
0.5
 30 
0.0
 0 
VERTEX
 8 
1
 10 
0.00339
 20 
0.50027
 30 
0.0
 0 
VERTEX
 8 
1
 10 
0.01333
 20 
0.50122
 30 
0.0
 0 
VERTEX
 8 
1
 10 
0.02928
 20 
0.50302
 30 
0.0
 0 
VERTEX
 8 
1
 10 
0.0508
 20 
0.5056
 30 
0.0
 0 
VERTEX
 8 
1
 10 
0.07752
 20 
0.50888
 30 
0.0
 0 
VERTEX
 8 
1
 10 
0.10899
 20 
0.51283
 30 
0.0
 0 
VERTEX
 8 
1
 10 
0.14471
 20 
0.51736
 30 
0.0
 0 
VERTEX
 8 
1
 10 
0.18415
 20 
0.52231
 30 
0.0
 0 
VERTEX
 8 
1
 10 
0.22681
 20 
0.52753
 30 
0.0
 0 
VERTEX
 8 
1
 10 
0.27215
 20 
0.53285
 30 
0.0
 0 
VERTEX
 8 
1
 10 
0.31963
 20 
0.53809
 30 
0.0
 0 
VERTEX
 8 
1
 10 
0.36872
 20 
0.5431
 30 
0.0
 0 
VERTEX
 8 
1
 10 
0.4189
 20 
0.5477
 30 
0.0
 0 
VERTEX
 8 
1
 10 
0.46963
 20 
0.55176
 30 
0.0
 0 
VERTEX
 8 
1
 10 
0.52039
 20 
0.55514
 30 
0.0
 0 
VERTEX
 8 
1
 10 
0.57069
 20 
0.55772
 30 
0.0
 0 
VERTEX
 8 
1
 10 
0.62003
 20 
0.55942
 30 
0.0
 0 
VERTEX
 8 
1
 10 
0.66793
 20 
0.56016
 30 
0.0
 0 
VERTEX
 8 
1
 10 
0.71395
 20 
0.55989
 30 
0.0
 0 
VERTEX
 8 
1
 10 
0.75766
 20 
0.55859
 30 
0.0
 0 
VERTEX
 8 
1
 10 
0.79868
 20 
0.55625
 30 
0.0
 0 
VERTEX
 8 
1
 10 
0.83665
 20 
0.55289
 30 
0.0
 0 
VERTEX
 8 
1
 10 
0.87123
 20 
0.54858
 30 
0.0
 0 
VERTEX
 8 
1
 10 
0.90215
 20 
0.54339
 30 
0.0
 0 
VERTEX
 8 
1
 10 
0.92916
 20 
0.53743
 30 
0.0
 0 
VERTEX
 8 
1
 10 
0.95203
 20 
0.53083
 30 
0.0
 0 
VERTEX
 8 
1
 10 
0.97061
 20 
0.52376
 30 
0.0
 0 
VERTEX
 8 
1
 10 
0.98479
 20 
0.51644
 30 
0.0
 0 
VERTEX
 8 
1
 10 
0.99447
 20 
0.50915
 30 
0.0
 0 
VERTEX
 8 
1
 10 
0.99956
 20 
0.50242
 30 
0.0
 0 
VERTEX
 8 
1
 10 
0.99895
 20 
0.4965
 30 
0.0
 0 
VERTEX
 8 
1
 10 
0.99244
 20 
0.49065
 30 
0.0
 0 
VERTEX
 8 
1
 10 
0.98097
 20 
0.48461
 30 
0.0
 0 
VERTEX
 8 
1
 10 
0.96475
 20 
0.47882
 30 
0.0
 0 
VERTEX
 8 
1
 10 
0.94392
 20 
0.47352
 30 
0.0
 0 
VERTEX
 8 
1
 10 
0.91862
 20 
0.46886
 30 
0.0
 0 
VERTEX
 8 
1
 10 
0.88904
 20 
0.46496
 30 
0.0
 0 
VERTEX
 8 
1
 10 
0.85541
 20 
0.4619
 30 
0.0
 0 
VERTEX
 8 
1
 10 
0.81801
 20 
0.45971
 30 
0.0
 0 
VERTEX
 8 
1
 10 
0.77715
 20 
0.4584
 30 
0.0
 0 
VERTEX
 8 
1
 10 
0.73321
 20 
0.45795
 30 
0.0
 0 
VERTEX
 8 
1
 10 
0.68659
 20 
0.45833
 30 
0.0
 0 
VERTEX
 8 
1
 10 
0.63775
 20 
0.45945
 30 
0.0
 0 
VERTEX
 8 
1
 10 
0.58719
 20 
0.46124
 30 
0.0
 0 
VERTEX
 8 
1
 10 
0.53543
 20 
0.46361
 30 
0.0
 0 
VERTEX
 8 
1
 10 
0.48303
 20 
0.46645
 30 
0.0
 0 
VERTEX
 8 
1
 10 
0.43057
 20 
0.46966
 30 
0.0
 0 
VERTEX
 8 
1
 10 
0.37862
 20 
0.47312
 30 
0.0
 0 
VERTEX
 8 
1
 10 
0.32777
 20 
0.47673
 30 
0.0
 0 
VERTEX
 8 
1
 10 
0.27863
 20 
0.48037
 30 
0.0
 0 
VERTEX
 8 
1
 10 
0.23176
 20 
0.48393
 30 
0.0
 0 
VERTEX
 8 
1
 10 
0.18776
 20 
0.4873
 30 
0.0
 0 
VERTEX
 8 
1
 10 
0.14717
 20 
0.49037
 30 
0.0
 0 
VERTEX
 8 
1
 10 
0.11055
 20 
0.49308
 30 
0.0
 0 
VERTEX
 8 
1
 10 
0.07841
 20 
0.49533
 30 
0.0
 0 
VERTEX
 8 
1
 10 
0.05127
 20 
0.49714
 30 
0.0
 0 
VERTEX
 8 
1
 10 
0.02951
 20 
0.49854
 30 
0.0
 0 
VERTEX
 8 
1
 10 
0.01341
 20 
0.49949
 30 
0.0
 0 
VERTEX
 8 
1
 10 
0.0034100
 20 
0.49991
 30 
0.0
 0 
VERTEX
 8 
1
 10 
0.0
 20 
0.5
 30 
0.0
 0 
SEQEND
 8 
1
 0 
ENDSEC
 0 
EOF
