  0
SECTION
  2
HEADER
  9
$ACADVER
  1
AC1004
  9
$EXTMIN
 10
0.0404
 20
-0.2662
  9
$EXTMAX
 10
8.0404
 20
4.2887
  9
$LIMMIN
 10
0.0404
 20
-0.2662
  9
$LIMMAX
 10
8.0404
 20
4.2887
  9
$INSBASE
 10
0.0
 20
0.0
  9
$VIEWCTR
 10
7.21903
 20
4.5
  9
$VIEWSIZE
 40
9.0
  9
$SNAPMODE
 70
     0
  9
$SNAPUNIT
 10
1.0
 20
1.0
  9
$SNAPBASE
 10
0.0
 20
0.0
  9
$SNAPANG
 50
0.0
  9
$SNAPSTYLE
 70
     0
  9
$SNAPISOPAIR
 70
     0
  9
$GRIDMODE
 70
     0
  9
$GRIDUNIT
 10
0.0
 20
0.0
  9
$ORTHOMODE
 70
     0
  9
$REGENMODE
 70
     1
  9
$FILLMODE
 70
     1
  9
$QTEXTMODE
 70
     0
  9
$DRAGMODE
 70
     2
  9
$LTSCALE
 40
1.0
  9
$OSMODE
 70
     0
  9
$ATTMODE
 70
     1
  9
$TEXTSIZE
 40
0.2
  9
$TRACEWID
 40
0.05
  9
$TEXTSTYLE
  7
STANDARD
  9
$CLAYER
  8
0
  9
$CELTYPE
  6
BYLAYER
  9
$CECOLOR
 62
   256
  9
$DIMSCALE
 40
1.0
  9
$DIMASZ
 40
0.18
  9
$DIMEXO
 40
0.0625
  9
$DIMDLI
 40
0.38
  9
$DIMRND
 40
0.0
  9
$DIMDLE
 40
0.0
  9
$DIMEXE
 40
0.18
  9
$DIMTP
 40
0.0
  9
$DIMTM
 40
0.0
  9
$DIMTXT
 40
0.18
  9
$DIMCEN
 40
0.09
  9
$DIMTSZ
 40
0.0
  9
$DIMTOL
 70
     0
  9
$DIMLIM
 70
     0
  9
$DIMTIH
 70
     1
  9
$DIMTOH
 70
     1
  9
$DIMSE1
 70
     0
  9
$DIMSE2
 70
     0
  9
$DIMTAD
 70
     0
  9
$DIMZIN
 70
     0
  9
$DIMBLK
  1

  9
$DIMASO
 70
     1
  9
$DIMSHO
 70
     0
  9
$DIMPOST
  1

  9
$DIMAPOST
  1

  9
$DIMALT
 70
     0
  9
$DIMALTD
 70
     2
  9
$DIMALTF
 40
25.4
  9
$DIMLFAC
 40
1.0
  9
$LUNITS
 70
     2
  9
$LUPREC
 70
     4
  9
$AXISMODE
 70
     0
  9
$AXISUNIT
 10
0.0
 20
0.0
  9
$SKETCHINC
 40
0.1
  9
$FILLETRAD
 40
0.0
  9
$AUNITS
 70
     0
  9
$AUPREC
 70
     0
  9
$MENU
  1
acad
  9
$ELEVATION
 40
0.0
  9
$THICKNESS
 40
0.0
  9
$VIEWDIR
 10
0.0
 20
0.0
 30
1.0
  9
$LIMCHECK
 70
     0
  9
$BLIPMODE
 70
     1
  9
$CHAMFERA
 40
0.0
  9
$CHAMFERB
 40
0.0
  9
$FASTZOOM
 70
     1
  9
$SKPOLY
 70
     0
  9
$TDCREATE
 40
2447222.5666886573
  9
$TDUPDATE
 40
2447222.5666886573
  9
$TDINDWG
 40
0.0000000000
  9
$TDUSRTIMER
 40
0.0000000000
  9
$USRTIMER
 70
     1
  9
$ANGBASE
 50
0.0
  9
$ANGDIR
 70
     0
  9
$PDMODE
 70
     0
  9
$PDSIZE
 40
0.0
  9
$PLINEWID
 40
0.0
  9
$COORDS
 70
     0
  9
$SPLFRAME
 70
     0
  9
$SPLINESEGS
 70
     8
  9
$ATTDIA
 70
     0
  9
$ATTREQ
 70
     1
  9
$USERI1
 70
     0
  9
$USERI2
 70
     0
  9
$USERI3
 70
     0
  9
$USERI4
 70
     0
  9
$USERI5
 70
     0
  9
$USERR1
 40
0.0
  9
$USERR2
 40
0.0
  9
$USERR3
 40
0.0
  9
$USERR4
 40
0.0
  9
$USERR5
 40
0.0
  0
ENDSEC
  0
SECTION
  2
TABLES
  0
TABLE
  2
LTYPE
 70
     13
  0
LTYPE
  2
CONTINUOUS
 70
    64
  3
Solid line
 72
    65
 73
     0
 40
0.0
  0
LTYPE
  2
DASHED
 70
    64
  3
__ __ __ __ __ __ __ __ __ __ __ __ __ __ __
 72
    65
 73
     2
 40
0.75
 49
0.5
 49
-0.25
  0
LTYPE
  2
HIDDEN
 70
    64
  3
_ _ _ _ _ _ _ _ _ _ _ _ _ _ _ _ _ _ _ _ _ _ _
 72
    65
 73
     2
 40
0.375
 49
0.25
 49
-0.125
  0
LTYPE
  2
CENTER
 70
    64
  3
____ _ ____ _ ____ _ ____ _ ____ _ ____ _ ____
 72
    65
 73
     4
 40
2.0
 49
1.25
 49
-0.25
 49
0.25
 49
-0.25
  0
LTYPE
  2
PHANTOM
 70
    64
  3
_____ _ _ _____ _ _ _____ _ _ _____ _ _ ____
 72
    65
 73
     6
 40
2.5
 49
1.25
 49
-0.25
 49
0.25
 49
-0.25
 49
0.25
 49
-0.25
  0
LTYPE
  2
DOT
 70
    64
  3
...............................................
 72
    65
 73
     2
 40
0.25
 49
0.0
 49
-0.25
  0
LTYPE
  2
DASHDOT
 70
    64
  3
__ . __ . __ . __ . __ . __ . __ . __ . __ . __
 72
    65
 73
     4
 40
1.0
 49
0.5
 49
-0.25
 49
0.0
 49
-0.25
  0
LTYPE
  2
BORDER
 70
    64
  3
__ __ . __ __ . __ __ . __ __ . __ __ . __ __
 72
    65
 73
     6
 40
1.75
 49
0.5
 49
-0.25
 49
0.5
 49
-0.25
 49
0.0
 49
-0.25
  0
LTYPE
  2
DIVIDE
 70
    64
  3
__ . . __ . . __ . . __ . . __ . . __ . . __
 72
    65
 73
     6
 40
1.25
 49
0.5
 49
-0.25
 49
0.0
 49
-0.25
 49
0.0
 49
-0.25
  0
LTYPE
  2
DCTYPE1
 70
    64
  3
__ . . __ . . __ . . __ . . __ . . __ . . __
 72
    65
 73
     8
 40
2.5
 49
0.5
 49
-0.25
 49
0.125
 49
-0.25
 49
0.25
 49
-0.25
 49
0.125
 49
-0.25
  0
LTYPE
  2
DCTYPE2
 70
    64
  3
__ . . __ . . __ . . __ . . __ . . __ . . __
 72
    65
 73
     6
 40
2.05
 49
1.0
 49
-0.3
 49
0.15
 49
-0.15
 49
0.15
 49
-0.3
  0
LTYPE
  2
DCTYPE3
 70
    64
  3
__ . . __ . . __ . . __ . . __ . . __ . . __
 72
    65
 73
     6
 40
2.5
 49
0.8
 49
-0.2
 49
0.8
 49
-0.2
 49
0.3
 49
-0.2
  0
LTYPE
  2
DCTYPE4
 70
    64
  3
__ . . __ . . __ . . __ . . __ . . __ . . __
 72
    65
 73
     10
 40
3.97
 49
1.75
 49
-0.3
 49
0.3
 49
-0.3
 49
0.06
 49
-0.3
 49
0.06
 49
-0.3
 49
0.3
 49
-0.3
  0
ENDTAB
  0
TABLE
  2
LAYER
 70
    153
  0
LAYER
  2
0
 70
 64
 62
     7
  6
CONTINUOUS
  0
ENDTAB
  0
ENDSEC
  0
SECTION
  2
BLOCKS
  0
ENDSEC
  0
SECTION
  2
ENTITIES
  0
TEXT
  8
0
 62
     7
 10
0.0404
 20
3.3148
 40
0.8116
 50
0.0000
 51
0.0000
  1
EPPLER 228
 72
     5
 11
8.0404
 21
3.3148
  0
POLYLINE
  8
0
 62
     3
 66
     1
  6
CONTINUOUS
  0
VERTEX
  8
0
 62
     3
  6
CONTINUOUS
 10
0.0404
 20
0.1148
  0
VERTEX
  8
0
 62
     3
  6
CONTINUOUS
 10
0.0422
 20
0.1192
  0
VERTEX
  8
0
 62
     3
  6
CONTINUOUS
 10
0.0440
 20
0.1235
  0
VERTEX
  8
0
 62
     3
  6
CONTINUOUS
 10
0.0458
 20
0.1278
  0
VERTEX
  8
0
 62
     3
  6
CONTINUOUS
 10
0.0477
 20
0.1321
  0
VERTEX
  8
0
 62
     3
  6
CONTINUOUS
 10
0.0496
 20
0.1364
  0
VERTEX
  8
0
 62
     3
  6
CONTINUOUS
 10
0.0516
 20
0.1406
  0
VERTEX
  8
0
 62
     3
  6
CONTINUOUS
 10
0.0536
 20
0.1447
  0
VERTEX
  8
0
 62
     3
  6
CONTINUOUS
 10
0.0558
 20
0.1488
  0
VERTEX
  8
0
 62
     3
  6
CONTINUOUS
 10
0.0580
 20
0.1529
  0
VERTEX
  8
0
 62
     3
  6
CONTINUOUS
 10
0.0603
 20
0.1568
  0
VERTEX
  8
0
 62
     3
  6
CONTINUOUS
 10
0.0628
 20
0.1607
  0
VERTEX
  8
0
 62
     3
  6
CONTINUOUS
 10
0.0654
 20
0.1644
  0
VERTEX
  8
0
 62
     3
  6
CONTINUOUS
 10
0.0696
 20
0.1700
  0
VERTEX
  8
0
 62
     3
  6
CONTINUOUS
 10
0.0740
 20
0.1753
  0
VERTEX
  8
0
 62
     3
  6
CONTINUOUS
 10
0.0788
 20
0.1803
  0
VERTEX
  8
0
 62
     3
  6
CONTINUOUS
 10
0.0838
 20
0.1852
  0
VERTEX
  8
0
 62
     3
  6
CONTINUOUS
 10
0.0891
 20
0.1899
  0
VERTEX
  8
0
 62
     3
  6
CONTINUOUS
 10
0.0945
 20
0.1945
  0
VERTEX
  8
0
 62
     3
  6
CONTINUOUS
 10
0.1001
 20
0.1989
  0
VERTEX
  8
0
 62
     3
  6
CONTINUOUS
 10
0.1059
 20
0.2031
  0
VERTEX
  8
0
 62
     3
  6
CONTINUOUS
 10
0.1117
 20
0.2073
  0
VERTEX
  8
0
 62
     3
  6
CONTINUOUS
 10
0.1177
 20
0.2113
  0
VERTEX
  8
0
 62
     3
  6
CONTINUOUS
 10
0.1237
 20
0.2152
  0
VERTEX
  8
0
 62
     3
  6
CONTINUOUS
 10
0.1298
 20
0.2191
  0
VERTEX
  8
0
 62
     3
  6
CONTINUOUS
 10
0.1381
 20
0.2242
  0
VERTEX
  8
0
 62
     3
  6
CONTINUOUS
 10
0.1464
 20
0.2293
  0
VERTEX
  8
0
 62
     3
  6
CONTINUOUS
 10
0.1547
 20
0.2342
  0
VERTEX
  8
0
 62
     3
  6
CONTINUOUS
 10
0.1631
 20
0.2390
  0
VERTEX
  8
0
 62
     3
  6
CONTINUOUS
 10
0.1715
 20
0.2438
  0
VERTEX
  8
0
 62
     3
  6
CONTINUOUS
 10
0.1799
 20
0.2484
  0
VERTEX
  8
0
 62
     3
  6
CONTINUOUS
 10
0.1883
 20
0.2529
  0
VERTEX
  8
0
 62
     3
  6
CONTINUOUS
 10
0.1968
 20
0.2573
  0
VERTEX
  8
0
 62
     3
  6
CONTINUOUS
 10
0.2054
 20
0.2617
  0
VERTEX
  8
0
 62
     3
  6
CONTINUOUS
 10
0.2139
 20
0.2659
  0
VERTEX
  8
0
 62
     3
  6
CONTINUOUS
 10
0.2225
 20
0.2700
  0
VERTEX
  8
0
 62
     3
  6
CONTINUOUS
 10
0.2312
 20
0.2741
  0
VERTEX
  8
0
 62
     3
  6
CONTINUOUS
 10
0.2424
 20
0.2792
  0
VERTEX
  8
0
 62
     3
  6
CONTINUOUS
 10
0.2536
 20
0.2841
  0
VERTEX
  8
0
 62
     3
  6
CONTINUOUS
 10
0.2649
 20
0.2889
  0
VERTEX
  8
0
 62
     3
  6
CONTINUOUS
 10
0.2762
 20
0.2936
  0
VERTEX
  8
0
 62
     3
  6
CONTINUOUS
 10
0.2877
 20
0.2982
  0
VERTEX
  8
0
 62
     3
  6
CONTINUOUS
 10
0.2991
 20
0.3027
  0
VERTEX
  8
0
 62
     3
  6
CONTINUOUS
 10
0.3107
 20
0.3070
  0
VERTEX
  8
0
 62
     3
  6
CONTINUOUS
 10
0.3223
 20
0.3113
  0
VERTEX
  8
0
 62
     3
  6
CONTINUOUS
 10
0.3339
 20
0.3154
  0
VERTEX
  8
0
 62
     3
  6
CONTINUOUS
 10
0.3455
 20
0.3195
  0
VERTEX
  8
0
 62
     3
  6
CONTINUOUS
 10
0.3572
 20
0.3235
  0
VERTEX
  8
0
 62
     3
  6
CONTINUOUS
 10
0.3689
 20
0.3274
  0
VERTEX
  8
0
 62
     3
  6
CONTINUOUS
 10
0.3832
 20
0.3320
  0
VERTEX
  8
0
 62
     3
  6
CONTINUOUS
 10
0.3975
 20
0.3366
  0
VERTEX
  8
0
 62
     3
  6
CONTINUOUS
 10
0.4118
 20
0.3410
  0
VERTEX
  8
0
 62
     3
  6
CONTINUOUS
 10
0.4261
 20
0.3454
  0
VERTEX
  8
0
 62
     3
  6
CONTINUOUS
 10
0.4405
 20
0.3496
  0
VERTEX
  8
0
 62
     3
  6
CONTINUOUS
 10
0.4549
 20
0.3537
  0
VERTEX
  8
0
 62
     3
  6
CONTINUOUS
 10
0.4693
 20
0.3578
  0
VERTEX
  8
0
 62
     3
  6
CONTINUOUS
 10
0.4838
 20
0.3617
  0
VERTEX
  8
0
 62
     3
  6
CONTINUOUS
 10
0.4982
 20
0.3656
  0
VERTEX
  8
0
 62
     3
  6
CONTINUOUS
 10
0.5127
 20
0.3694
  0
VERTEX
  8
0
 62
     3
  6
CONTINUOUS
 10
0.5272
 20
0.3731
  0
VERTEX
  8
0
 62
     3
  6
CONTINUOUS
 10
0.5418
 20
0.3767
  0
VERTEX
  8
0
 62
     3
  6
CONTINUOUS
 10
0.5589
 20
0.3809
  0
VERTEX
  8
0
 62
     3
  6
CONTINUOUS
 10
0.5761
 20
0.3850
  0
VERTEX
  8
0
 62
     3
  6
CONTINUOUS
 10
0.5932
 20
0.3890
  0
VERTEX
  8
0
 62
     3
  6
CONTINUOUS
 10
0.6105
 20
0.3929
  0
VERTEX
  8
0
 62
     3
  6
CONTINUOUS
 10
0.6277
 20
0.3967
  0
VERTEX
  8
0
 62
     3
  6
CONTINUOUS
 10
0.6449
 20
0.4004
  0
VERTEX
  8
0
 62
     3
  6
CONTINUOUS
 10
0.6622
 20
0.4041
  0
VERTEX
  8
0
 62
     3
  6
CONTINUOUS
 10
0.6795
 20
0.4076
  0
VERTEX
  8
0
 62
     3
  6
CONTINUOUS
 10
0.6968
 20
0.4111
  0
VERTEX
  8
0
 62
     3
  6
CONTINUOUS
 10
0.7141
 20
0.4145
  0
VERTEX
  8
0
 62
     3
  6
CONTINUOUS
 10
0.7315
 20
0.4178
  0
VERTEX
  8
0
 62
     3
  6
CONTINUOUS
 10
0.7488
 20
0.4211
  0
VERTEX
  8
0
 62
     3
  6
CONTINUOUS
 10
0.7687
 20
0.4247
  0
VERTEX
  8
0
 62
     3
  6
CONTINUOUS
 10
0.7886
 20
0.4283
  0
VERTEX
  8
0
 62
     3
  6
CONTINUOUS
 10
0.8085
 20
0.4317
  0
VERTEX
  8
0
 62
     3
  6
CONTINUOUS
 10
0.8285
 20
0.4351
  0
VERTEX
  8
0
 62
     3
  6
CONTINUOUS
 10
0.8484
 20
0.4384
  0
VERTEX
  8
0
 62
     3
  6
CONTINUOUS
 10
0.8684
 20
0.4417
  0
VERTEX
  8
0
 62
     3
  6
CONTINUOUS
 10
0.8884
 20
0.4448
  0
VERTEX
  8
0
 62
     3
  6
CONTINUOUS
 10
0.9083
 20
0.4479
  0
VERTEX
  8
0
 62
     3
  6
CONTINUOUS
 10
0.9283
 20
0.4509
  0
VERTEX
  8
0
 62
     3
  6
CONTINUOUS
 10
0.9484
 20
0.4538
  0
VERTEX
  8
0
 62
     3
  6
CONTINUOUS
 10
0.9684
 20
0.4567
  0
VERTEX
  8
0
 62
     3
  6
CONTINUOUS
 10
0.9884
 20
0.4595
  0
VERTEX
  8
0
 62
     3
  6
CONTINUOUS
 10
1.0109
 20
0.4625
  0
VERTEX
  8
0
 62
     3
  6
CONTINUOUS
 10
1.0333
 20
0.4655
  0
VERTEX
  8
0
 62
     3
  6
CONTINUOUS
 10
1.0558
 20
0.4684
  0
VERTEX
  8
0
 62
     3
  6
CONTINUOUS
 10
1.0783
 20
0.4712
  0
VERTEX
  8
0
 62
     3
  6
CONTINUOUS
 10
1.1008
 20
0.4739
  0
VERTEX
  8
0
 62
     3
  6
CONTINUOUS
 10
1.1233
 20
0.4765
  0
VERTEX
  8
0
 62
     3
  6
CONTINUOUS
 10
1.1458
 20
0.4791
  0
VERTEX
  8
0
 62
     3
  6
CONTINUOUS
 10
1.1683
 20
0.4816
  0
VERTEX
  8
0
 62
     3
  6
CONTINUOUS
 10
1.1909
 20
0.4841
  0
VERTEX
  8
0
 62
     3
  6
CONTINUOUS
 10
1.2134
 20
0.4864
  0
VERTEX
  8
0
 62
     3
  6
CONTINUOUS
 10
1.2359
 20
0.4887
  0
VERTEX
  8
0
 62
     3
  6
CONTINUOUS
 10
1.2585
 20
0.4910
  0
VERTEX
  8
0
 62
     3
  6
CONTINUOUS
 10
1.2833
 20
0.4934
  0
VERTEX
  8
0
 62
     3
  6
CONTINUOUS
 10
1.3081
 20
0.4957
  0
VERTEX
  8
0
 62
     3
  6
CONTINUOUS
 10
1.3330
 20
0.4979
  0
VERTEX
  8
0
 62
     3
  6
CONTINUOUS
 10
1.3578
 20
0.5001
  0
VERTEX
  8
0
 62
     3
  6
CONTINUOUS
 10
1.3827
 20
0.5022
  0
VERTEX
  8
0
 62
     3
  6
CONTINUOUS
 10
1.4075
 20
0.5042
  0
VERTEX
  8
0
 62
     3
  6
CONTINUOUS
 10
1.4324
 20
0.5062
  0
VERTEX
  8
0
 62
     3
  6
CONTINUOUS
 10
1.4573
 20
0.5081
  0
VERTEX
  8
0
 62
     3
  6
CONTINUOUS
 10
1.4822
 20
0.5099
  0
VERTEX
  8
0
 62
     3
  6
CONTINUOUS
 10
1.5070
 20
0.5117
  0
VERTEX
  8
0
 62
     3
  6
CONTINUOUS
 10
1.5319
 20
0.5133
  0
VERTEX
  8
0
 62
     3
  6
CONTINUOUS
 10
1.5568
 20
0.5150
  0
VERTEX
  8
0
 62
     3
  6
CONTINUOUS
 10
1.5838
 20
0.5167
  0
VERTEX
  8
0
 62
     3
  6
CONTINUOUS
 10
1.6108
 20
0.5183
  0
VERTEX
  8
0
 62
     3
  6
CONTINUOUS
 10
1.6378
 20
0.5199
  0
VERTEX
  8
0
 62
     3
  6
CONTINUOUS
 10
1.6648
 20
0.5214
  0
VERTEX
  8
0
 62
     3
  6
CONTINUOUS
 10
1.6918
 20
0.5228
  0
VERTEX
  8
0
 62
     3
  6
CONTINUOUS
 10
1.7188
 20
0.5242
  0
VERTEX
  8
0
 62
     3
  6
CONTINUOUS
 10
1.7458
 20
0.5255
  0
VERTEX
  8
0
 62
     3
  6
CONTINUOUS
 10
1.7728
 20
0.5268
  0
VERTEX
  8
0
 62
     3
  6
CONTINUOUS
 10
1.7998
 20
0.5279
  0
VERTEX
  8
0
 62
     3
  6
CONTINUOUS
 10
1.8268
 20
0.5291
  0
VERTEX
  8
0
 62
     3
  6
CONTINUOUS
 10
1.8539
 20
0.5301
  0
VERTEX
  8
0
 62
     3
  6
CONTINUOUS
 10
1.8809
 20
0.5311
  0
VERTEX
  8
0
 62
     3
  6
CONTINUOUS
 10
1.9098
 20
0.5322
  0
VERTEX
  8
0
 62
     3
  6
CONTINUOUS
 10
1.9387
 20
0.5331
  0
VERTEX
  8
0
 62
     3
  6
CONTINUOUS
 10
1.9676
 20
0.5340
  0
VERTEX
  8
0
 62
     3
  6
CONTINUOUS
 10
1.9965
 20
0.5348
  0
VERTEX
  8
0
 62
     3
  6
CONTINUOUS
 10
2.0255
 20
0.5356
  0
VERTEX
  8
0
 62
     3
  6
CONTINUOUS
 10
2.0544
 20
0.5363
  0
VERTEX
  8
0
 62
     3
  6
CONTINUOUS
 10
2.0833
 20
0.5369
  0
VERTEX
  8
0
 62
     3
  6
CONTINUOUS
 10
2.1122
 20
0.5375
  0
VERTEX
  8
0
 62
     3
  6
CONTINUOUS
 10
2.1411
 20
0.5381
  0
VERTEX
  8
0
 62
     3
  6
CONTINUOUS
 10
2.1701
 20
0.5385
  0
VERTEX
  8
0
 62
     3
  6
CONTINUOUS
 10
2.1990
 20
0.5389
  0
VERTEX
  8
0
 62
     3
  6
CONTINUOUS
 10
2.2279
 20
0.5393
  0
VERTEX
  8
0
 62
     3
  6
CONTINUOUS
 10
2.2585
 20
0.5396
  0
VERTEX
  8
0
 62
     3
  6
CONTINUOUS
 10
2.2891
 20
0.5399
  0
VERTEX
  8
0
 62
     3
  6
CONTINUOUS
 10
2.3196
 20
0.5401
  0
VERTEX
  8
0
 62
     3
  6
CONTINUOUS
 10
2.3502
 20
0.5402
  0
VERTEX
  8
0
 62
     3
  6
CONTINUOUS
 10
2.3808
 20
0.5403
  0
VERTEX
  8
0
 62
     3
  6
CONTINUOUS
 10
2.4113
 20
0.5404
  0
VERTEX
  8
0
 62
     3
  6
CONTINUOUS
 10
2.4419
 20
0.5403
  0
VERTEX
  8
0
 62
     3
  6
CONTINUOUS
 10
2.4725
 20
0.5403
  0
VERTEX
  8
0
 62
     3
  6
CONTINUOUS
 10
2.5030
 20
0.5401
  0
VERTEX
  8
0
 62
     3
  6
CONTINUOUS
 10
2.5336
 20
0.5400
  0
VERTEX
  8
0
 62
     3
  6
CONTINUOUS
 10
2.5642
 20
0.5397
  0
VERTEX
  8
0
 62
     3
  6
CONTINUOUS
 10
2.5947
 20
0.5395
  0
VERTEX
  8
0
 62
     3
  6
CONTINUOUS
 10
2.6267
 20
0.5391
  0
VERTEX
  8
0
 62
     3
  6
CONTINUOUS
 10
2.6586
 20
0.5387
  0
VERTEX
  8
0
 62
     3
  6
CONTINUOUS
 10
2.6906
 20
0.5383
  0
VERTEX
  8
0
 62
     3
  6
CONTINUOUS
 10
2.7225
 20
0.5378
  0
VERTEX
  8
0
 62
     3
  6
CONTINUOUS
 10
2.7544
 20
0.5372
  0
VERTEX
  8
0
 62
     3
  6
CONTINUOUS
 10
2.7864
 20
0.5366
  0
VERTEX
  8
0
 62
     3
  6
CONTINUOUS
 10
2.8183
 20
0.5360
  0
VERTEX
  8
0
 62
     3
  6
CONTINUOUS
 10
2.8503
 20
0.5353
  0
VERTEX
  8
0
 62
     3
  6
CONTINUOUS
 10
2.8822
 20
0.5345
  0
VERTEX
  8
0
 62
     3
  6
CONTINUOUS
 10
2.9141
 20
0.5338
  0
VERTEX
  8
0
 62
     3
  6
CONTINUOUS
 10
2.9461
 20
0.5329
  0
VERTEX
  8
0
 62
     3
  6
CONTINUOUS
 10
2.9780
 20
0.5320
  0
VERTEX
  8
0
 62
     3
  6
CONTINUOUS
 10
3.0110
 20
0.5311
  0
VERTEX
  8
0
 62
     3
  6
CONTINUOUS
 10
3.0440
 20
0.5300
  0
VERTEX
  8
0
 62
     3
  6
CONTINUOUS
 10
3.0770
 20
0.5290
  0
VERTEX
  8
0
 62
     3
  6
CONTINUOUS
 10
3.1101
 20
0.5279
  0
VERTEX
  8
0
 62
     3
  6
CONTINUOUS
 10
3.1431
 20
0.5267
  0
VERTEX
  8
0
 62
     3
  6
CONTINUOUS
 10
3.1761
 20
0.5255
  0
VERTEX
  8
0
 62
     3
  6
CONTINUOUS
 10
3.2091
 20
0.5243
  0
VERTEX
  8
0
 62
     3
  6
CONTINUOUS
 10
3.2421
 20
0.5230
  0
VERTEX
  8
0
 62
     3
  6
CONTINUOUS
 10
3.2751
 20
0.5216
  0
VERTEX
  8
0
 62
     3
  6
CONTINUOUS
 10
3.3081
 20
0.5203
  0
VERTEX
  8
0
 62
     3
  6
CONTINUOUS
 10
3.3411
 20
0.5188
  0
VERTEX
  8
0
 62
     3
  6
CONTINUOUS
 10
3.3741
 20
0.5174
  0
VERTEX
  8
0
 62
     3
  6
CONTINUOUS
 10
3.4079
 20
0.5158
  0
VERTEX
  8
0
 62
     3
  6
CONTINUOUS
 10
3.4416
 20
0.5143
  0
VERTEX
  8
0
 62
     3
  6
CONTINUOUS
 10
3.4754
 20
0.5126
  0
VERTEX
  8
0
 62
     3
  6
CONTINUOUS
 10
3.5092
 20
0.5110
  0
VERTEX
  8
0
 62
     3
  6
CONTINUOUS
 10
3.5429
 20
0.5093
  0
VERTEX
  8
0
 62
     3
  6
CONTINUOUS
 10
3.5767
 20
0.5075
  0
VERTEX
  8
0
 62
     3
  6
CONTINUOUS
 10
3.6104
 20
0.5057
  0
VERTEX
  8
0
 62
     3
  6
CONTINUOUS
 10
3.6442
 20
0.5039
  0
VERTEX
  8
0
 62
     3
  6
CONTINUOUS
 10
3.6780
 20
0.5020
  0
VERTEX
  8
0
 62
     3
  6
CONTINUOUS
 10
3.7117
 20
0.5001
  0
VERTEX
  8
0
 62
     3
  6
CONTINUOUS
 10
3.7455
 20
0.4982
  0
VERTEX
  8
0
 62
     3
  6
CONTINUOUS
 10
3.7792
 20
0.4962
  0
VERTEX
  8
0
 62
     3
  6
CONTINUOUS
 10
3.8134
 20
0.4941
  0
VERTEX
  8
0
 62
     3
  6
CONTINUOUS
 10
3.8476
 20
0.4921
  0
VERTEX
  8
0
 62
     3
  6
CONTINUOUS
 10
3.8818
 20
0.4899
  0
VERTEX
  8
0
 62
     3
  6
CONTINUOUS
 10
3.9159
 20
0.4878
  0
VERTEX
  8
0
 62
     3
  6
CONTINUOUS
 10
3.9501
 20
0.4856
  0
VERTEX
  8
0
 62
     3
  6
CONTINUOUS
 10
3.9843
 20
0.4833
  0
VERTEX
  8
0
 62
     3
  6
CONTINUOUS
 10
4.0185
 20
0.4811
  0
VERTEX
  8
0
 62
     3
  6
CONTINUOUS
 10
4.0526
 20
0.4788
  0
VERTEX
  8
0
 62
     3
  6
CONTINUOUS
 10
4.0868
 20
0.4764
  0
VERTEX
  8
0
 62
     3
  6
CONTINUOUS
 10
4.1210
 20
0.4741
  0
VERTEX
  8
0
 62
     3
  6
CONTINUOUS
 10
4.1551
 20
0.4717
  0
VERTEX
  8
0
 62
     3
  6
CONTINUOUS
 10
4.1893
 20
0.4692
  0
VERTEX
  8
0
 62
     3
  6
CONTINUOUS
 10
4.2235
 20
0.4667
  0
VERTEX
  8
0
 62
     3
  6
CONTINUOUS
 10
4.2578
 20
0.4642
  0
VERTEX
  8
0
 62
     3
  6
CONTINUOUS
 10
4.2921
 20
0.4617
  0
VERTEX
  8
0
 62
     3
  6
CONTINUOUS
 10
4.3263
 20
0.4591
  0
VERTEX
  8
0
 62
     3
  6
CONTINUOUS
 10
4.3606
 20
0.4565
  0
VERTEX
  8
0
 62
     3
  6
CONTINUOUS
 10
4.3948
 20
0.4539
  0
VERTEX
  8
0
 62
     3
  6
CONTINUOUS
 10
4.4291
 20
0.4512
  0
VERTEX
  8
0
 62
     3
  6
CONTINUOUS
 10
4.4633
 20
0.4485
  0
VERTEX
  8
0
 62
     3
  6
CONTINUOUS
 10
4.4976
 20
0.4458
  0
VERTEX
  8
0
 62
     3
  6
CONTINUOUS
 10
4.5318
 20
0.4431
  0
VERTEX
  8
0
 62
     3
  6
CONTINUOUS
 10
4.5661
 20
0.4403
  0
VERTEX
  8
0
 62
     3
  6
CONTINUOUS
 10
4.6003
 20
0.4375
  0
VERTEX
  8
0
 62
     3
  6
CONTINUOUS
 10
4.6343
 20
0.4346
  0
VERTEX
  8
0
 62
     3
  6
CONTINUOUS
 10
4.6683
 20
0.4318
  0
VERTEX
  8
0
 62
     3
  6
CONTINUOUS
 10
4.7023
 20
0.4289
  0
VERTEX
  8
0
 62
     3
  6
CONTINUOUS
 10
4.7362
 20
0.4260
  0
VERTEX
  8
0
 62
     3
  6
CONTINUOUS
 10
4.7702
 20
0.4231
  0
VERTEX
  8
0
 62
     3
  6
CONTINUOUS
 10
4.8042
 20
0.4202
  0
VERTEX
  8
0
 62
     3
  6
CONTINUOUS
 10
4.8381
 20
0.4172
  0
VERTEX
  8
0
 62
     3
  6
CONTINUOUS
 10
4.8721
 20
0.4142
  0
VERTEX
  8
0
 62
     3
  6
CONTINUOUS
 10
4.9061
 20
0.4112
  0
VERTEX
  8
0
 62
     3
  6
CONTINUOUS
 10
4.9400
 20
0.4081
  0
VERTEX
  8
0
 62
     3
  6
CONTINUOUS
 10
4.9740
 20
0.4050
  0
VERTEX
  8
0
 62
     3
  6
CONTINUOUS
 10
5.0079
 20
0.4019
  0
VERTEX
  8
0
 62
     3
  6
CONTINUOUS
 10
5.0413
 20
0.3989
  0
VERTEX
  8
0
 62
     3
  6
CONTINUOUS
 10
5.0746
 20
0.3958
  0
VERTEX
  8
0
 62
     3
  6
CONTINUOUS
 10
5.1079
 20
0.3927
  0
VERTEX
  8
0
 62
     3
  6
CONTINUOUS
 10
5.1412
 20
0.3896
  0
VERTEX
  8
0
 62
     3
  6
CONTINUOUS
 10
5.1746
 20
0.3864
  0
VERTEX
  8
0
 62
     3
  6
CONTINUOUS
 10
5.2079
 20
0.3833
  0
VERTEX
  8
0
 62
     3
  6
CONTINUOUS
 10
5.2412
 20
0.3801
  0
VERTEX
  8
0
 62
     3
  6
CONTINUOUS
 10
5.2745
 20
0.3769
  0
VERTEX
  8
0
 62
     3
  6
CONTINUOUS
 10
5.3078
 20
0.3736
  0
VERTEX
  8
0
 62
     3
  6
CONTINUOUS
 10
5.3411
 20
0.3704
  0
VERTEX
  8
0
 62
     3
  6
CONTINUOUS
 10
5.3745
 20
0.3671
  0
VERTEX
  8
0
 62
     3
  6
CONTINUOUS
 10
5.4078
 20
0.3639
  0
VERTEX
  8
0
 62
     3
  6
CONTINUOUS
 10
5.4401
 20
0.3607
  0
VERTEX
  8
0
 62
     3
  6
CONTINUOUS
 10
5.4724
 20
0.3575
  0
VERTEX
  8
0
 62
     3
  6
CONTINUOUS
 10
5.5047
 20
0.3542
  0
VERTEX
  8
0
 62
     3
  6
CONTINUOUS
 10
5.5371
 20
0.3510
  0
VERTEX
  8
0
 62
     3
  6
CONTINUOUS
 10
5.5694
 20
0.3477
  0
VERTEX
  8
0
 62
     3
  6
CONTINUOUS
 10
5.6017
 20
0.3444
  0
VERTEX
  8
0
 62
     3
  6
CONTINUOUS
 10
5.6340
 20
0.3411
  0
VERTEX
  8
0
 62
     3
  6
CONTINUOUS
 10
5.6663
 20
0.3378
  0
VERTEX
  8
0
 62
     3
  6
CONTINUOUS
 10
5.6987
 20
0.3345
  0
VERTEX
  8
0
 62
     3
  6
CONTINUOUS
 10
5.7310
 20
0.3312
  0
VERTEX
  8
0
 62
     3
  6
CONTINUOUS
 10
5.7633
 20
0.3279
  0
VERTEX
  8
0
 62
     3
  6
CONTINUOUS
 10
5.7956
 20
0.3245
  0
VERTEX
  8
0
 62
     3
  6
CONTINUOUS
 10
5.8266
 20
0.3213
  0
VERTEX
  8
0
 62
     3
  6
CONTINUOUS
 10
5.8575
 20
0.3180
  0
VERTEX
  8
0
 62
     3
  6
CONTINUOUS
 10
5.8885
 20
0.3148
  0
VERTEX
  8
0
 62
     3
  6
CONTINUOUS
 10
5.9194
 20
0.3116
  0
VERTEX
  8
0
 62
     3
  6
CONTINUOUS
 10
5.9504
 20
0.3083
  0
VERTEX
  8
0
 62
     3
  6
CONTINUOUS
 10
5.9813
 20
0.3050
  0
VERTEX
  8
0
 62
     3
  6
CONTINUOUS
 10
6.0122
 20
0.3017
  0
VERTEX
  8
0
 62
     3
  6
CONTINUOUS
 10
6.0432
 20
0.2985
  0
VERTEX
  8
0
 62
     3
  6
CONTINUOUS
 10
6.0741
 20
0.2952
  0
VERTEX
  8
0
 62
     3
  6
CONTINUOUS
 10
6.1051
 20
0.2919
  0
VERTEX
  8
0
 62
     3
  6
CONTINUOUS
 10
6.1360
 20
0.2885
  0
VERTEX
  8
0
 62
     3
  6
CONTINUOUS
 10
6.1670
 20
0.2852
  0
VERTEX
  8
0
 62
     3
  6
CONTINUOUS
 10
6.1962
 20
0.2821
  0
VERTEX
  8
0
 62
     3
  6
CONTINUOUS
 10
6.2254
 20
0.2789
  0
VERTEX
  8
0
 62
     3
  6
CONTINUOUS
 10
6.2546
 20
0.2758
  0
VERTEX
  8
0
 62
     3
  6
CONTINUOUS
 10
6.2838
 20
0.2726
  0
VERTEX
  8
0
 62
     3
  6
CONTINUOUS
 10
6.3130
 20
0.2695
  0
VERTEX
  8
0
 62
     3
  6
CONTINUOUS
 10
6.3422
 20
0.2663
  0
VERTEX
  8
0
 62
     3
  6
CONTINUOUS
 10
6.3714
 20
0.2632
  0
VERTEX
  8
0
 62
     3
  6
CONTINUOUS
 10
6.4006
 20
0.2600
  0
VERTEX
  8
0
 62
     3
  6
CONTINUOUS
 10
6.4298
 20
0.2569
  0
VERTEX
  8
0
 62
     3
  6
CONTINUOUS
 10
6.4590
 20
0.2537
  0
VERTEX
  8
0
 62
     3
  6
CONTINUOUS
 10
6.4882
 20
0.2505
  0
VERTEX
  8
0
 62
     3
  6
CONTINUOUS
 10
6.5174
 20
0.2474
  0
VERTEX
  8
0
 62
     3
  6
CONTINUOUS
 10
6.5444
 20
0.2445
  0
VERTEX
  8
0
 62
     3
  6
CONTINUOUS
 10
6.5715
 20
0.2415
  0
VERTEX
  8
0
 62
     3
  6
CONTINUOUS
 10
6.5986
 20
0.2386
  0
VERTEX
  8
0
 62
     3
  6
CONTINUOUS
 10
6.6257
 20
0.2357
  0
VERTEX
  8
0
 62
     3
  6
CONTINUOUS
 10
6.6528
 20
0.2328
  0
VERTEX
  8
0
 62
     3
  6
CONTINUOUS
 10
6.6799
 20
0.2299
  0
VERTEX
  8
0
 62
     3
  6
CONTINUOUS
 10
6.7070
 20
0.2270
  0
VERTEX
  8
0
 62
     3
  6
CONTINUOUS
 10
6.7340
 20
0.2241
  0
VERTEX
  8
0
 62
     3
  6
CONTINUOUS
 10
6.7611
 20
0.2212
  0
VERTEX
  8
0
 62
     3
  6
CONTINUOUS
 10
6.7882
 20
0.2183
  0
VERTEX
  8
0
 62
     3
  6
CONTINUOUS
 10
6.8153
 20
0.2154
  0
VERTEX
  8
0
 62
     3
  6
CONTINUOUS
 10
6.8424
 20
0.2125
  0
VERTEX
  8
0
 62
     3
  6
CONTINUOUS
 10
6.8670
 20
0.2099
  0
VERTEX
  8
0
 62
     3
  6
CONTINUOUS
 10
6.8916
 20
0.2073
  0
VERTEX
  8
0
 62
     3
  6
CONTINUOUS
 10
6.9162
 20
0.2047
  0
VERTEX
  8
0
 62
     3
  6
CONTINUOUS
 10
6.9408
 20
0.2021
  0
VERTEX
  8
0
 62
     3
  6
CONTINUOUS
 10
6.9654
 20
0.1995
  0
VERTEX
  8
0
 62
     3
  6
CONTINUOUS
 10
6.9900
 20
0.1969
  0
VERTEX
  8
0
 62
     3
  6
CONTINUOUS
 10
7.0146
 20
0.1944
  0
VERTEX
  8
0
 62
     3
  6
CONTINUOUS
 10
7.0392
 20
0.1918
  0
VERTEX
  8
0
 62
     3
  6
CONTINUOUS
 10
7.0638
 20
0.1893
  0
VERTEX
  8
0
 62
     3
  6
CONTINUOUS
 10
7.0884
 20
0.1867
  0
VERTEX
  8
0
 62
     3
  6
CONTINUOUS
 10
7.1130
 20
0.1842
  0
VERTEX
  8
0
 62
     3
  6
CONTINUOUS
 10
7.1376
 20
0.1817
  0
VERTEX
  8
0
 62
     3
  6
CONTINUOUS
 10
7.1593
 20
0.1795
  0
VERTEX
  8
0
 62
     3
  6
CONTINUOUS
 10
7.1811
 20
0.1773
  0
VERTEX
  8
0
 62
     3
  6
CONTINUOUS
 10
7.2028
 20
0.1751
  0
VERTEX
  8
0
 62
     3
  6
CONTINUOUS
 10
7.2246
 20
0.1730
  0
VERTEX
  8
0
 62
     3
  6
CONTINUOUS
 10
7.2463
 20
0.1708
  0
VERTEX
  8
0
 62
     3
  6
CONTINUOUS
 10
7.2681
 20
0.1687
  0
VERTEX
  8
0
 62
     3
  6
CONTINUOUS
 10
7.2898
 20
0.1666
  0
VERTEX
  8
0
 62
     3
  6
CONTINUOUS
 10
7.3116
 20
0.1644
  0
VERTEX
  8
0
 62
     3
  6
CONTINUOUS
 10
7.3333
 20
0.1624
  0
VERTEX
  8
0
 62
     3
  6
CONTINUOUS
 10
7.3551
 20
0.1603
  0
SEQEND
  8
0
  0
POLYLINE
  8
0
 62
     3
 66
     1
  6
CONTINUOUS
  0
VERTEX
  8
0
 62
     3
  6
CONTINUOUS
 10
7.3551
 20
0.1603
  0
VERTEX
  8
0
 62
     3
  6
CONTINUOUS
 10
7.3768
 20
0.1582
  0
VERTEX
  8
0
 62
     3
  6
CONTINUOUS
 10
7.3986
 20
0.1562
  0
VERTEX
  8
0
 62
     3
  6
CONTINUOUS
 10
7.4171
 20
0.1545
  0
VERTEX
  8
0
 62
     3
  6
CONTINUOUS
 10
7.4356
 20
0.1528
  0
VERTEX
  8
0
 62
     3
  6
CONTINUOUS
 10
7.4541
 20
0.1511
  0
VERTEX
  8
0
 62
     3
  6
CONTINUOUS
 10
7.4727
 20
0.1494
  0
VERTEX
  8
0
 62
     3
  6
CONTINUOUS
 10
7.4912
 20
0.1477
  0
VERTEX
  8
0
 62
     3
  6
CONTINUOUS
 10
7.5097
 20
0.1461
  0
VERTEX
  8
0
 62
     3
  6
CONTINUOUS
 10
7.5283
 20
0.1445
  0
VERTEX
  8
0
 62
     3
  6
CONTINUOUS
 10
7.5468
 20
0.1429
  0
VERTEX
  8
0
 62
     3
  6
CONTINUOUS
 10
7.5653
 20
0.1414
  0
VERTEX
  8
0
 62
     3
  6
CONTINUOUS
 10
7.5839
 20
0.1398
  0
VERTEX
  8
0
 62
     3
  6
CONTINUOUS
 10
7.6024
 20
0.1383
  0
VERTEX
  8
0
 62
     3
  6
CONTINUOUS
 10
7.6210
 20
0.1368
  0
VERTEX
  8
0
 62
     3
  6
CONTINUOUS
 10
7.6359
 20
0.1357
  0
VERTEX
  8
0
 62
     3
  6
CONTINUOUS
 10
7.6508
 20
0.1345
  0
VERTEX
  8
0
 62
     3
  6
CONTINUOUS
 10
7.6658
 20
0.1334
  0
VERTEX
  8
0
 62
     3
  6
CONTINUOUS
 10
7.6807
 20
0.1323
  0
VERTEX
  8
0
 62
     3
  6
CONTINUOUS
 10
7.6956
 20
0.1312
  0
VERTEX
  8
0
 62
     3
  6
CONTINUOUS
 10
7.7106
 20
0.1301
  0
VERTEX
  8
0
 62
     3
  6
CONTINUOUS
 10
7.7255
 20
0.1290
  0
VERTEX
  8
0
 62
     3
  6
CONTINUOUS
 10
7.7405
 20
0.1280
  0
VERTEX
  8
0
 62
     3
  6
CONTINUOUS
 10
7.7554
 20
0.1270
  0
VERTEX
  8
0
 62
     3
  6
CONTINUOUS
 10
7.7703
 20
0.1260
  0
VERTEX
  8
0
 62
     3
  6
CONTINUOUS
 10
7.7853
 20
0.1250
  0
VERTEX
  8
0
 62
     3
  6
CONTINUOUS
 10
7.8002
 20
0.1241
  0
VERTEX
  8
0
 62
     3
  6
CONTINUOUS
 10
7.8112
 20
0.1234
  0
VERTEX
  8
0
 62
     3
  6
CONTINUOUS
 10
7.8222
 20
0.1228
  0
VERTEX
  8
0
 62
     3
  6
CONTINUOUS
 10
7.8332
 20
0.1221
  0
VERTEX
  8
0
 62
     3
  6
CONTINUOUS
 10
7.8442
 20
0.1215
  0
VERTEX
  8
0
 62
     3
  6
CONTINUOUS
 10
7.8552
 20
0.1209
  0
VERTEX
  8
0
 62
     3
  6
CONTINUOUS
 10
7.8661
 20
0.1203
  0
VERTEX
  8
0
 62
     3
  6
CONTINUOUS
 10
7.8771
 20
0.1197
  0
VERTEX
  8
0
 62
     3
  6
CONTINUOUS
 10
7.8881
 20
0.1192
  0
VERTEX
  8
0
 62
     3
  6
CONTINUOUS
 10
7.8991
 20
0.1187
  0
VERTEX
  8
0
 62
     3
  6
CONTINUOUS
 10
7.9101
 20
0.1182
  0
VERTEX
  8
0
 62
     3
  6
CONTINUOUS
 10
7.9211
 20
0.1178
  0
VERTEX
  8
0
 62
     3
  6
CONTINUOUS
 10
7.9321
 20
0.1174
  0
VERTEX
  8
0
 62
     3
  6
CONTINUOUS
 10
7.9411
 20
0.1171
  0
VERTEX
  8
0
 62
     3
  6
CONTINUOUS
 10
7.9501
 20
0.1168
  0
VERTEX
  8
0
 62
     3
  6
CONTINUOUS
 10
7.9592
 20
0.1165
  0
VERTEX
  8
0
 62
     3
  6
CONTINUOUS
 10
7.9682
 20
0.1163
  0
VERTEX
  8
0
 62
     3
  6
CONTINUOUS
 10
7.9772
 20
0.1161
  0
VERTEX
  8
0
 62
     3
  6
CONTINUOUS
 10
7.9862
 20
0.1159
  0
VERTEX
  8
0
 62
     3
  6
CONTINUOUS
 10
7.9953
 20
0.1157
  0
VERTEX
  8
0
 62
     3
  6
CONTINUOUS
 10
8.0043
 20
0.1155
  0
VERTEX
  8
0
 62
     3
  6
CONTINUOUS
 10
8.0133
 20
0.1153
  0
VERTEX
  8
0
 62
     3
  6
CONTINUOUS
 10
8.0223
 20
0.1152
  0
VERTEX
  8
0
 62
     3
  6
CONTINUOUS
 10
8.0314
 20
0.1150
  0
VERTEX
  8
0
 62
     3
  6
CONTINUOUS
 10
8.0404
 20
0.1148
  0
SEQEND
  8
0
  0
POLYLINE
  8
0
 62
     1
 66
     1
  6
CONTINUOUS
  0
VERTEX
  8
0
 62
     1
  6
CONTINUOUS
 10
0.0404
 20
0.1148
  0
VERTEX
  8
0
 62
     1
  6
CONTINUOUS
 10
0.0419
 20
0.1109
  0
VERTEX
  8
0
 62
     1
  6
CONTINUOUS
 10
0.0435
 20
0.1070
  0
VERTEX
  8
0
 62
     1
  6
CONTINUOUS
 10
0.0451
 20
0.1032
  0
VERTEX
  8
0
 62
     1
  6
CONTINUOUS
 10
0.0467
 20
0.0993
  0
VERTEX
  8
0
 62
     1
  6
CONTINUOUS
 10
0.0483
 20
0.0955
  0
VERTEX
  8
0
 62
     1
  6
CONTINUOUS
 10
0.0500
 20
0.0918
  0
VERTEX
  8
0
 62
     1
  6
CONTINUOUS
 10
0.0518
 20
0.0880
  0
VERTEX
  8
0
 62
     1
  6
CONTINUOUS
 10
0.0536
 20
0.0844
  0
VERTEX
  8
0
 62
     1
  6
CONTINUOUS
 10
0.0556
 20
0.0808
  0
VERTEX
  8
0
 62
     1
  6
CONTINUOUS
 10
0.0576
 20
0.0773
  0
VERTEX
  8
0
 62
     1
  6
CONTINUOUS
 10
0.0598
 20
0.0739
  0
VERTEX
  8
0
 62
     1
  6
CONTINUOUS
 10
0.0621
 20
0.0706
  0
VERTEX
  8
0
 62
     1
  6
CONTINUOUS
 10
0.0663
 20
0.0652
  0
VERTEX
  8
0
 62
     1
  6
CONTINUOUS
 10
0.0708
 20
0.0601
  0
VERTEX
  8
0
 62
     1
  6
CONTINUOUS
 10
0.0756
 20
0.0553
  0
VERTEX
  8
0
 62
     1
  6
CONTINUOUS
 10
0.0808
 20
0.0506
  0
VERTEX
  8
0
 62
     1
  6
CONTINUOUS
 10
0.0862
 20
0.0463
  0
VERTEX
  8
0
 62
     1
  6
CONTINUOUS
 10
0.0918
 20
0.0421
  0
VERTEX
  8
0
 62
     1
  6
CONTINUOUS
 10
0.0976
 20
0.0380
  0
VERTEX
  8
0
 62
     1
  6
CONTINUOUS
 10
0.1035
 20
0.0342
  0
VERTEX
  8
0
 62
     1
  6
CONTINUOUS
 10
0.1096
 20
0.0304
  0
VERTEX
  8
0
 62
     1
  6
CONTINUOUS
 10
0.1158
 20
0.0268
  0
VERTEX
  8
0
 62
     1
  6
CONTINUOUS
 10
0.1220
 20
0.0233
  0
VERTEX
  8
0
 62
     1
  6
CONTINUOUS
 10
0.1282
 20
0.0198
  0
VERTEX
  8
0
 62
     1
  6
CONTINUOUS
 10
0.1369
 20
0.0150
  0
VERTEX
  8
0
 62
     1
  6
CONTINUOUS
 10
0.1456
 20
0.0104
  0
VERTEX
  8
0
 62
     1
  6
CONTINUOUS
 10
0.1543
 20
0.0058
  0
VERTEX
  8
0
 62
     1
  6
CONTINUOUS
 10
0.1629
 20
0.0013
  0
VERTEX
  8
0
 62
     1
  6
CONTINUOUS
 10
0.1716
 20
-0.0031
  0
VERTEX
  8
0
 62
     1
  6
CONTINUOUS
 10
0.1802
 20
-0.0074
  0
VERTEX
  8
0
 62
     1
  6
CONTINUOUS
 10
0.1889
 20
-0.0117
  0
VERTEX
  8
0
 62
     1
  6
CONTINUOUS
 10
0.1976
 20
-0.0158
  0
VERTEX
  8
0
 62
     1
  6
CONTINUOUS
 10
0.2063
 20
-0.0199
  0
VERTEX
  8
0
 62
     1
  6
CONTINUOUS
 10
0.2151
 20
-0.0238
  0
VERTEX
  8
0
 62
     1
  6
CONTINUOUS
 10
0.2239
 20
-0.0277
  0
VERTEX
  8
0
 62
     1
  6
CONTINUOUS
 10
0.2327
 20
-0.0315
  0
VERTEX
  8
0
 62
     1
  6
CONTINUOUS
 10
0.2442
 20
-0.0362
  0
VERTEX
  8
0
 62
     1
  6
CONTINUOUS
 10
0.2557
 20
-0.0409
  0
VERTEX
  8
0
 62
     1
  6
CONTINUOUS
 10
0.2673
 20
-0.0453
  0
VERTEX
  8
0
 62
     1
  6
CONTINUOUS
 10
0.2790
 20
-0.0497
  0
VERTEX
  8
0
 62
     1
  6
CONTINUOUS
 10
0.2907
 20
-0.0540
  0
VERTEX
  8
0
 62
     1
  6
CONTINUOUS
 10
0.3025
 20
-0.0581
  0
VERTEX
  8
0
 62
     1
  6
CONTINUOUS
 10
0.3143
 20
-0.0621
  0
VERTEX
  8
0
 62
     1
  6
CONTINUOUS
 10
0.3262
 20
-0.0660
  0
VERTEX
  8
0
 62
     1
  6
CONTINUOUS
 10
0.3381
 20
-0.0699
  0
VERTEX
  8
0
 62
     1
  6
CONTINUOUS
 10
0.3500
 20
-0.0736
  0
VERTEX
  8
0
 62
     1
  6
CONTINUOUS
 10
0.3620
 20
-0.0773
  0
VERTEX
  8
0
 62
     1
  6
CONTINUOUS
 10
0.3740
 20
-0.0809
  0
VERTEX
  8
0
 62
     1
  6
CONTINUOUS
 10
0.3887
 20
-0.0851
  0
VERTEX
  8
0
 62
     1
  6
CONTINUOUS
 10
0.4033
 20
-0.0893
  0
VERTEX
  8
0
 62
     1
  6
CONTINUOUS
 10
0.4180
 20
-0.0934
  0
VERTEX
  8
0
 62
     1
  6
CONTINUOUS
 10
0.4328
 20
-0.0974
  0
VERTEX
  8
0
 62
     1
  6
CONTINUOUS
 10
0.4475
 20
-0.1013
  0
VERTEX
  8
0
 62
     1
  6
CONTINUOUS
 10
0.4622
 20
-0.1051
  0
VERTEX
  8
0
 62
     1
  6
CONTINUOUS
 10
0.4770
 20
-0.1088
  0
VERTEX
  8
0
 62
     1
  6
CONTINUOUS
 10
0.4918
 20
-0.1124
  0
VERTEX
  8
0
 62
     1
  6
CONTINUOUS
 10
0.5066
 20
-0.1160
  0
VERTEX
  8
0
 62
     1
  6
CONTINUOUS
 10
0.5214
 20
-0.1194
  0
VERTEX
  8
0
 62
     1
  6
CONTINUOUS
 10
0.5363
 20
-0.1228
  0
VERTEX
  8
0
 62
     1
  6
CONTINUOUS
 10
0.5511
 20
-0.1261
  0
VERTEX
  8
0
 62
     1
  6
CONTINUOUS
 10
0.5687
 20
-0.1300
  0
VERTEX
  8
0
 62
     1
  6
CONTINUOUS
 10
0.5862
 20
-0.1337
  0
VERTEX
  8
0
 62
     1
  6
CONTINUOUS
 10
0.6038
 20
-0.1373
  0
VERTEX
  8
0
 62
     1
  6
CONTINUOUS
 10
0.6214
 20
-0.1408
  0
VERTEX
  8
0
 62
     1
  6
CONTINUOUS
 10
0.6390
 20
-0.1443
  0
VERTEX
  8
0
 62
     1
  6
CONTINUOUS
 10
0.6567
 20
-0.1477
  0
VERTEX
  8
0
 62
     1
  6
CONTINUOUS
 10
0.6744
 20
-0.1510
  0
VERTEX
  8
0
 62
     1
  6
CONTINUOUS
 10
0.6920
 20
-0.1542
  0
VERTEX
  8
0
 62
     1
  6
CONTINUOUS
 10
0.7097
 20
-0.1573
  0
VERTEX
  8
0
 62
     1
  6
CONTINUOUS
 10
0.7274
 20
-0.1603
  0
VERTEX
  8
0
 62
     1
  6
CONTINUOUS
 10
0.7452
 20
-0.1633
  0
VERTEX
  8
0
 62
     1
  6
CONTINUOUS
 10
0.7629
 20
-0.1662
  0
VERTEX
  8
0
 62
     1
  6
CONTINUOUS
 10
0.7832
 20
-0.1695
  0
VERTEX
  8
0
 62
     1
  6
CONTINUOUS
 10
0.8036
 20
-0.1726
  0
VERTEX
  8
0
 62
     1
  6
CONTINUOUS
 10
0.8240
 20
-0.1757
  0
VERTEX
  8
0
 62
     1
  6
CONTINUOUS
 10
0.8444
 20
-0.1787
  0
VERTEX
  8
0
 62
     1
  6
CONTINUOUS
 10
0.8648
 20
-0.1816
  0
VERTEX
  8
0
 62
     1
  6
CONTINUOUS
 10
0.8852
 20
-0.1845
  0
VERTEX
  8
0
 62
     1
  6
CONTINUOUS
 10
0.9056
 20
-0.1872
  0
VERTEX
  8
0
 62
     1
  6
CONTINUOUS
 10
0.9260
 20
-0.1899
  0
VERTEX
  8
0
 62
     1
  6
CONTINUOUS
 10
0.9465
 20
-0.1925
  0
VERTEX
  8
0
 62
     1
  6
CONTINUOUS
 10
0.9669
 20
-0.1951
  0
VERTEX
  8
0
 62
     1
  6
CONTINUOUS
 10
0.9874
 20
-0.1976
  0
VERTEX
  8
0
 62
     1
  6
CONTINUOUS
 10
1.0078
 20
-0.2000
  0
VERTEX
  8
0
 62
     1
  6
CONTINUOUS
 10
1.0308
 20
-0.2026
  0
VERTEX
  8
0
 62
     1
  6
CONTINUOUS
 10
1.0538
 20
-0.2052
  0
VERTEX
  8
0
 62
     1
  6
CONTINUOUS
 10
1.0768
 20
-0.2077
  0
VERTEX
  8
0
 62
     1
  6
CONTINUOUS
 10
1.0998
 20
-0.2101
  0
VERTEX
  8
0
 62
     1
  6
CONTINUOUS
 10
1.1229
 20
-0.2124
  0
VERTEX
  8
0
 62
     1
  6
CONTINUOUS
 10
1.1459
 20
-0.2147
  0
VERTEX
  8
0
 62
     1
  6
CONTINUOUS
 10
1.1689
 20
-0.2169
  0
VERTEX
  8
0
 62
     1
  6
CONTINUOUS
 10
1.1920
 20
-0.2191
  0
VERTEX
  8
0
 62
     1
  6
CONTINUOUS
 10
1.2150
 20
-0.2211
  0
VERTEX
  8
0
 62
     1
  6
CONTINUOUS
 10
1.2380
 20
-0.2232
  0
VERTEX
  8
0
 62
     1
  6
CONTINUOUS
 10
1.2611
 20
-0.2251
  0
VERTEX
  8
0
 62
     1
  6
CONTINUOUS
 10
1.2842
 20
-0.2270
  0
VERTEX
  8
0
 62
     1
  6
CONTINUOUS
 10
1.3096
 20
-0.2290
  0
VERTEX
  8
0
 62
     1
  6
CONTINUOUS
 10
1.3350
 20
-0.2310
  0
VERTEX
  8
0
 62
     1
  6
CONTINUOUS
 10
1.3604
 20
-0.2329
  0
VERTEX
  8
0
 62
     1
  6
CONTINUOUS
 10
1.3859
 20
-0.2347
  0
VERTEX
  8
0
 62
     1
  6
CONTINUOUS
 10
1.4113
 20
-0.2365
  0
VERTEX
  8
0
 62
     1
  6
CONTINUOUS
 10
1.4367
 20
-0.2382
  0
VERTEX
  8
0
 62
     1
  6
CONTINUOUS
 10
1.4622
 20
-0.2398
  0
VERTEX
  8
0
 62
     1
  6
CONTINUOUS
 10
1.4876
 20
-0.2414
  0
VERTEX
  8
0
 62
     1
  6
CONTINUOUS
 10
1.5131
 20
-0.2429
  0
VERTEX
  8
0
 62
     1
  6
CONTINUOUS
 10
1.5385
 20
-0.2444
  0
VERTEX
  8
0
 62
     1
  6
CONTINUOUS
 10
1.5640
 20
-0.2458
  0
VERTEX
  8
0
 62
     1
  6
CONTINUOUS
 10
1.5894
 20
-0.2471
  0
VERTEX
  8
0
 62
     1
  6
CONTINUOUS
 10
1.6171
 20
-0.2485
  0
VERTEX
  8
0
 62
     1
  6
CONTINUOUS
 10
1.6447
 20
-0.2498
  0
VERTEX
  8
0
 62
     1
  6
CONTINUOUS
 10
1.6723
 20
-0.2511
  0
VERTEX
  8
0
 62
     1
  6
CONTINUOUS
 10
1.6999
 20
-0.2523
  0
VERTEX
  8
0
 62
     1
  6
CONTINUOUS
 10
1.7276
 20
-0.2535
  0
VERTEX
  8
0
 62
     1
  6
CONTINUOUS
 10
1.7552
 20
-0.2546
  0
VERTEX
  8
0
 62
     1
  6
CONTINUOUS
 10
1.7828
 20
-0.2556
  0
VERTEX
  8
0
 62
     1
  6
CONTINUOUS
 10
1.8105
 20
-0.2566
  0
VERTEX
  8
0
 62
     1
  6
CONTINUOUS
 10
1.8381
 20
-0.2575
  0
VERTEX
  8
0
 62
     1
  6
CONTINUOUS
 10
1.8658
 20
-0.2584
  0
VERTEX
  8
0
 62
     1
  6
CONTINUOUS
 10
1.8934
 20
-0.2592
  0
VERTEX
  8
0
 62
     1
  6
CONTINUOUS
 10
1.9210
 20
-0.2600
  0
VERTEX
  8
0
 62
     1
  6
CONTINUOUS
 10
1.9506
 20
-0.2607
  0
VERTEX
  8
0
 62
     1
  6
CONTINUOUS
 10
1.9802
 20
-0.2615
  0
VERTEX
  8
0
 62
     1
  6
CONTINUOUS
 10
2.0098
 20
-0.2621
  0
VERTEX
  8
0
 62
     1
  6
CONTINUOUS
 10
2.0393
 20
-0.2627
  0
VERTEX
  8
0
 62
     1
  6
CONTINUOUS
 10
2.0689
 20
-0.2633
  0
VERTEX
  8
0
 62
     1
  6
CONTINUOUS
 10
2.0985
 20
-0.2638
  0
VERTEX
  8
0
 62
     1
  6
CONTINUOUS
 10
2.1281
 20
-0.2642
  0
VERTEX
  8
0
 62
     1
  6
CONTINUOUS
 10
2.1577
 20
-0.2646
  0
VERTEX
  8
0
 62
     1
  6
CONTINUOUS
 10
2.1873
 20
-0.2650
  0
VERTEX
  8
0
 62
     1
  6
CONTINUOUS
 10
2.2168
 20
-0.2653
  0
VERTEX
  8
0
 62
     1
  6
CONTINUOUS
 10
2.2464
 20
-0.2655
  0
VERTEX
  8
0
 62
     1
  6
CONTINUOUS
 10
2.2760
 20
-0.2657
  0
VERTEX
  8
0
 62
     1
  6
CONTINUOUS
 10
2.3073
 20
-0.2659
  0
VERTEX
  8
0
 62
     1
  6
CONTINUOUS
 10
2.3385
 20
-0.2660
  0
VERTEX
  8
0
 62
     1
  6
CONTINUOUS
 10
2.3698
 20
-0.2661
  0
VERTEX
  8
0
 62
     1
  6
CONTINUOUS
 10
2.4010
 20
-0.2662
  0
VERTEX
  8
0
 62
     1
  6
CONTINUOUS
 10
2.4323
 20
-0.2662
  0
VERTEX
  8
0
 62
     1
  6
CONTINUOUS
 10
2.4636
 20
-0.2661
  0
VERTEX
  8
0
 62
     1
  6
CONTINUOUS
 10
2.4948
 20
-0.2660
  0
VERTEX
  8
0
 62
     1
  6
CONTINUOUS
 10
2.5261
 20
-0.2659
  0
VERTEX
  8
0
 62
     1
  6
CONTINUOUS
 10
2.5573
 20
-0.2657
  0
VERTEX
  8
0
 62
     1
  6
CONTINUOUS
 10
2.5886
 20
-0.2654
  0
VERTEX
  8
0
 62
     1
  6
CONTINUOUS
 10
2.6199
 20
-0.2652
  0
VERTEX
  8
0
 62
     1
  6
CONTINUOUS
 10
2.6511
 20
-0.2649
  0
VERTEX
  8
0
 62
     1
  6
CONTINUOUS
 10
2.6837
 20
-0.2645
  0
VERTEX
  8
0
 62
     1
  6
CONTINUOUS
 10
2.7164
 20
-0.2641
  0
VERTEX
  8
0
 62
     1
  6
CONTINUOUS
 10
2.7490
 20
-0.2636
  0
VERTEX
  8
0
 62
     1
  6
CONTINUOUS
 10
2.7816
 20
-0.2631
  0
VERTEX
  8
0
 62
     1
  6
CONTINUOUS
 10
2.8142
 20
-0.2626
  0
VERTEX
  8
0
 62
     1
  6
CONTINUOUS
 10
2.8468
 20
-0.2620
  0
VERTEX
  8
0
 62
     1
  6
CONTINUOUS
 10
2.8794
 20
-0.2614
  0
VERTEX
  8
0
 62
     1
  6
CONTINUOUS
 10
2.9120
 20
-0.2607
  0
VERTEX
  8
0
 62
     1
  6
CONTINUOUS
 10
2.9447
 20
-0.2600
  0
VERTEX
  8
0
 62
     1
  6
CONTINUOUS
 10
2.9773
 20
-0.2593
  0
VERTEX
  8
0
 62
     1
  6
CONTINUOUS
 10
3.0099
 20
-0.2585
  0
VERTEX
  8
0
 62
     1
  6
CONTINUOUS
 10
3.0425
 20
-0.2577
  0
VERTEX
  8
0
 62
     1
  6
CONTINUOUS
 10
3.0761
 20
-0.2569
  0
VERTEX
  8
0
 62
     1
  6
CONTINUOUS
 10
3.1098
 20
-0.2560
  0
VERTEX
  8
0
 62
     1
  6
CONTINUOUS
 10
3.1434
 20
-0.2550
  0
VERTEX
  8
0
 62
     1
  6
CONTINUOUS
 10
3.1771
 20
-0.2540
  0
VERTEX
  8
0
 62
     1
  6
CONTINUOUS
 10
3.2107
 20
-0.2530
  0
VERTEX
  8
0
 62
     1
  6
CONTINUOUS
 10
3.2444
 20
-0.2520
  0
VERTEX
  8
0
 62
     1
  6
CONTINUOUS
 10
3.2780
 20
-0.2509
  0
VERTEX
  8
0
 62
     1
  6
CONTINUOUS
 10
3.3117
 20
-0.2498
  0
VERTEX
  8
0
 62
     1
  6
CONTINUOUS
 10
3.3453
 20
-0.2486
  0
VERTEX
  8
0
 62
     1
  6
CONTINUOUS
 10
3.3790
 20
-0.2475
  0
VERTEX
  8
0
 62
     1
  6
CONTINUOUS
 10
3.4126
 20
-0.2463
  0
VERTEX
  8
0
 62
     1
  6
CONTINUOUS
 10
3.4462
 20
-0.2450
  0
VERTEX
  8
0
 62
     1
  6
CONTINUOUS
 10
3.4806
 20
-0.2437
  0
VERTEX
  8
0
 62
     1
  6
CONTINUOUS
 10
3.5149
 20
-0.2424
  0
VERTEX
  8
0
 62
     1
  6
CONTINUOUS
 10
3.5492
 20
-0.2410
  0
VERTEX
  8
0
 62
     1
  6
CONTINUOUS
 10
3.5835
 20
-0.2396
  0
VERTEX
  8
0
 62
     1
  6
CONTINUOUS
 10
3.6179
 20
-0.2382
  0
VERTEX
  8
0
 62
     1
  6
CONTINUOUS
 10
3.6522
 20
-0.2368
  0
VERTEX
  8
0
 62
     1
  6
CONTINUOUS
 10
3.6865
 20
-0.2353
  0
VERTEX
  8
0
 62
     1
  6
CONTINUOUS
 10
3.7208
 20
-0.2338
  0
VERTEX
  8
0
 62
     1
  6
CONTINUOUS
 10
3.7551
 20
-0.2322
  0
VERTEX
  8
0
 62
     1
  6
CONTINUOUS
 10
3.7895
 20
-0.2306
  0
VERTEX
  8
0
 62
     1
  6
CONTINUOUS
 10
3.8238
 20
-0.2290
  0
VERTEX
  8
0
 62
     1
  6
CONTINUOUS
 10
3.8581
 20
-0.2274
  0
VERTEX
  8
0
 62
     1
  6
CONTINUOUS
 10
3.8927
 20
-0.2257
  0
VERTEX
  8
0
 62
     1
  6
CONTINUOUS
 10
3.9274
 20
-0.2240
  0
VERTEX
  8
0
 62
     1
  6
CONTINUOUS
 10
3.9620
 20
-0.2223
  0
VERTEX
  8
0
 62
     1
  6
CONTINUOUS
 10
3.9966
 20
-0.2205
  0
VERTEX
  8
0
 62
     1
  6
CONTINUOUS
 10
4.0313
 20
-0.2188
  0
VERTEX
  8
0
 62
     1
  6
CONTINUOUS
 10
4.0659
 20
-0.2169
  0
VERTEX
  8
0
 62
     1
  6
CONTINUOUS
 10
4.1005
 20
-0.2151
  0
VERTEX
  8
0
 62
     1
  6
CONTINUOUS
 10
4.1352
 20
-0.2132
  0
VERTEX
  8
0
 62
     1
  6
CONTINUOUS
 10
4.1698
 20
-0.2113
  0
VERTEX
  8
0
 62
     1
  6
CONTINUOUS
 10
4.2044
 20
-0.2094
  0
VERTEX
  8
0
 62
     1
  6
CONTINUOUS
 10
4.2391
 20
-0.2075
  0
VERTEX
  8
0
 62
     1
  6
CONTINUOUS
 10
4.2737
 20
-0.2055
  0
VERTEX
  8
0
 62
     1
  6
CONTINUOUS
 10
4.3082
 20
-0.2035
  0
VERTEX
  8
0
 62
     1
  6
CONTINUOUS
 10
4.3428
 20
-0.2015
  0
VERTEX
  8
0
 62
     1
  6
CONTINUOUS
 10
4.3774
 20
-0.1995
  0
VERTEX
  8
0
 62
     1
  6
CONTINUOUS
 10
4.4119
 20
-0.1974
  0
VERTEX
  8
0
 62
     1
  6
CONTINUOUS
 10
4.4465
 20
-0.1953
  0
VERTEX
  8
0
 62
     1
  6
CONTINUOUS
 10
4.4810
 20
-0.1932
  0
VERTEX
  8
0
 62
     1
  6
CONTINUOUS
 10
4.5156
 20
-0.1911
  0
VERTEX
  8
0
 62
     1
  6
CONTINUOUS
 10
4.5501
 20
-0.1889
  0
VERTEX
  8
0
 62
     1
  6
CONTINUOUS
 10
4.5847
 20
-0.1868
  0
VERTEX
  8
0
 62
     1
  6
CONTINUOUS
 10
4.6192
 20
-0.1846
  0
VERTEX
  8
0
 62
     1
  6
CONTINUOUS
 10
4.6538
 20
-0.1824
  0
VERTEX
  8
0
 62
     1
  6
CONTINUOUS
 10
4.6883
 20
-0.1801
  0
VERTEX
  8
0
 62
     1
  6
CONTINUOUS
 10
4.7224
 20
-0.1779
  0
VERTEX
  8
0
 62
     1
  6
CONTINUOUS
 10
4.7566
 20
-0.1757
  0
VERTEX
  8
0
 62
     1
  6
CONTINUOUS
 10
4.7907
 20
-0.1734
  0
VERTEX
  8
0
 62
     1
  6
CONTINUOUS
 10
4.8248
 20
-0.1711
  0
VERTEX
  8
0
 62
     1
  6
CONTINUOUS
 10
4.8589
 20
-0.1688
  0
VERTEX
  8
0
 62
     1
  6
CONTINUOUS
 10
4.8930
 20
-0.1665
  0
VERTEX
  8
0
 62
     1
  6
CONTINUOUS
 10
4.9271
 20
-0.1641
  0
VERTEX
  8
0
 62
     1
  6
CONTINUOUS
 10
4.9612
 20
-0.1618
  0
VERTEX
  8
0
 62
     1
  6
CONTINUOUS
 10
4.9954
 20
-0.1594
  0
VERTEX
  8
0
 62
     1
  6
CONTINUOUS
 10
5.0295
 20
-0.1570
  0
VERTEX
  8
0
 62
     1
  6
CONTINUOUS
 10
5.0636
 20
-0.1546
  0
VERTEX
  8
0
 62
     1
  6
CONTINUOUS
 10
5.0977
 20
-0.1521
  0
VERTEX
  8
0
 62
     1
  6
CONTINUOUS
 10
5.1310
 20
-0.1497
  0
VERTEX
  8
0
 62
     1
  6
CONTINUOUS
 10
5.1643
 20
-0.1473
  0
VERTEX
  8
0
 62
     1
  6
CONTINUOUS
 10
5.1975
 20
-0.1449
  0
VERTEX
  8
0
 62
     1
  6
CONTINUOUS
 10
5.2308
 20
-0.1425
  0
VERTEX
  8
0
 62
     1
  6
CONTINUOUS
 10
5.2641
 20
-0.1400
  0
VERTEX
  8
0
 62
     1
  6
CONTINUOUS
 10
5.2974
 20
-0.1375
  0
VERTEX
  8
0
 62
     1
  6
CONTINUOUS
 10
5.3307
 20
-0.1350
  0
VERTEX
  8
0
 62
     1
  6
CONTINUOUS
 10
5.3639
 20
-0.1325
  0
VERTEX
  8
0
 62
     1
  6
CONTINUOUS
 10
5.3972
 20
-0.1300
  0
VERTEX
  8
0
 62
     1
  6
CONTINUOUS
 10
5.4305
 20
-0.1274
  0
VERTEX
  8
0
 62
     1
  6
CONTINUOUS
 10
5.4638
 20
-0.1249
  0
VERTEX
  8
0
 62
     1
  6
CONTINUOUS
 10
5.4970
 20
-0.1223
  0
VERTEX
  8
0
 62
     1
  6
CONTINUOUS
 10
5.5291
 20
-0.1198
  0
VERTEX
  8
0
 62
     1
  6
CONTINUOUS
 10
5.5612
 20
-0.1173
  0
VERTEX
  8
0
 62
     1
  6
CONTINUOUS
 10
5.5933
 20
-0.1148
  0
VERTEX
  8
0
 62
     1
  6
CONTINUOUS
 10
5.6253
 20
-0.1122
  0
VERTEX
  8
0
 62
     1
  6
CONTINUOUS
 10
5.6574
 20
-0.1097
  0
VERTEX
  8
0
 62
     1
  6
CONTINUOUS
 10
5.6895
 20
-0.1071
  0
VERTEX
  8
0
 62
     1
  6
CONTINUOUS
 10
5.7215
 20
-0.1045
  0
VERTEX
  8
0
 62
     1
  6
CONTINUOUS
 10
5.7536
 20
-0.1019
  0
VERTEX
  8
0
 62
     1
  6
CONTINUOUS
 10
5.7857
 20
-0.0993
  0
VERTEX
  8
0
 62
     1
  6
CONTINUOUS
 10
5.8177
 20
-0.0967
  0
VERTEX
  8
0
 62
     1
  6
CONTINUOUS
 10
5.8498
 20
-0.0941
  0
VERTEX
  8
0
 62
     1
  6
CONTINUOUS
 10
5.8818
 20
-0.0914
  0
VERTEX
  8
0
 62
     1
  6
CONTINUOUS
 10
5.9123
 20
-0.0889
  0
VERTEX
  8
0
 62
     1
  6
CONTINUOUS
 10
5.9428
 20
-0.0864
  0
VERTEX
  8
0
 62
     1
  6
CONTINUOUS
 10
5.9733
 20
-0.0838
  0
VERTEX
  8
0
 62
     1
  6
CONTINUOUS
 10
6.0038
 20
-0.0813
  0
VERTEX
  8
0
 62
     1
  6
CONTINUOUS
 10
6.0343
 20
-0.0787
  0
VERTEX
  8
0
 62
     1
  6
CONTINUOUS
 10
6.0647
 20
-0.0761
  0
VERTEX
  8
0
 62
     1
  6
CONTINUOUS
 10
6.0952
 20
-0.0735
  0
VERTEX
  8
0
 62
     1
  6
CONTINUOUS
 10
6.1257
 20
-0.0709
  0
VERTEX
  8
0
 62
     1
  6
CONTINUOUS
 10
6.1562
 20
-0.0683
  0
VERTEX
  8
0
 62
     1
  6
CONTINUOUS
 10
6.1867
 20
-0.0657
  0
VERTEX
  8
0
 62
     1
  6
CONTINUOUS
 10
6.2171
 20
-0.0631
  0
VERTEX
  8
0
 62
     1
  6
CONTINUOUS
 10
6.2476
 20
-0.0605
  0
VERTEX
  8
0
 62
     1
  6
CONTINUOUS
 10
6.2761
 20
-0.0580
  0
VERTEX
  8
0
 62
     1
  6
CONTINUOUS
 10
6.3047
 20
-0.0555
  0
VERTEX
  8
0
 62
     1
  6
CONTINUOUS
 10
6.3332
 20
-0.0530
  0
VERTEX
  8
0
 62
     1
  6
CONTINUOUS
 10
6.3617
 20
-0.0505
  0
VERTEX
  8
0
 62
     1
  6
CONTINUOUS
 10
6.3903
 20
-0.0480
  0
VERTEX
  8
0
 62
     1
  6
CONTINUOUS
 10
6.4188
 20
-0.0454
  0
VERTEX
  8
0
 62
     1
  6
CONTINUOUS
 10
6.4474
 20
-0.0429
  0
VERTEX
  8
0
 62
     1
  6
CONTINUOUS
 10
6.4759
 20
-0.0404
  0
VERTEX
  8
0
 62
     1
  6
CONTINUOUS
 10
6.5044
 20
-0.0378
  0
VERTEX
  8
0
 62
     1
  6
CONTINUOUS
 10
6.5329
 20
-0.0353
  0
VERTEX
  8
0
 62
     1
  6
CONTINUOUS
 10
6.5615
 20
-0.0327
  0
VERTEX
  8
0
 62
     1
  6
CONTINUOUS
 10
6.5900
 20
-0.0301
  0
VERTEX
  8
0
 62
     1
  6
CONTINUOUS
 10
6.6162
 20
-0.0278
  0
VERTEX
  8
0
 62
     1
  6
CONTINUOUS
 10
6.6425
 20
-0.0254
  0
VERTEX
  8
0
 62
     1
  6
CONTINUOUS
 10
6.6687
 20
-0.0230
  0
VERTEX
  8
0
 62
     1
  6
CONTINUOUS
 10
6.6949
 20
-0.0206
  0
VERTEX
  8
0
 62
     1
  6
CONTINUOUS
 10
6.7211
 20
-0.0183
  0
VERTEX
  8
0
 62
     1
  6
CONTINUOUS
 10
6.7474
 20
-0.0159
  0
VERTEX
  8
0
 62
     1
  6
CONTINUOUS
 10
6.7736
 20
-0.0135
  0
VERTEX
  8
0
 62
     1
  6
CONTINUOUS
 10
6.7998
 20
-0.0110
  0
VERTEX
  8
0
 62
     1
  6
CONTINUOUS
 10
6.8261
 20
-0.0086
  0
VERTEX
  8
0
 62
     1
  6
CONTINUOUS
 10
6.8523
 20
-0.0062
  0
VERTEX
  8
0
 62
     1
  6
CONTINUOUS
 10
6.8785
 20
-0.0038
  0
VERTEX
  8
0
 62
     1
  6
CONTINUOUS
 10
6.9047
 20
-0.0013
  0
VERTEX
  8
0
 62
     1
  6
CONTINUOUS
 10
6.9283
 20
0.0009
  0
VERTEX
  8
0
 62
     1
  6
CONTINUOUS
 10
6.9519
 20
0.0031
  0
VERTEX
  8
0
 62
     1
  6
CONTINUOUS
 10
6.9755
 20
0.0053
  0
VERTEX
  8
0
 62
     1
  6
CONTINUOUS
 10
6.9991
 20
0.0075
  0
VERTEX
  8
0
 62
     1
  6
CONTINUOUS
 10
7.0227
 20
0.0097
  0
VERTEX
  8
0
 62
     1
  6
CONTINUOUS
 10
7.0463
 20
0.0120
  0
VERTEX
  8
0
 62
     1
  6
CONTINUOUS
 10
7.0699
 20
0.0142
  0
VERTEX
  8
0
 62
     1
  6
CONTINUOUS
 10
7.0935
 20
0.0164
  0
VERTEX
  8
0
 62
     1
  6
CONTINUOUS
 10
7.1171
 20
0.0187
  0
VERTEX
  8
0
 62
     1
  6
CONTINUOUS
 10
7.1407
 20
0.0209
  0
VERTEX
  8
0
 62
     1
  6
CONTINUOUS
 10
7.1642
 20
0.0231
  0
VERTEX
  8
0
 62
     1
  6
CONTINUOUS
 10
7.1878
 20
0.0254
  0
VERTEX
  8
0
 62
     1
  6
CONTINUOUS
 10
7.2258
 20
0.0290
  0
VERTEX
  8
0
 62
     1
  6
CONTINUOUS
 10
7.2638
 20
0.0326
  0
VERTEX
  8
0
 62
     1
  6
CONTINUOUS
 10
7.3018
 20
0.0362
  0
VERTEX
  8
0
 62
     1
  6
CONTINUOUS
 10
7.3398
 20
0.0398
  0
VERTEX
  8
0
 62
     1
  6
CONTINUOUS
 10
7.3778
 20
0.0435
  0
VERTEX
  8
0
 62
     1
  6
CONTINUOUS
 10
7.4158
 20
0.0472
  0
VERTEX
  8
0
 62
     1
  6
CONTINUOUS
 10
7.4538
 20
0.0509
  0
VERTEX
  8
0
 62
     1
  6
CONTINUOUS
 10
7.4918
 20
0.0546
  0
VERTEX
  8
0
 62
     1
  6
CONTINUOUS
 10
7.5297
 20
0.0585
  0
VERTEX
  8
0
 62
     1
  6
CONTINUOUS
 10
7.5677
 20
0.0623
  0
SEQEND
  8
0
  0
POLYLINE
  8
0
 62
     1
 66
     1
  6
CONTINUOUS
  0
VERTEX
  8
0
 62
     1
  6
CONTINUOUS
 10
7.5677
 20
0.0623
  0
VERTEX
  8
0
 62
     1
  6
CONTINUOUS
 10
7.6057
 20
0.0663
  0
VERTEX
  8
0
 62
     1
  6
CONTINUOUS
 10
7.6436
 20
0.0703
  0
VERTEX
  8
0
 62
     1
  6
CONTINUOUS
 10
7.6575
 20
0.0718
  0
VERTEX
  8
0
 62
     1
  6
CONTINUOUS
 10
7.6714
 20
0.0733
  0
VERTEX
  8
0
 62
     1
  6
CONTINUOUS
 10
7.6853
 20
0.0748
  0
VERTEX
  8
0
 62
     1
  6
CONTINUOUS
 10
7.6993
 20
0.0763
  0
VERTEX
  8
0
 62
     1
  6
CONTINUOUS
 10
7.7132
 20
0.0778
  0
VERTEX
  8
0
 62
     1
  6
CONTINUOUS
 10
7.7271
 20
0.0794
  0
VERTEX
  8
0
 62
     1
  6
CONTINUOUS
 10
7.7410
 20
0.0810
  0
VERTEX
  8
0
 62
     1
  6
CONTINUOUS
 10
7.7549
 20
0.0825
  0
VERTEX
  8
0
 62
     1
  6
CONTINUOUS
 10
7.7688
 20
0.0841
  0
VERTEX
  8
0
 62
     1
  6
CONTINUOUS
 10
7.7827
 20
0.0858
  0
VERTEX
  8
0
 62
     1
  6
CONTINUOUS
 10
7.7966
 20
0.0874
  0
VERTEX
  8
0
 62
     1
  6
CONTINUOUS
 10
7.8105
 20
0.0891
  0
VERTEX
  8
0
 62
     1
  6
CONTINUOUS
 10
7.8208
 20
0.0903
  0
VERTEX
  8
0
 62
     1
  6
CONTINUOUS
 10
7.8312
 20
0.0916
  0
VERTEX
  8
0
 62
     1
  6
CONTINUOUS
 10
7.8416
 20
0.0928
  0
VERTEX
  8
0
 62
     1
  6
CONTINUOUS
 10
7.8519
 20
0.0941
  0
VERTEX
  8
0
 62
     1
  6
CONTINUOUS
 10
7.8623
 20
0.0954
  0
VERTEX
  8
0
 62
     1
  6
CONTINUOUS
 10
7.8727
 20
0.0966
  0
VERTEX
  8
0
 62
     1
  6
CONTINUOUS
 10
7.8830
 20
0.0979
  0
VERTEX
  8
0
 62
     1
  6
CONTINUOUS
 10
7.8934
 20
0.0991
  0
VERTEX
  8
0
 62
     1
  6
CONTINUOUS
 10
7.9038
 20
0.1004
  0
VERTEX
  8
0
 62
     1
  6
CONTINUOUS
 10
7.9141
 20
0.1016
  0
VERTEX
  8
0
 62
     1
  6
CONTINUOUS
 10
7.9245
 20
0.1028
  0
VERTEX
  8
0
 62
     1
  6
CONTINUOUS
 10
7.9349
 20
0.1039
  0
VERTEX
  8
0
 62
     1
  6
CONTINUOUS
 10
7.9437
 20
0.1049
  0
VERTEX
  8
0
 62
     1
  6
CONTINUOUS
 10
7.9525
 20
0.1059
  0
VERTEX
  8
0
 62
     1
  6
CONTINUOUS
 10
7.9612
 20
0.1068
  0
VERTEX
  8
0
 62
     1
  6
CONTINUOUS
 10
7.9700
 20
0.1077
  0
VERTEX
  8
0
 62
     1
  6
CONTINUOUS
 10
7.9788
 20
0.1087
  0
VERTEX
  8
0
 62
     1
  6
CONTINUOUS
 10
7.9876
 20
0.1096
  0
VERTEX
  8
0
 62
     1
  6
CONTINUOUS
 10
7.9964
 20
0.1104
  0
VERTEX
  8
0
 62
     1
  6
CONTINUOUS
 10
8.0052
 20
0.1113
  0
VERTEX
  8
0
 62
     1
  6
CONTINUOUS
 10
8.0140
 20
0.1122
  0
VERTEX
  8
0
 62
     1
  6
CONTINUOUS
 10
8.0228
 20
0.1131
  0
VERTEX
  8
0
 62
     1
  6
CONTINUOUS
 10
8.0316
 20
0.1140
  0
VERTEX
  8
0
 62
     1
  6
CONTINUOUS
 10
8.0404
 20
0.1148
  0
SEQEND
  8
0
  0
ENDSEC
  0
EOF
