  0
SECTION
  2
HEADER
  9
$ACADVER
  1
AC1004
  9
$EXTMIN
 10
0.0505
 20
-0.4917
  9
$EXTMAX
 10
10.0550
 20
5.2680
  9
$LIMMIN
 10
0.0505
 20
-0.4917
  9
$LIMMAX
 10
10.0550
 20
5.2680
  9
$INSBASE
 10
0.0
 20
0.0
  9
$VIEWCTR
 10
7.21903
 20
4.5
  9
$VIEWSIZE
 40
9.0
  9
$SNAPMODE
 70
     0
  9
$SNAPUNIT
 10
1.0
 20
1.0
  9
$SNAPBASE
 10
0.0
 20
0.0
  9
$SNAPANG
 50
0.0
  9
$SNAPSTYLE
 70
     0
  9
$SNAPISOPAIR
 70
     0
  9
$GRIDMODE
 70
     0
  9
$GRIDUNIT
 10
0.0
 20
0.0
  9
$ORTHOMODE
 70
     0
  9
$REGENMODE
 70
     1
  9
$FILLMODE
 70
     1
  9
$QTEXTMODE
 70
     0
  9
$DRAGMODE
 70
     2
  9
$LTSCALE
 40
1.0
  9
$OSMODE
 70
     0
  9
$ATTMODE
 70
     1
  9
$TEXTSIZE
 40
0.2
  9
$TRACEWID
 40
0.05
  9
$TEXTSTYLE
  7
STANDARD
  9
$CLAYER
  8
0
  9
$CELTYPE
  6
BYLAYER
  9
$CECOLOR
 62
   256
  9
$DIMSCALE
 40
1.0
  9
$DIMASZ
 40
0.18
  9
$DIMEXO
 40
0.0625
  9
$DIMDLI
 40
0.38
  9
$DIMRND
 40
0.0
  9
$DIMDLE
 40
0.0
  9
$DIMEXE
 40
0.18
  9
$DIMTP
 40
0.0
  9
$DIMTM
 40
0.0
  9
$DIMTXT
 40
0.18
  9
$DIMCEN
 40
0.09
  9
$DIMTSZ
 40
0.0
  9
$DIMTOL
 70
     0
  9
$DIMLIM
 70
     0
  9
$DIMTIH
 70
     1
  9
$DIMTOH
 70
     1
  9
$DIMSE1
 70
     0
  9
$DIMSE2
 70
     0
  9
$DIMTAD
 70
     0
  9
$DIMZIN
 70
     0
  9
$DIMBLK
  1

  9
$DIMASO
 70
     1
  9
$DIMSHO
 70
     0
  9
$DIMPOST
  1

  9
$DIMAPOST
  1

  9
$DIMALT
 70
     0
  9
$DIMALTD
 70
     2
  9
$DIMALTF
 40
25.4
  9
$DIMLFAC
 40
1.0
  9
$LUNITS
 70
     2
  9
$LUPREC
 70
     4
  9
$AXISMODE
 70
     0
  9
$AXISUNIT
 10
0.0
 20
0.0
  9
$SKETCHINC
 40
0.1
  9
$FILLETRAD
 40
0.0
  9
$AUNITS
 70
     0
  9
$AUPREC
 70
     0
  9
$MENU
  1
acad
  9
$ELEVATION
 40
0.0
  9
$THICKNESS
 40
0.0
  9
$VIEWDIR
 10
0.0
 20
0.0
 30
1.0
  9
$LIMCHECK
 70
     0
  9
$BLIPMODE
 70
     1
  9
$CHAMFERA
 40
0.0
  9
$CHAMFERB
 40
0.0
  9
$FASTZOOM
 70
     1
  9
$SKPOLY
 70
     0
  9
$TDCREATE
 40
2447222.5666886573
  9
$TDUPDATE
 40
2447222.5666886573
  9
$TDINDWG
 40
0.0000000000
  9
$TDUSRTIMER
 40
0.0000000000
  9
$USRTIMER
 70
     1
  9
$ANGBASE
 50
0.0
  9
$ANGDIR
 70
     0
  9
$PDMODE
 70
     0
  9
$PDSIZE
 40
0.0
  9
$PLINEWID
 40
0.0
  9
$COORDS
 70
     0
  9
$SPLFRAME
 70
     0
  9
$SPLINESEGS
 70
     8
  9
$ATTDIA
 70
     0
  9
$ATTREQ
 70
     1
  9
$USERI1
 70
     0
  9
$USERI2
 70
     0
  9
$USERI3
 70
     0
  9
$USERI4
 70
     0
  9
$USERI5
 70
     0
  9
$USERR1
 40
0.0
  9
$USERR2
 40
0.0
  9
$USERR3
 40
0.0
  9
$USERR4
 40
0.0
  9
$USERR5
 40
0.0
  0
ENDSEC
  0
SECTION
  2
TABLES
  0
TABLE
  2
LTYPE
 70
     13
  0
LTYPE
  2
CONTINUOUS
 70
    64
  3
Solid line
 72
    65
 73
     0
 40
0.0
  0
LTYPE
  2
DASHED
 70
    64
  3
__ __ __ __ __ __ __ __ __ __ __ __ __ __ __
 72
    65
 73
     2
 40
0.75
 49
0.5
 49
-0.25
  0
LTYPE
  2
HIDDEN
 70
    64
  3
_ _ _ _ _ _ _ _ _ _ _ _ _ _ _ _ _ _ _ _ _ _ _
 72
    65
 73
     2
 40
0.375
 49
0.25
 49
-0.125
  0
LTYPE
  2
CENTER
 70
    64
  3
____ _ ____ _ ____ _ ____ _ ____ _ ____ _ ____
 72
    65
 73
     4
 40
2.0
 49
1.25
 49
-0.25
 49
0.25
 49
-0.25
  0
LTYPE
  2
PHANTOM
 70
    64
  3
_____ _ _ _____ _ _ _____ _ _ _____ _ _ ____
 72
    65
 73
     6
 40
2.5
 49
1.25
 49
-0.25
 49
0.25
 49
-0.25
 49
0.25
 49
-0.25
  0
LTYPE
  2
DOT
 70
    64
  3
...............................................
 72
    65
 73
     2
 40
0.25
 49
0.0
 49
-0.25
  0
LTYPE
  2
DASHDOT
 70
    64
  3
__ . __ . __ . __ . __ . __ . __ . __ . __ . __
 72
    65
 73
     4
 40
1.0
 49
0.5
 49
-0.25
 49
0.0
 49
-0.25
  0
LTYPE
  2
BORDER
 70
    64
  3
__ __ . __ __ . __ __ . __ __ . __ __ . __ __
 72
    65
 73
     6
 40
1.75
 49
0.5
 49
-0.25
 49
0.5
 49
-0.25
 49
0.0
 49
-0.25
  0
LTYPE
  2
DIVIDE
 70
    64
  3
__ . . __ . . __ . . __ . . __ . . __ . . __
 72
    65
 73
     6
 40
1.25
 49
0.5
 49
-0.25
 49
0.0
 49
-0.25
 49
0.0
 49
-0.25
  0
LTYPE
  2
DCTYPE1
 70
    64
  3
__ . . __ . . __ . . __ . . __ . . __ . . __
 72
    65
 73
     8
 40
2.5
 49
0.5
 49
-0.25
 49
0.125
 49
-0.25
 49
0.25
 49
-0.25
 49
0.125
 49
-0.25
  0
LTYPE
  2
DCTYPE2
 70
    64
  3
__ . . __ . . __ . . __ . . __ . . __ . . __
 72
    65
 73
     6
 40
2.05
 49
1.0
 49
-0.3
 49
0.15
 49
-0.15
 49
0.15
 49
-0.3
  0
LTYPE
  2
DCTYPE3
 70
    64
  3
__ . . __ . . __ . . __ . . __ . . __ . . __
 72
    65
 73
     6
 40
2.5
 49
0.8
 49
-0.2
 49
0.8
 49
-0.2
 49
0.3
 49
-0.2
  0
LTYPE
  2
DCTYPE4
 70
    64
  3
__ . . __ . . __ . . __ . . __ . . __ . . __
 72
    65
 73
     10
 40
3.97
 49
1.75
 49
-0.3
 49
0.3
 49
-0.3
 49
0.06
 49
-0.3
 49
0.06
 49
-0.3
 49
0.3
 49
-0.3
  0
ENDTAB
  0
TABLE
  2
LAYER
 70
    153
  0
LAYER
  2
0
 70
 64
 62
     7
  6
CONTINUOUS
  0
ENDTAB
  0
ENDSEC
  0
SECTION
  2
BLOCKS
  0
ENDSEC
  0
SECTION
  2
ENTITIES
  0
TEXT
  8
0
 62
     7
 10
0.0505
 20
4.0501
 40
1.0149
 50
0.0000
 51
0.0000
  1
EPPLER 230
 72
     5
 11
10.0550
 21
4.0501
  0
POLYLINE
  8
0
 62
     3
 66
     1
  6
CONTINUOUS
  0
VERTEX
  8
0
 62
     3
  6
CONTINUOUS
 10
0.0505
 20
0.0483
  0
VERTEX
  8
0
 62
     3
  6
CONTINUOUS
 10
0.0512
 20
0.0513
  0
VERTEX
  8
0
 62
     3
  6
CONTINUOUS
 10
0.0519
 20
0.0544
  0
VERTEX
  8
0
 62
     3
  6
CONTINUOUS
 10
0.0527
 20
0.0574
  0
VERTEX
  8
0
 62
     3
  6
CONTINUOUS
 10
0.0534
 20
0.0604
  0
VERTEX
  8
0
 62
     3
  6
CONTINUOUS
 10
0.0542
 20
0.0634
  0
VERTEX
  8
0
 62
     3
  6
CONTINUOUS
 10
0.0550
 20
0.0663
  0
VERTEX
  8
0
 62
     3
  6
CONTINUOUS
 10
0.0559
 20
0.0693
  0
VERTEX
  8
0
 62
     3
  6
CONTINUOUS
 10
0.0568
 20
0.0722
  0
VERTEX
  8
0
 62
     3
  6
CONTINUOUS
 10
0.0578
 20
0.0751
  0
VERTEX
  8
0
 62
     3
  6
CONTINUOUS
 10
0.0589
 20
0.0779
  0
VERTEX
  8
0
 62
     3
  6
CONTINUOUS
 10
0.0600
 20
0.0807
  0
VERTEX
  8
0
 62
     3
  6
CONTINUOUS
 10
0.0612
 20
0.0834
  0
VERTEX
  8
0
 62
     3
  6
CONTINUOUS
 10
0.0646
 20
0.0899
  0
VERTEX
  8
0
 62
     3
  6
CONTINUOUS
 10
0.0685
 20
0.0960
  0
VERTEX
  8
0
 62
     3
  6
CONTINUOUS
 10
0.0728
 20
0.1019
  0
VERTEX
  8
0
 62
     3
  6
CONTINUOUS
 10
0.0776
 20
0.1075
  0
VERTEX
  8
0
 62
     3
  6
CONTINUOUS
 10
0.0827
 20
0.1129
  0
VERTEX
  8
0
 62
     3
  6
CONTINUOUS
 10
0.0882
 20
0.1181
  0
VERTEX
  8
0
 62
     3
  6
CONTINUOUS
 10
0.0939
 20
0.1231
  0
VERTEX
  8
0
 62
     3
  6
CONTINUOUS
 10
0.0998
 20
0.1279
  0
VERTEX
  8
0
 62
     3
  6
CONTINUOUS
 10
0.1060
 20
0.1326
  0
VERTEX
  8
0
 62
     3
  6
CONTINUOUS
 10
0.1122
 20
0.1371
  0
VERTEX
  8
0
 62
     3
  6
CONTINUOUS
 10
0.1186
 20
0.1415
  0
VERTEX
  8
0
 62
     3
  6
CONTINUOUS
 10
0.1250
 20
0.1458
  0
VERTEX
  8
0
 62
     3
  6
CONTINUOUS
 10
0.1341
 20
0.1520
  0
VERTEX
  8
0
 62
     3
  6
CONTINUOUS
 10
0.1433
 20
0.1579
  0
VERTEX
  8
0
 62
     3
  6
CONTINUOUS
 10
0.1525
 20
0.1637
  0
VERTEX
  8
0
 62
     3
  6
CONTINUOUS
 10
0.1616
 20
0.1694
  0
VERTEX
  8
0
 62
     3
  6
CONTINUOUS
 10
0.1708
 20
0.1750
  0
VERTEX
  8
0
 62
     3
  6
CONTINUOUS
 10
0.1800
 20
0.1804
  0
VERTEX
  8
0
 62
     3
  6
CONTINUOUS
 10
0.1892
 20
0.1857
  0
VERTEX
  8
0
 62
     3
  6
CONTINUOUS
 10
0.1984
 20
0.1909
  0
VERTEX
  8
0
 62
     3
  6
CONTINUOUS
 10
0.2077
 20
0.1959
  0
VERTEX
  8
0
 62
     3
  6
CONTINUOUS
 10
0.2170
 20
0.2009
  0
VERTEX
  8
0
 62
     3
  6
CONTINUOUS
 10
0.2264
 20
0.2057
  0
VERTEX
  8
0
 62
     3
  6
CONTINUOUS
 10
0.2359
 20
0.2104
  0
VERTEX
  8
0
 62
     3
  6
CONTINUOUS
 10
0.2485
 20
0.2164
  0
VERTEX
  8
0
 62
     3
  6
CONTINUOUS
 10
0.2612
 20
0.2222
  0
VERTEX
  8
0
 62
     3
  6
CONTINUOUS
 10
0.2740
 20
0.2279
  0
VERTEX
  8
0
 62
     3
  6
CONTINUOUS
 10
0.2870
 20
0.2334
  0
VERTEX
  8
0
 62
     3
  6
CONTINUOUS
 10
0.3000
 20
0.2388
  0
VERTEX
  8
0
 62
     3
  6
CONTINUOUS
 10
0.3131
 20
0.2440
  0
VERTEX
  8
0
 62
     3
  6
CONTINUOUS
 10
0.3263
 20
0.2490
  0
VERTEX
  8
0
 62
     3
  6
CONTINUOUS
 10
0.3396
 20
0.2540
  0
VERTEX
  8
0
 62
     3
  6
CONTINUOUS
 10
0.3529
 20
0.2588
  0
VERTEX
  8
0
 62
     3
  6
CONTINUOUS
 10
0.3663
 20
0.2634
  0
VERTEX
  8
0
 62
     3
  6
CONTINUOUS
 10
0.3797
 20
0.2680
  0
VERTEX
  8
0
 62
     3
  6
CONTINUOUS
 10
0.3931
 20
0.2725
  0
VERTEX
  8
0
 62
     3
  6
CONTINUOUS
 10
0.4098
 20
0.2780
  0
VERTEX
  8
0
 62
     3
  6
CONTINUOUS
 10
0.4266
 20
0.2833
  0
VERTEX
  8
0
 62
     3
  6
CONTINUOUS
 10
0.4434
 20
0.2885
  0
VERTEX
  8
0
 62
     3
  6
CONTINUOUS
 10
0.4602
 20
0.2935
  0
VERTEX
  8
0
 62
     3
  6
CONTINUOUS
 10
0.4771
 20
0.2984
  0
VERTEX
  8
0
 62
     3
  6
CONTINUOUS
 10
0.4939
 20
0.3033
  0
VERTEX
  8
0
 62
     3
  6
CONTINUOUS
 10
0.5108
 20
0.3080
  0
VERTEX
  8
0
 62
     3
  6
CONTINUOUS
 10
0.5277
 20
0.3125
  0
VERTEX
  8
0
 62
     3
  6
CONTINUOUS
 10
0.5447
 20
0.3170
  0
VERTEX
  8
0
 62
     3
  6
CONTINUOUS
 10
0.5617
 20
0.3214
  0
VERTEX
  8
0
 62
     3
  6
CONTINUOUS
 10
0.5786
 20
0.3257
  0
VERTEX
  8
0
 62
     3
  6
CONTINUOUS
 10
0.5957
 20
0.3298
  0
VERTEX
  8
0
 62
     3
  6
CONTINUOUS
 10
0.6161
 20
0.3347
  0
VERTEX
  8
0
 62
     3
  6
CONTINUOUS
 10
0.6365
 20
0.3394
  0
VERTEX
  8
0
 62
     3
  6
CONTINUOUS
 10
0.6570
 20
0.3441
  0
VERTEX
  8
0
 62
     3
  6
CONTINUOUS
 10
0.6775
 20
0.3486
  0
VERTEX
  8
0
 62
     3
  6
CONTINUOUS
 10
0.6980
 20
0.3530
  0
VERTEX
  8
0
 62
     3
  6
CONTINUOUS
 10
0.7185
 20
0.3572
  0
VERTEX
  8
0
 62
     3
  6
CONTINUOUS
 10
0.7391
 20
0.3614
  0
VERTEX
  8
0
 62
     3
  6
CONTINUOUS
 10
0.7597
 20
0.3655
  0
VERTEX
  8
0
 62
     3
  6
CONTINUOUS
 10
0.7803
 20
0.3694
  0
VERTEX
  8
0
 62
     3
  6
CONTINUOUS
 10
0.8010
 20
0.3733
  0
VERTEX
  8
0
 62
     3
  6
CONTINUOUS
 10
0.8216
 20
0.3771
  0
VERTEX
  8
0
 62
     3
  6
CONTINUOUS
 10
0.8423
 20
0.3808
  0
VERTEX
  8
0
 62
     3
  6
CONTINUOUS
 10
0.8663
 20
0.3849
  0
VERTEX
  8
0
 62
     3
  6
CONTINUOUS
 10
0.8903
 20
0.3890
  0
VERTEX
  8
0
 62
     3
  6
CONTINUOUS
 10
0.9143
 20
0.3929
  0
VERTEX
  8
0
 62
     3
  6
CONTINUOUS
 10
0.9383
 20
0.3968
  0
VERTEX
  8
0
 62
     3
  6
CONTINUOUS
 10
0.9624
 20
0.4005
  0
VERTEX
  8
0
 62
     3
  6
CONTINUOUS
 10
0.9865
 20
0.4042
  0
VERTEX
  8
0
 62
     3
  6
CONTINUOUS
 10
1.0105
 20
0.4078
  0
VERTEX
  8
0
 62
     3
  6
CONTINUOUS
 10
1.0346
 20
0.4112
  0
VERTEX
  8
0
 62
     3
  6
CONTINUOUS
 10
1.0587
 20
0.4146
  0
VERTEX
  8
0
 62
     3
  6
CONTINUOUS
 10
1.0828
 20
0.4179
  0
VERTEX
  8
0
 62
     3
  6
CONTINUOUS
 10
1.1070
 20
0.4211
  0
VERTEX
  8
0
 62
     3
  6
CONTINUOUS
 10
1.1311
 20
0.4242
  0
VERTEX
  8
0
 62
     3
  6
CONTINUOUS
 10
1.1584
 20
0.4276
  0
VERTEX
  8
0
 62
     3
  6
CONTINUOUS
 10
1.1858
 20
0.4309
  0
VERTEX
  8
0
 62
     3
  6
CONTINUOUS
 10
1.2131
 20
0.4341
  0
VERTEX
  8
0
 62
     3
  6
CONTINUOUS
 10
1.2405
 20
0.4373
  0
VERTEX
  8
0
 62
     3
  6
CONTINUOUS
 10
1.2678
 20
0.4403
  0
VERTEX
  8
0
 62
     3
  6
CONTINUOUS
 10
1.2952
 20
0.4432
  0
VERTEX
  8
0
 62
     3
  6
CONTINUOUS
 10
1.3226
 20
0.4461
  0
VERTEX
  8
0
 62
     3
  6
CONTINUOUS
 10
1.3500
 20
0.4488
  0
VERTEX
  8
0
 62
     3
  6
CONTINUOUS
 10
1.3774
 20
0.4515
  0
VERTEX
  8
0
 62
     3
  6
CONTINUOUS
 10
1.4048
 20
0.4541
  0
VERTEX
  8
0
 62
     3
  6
CONTINUOUS
 10
1.4322
 20
0.4566
  0
VERTEX
  8
0
 62
     3
  6
CONTINUOUS
 10
1.4597
 20
0.4591
  0
VERTEX
  8
0
 62
     3
  6
CONTINUOUS
 10
1.4901
 20
0.4617
  0
VERTEX
  8
0
 62
     3
  6
CONTINUOUS
 10
1.5205
 20
0.4642
  0
VERTEX
  8
0
 62
     3
  6
CONTINUOUS
 10
1.5510
 20
0.4667
  0
VERTEX
  8
0
 62
     3
  6
CONTINUOUS
 10
1.5815
 20
0.4691
  0
VERTEX
  8
0
 62
     3
  6
CONTINUOUS
 10
1.6119
 20
0.4713
  0
VERTEX
  8
0
 62
     3
  6
CONTINUOUS
 10
1.6424
 20
0.4735
  0
VERTEX
  8
0
 62
     3
  6
CONTINUOUS
 10
1.6729
 20
0.4756
  0
VERTEX
  8
0
 62
     3
  6
CONTINUOUS
 10
1.7033
 20
0.4777
  0
VERTEX
  8
0
 62
     3
  6
CONTINUOUS
 10
1.7338
 20
0.4796
  0
VERTEX
  8
0
 62
     3
  6
CONTINUOUS
 10
1.7643
 20
0.4815
  0
VERTEX
  8
0
 62
     3
  6
CONTINUOUS
 10
1.7948
 20
0.4833
  0
VERTEX
  8
0
 62
     3
  6
CONTINUOUS
 10
1.8253
 20
0.4850
  0
VERTEX
  8
0
 62
     3
  6
CONTINUOUS
 10
1.8586
 20
0.4868
  0
VERTEX
  8
0
 62
     3
  6
CONTINUOUS
 10
1.8919
 20
0.4885
  0
VERTEX
  8
0
 62
     3
  6
CONTINUOUS
 10
1.9251
 20
0.4901
  0
VERTEX
  8
0
 62
     3
  6
CONTINUOUS
 10
1.9584
 20
0.4917
  0
VERTEX
  8
0
 62
     3
  6
CONTINUOUS
 10
1.9917
 20
0.4931
  0
VERTEX
  8
0
 62
     3
  6
CONTINUOUS
 10
2.0250
 20
0.4945
  0
VERTEX
  8
0
 62
     3
  6
CONTINUOUS
 10
2.0583
 20
0.4958
  0
VERTEX
  8
0
 62
     3
  6
CONTINUOUS
 10
2.0916
 20
0.4971
  0
VERTEX
  8
0
 62
     3
  6
CONTINUOUS
 10
2.1249
 20
0.4982
  0
VERTEX
  8
0
 62
     3
  6
CONTINUOUS
 10
2.1582
 20
0.4993
  0
VERTEX
  8
0
 62
     3
  6
CONTINUOUS
 10
2.1915
 20
0.5004
  0
VERTEX
  8
0
 62
     3
  6
CONTINUOUS
 10
2.2248
 20
0.5013
  0
VERTEX
  8
0
 62
     3
  6
CONTINUOUS
 10
2.2606
 20
0.5023
  0
VERTEX
  8
0
 62
     3
  6
CONTINUOUS
 10
2.2965
 20
0.5031
  0
VERTEX
  8
0
 62
     3
  6
CONTINUOUS
 10
2.3323
 20
0.5039
  0
VERTEX
  8
0
 62
     3
  6
CONTINUOUS
 10
2.3681
 20
0.5046
  0
VERTEX
  8
0
 62
     3
  6
CONTINUOUS
 10
2.4040
 20
0.5053
  0
VERTEX
  8
0
 62
     3
  6
CONTINUOUS
 10
2.4398
 20
0.5059
  0
VERTEX
  8
0
 62
     3
  6
CONTINUOUS
 10
2.4757
 20
0.5064
  0
VERTEX
  8
0
 62
     3
  6
CONTINUOUS
 10
2.5115
 20
0.5068
  0
VERTEX
  8
0
 62
     3
  6
CONTINUOUS
 10
2.5474
 20
0.5072
  0
VERTEX
  8
0
 62
     3
  6
CONTINUOUS
 10
2.5832
 20
0.5075
  0
VERTEX
  8
0
 62
     3
  6
CONTINUOUS
 10
2.6190
 20
0.5077
  0
VERTEX
  8
0
 62
     3
  6
CONTINUOUS
 10
2.6549
 20
0.5079
  0
VERTEX
  8
0
 62
     3
  6
CONTINUOUS
 10
2.6930
 20
0.5080
  0
VERTEX
  8
0
 62
     3
  6
CONTINUOUS
 10
2.7310
 20
0.5081
  0
VERTEX
  8
0
 62
     3
  6
CONTINUOUS
 10
2.7691
 20
0.5081
  0
VERTEX
  8
0
 62
     3
  6
CONTINUOUS
 10
2.8071
 20
0.5080
  0
VERTEX
  8
0
 62
     3
  6
CONTINUOUS
 10
2.8452
 20
0.5079
  0
VERTEX
  8
0
 62
     3
  6
CONTINUOUS
 10
2.8833
 20
0.5077
  0
VERTEX
  8
0
 62
     3
  6
CONTINUOUS
 10
2.9213
 20
0.5074
  0
VERTEX
  8
0
 62
     3
  6
CONTINUOUS
 10
2.9594
 20
0.5070
  0
VERTEX
  8
0
 62
     3
  6
CONTINUOUS
 10
2.9974
 20
0.5067
  0
VERTEX
  8
0
 62
     3
  6
CONTINUOUS
 10
3.0355
 20
0.5062
  0
VERTEX
  8
0
 62
     3
  6
CONTINUOUS
 10
3.0735
 20
0.5057
  0
VERTEX
  8
0
 62
     3
  6
CONTINUOUS
 10
3.1116
 20
0.5051
  0
VERTEX
  8
0
 62
     3
  6
CONTINUOUS
 10
3.1515
 20
0.5044
  0
VERTEX
  8
0
 62
     3
  6
CONTINUOUS
 10
3.1915
 20
0.5037
  0
VERTEX
  8
0
 62
     3
  6
CONTINUOUS
 10
3.2314
 20
0.5029
  0
VERTEX
  8
0
 62
     3
  6
CONTINUOUS
 10
3.2714
 20
0.5021
  0
VERTEX
  8
0
 62
     3
  6
CONTINUOUS
 10
3.3113
 20
0.5012
  0
VERTEX
  8
0
 62
     3
  6
CONTINUOUS
 10
3.3512
 20
0.5002
  0
VERTEX
  8
0
 62
     3
  6
CONTINUOUS
 10
3.3912
 20
0.4992
  0
VERTEX
  8
0
 62
     3
  6
CONTINUOUS
 10
3.4311
 20
0.4981
  0
VERTEX
  8
0
 62
     3
  6
CONTINUOUS
 10
3.4710
 20
0.4969
  0
VERTEX
  8
0
 62
     3
  6
CONTINUOUS
 10
3.5110
 20
0.4957
  0
VERTEX
  8
0
 62
     3
  6
CONTINUOUS
 10
3.5509
 20
0.4945
  0
VERTEX
  8
0
 62
     3
  6
CONTINUOUS
 10
3.5908
 20
0.4932
  0
VERTEX
  8
0
 62
     3
  6
CONTINUOUS
 10
3.6322
 20
0.4918
  0
VERTEX
  8
0
 62
     3
  6
CONTINUOUS
 10
3.6737
 20
0.4903
  0
VERTEX
  8
0
 62
     3
  6
CONTINUOUS
 10
3.7151
 20
0.4888
  0
VERTEX
  8
0
 62
     3
  6
CONTINUOUS
 10
3.7565
 20
0.4873
  0
VERTEX
  8
0
 62
     3
  6
CONTINUOUS
 10
3.7979
 20
0.4857
  0
VERTEX
  8
0
 62
     3
  6
CONTINUOUS
 10
3.8394
 20
0.4840
  0
VERTEX
  8
0
 62
     3
  6
CONTINUOUS
 10
3.8808
 20
0.4823
  0
VERTEX
  8
0
 62
     3
  6
CONTINUOUS
 10
3.9222
 20
0.4805
  0
VERTEX
  8
0
 62
     3
  6
CONTINUOUS
 10
3.9636
 20
0.4787
  0
VERTEX
  8
0
 62
     3
  6
CONTINUOUS
 10
4.0050
 20
0.4769
  0
VERTEX
  8
0
 62
     3
  6
CONTINUOUS
 10
4.0464
 20
0.4749
  0
VERTEX
  8
0
 62
     3
  6
CONTINUOUS
 10
4.0878
 20
0.4730
  0
VERTEX
  8
0
 62
     3
  6
CONTINUOUS
 10
4.1304
 20
0.4709
  0
VERTEX
  8
0
 62
     3
  6
CONTINUOUS
 10
4.1729
 20
0.4688
  0
VERTEX
  8
0
 62
     3
  6
CONTINUOUS
 10
4.2154
 20
0.4667
  0
VERTEX
  8
0
 62
     3
  6
CONTINUOUS
 10
4.2579
 20
0.4645
  0
VERTEX
  8
0
 62
     3
  6
CONTINUOUS
 10
4.3005
 20
0.4622
  0
VERTEX
  8
0
 62
     3
  6
CONTINUOUS
 10
4.3430
 20
0.4599
  0
VERTEX
  8
0
 62
     3
  6
CONTINUOUS
 10
4.3855
 20
0.4576
  0
VERTEX
  8
0
 62
     3
  6
CONTINUOUS
 10
4.4280
 20
0.4552
  0
VERTEX
  8
0
 62
     3
  6
CONTINUOUS
 10
4.4705
 20
0.4528
  0
VERTEX
  8
0
 62
     3
  6
CONTINUOUS
 10
4.5130
 20
0.4503
  0
VERTEX
  8
0
 62
     3
  6
CONTINUOUS
 10
4.5556
 20
0.4478
  0
VERTEX
  8
0
 62
     3
  6
CONTINUOUS
 10
4.5981
 20
0.4453
  0
VERTEX
  8
0
 62
     3
  6
CONTINUOUS
 10
4.6413
 20
0.4426
  0
VERTEX
  8
0
 62
     3
  6
CONTINUOUS
 10
4.6844
 20
0.4400
  0
VERTEX
  8
0
 62
     3
  6
CONTINUOUS
 10
4.7276
 20
0.4373
  0
VERTEX
  8
0
 62
     3
  6
CONTINUOUS
 10
4.7708
 20
0.4345
  0
VERTEX
  8
0
 62
     3
  6
CONTINUOUS
 10
4.8140
 20
0.4317
  0
VERTEX
  8
0
 62
     3
  6
CONTINUOUS
 10
4.8572
 20
0.4289
  0
VERTEX
  8
0
 62
     3
  6
CONTINUOUS
 10
4.9003
 20
0.4260
  0
VERTEX
  8
0
 62
     3
  6
CONTINUOUS
 10
4.9435
 20
0.4231
  0
VERTEX
  8
0
 62
     3
  6
CONTINUOUS
 10
4.9867
 20
0.4202
  0
VERTEX
  8
0
 62
     3
  6
CONTINUOUS
 10
5.0299
 20
0.4172
  0
VERTEX
  8
0
 62
     3
  6
CONTINUOUS
 10
5.0730
 20
0.4142
  0
VERTEX
  8
0
 62
     3
  6
CONTINUOUS
 10
5.1162
 20
0.4112
  0
VERTEX
  8
0
 62
     3
  6
CONTINUOUS
 10
5.1596
 20
0.4081
  0
VERTEX
  8
0
 62
     3
  6
CONTINUOUS
 10
5.2030
 20
0.4049
  0
VERTEX
  8
0
 62
     3
  6
CONTINUOUS
 10
5.2464
 20
0.4018
  0
VERTEX
  8
0
 62
     3
  6
CONTINUOUS
 10
5.2898
 20
0.3986
  0
VERTEX
  8
0
 62
     3
  6
CONTINUOUS
 10
5.3332
 20
0.3954
  0
VERTEX
  8
0
 62
     3
  6
CONTINUOUS
 10
5.3767
 20
0.3921
  0
VERTEX
  8
0
 62
     3
  6
CONTINUOUS
 10
5.4201
 20
0.3888
  0
VERTEX
  8
0
 62
     3
  6
CONTINUOUS
 10
5.4635
 20
0.3855
  0
VERTEX
  8
0
 62
     3
  6
CONTINUOUS
 10
5.5068
 20
0.3822
  0
VERTEX
  8
0
 62
     3
  6
CONTINUOUS
 10
5.5502
 20
0.3788
  0
VERTEX
  8
0
 62
     3
  6
CONTINUOUS
 10
5.5936
 20
0.3754
  0
VERTEX
  8
0
 62
     3
  6
CONTINUOUS
 10
5.6370
 20
0.3719
  0
VERTEX
  8
0
 62
     3
  6
CONTINUOUS
 10
5.6802
 20
0.3685
  0
VERTEX
  8
0
 62
     3
  6
CONTINUOUS
 10
5.7234
 20
0.3650
  0
VERTEX
  8
0
 62
     3
  6
CONTINUOUS
 10
5.7666
 20
0.3615
  0
VERTEX
  8
0
 62
     3
  6
CONTINUOUS
 10
5.8098
 20
0.3580
  0
VERTEX
  8
0
 62
     3
  6
CONTINUOUS
 10
5.8530
 20
0.3545
  0
VERTEX
  8
0
 62
     3
  6
CONTINUOUS
 10
5.8961
 20
0.3509
  0
VERTEX
  8
0
 62
     3
  6
CONTINUOUS
 10
5.9393
 20
0.3473
  0
VERTEX
  8
0
 62
     3
  6
CONTINUOUS
 10
5.9825
 20
0.3437
  0
VERTEX
  8
0
 62
     3
  6
CONTINUOUS
 10
6.0257
 20
0.3401
  0
VERTEX
  8
0
 62
     3
  6
CONTINUOUS
 10
6.0688
 20
0.3364
  0
VERTEX
  8
0
 62
     3
  6
CONTINUOUS
 10
6.1120
 20
0.3327
  0
VERTEX
  8
0
 62
     3
  6
CONTINUOUS
 10
6.1552
 20
0.3290
  0
VERTEX
  8
0
 62
     3
  6
CONTINUOUS
 10
6.1976
 20
0.3254
  0
VERTEX
  8
0
 62
     3
  6
CONTINUOUS
 10
6.2401
 20
0.3217
  0
VERTEX
  8
0
 62
     3
  6
CONTINUOUS
 10
6.2826
 20
0.3180
  0
VERTEX
  8
0
 62
     3
  6
CONTINUOUS
 10
6.3251
 20
0.3142
  0
VERTEX
  8
0
 62
     3
  6
CONTINUOUS
 10
6.3675
 20
0.3105
  0
VERTEX
  8
0
 62
     3
  6
CONTINUOUS
 10
6.4100
 20
0.3067
  0
VERTEX
  8
0
 62
     3
  6
CONTINUOUS
 10
6.4525
 20
0.3029
  0
VERTEX
  8
0
 62
     3
  6
CONTINUOUS
 10
6.4949
 20
0.2991
  0
VERTEX
  8
0
 62
     3
  6
CONTINUOUS
 10
6.5374
 20
0.2953
  0
VERTEX
  8
0
 62
     3
  6
CONTINUOUS
 10
6.5799
 20
0.2915
  0
VERTEX
  8
0
 62
     3
  6
CONTINUOUS
 10
6.6223
 20
0.2877
  0
VERTEX
  8
0
 62
     3
  6
CONTINUOUS
 10
6.6648
 20
0.2838
  0
VERTEX
  8
0
 62
     3
  6
CONTINUOUS
 10
6.7061
 20
0.2800
  0
VERTEX
  8
0
 62
     3
  6
CONTINUOUS
 10
6.7474
 20
0.2763
  0
VERTEX
  8
0
 62
     3
  6
CONTINUOUS
 10
6.7887
 20
0.2725
  0
VERTEX
  8
0
 62
     3
  6
CONTINUOUS
 10
6.8300
 20
0.2687
  0
VERTEX
  8
0
 62
     3
  6
CONTINUOUS
 10
6.8713
 20
0.2649
  0
VERTEX
  8
0
 62
     3
  6
CONTINUOUS
 10
6.9126
 20
0.2611
  0
VERTEX
  8
0
 62
     3
  6
CONTINUOUS
 10
6.9539
 20
0.2572
  0
VERTEX
  8
0
 62
     3
  6
CONTINUOUS
 10
6.9952
 20
0.2534
  0
VERTEX
  8
0
 62
     3
  6
CONTINUOUS
 10
7.0365
 20
0.2496
  0
VERTEX
  8
0
 62
     3
  6
CONTINUOUS
 10
7.0778
 20
0.2457
  0
VERTEX
  8
0
 62
     3
  6
CONTINUOUS
 10
7.1191
 20
0.2419
  0
VERTEX
  8
0
 62
     3
  6
CONTINUOUS
 10
7.1604
 20
0.2380
  0
VERTEX
  8
0
 62
     3
  6
CONTINUOUS
 10
7.2001
 20
0.2343
  0
VERTEX
  8
0
 62
     3
  6
CONTINUOUS
 10
7.2397
 20
0.2305
  0
VERTEX
  8
0
 62
     3
  6
CONTINUOUS
 10
7.2794
 20
0.2268
  0
VERTEX
  8
0
 62
     3
  6
CONTINUOUS
 10
7.3191
 20
0.2231
  0
VERTEX
  8
0
 62
     3
  6
CONTINUOUS
 10
7.3587
 20
0.2194
  0
VERTEX
  8
0
 62
     3
  6
CONTINUOUS
 10
7.3984
 20
0.2156
  0
VERTEX
  8
0
 62
     3
  6
CONTINUOUS
 10
7.4381
 20
0.2119
  0
VERTEX
  8
0
 62
     3
  6
CONTINUOUS
 10
7.4778
 20
0.2082
  0
VERTEX
  8
0
 62
     3
  6
CONTINUOUS
 10
7.5174
 20
0.2044
  0
VERTEX
  8
0
 62
     3
  6
CONTINUOUS
 10
7.5571
 20
0.2007
  0
VERTEX
  8
0
 62
     3
  6
CONTINUOUS
 10
7.5968
 20
0.1970
  0
VERTEX
  8
0
 62
     3
  6
CONTINUOUS
 10
7.6364
 20
0.1933
  0
VERTEX
  8
0
 62
     3
  6
CONTINUOUS
 10
7.6740
 20
0.1898
  0
VERTEX
  8
0
 62
     3
  6
CONTINUOUS
 10
7.7115
 20
0.1862
  0
VERTEX
  8
0
 62
     3
  6
CONTINUOUS
 10
7.7490
 20
0.1827
  0
VERTEX
  8
0
 62
     3
  6
CONTINUOUS
 10
7.7865
 20
0.1792
  0
VERTEX
  8
0
 62
     3
  6
CONTINUOUS
 10
7.8241
 20
0.1758
  0
VERTEX
  8
0
 62
     3
  6
CONTINUOUS
 10
7.8616
 20
0.1723
  0
VERTEX
  8
0
 62
     3
  6
CONTINUOUS
 10
7.8991
 20
0.1688
  0
VERTEX
  8
0
 62
     3
  6
CONTINUOUS
 10
7.9367
 20
0.1653
  0
VERTEX
  8
0
 62
     3
  6
CONTINUOUS
 10
7.9742
 20
0.1619
  0
VERTEX
  8
0
 62
     3
  6
CONTINUOUS
 10
8.0118
 20
0.1584
  0
VERTEX
  8
0
 62
     3
  6
CONTINUOUS
 10
8.0493
 20
0.1550
  0
VERTEX
  8
0
 62
     3
  6
CONTINUOUS
 10
8.0868
 20
0.1515
  0
VERTEX
  8
0
 62
     3
  6
CONTINUOUS
 10
8.1217
 20
0.1484
  0
VERTEX
  8
0
 62
     3
  6
CONTINUOUS
 10
8.1566
 20
0.1452
  0
VERTEX
  8
0
 62
     3
  6
CONTINUOUS
 10
8.1916
 20
0.1420
  0
VERTEX
  8
0
 62
     3
  6
CONTINUOUS
 10
8.2265
 20
0.1389
  0
VERTEX
  8
0
 62
     3
  6
CONTINUOUS
 10
8.2614
 20
0.1358
  0
VERTEX
  8
0
 62
     3
  6
CONTINUOUS
 10
8.2963
 20
0.1326
  0
VERTEX
  8
0
 62
     3
  6
CONTINUOUS
 10
8.3312
 20
0.1295
  0
VERTEX
  8
0
 62
     3
  6
CONTINUOUS
 10
8.3661
 20
0.1265
  0
VERTEX
  8
0
 62
     3
  6
CONTINUOUS
 10
8.4010
 20
0.1234
  0
VERTEX
  8
0
 62
     3
  6
CONTINUOUS
 10
8.4360
 20
0.1204
  0
VERTEX
  8
0
 62
     3
  6
CONTINUOUS
 10
8.4709
 20
0.1173
  0
VERTEX
  8
0
 62
     3
  6
CONTINUOUS
 10
8.5058
 20
0.1143
  0
VERTEX
  8
0
 62
     3
  6
CONTINUOUS
 10
8.5376
 20
0.1116
  0
VERTEX
  8
0
 62
     3
  6
CONTINUOUS
 10
8.5694
 20
0.1089
  0
VERTEX
  8
0
 62
     3
  6
CONTINUOUS
 10
8.6012
 20
0.1063
  0
VERTEX
  8
0
 62
     3
  6
CONTINUOUS
 10
8.6330
 20
0.1036
  0
VERTEX
  8
0
 62
     3
  6
CONTINUOUS
 10
8.6648
 20
0.1010
  0
VERTEX
  8
0
 62
     3
  6
CONTINUOUS
 10
8.6966
 20
0.0984
  0
VERTEX
  8
0
 62
     3
  6
CONTINUOUS
 10
8.7284
 20
0.0958
  0
VERTEX
  8
0
 62
     3
  6
CONTINUOUS
 10
8.7602
 20
0.0933
  0
VERTEX
  8
0
 62
     3
  6
CONTINUOUS
 10
8.7920
 20
0.0908
  0
VERTEX
  8
0
 62
     3
  6
CONTINUOUS
 10
8.8239
 20
0.0883
  0
VERTEX
  8
0
 62
     3
  6
CONTINUOUS
 10
8.8557
 20
0.0858
  0
VERTEX
  8
0
 62
     3
  6
CONTINUOUS
 10
8.8875
 20
0.0834
  0
VERTEX
  8
0
 62
     3
  6
CONTINUOUS
 10
8.9157
 20
0.0813
  0
VERTEX
  8
0
 62
     3
  6
CONTINUOUS
 10
8.9439
 20
0.0792
  0
VERTEX
  8
0
 62
     3
  6
CONTINUOUS
 10
8.9721
 20
0.0771
  0
VERTEX
  8
0
 62
     3
  6
CONTINUOUS
 10
9.0003
 20
0.0751
  0
VERTEX
  8
0
 62
     3
  6
CONTINUOUS
 10
9.0285
 20
0.0731
  0
VERTEX
  8
0
 62
     3
  6
CONTINUOUS
 10
9.0567
 20
0.0711
  0
VERTEX
  8
0
 62
     3
  6
CONTINUOUS
 10
9.0849
 20
0.0692
  0
VERTEX
  8
0
 62
     3
  6
CONTINUOUS
 10
9.1131
 20
0.0672
  0
VERTEX
  8
0
 62
     3
  6
CONTINUOUS
 10
9.1413
 20
0.0654
  0
VERTEX
  8
0
 62
     3
  6
CONTINUOUS
 10
9.1695
 20
0.0635
  0
SEQEND
  8
0
  0
POLYLINE
  8
0
 62
     3
 66
     1
  6
CONTINUOUS
  0
VERTEX
  8
0
 62
     3
  6
CONTINUOUS
 10
9.1695
 20
0.0635
  0
VERTEX
  8
0
 62
     3
  6
CONTINUOUS
 10
9.1977
 20
0.0618
  0
VERTEX
  8
0
 62
     3
  6
CONTINUOUS
 10
9.2259
 20
0.0600
  0
VERTEX
  8
0
 62
     3
  6
CONTINUOUS
 10
9.2500
 20
0.0586
  0
VERTEX
  8
0
 62
     3
  6
CONTINUOUS
 10
9.2741
 20
0.0571
  0
VERTEX
  8
0
 62
     3
  6
CONTINUOUS
 10
9.2982
 20
0.0558
  0
VERTEX
  8
0
 62
     3
  6
CONTINUOUS
 10
9.3223
 20
0.0544
  0
VERTEX
  8
0
 62
     3
  6
CONTINUOUS
 10
9.3464
 20
0.0531
  0
VERTEX
  8
0
 62
     3
  6
CONTINUOUS
 10
9.3706
 20
0.0519
  0
VERTEX
  8
0
 62
     3
  6
CONTINUOUS
 10
9.3947
 20
0.0507
  0
VERTEX
  8
0
 62
     3
  6
CONTINUOUS
 10
9.4188
 20
0.0495
  0
VERTEX
  8
0
 62
     3
  6
CONTINUOUS
 10
9.4429
 20
0.0484
  0
VERTEX
  8
0
 62
     3
  6
CONTINUOUS
 10
9.4670
 20
0.0474
  0
VERTEX
  8
0
 62
     3
  6
CONTINUOUS
 10
9.4911
 20
0.0464
  0
VERTEX
  8
0
 62
     3
  6
CONTINUOUS
 10
9.5153
 20
0.0455
  0
VERTEX
  8
0
 62
     3
  6
CONTINUOUS
 10
9.5347
 20
0.0448
  0
VERTEX
  8
0
 62
     3
  6
CONTINUOUS
 10
9.5541
 20
0.0442
  0
VERTEX
  8
0
 62
     3
  6
CONTINUOUS
 10
9.5735
 20
0.0436
  0
VERTEX
  8
0
 62
     3
  6
CONTINUOUS
 10
9.5929
 20
0.0430
  0
VERTEX
  8
0
 62
     3
  6
CONTINUOUS
 10
9.6124
 20
0.0425
  0
VERTEX
  8
0
 62
     3
  6
CONTINUOUS
 10
9.6318
 20
0.0421
  0
VERTEX
  8
0
 62
     3
  6
CONTINUOUS
 10
9.6512
 20
0.0417
  0
VERTEX
  8
0
 62
     3
  6
CONTINUOUS
 10
9.6706
 20
0.0413
  0
VERTEX
  8
0
 62
     3
  6
CONTINUOUS
 10
9.6901
 20
0.0411
  0
VERTEX
  8
0
 62
     3
  6
CONTINUOUS
 10
9.7095
 20
0.0408
  0
VERTEX
  8
0
 62
     3
  6
CONTINUOUS
 10
9.7289
 20
0.0406
  0
VERTEX
  8
0
 62
     3
  6
CONTINUOUS
 10
9.7484
 20
0.0405
  0
VERTEX
  8
0
 62
     3
  6
CONTINUOUS
 10
9.7625
 20
0.0404
  0
VERTEX
  8
0
 62
     3
  6
CONTINUOUS
 10
9.7767
 20
0.0404
  0
VERTEX
  8
0
 62
     3
  6
CONTINUOUS
 10
9.7908
 20
0.0404
  0
VERTEX
  8
0
 62
     3
  6
CONTINUOUS
 10
9.8050
 20
0.0405
  0
VERTEX
  8
0
 62
     3
  6
CONTINUOUS
 10
9.8191
 20
0.0406
  0
VERTEX
  8
0
 62
     3
  6
CONTINUOUS
 10
9.8333
 20
0.0407
  0
VERTEX
  8
0
 62
     3
  6
CONTINUOUS
 10
9.8474
 20
0.0409
  0
VERTEX
  8
0
 62
     3
  6
CONTINUOUS
 10
9.8616
 20
0.0411
  0
VERTEX
  8
0
 62
     3
  6
CONTINUOUS
 10
9.8757
 20
0.0413
  0
VERTEX
  8
0
 62
     3
  6
CONTINUOUS
 10
9.8899
 20
0.0416
  0
VERTEX
  8
0
 62
     3
  6
CONTINUOUS
 10
9.9040
 20
0.0420
  0
VERTEX
  8
0
 62
     3
  6
CONTINUOUS
 10
9.9181
 20
0.0424
  0
VERTEX
  8
0
 62
     3
  6
CONTINUOUS
 10
9.9296
 20
0.0428
  0
VERTEX
  8
0
 62
     3
  6
CONTINUOUS
 10
9.9410
 20
0.0432
  0
VERTEX
  8
0
 62
     3
  6
CONTINUOUS
 10
9.9524
 20
0.0436
  0
VERTEX
  8
0
 62
     3
  6
CONTINUOUS
 10
9.9638
 20
0.0441
  0
VERTEX
  8
0
 62
     3
  6
CONTINUOUS
 10
9.9752
 20
0.0445
  0
VERTEX
  8
0
 62
     3
  6
CONTINUOUS
 10
9.9866
 20
0.0450
  0
VERTEX
  8
0
 62
     3
  6
CONTINUOUS
 10
9.9980
 20
0.0456
  0
VERTEX
  8
0
 62
     3
  6
CONTINUOUS
 10
10.0094
 20
0.0461
  0
VERTEX
  8
0
 62
     3
  6
CONTINUOUS
 10
10.0208
 20
0.0466
  0
VERTEX
  8
0
 62
     3
  6
CONTINUOUS
 10
10.0322
 20
0.0472
  0
VERTEX
  8
0
 62
     3
  6
CONTINUOUS
 10
10.0436
 20
0.0477
  0
VERTEX
  8
0
 62
     3
  6
CONTINUOUS
 10
10.0550
 20
0.0483
  0
SEQEND
  8
0
  0
POLYLINE
  8
0
 62
     1
 66
     1
  6
CONTINUOUS
  0
VERTEX
  8
0
 62
     1
  6
CONTINUOUS
 10
0.0505
 20
0.0483
  0
VERTEX
  8
0
 62
     1
  6
CONTINUOUS
 10
0.0508
 20
0.0463
  0
VERTEX
  8
0
 62
     1
  6
CONTINUOUS
 10
0.0511
 20
0.0443
  0
VERTEX
  8
0
 62
     1
  6
CONTINUOUS
 10
0.0514
 20
0.0423
  0
VERTEX
  8
0
 62
     1
  6
CONTINUOUS
 10
0.0517
 20
0.0403
  0
VERTEX
  8
0
 62
     1
  6
CONTINUOUS
 10
0.0520
 20
0.0383
  0
VERTEX
  8
0
 62
     1
  6
CONTINUOUS
 10
0.0523
 20
0.0364
  0
VERTEX
  8
0
 62
     1
  6
CONTINUOUS
 10
0.0527
 20
0.0344
  0
VERTEX
  8
0
 62
     1
  6
CONTINUOUS
 10
0.0531
 20
0.0324
  0
VERTEX
  8
0
 62
     1
  6
CONTINUOUS
 10
0.0535
 20
0.0305
  0
VERTEX
  8
0
 62
     1
  6
CONTINUOUS
 10
0.0540
 20
0.0286
  0
VERTEX
  8
0
 62
     1
  6
CONTINUOUS
 10
0.0545
 20
0.0267
  0
VERTEX
  8
0
 62
     1
  6
CONTINUOUS
 10
0.0550
 20
0.0248
  0
VERTEX
  8
0
 62
     1
  6
CONTINUOUS
 10
0.0573
 20
0.0186
  0
VERTEX
  8
0
 62
     1
  6
CONTINUOUS
 10
0.0601
 20
0.0126
  0
VERTEX
  8
0
 62
     1
  6
CONTINUOUS
 10
0.0634
 20
0.0068
  0
VERTEX
  8
0
 62
     1
  6
CONTINUOUS
 10
0.0671
 20
0.0012
  0
VERTEX
  8
0
 62
     1
  6
CONTINUOUS
 10
0.0713
 20
-0.0041
  0
VERTEX
  8
0
 62
     1
  6
CONTINUOUS
 10
0.0758
 20
-0.0093
  0
VERTEX
  8
0
 62
     1
  6
CONTINUOUS
 10
0.0806
 20
-0.0144
  0
VERTEX
  8
0
 62
     1
  6
CONTINUOUS
 10
0.0856
 20
-0.0192
  0
VERTEX
  8
0
 62
     1
  6
CONTINUOUS
 10
0.0908
 20
-0.0240
  0
VERTEX
  8
0
 62
     1
  6
CONTINUOUS
 10
0.0962
 20
-0.0286
  0
VERTEX
  8
0
 62
     1
  6
CONTINUOUS
 10
0.1016
 20
-0.0331
  0
VERTEX
  8
0
 62
     1
  6
CONTINUOUS
 10
0.1072
 20
-0.0375
  0
VERTEX
  8
0
 62
     1
  6
CONTINUOUS
 10
0.1154
 20
-0.0440
  0
VERTEX
  8
0
 62
     1
  6
CONTINUOUS
 10
0.1236
 20
-0.0502
  0
VERTEX
  8
0
 62
     1
  6
CONTINUOUS
 10
0.1318
 20
-0.0563
  0
VERTEX
  8
0
 62
     1
  6
CONTINUOUS
 10
0.1400
 20
-0.0623
  0
VERTEX
  8
0
 62
     1
  6
CONTINUOUS
 10
0.1483
 20
-0.0681
  0
VERTEX
  8
0
 62
     1
  6
CONTINUOUS
 10
0.1565
 20
-0.0738
  0
VERTEX
  8
0
 62
     1
  6
CONTINUOUS
 10
0.1649
 20
-0.0793
  0
VERTEX
  8
0
 62
     1
  6
CONTINUOUS
 10
0.1732
 20
-0.0847
  0
VERTEX
  8
0
 62
     1
  6
CONTINUOUS
 10
0.1817
 20
-0.0900
  0
VERTEX
  8
0
 62
     1
  6
CONTINUOUS
 10
0.1901
 20
-0.0952
  0
VERTEX
  8
0
 62
     1
  6
CONTINUOUS
 10
0.1987
 20
-0.1002
  0
VERTEX
  8
0
 62
     1
  6
CONTINUOUS
 10
0.2073
 20
-0.1052
  0
VERTEX
  8
0
 62
     1
  6
CONTINUOUS
 10
0.2189
 20
-0.1116
  0
VERTEX
  8
0
 62
     1
  6
CONTINUOUS
 10
0.2307
 20
-0.1179
  0
VERTEX
  8
0
 62
     1
  6
CONTINUOUS
 10
0.2426
 20
-0.1240
  0
VERTEX
  8
0
 62
     1
  6
CONTINUOUS
 10
0.2546
 20
-0.1300
  0
VERTEX
  8
0
 62
     1
  6
CONTINUOUS
 10
0.2667
 20
-0.1358
  0
VERTEX
  8
0
 62
     1
  6
CONTINUOUS
 10
0.2789
 20
-0.1415
  0
VERTEX
  8
0
 62
     1
  6
CONTINUOUS
 10
0.2912
 20
-0.1470
  0
VERTEX
  8
0
 62
     1
  6
CONTINUOUS
 10
0.3035
 20
-0.1524
  0
VERTEX
  8
0
 62
     1
  6
CONTINUOUS
 10
0.3159
 20
-0.1577
  0
VERTEX
  8
0
 62
     1
  6
CONTINUOUS
 10
0.3284
 20
-0.1629
  0
VERTEX
  8
0
 62
     1
  6
CONTINUOUS
 10
0.3409
 20
-0.1680
  0
VERTEX
  8
0
 62
     1
  6
CONTINUOUS
 10
0.3535
 20
-0.1730
  0
VERTEX
  8
0
 62
     1
  6
CONTINUOUS
 10
0.3692
 20
-0.1791
  0
VERTEX
  8
0
 62
     1
  6
CONTINUOUS
 10
0.3850
 20
-0.1851
  0
VERTEX
  8
0
 62
     1
  6
CONTINUOUS
 10
0.4008
 20
-0.1909
  0
VERTEX
  8
0
 62
     1
  6
CONTINUOUS
 10
0.4166
 20
-0.1966
  0
VERTEX
  8
0
 62
     1
  6
CONTINUOUS
 10
0.4325
 20
-0.2022
  0
VERTEX
  8
0
 62
     1
  6
CONTINUOUS
 10
0.4484
 20
-0.2076
  0
VERTEX
  8
0
 62
     1
  6
CONTINUOUS
 10
0.4643
 20
-0.2129
  0
VERTEX
  8
0
 62
     1
  6
CONTINUOUS
 10
0.4803
 20
-0.2181
  0
VERTEX
  8
0
 62
     1
  6
CONTINUOUS
 10
0.4963
 20
-0.2232
  0
VERTEX
  8
0
 62
     1
  6
CONTINUOUS
 10
0.5123
 20
-0.2282
  0
VERTEX
  8
0
 62
     1
  6
CONTINUOUS
 10
0.5284
 20
-0.2331
  0
VERTEX
  8
0
 62
     1
  6
CONTINUOUS
 10
0.5444
 20
-0.2379
  0
VERTEX
  8
0
 62
     1
  6
CONTINUOUS
 10
0.5638
 20
-0.2436
  0
VERTEX
  8
0
 62
     1
  6
CONTINUOUS
 10
0.5832
 20
-0.2491
  0
VERTEX
  8
0
 62
     1
  6
CONTINUOUS
 10
0.6027
 20
-0.2544
  0
VERTEX
  8
0
 62
     1
  6
CONTINUOUS
 10
0.6222
 20
-0.2597
  0
VERTEX
  8
0
 62
     1
  6
CONTINUOUS
 10
0.6417
 20
-0.2648
  0
VERTEX
  8
0
 62
     1
  6
CONTINUOUS
 10
0.6612
 20
-0.2699
  0
VERTEX
  8
0
 62
     1
  6
CONTINUOUS
 10
0.6808
 20
-0.2748
  0
VERTEX
  8
0
 62
     1
  6
CONTINUOUS
 10
0.7004
 20
-0.2796
  0
VERTEX
  8
0
 62
     1
  6
CONTINUOUS
 10
0.7201
 20
-0.2843
  0
VERTEX
  8
0
 62
     1
  6
CONTINUOUS
 10
0.7398
 20
-0.2889
  0
VERTEX
  8
0
 62
     1
  6
CONTINUOUS
 10
0.7594
 20
-0.2934
  0
VERTEX
  8
0
 62
     1
  6
CONTINUOUS
 10
0.7792
 20
-0.2979
  0
VERTEX
  8
0
 62
     1
  6
CONTINUOUS
 10
0.8021
 20
-0.3029
  0
VERTEX
  8
0
 62
     1
  6
CONTINUOUS
 10
0.8251
 20
-0.3078
  0
VERTEX
  8
0
 62
     1
  6
CONTINUOUS
 10
0.8480
 20
-0.3126
  0
VERTEX
  8
0
 62
     1
  6
CONTINUOUS
 10
0.8711
 20
-0.3173
  0
VERTEX
  8
0
 62
     1
  6
CONTINUOUS
 10
0.8941
 20
-0.3219
  0
VERTEX
  8
0
 62
     1
  6
CONTINUOUS
 10
0.9171
 20
-0.3264
  0
VERTEX
  8
0
 62
     1
  6
CONTINUOUS
 10
0.9402
 20
-0.3308
  0
VERTEX
  8
0
 62
     1
  6
CONTINUOUS
 10
0.9633
 20
-0.3351
  0
VERTEX
  8
0
 62
     1
  6
CONTINUOUS
 10
0.9864
 20
-0.3393
  0
VERTEX
  8
0
 62
     1
  6
CONTINUOUS
 10
1.0095
 20
-0.3434
  0
VERTEX
  8
0
 62
     1
  6
CONTINUOUS
 10
1.0326
 20
-0.3474
  0
VERTEX
  8
0
 62
     1
  6
CONTINUOUS
 10
1.0558
 20
-0.3513
  0
VERTEX
  8
0
 62
     1
  6
CONTINUOUS
 10
1.0821
 20
-0.3556
  0
VERTEX
  8
0
 62
     1
  6
CONTINUOUS
 10
1.1084
 20
-0.3598
  0
VERTEX
  8
0
 62
     1
  6
CONTINUOUS
 10
1.1347
 20
-0.3640
  0
VERTEX
  8
0
 62
     1
  6
CONTINUOUS
 10
1.1611
 20
-0.3680
  0
VERTEX
  8
0
 62
     1
  6
CONTINUOUS
 10
1.1875
 20
-0.3719
  0
VERTEX
  8
0
 62
     1
  6
CONTINUOUS
 10
1.2138
 20
-0.3757
  0
VERTEX
  8
0
 62
     1
  6
CONTINUOUS
 10
1.2402
 20
-0.3795
  0
VERTEX
  8
0
 62
     1
  6
CONTINUOUS
 10
1.2667
 20
-0.3831
  0
VERTEX
  8
0
 62
     1
  6
CONTINUOUS
 10
1.2931
 20
-0.3867
  0
VERTEX
  8
0
 62
     1
  6
CONTINUOUS
 10
1.3195
 20
-0.3901
  0
VERTEX
  8
0
 62
     1
  6
CONTINUOUS
 10
1.3460
 20
-0.3935
  0
VERTEX
  8
0
 62
     1
  6
CONTINUOUS
 10
1.3724
 20
-0.3968
  0
VERTEX
  8
0
 62
     1
  6
CONTINUOUS
 10
1.4019
 20
-0.4004
  0
VERTEX
  8
0
 62
     1
  6
CONTINUOUS
 10
1.4314
 20
-0.4039
  0
VERTEX
  8
0
 62
     1
  6
CONTINUOUS
 10
1.4608
 20
-0.4072
  0
VERTEX
  8
0
 62
     1
  6
CONTINUOUS
 10
1.4903
 20
-0.4105
  0
VERTEX
  8
0
 62
     1
  6
CONTINUOUS
 10
1.5198
 20
-0.4137
  0
VERTEX
  8
0
 62
     1
  6
CONTINUOUS
 10
1.5493
 20
-0.4169
  0
VERTEX
  8
0
 62
     1
  6
CONTINUOUS
 10
1.5789
 20
-0.4199
  0
VERTEX
  8
0
 62
     1
  6
CONTINUOUS
 10
1.6084
 20
-0.4228
  0
VERTEX
  8
0
 62
     1
  6
CONTINUOUS
 10
1.6379
 20
-0.4257
  0
VERTEX
  8
0
 62
     1
  6
CONTINUOUS
 10
1.6675
 20
-0.4285
  0
VERTEX
  8
0
 62
     1
  6
CONTINUOUS
 10
1.6970
 20
-0.4312
  0
VERTEX
  8
0
 62
     1
  6
CONTINUOUS
 10
1.7266
 20
-0.4338
  0
VERTEX
  8
0
 62
     1
  6
CONTINUOUS
 10
1.7589
 20
-0.4366
  0
VERTEX
  8
0
 62
     1
  6
CONTINUOUS
 10
1.7913
 20
-0.4393
  0
VERTEX
  8
0
 62
     1
  6
CONTINUOUS
 10
1.8237
 20
-0.4419
  0
VERTEX
  8
0
 62
     1
  6
CONTINUOUS
 10
1.8561
 20
-0.4445
  0
VERTEX
  8
0
 62
     1
  6
CONTINUOUS
 10
1.8885
 20
-0.4469
  0
VERTEX
  8
0
 62
     1
  6
CONTINUOUS
 10
1.9209
 20
-0.4493
  0
VERTEX
  8
0
 62
     1
  6
CONTINUOUS
 10
1.9533
 20
-0.4516
  0
VERTEX
  8
0
 62
     1
  6
CONTINUOUS
 10
1.9857
 20
-0.4538
  0
VERTEX
  8
0
 62
     1
  6
CONTINUOUS
 10
2.0181
 20
-0.4559
  0
VERTEX
  8
0
 62
     1
  6
CONTINUOUS
 10
2.0505
 20
-0.4579
  0
VERTEX
  8
0
 62
     1
  6
CONTINUOUS
 10
2.0829
 20
-0.4599
  0
VERTEX
  8
0
 62
     1
  6
CONTINUOUS
 10
2.1154
 20
-0.4618
  0
VERTEX
  8
0
 62
     1
  6
CONTINUOUS
 10
2.1503
 20
-0.4638
  0
VERTEX
  8
0
 62
     1
  6
CONTINUOUS
 10
2.1853
 20
-0.4657
  0
VERTEX
  8
0
 62
     1
  6
CONTINUOUS
 10
2.2203
 20
-0.4675
  0
VERTEX
  8
0
 62
     1
  6
CONTINUOUS
 10
2.2553
 20
-0.4693
  0
VERTEX
  8
0
 62
     1
  6
CONTINUOUS
 10
2.2903
 20
-0.4709
  0
VERTEX
  8
0
 62
     1
  6
CONTINUOUS
 10
2.3253
 20
-0.4725
  0
VERTEX
  8
0
 62
     1
  6
CONTINUOUS
 10
2.3603
 20
-0.4740
  0
VERTEX
  8
0
 62
     1
  6
CONTINUOUS
 10
2.3954
 20
-0.4755
  0
VERTEX
  8
0
 62
     1
  6
CONTINUOUS
 10
2.4304
 20
-0.4768
  0
VERTEX
  8
0
 62
     1
  6
CONTINUOUS
 10
2.4654
 20
-0.4781
  0
VERTEX
  8
0
 62
     1
  6
CONTINUOUS
 10
2.5004
 20
-0.4794
  0
VERTEX
  8
0
 62
     1
  6
CONTINUOUS
 10
2.5354
 20
-0.4805
  0
VERTEX
  8
0
 62
     1
  6
CONTINUOUS
 10
2.5727
 20
-0.4817
  0
VERTEX
  8
0
 62
     1
  6
CONTINUOUS
 10
2.6100
 20
-0.4828
  0
VERTEX
  8
0
 62
     1
  6
CONTINUOUS
 10
2.6473
 20
-0.4838
  0
VERTEX
  8
0
 62
     1
  6
CONTINUOUS
 10
2.6846
 20
-0.4848
  0
VERTEX
  8
0
 62
     1
  6
CONTINUOUS
 10
2.7220
 20
-0.4857
  0
VERTEX
  8
0
 62
     1
  6
CONTINUOUS
 10
2.7593
 20
-0.4865
  0
VERTEX
  8
0
 62
     1
  6
CONTINUOUS
 10
2.7966
 20
-0.4873
  0
VERTEX
  8
0
 62
     1
  6
CONTINUOUS
 10
2.8339
 20
-0.4880
  0
VERTEX
  8
0
 62
     1
  6
CONTINUOUS
 10
2.8712
 20
-0.4886
  0
VERTEX
  8
0
 62
     1
  6
CONTINUOUS
 10
2.9085
 20
-0.4892
  0
VERTEX
  8
0
 62
     1
  6
CONTINUOUS
 10
2.9458
 20
-0.4897
  0
VERTEX
  8
0
 62
     1
  6
CONTINUOUS
 10
2.9831
 20
-0.4901
  0
VERTEX
  8
0
 62
     1
  6
CONTINUOUS
 10
3.0224
 20
-0.4905
  0
VERTEX
  8
0
 62
     1
  6
CONTINUOUS
 10
3.0616
 20
-0.4909
  0
VERTEX
  8
0
 62
     1
  6
CONTINUOUS
 10
3.1009
 20
-0.4912
  0
VERTEX
  8
0
 62
     1
  6
CONTINUOUS
 10
3.1401
 20
-0.4914
  0
VERTEX
  8
0
 62
     1
  6
CONTINUOUS
 10
3.1794
 20
-0.4916
  0
VERTEX
  8
0
 62
     1
  6
CONTINUOUS
 10
3.2186
 20
-0.4917
  0
VERTEX
  8
0
 62
     1
  6
CONTINUOUS
 10
3.2579
 20
-0.4917
  0
VERTEX
  8
0
 62
     1
  6
CONTINUOUS
 10
3.2971
 20
-0.4917
  0
VERTEX
  8
0
 62
     1
  6
CONTINUOUS
 10
3.3364
 20
-0.4917
  0
VERTEX
  8
0
 62
     1
  6
CONTINUOUS
 10
3.3756
 20
-0.4915
  0
VERTEX
  8
0
 62
     1
  6
CONTINUOUS
 10
3.4149
 20
-0.4914
  0
VERTEX
  8
0
 62
     1
  6
CONTINUOUS
 10
3.4542
 20
-0.4911
  0
VERTEX
  8
0
 62
     1
  6
CONTINUOUS
 10
3.4950
 20
-0.4908
  0
VERTEX
  8
0
 62
     1
  6
CONTINUOUS
 10
3.5358
 20
-0.4905
  0
VERTEX
  8
0
 62
     1
  6
CONTINUOUS
 10
3.5766
 20
-0.4901
  0
VERTEX
  8
0
 62
     1
  6
CONTINUOUS
 10
3.6174
 20
-0.4896
  0
VERTEX
  8
0
 62
     1
  6
CONTINUOUS
 10
3.6582
 20
-0.4891
  0
VERTEX
  8
0
 62
     1
  6
CONTINUOUS
 10
3.6990
 20
-0.4886
  0
VERTEX
  8
0
 62
     1
  6
CONTINUOUS
 10
3.7398
 20
-0.4880
  0
VERTEX
  8
0
 62
     1
  6
CONTINUOUS
 10
3.7806
 20
-0.4873
  0
VERTEX
  8
0
 62
     1
  6
CONTINUOUS
 10
3.8214
 20
-0.4866
  0
VERTEX
  8
0
 62
     1
  6
CONTINUOUS
 10
3.8623
 20
-0.4858
  0
VERTEX
  8
0
 62
     1
  6
CONTINUOUS
 10
3.9031
 20
-0.4850
  0
VERTEX
  8
0
 62
     1
  6
CONTINUOUS
 10
3.9439
 20
-0.4841
  0
VERTEX
  8
0
 62
     1
  6
CONTINUOUS
 10
3.9858
 20
-0.4832
  0
VERTEX
  8
0
 62
     1
  6
CONTINUOUS
 10
4.0278
 20
-0.4822
  0
VERTEX
  8
0
 62
     1
  6
CONTINUOUS
 10
4.0697
 20
-0.4812
  0
VERTEX
  8
0
 62
     1
  6
CONTINUOUS
 10
4.1116
 20
-0.4801
  0
VERTEX
  8
0
 62
     1
  6
CONTINUOUS
 10
4.1536
 20
-0.4790
  0
VERTEX
  8
0
 62
     1
  6
CONTINUOUS
 10
4.1955
 20
-0.4778
  0
VERTEX
  8
0
 62
     1
  6
CONTINUOUS
 10
4.2374
 20
-0.4766
  0
VERTEX
  8
0
 62
     1
  6
CONTINUOUS
 10
4.2794
 20
-0.4753
  0
VERTEX
  8
0
 62
     1
  6
CONTINUOUS
 10
4.3213
 20
-0.4740
  0
VERTEX
  8
0
 62
     1
  6
CONTINUOUS
 10
4.3632
 20
-0.4726
  0
VERTEX
  8
0
 62
     1
  6
CONTINUOUS
 10
4.4052
 20
-0.4712
  0
VERTEX
  8
0
 62
     1
  6
CONTINUOUS
 10
4.4471
 20
-0.4697
  0
VERTEX
  8
0
 62
     1
  6
CONTINUOUS
 10
4.4897
 20
-0.4682
  0
VERTEX
  8
0
 62
     1
  6
CONTINUOUS
 10
4.5324
 20
-0.4666
  0
VERTEX
  8
0
 62
     1
  6
CONTINUOUS
 10
4.5750
 20
-0.4650
  0
VERTEX
  8
0
 62
     1
  6
CONTINUOUS
 10
4.6177
 20
-0.4634
  0
VERTEX
  8
0
 62
     1
  6
CONTINUOUS
 10
4.6603
 20
-0.4617
  0
VERTEX
  8
0
 62
     1
  6
CONTINUOUS
 10
4.7029
 20
-0.4599
  0
VERTEX
  8
0
 62
     1
  6
CONTINUOUS
 10
4.7456
 20
-0.4581
  0
VERTEX
  8
0
 62
     1
  6
CONTINUOUS
 10
4.7882
 20
-0.4563
  0
VERTEX
  8
0
 62
     1
  6
CONTINUOUS
 10
4.8308
 20
-0.4545
  0
VERTEX
  8
0
 62
     1
  6
CONTINUOUS
 10
4.8735
 20
-0.4525
  0
VERTEX
  8
0
 62
     1
  6
CONTINUOUS
 10
4.9161
 20
-0.4506
  0
VERTEX
  8
0
 62
     1
  6
CONTINUOUS
 10
4.9587
 20
-0.4486
  0
VERTEX
  8
0
 62
     1
  6
CONTINUOUS
 10
5.0016
 20
-0.4466
  0
VERTEX
  8
0
 62
     1
  6
CONTINUOUS
 10
5.0445
 20
-0.4445
  0
VERTEX
  8
0
 62
     1
  6
CONTINUOUS
 10
5.0874
 20
-0.4424
  0
VERTEX
  8
0
 62
     1
  6
CONTINUOUS
 10
5.1302
 20
-0.4403
  0
VERTEX
  8
0
 62
     1
  6
CONTINUOUS
 10
5.1731
 20
-0.4381
  0
VERTEX
  8
0
 62
     1
  6
CONTINUOUS
 10
5.2160
 20
-0.4358
  0
VERTEX
  8
0
 62
     1
  6
CONTINUOUS
 10
5.2588
 20
-0.4336
  0
VERTEX
  8
0
 62
     1
  6
CONTINUOUS
 10
5.3017
 20
-0.4313
  0
VERTEX
  8
0
 62
     1
  6
CONTINUOUS
 10
5.3446
 20
-0.4289
  0
VERTEX
  8
0
 62
     1
  6
CONTINUOUS
 10
5.3874
 20
-0.4266
  0
VERTEX
  8
0
 62
     1
  6
CONTINUOUS
 10
5.4303
 20
-0.4242
  0
VERTEX
  8
0
 62
     1
  6
CONTINUOUS
 10
5.4732
 20
-0.4217
  0
VERTEX
  8
0
 62
     1
  6
CONTINUOUS
 10
5.5158
 20
-0.4192
  0
VERTEX
  8
0
 62
     1
  6
CONTINUOUS
 10
5.5585
 20
-0.4167
  0
VERTEX
  8
0
 62
     1
  6
CONTINUOUS
 10
5.6011
 20
-0.4142
  0
VERTEX
  8
0
 62
     1
  6
CONTINUOUS
 10
5.6438
 20
-0.4116
  0
VERTEX
  8
0
 62
     1
  6
CONTINUOUS
 10
5.6864
 20
-0.4090
  0
VERTEX
  8
0
 62
     1
  6
CONTINUOUS
 10
5.7291
 20
-0.4063
  0
VERTEX
  8
0
 62
     1
  6
CONTINUOUS
 10
5.7717
 20
-0.4036
  0
VERTEX
  8
0
 62
     1
  6
CONTINUOUS
 10
5.8143
 20
-0.4009
  0
VERTEX
  8
0
 62
     1
  6
CONTINUOUS
 10
5.8570
 20
-0.3981
  0
VERTEX
  8
0
 62
     1
  6
CONTINUOUS
 10
5.8996
 20
-0.3954
  0
VERTEX
  8
0
 62
     1
  6
CONTINUOUS
 10
5.9422
 20
-0.3925
  0
VERTEX
  8
0
 62
     1
  6
CONTINUOUS
 10
5.9849
 20
-0.3897
  0
VERTEX
  8
0
 62
     1
  6
CONTINUOUS
 10
6.0268
 20
-0.3869
  0
VERTEX
  8
0
 62
     1
  6
CONTINUOUS
 10
6.0688
 20
-0.3840
  0
VERTEX
  8
0
 62
     1
  6
CONTINUOUS
 10
6.1108
 20
-0.3811
  0
VERTEX
  8
0
 62
     1
  6
CONTINUOUS
 10
6.1527
 20
-0.3782
  0
VERTEX
  8
0
 62
     1
  6
CONTINUOUS
 10
6.1947
 20
-0.3752
  0
VERTEX
  8
0
 62
     1
  6
CONTINUOUS
 10
6.2366
 20
-0.3722
  0
VERTEX
  8
0
 62
     1
  6
CONTINUOUS
 10
6.2786
 20
-0.3692
  0
VERTEX
  8
0
 62
     1
  6
CONTINUOUS
 10
6.3205
 20
-0.3662
  0
VERTEX
  8
0
 62
     1
  6
CONTINUOUS
 10
6.3625
 20
-0.3631
  0
VERTEX
  8
0
 62
     1
  6
CONTINUOUS
 10
6.4044
 20
-0.3600
  0
VERTEX
  8
0
 62
     1
  6
CONTINUOUS
 10
6.4464
 20
-0.3568
  0
VERTEX
  8
0
 62
     1
  6
CONTINUOUS
 10
6.4883
 20
-0.3537
  0
VERTEX
  8
0
 62
     1
  6
CONTINUOUS
 10
6.5291
 20
-0.3506
  0
VERTEX
  8
0
 62
     1
  6
CONTINUOUS
 10
6.5699
 20
-0.3474
  0
VERTEX
  8
0
 62
     1
  6
CONTINUOUS
 10
6.6107
 20
-0.3443
  0
VERTEX
  8
0
 62
     1
  6
CONTINUOUS
 10
6.6516
 20
-0.3411
  0
VERTEX
  8
0
 62
     1
  6
CONTINUOUS
 10
6.6924
 20
-0.3378
  0
VERTEX
  8
0
 62
     1
  6
CONTINUOUS
 10
6.7332
 20
-0.3346
  0
VERTEX
  8
0
 62
     1
  6
CONTINUOUS
 10
6.7740
 20
-0.3313
  0
VERTEX
  8
0
 62
     1
  6
CONTINUOUS
 10
6.8148
 20
-0.3280
  0
VERTEX
  8
0
 62
     1
  6
CONTINUOUS
 10
6.8556
 20
-0.3246
  0
VERTEX
  8
0
 62
     1
  6
CONTINUOUS
 10
6.8963
 20
-0.3213
  0
VERTEX
  8
0
 62
     1
  6
CONTINUOUS
 10
6.9371
 20
-0.3179
  0
VERTEX
  8
0
 62
     1
  6
CONTINUOUS
 10
6.9779
 20
-0.3145
  0
VERTEX
  8
0
 62
     1
  6
CONTINUOUS
 10
7.0171
 20
-0.3112
  0
VERTEX
  8
0
 62
     1
  6
CONTINUOUS
 10
7.0563
 20
-0.3078
  0
VERTEX
  8
0
 62
     1
  6
CONTINUOUS
 10
7.0955
 20
-0.3045
  0
VERTEX
  8
0
 62
     1
  6
CONTINUOUS
 10
7.1347
 20
-0.3011
  0
VERTEX
  8
0
 62
     1
  6
CONTINUOUS
 10
7.1739
 20
-0.2977
  0
VERTEX
  8
0
 62
     1
  6
CONTINUOUS
 10
7.2131
 20
-0.2942
  0
VERTEX
  8
0
 62
     1
  6
CONTINUOUS
 10
7.2523
 20
-0.2908
  0
VERTEX
  8
0
 62
     1
  6
CONTINUOUS
 10
7.2915
 20
-0.2873
  0
VERTEX
  8
0
 62
     1
  6
CONTINUOUS
 10
7.3307
 20
-0.2838
  0
VERTEX
  8
0
 62
     1
  6
CONTINUOUS
 10
7.3699
 20
-0.2803
  0
VERTEX
  8
0
 62
     1
  6
CONTINUOUS
 10
7.4091
 20
-0.2767
  0
VERTEX
  8
0
 62
     1
  6
CONTINUOUS
 10
7.4482
 20
-0.2731
  0
VERTEX
  8
0
 62
     1
  6
CONTINUOUS
 10
7.4854
 20
-0.2697
  0
VERTEX
  8
0
 62
     1
  6
CONTINUOUS
 10
7.5225
 20
-0.2663
  0
VERTEX
  8
0
 62
     1
  6
CONTINUOUS
 10
7.5596
 20
-0.2628
  0
VERTEX
  8
0
 62
     1
  6
CONTINUOUS
 10
7.5968
 20
-0.2594
  0
VERTEX
  8
0
 62
     1
  6
CONTINUOUS
 10
7.6339
 20
-0.2559
  0
VERTEX
  8
0
 62
     1
  6
CONTINUOUS
 10
7.6710
 20
-0.2523
  0
VERTEX
  8
0
 62
     1
  6
CONTINUOUS
 10
7.7081
 20
-0.2488
  0
VERTEX
  8
0
 62
     1
  6
CONTINUOUS
 10
7.7453
 20
-0.2452
  0
VERTEX
  8
0
 62
     1
  6
CONTINUOUS
 10
7.7824
 20
-0.2416
  0
VERTEX
  8
0
 62
     1
  6
CONTINUOUS
 10
7.8195
 20
-0.2380
  0
VERTEX
  8
0
 62
     1
  6
CONTINUOUS
 10
7.8566
 20
-0.2344
  0
VERTEX
  8
0
 62
     1
  6
CONTINUOUS
 10
7.8937
 20
-0.2307
  0
VERTEX
  8
0
 62
     1
  6
CONTINUOUS
 10
7.9284
 20
-0.2273
  0
VERTEX
  8
0
 62
     1
  6
CONTINUOUS
 10
7.9630
 20
-0.2238
  0
VERTEX
  8
0
 62
     1
  6
CONTINUOUS
 10
7.9977
 20
-0.2204
  0
VERTEX
  8
0
 62
     1
  6
CONTINUOUS
 10
8.0323
 20
-0.2169
  0
VERTEX
  8
0
 62
     1
  6
CONTINUOUS
 10
8.0670
 20
-0.2134
  0
VERTEX
  8
0
 62
     1
  6
CONTINUOUS
 10
8.1016
 20
-0.2098
  0
VERTEX
  8
0
 62
     1
  6
CONTINUOUS
 10
8.1363
 20
-0.2063
  0
VERTEX
  8
0
 62
     1
  6
CONTINUOUS
 10
8.1709
 20
-0.2027
  0
VERTEX
  8
0
 62
     1
  6
CONTINUOUS
 10
8.2055
 20
-0.1991
  0
VERTEX
  8
0
 62
     1
  6
CONTINUOUS
 10
8.2402
 20
-0.1955
  0
VERTEX
  8
0
 62
     1
  6
CONTINUOUS
 10
8.2748
 20
-0.1919
  0
VERTEX
  8
0
 62
     1
  6
CONTINUOUS
 10
8.3094
 20
-0.1882
  0
VERTEX
  8
0
 62
     1
  6
CONTINUOUS
 10
8.3412
 20
-0.1848
  0
VERTEX
  8
0
 62
     1
  6
CONTINUOUS
 10
8.3729
 20
-0.1814
  0
VERTEX
  8
0
 62
     1
  6
CONTINUOUS
 10
8.4047
 20
-0.1780
  0
VERTEX
  8
0
 62
     1
  6
CONTINUOUS
 10
8.4364
 20
-0.1746
  0
VERTEX
  8
0
 62
     1
  6
CONTINUOUS
 10
8.4682
 20
-0.1711
  0
VERTEX
  8
0
 62
     1
  6
CONTINUOUS
 10
8.4999
 20
-0.1677
  0
VERTEX
  8
0
 62
     1
  6
CONTINUOUS
 10
8.5316
 20
-0.1642
  0
VERTEX
  8
0
 62
     1
  6
CONTINUOUS
 10
8.5634
 20
-0.1607
  0
VERTEX
  8
0
 62
     1
  6
CONTINUOUS
 10
8.5951
 20
-0.1572
  0
VERTEX
  8
0
 62
     1
  6
CONTINUOUS
 10
8.6268
 20
-0.1536
  0
VERTEX
  8
0
 62
     1
  6
CONTINUOUS
 10
8.6586
 20
-0.1501
  0
VERTEX
  8
0
 62
     1
  6
CONTINUOUS
 10
8.6903
 20
-0.1465
  0
VERTEX
  8
0
 62
     1
  6
CONTINUOUS
 10
8.7187
 20
-0.1433
  0
VERTEX
  8
0
 62
     1
  6
CONTINUOUS
 10
8.7472
 20
-0.1400
  0
VERTEX
  8
0
 62
     1
  6
CONTINUOUS
 10
8.7756
 20
-0.1368
  0
VERTEX
  8
0
 62
     1
  6
CONTINUOUS
 10
8.8040
 20
-0.1335
  0
VERTEX
  8
0
 62
     1
  6
CONTINUOUS
 10
8.8325
 20
-0.1302
  0
VERTEX
  8
0
 62
     1
  6
CONTINUOUS
 10
8.8609
 20
-0.1269
  0
VERTEX
  8
0
 62
     1
  6
CONTINUOUS
 10
8.8893
 20
-0.1236
  0
VERTEX
  8
0
 62
     1
  6
CONTINUOUS
 10
8.9178
 20
-0.1202
  0
VERTEX
  8
0
 62
     1
  6
CONTINUOUS
 10
8.9462
 20
-0.1169
  0
VERTEX
  8
0
 62
     1
  6
CONTINUOUS
 10
8.9746
 20
-0.1135
  0
SEQEND
  8
0
  0
POLYLINE
  8
0
 62
     1
 66
     1
  6
CONTINUOUS
  0
VERTEX
  8
0
 62
     1
  6
CONTINUOUS
 10
8.9746
 20
-0.1135
  0
VERTEX
  8
0
 62
     1
  6
CONTINUOUS
 10
9.0030
 20
-0.1101
  0
VERTEX
  8
0
 62
     1
  6
CONTINUOUS
 10
9.0314
 20
-0.1067
  0
VERTEX
  8
0
 62
     1
  6
CONTINUOUS
 10
9.0562
 20
-0.1037
  0
VERTEX
  8
0
 62
     1
  6
CONTINUOUS
 10
9.0810
 20
-0.1007
  0
VERTEX
  8
0
 62
     1
  6
CONTINUOUS
 10
9.1058
 20
-0.0976
  0
VERTEX
  8
0
 62
     1
  6
CONTINUOUS
 10
9.1306
 20
-0.0946
  0
VERTEX
  8
0
 62
     1
  6
CONTINUOUS
 10
9.1553
 20
-0.0915
  0
VERTEX
  8
0
 62
     1
  6
CONTINUOUS
 10
9.1801
 20
-0.0884
  0
VERTEX
  8
0
 62
     1
  6
CONTINUOUS
 10
9.2049
 20
-0.0853
  0
VERTEX
  8
0
 62
     1
  6
CONTINUOUS
 10
9.2296
 20
-0.0822
  0
VERTEX
  8
0
 62
     1
  6
CONTINUOUS
 10
9.2544
 20
-0.0791
  0
VERTEX
  8
0
 62
     1
  6
CONTINUOUS
 10
9.2792
 20
-0.0759
  0
VERTEX
  8
0
 62
     1
  6
CONTINUOUS
 10
9.3039
 20
-0.0727
  0
VERTEX
  8
0
 62
     1
  6
CONTINUOUS
 10
9.3287
 20
-0.0695
  0
VERTEX
  8
0
 62
     1
  6
CONTINUOUS
 10
9.3494
 20
-0.0667
  0
VERTEX
  8
0
 62
     1
  6
CONTINUOUS
 10
9.3702
 20
-0.0640
  0
VERTEX
  8
0
 62
     1
  6
CONTINUOUS
 10
9.3910
 20
-0.0612
  0
VERTEX
  8
0
 62
     1
  6
CONTINUOUS
 10
9.4117
 20
-0.0584
  0
VERTEX
  8
0
 62
     1
  6
CONTINUOUS
 10
9.4325
 20
-0.0555
  0
VERTEX
  8
0
 62
     1
  6
CONTINUOUS
 10
9.4532
 20
-0.0527
  0
VERTEX
  8
0
 62
     1
  6
CONTINUOUS
 10
9.4740
 20
-0.0498
  0
VERTEX
  8
0
 62
     1
  6
CONTINUOUS
 10
9.4947
 20
-0.0469
  0
VERTEX
  8
0
 62
     1
  6
CONTINUOUS
 10
9.5154
 20
-0.0439
  0
VERTEX
  8
0
 62
     1
  6
CONTINUOUS
 10
9.5362
 20
-0.0409
  0
VERTEX
  8
0
 62
     1
  6
CONTINUOUS
 10
9.5569
 20
-0.0378
  0
VERTEX
  8
0
 62
     1
  6
CONTINUOUS
 10
9.5776
 20
-0.0347
  0
VERTEX
  8
0
 62
     1
  6
CONTINUOUS
 10
9.5942
 20
-0.0322
  0
VERTEX
  8
0
 62
     1
  6
CONTINUOUS
 10
9.6108
 20
-0.0297
  0
VERTEX
  8
0
 62
     1
  6
CONTINUOUS
 10
9.6275
 20
-0.0271
  0
VERTEX
  8
0
 62
     1
  6
CONTINUOUS
 10
9.6441
 20
-0.0245
  0
VERTEX
  8
0
 62
     1
  6
CONTINUOUS
 10
9.6607
 20
-0.0218
  0
VERTEX
  8
0
 62
     1
  6
CONTINUOUS
 10
9.6773
 20
-0.0191
  0
VERTEX
  8
0
 62
     1
  6
CONTINUOUS
 10
9.6939
 20
-0.0164
  0
VERTEX
  8
0
 62
     1
  6
CONTINUOUS
 10
9.7105
 20
-0.0136
  0
VERTEX
  8
0
 62
     1
  6
CONTINUOUS
 10
9.7271
 20
-0.0108
  0
VERTEX
  8
0
 62
     1
  6
CONTINUOUS
 10
9.7437
 20
-0.0079
  0
VERTEX
  8
0
 62
     1
  6
CONTINUOUS
 10
9.7602
 20
-0.0050
  0
VERTEX
  8
0
 62
     1
  6
CONTINUOUS
 10
9.7768
 20
-0.0020
  0
VERTEX
  8
0
 62
     1
  6
CONTINUOUS
 10
9.7892
 20
0.0002
  0
VERTEX
  8
0
 62
     1
  6
CONTINUOUS
 10
9.8017
 20
0.0025
  0
VERTEX
  8
0
 62
     1
  6
CONTINUOUS
 10
9.8141
 20
0.0049
  0
VERTEX
  8
0
 62
     1
  6
CONTINUOUS
 10
9.8266
 20
0.0072
  0
VERTEX
  8
0
 62
     1
  6
CONTINUOUS
 10
9.8390
 20
0.0095
  0
VERTEX
  8
0
 62
     1
  6
CONTINUOUS
 10
9.8515
 20
0.0119
  0
VERTEX
  8
0
 62
     1
  6
CONTINUOUS
 10
9.8639
 20
0.0142
  0
VERTEX
  8
0
 62
     1
  6
CONTINUOUS
 10
9.8764
 20
0.0165
  0
VERTEX
  8
0
 62
     1
  6
CONTINUOUS
 10
9.8888
 20
0.0189
  0
VERTEX
  8
0
 62
     1
  6
CONTINUOUS
 10
9.9012
 20
0.0212
  0
VERTEX
  8
0
 62
     1
  6
CONTINUOUS
 10
9.9137
 20
0.0235
  0
VERTEX
  8
0
 62
     1
  6
CONTINUOUS
 10
9.9261
 20
0.0258
  0
VERTEX
  8
0
 62
     1
  6
CONTINUOUS
 10
9.9369
 20
0.0277
  0
VERTEX
  8
0
 62
     1
  6
CONTINUOUS
 10
9.9476
 20
0.0297
  0
VERTEX
  8
0
 62
     1
  6
CONTINUOUS
 10
9.9583
 20
0.0316
  0
VERTEX
  8
0
 62
     1
  6
CONTINUOUS
 10
9.9691
 20
0.0335
  0
VERTEX
  8
0
 62
     1
  6
CONTINUOUS
 10
9.9798
 20
0.0354
  0
VERTEX
  8
0
 62
     1
  6
CONTINUOUS
 10
9.9905
 20
0.0372
  0
VERTEX
  8
0
 62
     1
  6
CONTINUOUS
 10
10.0013
 20
0.0391
  0
VERTEX
  8
0
 62
     1
  6
CONTINUOUS
 10
10.0120
 20
0.0409
  0
VERTEX
  8
0
 62
     1
  6
CONTINUOUS
 10
10.0228
 20
0.0428
  0
VERTEX
  8
0
 62
     1
  6
CONTINUOUS
 10
10.0335
 20
0.0446
  0
VERTEX
  8
0
 62
     1
  6
CONTINUOUS
 10
10.0443
 20
0.0465
  0
VERTEX
  8
0
 62
     1
  6
CONTINUOUS
 10
10.0550
 20
0.0483
  0
SEQEND
  8
0
  0
ENDSEC
  0
EOF
