 0 
SECTION
 2 
ENTITIES
 0 
POLYLINE
 8 
1
 66 
 1 
 10 
0.0
 20 
0.0
 30 
0.0
 0 
VERTEX
 8 
1
 10 
0.0
 20 
0.5
 30 
0.0
 0 
VERTEX
 8 
1
 10 
0.00383
 20 
0.50075
 30 
0.0
 0 
VERTEX
 8 
1
 10 
0.014769
 20 
0.50332
 30 
0.0
 0 
VERTEX
 8 
1
 10 
0.03168
 20 
0.50789
 30 
0.0
 0 
VERTEX
 8 
1
 10 
0.05367
 20 
0.51389
 30 
0.0
 0 
VERTEX
 8 
1
 10 
0.08049
 20 
0.52064
 30 
0.0
 0 
VERTEX
 8 
1
 10 
0.11221
 20 
0.52799
 30 
0.0
 0 
VERTEX
 8 
1
 10 
0.1485
 20 
0.5362
 30 
0.0
 0 
VERTEX
 8 
1
 10 
0.18867
 20 
0.54535
 30 
0.0
 0 
VERTEX
 8 
1
 10 
0.23195
 20 
0.55534
 30 
0.0
 0 
VERTEX
 8 
1
 10 
0.27754
 20 
0.566
 30 
0.0
 0 
VERTEX
 8 
1
 10 
0.32463
 20 
0.57704
 30 
0.0
 0 
VERTEX
 8 
1
 10 
0.37235
 20 
0.58806
 30 
0.0
 0 
VERTEX
 8 
1
 10 
0.41989
 20 
0.59854
 30 
0.0
 0 
VERTEX
 8 
1
 10 
0.46645
 20 
0.60759
 30 
0.0
 0 
VERTEX
 8 
1
 10 
0.51199
 20 
0.61404
 30 
0.0
 0 
VERTEX
 8 
1
 10 
0.55716
 20 
0.61755
 30 
0.0
 0 
VERTEX
 8 
1
 10 
0.60211
 20 
0.61856
 30 
0.0
 0 
VERTEX
 8 
1
 10 
0.64655
 20 
0.61739
 30 
0.0
 0 
VERTEX
 8 
1
 10 
0.69011
 20 
0.61435
 30 
0.0
 0 
VERTEX
 8 
1
 10 
0.73229
 20 
0.60967
 30 
0.0
 0 
VERTEX
 8 
1
 10 
0.77264
 20 
0.6035
 30 
0.0
 0 
VERTEX
 8 
1
 10 
0.81074
 20 
0.59601
 30 
0.0
 0 
VERTEX
 8 
1
 10 
0.8462
 20 
0.58734
 30 
0.0
 0 
VERTEX
 8 
1
 10 
0.87867
 20 
0.5777
 30 
0.0
 0 
VERTEX
 8 
1
 10 
0.90781
 20 
0.56727
 30 
0.0
 0 
VERTEX
 8 
1
 10 
0.93335
 20 
0.55625
 30 
0.0
 0 
VERTEX
 8 
1
 10 
0.95504
 20 
0.54489
 30 
0.0
 0 
VERTEX
 8 
1
 10 
0.97268
 20 
0.53344
 30 
0.0
 0 
VERTEX
 8 
1
 10 
0.98611
 20 
0.52222
 30 
0.0
 0 
VERTEX
 8 
1
 10 
0.9952
 20 
0.51164
 30 
0.0
 0 
VERTEX
 8 
1
 10 
0.99976
 20 
0.5023
 30 
0.0
 0 
VERTEX
 8 
1
 10 
0.99853
 20 
0.49499
 30 
0.0
 0 
VERTEX
 8 
1
 10 
0.99073
 20 
0.48879
 30 
0.0
 0 
VERTEX
 8 
1
 10 
0.97698
 20 
0.4826
 30 
0.0
 0 
VERTEX
 8 
1
 10 
0.9578
 20 
0.47668
 30 
0.0
 0 
VERTEX
 8 
1
 10 
0.93351
 20 
0.47113
 30 
0.0
 0 
VERTEX
 8 
1
 10 
0.9044
 20 
0.46602
 30 
0.0
 0 
VERTEX
 8 
1
 10 
0.87083
 20 
0.46136
 30 
0.0
 0 
VERTEX
 8 
1
 10 
0.83322
 20 
0.4572
 30 
0.0
 0 
VERTEX
 8 
1
 10 
0.79206
 20 
0.45358
 30 
0.0
 0 
VERTEX
 8 
1
 10 
0.74782
 20 
0.45054
 30 
0.0
 0 
VERTEX
 8 
1
 10 
0.70103
 20 
0.44812
 30 
0.0
 0 
VERTEX
 8 
1
 10 
0.65224
 20 
0.44638
 30 
0.0
 0 
VERTEX
 8 
1
 10 
0.60203
 20 
0.44536
 30 
0.0
 0 
VERTEX
 8 
1
 10 
0.55097
 20 
0.4451
 30 
0.0
 0 
VERTEX
 8 
1
 10 
0.49968
 20 
0.44566
 30 
0.0
 0 
VERTEX
 8 
1
 10 
0.44874
 20 
0.44711
 30 
0.0
 0 
VERTEX
 8 
1
 10 
0.39877
 20 
0.44954
 30 
0.0
 0 
VERTEX
 8 
1
 10 
0.35039
 20 
0.45322
 30 
0.0
 0 
VERTEX
 8 
1
 10 
0.30375
 20 
0.4586
 30 
0.0
 0 
VERTEX
 8 
1
 10 
0.25861
 20 
0.46566
 30 
0.0
 0 
VERTEX
 8 
1
 10 
0.21482
 20 
0.47389
 30 
0.0
 0 
VERTEX
 8 
1
 10 
0.17235
 20 
0.48239
 30 
0.0
 0 
VERTEX
 8 
1
 10 
0.13188
 20 
0.4899
 30 
0.0
 0 
VERTEX
 8 
1
 10 
0.094690
 20 
0.49562
 30 
0.0
 0 
VERTEX
 8 
1
 10 
0.06208
 20 
0.49924
 30 
0.0
 0 
VERTEX
 8 
1
 10 
0.03538
 20 
0.49919
 30 
0.0
 0 
VERTEX
 8 
1
 10 
0.01579
 20 
0.49914
 30 
0.0
 0 
VERTEX
 8 
1
 10 
0.0039400
 20 
0.49969
 30 
0.0
 0 
VERTEX
 8 
1
 10 
0.0
 20 
0.5
 30 
0.0
 0 
SEQEND
 8 
1
 0 
ENDSEC
 0 
EOF
