 0 
SECTION
 2 
ENTITIES
 0 
POLYLINE
 8 
1
 66 
 1 
 10 
0.0
 20 
0.0
 30 
0.0
 0 
VERTEX
 8 
1
 10 
0.0
 20 
0.5
 30 
0.0
 0 
VERTEX
 8 
1
 10 
0.00366
 20 
0.50019
 30 
0.0
 0 
VERTEX
 8 
1
 10 
0.01423
 20 
0.50107
 30 
0.0
 0 
VERTEX
 8 
1
 10 
0.03089
 20 
0.50284
 30 
0.0
 0 
VERTEX
 8 
1
 10 
0.05315
 20 
0.50514
 30 
0.0
 0 
VERTEX
 8 
1
 10 
0.08096
 20 
0.50784
 30 
0.0
 0 
VERTEX
 8 
1
 10 
0.11407
 20 
0.51116
 30 
0.0
 0 
VERTEX
 8 
1
 10 
0.15191
 20 
0.51527
 30 
0.0
 0 
VERTEX
 8 
1
 10 
0.19385
 20 
0.5202
 30 
0.0
 0 
VERTEX
 8 
1
 10 
0.23921
 20 
0.5259
 30 
0.0
 0 
VERTEX
 8 
1
 10 
0.28727
 20 
0.53228
 30 
0.0
 0 
VERTEX
 8 
1
 10 
0.3373
 20 
0.53917
 30 
0.0
 0 
VERTEX
 8 
1
 10 
0.38858
 20 
0.54636
 30 
0.0
 0 
VERTEX
 8 
1
 10 
0.44041
 20 
0.55357
 30 
0.0
 0 
VERTEX
 8 
1
 10 
0.49214
 20 
0.56054
 30 
0.0
 0 
VERTEX
 8 
1
 10 
0.54316
 20 
0.56695
 30 
0.0
 0 
VERTEX
 8 
1
 10 
0.59293
 20 
0.57253
 30 
0.0
 0 
VERTEX
 8 
1
 10 
0.64094
 20 
0.57697
 30 
0.0
 0 
VERTEX
 8 
1
 10 
0.68679
 20 
0.58003
 30 
0.0
 0 
VERTEX
 8 
1
 10 
0.73008
 20 
0.58142
 30 
0.0
 0 
VERTEX
 8 
1
 10 
0.77068
 20 
0.58091
 30 
0.0
 0 
VERTEX
 8 
1
 10 
0.80849
 20 
0.57848
 30 
0.0
 0 
VERTEX
 8 
1
 10 
0.8434
 20 
0.57425
 30 
0.0
 0 
VERTEX
 8 
1
 10 
0.8753
 20 
0.56841
 30 
0.0
 0 
VERTEX
 8 
1
 10 
0.90399
 20 
0.56125
 30 
0.0
 0 
VERTEX
 8 
1
 10 
0.92925
 20 
0.55303
 30 
0.0
 0 
VERTEX
 8 
1
 10 
0.95089
 20 
0.54403
 30 
0.0
 0 
VERTEX
 8 
1
 10 
0.96873
 20 
0.53454
 30 
0.0
 0 
VERTEX
 8 
1
 10 
0.98264
 20 
0.52486
 30 
0.0
 0 
VERTEX
 8 
1
 10 
0.99254
 20 
0.51536
 30 
0.0
 0 
VERTEX
 8 
1
 10 
0.99835
 20 
0.50654
 30 
0.0
 0 
VERTEX
 8 
1
 10 
0.99943
 20 
0.50367
 30 
0.0
 0 
VERTEX
 8 
1
 10 
0.9999
 20 
0.50147
 30 
0.0
 0 
VERTEX
 8 
1
 10 
0.99992
 20 
0.49883
 30 
0.0
 0 
VERTEX
 8 
1
 10 
0.99982
 20 
0.49824
 30 
0.0
 0 
VERTEX
 8 
1
 10 
0.99965
 20 
0.49769
 30 
0.0
 0 
VERTEX
 8 
1
 10 
0.99943
 20 
0.49719
 30 
0.0
 0 
VERTEX
 8 
1
 10 
0.9991
 20 
0.49674
 30 
0.0
 0 
VERTEX
 8 
1
 10 
0.99868
 20 
0.49629
 30 
0.0
 0 
VERTEX
 8 
1
 10 
0.99817
 20 
0.49585
 30 
0.0
 0 
VERTEX
 8 
1
 10 
0.99693
 20 
0.49499
 30 
0.0
 0 
VERTEX
 8 
1
 10 
0.99543
 20 
0.49414
 30 
0.0
 0 
VERTEX
 8 
1
 10 
0.99269
 20 
0.49291
 30 
0.0
 0 
VERTEX
 8 
1
 10 
0.98511
 20 
0.4903
 30 
0.0
 0 
VERTEX
 8 
1
 10 
0.96857
 20 
0.4866
 30 
0.0
 0 
VERTEX
 8 
1
 10 
0.94648
 20 
0.48339
 30 
0.0
 0 
VERTEX
 8 
1
 10 
0.91908
 20 
0.48058
 30 
0.0
 0 
VERTEX
 8 
1
 10 
0.88663
 20 
0.47806
 30 
0.0
 0 
VERTEX
 8 
1
 10 
0.84959
 20 
0.4756
 30 
0.0
 0 
VERTEX
 8 
1
 10 
0.80859
 20 
0.47316
 30 
0.0
 0 
VERTEX
 8 
1
 10 
0.76425
 20 
0.47076
 30 
0.0
 0 
VERTEX
 8 
1
 10 
0.7172
 20 
0.46851
 30 
0.0
 0 
VERTEX
 8 
1
 10 
0.668
 20 
0.46654
 30 
0.0
 0 
VERTEX
 8 
1
 10 
0.61719
 20 
0.46494
 30 
0.0
 0 
VERTEX
 8 
1
 10 
0.56531
 20 
0.46376
 30 
0.0
 0 
VERTEX
 8 
1
 10 
0.51294
 20 
0.46305
 30 
0.0
 0 
VERTEX
 8 
1
 10 
0.46064
 20 
0.46283
 30 
0.0
 0 
VERTEX
 8 
1
 10 
0.40898
 20 
0.46313
 30 
0.0
 0 
VERTEX
 8 
1
 10 
0.35852
 20 
0.46397
 30 
0.0
 0 
VERTEX
 8 
1
 10 
0.30982
 20 
0.46536
 30 
0.0
 0 
VERTEX
 8 
1
 10 
0.26341
 20 
0.46732
 30 
0.0
 0 
VERTEX
 8 
1
 10 
0.21981
 20 
0.46988
 30 
0.0
 0 
VERTEX
 8 
1
 10 
0.17951
 20 
0.4732
 30 
0.0
 0 
VERTEX
 8 
1
 10 
0.14261
 20 
0.47756
 30 
0.0
 0 
VERTEX
 8 
1
 10 
0.10886
 20 
0.48264
 30 
0.0
 0 
VERTEX
 8 
1
 10 
0.07847
 20 
0.48765
 30 
0.0
 0 
VERTEX
 8 
1
 10 
0.05216
 20 
0.49207
 30 
0.0
 0 
VERTEX
 8 
1
 10 
0.03055
 20 
0.49572
 30 
0.0
 0 
VERTEX
 8 
1
 10 
0.01412
 20 
0.49833
 30 
0.0
 0 
VERTEX
 8 
1
 10 
0.0036399
 20 
0.49966
 30 
0.0
 0 
VERTEX
 8 
1
 10 
0.0
 20 
0.5
 30 
0.0
 0 
SEQEND
 8 
1
 0 
ENDSEC
 0 
EOF
