 0 
SECTION
 2 
ENTITIES
 0 
POLYLINE
 8 
1
 66 
 1 
 10 
0.0
 20 
0.0
 30 
0.0
 0 
VERTEX
 8 
1
 10 
0.0
 20 
0.5
 30 
0.0
 0 
VERTEX
 8 
1
 10 
0.0036500
 20 
0.50033
 30 
0.0
 0 
VERTEX
 8 
1
 10 
0.01414
 20 
0.50162
 30 
0.0
 0 
VERTEX
 8 
1
 10 
0.03054
 20 
0.50396
 30 
0.0
 0 
VERTEX
 8 
1
 10 
0.05238
 20 
0.50689
 30 
0.0
 0 
VERTEX
 8 
1
 10 
0.07967
 20 
0.5102
 30 
0.0
 0 
VERTEX
 8 
1
 10 
0.11219
 20 
0.51412
 30 
0.0
 0 
VERTEX
 8 
1
 10 
0.14941
 20 
0.5188
 30 
0.0
 0 
VERTEX
 8 
1
 10 
0.19071
 20 
0.52425
 30 
0.0
 0 
VERTEX
 8 
1
 10 
0.23543
 20 
0.53044
 30 
0.0
 0 
VERTEX
 8 
1
 10 
0.28286
 20 
0.53725
 30 
0.0
 0 
VERTEX
 8 
1
 10 
0.3323
 20 
0.5445
 30 
0.0
 0 
VERTEX
 8 
1
 10 
0.38303
 20 
0.55199
 30 
0.0
 0 
VERTEX
 8 
1
 10 
0.43439
 20 
0.55945
 30 
0.0
 0 
VERTEX
 8 
1
 10 
0.48571
 20 
0.5666
 30 
0.0
 0 
VERTEX
 8 
1
 10 
0.53641
 20 
0.57314
 30 
0.0
 0 
VERTEX
 8 
1
 10 
0.58594
 20 
0.57879
 30 
0.0
 0 
VERTEX
 8 
1
 10 
0.6338
 20 
0.58326
 30 
0.0
 0 
VERTEX
 8 
1
 10 
0.67958
 20 
0.58629
 30 
0.0
 0 
VERTEX
 8 
1
 10 
0.7329
 20 
0.5876
 30 
0.0
 0 
VERTEX
 8 
1
 10 
0.7636
 20 
0.58695
 30 
0.0
 0 
VERTEX
 8 
1
 10 
0.80163
 20 
0.58431
 30 
0.0
 0 
VERTEX
 8 
1
 10 
0.83688
 20 
0.57982
 30 
0.0
 0 
VERTEX
 8 
1
 10 
0.8692
 20 
0.57371
 30 
0.0
 0 
VERTEX
 8 
1
 10 
0.89841
 20 
0.56624
 30 
0.0
 0 
VERTEX
 8 
1
 10 
0.92427
 20 
0.55769
 30 
0.0
 0 
VERTEX
 8 
1
 10 
0.94659
 20 
0.54832
 30 
0.0
 0 
VERTEX
 8 
1
 10 
0.96517
 20 
0.53843
 30 
0.0
 0 
VERTEX
 8 
1
 10 
0.97988
 20 
0.52832
 30 
0.0
 0 
VERTEX
 8 
1
 10 
0.99062
 20 
0.51834
 30 
0.0
 0 
VERTEX
 8 
1
 10 
0.99736
 20 
0.50895
 30 
0.0
 0 
VERTEX
 8 
1
 10 
0.99962
 20 
0.50317
 30 
0.0
 0 
VERTEX
 8 
1
 10 
0.99997
 20 
0.5009
 30 
0.0
 0 
VERTEX
 8 
1
 10 
0.99999
 20 
0.4995
 30 
0.0
 0 
VERTEX
 8 
1
 10 
0.99984
 20 
0.49822
 30 
0.0
 0 
VERTEX
 8 
1
 10 
0.9997
 20 
0.49763
 30 
0.0
 0 
VERTEX
 8 
1
 10 
0.99951
 20 
0.49708
 30 
0.0
 0 
VERTEX
 8 
1
 10 
0.99926
 20 
0.49658
 30 
0.0
 0 
VERTEX
 8 
1
 10 
0.99891
 20 
0.49614
 30 
0.0
 0 
VERTEX
 8 
1
 10 
0.99846
 20 
0.4957
 30 
0.0
 0 
VERTEX
 8 
1
 10 
0.99792
 20 
0.49528
 30 
0.0
 0 
VERTEX
 8 
1
 10 
0.99663
 20 
0.49445
 30 
0.0
 0 
VERTEX
 8 
1
 10 
0.99507
 20 
0.49364
 30 
0.0
 0 
VERTEX
 8 
1
 10 
0.99225
 20 
0.49246
 30 
0.0
 0 
VERTEX
 8 
1
 10 
0.98877
 20 
0.49126
 30 
0.0
 0 
VERTEX
 8 
1
 10 
0.97368
 20 
0.48783
 30 
0.0
 0 
VERTEX
 8 
1
 10 
0.95282
 20 
0.48499
 30 
0.0
 0 
VERTEX
 8 
1
 10 
0.92644
 20 
0.48263
 30 
0.0
 0 
VERTEX
 8 
1
 10 
0.8948
 20 
0.48058
 30 
0.0
 0 
VERTEX
 8 
1
 10 
0.85837
 20 
0.4786
 30 
0.0
 0 
VERTEX
 8 
1
 10 
0.81779
 20 
0.47659
 30 
0.0
 0 
VERTEX
 8 
1
 10 
0.7737
 20 
0.47457
 30 
0.0
 0 
VERTEX
 8 
1
 10 
0.72674
 20 
0.47264
 30 
0.0
 0 
VERTEX
 8 
1
 10 
0.6775
 20 
0.47093
 30 
0.0
 0 
VERTEX
 8 
1
 10 
0.62651
 20 
0.46953
 30 
0.0
 0 
VERTEX
 8 
1
 10 
0.57434
 20 
0.46848
 30 
0.0
 0 
VERTEX
 8 
1
 10 
0.52157
 20 
0.46782
 30 
0.0
 0 
VERTEX
 8 
1
 10 
0.46877
 20 
0.46758
 30 
0.0
 0 
VERTEX
 8 
1
 10 
0.41653
 20 
0.4678
 30 
0.0
 0 
VERTEX
 8 
1
 10 
0.36543
 20 
0.46848
 30 
0.0
 0 
VERTEX
 8 
1
 10 
0.31604
 20 
0.46964
 30 
0.0
 0 
VERTEX
 8 
1
 10 
0.26891
 20 
0.47133
 30 
0.0
 0 
VERTEX
 8 
1
 10 
0.22456
 20 
0.47357
 30 
0.0
 0 
VERTEX
 8 
1
 10 
0.18351
 20 
0.47652
 30 
0.0
 0 
VERTEX
 8 
1
 10 
0.14586
 20 
0.48049
 30 
0.0
 0 
VERTEX
 8 
1
 10 
0.11136
 20 
0.48516
 30 
0.0
 0 
VERTEX
 8 
1
 10 
0.08024
 20 
0.48972
 30 
0.0
 0 
VERTEX
 8 
1
 10 
0.05326
 20 
0.49364
 30 
0.0
 0 
VERTEX
 8 
1
 10 
0.03109
 20 
0.49674
 30 
0.0
 0 
VERTEX
 8 
1
 10 
0.01431
 20 
0.49882
 30 
0.0
 0 
VERTEX
 8 
1
 10 
0.0036699
 20 
0.49979
 30 
0.0
 0 
VERTEX
 8 
1
 10 
0.0
 20 
0.5
 30 
0.0
 0 
SEQEND
 8 
1
 0 
ENDSEC
 0 
EOF
