 0 
SECTION
 2 
ENTITIES
 0 
POLYLINE
 8 
1
 66 
 1 
 10 
0.0
 20 
0.0
 30 
0.0
 0 
VERTEX
 8 
1
 10 
0.0
 20 
0.5
 30 
0.0
 0 
VERTEX
 8 
1
 10 
0.0038799
 20 
0.50021
 30 
0.0
 0 
VERTEX
 8 
1
 10 
0.01502
 20 
0.50122
 30 
0.0
 0 
VERTEX
 8 
1
 10 
0.03239
 20 
0.50326
 30 
0.0
 0 
VERTEX
 8 
1
 10 
0.05546
 20 
0.50587
 30 
0.0
 0 
VERTEX
 8 
1
 10 
0.084200
 20 
0.5089
 30 
0.0
 0 
VERTEX
 8 
1
 10 
0.11838
 20 
0.51262
 30 
0.0
 0 
VERTEX
 8 
1
 10 
0.15738
 20 
0.51725
 30 
0.0
 0 
VERTEX
 8 
1
 10 
0.20051
 20 
0.52283
 30 
0.0
 0 
VERTEX
 8 
1
 10 
0.24703
 20 
0.52932
 30 
0.0
 0 
VERTEX
 8 
1
 10 
0.29615
 20 
0.53661
 30 
0.0
 0 
VERTEX
 8 
1
 10 
0.34711
 20 
0.5445
 30 
0.0
 0 
VERTEX
 8 
1
 10 
0.39912
 20 
0.55276
 30 
0.0
 0 
VERTEX
 8 
1
 10 
0.45146
 20 
0.56106
 30 
0.0
 0 
VERTEX
 8 
1
 10 
0.50344
 20 
0.56909
 30 
0.0
 0 
VERTEX
 8 
1
 10 
0.55445
 20 
0.57648
 30 
0.0
 0 
VERTEX
 8 
1
 10 
0.60391
 20 
0.5829
 30 
0.0
 0 
VERTEX
 8 
1
 10 
0.65136
 20 
0.58801
 30 
0.0
 0 
VERTEX
 8 
1
 10 
0.69638
 20 
0.59148
 30 
0.0
 0 
VERTEX
 8 
1
 10 
0.73861
 20 
0.59298
 30 
0.0
 0 
VERTEX
 8 
1
 10 
0.778
 20 
0.59213
 30 
0.0
 0 
VERTEX
 8 
1
 10 
0.81469
 20 
0.58897
 30 
0.0
 0 
VERTEX
 8 
1
 10 
0.84862
 20 
0.58377
 30 
0.0
 0 
VERTEX
 8 
1
 10 
0.87966
 20 
0.57681
 30 
0.0
 0 
VERTEX
 8 
1
 10 
0.90759
 20 
0.56843
 30 
0.0
 0 
VERTEX
 8 
1
 10 
0.93218
 20 
0.55894
 30 
0.0
 0 
VERTEX
 8 
1
 10 
0.95323
 20 
0.54863
 30 
0.0
 0 
VERTEX
 8 
1
 10 
0.97055
 20 
0.53784
 30 
0.0
 0 
VERTEX
 8 
1
 10 
0.98399
 20 
0.5269
 30 
0.0
 0 
VERTEX
 8 
1
 10 
0.99343
 20 
0.51623
 30 
0.0
 0 
VERTEX
 8 
1
 10 
0.99878
 20 
0.50635
 30 
0.0
 0 
VERTEX
 8 
1
 10 
0.99951
 20 
0.50385
 30 
0.0
 0 
VERTEX
 8 
1
 10 
0.99994
 20 
0.50133
 30 
0.0
 0 
VERTEX
 8 
1
 10 
0.99999
 20 
0.49975
 30 
0.0
 0 
VERTEX
 8 
1
 10 
0.99987
 20 
0.49827
 30 
0.0
 0 
VERTEX
 8 
1
 10 
0.99974
 20 
0.49758
 30 
0.0
 0 
VERTEX
 8 
1
 10 
0.99955
 20 
0.49693
 30 
0.0
 0 
VERTEX
 8 
1
 10 
0.99929
 20 
0.49634
 30 
0.0
 0 
VERTEX
 8 
1
 10 
0.99892
 20 
0.49578
 30 
0.0
 0 
VERTEX
 8 
1
 10 
0.99846
 20 
0.49522
 30 
0.0
 0 
VERTEX
 8 
1
 10 
0.99792
 20 
0.49468
 30 
0.0
 0 
VERTEX
 8 
1
 10 
0.9966
 20 
0.49359
 30 
0.0
 0 
VERTEX
 8 
1
 10 
0.99501
 20 
0.49251
 30 
0.0
 0 
VERTEX
 8 
1
 10 
0.99214
 20 
0.49091
 30 
0.0
 0 
VERTEX
 8 
1
 10 
0.98309
 20 
0.48708
 30 
0.0
 0 
VERTEX
 8 
1
 10 
0.96568
 20 
0.48207
 30 
0.0
 0 
VERTEX
 8 
1
 10 
0.94282
 20 
0.47746
 30 
0.0
 0 
VERTEX
 8 
1
 10 
0.9148
 20 
0.47324
 30 
0.0
 0 
VERTEX
 8 
1
 10 
0.88188
 20 
0.46931
 30 
0.0
 0 
VERTEX
 8 
1
 10 
0.84455
 20 
0.46553
 30 
0.0
 0 
VERTEX
 8 
1
 10 
0.80341
 20 
0.46186
 30 
0.0
 0 
VERTEX
 8 
1
 10 
0.75908
 20 
0.45838
 30 
0.0
 0 
VERTEX
 8 
1
 10 
0.71216
 20 
0.45521
 30 
0.0
 0 
VERTEX
 8 
1
 10 
0.66321
 20 
0.45249
 30 
0.0
 0 
VERTEX
 8 
1
 10 
0.61275
 20 
0.45031
 30 
0.0
 0 
VERTEX
 8 
1
 10 
0.56132
 20 
0.44874
 30 
0.0
 0 
VERTEX
 8 
1
 10 
0.50948
 20 
0.44783
 30 
0.0
 0 
VERTEX
 8 
1
 10 
0.45779
 20 
0.44762
 30 
0.0
 0 
VERTEX
 8 
1
 10 
0.40681
 20 
0.44812
 30 
0.0
 0 
VERTEX
 8 
1
 10 
0.3571
 20 
0.44936
 30 
0.0
 0 
VERTEX
 8 
1
 10 
0.30918
 20 
0.45136
 30 
0.0
 0 
VERTEX
 8 
1
 10 
0.2636
 20 
0.45415
 30 
0.0
 0 
VERTEX
 8 
1
 10 
0.22085
 20 
0.45775
 30 
0.0
 0 
VERTEX
 8 
1
 10 
0.18145
 20 
0.46238
 30 
0.0
 0 
VERTEX
 8 
1
 10 
0.14539
 20 
0.46844
 30 
0.0
 0 
VERTEX
 8 
1
 10 
0.11212
 20 
0.47561
 30 
0.0
 0 
VERTEX
 8 
1
 10 
0.08168
 20 
0.48281
 30 
0.0
 0 
VERTEX
 8 
1
 10 
0.05481
 20 
0.48918
 30 
0.0
 0 
VERTEX
 8 
1
 10 
0.03232
 20 
0.49431
 30 
0.0
 0 
VERTEX
 8 
1
 10 
0.015
 20 
0.49782
 30 
0.0
 0 
VERTEX
 8 
1
 10 
0.0038700
 20 
0.50044
 30 
0.0
 0 
VERTEX
 8 
1
 10 
0.0
 20 
0.5
 30 
0.0
 0 
SEQEND
 8 
1
 0 
ENDSEC
 0 
EOF
