 0 
SECTION
 2 
ENTITIES
 0 
POLYLINE
 8 
1
 66 
 1 
 10 
0.0
 20 
0.0
 30 
0.0
 0 
VERTEX
 8 
1
 10 
0.0
 20 
0.5
 30 
0.0
 0 
VERTEX
 8 
1
 10 
0.0036699
 20 
0.50039
 30 
0.0
 0 
VERTEX
 8 
1
 10 
0.01417
 20 
0.50184
 30 
0.0
 0 
VERTEX
 8 
1
 10 
0.03055
 20 
0.50443
 30 
0.0
 0 
VERTEX
 8 
1
 10 
0.0523
 20 
0.50769
 30 
0.0
 0 
VERTEX
 8 
1
 10 
0.079370
 20 
0.51139
 30 
0.0
 0 
VERTEX
 8 
1
 10 
0.11151
 20 
0.5157
 30 
0.0
 0 
VERTEX
 8 
1
 10 
0.14817
 20 
0.52068
 30 
0.0
 0 
VERTEX
 8 
1
 10 
0.18876
 20 
0.52631
 30 
0.0
 0 
VERTEX
 8 
1
 10 
0.23264
 20 
0.53246
 30 
0.0
 0 
VERTEX
 8 
1
 10 
0.27916
 20 
0.53906
 30 
0.0
 0 
VERTEX
 8 
1
 10 
0.32765
 20 
0.54583
 30 
0.0
 0 
VERTEX
 8 
1
 10 
0.37746
 20 
0.55257
 30 
0.0
 0 
VERTEX
 8 
1
 10 
0.42794
 20 
0.55903
 30 
0.0
 0 
VERTEX
 8 
1
 10 
0.47849
 20 
0.56491
 30 
0.0
 0 
VERTEX
 8 
1
 10 
0.52854
 20 
0.56985
 30 
0.0
 0 
VERTEX
 8 
1
 10 
0.5777
 20 
0.57346
 30 
0.0
 0 
VERTEX
 8 
1
 10 
0.6258
 20 
0.57555
 30 
0.0
 0 
VERTEX
 8 
1
 10 
0.67258
 20 
0.57613
 30 
0.0
 0 
VERTEX
 8 
1
 10 
0.71778
 20 
0.5753
 30 
0.0
 0 
VERTEX
 8 
1
 10 
0.76101
 20 
0.57327
 30 
0.0
 0 
VERTEX
 8 
1
 10 
0.80178
 20 
0.57021
 30 
0.0
 0 
VERTEX
 8 
1
 10 
0.83961
 20 
0.5662
 30 
0.0
 0 
VERTEX
 8 
1
 10 
0.87407
 20 
0.56134
 30 
0.0
 0 
VERTEX
 8 
1
 10 
0.90473
 20 
0.55569
 30 
0.0
 0 
VERTEX
 8 
1
 10 
0.93118
 20 
0.54925
 30 
0.0
 0 
VERTEX
 8 
1
 10 
0.95321
 20 
0.54187
 30 
0.0
 0 
VERTEX
 8 
1
 10 
0.9709
 20 
0.53355
 30 
0.0
 0 
VERTEX
 8 
1
 10 
0.98435
 20 
0.52456
 30 
0.0
 0 
VERTEX
 8 
1
 10 
0.99361
 20 
0.51527
 30 
0.0
 0 
VERTEX
 8 
1
 10 
0.99882
 20 
0.50622
 30 
0.0
 0 
VERTEX
 8 
1
 10 
0.9996
 20 
0.50351
 30 
0.0
 0 
VERTEX
 8 
1
 10 
0.99996
 20 
0.50105
 30 
0.0
 0 
VERTEX
 8 
1
 10 
0.99999
 20 
0.49949
 30 
0.0
 0 
VERTEX
 8 
1
 10 
0.99984
 20 
0.49803
 30 
0.0
 0 
VERTEX
 8 
1
 10 
0.9997
 20 
0.49734
 30 
0.0
 0 
VERTEX
 8 
1
 10 
0.99951
 20 
0.49669
 30 
0.0
 0 
VERTEX
 8 
1
 10 
0.99924
 20 
0.49608
 30 
0.0
 0 
VERTEX
 8 
1
 10 
0.99889
 20 
0.49551
 30 
0.0
 0 
VERTEX
 8 
1
 10 
0.99845
 20 
0.49494
 30 
0.0
 0 
VERTEX
 8 
1
 10 
0.99793
 20 
0.49437
 30 
0.0
 0 
VERTEX
 8 
1
 10 
0.99668
 20 
0.49323
 30 
0.0
 0 
VERTEX
 8 
1
 10 
0.99517
 20 
0.49209
 30 
0.0
 0 
VERTEX
 8 
1
 10 
0.99247
 20 
0.49039
 30 
0.0
 0 
VERTEX
 8 
1
 10 
0.98444
 20 
0.48653
 30 
0.0
 0 
VERTEX
 8 
1
 10 
0.96823
 20 
0.4812
 30 
0.0
 0 
VERTEX
 8 
1
 10 
0.94678
 20 
0.4763
 30 
0.0
 0 
VERTEX
 8 
1
 10 
0.92038
 20 
0.47178
 30 
0.0
 0 
VERTEX
 8 
1
 10 
0.88938
 20 
0.46766
 30 
0.0
 0 
VERTEX
 8 
1
 10 
0.85417
 20 
0.46397
 30 
0.0
 0 
VERTEX
 8 
1
 10 
0.81516
 20 
0.46075
 30 
0.0
 0 
VERTEX
 8 
1
 10 
0.77282
 20 
0.45804
 30 
0.0
 0 
VERTEX
 8 
1
 10 
0.72762
 20 
0.45588
 30 
0.0
 0 
VERTEX
 8 
1
 10 
0.68008
 20 
0.45429
 30 
0.0
 0 
VERTEX
 8 
1
 10 
0.63075
 20 
0.45332
 30 
0.0
 0 
VERTEX
 8 
1
 10 
0.58017
 20 
0.453
 30 
0.0
 0 
VERTEX
 8 
1
 10 
0.52893
 20 
0.45337
 30 
0.0
 0 
VERTEX
 8 
1
 10 
0.4776
 20 
0.45451
 30 
0.0
 0 
VERTEX
 8 
1
 10 
0.42668
 20 
0.45655
 30 
0.0
 0 
VERTEX
 8 
1
 10 
0.37653
 20 
0.45949
 30 
0.0
 0 
VERTEX
 8 
1
 10 
0.32756
 20 
0.46328
 30 
0.0
 0 
VERTEX
 8 
1
 10 
0.28016
 20 
0.46778
 30 
0.0
 0 
VERTEX
 8 
1
 10 
0.23469
 20 
0.47282
 30 
0.0
 0 
VERTEX
 8 
1
 10 
0.19152
 20 
0.47808
 30 
0.0
 0 
VERTEX
 8 
1
 10 
0.15118
 20 
0.48315
 30 
0.0
 0 
VERTEX
 8 
1
 10 
0.11434
 20 
0.48772
 30 
0.0
 0 
VERTEX
 8 
1
 10 
0.08168
 20 
0.49163
 30 
0.0
 0 
VERTEX
 8 
1
 10 
0.05381
 20 
0.49481
 30 
0.0
 0 
VERTEX
 8 
1
 10 
0.03123
 20 
0.4973
 30 
0.0
 0 
VERTEX
 8 
1
 10 
0.01433
 20 
0.49901
 30 
0.0
 0 
VERTEX
 8 
1
 10 
0.0036699
 20 
0.49982
 30 
0.0
 0 
VERTEX
 8 
1
 10 
0.0
 20 
0.5
 30 
0.0
 0 
SEQEND
 8 
1
 0 
ENDSEC
 0 
EOF
