 0 
SECTION
 2 
ENTITIES
 0 
POLYLINE
 8 
1
 66 
 1 
 10 
0.0
 20 
0.0
 30 
0.0
 0 
VERTEX
 8 
1
 10 
0.0
 20 
0.5
 30 
0.0
 0 
VERTEX
 8 
1
 10 
0.0036000
 20 
0.50045
 30 
0.0
 0 
VERTEX
 8 
1
 10 
0.0139
 20 
0.50204
 30 
0.0
 0 
VERTEX
 8 
1
 10 
0.03
 20 
0.50485
 30 
0.0
 0 
VERTEX
 8 
1
 10 
0.05136
 20 
0.50846
 30 
0.0
 0 
VERTEX
 8 
1
 10 
0.07786
 20 
0.51264
 30 
0.0
 0 
VERTEX
 8 
1
 10 
0.10922
 20 
0.51747
 30 
0.0
 0 
VERTEX
 8 
1
 10 
0.14492
 20 
0.52297
 30 
0.0
 0 
VERTEX
 8 
1
 10 
0.1844
 20 
0.52905
 30 
0.0
 0 
VERTEX
 8 
1
 10 
0.22707
 20 
0.5356
 30 
0.0
 0 
VERTEX
 8 
1
 10 
0.27231
 20 
0.54246
 30 
0.0
 0 
VERTEX
 8 
1
 10 
0.31947
 20 
0.54944
 30 
0.0
 0 
VERTEX
 8 
1
 10 
0.3679
 20 
0.55629
 30 
0.0
 0 
VERTEX
 8 
1
 10 
0.41691
 20 
0.56269
 30 
0.0
 0 
VERTEX
 8 
1
 10 
0.46602
 20 
0.56821
 30 
0.0
 0 
VERTEX
 8 
1
 10 
0.51489
 20 
0.57252
 30 
0.0
 0 
VERTEX
 8 
1
 10 
0.56318
 20 
0.57544
 30 
0.0
 0 
VERTEX
 8 
1
 10 
0.61061
 20 
0.57685
 30 
0.0
 0 
VERTEX
 8 
1
 10 
0.65688
 20 
0.5767
 30 
0.0
 0 
VERTEX
 8 
1
 10 
0.70176
 20 
0.57507
 30 
0.0
 0 
VERTEX
 8 
1
 10 
0.7449
 20 
0.57217
 30 
0.0
 0 
VERTEX
 8 
1
 10 
0.78585
 20 
0.56817
 30 
0.0
 0 
VERTEX
 8 
1
 10 
0.82417
 20 
0.56319
 30 
0.0
 0 
VERTEX
 8 
1
 10 
0.85947
 20 
0.55734
 30 
0.0
 0 
VERTEX
 8 
1
 10 
0.8914
 20 
0.55073
 30 
0.0
 0 
VERTEX
 8 
1
 10 
0.91964
 20 
0.54351
 30 
0.0
 0 
VERTEX
 8 
1
 10 
0.94395
 20 
0.53581
 30 
0.0
 0 
VERTEX
 8 
1
 10 
0.96411
 20 
0.52781
 30 
0.0
 0 
VERTEX
 8 
1
 10 
0.97996
 20 
0.51973
 30 
0.0
 0 
VERTEX
 8 
1
 10 
0.99138
 20 
0.51186
 30 
0.0
 0 
VERTEX
 8 
1
 10 
0.99822
 20 
0.50459
 30 
0.0
 0 
VERTEX
 8 
1
 10 
0.99986
 20 
0.49879
 30 
0.0
 0 
VERTEX
 8 
1
 10 
0.99563
 20 
0.49378
 30 
0.0
 0 
VERTEX
 8 
1
 10 
0.98573
 20 
0.4887
 30 
0.0
 0 
VERTEX
 8 
1
 10 
0.97065
 20 
0.484
 30 
0.0
 0 
VERTEX
 8 
1
 10 
0.95051
 20 
0.47985
 30 
0.0
 0 
VERTEX
 8 
1
 10 
0.92546
 20 
0.47631
 30 
0.0
 0 
VERTEX
 8 
1
 10 
0.89572
 20 
0.4734
 30 
0.0
 0 
VERTEX
 8 
1
 10 
0.86155
 20 
0.4711
 30 
0.0
 0 
VERTEX
 8 
1
 10 
0.82331
 20 
0.4694
 30 
0.0
 0 
VERTEX
 8 
1
 10 
0.78139
 20 
0.46825
 30 
0.0
 0 
VERTEX
 8 
1
 10 
0.73626
 20 
0.46762
 30 
0.0
 0 
VERTEX
 8 
1
 10 
0.68842
 20 
0.46745
 30 
0.0
 0 
VERTEX
 8 
1
 10 
0.63841
 20 
0.46772
 30 
0.0
 0 
VERTEX
 8 
1
 10 
0.5868
 20 
0.46837
 30 
0.0
 0 
VERTEX
 8 
1
 10 
0.5342
 20 
0.46936
 30 
0.0
 0 
VERTEX
 8 
1
 10 
0.48123
 20 
0.47069
 30 
0.0
 0 
VERTEX
 8 
1
 10 
0.4285
 20 
0.47233
 30 
0.0
 0 
VERTEX
 8 
1
 10 
0.37664
 20 
0.47431
 30 
0.0
 0 
VERTEX
 8 
1
 10 
0.32618
 20 
0.47667
 30 
0.0
 0 
VERTEX
 8 
1
 10 
0.27757
 20 
0.47941
 30 
0.0
 0 
VERTEX
 8 
1
 10 
0.23127
 20 
0.4824
 30 
0.0
 0 
VERTEX
 8 
1
 10 
0.18772
 20 
0.4855
 30 
0.0
 0 
VERTEX
 8 
1
 10 
0.14746
 20 
0.48847
 30 
0.0
 0 
VERTEX
 8 
1
 10 
0.11108
 20 
0.49118
 30 
0.0
 0 
VERTEX
 8 
1
 10 
0.079150
 20 
0.49357
 30 
0.0
 0 
VERTEX
 8 
1
 10 
0.052170
 20 
0.49568
 30 
0.0
 0 
VERTEX
 8 
1
 10 
0.03042
 20 
0.49759
 30 
0.0
 0 
VERTEX
 8 
1
 10 
0.01406
 20 
0.49909
 30 
0.0
 0 
VERTEX
 8 
1
 10 
0.0036300
 20 
0.49984
 30 
0.0
 0 
VERTEX
 8 
1
 10 
0.0
 20 
0.5
 30 
0.0
 0 
SEQEND
 8 
1
 0 
ENDSEC
 0 
EOF
