 0 
SECTION
 2 
ENTITIES
 0 
POLYLINE
 8 
1
 66 
 1 
 10 
0.0
 20 
0.0
 30 
0.0
 0 
VERTEX
 8 
1
 10 
0.0
 20 
0.5
 30 
0.0
 0 
VERTEX
 8 
1
 10 
0.0029299
 20 
0.50024
 30 
0.0
 0 
VERTEX
 8 
1
 10 
0.01173
 20 
0.501
 30 
0.0
 0 
VERTEX
 8 
1
 10 
0.02638
 20 
0.5024
 30 
0.0
 0 
VERTEX
 8 
1
 10 
0.04667
 20 
0.50469
 30 
0.0
 0 
VERTEX
 8 
1
 10 
0.07217
 20 
0.50797
 30 
0.0
 0 
VERTEX
 8 
1
 10 
0.1024
 20 
0.51219
 30 
0.0
 0 
VERTEX
 8 
1
 10 
0.13692
 20 
0.51727
 30 
0.0
 0 
VERTEX
 8 
1
 10 
0.17524
 20 
0.52312
 30 
0.0
 0 
VERTEX
 8 
1
 10 
0.21682
 20 
0.52964
 30 
0.0
 0 
VERTEX
 8 
1
 10 
0.26112
 20 
0.5367
 30 
0.0
 0 
VERTEX
 8 
1
 10 
0.30753
 20 
0.54413
 30 
0.0
 0 
VERTEX
 8 
1
 10 
0.35545
 20 
0.55177
 30 
0.0
 0 
VERTEX
 8 
1
 10 
0.40426
 20 
0.5594
 30 
0.0
 0 
VERTEX
 8 
1
 10 
0.45332
 20 
0.5668
 30 
0.0
 0 
VERTEX
 8 
1
 10 
0.50202
 20 
0.57368
 30 
0.0
 0 
VERTEX
 8 
1
 10 
0.54973
 20 
0.57968
 30 
0.0
 0 
VERTEX
 8 
1
 10 
0.59604
 20 
0.5843
 30 
0.0
 0 
VERTEX
 8 
1
 10 
0.64084
 20 
0.58726
 30 
0.0
 0 
VERTEX
 8 
1
 10 
0.68389
 20 
0.58841
 30 
0.0
 0 
VERTEX
 8 
1
 10 
0.72504
 20 
0.58772
 30 
0.0
 0 
VERTEX
 8 
1
 10 
0.76414
 20 
0.58521
 30 
0.0
 0 
VERTEX
 8 
1
 10 
0.80108
 20 
0.58105
 30 
0.0
 0 
VERTEX
 8 
1
 10 
0.83565
 20 
0.57554
 30 
0.0
 0 
VERTEX
 8 
1
 10 
0.86752
 20 
0.56894
 30 
0.0
 0 
VERTEX
 8 
1
 10 
0.89638
 20 
0.56144
 30 
0.0
 0 
VERTEX
 8 
1
 10 
0.92199
 20 
0.55325
 30 
0.0
 0 
VERTEX
 8 
1
 10 
0.94414
 20 
0.54457
 30 
0.0
 0 
VERTEX
 8 
1
 10 
0.96266
 20 
0.53563
 30 
0.0
 0 
VERTEX
 8 
1
 10 
0.97745
 20 
0.52666
 30 
0.0
 0 
VERTEX
 8 
1
 10 
0.98847
 20 
0.51795
 30 
0.0
 0 
VERTEX
 8 
1
 10 
0.99574
 20 
0.50985
 30 
0.0
 0 
VERTEX
 8 
1
 10 
0.99936
 20 
0.50285
 30 
0.0
 0 
VERTEX
 8 
1
 10 
0.99945
 20 
0.49799
 30 
0.0
 0 
VERTEX
 8 
1
 10 
0.99479
 20 
0.49577
 30 
0.0
 0 
VERTEX
 8 
1
 10 
0.98472
 20 
0.49576
 30 
0.0
 0 
VERTEX
 8 
1
 10 
0.96973
 20 
0.49828
 30 
0.0
 0 
VERTEX
 8 
1
 10 
0.94926
 20 
0.50378
 30 
0.0
 0 
VERTEX
 8 
1
 10 
0.92267
 20 
0.51224
 30 
0.0
 0 
VERTEX
 8 
1
 10 
0.88924
 20 
0.52329
 30 
0.0
 0 
VERTEX
 8 
1
 10 
0.84845
 20 
0.53606
 30 
0.0
 0 
VERTEX
 8 
1
 10 
0.80005
 20 
0.54932
 30 
0.0
 0 
VERTEX
 8 
1
 10 
0.74428
 20 
0.56148
 30 
0.0
 0 
VERTEX
 8 
1
 10 
0.68187
 20 
0.57052
 30 
0.0
 0 
VERTEX
 8 
1
 10 
0.61534
 20 
0.57414
 30 
0.0
 0 
VERTEX
 8 
1
 10 
0.54867
 20 
0.57232
 30 
0.0
 0 
VERTEX
 8 
1
 10 
0.48413
 20 
0.56724
 30 
0.0
 0 
VERTEX
 8 
1
 10 
0.42223
 20 
0.56038
 30 
0.0
 0 
VERTEX
 8 
1
 10 
0.36343
 20 
0.55253
 30 
0.0
 0 
VERTEX
 8 
1
 10 
0.3081
 20 
0.54428
 30 
0.0
 0 
VERTEX
 8 
1
 10 
0.25661
 20 
0.53607
 30 
0.0
 0 
VERTEX
 8 
1
 10 
0.20927
 20 
0.52825
 30 
0.0
 0 
VERTEX
 8 
1
 10 
0.16637
 20 
0.5211
 30 
0.0
 0 
VERTEX
 8 
1
 10 
0.12814
 20 
0.51481
 30 
0.0
 0 
VERTEX
 8 
1
 10 
0.09478
 20 
0.50956
 30 
0.0
 0 
VERTEX
 8 
1
 10 
0.066440
 20 
0.50545
 30 
0.0
 0 
VERTEX
 8 
1
 10 
0.04322
 20 
0.50259
 30 
0.0
 0 
VERTEX
 8 
1
 10 
0.02496
 20 
0.50105
 30 
0.0
 0 
VERTEX
 8 
1
 10 
0.01144
 20 
0.50043
 30 
0.0
 0 
VERTEX
 8 
1
 10 
0.0029299
 20 
0.50013
 30 
0.0
 0 
VERTEX
 8 
1
 10 
0.0
 20 
0.5
 30 
0.0
 0 
SEQEND
 8 
1
 0 
ENDSEC
 0 
EOF
