 0 
SECTION
 2 
ENTITIES
 0 
POLYLINE
 8 
1
 66 
 1 
 10 
0.0
 20 
0.0
 30 
0.0
 0 
VERTEX
 8 
1
 10 
0.0
 20 
0.5
 30 
0.0
 0 
VERTEX
 8 
1
 10 
0.00305
 20 
0.5008
 30 
0.0
 0 
VERTEX
 8 
1
 10 
0.01196
 20 
0.50321
 30 
0.0
 0 
VERTEX
 8 
1
 10 
0.02616
 20 
0.50716
 30 
0.0
 0 
VERTEX
 8 
1
 10 
0.0452
 20 
0.51231
 30 
0.0
 0 
VERTEX
 8 
1
 10 
0.068829
 20 
0.51826
 30 
0.0
 0 
VERTEX
 8 
1
 10 
0.096910
 20 
0.52481
 30 
0.0
 0 
VERTEX
 8 
1
 10 
0.12916
 20 
0.53193
 30 
0.0
 0 
VERTEX
 8 
1
 10 
0.16512
 20 
0.53952
 30 
0.0
 0 
VERTEX
 8 
1
 10 
0.20431
 20 
0.54744
 30 
0.0
 0 
VERTEX
 8 
1
 10 
0.24624
 20 
0.55551
 30 
0.0
 0 
VERTEX
 8 
1
 10 
0.29035
 20 
0.56356
 30 
0.0
 0 
VERTEX
 8 
1
 10 
0.3361
 20 
0.57137
 30 
0.0
 0 
VERTEX
 8 
1
 10 
0.38291
 20 
0.57871
 30 
0.0
 0 
VERTEX
 8 
1
 10 
0.43019
 20 
0.58527
 30 
0.0
 0 
VERTEX
 8 
1
 10 
0.47751
 20 
0.59067
 30 
0.0
 0 
VERTEX
 8 
1
 10 
0.52455
 20 
0.59464
 30 
0.0
 0 
VERTEX
 8 
1
 10 
0.57102
 20 
0.59703
 30 
0.0
 0 
VERTEX
 8 
1
 10 
0.61663
 20 
0.59773
 30 
0.0
 0 
VERTEX
 8 
1
 10 
0.66113
 20 
0.59672
 30 
0.0
 0 
VERTEX
 8 
1
 10 
0.70429
 20 
0.59409
 30 
0.0
 0 
VERTEX
 8 
1
 10 
0.74581
 20 
0.59005
 30 
0.0
 0 
VERTEX
 8 
1
 10 
0.78525
 20 
0.5848
 30 
0.0
 0 
VERTEX
 8 
1
 10 
0.82224
 20 
0.57846
 30 
0.0
 0 
VERTEX
 8 
1
 10 
0.85642
 20 
0.57118
 30 
0.0
 0 
VERTEX
 8 
1
 10 
0.88747
 20 
0.56312
 30 
0.0
 0 
VERTEX
 8 
1
 10 
0.9151
 20 
0.55442
 30 
0.0
 0 
VERTEX
 8 
1
 10 
0.9391
 20 
0.54528
 30 
0.0
 0 
VERTEX
 8 
1
 10 
0.95927
 20 
0.5359
 30 
0.0
 0 
VERTEX
 8 
1
 10 
0.9755
 20 
0.52652
 30 
0.0
 0 
VERTEX
 8 
1
 10 
0.98767
 20 
0.51745
 30 
0.0
 0 
VERTEX
 8 
1
 10 
0.99576
 20 
0.50903
 30 
0.0
 0 
VERTEX
 8 
1
 10 
0.99975
 20 
0.50182
 30 
0.0
 0 
VERTEX
 8 
1
 10 
0.99888
 20 
0.4969
 30 
0.0
 0 
VERTEX
 8 
1
 10 
0.99232
 20 
0.49389
 30 
0.0
 0 
VERTEX
 8 
1
 10 
0.98004
 20 
0.49205
 30 
0.0
 0 
VERTEX
 8 
1
 10 
0.96215
 20 
0.49152
 30 
0.0
 0 
VERTEX
 8 
1
 10 
0.93869
 20 
0.49221
 30 
0.0
 0 
VERTEX
 8 
1
 10 
0.90977
 20 
0.49393
 30 
0.0
 0 
VERTEX
 8 
1
 10 
0.87562
 20 
0.49646
 30 
0.0
 0 
VERTEX
 8 
1
 10 
0.8366
 20 
0.4996
 30 
0.0
 0 
VERTEX
 8 
1
 10 
0.79313
 20 
0.50313
 30 
0.0
 0 
VERTEX
 8 
1
 10 
0.74571
 20 
0.50684
 30 
0.0
 0 
VERTEX
 8 
1
 10 
0.69493
 20 
0.51053
 30 
0.0
 0 
VERTEX
 8 
1
 10 
0.64142
 20 
0.51402
 30 
0.0
 0 
VERTEX
 8 
1
 10 
0.58587
 20 
0.51714
 30 
0.0
 0 
VERTEX
 8 
1
 10 
0.529
 20 
0.51978
 30 
0.0
 0 
VERTEX
 8 
1
 10 
0.47158
 20 
0.52181
 30 
0.0
 0 
VERTEX
 8 
1
 10 
0.41436
 20 
0.52316
 30 
0.0
 0 
VERTEX
 8 
1
 10 
0.35813
 20 
0.52378
 30 
0.0
 0 
VERTEX
 8 
1
 10 
0.30364
 20 
0.52366
 30 
0.0
 0 
VERTEX
 8 
1
 10 
0.25163
 20 
0.5228
 30 
0.0
 0 
VERTEX
 8 
1
 10 
0.20282
 20 
0.52125
 30 
0.0
 0 
VERTEX
 8 
1
 10 
0.1579
 20 
0.51906
 30 
0.0
 0 
VERTEX
 8 
1
 10 
0.1175
 20 
0.51633
 30 
0.0
 0 
VERTEX
 8 
1
 10 
0.08221
 20 
0.51317
 30 
0.0
 0 
VERTEX
 8 
1
 10 
0.05257
 20 
0.50968
 30 
0.0
 0 
VERTEX
 8 
1
 10 
0.02924
 20 
0.50603
 30 
0.0
 0 
VERTEX
 8 
1
 10 
0.01278
 20 
0.50281
 30 
0.0
 0 
VERTEX
 8 
1
 10 
0.0031499
 20 
0.5007
 30 
0.0
 0 
VERTEX
 8 
1
 10 
0.0
 20 
0.5
 30 
0.0
 0 
SEQEND
 8 
1
 0 
ENDSEC
 0 
EOF
