 0 
SECTION
 2 
ENTITIES
 0 
POLYLINE
 8 
1
 66 
 1 
 10 
0.0
 20 
0.0
 30 
0.0
 0 
VERTEX
 8 
1
 10 
0.0
 20 
0.5
 30 
0.0
 0 
VERTEX
 8 
1
 10 
0.0032799
 20 
0.50074
 30 
0.0
 0 
VERTEX
 8 
1
 10 
0.01278
 20 
0.50307
 30 
0.0
 0 
VERTEX
 8 
1
 10 
0.02781
 20 
0.50697
 30 
0.0
 0 
VERTEX
 8 
1
 10 
0.04779
 20 
0.51207
 30 
0.0
 0 
VERTEX
 8 
1
 10 
0.07243
 20 
0.51791
 30 
0.0
 0 
VERTEX
 8 
1
 10 
0.10163
 20 
0.52429
 30 
0.0
 0 
VERTEX
 8 
1
 10 
0.13509
 20 
0.53122
 30 
0.0
 0 
VERTEX
 8 
1
 10 
0.17233
 20 
0.53863
 30 
0.0
 0 
VERTEX
 8 
1
 10 
0.21282
 20 
0.54637
 30 
0.0
 0 
VERTEX
 8 
1
 10 
0.25603
 20 
0.5543
 30 
0.0
 0 
VERTEX
 8 
1
 10 
0.30138
 20 
0.56222
 30 
0.0
 0 
VERTEX
 8 
1
 10 
0.34827
 20 
0.56993
 30 
0.0
 0 
VERTEX
 8 
1
 10 
0.39611
 20 
0.57719
 30 
0.0
 0 
VERTEX
 8 
1
 10 
0.44427
 20 
0.58368
 30 
0.0
 0 
VERTEX
 8 
1
 10 
0.49229
 20 
0.58898
 30 
0.0
 0 
VERTEX
 8 
1
 10 
0.53988
 20 
0.59284
 30 
0.0
 0 
VERTEX
 8 
1
 10 
0.58672
 20 
0.59506
 30 
0.0
 0 
VERTEX
 8 
1
 10 
0.63254
 20 
0.59558
 30 
0.0
 0 
VERTEX
 8 
1
 10 
0.67708
 20 
0.59434
 30 
0.0
 0 
VERTEX
 8 
1
 10 
0.72011
 20 
0.59146
 30 
0.0
 0 
VERTEX
 8 
1
 10 
0.76134
 20 
0.58716
 30 
0.0
 0 
VERTEX
 8 
1
 10 
0.80033
 20 
0.58165
 30 
0.0
 0 
VERTEX
 8 
1
 10 
0.83669
 20 
0.57505
 30 
0.0
 0 
VERTEX
 8 
1
 10 
0.87007
 20 
0.56753
 30 
0.0
 0 
VERTEX
 8 
1
 10 
0.90012
 20 
0.55923
 30 
0.0
 0 
VERTEX
 8 
1
 10 
0.92659
 20 
0.55034
 30 
0.0
 0 
VERTEX
 8 
1
 10 
0.94923
 20 
0.54102
 30 
0.0
 0 
VERTEX
 8 
1
 10 
0.96786
 20 
0.5315
 30 
0.0
 0 
VERTEX
 8 
1
 10 
0.98233
 20 
0.52201
 30 
0.0
 0 
VERTEX
 8 
1
 10 
0.9926
 20 
0.51288
 30 
0.0
 0 
VERTEX
 8 
1
 10 
0.99855
 20 
0.50463
 30 
0.0
 0 
VERTEX
 8 
1
 10 
1
 20 
0.5
 30 
0.0
 0 
VERTEX
 8 
1
 10 
0.99974
 20 
0.49825
 30 
0.0
 0 
VERTEX
 8 
1
 10 
0.9951
 20 
0.49324
 30 
0.0
 0 
VERTEX
 8 
1
 10 
0.98447
 20 
0.48857
 30 
0.0
 0 
VERTEX
 8 
1
 10 
0.96855
 20 
0.48456
 30 
0.0
 0 
VERTEX
 8 
1
 10 
0.9475
 20 
0.48131
 30 
0.0
 0 
VERTEX
 8 
1
 10 
0.92148
 20 
0.47884
 30 
0.0
 0 
VERTEX
 8 
1
 10 
0.89074
 20 
0.47714
 30 
0.0
 0 
VERTEX
 8 
1
 10 
0.8556
 20 
0.47616
 30 
0.0
 0 
VERTEX
 8 
1
 10 
0.81643
 20 
0.47588
 30 
0.0
 0 
VERTEX
 8 
1
 10 
0.77369
 20 
0.47625
 30 
0.0
 0 
VERTEX
 8 
1
 10 
0.72786
 20 
0.47726
 30 
0.0
 0 
VERTEX
 8 
1
 10 
0.67949
 20 
0.47893
 30 
0.0
 0 
VERTEX
 8 
1
 10 
0.62903
 20 
0.48139
 30 
0.0
 0 
VERTEX
 8 
1
 10 
0.5768
 20 
0.4846
 30 
0.0
 0 
VERTEX
 8 
1
 10 
0.52319
 20 
0.4884
 30 
0.0
 0 
VERTEX
 8 
1
 10 
0.46863
 20 
0.4925
 30 
0.0
 0 
VERTEX
 8 
1
 10 
0.41372
 20 
0.49651
 30 
0.0
 0 
VERTEX
 8 
1
 10 
0.35925
 20 
0.50014
 30 
0.0
 0 
VERTEX
 8 
1
 10 
0.30603
 20 
0.5032
 30 
0.0
 0 
VERTEX
 8 
1
 10 
0.25483
 20 
0.50558
 30 
0.0
 0 
VERTEX
 8 
1
 10 
0.20641
 20 
0.50719
 30 
0.0
 0 
VERTEX
 8 
1
 10 
0.16153
 20 
0.50799
 30 
0.0
 0 
VERTEX
 8 
1
 10 
0.12089
 20 
0.50801
 30 
0.0
 0 
VERTEX
 8 
1
 10 
0.08514
 20 
0.50729
 30 
0.0
 0 
VERTEX
 8 
1
 10 
0.05491
 20 
0.5059
 30 
0.0
 0 
VERTEX
 8 
1
 10 
0.03088
 20 
0.50398
 30 
0.0
 0 
VERTEX
 8 
1
 10 
0.013650
 20 
0.50198
 30 
0.0
 0 
VERTEX
 8 
1
 10 
0.00339
 20 
0.50052
 30 
0.0
 0 
VERTEX
 8 
1
 10 
0.0
 20 
0.5
 30 
0.0
 0 
SEQEND
 8 
1
 0 
ENDSEC
 0 
EOF
