 0 
SECTION
 2 
ENTITIES
 0 
POLYLINE
 8 
1
 66 
 1 
 10 
0.0
 20 
0.0
 30 
0.0
 0 
VERTEX
 8 
1
 10 
0.0
 20 
0.5
 30 
0.0
 0 
VERTEX
 8 
1
 10 
0.0033100
 20 
0.50108
 30 
0.0
 0 
VERTEX
 8 
1
 10 
0.01266
 20 
0.5044
 30 
0.0
 0 
VERTEX
 8 
1
 10 
0.02702
 20 
0.5096
 30 
0.0
 0 
VERTEX
 8 
1
 10 
0.04605
 20 
0.51584
 30 
0.0
 0 
VERTEX
 8 
1
 10 
0.06987
 20 
0.52277
 30 
0.0
 0 
VERTEX
 8 
1
 10 
0.09832
 20 
0.53048
 30 
0.0
 0 
VERTEX
 8 
1
 10 
0.13089
 20 
0.53894
 30 
0.0
 0 
VERTEX
 8 
1
 10 
0.16705
 20 
0.54797
 30 
0.0
 0 
VERTEX
 8 
1
 10 
0.20627
 20 
0.55733
 30 
0.0
 0 
VERTEX
 8 
1
 10 
0.248
 20 
0.56678
 30 
0.0
 0 
VERTEX
 8 
1
 10 
0.29169
 20 
0.57601
 30 
0.0
 0 
VERTEX
 8 
1
 10 
0.33683
 20 
0.5847
 30 
0.0
 0 
VERTEX
 8 
1
 10 
0.3829
 20 
0.59248
 30 
0.0
 0 
VERTEX
 8 
1
 10 
0.42955
 20 
0.59897
 30 
0.0
 0 
VERTEX
 8 
1
 10 
0.47654
 20 
0.60395
 30 
0.0
 0 
VERTEX
 8 
1
 10 
0.52355
 20 
0.60732
 30 
0.0
 0 
VERTEX
 8 
1
 10 
0.57024
 20 
0.60904
 30 
0.0
 0 
VERTEX
 8 
1
 10 
0.61625
 20 
0.60908
 30 
0.0
 0 
VERTEX
 8 
1
 10 
0.66124
 20 
0.60748
 30 
0.0
 0 
VERTEX
 8 
1
 10 
0.70484
 20 
0.6043
 30 
0.0
 0 
VERTEX
 8 
1
 10 
0.74669
 20 
0.59967
 30 
0.0
 0 
VERTEX
 8 
1
 10 
0.78642
 20 
0.59372
 30 
0.0
 0 
VERTEX
 8 
1
 10 
0.82364
 20 
0.5866
 30 
0.0
 0 
VERTEX
 8 
1
 10 
0.858
 20 
0.57845
 30 
0.0
 0 
VERTEX
 8 
1
 10 
0.88918
 20 
0.56943
 30 
0.0
 0 
VERTEX
 8 
1
 10 
0.91691
 20 
0.5597
 30 
0.0
 0 
VERTEX
 8 
1
 10 
0.94094
 20 
0.54948
 30 
0.0
 0 
VERTEX
 8 
1
 10 
0.96109
 20 
0.53899
 30 
0.0
 0 
VERTEX
 8 
1
 10 
0.97719
 20 
0.5285
 30 
0.0
 0 
VERTEX
 8 
1
 10 
0.98912
 20 
0.51833
 30 
0.0
 0 
VERTEX
 8 
1
 10 
0.99677
 20 
0.50891
 30 
0.0
 0 
VERTEX
 8 
1
 10 
0.99825
 20 
0.50623
 30 
0.0
 0 
VERTEX
 8 
1
 10 
0.99927
 20 
0.50378
 30 
0.0
 0 
VERTEX
 8 
1
 10 
0.99971
 20 
0.50225
 30 
0.0
 0 
VERTEX
 8 
1
 10 
0.99996
 20 
0.50081
 30 
0.0
 0 
VERTEX
 8 
1
 10 
0.99999
 20 
0.50013
 30 
0.0
 0 
VERTEX
 8 
1
 10 
0.99998
 20 
0.49948
 30 
0.0
 0 
VERTEX
 8 
1
 10 
0.99989
 20 
0.49888
 30 
0.0
 0 
VERTEX
 8 
1
 10 
0.9997
 20 
0.49829
 30 
0.0
 0 
VERTEX
 8 
1
 10 
0.99942
 20 
0.4977
 30 
0.0
 0 
VERTEX
 8 
1
 10 
0.99907
 20 
0.4971
 30 
0.0
 0 
VERTEX
 8 
1
 10 
0.99817
 20 
0.49589
 30 
0.0
 0 
VERTEX
 8 
1
 10 
0.99705
 20 
0.49466
 30 
0.0
 0 
VERTEX
 8 
1
 10 
0.99496
 20 
0.4928
 30 
0.0
 0 
VERTEX
 8 
1
 10 
0.98846
 20 
0.48862
 30 
0.0
 0 
VERTEX
 8 
1
 10 
0.97495
 20 
0.48315
 30 
0.0
 0 
VERTEX
 8 
1
 10 
0.95664
 20 
0.47866
 30 
0.0
 0 
VERTEX
 8 
1
 10 
0.93359
 20 
0.47532
 30 
0.0
 0 
VERTEX
 8 
1
 10 
0.90592
 20 
0.47326
 30 
0.0
 0 
VERTEX
 8 
1
 10 
0.87374
 20 
0.4725
 30 
0.0
 0 
VERTEX
 8 
1
 10 
0.83726
 20 
0.47304
 30 
0.0
 0 
VERTEX
 8 
1
 10 
0.7967
 20 
0.4748
 30 
0.0
 0 
VERTEX
 8 
1
 10 
0.75234
 20 
0.47766
 30 
0.0
 0 
VERTEX
 8 
1
 10 
0.70452
 20 
0.48141
 30 
0.0
 0 
VERTEX
 8 
1
 10 
0.65369
 20 
0.48579
 30 
0.0
 0 
VERTEX
 8 
1
 10 
0.6004
 20 
0.49051
 30 
0.0
 0 
VERTEX
 8 
1
 10 
0.54528
 20 
0.49534
 30 
0.0
 0 
VERTEX
 8 
1
 10 
0.48901
 20 
0.50003
 30 
0.0
 0 
VERTEX
 8 
1
 10 
0.4323
 20 
0.50436
 30 
0.0
 0 
VERTEX
 8 
1
 10 
0.37591
 20 
0.50812
 30 
0.0
 0 
VERTEX
 8 
1
 10 
0.32064
 20 
0.51112
 30 
0.0
 0 
VERTEX
 8 
1
 10 
0.26728
 20 
0.51324
 30 
0.0
 0 
VERTEX
 8 
1
 10 
0.21666
 20 
0.51437
 30 
0.0
 0 
VERTEX
 8 
1
 10 
0.16959
 20 
0.51446
 30 
0.0
 0 
VERTEX
 8 
1
 10 
0.12686
 20 
0.51356
 30 
0.0
 0 
VERTEX
 8 
1
 10 
0.08924
 20 
0.51174
 30 
0.0
 0 
VERTEX
 8 
1
 10 
0.05742
 20 
0.50914
 30 
0.0
 0 
VERTEX
 8 
1
 10 
0.03217
 20 
0.50601
 30 
0.0
 0 
VERTEX
 8 
1
 10 
0.01416
 20 
0.50296
 30 
0.0
 0 
VERTEX
 8 
1
 10 
0.0035100
 20 
0.50078
 30 
0.0
 0 
VERTEX
 8 
1
 10 
0.0
 20 
0.5
 30 
0.0
 0 
SEQEND
 8 
1
 0 
ENDSEC
 0 
EOF
