 0 
SECTION
 2 
ENTITIES
 0 
POLYLINE
 8 
1
 66 
 1 
 10 
0.0
 20 
0.0
 30 
0.0
 0 
VERTEX
 8 
1
 10 
0.0
 20 
0.5
 30 
0.0
 0 
VERTEX
 8 
1
 10 
0.0033999
 20 
0.50107
 30 
0.0
 0 
VERTEX
 8 
1
 10 
0.01303
 20 
0.50439
 30 
0.0
 0 
VERTEX
 8 
1
 10 
0.02785
 20 
0.50967
 30 
0.0
 0 
VERTEX
 8 
1
 10 
0.04745
 20 
0.51612
 30 
0.0
 0 
VERTEX
 8 
1
 10 
0.07191
 20 
0.52343
 30 
0.0
 0 
VERTEX
 8 
1
 10 
0.10099
 20 
0.53168
 30 
0.0
 0 
VERTEX
 8 
1
 10 
0.13413
 20 
0.54082
 30 
0.0
 0 
VERTEX
 8 
1
 10 
0.17075
 20 
0.55063
 30 
0.0
 0 
VERTEX
 8 
1
 10 
0.21029
 20 
0.56084
 30 
0.0
 0 
VERTEX
 8 
1
 10 
0.25218
 20 
0.57116
 30 
0.0
 0 
VERTEX
 8 
1
 10 
0.29585
 20 
0.58124
 30 
0.0
 0 
VERTEX
 8 
1
 10 
0.34079
 20 
0.5907
 30 
0.0
 0 
VERTEX
 8 
1
 10 
0.38649
 20 
0.59912
 30 
0.0
 0 
VERTEX
 8 
1
 10 
0.43262
 20 
0.60606
 30 
0.0
 0 
VERTEX
 8 
1
 10 
0.47899
 20 
0.61123
 30 
0.0
 0 
VERTEX
 8 
1
 10 
0.52541
 20 
0.61453
 30 
0.0
 0 
VERTEX
 8 
1
 10 
0.57161
 20 
0.61597
 30 
0.0
 0 
VERTEX
 8 
1
 10 
0.61726
 20 
0.61559
 30 
0.0
 0 
VERTEX
 8 
1
 10 
0.66203
 20 
0.61349
 30 
0.0
 0 
VERTEX
 8 
1
 10 
0.70551
 20 
0.60982
 30 
0.0
 0 
VERTEX
 8 
1
 10 
0.74729
 20 
0.6047
 30 
0.0
 0 
VERTEX
 8 
1
 10 
0.78697
 20 
0.59827
 30 
0.0
 0 
VERTEX
 8 
1
 10 
0.82414
 20 
0.59065
 30 
0.0
 0 
VERTEX
 8 
1
 10 
0.85847
 20 
0.582
 30 
0.0
 0 
VERTEX
 8 
1
 10 
0.88962
 20 
0.57246
 30 
0.0
 0 
VERTEX
 8 
1
 10 
0.91732
 20 
0.56222
 30 
0.0
 0 
VERTEX
 8 
1
 10 
0.94133
 20 
0.55148
 30 
0.0
 0 
VERTEX
 8 
1
 10 
0.96145
 20 
0.54
 30 
0.0
 0 
VERTEX
 8 
1
 10 
0.97751
 20 
0.52951
 30 
0.0
 0 
VERTEX
 8 
1
 10 
0.98938
 20 
0.51888
 30 
0.0
 0 
VERTEX
 8 
1
 10 
0.99695
 20 
0.50903
 30 
0.0
 0 
VERTEX
 8 
1
 10 
0.99822
 20 
0.50659
 30 
0.0
 0 
VERTEX
 8 
1
 10 
0.99926
 20 
0.50401
 30 
0.0
 0 
VERTEX
 8 
1
 10 
0.99971
 20 
0.50239
 30 
0.0
 0 
VERTEX
 8 
1
 10 
0.99996
 20 
0.50086
 30 
0.0
 0 
VERTEX
 8 
1
 10 
0.99999
 20 
0.50013
 30 
0.0
 0 
VERTEX
 8 
1
 10 
0.99998
 20 
0.49944
 30 
0.0
 0 
VERTEX
 8 
1
 10 
0.99988
 20 
0.49879
 30 
0.0
 0 
VERTEX
 8 
1
 10 
0.99969
 20 
0.49816
 30 
0.0
 0 
VERTEX
 8 
1
 10 
0.99941
 20 
0.49752
 30 
0.0
 0 
VERTEX
 8 
1
 10 
0.99905
 20 
0.49688
 30 
0.0
 0 
VERTEX
 8 
1
 10 
0.99815
 20 
0.49556
 30 
0.0
 0 
VERTEX
 8 
1
 10 
0.99701
 20 
0.49423
 30 
0.0
 0 
VERTEX
 8 
1
 10 
0.9949
 20 
0.49221
 30 
0.0
 0 
VERTEX
 8 
1
 10 
0.98788
 20 
0.48738
 30 
0.0
 0 
VERTEX
 8 
1
 10 
0.97409
 20 
0.48131
 30 
0.0
 0 
VERTEX
 8 
1
 10 
0.95553
 20 
0.47616
 30 
0.0
 0 
VERTEX
 8 
1
 10 
0.9323
 20 
0.47213
 30 
0.0
 0 
VERTEX
 8 
1
 10 
0.90452
 20 
0.46935
 30 
0.0
 0 
VERTEX
 8 
1
 10 
0.87235
 20 
0.46788
 30 
0.0
 0 
VERTEX
 8 
1
 10 
0.836
 20 
0.46775
 30 
0.0
 0 
VERTEX
 8 
1
 10 
0.79569
 20 
0.46892
 30 
0.0
 0 
VERTEX
 8 
1
 10 
0.75169
 20 
0.47132
 30 
0.0
 0 
VERTEX
 8 
1
 10 
0.70432
 20 
0.47478
 30 
0.0
 0 
VERTEX
 8 
1
 10 
0.65395
 20 
0.47905
 30 
0.0
 0 
VERTEX
 8 
1
 10 
0.60112
 20 
0.48384
 30 
0.0
 0 
VERTEX
 8 
1
 10 
0.54642
 20 
0.48889
 30 
0.0
 0 
VERTEX
 8 
1
 10 
0.49051
 20 
0.49394
 30 
0.0
 0 
VERTEX
 8 
1
 10 
0.43408
 20 
0.49874
 30 
0.0
 0 
VERTEX
 8 
1
 10 
0.37781
 20 
0.50308
 30 
0.0
 0 
VERTEX
 8 
1
 10 
0.32269
 20 
0.50672
 30 
0.0
 0 
VERTEX
 8 
1
 10 
0.26931
 20 
0.50951
 30 
0.0
 0 
VERTEX
 8 
1
 10 
0.21858
 20 
0.5113
 30 
0.0
 0 
VERTEX
 8 
1
 10 
0.17131
 20 
0.51204
 30 
0.0
 0 
VERTEX
 8 
1
 10 
0.12834
 20 
0.51173
 30 
0.0
 0 
VERTEX
 8 
1
 10 
0.090419
 20 
0.51043
 30 
0.0
 0 
VERTEX
 8 
1
 10 
0.05831
 20 
0.50829
 30 
0.0
 0 
VERTEX
 8 
1
 10 
0.03277
 20 
0.50554
 30 
0.0
 0 
VERTEX
 8 
1
 10 
0.01447
 20 
0.50277
 30 
0.0
 0 
VERTEX
 8 
1
 10 
0.0035899
 20 
0.50074
 30 
0.0
 0 
VERTEX
 8 
1
 10 
0.0
 20 
0.5
 30 
0.0
 0 
SEQEND
 8 
1
 0 
ENDSEC
 0 
EOF
