 0 
SECTION
 2 
ENTITIES
 0 
POLYLINE
 8 
1
 66 
 1 
 10 
0.0
 20 
0.0
 30 
0.0
 0 
VERTEX
 8 
1
 10 
0.0
 20 
0.5
 30 
0.0
 0 
VERTEX
 8 
1
 10 
0.00344
 20 
0.50128
 30 
0.0
 0 
VERTEX
 8 
1
 10 
0.013
 20 
0.50517
 30 
0.0
 0 
VERTEX
 8 
1
 10 
0.02738
 20 
0.51125
 30 
0.0
 0 
VERTEX
 8 
1
 10 
0.04609
 20 
0.51852
 30 
0.0
 0 
VERTEX
 8 
1
 10 
0.06912
 20 
0.52651
 30 
0.0
 0 
VERTEX
 8 
1
 10 
0.09613
 20 
0.53507
 30 
0.0
 0 
VERTEX
 8 
1
 10 
0.12665
 20 
0.54373
 30 
0.0
 0 
VERTEX
 8 
1
 10 
0.1605
 20 
0.55202
 30 
0.0
 0 
VERTEX
 8 
1
 10 
0.19749
 20 
0.55969
 30 
0.0
 0 
VERTEX
 8 
1
 10 
0.23743
 20 
0.56653
 30 
0.0
 0 
VERTEX
 8 
1
 10 
0.28003
 20 
0.57248
 30 
0.0
 0 
VERTEX
 8 
1
 10 
0.32496
 20 
0.57748
 30 
0.0
 0 
VERTEX
 8 
1
 10 
0.3718
 20 
0.58154
 30 
0.0
 0 
VERTEX
 8 
1
 10 
0.42004
 20 
0.58466
 30 
0.0
 0 
VERTEX
 8 
1
 10 
0.46916
 20 
0.5868
 30 
0.0
 0 
VERTEX
 8 
1
 10 
0.51865
 20 
0.58792
 30 
0.0
 0 
VERTEX
 8 
1
 10 
0.56798
 20 
0.58799
 30 
0.0
 0 
VERTEX
 8 
1
 10 
0.61666
 20 
0.58702
 30 
0.0
 0 
VERTEX
 8 
1
 10 
0.66418
 20 
0.58499
 30 
0.0
 0 
VERTEX
 8 
1
 10 
0.71005
 20 
0.58197
 30 
0.0
 0 
VERTEX
 8 
1
 10 
0.75382
 20 
0.57784
 30 
0.0
 0 
VERTEX
 8 
1
 10 
0.79506
 20 
0.5728
 30 
0.0
 0 
VERTEX
 8 
1
 10 
0.83337
 20 
0.56686
 30 
0.0
 0 
VERTEX
 8 
1
 10 
0.86838
 20 
0.56009
 30 
0.0
 0 
VERTEX
 8 
1
 10 
0.89977
 20 
0.55261
 30 
0.0
 0 
VERTEX
 8 
1
 10 
0.92726
 20 
0.54453
 30 
0.0
 0 
VERTEX
 8 
1
 10 
0.95063
 20 
0.53602
 30 
0.0
 0 
VERTEX
 8 
1
 10 
0.96968
 20 
0.52727
 30 
0.0
 0 
VERTEX
 8 
1
 10 
0.98428
 20 
0.51851
 30 
0.0
 0 
VERTEX
 8 
1
 10 
0.99429
 20 
0.51007
 30 
0.0
 0 
VERTEX
 8 
1
 10 
0.99957
 20 
0.50252
 30 
0.0
 0 
VERTEX
 8 
1
 10 
0.99883
 20 
0.49622
 30 
0.0
 0 
VERTEX
 8 
1
 10 
0.99168
 20 
0.49023
 30 
0.0
 0 
VERTEX
 8 
1
 10 
0.9791
 20 
0.48395
 30 
0.0
 0 
VERTEX
 8 
1
 10 
0.96145
 20 
0.47771
 30 
0.0
 0 
VERTEX
 8 
1
 10 
0.939
 20 
0.47169
 30 
0.0
 0 
VERTEX
 8 
1
 10 
0.91202
 20 
0.46603
 30 
0.0
 0 
VERTEX
 8 
1
 10 
0.88084
 20 
0.4608
 30 
0.0
 0 
VERTEX
 8 
1
 10 
0.84587
 20 
0.4561
 30 
0.0
 0 
VERTEX
 8 
1
 10 
0.80754
 20 
0.45203
 30 
0.0
 0 
VERTEX
 8 
1
 10 
0.76631
 20 
0.44873
 30 
0.0
 0 
VERTEX
 8 
1
 10 
0.72268
 20 
0.4463
 30 
0.0
 0 
VERTEX
 8 
1
 10 
0.67716
 20 
0.4449
 30 
0.0
 0 
VERTEX
 8 
1
 10 
0.63032
 20 
0.44474
 30 
0.0
 0 
VERTEX
 8 
1
 10 
0.58255
 20 
0.44613
 30 
0.0
 0 
VERTEX
 8 
1
 10 
0.53417
 20 
0.44931
 30 
0.0
 0 
VERTEX
 8 
1
 10 
0.48528
 20 
0.45447
 30 
0.0
 0 
VERTEX
 8 
1
 10 
0.43586
 20 
0.46159
 30 
0.0
 0 
VERTEX
 8 
1
 10 
0.38583
 20 
0.47041
 30 
0.0
 0 
VERTEX
 8 
1
 10 
0.33498
 20 
0.48019
 30 
0.0
 0 
VERTEX
 8 
1
 10 
0.28374
 20 
0.48966
 30 
0.0
 0 
VERTEX
 8 
1
 10 
0.2332
 20 
0.49782
 30 
0.0
 0 
VERTEX
 8 
1
 10 
0.1846
 20 
0.50407
 30 
0.0
 0 
VERTEX
 8 
1
 10 
0.13922
 20 
0.50806
 30 
0.0
 0 
VERTEX
 8 
1
 10 
0.09835
 20 
0.50971
 30 
0.0
 0 
VERTEX
 8 
1
 10 
0.06321
 20 
0.50911
 30 
0.0
 0 
VERTEX
 8 
1
 10 
0.035139
 20 
0.50664
 30 
0.0
 0 
VERTEX
 8 
1
 10 
0.01528
 20 
0.50343
 30 
0.0
 0 
VERTEX
 8 
1
 10 
0.0037399
 20 
0.50092
 30 
0.0
 0 
VERTEX
 8 
1
 10 
0.0
 20 
0.5
 30 
0.0
 0 
SEQEND
 8 
1
 0 
ENDSEC
 0 
EOF
