 0 
SECTION
 2 
ENTITIES
 0 
POLYLINE
 8 
1
 66 
 1 
 10 
0.0
 20 
0.0
 30 
0.0
 0 
VERTEX
 8 
1
 10 
0.0
 20 
0.5
 30 
0.0
 0 
VERTEX
 8 
1
 10 
0.0034899
 20 
0.50164
 30 
0.0
 0 
VERTEX
 8 
1
 10 
0.01309
 20 
0.50672
 30 
0.0
 0 
VERTEX
 8 
1
 10 
0.02723
 20 
0.51481
 30 
0.0
 0 
VERTEX
 8 
1
 10 
0.04511
 20 
0.52457
 30 
0.0
 0 
VERTEX
 8 
1
 10 
0.06703
 20 
0.53482
 30 
0.0
 0 
VERTEX
 8 
1
 10 
0.09357
 20 
0.54537
 30 
0.0
 0 
VERTEX
 8 
1
 10 
0.12461
 20 
0.55656
 30 
0.0
 0 
VERTEX
 8 
1
 10 
0.15962
 20 
0.5684
 30 
0.0
 0 
VERTEX
 8 
1
 10 
0.19806
 20 
0.58078
 30 
0.0
 0 
VERTEX
 8 
1
 10 
0.23934
 20 
0.59349
 30 
0.0
 0 
VERTEX
 8 
1
 10 
0.28288
 20 
0.6063
 30 
0.0
 0 
VERTEX
 8 
1
 10 
0.32807
 20 
0.61894
 30 
0.0
 0 
VERTEX
 8 
1
 10 
0.37431
 20 
0.63108
 30 
0.0
 0 
VERTEX
 8 
1
 10 
0.42104
 20 
0.64238
 30 
0.0
 0 
VERTEX
 8 
1
 10 
0.46771
 20 
0.65251
 30 
0.0
 0 
VERTEX
 8 
1
 10 
0.51381
 20 
0.6611
 30 
0.0
 0 
VERTEX
 8 
1
 10 
0.55887
 20 
0.66779
 30 
0.0
 0 
VERTEX
 8 
1
 10 
0.60246
 20 
0.67213
 30 
0.0
 0 
VERTEX
 8 
1
 10 
0.64451
 20 
0.6736
 30 
0.0
 0 
VERTEX
 8 
1
 10 
0.68521
 20 
0.67212
 30 
0.0
 0 
VERTEX
 8 
1
 10 
0.72451
 20 
0.66792
 30 
0.0
 0 
VERTEX
 8 
1
 10 
0.76228
 20 
0.66127
 30 
0.0
 0 
VERTEX
 8 
1
 10 
0.79829
 20 
0.65253
 30 
0.0
 0 
VERTEX
 8 
1
 10 
0.83216
 20 
0.64201
 30 
0.0
 0 
VERTEX
 8 
1
 10 
0.86358
 20 
0.62998
 30 
0.0
 0 
VERTEX
 8 
1
 10 
0.89224
 20 
0.61669
 30 
0.0
 0 
VERTEX
 8 
1
 10 
0.91788
 20 
0.6024
 30 
0.0
 0 
VERTEX
 8 
1
 10 
0.94029
 20 
0.58739
 30 
0.0
 0 
VERTEX
 8 
1
 10 
0.95929
 20 
0.57196
 30 
0.0
 0 
VERTEX
 8 
1
 10 
0.97473
 20 
0.55643
 30 
0.0
 0 
VERTEX
 8 
1
 10 
0.98655
 20 
0.54116
 30 
0.0
 0 
VERTEX
 8 
1
 10 
0.99469
 20 
0.52654
 30 
0.0
 0 
VERTEX
 8 
1
 10 
0.99914
 20 
0.51305
 30 
0.0
 0 
VERTEX
 8 
1
 10 
0.99997
 20 
0.50128
 30 
0.0
 0 
VERTEX
 8 
1
 10 
0.99967
 20 
0.49893
 30 
0.0
 0 
VERTEX
 8 
1
 10 
0.99898
 20 
0.49604
 30 
0.0
 0 
VERTEX
 8 
1
 10 
0.99835
 20 
0.49429
 30 
0.0
 0 
VERTEX
 8 
1
 10 
0.99758
 20 
0.49269
 30 
0.0
 0 
VERTEX
 8 
1
 10 
0.99713
 20 
0.49197
 30 
0.0
 0 
VERTEX
 8 
1
 10 
0.99665
 20 
0.49129
 30 
0.0
 0 
VERTEX
 8 
1
 10 
0.99611
 20 
0.49069
 30 
0.0
 0 
VERTEX
 8 
1
 10 
0.99548
 20 
0.49016
 30 
0.0
 0 
VERTEX
 8 
1
 10 
0.99476
 20 
0.48966
 30 
0.0
 0 
VERTEX
 8 
1
 10 
0.99396
 20 
0.48918
 30 
0.0
 0 
VERTEX
 8 
1
 10 
0.99214
 20 
0.48831
 30 
0.0
 0 
VERTEX
 8 
1
 10 
0.99006
 20 
0.48751
 30 
0.0
 0 
VERTEX
 8 
1
 10 
0.98646
 20 
0.48646
 30 
0.0
 0 
VERTEX
 8 
1
 10 
0.97484
 20 
0.48455
 30 
0.0
 0 
VERTEX
 8 
1
 10 
0.95501
 20 
0.48404
 30 
0.0
 0 
VERTEX
 8 
1
 10 
0.92976
 20 
0.48589
 30 
0.0
 0 
VERTEX
 8 
1
 10 
0.89905
 20 
0.49018
 30 
0.0
 0 
VERTEX
 8 
1
 10 
0.86275
 20 
0.49683
 30 
0.0
 0 
VERTEX
 8 
1
 10 
0.82062
 20 
0.50565
 30 
0.0
 0 
VERTEX
 8 
1
 10 
0.77231
 20 
0.51593
 30 
0.0
 0 
VERTEX
 8 
1
 10 
0.71801
 20 
0.52637
 30 
0.0
 0 
VERTEX
 8 
1
 10 
0.65852
 20 
0.53569
 30 
0.0
 0 
VERTEX
 8 
1
 10 
0.59532
 20 
0.54271
 30 
0.0
 0 
VERTEX
 8 
1
 10 
0.53042
 20 
0.54702
 30 
0.0
 0 
VERTEX
 8 
1
 10 
0.46534
 20 
0.54901
 30 
0.0
 0 
VERTEX
 8 
1
 10 
0.40109
 20 
0.54891
 30 
0.0
 0 
VERTEX
 8 
1
 10 
0.33882
 20 
0.54673
 30 
0.0
 0 
VERTEX
 8 
1
 10 
0.27978
 20 
0.54282
 30 
0.0
 0 
VERTEX
 8 
1
 10 
0.22489
 20 
0.53772
 30 
0.0
 0 
VERTEX
 8 
1
 10 
0.17483
 20 
0.5319
 30 
0.0
 0 
VERTEX
 8 
1
 10 
0.13018
 20 
0.5257
 30 
0.0
 0 
VERTEX
 8 
1
 10 
0.0915
 20 
0.5195
 30 
0.0
 0 
VERTEX
 8 
1
 10 
0.05918
 20 
0.51364
 30 
0.0
 0 
VERTEX
 8 
1
 10 
0.033580
 20 
0.50842
 30 
0.0
 0 
VERTEX
 8 
1
 10 
0.01501
 20 
0.50411
 30 
0.0
 0 
VERTEX
 8 
1
 10 
0.0037599
 20 
0.50112
 30 
0.0
 0 
VERTEX
 8 
1
 10 
0.0
 20 
0.5
 30 
0.0
 0 
SEQEND
 8 
1
 0 
ENDSEC
 0 
EOF
