 0 
SECTION
 2 
ENTITIES
 0 
POLYLINE
 8 
1
 66 
 1 
 10 
0.0
 20 
0.0
 30 
0.0
 0 
VERTEX
 8 
1
 10 
0.0
 20 
0.5
 30 
0.0
 0 
VERTEX
 8 
1
 10 
0.0036699
 20 
0.50086
 30 
0.0
 0 
VERTEX
 8 
1
 10 
0.01411
 20 
0.50377
 30 
0.0
 0 
VERTEX
 8 
1
 10 
0.03016
 20 
0.50883
 30 
0.0
 0 
VERTEX
 8 
1
 10 
0.050950
 20 
0.51536
 30 
0.0
 0 
VERTEX
 8 
1
 10 
0.07636
 20 
0.52258
 30 
0.0
 0 
VERTEX
 8 
1
 10 
0.1066
 20 
0.5303
 30 
0.0
 0 
VERTEX
 8 
1
 10 
0.14142
 20 
0.53876
 30 
0.0
 0 
VERTEX
 8 
1
 10 
0.18023
 20 
0.54803
 30 
0.0
 0 
VERTEX
 8 
1
 10 
0.22239
 20 
0.55801
 30 
0.0
 0 
VERTEX
 8 
1
 10 
0.26723
 20 
0.56853
 30 
0.0
 0 
VERTEX
 8 
1
 10 
0.31409
 20 
0.57938
 30 
0.0
 0 
VERTEX
 8 
1
 10 
0.36228
 20 
0.59027
 30 
0.0
 0 
VERTEX
 8 
1
 10 
0.41115
 20 
0.60089
 30 
0.0
 0 
VERTEX
 8 
1
 10 
0.46009
 20 
0.6109
 30 
0.0
 0 
VERTEX
 8 
1
 10 
0.50851
 20 
0.61993
 30 
0.0
 0 
VERTEX
 8 
1
 10 
0.5559
 20 
0.62763
 30 
0.0
 0 
VERTEX
 8 
1
 10 
0.60178
 20 
0.63362
 30 
0.0
 0 
VERTEX
 8 
1
 10 
0.64573
 20 
0.63749
 30 
0.0
 0 
VERTEX
 8 
1
 10 
0.68765
 20 
0.63877
 30 
0.0
 0 
VERTEX
 8 
1
 10 
0.72764
 20 
0.63736
 30 
0.0
 0 
VERTEX
 8 
1
 10 
0.76564
 20 
0.63338
 30 
0.0
 0 
VERTEX
 8 
1
 10 
0.80165
 20 
0.62705
 30 
0.0
 0 
VERTEX
 8 
1
 10 
0.83549
 20 
0.61876
 30 
0.0
 0 
VERTEX
 8 
1
 10 
0.86683
 20 
0.60889
 30 
0.0
 0 
VERTEX
 8 
1
 10 
0.89537
 20 
0.59768
 30 
0.0
 0 
VERTEX
 8 
1
 10 
0.92082
 20 
0.58542
 30 
0.0
 0 
VERTEX
 8 
1
 10 
0.94298
 20 
0.57236
 30 
0.0
 0 
VERTEX
 8 
1
 10 
0.96166
 20 
0.55881
 30 
0.0
 0 
VERTEX
 8 
1
 10 
0.97672
 20 
0.54509
 30 
0.0
 0 
VERTEX
 8 
1
 10 
0.98807
 20 
0.53154
 30 
0.0
 0 
VERTEX
 8 
1
 10 
0.99565
 20 
0.51857
 30 
0.0
 0 
VERTEX
 8 
1
 10 
0.99947
 20 
0.50668
 30 
0.0
 0 
VERTEX
 8 
1
 10 
0.99999
 20 
0.50078
 30 
0.0
 0 
VERTEX
 8 
1
 10 
0.99976
 20 
0.49791
 30 
0.0
 0 
VERTEX
 8 
1
 10 
0.99942
 20 
0.49615
 30 
0.0
 0 
VERTEX
 8 
1
 10 
0.99892
 20 
0.49453
 30 
0.0
 0 
VERTEX
 8 
1
 10 
0.99861
 20 
0.49379
 30 
0.0
 0 
VERTEX
 8 
1
 10 
0.99824
 20 
0.49309
 30 
0.0
 0 
VERTEX
 8 
1
 10 
0.99782
 20 
0.49246
 30 
0.0
 0 
VERTEX
 8 
1
 10 
0.99731
 20 
0.49188
 30 
0.0
 0 
VERTEX
 8 
1
 10 
0.9967
 20 
0.49132
 30 
0.0
 0 
VERTEX
 8 
1
 10 
0.996
 20 
0.49078
 30 
0.0
 0 
VERTEX
 8 
1
 10 
0.99439
 20 
0.48974
 30 
0.0
 0 
VERTEX
 8 
1
 10 
0.99251
 20 
0.48874
 30 
0.0
 0 
VERTEX
 8 
1
 10 
0.98923
 20 
0.48732
 30 
0.0
 0 
VERTEX
 8 
1
 10 
0.98344
 20 
0.48537
 30 
0.0
 0 
VERTEX
 8 
1
 10 
0.96645
 20 
0.48176
 30 
0.0
 0 
VERTEX
 8 
1
 10 
0.94442
 20 
0.4795
 30 
0.0
 0 
VERTEX
 8 
1
 10 
0.91752
 20 
0.47896
 30 
0.0
 0 
VERTEX
 8 
1
 10 
0.88569
 20 
0.48034
 30 
0.0
 0 
VERTEX
 8 
1
 10 
0.84879
 20 
0.48364
 30 
0.0
 0 
VERTEX
 8 
1
 10 
0.80661
 20 
0.48848
 30 
0.0
 0 
VERTEX
 8 
1
 10 
0.75936
 20 
0.49411
 30 
0.0
 0 
VERTEX
 8 
1
 10 
0.70768
 20 
0.49986
 30 
0.0
 0 
VERTEX
 8 
1
 10 
0.65231
 20 
0.50528
 30 
0.0
 0 
VERTEX
 8 
1
 10 
0.59405
 20 
0.50985
 30 
0.0
 0 
VERTEX
 8 
1
 10 
0.53411
 20 
0.51301
 30 
0.0
 0 
VERTEX
 8 
1
 10 
0.47368
 20 
0.51467
 30 
0.0
 0 
VERTEX
 8 
1
 10 
0.4141
 20 
0.51518
 30 
0.0
 0 
VERTEX
 8 
1
 10 
0.35604
 20 
0.51473
 30 
0.0
 0 
VERTEX
 8 
1
 10 
0.30036
 20 
0.51336
 30 
0.0
 0 
VERTEX
 8 
1
 10 
0.24798
 20 
0.5113
 30 
0.0
 0 
VERTEX
 8 
1
 10 
0.1996
 20 
0.50894
 30 
0.0
 0 
VERTEX
 8 
1
 10 
0.15572
 20 
0.50657
 30 
0.0
 0 
VERTEX
 8 
1
 10 
0.11676
 20 
0.5044
 30 
0.0
 0 
VERTEX
 8 
1
 10 
0.08312
 20 
0.50268
 30 
0.0
 0 
VERTEX
 8 
1
 10 
0.05489
 20 
0.50168
 30 
0.0
 0 
VERTEX
 8 
1
 10 
0.03198
 20 
0.50124
 30 
0.0
 0 
VERTEX
 8 
1
 10 
0.01468
 20 
0.50086
 30 
0.0
 0 
VERTEX
 8 
1
 10 
0.0037500
 20 
0.50031
 30 
0.0
 0 
VERTEX
 8 
1
 10 
0.0
 20 
0.5
 30 
0.0
 0 
SEQEND
 8 
1
 0 
ENDSEC
 0 
EOF
