 0 
SECTION
 2 
ENTITIES
 0 
POLYLINE
 8 
1
 66 
 1 
 10 
0.0
 20 
0.0
 30 
0.0
 0 
VERTEX
 8 
1
 10 
0.0
 20 
0.5
 30 
0.0
 0 
VERTEX
 8 
1
 10 
0.0035600
 20 
0.50082
 30 
0.0
 0 
VERTEX
 8 
1
 10 
0.01375
 20 
0.50342
 30 
0.0
 0 
VERTEX
 8 
1
 10 
0.02966
 20 
0.50775
 30 
0.0
 0 
VERTEX
 8 
1
 10 
0.05071
 20 
0.51335
 30 
0.0
 0 
VERTEX
 8 
1
 10 
0.076879
 20 
0.51998
 30 
0.0
 0 
VERTEX
 8 
1
 10 
0.10764
 20 
0.52764
 30 
0.0
 0 
VERTEX
 8 
1
 10 
0.14247
 20 
0.53624
 30 
0.0
 0 
VERTEX
 8 
1
 10 
0.18078
 20 
0.54562
 30 
0.0
 0 
VERTEX
 8 
1
 10 
0.22194
 20 
0.55553
 30 
0.0
 0 
VERTEX
 8 
1
 10 
0.26532
 20 
0.56569
 30 
0.0
 0 
VERTEX
 8 
1
 10 
0.31026
 20 
0.57575
 30 
0.0
 0 
VERTEX
 8 
1
 10 
0.35611
 20 
0.58522
 30 
0.0
 0 
VERTEX
 8 
1
 10 
0.40249
 20 
0.5935
 30 
0.0
 0 
VERTEX
 8 
1
 10 
0.44924
 20 
0.6002
 30 
0.0
 0 
VERTEX
 8 
1
 10 
0.49616
 20 
0.6052
 30 
0.0
 0 
VERTEX
 8 
1
 10 
0.543
 20 
0.60842
 30 
0.0
 0 
VERTEX
 8 
1
 10 
0.58944
 20 
0.60987
 30 
0.0
 0 
VERTEX
 8 
1
 10 
0.63514
 20 
0.60962
 30 
0.0
 0 
VERTEX
 8 
1
 10 
0.67971
 20 
0.60777
 30 
0.0
 0 
VERTEX
 8 
1
 10 
0.72273
 20 
0.60442
 30 
0.0
 0 
VERTEX
 8 
1
 10 
0.76378
 20 
0.59966
 30 
0.0
 0 
VERTEX
 8 
1
 10 
0.80248
 20 
0.59358
 30 
0.0
 0 
VERTEX
 8 
1
 10 
0.83846
 20 
0.58631
 30 
0.0
 0 
VERTEX
 8 
1
 10 
0.87141
 20 
0.57798
 30 
0.0
 0 
VERTEX
 8 
1
 10 
0.90104
 20 
0.56874
 30 
0.0
 0 
VERTEX
 8 
1
 10 
0.92711
 20 
0.55878
 30 
0.0
 0 
VERTEX
 8 
1
 10 
0.94941
 20 
0.54831
 30 
0.0
 0 
VERTEX
 8 
1
 10 
0.96778
 20 
0.53759
 30 
0.0
 0 
VERTEX
 8 
1
 10 
0.9821
 20 
0.52689
 30 
0.0
 0 
VERTEX
 8 
1
 10 
0.99229
 20 
0.5166
 30 
0.0
 0 
VERTEX
 8 
1
 10 
0.99826
 20 
0.50716
 30 
0.0
 0 
VERTEX
 8 
1
 10 
0.99938
 20 
0.50406
 30 
0.0
 0 
VERTEX
 8 
1
 10 
0.99988
 20 
0.50168
 30 
0.0
 0 
VERTEX
 8 
1
 10 
0.99999
 20 
0.5002
 30 
0.0
 0 
VERTEX
 8 
1
 10 
0.99993
 20 
0.49885
 30 
0.0
 0 
VERTEX
 8 
1
 10 
0.99983
 20 
0.49822
 30 
0.0
 0 
VERTEX
 8 
1
 10 
0.99967
 20 
0.49764
 30 
0.0
 0 
VERTEX
 8 
1
 10 
0.99944
 20 
0.49712
 30 
0.0
 0 
VERTEX
 8 
1
 10 
0.99912
 20 
0.49663
 30 
0.0
 0 
VERTEX
 8 
1
 10 
0.99869
 20 
0.49616
 30 
0.0
 0 
VERTEX
 8 
1
 10 
0.99818
 20 
0.49568
 30 
0.0
 0 
VERTEX
 8 
1
 10 
0.99695
 20 
0.49476
 30 
0.0
 0 
VERTEX
 8 
1
 10 
0.99544
 20 
0.49385
 30 
0.0
 0 
VERTEX
 8 
1
 10 
0.99271
 20 
0.49252
 30 
0.0
 0 
VERTEX
 8 
1
 10 
0.98515
 20 
0.48979
 30 
0.0
 0 
VERTEX
 8 
1
 10 
0.9687
 20 
0.48606
 30 
0.0
 0 
VERTEX
 8 
1
 10 
0.94673
 20 
0.48307
 30 
0.0
 0 
VERTEX
 8 
1
 10 
0.91948
 20 
0.48075
 30 
0.0
 0 
VERTEX
 8 
1
 10 
0.88721
 20 
0.47904
 30 
0.0
 0 
VERTEX
 8 
1
 10 
0.85029
 20 
0.4778
 30 
0.0
 0 
VERTEX
 8 
1
 10 
0.80921
 20 
0.47694
 30 
0.0
 0 
VERTEX
 8 
1
 10 
0.76449
 20 
0.47642
 30 
0.0
 0 
VERTEX
 8 
1
 10 
0.71669
 20 
0.47618
 30 
0.0
 0 
VERTEX
 8 
1
 10 
0.66639
 20 
0.47618
 30 
0.0
 0 
VERTEX
 8 
1
 10 
0.61425
 20 
0.47639
 30 
0.0
 0 
VERTEX
 8 
1
 10 
0.56091
 20 
0.47681
 30 
0.0
 0 
VERTEX
 8 
1
 10 
0.50704
 20 
0.47747
 30 
0.0
 0 
VERTEX
 8 
1
 10 
0.4533
 20 
0.47836
 30 
0.0
 0 
VERTEX
 8 
1
 10 
0.40035
 20 
0.47957
 30 
0.0
 0 
VERTEX
 8 
1
 10 
0.34886
 20 
0.48116
 30 
0.0
 0 
VERTEX
 8 
1
 10 
0.29946
 20 
0.48342
 30 
0.0
 0 
VERTEX
 8 
1
 10 
0.25221
 20 
0.4867
 30 
0.0
 0 
VERTEX
 8 
1
 10 
0.20704
 20 
0.49054
 30 
0.0
 0 
VERTEX
 8 
1
 10 
0.16444
 20 
0.49441
 30 
0.0
 0 
VERTEX
 8 
1
 10 
0.12494
 20 
0.49788
 30 
0.0
 0 
VERTEX
 8 
1
 10 
0.08927
 20 
0.50041
 30 
0.0
 0 
VERTEX
 8 
1
 10 
0.05841
 20 
0.50174
 30 
0.0
 0 
VERTEX
 8 
1
 10 
0.03335
 20 
0.5019
 30 
0.0
 0 
VERTEX
 8 
1
 10 
0.01494
 20 
0.50125
 30 
0.0
 0 
VERTEX
 8 
1
 10 
0.0037500
 20 
0.50039
 30 
0.0
 0 
VERTEX
 8 
1
 10 
0.0
 20 
0.5
 30 
0.0
 0 
SEQEND
 8 
1
 0 
ENDSEC
 0 
EOF
