 0 
SECTION
 2 
ENTITIES
 0 
POLYLINE
 8 
1
 66 
 1 
 10 
0.0
 20 
0.0
 30 
0.0
 0 
VERTEX
 8 
1
 10 
0.0
 20 
0.5
 30 
0.0
 0 
VERTEX
 8 
1
 10 
0.0030099
 20 
0.50085
 30 
0.0
 0 
VERTEX
 8 
1
 10 
0.01169
 20 
0.50344
 30 
0.0
 0 
VERTEX
 8 
1
 10 
0.02537
 20 
0.50763
 30 
0.0
 0 
VERTEX
 8 
1
 10 
0.04351
 20 
0.51293
 30 
0.0
 0 
VERTEX
 8 
1
 10 
0.06593
 20 
0.51878
 30 
0.0
 0 
VERTEX
 8 
1
 10 
0.09263
 20 
0.52492
 30 
0.0
 0 
VERTEX
 8 
1
 10 
0.1234
 20 
0.53135
 30 
0.0
 0 
VERTEX
 8 
1
 10 
0.15783
 20 
0.53797
 30 
0.0
 0 
VERTEX
 8 
1
 10 
0.19547
 20 
0.54461
 30 
0.0
 0 
VERTEX
 8 
1
 10 
0.23586
 20 
0.55108
 30 
0.0
 0 
VERTEX
 8 
1
 10 
0.27856
 20 
0.55712
 30 
0.0
 0 
VERTEX
 8 
1
 10 
0.32319
 20 
0.56252
 30 
0.0
 0 
VERTEX
 8 
1
 10 
0.36935
 20 
0.56712
 30 
0.0
 0 
VERTEX
 8 
1
 10 
0.41666
 20 
0.57077
 30 
0.0
 0 
VERTEX
 8 
1
 10 
0.46473
 20 
0.57339
 30 
0.0
 0 
VERTEX
 8 
1
 10 
0.51319
 20 
0.57494
 30 
0.0
 0 
VERTEX
 8 
1
 10 
0.5616
 20 
0.5755
 30 
0.0
 0 
VERTEX
 8 
1
 10 
0.60948
 20 
0.57508
 30 
0.0
 0 
VERTEX
 8 
1
 10 
0.65632
 20 
0.57372
 30 
0.0
 0 
VERTEX
 8 
1
 10 
0.70167
 20 
0.57143
 30 
0.0
 0 
VERTEX
 8 
1
 10 
0.74507
 20 
0.56826
 30 
0.0
 0 
VERTEX
 8 
1
 10 
0.78609
 20 
0.56425
 30 
0.0
 0 
VERTEX
 8 
1
 10 
0.82434
 20 
0.55946
 30 
0.0
 0 
VERTEX
 8 
1
 10 
0.85946
 20 
0.55397
 30 
0.0
 0 
VERTEX
 8 
1
 10 
0.89112
 20 
0.54785
 30 
0.0
 0 
VERTEX
 8 
1
 10 
0.91905
 20 
0.54121
 30 
0.0
 0 
VERTEX
 8 
1
 10 
0.94305
 20 
0.53417
 30 
0.0
 0 
VERTEX
 8 
1
 10 
0.96293
 20 
0.52688
 30 
0.0
 0 
VERTEX
 8 
1
 10 
0.97859
 20 
0.51953
 30 
0.0
 0 
VERTEX
 8 
1
 10 
0.98998
 20 
0.51238
 30 
0.0
 0 
VERTEX
 8 
1
 10 
0.99708
 20 
0.50573
 30 
0.0
 0 
VERTEX
 8 
1
 10 
0.99999
 20 
0.50023
 30 
0.0
 0 
VERTEX
 8 
1
 10 
0.99761
 20 
0.49658
 30 
0.0
 0 
VERTEX
 8 
1
 10 
0.98929
 20 
0.4942
 30 
0.0
 0 
VERTEX
 8 
1
 10 
0.97561
 20 
0.49268
 30 
0.0
 0 
VERTEX
 8 
1
 10 
0.95656
 20 
0.49223
 30 
0.0
 0 
VERTEX
 8 
1
 10 
0.93223
 20 
0.49278
 30 
0.0
 0 
VERTEX
 8 
1
 10 
0.90274
 20 
0.49426
 30 
0.0
 0 
VERTEX
 8 
1
 10 
0.86829
 20 
0.49653
 30 
0.0
 0 
VERTEX
 8 
1
 10 
0.8292
 20 
0.49941
 30 
0.0
 0 
VERTEX
 8 
1
 10 
0.78583
 20 
0.5027
 30 
0.0
 0 
VERTEX
 8 
1
 10 
0.73868
 20 
0.50621
 30 
0.0
 0 
VERTEX
 8 
1
 10 
0.68829
 20 
0.50975
 30 
0.0
 0 
VERTEX
 8 
1
 10 
0.63528
 20 
0.51316
 30 
0.0
 0 
VERTEX
 8 
1
 10 
0.58029
 20 
0.51627
 30 
0.0
 0 
VERTEX
 8 
1
 10 
0.52403
 20 
0.51894
 30 
0.0
 0 
VERTEX
 8 
1
 10 
0.46721
 20 
0.52105
 30 
0.0
 0 
VERTEX
 8 
1
 10 
0.4106
 20 
0.52252
 30 
0.0
 0 
VERTEX
 8 
1
 10 
0.35493
 20 
0.52328
 30 
0.0
 0 
VERTEX
 8 
1
 10 
0.30098
 20 
0.5233
 30 
0.0
 0 
VERTEX
 8 
1
 10 
0.24946
 20 
0.52256
 30 
0.0
 0 
VERTEX
 8 
1
 10 
0.20111
 20 
0.52112
 30 
0.0
 0 
VERTEX
 8 
1
 10 
0.15659
 20 
0.51902
 30 
0.0
 0 
VERTEX
 8 
1
 10 
0.11654
 20 
0.51635
 30 
0.0
 0 
VERTEX
 8 
1
 10 
0.08156
 20 
0.51322
 30 
0.0
 0 
VERTEX
 8 
1
 10 
0.052170
 20 
0.50975
 30 
0.0
 0 
VERTEX
 8 
1
 10 
0.02904
 20 
0.5061
 30 
0.0
 0 
VERTEX
 8 
1
 10 
0.0127
 20 
0.50287
 30 
0.0
 0 
VERTEX
 8 
1
 10 
0.0031299
 20 
0.50072
 30 
0.0
 0 
VERTEX
 8 
1
 10 
0.0
 20 
0.5
 30 
0.0
 0 
SEQEND
 8 
1
 0 
ENDSEC
 0 
EOF
