 0 
SECTION
 2 
ENTITIES
 0 
POLYLINE
 8 
1
 66 
 1 
 10 
0.0
 20 
0.0
 30 
0.0
 0 
VERTEX
 8 
1
 10 
0.0
 20 
0.5
 30 
0.0
 0 
VERTEX
 8 
1
 10 
0.0037599
 20 
0.50041
 30 
0.0
 0 
VERTEX
 8 
1
 10 
0.01433
 20 
0.50197
 30 
0.0
 0 
VERTEX
 8 
1
 10 
0.03048
 20 
0.50464
 30 
0.0
 0 
VERTEX
 8 
1
 10 
0.05166
 20 
0.50764
 30 
0.0
 0 
VERTEX
 8 
1
 10 
0.07802
 20 
0.51059
 30 
0.0
 0 
VERTEX
 8 
1
 10 
0.1095
 20 
0.51364
 30 
0.0
 0 
VERTEX
 8 
1
 10 
0.14566
 20 
0.51691
 30 
0.0
 0 
VERTEX
 8 
1
 10 
0.18604
 20 
0.52039
 30 
0.0
 0 
VERTEX
 8 
1
 10 
0.23012
 20 
0.52407
 30 
0.0
 0 
VERTEX
 8 
1
 10 
0.27734
 20 
0.52791
 30 
0.0
 0 
VERTEX
 8 
1
 10 
0.32712
 20 
0.53186
 30 
0.0
 0 
VERTEX
 8 
1
 10 
0.37884
 20 
0.53587
 30 
0.0
 0 
VERTEX
 8 
1
 10 
0.43186
 20 
0.53987
 30 
0.0
 0 
VERTEX
 8 
1
 10 
0.48554
 20 
0.54379
 30 
0.0
 0 
VERTEX
 8 
1
 10 
0.53922
 20 
0.54754
 30 
0.0
 0 
VERTEX
 8 
1
 10 
0.59224
 20 
0.55103
 30 
0.0
 0 
VERTEX
 8 
1
 10 
0.64395
 20 
0.55415
 30 
0.0
 0 
VERTEX
 8 
1
 10 
0.69372
 20 
0.5568
 30 
0.0
 0 
VERTEX
 8 
1
 10 
0.74094
 20 
0.55884
 30 
0.0
 0 
VERTEX
 8 
1
 10 
0.78501
 20 
0.56013
 30 
0.0
 0 
VERTEX
 8 
1
 10 
0.82538
 20 
0.56049
 30 
0.0
 0 
VERTEX
 8 
1
 10 
0.86149
 20 
0.5596
 30 
0.0
 0 
VERTEX
 8 
1
 10 
0.89317
 20 
0.55695
 30 
0.0
 0 
VERTEX
 8 
1
 10 
0.92062
 20 
0.55236
 30 
0.0
 0 
VERTEX
 8 
1
 10 
0.94397
 20 
0.54599
 30 
0.0
 0 
VERTEX
 8 
1
 10 
0.9633
 20 
0.5381
 30 
0.0
 0 
VERTEX
 8 
1
 10 
0.97867
 20 
0.52903
 30 
0.0
 0 
VERTEX
 8 
1
 10 
0.99006
 20 
0.51924
 30 
0.0
 0 
VERTEX
 8 
1
 10 
0.99738
 20 
0.50929
 30 
0.0
 0 
VERTEX
 8 
1
 10 
1
 20 
0.5
 30 
0.0
 0 
VERTEX
 8 
1
 10 
0.99738
 20 
0.49071
 30 
0.0
 0 
VERTEX
 8 
1
 10 
0.99006
 20 
0.48076
 30 
0.0
 0 
VERTEX
 8 
1
 10 
0.97867
 20 
0.47097
 30 
0.0
 0 
VERTEX
 8 
1
 10 
0.9633
 20 
0.4619
 30 
0.0
 0 
VERTEX
 8 
1
 10 
0.94397
 20 
0.45401
 30 
0.0
 0 
VERTEX
 8 
1
 10 
0.92062
 20 
0.44764
 30 
0.0
 0 
VERTEX
 8 
1
 10 
0.89317
 20 
0.44305
 30 
0.0
 0 
VERTEX
 8 
1
 10 
0.86149
 20 
0.4404
 30 
0.0
 0 
VERTEX
 8 
1
 10 
0.82538
 20 
0.43951
 30 
0.0
 0 
VERTEX
 8 
1
 10 
0.78501
 20 
0.43987
 30 
0.0
 0 
VERTEX
 8 
1
 10 
0.74094
 20 
0.44116
 30 
0.0
 0 
VERTEX
 8 
1
 10 
0.69372
 20 
0.4432
 30 
0.0
 0 
VERTEX
 8 
1
 10 
0.64395
 20 
0.44585
 30 
0.0
 0 
VERTEX
 8 
1
 10 
0.59224
 20 
0.44897
 30 
0.0
 0 
VERTEX
 8 
1
 10 
0.53922
 20 
0.45246
 30 
0.0
 0 
VERTEX
 8 
1
 10 
0.48554
 20 
0.45621
 30 
0.0
 0 
VERTEX
 8 
1
 10 
0.43186
 20 
0.46013
 30 
0.0
 0 
VERTEX
 8 
1
 10 
0.37884
 20 
0.46413
 30 
0.0
 0 
VERTEX
 8 
1
 10 
0.32712
 20 
0.46814
 30 
0.0
 0 
VERTEX
 8 
1
 10 
0.27734
 20 
0.47209
 30 
0.0
 0 
VERTEX
 8 
1
 10 
0.23012
 20 
0.47593
 30 
0.0
 0 
VERTEX
 8 
1
 10 
0.18604
 20 
0.47961
 30 
0.0
 0 
VERTEX
 8 
1
 10 
0.14566
 20 
0.48309
 30 
0.0
 0 
VERTEX
 8 
1
 10 
0.1095
 20 
0.48636
 30 
0.0
 0 
VERTEX
 8 
1
 10 
0.07802
 20 
0.48941
 30 
0.0
 0 
VERTEX
 8 
1
 10 
0.05166
 20 
0.49236
 30 
0.0
 0 
VERTEX
 8 
1
 10 
0.03048
 20 
0.49536
 30 
0.0
 0 
VERTEX
 8 
1
 10 
0.01433
 20 
0.49803
 30 
0.0
 0 
VERTEX
 8 
1
 10 
0.0037599
 20 
0.49959
 30 
0.0
 0 
VERTEX
 8 
1
 10 
0.0
 20 
0.5
 30 
0.0
 0 
SEQEND
 8 
1
 0 
ENDSEC
 0 
EOF
