 0 
SECTION
 2 
ENTITIES
 0 
POLYLINE
 8 
1
 66 
 1 
 10 
0.0
 20 
0.0
 30 
0.0
 0 
VERTEX
 8 
1
 10 
0.0
 20 
0.5
 30 
0.0
 0 
VERTEX
 8 
1
 10 
0.0037500
 20 
0.50028
 30 
0.0
 0 
VERTEX
 8 
1
 10 
0.01461
 20 
0.50142
 30 
0.0
 0 
VERTEX
 8 
1
 10 
0.03173
 20 
0.50372
 30 
0.0
 0 
VERTEX
 8 
1
 10 
0.05442
 20 
0.50699
 30 
0.0
 0 
VERTEX
 8 
1
 10 
0.08223
 20 
0.51106
 30 
0.0
 0 
VERTEX
 8 
1
 10 
0.11456
 20 
0.51574
 30 
0.0
 0 
VERTEX
 8 
1
 10 
0.15092
 20 
0.52055
 30 
0.0
 0 
VERTEX
 8 
1
 10 
0.19126
 20 
0.52524
 30 
0.0
 0 
VERTEX
 8 
1
 10 
0.23528
 20 
0.52993
 30 
0.0
 0 
VERTEX
 8 
1
 10 
0.2824
 20 
0.53469
 30 
0.0
 0 
VERTEX
 8 
1
 10 
0.33202
 20 
0.53949
 30 
0.0
 0 
VERTEX
 8 
1
 10 
0.38353
 20 
0.54427
 30 
0.0
 0 
VERTEX
 8 
1
 10 
0.43626
 20 
0.54895
 30 
0.0
 0 
VERTEX
 8 
1
 10 
0.48957
 20 
0.55346
 30 
0.0
 0 
VERTEX
 8 
1
 10 
0.54279
 20 
0.55769
 30 
0.0
 0 
VERTEX
 8 
1
 10 
0.59526
 20 
0.56154
 30 
0.0
 0 
VERTEX
 8 
1
 10 
0.64633
 20 
0.56489
 30 
0.0
 0 
VERTEX
 8 
1
 10 
0.69536
 20 
0.5676
 30 
0.0
 0 
VERTEX
 8 
1
 10 
0.74172
 20 
0.56951
 30 
0.0
 0 
VERTEX
 8 
1
 10 
0.78483
 20 
0.57042
 30 
0.0
 0 
VERTEX
 8 
1
 10 
0.8241
 20 
0.57002
 30 
0.0
 0 
VERTEX
 8 
1
 10 
0.85931
 20 
0.56778
 30 
0.0
 0 
VERTEX
 8 
1
 10 
0.89061
 20 
0.56351
 30 
0.0
 0 
VERTEX
 8 
1
 10 
0.91807
 20 
0.55737
 30 
0.0
 0 
VERTEX
 8 
1
 10 
0.94174
 20 
0.54958
 30 
0.0
 0 
VERTEX
 8 
1
 10 
0.96159
 20 
0.54049
 30 
0.0
 0 
VERTEX
 8 
1
 10 
0.97754
 20 
0.53048
 30 
0.0
 0 
VERTEX
 8 
1
 10 
0.98946
 20 
0.51999
 30 
0.0
 0 
VERTEX
 8 
1
 10 
0.9972
 20 
0.50955
 30 
0.0
 0 
VERTEX
 8 
1
 10 
1
 20 
0.5
 30 
0.0
 0 
VERTEX
 8 
1
 10 
0.9972
 20 
0.49045
 30 
0.0
 0 
VERTEX
 8 
1
 10 
0.98946
 20 
0.48001
 30 
0.0
 0 
VERTEX
 8 
1
 10 
0.97754
 20 
0.46952
 30 
0.0
 0 
VERTEX
 8 
1
 10 
0.96159
 20 
0.45951
 30 
0.0
 0 
VERTEX
 8 
1
 10 
0.94174
 20 
0.45042
 30 
0.0
 0 
VERTEX
 8 
1
 10 
0.91807
 20 
0.44263
 30 
0.0
 0 
VERTEX
 8 
1
 10 
0.89061
 20 
0.43649
 30 
0.0
 0 
VERTEX
 8 
1
 10 
0.85931
 20 
0.43222
 30 
0.0
 0 
VERTEX
 8 
1
 10 
0.8241
 20 
0.42998
 30 
0.0
 0 
VERTEX
 8 
1
 10 
0.78483
 20 
0.42958
 30 
0.0
 0 
VERTEX
 8 
1
 10 
0.74172
 20 
0.43049
 30 
0.0
 0 
VERTEX
 8 
1
 10 
0.69536
 20 
0.4324
 30 
0.0
 0 
VERTEX
 8 
1
 10 
0.64633
 20 
0.43511
 30 
0.0
 0 
VERTEX
 8 
1
 10 
0.59526
 20 
0.43846
 30 
0.0
 0 
VERTEX
 8 
1
 10 
0.54279
 20 
0.44231
 30 
0.0
 0 
VERTEX
 8 
1
 10 
0.48957
 20 
0.44654
 30 
0.0
 0 
VERTEX
 8 
1
 10 
0.43626
 20 
0.45105
 30 
0.0
 0 
VERTEX
 8 
1
 10 
0.38353
 20 
0.45573
 30 
0.0
 0 
VERTEX
 8 
1
 10 
0.33202
 20 
0.46051
 30 
0.0
 0 
VERTEX
 8 
1
 10 
0.2824
 20 
0.46531
 30 
0.0
 0 
VERTEX
 8 
1
 10 
0.23528
 20 
0.47007
 30 
0.0
 0 
VERTEX
 8 
1
 10 
0.19126
 20 
0.47476
 30 
0.0
 0 
VERTEX
 8 
1
 10 
0.15092
 20 
0.47945
 30 
0.0
 0 
VERTEX
 8 
1
 10 
0.11456
 20 
0.48426
 30 
0.0
 0 
VERTEX
 8 
1
 10 
0.08223
 20 
0.48894
 30 
0.0
 0 
VERTEX
 8 
1
 10 
0.05442
 20 
0.49301
 30 
0.0
 0 
VERTEX
 8 
1
 10 
0.03173
 20 
0.49628
 30 
0.0
 0 
VERTEX
 8 
1
 10 
0.01461
 20 
0.49858
 30 
0.0
 0 
VERTEX
 8 
1
 10 
0.0037500
 20 
0.49972
 30 
0.0
 0 
VERTEX
 8 
1
 10 
0.0
 20 
0.5
 30 
0.0
 0 
SEQEND
 8 
1
 0 
ENDSEC
 0 
EOF
