 0 
SECTION
 2 
ENTITIES
 0 
POLYLINE
 8 
1
 66 
 1 
 10 
0.0
 20 
0.0
 30 
0.0
 0 
VERTEX
 8 
1
 10 
1
 20 
0.5
 30 
0.0
 0 
VERTEX
 8 
1
 10 
0.99995
 20 
0.5008
 30 
0.0
 0 
VERTEX
 8 
1
 10 
0.99982
 20 
0.50163
 30 
0.0
 0 
VERTEX
 8 
1
 10 
0.99962
 20 
0.50248
 30 
0.0
 0 
VERTEX
 8 
1
 10 
0.99904
 20 
0.50424
 30 
0.0
 0 
VERTEX
 8 
1
 10 
0.99824
 20 
0.50604
 30 
0.0
 0 
VERTEX
 8 
1
 10 
0.99666
 20 
0.50884
 30 
0.0
 0 
VERTEX
 8 
1
 10 
0.98823
 20 
0.51851
 30 
0.0
 0 
VERTEX
 8 
1
 10 
0.97515
 20 
0.52843
 30 
0.0
 0 
VERTEX
 8 
1
 10 
0.95762
 20 
0.53817
 30 
0.0
 0 
VERTEX
 8 
1
 10 
0.93582
 20 
0.54744
 30 
0.0
 0 
VERTEX
 8 
1
 10 
0.90993
 20 
0.55599
 30 
0.0
 0 
VERTEX
 8 
1
 10 
0.88016
 20 
0.56364
 30 
0.0
 0 
VERTEX
 8 
1
 10 
0.84676
 20 
0.57022
 30 
0.0
 0 
VERTEX
 8 
1
 10 
0.81003
 20 
0.57561
 30 
0.0
 0 
VERTEX
 8 
1
 10 
0.77029
 20 
0.57969
 30 
0.0
 0 
VERTEX
 8 
1
 10 
0.72787
 20 
0.58238
 30 
0.0
 0 
VERTEX
 8 
1
 10 
0.68313
 20 
0.58364
 30 
0.0
 0 
VERTEX
 8 
1
 10 
0.63647
 20 
0.58344
 30 
0.0
 0 
VERTEX
 8 
1
 10 
0.58827
 20 
0.58181
 30 
0.0
 0 
VERTEX
 8 
1
 10 
0.53897
 20 
0.57881
 30 
0.0
 0 
VERTEX
 8 
1
 10 
0.48901
 20 
0.57452
 30 
0.0
 0 
VERTEX
 8 
1
 10 
0.43882
 20 
0.56908
 30 
0.0
 0 
VERTEX
 8 
1
 10 
0.38889
 20 
0.56262
 30 
0.0
 0 
VERTEX
 8 
1
 10 
0.33968
 20 
0.55531
 30 
0.0
 0 
VERTEX
 8 
1
 10 
0.29159
 20 
0.54729
 30 
0.0
 0 
VERTEX
 8 
1
 10 
0.2449
 20 
0.53891
 30 
0.0
 0 
VERTEX
 8 
1
 10 
0.20013
 20 
0.53079
 30 
0.0
 0 
VERTEX
 8 
1
 10 
0.15809
 20 
0.52337
 30 
0.0
 0 
VERTEX
 8 
1
 10 
0.11958
 20 
0.51691
 30 
0.0
 0 
VERTEX
 8 
1
 10 
0.08541
 20 
0.51155
 30 
0.0
 0 
VERTEX
 8 
1
 10 
0.0563
 20 
0.50726
 30 
0.0
 0 
VERTEX
 8 
1
 10 
0.03276
 20 
0.50388
 30 
0.0
 0 
VERTEX
 8 
1
 10 
0.01509
 20 
0.50149
 30 
0.0
 0 
VERTEX
 8 
1
 10 
0.0038799
 20 
0.50029
 30 
0.0
 0 
VERTEX
 8 
1
 10 
0.0
 20 
0.5
 30 
0.0
 0 
VERTEX
 8 
1
 10 
1
 20 
0.5
 30 
0.0
 0 
VERTEX
 8 
1
 10 
0.99995
 20 
0.4992
 30 
0.0
 0 
VERTEX
 8 
1
 10 
0.99982
 20 
0.49837
 30 
0.0
 0 
VERTEX
 8 
1
 10 
0.99962
 20 
0.49752
 30 
0.0
 0 
VERTEX
 8 
1
 10 
0.99904
 20 
0.49576
 30 
0.0
 0 
VERTEX
 8 
1
 10 
0.99824
 20 
0.49396
 30 
0.0
 0 
VERTEX
 8 
1
 10 
0.99666
 20 
0.49116
 30 
0.0
 0 
VERTEX
 8 
1
 10 
0.98823
 20 
0.48149
 30 
0.0
 0 
VERTEX
 8 
1
 10 
0.97515
 20 
0.47157
 30 
0.0
 0 
VERTEX
 8 
1
 10 
0.95762
 20 
0.46183
 30 
0.0
 0 
VERTEX
 8 
1
 10 
0.93582
 20 
0.45256
 30 
0.0
 0 
VERTEX
 8 
1
 10 
0.90993
 20 
0.44401
 30 
0.0
 0 
VERTEX
 8 
1
 10 
0.88016
 20 
0.43636
 30 
0.0
 0 
VERTEX
 8 
1
 10 
0.84676
 20 
0.42978
 30 
0.0
 0 
VERTEX
 8 
1
 10 
0.81003
 20 
0.42439
 30 
0.0
 0 
VERTEX
 8 
1
 10 
0.77029
 20 
0.42031
 30 
0.0
 0 
VERTEX
 8 
1
 10 
0.72787
 20 
0.41762
 30 
0.0
 0 
VERTEX
 8 
1
 10 
0.68313
 20 
0.41636
 30 
0.0
 0 
VERTEX
 8 
1
 10 
0.63647
 20 
0.41656
 30 
0.0
 0 
VERTEX
 8 
1
 10 
0.58827
 20 
0.41819
 30 
0.0
 0 
VERTEX
 8 
1
 10 
0.53897
 20 
0.42119
 30 
0.0
 0 
VERTEX
 8 
1
 10 
0.48901
 20 
0.42548
 30 
0.0
 0 
VERTEX
 8 
1
 10 
0.43882
 20 
0.43092
 30 
0.0
 0 
VERTEX
 8 
1
 10 
0.38889
 20 
0.43738
 30 
0.0
 0 
VERTEX
 8 
1
 10 
0.33968
 20 
0.44469
 30 
0.0
 0 
VERTEX
 8 
1
 10 
0.29159
 20 
0.45271
 30 
0.0
 0 
VERTEX
 8 
1
 10 
0.2449
 20 
0.46109
 30 
0.0
 0 
VERTEX
 8 
1
 10 
0.20013
 20 
0.46921
 30 
0.0
 0 
VERTEX
 8 
1
 10 
0.15809
 20 
0.47663
 30 
0.0
 0 
VERTEX
 8 
1
 10 
0.11958
 20 
0.48309
 30 
0.0
 0 
VERTEX
 8 
1
 10 
0.08541
 20 
0.48845
 30 
0.0
 0 
VERTEX
 8 
1
 10 
0.0563
 20 
0.49274
 30 
0.0
 0 
VERTEX
 8 
1
 10 
0.03276
 20 
0.49612
 30 
0.0
 0 
VERTEX
 8 
1
 10 
0.01509
 20 
0.49851
 30 
0.0
 0 
VERTEX
 8 
1
 10 
0.0038799
 20 
0.49971
 30 
0.0
 0 
VERTEX
 8 
1
 10 
0.0
 20 
0.5
 30 
0.0
 0 
SEQEND
 8 
1
 0 
ENDSEC
 0 
EOF
