 0 
SECTION
 2 
ENTITIES
 0 
POLYLINE
 8 
1
 66 
 1 
 10 
0.0
 20 
0.0
 30 
0.0
 0 
VERTEX
 8 
1
 10 
0.0
 20 
0.5
 30 
0.0
 0 
VERTEX
 8 
1
 10 
0.0037599
 20 
0.50028
 30 
0.0
 0 
VERTEX
 8 
1
 10 
0.01463
 20 
0.50139
 30 
0.0
 0 
VERTEX
 8 
1
 10 
0.03173
 20 
0.50349
 30 
0.0
 0 
VERTEX
 8 
1
 10 
0.05455
 20 
0.50626
 30 
0.0
 0 
VERTEX
 8 
1
 10 
0.08295
 20 
0.50951
 30 
0.0
 0 
VERTEX
 8 
1
 10 
0.11663
 20 
0.51342
 30 
0.0
 0 
VERTEX
 8 
1
 10 
0.15502
 20 
0.51808
 30 
0.0
 0 
VERTEX
 8 
1
 10 
0.19749
 20 
0.52346
 30 
0.0
 0 
VERTEX
 8 
1
 10 
0.24338
 20 
0.52949
 30 
0.0
 0 
VERTEX
 8 
1
 10 
0.29198
 20 
0.53603
 30 
0.0
 0 
VERTEX
 8 
1
 10 
0.34262
 20 
0.54292
 30 
0.0
 0 
VERTEX
 8 
1
 10 
0.39458
 20 
0.54995
 30 
0.0
 0 
VERTEX
 8 
1
 10 
0.4472
 20 
0.5569
 30 
0.0
 0 
VERTEX
 8 
1
 10 
0.49982
 20 
0.5635
 30 
0.0
 0 
VERTEX
 8 
1
 10 
0.55181
 20 
0.56952
 30 
0.0
 0 
VERTEX
 8 
1
 10 
0.60262
 20 
0.57471
 30 
0.0
 0 
VERTEX
 8 
1
 10 
0.65168
 20 
0.57881
 30 
0.0
 0 
VERTEX
 8 
1
 10 
0.69852
 20 
0.58162
 30 
0.0
 0 
VERTEX
 8 
1
 10 
0.74266
 20 
0.58284
 30 
0.0
 0 
VERTEX
 8 
1
 10 
0.78388
 20 
0.5822
 30 
0.0
 0 
VERTEX
 8 
1
 10 
0.8221
 20 
0.57965
 30 
0.0
 0 
VERTEX
 8 
1
 10 
0.85712
 20 
0.57534
 30 
0.0
 0 
VERTEX
 8 
1
 10 
0.88871
 20 
0.56937
 30 
0.0
 0 
VERTEX
 8 
1
 10 
0.91668
 20 
0.5619
 30 
0.0
 0 
VERTEX
 8 
1
 10 
0.94085
 20 
0.55311
 30 
0.0
 0 
VERTEX
 8 
1
 10 
0.9611
 20 
0.54322
 30 
0.0
 0 
VERTEX
 8 
1
 10 
0.97732
 20 
0.53253
 30 
0.0
 0 
VERTEX
 8 
1
 10 
0.98939
 20 
0.52138
 30 
0.0
 0 
VERTEX
 8 
1
 10 
0.99719
 20 
0.51025
 30 
0.0
 0 
VERTEX
 8 
1
 10 
1
 20 
0.5
 30 
0.0
 0 
VERTEX
 8 
1
 10 
0.99719
 20 
0.48975
 30 
0.0
 0 
VERTEX
 8 
1
 10 
0.98939
 20 
0.47862
 30 
0.0
 0 
VERTEX
 8 
1
 10 
0.97732
 20 
0.46747
 30 
0.0
 0 
VERTEX
 8 
1
 10 
0.9611
 20 
0.45678
 30 
0.0
 0 
VERTEX
 8 
1
 10 
0.94085
 20 
0.44689
 30 
0.0
 0 
VERTEX
 8 
1
 10 
0.91668
 20 
0.4381
 30 
0.0
 0 
VERTEX
 8 
1
 10 
0.88871
 20 
0.43063
 30 
0.0
 0 
VERTEX
 8 
1
 10 
0.85712
 20 
0.42466
 30 
0.0
 0 
VERTEX
 8 
1
 10 
0.8221
 20 
0.42035
 30 
0.0
 0 
VERTEX
 8 
1
 10 
0.78388
 20 
0.4178
 30 
0.0
 0 
VERTEX
 8 
1
 10 
0.74266
 20 
0.41716
 30 
0.0
 0 
VERTEX
 8 
1
 10 
0.69852
 20 
0.41838
 30 
0.0
 0 
VERTEX
 8 
1
 10 
0.65168
 20 
0.42119
 30 
0.0
 0 
VERTEX
 8 
1
 10 
0.60262
 20 
0.42529
 30 
0.0
 0 
VERTEX
 8 
1
 10 
0.55181
 20 
0.43048
 30 
0.0
 0 
VERTEX
 8 
1
 10 
0.49982
 20 
0.4365
 30 
0.0
 0 
VERTEX
 8 
1
 10 
0.4472
 20 
0.4431
 30 
0.0
 0 
VERTEX
 8 
1
 10 
0.39458
 20 
0.45005
 30 
0.0
 0 
VERTEX
 8 
1
 10 
0.34262
 20 
0.45708
 30 
0.0
 0 
VERTEX
 8 
1
 10 
0.29198
 20 
0.46397
 30 
0.0
 0 
VERTEX
 8 
1
 10 
0.24338
 20 
0.47051
 30 
0.0
 0 
VERTEX
 8 
1
 10 
0.19749
 20 
0.47654
 30 
0.0
 0 
VERTEX
 8 
1
 10 
0.15502
 20 
0.48192
 30 
0.0
 0 
VERTEX
 8 
1
 10 
0.11663
 20 
0.48658
 30 
0.0
 0 
VERTEX
 8 
1
 10 
0.08295
 20 
0.49049
 30 
0.0
 0 
VERTEX
 8 
1
 10 
0.05455
 20 
0.49374
 30 
0.0
 0 
VERTEX
 8 
1
 10 
0.03173
 20 
0.49651
 30 
0.0
 0 
VERTEX
 8 
1
 10 
0.01463
 20 
0.49861
 30 
0.0
 0 
VERTEX
 8 
1
 10 
0.0037599
 20 
0.49972
 30 
0.0
 0 
VERTEX
 8 
1
 10 
0.0
 20 
0.5
 30 
0.0
 0 
SEQEND
 8 
1
 0 
ENDSEC
 0 
EOF
