 0 
SECTION
 2 
ENTITIES
 0 
POLYLINE
 8 
1
 66 
 1 
 10 
0.0
 20 
0.0
 30 
0.0
 0 
VERTEX
 8 
1
 10 
0.0
 20 
0.5
 30 
0.0
 0 
VERTEX
 8 
1
 10 
0.0035899
 20 
0.50014
 30 
0.0
 0 
VERTEX
 8 
1
 10 
0.01416
 20 
0.50078
 30 
0.0
 0 
VERTEX
 8 
1
 10 
0.03129
 20 
0.50217
 30 
0.0
 0 
VERTEX
 8 
1
 10 
0.05455
 20 
0.50438
 30 
0.0
 0 
VERTEX
 8 
1
 10 
0.0836
 20 
0.50753
 30 
0.0
 0 
VERTEX
 8 
1
 10 
0.1179
 20 
0.51178
 30 
0.0
 0 
VERTEX
 8 
1
 10 
0.15675
 20 
0.51726
 30 
0.0
 0 
VERTEX
 8 
1
 10 
0.19936
 20 
0.52399
 30 
0.0
 0 
VERTEX
 8 
1
 10 
0.2448
 20 
0.53185
 30 
0.0
 0 
VERTEX
 8 
1
 10 
0.29203
 20 
0.54059
 30 
0.0
 0 
VERTEX
 8 
1
 10 
0.33992
 20 
0.54944
 30 
0.0
 0 
VERTEX
 8 
1
 10 
0.38814
 20 
0.55728
 30 
0.0
 0 
VERTEX
 8 
1
 10 
0.43687
 20 
0.56364
 30 
0.0
 0 
VERTEX
 8 
1
 10 
0.486
 20 
0.56851
 30 
0.0
 0 
VERTEX
 8 
1
 10 
0.53531
 20 
0.57194
 30 
0.0
 0 
VERTEX
 8 
1
 10 
0.58436
 20 
0.57411
 30 
0.0
 0 
VERTEX
 8 
1
 10 
0.6326
 20 
0.57504
 30 
0.0
 0 
VERTEX
 8 
1
 10 
0.67956
 20 
0.57475
 30 
0.0
 0 
VERTEX
 8 
1
 10 
0.72477
 20 
0.57326
 30 
0.0
 0 
VERTEX
 8 
1
 10 
0.76756
 20 
0.57062
 30 
0.0
 0 
VERTEX
 8 
1
 10 
0.80809
 20 
0.56686
 30 
0.0
 0 
VERTEX
 8 
1
 10 
0.84537
 20 
0.56204
 30 
0.0
 0 
VERTEX
 8 
1
 10 
0.87925
 20 
0.55622
 30 
0.0
 0 
VERTEX
 8 
1
 10 
0.90941
 20 
0.54949
 30 
0.0
 0 
VERTEX
 8 
1
 10 
0.93559
 20 
0.54197
 30 
0.0
 0 
VERTEX
 8 
1
 10 
0.95758
 20 
0.5338
 30 
0.0
 0 
VERTEX
 8 
1
 10 
0.97519
 20 
0.52519
 30 
0.0
 0 
VERTEX
 8 
1
 10 
0.98829
 20 
0.5164
 30 
0.0
 0 
VERTEX
 8 
1
 10 
0.99669
 20 
0.50781
 30 
0.0
 0 
VERTEX
 8 
1
 10 
0.99826
 20 
0.50533
 30 
0.0
 0 
VERTEX
 8 
1
 10 
0.99905
 20 
0.50373
 30 
0.0
 0 
VERTEX
 8 
1
 10 
0.99962
 20 
0.50218
 30 
0.0
 0 
VERTEX
 8 
1
 10 
0.99982
 20 
0.50143
 30 
0.0
 0 
VERTEX
 8 
1
 10 
0.99995
 20 
0.5007
 30 
0.0
 0 
VERTEX
 8 
1
 10 
0.99995
 20 
0.4993
 30 
0.0
 0 
VERTEX
 8 
1
 10 
0.99982
 20 
0.49857
 30 
0.0
 0 
VERTEX
 8 
1
 10 
0.99962
 20 
0.49782
 30 
0.0
 0 
VERTEX
 8 
1
 10 
0.99905
 20 
0.49627
 30 
0.0
 0 
VERTEX
 8 
1
 10 
0.99826
 20 
0.49467
 30 
0.0
 0 
VERTEX
 8 
1
 10 
0.99669
 20 
0.49219
 30 
0.0
 0 
VERTEX
 8 
1
 10 
0.98829
 20 
0.4836
 30 
0.0
 0 
VERTEX
 8 
1
 10 
0.97519
 20 
0.47481
 30 
0.0
 0 
VERTEX
 8 
1
 10 
0.95758
 20 
0.4662
 30 
0.0
 0 
VERTEX
 8 
1
 10 
0.93559
 20 
0.45803
 30 
0.0
 0 
VERTEX
 8 
1
 10 
0.90941
 20 
0.45051
 30 
0.0
 0 
VERTEX
 8 
1
 10 
0.87925
 20 
0.44378
 30 
0.0
 0 
VERTEX
 8 
1
 10 
0.84537
 20 
0.43796
 30 
0.0
 0 
VERTEX
 8 
1
 10 
0.80809
 20 
0.43314
 30 
0.0
 0 
VERTEX
 8 
1
 10 
0.76776
 20 
0.42938
 30 
0.0
 0 
VERTEX
 8 
1
 10 
0.72477
 20 
0.42674
 30 
0.0
 0 
VERTEX
 8 
1
 10 
0.67956
 20 
0.42525
 30 
0.0
 0 
VERTEX
 8 
1
 10 
0.6326
 20 
0.42496
 30 
0.0
 0 
VERTEX
 8 
1
 10 
0.58436
 20 
0.42589
 30 
0.0
 0 
VERTEX
 8 
1
 10 
0.53531
 20 
0.42806
 30 
0.0
 0 
VERTEX
 8 
1
 10 
0.486
 20 
0.43149
 30 
0.0
 0 
VERTEX
 8 
1
 10 
0.43687
 20 
0.43636
 30 
0.0
 0 
VERTEX
 8 
1
 10 
0.38814
 20 
0.44272
 30 
0.0
 0 
VERTEX
 8 
1
 10 
0.33992
 20 
0.45056
 30 
0.0
 0 
VERTEX
 8 
1
 10 
0.29203
 20 
0.45941
 30 
0.0
 0 
VERTEX
 8 
1
 10 
0.2448
 20 
0.46815
 30 
0.0
 0 
VERTEX
 8 
1
 10 
0.19936
 20 
0.47601
 30 
0.0
 0 
VERTEX
 8 
1
 10 
0.15675
 20 
0.48274
 30 
0.0
 0 
VERTEX
 8 
1
 10 
0.1179
 20 
0.48822
 30 
0.0
 0 
VERTEX
 8 
1
 10 
0.0836
 20 
0.49248
 30 
0.0
 0 
VERTEX
 8 
1
 10 
0.05455
 20 
0.49562
 30 
0.0
 0 
VERTEX
 8 
1
 10 
0.03129
 20 
0.49783
 30 
0.0
 0 
VERTEX
 8 
1
 10 
0.01416
 20 
0.49922
 30 
0.0
 0 
VERTEX
 8 
1
 10 
0.0035899
 20 
0.49986
 30 
0.0
 0 
VERTEX
 8 
1
 10 
0.0
 20 
0.5
 30 
0.0
 0 
SEQEND
 8 
1
 0 
ENDSEC
 0 
EOF
