 0 
SECTION
 2 
ENTITIES
 0 
POLYLINE
 8 
1
 66 
 1 
 10 
0.0
 20 
0.0
 30 
0.0
 0 
VERTEX
 8 
1
 10 
0.0
 20 
0.5
 30 
0.0
 0 
VERTEX
 8 
1
 10 
0.0035699
 20 
0.50015
 30 
0.0
 0 
VERTEX
 8 
1
 10 
0.01408
 20 
0.5008
 30 
0.0
 0 
VERTEX
 8 
1
 10 
0.03111
 20 
0.50222
 30 
0.0
 0 
VERTEX
 8 
1
 10 
0.05422
 20 
0.50451
 30 
0.0
 0 
VERTEX
 8 
1
 10 
0.08301
 20 
0.50776
 30 
0.0
 0 
VERTEX
 8 
1
 10 
0.11695
 20 
0.51214
 30 
0.0
 0 
VERTEX
 8 
1
 10 
0.15529
 20 
0.51777
 30 
0.0
 0 
VERTEX
 8 
1
 10 
0.19717
 20 
0.52459
 30 
0.0
 0 
VERTEX
 8 
1
 10 
0.24158
 20 
0.53242
 30 
0.0
 0 
VERTEX
 8 
1
 10 
0.28744
 20 
0.5406
 30 
0.0
 0 
VERTEX
 8 
1
 10 
0.33431
 20 
0.54807
 30 
0.0
 0 
VERTEX
 8 
1
 10 
0.38233
 20 
0.55437
 30 
0.0
 0 
VERTEX
 8 
1
 10 
0.43133
 20 
0.55945
 30 
0.0
 0 
VERTEX
 8 
1
 10 
0.48107
 20 
0.56335
 30 
0.0
 0 
VERTEX
 8 
1
 10 
0.5311
 20 
0.56619
 30 
0.0
 0 
VERTEX
 8 
1
 10 
0.58086
 20 
0.56802
 30 
0.0
 0 
VERTEX
 8 
1
 10 
0.62981
 20 
0.56884
 30 
0.0
 0 
VERTEX
 8 
1
 10 
0.67744
 20 
0.56864
 30 
0.0
 0 
VERTEX
 8 
1
 10 
0.72323
 20 
0.56741
 30 
0.0
 0 
VERTEX
 8 
1
 10 
0.76672
 20 
0.56514
 30 
0.0
 0 
VERTEX
 8 
1
 10 
0.80746
 20 
0.56186
 30 
0.0
 0 
VERTEX
 8 
1
 10 
0.84506
 20 
0.55759
 30 
0.0
 0 
VERTEX
 8 
1
 10 
0.87915
 20 
0.55236
 30 
0.0
 0 
VERTEX
 8 
1
 10 
0.90944
 20 
0.54624
 30 
0.0
 0 
VERTEX
 8 
1
 10 
0.93568
 20 
0.53932
 30 
0.0
 0 
VERTEX
 8 
1
 10 
0.95769
 20 
0.53174
 30 
0.0
 0 
VERTEX
 8 
1
 10 
0.97528
 20 
0.52368
 30 
0.0
 0 
VERTEX
 8 
1
 10 
0.98835
 20 
0.51542
 30 
0.0
 0 
VERTEX
 8 
1
 10 
0.9967
 20 
0.50733
 30 
0.0
 0 
VERTEX
 8 
1
 10 
0.99826
 20 
0.505
 30 
0.0
 0 
VERTEX
 8 
1
 10 
0.99905
 20 
0.50349
 30 
0.0
 0 
VERTEX
 8 
1
 10 
0.99962
 20 
0.50204
 30 
0.0
 0 
VERTEX
 8 
1
 10 
0.99982
 20 
0.50134
 30 
0.0
 0 
VERTEX
 8 
1
 10 
0.99995
 20 
0.50066
 30 
0.0
 0 
VERTEX
 8 
1
 10 
0.99995
 20 
0.49934
 30 
0.0
 0 
VERTEX
 8 
1
 10 
0.99982
 20 
0.49866
 30 
0.0
 0 
VERTEX
 8 
1
 10 
0.99962
 20 
0.49796
 30 
0.0
 0 
VERTEX
 8 
1
 10 
0.99905
 20 
0.49651
 30 
0.0
 0 
VERTEX
 8 
1
 10 
0.99826
 20 
0.495
 30 
0.0
 0 
VERTEX
 8 
1
 10 
0.9967
 20 
0.49267
 30 
0.0
 0 
VERTEX
 8 
1
 10 
0.98835
 20 
0.48458
 30 
0.0
 0 
VERTEX
 8 
1
 10 
0.97528
 20 
0.47632
 30 
0.0
 0 
VERTEX
 8 
1
 10 
0.95769
 20 
0.46826
 30 
0.0
 0 
VERTEX
 8 
1
 10 
0.93568
 20 
0.46068
 30 
0.0
 0 
VERTEX
 8 
1
 10 
0.90944
 20 
0.45376
 30 
0.0
 0 
VERTEX
 8 
1
 10 
0.87915
 20 
0.44764
 30 
0.0
 0 
VERTEX
 8 
1
 10 
0.84506
 20 
0.44241
 30 
0.0
 0 
VERTEX
 8 
1
 10 
0.80746
 20 
0.43814
 30 
0.0
 0 
VERTEX
 8 
1
 10 
0.76672
 20 
0.43486
 30 
0.0
 0 
VERTEX
 8 
1
 10 
0.72323
 20 
0.43259
 30 
0.0
 0 
VERTEX
 8 
1
 10 
0.67744
 20 
0.43136
 30 
0.0
 0 
VERTEX
 8 
1
 10 
0.62981
 20 
0.43116
 30 
0.0
 0 
VERTEX
 8 
1
 10 
0.58086
 20 
0.43198
 30 
0.0
 0 
VERTEX
 8 
1
 10 
0.5311
 20 
0.43381
 30 
0.0
 0 
VERTEX
 8 
1
 10 
0.48107
 20 
0.43665
 30 
0.0
 0 
VERTEX
 8 
1
 10 
0.43133
 20 
0.44055
 30 
0.0
 0 
VERTEX
 8 
1
 10 
0.38233
 20 
0.44563
 30 
0.0
 0 
VERTEX
 8 
1
 10 
0.33431
 20 
0.45193
 30 
0.0
 0 
VERTEX
 8 
1
 10 
0.28744
 20 
0.4594
 30 
0.0
 0 
VERTEX
 8 
1
 10 
0.24158
 20 
0.46758
 30 
0.0
 0 
VERTEX
 8 
1
 10 
0.19717
 20 
0.47541
 30 
0.0
 0 
VERTEX
 8 
1
 10 
0.15529
 20 
0.48223
 30 
0.0
 0 
VERTEX
 8 
1
 10 
0.11695
 20 
0.48786
 30 
0.0
 0 
VERTEX
 8 
1
 10 
0.08301
 20 
0.49225
 30 
0.0
 0 
VERTEX
 8 
1
 10 
0.05422
 20 
0.49549
 30 
0.0
 0 
VERTEX
 8 
1
 10 
0.03111
 20 
0.49778
 30 
0.0
 0 
VERTEX
 8 
1
 10 
0.01408
 20 
0.4992
 30 
0.0
 0 
VERTEX
 8 
1
 10 
0.0035699
 20 
0.49985
 30 
0.0
 0 
VERTEX
 8 
1
 10 
0.0
 20 
0.5
 30 
0.0
 0 
SEQEND
 8 
1
 0 
ENDSEC
 0 
EOF
