 0 
SECTION
 2 
ENTITIES
 0 
POLYLINE
 8 
1
 66 
 1 
 10 
0.0
 20 
0.0
 30 
0.0
 0 
VERTEX
 8 
1
 10 
0.0
 20 
0.5
 30 
0.0
 0 
VERTEX
 8 
1
 10 
0.0036500
 20 
0.50096
 30 
0.0
 0 
VERTEX
 8 
1
 10 
0.01371
 20 
0.5038
 30 
0.0
 0 
VERTEX
 8 
1
 10 
0.02921
 20 
0.50777
 30 
0.0
 0 
VERTEX
 8 
1
 10 
0.05032
 20 
0.51226
 30 
0.0
 0 
VERTEX
 8 
1
 10 
0.07707
 20 
0.51748
 30 
0.0
 0 
VERTEX
 8 
1
 10 
0.10898
 20 
0.5236
 30 
0.0
 0 
VERTEX
 8 
1
 10 
0.14549
 20 
0.53064
 30 
0.0
 0 
VERTEX
 8 
1
 10 
0.18598
 20 
0.53854
 30 
0.0
 0 
VERTEX
 8 
1
 10 
0.22977
 20 
0.5472
 30 
0.0
 0 
VERTEX
 8 
1
 10 
0.27614
 20 
0.55643
 30 
0.0
 0 
VERTEX
 8 
1
 10 
0.32439
 20 
0.566
 30 
0.0
 0 
VERTEX
 8 
1
 10 
0.37381
 20 
0.57561
 30 
0.0
 0 
VERTEX
 8 
1
 10 
0.4237
 20 
0.58493
 30 
0.0
 0 
VERTEX
 8 
1
 10 
0.47343
 20 
0.59358
 30 
0.0
 0 
VERTEX
 8 
1
 10 
0.52241
 20 
0.60119
 30 
0.0
 0 
VERTEX
 8 
1
 10 
0.57009
 20 
0.60734
 30 
0.0
 0 
VERTEX
 8 
1
 10 
0.61602
 20 
0.61148
 30 
0.0
 0 
VERTEX
 8 
1
 10 
0.66018
 20 
0.61305
 30 
0.0
 0 
VERTEX
 8 
1
 10 
0.70283
 20 
0.61203
 30 
0.0
 0 
VERTEX
 8 
1
 10 
0.74392
 20 
0.60877
 30 
0.0
 0 
VERTEX
 8 
1
 10 
0.78315
 20 
0.60364
 30 
0.0
 0 
VERTEX
 8 
1
 10 
0.82011
 20 
0.59691
 30 
0.0
 0 
VERTEX
 8 
1
 10 
0.85441
 20 
0.58878
 30 
0.0
 0 
VERTEX
 8 
1
 10 
0.88572
 20 
0.57946
 30 
0.0
 0 
VERTEX
 8 
1
 10 
0.91373
 20 
0.56917
 30 
0.0
 0 
VERTEX
 8 
1
 10 
0.93816
 20 
0.55813
 30 
0.0
 0 
VERTEX
 8 
1
 10 
0.9588
 20 
0.54659
 30 
0.0
 0 
VERTEX
 8 
1
 10 
0.97545
 20 
0.53486
 30 
0.0
 0 
VERTEX
 8 
1
 10 
0.98795
 20 
0.52327
 30 
0.0
 0 
VERTEX
 8 
1
 10 
0.99614
 20 
0.51225
 30 
0.0
 0 
VERTEX
 8 
1
 10 
0.9987
 20 
0.50677
 30 
0.0
 0 
VERTEX
 8 
1
 10 
0.99955
 20 
0.50389
 30 
0.0
 0 
VERTEX
 8 
1
 10 
0.99987
 20 
0.50208
 30 
0.0
 0 
VERTEX
 8 
1
 10 
0.99999
 20 
0.50036
 30 
0.0
 0 
VERTEX
 8 
1
 10 
0.99997
 20 
0.49955
 30 
0.0
 0 
VERTEX
 8 
1
 10 
0.99988
 20 
0.49878
 30 
0.0
 0 
VERTEX
 8 
1
 10 
0.99971
 20 
0.49805
 30 
0.0
 0 
VERTEX
 8 
1
 10 
0.99944
 20 
0.49735
 30 
0.0
 0 
VERTEX
 8 
1
 10 
0.99907
 20 
0.49664
 30 
0.0
 0 
VERTEX
 8 
1
 10 
0.99862
 20 
0.49592
 30 
0.0
 0 
VERTEX
 8 
1
 10 
0.99751
 20 
0.49446
 30 
0.0
 0 
VERTEX
 8 
1
 10 
0.99613
 20 
0.49298
 30 
0.0
 0 
VERTEX
 8 
1
 10 
0.99361
 20 
0.49071
 30 
0.0
 0 
VERTEX
 8 
1
 10 
0.98872
 20 
0.48714
 30 
0.0
 0 
VERTEX
 8 
1
 10 
0.97428
 20 
0.47942
 30 
0.0
 0 
VERTEX
 8 
1
 10 
0.95477
 20 
0.47185
 30 
0.0
 0 
VERTEX
 8 
1
 10 
0.93049
 20 
0.46459
 30 
0.0
 0 
VERTEX
 8 
1
 10 
0.90174
 20 
0.45776
 30 
0.0
 0 
VERTEX
 8 
1
 10 
0.8689
 20 
0.45142
 30 
0.0
 0 
VERTEX
 8 
1
 10 
0.8324
 20 
0.44567
 30 
0.0
 0 
VERTEX
 8 
1
 10 
0.79274
 20 
0.4406
 30 
0.0
 0 
VERTEX
 8 
1
 10 
0.75043
 20 
0.43638
 30 
0.0
 0 
VERTEX
 8 
1
 10 
0.706
 20 
0.43314
 30 
0.0
 0 
VERTEX
 8 
1
 10 
0.66
 20 
0.43107
 30 
0.0
 0 
VERTEX
 8 
1
 10 
0.61299
 20 
0.43039
 30 
0.0
 0 
VERTEX
 8 
1
 10 
0.56557
 20 
0.43153
 30 
0.0
 0 
VERTEX
 8 
1
 10 
0.51782
 20 
0.43513
 30 
0.0
 0 
VERTEX
 8 
1
 10 
0.46927
 20 
0.44135
 30 
0.0
 0 
VERTEX
 8 
1
 10 
0.41956
 20 
0.44956
 30 
0.0
 0 
VERTEX
 8 
1
 10 
0.36888
 20 
0.45873
 30 
0.0
 0 
VERTEX
 8 
1
 10 
0.318
 20 
0.46797
 30 
0.0
 0 
VERTEX
 8 
1
 10 
0.26779
 20 
0.47671
 30 
0.0
 0 
VERTEX
 8 
1
 10 
0.21919
 20 
0.48442
 30 
0.0
 0 
VERTEX
 8 
1
 10 
0.1732
 20 
0.4908
 30 
0.0
 0 
VERTEX
 8 
1
 10 
0.13083
 20 
0.49562
 30 
0.0
 0 
VERTEX
 8 
1
 10 
0.09305
 20 
0.49886
 30 
0.0
 0 
VERTEX
 8 
1
 10 
0.060779
 20 
0.50064
 30 
0.0
 0 
VERTEX
 8 
1
 10 
0.03478
 20 
0.50124
 30 
0.0
 0 
VERTEX
 8 
1
 10 
0.01566
 20 
0.50099
 30 
0.0
 0 
VERTEX
 8 
1
 10 
0.0039500
 20 
0.50035
 30 
0.0
 0 
VERTEX
 8 
1
 10 
0.0
 20 
0.5
 30 
0.0
 0 
SEQEND
 8 
1
 0 
ENDSEC
 0 
EOF
