 0 
SECTION
 2 
ENTITIES
 0 
POLYLINE
 8 
1
 66 
 1 
 10 
0.0
 20 
0.0
 30 
0.0
 0 
VERTEX
 8 
1
 10 
0.0
 20 
0.5
 30 
0.0
 0 
VERTEX
 8 
1
 10 
0.0035199
 20 
0.50112
 30 
0.0
 0 
VERTEX
 8 
1
 10 
0.01318
 20 
0.50433
 30 
0.0
 0 
VERTEX
 8 
1
 10 
0.02802
 20 
0.50873
 30 
0.0
 0 
VERTEX
 8 
1
 10 
0.048290
 20 
0.51361
 30 
0.0
 0 
VERTEX
 8 
1
 10 
0.07409
 20 
0.51918
 30 
0.0
 0 
VERTEX
 8 
1
 10 
0.10498
 20 
0.52556
 30 
0.0
 0 
VERTEX
 8 
1
 10 
0.14047
 20 
0.53275
 30 
0.0
 0 
VERTEX
 8 
1
 10 
0.17996
 20 
0.5407
 30 
0.0
 0 
VERTEX
 8 
1
 10 
0.22286
 20 
0.54928
 30 
0.0
 0 
VERTEX
 8 
1
 10 
0.26848
 20 
0.55834
 30 
0.0
 0 
VERTEX
 8 
1
 10 
0.31615
 20 
0.56767
 30 
0.0
 0 
VERTEX
 8 
1
 10 
0.36521
 20 
0.57699
 30 
0.0
 0 
VERTEX
 8 
1
 10 
0.41498
 20 
0.58602
 30 
0.0
 0 
VERTEX
 8 
1
 10 
0.46485
 20 
0.59444
 30 
0.0
 0 
VERTEX
 8 
1
 10 
0.51423
 20 
0.60191
 30 
0.0
 0 
VERTEX
 8 
1
 10 
0.56259
 20 
0.6081
 30 
0.0
 0 
VERTEX
 8 
1
 10 
0.60944
 20 
0.61267
 30 
0.0
 0 
VERTEX
 8 
1
 10 
0.65435
 20 
0.61518
 30 
0.0
 0 
VERTEX
 8 
1
 10 
0.69728
 20 
0.61518
 30 
0.0
 0 
VERTEX
 8 
1
 10 
0.7384
 20 
0.61273
 30 
0.0
 0 
VERTEX
 8 
1
 10 
0.77757
 20 
0.60814
 30 
0.0
 0 
VERTEX
 8 
1
 10 
0.81454
 20 
0.60168
 30 
0.0
 0 
VERTEX
 8 
1
 10 
0.84898
 20 
0.59365
 30 
0.0
 0 
VERTEX
 8 
1
 10 
0.88056
 20 
0.58431
 30 
0.0
 0 
VERTEX
 8 
1
 10 
0.90895
 20 
0.57388
 30 
0.0
 0 
VERTEX
 8 
1
 10 
0.93389
 20 
0.56262
 30 
0.0
 0 
VERTEX
 8 
1
 10 
0.95514
 20 
0.55078
 30 
0.0
 0 
VERTEX
 8 
1
 10 
0.97249
 20 
0.53867
 30 
0.0
 0 
VERTEX
 8 
1
 10 
0.98578
 20 
0.52661
 30 
0.0
 0 
VERTEX
 8 
1
 10 
0.99485
 20 
0.51504
 30 
0.0
 0 
VERTEX
 8 
1
 10 
0.99874
 20 
0.50703
 30 
0.0
 0 
VERTEX
 8 
1
 10 
0.99957
 20 
0.50404
 30 
0.0
 0 
VERTEX
 8 
1
 10 
0.99989
 20 
0.50214
 30 
0.0
 0 
VERTEX
 8 
1
 10 
0.99999
 20 
0.50034
 30 
0.0
 0 
VERTEX
 8 
1
 10 
0.99997
 20 
0.49948
 30 
0.0
 0 
VERTEX
 8 
1
 10 
0.99987
 20 
0.49866
 30 
0.0
 0 
VERTEX
 8 
1
 10 
0.9997
 20 
0.49788
 30 
0.0
 0 
VERTEX
 8 
1
 10 
0.99943
 20 
0.49712
 30 
0.0
 0 
VERTEX
 8 
1
 10 
0.99906
 20 
0.49636
 30 
0.0
 0 
VERTEX
 8 
1
 10 
0.99862
 20 
0.49558
 30 
0.0
 0 
VERTEX
 8 
1
 10 
0.99752
 20 
0.494
 30 
0.0
 0 
VERTEX
 8 
1
 10 
0.99616
 20 
0.4924
 30 
0.0
 0 
VERTEX
 8 
1
 10 
0.9937
 20 
0.48996
 30 
0.0
 0 
VERTEX
 8 
1
 10 
0.99123
 20 
0.48786
 30 
0.0
 0 
VERTEX
 8 
1
 10 
0.97821
 20 
0.47956
 30 
0.0
 0 
VERTEX
 8 
1
 10 
0.96024
 20 
0.47136
 30 
0.0
 0 
VERTEX
 8 
1
 10 
0.93764
 20 
0.4635
 30 
0.0
 0 
VERTEX
 8 
1
 10 
0.91073
 20 
0.45616
 30 
0.0
 0 
VERTEX
 8 
1
 10 
0.87986
 20 
0.44946
 30 
0.0
 0 
VERTEX
 8 
1
 10 
0.84548
 20 
0.44355
 30 
0.0
 0 
VERTEX
 8 
1
 10 
0.80805
 20 
0.43863
 30 
0.0
 0 
VERTEX
 8 
1
 10 
0.76807
 20 
0.43493
 30 
0.0
 0 
VERTEX
 8 
1
 10 
0.72607
 20 
0.43283
 30 
0.0
 0 
VERTEX
 8 
1
 10 
0.68227
 20 
0.43283
 30 
0.0
 0 
VERTEX
 8 
1
 10 
0.6366
 20 
0.43529
 30 
0.0
 0 
VERTEX
 8 
1
 10 
0.58899
 20 
0.44012
 30 
0.0
 0 
VERTEX
 8 
1
 10 
0.53924
 20 
0.44703
 30 
0.0
 0 
VERTEX
 8 
1
 10 
0.48748
 20 
0.45524
 30 
0.0
 0 
VERTEX
 8 
1
 10 
0.43434
 20 
0.46402
 30 
0.0
 0 
VERTEX
 8 
1
 10 
0.38054
 20 
0.4728
 30 
0.0
 0 
VERTEX
 8 
1
 10 
0.3269
 20 
0.48108
 30 
0.0
 0 
VERTEX
 8 
1
 10 
0.27431
 20 
0.48843
 30 
0.0
 0 
VERTEX
 8 
1
 10 
0.22374
 20 
0.49453
 30 
0.0
 0 
VERTEX
 8 
1
 10 
0.17616
 20 
0.49916
 30 
0.0
 0 
VERTEX
 8 
1
 10 
0.13257
 20 
0.50222
 30 
0.0
 0 
VERTEX
 8 
1
 10 
0.09389
 20 
0.50378
 30 
0.0
 0 
VERTEX
 8 
1
 10 
0.061000
 20 
0.504
 30 
0.0
 0 
VERTEX
 8 
1
 10 
0.03465
 20 
0.50321
 30 
0.0
 0 
VERTEX
 8 
1
 10 
0.01548
 20 
0.50186
 30 
0.0
 0 
VERTEX
 8 
1
 10 
0.0038799
 20 
0.50056
 30 
0.0
 0 
VERTEX
 8 
1
 10 
0.0
 20 
0.5
 30 
0.0
 0 
SEQEND
 8 
1
 0 
ENDSEC
 0 
EOF
