 0 
SECTION
 2 
ENTITIES
 0 
POLYLINE
 8 
1
 66 
 1 
 10 
0.0
 20 
0.0
 30 
0.0
 0 
VERTEX
 8 
1
 10 
0.0
 20 
0.5
 30 
0.0
 0 
VERTEX
 8 
1
 10 
0.0034300
 20 
0.50119
 30 
0.0
 0 
VERTEX
 8 
1
 10 
0.01279
 20 
0.50456
 30 
0.0
 0 
VERTEX
 8 
1
 10 
0.0271
 20 
0.50916
 30 
0.0
 0 
VERTEX
 8 
1
 10 
0.04662
 20 
0.51423
 30 
0.0
 0 
VERTEX
 8 
1
 10 
0.07142
 20 
0.51992
 30 
0.0
 0 
VERTEX
 8 
1
 10 
0.10106
 20 
0.52632
 30 
0.0
 0 
VERTEX
 8 
1
 10 
0.13506
 20 
0.53322
 30 
0.0
 0 
VERTEX
 8 
1
 10 
0.17292
 20 
0.54082
 30 
0.0
 0 
VERTEX
 8 
1
 10 
0.21407
 20 
0.54862
 30 
0.0
 0 
VERTEX
 8 
1
 10 
0.25797
 20 
0.55655
 30 
0.0
 0 
VERTEX
 8 
1
 10 
0.30404
 20 
0.56436
 30 
0.0
 0 
VERTEX
 8 
1
 10 
0.35174
 20 
0.57181
 30 
0.0
 0 
VERTEX
 8 
1
 10 
0.40053
 20 
0.57868
 30 
0.0
 0 
VERTEX
 8 
1
 10 
0.4499
 20 
0.58472
 30 
0.0
 0 
VERTEX
 8 
1
 10 
0.49936
 20 
0.58973
 30 
0.0
 0 
VERTEX
 8 
1
 10 
0.54844
 20 
0.59353
 30 
0.0
 0 
VERTEX
 8 
1
 10 
0.59672
 20 
0.59597
 30 
0.0
 0 
VERTEX
 8 
1
 10 
0.64377
 20 
0.59694
 30 
0.0
 0 
VERTEX
 8 
1
 10 
0.68923
 20 
0.59638
 30 
0.0
 0 
VERTEX
 8 
1
 10 
0.73269
 20 
0.59427
 30 
0.0
 0 
VERTEX
 8 
1
 10 
0.77383
 20 
0.59056
 30 
0.0
 0 
VERTEX
 8 
1
 10 
0.81241
 20 
0.58534
 30 
0.0
 0 
VERTEX
 8 
1
 10 
0.84816
 20 
0.57881
 30 
0.0
 0 
VERTEX
 8 
1
 10 
0.88072
 20 
0.57113
 30 
0.0
 0 
VERTEX
 8 
1
 10 
0.9098
 20 
0.56247
 30 
0.0
 0 
VERTEX
 8 
1
 10 
0.93514
 20 
0.553
 30 
0.0
 0 
VERTEX
 8 
1
 10 
0.95654
 20 
0.54293
 30 
0.0
 0 
VERTEX
 8 
1
 10 
0.97384
 20 
0.53251
 30 
0.0
 0 
VERTEX
 8 
1
 10 
0.98689
 20 
0.52203
 30 
0.0
 0 
VERTEX
 8 
1
 10 
0.99558
 20 
0.5119
 30 
0.0
 0 
VERTEX
 8 
1
 10 
0.99854
 20 
0.50643
 30 
0.0
 0 
VERTEX
 8 
1
 10 
0.99946
 20 
0.50375
 30 
0.0
 0 
VERTEX
 8 
1
 10 
0.99983
 20 
0.50204
 30 
0.0
 0 
VERTEX
 8 
1
 10 
0.99999
 20 
0.50041
 30 
0.0
 0 
VERTEX
 8 
1
 10 
0.99993
 20 
0.49888
 30 
0.0
 0 
VERTEX
 8 
1
 10 
0.99979
 20 
0.49818
 30 
0.0
 0 
VERTEX
 8 
1
 10 
0.99956
 20 
0.49749
 30 
0.0
 0 
VERTEX
 8 
1
 10 
0.99923
 20 
0.49679
 30 
0.0
 0 
VERTEX
 8 
1
 10 
0.99882
 20 
0.49608
 30 
0.0
 0 
VERTEX
 8 
1
 10 
0.9978
 20 
0.49464
 30 
0.0
 0 
VERTEX
 8 
1
 10 
0.99654
 20 
0.49316
 30 
0.0
 0 
VERTEX
 8 
1
 10 
0.99421
 20 
0.4909
 30 
0.0
 0 
VERTEX
 8 
1
 10 
0.99011
 20 
0.48763
 30 
0.0
 0 
VERTEX
 8 
1
 10 
0.97681
 20 
0.47984
 30 
0.0
 0 
VERTEX
 8 
1
 10 
0.95866
 20 
0.47214
 30 
0.0
 0 
VERTEX
 8 
1
 10 
0.93595
 20 
0.46475
 30 
0.0
 0 
VERTEX
 8 
1
 10 
0.90898
 20 
0.45784
 30 
0.0
 0 
VERTEX
 8 
1
 10 
0.8781
 20 
0.45154
 30 
0.0
 0 
VERTEX
 8 
1
 10 
0.84373
 20 
0.44598
 30 
0.0
 0 
VERTEX
 8 
1
 10 
0.80634
 20 
0.44136
 30 
0.0
 0 
VERTEX
 8 
1
 10 
0.76642
 20 
0.43793
 30 
0.0
 0 
VERTEX
 8 
1
 10 
0.72449
 20 
0.43603
 30 
0.0
 0 
VERTEX
 8 
1
 10 
0.68078
 20 
0.43623
 30 
0.0
 0 
VERTEX
 8 
1
 10 
0.63522
 20 
0.43876
 30 
0.0
 0 
VERTEX
 8 
1
 10 
0.58771
 20 
0.44365
 30 
0.0
 0 
VERTEX
 8 
1
 10 
0.53806
 20 
0.45057
 30 
0.0
 0 
VERTEX
 8 
1
 10 
0.48641
 20 
0.45873
 30 
0.0
 0 
VERTEX
 8 
1
 10 
0.43336
 20 
0.4674
 30 
0.0
 0 
VERTEX
 8 
1
 10 
0.37965
 20 
0.47603
 30 
0.0
 0 
VERTEX
 8 
1
 10 
0.32609
 20 
0.48411
 30 
0.0
 0 
VERTEX
 8 
1
 10 
0.27358
 20 
0.49121
 30 
0.0
 0 
VERTEX
 8 
1
 10 
0.22308
 20 
0.49701
 30 
0.0
 0 
VERTEX
 8 
1
 10 
0.17557
 20 
0.5013
 30 
0.0
 0 
VERTEX
 8 
1
 10 
0.13204
 20 
0.50401
 30 
0.0
 0 
VERTEX
 8 
1
 10 
0.09343
 20 
0.50519
 30 
0.0
 0 
VERTEX
 8 
1
 10 
0.0606
 20 
0.50502
 30 
0.0
 0 
VERTEX
 8 
1
 10 
0.03435
 20 
0.50384
 30 
0.0
 0 
VERTEX
 8 
1
 10 
0.0153
 20 
0.50215
 30 
0.0
 0 
VERTEX
 8 
1
 10 
0.0038200
 20 
0.50063
 30 
0.0
 0 
VERTEX
 8 
1
 10 
0.0
 20 
0.5
 30 
0.0
 0 
SEQEND
 8 
1
 0 
ENDSEC
 0 
EOF
