 0 
SECTION
 2 
ENTITIES
 0 
POLYLINE
 8 
1
 66 
 1 
 10 
0.0
 20 
0.0
 30 
0.0
 0 
VERTEX
 8 
1
 10 
0.0
 20 
0.5
 30 
0.0
 0 
VERTEX
 8 
1
 10 
0.0034800
 20 
0.50135
 30 
0.0
 0 
VERTEX
 8 
1
 10 
0.01302
 20 
0.50543
 30 
0.0
 0 
VERTEX
 8 
1
 10 
0.02722
 20 
0.51154
 30 
0.0
 0 
VERTEX
 8 
1
 10 
0.04581
 20 
0.51841
 30 
0.0
 0 
VERTEX
 8 
1
 10 
0.06929
 20 
0.52555
 30 
0.0
 0 
VERTEX
 8 
1
 10 
0.09766
 20 
0.5332
 30 
0.0
 0 
VERTEX
 8 
1
 10 
0.13047
 20 
0.5414
 30 
0.0
 0 
VERTEX
 8 
1
 10 
0.16723
 20 
0.55006
 30 
0.0
 0 
VERTEX
 8 
1
 10 
0.20743
 20 
0.55904
 30 
0.0
 0 
VERTEX
 8 
1
 10 
0.25052
 20 
0.56817
 30 
0.0
 0 
VERTEX
 8 
1
 10 
0.29593
 20 
0.57725
 30 
0.0
 0 
VERTEX
 8 
1
 10 
0.34309
 20 
0.58607
 30 
0.0
 0 
VERTEX
 8 
1
 10 
0.39142
 20 
0.59439
 30 
0.0
 0 
VERTEX
 8 
1
 10 
0.44037
 20 
0.60196
 30 
0.0
 0 
VERTEX
 8 
1
 10 
0.48941
 20 
0.60855
 30 
0.0
 0 
VERTEX
 8 
1
 10 
0.53803
 20 
0.61392
 30 
0.0
 0 
VERTEX
 8 
1
 10 
0.58575
 20 
0.61788
 30 
0.0
 0 
VERTEX
 8 
1
 10 
0.63214
 20 
0.62022
 30 
0.0
 0 
VERTEX
 8 
1
 10 
0.67678
 20 
0.62078
 30 
0.0
 0 
VERTEX
 8 
1
 10 
0.71936
 20 
0.61937
 30 
0.0
 0 
VERTEX
 8 
1
 10 
0.75966
 20 
0.6159
 30 
0.0
 0 
VERTEX
 8 
1
 10 
0.79752
 20 
0.6104
 30 
0.0
 0 
VERTEX
 8 
1
 10 
0.83281
 20 
0.60301
 30 
0.0
 0 
VERTEX
 8 
1
 10 
0.86536
 20 
0.59399
 30 
0.0
 0 
VERTEX
 8 
1
 10 
0.89491
 20 
0.58364
 30 
0.0
 0 
VERTEX
 8 
1
 10 
0.92124
 20 
0.57224
 30 
0.0
 0 
VERTEX
 8 
1
 10 
0.94409
 20 
0.56009
 30 
0.0
 0 
VERTEX
 8 
1
 10 
0.96326
 20 
0.54747
 30 
0.0
 0 
VERTEX
 8 
1
 10 
0.97859
 20 
0.53473
 30 
0.0
 0 
VERTEX
 8 
1
 10 
0.98991
 20 
0.52221
 30 
0.0
 0 
VERTEX
 8 
1
 10 
0.99713
 20 
0.51037
 30 
0.0
 0 
VERTEX
 8 
1
 10 
0.99999
 20 
0.49997
 30 
0.0
 0 
VERTEX
 8 
1
 10 
0.9971
 20 
0.4911
 30 
0.0
 0 
VERTEX
 8 
1
 10 
0.98818
 20 
0.48275
 30 
0.0
 0 
VERTEX
 8 
1
 10 
0.97446
 20 
0.47463
 30 
0.0
 0 
VERTEX
 8 
1
 10 
0.9563
 20 
0.4673
 30 
0.0
 0 
VERTEX
 8 
1
 10 
0.93387
 20 
0.46109
 30 
0.0
 0 
VERTEX
 8 
1
 10 
0.90732
 20 
0.45628
 30 
0.0
 0 
VERTEX
 8 
1
 10 
0.87682
 20 
0.4531
 30 
0.0
 0 
VERTEX
 8 
1
 10 
0.84249
 20 
0.45176
 30 
0.0
 0 
VERTEX
 8 
1
 10 
0.80442
 20 
0.45237
 30 
0.0
 0 
VERTEX
 8 
1
 10 
0.76268
 20 
0.45494
 30 
0.0
 0 
VERTEX
 8 
1
 10 
0.71737
 20 
0.45931
 30 
0.0
 0 
VERTEX
 8 
1
 10 
0.66864
 20 
0.46521
 30 
0.0
 0 
VERTEX
 8 
1
 10 
0.61671
 20 
0.47217
 30 
0.0
 0 
VERTEX
 8 
1
 10 
0.5621
 20 
0.47952
 30 
0.0
 0 
VERTEX
 8 
1
 10 
0.50563
 20 
0.48673
 30 
0.0
 0 
VERTEX
 8 
1
 10 
0.44817
 20 
0.49344
 30 
0.0
 0 
VERTEX
 8 
1
 10 
0.39062
 20 
0.49936
 30 
0.0
 0 
VERTEX
 8 
1
 10 
0.3339
 20 
0.50428
 30 
0.0
 0 
VERTEX
 8 
1
 10 
0.27893
 20 
0.50805
 30 
0.0
 0 
VERTEX
 8 
1
 10 
0.2266
 20 
0.51058
 30 
0.0
 0 
VERTEX
 8 
1
 10 
0.1778
 20 
0.51185
 30 
0.0
 0 
VERTEX
 8 
1
 10 
0.13338
 20 
0.51188
 30 
0.0
 0 
VERTEX
 8 
1
 10 
0.09415
 20 
0.51079
 30 
0.0
 0 
VERTEX
 8 
1
 10 
0.06084
 20 
0.50873
 30 
0.0
 0 
VERTEX
 8 
1
 10 
0.03427
 20 
0.50593
 30 
0.0
 0 
VERTEX
 8 
1
 10 
0.01517
 20 
0.50303
 30 
0.0
 0 
VERTEX
 8 
1
 10 
0.0037800
 20 
0.50082
 30 
0.0
 0 
VERTEX
 8 
1
 10 
0.0
 20 
0.5
 30 
0.0
 0 
SEQEND
 8 
1
 0 
ENDSEC
 0 
EOF
