 0 
SECTION
 2 
ENTITIES
 0 
POLYLINE
 8 
1
 66 
 1 
 10 
0.0
 20 
0.0
 30 
0.0
 0 
VERTEX
 8 
1
 10 
0.0
 20 
0.5
 30 
0.0
 0 
VERTEX
 8 
1
 10 
0.0035399
 20 
0.50133
 30 
0.0
 0 
VERTEX
 8 
1
 10 
0.01326
 20 
0.50537
 30 
0.0
 0 
VERTEX
 8 
1
 10 
0.02777
 20 
0.51149
 30 
0.0
 0 
VERTEX
 8 
1
 10 
0.04676
 20 
0.51843
 30 
0.0
 0 
VERTEX
 8 
1
 10 
0.07072
 20 
0.52574
 30 
0.0
 0 
VERTEX
 8 
1
 10 
0.09963
 20 
0.53365
 30 
0.0
 0 
VERTEX
 8 
1
 10 
0.13299
 20 
0.54223
 30 
0.0
 0 
VERTEX
 8 
1
 10 
0.1703
 20 
0.55137
 30 
0.0
 0 
VERTEX
 8 
1
 10 
0.21101
 20 
0.56094
 30 
0.0
 0 
VERTEX
 8 
1
 10 
0.25454
 20 
0.57076
 30 
0.0
 0 
VERTEX
 8 
1
 10 
0.30029
 20 
0.58061
 30 
0.0
 0 
VERTEX
 8 
1
 10 
0.34766
 20 
0.59024
 30 
0.0
 0 
VERTEX
 8 
1
 10 
0.39608
 20 
0.59938
 30 
0.0
 0 
VERTEX
 8 
1
 10 
0.44497
 20 
0.60776
 30 
0.0
 0 
VERTEX
 8 
1
 10 
0.49381
 20 
0.61511
 30 
0.0
 0 
VERTEX
 8 
1
 10 
0.54207
 20 
0.62117
 30 
0.0
 0 
VERTEX
 8 
1
 10 
0.58931
 20 
0.62568
 30 
0.0
 0 
VERTEX
 8 
1
 10 
0.63508
 20 
0.62844
 30 
0.0
 0 
VERTEX
 8 
1
 10 
0.679
 20 
0.62918
 30 
0.0
 0 
VERTEX
 8 
1
 10 
0.72085
 20 
0.62767
 30 
0.0
 0 
VERTEX
 8 
1
 10 
0.76056
 20 
0.6239
 30 
0.0
 0 
VERTEX
 8 
1
 10 
0.79796
 20 
0.618
 30 
0.0
 0 
VERTEX
 8 
1
 10 
0.83287
 20 
0.61017
 30 
0.0
 0 
VERTEX
 8 
1
 10 
0.86507
 20 
0.60064
 30 
0.0
 0 
VERTEX
 8 
1
 10 
0.89434
 20 
0.58969
 30 
0.0
 0 
VERTEX
 8 
1
 10 
0.92047
 20 
0.57763
 30 
0.0
 0 
VERTEX
 8 
1
 10 
0.94322
 20 
0.56478
 30 
0.0
 0 
VERTEX
 8 
1
 10 
0.96237
 20 
0.55144
 30 
0.0
 0 
VERTEX
 8 
1
 10 
0.97776
 20 
0.53796
 30 
0.0
 0 
VERTEX
 8 
1
 10 
0.98923
 20 
0.52471
 30 
0.0
 0 
VERTEX
 8 
1
 10 
0.9967
 20 
0.51213
 30 
0.0
 0 
VERTEX
 8 
1
 10 
0.99998
 20 
0.50092
 30 
0.0
 0 
VERTEX
 8 
1
 10 
0.99773
 20 
0.49173
 30 
0.0
 0 
VERTEX
 8 
1
 10 
0.98933
 20 
0.48359
 30 
0.0
 0 
VERTEX
 8 
1
 10 
0.97574
 20 
0.47563
 30 
0.0
 0 
VERTEX
 8 
1
 10 
0.95753
 20 
0.46832
 30 
0.0
 0 
VERTEX
 8 
1
 10 
0.93499
 20 
0.46203
 30 
0.0
 0 
VERTEX
 8 
1
 10 
0.90832
 20 
0.4571
 30 
0.0
 0 
VERTEX
 8 
1
 10 
0.87767
 20 
0.45377
 30 
0.0
 0 
VERTEX
 8 
1
 10 
0.84317
 20 
0.45227
 30 
0.0
 0 
VERTEX
 8 
1
 10 
0.80488
 20 
0.45267
 30 
0.0
 0 
VERTEX
 8 
1
 10 
0.76294
 20 
0.45496
 30 
0.0
 0 
VERTEX
 8 
1
 10 
0.7175
 20 
0.45901
 30 
0.0
 0 
VERTEX
 8 
1
 10 
0.66873
 20 
0.46462
 30 
0.0
 0 
VERTEX
 8 
1
 10 
0.6168
 20 
0.47136
 30 
0.0
 0 
VERTEX
 8 
1
 10 
0.56218
 20 
0.47854
 30 
0.0
 0 
VERTEX
 8 
1
 10 
0.50571
 20 
0.48563
 30 
0.0
 0 
VERTEX
 8 
1
 10 
0.44826
 20 
0.49225
 30 
0.0
 0 
VERTEX
 8 
1
 10 
0.39074
 20 
0.49813
 30 
0.0
 0 
VERTEX
 8 
1
 10 
0.33404
 20 
0.50304
 30 
0.0
 0 
VERTEX
 8 
1
 10 
0.27909
 20 
0.50685
 30 
0.0
 0 
VERTEX
 8 
1
 10 
0.22678
 20 
0.50944
 30 
0.0
 0 
VERTEX
 8 
1
 10 
0.17801
 20 
0.51081
 30 
0.0
 0 
VERTEX
 8 
1
 10 
0.13361
 20 
0.51098
 30 
0.0
 0 
VERTEX
 8 
1
 10 
0.09438
 20 
0.51005
 30 
0.0
 0 
VERTEX
 8 
1
 10 
0.06107
 20 
0.50817
 30 
0.0
 0 
VERTEX
 8 
1
 10 
0.03448
 20 
0.50559
 30 
0.0
 0 
VERTEX
 8 
1
 10 
0.0153
 20 
0.50288
 30 
0.0
 0 
VERTEX
 8 
1
 10 
0.0038099
 20 
0.50079
 30 
0.0
 0 
VERTEX
 8 
1
 10 
0.0
 20 
0.5
 30 
0.0
 0 
SEQEND
 8 
1
 0 
ENDSEC
 0 
EOF
