 0 
SECTION
 2 
ENTITIES
 0 
POLYLINE
 8 
1
 66 
 1 
 10 
0.0
 20 
0.0
 30 
0.0
 0 
VERTEX
 8 
1
 10 
0.0
 20 
0.5
 30 
0.0
 0 
VERTEX
 8 
1
 10 
0.0035699
 20 
0.50105
 30 
0.0
 0 
VERTEX
 8 
1
 10 
0.013650
 20 
0.50429
 30 
0.0
 0 
VERTEX
 8 
1
 10 
0.02918
 20 
0.50949
 30 
0.0
 0 
VERTEX
 8 
1
 10 
0.04966
 20 
0.51595
 30 
0.0
 0 
VERTEX
 8 
1
 10 
0.07503
 20 
0.52334
 30 
0.0
 0 
VERTEX
 8 
1
 10 
0.10501
 20 
0.53168
 30 
0.0
 0 
VERTEX
 8 
1
 10 
0.13906
 20 
0.5409
 30 
0.0
 0 
VERTEX
 8 
1
 10 
0.1766
 20 
0.55079
 30 
0.0
 0 
VERTEX
 8 
1
 10 
0.21704
 20 
0.56114
 30 
0.0
 0 
VERTEX
 8 
1
 10 
0.25976
 20 
0.57163
 30 
0.0
 0 
VERTEX
 8 
1
 10 
0.30442
 20 
0.58195
 30 
0.0
 0 
VERTEX
 8 
1
 10 
0.3495
 20 
0.5916
 30 
0.0
 0 
VERTEX
 8 
1
 10 
0.39551
 20 
0.6
 30 
0.0
 0 
VERTEX
 8 
1
 10 
0.44201
 20 
0.60678
 30 
0.0
 0 
VERTEX
 8 
1
 10 
0.48876
 20 
0.61182
 30 
0.0
 0 
VERTEX
 8 
1
 10 
0.53552
 20 
0.61504
 30 
0.0
 0 
VERTEX
 8 
1
 10 
0.58195
 20 
0.61644
 30 
0.0
 0 
VERTEX
 8 
1
 10 
0.62775
 20 
0.6161
 30 
0.0
 0 
VERTEX
 8 
1
 10 
0.67248
 20 
0.6141
 30 
0.0
 0 
VERTEX
 8 
1
 10 
0.71574
 20 
0.61056
 30 
0.0
 0 
VERTEX
 8 
1
 10 
0.7571
 20 
0.60554
 30 
0.0
 0 
VERTEX
 8 
1
 10 
0.79618
 20 
0.59917
 30 
0.0
 0 
VERTEX
 8 
1
 10 
0.83261
 20 
0.59156
 30 
0.0
 0 
VERTEX
 8 
1
 10 
0.86607
 20 
0.58284
 30 
0.0
 0 
VERTEX
 8 
1
 10 
0.89626
 20 
0.57318
 30 
0.0
 0 
VERTEX
 8 
1
 10 
0.92294
 20 
0.56276
 30 
0.0
 0 
VERTEX
 8 
1
 10 
0.94589
 20 
0.5518
 30 
0.0
 0 
VERTEX
 8 
1
 10 
0.96496
 20 
0.54056
 30 
0.0
 0 
VERTEX
 8 
1
 10 
0.98
 20 
0.52934
 30 
0.0
 0 
VERTEX
 8 
1
 10 
0.99093
 20 
0.51853
 30 
0.0
 0 
VERTEX
 8 
1
 10 
0.99764
 20 
0.5086
 30 
0.0
 0 
VERTEX
 8 
1
 10 
0.99916
 20 
0.50488
 30 
0.0
 0 
VERTEX
 8 
1
 10 
0.99979
 20 
0.50239
 30 
0.0
 0 
VERTEX
 8 
1
 10 
0.99999
 20 
0.50086
 30 
0.0
 0 
VERTEX
 8 
1
 10 
0.99992
 20 
0.49879
 30 
0.0
 0 
VERTEX
 8 
1
 10 
0.99979
 20 
0.49817
 30 
0.0
 0 
VERTEX
 8 
1
 10 
0.99958
 20 
0.49762
 30 
0.0
 0 
VERTEX
 8 
1
 10 
0.99927
 20 
0.4971
 30 
0.0
 0 
VERTEX
 8 
1
 10 
0.99887
 20 
0.49658
 30 
0.0
 0 
VERTEX
 8 
1
 10 
0.99837
 20 
0.49607
 30 
0.0
 0 
VERTEX
 8 
1
 10 
0.99717
 20 
0.49506
 30 
0.0
 0 
VERTEX
 8 
1
 10 
0.99569
 20 
0.49405
 30 
0.0
 0 
VERTEX
 8 
1
 10 
0.99301
 20 
0.49256
 30 
0.0
 0 
VERTEX
 8 
1
 10 
0.98626
 20 
0.4897
 30 
0.0
 0 
VERTEX
 8 
1
 10 
0.97026
 20 
0.48527
 30 
0.0
 0 
VERTEX
 8 
1
 10 
0.94878
 20 
0.48149
 30 
0.0
 0 
VERTEX
 8 
1
 10 
0.92205
 20 
0.47833
 30 
0.0
 0 
VERTEX
 8 
1
 10 
0.89035
 20 
0.47575
 30 
0.0
 0 
VERTEX
 8 
1
 10 
0.85406
 20 
0.47365
 30 
0.0
 0 
VERTEX
 8 
1
 10 
0.81366
 20 
0.47197
 30 
0.0
 0 
VERTEX
 8 
1
 10 
0.76967
 20 
0.47068
 30 
0.0
 0 
VERTEX
 8 
1
 10 
0.72263
 20 
0.46976
 30 
0.0
 0 
VERTEX
 8 
1
 10 
0.67314
 20 
0.46918
 30 
0.0
 0 
VERTEX
 8 
1
 10 
0.62183
 20 
0.46895
 30 
0.0
 0 
VERTEX
 8 
1
 10 
0.56933
 20 
0.46909
 30 
0.0
 0 
VERTEX
 8 
1
 10 
0.51631
 20 
0.46964
 30 
0.0
 0 
VERTEX
 8 
1
 10 
0.46343
 20 
0.47065
 30 
0.0
 0 
VERTEX
 8 
1
 10 
0.41134
 20 
0.47222
 30 
0.0
 0 
VERTEX
 8 
1
 10 
0.36069
 20 
0.47448
 30 
0.0
 0 
VERTEX
 8 
1
 10 
0.31215
 20 
0.47789
 30 
0.0
 0 
VERTEX
 8 
1
 10 
0.26549
 20 
0.48316
 30 
0.0
 0 
VERTEX
 8 
1
 10 
0.21973
 20 
0.48971
 30 
0.0
 0 
VERTEX
 8 
1
 10 
0.17516
 20 
0.49584
 30 
0.0
 0 
VERTEX
 8 
1
 10 
0.13309
 20 
0.50054
 30 
0.0
 0 
VERTEX
 8 
1
 10 
0.094860
 20 
0.50345
 30 
0.0
 0 
VERTEX
 8 
1
 10 
0.0617
 20 
0.50445
 30 
0.0
 0 
VERTEX
 8 
1
 10 
0.03487
 20 
0.50378
 30 
0.0
 0 
VERTEX
 8 
1
 10 
0.01544
 20 
0.50217
 30 
0.0
 0 
VERTEX
 8 
1
 10 
0.0038399
 20 
0.50062
 30 
0.0
 0 
VERTEX
 8 
1
 10 
0.0
 20 
0.5
 30 
0.0
 0 
SEQEND
 8 
1
 0 
ENDSEC
 0 
EOF
