 0 
SECTION
 2 
ENTITIES
 0 
POLYLINE
 8 
1
 66 
 1 
 10 
0.0
 20 
0.0
 30 
0.0
 0 
VERTEX
 8 
1
 10 
0.0
 20 
0.5
 30 
0.0
 0 
VERTEX
 8 
1
 10 
0.0037399
 20 
0.50103
 30 
0.0
 0 
VERTEX
 8 
1
 10 
0.01423
 20 
0.5043
 30 
0.0
 0 
VERTEX
 8 
1
 10 
0.03024
 20 
0.50959
 30 
0.0
 0 
VERTEX
 8 
1
 10 
0.05125
 20 
0.51604
 30 
0.0
 0 
VERTEX
 8 
1
 10 
0.0774
 20 
0.52334
 30 
0.0
 0 
VERTEX
 8 
1
 10 
0.10844
 20 
0.53168
 30 
0.0
 0 
VERTEX
 8 
1
 10 
0.14372
 20 
0.54109
 30 
0.0
 0 
VERTEX
 8 
1
 10 
0.18259
 20 
0.55142
 30 
0.0
 0 
VERTEX
 8 
1
 10 
0.22435
 20 
0.56244
 30 
0.0
 0 
VERTEX
 8 
1
 10 
0.26831
 20 
0.57384
 30 
0.0
 0 
VERTEX
 8 
1
 10 
0.31379
 20 
0.58526
 30 
0.0
 0 
VERTEX
 8 
1
 10 
0.36015
 20 
0.59627
 30 
0.0
 0 
VERTEX
 8 
1
 10 
0.40678
 20 
0.60639
 30 
0.0
 0 
VERTEX
 8 
1
 10 
0.45315
 20 
0.61499
 30 
0.0
 0 
VERTEX
 8 
1
 10 
0.49913
 20 
0.62139
 30 
0.0
 0 
VERTEX
 8 
1
 10 
0.54495
 20 
0.6254
 30 
0.0
 0 
VERTEX
 8 
1
 10 
0.59005
 20 
0.62727
 30 
0.0
 0 
VERTEX
 8 
1
 10 
0.63523
 20 
0.62713
 30 
0.0
 0 
VERTEX
 8 
1
 10 
0.67892
 20 
0.62506
 30 
0.0
 0 
VERTEX
 8 
1
 10 
0.72117
 20 
0.62115
 30 
0.0
 0 
VERTEX
 8 
1
 10 
0.76162
 20 
0.61557
 30 
0.0
 0 
VERTEX
 8 
1
 10 
0.79987
 20 
0.60847
 30 
0.0
 0 
VERTEX
 8 
1
 10 
0.83557
 20 
0.59999
 30 
0.0
 0 
VERTEX
 8 
1
 10 
0.86838
 20 
0.59031
 30 
0.0
 0 
VERTEX
 8 
1
 10 
0.89803
 20 
0.57962
 30 
0.0
 0 
VERTEX
 8 
1
 10 
0.92427
 20 
0.56814
 30 
0.0
 0 
VERTEX
 8 
1
 10 
0.94687
 20 
0.55611
 30 
0.0
 0 
VERTEX
 8 
1
 10 
0.96566
 20 
0.54384
 30 
0.0
 0 
VERTEX
 8 
1
 10 
0.98048
 20 
0.53162
 30 
0.0
 0 
VERTEX
 8 
1
 10 
0.99122
 20 
0.51986
 30 
0.0
 0 
VERTEX
 8 
1
 10 
0.99778
 20 
0.50905
 30 
0.0
 0 
VERTEX
 8 
1
 10 
0.99933
 20 
0.50464
 30 
0.0
 0 
VERTEX
 8 
1
 10 
0.99987
 20 
0.50194
 30 
0.0
 0 
VERTEX
 8 
1
 10 
0.99999
 20 
0.50027
 30 
0.0
 0 
VERTEX
 8 
1
 10 
0.99993
 20 
0.49872
 30 
0.0
 0 
VERTEX
 8 
1
 10 
0.99983
 20 
0.498
 30 
0.0
 0 
VERTEX
 8 
1
 10 
0.99966
 20 
0.49732
 30 
0.0
 0 
VERTEX
 8 
1
 10 
0.99942
 20 
0.49671
 30 
0.0
 0 
VERTEX
 8 
1
 10 
0.99908
 20 
0.49613
 30 
0.0
 0 
VERTEX
 8 
1
 10 
0.99863
 20 
0.49555
 30 
0.0
 0 
VERTEX
 8 
1
 10 
0.9981
 20 
0.49498
 30 
0.0
 0 
VERTEX
 8 
1
 10 
0.99681
 20 
0.49385
 30 
0.0
 0 
VERTEX
 8 
1
 10 
0.99525
 20 
0.49272
 30 
0.0
 0 
VERTEX
 8 
1
 10 
0.99244
 20 
0.49105
 30 
0.0
 0 
VERTEX
 8 
1
 10 
0.98591
 20 
0.48805
 30 
0.0
 0 
VERTEX
 8 
1
 10 
0.96964
 20 
0.48301
 30 
0.0
 0 
VERTEX
 8 
1
 10 
0.94786
 20 
0.47861
 30 
0.0
 0 
VERTEX
 8 
1
 10 
0.92086
 20 
0.47484
 30 
0.0
 0 
VERTEX
 8 
1
 10 
0.88891
 20 
0.47168
 30 
0.0
 0 
VERTEX
 8 
1
 10 
0.85242
 20 
0.46903
 30 
0.0
 0 
VERTEX
 8 
1
 10 
0.81186
 20 
0.46685
 30 
0.0
 0 
VERTEX
 8 
1
 10 
0.76775
 20 
0.46511
 30 
0.0
 0 
VERTEX
 8 
1
 10 
0.72065
 20 
0.46379
 30 
0.0
 0 
VERTEX
 8 
1
 10 
0.67117
 20 
0.46289
 30 
0.0
 0 
VERTEX
 8 
1
 10 
0.61993
 20 
0.46243
 30 
0.0
 0 
VERTEX
 8 
1
 10 
0.56757
 20 
0.46244
 30 
0.0
 0 
VERTEX
 8 
1
 10 
0.51474
 20 
0.46297
 30 
0.0
 0 
VERTEX
 8 
1
 10 
0.4621
 20 
0.46408
 30 
0.0
 0 
VERTEX
 8 
1
 10 
0.41029
 20 
0.46589
 30 
0.0
 0 
VERTEX
 8 
1
 10 
0.35999
 20 
0.46867
 30 
0.0
 0 
VERTEX
 8 
1
 10 
0.31137
 20 
0.47288
 30 
0.0
 0 
VERTEX
 8 
1
 10 
0.26422
 20 
0.47844
 30 
0.0
 0 
VERTEX
 8 
1
 10 
0.21855
 20 
0.48477
 30 
0.0
 0 
VERTEX
 8 
1
 10 
0.17463
 20 
0.49109
 30 
0.0
 0 
VERTEX
 8 
1
 10 
0.13319
 20 
0.49644
 30 
0.0
 0 
VERTEX
 8 
1
 10 
0.09538
 20 
0.50023
 30 
0.0
 0 
VERTEX
 8 
1
 10 
0.06243
 20 
0.50222
 30 
0.0
 0 
VERTEX
 8 
1
 10 
0.03556
 20 
0.5025
 30 
0.0
 0 
VERTEX
 8 
1
 10 
0.01586
 20 
0.50164
 30 
0.0
 0 
VERTEX
 8 
1
 10 
0.0039599
 20 
0.50051
 30 
0.0
 0 
VERTEX
 8 
1
 10 
0.0
 20 
0.5
 30 
0.0
 0 
SEQEND
 8 
1
 0 
ENDSEC
 0 
EOF
