 0 
SECTION
 2 
ENTITIES
 0 
POLYLINE
 8 
1
 66 
 1 
 10 
0.0
 20 
0.0
 30 
0.0
 0 
VERTEX
 8 
1
 10 
0.0
 20 
0.5
 30 
0.0
 0 
VERTEX
 8 
1
 10 
0.0032999
 20 
0.50017
 30 
0.0
 0 
VERTEX
 8 
1
 10 
0.01308
 20 
0.50084
 30 
0.0
 0 
VERTEX
 8 
1
 10 
0.02908
 20 
0.50222
 30 
0.0
 0 
VERTEX
 8 
1
 10 
0.05091
 20 
0.5043
 30 
0.0
 0 
VERTEX
 8 
1
 10 
0.07829
 20 
0.50703
 30 
0.0
 0 
VERTEX
 8 
1
 10 
0.111
 20 
0.51048
 30 
0.0
 0 
VERTEX
 8 
1
 10 
0.14863
 20 
0.51482
 30 
0.0
 0 
VERTEX
 8 
1
 10 
0.19058
 20 
0.52016
 30 
0.0
 0 
VERTEX
 8 
1
 10 
0.23619
 20 
0.52658
 30 
0.0
 0 
VERTEX
 8 
1
 10 
0.28472
 20 
0.53406
 30 
0.0
 0 
VERTEX
 8 
1
 10 
0.33534
 20 
0.54255
 30 
0.0
 0 
VERTEX
 8 
1
 10 
0.3872
 20 
0.55191
 30 
0.0
 0 
VERTEX
 8 
1
 10 
0.43939
 20 
0.56192
 30 
0.0
 0 
VERTEX
 8 
1
 10 
0.49096
 20 
0.57225
 30 
0.0
 0 
VERTEX
 8 
1
 10 
0.54093
 20 
0.58244
 30 
0.0
 0 
VERTEX
 8 
1
 10 
0.58831
 20 
0.5916
 30 
0.0
 0 
VERTEX
 8 
1
 10 
0.63285
 20 
0.59837
 30 
0.0
 0 
VERTEX
 8 
1
 10 
0.67517
 20 
0.60207
 30 
0.0
 0 
VERTEX
 8 
1
 10 
0.71572
 20 
0.6028
 30 
0.0
 0 
VERTEX
 8 
1
 10 
0.75465
 20 
0.60089
 30 
0.0
 0 
VERTEX
 8 
1
 10 
0.79186
 20 
0.59687
 30 
0.0
 0 
VERTEX
 8 
1
 10 
0.82694
 20 
0.59115
 30 
0.0
 0 
VERTEX
 8 
1
 10 
0.85953
 20 
0.58398
 30 
0.0
 0 
VERTEX
 8 
1
 10 
0.88928
 20 
0.57559
 30 
0.0
 0 
VERTEX
 8 
1
 10 
0.91592
 20 
0.56621
 30 
0.0
 0 
VERTEX
 8 
1
 10 
0.93918
 20 
0.55606
 30 
0.0
 0 
VERTEX
 8 
1
 10 
0.95888
 20 
0.54542
 30 
0.0
 0 
VERTEX
 8 
1
 10 
0.97485
 20 
0.53455
 30 
0.0
 0 
VERTEX
 8 
1
 10 
0.98698
 20 
0.52378
 30 
0.0
 0 
VERTEX
 8 
1
 10 
0.99519
 20 
0.5135
 30 
0.0
 0 
VERTEX
 8 
1
 10 
0.9994
 20 
0.50427
 30 
0.0
 0 
VERTEX
 8 
1
 10 
0.9999
 20 
0.50158
 30 
0.0
 0 
VERTEX
 8 
1
 10 
0.99999
 20 
0.50004
 30 
0.0
 0 
VERTEX
 8 
1
 10 
0.99991
 20 
0.49862
 30 
0.0
 0 
VERTEX
 8 
1
 10 
0.9998
 20 
0.49795
 30 
0.0
 0 
VERTEX
 8 
1
 10 
0.99963
 20 
0.49732
 30 
0.0
 0 
VERTEX
 8 
1
 10 
0.9994
 20 
0.49675
 30 
0.0
 0 
VERTEX
 8 
1
 10 
0.99908
 20 
0.4962
 30 
0.0
 0 
VERTEX
 8 
1
 10 
0.99867
 20 
0.49567
 30 
0.0
 0 
VERTEX
 8 
1
 10 
0.99819
 20 
0.49514
 30 
0.0
 0 
VERTEX
 8 
1
 10 
0.99702
 20 
0.49408
 30 
0.0
 0 
VERTEX
 8 
1
 10 
0.99562
 20 
0.49304
 30 
0.0
 0 
VERTEX
 8 
1
 10 
0.9931
 20 
0.4915
 30 
0.0
 0 
VERTEX
 8 
1
 10 
0.98178
 20 
0.48706
 30 
0.0
 0 
VERTEX
 8 
1
 10 
0.96516
 20 
0.48369
 30 
0.0
 0 
VERTEX
 8 
1
 10 
0.9434
 20 
0.48177
 30 
0.0
 0 
VERTEX
 8 
1
 10 
0.91637
 20 
0.48131
 30 
0.0
 0 
VERTEX
 8 
1
 10 
0.884
 20 
0.48211
 30 
0.0
 0 
VERTEX
 8 
1
 10 
0.84646
 20 
0.4837
 30 
0.0
 0 
VERTEX
 8 
1
 10 
0.80425
 20 
0.48574
 30 
0.0
 0 
VERTEX
 8 
1
 10 
0.75792
 20 
0.48798
 30 
0.0
 0 
VERTEX
 8 
1
 10 
0.70804
 20 
0.49013
 30 
0.0
 0 
VERTEX
 8 
1
 10 
0.65541
 20 
0.4919
 30 
0.0
 0 
VERTEX
 8 
1
 10 
0.60101
 20 
0.49322
 30 
0.0
 0 
VERTEX
 8 
1
 10 
0.54563
 20 
0.49425
 30 
0.0
 0 
VERTEX
 8 
1
 10 
0.48993
 20 
0.4951
 30 
0.0
 0 
VERTEX
 8 
1
 10 
0.43539
 20 
0.4958
 30 
0.0
 0 
VERTEX
 8 
1
 10 
0.38012
 20 
0.49638
 30 
0.0
 0 
VERTEX
 8 
1
 10 
0.32729
 20 
0.49686
 30 
0.0
 0 
VERTEX
 8 
1
 10 
0.27667
 20 
0.49725
 30 
0.0
 0 
VERTEX
 8 
1
 10 
0.22883
 20 
0.49758
 30 
0.0
 0 
VERTEX
 8 
1
 10 
0.18435
 20 
0.49785
 30 
0.0
 0 
VERTEX
 8 
1
 10 
0.14374
 20 
0.4981
 30 
0.0
 0 
VERTEX
 8 
1
 10 
0.10748
 20 
0.49834
 30 
0.0
 0 
VERTEX
 8 
1
 10 
0.07601
 20 
0.49864
 30 
0.0
 0 
VERTEX
 8 
1
 10 
0.04961
 20 
0.49906
 30 
0.0
 0 
VERTEX
 8 
1
 10 
0.02847
 20 
0.49954
 30 
0.0
 0 
VERTEX
 8 
1
 10 
0.01289
 20 
0.49989
 30 
0.0
 0 
VERTEX
 8 
1
 10 
0.0032600
 20 
0.5
 30 
0.0
 0 
VERTEX
 8 
1
 10 
0.0
 20 
0.5
 30 
0.0
 0 
SEQEND
 8 
1
 0 
ENDSEC
 0 
EOF
