 0 
SECTION
 2 
ENTITIES
 0 
POLYLINE
 8 
1
 66 
 1 
 10 
0.0
 20 
0.0
 30 
0.0
 0 
VERTEX
 8 
1
 10 
0.0
 20 
0.5
 30 
0.0
 0 
VERTEX
 8 
1
 10 
0.0037500
 20 
0.50085
 30 
0.0
 0 
VERTEX
 8 
1
 10 
0.01452
 20 
0.50366
 30 
0.0
 0 
VERTEX
 8 
1
 10 
0.03127
 20 
0.50854
 30 
0.0
 0 
VERTEX
 8 
1
 10 
0.053170
 20 
0.51497
 30 
0.0
 0 
VERTEX
 8 
1
 10 
0.07994
 20 
0.52231
 30 
0.0
 0 
VERTEX
 8 
1
 10 
0.1116
 20 
0.53042
 30 
0.0
 0 
VERTEX
 8 
1
 10 
0.14776
 20 
0.53949
 30 
0.0
 0 
VERTEX
 8 
1
 10 
0.18769
 20 
0.54956
 30 
0.0
 0 
VERTEX
 8 
1
 10 
0.23066
 20 
0.56046
 30 
0.0
 0 
VERTEX
 8 
1
 10 
0.27587
 20 
0.57196
 30 
0.0
 0 
VERTEX
 8 
1
 10 
0.32252
 20 
0.58372
 30 
0.0
 0 
VERTEX
 8 
1
 10 
0.36985
 20 
0.59529
 30 
0.0
 0 
VERTEX
 8 
1
 10 
0.41712
 20 
0.60613
 30 
0.0
 0 
VERTEX
 8 
1
 10 
0.46364
 20 
0.61544
 30 
0.0
 0 
VERTEX
 8 
1
 10 
0.50938
 20 
0.62223
 30 
0.0
 0 
VERTEX
 8 
1
 10 
0.55481
 20 
0.62625
 30 
0.0
 0 
VERTEX
 8 
1
 10 
0.59996
 20 
0.62786
 30 
0.0
 0 
VERTEX
 8 
1
 10 
0.64444
 20 
0.62729
 30 
0.0
 0 
VERTEX
 8 
1
 10 
0.68789
 20 
0.6247
 30 
0.0
 0 
VERTEX
 8 
1
 10 
0.72994
 20 
0.62026
 30 
0.0
 0 
VERTEX
 8 
1
 10 
0.77018
 20 
0.61414
 30 
0.0
 0 
VERTEX
 8 
1
 10 
0.8082
 20 
0.60654
 30 
0.0
 0 
VERTEX
 8 
1
 10 
0.84362
 20 
0.59762
 30 
0.0
 0 
VERTEX
 8 
1
 10 
0.87608
 20 
0.58755
 30 
0.0
 0 
VERTEX
 8 
1
 10 
0.90527
 20 
0.57652
 30 
0.0
 0 
VERTEX
 8 
1
 10 
0.93092
 20 
0.56474
 30 
0.0
 0 
VERTEX
 8 
1
 10 
0.95279
 20 
0.55247
 30 
0.0
 0 
VERTEX
 8 
1
 10 
0.9707
 20 
0.53996
 30 
0.0
 0 
VERTEX
 8 
1
 10 
0.98448
 20 
0.52753
 30 
0.0
 0 
VERTEX
 8 
1
 10 
0.99403
 20 
0.51557
 30 
0.0
 0 
VERTEX
 8 
1
 10 
0.99917
 20 
0.50466
 30 
0.0
 0 
VERTEX
 8 
1
 10 
0.99925
 20 
0.49591
 30 
0.0
 0 
VERTEX
 8 
1
 10 
0.99303
 20 
0.48857
 30 
0.0
 0 
VERTEX
 8 
1
 10 
0.98051
 20 
0.48125
 30 
0.0
 0 
VERTEX
 8 
1
 10 
0.96259
 20 
0.47427
 30 
0.0
 0 
VERTEX
 8 
1
 10 
0.93955
 20 
0.46779
 30 
0.0
 0 
VERTEX
 8 
1
 10 
0.91165
 20 
0.46186
 30 
0.0
 0 
VERTEX
 8 
1
 10 
0.87923
 20 
0.45647
 30 
0.0
 0 
VERTEX
 8 
1
 10 
0.84273
 20 
0.45166
 30 
0.0
 0 
VERTEX
 8 
1
 10 
0.80262
 20 
0.44748
 30 
0.0
 0 
VERTEX
 8 
1
 10 
0.7594
 20 
0.44398
 30 
0.0
 0 
VERTEX
 8 
1
 10 
0.71359
 20 
0.44123
 30 
0.0
 0 
VERTEX
 8 
1
 10 
0.66573
 20 
0.43926
 30 
0.0
 0 
VERTEX
 8 
1
 10 
0.61644
 20 
0.43812
 30 
0.0
 0 
VERTEX
 8 
1
 10 
0.56634
 20 
0.43791
 30 
0.0
 0 
VERTEX
 8 
1
 10 
0.51608
 20 
0.43875
 30 
0.0
 0 
VERTEX
 8 
1
 10 
0.46631
 20 
0.44091
 30 
0.0
 0 
VERTEX
 8 
1
 10 
0.41741
 20 
0.44479
 30 
0.0
 0 
VERTEX
 8 
1
 10 
0.36958
 20 
0.45071
 30 
0.0
 0 
VERTEX
 8 
1
 10 
0.32256
 20 
0.45899
 30 
0.0
 0 
VERTEX
 8 
1
 10 
0.27554
 20 
0.46906
 30 
0.0
 0 
VERTEX
 8 
1
 10 
0.22857
 20 
0.47932
 30 
0.0
 0 
VERTEX
 8 
1
 10 
0.18269
 20 
0.4885
 30 
0.0
 0 
VERTEX
 8 
1
 10 
0.13915
 20 
0.49583
 30 
0.0
 0 
VERTEX
 8 
1
 10 
0.09928
 20 
0.50085
 30 
0.0
 0 
VERTEX
 8 
1
 10 
0.06443
 20 
0.50333
 30 
0.0
 0 
VERTEX
 8 
1
 10 
0.03615
 20 
0.5034
 30 
0.0
 0 
VERTEX
 8 
1
 10 
0.01584
 20 
0.50201
 30 
0.0
 0 
VERTEX
 8 
1
 10 
0.0039000
 20 
0.50057
 30 
0.0
 0 
VERTEX
 8 
1
 10 
0.0
 20 
0.5
 30 
0.0
 0 
SEQEND
 8 
1
 0 
ENDSEC
 0 
EOF
