 0 
SECTION
 2 
ENTITIES
 0 
POLYLINE
 8 
1
 66 
 1 
 10 
0.0
 20 
0.0
 30 
0.0
 0 
VERTEX
 8 
1
 10 
0.0
 20 
0.5
 30 
0.0
 0 
VERTEX
 8 
1
 10 
0.0037599
 20 
0.50018
 30 
0.0
 0 
VERTEX
 8 
1
 10 
0.01459
 20 
0.50108
 30 
0.0
 0 
VERTEX
 8 
1
 10 
0.03155
 20 
0.50295
 30 
0.0
 0 
VERTEX
 8 
1
 10 
0.05413
 20 
0.50541
 30 
0.0
 0 
VERTEX
 8 
1
 10 
0.08231
 20 
0.5083
 30 
0.0
 0 
VERTEX
 8 
1
 10 
0.11585
 20 
0.51189
 30 
0.0
 0 
VERTEX
 8 
1
 10 
0.15415
 20 
0.51638
 30 
0.0
 0 
VERTEX
 8 
1
 10 
0.19655
 20 
0.52179
 30 
0.0
 0 
VERTEX
 8 
1
 10 
0.24234
 20 
0.52809
 30 
0.0
 0 
VERTEX
 8 
1
 10 
0.29077
 20 
0.53515
 30 
0.0
 0 
VERTEX
 8 
1
 10 
0.34107
 20 
0.54286
 30 
0.0
 0 
VERTEX
 8 
1
 10 
0.39251
 20 
0.55089
 30 
0.0
 0 
VERTEX
 8 
1
 10 
0.44436
 20 
0.55899
 30 
0.0
 0 
VERTEX
 8 
1
 10 
0.49596
 20 
0.56684
 30 
0.0
 0 
VERTEX
 8 
1
 10 
0.5467
 20 
0.57409
 30 
0.0
 0 
VERTEX
 8 
1
 10 
0.59603
 20 
0.58043
 30 
0.0
 0 
VERTEX
 8 
1
 10 
0.64346
 20 
0.58551
 30 
0.0
 0 
VERTEX
 8 
1
 10 
0.68858
 20 
0.58905
 30 
0.0
 0 
VERTEX
 8 
1
 10 
0.73104
 20 
0.59071
 30 
0.0
 0 
VERTEX
 8 
1
 10 
0.77074
 20 
0.59018
 30 
0.0
 0 
VERTEX
 8 
1
 10 
0.80771
 20 
0.58746
 30 
0.0
 0 
VERTEX
 8 
1
 10 
0.84188
 20 
0.58266
 30 
0.0
 0 
VERTEX
 8 
1
 10 
0.87324
 20 
0.57603
 30 
0.0
 0 
VERTEX
 8 
1
 10 
0.90165
 20 
0.56795
 30 
0.0
 0 
VERTEX
 8 
1
 10 
0.92685
 20 
0.55882
 30 
0.0
 0 
VERTEX
 8 
1
 10 
0.94858
 20 
0.54889
 30 
0.0
 0 
VERTEX
 8 
1
 10 
0.96665
 20 
0.53848
 30 
0.0
 0 
VERTEX
 8 
1
 10 
0.98092
 20 
0.52791
 30 
0.0
 0 
VERTEX
 8 
1
 10 
0.99128
 20 
0.51753
 30 
0.0
 0 
VERTEX
 8 
1
 10 
0.99768
 20 
0.50783
 30 
0.0
 0 
VERTEX
 8 
1
 10 
0.99999
 20 
0.49953
 30 
0.0
 0 
VERTEX
 8 
1
 10 
0.997
 20 
0.49366
 30 
0.0
 0 
VERTEX
 8 
1
 10 
0.98765
 20 
0.48956
 30 
0.0
 0 
VERTEX
 8 
1
 10 
0.9722
 20 
0.48609
 30 
0.0
 0 
VERTEX
 8 
1
 10 
0.95099
 20 
0.48324
 30 
0.0
 0 
VERTEX
 8 
1
 10 
0.92427
 20 
0.48091
 30 
0.0
 0 
VERTEX
 8 
1
 10 
0.89231
 20 
0.47893
 30 
0.0
 0 
VERTEX
 8 
1
 10 
0.85558
 20 
0.47705
 30 
0.0
 0 
VERTEX
 8 
1
 10 
0.81472
 20 
0.47518
 30 
0.0
 0 
VERTEX
 8 
1
 10 
0.77038
 20 
0.47333
 30 
0.0
 0 
VERTEX
 8 
1
 10 
0.72319
 20 
0.4716
 30 
0.0
 0 
VERTEX
 8 
1
 10 
0.67373
 20 
0.4701
 30 
0.0
 0 
VERTEX
 8 
1
 10 
0.62254
 20 
0.46893
 30 
0.0
 0 
VERTEX
 8 
1
 10 
0.5702
 20 
0.46812
 30 
0.0
 0 
VERTEX
 8 
1
 10 
0.51726
 20 
0.46771
 30 
0.0
 0 
VERTEX
 8 
1
 10 
0.46433
 20 
0.46771
 30 
0.0
 0 
VERTEX
 8 
1
 10 
0.41198
 20 
0.46816
 30 
0.0
 0 
VERTEX
 8 
1
 10 
0.36079
 20 
0.46907
 30 
0.0
 0 
VERTEX
 8 
1
 10 
0.31133
 20 
0.47047
 30 
0.0
 0 
VERTEX
 8 
1
 10 
0.26408
 20 
0.4724
 30 
0.0
 0 
VERTEX
 8 
1
 10 
0.21948
 20 
0.47486
 30 
0.0
 0 
VERTEX
 8 
1
 10 
0.17792
 20 
0.47777
 30 
0.0
 0 
VERTEX
 8 
1
 10 
0.13981
 20 
0.48102
 30 
0.0
 0 
VERTEX
 8 
1
 10 
0.10555
 20 
0.48447
 30 
0.0
 0 
VERTEX
 8 
1
 10 
0.075489
 20 
0.48798
 30 
0.0
 0 
VERTEX
 8 
1
 10 
0.0501
 20 
0.49141
 30 
0.0
 0 
VERTEX
 8 
1
 10 
0.02956
 20 
0.49479
 30 
0.0
 0 
VERTEX
 8 
1
 10 
0.01388
 20 
0.49773
 30 
0.0
 0 
VERTEX
 8 
1
 10 
0.0036300
 20 
0.49949
 30 
0.0
 0 
VERTEX
 8 
1
 10 
0.0
 20 
0.5
 30 
0.0
 0 
SEQEND
 8 
1
 0 
ENDSEC
 0 
EOF
