 0 
SECTION
 2 
ENTITIES
 0 
POLYLINE
 8 
1
 66 
 1 
 10 
0.0
 20 
0.0
 30 
0.0
 0 
VERTEX
 8 
1
 10 
0.0
 20 
0.5
 30 
0.0
 0 
VERTEX
 8 
1
 10 
0.0037500
 20 
0.50031
 30 
0.0
 0 
VERTEX
 8 
1
 10 
0.01448
 20 
0.50162
 30 
0.0
 0 
VERTEX
 8 
1
 10 
0.03117
 20 
0.50405
 30 
0.0
 0 
VERTEX
 8 
1
 10 
0.0533
 20 
0.50711
 30 
0.0
 0 
VERTEX
 8 
1
 10 
0.080929
 20 
0.51058
 30 
0.0
 0 
VERTEX
 8 
1
 10 
0.11386
 20 
0.51472
 30 
0.0
 0 
VERTEX
 8 
1
 10 
0.1515
 20 
0.51972
 30 
0.0
 0 
VERTEX
 8 
1
 10 
0.19323
 20 
0.5256
 30 
0.0
 0 
VERTEX
 8 
1
 10 
0.23836
 20 
0.53232
 30 
0.0
 0 
VERTEX
 8 
1
 10 
0.28614
 20 
0.53975
 30 
0.0
 0 
VERTEX
 8 
1
 10 
0.33584
 20 
0.54771
 30 
0.0
 0 
VERTEX
 8 
1
 10 
0.38674
 20 
0.55596
 30 
0.0
 0 
VERTEX
 8 
1
 10 
0.43811
 20 
0.56423
 30 
0.0
 0 
VERTEX
 8 
1
 10 
0.48932
 20 
0.57218
 30 
0.0
 0 
VERTEX
 8 
1
 10 
0.53975
 20 
0.57948
 30 
0.0
 0 
VERTEX
 8 
1
 10 
0.58885
 20 
0.58581
 30 
0.0
 0 
VERTEX
 8 
1
 10 
0.63616
 20 
0.59085
 30 
0.0
 0 
VERTEX
 8 
1
 10 
0.68123
 20 
0.5943
 30 
0.0
 0 
VERTEX
 8 
1
 10 
0.72373
 20 
0.59583
 30 
0.0
 0 
VERTEX
 8 
1
 10 
0.76355
 20 
0.5951
 30 
0.0
 0 
VERTEX
 8 
1
 10 
0.80076
 20 
0.59211
 30 
0.0
 0 
VERTEX
 8 
1
 10 
0.83528
 20 
0.58703
 30 
0.0
 0 
VERTEX
 8 
1
 10 
0.86709
 20 
0.58009
 30 
0.0
 0 
VERTEX
 8 
1
 10 
0.89603
 20 
0.57168
 30 
0.0
 0 
VERTEX
 8 
1
 10 
0.92184
 20 
0.56218
 30 
0.0
 0 
VERTEX
 8 
1
 10 
0.94424
 20 
0.55189
 30 
0.0
 0 
VERTEX
 8 
1
 10 
0.96306
 20 
0.54107
 30 
0.0
 0 
VERTEX
 8 
1
 10 
0.97813
 20 
0.53008
 30 
0.0
 0 
VERTEX
 8 
1
 10 
0.98932
 20 
0.51923
 30 
0.0
 0 
VERTEX
 8 
1
 10 
0.99663
 20 
0.509
 30 
0.0
 0 
VERTEX
 8 
1
 10 
0.99988
 20 
0.5
 30 
0.0
 0 
VERTEX
 8 
1
 10 
0.99868
 20 
0.49358
 30 
0.0
 0 
VERTEX
 8 
1
 10 
0.99145
 20 
0.48948
 30 
0.0
 0 
VERTEX
 8 
1
 10 
0.97751
 20 
0.48629
 30 
0.0
 0 
VERTEX
 8 
1
 10 
0.95759
 20 
0.48381
 30 
0.0
 0 
VERTEX
 8 
1
 10 
0.93195
 20 
0.48196
 30 
0.0
 0 
VERTEX
 8 
1
 10 
0.90085
 20 
0.4805
 30 
0.0
 0 
VERTEX
 8 
1
 10 
0.86475
 20 
0.47915
 30 
0.0
 0 
VERTEX
 8 
1
 10 
0.82434
 20 
0.47778
 30 
0.0
 0 
VERTEX
 8 
1
 10 
0.78026
 20 
0.47639
 30 
0.0
 0 
VERTEX
 8 
1
 10 
0.73316
 20 
0.47505
 30 
0.0
 0 
VERTEX
 8 
1
 10 
0.68366
 20 
0.47389
 30 
0.0
 0 
VERTEX
 8 
1
 10 
0.63228
 20 
0.47298
 30 
0.0
 0 
VERTEX
 8 
1
 10 
0.57963
 20 
0.47237
 30 
0.0
 0 
VERTEX
 8 
1
 10 
0.52627
 20 
0.47208
 30 
0.0
 0 
VERTEX
 8 
1
 10 
0.47282
 20 
0.47215
 30 
0.0
 0 
VERTEX
 8 
1
 10 
0.41987
 20 
0.47257
 30 
0.0
 0 
VERTEX
 8 
1
 10 
0.368
 20 
0.47338
 30 
0.0
 0 
VERTEX
 8 
1
 10 
0.31782
 20 
0.4746
 30 
0.0
 0 
VERTEX
 8 
1
 10 
0.26981
 20 
0.47632
 30 
0.0
 0 
VERTEX
 8 
1
 10 
0.22442
 20 
0.47849
 30 
0.0
 0 
VERTEX
 8 
1
 10 
0.18207
 20 
0.48107
 30 
0.0
 0 
VERTEX
 8 
1
 10 
0.14317
 20 
0.48393
 30 
0.0
 0 
VERTEX
 8 
1
 10 
0.10813
 20 
0.48697
 30 
0.0
 0 
VERTEX
 8 
1
 10 
0.07734
 20 
0.49002
 30 
0.0
 0 
VERTEX
 8 
1
 10 
0.05128
 20 
0.49296
 30 
0.0
 0 
VERTEX
 8 
1
 10 
0.03016
 20 
0.49582
 30 
0.0
 0 
VERTEX
 8 
1
 10 
0.01411
 20 
0.49825
 30 
0.0
 0 
VERTEX
 8 
1
 10 
0.0036800
 20 
0.49962
 30 
0.0
 0 
VERTEX
 8 
1
 10 
0.0
 20 
0.5
 30 
0.0
 0 
SEQEND
 8 
1
 0 
ENDSEC
 0 
EOF
