 0 
SECTION
 2 
ENTITIES
 0 
POLYLINE
 8 
1
 66 
 1 
 10 
0.0
 20 
0.0
 30 
0.0
 0 
VERTEX
 8 
1
 10 
0.0
 20 
0.5
 30 
0.0
 0 
VERTEX
 8 
1
 10 
0.0037599
 20 
0.50059
 30 
0.0
 0 
VERTEX
 8 
1
 10 
0.01459
 20 
0.50268
 30 
0.0
 0 
VERTEX
 8 
1
 10 
0.03151
 20 
0.50651
 30 
0.0
 0 
VERTEX
 8 
1
 10 
0.0537
 20 
0.5117
 30 
0.0
 0 
VERTEX
 8 
1
 10 
0.08083
 20 
0.5177
 30 
0.0
 0 
VERTEX
 8 
1
 10 
0.11288
 20 
0.52441
 30 
0.0
 0 
VERTEX
 8 
1
 10 
0.14945
 20 
0.53206
 30 
0.0
 0 
VERTEX
 8 
1
 10 
0.18981
 20 
0.54071
 30 
0.0
 0 
VERTEX
 8 
1
 10 
0.23317
 20 
0.55025
 30 
0.0
 0 
VERTEX
 8 
1
 10 
0.27871
 20 
0.56048
 30 
0.0
 0 
VERTEX
 8 
1
 10 
0.32555
 20 
0.57103
 30 
0.0
 0 
VERTEX
 8 
1
 10 
0.37283
 20 
0.58143
 30 
0.0
 0 
VERTEX
 8 
1
 10 
0.41973
 20 
0.59082
 30 
0.0
 0 
VERTEX
 8 
1
 10 
0.46614
 20 
0.59807
 30 
0.0
 0 
VERTEX
 8 
1
 10 
0.51265
 20 
0.60285
 30 
0.0
 0 
VERTEX
 8 
1
 10 
0.55927
 20 
0.60561
 30 
0.0
 0 
VERTEX
 8 
1
 10 
0.60553
 20 
0.6066
 30 
0.0
 0 
VERTEX
 8 
1
 10 
0.65096
 20 
0.60588
 30 
0.0
 0 
VERTEX
 8 
1
 10 
0.69517
 20 
0.60355
 30 
0.0
 0 
VERTEX
 8 
1
 10 
0.73773
 20 
0.59972
 30 
0.0
 0 
VERTEX
 8 
1
 10 
0.77822
 20 
0.59451
 30 
0.0
 0 
VERTEX
 8 
1
 10 
0.81623
 20 
0.58803
 30 
0.0
 0 
VERTEX
 8 
1
 10 
0.8514
 20 
0.58041
 30 
0.0
 0 
VERTEX
 8 
1
 10 
0.8834
 20 
0.5718
 30 
0.0
 0 
VERTEX
 8 
1
 10 
0.91193
 20 
0.56233
 30 
0.0
 0 
VERTEX
 8 
1
 10 
0.93674
 20 
0.55218
 30 
0.0
 0 
VERTEX
 8 
1
 10 
0.95769
 20 
0.54156
 30 
0.0
 0 
VERTEX
 8 
1
 10 
0.97464
 20 
0.5308
 30 
0.0
 0 
VERTEX
 8 
1
 10 
0.98741
 20 
0.52025
 30 
0.0
 0 
VERTEX
 8 
1
 10 
0.99586
 20 
0.51027
 30 
0.0
 0 
VERTEX
 8 
1
 10 
0.99988
 20 
0.50147
 30 
0.0
 0 
VERTEX
 8 
1
 10 
0.99824
 20 
0.49464
 30 
0.0
 0 
VERTEX
 8 
1
 10 
0.9902
 20 
0.48898
 30 
0.0
 0 
VERTEX
 8 
1
 10 
0.97634
 20 
0.48351
 30 
0.0
 0 
VERTEX
 8 
1
 10 
0.95708
 20 
0.47848
 30 
0.0
 0 
VERTEX
 8 
1
 10 
0.93266
 20 
0.47398
 30 
0.0
 0 
VERTEX
 8 
1
 10 
0.90331
 20 
0.47002
 30 
0.0
 0 
VERTEX
 8 
1
 10 
0.86936
 20 
0.46654
 30 
0.0
 0 
VERTEX
 8 
1
 10 
0.83126
 20 
0.46352
 30 
0.0
 0 
VERTEX
 8 
1
 10 
0.78947
 20 
0.46098
 30 
0.0
 0 
VERTEX
 8 
1
 10 
0.74449
 20 
0.45892
 30 
0.0
 0 
VERTEX
 8 
1
 10 
0.69687
 20 
0.45735
 30 
0.0
 0 
VERTEX
 8 
1
 10 
0.64715
 20 
0.4563
 30 
0.0
 0 
VERTEX
 8 
1
 10 
0.59592
 20 
0.45575
 30 
0.0
 0 
VERTEX
 8 
1
 10 
0.54378
 20 
0.45574
 30 
0.0
 0 
VERTEX
 8 
1
 10 
0.49135
 20 
0.45626
 30 
0.0
 0 
VERTEX
 8 
1
 10 
0.43922
 20 
0.45734
 30 
0.0
 0 
VERTEX
 8 
1
 10 
0.38805
 20 
0.45897
 30 
0.0
 0 
VERTEX
 8 
1
 10 
0.33848
 20 
0.46123
 30 
0.0
 0 
VERTEX
 8 
1
 10 
0.29115
 20 
0.46424
 30 
0.0
 0 
VERTEX
 8 
1
 10 
0.24669
 20 
0.46846
 30 
0.0
 0 
VERTEX
 8 
1
 10 
0.20478
 20 
0.47461
 30 
0.0
 0 
VERTEX
 8 
1
 10 
0.16438
 20 
0.48202
 30 
0.0
 0 
VERTEX
 8 
1
 10 
0.12576
 20 
0.48892
 30 
0.0
 0 
VERTEX
 8 
1
 10 
0.0903
 20 
0.49432
 30 
0.0
 0 
VERTEX
 8 
1
 10 
0.0593
 20 
0.49793
 30 
0.0
 0 
VERTEX
 8 
1
 10 
0.03396
 20 
0.4998
 30 
0.0
 0 
VERTEX
 8 
1
 10 
0.01525
 20 
0.50034
 30 
0.0
 0 
VERTEX
 8 
1
 10 
0.00383
 20 
0.50017
 30 
0.0
 0 
VERTEX
 8 
1
 10 
0.0
 20 
0.5
 30 
0.0
 0 
SEQEND
 8 
1
 0 
ENDSEC
 0 
EOF
