 0 
SECTION
 2 
ENTITIES
 0 
POLYLINE
 8 
1
 66 
 1 
 10 
0.0
 20 
0.0
 30 
0.0
 0 
VERTEX
 8 
1
 10 
0.0
 20 
0.5
 30 
0.0
 0 
VERTEX
 8 
1
 10 
0.0037700
 20 
0.50065
 30 
0.0
 0 
VERTEX
 8 
1
 10 
0.01466
 20 
0.50288
 30 
0.0
 0 
VERTEX
 8 
1
 10 
0.03177
 20 
0.50697
 30 
0.0
 0 
VERTEX
 8 
1
 10 
0.05428
 20 
0.51265
 30 
0.0
 0 
VERTEX
 8 
1
 10 
0.08175
 20 
0.51953
 30 
0.0
 0 
VERTEX
 8 
1
 10 
0.11392
 20 
0.52751
 30 
0.0
 0 
VERTEX
 8 
1
 10 
0.15022
 20 
0.53671
 30 
0.0
 0 
VERTEX
 8 
1
 10 
0.1898
 20 
0.54707
 30 
0.0
 0 
VERTEX
 8 
1
 10 
0.23175
 20 
0.55828
 30 
0.0
 0 
VERTEX
 8 
1
 10 
0.2751
 20 
0.5699
 30 
0.0
 0 
VERTEX
 8 
1
 10 
0.31887
 20 
0.58095
 30 
0.0
 0 
VERTEX
 8 
1
 10 
0.36296
 20 
0.59002
 30 
0.0
 0 
VERTEX
 8 
1
 10 
0.40822
 20 
0.59665
 30 
0.0
 0 
VERTEX
 8 
1
 10 
0.45477
 20 
0.60146
 30 
0.0
 0 
VERTEX
 8 
1
 10 
0.50201
 20 
0.60473
 30 
0.0
 0 
VERTEX
 8 
1
 10 
0.54941
 20 
0.60649
 30 
0.0
 0 
VERTEX
 8 
1
 10 
0.59648
 20 
0.60676
 30 
0.0
 0 
VERTEX
 8 
1
 10 
0.64274
 20 
0.60555
 30 
0.0
 0 
VERTEX
 8 
1
 10 
0.68776
 20 
0.60288
 30 
0.0
 0 
VERTEX
 8 
1
 10 
0.73111
 20 
0.59884
 30 
0.0
 0 
VERTEX
 8 
1
 10 
0.77236
 20 
0.5935
 30 
0.0
 0 
VERTEX
 8 
1
 10 
0.81111
 20 
0.58696
 30 
0.0
 0 
VERTEX
 8 
1
 10 
0.84701
 20 
0.57931
 30 
0.0
 0 
VERTEX
 8 
1
 10 
0.87973
 20 
0.57071
 30 
0.0
 0 
VERTEX
 8 
1
 10 
0.90897
 20 
0.56133
 30 
0.0
 0 
VERTEX
 8 
1
 10 
0.93446
 20 
0.55132
 30 
0.0
 0 
VERTEX
 8 
1
 10 
0.95603
 20 
0.54091
 30 
0.0
 0 
VERTEX
 8 
1
 10 
0.97351
 20 
0.53038
 30 
0.0
 0 
VERTEX
 8 
1
 10 
0.98672
 20 
0.52006
 30 
0.0
 0 
VERTEX
 8 
1
 10 
0.99554
 20 
0.51031
 30 
0.0
 0 
VERTEX
 8 
1
 10 
0.99983
 20 
0.50171
 30 
0.0
 0 
VERTEX
 8 
1
 10 
0.99834
 20 
0.49499
 30 
0.0
 0 
VERTEX
 8 
1
 10 
0.99039
 20 
0.48929
 30 
0.0
 0 
VERTEX
 8 
1
 10 
0.97667
 20 
0.48373
 30 
0.0
 0 
VERTEX
 8 
1
 10 
0.95754
 20 
0.47857
 30 
0.0
 0 
VERTEX
 8 
1
 10 
0.93326
 20 
0.47389
 30 
0.0
 0 
VERTEX
 8 
1
 10 
0.90405
 20 
0.46971
 30 
0.0
 0 
VERTEX
 8 
1
 10 
0.87026
 20 
0.46599
 30 
0.0
 0 
VERTEX
 8 
1
 10 
0.83232
 20 
0.46272
 30 
0.0
 0 
VERTEX
 8 
1
 10 
0.79071
 20 
0.45992
 30 
0.0
 0 
VERTEX
 8 
1
 10 
0.74591
 20 
0.45761
 30 
0.0
 0 
VERTEX
 8 
1
 10 
0.69848
 20 
0.4558
 30 
0.0
 0 
VERTEX
 8 
1
 10 
0.64895
 20 
0.45451
 30 
0.0
 0 
VERTEX
 8 
1
 10 
0.59793
 20 
0.45377
 30 
0.0
 0 
VERTEX
 8 
1
 10 
0.54599
 20 
0.45359
 30 
0.0
 0 
VERTEX
 8 
1
 10 
0.49375
 20 
0.45398
 30 
0.0
 0 
VERTEX
 8 
1
 10 
0.44183
 20 
0.45498
 30 
0.0
 0 
VERTEX
 8 
1
 10 
0.39085
 20 
0.45658
 30 
0.0
 0 
VERTEX
 8 
1
 10 
0.34147
 20 
0.45888
 30 
0.0
 0 
VERTEX
 8 
1
 10 
0.29433
 20 
0.462
 30 
0.0
 0 
VERTEX
 8 
1
 10 
0.25006
 20 
0.46644
 30 
0.0
 0 
VERTEX
 8 
1
 10 
0.20833
 20 
0.47301
 30 
0.0
 0 
VERTEX
 8 
1
 10 
0.16791
 20 
0.48105
 30 
0.0
 0 
VERTEX
 8 
1
 10 
0.12897
 20 
0.48868
 30 
0.0
 0 
VERTEX
 8 
1
 10 
0.09285
 20 
0.49469
 30 
0.0
 0 
VERTEX
 8 
1
 10 
0.06099
 20 
0.49863
 30 
0.0
 0 
VERTEX
 8 
1
 10 
0.034800
 20 
0.50045
 30 
0.0
 0 
VERTEX
 8 
1
 10 
0.01553
 20 
0.50069
 30 
0.0
 0 
VERTEX
 8 
1
 10 
0.0038799
 20 
0.50026
 30 
0.0
 0 
VERTEX
 8 
1
 10 
0.0
 20 
0.5
 30 
0.0
 0 
SEQEND
 8 
1
 0 
ENDSEC
 0 
EOF
