 0 
SECTION
 2 
ENTITIES
 0 
POLYLINE
 8 
1
 66 
 1 
 10 
0.0
 20 
0.0
 30 
0.0
 0 
VERTEX
 8 
1
 10 
0.0
 20 
0.50017
 30 
0.0
 0 
VERTEX
 8 
1
 10 
0.0033100
 20 
0.50093
 30 
0.0
 0 
VERTEX
 8 
1
 10 
0.01268
 20 
0.50333
 30 
0.0
 0 
VERTEX
 8 
1
 10 
0.02713
 20 
0.50716
 30 
0.0
 0 
VERTEX
 8 
1
 10 
0.046239
 20 
0.51167
 30 
0.0
 0 
VERTEX
 8 
1
 10 
0.07012
 20 
0.51653
 30 
0.0
 0 
VERTEX
 8 
1
 10 
0.0986
 20 
0.52183
 30 
0.0
 0 
VERTEX
 8 
1
 10 
0.13119
 20 
0.52757
 30 
0.0
 0 
VERTEX
 8 
1
 10 
0.16737
 20 
0.53362
 30 
0.0
 0 
VERTEX
 8 
1
 10 
0.20657
 20 
0.53977
 30 
0.0
 0 
VERTEX
 8 
1
 10 
0.24822
 20 
0.54569
 30 
0.0
 0 
VERTEX
 8 
1
 10 
0.2919
 20 
0.55094
 30 
0.0
 0 
VERTEX
 8 
1
 10 
0.3374
 20 
0.55525
 30 
0.0
 0 
VERTEX
 8 
1
 10 
0.38447
 20 
0.5585
 30 
0.0
 0 
VERTEX
 8 
1
 10 
0.43281
 20 
0.56069
 30 
0.0
 0 
VERTEX
 8 
1
 10 
0.48204
 20 
0.56194
 30 
0.0
 0 
VERTEX
 8 
1
 10 
0.53162
 20 
0.56231
 30 
0.0
 0 
VERTEX
 8 
1
 10 
0.58102
 20 
0.56184
 30 
0.0
 0 
VERTEX
 8 
1
 10 
0.62974
 20 
0.56056
 30 
0.0
 0 
VERTEX
 8 
1
 10 
0.67725
 20 
0.55851
 30 
0.0
 0 
VERTEX
 8 
1
 10 
0.72306
 20 
0.55574
 30 
0.0
 0 
VERTEX
 8 
1
 10 
0.7667
 20 
0.55231
 30 
0.0
 0 
VERTEX
 8 
1
 10 
0.8077
 20 
0.54827
 30 
0.0
 0 
VERTEX
 8 
1
 10 
0.84564
 20 
0.5437
 30 
0.0
 0 
VERTEX
 8 
1
 10 
0.88011
 20 
0.53867
 30 
0.0
 0 
VERTEX
 8 
1
 10 
0.91077
 20 
0.5333
 30 
0.0
 0 
VERTEX
 8 
1
 10 
0.93728
 20 
0.52766
 30 
0.0
 0 
VERTEX
 8 
1
 10 
0.95934
 20 
0.52186
 30 
0.0
 0 
VERTEX
 8 
1
 10 
0.97675
 20 
0.51596
 30 
0.0
 0 
VERTEX
 8 
1
 10 
0.98942
 20 
0.51011
 30 
0.0
 0 
VERTEX
 8 
1
 10 
0.994
 20 
0.50725
 30 
0.0
 0 
VERTEX
 8 
1
 10 
0.99774
 20 
0.50401
 30 
0.0
 0 
VERTEX
 8 
1
 10 
0.99929
 20 
0.50205
 30 
0.0
 0 
VERTEX
 8 
1
 10 
0.99991
 20 
0.50074
 30 
0.0
 0 
VERTEX
 8 
1
 10 
1
 20 
0.5
 30 
0.0
 0 
VERTEX
 8 
1
 10 
0.99975
 20 
0.49928
 30 
0.0
 0 
VERTEX
 8 
1
 10 
0.99885
 20 
0.4981
 30 
0.0
 0 
VERTEX
 8 
1
 10 
0.99687
 20 
0.4964
 30 
0.0
 0 
VERTEX
 8 
1
 10 
0.99238
 20 
0.49375
 30 
0.0
 0 
VERTEX
 8 
1
 10 
0.98732
 20 
0.49163
 30 
0.0
 0 
VERTEX
 8 
1
 10 
0.97316
 20 
0.48739
 30 
0.0
 0 
VERTEX
 8 
1
 10 
0.95403
 20 
0.48347
 30 
0.0
 0 
VERTEX
 8 
1
 10 
0.93007
 20 
0.47993
 30 
0.0
 0 
VERTEX
 8 
1
 10 
0.90154
 20 
0.47676
 30 
0.0
 0 
VERTEX
 8 
1
 10 
0.86879
 20 
0.47401
 30 
0.0
 0 
VERTEX
 8 
1
 10 
0.83224
 20 
0.47173
 30 
0.0
 0 
VERTEX
 8 
1
 10 
0.79231
 20 
0.47
 30 
0.0
 0 
VERTEX
 8 
1
 10 
0.74948
 20 
0.46891
 30 
0.0
 0 
VERTEX
 8 
1
 10 
0.70425
 20 
0.46863
 30 
0.0
 0 
VERTEX
 8 
1
 10 
0.65699
 20 
0.46937
 30 
0.0
 0 
VERTEX
 8 
1
 10 
0.60796
 20 
0.47124
 30 
0.0
 0 
VERTEX
 8 
1
 10 
0.55742
 20 
0.47422
 30 
0.0
 0 
VERTEX
 8 
1
 10 
0.50556
 20 
0.47812
 30 
0.0
 0 
VERTEX
 8 
1
 10 
0.45276
 20 
0.48246
 30 
0.0
 0 
VERTEX
 8 
1
 10 
0.39972
 20 
0.48689
 30 
0.0
 0 
VERTEX
 8 
1
 10 
0.34713
 20 
0.49111
 30 
0.0
 0 
VERTEX
 8 
1
 10 
0.29572
 20 
0.4949
 30 
0.0
 0 
VERTEX
 8 
1
 10 
0.24627
 20 
0.49809
 30 
0.0
 0 
VERTEX
 8 
1
 10 
0.19951
 20 
0.50057
 30 
0.0
 0 
VERTEX
 8 
1
 10 
0.1562
 20 
0.50226
 30 
0.0
 0 
VERTEX
 8 
1
 10 
0.11703
 20 
0.50318
 30 
0.0
 0 
VERTEX
 8 
1
 10 
0.08267
 20 
0.50338
 30 
0.0
 0 
VERTEX
 8 
1
 10 
0.0537
 20 
0.50302
 30 
0.0
 0 
VERTEX
 8 
1
 10 
0.03059
 20 
0.50228
 30 
0.0
 0 
VERTEX
 8 
1
 10 
0.01373
 20 
0.50136
 30 
0.0
 0 
VERTEX
 8 
1
 10 
0.0034600
 20 
0.50053
 30 
0.0
 0 
VERTEX
 8 
1
 10 
0.0
 20 
0.50017
 30 
0.0
 0 
SEQEND
 8 
1
 0 
ENDSEC
 0 
EOF
