 0 
SECTION
 2 
ENTITIES
 0 
POLYLINE
 8 
1
 66 
 1 
 10 
0.0
 20 
0.0
 30 
0.0
 0 
VERTEX
 8 
1
 10 
0.0
 20 
0.49944
 30 
0.0
 0 
VERTEX
 8 
1
 10 
0.0033600
 20 
0.50033
 30 
0.0
 0 
VERTEX
 8 
1
 10 
0.0128
 20 
0.50312
 30 
0.0
 0 
VERTEX
 8 
1
 10 
0.02728
 20 
0.50748
 30 
0.0
 0 
VERTEX
 8 
1
 10 
0.04641
 20 
0.51255
 30 
0.0
 0 
VERTEX
 8 
1
 10 
0.07041
 20 
0.51795
 30 
0.0
 0 
VERTEX
 8 
1
 10 
0.09918
 20 
0.52383
 30 
0.0
 0 
VERTEX
 8 
1
 10 
0.13227
 20 
0.53023
 30 
0.0
 0 
VERTEX
 8 
1
 10 
0.16916
 20 
0.53704
 30 
0.0
 0 
VERTEX
 8 
1
 10 
0.20933
 20 
0.54415
 30 
0.0
 0 
VERTEX
 8 
1
 10 
0.25222
 20 
0.55139
 30 
0.0
 0 
VERTEX
 8 
1
 10 
0.29724
 20 
0.55856
 30 
0.0
 0 
VERTEX
 8 
1
 10 
0.3438
 20 
0.56542
 30 
0.0
 0 
VERTEX
 8 
1
 10 
0.39132
 20 
0.57169
 30 
0.0
 0 
VERTEX
 8 
1
 10 
0.43923
 20 
0.57703
 30 
0.0
 0 
VERTEX
 8 
1
 10 
0.48717
 20 
0.58103
 30 
0.0
 0 
VERTEX
 8 
1
 10 
0.53493
 20 
0.58347
 30 
0.0
 0 
VERTEX
 8 
1
 10 
0.58226
 20 
0.58426
 30 
0.0
 0 
VERTEX
 8 
1
 10 
0.62896
 20 
0.58346
 30 
0.0
 0 
VERTEX
 8 
1
 10 
0.67472
 20 
0.5813
 30 
0.0
 0 
VERTEX
 8 
1
 10 
0.71904
 20 
0.57797
 30 
0.0
 0 
VERTEX
 8 
1
 10 
0.76146
 20 
0.57359
 30 
0.0
 0 
VERTEX
 8 
1
 10 
0.80153
 20 
0.56826
 30 
0.0
 0 
VERTEX
 8 
1
 10 
0.83885
 20 
0.56213
 30 
0.0
 0 
VERTEX
 8 
1
 10 
0.87301
 20 
0.55531
 30 
0.0
 0 
VERTEX
 8 
1
 10 
0.90369
 20 
0.54795
 30 
0.0
 0 
VERTEX
 8 
1
 10 
0.93053
 20 
0.5402
 30 
0.0
 0 
VERTEX
 8 
1
 10 
0.95324
 20 
0.53222
 30 
0.0
 0 
VERTEX
 8 
1
 10 
0.97161
 20 
0.52411
 30 
0.0
 0 
VERTEX
 8 
1
 10 
0.98551
 20 
0.51608
 30 
0.0
 0 
VERTEX
 8 
1
 10 
0.99476
 20 
0.50852
 30 
0.0
 0 
VERTEX
 8 
1
 10 
0.99819
 20 
0.50428
 30 
0.0
 0 
VERTEX
 8 
1
 10 
0.99953
 20 
0.50172
 30 
0.0
 0 
VERTEX
 8 
1
 10 
1
 20 
0.5
 30 
0.0
 0 
VERTEX
 8 
1
 10 
0.99998
 20 
0.49901
 30 
0.0
 0 
VERTEX
 8 
1
 10 
0.99963
 20 
0.49806
 30 
0.0
 0 
VERTEX
 8 
1
 10 
0.99855
 20 
0.49657
 30 
0.0
 0 
VERTEX
 8 
1
 10 
0.99627
 20 
0.49451
 30 
0.0
 0 
VERTEX
 8 
1
 10 
0.99129
 20 
0.49135
 30 
0.0
 0 
VERTEX
 8 
1
 10 
0.97862
 20 
0.48622
 30 
0.0
 0 
VERTEX
 8 
1
 10 
0.96102
 20 
0.48153
 30 
0.0
 0 
VERTEX
 8 
1
 10 
0.93853
 20 
0.47736
 30 
0.0
 0 
VERTEX
 8 
1
 10 
0.91132
 20 
0.47371
 30 
0.0
 0 
VERTEX
 8 
1
 10 
0.87974
 20 
0.47057
 30 
0.0
 0 
VERTEX
 8 
1
 10 
0.84422
 20 
0.468
 30 
0.0
 0 
VERTEX
 8 
1
 10 
0.80519
 20 
0.46607
 30 
0.0
 0 
VERTEX
 8 
1
 10 
0.76314
 20 
0.46489
 30 
0.0
 0 
VERTEX
 8 
1
 10 
0.71856
 20 
0.46462
 30 
0.0
 0 
VERTEX
 8 
1
 10 
0.67182
 20 
0.46551
 30 
0.0
 0 
VERTEX
 8 
1
 10 
0.62321
 20 
0.4677
 30 
0.0
 0 
VERTEX
 8 
1
 10 
0.57291
 20 
0.47125
 30 
0.0
 0 
VERTEX
 8 
1
 10 
0.52097
 20 
0.47592
 30 
0.0
 0 
VERTEX
 8 
1
 10 
0.46773
 20 
0.48115
 30 
0.0
 0 
VERTEX
 8 
1
 10 
0.41389
 20 
0.48645
 30 
0.0
 0 
VERTEX
 8 
1
 10 
0.36021
 20 
0.49148
 30 
0.0
 0 
VERTEX
 8 
1
 10 
0.30745
 20 
0.49595
 30 
0.0
 0 
VERTEX
 8 
1
 10 
0.25644
 20 
0.49966
 30 
0.0
 0 
VERTEX
 8 
1
 10 
0.20803
 20 
0.50245
 30 
0.0
 0 
VERTEX
 8 
1
 10 
0.16301
 20 
0.50424
 30 
0.0
 0 
VERTEX
 8 
1
 10 
0.12217
 20 
0.50505
 30 
0.0
 0 
VERTEX
 8 
1
 10 
0.08623
 20 
0.50496
 30 
0.0
 0 
VERTEX
 8 
1
 10 
0.05587
 20 
0.50411
 30 
0.0
 0 
VERTEX
 8 
1
 10 
0.03168
 20 
0.50275
 30 
0.0
 0 
VERTEX
 8 
1
 10 
0.01414
 20 
0.50121
 30 
0.0
 0 
VERTEX
 8 
1
 10 
0.0035399
 20 
0.49995
 30 
0.0
 0 
VERTEX
 8 
1
 10 
0.0
 20 
0.49944
 30 
0.0
 0 
SEQEND
 8 
1
 0 
ENDSEC
 0 
EOF
