 0 
SECTION
 2 
ENTITIES
 0 
POLYLINE
 8 
1
 66 
 1 
 10 
0.0
 20 
0.0
 30 
0.0
 0 
VERTEX
 8 
1
 10 
0.0
 20 
0.5
 30 
0.0
 0 
VERTEX
 8 
1
 10 
0.0036399
 20 
0.50124
 30 
0.0
 0 
VERTEX
 8 
1
 10 
0.01358
 20 
0.50508
 30 
0.0
 0 
VERTEX
 8 
1
 10 
0.02829
 20 
0.51091
 30 
0.0
 0 
VERTEX
 8 
1
 10 
0.04742
 20 
0.51743
 30 
0.0
 0 
VERTEX
 8 
1
 10 
0.07147
 20 
0.52415
 30 
0.0
 0 
VERTEX
 8 
1
 10 
0.10045
 20 
0.53135
 30 
0.0
 0 
VERTEX
 8 
1
 10 
0.13386
 20 
0.5391
 30 
0.0
 0 
VERTEX
 8 
1
 10 
0.17122
 20 
0.54733
 30 
0.0
 0 
VERTEX
 8 
1
 10 
0.21195
 20 
0.55591
 30 
0.0
 0 
VERTEX
 8 
1
 10 
0.25549
 20 
0.56469
 30 
0.0
 0 
VERTEX
 8 
1
 10 
0.30123
 20 
0.57347
 30 
0.0
 0 
VERTEX
 8 
1
 10 
0.34856
 20 
0.58201
 30 
0.0
 0 
VERTEX
 8 
1
 10 
0.3969
 20 
0.59007
 30 
0.0
 0 
VERTEX
 8 
1
 10 
0.44565
 20 
0.59738
 30 
0.0
 0 
VERTEX
 8 
1
 10 
0.49427
 20 
0.60367
 30 
0.0
 0 
VERTEX
 8 
1
 10 
0.54223
 20 
0.60864
 30 
0.0
 0 
VERTEX
 8 
1
 10 
0.58905
 20 
0.61198
 30 
0.0
 0 
VERTEX
 8 
1
 10 
0.63447
 20 
0.6133
 30 
0.0
 0 
VERTEX
 8 
1
 10 
0.67835
 20 
0.61249
 30 
0.0
 0 
VERTEX
 8 
1
 10 
0.72054
 20 
0.60954
 30 
0.0
 0 
VERTEX
 8 
1
 10 
0.76096
 20 
0.6046
 30 
0.0
 0 
VERTEX
 8 
1
 10 
0.79938
 20 
0.59802
 30 
0.0
 0 
VERTEX
 8 
1
 10 
0.83539
 20 
0.59012
 30 
0.0
 0 
VERTEX
 8 
1
 10 
0.86862
 20 
0.5811
 30 
0.0
 0 
VERTEX
 8 
1
 10 
0.89871
 20 
0.57121
 30 
0.0
 0 
VERTEX
 8 
1
 10 
0.92535
 20 
0.56068
 30 
0.0
 0 
VERTEX
 8 
1
 10 
0.94823
 20 
0.54972
 30 
0.0
 0 
VERTEX
 8 
1
 10 
0.96711
 20 
0.53855
 30 
0.0
 0 
VERTEX
 8 
1
 10 
0.98185
 20 
0.52742
 30 
0.0
 0 
VERTEX
 8 
1
 10 
0.99234
 20 
0.51668
 30 
0.0
 0 
VERTEX
 8 
1
 10 
0.996
 20 
0.5115
 30 
0.0
 0 
VERTEX
 8 
1
 10 
0.99884
 20 
0.50578
 30 
0.0
 0 
VERTEX
 8 
1
 10 
0.99981
 20 
0.50233
 30 
0.0
 0 
VERTEX
 8 
1
 10 
0.99927
 20 
0.49732
 30 
0.0
 0 
VERTEX
 8 
1
 10 
0.99787
 20 
0.49532
 30 
0.0
 0 
VERTEX
 8 
1
 10 
0.99515
 20 
0.49258
 30 
0.0
 0 
VERTEX
 8 
1
 10 
0.98942
 20 
0.48844
 30 
0.0
 0 
VERTEX
 8 
1
 10 
0.98333
 20 
0.48512
 30 
0.0
 0 
VERTEX
 8 
1
 10 
0.96711
 20 
0.47872
 30 
0.0
 0 
VERTEX
 8 
1
 10 
0.94597
 20 
0.47289
 30 
0.0
 0 
VERTEX
 8 
1
 10 
0.92011
 20 
0.46777
 30 
0.0
 0 
VERTEX
 8 
1
 10 
0.88978
 20 
0.46336
 30 
0.0
 0 
VERTEX
 8 
1
 10 
0.85542
 20 
0.45967
 30 
0.0
 0 
VERTEX
 8 
1
 10 
0.81747
 20 
0.45682
 30 
0.0
 0 
VERTEX
 8 
1
 10 
0.77642
 20 
0.45491
 30 
0.0
 0 
VERTEX
 8 
1
 10 
0.73279
 20 
0.45417
 30 
0.0
 0 
VERTEX
 8 
1
 10 
0.68691
 20 
0.45491
 30 
0.0
 0 
VERTEX
 8 
1
 10 
0.63897
 20 
0.45729
 30 
0.0
 0 
VERTEX
 8 
1
 10 
0.58909
 20 
0.46137
 30 
0.0
 0 
VERTEX
 8 
1
 10 
0.53724
 20 
0.46688
 30 
0.0
 0 
VERTEX
 8 
1
 10 
0.48371
 20 
0.47312
 30 
0.0
 0 
VERTEX
 8 
1
 10 
0.42921
 20 
0.47953
 30 
0.0
 0 
VERTEX
 8 
1
 10 
0.37455
 20 
0.48569
 30 
0.0
 0 
VERTEX
 8 
1
 10 
0.32055
 20 
0.49125
 30 
0.0
 0 
VERTEX
 8 
1
 10 
0.2681
 20 
0.49596
 30 
0.0
 0 
VERTEX
 8 
1
 10 
0.21811
 20 
0.49964
 30 
0.0
 0 
VERTEX
 8 
1
 10 
0.17145
 20 
0.50219
 30 
0.0
 0 
VERTEX
 8 
1
 10 
0.12898
 20 
0.50363
 30 
0.0
 0 
VERTEX
 8 
1
 10 
0.09153
 20 
0.50405
 30 
0.0
 0 
VERTEX
 8 
1
 10 
0.0598
 20 
0.50368
 30 
0.0
 0 
VERTEX
 8 
1
 10 
0.03434
 20 
0.50282
 30 
0.0
 0 
VERTEX
 8 
1
 10 
0.01555
 20 
0.50169
 30 
0.0
 0 
VERTEX
 8 
1
 10 
0.0039400
 20 
0.50053
 30 
0.0
 0 
VERTEX
 8 
1
 10 
0.0
 20 
0.5
 30 
0.0
 0 
SEQEND
 8 
1
 0 
ENDSEC
 0 
EOF
