 0 
SECTION
 2 
ENTITIES
 0 
POLYLINE
 8 
1
 66 
 1 
 10 
0.0
 20 
0.0
 30 
0.0
 0 
VERTEX
 8 
1
 10 
0.0
 20 
0.5
 30 
0.0
 0 
VERTEX
 8 
1
 10 
0.00090000
 20 
0.50006
 30 
0.0
 0 
VERTEX
 8 
1
 10 
0.0035399
 20 
0.50034
 30 
0.0
 0 
VERTEX
 8 
1
 10 
0.0077500
 20 
0.50093
 30 
0.0
 0 
VERTEX
 8 
1
 10 
0.01337
 20 
0.50183
 30 
0.0
 0 
VERTEX
 8 
1
 10 
0.02024
 20 
0.50295
 30 
0.0
 0 
VERTEX
 8 
1
 10 
0.028309
 20 
0.50415
 30 
0.0
 0 
VERTEX
 8 
1
 10 
0.03762
 20 
0.50532
 30 
0.0
 0 
VERTEX
 8 
1
 10 
0.04826
 20 
0.50645
 30 
0.0
 0 
VERTEX
 8 
1
 10 
0.060220
 20 
0.50759
 30 
0.0
 0 
VERTEX
 8 
1
 10 
0.07348
 20 
0.50876
 30 
0.0
 0 
VERTEX
 8 
1
 10 
0.087979
 20 
0.50999
 30 
0.0
 0 
VERTEX
 8 
1
 10 
0.10367
 20 
0.51127
 30 
0.0
 0 
VERTEX
 8 
1
 10 
0.12052
 20 
0.51261
 30 
0.0
 0 
VERTEX
 8 
1
 10 
0.13845
 20 
0.51402
 30 
0.0
 0 
VERTEX
 8 
1
 10 
0.15741
 20 
0.51549
 30 
0.0
 0 
VERTEX
 8 
1
 10 
0.17735
 20 
0.51703
 30 
0.0
 0 
VERTEX
 8 
1
 10 
0.19818
 20 
0.51863
 30 
0.0
 0 
VERTEX
 8 
1
 10 
0.21986
 20 
0.52028
 30 
0.0
 0 
VERTEX
 8 
1
 10 
0.2423
 20 
0.522
 30 
0.0
 0 
VERTEX
 8 
1
 10 
0.26543
 20 
0.52376
 30 
0.0
 0 
VERTEX
 8 
1
 10 
0.28918
 20 
0.52556
 30 
0.0
 0 
VERTEX
 8 
1
 10 
0.31346
 20 
0.52739
 30 
0.0
 0 
VERTEX
 8 
1
 10 
0.33822
 20 
0.52924
 30 
0.0
 0 
VERTEX
 8 
1
 10 
0.36336
 20 
0.5311
 30 
0.0
 0 
VERTEX
 8 
1
 10 
0.3888
 20 
0.53296
 30 
0.0
 0 
VERTEX
 8 
1
 10 
0.41447
 20 
0.53481
 30 
0.0
 0 
VERTEX
 8 
1
 10 
0.44029
 20 
0.53662
 30 
0.0
 0 
VERTEX
 8 
1
 10 
0.46618
 20 
0.53838
 30 
0.0
 0 
VERTEX
 8 
1
 10 
0.49205
 20 
0.54008
 30 
0.0
 0 
VERTEX
 8 
1
 10 
0.51783
 20 
0.54169
 30 
0.0
 0 
VERTEX
 8 
1
 10 
0.54345
 20 
0.5432
 30 
0.0
 0 
VERTEX
 8 
1
 10 
0.56882
 20 
0.54458
 30 
0.0
 0 
VERTEX
 8 
1
 10 
0.59388
 20 
0.54581
 30 
0.0
 0 
VERTEX
 8 
1
 10 
0.61855
 20 
0.54687
 30 
0.0
 0 
VERTEX
 8 
1
 10 
0.64277
 20 
0.54773
 30 
0.0
 0 
VERTEX
 8 
1
 10 
0.66646
 20 
0.54836
 30 
0.0
 0 
VERTEX
 8 
1
 10 
0.68956
 20 
0.54873
 30 
0.0
 0 
VERTEX
 8 
1
 10 
0.71201
 20 
0.54877
 30 
0.0
 0 
VERTEX
 8 
1
 10 
0.73382
 20 
0.54839
 30 
0.0
 0 
VERTEX
 8 
1
 10 
0.75506
 20 
0.5476
 30 
0.0
 0 
VERTEX
 8 
1
 10 
0.77574
 20 
0.54647
 30 
0.0
 0 
VERTEX
 8 
1
 10 
0.7958
 20 
0.54508
 30 
0.0
 0 
VERTEX
 8 
1
 10 
0.8152
 20 
0.54345
 30 
0.0
 0 
VERTEX
 8 
1
 10 
0.83387
 20 
0.54161
 30 
0.0
 0 
VERTEX
 8 
1
 10 
0.85178
 20 
0.53958
 30 
0.0
 0 
VERTEX
 8 
1
 10 
0.86886
 20 
0.53738
 30 
0.0
 0 
VERTEX
 8 
1
 10 
0.88507
 20 
0.53504
 30 
0.0
 0 
VERTEX
 8 
1
 10 
0.90038
 20 
0.53257
 30 
0.0
 0 
VERTEX
 8 
1
 10 
0.91473
 20 
0.52999
 30 
0.0
 0 
VERTEX
 8 
1
 10 
0.92809
 20 
0.52733
 30 
0.0
 0 
VERTEX
 8 
1
 10 
0.94042
 20 
0.5246
 30 
0.0
 0 
VERTEX
 8 
1
 10 
0.95169
 20 
0.52182
 30 
0.0
 0 
VERTEX
 8 
1
 10 
0.96186
 20 
0.51901
 30 
0.0
 0 
VERTEX
 8 
1
 10 
0.9709
 20 
0.5162
 30 
0.0
 0 
VERTEX
 8 
1
 10 
0.97879
 20 
0.51342
 30 
0.0
 0 
VERTEX
 8 
1
 10 
0.9855
 20 
0.51069
 30 
0.0
 0 
VERTEX
 8 
1
 10 
0.991
 20 
0.50803
 30 
0.0
 0 
VERTEX
 8 
1
 10 
0.99524
 20 
0.5055
 30 
0.0
 0 
VERTEX
 8 
1
 10 
0.9982
 20 
0.50311
 30 
0.0
 0 
VERTEX
 8 
1
 10 
0.99981
 20 
0.50097
 30 
0.0
 0 
VERTEX
 8 
1
 10 
0.99977
 20 
0.49898
 30 
0.0
 0 
VERTEX
 8 
1
 10 
0.99809
 20 
0.49685
 30 
0.0
 0 
VERTEX
 8 
1
 10 
0.9951
 20 
0.49453
 30 
0.0
 0 
VERTEX
 8 
1
 10 
0.99084
 20 
0.49211
 30 
0.0
 0 
VERTEX
 8 
1
 10 
0.98535
 20 
0.48962
 30 
0.0
 0 
VERTEX
 8 
1
 10 
0.97869
 20 
0.48712
 30 
0.0
 0 
VERTEX
 8 
1
 10 
0.97087
 20 
0.48465
 30 
0.0
 0 
VERTEX
 8 
1
 10 
0.96193
 20 
0.48223
 30 
0.0
 0 
VERTEX
 8 
1
 10 
0.95189
 20 
0.47991
 30 
0.0
 0 
VERTEX
 8 
1
 10 
0.9408
 20 
0.47774
 30 
0.0
 0 
VERTEX
 8 
1
 10 
0.92867
 20 
0.47575
 30 
0.0
 0 
VERTEX
 8 
1
 10 
0.91553
 20 
0.47404
 30 
0.0
 0 
VERTEX
 8 
1
 10 
0.9013
 20 
0.47268
 30 
0.0
 0 
VERTEX
 8 
1
 10 
0.88591
 20 
0.47158
 30 
0.0
 0 
VERTEX
 8 
1
 10 
0.86942
 20 
0.47071
 30 
0.0
 0 
VERTEX
 8 
1
 10 
0.85186
 20 
0.47004
 30 
0.0
 0 
VERTEX
 8 
1
 10 
0.83328
 20 
0.46955
 30 
0.0
 0 
VERTEX
 8 
1
 10 
0.81373
 20 
0.46924
 30 
0.0
 0 
VERTEX
 8 
1
 10 
0.79325
 20 
0.46909
 30 
0.0
 0 
VERTEX
 8 
1
 10 
0.77191
 20 
0.4691
 30 
0.0
 0 
VERTEX
 8 
1
 10 
0.74975
 20 
0.46924
 30 
0.0
 0 
VERTEX
 8 
1
 10 
0.72684
 20 
0.46951
 30 
0.0
 0 
VERTEX
 8 
1
 10 
0.70324
 20 
0.4699
 30 
0.0
 0 
VERTEX
 8 
1
 10 
0.67902
 20 
0.47039
 30 
0.0
 0 
VERTEX
 8 
1
 10 
0.65424
 20 
0.47098
 30 
0.0
 0 
VERTEX
 8 
1
 10 
0.62898
 20 
0.47166
 30 
0.0
 0 
VERTEX
 8 
1
 10 
0.6033
 20 
0.47241
 30 
0.0
 0 
VERTEX
 8 
1
 10 
0.57728
 20 
0.47322
 30 
0.0
 0 
VERTEX
 8 
1
 10 
0.55099
 20 
0.47408
 30 
0.0
 0 
VERTEX
 8 
1
 10 
0.52452
 20 
0.475
 30 
0.0
 0 
VERTEX
 8 
1
 10 
0.49794
 20 
0.47594
 30 
0.0
 0 
VERTEX
 8 
1
 10 
0.47133
 20 
0.47692
 30 
0.0
 0 
VERTEX
 8 
1
 10 
0.44476
 20 
0.47792
 30 
0.0
 0 
VERTEX
 8 
1
 10 
0.41832
 20 
0.47892
 30 
0.0
 0 
VERTEX
 8 
1
 10 
0.39208
 20 
0.47994
 30 
0.0
 0 
VERTEX
 8 
1
 10 
0.36613
 20 
0.48095
 30 
0.0
 0 
VERTEX
 8 
1
 10 
0.34053
 20 
0.48196
 30 
0.0
 0 
VERTEX
 8 
1
 10 
0.31358
 20 
0.48296
 30 
0.0
 0 
VERTEX
 8 
1
 10 
0.29074
 20 
0.48394
 30 
0.0
 0 
VERTEX
 8 
1
 10 
0.26669
 20 
0.48491
 30 
0.0
 0 
VERTEX
 8 
1
 10 
0.24331
 20 
0.48585
 30 
0.0
 0 
VERTEX
 8 
1
 10 
0.22066
 20 
0.48677
 30 
0.0
 0 
VERTEX
 8 
1
 10 
0.19881
 20 
0.48767
 30 
0.0
 0 
VERTEX
 8 
1
 10 
0.17783
 20 
0.48855
 30 
0.0
 0 
VERTEX
 8 
1
 10 
0.15778
 20 
0.4894
 30 
0.0
 0 
VERTEX
 8 
1
 10 
0.13873
 20 
0.49023
 30 
0.0
 0 
VERTEX
 8 
1
 10 
0.12073
 20 
0.49103
 30 
0.0
 0 
VERTEX
 8 
1
 10 
0.10384
 20 
0.49182
 30 
0.0
 0 
VERTEX
 8 
1
 10 
0.08811
 20 
0.4926
 30 
0.0
 0 
VERTEX
 8 
1
 10 
0.07358
 20 
0.49337
 30 
0.0
 0 
VERTEX
 8 
1
 10 
0.06031
 20 
0.49413
 30 
0.0
 0 
VERTEX
 8 
1
 10 
0.048340
 20 
0.49491
 30 
0.0
 0 
VERTEX
 8 
1
 10 
0.03769
 20 
0.49572
 30 
0.0
 0 
VERTEX
 8 
1
 10 
0.02837
 20 
0.49662
 30 
0.0
 0 
VERTEX
 8 
1
 10 
0.02028
 20 
0.4976
 30 
0.0
 0 
VERTEX
 8 
1
 10 
0.01339
 20 
0.49853
 30 
0.0
 0 
VERTEX
 8 
1
 10 
0.0077700
 20 
0.49928
 30 
0.0
 0 
VERTEX
 8 
1
 10 
0.0035399
 20 
0.49975
 30 
0.0
 0 
VERTEX
 8 
1
 10 
0.0
 20 
0.5
 30 
0.0
 0 
SEQEND
 8 
1
 0 
ENDSEC
 0 
EOF
