 0 
SECTION
 2 
ENTITIES
 0 
POLYLINE
 8 
1
 66 
 1 
 10 
0.0
 20 
0.0
 30 
0.0
 0 
VERTEX
 8 
1
 10 
0.0
 20 
0.5
 30 
0.0
 0 
VERTEX
 8 
1
 10 
0.00099000
 20 
0.50004
 30 
0.0
 0 
VERTEX
 8 
1
 10 
0.0039400
 20 
0.50018
 30 
0.0
 0 
VERTEX
 8 
1
 10 
0.0088599
 20 
0.50046
 30 
0.0
 0 
VERTEX
 8 
1
 10 
0.01571
 20 
0.50092
 30 
0.0
 0 
VERTEX
 8 
1
 10 
0.02447
 20 
0.50158
 30 
0.0
 0 
VERTEX
 8 
1
 10 
0.03511
 20 
0.50243
 30 
0.0
 0 
VERTEX
 8 
1
 10 
0.04759
 20 
0.50345
 30 
0.0
 0 
VERTEX
 8 
1
 10 
0.06185
 20 
0.50463
 30 
0.0
 0 
VERTEX
 8 
1
 10 
0.07784
 20 
0.50597
 30 
0.0
 0 
VERTEX
 8 
1
 10 
0.09549
 20 
0.50748
 30 
0.0
 0 
VERTEX
 8 
1
 10 
0.11474
 20 
0.50916
 30 
0.0
 0 
VERTEX
 8 
1
 10 
0.13552
 20 
0.511
 30 
0.0
 0 
VERTEX
 8 
1
 10 
0.15773
 20 
0.51297
 30 
0.0
 0 
VERTEX
 8 
1
 10 
0.18129
 20 
0.51505
 30 
0.0
 0 
VERTEX
 8 
1
 10 
0.20611
 20 
0.51724
 30 
0.0
 0 
VERTEX
 8 
1
 10 
0.25912
 20 
0.52181
 30 
0.0
 0 
VERTEX
 8 
1
 10 
0.28711
 20 
0.52415
 30 
0.0
 0 
VERTEX
 8 
1
 10 
0.31594
 20 
0.52648
 30 
0.0
 0 
VERTEX
 8 
1
 10 
0.34549
 20 
0.52879
 30 
0.0
 0 
VERTEX
 8 
1
 10 
0.37565
 20 
0.53104
 30 
0.0
 0 
VERTEX
 8 
1
 10 
0.40631
 20 
0.5332
 30 
0.0
 0 
VERTEX
 8 
1
 10 
0.43733
 20 
0.53526
 30 
0.0
 0 
VERTEX
 8 
1
 10 
0.46861
 20 
0.53716
 30 
0.0
 0 
VERTEX
 8 
1
 10 
0.5
 20 
0.53895
 30 
0.0
 0 
VERTEX
 8 
1
 10 
0.53139
 20 
0.54054
 30 
0.0
 0 
VERTEX
 8 
1
 10 
0.56267
 20 
0.54191
 30 
0.0
 0 
VERTEX
 8 
1
 10 
0.59369
 20 
0.54306
 30 
0.0
 0 
VERTEX
 8 
1
 10 
0.62435
 20 
0.54396
 30 
0.0
 0 
VERTEX
 8 
1
 10 
0.65451
 20 
0.5446
 30 
0.0
 0 
VERTEX
 8 
1
 10 
0.68406
 20 
0.54495
 30 
0.0
 0 
VERTEX
 8 
1
 10 
0.71289
 20 
0.545
 30 
0.0
 0 
VERTEX
 8 
1
 10 
0.74088
 20 
0.54474
 30 
0.0
 0 
VERTEX
 8 
1
 10 
0.76791
 20 
0.54415
 30 
0.0
 0 
VERTEX
 8 
1
 10 
0.79389
 20 
0.54323
 30 
0.0
 0 
VERTEX
 8 
1
 10 
0.81871
 20 
0.54198
 30 
0.0
 0 
VERTEX
 8 
1
 10 
0.84227
 20 
0.54039
 30 
0.0
 0 
VERTEX
 8 
1
 10 
0.86448
 20 
0.53847
 30 
0.0
 0 
VERTEX
 8 
1
 10 
0.88526
 20 
0.53624
 30 
0.0
 0 
VERTEX
 8 
1
 10 
0.90451
 20 
0.5337
 30 
0.0
 0 
VERTEX
 8 
1
 10 
0.92216
 20 
0.53087
 30 
0.0
 0 
VERTEX
 8 
1
 10 
0.93815
 20 
0.52778
 30 
0.0
 0 
VERTEX
 8 
1
 10 
0.95241
 20 
0.52445
 30 
0.0
 0 
VERTEX
 8 
1
 10 
0.96489
 20 
0.52094
 30 
0.0
 0 
VERTEX
 8 
1
 10 
0.97553
 20 
0.51726
 30 
0.0
 0 
VERTEX
 8 
1
 10 
0.98429
 20 
0.5135
 30 
0.0
 0 
VERTEX
 8 
1
 10 
0.99114
 20 
0.50984
 30 
0.0
 0 
VERTEX
 8 
1
 10 
0.99606
 20 
0.50623
 30 
0.0
 0 
VERTEX
 8 
1
 10 
0.99901
 20 
0.50289
 30 
0.0
 0 
VERTEX
 8 
1
 10 
1
 20 
0.5
 30 
0.0
 0 
VERTEX
 8 
1
 10 
0.99901
 20 
0.49711
 30 
0.0
 0 
VERTEX
 8 
1
 10 
0.99606
 20 
0.49377
 30 
0.0
 0 
VERTEX
 8 
1
 10 
0.99114
 20 
0.49016
 30 
0.0
 0 
VERTEX
 8 
1
 10 
0.98429
 20 
0.4865
 30 
0.0
 0 
VERTEX
 8 
1
 10 
0.97553
 20 
0.48274
 30 
0.0
 0 
VERTEX
 8 
1
 10 
0.96489
 20 
0.47906
 30 
0.0
 0 
VERTEX
 8 
1
 10 
0.95241
 20 
0.47555
 30 
0.0
 0 
VERTEX
 8 
1
 10 
0.93815
 20 
0.47222
 30 
0.0
 0 
VERTEX
 8 
1
 10 
0.92216
 20 
0.46913
 30 
0.0
 0 
VERTEX
 8 
1
 10 
0.90451
 20 
0.4663
 30 
0.0
 0 
VERTEX
 8 
1
 10 
0.88526
 20 
0.46376
 30 
0.0
 0 
VERTEX
 8 
1
 10 
0.86448
 20 
0.46153
 30 
0.0
 0 
VERTEX
 8 
1
 10 
0.84227
 20 
0.45961
 30 
0.0
 0 
VERTEX
 8 
1
 10 
0.81871
 20 
0.45802
 30 
0.0
 0 
VERTEX
 8 
1
 10 
0.79389
 20 
0.45677
 30 
0.0
 0 
VERTEX
 8 
1
 10 
0.76791
 20 
0.45585
 30 
0.0
 0 
VERTEX
 8 
1
 10 
0.74088
 20 
0.45526
 30 
0.0
 0 
VERTEX
 8 
1
 10 
0.71289
 20 
0.455
 30 
0.0
 0 
VERTEX
 8 
1
 10 
0.68406
 20 
0.45505
 30 
0.0
 0 
VERTEX
 8 
1
 10 
0.65451
 20 
0.4554
 30 
0.0
 0 
VERTEX
 8 
1
 10 
0.62435
 20 
0.45604
 30 
0.0
 0 
VERTEX
 8 
1
 10 
0.59369
 20 
0.45694
 30 
0.0
 0 
VERTEX
 8 
1
 10 
0.56267
 20 
0.45809
 30 
0.0
 0 
VERTEX
 8 
1
 10 
0.53139
 20 
0.45946
 30 
0.0
 0 
VERTEX
 8 
1
 10 
0.5
 20 
0.46105
 30 
0.0
 0 
VERTEX
 8 
1
 10 
0.46861
 20 
0.46284
 30 
0.0
 0 
VERTEX
 8 
1
 10 
0.43733
 20 
0.46474
 30 
0.0
 0 
VERTEX
 8 
1
 10 
0.40631
 20 
0.4668
 30 
0.0
 0 
VERTEX
 8 
1
 10 
0.37565
 20 
0.46896
 30 
0.0
 0 
VERTEX
 8 
1
 10 
0.34549
 20 
0.47121
 30 
0.0
 0 
VERTEX
 8 
1
 10 
0.31594
 20 
0.47352
 30 
0.0
 0 
VERTEX
 8 
1
 10 
0.28711
 20 
0.47585
 30 
0.0
 0 
VERTEX
 8 
1
 10 
0.25912
 20 
0.47819
 30 
0.0
 0 
VERTEX
 8 
1
 10 
0.23209
 20 
0.4805
 30 
0.0
 0 
VERTEX
 8 
1
 10 
0.20611
 20 
0.48276
 30 
0.0
 0 
VERTEX
 8 
1
 10 
0.18129
 20 
0.48495
 30 
0.0
 0 
VERTEX
 8 
1
 10 
0.15773
 20 
0.48703
 30 
0.0
 0 
VERTEX
 8 
1
 10 
0.13552
 20 
0.489
 30 
0.0
 0 
VERTEX
 8 
1
 10 
0.11474
 20 
0.49084
 30 
0.0
 0 
VERTEX
 8 
1
 10 
0.09549
 20 
0.49252
 30 
0.0
 0 
VERTEX
 8 
1
 10 
0.07784
 20 
0.49403
 30 
0.0
 0 
VERTEX
 8 
1
 10 
0.06185
 20 
0.49537
 30 
0.0
 0 
VERTEX
 8 
1
 10 
0.04759
 20 
0.49655
 30 
0.0
 0 
VERTEX
 8 
1
 10 
0.03511
 20 
0.49757
 30 
0.0
 0 
VERTEX
 8 
1
 10 
0.02447
 20 
0.49842
 30 
0.0
 0 
VERTEX
 8 
1
 10 
0.01571
 20 
0.49908
 30 
0.0
 0 
VERTEX
 8 
1
 10 
0.0088599
 20 
0.49954
 30 
0.0
 0 
VERTEX
 8 
1
 10 
0.0039400
 20 
0.49982
 30 
0.0
 0 
VERTEX
 8 
1
 10 
0.00099000
 20 
0.49996
 30 
0.0
 0 
VERTEX
 8 
1
 10 
0.0
 20 
0.5
 30 
0.0
 0 
SEQEND
 8 
1
 0 
ENDSEC
 0 
EOF
