 0 
SECTION
 2 
ENTITIES
 0 
POLYLINE
 8 
1
 66 
 1 
 10 
0.0
 20 
0.0
 30 
0.0
 0 
VERTEX
 8 
1
 10 
0.0
 20 
0.5
 30 
0.0
 0 
VERTEX
 8 
1
 10 
0.0039430
 20 
0.500191
 30 
0.0
 0 
VERTEX
 8 
1
 10 
0.0088559
 20 
0.500472
 30 
0.0
 0 
VERTEX
 8 
1
 10 
0.015708
 20 
0.500925
 30 
0.0
 0 
VERTEX
 8 
1
 10 
0.024472
 20 
0.501571
 30 
0.0
 0 
VERTEX
 8 
1
 10 
0.035112
 20 
0.502411
 30 
0.0
 0 
VERTEX
 8 
1
 10 
0.047586
 20 
0.503435
 30 
0.0
 0 
VERTEX
 8 
1
 10 
0.061847
 20 
0.504636
 30 
0.0
 0 
VERTEX
 8 
1
 10 
0.077836
 20 
0.506015
 30 
0.0
 0 
VERTEX
 8 
1
 10 
0.095492
 20 
0.507579
 30 
0.0
 0 
VERTEX
 8 
1
 10 
0.114743
 20 
0.509335
 30 
0.0
 0 
VERTEX
 8 
1
 10 
0.135516
 20 
0.511283
 30 
0.0
 0 
VERTEX
 8 
1
 10 
0.157726
 20 
0.513418
 30 
0.0
 0 
VERTEX
 8 
1
 10 
0.181288
 20 
0.515731
 30 
0.0
 0 
VERTEX
 8 
1
 10 
0.206107
 20 
0.518213
 30 
0.0
 0 
VERTEX
 8 
1
 10 
0.232087
 20 
0.520851
 30 
0.0
 0 
VERTEX
 8 
1
 10 
0.259123
 20 
0.52363
 30 
0.0
 0 
VERTEX
 8 
1
 10 
0.28711
 20 
0.526531
 30 
0.0
 0 
VERTEX
 8 
1
 10 
0.315938
 20 
0.529532
 30 
0.0
 0 
VERTEX
 8 
1
 10 
0.345492
 20 
0.532604
 30 
0.0
 0 
VERTEX
 8 
1
 10 
0.375655
 20 
0.535718
 30 
0.0
 0 
VERTEX
 8 
1
 10 
0.406309
 20 
0.538838
 30 
0.0
 0 
VERTEX
 8 
1
 10 
0.437333
 20 
0.541923
 30 
0.0
 0 
VERTEX
 8 
1
 10 
0.468605
 20 
0.544927
 30 
0.0
 0 
VERTEX
 8 
1
 10 
0.5
 20 
0.5478
 30 
0.0
 0 
VERTEX
 8 
1
 10 
0.531395
 20 
0.55049
 30 
0.0
 0 
VERTEX
 8 
1
 10 
0.562667
 20 
0.552941
 30 
0.0
 0 
VERTEX
 8 
1
 10 
0.593691
 20 
0.555097
 30 
0.0
 0 
VERTEX
 8 
1
 10 
0.624345
 20 
0.556905
 30 
0.0
 0 
VERTEX
 8 
1
 10 
0.654508
 20 
0.55831
 30 
0.0
 0 
VERTEX
 8 
1
 10 
0.684062
 20 
0.559263
 30 
0.0
 0 
VERTEX
 8 
1
 10 
0.71289
 20 
0.55972
 30 
0.0
 0 
VERTEX
 8 
1
 10 
0.740877
 20 
0.559647
 30 
0.0
 0 
VERTEX
 8 
1
 10 
0.767913
 20 
0.559018
 30 
0.0
 0 
VERTEX
 8 
1
 10 
0.793893
 20 
0.557819
 30 
0.0
 0 
VERTEX
 8 
1
 10 
0.818712
 20 
0.556048
 30 
0.0
 0 
VERTEX
 8 
1
 10 
0.842274
 20 
0.553717
 30 
0.0
 0 
VERTEX
 8 
1
 10 
0.864484
 20 
0.550852
 30 
0.0
 0 
VERTEX
 8 
1
 10 
0.885257
 20 
0.547492
 30 
0.0
 0 
VERTEX
 8 
1
 10 
0.904508
 20 
0.543686
 30 
0.0
 0 
VERTEX
 8 
1
 10 
0.922164
 20 
0.539496
 30 
0.0
 0 
VERTEX
 8 
1
 10 
0.938153
 20 
0.534996
 30 
0.0
 0 
VERTEX
 8 
1
 10 
0.952414
 20 
0.530265
 30 
0.0
 0 
VERTEX
 8 
1
 10 
0.964888
 20 
0.525388
 30 
0.0
 0 
VERTEX
 8 
1
 10 
0.975528
 20 
0.520461
 30 
0.0
 0 
VERTEX
 8 
1
 10 
0.984292
 20 
0.515616
 30 
0.0
 0 
VERTEX
 8 
1
 10 
0.991144
 20 
0.511023
 30 
0.0
 0 
VERTEX
 8 
1
 10 
0.996057
 20 
0.506855
 30 
0.0
 0 
VERTEX
 8 
1
 10 
0.999013
 20 
0.503199
 30 
0.0
 0 
VERTEX
 8 
1
 10 
1
 20 
0.5
 30 
0.0
 0 
VERTEX
 8 
1
 10 
0.999013
 20 
0.49708
 30 
0.0
 0 
VERTEX
 8 
1
 10 
0.996057
 20 
0.494251
 30 
0.0
 0 
VERTEX
 8 
1
 10 
0.991144
 20 
0.491421
 30 
0.0
 0 
VERTEX
 8 
1
 10 
0.984292
 20 
0.48863
 30 
0.0
 0 
VERTEX
 8 
1
 10 
0.975528
 20 
0.485979
 30 
0.0
 0 
VERTEX
 8 
1
 10 
0.964888
 20 
0.483554
 30 
0.0
 0 
VERTEX
 8 
1
 10 
0.952414
 20 
0.48139
 30 
0.0
 0 
VERTEX
 8 
1
 10 
0.938153
 20 
0.479481
 30 
0.0
 0 
VERTEX
 8 
1
 10 
0.922164
 20 
0.477809
 30 
0.0
 0 
VERTEX
 8 
1
 10 
0.904508
 20 
0.476349
 30 
0.0
 0 
VERTEX
 8 
1
 10 
0.885257
 20 
0.475079
 30 
0.0
 0 
VERTEX
 8 
1
 10 
0.864484
 20 
0.473973
 30 
0.0
 0 
VERTEX
 8 
1
 10 
0.842274
 20 
0.473008
 30 
0.0
 0 
VERTEX
 8 
1
 10 
0.818712
 20 
0.472165
 30 
0.0
 0 
VERTEX
 8 
1
 10 
0.793893
 20 
0.471429
 30 
0.0
 0 
VERTEX
 8 
1
 10 
0.767913
 20 
0.470789
 30 
0.0
 0 
VERTEX
 8 
1
 10 
0.740877
 20 
0.470243
 30 
0.0
 0 
VERTEX
 8 
1
 10 
0.71289
 20 
0.46979
 30 
0.0
 0 
VERTEX
 8 
1
 10 
0.684062
 20 
0.469433
 30 
0.0
 0 
VERTEX
 8 
1
 10 
0.654508
 20 
0.46918
 30 
0.0
 0 
VERTEX
 8 
1
 10 
0.624345
 20 
0.469043
 30 
0.0
 0 
VERTEX
 8 
1
 10 
0.593691
 20 
0.469037
 30 
0.0
 0 
VERTEX
 8 
1
 10 
0.562667
 20 
0.469176
 30 
0.0
 0 
VERTEX
 8 
1
 10 
0.531395
 20 
0.469476
 30 
0.0
 0 
VERTEX
 8 
1
 10 
0.5
 20 
0.46995
 30 
0.0
 0 
VERTEX
 8 
1
 10 
0.468605
 20 
0.470605
 30 
0.0
 0 
VERTEX
 8 
1
 10 
0.437333
 20 
0.471448
 30 
0.0
 0 
VERTEX
 8 
1
 10 
0.406309
 20 
0.472477
 30 
0.0
 0 
VERTEX
 8 
1
 10 
0.375655
 20 
0.473687
 30 
0.0
 0 
VERTEX
 8 
1
 10 
0.345492
 20 
0.475067
 30 
0.0
 0 
VERTEX
 8 
1
 10 
0.315938
 20 
0.476599
 30 
0.0
 0 
VERTEX
 8 
1
 10 
0.28711
 20 
0.478264
 30 
0.0
 0 
VERTEX
 8 
1
 10 
0.259123
 20 
0.480032
 30 
0.0
 0 
VERTEX
 8 
1
 10 
0.232087
 20 
0.481875
 30 
0.0
 0 
VERTEX
 8 
1
 10 
0.206107
 20 
0.483759
 30 
0.0
 0 
VERTEX
 8 
1
 10 
0.181288
 20 
0.48565
 30 
0.0
 0 
VERTEX
 8 
1
 10 
0.157726
 20 
0.487516
 30 
0.0
 0 
VERTEX
 8 
1
 10 
0.135516
 20 
0.489322
 30 
0.0
 0 
VERTEX
 8 
1
 10 
0.114743
 20 
0.491039
 30 
0.0
 0 
VERTEX
 8 
1
 10 
0.095492
 20 
0.492639
 30 
0.0
 0 
VERTEX
 8 
1
 10 
0.077836
 20 
0.494103
 30 
0.0
 0 
VERTEX
 8 
1
 10 
0.061847
 20 
0.495422
 30 
0.0
 0 
VERTEX
 8 
1
 10 
0.047586
 20 
0.49659
 30 
0.0
 0 
VERTEX
 8 
1
 10 
0.035112
 20 
0.497598
 30 
0.0
 0 
VERTEX
 8 
1
 10 
0.024472
 20 
0.498431
 30 
0.0
 0 
VERTEX
 8 
1
 10 
0.015708
 20 
0.499075
 30 
0.0
 0 
VERTEX
 8 
1
 10 
0.0088559
 20 
0.499527
 30 
0.0
 0 
VERTEX
 8 
1
 10 
0.0039430
 20 
0.499809
 30 
0.0
 0 
VERTEX
 8 
1
 10 
0.0
 20 
0.5
 30 
0.0
 0 
SEQEND
 8 
1
 0 
ENDSEC
 0 
EOF
