 0 
SECTION
 2 
ENTITIES
 0 
POLYLINE
 8 
1
 66 
 1 
 10 
0.0
 20 
0.0
 30 
0.0
 0 
VERTEX
 8 
1
 10 
0.0
 20 
0.5
 30 
0.0
 0 
VERTEX
 8 
1
 10 
0.0998
 20 
0.50706
 30 
0.0
 0 
VERTEX
 8 
1
 10 
0.19957
 20 
0.51572
 30 
0.0
 0 
VERTEX
 8 
1
 10 
0.29929
 20 
0.52797
 30 
0.0
 0 
VERTEX
 8 
1
 10 
0.39896
 20 
0.54372
 30 
0.0
 0 
VERTEX
 8 
1
 10 
0.49856
 20 
0.56436
 30 
0.0
 0 
VERTEX
 8 
1
 10 
0.59821
 20 
0.58121
 30 
0.0
 0 
VERTEX
 8 
1
 10 
0.69794
 20 
0.59277
 30 
0.0
 0 
VERTEX
 8 
1
 10 
0.74785
 20 
0.5953
 30 
0.0
 0 
VERTEX
 8 
1
 10 
0.79782
 20 
0.59423
 30 
0.0
 0 
VERTEX
 8 
1
 10 
0.84785
 20 
0.58847
 30 
0.0
 0 
VERTEX
 8 
1
 10 
0.89797
 20 
0.57702
 30 
0.0
 0 
VERTEX
 8 
1
 10 
0.92306
 20 
0.5689
 30 
0.0
 0 
VERTEX
 8 
1
 10 
0.9482
 20 
0.55798
 30 
0.0
 0 
VERTEX
 8 
1
 10 
0.9734
 20 
0.54257
 30 
0.0
 0 
VERTEX
 8 
1
 10 
0.98605
 20 
0.53146
 30 
0.0
 0 
VERTEX
 8 
1
 10 
0.99889
 20 
0.50738
 30 
0.0
 0 
VERTEX
 8 
1
 10 
1
 20 
0.5
 30 
0.0
 0 
VERTEX
 8 
1
 10 
0.99909
 20 
0.49369
 30 
0.0
 0 
VERTEX
 8 
1
 10 
0.9868
 20 
0.48033
 30 
0.0
 0 
VERTEX
 8 
1
 10 
0.97438
 20 
0.47575
 30 
0.0
 0 
VERTEX
 8 
1
 10 
0.94949
 20 
0.46979
 30 
0.0
 0 
VERTEX
 8 
1
 10 
0.92458
 20 
0.46593
 30 
0.0
 0 
VERTEX
 8 
1
 10 
0.89964
 20 
0.46306
 30 
0.0
 0 
VERTEX
 8 
1
 10 
0.84976
 20 
0.45853
 30 
0.0
 0 
VERTEX
 8 
1
 10 
0.79984
 20 
0.4562
 30 
0.0
 0 
VERTEX
 8 
1
 10 
0.7499
 20 
0.45547
 30 
0.0
 0 
VERTEX
 8 
1
 10 
0.69997
 20 
0.45473
 30 
0.0
 0 
VERTEX
 8 
1
 10 
0.60009
 20 
0.45327
 30 
0.0
 0 
VERTEX
 8 
1
 10 
0.50021
 20 
0.4518
 30 
0.0
 0 
VERTEX
 8 
1
 10 
0.40026
 20 
0.45483
 30 
0.0
 0 
VERTEX
 8 
1
 10 
0.30026
 20 
0.46165
 30 
0.0
 0 
VERTEX
 8 
1
 10 
0.20022
 20 
0.47167
 30 
0.0
 0 
VERTEX
 8 
1
 10 
0.10012
 20 
0.48469
 30 
0.0
 0 
VERTEX
 8 
1
 10 
0.0
 20 
0.5
 30 
0.0
 0 
SEQEND
 8 
1
 0 
ENDSEC
 0 
EOF
