 0 
SECTION
 2 
ENTITIES
 0 
POLYLINE
 8 
1
 66 
 1 
 10 
0.0
 20 
0.0
 30 
0.0
 0 
VERTEX
 8 
1
 10 
0.0
 20 
0.5
 30 
0.0
 0 
VERTEX
 8 
1
 10 
0.0042799
 20 
0.50191
 30 
0.0
 0 
VERTEX
 8 
1
 10 
0.017040
 20 
0.50608
 30 
0.0
 0 
VERTEX
 8 
1
 10 
0.03836
 20 
0.51242
 30 
0.0
 0 
VERTEX
 8 
1
 10 
0.06699
 20 
0.52043
 30 
0.0
 0 
VERTEX
 8 
1
 10 
0.10333
 20 
0.53161
 30 
0.0
 0 
VERTEX
 8 
1
 10 
0.14644
 20 
0.54452
 30 
0.0
 0 
VERTEX
 8 
1
 10 
0.19562
 20 
0.55975
 30 
0.0
 0 
VERTEX
 8 
1
 10 
0.25
 20 
0.57642
 30 
0.0
 0 
VERTEX
 8 
1
 10 
0.30866
 20 
0.59128
 30 
0.0
 0 
VERTEX
 8 
1
 10 
0.37059
 20 
0.60266
 30 
0.0
 0 
VERTEX
 8 
1
 10 
0.43474
 20 
0.6117
 30 
0.0
 0 
VERTEX
 8 
1
 10 
0.5
 20 
0.61798
 30 
0.0
 0 
VERTEX
 8 
1
 10 
0.56526
 20 
0.62091
 30 
0.0
 0 
VERTEX
 8 
1
 10 
0.62941
 20 
0.61998
 30 
0.0
 0 
VERTEX
 8 
1
 10 
0.69134
 20 
0.61516
 30 
0.0
 0 
VERTEX
 8 
1
 10 
0.75
 20 
0.60713
 30 
0.0
 0 
VERTEX
 8 
1
 10 
0.80438
 20 
0.59648
 30 
0.0
 0 
VERTEX
 8 
1
 10 
0.85356
 20 
0.58399
 30 
0.0
 0 
VERTEX
 8 
1
 10 
0.89667
 20 
0.5702
 30 
0.0
 0 
VERTEX
 8 
1
 10 
0.93301
 20 
0.55558
 30 
0.0
 0 
VERTEX
 8 
1
 10 
0.96194
 20 
0.54141
 30 
0.0
 0 
VERTEX
 8 
1
 10 
0.98296
 20 
0.52696
 30 
0.0
 0 
VERTEX
 8 
1
 10 
0.99572
 20 
0.51313
 30 
0.0
 0 
VERTEX
 8 
1
 10 
1
 20 
0.5
 30 
0.0
 0 
VERTEX
 8 
1
 10 
0.99572
 20 
0.48973
 30 
0.0
 0 
VERTEX
 8 
1
 10 
0.98296
 20 
0.48032
 30 
0.0
 0 
VERTEX
 8 
1
 10 
0.96194
 20 
0.47163
 30 
0.0
 0 
VERTEX
 8 
1
 10 
0.93301
 20 
0.46319
 30 
0.0
 0 
VERTEX
 8 
1
 10 
0.89667
 20 
0.4549
 30 
0.0
 0 
VERTEX
 8 
1
 10 
0.85356
 20 
0.44724
 30 
0.0
 0 
VERTEX
 8 
1
 10 
0.80438
 20 
0.44043
 30 
0.0
 0 
VERTEX
 8 
1
 10 
0.75
 20 
0.43475
 30 
0.0
 0 
VERTEX
 8 
1
 10 
0.69134
 20 
0.43082
 30 
0.0
 0 
VERTEX
 8 
1
 10 
0.62941
 20 
0.42917
 30 
0.0
 0 
VERTEX
 8 
1
 10 
0.56526
 20 
0.43036
 30 
0.0
 0 
VERTEX
 8 
1
 10 
0.5
 20 
0.43443
 30 
0.0
 0 
VERTEX
 8 
1
 10 
0.43474
 20 
0.44071
 30 
0.0
 0 
VERTEX
 8 
1
 10 
0.37059
 20 
0.44901
 30 
0.0
 0 
VERTEX
 8 
1
 10 
0.30866
 20 
0.45936
 30 
0.0
 0 
VERTEX
 8 
1
 10 
0.25
 20 
0.47192
 30 
0.0
 0 
VERTEX
 8 
1
 10 
0.19562
 20 
0.48474
 30 
0.0
 0 
VERTEX
 8 
1
 10 
0.14644
 20 
0.49468
 30 
0.0
 0 
VERTEX
 8 
1
 10 
0.10333
 20 
0.50097
 30 
0.0
 0 
VERTEX
 8 
1
 10 
0.06699
 20 
0.50454
 30 
0.0
 0 
VERTEX
 8 
1
 10 
0.03836
 20 
0.5046
 30 
0.0
 0 
VERTEX
 8 
1
 10 
0.017040
 20 
0.50347
 30 
0.0
 0 
VERTEX
 8 
1
 10 
0.0042799
 20 
0.50129
 30 
0.0
 0 
VERTEX
 8 
1
 10 
0.0
 20 
0.5
 30 
0.0
 0 
SEQEND
 8 
1
 0 
ENDSEC
 0 
EOF
