 0 
SECTION
 2 
ENTITIES
 0 
POLYLINE
 8 
1
 66 
 1 
 10 
0.0
 20 
0.0
 30 
0.0
 0 
VERTEX
 8 
1
 10 
0.0
 20 
0.5
 30 
0.0
 0 
VERTEX
 8 
1
 10 
0.0010900
 20 
0.50052
 30 
0.0
 0 
VERTEX
 8 
1
 10 
0.0042900
 20 
0.50161
 30 
0.0
 0 
VERTEX
 8 
1
 10 
0.00966
 20 
0.50323
 30 
0.0
 0 
VERTEX
 8 
1
 10 
0.017090
 20 
0.50528
 30 
0.0
 0 
VERTEX
 8 
1
 10 
0.02656
 20 
0.50784
 30 
0.0
 0 
VERTEX
 8 
1
 10 
0.03808
 20 
0.51072
 30 
0.0
 0 
VERTEX
 8 
1
 10 
0.05152
 20 
0.51381
 30 
0.0
 0 
VERTEX
 8 
1
 10 
0.06701
 20 
0.51707
 30 
0.0
 0 
VERTEX
 8 
1
 10 
0.08429
 20 
0.52054
 30 
0.0
 0 
VERTEX
 8 
1
 10 
0.10356
 20 
0.52427
 30 
0.0
 0 
VERTEX
 8 
1
 10 
0.1241
 20 
0.5283
 30 
0.0
 0 
VERTEX
 8 
1
 10 
0.1465
 20 
0.5327
 30 
0.0
 0 
VERTEX
 8 
1
 10 
0.1703
 20 
0.53739
 30 
0.0
 0 
VERTEX
 8 
1
 10 
0.19565
 20 
0.54237
 30 
0.0
 0 
VERTEX
 8 
1
 10 
0.22227
 20 
0.54759
 30 
0.0
 0 
VERTEX
 8 
1
 10 
0.25005
 20 
0.55295
 30 
0.0
 0 
VERTEX
 8 
1
 10 
0.27885
 20 
0.55829
 30 
0.0
 0 
VERTEX
 8 
1
 10 
0.30867
 20 
0.56354
 30 
0.0
 0 
VERTEX
 8 
1
 10 
0.33926
 20 
0.56854
 30 
0.0
 0 
VERTEX
 8 
1
 10 
0.37062
 20 
0.57334
 30 
0.0
 0 
VERTEX
 8 
1
 10 
0.4025
 20 
0.57774
 30 
0.0
 0 
VERTEX
 8 
1
 10 
0.43475
 20 
0.58183
 30 
0.0
 0 
VERTEX
 8 
1
 10 
0.46726
 20 
0.58542
 30 
0.0
 0 
VERTEX
 8 
1
 10 
0.50003
 20 
0.58862
 30 
0.0
 0 
VERTEX
 8 
1
 10 
0.53267
 20 
0.59122
 30 
0.0
 0 
VERTEX
 8 
1
 10 
0.56531
 20 
0.59337
 30 
0.0
 0 
VERTEX
 8 
1
 10 
0.59757
 20 
0.59478
 30 
0.0
 0 
VERTEX
 8 
1
 10 
0.62944
 20 
0.59567
 30 
0.0
 0 
VERTEX
 8 
1
 10 
0.66067
 20 
0.59577
 30 
0.0
 0 
VERTEX
 8 
1
 10 
0.69139
 20 
0.59533
 30 
0.0
 0 
VERTEX
 8 
1
 10 
0.72109
 20 
0.59405
 30 
0.0
 0 
VERTEX
 8 
1
 10 
0.75002
 20 
0.59227
 30 
0.0
 0 
VERTEX
 8 
1
 10 
0.77779
 20 
0.58962
 30 
0.0
 0 
VERTEX
 8 
1
 10 
0.80442
 20 
0.58653
 30 
0.0
 0 
VERTEX
 8 
1
 10 
0.82963
 20 
0.5826
 30 
0.0
 0 
VERTEX
 8 
1
 10 
0.85357
 20 
0.57835
 30 
0.0
 0 
VERTEX
 8 
1
 10 
0.87597
 20 
0.57331
 30 
0.0
 0 
VERTEX
 8 
1
 10 
0.8967
 20 
0.56815
 30 
0.0
 0 
VERTEX
 8 
1
 10 
0.91578
 20 
0.56224
 30 
0.0
 0 
VERTEX
 8 
1
 10 
0.93306
 20 
0.55636
 30 
0.0
 0 
VERTEX
 8 
1
 10 
0.94842
 20 
0.54962
 30 
0.0
 0 
VERTEX
 8 
1
 10 
0.96198
 20 
0.54307
 30 
0.0
 0 
VERTEX
 8 
1
 10 
0.9735
 20 
0.53545
 30 
0.0
 0 
VERTEX
 8 
1
 10 
0.98298
 20 
0.52856
 30 
0.0
 0 
VERTEX
 8 
1
 10 
0.9904
 20 
0.52086
 30 
0.0
 0 
VERTEX
 8 
1
 10 
0.99578
 20 
0.51279
 30 
0.0
 0 
VERTEX
 8 
1
 10 
0.99898
 20 
0.50359
 30 
0.0
 0 
VERTEX
 8 
1
 10 
1
 20 
0.5
 30 
0.0
 0 
VERTEX
 8 
1
 10 
0.99898
 20 
0.49528
 30 
0.0
 0 
VERTEX
 8 
1
 10 
0.99578
 20 
0.49325
 30 
0.0
 0 
VERTEX
 8 
1
 10 
0.9904
 20 
0.49017
 30 
0.0
 0 
VERTEX
 8 
1
 10 
0.98298
 20 
0.48692
 30 
0.0
 0 
VERTEX
 8 
1
 10 
0.9735
 20 
0.4829
 30 
0.0
 0 
VERTEX
 8 
1
 10 
0.96198
 20 
0.47983
 30 
0.0
 0 
VERTEX
 8 
1
 10 
0.94842
 20 
0.47658
 30 
0.0
 0 
VERTEX
 8 
1
 10 
0.93306
 20 
0.47406
 30 
0.0
 0 
VERTEX
 8 
1
 10 
0.91578
 20 
0.47148
 30 
0.0
 0 
VERTEX
 8 
1
 10 
0.8967
 20 
0.46958
 30 
0.0
 0 
VERTEX
 8 
1
 10 
0.87597
 20 
0.4678
 30 
0.0
 0 
VERTEX
 8 
1
 10 
0.85357
 20 
0.46673
 30 
0.0
 0 
VERTEX
 8 
1
 10 
0.82963
 20 
0.46588
 30 
0.0
 0 
VERTEX
 8 
1
 10 
0.80442
 20 
0.46574
 30 
0.0
 0 
VERTEX
 8 
1
 10 
0.77779
 20 
0.46591
 30 
0.0
 0 
VERTEX
 8 
1
 10 
0.75002
 20 
0.46681
 30 
0.0
 0 
VERTEX
 8 
1
 10 
0.72109
 20 
0.46809
 30 
0.0
 0 
VERTEX
 8 
1
 10 
0.69139
 20 
0.47008
 30 
0.0
 0 
VERTEX
 8 
1
 10 
0.66067
 20 
0.47248
 30 
0.0
 0 
VERTEX
 8 
1
 10 
0.62944
 20 
0.47551
 30 
0.0
 0 
VERTEX
 8 
1
 10 
0.59757
 20 
0.47883
 30 
0.0
 0 
VERTEX
 8 
1
 10 
0.56531
 20 
0.48254
 30 
0.0
 0 
VERTEX
 8 
1
 10 
0.53267
 20 
0.48629
 30 
0.0
 0 
VERTEX
 8 
1
 10 
0.50003
 20 
0.49015
 30 
0.0
 0 
VERTEX
 8 
1
 10 
0.46726
 20 
0.49386
 30 
0.0
 0 
VERTEX
 8 
1
 10 
0.43475
 20 
0.49747
 30 
0.0
 0 
VERTEX
 8 
1
 10 
0.4025
 20 
0.50072
 30 
0.0
 0 
VERTEX
 8 
1
 10 
0.37062
 20 
0.50365
 30 
0.0
 0 
VERTEX
 8 
1
 10 
0.33926
 20 
0.50609
 30 
0.0
 0 
VERTEX
 8 
1
 10 
0.30867
 20 
0.50815
 30 
0.0
 0 
VERTEX
 8 
1
 10 
0.27885
 20 
0.50978
 30 
0.0
 0 
VERTEX
 8 
1
 10 
0.25005
 20 
0.51106
 30 
0.0
 0 
VERTEX
 8 
1
 10 
0.22227
 20 
0.5119
 30 
0.0
 0 
VERTEX
 8 
1
 10 
0.19565
 20 
0.51236
 30 
0.0
 0 
VERTEX
 8 
1
 10 
0.1703
 20 
0.51239
 30 
0.0
 0 
VERTEX
 8 
1
 10 
0.1465
 20 
0.51208
 30 
0.0
 0 
VERTEX
 8 
1
 10 
0.1241
 20 
0.51146
 30 
0.0
 0 
VERTEX
 8 
1
 10 
0.10356
 20 
0.5106
 30 
0.0
 0 
VERTEX
 8 
1
 10 
0.08429
 20 
0.50955
 30 
0.0
 0 
VERTEX
 8 
1
 10 
0.06701
 20 
0.50836
 30 
0.0
 0 
VERTEX
 8 
1
 10 
0.05152
 20 
0.50706
 30 
0.0
 0 
VERTEX
 8 
1
 10 
0.03808
 20 
0.50568
 30 
0.0
 0 
VERTEX
 8 
1
 10 
0.02656
 20 
0.50427
 30 
0.0
 0 
VERTEX
 8 
1
 10 
0.017090
 20 
0.50292
 30 
0.0
 0 
VERTEX
 8 
1
 10 
0.00966
 20 
0.50182
 30 
0.0
 0 
VERTEX
 8 
1
 10 
0.0042900
 20 
0.50089
 30 
0.0
 0 
VERTEX
 8 
1
 10 
0.0010900
 20 
0.50021
 30 
0.0
 0 
VERTEX
 8 
1
 10 
0.0
 20 
0.5
 30 
0.0
 0 
SEQEND
 8 
1
 0 
ENDSEC
 0 
EOF
