 0 
SECTION
 2 
ENTITIES
 0 
POLYLINE
 8 
1
 66 
 1 
 10 
0.0
 20 
0.0
 30 
0.0
 0 
VERTEX
 8 
1
 10 
0.0
 20 
0.5
 30 
0.0
 0 
VERTEX
 8 
1
 10 
0.05
 20 
0.5145
 30 
0.0
 0 
VERTEX
 8 
1
 10 
0.1
 20 
0.529
 30 
0.0
 0 
VERTEX
 8 
1
 10 
0.2
 20 
0.5532
 30 
0.0
 0 
VERTEX
 8 
1
 10 
0.3
 20 
0.5742
 30 
0.0
 0 
VERTEX
 8 
1
 10 
0.4
 20 
0.59186
 30 
0.0
 0 
VERTEX
 8 
1
 10 
0.5
 20 
0.6033
 30 
0.0
 0 
VERTEX
 8 
1
 10 
0.6
 20 
0.60725
 30 
0.0
 0 
VERTEX
 8 
1
 10 
0.7
 20 
0.6035
 30 
0.0
 0 
VERTEX
 8 
1
 10 
0.75
 20 
0.5981
 30 
0.0
 0 
VERTEX
 8 
1
 10 
0.8
 20 
0.5897
 30 
0.0
 0 
VERTEX
 8 
1
 10 
0.85
 20 
0.5783
 30 
0.0
 0 
VERTEX
 8 
1
 10 
0.9
 20 
0.563
 30 
0.0
 0 
VERTEX
 8 
1
 10 
0.925
 20 
0.5533
 30 
0.0
 0 
VERTEX
 8 
1
 10 
0.95
 20 
0.543
 30 
0.0
 0 
VERTEX
 8 
1
 10 
0.975
 20 
0.5303
 30 
0.0
 0 
VERTEX
 8 
1
 10 
0.9875
 20 
0.5213
 30 
0.0
 0 
VERTEX
 8 
1
 10 
0.99375
 20 
0.5142
 30 
0.0
 0 
VERTEX
 8 
1
 10 
1
 20 
0.5
 30 
0.0
 0 
VERTEX
 8 
1
 10 
0.99375
 20 
0.489
 30 
0.0
 0 
VERTEX
 8 
1
 10 
0.9875
 20 
0.4843
 30 
0.0
 0 
VERTEX
 8 
1
 10 
0.975
 20 
0.479
 30 
0.0
 0 
VERTEX
 8 
1
 10 
0.95
 20 
0.4732
 30 
0.0
 0 
VERTEX
 8 
1
 10 
0.925
 20 
0.4687
 30 
0.0
 0 
VERTEX
 8 
1
 10 
0.9
 20 
0.4648
 30 
0.0
 0 
VERTEX
 8 
1
 10 
0.85
 20 
0.4593
 30 
0.0
 0 
VERTEX
 8 
1
 10 
0.8
 20 
0.4545
 30 
0.0
 0 
VERTEX
 8 
1
 10 
0.75
 20 
0.451
 30 
0.0
 0 
VERTEX
 8 
1
 10 
0.7
 20 
0.45
 30 
0.0
 0 
VERTEX
 8 
1
 10 
0.6
 20 
0.4513
 30 
0.0
 0 
VERTEX
 8 
1
 10 
0.5
 20 
0.4578
 30 
0.0
 0 
VERTEX
 8 
1
 10 
0.4
 20 
0.4697
 30 
0.0
 0 
VERTEX
 8 
1
 10 
0.3
 20 
0.4859
 30 
0.0
 0 
VERTEX
 8 
1
 10 
0.2
 20 
0.49855
 30 
0.0
 0 
VERTEX
 8 
1
 10 
0.1
 20 
0.503
 30 
0.0
 0 
VERTEX
 8 
1
 10 
0.05
 20 
0.5018
 30 
0.0
 0 
VERTEX
 8 
1
 10 
0.0
 20 
0.5
 30 
0.0
 0 
SEQEND
 8 
1
 0 
ENDSEC
 0 
EOF
