 0 
SECTION
 2 
ENTITIES
 0 
POLYLINE
 8 
1
 66 
 1 
 10 
0.0
 20 
0.0
 30 
0.0
 0 
VERTEX
 8 
1
 10 
0.0
 20 
0.5
 30 
0.0
 0 
VERTEX
 8 
1
 10 
0.052
 20 
0.5105
 30 
0.0
 0 
VERTEX
 8 
1
 10 
0.104
 20 
0.5208
 30 
0.0
 0 
VERTEX
 8 
1
 10 
0.196
 20 
0.537
 30 
0.0
 0 
VERTEX
 8 
1
 10 
0.309
 20 
0.5543
 30 
0.0
 0 
VERTEX
 8 
1
 10 
0.403
 20 
0.5655
 30 
0.0
 0 
VERTEX
 8 
1
 10 
0.5
 20 
0.5742
 30 
0.0
 0 
VERTEX
 8 
1
 10 
0.558
 20 
0.5779
 30 
0.0
 0 
VERTEX
 8 
1
 10 
0.692
 20 
0.5784
 30 
0.0
 0 
VERTEX
 8 
1
 10 
0.75
 20 
0.5755
 30 
0.0
 0 
VERTEX
 8 
1
 10 
0.804
 20 
0.5706
 30 
0.0
 0 
VERTEX
 8 
1
 10 
0.854
 20 
0.5636
 30 
0.0
 0 
VERTEX
 8 
1
 10 
0.897
 20 
0.555
 30 
0.0
 0 
VERTEX
 8 
1
 10 
0.9158
 20 
0.5498
 30 
0.0
 0 
VERTEX
 8 
1
 10 
0.9484
 20 
0.5385
 30 
0.0
 0 
VERTEX
 8 
1
 10 
0.974
 20 
0.5262
 30 
0.0
 0 
VERTEX
 8 
1
 10 
0.9904
 20 
0.5146
 30 
0.0
 0 
VERTEX
 8 
1
 10 
1
 20 
0.5
 30 
0.0
 0 
VERTEX
 8 
1
 10 
0.9904
 20 
0.4925
 30 
0.0
 0 
VERTEX
 8 
1
 10 
0.974
 20 
0.4866
 30 
0.0
 0 
VERTEX
 8 
1
 10 
0.9484
 20 
0.4822
 30 
0.0
 0 
VERTEX
 8 
1
 10 
0.9158
 20 
0.4787
 30 
0.0
 0 
VERTEX
 8 
1
 10 
0.897
 20 
0.4772
 30 
0.0
 0 
VERTEX
 8 
1
 10 
0.854
 20 
0.4752
 30 
0.0
 0 
VERTEX
 8 
1
 10 
0.804
 20 
0.4745
 30 
0.0
 0 
VERTEX
 8 
1
 10 
0.75
 20 
0.4754
 30 
0.0
 0 
VERTEX
 8 
1
 10 
0.692
 20 
0.4772
 30 
0.0
 0 
VERTEX
 8 
1
 10 
0.558
 20 
0.4885
 30 
0.0
 0 
VERTEX
 8 
1
 10 
0.5
 20 
0.4965
 30 
0.0
 0 
VERTEX
 8 
1
 10 
0.403
 20 
0.506
 30 
0.0
 0 
VERTEX
 8 
1
 10 
0.309
 20 
0.5125
 30 
0.0
 0 
VERTEX
 8 
1
 10 
0.196
 20 
0.515
 30 
0.0
 0 
VERTEX
 8 
1
 10 
0.104
 20 
0.5105
 30 
0.0
 0 
VERTEX
 8 
1
 10 
0.052
 20 
0.5066
 30 
0.0
 0 
VERTEX
 8 
1
 10 
0.0
 20 
0.5
 30 
0.0
 0 
SEQEND
 8 
1
 0 
ENDSEC
 0 
EOF
