 0 
SECTION
 2 
ENTITIES
 0 
POLYLINE
 8 
1
 66 
 1 
 10 
0.0
 20 
0.0
 30 
0.0
 0 
VERTEX
 8 
1
 10 
0.0
 20 
0.5
 30 
0.0
 0 
VERTEX
 8 
1
 10 
0.0010700
 20 
0.50023
 30 
0.0
 0 
VERTEX
 8 
1
 10 
0.0042799
 20 
0.50086
 30 
0.0
 0 
VERTEX
 8 
1
 10 
0.0096100
 20 
0.50193
 30 
0.0
 0 
VERTEX
 8 
1
 10 
0.017040
 20 
0.50341
 30 
0.0
 0 
VERTEX
 8 
1
 10 
0.026530
 20 
0.50534
 30 
0.0
 0 
VERTEX
 8 
1
 10 
0.03806
 20 
0.50766
 30 
0.0
 0 
VERTEX
 8 
1
 10 
0.051560
 20 
0.51035
 30 
0.0
 0 
VERTEX
 8 
1
 10 
0.06699
 20 
0.51342
 30 
0.0
 0 
VERTEX
 8 
1
 10 
0.08427
 20 
0.51681
 30 
0.0
 0 
VERTEX
 8 
1
 10 
0.10332
 20 
0.52053
 30 
0.0
 0 
VERTEX
 8 
1
 10 
0.12408
 20 
0.52447
 30 
0.0
 0 
VERTEX
 8 
1
 10 
0.14645
 20 
0.52864
 30 
0.0
 0 
VERTEX
 8 
1
 10 
0.17033
 20 
0.53298
 30 
0.0
 0 
VERTEX
 8 
1
 10 
0.19562
 20 
0.53747
 30 
0.0
 0 
VERTEX
 8 
1
 10 
0.22221
 20 
0.542
 30 
0.0
 0 
VERTEX
 8 
1
 10 
0.25
 20 
0.54652
 30 
0.0
 0 
VERTEX
 8 
1
 10 
0.27886
 20 
0.55089
 30 
0.0
 0 
VERTEX
 8 
1
 10 
0.30866
 20 
0.55511
 30 
0.0
 0 
VERTEX
 8 
1
 10 
0.33928
 20 
0.55905
 30 
0.0
 0 
VERTEX
 8 
1
 10 
0.37059
 20 
0.56275
 30 
0.0
 0 
VERTEX
 8 
1
 10 
0.40245
 20 
0.56608
 30 
0.0
 0 
VERTEX
 8 
1
 10 
0.43474
 20 
0.56911
 30 
0.0
 0 
VERTEX
 8 
1
 10 
0.4673
 20 
0.57174
 30 
0.0
 0 
VERTEX
 8 
1
 10 
0.5
 20 
0.57409
 30 
0.0
 0 
VERTEX
 8 
1
 10 
0.5327
 20 
0.57596
 30 
0.0
 0 
VERTEX
 8 
1
 10 
0.56526
 20 
0.5775
 30 
0.0
 0 
VERTEX
 8 
1
 10 
0.59755
 20 
0.57845
 30 
0.0
 0 
VERTEX
 8 
1
 10 
0.62941
 20 
0.57898
 30 
0.0
 0 
VERTEX
 8 
1
 10 
0.66072
 20 
0.57888
 30 
0.0
 0 
VERTEX
 8 
1
 10 
0.69134
 20 
0.57838
 30 
0.0
 0 
VERTEX
 8 
1
 10 
0.72114
 20 
0.5772
 30 
0.0
 0 
VERTEX
 8 
1
 10 
0.75
 20 
0.57565
 30 
0.0
 0 
VERTEX
 8 
1
 10 
0.77779
 20 
0.57339
 30 
0.0
 0 
VERTEX
 8 
1
 10 
0.80438
 20 
0.57081
 30 
0.0
 0 
VERTEX
 8 
1
 10 
0.82967
 20 
0.56754
 30 
0.0
 0 
VERTEX
 8 
1
 10 
0.85355
 20 
0.56404
 30 
0.0
 0 
VERTEX
 8 
1
 10 
0.87592
 20 
0.55989
 30 
0.0
 0 
VERTEX
 8 
1
 10 
0.89668
 20 
0.55569
 30 
0.0
 0 
VERTEX
 8 
1
 10 
0.91573
 20 
0.55086
 30 
0.0
 0 
VERTEX
 8 
1
 10 
0.93301
 20 
0.54609
 30 
0.0
 0 
VERTEX
 8 
1
 10 
0.94844
 20 
0.54056
 30 
0.0
 0 
VERTEX
 8 
1
 10 
0.96194
 20 
0.53523
 30 
0.0
 0 
VERTEX
 8 
1
 10 
0.97347
 20 
0.52948
 30 
0.0
 0 
VERTEX
 8 
1
 10 
0.98296
 20 
0.52368
 30 
0.0
 0 
VERTEX
 8 
1
 10 
0.99039
 20 
0.51775
 30 
0.0
 0 
VERTEX
 8 
1
 10 
0.99572
 20 
0.51144
 30 
0.0
 0 
VERTEX
 8 
1
 10 
0.99893
 20 
0.50574
 30 
0.0
 0 
VERTEX
 8 
1
 10 
1
 20 
0.5
 30 
0.0
 0 
VERTEX
 8 
1
 10 
0.99893
 20 
0.498
 30 
0.0
 0 
VERTEX
 8 
1
 10 
0.99572
 20 
0.49564
 30 
0.0
 0 
VERTEX
 8 
1
 10 
0.99039
 20 
0.49309
 30 
0.0
 0 
VERTEX
 8 
1
 10 
0.98296
 20 
0.4903
 30 
0.0
 0 
VERTEX
 8 
1
 10 
0.97347
 20 
0.48753
 30 
0.0
 0 
VERTEX
 8 
1
 10 
0.96194
 20 
0.48519
 30 
0.0
 0 
VERTEX
 8 
1
 10 
0.94844
 20 
0.4827
 30 
0.0
 0 
VERTEX
 8 
1
 10 
0.93301
 20 
0.48087
 30 
0.0
 0 
VERTEX
 8 
1
 10 
0.91573
 20 
0.4789
 30 
0.0
 0 
VERTEX
 8 
1
 10 
0.89668
 20 
0.47754
 30 
0.0
 0 
VERTEX
 8 
1
 10 
0.87592
 20 
0.47623
 30 
0.0
 0 
VERTEX
 8 
1
 10 
0.85355
 20 
0.47553
 30 
0.0
 0 
VERTEX
 8 
1
 10 
0.82967
 20 
0.47497
 30 
0.0
 0 
VERTEX
 8 
1
 10 
0.80438
 20 
0.475
 30 
0.0
 0 
VERTEX
 8 
1
 10 
0.77779
 20 
0.47525
 30 
0.0
 0 
VERTEX
 8 
1
 10 
0.75
 20 
0.47611
 30 
0.0
 0 
VERTEX
 8 
1
 10 
0.72114
 20 
0.47725
 30 
0.0
 0 
VERTEX
 8 
1
 10 
0.69134
 20 
0.479
 30 
0.0
 0 
VERTEX
 8 
1
 10 
0.66072
 20 
0.48105
 30 
0.0
 0 
VERTEX
 8 
1
 10 
0.62941
 20 
0.48363
 30 
0.0
 0 
VERTEX
 8 
1
 10 
0.59755
 20 
0.48643
 30 
0.0
 0 
VERTEX
 8 
1
 10 
0.56526
 20 
0.48955
 30 
0.0
 0 
VERTEX
 8 
1
 10 
0.5327
 20 
0.49269
 30 
0.0
 0 
VERTEX
 8 
1
 10 
0.5
 20 
0.49595
 30 
0.0
 0 
VERTEX
 8 
1
 10 
0.4673
 20 
0.49908
 30 
0.0
 0 
VERTEX
 8 
1
 10 
0.43474
 20 
0.50217
 30 
0.0
 0 
VERTEX
 8 
1
 10 
0.40245
 20 
0.50496
 30 
0.0
 0 
VERTEX
 8 
1
 10 
0.37059
 20 
0.50748
 30 
0.0
 0 
VERTEX
 8 
1
 10 
0.33928
 20 
0.50951
 30 
0.0
 0 
VERTEX
 8 
1
 10 
0.30866
 20 
0.51118
 30 
0.0
 0 
VERTEX
 8 
1
 10 
0.27886
 20 
0.51241
 30 
0.0
 0 
VERTEX
 8 
1
 10 
0.25
 20 
0.51329
 30 
0.0
 0 
VERTEX
 8 
1
 10 
0.22221
 20 
0.51373
 30 
0.0
 0 
VERTEX
 8 
1
 10 
0.19562
 20 
0.51381
 30 
0.0
 0 
VERTEX
 8 
1
 10 
0.17033
 20 
0.51347
 30 
0.0
 0 
VERTEX
 8 
1
 10 
0.14645
 20 
0.5128
 30 
0.0
 0 
VERTEX
 8 
1
 10 
0.12408
 20 
0.51186
 30 
0.0
 0 
VERTEX
 8 
1
 10 
0.10332
 20 
0.51072
 30 
0.0
 0 
VERTEX
 8 
1
 10 
0.08427
 20 
0.50941
 30 
0.0
 0 
VERTEX
 8 
1
 10 
0.06699
 20 
0.50802
 30 
0.0
 0 
VERTEX
 8 
1
 10 
0.051560
 20 
0.50659
 30 
0.0
 0 
VERTEX
 8 
1
 10 
0.03806
 20 
0.50515
 30 
0.0
 0 
VERTEX
 8 
1
 10 
0.026530
 20 
0.50377
 30 
0.0
 0 
VERTEX
 8 
1
 10 
0.017040
 20 
0.50251
 30 
0.0
 0 
VERTEX
 8 
1
 10 
0.0096100
 20 
0.50151
 30 
0.0
 0 
VERTEX
 8 
1
 10 
0.0042799
 20 
0.5007
 30 
0.0
 0 
VERTEX
 8 
1
 10 
0.0010700
 20 
0.50015
 30 
0.0
 0 
VERTEX
 8 
1
 10 
0.0
 20 
0.5
 30 
0.0
 0 
SEQEND
 8 
1
 0 
ENDSEC
 0 
EOF
