 0 
SECTION
 2 
ENTITIES
 0 
POLYLINE
 8 
1
 66 
 1 
 10 
0.0
 20 
0.0
 30 
0.0
 0 
VERTEX
 8 
1
 10 
0.0
 20 
0.5
 30 
0.0
 0 
VERTEX
 8 
1
 10 
0.0010900
 20 
0.50099
 30 
0.0
 0 
VERTEX
 8 
1
 10 
0.0042900
 20 
0.50266
 30 
0.0
 0 
VERTEX
 8 
1
 10 
0.00966
 20 
0.50484
 30 
0.0
 0 
VERTEX
 8 
1
 10 
0.017090
 20 
0.50741
 30 
0.0
 0 
VERTEX
 8 
1
 10 
0.02656
 20 
0.51047
 30 
0.0
 0 
VERTEX
 8 
1
 10 
0.03808
 20 
0.51382
 30 
0.0
 0 
VERTEX
 8 
1
 10 
0.05152
 20 
0.51741
 30 
0.0
 0 
VERTEX
 8 
1
 10 
0.06701
 20 
0.52121
 30 
0.0
 0 
VERTEX
 8 
1
 10 
0.08429
 20 
0.52525
 30 
0.0
 0 
VERTEX
 8 
1
 10 
0.10356
 20 
0.52953
 30 
0.0
 0 
VERTEX
 8 
1
 10 
0.1241
 20 
0.53403
 30 
0.0
 0 
VERTEX
 8 
1
 10 
0.1465
 20 
0.53878
 30 
0.0
 0 
VERTEX
 8 
1
 10 
0.1703
 20 
0.54375
 30 
0.0
 0 
VERTEX
 8 
1
 10 
0.19565
 20 
0.54896
 30 
0.0
 0 
VERTEX
 8 
1
 10 
0.22227
 20 
0.55437
 30 
0.0
 0 
VERTEX
 8 
1
 10 
0.25005
 20 
0.55999
 30 
0.0
 0 
VERTEX
 8 
1
 10 
0.27885
 20 
0.56571
 30 
0.0
 0 
VERTEX
 8 
1
 10 
0.30867
 20 
0.57154
 30 
0.0
 0 
VERTEX
 8 
1
 10 
0.33926
 20 
0.57738
 30 
0.0
 0 
VERTEX
 8 
1
 10 
0.37062
 20 
0.58325
 30 
0.0
 0 
VERTEX
 8 
1
 10 
0.4025
 20 
0.58904
 30 
0.0
 0 
VERTEX
 8 
1
 10 
0.43475
 20 
0.59474
 30 
0.0
 0 
VERTEX
 8 
1
 10 
0.46726
 20 
0.60007
 30 
0.0
 0 
VERTEX
 8 
1
 10 
0.50003
 20 
0.60482
 30 
0.0
 0 
VERTEX
 8 
1
 10 
0.53267
 20 
0.60864
 30 
0.0
 0 
VERTEX
 8 
1
 10 
0.56531
 20 
0.61146
 30 
0.0
 0 
VERTEX
 8 
1
 10 
0.59757
 20 
0.61316
 30 
0.0
 0 
VERTEX
 8 
1
 10 
0.62944
 20 
0.61393
 30 
0.0
 0 
VERTEX
 8 
1
 10 
0.66067
 20 
0.61373
 30 
0.0
 0 
VERTEX
 8 
1
 10 
0.69139
 20 
0.61269
 30 
0.0
 0 
VERTEX
 8 
1
 10 
0.72109
 20 
0.61069
 30 
0.0
 0 
VERTEX
 8 
1
 10 
0.75002
 20 
0.60786
 30 
0.0
 0 
VERTEX
 8 
1
 10 
0.77779
 20 
0.60413
 30 
0.0
 0 
VERTEX
 8 
1
 10 
0.80442
 20 
0.59966
 30 
0.0
 0 
VERTEX
 8 
1
 10 
0.82963
 20 
0.59442
 30 
0.0
 0 
VERTEX
 8 
1
 10 
0.85357
 20 
0.58861
 30 
0.0
 0 
VERTEX
 8 
1
 10 
0.87597
 20 
0.58219
 30 
0.0
 0 
VERTEX
 8 
1
 10 
0.8967
 20 
0.57538
 30 
0.0
 0 
VERTEX
 8 
1
 10 
0.91578
 20 
0.56808
 30 
0.0
 0 
VERTEX
 8 
1
 10 
0.93306
 20 
0.56049
 30 
0.0
 0 
VERTEX
 8 
1
 10 
0.94842
 20 
0.55256
 30 
0.0
 0 
VERTEX
 8 
1
 10 
0.96198
 20 
0.54453
 30 
0.0
 0 
VERTEX
 8 
1
 10 
0.9735
 20 
0.53643
 30 
0.0
 0 
VERTEX
 8 
1
 10 
0.98298
 20 
0.52861
 30 
0.0
 0 
VERTEX
 8 
1
 10 
0.9904
 20 
0.52107
 30 
0.0
 0 
VERTEX
 8 
1
 10 
0.99578
 20 
0.51377
 30 
0.0
 0 
VERTEX
 8 
1
 10 
0.99898
 20 
0.50668
 30 
0.0
 0 
VERTEX
 8 
1
 10 
1
 20 
0.5
 30 
0.0
 0 
VERTEX
 8 
1
 10 
0.99898
 20 
0.49781
 30 
0.0
 0 
VERTEX
 8 
1
 10 
0.99578
 20 
0.49448
 30 
0.0
 0 
VERTEX
 8 
1
 10 
0.9904
 20 
0.49099
 30 
0.0
 0 
VERTEX
 8 
1
 10 
0.98298
 20 
0.48742
 30 
0.0
 0 
VERTEX
 8 
1
 10 
0.9735
 20 
0.4837
 30 
0.0
 0 
VERTEX
 8 
1
 10 
0.96198
 20 
0.48004
 30 
0.0
 0 
VERTEX
 8 
1
 10 
0.94842
 20 
0.47634
 30 
0.0
 0 
VERTEX
 8 
1
 10 
0.93306
 20 
0.47272
 30 
0.0
 0 
VERTEX
 8 
1
 10 
0.91578
 20 
0.46913
 30 
0.0
 0 
VERTEX
 8 
1
 10 
0.8967
 20 
0.46567
 30 
0.0
 0 
VERTEX
 8 
1
 10 
0.87597
 20 
0.46229
 30 
0.0
 0 
VERTEX
 8 
1
 10 
0.85357
 20 
0.4591
 30 
0.0
 0 
VERTEX
 8 
1
 10 
0.82963
 20 
0.45611
 30 
0.0
 0 
VERTEX
 8 
1
 10 
0.80442
 20 
0.45327
 30 
0.0
 0 
VERTEX
 8 
1
 10 
0.77779
 20 
0.45081
 30 
0.0
 0 
VERTEX
 8 
1
 10 
0.75002
 20 
0.4488
 30 
0.0
 0 
VERTEX
 8 
1
 10 
0.72109
 20 
0.44733
 30 
0.0
 0 
VERTEX
 8 
1
 10 
0.69139
 20 
0.44637
 30 
0.0
 0 
VERTEX
 8 
1
 10 
0.66067
 20 
0.44593
 30 
0.0
 0 
VERTEX
 8 
1
 10 
0.62944
 20 
0.44587
 30 
0.0
 0 
VERTEX
 8 
1
 10 
0.59757
 20 
0.44642
 30 
0.0
 0 
VERTEX
 8 
1
 10 
0.56531
 20 
0.44762
 30 
0.0
 0 
VERTEX
 8 
1
 10 
0.53267
 20 
0.44955
 30 
0.0
 0 
VERTEX
 8 
1
 10 
0.50003
 20 
0.45216
 30 
0.0
 0 
VERTEX
 8 
1
 10 
0.46726
 20 
0.45543
 30 
0.0
 0 
VERTEX
 8 
1
 10 
0.43475
 20 
0.45942
 30 
0.0
 0 
VERTEX
 8 
1
 10 
0.4025
 20 
0.46424
 30 
0.0
 0 
VERTEX
 8 
1
 10 
0.37062
 20 
0.46981
 30 
0.0
 0 
VERTEX
 8 
1
 10 
0.33926
 20 
0.47582
 30 
0.0
 0 
VERTEX
 8 
1
 10 
0.30867
 20 
0.48183
 30 
0.0
 0 
VERTEX
 8 
1
 10 
0.27885
 20 
0.48738
 30 
0.0
 0 
VERTEX
 8 
1
 10 
0.25005
 20 
0.4923
 30 
0.0
 0 
VERTEX
 8 
1
 10 
0.22227
 20 
0.49655
 30 
0.0
 0 
VERTEX
 8 
1
 10 
0.19565
 20 
0.50014
 30 
0.0
 0 
VERTEX
 8 
1
 10 
0.1703
 20 
0.50308
 30 
0.0
 0 
VERTEX
 8 
1
 10 
0.1465
 20 
0.50537
 30 
0.0
 0 
VERTEX
 8 
1
 10 
0.1241
 20 
0.50701
 30 
0.0
 0 
VERTEX
 8 
1
 10 
0.10356
 20 
0.50805
 30 
0.0
 0 
VERTEX
 8 
1
 10 
0.08429
 20 
0.50851
 30 
0.0
 0 
VERTEX
 8 
1
 10 
0.06701
 20 
0.50844
 30 
0.0
 0 
VERTEX
 8 
1
 10 
0.05152
 20 
0.50788
 30 
0.0
 0 
VERTEX
 8 
1
 10 
0.03808
 20 
0.50691
 30 
0.0
 0 
VERTEX
 8 
1
 10 
0.02656
 20 
0.50561
 30 
0.0
 0 
VERTEX
 8 
1
 10 
0.017090
 20 
0.50412
 30 
0.0
 0 
VERTEX
 8 
1
 10 
0.00966
 20 
0.50281
 30 
0.0
 0 
VERTEX
 8 
1
 10 
0.0042900
 20 
0.5015
 30 
0.0
 0 
VERTEX
 8 
1
 10 
0.0010900
 20 
0.5004
 30 
0.0
 0 
VERTEX
 8 
1
 10 
0.0
 20 
0.5
 30 
0.0
 0 
SEQEND
 8 
1
 0 
ENDSEC
 0 
EOF
