 0 
SECTION
 2 
ENTITIES
 0 
POLYLINE
 8 
1
 66 
 1 
 10 
0.0
 20 
0.0
 30 
0.0
 0 
VERTEX
 8 
1
 10 
0.0
 20 
0.5
 30 
0.0
 0 
VERTEX
 8 
1
 10 
0.0010900
 20 
0.50069
 30 
0.0
 0 
VERTEX
 8 
1
 10 
0.0042900
 20 
0.50206
 30 
0.0
 0 
VERTEX
 8 
1
 10 
0.00966
 20 
0.5039
 30 
0.0
 0 
VERTEX
 8 
1
 10 
0.017090
 20 
0.5061
 30 
0.0
 0 
VERTEX
 8 
1
 10 
0.02656
 20 
0.50875
 30 
0.0
 0 
VERTEX
 8 
1
 10 
0.03808
 20 
0.51167
 30 
0.0
 0 
VERTEX
 8 
1
 10 
0.05152
 20 
0.51481
 30 
0.0
 0 
VERTEX
 8 
1
 10 
0.06701
 20 
0.51817
 30 
0.0
 0 
VERTEX
 8 
1
 10 
0.08429
 20 
0.52176
 30 
0.0
 0 
VERTEX
 8 
1
 10 
0.10356
 20 
0.5256
 30 
0.0
 0 
VERTEX
 8 
1
 10 
0.1241
 20 
0.52968
 30 
0.0
 0 
VERTEX
 8 
1
 10 
0.1465
 20 
0.53403
 30 
0.0
 0 
VERTEX
 8 
1
 10 
0.1703
 20 
0.53861
 30 
0.0
 0 
VERTEX
 8 
1
 10 
0.19565
 20 
0.54347
 30 
0.0
 0 
VERTEX
 8 
1
 10 
0.22227
 20 
0.54856
 30 
0.0
 0 
VERTEX
 8 
1
 10 
0.25005
 20 
0.55388
 30 
0.0
 0 
VERTEX
 8 
1
 10 
0.27885
 20 
0.55935
 30 
0.0
 0 
VERTEX
 8 
1
 10 
0.30867
 20 
0.56497
 30 
0.0
 0 
VERTEX
 8 
1
 10 
0.33926
 20 
0.57064
 30 
0.0
 0 
VERTEX
 8 
1
 10 
0.37062
 20 
0.57637
 30 
0.0
 0 
VERTEX
 8 
1
 10 
0.4025
 20 
0.58208
 30 
0.0
 0 
VERTEX
 8 
1
 10 
0.43475
 20 
0.58772
 30 
0.0
 0 
VERTEX
 8 
1
 10 
0.46726
 20 
0.59303
 30 
0.0
 0 
VERTEX
 8 
1
 10 
0.50003
 20 
0.5978
 30 
0.0
 0 
VERTEX
 8 
1
 10 
0.53267
 20 
0.60168
 30 
0.0
 0 
VERTEX
 8 
1
 10 
0.56531
 20 
0.60457
 30 
0.0
 0 
VERTEX
 8 
1
 10 
0.59757
 20 
0.60639
 30 
0.0
 0 
VERTEX
 8 
1
 10 
0.62944
 20 
0.60728
 30 
0.0
 0 
VERTEX
 8 
1
 10 
0.66067
 20 
0.60723
 30 
0.0
 0 
VERTEX
 8 
1
 10 
0.69139
 20 
0.60635
 30 
0.0
 0 
VERTEX
 8 
1
 10 
0.72109
 20 
0.60455
 30 
0.0
 0 
VERTEX
 8 
1
 10 
0.75002
 20 
0.60194
 30 
0.0
 0 
VERTEX
 8 
1
 10 
0.77779
 20 
0.59844
 30 
0.0
 0 
VERTEX
 8 
1
 10 
0.80442
 20 
0.59422
 30 
0.0
 0 
VERTEX
 8 
1
 10 
0.82963
 20 
0.58924
 30 
0.0
 0 
VERTEX
 8 
1
 10 
0.85357
 20 
0.58371
 30 
0.0
 0 
VERTEX
 8 
1
 10 
0.87597
 20 
0.5776
 30 
0.0
 0 
VERTEX
 8 
1
 10 
0.8967
 20 
0.57109
 30 
0.0
 0 
VERTEX
 8 
1
 10 
0.91578
 20 
0.56412
 30 
0.0
 0 
VERTEX
 8 
1
 10 
0.93306
 20 
0.55687
 30 
0.0
 0 
VERTEX
 8 
1
 10 
0.94842
 20 
0.54929
 30 
0.0
 0 
VERTEX
 8 
1
 10 
0.96198
 20 
0.54175
 30 
0.0
 0 
VERTEX
 8 
1
 10 
0.9735
 20 
0.53402
 30 
0.0
 0 
VERTEX
 8 
1
 10 
0.98298
 20 
0.52641
 30 
0.0
 0 
VERTEX
 8 
1
 10 
0.9904
 20 
0.51925
 30 
0.0
 0 
VERTEX
 8 
1
 10 
0.99578
 20 
0.51234
 30 
0.0
 0 
VERTEX
 8 
1
 10 
0.99898
 20 
0.50566
 30 
0.0
 0 
VERTEX
 8 
1
 10 
1
 20 
0.5
 30 
0.0
 0 
VERTEX
 8 
1
 10 
0.99898
 20 
0.49752
 30 
0.0
 0 
VERTEX
 8 
1
 10 
0.99578
 20 
0.4944
 30 
0.0
 0 
VERTEX
 8 
1
 10 
0.9904
 20 
0.49093
 30 
0.0
 0 
VERTEX
 8 
1
 10 
0.98298
 20 
0.48728
 30 
0.0
 0 
VERTEX
 8 
1
 10 
0.9735
 20 
0.48344
 30 
0.0
 0 
VERTEX
 8 
1
 10 
0.96198
 20 
0.47973
 30 
0.0
 0 
VERTEX
 8 
1
 10 
0.94842
 20 
0.47588
 30 
0.0
 0 
VERTEX
 8 
1
 10 
0.93306
 20 
0.47214
 30 
0.0
 0 
VERTEX
 8 
1
 10 
0.91578
 20 
0.4684
 30 
0.0
 0 
VERTEX
 8 
1
 10 
0.8967
 20 
0.46482
 30 
0.0
 0 
VERTEX
 8 
1
 10 
0.87597
 20 
0.4613
 30 
0.0
 0 
VERTEX
 8 
1
 10 
0.85357
 20 
0.45801
 30 
0.0
 0 
VERTEX
 8 
1
 10 
0.82963
 20 
0.45489
 30 
0.0
 0 
VERTEX
 8 
1
 10 
0.80442
 20 
0.45208
 30 
0.0
 0 
VERTEX
 8 
1
 10 
0.77779
 20 
0.44956
 30 
0.0
 0 
VERTEX
 8 
1
 10 
0.75002
 20 
0.44748
 30 
0.0
 0 
VERTEX
 8 
1
 10 
0.72109
 20 
0.44579
 30 
0.0
 0 
VERTEX
 8 
1
 10 
0.69139
 20 
0.44463
 30 
0.0
 0 
VERTEX
 8 
1
 10 
0.66067
 20 
0.44391
 30 
0.0
 0 
VERTEX
 8 
1
 10 
0.62944
 20 
0.44375
 30 
0.0
 0 
VERTEX
 8 
1
 10 
0.59757
 20 
0.44415
 30 
0.0
 0 
VERTEX
 8 
1
 10 
0.56531
 20 
0.44526
 30 
0.0
 0 
VERTEX
 8 
1
 10 
0.53267
 20 
0.44707
 30 
0.0
 0 
VERTEX
 8 
1
 10 
0.50003
 20 
0.44961
 30 
0.0
 0 
VERTEX
 8 
1
 10 
0.46726
 20 
0.45281
 30 
0.0
 0 
VERTEX
 8 
1
 10 
0.43475
 20 
0.45676
 30 
0.0
 0 
VERTEX
 8 
1
 10 
0.4025
 20 
0.46155
 30 
0.0
 0 
VERTEX
 8 
1
 10 
0.37062
 20 
0.46712
 30 
0.0
 0 
VERTEX
 8 
1
 10 
0.33926
 20 
0.47315
 30 
0.0
 0 
VERTEX
 8 
1
 10 
0.30867
 20 
0.47921
 30 
0.0
 0 
VERTEX
 8 
1
 10 
0.27885
 20 
0.48483
 30 
0.0
 0 
VERTEX
 8 
1
 10 
0.25005
 20 
0.48986
 30 
0.0
 0 
VERTEX
 8 
1
 10 
0.22227
 20 
0.49424
 30 
0.0
 0 
VERTEX
 8 
1
 10 
0.19565
 20 
0.49799
 30 
0.0
 0 
VERTEX
 8 
1
 10 
0.1703
 20 
0.5011
 30 
0.0
 0 
VERTEX
 8 
1
 10 
0.1465
 20 
0.50358
 30 
0.0
 0 
VERTEX
 8 
1
 10 
0.1241
 20 
0.50542
 30 
0.0
 0 
VERTEX
 8 
1
 10 
0.10356
 20 
0.50667
 30 
0.0
 0 
VERTEX
 8 
1
 10 
0.08429
 20 
0.50734
 30 
0.0
 0 
VERTEX
 8 
1
 10 
0.06701
 20 
0.50749
 30 
0.0
 0 
VERTEX
 8 
1
 10 
0.05152
 20 
0.50715
 30 
0.0
 0 
VERTEX
 8 
1
 10 
0.03808
 20 
0.50637
 30 
0.0
 0 
VERTEX
 8 
1
 10 
0.02656
 20 
0.50526
 30 
0.0
 0 
VERTEX
 8 
1
 10 
0.017090
 20 
0.50392
 30 
0.0
 0 
VERTEX
 8 
1
 10 
0.00966
 20 
0.50273
 30 
0.0
 0 
VERTEX
 8 
1
 10 
0.0042900
 20 
0.5015
 30 
0.0
 0 
VERTEX
 8 
1
 10 
0.0010900
 20 
0.50044
 30 
0.0
 0 
VERTEX
 8 
1
 10 
0.0
 20 
0.5
 30 
0.0
 0 
SEQEND
 8 
1
 0 
ENDSEC
 0 
EOF
