 0 
SECTION
 2 
ENTITIES
 0 
POLYLINE
 8 
1
 66 
 1 
 10 
0.0
 20 
0.0
 30 
0.0
 0 
VERTEX
 8 
1
 10 
0.0
 20 
0.5
 30 
0.0
 0 
VERTEX
 8 
1
 10 
0.0010700
 20 
0.50034
 30 
0.0
 0 
VERTEX
 8 
1
 10 
0.0042799
 20 
0.5018
 30 
0.0
 0 
VERTEX
 8 
1
 10 
0.0096100
 20 
0.50394
 30 
0.0
 0 
VERTEX
 8 
1
 10 
0.017040
 20 
0.50661
 30 
0.0
 0 
VERTEX
 8 
1
 10 
0.026530
 20 
0.50994
 30 
0.0
 0 
VERTEX
 8 
1
 10 
0.03806
 20 
0.51363
 30 
0.0
 0 
VERTEX
 8 
1
 10 
0.051560
 20 
0.51759
 30 
0.0
 0 
VERTEX
 8 
1
 10 
0.06699
 20 
0.52183
 30 
0.0
 0 
VERTEX
 8 
1
 10 
0.08427
 20 
0.52637
 30 
0.0
 0 
VERTEX
 8 
1
 10 
0.10332
 20 
0.53123
 30 
0.0
 0 
VERTEX
 8 
1
 10 
0.12408
 20 
0.53645
 30 
0.0
 0 
VERTEX
 8 
1
 10 
0.14645
 20 
0.54203
 30 
0.0
 0 
VERTEX
 8 
1
 10 
0.17033
 20 
0.54797
 30 
0.0
 0 
VERTEX
 8 
1
 10 
0.19562
 20 
0.55425
 30 
0.0
 0 
VERTEX
 8 
1
 10 
0.22221
 20 
0.56076
 30 
0.0
 0 
VERTEX
 8 
1
 10 
0.25
 20 
0.56732
 30 
0.0
 0 
VERTEX
 8 
1
 10 
0.27886
 20 
0.57374
 30 
0.0
 0 
VERTEX
 8 
1
 10 
0.30866
 20 
0.57976
 30 
0.0
 0 
VERTEX
 8 
1
 10 
0.33928
 20 
0.58523
 30 
0.0
 0 
VERTEX
 8 
1
 10 
0.37059
 20 
0.59
 30 
0.0
 0 
VERTEX
 8 
1
 10 
0.40245
 20 
0.59402
 30 
0.0
 0 
VERTEX
 8 
1
 10 
0.43474
 20 
0.59728
 30 
0.0
 0 
VERTEX
 8 
1
 10 
0.4673
 20 
0.59983
 30 
0.0
 0 
VERTEX
 8 
1
 10 
0.5
 20 
0.60173
 30 
0.0
 0 
VERTEX
 8 
1
 10 
0.5327
 20 
0.603
 30 
0.0
 0 
VERTEX
 8 
1
 10 
0.56526
 20 
0.60355
 30 
0.0
 0 
VERTEX
 8 
1
 10 
0.59755
 20 
0.60337
 30 
0.0
 0 
VERTEX
 8 
1
 10 
0.62941
 20 
0.60245
 30 
0.0
 0 
VERTEX
 8 
1
 10 
0.66072
 20 
0.60084
 30 
0.0
 0 
VERTEX
 8 
1
 10 
0.69134
 20 
0.5986
 30 
0.0
 0 
VERTEX
 8 
1
 10 
0.72114
 20 
0.59577
 30 
0.0
 0 
VERTEX
 8 
1
 10 
0.75
 20 
0.59232
 30 
0.0
 0 
VERTEX
 8 
1
 10 
0.77779
 20 
0.58829
 30 
0.0
 0 
VERTEX
 8 
1
 10 
0.80438
 20 
0.58369
 30 
0.0
 0 
VERTEX
 8 
1
 10 
0.82967
 20 
0.57859
 30 
0.0
 0 
VERTEX
 8 
1
 10 
0.85355
 20 
0.57306
 30 
0.0
 0 
VERTEX
 8 
1
 10 
0.87592
 20 
0.56721
 30 
0.0
 0 
VERTEX
 8 
1
 10 
0.89668
 20 
0.56108
 30 
0.0
 0 
VERTEX
 8 
1
 10 
0.91573
 20 
0.55477
 30 
0.0
 0 
VERTEX
 8 
1
 10 
0.93301
 20 
0.5483
 30 
0.0
 0 
VERTEX
 8 
1
 10 
0.94844
 20 
0.54175
 30 
0.0
 0 
VERTEX
 8 
1
 10 
0.96194
 20 
0.53511
 30 
0.0
 0 
VERTEX
 8 
1
 10 
0.97347
 20 
0.52855
 30 
0.0
 0 
VERTEX
 8 
1
 10 
0.98296
 20 
0.52207
 30 
0.0
 0 
VERTEX
 8 
1
 10 
0.99039
 20 
0.51606
 30 
0.0
 0 
VERTEX
 8 
1
 10 
0.99572
 20 
0.51037
 30 
0.0
 0 
VERTEX
 8 
1
 10 
0.99893
 20 
0.50516
 30 
0.0
 0 
VERTEX
 8 
1
 10 
1
 20 
0.5
 30 
0.0
 0 
VERTEX
 8 
1
 10 
0.99893
 20 
0.49841
 30 
0.0
 0 
VERTEX
 8 
1
 10 
0.99572
 20 
0.49614
 30 
0.0
 0 
VERTEX
 8 
1
 10 
0.99039
 20 
0.49387
 30 
0.0
 0 
VERTEX
 8 
1
 10 
0.98296
 20 
0.49163
 30 
0.0
 0 
VERTEX
 8 
1
 10 
0.97347
 20 
0.48939
 30 
0.0
 0 
VERTEX
 8 
1
 10 
0.96194
 20 
0.48718
 30 
0.0
 0 
VERTEX
 8 
1
 10 
0.94844
 20 
0.48514
 30 
0.0
 0 
VERTEX
 8 
1
 10 
0.93301
 20 
0.48318
 30 
0.0
 0 
VERTEX
 8 
1
 10 
0.91573
 20 
0.48138
 30 
0.0
 0 
VERTEX
 8 
1
 10 
0.89668
 20 
0.47963
 30 
0.0
 0 
VERTEX
 8 
1
 10 
0.87592
 20 
0.47805
 30 
0.0
 0 
VERTEX
 8 
1
 10 
0.85355
 20 
0.47655
 30 
0.0
 0 
VERTEX
 8 
1
 10 
0.82967
 20 
0.47524
 30 
0.0
 0 
VERTEX
 8 
1
 10 
0.80438
 20 
0.47404
 30 
0.0
 0 
VERTEX
 8 
1
 10 
0.77779
 20 
0.47304
 30 
0.0
 0 
VERTEX
 8 
1
 10 
0.75
 20 
0.47224
 30 
0.0
 0 
VERTEX
 8 
1
 10 
0.72114
 20 
0.47172
 30 
0.0
 0 
VERTEX
 8 
1
 10 
0.69134
 20 
0.47147
 30 
0.0
 0 
VERTEX
 8 
1
 10 
0.66072
 20 
0.47154
 30 
0.0
 0 
VERTEX
 8 
1
 10 
0.62941
 20 
0.47186
 30 
0.0
 0 
VERTEX
 8 
1
 10 
0.59755
 20 
0.47248
 30 
0.0
 0 
VERTEX
 8 
1
 10 
0.56526
 20 
0.47334
 30 
0.0
 0 
VERTEX
 8 
1
 10 
0.5327
 20 
0.47452
 30 
0.0
 0 
VERTEX
 8 
1
 10 
0.5
 20 
0.47605
 30 
0.0
 0 
VERTEX
 8 
1
 10 
0.4673
 20 
0.47801
 30 
0.0
 0 
VERTEX
 8 
1
 10 
0.43474
 20 
0.48038
 30 
0.0
 0 
VERTEX
 8 
1
 10 
0.40245
 20 
0.48317
 30 
0.0
 0 
VERTEX
 8 
1
 10 
0.37059
 20 
0.4863
 30 
0.0
 0 
VERTEX
 8 
1
 10 
0.33928
 20 
0.48975
 30 
0.0
 0 
VERTEX
 8 
1
 10 
0.30866
 20 
0.49354
 30 
0.0
 0 
VERTEX
 8 
1
 10 
0.27886
 20 
0.49761
 30 
0.0
 0 
VERTEX
 8 
1
 10 
0.25
 20 
0.50177
 30 
0.0
 0 
VERTEX
 8 
1
 10 
0.22221
 20 
0.50573
 30 
0.0
 0 
VERTEX
 8 
1
 10 
0.19562
 20 
0.50919
 30 
0.0
 0 
VERTEX
 8 
1
 10 
0.17033
 20 
0.51191
 30 
0.0
 0 
VERTEX
 8 
1
 10 
0.14645
 20 
0.51386
 30 
0.0
 0 
VERTEX
 8 
1
 10 
0.12408
 20 
0.51503
 30 
0.0
 0 
VERTEX
 8 
1
 10 
0.10332
 20 
0.51548
 30 
0.0
 0 
VERTEX
 8 
1
 10 
0.08427
 20 
0.51523
 30 
0.0
 0 
VERTEX
 8 
1
 10 
0.06699
 20 
0.51437
 30 
0.0
 0 
VERTEX
 8 
1
 10 
0.051560
 20 
0.51293
 30 
0.0
 0 
VERTEX
 8 
1
 10 
0.03806
 20 
0.51102
 30 
0.0
 0 
VERTEX
 8 
1
 10 
0.026530
 20 
0.50876
 30 
0.0
 0 
VERTEX
 8 
1
 10 
0.017040
 20 
0.50636
 30 
0.0
 0 
VERTEX
 8 
1
 10 
0.0096100
 20 
0.50427
 30 
0.0
 0 
VERTEX
 8 
1
 10 
0.0042799
 20 
0.50228
 30 
0.0
 0 
VERTEX
 8 
1
 10 
0.0010700
 20 
0.50062
 30 
0.0
 0 
VERTEX
 8 
1
 10 
0.0
 20 
0.5
 30 
0.0
 0 
SEQEND
 8 
1
 0 
ENDSEC
 0 
EOF
