 0 
SECTION
 2 
ENTITIES
 0 
POLYLINE
 8 
1
 66 
 1 
 10 
0.0
 20 
0.0
 30 
0.0
 0 
VERTEX
 8 
1
 10 
0.0
 20 
0.5
 30 
0.0
 0 
VERTEX
 8 
1
 10 
0.0010900
 20 
0.50073
 30 
0.0
 0 
VERTEX
 8 
1
 10 
0.0042900
 20 
0.5024
 30 
0.0
 0 
VERTEX
 8 
1
 10 
0.00966
 20 
0.50471
 30 
0.0
 0 
VERTEX
 8 
1
 10 
0.017090
 20 
0.50755
 30 
0.0
 0 
VERTEX
 8 
1
 10 
0.02656
 20 
0.511
 30 
0.0
 0 
VERTEX
 8 
1
 10 
0.03808
 20 
0.51488
 30 
0.0
 0 
VERTEX
 8 
1
 10 
0.05152
 20 
0.51915
 30 
0.0
 0 
VERTEX
 8 
1
 10 
0.06701
 20 
0.52382
 30 
0.0
 0 
VERTEX
 8 
1
 10 
0.08429
 20 
0.5289
 30 
0.0
 0 
VERTEX
 8 
1
 10 
0.10356
 20 
0.53442
 30 
0.0
 0 
VERTEX
 8 
1
 10 
0.1241
 20 
0.54034
 30 
0.0
 0 
VERTEX
 8 
1
 10 
0.1465
 20 
0.54669
 30 
0.0
 0 
VERTEX
 8 
1
 10 
0.1703
 20 
0.55343
 30 
0.0
 0 
VERTEX
 8 
1
 10 
0.19565
 20 
0.56053
 30 
0.0
 0 
VERTEX
 8 
1
 10 
0.22227
 20 
0.5679
 30 
0.0
 0 
VERTEX
 8 
1
 10 
0.25005
 20 
0.57541
 30 
0.0
 0 
VERTEX
 8 
1
 10 
0.27885
 20 
0.58278
 30 
0.0
 0 
VERTEX
 8 
1
 10 
0.30867
 20 
0.58968
 30 
0.0
 0 
VERTEX
 8 
1
 10 
0.33926
 20 
0.59584
 30 
0.0
 0 
VERTEX
 8 
1
 10 
0.37062
 20 
0.60111
 30 
0.0
 0 
VERTEX
 8 
1
 10 
0.4025
 20 
0.60548
 30 
0.0
 0 
VERTEX
 8 
1
 10 
0.43475
 20 
0.60899
 30 
0.0
 0 
VERTEX
 8 
1
 10 
0.46726
 20 
0.61167
 30 
0.0
 0 
VERTEX
 8 
1
 10 
0.50003
 20 
0.61356
 30 
0.0
 0 
VERTEX
 8 
1
 10 
0.53267
 20 
0.61463
 30 
0.0
 0 
VERTEX
 8 
1
 10 
0.56531
 20 
0.61494
 30 
0.0
 0 
VERTEX
 8 
1
 10 
0.59757
 20 
0.61448
 30 
0.0
 0 
VERTEX
 8 
1
 10 
0.62944
 20 
0.61331
 30 
0.0
 0 
VERTEX
 8 
1
 10 
0.66067
 20 
0.61151
 30 
0.0
 0 
VERTEX
 8 
1
 10 
0.69139
 20 
0.60879
 30 
0.0
 0 
VERTEX
 8 
1
 10 
0.72109
 20 
0.60546
 30 
0.0
 0 
VERTEX
 8 
1
 10 
0.75002
 20 
0.60156
 30 
0.0
 0 
VERTEX
 8 
1
 10 
0.77779
 20 
0.59712
 30 
0.0
 0 
VERTEX
 8 
1
 10 
0.80442
 20 
0.5922
 30 
0.0
 0 
VERTEX
 8 
1
 10 
0.82963
 20 
0.58688
 30 
0.0
 0 
VERTEX
 8 
1
 10 
0.85357
 20 
0.5809
 30 
0.0
 0 
VERTEX
 8 
1
 10 
0.87597
 20 
0.57467
 30 
0.0
 0 
VERTEX
 8 
1
 10 
0.8967
 20 
0.56815
 30 
0.0
 0 
VERTEX
 8 
1
 10 
0.91578
 20 
0.56142
 30 
0.0
 0 
VERTEX
 8 
1
 10 
0.93306
 20 
0.55453
 30 
0.0
 0 
VERTEX
 8 
1
 10 
0.94842
 20 
0.54755
 30 
0.0
 0 
VERTEX
 8 
1
 10 
0.96198
 20 
0.54049
 30 
0.0
 0 
VERTEX
 8 
1
 10 
0.9735
 20 
0.53344
 30 
0.0
 0 
VERTEX
 8 
1
 10 
0.98298
 20 
0.52643
 30 
0.0
 0 
VERTEX
 8 
1
 10 
0.9904
 20 
0.51974
 30 
0.0
 0 
VERTEX
 8 
1
 10 
0.99578
 20 
0.51325
 30 
0.0
 0 
VERTEX
 8 
1
 10 
0.99898
 20 
0.50711
 30 
0.0
 0 
VERTEX
 8 
1
 10 
1
 20 
0.5
 30 
0.0
 0 
VERTEX
 8 
1
 10 
0.99898
 20 
0.49834
 30 
0.0
 0 
VERTEX
 8 
1
 10 
0.99578
 20 
0.49522
 30 
0.0
 0 
VERTEX
 8 
1
 10 
0.9904
 20 
0.49215
 30 
0.0
 0 
VERTEX
 8 
1
 10 
0.98298
 20 
0.48918
 30 
0.0
 0 
VERTEX
 8 
1
 10 
0.9735
 20 
0.48629
 30 
0.0
 0 
VERTEX
 8 
1
 10 
0.96198
 20 
0.48355
 30 
0.0
 0 
VERTEX
 8 
1
 10 
0.94842
 20 
0.48097
 30 
0.0
 0 
VERTEX
 8 
1
 10 
0.93306
 20 
0.47851
 30 
0.0
 0 
VERTEX
 8 
1
 10 
0.91578
 20 
0.47615
 30 
0.0
 0 
VERTEX
 8 
1
 10 
0.8967
 20 
0.47389
 30 
0.0
 0 
VERTEX
 8 
1
 10 
0.87597
 20 
0.47174
 30 
0.0
 0 
VERTEX
 8 
1
 10 
0.85357
 20 
0.46974
 30 
0.0
 0 
VERTEX
 8 
1
 10 
0.82963
 20 
0.46788
 30 
0.0
 0 
VERTEX
 8 
1
 10 
0.80442
 20 
0.46618
 30 
0.0
 0 
VERTEX
 8 
1
 10 
0.77779
 20 
0.46467
 30 
0.0
 0 
VERTEX
 8 
1
 10 
0.75002
 20 
0.4634
 30 
0.0
 0 
VERTEX
 8 
1
 10 
0.72109
 20 
0.46237
 30 
0.0
 0 
VERTEX
 8 
1
 10 
0.69139
 20 
0.46167
 30 
0.0
 0 
VERTEX
 8 
1
 10 
0.66067
 20 
0.4613
 30 
0.0
 0 
VERTEX
 8 
1
 10 
0.62944
 20 
0.46132
 30 
0.0
 0 
VERTEX
 8 
1
 10 
0.59757
 20 
0.46175
 30 
0.0
 0 
VERTEX
 8 
1
 10 
0.56531
 20 
0.46266
 30 
0.0
 0 
VERTEX
 8 
1
 10 
0.53267
 20 
0.46408
 30 
0.0
 0 
VERTEX
 8 
1
 10 
0.50003
 20 
0.4661
 30 
0.0
 0 
VERTEX
 8 
1
 10 
0.46726
 20 
0.46874
 30 
0.0
 0 
VERTEX
 8 
1
 10 
0.43475
 20 
0.47203
 30 
0.0
 0 
VERTEX
 8 
1
 10 
0.4025
 20 
0.47596
 30 
0.0
 0 
VERTEX
 8 
1
 10 
0.37062
 20 
0.48053
 30 
0.0
 0 
VERTEX
 8 
1
 10 
0.33926
 20 
0.48557
 30 
0.0
 0 
VERTEX
 8 
1
 10 
0.30867
 20 
0.49086
 30 
0.0
 0 
VERTEX
 8 
1
 10 
0.27885
 20 
0.49601
 30 
0.0
 0 
VERTEX
 8 
1
 10 
0.25005
 20 
0.50068
 30 
0.0
 0 
VERTEX
 8 
1
 10 
0.22227
 20 
0.5046
 30 
0.0
 0 
VERTEX
 8 
1
 10 
0.19565
 20 
0.50772
 30 
0.0
 0 
VERTEX
 8 
1
 10 
0.1703
 20 
0.51004
 30 
0.0
 0 
VERTEX
 8 
1
 10 
0.1465
 20 
0.51164
 30 
0.0
 0 
VERTEX
 8 
1
 10 
0.1241
 20 
0.51255
 30 
0.0
 0 
VERTEX
 8 
1
 10 
0.10356
 20 
0.51284
 30 
0.0
 0 
VERTEX
 8 
1
 10 
0.08429
 20 
0.51257
 30 
0.0
 0 
VERTEX
 8 
1
 10 
0.06701
 20 
0.51181
 30 
0.0
 0 
VERTEX
 8 
1
 10 
0.05152
 20 
0.5106
 30 
0.0
 0 
VERTEX
 8 
1
 10 
0.03808
 20 
0.50903
 30 
0.0
 0 
VERTEX
 8 
1
 10 
0.02656
 20 
0.50719
 30 
0.0
 0 
VERTEX
 8 
1
 10 
0.017090
 20 
0.50522
 30 
0.0
 0 
VERTEX
 8 
1
 10 
0.00966
 20 
0.5035
 30 
0.0
 0 
VERTEX
 8 
1
 10 
0.0042900
 20 
0.50186
 30 
0.0
 0 
VERTEX
 8 
1
 10 
0.0010900
 20 
0.50051
 30 
0.0
 0 
VERTEX
 8 
1
 10 
0.0
 20 
0.5
 30 
0.0
 0 
SEQEND
 8 
1
 0 
ENDSEC
 0 
EOF
