 0 
SECTION
 2 
ENTITIES
 0 
POLYLINE
 8 
1
 66 
 1 
 10 
0.0
 20 
0.0
 30 
0.0
 0 
VERTEX
 8 
1
 10 
0.0
 20 
0.5
 30 
0.0
 0 
VERTEX
 8 
1
 10 
0.0042799
 20 
0.50226
 30 
0.0
 0 
VERTEX
 8 
1
 10 
0.017040
 20 
0.50822
 30 
0.0
 0 
VERTEX
 8 
1
 10 
0.03806
 20 
0.51642
 30 
0.0
 0 
VERTEX
 8 
1
 10 
0.06699
 20 
0.52581
 30 
0.0
 0 
VERTEX
 8 
1
 10 
0.10332
 20 
0.53615
 30 
0.0
 0 
VERTEX
 8 
1
 10 
0.14645
 20 
0.54757
 30 
0.0
 0 
VERTEX
 8 
1
 10 
0.19562
 20 
0.56001
 30 
0.0
 0 
VERTEX
 8 
1
 10 
0.25
 20 
0.57305
 30 
0.0
 0 
VERTEX
 8 
1
 10 
0.30866
 20 
0.58596
 30 
0.0
 0 
VERTEX
 8 
1
 10 
0.37059
 20 
0.59788
 30 
0.0
 0 
VERTEX
 8 
1
 10 
0.43474
 20 
0.60799
 30 
0.0
 0 
VERTEX
 8 
1
 10 
0.5
 20 
0.61562
 30 
0.0
 0 
VERTEX
 8 
1
 10 
0.56526
 20 
0.62031
 30 
0.0
 0 
VERTEX
 8 
1
 10 
0.62941
 20 
0.6218
 30 
0.0
 0 
VERTEX
 8 
1
 10 
0.66072
 20 
0.6213
 30 
0.0
 0 
VERTEX
 8 
1
 10 
0.69134
 20 
0.61998
 30 
0.0
 0 
VERTEX
 8 
1
 10 
0.72114
 20 
0.61785
 30 
0.0
 0 
VERTEX
 8 
1
 10 
0.75
 20 
0.61492
 30 
0.0
 0 
VERTEX
 8 
1
 10 
0.77779
 20 
0.61122
 30 
0.0
 0 
VERTEX
 8 
1
 10 
0.80438
 20 
0.6068
 30 
0.0
 0 
VERTEX
 8 
1
 10 
0.82967
 20 
0.60168
 30 
0.0
 0 
VERTEX
 8 
1
 10 
0.85355
 20 
0.59591
 30 
0.0
 0 
VERTEX
 8 
1
 10 
0.87592
 20 
0.58955
 30 
0.0
 0 
VERTEX
 8 
1
 10 
0.89668
 20 
0.5827
 30 
0.0
 0 
VERTEX
 8 
1
 10 
0.91573
 20 
0.57552
 30 
0.0
 0 
VERTEX
 8 
1
 10 
0.93301
 20 
0.56812
 30 
0.0
 0 
VERTEX
 8 
1
 10 
0.94844
 20 
0.56052
 30 
0.0
 0 
VERTEX
 8 
1
 10 
0.96194
 20 
0.55264
 30 
0.0
 0 
VERTEX
 8 
1
 10 
0.97347
 20 
0.5443
 30 
0.0
 0 
VERTEX
 8 
1
 10 
0.98296
 20 
0.53548
 30 
0.0
 0 
VERTEX
 8 
1
 10 
0.99039
 20 
0.52636
 30 
0.0
 0 
VERTEX
 8 
1
 10 
0.99572
 20 
0.51742
 30 
0.0
 0 
VERTEX
 8 
1
 10 
0.99893
 20 
0.50927
 30 
0.0
 0 
VERTEX
 8 
1
 10 
1
 20 
0.50241
 30 
0.0
 0 
VERTEX
 8 
1
 10 
0.99893
 20 
0.49704
 30 
0.0
 0 
VERTEX
 8 
1
 10 
0.99572
 20 
0.49298
 30 
0.0
 0 
VERTEX
 8 
1
 10 
0.99039
 20 
0.48984
 30 
0.0
 0 
VERTEX
 8 
1
 10 
0.98296
 20 
0.48725
 30 
0.0
 0 
VERTEX
 8 
1
 10 
0.97347
 20 
0.48497
 30 
0.0
 0 
VERTEX
 8 
1
 10 
0.96194
 20 
0.48294
 30 
0.0
 0 
VERTEX
 8 
1
 10 
0.94844
 20 
0.48121
 30 
0.0
 0 
VERTEX
 8 
1
 10 
0.93301
 20 
0.47982
 30 
0.0
 0 
VERTEX
 8 
1
 10 
0.91573
 20 
0.47877
 30 
0.0
 0 
VERTEX
 8 
1
 10 
0.89668
 20 
0.47801
 30 
0.0
 0 
VERTEX
 8 
1
 10 
0.87592
 20 
0.47752
 30 
0.0
 0 
VERTEX
 8 
1
 10 
0.85355
 20 
0.47728
 30 
0.0
 0 
VERTEX
 8 
1
 10 
0.82967
 20 
0.47733
 30 
0.0
 0 
VERTEX
 8 
1
 10 
0.80438
 20 
0.4777
 30 
0.0
 0 
VERTEX
 8 
1
 10 
0.77779
 20 
0.47843
 30 
0.0
 0 
VERTEX
 8 
1
 10 
0.75
 20 
0.47957
 30 
0.0
 0 
VERTEX
 8 
1
 10 
0.72114
 20 
0.48116
 30 
0.0
 0 
VERTEX
 8 
1
 10 
0.69134
 20 
0.48325
 30 
0.0
 0 
VERTEX
 8 
1
 10 
0.66072
 20 
0.48582
 30 
0.0
 0 
VERTEX
 8 
1
 10 
0.62941
 20 
0.48882
 30 
0.0
 0 
VERTEX
 8 
1
 10 
0.56526
 20 
0.49579
 30 
0.0
 0 
VERTEX
 8 
1
 10 
0.5
 20 
0.50341
 30 
0.0
 0 
VERTEX
 8 
1
 10 
0.43474
 20 
0.51092
 30 
0.0
 0 
VERTEX
 8 
1
 10 
0.37059
 20 
0.5176
 30 
0.0
 0 
VERTEX
 8 
1
 10 
0.30866
 20 
0.52287
 30 
0.0
 0 
VERTEX
 8 
1
 10 
0.25
 20 
0.52629
 30 
0.0
 0 
VERTEX
 8 
1
 10 
0.19562
 20 
0.52758
 30 
0.0
 0 
VERTEX
 8 
1
 10 
0.14645
 20 
0.52661
 30 
0.0
 0 
VERTEX
 8 
1
 10 
0.10332
 20 
0.52343
 30 
0.0
 0 
VERTEX
 8 
1
 10 
0.06699
 20 
0.51841
 30 
0.0
 0 
VERTEX
 8 
1
 10 
0.03806
 20 
0.51229
 30 
0.0
 0 
VERTEX
 8 
1
 10 
0.017040
 20 
0.50623
 30 
0.0
 0 
VERTEX
 8 
1
 10 
0.0042799
 20 
0.5017
 30 
0.0
 0 
VERTEX
 8 
1
 10 
0.0
 20 
0.5
 30 
0.0
 0 
SEQEND
 8 
1
 0 
ENDSEC
 0 
EOF
