 0 
SECTION
 2 
ENTITIES
 0 
POLYLINE
 8 
1
 66 
 1 
 10 
0.0
 20 
0.0
 30 
0.0
 0 
VERTEX
 8 
1
 10 
0.0
 20 
0.5
 30 
0.0
 0 
VERTEX
 8 
1
 10 
0.0010700
 20 
0.50082
 30 
0.0
 0 
VERTEX
 8 
1
 10 
0.0042799
 20 
0.50249
 30 
0.0
 0 
VERTEX
 8 
1
 10 
0.0096100
 20 
0.50501
 30 
0.0
 0 
VERTEX
 8 
1
 10 
0.017040
 20 
0.50818
 30 
0.0
 0 
VERTEX
 8 
1
 10 
0.026530
 20 
0.51189
 30 
0.0
 0 
VERTEX
 8 
1
 10 
0.03806
 20 
0.51601
 30 
0.0
 0 
VERTEX
 8 
1
 10 
0.051560
 20 
0.52043
 30 
0.0
 0 
VERTEX
 8 
1
 10 
0.06699
 20 
0.52516
 30 
0.0
 0 
VERTEX
 8 
1
 10 
0.08427
 20 
0.53018
 30 
0.0
 0 
VERTEX
 8 
1
 10 
0.10332
 20 
0.53553
 30 
0.0
 0 
VERTEX
 8 
1
 10 
0.12408
 20 
0.54114
 30 
0.0
 0 
VERTEX
 8 
1
 10 
0.14645
 20 
0.54711
 30 
0.0
 0 
VERTEX
 8 
1
 10 
0.17033
 20 
0.55323
 30 
0.0
 0 
VERTEX
 8 
1
 10 
0.19562
 20 
0.55962
 30 
0.0
 0 
VERTEX
 8 
1
 10 
0.22221
 20 
0.56605
 30 
0.0
 0 
VERTEX
 8 
1
 10 
0.25
 20 
0.57273
 30 
0.0
 0 
VERTEX
 8 
1
 10 
0.27886
 20 
0.57927
 30 
0.0
 0 
VERTEX
 8 
1
 10 
0.30866
 20 
0.5859
 30 
0.0
 0 
VERTEX
 8 
1
 10 
0.33928
 20 
0.59204
 30 
0.0
 0 
VERTEX
 8 
1
 10 
0.37059
 20 
0.59804
 30 
0.0
 0 
VERTEX
 8 
1
 10 
0.40245
 20 
0.60331
 30 
0.0
 0 
VERTEX
 8 
1
 10 
0.43474
 20 
0.60823
 30 
0.0
 0 
VERTEX
 8 
1
 10 
0.4673
 20 
0.61221
 30 
0.0
 0 
VERTEX
 8 
1
 10 
0.5
 20 
0.61578
 30 
0.0
 0 
VERTEX
 8 
1
 10 
0.5327
 20 
0.61833
 30 
0.0
 0 
VERTEX
 8 
1
 10 
0.56526
 20 
0.62042
 30 
0.0
 0 
VERTEX
 8 
1
 10 
0.59755
 20 
0.62137
 30 
0.0
 0 
VERTEX
 8 
1
 10 
0.62941
 20 
0.62191
 30 
0.0
 0 
VERTEX
 8 
1
 10 
0.66072
 20 
0.62128
 30 
0.0
 0 
VERTEX
 8 
1
 10 
0.69134
 20 
0.62024
 30 
0.0
 0 
VERTEX
 8 
1
 10 
0.72114
 20 
0.61792
 30 
0.0
 0 
VERTEX
 8 
1
 10 
0.75
 20 
0.61522
 30 
0.0
 0 
VERTEX
 8 
1
 10 
0.77779
 20 
0.61122
 30 
0.0
 0 
VERTEX
 8 
1
 10 
0.80438
 20 
0.60704
 30 
0.0
 0 
VERTEX
 8 
1
 10 
0.82967
 20 
0.60165
 30 
0.0
 0 
VERTEX
 8 
1
 10 
0.85355
 20 
0.59622
 30 
0.0
 0 
VERTEX
 8 
1
 10 
0.87592
 20 
0.58961
 30 
0.0
 0 
VERTEX
 8 
1
 10 
0.89668
 20 
0.58313
 30 
0.0
 0 
VERTEX
 8 
1
 10 
0.91573
 20 
0.57555
 30 
0.0
 0 
VERTEX
 8 
1
 10 
0.93301
 20 
0.56836
 30 
0.0
 0 
VERTEX
 8 
1
 10 
0.94844
 20 
0.56005
 30 
0.0
 0 
VERTEX
 8 
1
 10 
0.96194
 20 
0.55248
 30 
0.0
 0 
VERTEX
 8 
1
 10 
0.97347
 20 
0.5448
 30 
0.0
 0 
VERTEX
 8 
1
 10 
0.98296
 20 
0.53625
 30 
0.0
 0 
VERTEX
 8 
1
 10 
0.99039
 20 
0.5274
 30 
0.0
 0 
VERTEX
 8 
1
 10 
0.99572
 20 
0.5175
 30 
0.0
 0 
VERTEX
 8 
1
 10 
0.99893
 20 
0.509
 30 
0.0
 0 
VERTEX
 8 
1
 10 
1
 20 
0.5
 30 
0.0
 0 
VERTEX
 8 
1
 10 
0.99893
 20 
0.49768
 30 
0.0
 0 
VERTEX
 8 
1
 10 
0.99572
 20 
0.49434
 30 
0.0
 0 
VERTEX
 8 
1
 10 
0.99039
 20 
0.49005
 30 
0.0
 0 
VERTEX
 8 
1
 10 
0.98296
 20 
0.48746
 30 
0.0
 0 
VERTEX
 8 
1
 10 
0.97347
 20 
0.48463
 30 
0.0
 0 
VERTEX
 8 
1
 10 
0.96194
 20 
0.48302
 30 
0.0
 0 
VERTEX
 8 
1
 10 
0.94844
 20 
0.48113
 30 
0.0
 0 
VERTEX
 8 
1
 10 
0.93301
 20 
0.48008
 30 
0.0
 0 
VERTEX
 8 
1
 10 
0.91573
 20 
0.47878
 30 
0.0
 0 
VERTEX
 8 
1
 10 
0.89668
 20 
0.4782
 30 
0.0
 0 
VERTEX
 8 
1
 10 
0.87592
 20 
0.47744
 30 
0.0
 0 
VERTEX
 8 
1
 10 
0.85355
 20 
0.47737
 30 
0.0
 0 
VERTEX
 8 
1
 10 
0.82967
 20 
0.47723
 30 
0.0
 0 
VERTEX
 8 
1
 10 
0.80438
 20 
0.4778
 30 
0.0
 0 
VERTEX
 8 
1
 10 
0.77779
 20 
0.47839
 30 
0.0
 0 
VERTEX
 8 
1
 10 
0.75
 20 
0.47966
 30 
0.0
 0 
VERTEX
 8 
1
 10 
0.72114
 20 
0.48105
 30 
0.0
 0 
VERTEX
 8 
1
 10 
0.69134
 20 
0.48312
 30 
0.0
 0 
VERTEX
 8 
1
 10 
0.66072
 20 
0.4854
 30 
0.0
 0 
VERTEX
 8 
1
 10 
0.62941
 20 
0.48833
 30 
0.0
 0 
VERTEX
 8 
1
 10 
0.59755
 20 
0.49152
 30 
0.0
 0 
VERTEX
 8 
1
 10 
0.56526
 20 
0.49514
 30 
0.0
 0 
VERTEX
 8 
1
 10 
0.5327
 20 
0.49897
 30 
0.0
 0 
VERTEX
 8 
1
 10 
0.5
 20 
0.50307
 30 
0.0
 0 
VERTEX
 8 
1
 10 
0.4673
 20 
0.50716
 30 
0.0
 0 
VERTEX
 8 
1
 10 
0.43474
 20 
0.51112
 30 
0.0
 0 
VERTEX
 8 
1
 10 
0.40245
 20 
0.51475
 30 
0.0
 0 
VERTEX
 8 
1
 10 
0.37059
 20 
0.51813
 30 
0.0
 0 
VERTEX
 8 
1
 10 
0.33928
 20 
0.52098
 30 
0.0
 0 
VERTEX
 8 
1
 10 
0.30866
 20 
0.52345
 30 
0.0
 0 
VERTEX
 8 
1
 10 
0.27886
 20 
0.5253
 30 
0.0
 0 
VERTEX
 8 
1
 10 
0.25
 20 
0.52668
 30 
0.0
 0 
VERTEX
 8 
1
 10 
0.22221
 20 
0.52745
 30 
0.0
 0 
VERTEX
 8 
1
 10 
0.19562
 20 
0.52768
 30 
0.0
 0 
VERTEX
 8 
1
 10 
0.17033
 20 
0.52729
 30 
0.0
 0 
VERTEX
 8 
1
 10 
0.14645
 20 
0.52631
 30 
0.0
 0 
VERTEX
 8 
1
 10 
0.12408
 20 
0.52479
 30 
0.0
 0 
VERTEX
 8 
1
 10 
0.10332
 20 
0.52284
 30 
0.0
 0 
VERTEX
 8 
1
 10 
0.08427
 20 
0.52052
 30 
0.0
 0 
VERTEX
 8 
1
 10 
0.06699
 20 
0.51794
 30 
0.0
 0 
VERTEX
 8 
1
 10 
0.051560
 20 
0.51514
 30 
0.0
 0 
VERTEX
 8 
1
 10 
0.03806
 20 
0.51219
 30 
0.0
 0 
VERTEX
 8 
1
 10 
0.026530
 20 
0.50921
 30 
0.0
 0 
VERTEX
 8 
1
 10 
0.017040
 20 
0.5063
 30 
0.0
 0 
VERTEX
 8 
1
 10 
0.0096100
 20 
0.50373
 30 
0.0
 0 
VERTEX
 8 
1
 10 
0.0042799
 20 
0.50169
 30 
0.0
 0 
VERTEX
 8 
1
 10 
0.0010700
 20 
0.5004
 30 
0.0
 0 
VERTEX
 8 
1
 10 
0.0
 20 
0.5
 30 
0.0
 0 
SEQEND
 8 
1
 0 
ENDSEC
 0 
EOF
