 0 
SECTION
 2 
ENTITIES
 0 
POLYLINE
 8 
1
 66 
 1 
 10 
0.0
 20 
0.0
 30 
0.0
 0 
VERTEX
 8 
1
 10 
0.0
 20 
0.5
 30 
0.0
 0 
VERTEX
 8 
1
 10 
0.052
 20 
0.51511
 30 
0.0
 0 
VERTEX
 8 
1
 10 
0.104
 20 
0.52641
 30 
0.0
 0 
VERTEX
 8 
1
 10 
0.196
 20 
0.54476
 30 
0.0
 0 
VERTEX
 8 
1
 10 
0.309
 20 
0.56516
 30 
0.0
 0 
VERTEX
 8 
1
 10 
0.403
 20 
0.57888
 30 
0.0
 0 
VERTEX
 8 
1
 10 
0.5
 20 
0.58893
 30 
0.0
 0 
VERTEX
 8 
1
 10 
0.598
 20 
0.59363
 30 
0.0
 0 
VERTEX
 8 
1
 10 
0.692
 20 
0.59315
 30 
0.0
 0 
VERTEX
 8 
1
 10 
0.75
 20 
0.58943
 30 
0.0
 0 
VERTEX
 8 
1
 10 
0.804
 20 
0.58318
 30 
0.0
 0 
VERTEX
 8 
1
 10 
0.854
 20 
0.57487
 30 
0.0
 0 
VERTEX
 8 
1
 10 
0.897
 20 
0.56484
 30 
0.0
 0 
VERTEX
 8 
1
 10 
0.933
 20 
0.55325
 30 
0.0
 0 
VERTEX
 8 
1
 10 
0.962
 20 
0.54104
 30 
0.0
 0 
VERTEX
 8 
1
 10 
0.974
 20 
0.53437
 30 
0.0
 0 
VERTEX
 8 
1
 10 
0.991
 20 
0.52147
 30 
0.0
 0 
VERTEX
 8 
1
 10 
1
 20 
0.5
 30 
0.0
 0 
VERTEX
 8 
1
 10 
0.991
 20 
0.49123
 30 
0.0
 0 
VERTEX
 8 
1
 10 
0.974
 20 
0.48563
 30 
0.0
 0 
VERTEX
 8 
1
 10 
0.897
 20 
0.47976
 30 
0.0
 0 
VERTEX
 8 
1
 10 
0.854
 20 
0.47883
 30 
0.0
 0 
VERTEX
 8 
1
 10 
0.804
 20 
0.47872
 30 
0.0
 0 
VERTEX
 8 
1
 10 
0.75
 20 
0.47987
 30 
0.0
 0 
VERTEX
 8 
1
 10 
0.692
 20 
0.48315
 30 
0.0
 0 
VERTEX
 8 
1
 10 
0.598
 20 
0.49027
 30 
0.0
 0 
VERTEX
 8 
1
 10 
0.5
 20 
0.49792
 30 
0.0
 0 
VERTEX
 8 
1
 10 
0.403
 20 
0.50732
 30 
0.0
 0 
VERTEX
 8 
1
 10 
0.309
 20 
0.51464
 30 
0.0
 0 
VERTEX
 8 
1
 10 
0.196
 20 
0.51894
 30 
0.0
 0 
VERTEX
 8 
1
 10 
0.104
 20 
0.51599
 30 
0.0
 0 
VERTEX
 8 
1
 10 
0.052
 20 
0.51079
 30 
0.0
 0 
VERTEX
 8 
1
 10 
0.0
 20 
0.5
 30 
0.0
 0 
SEQEND
 8 
1
 0 
ENDSEC
 0 
EOF
