 0 
SECTION
 2 
ENTITIES
 0 
POLYLINE
 8 
1
 66 
 1 
 10 
0.0
 20 
0.0
 30 
0.0
 0 
VERTEX
 8 
1
 10 
0.0
 20 
0.5
 30 
0.0
 0 
VERTEX
 8 
1
 10 
0.0010900
 20 
0.50089
 30 
0.0
 0 
VERTEX
 8 
1
 10 
0.0042900
 20 
0.50241
 30 
0.0
 0 
VERTEX
 8 
1
 10 
0.00966
 20 
0.50466
 30 
0.0
 0 
VERTEX
 8 
1
 10 
0.017090
 20 
0.5075
 30 
0.0
 0 
VERTEX
 8 
1
 10 
0.02656
 20 
0.51084
 30 
0.0
 0 
VERTEX
 8 
1
 10 
0.03808
 20 
0.51446
 30 
0.0
 0 
VERTEX
 8 
1
 10 
0.05152
 20 
0.51825
 30 
0.0
 0 
VERTEX
 8 
1
 10 
0.06701
 20 
0.52229
 30 
0.0
 0 
VERTEX
 8 
1
 10 
0.08429
 20 
0.52654
 30 
0.0
 0 
VERTEX
 8 
1
 10 
0.10356
 20 
0.53109
 30 
0.0
 0 
VERTEX
 8 
1
 10 
0.1247
 20 
0.5358
 30 
0.0
 0 
VERTEX
 8 
1
 10 
0.1465
 20 
0.54079
 30 
0.0
 0 
VERTEX
 8 
1
 10 
0.1703
 20 
0.54589
 30 
0.0
 0 
VERTEX
 8 
1
 10 
0.19565
 20 
0.55124
 30 
0.0
 0 
VERTEX
 8 
1
 10 
0.22227
 20 
0.55662
 30 
0.0
 0 
VERTEX
 8 
1
 10 
0.25005
 20 
0.56224
 30 
0.0
 0 
VERTEX
 8 
1
 10 
0.27885
 20 
0.56777
 30 
0.0
 0 
VERTEX
 8 
1
 10 
0.30867
 20 
0.57354
 30 
0.0
 0 
VERTEX
 8 
1
 10 
0.33926
 20 
0.57907
 30 
0.0
 0 
VERTEX
 8 
1
 10 
0.37062
 20 
0.58483
 30 
0.0
 0 
VERTEX
 8 
1
 10 
0.4025
 20 
0.59025
 30 
0.0
 0 
VERTEX
 8 
1
 10 
0.43475
 20 
0.59578
 30 
0.0
 0 
VERTEX
 8 
1
 10 
0.46726
 20 
0.6007
 30 
0.0
 0 
VERTEX
 8 
1
 10 
0.50003
 20 
0.60557
 30 
0.0
 0 
VERTEX
 8 
1
 10 
0.53267
 20 
0.60949
 30 
0.0
 0 
VERTEX
 8 
1
 10 
0.56531
 20 
0.61306
 30 
0.0
 0 
VERTEX
 8 
1
 10 
0.59757
 20 
0.61511
 30 
0.0
 0 
VERTEX
 8 
1
 10 
0.62944
 20 
0.61662
 30 
0.0
 0 
VERTEX
 8 
1
 10 
0.66067
 20 
0.61645
 30 
0.0
 0 
VERTEX
 8 
1
 10 
0.69139
 20 
0.61581
 30 
0.0
 0 
VERTEX
 8 
1
 10 
0.72109
 20 
0.61344
 30 
0.0
 0 
VERTEX
 8 
1
 10 
0.75002
 20 
0.61092
 30 
0.0
 0 
VERTEX
 8 
1
 10 
0.77779
 20 
0.60665
 30 
0.0
 0 
VERTEX
 8 
1
 10 
0.80442
 20 
0.60256
 30 
0.0
 0 
VERTEX
 8 
1
 10 
0.82963
 20 
0.59664
 30 
0.0
 0 
VERTEX
 8 
1
 10 
0.85357
 20 
0.59132
 30 
0.0
 0 
VERTEX
 8 
1
 10 
0.87597
 20 
0.58407
 30 
0.0
 0 
VERTEX
 8 
1
 10 
0.8967
 20 
0.57787
 30 
0.0
 0 
VERTEX
 8 
1
 10 
0.91578
 20 
0.56959
 30 
0.0
 0 
VERTEX
 8 
1
 10 
0.93306
 20 
0.56285
 30 
0.0
 0 
VERTEX
 8 
1
 10 
0.94842
 20 
0.55387
 30 
0.0
 0 
VERTEX
 8 
1
 10 
0.96198
 20 
0.54706
 30 
0.0
 0 
VERTEX
 8 
1
 10 
0.9735
 20 
0.539
 30 
0.0
 0 
VERTEX
 8 
1
 10 
0.98298
 20 
0.53155
 30 
0.0
 0 
VERTEX
 8 
1
 10 
0.9904
 20 
0.524
 30 
0.0
 0 
VERTEX
 8 
1
 10 
0.99578
 20 
0.51661
 30 
0.0
 0 
VERTEX
 8 
1
 10 
0.99898
 20 
0.5082
 30 
0.0
 0 
VERTEX
 8 
1
 10 
1
 20 
0.5
 30 
0.0
 0 
VERTEX
 8 
1
 10 
0.99898
 20 
0.498
 30 
0.0
 0 
VERTEX
 8 
1
 10 
0.99578
 20 
0.4957
 30 
0.0
 0 
VERTEX
 8 
1
 10 
0.9904
 20 
0.49281
 30 
0.0
 0 
VERTEX
 8 
1
 10 
0.98298
 20 
0.4905
 30 
0.0
 0 
VERTEX
 8 
1
 10 
0.9735
 20 
0.48716
 30 
0.0
 0 
VERTEX
 8 
1
 10 
0.96198
 20 
0.48502
 30 
0.0
 0 
VERTEX
 8 
1
 10 
0.94842
 20 
0.48099
 30 
0.0
 0 
VERTEX
 8 
1
 10 
0.93306
 20 
0.478
 30 
0.0
 0 
VERTEX
 8 
1
 10 
0.91578
 20 
0.4752
 30 
0.0
 0 
VERTEX
 8 
1
 10 
0.8967
 20 
0.4732
 30 
0.0
 0 
VERTEX
 8 
1
 10 
0.87597
 20 
0.46991
 30 
0.0
 0 
VERTEX
 8 
1
 10 
0.85357
 20 
0.46811
 30 
0.0
 0 
VERTEX
 8 
1
 10 
0.82963
 20 
0.4653
 30 
0.0
 0 
VERTEX
 8 
1
 10 
0.80442
 20 
0.46384
 30 
0.0
 0 
VERTEX
 8 
1
 10 
0.77779
 20 
0.46164
 30 
0.0
 0 
VERTEX
 8 
1
 10 
0.75002
 20 
0.46073
 30 
0.0
 0 
VERTEX
 8 
1
 10 
0.72109
 20 
0.45926
 30 
0.0
 0 
VERTEX
 8 
1
 10 
0.69139
 20 
0.45897
 30 
0.0
 0 
VERTEX
 8 
1
 10 
0.66067
 20 
0.45831
 30 
0.0
 0 
VERTEX
 8 
1
 10 
0.62944
 20 
0.45878
 30 
0.0
 0 
VERTEX
 8 
1
 10 
0.59757
 20 
0.45904
 30 
0.0
 0 
VERTEX
 8 
1
 10 
0.56531
 20 
0.46033
 30 
0.0
 0 
VERTEX
 8 
1
 10 
0.53267
 20 
0.46153
 30 
0.0
 0 
VERTEX
 8 
1
 10 
0.50003
 20 
0.46369
 30 
0.0
 0 
VERTEX
 8 
1
 10 
0.46726
 20 
0.46598
 30 
0.0
 0 
VERTEX
 8 
1
 10 
0.43475
 20 
0.46951
 30 
0.0
 0 
VERTEX
 8 
1
 10 
0.4025
 20 
0.47371
 30 
0.0
 0 
VERTEX
 8 
1
 10 
0.37062
 20 
0.4792
 30 
0.0
 0 
VERTEX
 8 
1
 10 
0.33926
 20 
0.48491
 30 
0.0
 0 
VERTEX
 8 
1
 10 
0.30867
 20 
0.4908
 30 
0.0
 0 
VERTEX
 8 
1
 10 
0.27885
 20 
0.49603
 30 
0.0
 0 
VERTEX
 8 
1
 10 
0.25005
 20 
0.50091
 30 
0.0
 0 
VERTEX
 8 
1
 10 
0.22227
 20 
0.50482
 30 
0.0
 0 
VERTEX
 8 
1
 10 
0.19565
 20 
0.50814
 30 
0.0
 0 
VERTEX
 8 
1
 10 
0.1703
 20 
0.51052
 30 
0.0
 0 
VERTEX
 8 
1
 10 
0.1465
 20 
0.51227
 30 
0.0
 0 
VERTEX
 8 
1
 10 
0.1247
 20 
0.51316
 30 
0.0
 0 
VERTEX
 8 
1
 10 
0.10356
 20 
0.5135
 30 
0.0
 0 
VERTEX
 8 
1
 10 
0.08429
 20 
0.51316
 30 
0.0
 0 
VERTEX
 8 
1
 10 
0.06701
 20 
0.51234
 30 
0.0
 0 
VERTEX
 8 
1
 10 
0.05152
 20 
0.51098
 30 
0.0
 0 
VERTEX
 8 
1
 10 
0.03808
 20 
0.50919
 30 
0.0
 0 
VERTEX
 8 
1
 10 
0.02656
 20 
0.50709
 30 
0.0
 0 
VERTEX
 8 
1
 10 
0.017090
 20 
0.50487
 30 
0.0
 0 
VERTEX
 8 
1
 10 
0.00966
 20 
0.50286
 30 
0.0
 0 
VERTEX
 8 
1
 10 
0.0042900
 20 
0.50126
 30 
0.0
 0 
VERTEX
 8 
1
 10 
0.0010900
 20 
0.50025
 30 
0.0
 0 
VERTEX
 8 
1
 10 
0.0
 20 
0.5
 30 
0.0
 0 
SEQEND
 8 
1
 0 
ENDSEC
 0 
EOF
