 0 
SECTION
 2 
ENTITIES
 0 
POLYLINE
 8 
1
 66 
 1 
 10 
0.0
 20 
0.0
 30 
0.0
 0 
VERTEX
 8 
1
 10 
0.0
 20 
0.5
 30 
0.0
 0 
VERTEX
 8 
1
 10 
0.0010700
 20 
0.50016
 30 
0.0
 0 
VERTEX
 8 
1
 10 
0.0096100
 20 
0.50258
 30 
0.0
 0 
VERTEX
 8 
1
 10 
0.026530
 20 
0.50759
 30 
0.0
 0 
VERTEX
 8 
1
 10 
0.051560
 20 
0.51396
 30 
0.0
 0 
VERTEX
 8 
1
 10 
0.08427
 20 
0.52139
 30 
0.0
 0 
VERTEX
 8 
1
 10 
0.12408
 20 
0.53026
 30 
0.0
 0 
VERTEX
 8 
1
 10 
0.14645
 20 
0.53531
 30 
0.0
 0 
VERTEX
 8 
1
 10 
0.17033
 20 
0.54078
 30 
0.0
 0 
VERTEX
 8 
1
 10 
0.19562
 20 
0.54662
 30 
0.0
 0 
VERTEX
 8 
1
 10 
0.22221
 20 
0.55282
 30 
0.0
 0 
VERTEX
 8 
1
 10 
0.25
 20 
0.55934
 30 
0.0
 0 
VERTEX
 8 
1
 10 
0.27886
 20 
0.56614
 30 
0.0
 0 
VERTEX
 8 
1
 10 
0.30866
 20 
0.57315
 30 
0.0
 0 
VERTEX
 8 
1
 10 
0.33928
 20 
0.58032
 30 
0.0
 0 
VERTEX
 8 
1
 10 
0.37059
 20 
0.58755
 30 
0.0
 0 
VERTEX
 8 
1
 10 
0.40245
 20 
0.59476
 30 
0.0
 0 
VERTEX
 8 
1
 10 
0.43474
 20 
0.60185
 30 
0.0
 0 
VERTEX
 8 
1
 10 
0.4673
 20 
0.60873
 30 
0.0
 0 
VERTEX
 8 
1
 10 
0.5
 20 
0.61512
 30 
0.0
 0 
VERTEX
 8 
1
 10 
0.5327
 20 
0.62065
 30 
0.0
 0 
VERTEX
 8 
1
 10 
0.56526
 20 
0.62492
 30 
0.0
 0 
VERTEX
 8 
1
 10 
0.59755
 20 
0.62774
 30 
0.0
 0 
VERTEX
 8 
1
 10 
0.62941
 20 
0.62897
 30 
0.0
 0 
VERTEX
 8 
1
 10 
0.66072
 20 
0.62874
 30 
0.0
 0 
VERTEX
 8 
1
 10 
0.69134
 20 
0.62705
 30 
0.0
 0 
VERTEX
 8 
1
 10 
0.72134
 20 
0.62409
 30 
0.0
 0 
VERTEX
 8 
1
 10 
0.75
 20 
0.61984
 30 
0.0
 0 
VERTEX
 8 
1
 10 
0.77779
 20 
0.6146
 30 
0.0
 0 
VERTEX
 8 
1
 10 
0.80438
 20 
0.6085
 30 
0.0
 0 
VERTEX
 8 
1
 10 
0.82967
 20 
0.60169
 30 
0.0
 0 
VERTEX
 8 
1
 10 
0.85355
 20 
0.59426
 30 
0.0
 0 
VERTEX
 8 
1
 10 
0.87592
 20 
0.58635
 30 
0.0
 0 
VERTEX
 8 
1
 10 
0.89668
 20 
0.57805
 30 
0.0
 0 
VERTEX
 8 
1
 10 
0.91573
 20 
0.56949
 30 
0.0
 0 
VERTEX
 8 
1
 10 
0.93301
 20 
0.56076
 30 
0.0
 0 
VERTEX
 8 
1
 10 
0.94844
 20 
0.55201
 30 
0.0
 0 
VERTEX
 8 
1
 10 
0.96194
 20 
0.54335
 30 
0.0
 0 
VERTEX
 8 
1
 10 
0.97347
 20 
0.53492
 30 
0.0
 0 
VERTEX
 8 
1
 10 
0.98296
 20 
0.52686
 30 
0.0
 0 
VERTEX
 8 
1
 10 
0.99039
 20 
0.51866
 30 
0.0
 0 
VERTEX
 8 
1
 10 
0.99572
 20 
0.51211
 30 
0.0
 0 
VERTEX
 8 
1
 10 
0.99893
 20 
0.50616
 30 
0.0
 0 
VERTEX
 8 
1
 10 
1
 20 
0.5
 30 
0.0
 0 
VERTEX
 8 
1
 10 
0.99893
 20 
0.4966
 30 
0.0
 0 
VERTEX
 8 
1
 10 
0.99572
 20 
0.49259
 30 
0.0
 0 
VERTEX
 8 
1
 10 
0.99039
 20 
0.48842
 30 
0.0
 0 
VERTEX
 8 
1
 10 
0.98296
 20 
0.48486
 30 
0.0
 0 
VERTEX
 8 
1
 10 
0.97347
 20 
0.48089
 30 
0.0
 0 
VERTEX
 8 
1
 10 
0.96194
 20 
0.47702
 30 
0.0
 0 
VERTEX
 8 
1
 10 
0.94844
 20 
0.47326
 30 
0.0
 0 
VERTEX
 8 
1
 10 
0.93301
 20 
0.46965
 30 
0.0
 0 
VERTEX
 8 
1
 10 
0.91573
 20 
0.46621
 30 
0.0
 0 
VERTEX
 8 
1
 10 
0.89668
 20 
0.46298
 30 
0.0
 0 
VERTEX
 8 
1
 10 
0.87592
 20 
0.45996
 30 
0.0
 0 
VERTEX
 8 
1
 10 
0.85355
 20 
0.4572
 30 
0.0
 0 
VERTEX
 8 
1
 10 
0.82967
 20 
0.45468
 30 
0.0
 0 
VERTEX
 8 
1
 10 
0.80438
 20 
0.45248
 30 
0.0
 0 
VERTEX
 8 
1
 10 
0.77779
 20 
0.45056
 30 
0.0
 0 
VERTEX
 8 
1
 10 
0.75
 20 
0.44902
 30 
0.0
 0 
VERTEX
 8 
1
 10 
0.72134
 20 
0.44782
 30 
0.0
 0 
VERTEX
 8 
1
 10 
0.69134
 20 
0.44708
 30 
0.0
 0 
VERTEX
 8 
1
 10 
0.66072
 20 
0.44679
 30 
0.0
 0 
VERTEX
 8 
1
 10 
0.62941
 20 
0.44712
 30 
0.0
 0 
VERTEX
 8 
1
 10 
0.59755
 20 
0.44802
 30 
0.0
 0 
VERTEX
 8 
1
 10 
0.56526
 20 
0.44963
 30 
0.0
 0 
VERTEX
 8 
1
 10 
0.5327
 20 
0.45204
 30 
0.0
 0 
VERTEX
 8 
1
 10 
0.5
 20 
0.45536
 30 
0.0
 0 
VERTEX
 8 
1
 10 
0.4673
 20 
0.4595
 30 
0.0
 0 
VERTEX
 8 
1
 10 
0.43474
 20 
0.46427
 30 
0.0
 0 
VERTEX
 8 
1
 10 
0.40245
 20 
0.46928
 30 
0.0
 0 
VERTEX
 8 
1
 10 
0.37059
 20 
0.47425
 30 
0.0
 0 
VERTEX
 8 
1
 10 
0.33928
 20 
0.47888
 30 
0.0
 0 
VERTEX
 8 
1
 10 
0.30866
 20 
0.48307
 30 
0.0
 0 
VERTEX
 8 
1
 10 
0.27886
 20 
0.48674
 30 
0.0
 0 
VERTEX
 8 
1
 10 
0.25
 20 
0.4899
 30 
0.0
 0 
VERTEX
 8 
1
 10 
0.22221
 20 
0.49256
 30 
0.0
 0 
VERTEX
 8 
1
 10 
0.19562
 20 
0.49478
 30 
0.0
 0 
VERTEX
 8 
1
 10 
0.17033
 20 
0.49658
 30 
0.0
 0 
VERTEX
 8 
1
 10 
0.14645
 20 
0.49799
 30 
0.0
 0 
VERTEX
 8 
1
 10 
0.12408
 20 
0.49903
 30 
0.0
 0 
VERTEX
 8 
1
 10 
0.08427
 20 
0.50019
 30 
0.0
 0 
VERTEX
 8 
1
 10 
0.051560
 20 
0.50063
 30 
0.0
 0 
VERTEX
 8 
1
 10 
0.026530
 20 
0.50068
 30 
0.0
 0 
VERTEX
 8 
1
 10 
0.0096100
 20 
0.50051
 30 
0.0
 0 
VERTEX
 8 
1
 10 
0.0010700
 20 
0.50016
 30 
0.0
 0 
VERTEX
 8 
1
 10 
0.0
 20 
0.5
 30 
0.0
 0 
SEQEND
 8 
1
 0 
ENDSEC
 0 
EOF
