 0 
SECTION
 2 
ENTITIES
 0 
POLYLINE
 8 
1
 66 
 1 
 10 
0.0
 20 
0.0
 30 
0.0
 0 
VERTEX
 8 
1
 10 
0.0
 20 
0.5
 30 
0.0
 0 
VERTEX
 8 
1
 10 
0.0010700
 20 
0.50022
 30 
0.0
 0 
VERTEX
 8 
1
 10 
0.0096100
 20 
0.50256
 30 
0.0
 0 
VERTEX
 8 
1
 10 
0.026530
 20 
0.50693
 30 
0.0
 0 
VERTEX
 8 
1
 10 
0.051560
 20 
0.51313
 30 
0.0
 0 
VERTEX
 8 
1
 10 
0.08427
 20 
0.52142
 30 
0.0
 0 
VERTEX
 8 
1
 10 
0.12408
 20 
0.53185
 30 
0.0
 0 
VERTEX
 8 
1
 10 
0.14645
 20 
0.5378
 30 
0.0
 0 
VERTEX
 8 
1
 10 
0.17033
 20 
0.54442
 30 
0.0
 0 
VERTEX
 8 
1
 10 
0.19562
 20 
0.55134
 30 
0.0
 0 
VERTEX
 8 
1
 10 
0.22221
 20 
0.55883
 30 
0.0
 0 
VERTEX
 8 
1
 10 
0.25
 20 
0.56647
 30 
0.0
 0 
VERTEX
 8 
1
 10 
0.27886
 20 
0.57447
 30 
0.0
 0 
VERTEX
 8 
1
 10 
0.30866
 20 
0.58251
 30 
0.0
 0 
VERTEX
 8 
1
 10 
0.33928
 20 
0.59081
 30 
0.0
 0 
VERTEX
 8 
1
 10 
0.37059
 20 
0.59886
 30 
0.0
 0 
VERTEX
 8 
1
 10 
0.40245
 20 
0.60683
 30 
0.0
 0 
VERTEX
 8 
1
 10 
0.43474
 20 
0.61414
 30 
0.0
 0 
VERTEX
 8 
1
 10 
0.4673
 20 
0.62098
 30 
0.0
 0 
VERTEX
 8 
1
 10 
0.5
 20 
0.62672
 30 
0.0
 0 
VERTEX
 8 
1
 10 
0.5327
 20 
0.63145
 30 
0.0
 0 
VERTEX
 8 
1
 10 
0.56526
 20 
0.6343
 30 
0.0
 0 
VERTEX
 8 
1
 10 
0.59755
 20 
0.63567
 30 
0.0
 0 
VERTEX
 8 
1
 10 
0.62941
 20 
0.63523
 30 
0.0
 0 
VERTEX
 8 
1
 10 
0.66072
 20 
0.63351
 30 
0.0
 0 
VERTEX
 8 
1
 10 
0.69134
 20 
0.63044
 30 
0.0
 0 
VERTEX
 8 
1
 10 
0.72134
 20 
0.62651
 30 
0.0
 0 
VERTEX
 8 
1
 10 
0.75
 20 
0.6215
 30 
0.0
 0 
VERTEX
 8 
1
 10 
0.77779
 20 
0.61587
 30 
0.0
 0 
VERTEX
 8 
1
 10 
0.80438
 20 
0.60937
 30 
0.0
 0 
VERTEX
 8 
1
 10 
0.82967
 20 
0.60241
 30 
0.0
 0 
VERTEX
 8 
1
 10 
0.85355
 20 
0.59476
 30 
0.0
 0 
VERTEX
 8 
1
 10 
0.87592
 20 
0.58684
 30 
0.0
 0 
VERTEX
 8 
1
 10 
0.89668
 20 
0.57841
 30 
0.0
 0 
VERTEX
 8 
1
 10 
0.91573
 20 
0.5699
 30 
0.0
 0 
VERTEX
 8 
1
 10 
0.93301
 20 
0.56108
 30 
0.0
 0 
VERTEX
 8 
1
 10 
0.94844
 20 
0.5524
 30 
0.0
 0 
VERTEX
 8 
1
 10 
0.96194
 20 
0.54362
 30 
0.0
 0 
VERTEX
 8 
1
 10 
0.97347
 20 
0.53523
 30 
0.0
 0 
VERTEX
 8 
1
 10 
0.98296
 20 
0.527
 30 
0.0
 0 
VERTEX
 8 
1
 10 
0.99039
 20 
0.51941
 30 
0.0
 0 
VERTEX
 8 
1
 10 
0.99572
 20 
0.51239
 30 
0.0
 0 
VERTEX
 8 
1
 10 
0.99893
 20 
0.50644
 30 
0.0
 0 
VERTEX
 8 
1
 10 
1
 20 
0.5
 30 
0.0
 0 
VERTEX
 8 
1
 10 
0.99893
 20 
0.49659
 30 
0.0
 0 
VERTEX
 8 
1
 10 
0.99572
 20 
0.4921
 30 
0.0
 0 
VERTEX
 8 
1
 10 
0.99039
 20 
0.48779
 30 
0.0
 0 
VERTEX
 8 
1
 10 
0.98296
 20 
0.48332
 30 
0.0
 0 
VERTEX
 8 
1
 10 
0.97347
 20 
0.47903
 30 
0.0
 0 
VERTEX
 8 
1
 10 
0.96194
 20 
0.47463
 30 
0.0
 0 
VERTEX
 8 
1
 10 
0.94844
 20 
0.4705
 30 
0.0
 0 
VERTEX
 8 
1
 10 
0.93301
 20 
0.46635
 30 
0.0
 0 
VERTEX
 8 
1
 10 
0.91573
 20 
0.46253
 30 
0.0
 0 
VERTEX
 8 
1
 10 
0.89668
 20 
0.45874
 30 
0.0
 0 
VERTEX
 8 
1
 10 
0.87592
 20 
0.45532
 30 
0.0
 0 
VERTEX
 8 
1
 10 
0.85355
 20 
0.4519
 30 
0.0
 0 
VERTEX
 8 
1
 10 
0.82967
 20 
0.44911
 30 
0.0
 0 
VERTEX
 8 
1
 10 
0.80438
 20 
0.44637
 30 
0.0
 0 
VERTEX
 8 
1
 10 
0.77779
 20 
0.44412
 30 
0.0
 0 
VERTEX
 8 
1
 10 
0.75
 20 
0.4421
 30 
0.0
 0 
VERTEX
 8 
1
 10 
0.72134
 20 
0.44063
 30 
0.0
 0 
VERTEX
 8 
1
 10 
0.69134
 20 
0.43947
 30 
0.0
 0 
VERTEX
 8 
1
 10 
0.66072
 20 
0.43896
 30 
0.0
 0 
VERTEX
 8 
1
 10 
0.62941
 20 
0.43889
 30 
0.0
 0 
VERTEX
 8 
1
 10 
0.59755
 20 
0.43971
 30 
0.0
 0 
VERTEX
 8 
1
 10 
0.56526
 20 
0.44123
 30 
0.0
 0 
VERTEX
 8 
1
 10 
0.5327
 20 
0.44319
 30 
0.0
 0 
VERTEX
 8 
1
 10 
0.5
 20 
0.44795
 30 
0.0
 0 
VERTEX
 8 
1
 10 
0.4673
 20 
0.45285
 30 
0.0
 0 
VERTEX
 8 
1
 10 
0.43474
 20 
0.45806
 30 
0.0
 0 
VERTEX
 8 
1
 10 
0.40245
 20 
0.46354
 30 
0.0
 0 
VERTEX
 8 
1
 10 
0.37059
 20 
0.4687
 30 
0.0
 0 
VERTEX
 8 
1
 10 
0.33928
 20 
0.47375
 30 
0.0
 0 
VERTEX
 8 
1
 10 
0.30866
 20 
0.47842
 30 
0.0
 0 
VERTEX
 8 
1
 10 
0.27886
 20 
0.48283
 30 
0.0
 0 
VERTEX
 8 
1
 10 
0.25
 20 
0.48662
 30 
0.0
 0 
VERTEX
 8 
1
 10 
0.22221
 20 
0.49014
 30 
0.0
 0 
VERTEX
 8 
1
 10 
0.19562
 20 
0.49305
 30 
0.0
 0 
VERTEX
 8 
1
 10 
0.17033
 20 
0.49566
 30 
0.0
 0 
VERTEX
 8 
1
 10 
0.14645
 20 
0.49769
 30 
0.0
 0 
VERTEX
 8 
1
 10 
0.12408
 20 
0.49944
 30 
0.0
 0 
VERTEX
 8 
1
 10 
0.08427
 20 
0.50151
 30 
0.0
 0 
VERTEX
 8 
1
 10 
0.051560
 20 
0.5021
 30 
0.0
 0 
VERTEX
 8 
1
 10 
0.026530
 20 
0.5015
 30 
0.0
 0 
VERTEX
 8 
1
 10 
0.0096100
 20 
0.50026
 30 
0.0
 0 
VERTEX
 8 
1
 10 
0.0010700
 20 
0.49962
 30 
0.0
 0 
VERTEX
 8 
1
 10 
0.0
 20 
0.5
 30 
0.0
 0 
SEQEND
 8 
1
 0 
ENDSEC
 0 
EOF
