 0 
SECTION
 2 
ENTITIES
 0 
POLYLINE
 8 
1
 66 
 1 
 10 
0.0
 20 
0.0
 30 
0.0
 0 
VERTEX
 8 
1
 10 
0.00036000
 20 
0.50021
 30 
0.0
 0 
VERTEX
 8 
1
 10 
0.0096699
 20 
0.50285
 30 
0.0
 0 
VERTEX
 8 
1
 10 
0.023869
 20 
0.50629
 30 
0.0
 0 
VERTEX
 8 
1
 10 
0.05006
 20 
0.51257
 30 
0.0
 0 
VERTEX
 8 
1
 10 
0.099910
 20 
0.52433
 30 
0.0
 0 
VERTEX
 8 
1
 10 
0.15003
 20 
0.53585
 30 
0.0
 0 
VERTEX
 8 
1
 10 
0.19988
 20 
0.54737
 30 
0.0
 0 
VERTEX
 8 
1
 10 
0.25558
 20 
0.56026
 30 
0.0
 0 
VERTEX
 8 
1
 10 
0.29863
 20 
0.57028
 30 
0.0
 0 
VERTEX
 8 
1
 10 
0.34944
 20 
0.58197
 30 
0.0
 0 
VERTEX
 8 
1
 10 
0.39905
 20 
0.59328
 30 
0.0
 0 
VERTEX
 8 
1
 10 
0.44822
 20 
0.60427
 30 
0.0
 0 
VERTEX
 8 
1
 10 
0.49957
 20 
0.61506
 30 
0.0
 0 
VERTEX
 8 
1
 10 
0.54756
 20 
0.62335
 30 
0.0
 0 
VERTEX
 8 
1
 10 
0.59815
 20 
0.62902
 30 
0.0
 0 
VERTEX
 8 
1
 10 
0.64717
 20 
0.63066
 30 
0.0
 0 
VERTEX
 8 
1
 10 
0.69689
 20 
0.62819
 30 
0.0
 0 
VERTEX
 8 
1
 10 
0.7468
 20 
0.62165
 30 
0.0
 0 
VERTEX
 8 
1
 10 
0.79965
 20 
0.61042
 30 
0.0
 0 
VERTEX
 8 
1
 10 
0.84894
 20 
0.59548
 30 
0.0
 0 
VERTEX
 8 
1
 10 
0.89801
 20 
0.57608
 30 
0.0
 0 
VERTEX
 8 
1
 10 
0.92426
 20 
0.56328
 30 
0.0
 0 
VERTEX
 8 
1
 10 
0.9391
 20 
0.5551
 30 
0.0
 0 
VERTEX
 8 
1
 10 
0.94987
 20 
0.54861
 30 
0.0
 0 
VERTEX
 8 
1
 10 
0.96533
 20 
0.53841
 30 
0.0
 0 
VERTEX
 8 
1
 10 
0.97525
 20 
0.53106
 30 
0.0
 0 
VERTEX
 8 
1
 10 
0.98219
 20 
0.52521
 30 
0.0
 0 
VERTEX
 8 
1
 10 
0.98647
 20 
0.5212
 30 
0.0
 0 
VERTEX
 8 
1
 10 
0.99415
 20 
0.51259
 30 
0.0
 0 
VERTEX
 8 
1
 10 
0.99501
 20 
0.51134
 30 
0.0
 0 
VERTEX
 8 
1
 10 
0.99612
 20 
0.50966
 30 
0.0
 0 
VERTEX
 8 
1
 10 
0.99723
 20 
0.50786
 30 
0.0
 0 
VERTEX
 8 
1
 10 
0.99834
 20 
0.50563
 30 
0.0
 0 
VERTEX
 8 
1
 10 
0.99917
 20 
0.50347
 30 
0.0
 0 
VERTEX
 8 
1
 10 
1
 20 
0.5
 30 
0.0
 0 
VERTEX
 8 
1
 10 
0.99917
 20 
0.49484
 30 
0.0
 0 
VERTEX
 8 
1
 10 
0.99834
 20 
0.49309
 30 
0.0
 0 
VERTEX
 8 
1
 10 
0.99723
 20 
0.49144
 30 
0.0
 0 
VERTEX
 8 
1
 10 
0.99612
 20 
0.49008
 30 
0.0
 0 
VERTEX
 8 
1
 10 
0.99473
 20 
0.48864
 30 
0.0
 0 
VERTEX
 8 
1
 10 
0.99359
 20 
0.48769
 30 
0.0
 0 
VERTEX
 8 
1
 10 
0.98648
 20 
0.48324
 30 
0.0
 0 
VERTEX
 8 
1
 10 
0.96412
 20 
0.47427
 30 
0.0
 0 
VERTEX
 8 
1
 10 
0.94887
 20 
0.4696
 30 
0.0
 0 
VERTEX
 8 
1
 10 
0.92357
 20 
0.46349
 30 
0.0
 0 
VERTEX
 8 
1
 10 
0.89831
 20 
0.45869
 30 
0.0
 0 
VERTEX
 8 
1
 10 
0.84933
 20 
0.45167
 30 
0.0
 0 
VERTEX
 8 
1
 10 
0.79945
 20 
0.44679
 30 
0.0
 0 
VERTEX
 8 
1
 10 
0.74968
 20 
0.44383
 30 
0.0
 0 
VERTEX
 8 
1
 10 
0.69834
 20 
0.44221
 30 
0.0
 0 
VERTEX
 8 
1
 10 
0.64953
 20 
0.44218
 30 
0.0
 0 
VERTEX
 8 
1
 10 
0.59931
 20 
0.44403
 30 
0.0
 0 
VERTEX
 8 
1
 10 
0.54993
 20 
0.44747
 30 
0.0
 0 
VERTEX
 8 
1
 10 
0.50002
 20 
0.45228
 30 
0.0
 0 
VERTEX
 8 
1
 10 
0.44944
 20 
0.45866
 30 
0.0
 0 
VERTEX
 8 
1
 10 
0.4003
 20 
0.46604
 30 
0.0
 0 
VERTEX
 8 
1
 10 
0.35048
 20 
0.4737
 30 
0.0
 0 
VERTEX
 8 
1
 10 
0.29988
 20 
0.48108
 30 
0.0
 0 
VERTEX
 8 
1
 10 
0.25005
 20 
0.48766
 30 
0.0
 0 
VERTEX
 8 
1
 10 
0.20192
 20 
0.49268
 30 
0.0
 0 
VERTEX
 8 
1
 10 
0.15102
 20 
0.49636
 30 
0.0
 0 
VERTEX
 8 
1
 10 
0.10093
 20 
0.49867
 30 
0.0
 0 
VERTEX
 8 
1
 10 
0.05242
 20 
0.4992
 30 
0.0
 0 
VERTEX
 8 
1
 10 
0.02974
 20 
0.49905
 30 
0.0
 0 
VERTEX
 8 
1
 10 
0.02168
 20 
0.49896
 30 
0.0
 0 
VERTEX
 8 
1
 10 
0.0
 20 
0.49941
 30 
0.0
 0 
SEQEND
 8 
1
 0 
ENDSEC
 0 
EOF
