 0 
SECTION
 2 
ENTITIES
 0 
POLYLINE
 8 
1
 66 
 1 
 10 
0.0
 20 
0.0
 30 
0.0
 0 
VERTEX
 8 
1
 10 
0.0
 20 
0.5
 30 
0.0
 0 
VERTEX
 8 
1
 10 
0.0010700
 20 
0.50026
 30 
0.0
 0 
VERTEX
 8 
1
 10 
0.0096100
 20 
0.50233
 30 
0.0
 0 
VERTEX
 8 
1
 10 
0.026530
 20 
0.50599
 30 
0.0
 0 
VERTEX
 8 
1
 10 
0.051560
 20 
0.5113
 30 
0.0
 0 
VERTEX
 8 
1
 10 
0.08427
 20 
0.51856
 30 
0.0
 0 
VERTEX
 8 
1
 10 
0.12408
 20 
0.52809
 30 
0.0
 0 
VERTEX
 8 
1
 10 
0.14645
 20 
0.53394
 30 
0.0
 0 
VERTEX
 8 
1
 10 
0.17033
 20 
0.54065
 30 
0.0
 0 
VERTEX
 8 
1
 10 
0.19562
 20 
0.54827
 30 
0.0
 0 
VERTEX
 8 
1
 10 
0.22221
 20 
0.5567
 30 
0.0
 0 
VERTEX
 8 
1
 10 
0.25
 20 
0.5657
 30 
0.0
 0 
VERTEX
 8 
1
 10 
0.27886
 20 
0.5749
 30 
0.0
 0 
VERTEX
 8 
1
 10 
0.30866
 20 
0.58395
 30 
0.0
 0 
VERTEX
 8 
1
 10 
0.33928
 20 
0.59249
 30 
0.0
 0 
VERTEX
 8 
1
 10 
0.37059
 20 
0.60025
 30 
0.0
 0 
VERTEX
 8 
1
 10 
0.40245
 20 
0.60702
 30 
0.0
 0 
VERTEX
 8 
1
 10 
0.43474
 20 
0.61269
 30 
0.0
 0 
VERTEX
 8 
1
 10 
0.4673
 20 
0.61716
 30 
0.0
 0 
VERTEX
 8 
1
 10 
0.5
 20 
0.62041
 30 
0.0
 0 
VERTEX
 8 
1
 10 
0.5327
 20 
0.62239
 30 
0.0
 0 
VERTEX
 8 
1
 10 
0.56526
 20 
0.62318
 30 
0.0
 0 
VERTEX
 8 
1
 10 
0.59755
 20 
0.62285
 30 
0.0
 0 
VERTEX
 8 
1
 10 
0.62941
 20 
0.62152
 30 
0.0
 0 
VERTEX
 8 
1
 10 
0.66072
 20 
0.61928
 30 
0.0
 0 
VERTEX
 8 
1
 10 
0.69134
 20 
0.61619
 30 
0.0
 0 
VERTEX
 8 
1
 10 
0.72114
 20 
0.6123
 30 
0.0
 0 
VERTEX
 8 
1
 10 
0.75
 20 
0.60771
 30 
0.0
 0 
VERTEX
 8 
1
 10 
0.77779
 20 
0.60246
 30 
0.0
 0 
VERTEX
 8 
1
 10 
0.80438
 20 
0.59663
 30 
0.0
 0 
VERTEX
 8 
1
 10 
0.82967
 20 
0.59027
 30 
0.0
 0 
VERTEX
 8 
1
 10 
0.85355
 20 
0.58348
 30 
0.0
 0 
VERTEX
 8 
1
 10 
0.87592
 20 
0.57629
 30 
0.0
 0 
VERTEX
 8 
1
 10 
0.89668
 20 
0.56882
 30 
0.0
 0 
VERTEX
 8 
1
 10 
0.91573
 20 
0.5611
 30 
0.0
 0 
VERTEX
 8 
1
 10 
0.93301
 20 
0.55327
 30 
0.0
 0 
VERTEX
 8 
1
 10 
0.94844
 20 
0.54536
 30 
0.0
 0 
VERTEX
 8 
1
 10 
0.96194
 20 
0.53752
 30 
0.0
 0 
VERTEX
 8 
1
 10 
0.97347
 20 
0.52992
 30 
0.0
 0 
VERTEX
 8 
1
 10 
0.98296
 20 
0.5231
 30 
0.0
 0 
VERTEX
 8 
1
 10 
0.99039
 20 
0.51626
 30 
0.0
 0 
VERTEX
 8 
1
 10 
0.99572
 20 
0.50989
 30 
0.0
 0 
VERTEX
 8 
1
 10 
0.99893
 20 
0.50462
 30 
0.0
 0 
VERTEX
 8 
1
 10 
1
 20 
0.5
 30 
0.0
 0 
VERTEX
 8 
1
 10 
0.99893
 20 
0.49855
 30 
0.0
 0 
VERTEX
 8 
1
 10 
0.99572
 20 
0.49625
 30 
0.0
 0 
VERTEX
 8 
1
 10 
0.99039
 20 
0.49393
 30 
0.0
 0 
VERTEX
 8 
1
 10 
0.98296
 20 
0.49196
 30 
0.0
 0 
VERTEX
 8 
1
 10 
0.97347
 20 
0.48985
 30 
0.0
 0 
VERTEX
 8 
1
 10 
0.96194
 20 
0.48776
 30 
0.0
 0 
VERTEX
 8 
1
 10 
0.94844
 20 
0.48578
 30 
0.0
 0 
VERTEX
 8 
1
 10 
0.93301
 20 
0.48389
 30 
0.0
 0 
VERTEX
 8 
1
 10 
0.91573
 20 
0.48212
 30 
0.0
 0 
VERTEX
 8 
1
 10 
0.89668
 20 
0.48045
 30 
0.0
 0 
VERTEX
 8 
1
 10 
0.87592
 20 
0.47893
 30 
0.0
 0 
VERTEX
 8 
1
 10 
0.85355
 20 
0.47754
 30 
0.0
 0 
VERTEX
 8 
1
 10 
0.82967
 20 
0.47632
 30 
0.0
 0 
VERTEX
 8 
1
 10 
0.80438
 20 
0.47526
 30 
0.0
 0 
VERTEX
 8 
1
 10 
0.77779
 20 
0.47438
 30 
0.0
 0 
VERTEX
 8 
1
 10 
0.75
 20 
0.47368
 30 
0.0
 0 
VERTEX
 8 
1
 10 
0.72114
 20 
0.47316
 30 
0.0
 0 
VERTEX
 8 
1
 10 
0.69134
 20 
0.47283
 30 
0.0
 0 
VERTEX
 8 
1
 10 
0.66072
 20 
0.4727
 30 
0.0
 0 
VERTEX
 8 
1
 10 
0.62941
 20 
0.47276
 30 
0.0
 0 
VERTEX
 8 
1
 10 
0.59755
 20 
0.47302
 30 
0.0
 0 
VERTEX
 8 
1
 10 
0.56526
 20 
0.47347
 30 
0.0
 0 
VERTEX
 8 
1
 10 
0.5327
 20 
0.47412
 30 
0.0
 0 
VERTEX
 8 
1
 10 
0.5
 20 
0.47496
 30 
0.0
 0 
VERTEX
 8 
1
 10 
0.4673
 20 
0.47601
 30 
0.0
 0 
VERTEX
 8 
1
 10 
0.43474
 20 
0.47726
 30 
0.0
 0 
VERTEX
 8 
1
 10 
0.40245
 20 
0.4787
 30 
0.0
 0 
VERTEX
 8 
1
 10 
0.37059
 20 
0.48033
 30 
0.0
 0 
VERTEX
 8 
1
 10 
0.33928
 20 
0.48216
 30 
0.0
 0 
VERTEX
 8 
1
 10 
0.30866
 20 
0.48425
 30 
0.0
 0 
VERTEX
 8 
1
 10 
0.27886
 20 
0.48661
 30 
0.0
 0 
VERTEX
 8 
1
 10 
0.25
 20 
0.4892
 30 
0.0
 0 
VERTEX
 8 
1
 10 
0.22221
 20 
0.49187
 30 
0.0
 0 
VERTEX
 8 
1
 10 
0.19562
 20 
0.49441
 30 
0.0
 0 
VERTEX
 8 
1
 10 
0.17033
 20 
0.49666
 30 
0.0
 0 
VERTEX
 8 
1
 10 
0.14645
 20 
0.49852
 30 
0.0
 0 
VERTEX
 8 
1
 10 
0.12408
 20 
0.49994
 30 
0.0
 0 
VERTEX
 8 
1
 10 
0.08427
 20 
0.50157
 30 
0.0
 0 
VERTEX
 8 
1
 10 
0.051560
 20 
0.50193
 30 
0.0
 0 
VERTEX
 8 
1
 10 
0.026530
 20 
0.50142
 30 
0.0
 0 
VERTEX
 8 
1
 10 
0.0096100
 20 
0.5006
 30 
0.0
 0 
VERTEX
 8 
1
 10 
0.0010700
 20 
0.50007
 30 
0.0
 0 
VERTEX
 8 
1
 10 
0.0
 20 
0.5
 30 
0.0
 0 
SEQEND
 8 
1
 0 
ENDSEC
 0 
EOF
