 0 
SECTION
 2 
ENTITIES
 0 
POLYLINE
 8 
1
 66 
 1 
 10 
0.0
 20 
0.0
 30 
0.0
 0 
VERTEX
 8 
1
 10 
0.0
 20 
0.5009
 30 
0.0
 0 
VERTEX
 8 
1
 10 
0.0421
 20 
0.5072
 30 
0.0
 0 
VERTEX
 8 
1
 10 
0.1153
 20 
0.5185
 30 
0.0
 0 
VERTEX
 8 
1
 10 
0.1621
 20 
0.5248
 30 
0.0
 0 
VERTEX
 8 
1
 10 
0.2144
 20 
0.5312
 30 
0.0
 0 
VERTEX
 8 
1
 10 
0.2717
 20 
0.5377
 30 
0.0
 0 
VERTEX
 8 
1
 10 
0.3327
 20 
0.5442
 30 
0.0
 0 
VERTEX
 8 
1
 10 
0.3965
 20 
0.5501
 30 
0.0
 0 
VERTEX
 8 
1
 10 
0.462
 20 
0.5553
 30 
0.0
 0 
VERTEX
 8 
1
 10 
0.529
 20 
0.5598
 30 
0.0
 0 
VERTEX
 8 
1
 10 
0.593
 20 
0.5631
 30 
0.0
 0 
VERTEX
 8 
1
 10 
0.6571
 20 
0.5654
 30 
0.0
 0 
VERTEX
 8 
1
 10 
0.7182
 20 
0.5666
 30 
0.0
 0 
VERTEX
 8 
1
 10 
0.7755
 20 
0.5661
 30 
0.0
 0 
VERTEX
 8 
1
 10 
0.8279
 20 
0.563
 30 
0.0
 0 
VERTEX
 8 
1
 10 
0.8747
 20 
0.5573
 30 
0.0
 0 
VERTEX
 8 
1
 10 
0.9149
 20 
0.5486
 30 
0.0
 0 
VERTEX
 8 
1
 10 
0.948
 20 
0.5377
 30 
0.0
 0 
VERTEX
 8 
1
 10 
0.9616
 20 
0.532
 30 
0.0
 0 
VERTEX
 8 
1
 10 
0.9828
 20 
0.5204
 30 
0.0
 0 
VERTEX
 8 
1
 10 
0.9904
 20 
0.5148
 30 
0.0
 0 
VERTEX
 8 
1
 10 
0.9957
 20 
0.5096
 30 
0.0
 0 
VERTEX
 8 
1
 10 
1
 20 
0.5
 30 
0.0
 0 
VERTEX
 8 
1
 10 
0.9957
 20 
0.4931
 30 
0.0
 0 
VERTEX
 8 
1
 10 
0.9904
 20 
0.4904
 30 
0.0
 0 
VERTEX
 8 
1
 10 
0.9828
 20 
0.4878
 30 
0.0
 0 
VERTEX
 8 
1
 10 
0.9616
 20 
0.4829
 30 
0.0
 0 
VERTEX
 8 
1
 10 
0.948
 20 
0.4808
 30 
0.0
 0 
VERTEX
 8 
1
 10 
0.9149
 20 
0.4769
 30 
0.0
 0 
VERTEX
 8 
1
 10 
0.8747
 20 
0.4736
 30 
0.0
 0 
VERTEX
 8 
1
 10 
0.8279
 20 
0.4708
 30 
0.0
 0 
VERTEX
 8 
1
 10 
0.7755
 20 
0.4687
 30 
0.0
 0 
VERTEX
 8 
1
 10 
0.7182
 20 
0.4677
 30 
0.0
 0 
VERTEX
 8 
1
 10 
0.6571
 20 
0.4676
 30 
0.0
 0 
VERTEX
 8 
1
 10 
0.593
 20 
0.4683
 30 
0.0
 0 
VERTEX
 8 
1
 10 
0.529
 20 
0.4695
 30 
0.0
 0 
VERTEX
 8 
1
 10 
0.462
 20 
0.4712
 30 
0.0
 0 
VERTEX
 8 
1
 10 
0.3965
 20 
0.4733
 30 
0.0
 0 
VERTEX
 8 
1
 10 
0.3327
 20 
0.4758
 30 
0.0
 0 
VERTEX
 8 
1
 10 
0.2717
 20 
0.4785
 30 
0.0
 0 
VERTEX
 8 
1
 10 
0.2144
 20 
0.4814
 30 
0.0
 0 
VERTEX
 8 
1
 10 
0.1621
 20 
0.4844
 30 
0.0
 0 
VERTEX
 8 
1
 10 
0.1153
 20 
0.4874
 30 
0.0
 0 
VERTEX
 8 
1
 10 
0.0421
 20 
0.4936
 30 
0.0
 0 
VERTEX
 8 
1
 10 
0.0
 20 
0.4987
 30 
0.0
 0 
SEQEND
 8 
1
 0 
ENDSEC
 0 
EOF
