 0 
SECTION
 2 
ENTITIES
 0 
POLYLINE
 8 
1
 66 
 1 
 10 
0.0
 20 
0.0
 30 
0.0
 0 
VERTEX
 8 
1
 10 
0.0
 20 
0.5
 30 
0.0
 0 
VERTEX
 8 
1
 10 
0.0096100
 20 
0.50088
 30 
0.0
 0 
VERTEX
 8 
1
 10 
0.026530
 20 
0.50257
 30 
0.0
 0 
VERTEX
 8 
1
 10 
0.051560
 20 
0.50487
 30 
0.0
 0 
VERTEX
 8 
1
 10 
0.08427
 20 
0.50769
 30 
0.0
 0 
VERTEX
 8 
1
 10 
0.12408
 20 
0.51107
 30 
0.0
 0 
VERTEX
 8 
1
 10 
0.14645
 20 
0.51295
 30 
0.0
 0 
VERTEX
 8 
1
 10 
0.17033
 20 
0.51491
 30 
0.0
 0 
VERTEX
 8 
1
 10 
0.19562
 20 
0.51701
 30 
0.0
 0 
VERTEX
 8 
1
 10 
0.22221
 20 
0.51912
 30 
0.0
 0 
VERTEX
 8 
1
 10 
0.25
 20 
0.52133
 30 
0.0
 0 
VERTEX
 8 
1
 10 
0.27886
 20 
0.52356
 30 
0.0
 0 
VERTEX
 8 
1
 10 
0.30866
 20 
0.52579
 30 
0.0
 0 
VERTEX
 8 
1
 10 
0.33928
 20 
0.52794
 30 
0.0
 0 
VERTEX
 8 
1
 10 
0.37059
 20 
0.53005
 30 
0.0
 0 
VERTEX
 8 
1
 10 
0.40245
 20 
0.53209
 30 
0.0
 0 
VERTEX
 8 
1
 10 
0.43474
 20 
0.53406
 30 
0.0
 0 
VERTEX
 8 
1
 10 
0.4673
 20 
0.53586
 30 
0.0
 0 
VERTEX
 8 
1
 10 
0.5
 20 
0.53763
 30 
0.0
 0 
VERTEX
 8 
1
 10 
0.5327
 20 
0.53915
 30 
0.0
 0 
VERTEX
 8 
1
 10 
0.56526
 20 
0.54057
 30 
0.0
 0 
VERTEX
 8 
1
 10 
0.59755
 20 
0.54179
 30 
0.0
 0 
VERTEX
 8 
1
 10 
0.62941
 20 
0.5428
 30 
0.0
 0 
VERTEX
 8 
1
 10 
0.66072
 20 
0.54359
 30 
0.0
 0 
VERTEX
 8 
1
 10 
0.69134
 20 
0.54416
 30 
0.0
 0 
VERTEX
 8 
1
 10 
0.72114
 20 
0.54456
 30 
0.0
 0 
VERTEX
 8 
1
 10 
0.75
 20 
0.54467
 30 
0.0
 0 
VERTEX
 8 
1
 10 
0.77779
 20 
0.54468
 30 
0.0
 0 
VERTEX
 8 
1
 10 
0.80438
 20 
0.54435
 30 
0.0
 0 
VERTEX
 8 
1
 10 
0.82967
 20 
0.54376
 30 
0.0
 0 
VERTEX
 8 
1
 10 
0.85355
 20 
0.54291
 30 
0.0
 0 
VERTEX
 8 
1
 10 
0.87592
 20 
0.54171
 30 
0.0
 0 
VERTEX
 8 
1
 10 
0.89668
 20 
0.54037
 30 
0.0
 0 
VERTEX
 8 
1
 10 
0.91573
 20 
0.53865
 30 
0.0
 0 
VERTEX
 8 
1
 10 
0.93301
 20 
0.53646
 30 
0.0
 0 
VERTEX
 8 
1
 10 
0.94844
 20 
0.53411
 30 
0.0
 0 
VERTEX
 8 
1
 10 
0.96194
 20 
0.53116
 30 
0.0
 0 
VERTEX
 8 
1
 10 
0.97347
 20 
0.52818
 30 
0.0
 0 
VERTEX
 8 
1
 10 
0.98296
 20 
0.52381
 30 
0.0
 0 
VERTEX
 8 
1
 10 
0.99039
 20 
0.51804
 30 
0.0
 0 
VERTEX
 8 
1
 10 
0.99572
 20 
0.5122
 30 
0.0
 0 
VERTEX
 8 
1
 10 
0.99893
 20 
0.5062
 30 
0.0
 0 
VERTEX
 8 
1
 10 
1
 20 
0.5
 30 
0.0
 0 
VERTEX
 8 
1
 10 
0.99893
 20 
0.4938
 30 
0.0
 0 
VERTEX
 8 
1
 10 
0.99572
 20 
0.4878
 30 
0.0
 0 
VERTEX
 8 
1
 10 
0.99039
 20 
0.48196
 30 
0.0
 0 
VERTEX
 8 
1
 10 
0.98296
 20 
0.47619
 30 
0.0
 0 
VERTEX
 8 
1
 10 
0.97347
 20 
0.47182
 30 
0.0
 0 
VERTEX
 8 
1
 10 
0.96194
 20 
0.46884
 30 
0.0
 0 
VERTEX
 8 
1
 10 
0.94844
 20 
0.46589
 30 
0.0
 0 
VERTEX
 8 
1
 10 
0.93301
 20 
0.46354
 30 
0.0
 0 
VERTEX
 8 
1
 10 
0.91573
 20 
0.46135
 30 
0.0
 0 
VERTEX
 8 
1
 10 
0.89668
 20 
0.45963
 30 
0.0
 0 
VERTEX
 8 
1
 10 
0.87592
 20 
0.45829
 30 
0.0
 0 
VERTEX
 8 
1
 10 
0.85355
 20 
0.45709
 30 
0.0
 0 
VERTEX
 8 
1
 10 
0.82967
 20 
0.45624
 30 
0.0
 0 
VERTEX
 8 
1
 10 
0.80438
 20 
0.45565
 30 
0.0
 0 
VERTEX
 8 
1
 10 
0.77779
 20 
0.45532
 30 
0.0
 0 
VERTEX
 8 
1
 10 
0.75
 20 
0.45533
 30 
0.0
 0 
VERTEX
 8 
1
 10 
0.72114
 20 
0.45544
 30 
0.0
 0 
VERTEX
 8 
1
 10 
0.69134
 20 
0.45584
 30 
0.0
 0 
VERTEX
 8 
1
 10 
0.66072
 20 
0.45641
 30 
0.0
 0 
VERTEX
 8 
1
 10 
0.62941
 20 
0.4572
 30 
0.0
 0 
VERTEX
 8 
1
 10 
0.59755
 20 
0.45821
 30 
0.0
 0 
VERTEX
 8 
1
 10 
0.56526
 20 
0.45943
 30 
0.0
 0 
VERTEX
 8 
1
 10 
0.5327
 20 
0.46085
 30 
0.0
 0 
VERTEX
 8 
1
 10 
0.5
 20 
0.46237
 30 
0.0
 0 
VERTEX
 8 
1
 10 
0.4673
 20 
0.46414
 30 
0.0
 0 
VERTEX
 8 
1
 10 
0.43474
 20 
0.46594
 30 
0.0
 0 
VERTEX
 8 
1
 10 
0.40245
 20 
0.46791
 30 
0.0
 0 
VERTEX
 8 
1
 10 
0.37059
 20 
0.46995
 30 
0.0
 0 
VERTEX
 8 
1
 10 
0.33928
 20 
0.47206
 30 
0.0
 0 
VERTEX
 8 
1
 10 
0.30866
 20 
0.47421
 30 
0.0
 0 
VERTEX
 8 
1
 10 
0.27886
 20 
0.47644
 30 
0.0
 0 
VERTEX
 8 
1
 10 
0.25
 20 
0.47867
 30 
0.0
 0 
VERTEX
 8 
1
 10 
0.22221
 20 
0.48088
 30 
0.0
 0 
VERTEX
 8 
1
 10 
0.19562
 20 
0.48299
 30 
0.0
 0 
VERTEX
 8 
1
 10 
0.17033
 20 
0.48509
 30 
0.0
 0 
VERTEX
 8 
1
 10 
0.14645
 20 
0.48705
 30 
0.0
 0 
VERTEX
 8 
1
 10 
0.12408
 20 
0.48893
 30 
0.0
 0 
VERTEX
 8 
1
 10 
0.08427
 20 
0.49231
 30 
0.0
 0 
VERTEX
 8 
1
 10 
0.051560
 20 
0.49513
 30 
0.0
 0 
VERTEX
 8 
1
 10 
0.026530
 20 
0.49743
 30 
0.0
 0 
VERTEX
 8 
1
 10 
0.0096100
 20 
0.49912
 30 
0.0
 0 
VERTEX
 8 
1
 10 
0.0
 20 
0.5
 30 
0.0
 0 
SEQEND
 8 
1
 0 
ENDSEC
 0 
EOF
