 0 
SECTION
 2 
ENTITIES
 0 
POLYLINE
 8 
1
 66 
 1 
 10 
0.0
 20 
0.0
 30 
0.0
 0 
VERTEX
 8 
1
 10 
0.0010700
 20 
0.50084
 30 
0.0
 0 
VERTEX
 8 
1
 10 
0.0042799
 20 
0.50099
 30 
0.0
 0 
VERTEX
 8 
1
 10 
0.0096100
 20 
0.50143
 30 
0.0
 0 
VERTEX
 8 
1
 10 
0.017040
 20 
0.50231
 30 
0.0
 0 
VERTEX
 8 
1
 10 
0.026530
 20 
0.50367
 30 
0.0
 0 
VERTEX
 8 
1
 10 
0.03806
 20 
0.50561
 30 
0.0
 0 
VERTEX
 8 
1
 10 
0.051560
 20 
0.50801
 30 
0.0
 0 
VERTEX
 8 
1
 10 
0.06699
 20 
0.5109
 30 
0.0
 0 
VERTEX
 8 
1
 10 
0.08427
 20 
0.51408
 30 
0.0
 0 
VERTEX
 8 
1
 10 
0.10332
 20 
0.51758
 30 
0.0
 0 
VERTEX
 8 
1
 10 
0.12408
 20 
0.52118
 30 
0.0
 0 
VERTEX
 8 
1
 10 
0.14645
 20 
0.52503
 30 
0.0
 0 
VERTEX
 8 
1
 10 
0.17033
 20 
0.52902
 30 
0.0
 0 
VERTEX
 8 
1
 10 
0.19562
 20 
0.53339
 30 
0.0
 0 
VERTEX
 8 
1
 10 
0.22221
 20 
0.53794
 30 
0.0
 0 
VERTEX
 8 
1
 10 
0.25
 20 
0.54291
 30 
0.0
 0 
VERTEX
 8 
1
 10 
0.27886
 20 
0.54802
 30 
0.0
 0 
VERTEX
 8 
1
 10 
0.30866
 20 
0.55355
 30 
0.0
 0 
VERTEX
 8 
1
 10 
0.33928
 20 
0.55913
 30 
0.0
 0 
VERTEX
 8 
1
 10 
0.37059
 20 
0.56512
 30 
0.0
 0 
VERTEX
 8 
1
 10 
0.40245
 20 
0.57113
 30 
0.0
 0 
VERTEX
 8 
1
 10 
0.43474
 20 
0.5774
 30 
0.0
 0 
VERTEX
 8 
1
 10 
0.4673
 20 
0.58363
 30 
0.0
 0 
VERTEX
 8 
1
 10 
0.5
 20 
0.58997
 30 
0.0
 0 
VERTEX
 8 
1
 10 
0.5327
 20 
0.59606
 30 
0.0
 0 
VERTEX
 8 
1
 10 
0.56526
 20 
0.60209
 30 
0.0
 0 
VERTEX
 8 
1
 10 
0.59755
 20 
0.60758
 30 
0.0
 0 
VERTEX
 8 
1
 10 
0.62941
 20 
0.6128
 30 
0.0
 0 
VERTEX
 8 
1
 10 
0.66072
 20 
0.61696
 30 
0.0
 0 
VERTEX
 8 
1
 10 
0.69134
 20 
0.6204
 30 
0.0
 0 
VERTEX
 8 
1
 10 
0.72114
 20 
0.62105
 30 
0.0
 0 
VERTEX
 8 
1
 10 
0.75
 20 
0.62037
 30 
0.0
 0 
VERTEX
 8 
1
 10 
0.77779
 20 
0.61791
 30 
0.0
 0 
VERTEX
 8 
1
 10 
0.80438
 20 
0.61449
 30 
0.0
 0 
VERTEX
 8 
1
 10 
0.82967
 20 
0.60954
 30 
0.0
 0 
VERTEX
 8 
1
 10 
0.85355
 20 
0.60372
 30 
0.0
 0 
VERTEX
 8 
1
 10 
0.87592
 20 
0.59639
 30 
0.0
 0 
VERTEX
 8 
1
 10 
0.89668
 20 
0.58836
 30 
0.0
 0 
VERTEX
 8 
1
 10 
0.91573
 20 
0.57928
 30 
0.0
 0 
VERTEX
 8 
1
 10 
0.93301
 20 
0.57013
 30 
0.0
 0 
VERTEX
 8 
1
 10 
0.94844
 20 
0.56014
 30 
0.0
 0 
VERTEX
 8 
1
 10 
0.96194
 20 
0.55048
 30 
0.0
 0 
VERTEX
 8 
1
 10 
0.97347
 20 
0.54032
 30 
0.0
 0 
VERTEX
 8 
1
 10 
0.98296
 20 
0.53089
 30 
0.0
 0 
VERTEX
 8 
1
 10 
0.99039
 20 
0.52143
 30 
0.0
 0 
VERTEX
 8 
1
 10 
0.99572
 20 
0.51365
 30 
0.0
 0 
VERTEX
 8 
1
 10 
0.99893
 20 
0.50591
 30 
0.0
 0 
VERTEX
 8 
1
 10 
1
 20 
0.5
 30 
0.0
 0 
VERTEX
 8 
1
 10 
0.99893
 20 
0.49536
 30 
0.0
 0 
VERTEX
 8 
1
 10 
0.99572
 20 
0.48885
 30 
0.0
 0 
VERTEX
 8 
1
 10 
0.99039
 20 
0.48518
 30 
0.0
 0 
VERTEX
 8 
1
 10 
0.98296
 20 
0.48183
 30 
0.0
 0 
VERTEX
 8 
1
 10 
0.97347
 20 
0.47984
 30 
0.0
 0 
VERTEX
 8 
1
 10 
0.96194
 20 
0.47745
 30 
0.0
 0 
VERTEX
 8 
1
 10 
0.94844
 20 
0.47586
 30 
0.0
 0 
VERTEX
 8 
1
 10 
0.93301
 20 
0.47402
 30 
0.0
 0 
VERTEX
 8 
1
 10 
0.91573
 20 
0.47287
 30 
0.0
 0 
VERTEX
 8 
1
 10 
0.89668
 20 
0.47151
 30 
0.0
 0 
VERTEX
 8 
1
 10 
0.87592
 20 
0.47071
 30 
0.0
 0 
VERTEX
 8 
1
 10 
0.85355
 20 
0.46979
 30 
0.0
 0 
VERTEX
 8 
1
 10 
0.82967
 20 
0.46936
 30 
0.0
 0 
VERTEX
 8 
1
 10 
0.80438
 20 
0.46877
 30 
0.0
 0 
VERTEX
 8 
1
 10 
0.77779
 20 
0.46866
 30 
0.0
 0 
VERTEX
 8 
1
 10 
0.75
 20 
0.46834
 30 
0.0
 0 
VERTEX
 8 
1
 10 
0.72114
 20 
0.46857
 30 
0.0
 0 
VERTEX
 8 
1
 10 
0.69134
 20 
0.46846
 30 
0.0
 0 
VERTEX
 8 
1
 10 
0.66072
 20 
0.46895
 30 
0.0
 0 
VERTEX
 8 
1
 10 
0.62941
 20 
0.46912
 30 
0.0
 0 
VERTEX
 8 
1
 10 
0.59755
 20 
0.46975
 30 
0.0
 0 
VERTEX
 8 
1
 10 
0.56526
 20 
0.47016
 30 
0.0
 0 
VERTEX
 8 
1
 10 
0.5327
 20 
0.47092
 30 
0.0
 0 
VERTEX
 8 
1
 10 
0.5
 20 
0.47154
 30 
0.0
 0 
VERTEX
 8 
1
 10 
0.4673
 20 
0.47243
 30 
0.0
 0 
VERTEX
 8 
1
 10 
0.43474
 20 
0.47319
 30 
0.0
 0 
VERTEX
 8 
1
 10 
0.40245
 20 
0.47422
 30 
0.0
 0 
VERTEX
 8 
1
 10 
0.37059
 20 
0.4751
 30 
0.0
 0 
VERTEX
 8 
1
 10 
0.33928
 20 
0.47624
 30 
0.0
 0 
VERTEX
 8 
1
 10 
0.30866
 20 
0.47724
 30 
0.0
 0 
VERTEX
 8 
1
 10 
0.27886
 20 
0.47848
 30 
0.0
 0 
VERTEX
 8 
1
 10 
0.25
 20 
0.47956
 30 
0.0
 0 
VERTEX
 8 
1
 10 
0.22221
 20 
0.48086
 30 
0.0
 0 
VERTEX
 8 
1
 10 
0.19562
 20 
0.48203
 30 
0.0
 0 
VERTEX
 8 
1
 10 
0.17033
 20 
0.48338
 30 
0.0
 0 
VERTEX
 8 
1
 10 
0.14645
 20 
0.48464
 30 
0.0
 0 
VERTEX
 8 
1
 10 
0.12408
 20 
0.48603
 30 
0.0
 0 
VERTEX
 8 
1
 10 
0.10332
 20 
0.48737
 30 
0.0
 0 
VERTEX
 8 
1
 10 
0.08427
 20 
0.48885
 30 
0.0
 0 
VERTEX
 8 
1
 10 
0.06699
 20 
0.49038
 30 
0.0
 0 
VERTEX
 8 
1
 10 
0.051560
 20 
0.49207
 30 
0.0
 0 
VERTEX
 8 
1
 10 
0.03806
 20 
0.49373
 30 
0.0
 0 
VERTEX
 8 
1
 10 
0.026530
 20 
0.49536
 30 
0.0
 0 
VERTEX
 8 
1
 10 
0.017040
 20 
0.49675
 30 
0.0
 0 
VERTEX
 8 
1
 10 
0.0096100
 20 
0.49784
 30 
0.0
 0 
VERTEX
 8 
1
 10 
0.0042799
 20 
0.49859
 30 
0.0
 0 
VERTEX
 8 
1
 10 
0.0010700
 20 
0.49903
 30 
0.0
 0 
SEQEND
 8 
1
 0 
ENDSEC
 0 
EOF
