 0 
SECTION
 2 
ENTITIES
 0 
POLYLINE
 8 
1
 66 
 1 
 10 
0.0
 20 
0.0
 30 
0.0
 0 
VERTEX
 8 
1
 10 
0.0
 20 
0.5
 30 
0.0
 0 
VERTEX
 8 
1
 10 
0.0010900
 20 
0.5006
 30 
0.0
 0 
VERTEX
 8 
1
 10 
0.0042900
 20 
0.5008
 30 
0.0
 0 
VERTEX
 8 
1
 10 
0.00966
 20 
0.5014
 30 
0.0
 0 
VERTEX
 8 
1
 10 
0.017090
 20 
0.502
 30 
0.0
 0 
VERTEX
 8 
1
 10 
0.02656
 20 
0.5026
 30 
0.0
 0 
VERTEX
 8 
1
 10 
0.03808
 20 
0.5034
 30 
0.0
 0 
VERTEX
 8 
1
 10 
0.05152
 20 
0.5048
 30 
0.0
 0 
VERTEX
 8 
1
 10 
0.06701
 20 
0.5058
 30 
0.0
 0 
VERTEX
 8 
1
 10 
0.08429
 20 
0.5076
 30 
0.0
 0 
VERTEX
 8 
1
 10 
0.10356
 20 
0.5096
 30 
0.0
 0 
VERTEX
 8 
1
 10 
0.1241
 20 
0.5114
 30 
0.0
 0 
VERTEX
 8 
1
 10 
0.1465
 20 
0.5138
 30 
0.0
 0 
VERTEX
 8 
1
 10 
0.1703
 20 
0.5162
 30 
0.0
 0 
VERTEX
 8 
1
 10 
0.19565
 20 
0.5192
 30 
0.0
 0 
VERTEX
 8 
1
 10 
0.22227
 20 
0.5234
 30 
0.0
 0 
VERTEX
 8 
1
 10 
0.25005
 20 
0.526
 30 
0.0
 0 
VERTEX
 8 
1
 10 
0.27885
 20 
0.5292
 30 
0.0
 0 
VERTEX
 8 
1
 10 
0.30867
 20 
0.5334
 30 
0.0
 0 
VERTEX
 8 
1
 10 
0.33926
 20 
0.5378
 30 
0.0
 0 
VERTEX
 8 
1
 10 
0.37062
 20 
0.5416
 30 
0.0
 0 
VERTEX
 8 
1
 10 
0.4025
 20 
0.5463
 30 
0.0
 0 
VERTEX
 8 
1
 10 
0.43475
 20 
0.5506
 30 
0.0
 0 
VERTEX
 8 
1
 10 
0.46726
 20 
0.5552
 30 
0.0
 0 
VERTEX
 8 
1
 10 
0.50003
 20 
0.559
 30 
0.0
 0 
VERTEX
 8 
1
 10 
0.53267
 20 
0.563
 30 
0.0
 0 
VERTEX
 8 
1
 10 
0.56531
 20 
0.566
 30 
0.0
 0 
VERTEX
 8 
1
 10 
0.59757
 20 
0.5682
 30 
0.0
 0 
VERTEX
 8 
1
 10 
0.62944
 20 
0.5698
 30 
0.0
 0 
VERTEX
 8 
1
 10 
0.66067
 20 
0.5708
 30 
0.0
 0 
VERTEX
 8 
1
 10 
0.69139
 20 
0.571
 30 
0.0
 0 
VERTEX
 8 
1
 10 
0.72109
 20 
0.5706
 30 
0.0
 0 
VERTEX
 8 
1
 10 
0.75002
 20 
0.5694
 30 
0.0
 0 
VERTEX
 8 
1
 10 
0.77779
 20 
0.5678
 30 
0.0
 0 
VERTEX
 8 
1
 10 
0.80442
 20 
0.5656
 30 
0.0
 0 
VERTEX
 8 
1
 10 
0.82963
 20 
0.5628
 30 
0.0
 0 
VERTEX
 8 
1
 10 
0.85357
 20 
0.5596
 30 
0.0
 0 
VERTEX
 8 
1
 10 
0.87597
 20 
0.5562
 30 
0.0
 0 
VERTEX
 8 
1
 10 
0.8967
 20 
0.5524
 30 
0.0
 0 
VERTEX
 8 
1
 10 
0.91578
 20 
0.5484
 30 
0.0
 0 
VERTEX
 8 
1
 10 
0.93306
 20 
0.5436
 30 
0.0
 0 
VERTEX
 8 
1
 10 
0.94842
 20 
0.5388
 30 
0.0
 0 
VERTEX
 8 
1
 10 
0.96198
 20 
0.5334
 30 
0.0
 0 
VERTEX
 8 
1
 10 
0.9735
 20 
0.5282
 30 
0.0
 0 
VERTEX
 8 
1
 10 
0.98298
 20 
0.5224
 30 
0.0
 0 
VERTEX
 8 
1
 10 
0.9904
 20 
0.5162
 30 
0.0
 0 
VERTEX
 8 
1
 10 
0.99578
 20 
0.5098
 30 
0.0
 0 
VERTEX
 8 
1
 10 
0.99898
 20 
0.5042
 30 
0.0
 0 
VERTEX
 8 
1
 10 
1
 20 
0.5
 30 
0.0
 0 
VERTEX
 8 
1
 10 
0.99898
 20 
0.4958
 30 
0.0
 0 
VERTEX
 8 
1
 10 
0.99578
 20 
0.4902
 30 
0.0
 0 
VERTEX
 8 
1
 10 
0.9904
 20 
0.4838
 30 
0.0
 0 
VERTEX
 8 
1
 10 
0.98298
 20 
0.4776
 30 
0.0
 0 
VERTEX
 8 
1
 10 
0.9735
 20 
0.4718
 30 
0.0
 0 
VERTEX
 8 
1
 10 
0.96198
 20 
0.4666
 30 
0.0
 0 
VERTEX
 8 
1
 10 
0.94842
 20 
0.4612
 30 
0.0
 0 
VERTEX
 8 
1
 10 
0.93306
 20 
0.4564
 30 
0.0
 0 
VERTEX
 8 
1
 10 
0.91578
 20 
0.4516
 30 
0.0
 0 
VERTEX
 8 
1
 10 
0.8967
 20 
0.4476
 30 
0.0
 0 
VERTEX
 8 
1
 10 
0.87597
 20 
0.4438
 30 
0.0
 0 
VERTEX
 8 
1
 10 
0.85357
 20 
0.4404
 30 
0.0
 0 
VERTEX
 8 
1
 10 
0.82963
 20 
0.4372
 30 
0.0
 0 
VERTEX
 8 
1
 10 
0.80442
 20 
0.4344
 30 
0.0
 0 
VERTEX
 8 
1
 10 
0.77779
 20 
0.4322
 30 
0.0
 0 
VERTEX
 8 
1
 10 
0.75002
 20 
0.4306
 30 
0.0
 0 
VERTEX
 8 
1
 10 
0.72109
 20 
0.4294
 30 
0.0
 0 
VERTEX
 8 
1
 10 
0.69139
 20 
0.429
 30 
0.0
 0 
VERTEX
 8 
1
 10 
0.66067
 20 
0.4292
 30 
0.0
 0 
VERTEX
 8 
1
 10 
0.62944
 20 
0.4302
 30 
0.0
 0 
VERTEX
 8 
1
 10 
0.59757
 20 
0.4318
 30 
0.0
 0 
VERTEX
 8 
1
 10 
0.56531
 20 
0.434
 30 
0.0
 0 
VERTEX
 8 
1
 10 
0.53267
 20 
0.437
 30 
0.0
 0 
VERTEX
 8 
1
 10 
0.50003
 20 
0.441
 30 
0.0
 0 
VERTEX
 8 
1
 10 
0.46726
 20 
0.4448
 30 
0.0
 0 
VERTEX
 8 
1
 10 
0.43475
 20 
0.4494
 30 
0.0
 0 
VERTEX
 8 
1
 10 
0.4025
 20 
0.4537
 30 
0.0
 0 
VERTEX
 8 
1
 10 
0.37062
 20 
0.4584
 30 
0.0
 0 
VERTEX
 8 
1
 10 
0.33926
 20 
0.4622
 30 
0.0
 0 
VERTEX
 8 
1
 10 
0.30867
 20 
0.4666
 30 
0.0
 0 
VERTEX
 8 
1
 10 
0.27885
 20 
0.4708
 30 
0.0
 0 
VERTEX
 8 
1
 10 
0.25005
 20 
0.474
 30 
0.0
 0 
VERTEX
 8 
1
 10 
0.22227
 20 
0.4766
 30 
0.0
 0 
VERTEX
 8 
1
 10 
0.19565
 20 
0.4808
 30 
0.0
 0 
VERTEX
 8 
1
 10 
0.1703
 20 
0.4838
 30 
0.0
 0 
VERTEX
 8 
1
 10 
0.1465
 20 
0.4862
 30 
0.0
 0 
VERTEX
 8 
1
 10 
0.1241
 20 
0.4886
 30 
0.0
 0 
VERTEX
 8 
1
 10 
0.10356
 20 
0.4904
 30 
0.0
 0 
VERTEX
 8 
1
 10 
0.08429
 20 
0.4924
 30 
0.0
 0 
VERTEX
 8 
1
 10 
0.06701
 20 
0.4942
 30 
0.0
 0 
VERTEX
 8 
1
 10 
0.05152
 20 
0.4952
 30 
0.0
 0 
VERTEX
 8 
1
 10 
0.03808
 20 
0.4966
 30 
0.0
 0 
VERTEX
 8 
1
 10 
0.02656
 20 
0.4974
 30 
0.0
 0 
VERTEX
 8 
1
 10 
0.017090
 20 
0.498
 30 
0.0
 0 
VERTEX
 8 
1
 10 
0.00966
 20 
0.4986
 30 
0.0
 0 
VERTEX
 8 
1
 10 
0.0042900
 20 
0.4992
 30 
0.0
 0 
VERTEX
 8 
1
 10 
0.0010900
 20 
0.4994
 30 
0.0
 0 
VERTEX
 8 
1
 10 
0.0
 20 
0.5
 30 
0.0
 0 
SEQEND
 8 
1
 0 
ENDSEC
 0 
EOF
