 0 
SECTION
 2 
ENTITIES
 0 
POLYLINE
 8 
1
 66 
 1 
 10 
0.0
 20 
0.0
 30 
0.0
 0 
VERTEX
 8 
1
 10 
0.0
 20 
0.5
 30 
0.0
 0 
VERTEX
 8 
1
 10 
0.0010900
 20 
0.5004
 30 
0.0
 0 
VERTEX
 8 
1
 10 
0.0042900
 20 
0.5008
 30 
0.0
 0 
VERTEX
 8 
1
 10 
0.00966
 20 
0.5012
 30 
0.0
 0 
VERTEX
 8 
1
 10 
0.017090
 20 
0.5018
 30 
0.0
 0 
VERTEX
 8 
1
 10 
0.02656
 20 
0.5024
 30 
0.0
 0 
VERTEX
 8 
1
 10 
0.03808
 20 
0.5034
 30 
0.0
 0 
VERTEX
 8 
1
 10 
0.05152
 20 
0.5046
 30 
0.0
 0 
VERTEX
 8 
1
 10 
0.06701
 20 
0.5058
 30 
0.0
 0 
VERTEX
 8 
1
 10 
0.08429
 20 
0.5076
 30 
0.0
 0 
VERTEX
 8 
1
 10 
0.10356
 20 
0.5098
 30 
0.0
 0 
VERTEX
 8 
1
 10 
0.1241
 20 
0.5124
 30 
0.0
 0 
VERTEX
 8 
1
 10 
0.14645
 20 
0.515
 30 
0.0
 0 
VERTEX
 8 
1
 10 
0.1703
 20 
0.5182
 30 
0.0
 0 
VERTEX
 8 
1
 10 
0.19565
 20 
0.5218
 30 
0.0
 0 
VERTEX
 8 
1
 10 
0.22227
 20 
0.5258
 30 
0.0
 0 
VERTEX
 8 
1
 10 
0.25005
 20 
0.5296
 30 
0.0
 0 
VERTEX
 8 
1
 10 
0.27885
 20 
0.5342
 30 
0.0
 0 
VERTEX
 8 
1
 10 
0.30867
 20 
0.5392
 30 
0.0
 0 
VERTEX
 8 
1
 10 
0.33926
 20 
0.5438
 30 
0.0
 0 
VERTEX
 8 
1
 10 
0.37062
 20 
0.549
 30 
0.0
 0 
VERTEX
 8 
1
 10 
0.4025
 20 
0.5542
 30 
0.0
 0 
VERTEX
 8 
1
 10 
0.43475
 20 
0.559
 30 
0.0
 0 
VERTEX
 8 
1
 10 
0.46726
 20 
0.5638
 30 
0.0
 0 
VERTEX
 8 
1
 10 
0.50003
 20 
0.568
 30 
0.0
 0 
VERTEX
 8 
1
 10 
0.53267
 20 
0.571
 30 
0.0
 0 
VERTEX
 8 
1
 10 
0.56531
 20 
0.5736
 30 
0.0
 0 
VERTEX
 8 
1
 10 
0.59757
 20 
0.5754
 30 
0.0
 0 
VERTEX
 8 
1
 10 
0.62944
 20 
0.5764
 30 
0.0
 0 
VERTEX
 8 
1
 10 
0.66067
 20 
0.5764
 30 
0.0
 0 
VERTEX
 8 
1
 10 
0.69139
 20 
0.5758
 30 
0.0
 0 
VERTEX
 8 
1
 10 
0.72109
 20 
0.5748
 30 
0.0
 0 
VERTEX
 8 
1
 10 
0.75002
 20 
0.5734
 30 
0.0
 0 
VERTEX
 8 
1
 10 
0.77779
 20 
0.571
 30 
0.0
 0 
VERTEX
 8 
1
 10 
0.80442
 20 
0.5684
 30 
0.0
 0 
VERTEX
 8 
1
 10 
0.82963
 20 
0.565
 30 
0.0
 0 
VERTEX
 8 
1
 10 
0.85357
 20 
0.5614
 30 
0.0
 0 
VERTEX
 8 
1
 10 
0.87597
 20 
0.5576
 30 
0.0
 0 
VERTEX
 8 
1
 10 
0.8967
 20 
0.5534
 30 
0.0
 0 
VERTEX
 8 
1
 10 
0.91578
 20 
0.5488
 30 
0.0
 0 
VERTEX
 8 
1
 10 
0.93306
 20 
0.5438
 30 
0.0
 0 
VERTEX
 8 
1
 10 
0.94842
 20 
0.5388
 30 
0.0
 0 
VERTEX
 8 
1
 10 
0.96198
 20 
0.5332
 30 
0.0
 0 
VERTEX
 8 
1
 10 
0.9735
 20 
0.5276
 30 
0.0
 0 
VERTEX
 8 
1
 10 
0.98238
 20 
0.5218
 30 
0.0
 0 
VERTEX
 8 
1
 10 
0.9904
 20 
0.516
 30 
0.0
 0 
VERTEX
 8 
1
 10 
0.99578
 20 
0.5092
 30 
0.0
 0 
VERTEX
 8 
1
 10 
0.99898
 20 
0.5044
 30 
0.0
 0 
VERTEX
 8 
1
 10 
1
 20 
0.5
 30 
0.0
 0 
VERTEX
 8 
1
 10 
0.99898
 20 
0.4956
 30 
0.0
 0 
VERTEX
 8 
1
 10 
0.99578
 20 
0.4908
 30 
0.0
 0 
VERTEX
 8 
1
 10 
0.9904
 20 
0.484
 30 
0.0
 0 
VERTEX
 8 
1
 10 
0.98238
 20 
0.4782
 30 
0.0
 0 
VERTEX
 8 
1
 10 
0.9735
 20 
0.4724
 30 
0.0
 0 
VERTEX
 8 
1
 10 
0.96198
 20 
0.4668
 30 
0.0
 0 
VERTEX
 8 
1
 10 
0.94842
 20 
0.4612
 30 
0.0
 0 
VERTEX
 8 
1
 10 
0.93306
 20 
0.4562
 30 
0.0
 0 
VERTEX
 8 
1
 10 
0.91578
 20 
0.4512
 30 
0.0
 0 
VERTEX
 8 
1
 10 
0.8967
 20 
0.4466
 30 
0.0
 0 
VERTEX
 8 
1
 10 
0.87597
 20 
0.4424
 30 
0.0
 0 
VERTEX
 8 
1
 10 
0.85357
 20 
0.4386
 30 
0.0
 0 
VERTEX
 8 
1
 10 
0.82963
 20 
0.435
 30 
0.0
 0 
VERTEX
 8 
1
 10 
0.80442
 20 
0.4316
 30 
0.0
 0 
VERTEX
 8 
1
 10 
0.77779
 20 
0.429
 30 
0.0
 0 
VERTEX
 8 
1
 10 
0.75002
 20 
0.4266
 30 
0.0
 0 
VERTEX
 8 
1
 10 
0.72109
 20 
0.4252
 30 
0.0
 0 
VERTEX
 8 
1
 10 
0.69139
 20 
0.4242
 30 
0.0
 0 
VERTEX
 8 
1
 10 
0.66067
 20 
0.4236
 30 
0.0
 0 
VERTEX
 8 
1
 10 
0.62944
 20 
0.4236
 30 
0.0
 0 
VERTEX
 8 
1
 10 
0.59757
 20 
0.4246
 30 
0.0
 0 
VERTEX
 8 
1
 10 
0.56531
 20 
0.4264
 30 
0.0
 0 
VERTEX
 8 
1
 10 
0.53267
 20 
0.429
 30 
0.0
 0 
VERTEX
 8 
1
 10 
0.50003
 20 
0.432
 30 
0.0
 0 
VERTEX
 8 
1
 10 
0.46726
 20 
0.4362
 30 
0.0
 0 
VERTEX
 8 
1
 10 
0.43475
 20 
0.441
 30 
0.0
 0 
VERTEX
 8 
1
 10 
0.4025
 20 
0.4458
 30 
0.0
 0 
VERTEX
 8 
1
 10 
0.37062
 20 
0.451
 30 
0.0
 0 
VERTEX
 8 
1
 10 
0.33926
 20 
0.4562
 30 
0.0
 0 
VERTEX
 8 
1
 10 
0.30867
 20 
0.4608
 30 
0.0
 0 
VERTEX
 8 
1
 10 
0.27885
 20 
0.4658
 30 
0.0
 0 
VERTEX
 8 
1
 10 
0.25005
 20 
0.4704
 30 
0.0
 0 
VERTEX
 8 
1
 10 
0.22227
 20 
0.4742
 30 
0.0
 0 
VERTEX
 8 
1
 10 
0.19565
 20 
0.4782
 30 
0.0
 0 
VERTEX
 8 
1
 10 
0.1703
 20 
0.4818
 30 
0.0
 0 
VERTEX
 8 
1
 10 
0.14645
 20 
0.485
 30 
0.0
 0 
VERTEX
 8 
1
 10 
0.1241
 20 
0.4876
 30 
0.0
 0 
VERTEX
 8 
1
 10 
0.10356
 20 
0.4902
 30 
0.0
 0 
VERTEX
 8 
1
 10 
0.08429
 20 
0.4924
 30 
0.0
 0 
VERTEX
 8 
1
 10 
0.06701
 20 
0.4942
 30 
0.0
 0 
VERTEX
 8 
1
 10 
0.05152
 20 
0.4954
 30 
0.0
 0 
VERTEX
 8 
1
 10 
0.03808
 20 
0.4966
 30 
0.0
 0 
VERTEX
 8 
1
 10 
0.02656
 20 
0.4976
 30 
0.0
 0 
VERTEX
 8 
1
 10 
0.017090
 20 
0.4982
 30 
0.0
 0 
VERTEX
 8 
1
 10 
0.00966
 20 
0.4988
 30 
0.0
 0 
VERTEX
 8 
1
 10 
0.0042900
 20 
0.4992
 30 
0.0
 0 
VERTEX
 8 
1
 10 
0.0010900
 20 
0.4996
 30 
0.0
 0 
SEQEND
 8 
1
 0 
ENDSEC
 0 
EOF
