 0 
SECTION
 2 
ENTITIES
 0 
POLYLINE
 8 
1
 66 
 1 
 10 
0.0
 20 
0.0
 30 
0.0
 0 
VERTEX
 8 
1
 10 
0.0
 20 
0.5
 30 
0.0
 0 
VERTEX
 8 
1
 10 
0.0010900
 20 
0.5006
 30 
0.0
 0 
VERTEX
 8 
1
 10 
0.0042900
 20 
0.50148
 30 
0.0
 0 
VERTEX
 8 
1
 10 
0.00966
 20 
0.50275
 30 
0.0
 0 
VERTEX
 8 
1
 10 
0.017090
 20 
0.50431
 30 
0.0
 0 
VERTEX
 8 
1
 10 
0.02656
 20 
0.50618
 30 
0.0
 0 
VERTEX
 8 
1
 10 
0.03808
 20 
0.50833
 30 
0.0
 0 
VERTEX
 8 
1
 10 
0.05152
 20 
0.51081
 30 
0.0
 0 
VERTEX
 8 
1
 10 
0.06701
 20 
0.51365
 30 
0.0
 0 
VERTEX
 8 
1
 10 
0.08429
 20 
0.51678
 30 
0.0
 0 
VERTEX
 8 
1
 10 
0.10356
 20 
0.5203
 30 
0.0
 0 
VERTEX
 8 
1
 10 
0.1241
 20 
0.5241
 30 
0.0
 0 
VERTEX
 8 
1
 10 
0.1465
 20 
0.52828
 30 
0.0
 0 
VERTEX
 8 
1
 10 
0.1703
 20 
0.53272
 30 
0.0
 0 
VERTEX
 8 
1
 10 
0.19565
 20 
0.53753
 30 
0.0
 0 
VERTEX
 8 
1
 10 
0.22227
 20 
0.5425
 30 
0.0
 0 
VERTEX
 8 
1
 10 
0.25005
 20 
0.54786
 30 
0.0
 0 
VERTEX
 8 
1
 10 
0.27885
 20 
0.55332
 30 
0.0
 0 
VERTEX
 8 
1
 10 
0.30867
 20 
0.55908
 30 
0.0
 0 
VERTEX
 8 
1
 10 
0.33926
 20 
0.56487
 30 
0.0
 0 
VERTEX
 8 
1
 10 
0.37062
 20 
0.57099
 30 
0.0
 0 
VERTEX
 8 
1
 10 
0.4025
 20 
0.57695
 30 
0.0
 0 
VERTEX
 8 
1
 10 
0.43475
 20 
0.58308
 30 
0.0
 0 
VERTEX
 8 
1
 10 
0.46726
 20 
0.5888
 30 
0.0
 0 
VERTEX
 8 
1
 10 
0.50003
 20 
0.59459
 30 
0.0
 0 
VERTEX
 8 
1
 10 
0.53267
 20 
0.59973
 30 
0.0
 0 
VERTEX
 8 
1
 10 
0.56531
 20 
0.60483
 30 
0.0
 0 
VERTEX
 8 
1
 10 
0.59757
 20 
0.60888
 30 
0.0
 0 
VERTEX
 8 
1
 10 
0.62944
 20 
0.61206
 30 
0.0
 0 
VERTEX
 8 
1
 10 
0.66067
 20 
0.61339
 30 
0.0
 0 
VERTEX
 8 
1
 10 
0.69139
 20 
0.61355
 30 
0.0
 0 
VERTEX
 8 
1
 10 
0.72109
 20 
0.61173
 30 
0.0
 0 
VERTEX
 8 
1
 10 
0.75002
 20 
0.60898
 30 
0.0
 0 
VERTEX
 8 
1
 10 
0.77779
 20 
0.60453
 30 
0.0
 0 
VERTEX
 8 
1
 10 
0.80442
 20 
0.59964
 30 
0.0
 0 
VERTEX
 8 
1
 10 
0.82963
 20 
0.59338
 30 
0.0
 0 
VERTEX
 8 
1
 10 
0.85357
 20 
0.58712
 30 
0.0
 0 
VERTEX
 8 
1
 10 
0.87597
 20 
0.57957
 30 
0.0
 0 
VERTEX
 8 
1
 10 
0.8967
 20 
0.57243
 30 
0.0
 0 
VERTEX
 8 
1
 10 
0.91578
 20 
0.5641
 30 
0.0
 0 
VERTEX
 8 
1
 10 
0.93306
 20 
0.55656
 30 
0.0
 0 
VERTEX
 8 
1
 10 
0.94842
 20 
0.54789
 30 
0.0
 0 
VERTEX
 8 
1
 10 
0.96198
 20 
0.54
 30 
0.0
 0 
VERTEX
 8 
1
 10 
0.9735
 20 
0.53158
 30 
0.0
 0 
VERTEX
 8 
1
 10 
0.98298
 20 
0.52454
 30 
0.0
 0 
VERTEX
 8 
1
 10 
0.9904
 20 
0.5175
 30 
0.0
 0 
VERTEX
 8 
1
 10 
0.99578
 20 
0.51052
 30 
0.0
 0 
VERTEX
 8 
1
 10 
0.99898
 20 
0.504
 30 
0.0
 0 
VERTEX
 8 
1
 10 
1
 20 
0.5
 30 
0.0
 0 
VERTEX
 8 
1
 10 
0.99898
 20 
0.4975
 30 
0.0
 0 
VERTEX
 8 
1
 10 
0.99578
 20 
0.4932
 30 
0.0
 0 
VERTEX
 8 
1
 10 
0.9904
 20 
0.48905
 30 
0.0
 0 
VERTEX
 8 
1
 10 
0.98298
 20 
0.486
 30 
0.0
 0 
VERTEX
 8 
1
 10 
0.9735
 20 
0.48286
 30 
0.0
 0 
VERTEX
 8 
1
 10 
0.96198
 20 
0.48
 30 
0.0
 0 
VERTEX
 8 
1
 10 
0.94842
 20 
0.47691
 30 
0.0
 0 
VERTEX
 8 
1
 10 
0.93306
 20 
0.4744
 30 
0.0
 0 
VERTEX
 8 
1
 10 
0.91578
 20 
0.4711
 30 
0.0
 0 
VERTEX
 8 
1
 10 
0.8967
 20 
0.46873
 30 
0.0
 0 
VERTEX
 8 
1
 10 
0.87597
 20 
0.46574
 30 
0.0
 0 
VERTEX
 8 
1
 10 
0.85357
 20 
0.46365
 30 
0.0
 0 
VERTEX
 8 
1
 10 
0.82963
 20 
0.46114
 30 
0.0
 0 
VERTEX
 8 
1
 10 
0.80442
 20 
0.45942
 30 
0.0
 0 
VERTEX
 8 
1
 10 
0.77779
 20 
0.45755
 30 
0.0
 0 
VERTEX
 8 
1
 10 
0.75002
 20 
0.45655
 30 
0.0
 0 
VERTEX
 8 
1
 10 
0.72109
 20 
0.45569
 30 
0.0
 0 
VERTEX
 8 
1
 10 
0.69139
 20 
0.45575
 30 
0.0
 0 
VERTEX
 8 
1
 10 
0.66067
 20 
0.45625
 30 
0.0
 0 
VERTEX
 8 
1
 10 
0.62944
 20 
0.45785
 30 
0.0
 0 
VERTEX
 8 
1
 10 
0.59757
 20 
0.4605
 30 
0.0
 0 
VERTEX
 8 
1
 10 
0.56531
 20 
0.46443
 30 
0.0
 0 
VERTEX
 8 
1
 10 
0.53267
 20 
0.469
 30 
0.0
 0 
VERTEX
 8 
1
 10 
0.50003
 20 
0.47391
 30 
0.0
 0 
VERTEX
 8 
1
 10 
0.46726
 20 
0.47863
 30 
0.0
 0 
VERTEX
 8 
1
 10 
0.43475
 20 
0.48321
 30 
0.0
 0 
VERTEX
 8 
1
 10 
0.4025
 20 
0.48736
 30 
0.0
 0 
VERTEX
 8 
1
 10 
0.37062
 20 
0.49116
 30 
0.0
 0 
VERTEX
 8 
1
 10 
0.33926
 20 
0.49444
 30 
0.0
 0 
VERTEX
 8 
1
 10 
0.30867
 20 
0.4973
 30 
0.0
 0 
VERTEX
 8 
1
 10 
0.27885
 20 
0.49959
 30 
0.0
 0 
VERTEX
 8 
1
 10 
0.25005
 20 
0.50152
 30 
0.0
 0 
VERTEX
 8 
1
 10 
0.22227
 20 
0.50293
 30 
0.0
 0 
VERTEX
 8 
1
 10 
0.19565
 20 
0.50402
 30 
0.0
 0 
VERTEX
 8 
1
 10 
0.1703
 20 
0.50469
 30 
0.0
 0 
VERTEX
 8 
1
 10 
0.1465
 20 
0.50513
 30 
0.0
 0 
VERTEX
 8 
1
 10 
0.1241
 20 
0.50521
 30 
0.0
 0 
VERTEX
 8 
1
 10 
0.10356
 20 
0.50508
 30 
0.0
 0 
VERTEX
 8 
1
 10 
0.08429
 20 
0.50473
 30 
0.0
 0 
VERTEX
 8 
1
 10 
0.06701
 20 
0.50424
 30 
0.0
 0 
VERTEX
 8 
1
 10 
0.05152
 20 
0.50363
 30 
0.0
 0 
VERTEX
 8 
1
 10 
0.03808
 20 
0.50295
 30 
0.0
 0 
VERTEX
 8 
1
 10 
0.02656
 20 
0.5022
 30 
0.0
 0 
VERTEX
 8 
1
 10 
0.017090
 20 
0.50145
 30 
0.0
 0 
VERTEX
 8 
1
 10 
0.00966
 20 
0.50076
 30 
0.0
 0 
VERTEX
 8 
1
 10 
0.0042900
 20 
0.50023
 30 
0.0
 0 
VERTEX
 8 
1
 10 
0.0010900
 20 
0.50005
 30 
0.0
 0 
VERTEX
 8 
1
 10 
0.0
 20 
0.5
 30 
0.0
 0 
SEQEND
 8 
1
 0 
ENDSEC
 0 
EOF
