 0 
SECTION
 2 
ENTITIES
 0 
POLYLINE
 8 
1
 66 
 1 
 10 
0.0
 20 
0.0
 30 
0.0
 0 
VERTEX
 8 
1
 10 
0.0
 20 
0.50014
 30 
0.0
 0 
VERTEX
 8 
1
 10 
0.0024600
 20 
0.50151
 30 
0.0
 0 
VERTEX
 8 
1
 10 
0.0092999
 20 
0.50419
 30 
0.0
 0 
VERTEX
 8 
1
 10 
0.01963
 20 
0.50623
 30 
0.0
 0 
VERTEX
 8 
1
 10 
0.03302
 20 
0.50919
 30 
0.0
 0 
VERTEX
 8 
1
 10 
0.04956
 20 
0.513
 30 
0.0
 0 
VERTEX
 8 
1
 10 
0.06936
 20 
0.5172
 30 
0.0
 0 
VERTEX
 8 
1
 10 
0.092250
 20 
0.52213
 30 
0.0
 0 
VERTEX
 8 
1
 10 
0.11798
 20 
0.52757
 30 
0.0
 0 
VERTEX
 8 
1
 10 
0.1463
 20 
0.53335
 30 
0.0
 0 
VERTEX
 8 
1
 10 
0.17691
 20 
0.53944
 30 
0.0
 0 
VERTEX
 8 
1
 10 
0.20952
 20 
0.54581
 30 
0.0
 0 
VERTEX
 8 
1
 10 
0.24384
 20 
0.55236
 30 
0.0
 0 
VERTEX
 8 
1
 10 
0.27957
 20 
0.55893
 30 
0.0
 0 
VERTEX
 8 
1
 10 
0.31641
 20 
0.56539
 30 
0.0
 0 
VERTEX
 8 
1
 10 
0.35406
 20 
0.57161
 30 
0.0
 0 
VERTEX
 8 
1
 10 
0.39222
 20 
0.57745
 30 
0.0
 0 
VERTEX
 8 
1
 10 
0.43063
 20 
0.58278
 30 
0.0
 0 
VERTEX
 8 
1
 10 
0.46901
 20 
0.58745
 30 
0.0
 0 
VERTEX
 8 
1
 10 
0.50735
 20 
0.59138
 30 
0.0
 0 
VERTEX
 8 
1
 10 
0.54565
 20 
0.59455
 30 
0.0
 0 
VERTEX
 8 
1
 10 
0.58362
 20 
0.59689
 30 
0.0
 0 
VERTEX
 8 
1
 10 
0.62113
 20 
0.59835
 30 
0.0
 0 
VERTEX
 8 
1
 10 
0.65796
 20 
0.59886
 30 
0.0
 0 
VERTEX
 8 
1
 10 
0.69391
 20 
0.59832
 30 
0.0
 0 
VERTEX
 8 
1
 10 
0.7288
 20 
0.59666
 30 
0.0
 0 
VERTEX
 8 
1
 10 
0.7624
 20 
0.59383
 30 
0.0
 0 
VERTEX
 8 
1
 10 
0.79451
 20 
0.58982
 30 
0.0
 0 
VERTEX
 8 
1
 10 
0.82496
 20 
0.58469
 30 
0.0
 0 
VERTEX
 8 
1
 10 
0.85352
 20 
0.57851
 30 
0.0
 0 
VERTEX
 8 
1
 10 
0.88001
 20 
0.57137
 30 
0.0
 0 
VERTEX
 8 
1
 10 
0.90424
 20 
0.56334
 30 
0.0
 0 
VERTEX
 8 
1
 10 
0.92605
 20 
0.55453
 30 
0.0
 0 
VERTEX
 8 
1
 10 
0.94532
 20 
0.54523
 30 
0.0
 0 
VERTEX
 8 
1
 10 
0.96189
 20 
0.5361
 30 
0.0
 0 
VERTEX
 8 
1
 10 
0.97567
 20 
0.52764
 30 
0.0
 0 
VERTEX
 8 
1
 10 
0.98662
 20 
0.51975
 30 
0.0
 0 
VERTEX
 8 
1
 10 
0.99452
 20 
0.51212
 30 
0.0
 0 
VERTEX
 8 
1
 10 
0.99902
 20 
0.50497
 30 
0.0
 0 
VERTEX
 8 
1
 10 
1
 20 
0.50001
 30 
0.0
 0 
VERTEX
 8 
1
 10 
0.99902
 20 
0.49507
 30 
0.0
 0 
VERTEX
 8 
1
 10 
0.99452
 20 
0.48836
 30 
0.0
 0 
VERTEX
 8 
1
 10 
0.98662
 20 
0.48216
 30 
0.0
 0 
VERTEX
 8 
1
 10 
0.97567
 20 
0.47671
 30 
0.0
 0 
VERTEX
 8 
1
 10 
0.96189
 20 
0.47174
 30 
0.0
 0 
VERTEX
 8 
1
 10 
0.94532
 20 
0.46712
 30 
0.0
 0 
VERTEX
 8 
1
 10 
0.92605
 20 
0.46276
 30 
0.0
 0 
VERTEX
 8 
1
 10 
0.90424
 20 
0.45864
 30 
0.0
 0 
VERTEX
 8 
1
 10 
0.88001
 20 
0.45488
 30 
0.0
 0 
VERTEX
 8 
1
 10 
0.85352
 20 
0.45175
 30 
0.0
 0 
VERTEX
 8 
1
 10 
0.82496
 20 
0.44933
 30 
0.0
 0 
VERTEX
 8 
1
 10 
0.79451
 20 
0.44754
 30 
0.0
 0 
VERTEX
 8 
1
 10 
0.7624
 20 
0.44624
 30 
0.0
 0 
VERTEX
 8 
1
 10 
0.7288
 20 
0.44539
 30 
0.0
 0 
VERTEX
 8 
1
 10 
0.69391
 20 
0.44499
 30 
0.0
 0 
VERTEX
 8 
1
 10 
0.65796
 20 
0.44507
 30 
0.0
 0 
VERTEX
 8 
1
 10 
0.62113
 20 
0.44567
 30 
0.0
 0 
VERTEX
 8 
1
 10 
0.58362
 20 
0.44677
 30 
0.0
 0 
VERTEX
 8 
1
 10 
0.54565
 20 
0.44838
 30 
0.0
 0 
VERTEX
 8 
1
 10 
0.50735
 20 
0.45045
 30 
0.0
 0 
VERTEX
 8 
1
 10 
0.46901
 20 
0.45291
 30 
0.0
 0 
VERTEX
 8 
1
 10 
0.43063
 20 
0.4557
 30 
0.0
 0 
VERTEX
 8 
1
 10 
0.39222
 20 
0.45876
 30 
0.0
 0 
VERTEX
 8 
1
 10 
0.35406
 20 
0.46202
 30 
0.0
 0 
VERTEX
 8 
1
 10 
0.31641
 20 
0.46539
 30 
0.0
 0 
VERTEX
 8 
1
 10 
0.27957
 20 
0.46879
 30 
0.0
 0 
VERTEX
 8 
1
 10 
0.24384
 20 
0.47218
 30 
0.0
 0 
VERTEX
 8 
1
 10 
0.20952
 20 
0.47554
 30 
0.0
 0 
VERTEX
 8 
1
 10 
0.17691
 20 
0.47882
 30 
0.0
 0 
VERTEX
 8 
1
 10 
0.1463
 20 
0.48198
 30 
0.0
 0 
VERTEX
 8 
1
 10 
0.11798
 20 
0.48494
 30 
0.0
 0 
VERTEX
 8 
1
 10 
0.092250
 20 
0.48767
 30 
0.0
 0 
VERTEX
 8 
1
 10 
0.06936
 20 
0.49013
 30 
0.0
 0 
VERTEX
 8 
1
 10 
0.04956
 20 
0.49222
 30 
0.0
 0 
VERTEX
 8 
1
 10 
0.03302
 20 
0.49362
 30 
0.0
 0 
VERTEX
 8 
1
 10 
0.01963
 20 
0.49478
 30 
0.0
 0 
VERTEX
 8 
1
 10 
0.0092999
 20 
0.49656
 30 
0.0
 0 
VERTEX
 8 
1
 10 
0.0024600
 20 
0.49883
 30 
0.0
 0 
VERTEX
 8 
1
 10 
0.0
 20 
0.49999
 30 
0.0
 0 
SEQEND
 8 
1
 0 
ENDSEC
 0 
EOF
