 0 
SECTION
 2 
ENTITIES
 0 
POLYLINE
 8 
1
 66 
 1 
 10 
0.0
 20 
0.0
 30 
0.0
 0 
VERTEX
 8 
1
 10 
0.0000099999
 20 
0.50018
 30 
0.0
 0 
VERTEX
 8 
1
 10 
0.05011
 20 
0.50605
 30 
0.0
 0 
VERTEX
 8 
1
 10 
0.10022
 20 
0.51191
 30 
0.0
 0 
VERTEX
 8 
1
 10 
0.15033
 20 
0.51777
 30 
0.0
 0 
VERTEX
 8 
1
 10 
0.20043
 20 
0.52363
 30 
0.0
 0 
VERTEX
 8 
1
 10 
0.25054
 20 
0.5295
 30 
0.0
 0 
VERTEX
 8 
1
 10 
0.30064
 20 
0.53516
 30 
0.0
 0 
VERTEX
 8 
1
 10 
0.35073
 20 
0.54025
 30 
0.0
 0 
VERTEX
 8 
1
 10 
0.40081
 20 
0.54459
 30 
0.0
 0 
VERTEX
 8 
1
 10 
0.45088
 20 
0.54832
 30 
0.0
 0 
VERTEX
 8 
1
 10 
0.50093
 20 
0.55106
 30 
0.0
 0 
VERTEX
 8 
1
 10 
0.55096
 20 
0.55263
 30 
0.0
 0 
VERTEX
 8 
1
 10 
0.60097
 20 
0.55313
 30 
0.0
 0 
VERTEX
 8 
1
 10 
0.65096
 20 
0.55292
 30 
0.0
 0 
VERTEX
 8 
1
 10 
0.70094
 20 
0.55196
 30 
0.0
 0 
VERTEX
 8 
1
 10 
0.75091
 20 
0.55003
 30 
0.0
 0 
VERTEX
 8 
1
 10 
0.80085
 20 
0.54682
 30 
0.0
 0 
VERTEX
 8 
1
 10 
0.85076
 20 
0.54193
 30 
0.0
 0 
VERTEX
 8 
1
 10 
0.90063
 20 
0.53485
 30 
0.0
 0 
VERTEX
 8 
1
 10 
0.92555
 20 
0.53031
 30 
0.0
 0 
VERTEX
 8 
1
 10 
0.95045
 20 
0.5248
 30 
0.0
 0 
VERTEX
 8 
1
 10 
0.97532
 20 
0.51752
 30 
0.0
 0 
VERTEX
 8 
1
 10 
0.98772
 20 
0.51235
 30 
0.0
 0 
VERTEX
 8 
1
 10 
0.99267
 20 
0.50958
 30 
0.0
 0 
VERTEX
 8 
1
 10 
0.99514
 20 
0.50781
 30 
0.0
 0 
VERTEX
 8 
1
 10 
1
 20 
0.5
 30 
0.0
 0 
VERTEX
 8 
1
 10 
0.9949
 20 
0.49427
 30 
0.0
 0 
VERTEX
 8 
1
 10 
0.99237
 20 
0.49302
 30 
0.0
 0 
VERTEX
 8 
1
 10 
0.98734
 20 
0.4911
 30 
0.0
 0 
VERTEX
 8 
1
 10 
0.97478
 20 
0.488
 30 
0.0
 0 
VERTEX
 8 
1
 10 
0.94972
 20 
0.48479
 30 
0.0
 0 
VERTEX
 8 
1
 10 
0.92469
 20 
0.48287
 30 
0.0
 0 
VERTEX
 8 
1
 10 
0.89966
 20 
0.48144
 30 
0.0
 0 
VERTEX
 8 
1
 10 
0.84962
 20 
0.47922
 30 
0.0
 0 
VERTEX
 8 
1
 10 
0.79959
 20 
0.47732
 30 
0.0
 0 
VERTEX
 8 
1
 10 
0.74956
 20 
0.47558
 30 
0.0
 0 
VERTEX
 8 
1
 10 
0.69953
 20 
0.47395
 30 
0.0
 0 
VERTEX
 8 
1
 10 
0.6495
 20 
0.47234
 30 
0.0
 0 
VERTEX
 8 
1
 10 
0.59947
 20 
0.47078
 30 
0.0
 0 
VERTEX
 8 
1
 10 
0.54945
 20 
0.46972
 30 
0.0
 0 
VERTEX
 8 
1
 10 
0.49945
 20 
0.46965
 30 
0.0
 0 
VERTEX
 8 
1
 10 
0.44946
 20 
0.4704
 30 
0.0
 0 
VERTEX
 8 
1
 10 
0.39949
 20 
0.472
 30 
0.0
 0 
VERTEX
 8 
1
 10 
0.34954
 20 
0.47436
 30 
0.0
 0 
VERTEX
 8 
1
 10 
0.29959
 20 
0.47738
 30 
0.0
 0 
VERTEX
 8 
1
 10 
0.24966
 20 
0.48101
 30 
0.0
 0 
VERTEX
 8 
1
 10 
0.19973
 20 
0.48478
 30 
0.0
 0 
VERTEX
 8 
1
 10 
0.14979
 20 
0.48853
 30 
0.0
 0 
VERTEX
 8 
1
 10 
0.099859
 20 
0.4923
 30 
0.0
 0 
VERTEX
 8 
1
 10 
0.04993
 20 
0.49606
 30 
0.0
 0 
VERTEX
 8 
1
 10 
0.0
 20 
0.49982
 30 
0.0
 0 
SEQEND
 8 
1
 0 
ENDSEC
 0 
EOF
