 0 
SECTION
 2 
ENTITIES
 0 
POLYLINE
 8 
1
 66 
 1 
 10 
0.0
 20 
0.0
 30 
0.0
 0 
VERTEX
 8 
1
 10 
0.0
 20 
0.50018
 30 
0.0
 0 
VERTEX
 8 
1
 10 
0.04987
 20 
0.50545
 30 
0.0
 0 
VERTEX
 8 
1
 10 
0.09973
 20 
0.51071
 30 
0.0
 0 
VERTEX
 8 
1
 10 
0.1496
 20 
0.51612
 30 
0.0
 0 
VERTEX
 8 
1
 10 
0.19945
 20 
0.52181
 30 
0.0
 0 
VERTEX
 8 
1
 10 
0.2493
 20 
0.52759
 30 
0.0
 0 
VERTEX
 8 
1
 10 
0.29916
 20 
0.53328
 30 
0.0
 0 
VERTEX
 8 
1
 10 
0.34903
 20 
0.53836
 30 
0.0
 0 
VERTEX
 8 
1
 10 
0.39891
 20 
0.54301
 30 
0.0
 0 
VERTEX
 8 
1
 10 
0.44881
 20 
0.54719
 30 
0.0
 0 
VERTEX
 8 
1
 10 
0.49871
 20 
0.55101
 30 
0.0
 0 
VERTEX
 8 
1
 10 
0.54862
 20 
0.55455
 30 
0.0
 0 
VERTEX
 8 
1
 10 
0.59854
 20 
0.55759
 30 
0.0
 0 
VERTEX
 8 
1
 10 
0.64848
 20 
0.55986
 30 
0.0
 0 
VERTEX
 8 
1
 10 
0.69847
 20 
0.56048
 30 
0.0
 0 
VERTEX
 8 
1
 10 
0.74848
 20 
0.55984
 30 
0.0
 0 
VERTEX
 8 
1
 10 
0.79853
 20 
0.55791
 30 
0.0
 0 
VERTEX
 8 
1
 10 
0.84861
 20 
0.5547
 30 
0.0
 0 
VERTEX
 8 
1
 10 
0.89876
 20 
0.54893
 30 
0.0
 0 
VERTEX
 8 
1
 10 
0.92387
 20 
0.54463
 30 
0.0
 0 
VERTEX
 8 
1
 10 
0.94902
 20 
0.53872
 30 
0.0
 0 
VERTEX
 8 
1
 10 
0.97425
 20 
0.52956
 30 
0.0
 0 
VERTEX
 8 
1
 10 
0.98694
 20 
0.52214
 30 
0.0
 0 
VERTEX
 8 
1
 10 
0.99205
 20 
0.51771
 30 
0.0
 0 
VERTEX
 8 
1
 10 
0.99463
 20 
0.51472
 30 
0.0
 0 
VERTEX
 8 
1
 10 
1
 20 
0.5
 30 
0.0
 0 
VERTEX
 8 
1
 10 
0.99528
 20 
0.48904
 30 
0.0
 0 
VERTEX
 8 
1
 10 
0.99283
 20 
0.48718
 30 
0.0
 0 
VERTEX
 8 
1
 10 
0.98789
 20 
0.4848
 30 
0.0
 0 
VERTEX
 8 
1
 10 
0.97544
 20 
0.48275
 30 
0.0
 0 
VERTEX
 8 
1
 10 
0.95043
 20 
0.48305
 30 
0.0
 0 
VERTEX
 8 
1
 10 
0.92543
 20 
0.48322
 30 
0.0
 0 
VERTEX
 8 
1
 10 
0.90043
 20 
0.48291
 30 
0.0
 0 
VERTEX
 8 
1
 10 
0.85047
 20 
0.48147
 30 
0.0
 0 
VERTEX
 8 
1
 10 
0.80052
 20 
0.47935
 30 
0.0
 0 
VERTEX
 8 
1
 10 
0.75057
 20 
0.47742
 30 
0.0
 0 
VERTEX
 8 
1
 10 
0.70061
 20 
0.47589
 30 
0.0
 0 
VERTEX
 8 
1
 10 
0.65064
 20 
0.47482
 30 
0.0
 0 
VERTEX
 8 
1
 10 
0.60066
 20 
0.47416
 30 
0.0
 0 
VERTEX
 8 
1
 10 
0.55066
 20 
0.47397
 30 
0.0
 0 
VERTEX
 8 
1
 10 
0.50065
 20 
0.47436
 30 
0.0
 0 
VERTEX
 8 
1
 10 
0.45063
 20 
0.47523
 30 
0.0
 0 
VERTEX
 8 
1
 10 
0.40059
 20 
0.47667
 30 
0.0
 0 
VERTEX
 8 
1
 10 
0.35055
 20 
0.47859
 30 
0.0
 0 
VERTEX
 8 
1
 10 
0.30049
 20 
0.48084
 30 
0.0
 0 
VERTEX
 8 
1
 10 
0.25041
 20 
0.48394
 30 
0.0
 0 
VERTEX
 8 
1
 10 
0.20033
 20 
0.48711
 30 
0.0
 0 
VERTEX
 8 
1
 10 
0.15025
 20 
0.49029
 30 
0.0
 0 
VERTEX
 8 
1
 10 
0.10017
 20 
0.49347
 30 
0.0
 0 
VERTEX
 8 
1
 10 
0.05009
 20 
0.49665
 30 
0.0
 0 
VERTEX
 8 
1
 10 
0.0000099999
 20 
0.49982
 30 
0.0
 0 
SEQEND
 8 
1
 0 
ENDSEC
 0 
EOF
