 0 
SECTION
 2 
ENTITIES
 0 
POLYLINE
 8 
1
 66 
 1 
 10 
0.0
 20 
0.0
 30 
0.0
 0 
VERTEX
 8 
1
 10 
0.0
 20 
0.50018
 30 
0.0
 0 
VERTEX
 8 
1
 10 
0.04993
 20 
0.50609
 30 
0.0
 0 
VERTEX
 8 
1
 10 
0.099859
 20 
0.51201
 30 
0.0
 0 
VERTEX
 8 
1
 10 
0.14979
 20 
0.51792
 30 
0.0
 0 
VERTEX
 8 
1
 10 
0.19973
 20 
0.52366
 30 
0.0
 0 
VERTEX
 8 
1
 10 
0.24966
 20 
0.52925
 30 
0.0
 0 
VERTEX
 8 
1
 10 
0.2996
 20 
0.5346
 30 
0.0
 0 
VERTEX
 8 
1
 10 
0.34954
 20 
0.53965
 30 
0.0
 0 
VERTEX
 8 
1
 10 
0.39949
 20 
0.54404
 30 
0.0
 0 
VERTEX
 8 
1
 10 
0.44944
 20 
0.54782
 30 
0.0
 0 
VERTEX
 8 
1
 10 
0.49941
 20 
0.55104
 30 
0.0
 0 
VERTEX
 8 
1
 10 
0.54937
 20 
0.55378
 30 
0.0
 0 
VERTEX
 8 
1
 10 
0.59935
 20 
0.55612
 30 
0.0
 0 
VERTEX
 8 
1
 10 
0.64933
 20 
0.55766
 30 
0.0
 0 
VERTEX
 8 
1
 10 
0.69933
 20 
0.55781
 30 
0.0
 0 
VERTEX
 8 
1
 10 
0.74934
 20 
0.55679
 30 
0.0
 0 
VERTEX
 8 
1
 10 
0.79936
 20 
0.55453
 30 
0.0
 0 
VERTEX
 8 
1
 10 
0.84941
 20 
0.5507
 30 
0.0
 0 
VERTEX
 8 
1
 10 
0.89948
 20 
0.54459
 30 
0.0
 0 
VERTEX
 8 
1
 10 
0.92453
 20 
0.54027
 30 
0.0
 0 
VERTEX
 8 
1
 10 
0.9496
 20 
0.53458
 30 
0.0
 0 
VERTEX
 8 
1
 10 
0.9747
 20 
0.52612
 30 
0.0
 0 
VERTEX
 8 
1
 10 
0.98727
 20 
0.51937
 30 
0.0
 0 
VERTEX
 8 
1
 10 
0.99232
 20 
0.51538
 30 
0.0
 0 
VERTEX
 8 
1
 10 
0.99485
 20 
0.51284
 30 
0.0
 0 
VERTEX
 8 
1
 10 
1
 20 
0.5
 30 
0.0
 0 
VERTEX
 8 
1
 10 
0.99511
 20 
0.49058
 30 
0.0
 0 
VERTEX
 8 
1
 10 
0.99263
 20 
0.48893
 30 
0.0
 0 
VERTEX
 8 
1
 10 
0.98765
 20 
0.48689
 30 
0.0
 0 
VERTEX
 8 
1
 10 
0.97518
 20 
0.4848
 30 
0.0
 0 
VERTEX
 8 
1
 10 
0.95019
 20 
0.4833
 30 
0.0
 0 
VERTEX
 8 
1
 10 
0.92521
 20 
0.48201
 30 
0.0
 0 
VERTEX
 8 
1
 10 
0.90022
 20 
0.48079
 30 
0.0
 0 
VERTEX
 8 
1
 10 
0.85025
 20 
0.47866
 30 
0.0
 0 
VERTEX
 8 
1
 10 
0.80027
 20 
0.47663
 30 
0.0
 0 
VERTEX
 8 
1
 10 
0.75029
 20 
0.47482
 30 
0.0
 0 
VERTEX
 8 
1
 10 
0.70031
 20 
0.4733
 30 
0.0
 0 
VERTEX
 8 
1
 10 
0.65032
 20 
0.47221
 30 
0.0
 0 
VERTEX
 8 
1
 10 
0.60033
 20 
0.47164
 30 
0.0
 0 
VERTEX
 8 
1
 10 
0.55033
 20 
0.47154
 30 
0.0
 0 
VERTEX
 8 
1
 10 
0.50033
 20 
0.47197
 30 
0.0
 0 
VERTEX
 8 
1
 10 
0.45032
 20 
0.47298
 30 
0.0
 0 
VERTEX
 8 
1
 10 
0.4003
 20 
0.47455
 30 
0.0
 0 
VERTEX
 8 
1
 10 
0.35027
 20 
0.47679
 30 
0.0
 0 
VERTEX
 8 
1
 10 
0.30024
 20 
0.47955
 30 
0.0
 0 
VERTEX
 8 
1
 10 
0.2502
 20 
0.48282
 30 
0.0
 0 
VERTEX
 8 
1
 10 
0.20016
 20 
0.48622
 30 
0.0
 0 
VERTEX
 8 
1
 10 
0.15012
 20 
0.48962
 30 
0.0
 0 
VERTEX
 8 
1
 10 
0.10008
 20 
0.49302
 30 
0.0
 0 
VERTEX
 8 
1
 10 
0.05004
 20 
0.49641
 30 
0.0
 0 
VERTEX
 8 
1
 10 
0.0
 20 
0.49982
 30 
0.0
 0 
SEQEND
 8 
1
 0 
ENDSEC
 0 
EOF
