 0 
SECTION
 2 
ENTITIES
 0 
POLYLINE
 8 
1
 66 
 1 
 10 
0.0
 20 
0.0
 30 
0.0
 0 
VERTEX
 8 
1
 10 
0.0
 20 
0.50018
 30 
0.0
 0 
VERTEX
 8 
1
 10 
0.04985
 20 
0.50449
 30 
0.0
 0 
VERTEX
 8 
1
 10 
0.09971
 20 
0.50878
 30 
0.0
 0 
VERTEX
 8 
1
 10 
0.14952
 20 
0.51427
 30 
0.0
 0 
VERTEX
 8 
1
 10 
0.19932
 20 
0.52018
 30 
0.0
 0 
VERTEX
 8 
1
 10 
0.24911
 20 
0.52628
 30 
0.0
 0 
VERTEX
 8 
1
 10 
0.29891
 20 
0.53209
 30 
0.0
 0 
VERTEX
 8 
1
 10 
0.34873
 20 
0.53733
 30 
0.0
 0 
VERTEX
 8 
1
 10 
0.39856
 20 
0.54225
 30 
0.0
 0 
VERTEX
 8 
1
 10 
0.44841
 20 
0.54687
 30 
0.0
 0 
VERTEX
 8 
1
 10 
0.49826
 20 
0.55116
 30 
0.0
 0 
VERTEX
 8 
1
 10 
0.54813
 20 
0.55506
 30 
0.0
 0 
VERTEX
 8 
1
 10 
0.59801
 20 
0.55846
 30 
0.0
 0 
VERTEX
 8 
1
 10 
0.64792
 20 
0.56102
 30 
0.0
 0 
VERTEX
 8 
1
 10 
0.69788
 20 
0.56223
 30 
0.0
 0 
VERTEX
 8 
1
 10 
0.7479
 20 
0.5617
 30 
0.0
 0 
VERTEX
 8 
1
 10 
0.79796
 20 
0.56004
 30 
0.0
 0 
VERTEX
 8 
1
 10 
0.84806
 20 
0.55714
 30 
0.0
 0 
VERTEX
 8 
1
 10 
0.89824
 20 
0.55164
 30 
0.0
 0 
VERTEX
 8 
1
 10 
0.92339
 20 
0.54733
 30 
0.0
 0 
VERTEX
 8 
1
 10 
0.9486
 20 
0.54122
 30 
0.0
 0 
VERTEX
 8 
1
 10 
0.97392
 20 
0.5317
 30 
0.0
 0 
VERTEX
 8 
1
 10 
0.98669
 20 
0.52375
 30 
0.0
 0 
VERTEX
 8 
1
 10 
0.99185
 20 
0.519
 30 
0.0
 0 
VERTEX
 8 
1
 10 
0.99446
 20 
0.51585
 30 
0.0
 0 
VERTEX
 8 
1
 10 
1
 20 
0.5
 30 
0.0
 0 
VERTEX
 8 
1
 10 
0.99541
 20 
0.48805
 30 
0.0
 0 
VERTEX
 8 
1
 10 
0.99298
 20 
0.48603
 30 
0.0
 0 
VERTEX
 8 
1
 10 
0.98806
 20 
0.4835
 30 
0.0
 0 
VERTEX
 8 
1
 10 
0.97564
 20 
0.48126
 30 
0.0
 0 
VERTEX
 8 
1
 10 
0.95059
 20 
0.48261
 30 
0.0
 0 
VERTEX
 8 
1
 10 
0.92555
 20 
0.484
 30 
0.0
 0 
VERTEX
 8 
1
 10 
0.90052
 20 
0.4848
 30 
0.0
 0 
VERTEX
 8 
1
 10 
0.85055
 20 
0.48385
 30 
0.0
 0 
VERTEX
 8 
1
 10 
0.80063
 20 
0.48158
 30 
0.0
 0 
VERTEX
 8 
1
 10 
0.7507
 20 
0.47961
 30 
0.0
 0 
VERTEX
 8 
1
 10 
0.70075
 20 
0.47805
 30 
0.0
 0 
VERTEX
 8 
1
 10 
0.65079
 20 
0.47687
 30 
0.0
 0 
VERTEX
 8 
1
 10 
0.60082
 20 
0.47609
 30 
0.0
 0 
VERTEX
 8 
1
 10 
0.55082
 20 
0.47587
 30 
0.0
 0 
VERTEX
 8 
1
 10 
0.50082
 20 
0.47607
 30 
0.0
 0 
VERTEX
 8 
1
 10 
0.45079
 20 
0.47682
 30 
0.0
 0 
VERTEX
 8 
1
 10 
0.40074
 20 
0.47825
 30 
0.0
 0 
VERTEX
 8 
1
 10 
0.35069
 20 
0.47985
 30 
0.0
 0 
VERTEX
 8 
1
 10 
0.30063
 20 
0.48171
 30 
0.0
 0 
VERTEX
 8 
1
 10 
0.25052
 20 
0.48473
 30 
0.0
 0 
VERTEX
 8 
1
 10 
0.20042
 20 
0.48774
 30 
0.0
 0 
VERTEX
 8 
1
 10 
0.15032
 20 
0.49077
 30 
0.0
 0 
VERTEX
 8 
1
 10 
0.10022
 20 
0.49378
 30 
0.0
 0 
VERTEX
 8 
1
 10 
0.05011
 20 
0.49681
 30 
0.0
 0 
VERTEX
 8 
1
 10 
0.0000099999
 20 
0.49982
 30 
0.0
 0 
SEQEND
 8 
1
 0 
ENDSEC
 0 
EOF
