 0 
SECTION
 2 
ENTITIES
 0 
POLYLINE
 8 
1
 66 
 1 
 10 
0.0
 20 
0.0
 30 
0.0
 0 
VERTEX
 8 
1
 10 
0.0000099999
 20 
0.50018
 30 
0.0
 0 
VERTEX
 8 
1
 10 
0.050120
 20 
0.50601
 30 
0.0
 0 
VERTEX
 8 
1
 10 
0.10024
 20 
0.51185
 30 
0.0
 0 
VERTEX
 8 
1
 10 
0.15035
 20 
0.51769
 30 
0.0
 0 
VERTEX
 8 
1
 10 
0.20046
 20 
0.52351
 30 
0.0
 0 
VERTEX
 8 
1
 10 
0.25058
 20 
0.52935
 30 
0.0
 0 
VERTEX
 8 
1
 10 
0.30069
 20 
0.53505
 30 
0.0
 0 
VERTEX
 8 
1
 10 
0.35079
 20 
0.54017
 30 
0.0
 0 
VERTEX
 8 
1
 10 
0.40088
 20 
0.54451
 30 
0.0
 0 
VERTEX
 8 
1
 10 
0.45095
 20 
0.54824
 30 
0.0
 0 
VERTEX
 8 
1
 10 
0.501
 20 
0.55104
 30 
0.0
 0 
VERTEX
 8 
1
 10 
0.55103
 20 
0.55258
 30 
0.0
 0 
VERTEX
 8 
1
 10 
0.60104
 20 
0.55297
 30 
0.0
 0 
VERTEX
 8 
1
 10 
0.65103
 20 
0.55268
 30 
0.0
 0 
VERTEX
 8 
1
 10 
0.70101
 20 
0.55166
 30 
0.0
 0 
VERTEX
 8 
1
 10 
0.75098
 20 
0.54968
 30 
0.0
 0 
VERTEX
 8 
1
 10 
0.80091
 20 
0.54643
 30 
0.0
 0 
VERTEX
 8 
1
 10 
0.85081
 20 
0.54149
 30 
0.0
 0 
VERTEX
 8 
1
 10 
0.90067
 20 
0.53436
 30 
0.0
 0 
VERTEX
 8 
1
 10 
0.92559
 20 
0.52981
 30 
0.0
 0 
VERTEX
 8 
1
 10 
0.95048
 20 
0.52428
 30 
0.0
 0 
VERTEX
 8 
1
 10 
0.97533
 20 
0.51704
 30 
0.0
 0 
VERTEX
 8 
1
 10 
0.98773
 20 
0.51196
 30 
0.0
 0 
VERTEX
 8 
1
 10 
0.99268
 20 
0.50922
 30 
0.0
 0 
VERTEX
 8 
1
 10 
0.99515
 20 
0.50752
 30 
0.0
 0 
VERTEX
 8 
1
 10 
1
 20 
0.5
 30 
0.0
 0 
VERTEX
 8 
1
 10 
0.99489
 20 
0.49447
 30 
0.0
 0 
VERTEX
 8 
1
 10 
0.99237
 20 
0.49322
 30 
0.0
 0 
VERTEX
 8 
1
 10 
0.98733
 20 
0.49129
 30 
0.0
 0 
VERTEX
 8 
1
 10 
0.97477
 20 
0.48805
 30 
0.0
 0 
VERTEX
 8 
1
 10 
0.9497
 20 
0.48462
 30 
0.0
 0 
VERTEX
 8 
1
 10 
0.92466
 20 
0.48283
 30 
0.0
 0 
VERTEX
 8 
1
 10 
0.89964
 20 
0.48153
 30 
0.0
 0 
VERTEX
 8 
1
 10 
0.8496
 20 
0.47945
 30 
0.0
 0 
VERTEX
 8 
1
 10 
0.79956
 20 
0.47762
 30 
0.0
 0 
VERTEX
 8 
1
 10 
0.74953
 20 
0.47593
 30 
0.0
 0 
VERTEX
 8 
1
 10 
0.6995
 20 
0.47432
 30 
0.0
 0 
VERTEX
 8 
1
 10 
0.64947
 20 
0.47272
 30 
0.0
 0 
VERTEX
 8 
1
 10 
0.59944
 20 
0.47114
 30 
0.0
 0 
VERTEX
 8 
1
 10 
0.54941
 20 
0.46991
 30 
0.0
 0 
VERTEX
 8 
1
 10 
0.49941
 20 
0.46971
 30 
0.0
 0 
VERTEX
 8 
1
 10 
0.44942
 20 
0.47039
 30 
0.0
 0 
VERTEX
 8 
1
 10 
0.39945
 20 
0.47195
 30 
0.0
 0 
VERTEX
 8 
1
 10 
0.3495
 20 
0.47429
 30 
0.0
 0 
VERTEX
 8 
1
 10 
0.29956
 20 
0.47734
 30 
0.0
 0 
VERTEX
 8 
1
 10 
0.24963
 20 
0.48095
 30 
0.0
 0 
VERTEX
 8 
1
 10 
0.1997
 20 
0.48472
 30 
0.0
 0 
VERTEX
 8 
1
 10 
0.14978
 20 
0.4885
 30 
0.0
 0 
VERTEX
 8 
1
 10 
0.09985
 20 
0.49227
 30 
0.0
 0 
VERTEX
 8 
1
 10 
0.04993
 20 
0.49605
 30 
0.0
 0 
VERTEX
 8 
1
 10 
0.0
 20 
0.49982
 30 
0.0
 0 
SEQEND
 8 
1
 0 
ENDSEC
 0 
EOF
