  0
SECTION
  2
HEADER
  9
$ACADVER
  1
AC1004
  9
$EXTMIN
 10
0.0404
 20
0.1712
  9
$EXTMAX
 10
8.0393
 20
4.9455
  9
$LIMMIN
 10
0.0404
 20
0.1712
  9
$LIMMAX
 10
8.0393
 20
4.9455
  9
$INSBASE
 10
0.0
 20
0.0
  9
$VIEWCTR
 10
7.21903
 20
4.5
  9
$VIEWSIZE
 40
9.0
  9
$SNAPMODE
 70
     0
  9
$SNAPUNIT
 10
1.0
 20
1.0
  9
$SNAPBASE
 10
0.0
 20
0.0
  9
$SNAPANG
 50
0.0
  9
$SNAPSTYLE
 70
     0
  9
$SNAPISOPAIR
 70
     0
  9
$GRIDMODE
 70
     0
  9
$GRIDUNIT
 10
0.0
 20
0.0
  9
$ORTHOMODE
 70
     0
  9
$REGENMODE
 70
     1
  9
$FILLMODE
 70
     1
  9
$QTEXTMODE
 70
     0
  9
$DRAGMODE
 70
     2
  9
$LTSCALE
 40
1.0
  9
$OSMODE
 70
     0
  9
$ATTMODE
 70
     1
  9
$TEXTSIZE
 40
0.2
  9
$TRACEWID
 40
0.05
  9
$TEXTSTYLE
  7
STANDARD
  9
$CLAYER
  8
0
  9
$CELTYPE
  6
BYLAYER
  9
$CECOLOR
 62
   256
  9
$DIMSCALE
 40
1.0
  9
$DIMASZ
 40
0.18
  9
$DIMEXO
 40
0.0625
  9
$DIMDLI
 40
0.38
  9
$DIMRND
 40
0.0
  9
$DIMDLE
 40
0.0
  9
$DIMEXE
 40
0.18
  9
$DIMTP
 40
0.0
  9
$DIMTM
 40
0.0
  9
$DIMTXT
 40
0.18
  9
$DIMCEN
 40
0.09
  9
$DIMTSZ
 40
0.0
  9
$DIMTOL
 70
     0
  9
$DIMLIM
 70
     0
  9
$DIMTIH
 70
     1
  9
$DIMTOH
 70
     1
  9
$DIMSE1
 70
     0
  9
$DIMSE2
 70
     0
  9
$DIMTAD
 70
     0
  9
$DIMZIN
 70
     0
  9
$DIMBLK
  1

  9
$DIMASO
 70
     1
  9
$DIMSHO
 70
     0
  9
$DIMPOST
  1

  9
$DIMAPOST
  1

  9
$DIMALT
 70
     0
  9
$DIMALTD
 70
     2
  9
$DIMALTF
 40
25.4
  9
$DIMLFAC
 40
1.0
  9
$LUNITS
 70
     2
  9
$LUPREC
 70
     4
  9
$AXISMODE
 70
     0
  9
$AXISUNIT
 10
0.0
 20
0.0
  9
$SKETCHINC
 40
0.1
  9
$FILLETRAD
 40
0.0
  9
$AUNITS
 70
     0
  9
$AUPREC
 70
     0
  9
$MENU
  1
acad
  9
$ELEVATION
 40
0.0
  9
$THICKNESS
 40
0.0
  9
$VIEWDIR
 10
0.0
 20
0.0
 30
1.0
  9
$LIMCHECK
 70
     0
  9
$BLIPMODE
 70
     1
  9
$CHAMFERA
 40
0.0
  9
$CHAMFERB
 40
0.0
  9
$FASTZOOM
 70
     1
  9
$SKPOLY
 70
     0
  9
$TDCREATE
 40
2447222.5666886573
  9
$TDUPDATE
 40
2447222.5666886573
  9
$TDINDWG
 40
0.0000000000
  9
$TDUSRTIMER
 40
0.0000000000
  9
$USRTIMER
 70
     1
  9
$ANGBASE
 50
0.0
  9
$ANGDIR
 70
     0
  9
$PDMODE
 70
     0
  9
$PDSIZE
 40
0.0
  9
$PLINEWID
 40
0.0
  9
$COORDS
 70
     0
  9
$SPLFRAME
 70
     0
  9
$SPLINESEGS
 70
     8
  9
$ATTDIA
 70
     0
  9
$ATTREQ
 70
     1
  9
$USERI1
 70
     0
  9
$USERI2
 70
     0
  9
$USERI3
 70
     0
  9
$USERI4
 70
     0
  9
$USERI5
 70
     0
  9
$USERR1
 40
0.0
  9
$USERR2
 40
0.0
  9
$USERR3
 40
0.0
  9
$USERR4
 40
0.0
  9
$USERR5
 40
0.0
  0
ENDSEC
  0
SECTION
  2
TABLES
  0
TABLE
  2
LTYPE
 70
     13
  0
LTYPE
  2
CONTINUOUS
 70
    64
  3
Solid line
 72
    65
 73
     0
 40
0.0
  0
LTYPE
  2
DASHED
 70
    64
  3
__ __ __ __ __ __ __ __ __ __ __ __ __ __ __
 72
    65
 73
     2
 40
0.75
 49
0.5
 49
-0.25
  0
LTYPE
  2
HIDDEN
 70
    64
  3
_ _ _ _ _ _ _ _ _ _ _ _ _ _ _ _ _ _ _ _ _ _ _
 72
    65
 73
     2
 40
0.375
 49
0.25
 49
-0.125
  0
LTYPE
  2
CENTER
 70
    64
  3
____ _ ____ _ ____ _ ____ _ ____ _ ____ _ ____
 72
    65
 73
     4
 40
2.0
 49
1.25
 49
-0.25
 49
0.25
 49
-0.25
  0
LTYPE
  2
PHANTOM
 70
    64
  3
_____ _ _ _____ _ _ _____ _ _ _____ _ _ ____
 72
    65
 73
     6
 40
2.5
 49
1.25
 49
-0.25
 49
0.25
 49
-0.25
 49
0.25
 49
-0.25
  0
LTYPE
  2
DOT
 70
    64
  3
...............................................
 72
    65
 73
     2
 40
0.25
 49
0.0
 49
-0.25
  0
LTYPE
  2
DASHDOT
 70
    64
  3
__ . __ . __ . __ . __ . __ . __ . __ . __ . __
 72
    65
 73
     4
 40
1.0
 49
0.5
 49
-0.25
 49
0.0
 49
-0.25
  0
LTYPE
  2
BORDER
 70
    64
  3
__ __ . __ __ . __ __ . __ __ . __ __ . __ __
 72
    65
 73
     6
 40
1.75
 49
0.5
 49
-0.25
 49
0.5
 49
-0.25
 49
0.0
 49
-0.25
  0
LTYPE
  2
DIVIDE
 70
    64
  3
__ . . __ . . __ . . __ . . __ . . __ . . __
 72
    65
 73
     6
 40
1.25
 49
0.5
 49
-0.25
 49
0.0
 49
-0.25
 49
0.0
 49
-0.25
  0
LTYPE
  2
DCTYPE1
 70
    64
  3
__ . . __ . . __ . . __ . . __ . . __ . . __
 72
    65
 73
     8
 40
2.5
 49
0.5
 49
-0.25
 49
0.125
 49
-0.25
 49
0.25
 49
-0.25
 49
0.125
 49
-0.25
  0
LTYPE
  2
DCTYPE2
 70
    64
  3
__ . . __ . . __ . . __ . . __ . . __ . . __
 72
    65
 73
     6
 40
2.05
 49
1.0
 49
-0.3
 49
0.15
 49
-0.15
 49
0.15
 49
-0.3
  0
LTYPE
  2
DCTYPE3
 70
    64
  3
__ . . __ . . __ . . __ . . __ . . __ . . __
 72
    65
 73
     6
 40
2.5
 49
0.8
 49
-0.2
 49
0.8
 49
-0.2
 49
0.3
 49
-0.2
  0
LTYPE
  2
DCTYPE4
 70
    64
  3
__ . . __ . . __ . . __ . . __ . . __ . . __
 72
    65
 73
     10
 40
3.97
 49
1.75
 49
-0.3
 49
0.3
 49
-0.3
 49
0.06
 49
-0.3
 49
0.06
 49
-0.3
 49
0.3
 49
-0.3
  0
ENDTAB
  0
TABLE
  2
LAYER
 70
    153
  0
LAYER
  2
0
 70
 64
 62
     7
  6
CONTINUOUS
  0
ENDTAB
  0
ENDSEC
  0
SECTION
  2
BLOCKS
  0
ENDSEC
  0
SECTION
  2
ENTITIES
  0
TEXT
  8
0
 62
     7
 10
0.0404
 20
3.3708
 40
1.3123
 50
0.0000
 51
0.0000
  1
GO 477
 72
     5
 11
8.0393
 21
3.3708
  0
POLYLINE
  8
0
 62
     3
 66
     1
  6
CONTINUOUS
  0
VERTEX
  8
0
 62
     3
  6
CONTINUOUS
 10
0.0404
 20
0.3032
  0
VERTEX
  8
0
 62
     3
  6
CONTINUOUS
 10
0.0557
 20
0.3238
  0
VERTEX
  8
0
 62
     3
  6
CONTINUOUS
 10
0.0710
 20
0.3444
  0
VERTEX
  8
0
 62
     3
  6
CONTINUOUS
 10
0.0864
 20
0.3649
  0
VERTEX
  8
0
 62
     3
  6
CONTINUOUS
 10
0.1020
 20
0.3851
  0
VERTEX
  8
0
 62
     3
  6
CONTINUOUS
 10
0.1178
 20
0.4051
  0
VERTEX
  8
0
 62
     3
  6
CONTINUOUS
 10
0.1340
 20
0.4247
  0
VERTEX
  8
0
 62
     3
  6
CONTINUOUS
 10
0.1505
 20
0.4439
  0
VERTEX
  8
0
 62
     3
  6
CONTINUOUS
 10
0.1674
 20
0.4626
  0
VERTEX
  8
0
 62
     3
  6
CONTINUOUS
 10
0.1848
 20
0.4808
  0
VERTEX
  8
0
 62
     3
  6
CONTINUOUS
 10
0.2027
 20
0.4983
  0
VERTEX
  8
0
 62
     3
  6
CONTINUOUS
 10
0.2212
 20
0.5151
  0
VERTEX
  8
0
 62
     3
  6
CONTINUOUS
 10
0.2404
 20
0.5311
  0
VERTEX
  8
0
 62
     3
  6
CONTINUOUS
 10
0.2556
 20
0.5429
  0
VERTEX
  8
0
 62
     3
  6
CONTINUOUS
 10
0.2712
 20
0.5542
  0
VERTEX
  8
0
 62
     3
  6
CONTINUOUS
 10
0.2871
 20
0.5651
  0
VERTEX
  8
0
 62
     3
  6
CONTINUOUS
 10
0.3034
 20
0.5757
  0
VERTEX
  8
0
 62
     3
  6
CONTINUOUS
 10
0.3199
 20
0.5859
  0
VERTEX
  8
0
 62
     3
  6
CONTINUOUS
 10
0.3367
 20
0.5957
  0
VERTEX
  8
0
 62
     3
  6
CONTINUOUS
 10
0.3536
 20
0.6054
  0
VERTEX
  8
0
 62
     3
  6
CONTINUOUS
 10
0.3708
 20
0.6148
  0
VERTEX
  8
0
 62
     3
  6
CONTINUOUS
 10
0.3881
 20
0.6240
  0
VERTEX
  8
0
 62
     3
  6
CONTINUOUS
 10
0.4054
 20
0.6332
  0
VERTEX
  8
0
 62
     3
  6
CONTINUOUS
 10
0.4229
 20
0.6422
  0
VERTEX
  8
0
 62
     3
  6
CONTINUOUS
 10
0.4403
 20
0.6511
  0
VERTEX
  8
0
 62
     3
  6
CONTINUOUS
 10
0.4733
 20
0.6680
  0
VERTEX
  8
0
 62
     3
  6
CONTINUOUS
 10
0.5063
 20
0.6847
  0
VERTEX
  8
0
 62
     3
  6
CONTINUOUS
 10
0.5392
 20
0.7013
  0
VERTEX
  8
0
 62
     3
  6
CONTINUOUS
 10
0.5722
 20
0.7177
  0
VERTEX
  8
0
 62
     3
  6
CONTINUOUS
 10
0.6053
 20
0.7338
  0
VERTEX
  8
0
 62
     3
  6
CONTINUOUS
 10
0.6384
 20
0.7496
  0
VERTEX
  8
0
 62
     3
  6
CONTINUOUS
 10
0.6717
 20
0.7651
  0
VERTEX
  8
0
 62
     3
  6
CONTINUOUS
 10
0.7050
 20
0.7801
  0
VERTEX
  8
0
 62
     3
  6
CONTINUOUS
 10
0.7386
 20
0.7947
  0
VERTEX
  8
0
 62
     3
  6
CONTINUOUS
 10
0.7723
 20
0.8087
  0
VERTEX
  8
0
 62
     3
  6
CONTINUOUS
 10
0.8062
 20
0.8222
  0
VERTEX
  8
0
 62
     3
  6
CONTINUOUS
 10
0.8403
 20
0.8351
  0
VERTEX
  8
0
 62
     3
  6
CONTINUOUS
 10
0.9041
 20
0.8572
  0
VERTEX
  8
0
 62
     3
  6
CONTINUOUS
 10
0.9687
 20
0.8772
  0
VERTEX
  8
0
 62
     3
  6
CONTINUOUS
 10
1.0340
 20
0.8953
  0
VERTEX
  8
0
 62
     3
  6
CONTINUOUS
 10
1.0999
 20
0.9115
  0
VERTEX
  8
0
 62
     3
  6
CONTINUOUS
 10
1.1664
 20
0.9261
  0
VERTEX
  8
0
 62
     3
  6
CONTINUOUS
 10
1.2333
 20
0.9391
  0
VERTEX
  8
0
 62
     3
  6
CONTINUOUS
 10
1.3005
 20
0.9509
  0
VERTEX
  8
0
 62
     3
  6
CONTINUOUS
 10
1.3681
 20
0.9614
  0
VERTEX
  8
0
 62
     3
  6
CONTINUOUS
 10
1.4360
 20
0.9710
  0
VERTEX
  8
0
 62
     3
  6
CONTINUOUS
 10
1.5040
 20
0.9797
  0
VERTEX
  8
0
 62
     3
  6
CONTINUOUS
 10
1.5721
 20
0.9876
  0
VERTEX
  8
0
 62
     3
  6
CONTINUOUS
 10
1.6402
 20
0.9951
  0
VERTEX
  8
0
 62
     3
  6
CONTINUOUS
 10
1.7070
 20
1.0020
  0
VERTEX
  8
0
 62
     3
  6
CONTINUOUS
 10
1.7738
 20
1.0085
  0
VERTEX
  8
0
 62
     3
  6
CONTINUOUS
 10
1.8405
 20
1.0145
  0
VERTEX
  8
0
 62
     3
  6
CONTINUOUS
 10
1.9073
 20
1.0200
  0
VERTEX
  8
0
 62
     3
  6
CONTINUOUS
 10
1.9739
 20
1.0249
  0
VERTEX
  8
0
 62
     3
  6
CONTINUOUS
 10
2.0406
 20
1.0292
  0
VERTEX
  8
0
 62
     3
  6
CONTINUOUS
 10
2.1072
 20
1.0328
  0
VERTEX
  8
0
 62
     3
  6
CONTINUOUS
 10
2.1738
 20
1.0357
  0
VERTEX
  8
0
 62
     3
  6
CONTINUOUS
 10
2.2403
 20
1.0379
  0
VERTEX
  8
0
 62
     3
  6
CONTINUOUS
 10
2.3069
 20
1.0392
  0
VERTEX
  8
0
 62
     3
  6
CONTINUOUS
 10
2.3735
 20
1.0396
  0
VERTEX
  8
0
 62
     3
  6
CONTINUOUS
 10
2.4401
 20
1.0391
  0
VERTEX
  8
0
 62
     3
  6
CONTINUOUS
 10
2.5067
 20
1.0376
  0
VERTEX
  8
0
 62
     3
  6
CONTINUOUS
 10
2.5733
 20
1.0353
  0
VERTEX
  8
0
 62
     3
  6
CONTINUOUS
 10
2.6399
 20
1.0323
  0
VERTEX
  8
0
 62
     3
  6
CONTINUOUS
 10
2.7065
 20
1.0287
  0
VERTEX
  8
0
 62
     3
  6
CONTINUOUS
 10
2.7731
 20
1.0247
  0
VERTEX
  8
0
 62
     3
  6
CONTINUOUS
 10
2.8398
 20
1.0203
  0
VERTEX
  8
0
 62
     3
  6
CONTINUOUS
 10
2.9064
 20
1.0158
  0
VERTEX
  8
0
 62
     3
  6
CONTINUOUS
 10
2.9731
 20
1.0112
  0
VERTEX
  8
0
 62
     3
  6
CONTINUOUS
 10
3.0398
 20
1.0067
  0
VERTEX
  8
0
 62
     3
  6
CONTINUOUS
 10
3.1065
 20
1.0024
  0
VERTEX
  8
0
 62
     3
  6
CONTINUOUS
 10
3.1732
 20
0.9985
  0
VERTEX
  8
0
 62
     3
  6
CONTINUOUS
 10
3.2400
 20
0.9951
  0
VERTEX
  8
0
 62
     3
  6
CONTINUOUS
 10
3.3067
 20
0.9922
  0
VERTEX
  8
0
 62
     3
  6
CONTINUOUS
 10
3.3734
 20
0.9899
  0
VERTEX
  8
0
 62
     3
  6
CONTINUOUS
 10
3.4401
 20
0.9879
  0
VERTEX
  8
0
 62
     3
  6
CONTINUOUS
 10
3.5068
 20
0.9862
  0
VERTEX
  8
0
 62
     3
  6
CONTINUOUS
 10
3.5735
 20
0.9846
  0
VERTEX
  8
0
 62
     3
  6
CONTINUOUS
 10
3.6402
 20
0.9830
  0
VERTEX
  8
0
 62
     3
  6
CONTINUOUS
 10
3.7069
 20
0.9813
  0
VERTEX
  8
0
 62
     3
  6
CONTINUOUS
 10
3.7735
 20
0.9794
  0
VERTEX
  8
0
 62
     3
  6
CONTINUOUS
 10
3.8401
 20
0.9772
  0
VERTEX
  8
0
 62
     3
  6
CONTINUOUS
 10
3.9068
 20
0.9744
  0
VERTEX
  8
0
 62
     3
  6
CONTINUOUS
 10
3.9733
 20
0.9711
  0
VERTEX
  8
0
 62
     3
  6
CONTINUOUS
 10
4.0399
 20
0.9671
  0
VERTEX
  8
0
 62
     3
  6
CONTINUOUS
 10
4.1069
 20
0.9622
  0
VERTEX
  8
0
 62
     3
  6
CONTINUOUS
 10
4.1738
 20
0.9565
  0
VERTEX
  8
0
 62
     3
  6
CONTINUOUS
 10
4.2407
 20
0.9500
  0
VERTEX
  8
0
 62
     3
  6
CONTINUOUS
 10
4.3076
 20
0.9428
  0
VERTEX
  8
0
 62
     3
  6
CONTINUOUS
 10
4.3743
 20
0.9349
  0
VERTEX
  8
0
 62
     3
  6
CONTINUOUS
 10
4.4410
 20
0.9263
  0
VERTEX
  8
0
 62
     3
  6
CONTINUOUS
 10
4.5077
 20
0.9171
  0
VERTEX
  8
0
 62
     3
  6
CONTINUOUS
 10
4.5743
 20
0.9074
  0
VERTEX
  8
0
 62
     3
  6
CONTINUOUS
 10
4.6408
 20
0.8970
  0
VERTEX
  8
0
 62
     3
  6
CONTINUOUS
 10
4.7072
 20
0.8862
  0
VERTEX
  8
0
 62
     3
  6
CONTINUOUS
 10
4.7735
 20
0.8749
  0
VERTEX
  8
0
 62
     3
  6
CONTINUOUS
 10
4.8397
 20
0.8631
  0
VERTEX
  8
0
 62
     3
  6
CONTINUOUS
 10
4.9066
 20
0.8508
  0
VERTEX
  8
0
 62
     3
  6
CONTINUOUS
 10
4.9733
 20
0.8382
  0
VERTEX
  8
0
 62
     3
  6
CONTINUOUS
 10
5.0400
 20
0.8253
  0
VERTEX
  8
0
 62
     3
  6
CONTINUOUS
 10
5.1067
 20
0.8121
  0
VERTEX
  8
0
 62
     3
  6
CONTINUOUS
 10
5.1733
 20
0.7988
  0
VERTEX
  8
0
 62
     3
  6
CONTINUOUS
 10
5.2398
 20
0.7855
  0
VERTEX
  8
0
 62
     3
  6
CONTINUOUS
 10
5.3064
 20
0.7721
  0
VERTEX
  8
0
 62
     3
  6
CONTINUOUS
 10
5.3730
 20
0.7587
  0
VERTEX
  8
0
 62
     3
  6
CONTINUOUS
 10
5.4396
 20
0.7455
  0
VERTEX
  8
0
 62
     3
  6
CONTINUOUS
 10
5.5062
 20
0.7324
  0
VERTEX
  8
0
 62
     3
  6
CONTINUOUS
 10
5.5729
 20
0.7196
  0
VERTEX
  8
0
 62
     3
  6
CONTINUOUS
 10
5.6396
 20
0.7071
  0
VERTEX
  8
0
 62
     3
  6
CONTINUOUS
 10
5.7063
 20
0.6950
  0
VERTEX
  8
0
 62
     3
  6
CONTINUOUS
 10
5.7730
 20
0.6831
  0
VERTEX
  8
0
 62
     3
  6
CONTINUOUS
 10
5.8397
 20
0.6715
  0
VERTEX
  8
0
 62
     3
  6
CONTINUOUS
 10
5.9065
 20
0.6600
  0
VERTEX
  8
0
 62
     3
  6
CONTINUOUS
 10
5.9732
 20
0.6485
  0
VERTEX
  8
0
 62
     3
  6
CONTINUOUS
 10
6.0400
 20
0.6371
  0
VERTEX
  8
0
 62
     3
  6
CONTINUOUS
 10
6.1067
 20
0.6255
  0
VERTEX
  8
0
 62
     3
  6
CONTINUOUS
 10
6.1734
 20
0.6137
  0
VERTEX
  8
0
 62
     3
  6
CONTINUOUS
 10
6.2401
 20
0.6016
  0
VERTEX
  8
0
 62
     3
  6
CONTINUOUS
 10
6.3067
 20
0.5893
  0
VERTEX
  8
0
 62
     3
  6
CONTINUOUS
 10
6.3731
 20
0.5764
  0
VERTEX
  8
0
 62
     3
  6
CONTINUOUS
 10
6.4395
 20
0.5631
  0
VERTEX
  8
0
 62
     3
  6
CONTINUOUS
 10
6.5066
 20
0.5491
  0
VERTEX
  8
0
 62
     3
  6
CONTINUOUS
 10
6.5736
 20
0.5345
  0
VERTEX
  8
0
 62
     3
  6
CONTINUOUS
 10
6.6404
 20
0.5194
  0
VERTEX
  8
0
 62
     3
  6
CONTINUOUS
 10
6.7072
 20
0.5039
  0
VERTEX
  8
0
 62
     3
  6
CONTINUOUS
 10
6.7739
 20
0.4881
  0
VERTEX
  8
0
 62
     3
  6
CONTINUOUS
 10
6.8405
 20
0.4719
  0
VERTEX
  8
0
 62
     3
  6
CONTINUOUS
 10
6.9070
 20
0.4554
  0
VERTEX
  8
0
 62
     3
  6
CONTINUOUS
 10
6.9736
 20
0.4388
  0
VERTEX
  8
0
 62
     3
  6
CONTINUOUS
 10
7.0401
 20
0.4220
  0
VERTEX
  8
0
 62
     3
  6
CONTINUOUS
 10
7.1065
 20
0.4050
  0
VERTEX
  8
0
 62
     3
  6
CONTINUOUS
 10
7.1730
 20
0.3881
  0
VERTEX
  8
0
 62
     3
  6
CONTINUOUS
 10
7.2394
 20
0.3712
  0
VERTEX
  8
0
 62
     3
  6
CONTINUOUS
 10
7.3060
 20
0.3542
  0
VERTEX
  8
0
 62
     3
  6
CONTINUOUS
 10
7.3727
 20
0.3374
  0
VERTEX
  8
0
 62
     3
  6
CONTINUOUS
 10
7.4393
 20
0.3206
  0
VERTEX
  8
0
 62
     3
  6
CONTINUOUS
 10
7.5059
 20
0.3039
  0
VERTEX
  8
0
 62
     3
  6
CONTINUOUS
 10
7.5726
 20
0.2872
  0
VERTEX
  8
0
 62
     3
  6
CONTINUOUS
 10
7.6393
 20
0.2705
  0
VERTEX
  8
0
 62
     3
  6
CONTINUOUS
 10
7.7059
 20
0.2539
  0
VERTEX
  8
0
 62
     3
  6
CONTINUOUS
 10
7.7726
 20
0.2373
  0
VERTEX
  8
0
 62
     3
  6
CONTINUOUS
 10
7.8393
 20
0.2208
  0
VERTEX
  8
0
 62
     3
  6
CONTINUOUS
 10
7.9059
 20
0.2042
  0
VERTEX
  8
0
 62
     3
  6
CONTINUOUS
 10
7.9726
 20
0.1877
  0
VERTEX
  8
0
 62
     3
  6
CONTINUOUS
 10
8.0393
 20
0.1712
  0
SEQEND
  8
0
  0
POLYLINE
  8
0
 62
     1
 66
     1
  6
CONTINUOUS
  0
VERTEX
  8
0
 62
     1
  6
CONTINUOUS
 10
0.0404
 20
0.3032
  0
VERTEX
  8
0
 62
     1
  6
CONTINUOUS
 10
0.0565
 20
0.2923
  0
VERTEX
  8
0
 62
     1
  6
CONTINUOUS
 10
0.0726
 20
0.2815
  0
VERTEX
  8
0
 62
     1
  6
CONTINUOUS
 10
0.0887
 20
0.2709
  0
VERTEX
  8
0
 62
     1
  6
CONTINUOUS
 10
0.1049
 20
0.2605
  0
VERTEX
  8
0
 62
     1
  6
CONTINUOUS
 10
0.1212
 20
0.2504
  0
VERTEX
  8
0
 62
     1
  6
CONTINUOUS
 10
0.1377
 20
0.2407
  0
VERTEX
  8
0
 62
     1
  6
CONTINUOUS
 10
0.1543
 20
0.2315
  0
VERTEX
  8
0
 62
     1
  6
CONTINUOUS
 10
0.1711
 20
0.2228
  0
VERTEX
  8
0
 62
     1
  6
CONTINUOUS
 10
0.1880
 20
0.2148
  0
VERTEX
  8
0
 62
     1
  6
CONTINUOUS
 10
0.2052
 20
0.2074
  0
VERTEX
  8
0
 62
     1
  6
CONTINUOUS
 10
0.2227
 20
0.2009
  0
VERTEX
  8
0
 62
     1
  6
CONTINUOUS
 10
0.2404
 20
0.1952
  0
VERTEX
  8
0
 62
     1
  6
CONTINUOUS
 10
0.2563
 20
0.1909
  0
VERTEX
  8
0
 62
     1
  6
CONTINUOUS
 10
0.2724
 20
0.1873
  0
VERTEX
  8
0
 62
     1
  6
CONTINUOUS
 10
0.2887
 20
0.1843
  0
VERTEX
  8
0
 62
     1
  6
CONTINUOUS
 10
0.3052
 20
0.1819
  0
VERTEX
  8
0
 62
     1
  6
CONTINUOUS
 10
0.3218
 20
0.1800
  0
VERTEX
  8
0
 62
     1
  6
CONTINUOUS
 10
0.3386
 20
0.1785
  0
VERTEX
  8
0
 62
     1
  6
CONTINUOUS
 10
0.3554
 20
0.1774
  0
VERTEX
  8
0
 62
     1
  6
CONTINUOUS
 10
0.3723
 20
0.1766
  0
VERTEX
  8
0
 62
     1
  6
CONTINUOUS
 10
0.3893
 20
0.1760
  0
VERTEX
  8
0
 62
     1
  6
CONTINUOUS
 10
0.4063
 20
0.1756
  0
VERTEX
  8
0
 62
     1
  6
CONTINUOUS
 10
0.4233
 20
0.1754
  0
VERTEX
  8
0
 62
     1
  6
CONTINUOUS
 10
0.4403
 20
0.1752
  0
VERTEX
  8
0
 62
     1
  6
CONTINUOUS
 10
0.4741
 20
0.1749
  0
VERTEX
  8
0
 62
     1
  6
CONTINUOUS
 10
0.5077
 20
0.1746
  0
VERTEX
  8
0
 62
     1
  6
CONTINUOUS
 10
0.5413
 20
0.1743
  0
VERTEX
  8
0
 62
     1
  6
CONTINUOUS
 10
0.5747
 20
0.1741
  0
VERTEX
  8
0
 62
     1
  6
CONTINUOUS
 10
0.6081
 20
0.1740
  0
VERTEX
  8
0
 62
     1
  6
CONTINUOUS
 10
0.6413
 20
0.1739
  0
VERTEX
  8
0
 62
     1
  6
CONTINUOUS
 10
0.6746
 20
0.1739
  0
VERTEX
  8
0
 62
     1
  6
CONTINUOUS
 10
0.7077
 20
0.1740
  0
VERTEX
  8
0
 62
     1
  6
CONTINUOUS
 10
0.7409
 20
0.1741
  0
VERTEX
  8
0
 62
     1
  6
CONTINUOUS
 10
0.7740
 20
0.1744
  0
VERTEX
  8
0
 62
     1
  6
CONTINUOUS
 10
0.8072
 20
0.1747
  0
VERTEX
  8
0
 62
     1
  6
CONTINUOUS
 10
0.8403
 20
0.1752
  0
VERTEX
  8
0
 62
     1
  6
CONTINUOUS
 10
0.9067
 20
0.1765
  0
VERTEX
  8
0
 62
     1
  6
CONTINUOUS
 10
0.9732
 20
0.1782
  0
VERTEX
  8
0
 62
     1
  6
CONTINUOUS
 10
1.0397
 20
0.1802
  0
VERTEX
  8
0
 62
     1
  6
CONTINUOUS
 10
1.1063
 20
0.1826
  0
VERTEX
  8
0
 62
     1
  6
CONTINUOUS
 10
1.1729
 20
0.1853
  0
VERTEX
  8
0
 62
     1
  6
CONTINUOUS
 10
1.2396
 20
0.1882
  0
VERTEX
  8
0
 62
     1
  6
CONTINUOUS
 10
1.3064
 20
0.1913
  0
VERTEX
  8
0
 62
     1
  6
CONTINUOUS
 10
1.3731
 20
0.1944
  0
VERTEX
  8
0
 62
     1
  6
CONTINUOUS
 10
1.4399
 20
0.1976
  0
VERTEX
  8
0
 62
     1
  6
CONTINUOUS
 10
1.5067
 20
0.2009
  0
VERTEX
  8
0
 62
     1
  6
CONTINUOUS
 10
1.5734
 20
0.2041
  0
VERTEX
  8
0
 62
     1
  6
CONTINUOUS
 10
1.6402
 20
0.2072
  0
VERTEX
  8
0
 62
     1
  6
CONTINUOUS
 10
1.7069
 20
0.2102
  0
VERTEX
  8
0
 62
     1
  6
CONTINUOUS
 10
1.7736
 20
0.2130
  0
VERTEX
  8
0
 62
     1
  6
CONTINUOUS
 10
1.8403
 20
0.2157
  0
VERTEX
  8
0
 62
     1
  6
CONTINUOUS
 10
1.9069
 20
0.2183
  0
VERTEX
  8
0
 62
     1
  6
CONTINUOUS
 10
1.9736
 20
0.2207
  0
VERTEX
  8
0
 62
     1
  6
CONTINUOUS
 10
2.0402
 20
0.2231
  0
VERTEX
  8
0
 62
     1
  6
CONTINUOUS
 10
2.1069
 20
0.2253
  0
VERTEX
  8
0
 62
     1
  6
CONTINUOUS
 10
2.1735
 20
0.2274
  0
VERTEX
  8
0
 62
     1
  6
CONTINUOUS
 10
2.2402
 20
0.2295
  0
VERTEX
  8
0
 62
     1
  6
CONTINUOUS
 10
2.3068
 20
0.2315
  0
VERTEX
  8
0
 62
     1
  6
CONTINUOUS
 10
2.3734
 20
0.2334
  0
VERTEX
  8
0
 62
     1
  6
CONTINUOUS
 10
2.4401
 20
0.2352
  0
VERTEX
  8
0
 62
     1
  6
CONTINUOUS
 10
2.5067
 20
0.2369
  0
VERTEX
  8
0
 62
     1
  6
CONTINUOUS
 10
2.5733
 20
0.2386
  0
VERTEX
  8
0
 62
     1
  6
CONTINUOUS
 10
2.6400
 20
0.2402
  0
VERTEX
  8
0
 62
     1
  6
CONTINUOUS
 10
2.7066
 20
0.2418
  0
VERTEX
  8
0
 62
     1
  6
CONTINUOUS
 10
2.7733
 20
0.2433
  0
VERTEX
  8
0
 62
     1
  6
CONTINUOUS
 10
2.8399
 20
0.2447
  0
VERTEX
  8
0
 62
     1
  6
CONTINUOUS
 10
2.9066
 20
0.2460
  0
VERTEX
  8
0
 62
     1
  6
CONTINUOUS
 10
2.9733
 20
0.2472
  0
VERTEX
  8
0
 62
     1
  6
CONTINUOUS
 10
3.0399
 20
0.2483
  0
VERTEX
  8
0
 62
     1
  6
CONTINUOUS
 10
3.1066
 20
0.2494
  0
VERTEX
  8
0
 62
     1
  6
CONTINUOUS
 10
3.1733
 20
0.2503
  0
VERTEX
  8
0
 62
     1
  6
CONTINUOUS
 10
3.2400
 20
0.2512
  0
VERTEX
  8
0
 62
     1
  6
CONTINUOUS
 10
3.3066
 20
0.2519
  0
VERTEX
  8
0
 62
     1
  6
CONTINUOUS
 10
3.3733
 20
0.2526
  0
VERTEX
  8
0
 62
     1
  6
CONTINUOUS
 10
3.4399
 20
0.2531
  0
VERTEX
  8
0
 62
     1
  6
CONTINUOUS
 10
3.5066
 20
0.2536
  0
VERTEX
  8
0
 62
     1
  6
CONTINUOUS
 10
3.5733
 20
0.2540
  0
VERTEX
  8
0
 62
     1
  6
CONTINUOUS
 10
3.6399
 20
0.2544
  0
VERTEX
  8
0
 62
     1
  6
CONTINUOUS
 10
3.7066
 20
0.2546
  0
VERTEX
  8
0
 62
     1
  6
CONTINUOUS
 10
3.7732
 20
0.2548
  0
VERTEX
  8
0
 62
     1
  6
CONTINUOUS
 10
3.8399
 20
0.2550
  0
VERTEX
  8
0
 62
     1
  6
CONTINUOUS
 10
3.9065
 20
0.2551
  0
VERTEX
  8
0
 62
     1
  6
CONTINUOUS
 10
3.9732
 20
0.2552
  0
VERTEX
  8
0
 62
     1
  6
CONTINUOUS
 10
4.0399
 20
0.2552
  0
VERTEX
  8
0
 62
     1
  6
CONTINUOUS
 10
4.1065
 20
0.2552
  0
VERTEX
  8
0
 62
     1
  6
CONTINUOUS
 10
4.1732
 20
0.2551
  0
VERTEX
  8
0
 62
     1
  6
CONTINUOUS
 10
4.2398
 20
0.2550
  0
VERTEX
  8
0
 62
     1
  6
CONTINUOUS
 10
4.3065
 20
0.2549
  0
VERTEX
  8
0
 62
     1
  6
CONTINUOUS
 10
4.3732
 20
0.2547
  0
VERTEX
  8
0
 62
     1
  6
CONTINUOUS
 10
4.4398
 20
0.2545
  0
VERTEX
  8
0
 62
     1
  6
CONTINUOUS
 10
4.5065
 20
0.2541
  0
VERTEX
  8
0
 62
     1
  6
CONTINUOUS
 10
4.5731
 20
0.2537
  0
VERTEX
  8
0
 62
     1
  6
CONTINUOUS
 10
4.6398
 20
0.2532
  0
VERTEX
  8
0
 62
     1
  6
CONTINUOUS
 10
4.7064
 20
0.2527
  0
VERTEX
  8
0
 62
     1
  6
CONTINUOUS
 10
4.7731
 20
0.2520
  0
VERTEX
  8
0
 62
     1
  6
CONTINUOUS
 10
4.8397
 20
0.2512
  0
VERTEX
  8
0
 62
     1
  6
CONTINUOUS
 10
4.9064
 20
0.2503
  0
VERTEX
  8
0
 62
     1
  6
CONTINUOUS
 10
4.9731
 20
0.2493
  0
VERTEX
  8
0
 62
     1
  6
CONTINUOUS
 10
5.0397
 20
0.2482
  0
VERTEX
  8
0
 62
     1
  6
CONTINUOUS
 10
5.1064
 20
0.2470
  0
VERTEX
  8
0
 62
     1
  6
CONTINUOUS
 10
5.1731
 20
0.2457
  0
VERTEX
  8
0
 62
     1
  6
CONTINUOUS
 10
5.2397
 20
0.2444
  0
VERTEX
  8
0
 62
     1
  6
CONTINUOUS
 10
5.3064
 20
0.2429
  0
VERTEX
  8
0
 62
     1
  6
CONTINUOUS
 10
5.3730
 20
0.2415
  0
VERTEX
  8
0
 62
     1
  6
CONTINUOUS
 10
5.4397
 20
0.2400
  0
VERTEX
  8
0
 62
     1
  6
CONTINUOUS
 10
5.5063
 20
0.2384
  0
VERTEX
  8
0
 62
     1
  6
CONTINUOUS
 10
5.5730
 20
0.2368
  0
VERTEX
  8
0
 62
     1
  6
CONTINUOUS
 10
5.6396
 20
0.2352
  0
VERTEX
  8
0
 62
     1
  6
CONTINUOUS
 10
5.7063
 20
0.2335
  0
VERTEX
  8
0
 62
     1
  6
CONTINUOUS
 10
5.7730
 20
0.2319
  0
VERTEX
  8
0
 62
     1
  6
CONTINUOUS
 10
5.8396
 20
0.2302
  0
VERTEX
  8
0
 62
     1
  6
CONTINUOUS
 10
5.9063
 20
0.2286
  0
VERTEX
  8
0
 62
     1
  6
CONTINUOUS
 10
5.9729
 20
0.2269
  0
VERTEX
  8
0
 62
     1
  6
CONTINUOUS
 10
6.0396
 20
0.2252
  0
VERTEX
  8
0
 62
     1
  6
CONTINUOUS
 10
6.1062
 20
0.2235
  0
VERTEX
  8
0
 62
     1
  6
CONTINUOUS
 10
6.1729
 20
0.2218
  0
VERTEX
  8
0
 62
     1
  6
CONTINUOUS
 10
6.2396
 20
0.2202
  0
VERTEX
  8
0
 62
     1
  6
CONTINUOUS
 10
6.3062
 20
0.2185
  0
VERTEX
  8
0
 62
     1
  6
CONTINUOUS
 10
6.3729
 20
0.2168
  0
VERTEX
  8
0
 62
     1
  6
CONTINUOUS
 10
6.4395
 20
0.2152
  0
VERTEX
  8
0
 62
     1
  6
CONTINUOUS
 10
6.5062
 20
0.2136
  0
VERTEX
  8
0
 62
     1
  6
CONTINUOUS
 10
6.5728
 20
0.2119
  0
VERTEX
  8
0
 62
     1
  6
CONTINUOUS
 10
6.6395
 20
0.2103
  0
VERTEX
  8
0
 62
     1
  6
CONTINUOUS
 10
6.7062
 20
0.2087
  0
VERTEX
  8
0
 62
     1
  6
CONTINUOUS
 10
6.7728
 20
0.2071
  0
VERTEX
  8
0
 62
     1
  6
CONTINUOUS
 10
6.8395
 20
0.2055
  0
VERTEX
  8
0
 62
     1
  6
CONTINUOUS
 10
6.9061
 20
0.2038
  0
VERTEX
  8
0
 62
     1
  6
CONTINUOUS
 10
6.9728
 20
0.2021
  0
VERTEX
  8
0
 62
     1
  6
CONTINUOUS
 10
7.0395
 20
0.2005
  0
VERTEX
  8
0
 62
     1
  6
CONTINUOUS
 10
7.1061
 20
0.1987
  0
VERTEX
  8
0
 62
     1
  6
CONTINUOUS
 10
7.1728
 20
0.1970
  0
VERTEX
  8
0
 62
     1
  6
CONTINUOUS
 10
7.2394
 20
0.1952
  0
VERTEX
  8
0
 62
     1
  6
CONTINUOUS
 10
7.3061
 20
0.1933
  0
VERTEX
  8
0
 62
     1
  6
CONTINUOUS
 10
7.3727
 20
0.1915
  0
VERTEX
  8
0
 62
     1
  6
CONTINUOUS
 10
7.4394
 20
0.1895
  0
VERTEX
  8
0
 62
     1
  6
CONTINUOUS
 10
7.5061
 20
0.1876
  0
VERTEX
  8
0
 62
     1
  6
CONTINUOUS
 10
7.5727
 20
0.1856
  0
VERTEX
  8
0
 62
     1
  6
CONTINUOUS
 10
7.6394
 20
0.1836
  0
VERTEX
  8
0
 62
     1
  6
CONTINUOUS
 10
7.7060
 20
0.1816
  0
VERTEX
  8
0
 62
     1
  6
CONTINUOUS
 10
7.7727
 20
0.1795
  0
VERTEX
  8
0
 62
     1
  6
CONTINUOUS
 10
7.8393
 20
0.1774
  0
VERTEX
  8
0
 62
     1
  6
CONTINUOUS
 10
7.9060
 20
0.1754
  0
VERTEX
  8
0
 62
     1
  6
CONTINUOUS
 10
7.9727
 20
0.1733
  0
VERTEX
  8
0
 62
     1
  6
CONTINUOUS
 10
8.0393
 20
0.1712
  0
SEQEND
  8
0
  0
ENDSEC
  0
EOF
