 0 
SECTION
 2 
ENTITIES
 0 
POLYLINE
 8 
1
 66 
 1 
 10 
0.0
 20 
0.0
 30 
0.0
 0 
VERTEX
 8 
1
 10 
0.0
 20 
0.5
 30 
0.0
 0 
VERTEX
 8 
1
 10 
0.05
 20 
0.52378
 30 
0.0
 0 
VERTEX
 8 
1
 10 
0.1
 20 
0.54095
 30 
0.0
 0 
VERTEX
 8 
1
 10 
0.2
 20 
0.5686
 30 
0.0
 0 
VERTEX
 8 
1
 10 
0.3
 20 
0.58715
 30 
0.0
 0 
VERTEX
 8 
1
 10 
0.4
 20 
0.598
 30 
0.0
 0 
VERTEX
 8 
1
 10 
0.5
 20 
0.60045
 30 
0.0
 0 
VERTEX
 8 
1
 10 
0.6
 20 
0.5975
 30 
0.0
 0 
VERTEX
 8 
1
 10 
0.7
 20 
0.58915
 30 
0.0
 0 
VERTEX
 8 
1
 10 
0.8
 20 
0.5741
 30 
0.0
 0 
VERTEX
 8 
1
 10 
0.85
 20 
0.56418
 30 
0.0
 0 
VERTEX
 8 
1
 10 
0.9
 20 
0.55135
 30 
0.0
 0 
VERTEX
 8 
1
 10 
0.925
 20 
0.54334
 30 
0.0
 0 
VERTEX
 8 
1
 10 
0.95
 20 
0.53443
 30 
0.0
 0 
VERTEX
 8 
1
 10 
0.975
 20 
0.52311
 30 
0.0
 0 
VERTEX
 8 
1
 10 
1
 20 
0.5
 30 
0.0
 0 
VERTEX
 8 
1
 10 
0.975
 20 
0.48971
 30 
0.0
 0 
VERTEX
 8 
1
 10 
0.95
 20 
0.48832
 30 
0.0
 0 
VERTEX
 8 
1
 10 
0.925
 20 
0.48754
 30 
0.0
 0 
VERTEX
 8 
1
 10 
0.9
 20 
0.48705
 30 
0.0
 0 
VERTEX
 8 
1
 10 
0.85
 20 
0.48638
 30 
0.0
 0 
VERTEX
 8 
1
 10 
0.8
 20 
0.4867
 30 
0.0
 0 
VERTEX
 8 
1
 10 
0.7
 20 
0.48795
 30 
0.0
 0 
VERTEX
 8 
1
 10 
0.6
 20 
0.4892
 30 
0.0
 0 
VERTEX
 8 
1
 10 
0.5
 20 
0.49045
 30 
0.0
 0 
VERTEX
 8 
1
 10 
0.4
 20 
0.4917
 30 
0.0
 0 
VERTEX
 8 
1
 10 
0.3
 20 
0.49295
 30 
0.0
 0 
VERTEX
 8 
1
 10 
0.2
 20 
0.4942
 30 
0.0
 0 
VERTEX
 8 
1
 10 
0.1
 20 
0.49545
 30 
0.0
 0 
VERTEX
 8 
1
 10 
0.05
 20 
0.49607
 30 
0.0
 0 
VERTEX
 8 
1
 10 
0.0
 20 
0.5
 30 
0.0
 0 
SEQEND
 8 
1
 0 
ENDSEC
 0 
EOF
