 0 
SECTION
 2 
ENTITIES
 0 
POLYLINE
 8 
1
 66 
 1 
 10 
0.0
 20 
0.0
 30 
0.0
 0 
VERTEX
 8 
1
 10 
0.0
 20 
0.5
 30 
0.0
 0 
VERTEX
 8 
1
 10 
0.05
 20 
0.50535
 30 
0.0
 0 
VERTEX
 8 
1
 10 
0.1
 20 
0.509
 30 
0.0
 0 
VERTEX
 8 
1
 10 
0.2
 20 
0.5148
 30 
0.0
 0 
VERTEX
 8 
1
 10 
0.3
 20 
0.5187
 30 
0.0
 0 
VERTEX
 8 
1
 10 
0.4
 20 
0.5209
 30 
0.0
 0 
VERTEX
 8 
1
 10 
0.5
 20 
0.5212
 30 
0.0
 0 
VERTEX
 8 
1
 10 
0.6
 20 
0.5205
 30 
0.0
 0 
VERTEX
 8 
1
 10 
0.7
 20 
0.5193
 30 
0.0
 0 
VERTEX
 8 
1
 10 
0.8
 20 
0.5167
 30 
0.0
 0 
VERTEX
 8 
1
 10 
0.85
 20 
0.51475
 30 
0.0
 0 
VERTEX
 8 
1
 10 
0.9
 20 
0.5122
 30 
0.0
 0 
VERTEX
 8 
1
 10 
0.95
 20 
0.50885
 30 
0.0
 0 
VERTEX
 8 
1
 10 
0.975
 20 
0.50632
 30 
0.0
 0 
VERTEX
 8 
1
 10 
1
 20 
0.5
 30 
0.0
 0 
VERTEX
 8 
1
 10 
0.975
 20 
0.49572
 30 
0.0
 0 
VERTEX
 8 
1
 10 
0.95
 20 
0.49495
 30 
0.0
 0 
VERTEX
 8 
1
 10 
0.9
 20 
0.4947
 30 
0.0
 0 
VERTEX
 8 
1
 10 
0.85
 20 
0.49495
 30 
0.0
 0 
VERTEX
 8 
1
 10 
0.8
 20 
0.4952
 30 
0.0
 0 
VERTEX
 8 
1
 10 
0.7
 20 
0.4957
 30 
0.0
 0 
VERTEX
 8 
1
 10 
0.6
 20 
0.4962
 30 
0.0
 0 
VERTEX
 8 
1
 10 
0.5
 20 
0.4967
 30 
0.0
 0 
VERTEX
 8 
1
 10 
0.4
 20 
0.4972
 30 
0.0
 0 
VERTEX
 8 
1
 10 
0.3
 20 
0.4977
 30 
0.0
 0 
VERTEX
 8 
1
 10 
0.2
 20 
0.4982
 30 
0.0
 0 
VERTEX
 8 
1
 10 
0.1
 20 
0.4987
 30 
0.0
 0 
VERTEX
 8 
1
 10 
0.05
 20 
0.49895
 30 
0.0
 0 
VERTEX
 8 
1
 10 
0.0
 20 
0.5
 30 
0.0
 0 
SEQEND
 8 
1
 0 
ENDSEC
 0 
EOF
