 0 
SECTION
 2 
ENTITIES
 0 
POLYLINE
 8 
1
 66 
 1 
 10 
0.0
 20 
0.0
 30 
0.0
 0 
VERTEX
 8 
1
 10 
0.0
 20 
0.5
 30 
0.0
 0 
VERTEX
 8 
1
 10 
0.05
 20 
0.53205
 30 
0.0
 0 
VERTEX
 8 
1
 10 
0.1
 20 
0.55531
 30 
0.0
 0 
VERTEX
 8 
1
 10 
0.2
 20 
0.59252
 30 
0.0
 0 
VERTEX
 8 
1
 10 
0.3
 20 
0.61753
 30 
0.0
 0 
VERTEX
 8 
1
 10 
0.4
 20 
0.63214
 30 
0.0
 0 
VERTEX
 8 
1
 10 
0.5
 20 
0.63555
 30 
0.0
 0 
VERTEX
 8 
1
 10 
0.6
 20 
0.63166
 30 
0.0
 0 
VERTEX
 8 
1
 10 
0.7
 20 
0.62027
 30 
0.0
 0 
VERTEX
 8 
1
 10 
0.8
 20 
0.60008
 30 
0.0
 0 
VERTEX
 8 
1
 10 
0.85
 20 
0.58653
 30 
0.0
 0 
VERTEX
 8 
1
 10 
0.9
 20 
0.56919
 30 
0.0
 0 
VERTEX
 8 
1
 10 
0.925
 20 
0.55837
 30 
0.0
 0 
VERTEX
 8 
1
 10 
0.95
 20 
0.54635
 30 
0.0
 0 
VERTEX
 8 
1
 10 
0.975
 20 
0.53112
 30 
0.0
 0 
VERTEX
 8 
1
 10 
1
 20 
0.5
 30 
0.0
 0 
VERTEX
 8 
1
 10 
0.975
 20 
0.48592
 30 
0.0
 0 
VERTEX
 8 
1
 10 
0.95
 20 
0.48414
 30 
0.0
 0 
VERTEX
 8 
1
 10 
0.925
 20 
0.48357
 30 
0.0
 0 
VERTEX
 8 
1
 10 
0.9
 20 
0.48249
 30 
0.0
 0 
VERTEX
 8 
1
 10 
0.85
 20 
0.48153
 30 
0.0
 0 
VERTEX
 8 
1
 10 
0.8
 20 
0.48198
 30 
0.0
 0 
VERTEX
 8 
1
 10 
0.7
 20 
0.48367
 30 
0.0
 0 
VERTEX
 8 
1
 10 
0.6
 20 
0.48536
 30 
0.0
 0 
VERTEX
 8 
1
 10 
0.5
 20 
0.48705
 30 
0.0
 0 
VERTEX
 8 
1
 10 
0.4
 20 
0.48874
 30 
0.0
 0 
VERTEX
 8 
1
 10 
0.3
 20 
0.49043
 30 
0.0
 0 
VERTEX
 8 
1
 10 
0.2
 20 
0.49212
 30 
0.0
 0 
VERTEX
 8 
1
 10 
0.1
 20 
0.49381
 30 
0.0
 0 
VERTEX
 8 
1
 10 
0.05
 20 
0.49465
 30 
0.0
 0 
VERTEX
 8 
1
 10 
0.0
 20 
0.5
 30 
0.0
 0 
SEQEND
 8 
1
 0 
ENDSEC
 0 
EOF
