 0 
SECTION
 2 
ENTITIES
 0 
POLYLINE
 8 
1
 66 
 1 
 10 
0.0
 20 
0.0
 30 
0.0
 0 
VERTEX
 8 
1
 10 
0.0
 20 
0.509
 30 
0.0
 0 
VERTEX
 8 
1
 10 
0.05
 20 
0.51906
 30 
0.0
 0 
VERTEX
 8 
1
 10 
0.1
 20 
0.52861
 30 
0.0
 0 
VERTEX
 8 
1
 10 
0.2
 20 
0.54522
 30 
0.0
 0 
VERTEX
 8 
1
 10 
0.3
 20 
0.55833
 30 
0.0
 0 
VERTEX
 8 
1
 10 
0.4
 20 
0.57074
 30 
0.0
 0 
VERTEX
 8 
1
 10 
0.5
 20 
0.58055
 30 
0.0
 0 
VERTEX
 8 
1
 10 
0.6
 20 
0.58686
 30 
0.0
 0 
VERTEX
 8 
1
 10 
0.7
 20 
0.58827
 30 
0.0
 0 
VERTEX
 8 
1
 10 
0.8
 20 
0.58268
 30 
0.0
 0 
VERTEX
 8 
1
 10 
0.85
 20 
0.57543
 30 
0.0
 0 
VERTEX
 8 
1
 10 
0.9
 20 
0.56329
 30 
0.0
 0 
VERTEX
 8 
1
 10 
0.925
 20 
0.55527
 30 
0.0
 0 
VERTEX
 8 
1
 10 
0.95
 20 
0.54504
 30 
0.0
 0 
VERTEX
 8 
1
 10 
0.975
 20 
0.53112
 30 
0.0
 0 
VERTEX
 8 
1
 10 
0.9875
 20 
0.52071
 30 
0.0
 0 
VERTEX
 8 
1
 10 
1
 20 
0.5
 30 
0.0
 0 
VERTEX
 8 
1
 10 
0.9875
 20 
0.49121
 30 
0.0
 0 
VERTEX
 8 
1
 10 
0.975
 20 
0.49132
 30 
0.0
 0 
VERTEX
 8 
1
 10 
0.95
 20 
0.49155
 30 
0.0
 0 
VERTEX
 8 
1
 10 
0.925
 20 
0.49177
 30 
0.0
 0 
VERTEX
 8 
1
 10 
0.9
 20 
0.49199
 30 
0.0
 0 
VERTEX
 8 
1
 10 
0.85
 20 
0.49243
 30 
0.0
 0 
VERTEX
 8 
1
 10 
0.8
 20 
0.49288
 30 
0.0
 0 
VERTEX
 8 
1
 10 
0.7
 20 
0.49377
 30 
0.0
 0 
VERTEX
 8 
1
 10 
0.6
 20 
0.49466
 30 
0.0
 0 
VERTEX
 8 
1
 10 
0.5
 20 
0.49555
 30 
0.0
 0 
VERTEX
 8 
1
 10 
0.4
 20 
0.49644
 30 
0.0
 0 
VERTEX
 8 
1
 10 
0.3
 20 
0.49733
 30 
0.0
 0 
VERTEX
 8 
1
 10 
0.2
 20 
0.49822
 30 
0.0
 0 
VERTEX
 8 
1
 10 
0.1
 20 
0.49911
 30 
0.0
 0 
VERTEX
 8 
1
 10 
0.05
 20 
0.49955
 30 
0.0
 0 
VERTEX
 8 
1
 10 
0.0
 20 
0.5
 30 
0.0
 0 
SEQEND
 8 
1
 0 
ENDSEC
 0 
EOF
