 0 
SECTION
 2 
ENTITIES
 0 
POLYLINE
 8 
1
 66 
 1 
 10 
0.0
 20 
0.0
 30 
0.0
 0 
VERTEX
 8 
1
 10 
0.0
 20 
0.502
 30 
0.0
 0 
VERTEX
 8 
1
 10 
0.1
 20 
0.522
 30 
0.0
 0 
VERTEX
 8 
1
 10 
0.2
 20 
0.542
 30 
0.0
 0 
VERTEX
 8 
1
 10 
0.3
 20 
0.559
 30 
0.0
 0 
VERTEX
 8 
1
 10 
0.4
 20 
0.572
 30 
0.0
 0 
VERTEX
 8 
1
 10 
0.5
 20 
0.58
 30 
0.0
 0 
VERTEX
 8 
1
 10 
0.6
 20 
0.584
 30 
0.0
 0 
VERTEX
 8 
1
 10 
0.7
 20 
0.583
 30 
0.0
 0 
VERTEX
 8 
1
 10 
0.75
 20 
0.5805
 30 
0.0
 0 
VERTEX
 8 
1
 10 
0.8
 20 
0.576
 30 
0.0
 0 
VERTEX
 8 
1
 10 
0.85
 20 
0.5685
 30 
0.0
 0 
VERTEX
 8 
1
 10 
0.9
 20 
0.557
 30 
0.0
 0 
VERTEX
 8 
1
 10 
0.925
 20 
0.54875
 30 
0.0
 0 
VERTEX
 8 
1
 10 
0.95
 20 
0.5395
 30 
0.0
 0 
VERTEX
 8 
1
 10 
0.975
 20 
0.52625
 30 
0.0
 0 
VERTEX
 8 
1
 10 
0.9875
 20 
0.51813
 30 
0.0
 0 
VERTEX
 8 
1
 10 
1
 20 
0.5
 30 
0.0
 0 
VERTEX
 8 
1
 10 
0.9875
 20 
0.49113
 30 
0.0
 0 
VERTEX
 8 
1
 10 
0.975
 20 
0.49225
 30 
0.0
 0 
VERTEX
 8 
1
 10 
0.95
 20 
0.4965
 30 
0.0
 0 
VERTEX
 8 
1
 10 
0.925
 20 
0.50175
 30 
0.0
 0 
VERTEX
 8 
1
 10 
0.9
 20 
0.507
 30 
0.0
 0 
VERTEX
 8 
1
 10 
0.85
 20 
0.5175
 30 
0.0
 0 
VERTEX
 8 
1
 10 
0.8
 20 
0.523
 30 
0.0
 0 
VERTEX
 8 
1
 10 
0.75
 20 
0.5265
 30 
0.0
 0 
VERTEX
 8 
1
 10 
0.7
 20 
0.529
 30 
0.0
 0 
VERTEX
 8 
1
 10 
0.6
 20 
0.53
 30 
0.0
 0 
VERTEX
 8 
1
 10 
0.5
 20 
0.527
 30 
0.0
 0 
VERTEX
 8 
1
 10 
0.4
 20 
0.522
 30 
0.0
 0 
VERTEX
 8 
1
 10 
0.3
 20 
0.517
 30 
0.0
 0 
VERTEX
 8 
1
 10 
0.2
 20 
0.511
 30 
0.0
 0 
VERTEX
 8 
1
 10 
0.1
 20 
0.506
 30 
0.0
 0 
VERTEX
 8 
1
 10 
0.0
 20 
0.5
 30 
0.0
 0 
SEQEND
 8 
1
 0 
ENDSEC
 0 
EOF
