 0 
SECTION
 2 
ENTITIES
 0 
POLYLINE
 8 
1
 66 
 1 
 10 
0.0
 20 
0.0
 30 
0.0
 0 
VERTEX
 8 
1
 10 
0.0
 20 
0.502
 30 
0.0
 0 
VERTEX
 8 
1
 10 
0.05
 20 
0.51155
 30 
0.0
 0 
VERTEX
 8 
1
 10 
0.1
 20 
0.5211
 30 
0.0
 0 
VERTEX
 8 
1
 10 
0.2
 20 
0.5372
 30 
0.0
 0 
VERTEX
 8 
1
 10 
0.3
 20 
0.5513
 30 
0.0
 0 
VERTEX
 8 
1
 10 
0.4
 20 
0.5644
 30 
0.0
 0 
VERTEX
 8 
1
 10 
0.5
 20 
0.5755
 30 
0.0
 0 
VERTEX
 8 
1
 10 
0.6
 20 
0.5836
 30 
0.0
 0 
VERTEX
 8 
1
 10 
0.7
 20 
0.5867
 30 
0.0
 0 
VERTEX
 8 
1
 10 
0.8
 20 
0.5818
 30 
0.0
 0 
VERTEX
 8 
1
 10 
0.85
 20 
0.57335
 30 
0.0
 0 
VERTEX
 8 
1
 10 
0.9
 20 
0.5599
 30 
0.0
 0 
VERTEX
 8 
1
 10 
0.925
 20 
0.55168
 30 
0.0
 0 
VERTEX
 8 
1
 10 
0.95
 20 
0.53945
 30 
0.0
 0 
VERTEX
 8 
1
 10 
0.975
 20 
0.52672
 30 
0.0
 0 
VERTEX
 8 
1
 10 
0.9875
 20 
0.51511
 30 
0.0
 0 
VERTEX
 8 
1
 10 
1
 20 
0.5
 30 
0.0
 0 
VERTEX
 8 
1
 10 
0.9875
 20 
0.49411
 30 
0.0
 0 
VERTEX
 8 
1
 10 
0.975
 20 
0.49223
 30 
0.0
 0 
VERTEX
 8 
1
 10 
0.95
 20 
0.49145
 30 
0.0
 0 
VERTEX
 8 
1
 10 
0.925
 20 
0.49368
 30 
0.0
 0 
VERTEX
 8 
1
 10 
0.9
 20 
0.4959
 30 
0.0
 0 
VERTEX
 8 
1
 10 
0.85
 20 
0.50035
 30 
0.0
 0 
VERTEX
 8 
1
 10 
0.8
 20 
0.5048
 30 
0.0
 0 
VERTEX
 8 
1
 10 
0.7
 20 
0.5127
 30 
0.0
 0 
VERTEX
 8 
1
 10 
0.6
 20 
0.5176
 30 
0.0
 0 
VERTEX
 8 
1
 10 
0.5
 20 
0.5175
 30 
0.0
 0 
VERTEX
 8 
1
 10 
0.4
 20 
0.5154
 30 
0.0
 0 
VERTEX
 8 
1
 10 
0.3
 20 
0.5123
 30 
0.0
 0 
VERTEX
 8 
1
 10 
0.2
 20 
0.5082
 30 
0.0
 0 
VERTEX
 8 
1
 10 
0.1
 20 
0.5041
 30 
0.0
 0 
VERTEX
 8 
1
 10 
0.05
 20 
0.50255
 30 
0.0
 0 
VERTEX
 8 
1
 10 
0.0
 20 
0.5
 30 
0.0
 0 
SEQEND
 8 
1
 0 
ENDSEC
 0 
EOF
