 0 
SECTION
 2 
ENTITIES
 0 
POLYLINE
 8 
1
 66 
 1 
 10 
0.0
 20 
0.0
 30 
0.0
 0 
VERTEX
 8 
1
 10 
0.0
 20 
0.5011
 30 
0.0
 0 
VERTEX
 8 
1
 10 
0.05016
 20 
0.51107
 30 
0.0
 0 
VERTEX
 8 
1
 10 
0.10031
 20 
0.52094
 30 
0.0
 0 
VERTEX
 8 
1
 10 
0.20057
 20 
0.53907
 30 
0.0
 0 
VERTEX
 8 
1
 10 
0.30081
 20 
0.55551
 30 
0.0
 0 
VERTEX
 8 
1
 10 
0.40103
 20 
0.57064
 30 
0.0
 0 
VERTEX
 8 
1
 10 
0.50119
 20 
0.58148
 30 
0.0
 0 
VERTEX
 8 
1
 10 
0.60131
 20 
0.58982
 30 
0.0
 0 
VERTEX
 8 
1
 10 
0.70134
 20 
0.59166
 30 
0.0
 0 
VERTEX
 8 
1
 10 
0.80124
 20 
0.5852
 30 
0.0
 0 
VERTEX
 8 
1
 10 
0.85111
 20 
0.57607
 30 
0.0
 0 
VERTEX
 8 
1
 10 
0.90094
 20 
0.56415
 30 
0.0
 0 
VERTEX
 8 
1
 10 
0.92581
 20 
0.55538
 30 
0.0
 0 
VERTEX
 8 
1
 10 
0.95066
 20 
0.54492
 30 
0.0
 0 
VERTEX
 8 
1
 10 
0.97543
 20 
0.52946
 30 
0.0
 0 
VERTEX
 8 
1
 10 
0.9878
 20 
0.52028
 30 
0.0
 0 
VERTEX
 8 
1
 10 
1
 20 
0.5
 30 
0.0
 0 
VERTEX
 8 
1
 10 
0.98736
 20 
0.49008
 30 
0.0
 0 
VERTEX
 8 
1
 10 
0.97487
 20 
0.48827
 30 
0.0
 0 
VERTEX
 8 
1
 10 
0.9498
 20 
0.48613
 30 
0.0
 0 
VERTEX
 8 
1
 10 
0.92484
 20 
0.4888
 30 
0.0
 0 
VERTEX
 8 
1
 10 
0.89987
 20 
0.49136
 30 
0.0
 0 
VERTEX
 8 
1
 10 
0.84996
 20 
0.49709
 30 
0.0
 0 
VERTEX
 8 
1
 10 
0.80003
 20 
0.50232
 30 
0.0
 0 
VERTEX
 8 
1
 10 
0.70016
 20 
0.51108
 30 
0.0
 0 
VERTEX
 8 
1
 10 
0.60023
 20 
0.51594
 30 
0.0
 0 
VERTEX
 8 
1
 10 
0.50024
 20 
0.5162
 30 
0.0
 0 
VERTEX
 8 
1
 10 
0.40021
 20 
0.51436
 30 
0.0
 0 
VERTEX
 8 
1
 10 
0.30017
 20 
0.51132
 30 
0.0
 0 
VERTEX
 8 
1
 10 
0.2001
 20 
0.50718
 30 
0.0
 0 
VERTEX
 8 
1
 10 
0.10005
 20 
0.50364
 30 
0.0
 0 
VERTEX
 8 
1
 10 
0.05002
 20 
0.50157
 30 
0.0
 0 
VERTEX
 8 
1
 10 
0.0
 20 
0.4989
 30 
0.0
 0 
SEQEND
 8 
1
 0 
ENDSEC
 0 
EOF
