 0 
SECTION
 2 
ENTITIES
 0 
POLYLINE
 8 
1
 66 
 1 
 10 
0.0
 20 
0.0
 30 
0.0
 0 
VERTEX
 8 
1
 10 
0.0
 20 
0.5
 30 
0.0
 0 
VERTEX
 8 
1
 10 
0.05023
 20 
0.51162
 30 
0.0
 0 
VERTEX
 8 
1
 10 
0.10039
 20 
0.52143
 30 
0.0
 0 
VERTEX
 8 
1
 10 
0.20078
 20 
0.54056
 30 
0.0
 0 
VERTEX
 8 
1
 10 
0.30115
 20 
0.5583
 30 
0.0
 0 
VERTEX
 8 
1
 10 
0.4014
 20 
0.57163
 30 
0.0
 0 
VERTEX
 8 
1
 10 
0.50162
 20 
0.58267
 30 
0.0
 0 
VERTEX
 8 
1
 10 
0.60175
 20 
0.58931
 30 
0.0
 0 
VERTEX
 8 
1
 10 
0.7017
 20 
0.58665
 30 
0.0
 0 
VERTEX
 8 
1
 10 
0.80145
 20 
0.57409
 30 
0.0
 0 
VERTEX
 8 
1
 10 
0.85123
 20 
0.56262
 30 
0.0
 0 
VERTEX
 8 
1
 10 
0.90093
 20 
0.54734
 30 
0.0
 0 
VERTEX
 8 
1
 10 
0.92577
 20 
0.53935
 30 
0.0
 0 
VERTEX
 8 
1
 10 
0.9506
 20 
0.53047
 30 
0.0
 0 
VERTEX
 8 
1
 10 
0.9754
 20 
0.52018
 30 
0.0
 0 
VERTEX
 8 
1
 10 
0.98777
 20 
0.51364
 30 
0.0
 0 
VERTEX
 8 
1
 10 
1
 20 
0.5
 30 
0.0
 0 
VERTEX
 8 
1
 10 
0.98731
 20 
0.49045
 30 
0.0
 0 
VERTEX
 8 
1
 10 
0.97476
 20 
0.48789
 30 
0.0
 0 
VERTEX
 8 
1
 10 
0.9497
 20 
0.48489
 30 
0.0
 0 
VERTEX
 8 
1
 10 
0.92467
 20 
0.48328
 30 
0.0
 0 
VERTEX
 8 
1
 10 
0.89965
 20 
0.48237
 30 
0.0
 0 
VERTEX
 8 
1
 10 
0.8497
 20 
0.48475
 30 
0.0
 0 
VERTEX
 8 
1
 10 
0.79976
 20 
0.48782
 30 
0.0
 0 
VERTEX
 8 
1
 10 
0.69994
 20 
0.49678
 30 
0.0
 0 
VERTEX
 8 
1
 10 
0.60004
 20 
0.50224
 30 
0.0
 0 
VERTEX
 8 
1
 10 
0.50011
 20 
0.5056
 30 
0.0
 0 
VERTEX
 8 
1
 10 
0.40012
 20 
0.50616
 30 
0.0
 0 
VERTEX
 8 
1
 10 
0.3001
 20 
0.50512
 30 
0.0
 0 
VERTEX
 8 
1
 10 
0.20008
 20 
0.50408
 30 
0.0
 0 
VERTEX
 8 
1
 10 
0.10004
 20 
0.50224
 30 
0.0
 0 
VERTEX
 8 
1
 10 
0.05003
 20 
0.50152
 30 
0.0
 0 
VERTEX
 8 
1
 10 
0.0
 20 
0.5
 30 
0.0
 0 
SEQEND
 8 
1
 0 
ENDSEC
 0 
EOF
