 0 
SECTION
 2 
ENTITIES
 0 
POLYLINE
 8 
1
 66 
 1 
 10 
0.0
 20 
0.0
 30 
0.0
 0 
VERTEX
 8 
1
 10 
0.0
 20 
0.50115
 30 
0.0
 0 
VERTEX
 8 
1
 10 
0.05026
 20 
0.51614
 30 
0.0
 0 
VERTEX
 8 
1
 10 
0.10043
 20 
0.52643
 30 
0.0
 0 
VERTEX
 8 
1
 10 
0.20073
 20 
0.54521
 30 
0.0
 0 
VERTEX
 8 
1
 10 
0.30102
 20 
0.56309
 30 
0.0
 0 
VERTEX
 8 
1
 10 
0.40127
 20 
0.57837
 30 
0.0
 0 
VERTEX
 8 
1
 10 
0.50146
 20 
0.59045
 30 
0.0
 0 
VERTEX
 8 
1
 10 
0.60159
 20 
0.59873
 30 
0.0
 0 
VERTEX
 8 
1
 10 
0.70161
 20 
0.59942
 30 
0.0
 0 
VERTEX
 8 
1
 10 
0.80153
 20 
0.59491
 30 
0.0
 0 
VERTEX
 8 
1
 10 
0.85138
 20 
0.5854
 30 
0.0
 0 
VERTEX
 8 
1
 10 
0.90116
 20 
0.5718
 30 
0.0
 0 
VERTEX
 8 
1
 10 
0.92601
 20 
0.56259
 30 
0.0
 0 
VERTEX
 8 
1
 10 
0.95079
 20 
0.54879
 30 
0.0
 0 
VERTEX
 8 
1
 10 
0.97556
 20 
0.53439
 30 
0.0
 0 
VERTEX
 8 
1
 10 
0.98786
 20 
0.522
 30 
0.0
 0 
VERTEX
 8 
1
 10 
1
 20 
0.5
 30 
0.0
 0 
VERTEX
 8 
1
 10 
0.98738
 20 
0.4928
 30 
0.0
 0 
VERTEX
 8 
1
 10 
0.97484
 20 
0.49011
 30 
0.0
 0 
VERTEX
 8 
1
 10 
0.94981
 20 
0.48671
 30 
0.0
 0 
VERTEX
 8 
1
 10 
0.92477
 20 
0.48461
 30 
0.0
 0 
VERTEX
 8 
1
 10 
0.89975
 20 
0.48432
 30 
0.0
 0 
VERTEX
 8 
1
 10 
0.84978
 20 
0.48633
 30 
0.0
 0 
VERTEX
 8 
1
 10 
0.79987
 20 
0.49173
 30 
0.0
 0 
VERTEX
 8 
1
 10 
0.70006
 20 
0.50384
 30 
0.0
 0 
VERTEX
 8 
1
 10 
0.6002
 20 
0.51246
 30 
0.0
 0 
VERTEX
 8 
1
 10 
0.50029
 20 
0.51787
 30 
0.0
 0 
VERTEX
 8 
1
 10 
0.40029
 20 
0.51809
 30 
0.0
 0 
VERTEX
 8 
1
 10 
0.30755
 20 
0.51582
 30 
0.0
 0 
VERTEX
 8 
1
 10 
0.2002
 20 
0.51252
 30 
0.0
 0 
VERTEX
 8 
1
 10 
0.10011
 20 
0.50653
 30 
0.0
 0 
VERTEX
 8 
1
 10 
0.05005
 20 
0.50324
 30 
0.0
 0 
VERTEX
 8 
1
 10 
0.0
 20 
0.49885
 30 
0.0
 0 
SEQEND
 8 
1
 0 
ENDSEC
 0 
EOF
