 0 
SECTION
 2 
ENTITIES
 0 
POLYLINE
 8 
1
 66 
 1 
 10 
0.0
 20 
0.0
 30 
0.0
 0 
VERTEX
 8 
1
 10 
0.0
 20 
0.5
 30 
0.0
 0 
VERTEX
 8 
1
 10 
0.05018
 20 
0.51175
 30 
0.0
 0 
VERTEX
 8 
1
 10 
0.10031
 20 
0.5208
 30 
0.0
 0 
VERTEX
 8 
1
 10 
0.20058
 20 
0.53879
 30 
0.0
 0 
VERTEX
 8 
1
 10 
0.30078
 20 
0.55199
 30 
0.0
 0 
VERTEX
 8 
1
 10 
0.40095
 20 
0.56359
 30 
0.0
 0 
VERTEX
 8 
1
 10 
0.5011
 20 
0.57328
 30 
0.0
 0 
VERTEX
 8 
1
 10 
0.6012
 20 
0.57998
 30 
0.0
 0 
VERTEX
 8 
1
 10 
0.70122
 20 
0.58138
 30 
0.0
 0 
VERTEX
 8 
1
 10 
0.80112
 20 
0.57488
 30 
0.0
 0 
VERTEX
 8 
1
 10 
0.85102
 20 
0.56803
 30 
0.0
 0 
VERTEX
 8 
1
 10 
0.90085
 20 
0.55649
 30 
0.0
 0 
VERTEX
 8 
1
 10 
0.92574
 20 
0.54911
 30 
0.0
 0 
VERTEX
 8 
1
 10 
0.9506
 20 
0.53974
 30 
0.0
 0 
VERTEX
 8 
1
 10 
0.97537
 20 
0.52497
 30 
0.0
 0 
VERTEX
 8 
1
 10 
0.98774
 20 
0.51578
 30 
0.0
 0 
VERTEX
 8 
1
 10 
1
 20 
0.5
 30 
0.0
 0 
VERTEX
 8 
1
 10 
0.98736
 20 
0.49079
 30 
0.0
 0 
VERTEX
 8 
1
 10 
0.97482
 20 
0.48818
 30 
0.0
 0 
VERTEX
 8 
1
 10 
0.94979
 20 
0.48575
 30 
0.0
 0 
VERTEX
 8 
1
 10 
0.92481
 20 
0.48713
 30 
0.0
 0 
VERTEX
 8 
1
 10 
0.89983
 20 
0.4887
 30 
0.0
 0 
VERTEX
 8 
1
 10 
0.84993
 20 
0.49565
 30 
0.0
 0 
VERTEX
 8 
1
 10 
0.80003
 20 
0.5019
 30 
0.0
 0 
VERTEX
 8 
1
 10 
0.70018
 20 
0.5118
 30 
0.0
 0 
VERTEX
 8 
1
 10 
0.60022
 20 
0.5144
 30 
0.0
 0 
VERTEX
 8 
1
 10 
0.50022
 20 
0.5148
 30 
0.0
 0 
VERTEX
 8 
1
 10 
0.4002
 20 
0.51395
 30 
0.0
 0 
VERTEX
 8 
1
 10 
0.30018
 20 
0.5122
 30 
0.0
 0 
VERTEX
 8 
1
 10 
0.20012
 20 
0.508
 30 
0.0
 0 
VERTEX
 8 
1
 10 
0.10006
 20 
0.5041
 30 
0.0
 0 
VERTEX
 8 
1
 10 
0.05003
 20 
0.50205
 30 
0.0
 0 
VERTEX
 8 
1
 10 
0.0
 20 
0.5
 30 
0.0
 0 
SEQEND
 8 
1
 0 
ENDSEC
 0 
EOF
