 0 
SECTION
 2 
ENTITIES
 0 
POLYLINE
 8 
1
 66 
 1 
 10 
0.0
 20 
0.0
 30 
0.0
 0 
VERTEX
 8 
1
 10 
0.0
 20 
0.505
 30 
0.0
 0 
VERTEX
 8 
1
 10 
0.05
 20 
0.51505
 30 
0.0
 0 
VERTEX
 8 
1
 10 
0.1
 20 
0.52339
 30 
0.0
 0 
VERTEX
 8 
1
 10 
0.2
 20 
0.53888
 30 
0.0
 0 
VERTEX
 8 
1
 10 
0.3
 20 
0.55497
 30 
0.0
 0 
VERTEX
 8 
1
 10 
0.4
 20 
0.56936
 30 
0.0
 0 
VERTEX
 8 
1
 10 
0.5
 20 
0.58095
 30 
0.0
 0 
VERTEX
 8 
1
 10 
0.6
 20 
0.58704
 30 
0.0
 0 
VERTEX
 8 
1
 10 
0.7
 20 
0.58863
 30 
0.0
 0 
VERTEX
 8 
1
 10 
0.8
 20 
0.58292
 30 
0.0
 0 
VERTEX
 8 
1
 10 
0.85
 20 
0.57506
 30 
0.0
 0 
VERTEX
 8 
1
 10 
0.9
 20 
0.56321
 30 
0.0
 0 
VERTEX
 8 
1
 10 
0.925
 20 
0.55458
 30 
0.0
 0 
VERTEX
 8 
1
 10 
0.95
 20 
0.54416
 30 
0.0
 0 
VERTEX
 8 
1
 10 
0.975
 20 
0.53093
 30 
0.0
 0 
VERTEX
 8 
1
 10 
0.9875
 20 
0.52121
 30 
0.0
 0 
VERTEX
 8 
1
 10 
1
 20 
0.5
 30 
0.0
 0 
VERTEX
 8 
1
 10 
0.9875
 20 
0.49891
 30 
0.0
 0 
VERTEX
 8 
1
 10 
0.975
 20 
0.49893
 30 
0.0
 0 
VERTEX
 8 
1
 10 
0.95
 20 
0.49895
 30 
0.0
 0 
VERTEX
 8 
1
 10 
0.925
 20 
0.49898
 30 
0.0
 0 
VERTEX
 8 
1
 10 
0.9
 20 
0.49901
 30 
0.0
 0 
VERTEX
 8 
1
 10 
0.85
 20 
0.49906
 30 
0.0
 0 
VERTEX
 8 
1
 10 
0.8
 20 
0.49912
 30 
0.0
 0 
VERTEX
 8 
1
 10 
0.7
 20 
0.49923
 30 
0.0
 0 
VERTEX
 8 
1
 10 
0.6
 20 
0.49934
 30 
0.0
 0 
VERTEX
 8 
1
 10 
0.5
 20 
0.49945
 30 
0.0
 0 
VERTEX
 8 
1
 10 
0.4
 20 
0.49956
 30 
0.0
 0 
VERTEX
 8 
1
 10 
0.3
 20 
0.49967
 30 
0.0
 0 
VERTEX
 8 
1
 10 
0.2
 20 
0.49978
 30 
0.0
 0 
VERTEX
 8 
1
 10 
0.1
 20 
0.49989
 30 
0.0
 0 
VERTEX
 8 
1
 10 
0.05
 20 
0.49995
 30 
0.0
 0 
VERTEX
 8 
1
 10 
0.0
 20 
0.5
 30 
0.0
 0 
SEQEND
 8 
1
 0 
ENDSEC
 0 
EOF
