 0 
SECTION
 2 
ENTITIES
 0 
POLYLINE
 8 
1
 66 
 1 
 10 
0.0
 20 
0.0
 30 
0.0
 0 
VERTEX
 8 
1
 10 
0.0
 20 
0.5006
 30 
0.0
 0 
VERTEX
 8 
1
 10 
0.05054
 20 
0.51886
 30 
0.0
 0 
VERTEX
 8 
1
 10 
0.10089
 20 
0.53133
 30 
0.0
 0 
VERTEX
 8 
1
 10 
0.20147
 20 
0.55168
 30 
0.0
 0 
VERTEX
 8 
1
 10 
0.30193
 20 
0.56783
 30 
0.0
 0 
VERTEX
 8 
1
 10 
0.40234
 20 
0.58247
 30 
0.0
 0 
VERTEX
 8 
1
 10 
0.5027
 20 
0.59522
 30 
0.0
 0 
VERTEX
 8 
1
 10 
0.60287
 20 
0.60108
 30 
0.0
 0 
VERTEX
 8 
1
 10 
0.70292
 20 
0.60294
 30 
0.0
 0 
VERTEX
 8 
1
 10 
0.80277
 20 
0.5977
 30 
0.0
 0 
VERTEX
 8 
1
 10 
0.8525
 20 
0.58819
 30 
0.0
 0 
VERTEX
 8 
1
 10 
0.90207
 20 
0.57288
 30 
0.0
 0 
VERTEX
 8 
1
 10 
0.92679
 20 
0.56288
 30 
0.0
 0 
VERTEX
 8 
1
 10 
0.95135
 20 
0.54768
 30 
0.0
 0 
VERTEX
 8 
1
 10 
0.97592
 20 
0.53248
 30 
0.0
 0 
VERTEX
 8 
1
 10 
0.98805
 20 
0.51944
 30 
0.0
 0 
VERTEX
 8 
1
 10 
1
 20 
0.5
 30 
0.0
 0 
VERTEX
 8 
1
 10 
0.98731
 20 
0.49336
 30 
0.0
 0 
VERTEX
 8 
1
 10 
0.97469
 20 
0.48912
 30 
0.0
 0 
VERTEX
 8 
1
 10 
0.94958
 20 
0.48513
 30 
0.0
 0 
VERTEX
 8 
1
 10 
0.92445
 20 
0.48065
 30 
0.0
 0 
VERTEX
 8 
1
 10 
0.8994
 20 
0.47906
 30 
0.0
 0 
VERTEX
 8 
1
 10 
0.84931
 20 
0.47588
 30 
0.0
 0 
VERTEX
 8 
1
 10 
0.79934
 20 
0.4767
 30 
0.0
 0 
VERTEX
 8 
1
 10 
0.69958
 20 
0.48533
 30 
0.0
 0 
VERTEX
 8 
1
 10 
0.60009
 20 
0.50326
 30 
0.0
 0 
VERTEX
 8 
1
 10 
0.50057
 20 
0.51998
 30 
0.0
 0 
VERTEX
 8 
1
 10 
0.40078
 20 
0.52742
 30 
0.0
 0 
VERTEX
 8 
1
 10 
0.30076
 20 
0.52676
 30 
0.0
 0 
VERTEX
 8 
1
 10 
0.20061
 20 
0.5215
 30 
0.0
 0 
VERTEX
 8 
1
 10 
0.10036
 20 
0.51275
 30 
0.0
 0 
VERTEX
 8 
1
 10 
0.05017
 20 
0.50608
 30 
0.0
 0 
VERTEX
 8 
1
 10 
0.0
 20 
0.4994
 30 
0.0
 0 
SEQEND
 8 
1
 0 
ENDSEC
 0 
EOF
