 0 
SECTION
 2 
ENTITIES
 0 
POLYLINE
 8 
1
 66 
 1 
 10 
0.0
 20 
0.0
 30 
0.0
 0 
VERTEX
 8 
1
 10 
0.0
 20 
0.5025
 30 
0.0
 0 
VERTEX
 8 
1
 10 
0.0501
 20 
0.51187
 30 
0.0
 0 
VERTEX
 8 
1
 10 
0.10018
 20 
0.52135
 30 
0.0
 0 
VERTEX
 8 
1
 10 
0.20034
 20 
0.5404
 30 
0.0
 0 
VERTEX
 8 
1
 10 
0.30049
 20 
0.55815
 30 
0.0
 0 
VERTEX
 8 
1
 10 
0.40063
 20 
0.57379
 30 
0.0
 0 
VERTEX
 8 
1
 10 
0.50073
 20 
0.58614
 30 
0.0
 0 
VERTEX
 8 
1
 10 
0.60079
 20 
0.59299
 30 
0.0
 0 
VERTEX
 8 
1
 10 
0.70079
 20 
0.59324
 30 
0.0
 0 
VERTEX
 8 
1
 10 
0.80073
 20 
0.58559
 30 
0.0
 0 
VERTEX
 8 
1
 10 
0.85065
 20 
0.57597
 30 
0.0
 0 
VERTEX
 8 
1
 10 
0.90054
 20 
0.56295
 30 
0.0
 0 
VERTEX
 8 
1
 10 
0.92547
 20 
0.55513
 30 
0.0
 0 
VERTEX
 8 
1
 10 
0.95038
 20 
0.54502
 30 
0.0
 0 
VERTEX
 8 
1
 10 
0.97526
 20 
0.53101
 30 
0.0
 0 
VERTEX
 8 
1
 10 
0.98768
 20 
0.52105
 30 
0.0
 0 
VERTEX
 8 
1
 10 
1
 20 
0.5
 30 
0.0
 0 
VERTEX
 8 
1
 10 
0.98741
 20 
0.48911
 30 
0.0
 0 
VERTEX
 8 
1
 10 
0.97491
 20 
0.48921
 30 
0.0
 0 
VERTEX
 8 
1
 10 
0.94994
 20 
0.49273
 30 
0.0
 0 
VERTEX
 8 
1
 10 
0.92496
 20 
0.49534
 30 
0.0
 0 
VERTEX
 8 
1
 10 
0.89998
 20 
0.49785
 30 
0.0
 0 
VERTEX
 8 
1
 10 
0.85002
 20 
0.50237
 30 
0.0
 0 
VERTEX
 8 
1
 10 
0.80006
 20 
0.5072
 30 
0.0
 0 
VERTEX
 8 
1
 10 
0.70012
 20 
0.51405
 30 
0.0
 0 
VERTEX
 8 
1
 10 
0.60015
 20 
0.5182
 30 
0.0
 0 
VERTEX
 8 
1
 10 
0.50017
 20 
0.51965
 30 
0.0
 0 
VERTEX
 8 
1
 10 
0.40015
 20 
0.5172
 30 
0.0
 0 
VERTEX
 8 
1
 10 
0.30012
 20 
0.51415
 30 
0.0
 0 
VERTEX
 8 
1
 10 
0.20009
 20 
0.5101
 30 
0.0
 0 
VERTEX
 8 
1
 10 
0.10004
 20 
0.50485
 30 
0.0
 0 
VERTEX
 8 
1
 10 
0.05002
 20 
0.50197
 30 
0.0
 0 
VERTEX
 8 
1
 10 
0.0
 20 
0.4975
 30 
0.0
 0 
SEQEND
 8 
1
 0 
ENDSEC
 0 
EOF
