 0 
SECTION
 2 
ENTITIES
 0 
POLYLINE
 8 
1
 66 
 1 
 10 
0.0
 20 
0.0
 30 
0.0
 0 
VERTEX
 8 
1
 10 
0.0
 20 
0.5
 30 
0.0
 0 
VERTEX
 8 
1
 10 
0.05036
 20 
0.51022
 30 
0.0
 0 
VERTEX
 8 
1
 10 
0.1007
 20 
0.51995
 30 
0.0
 0 
VERTEX
 8 
1
 10 
0.20134
 20 
0.53809
 30 
0.0
 0 
VERTEX
 8 
1
 10 
0.30192
 20 
0.55434
 30 
0.0
 0 
VERTEX
 8 
1
 10 
0.40236
 20 
0.567
 30 
0.0
 0 
VERTEX
 8 
1
 10 
0.50264
 20 
0.57476
 30 
0.0
 0 
VERTEX
 8 
1
 10 
0.60274
 20 
0.57762
 30 
0.0
 0 
VERTEX
 8 
1
 10 
0.70262
 20 
0.5741
 30 
0.0
 0 
VERTEX
 8 
1
 10 
0.80218
 20 
0.56168
 30 
0.0
 0 
VERTEX
 8 
1
 10 
0.85182
 20 
0.55163
 30 
0.0
 0 
VERTEX
 8 
1
 10 
0.90138
 20 
0.53918
 30 
0.0
 0 
VERTEX
 8 
1
 10 
0.92614
 20 
0.53231
 30 
0.0
 0 
VERTEX
 8 
1
 10 
0.95081
 20 
0.52294
 30 
0.0
 0 
VERTEX
 8 
1
 10 
0.97546
 20 
0.51307
 30 
0.0
 0 
VERTEX
 8 
1
 10 
0.98775
 20 
0.50713
 30 
0.0
 0 
VERTEX
 8 
1
 10 
1
 20 
0.5
 30 
0.0
 0 
VERTEX
 8 
1
 10 
0.98729
 20 
0.49415
 30 
0.0
 0 
VERTEX
 8 
1
 10 
0.97466
 20 
0.49029
 30 
0.0
 0 
VERTEX
 8 
1
 10 
0.94942
 20 
0.48349
 30 
0.0
 0 
VERTEX
 8 
1
 10 
0.92425
 20 
0.47867
 30 
0.0
 0 
VERTEX
 8 
1
 10 
0.89913
 20 
0.47526
 30 
0.0
 0 
VERTEX
 8 
1
 10 
0.84903
 20 
0.47253
 30 
0.0
 0 
VERTEX
 8 
1
 10 
0.799
 20 
0.4718
 30 
0.0
 0 
VERTEX
 8 
1
 10 
0.69925
 20 
0.47882
 30 
0.0
 0 
VERTEX
 8 
1
 10 
0.59962
 20 
0.48933
 30 
0.0
 0 
VERTEX
 8 
1
 10 
0.49984
 20 
0.49536
 30 
0.0
 0 
VERTEX
 8 
1
 10 
0.39998
 20 
0.49938
 30 
0.0
 0 
VERTEX
 8 
1
 10 
0.30003
 20 
0.50091
 30 
0.0
 0 
VERTEX
 8 
1
 10 
0.20005
 20 
0.50134
 30 
0.0
 0 
VERTEX
 8 
1
 10 
0.10002
 20 
0.50067
 30 
0.0
 0 
VERTEX
 8 
1
 10 
0.05001
 20 
0.50033
 30 
0.0
 0 
VERTEX
 8 
1
 10 
0.0
 20 
0.5
 30 
0.0
 0 
SEQEND
 8 
1
 0 
ENDSEC
 0 
EOF
