 0 
SECTION
 2 
ENTITIES
 0 
POLYLINE
 8 
1
 66 
 1 
 10 
0.0
 20 
0.0
 30 
0.0
 0 
VERTEX
 8 
1
 10 
0.0
 20 
0.50105
 30 
0.0
 0 
VERTEX
 8 
1
 10 
0.05011
 20 
0.5118
 30 
0.0
 0 
VERTEX
 8 
1
 10 
0.10019
 20 
0.52155
 30 
0.0
 0 
VERTEX
 8 
1
 10 
0.20037
 20 
0.54166
 30 
0.0
 0 
VERTEX
 8 
1
 10 
0.30054
 20 
0.56026
 30 
0.0
 0 
VERTEX
 8 
1
 10 
0.4007
 20 
0.57806
 30 
0.0
 0 
VERTEX
 8 
1
 10 
0.50083
 20 
0.59297
 30 
0.0
 0 
VERTEX
 8 
1
 10 
0.60093
 20 
0.60357
 30 
0.0
 0 
VERTEX
 8 
1
 10 
0.70096
 20 
0.60698
 30 
0.0
 0 
VERTEX
 8 
1
 10 
0.80091
 20 
0.60128
 30 
0.0
 0 
VERTEX
 8 
1
 10 
0.85083
 20 
0.59234
 30 
0.0
 0 
VERTEX
 8 
1
 10 
0.9007
 20 
0.57789
 30 
0.0
 0 
VERTEX
 8 
1
 10 
0.92562
 20 
0.56897
 30 
0.0
 0 
VERTEX
 8 
1
 10 
0.95051
 20 
0.55644
 30 
0.0
 0 
VERTEX
 8 
1
 10 
0.97535
 20 
0.53902
 30 
0.0
 0 
VERTEX
 8 
1
 10 
0.98774
 20 
0.52661
 30 
0.0
 0 
VERTEX
 8 
1
 10 
1
 20 
0.5
 30 
0.0
 0 
VERTEX
 8 
1
 10 
0.98743
 20 
0.49171
 30 
0.0
 0 
VERTEX
 8 
1
 10 
0.97491
 20 
0.49022
 30 
0.0
 0 
VERTEX
 8 
1
 10 
0.94993
 20 
0.49245
 30 
0.0
 0 
VERTEX
 8 
1
 10 
0.92498
 20 
0.49767
 30 
0.0
 0 
VERTEX
 8 
1
 10 
0.90004
 20 
0.50399
 30 
0.0
 0 
VERTEX
 8 
1
 10 
0.85014
 20 
0.51594
 30 
0.0
 0 
VERTEX
 8 
1
 10 
0.80023
 20 
0.52529
 30 
0.0
 0 
VERTEX
 8 
1
 10 
0.70034
 20 
0.53768
 30 
0.0
 0 
VERTEX
 8 
1
 10 
0.60037
 20 
0.54158
 30 
0.0
 0 
VERTEX
 8 
1
 10 
0.50036
 20 
0.53997
 30 
0.0
 0 
VERTEX
 8 
1
 10 
0.40031
 20 
0.53467
 30 
0.0
 0 
VERTEX
 8 
1
 10 
0.30024
 20 
0.52666
 30 
0.0
 0 
VERTEX
 8 
1
 10 
0.20015
 20 
0.51716
 30 
0.0
 0 
VERTEX
 8 
1
 10 
0.10007
 20 
0.50735
 30 
0.0
 0 
VERTEX
 8 
1
 10 
0.05002
 20 
0.5027
 30 
0.0
 0 
VERTEX
 8 
1
 10 
0.0
 20 
0.49895
 30 
0.0
 0 
SEQEND
 8 
1
 0 
ENDSEC
 0 
EOF
