 0 
SECTION
 2 
ENTITIES
 0 
POLYLINE
 8 
1
 66 
 1 
 10 
0.0
 20 
0.0
 30 
0.0
 0 
VERTEX
 8 
1
 10 
0.0
 20 
0.503
 30 
0.0
 0 
VERTEX
 8 
1
 10 
0.05045
 20 
0.5204
 30 
0.0
 0 
VERTEX
 8 
1
 10 
0.10081
 20 
0.53679
 30 
0.0
 0 
VERTEX
 8 
1
 10 
0.20148
 20 
0.56769
 30 
0.0
 0 
VERTEX
 8 
1
 10 
0.30208
 20 
0.59488
 30 
0.0
 0 
VERTEX
 8 
1
 10 
0.40247
 20 
0.61269
 30 
0.0
 0 
VERTEX
 8 
1
 10 
0.50272
 20 
0.62399
 30 
0.0
 0 
VERTEX
 8 
1
 10 
0.60286
 20 
0.6306
 30 
0.0
 0 
VERTEX
 8 
1
 10 
0.70281
 20 
0.62851
 30 
0.0
 0 
VERTEX
 8 
1
 10 
0.80251
 20 
0.61473
 30 
0.0
 0 
VERTEX
 8 
1
 10 
0.85225
 20 
0.60274
 30 
0.0
 0 
VERTEX
 8 
1
 10 
0.90187
 20 
0.58535
 30 
0.0
 0 
VERTEX
 8 
1
 10 
0.9266
 20 
0.57321
 30 
0.0
 0 
VERTEX
 8 
1
 10 
0.95127
 20 
0.55777
 30 
0.0
 0 
VERTEX
 8 
1
 10 
0.97587
 20 
0.53983
 30 
0.0
 0 
VERTEX
 8 
1
 10 
0.98811
 20 
0.52786
 30 
0.0
 0 
VERTEX
 8 
1
 10 
1
 20 
0.5
 30 
0.0
 0 
VERTEX
 8 
1
 10 
0.98716
 20 
0.48458
 30 
0.0
 0 
VERTEX
 8 
1
 10 
0.97458
 20 
0.48066
 30 
0.0
 0 
VERTEX
 8 
1
 10 
0.9495
 20 
0.47701
 30 
0.0
 0 
VERTEX
 8 
1
 10 
0.92449
 20 
0.47675
 30 
0.0
 0 
VERTEX
 8 
1
 10 
0.89952
 20 
0.4783
 30 
0.0
 0 
VERTEX
 8 
1
 10 
0.8496
 20 
0.48169
 30 
0.0
 0 
VERTEX
 8 
1
 10 
0.79971
 20 
0.48679
 30 
0.0
 0 
VERTEX
 8 
1
 10 
0.70003
 20 
0.50157
 30 
0.0
 0 
VERTEX
 8 
1
 10 
0.60035
 20 
0.51585
 30 
0.0
 0 
VERTEX
 8 
1
 10 
0.50063
 20 
0.52884
 30 
0.0
 0 
VERTEX
 8 
1
 10 
0.4008
 20 
0.53672
 30 
0.0
 0 
VERTEX
 8 
1
 10 
0.3008
 20 
0.53641
 30 
0.0
 0 
VERTEX
 8 
1
 10 
0.20063
 20 
0.52861
 30 
0.0
 0 
VERTEX
 8 
1
 10 
0.10032
 20 
0.5148
 30 
0.0
 0 
VERTEX
 8 
1
 10 
0.05014
 20 
0.5065
 30 
0.0
 0 
VERTEX
 8 
1
 10 
0.0
 20 
0.497
 30 
0.0
 0 
SEQEND
 8 
1
 0 
ENDSEC
 0 
EOF
