 0 
SECTION
 2 
ENTITIES
 0 
POLYLINE
 8 
1
 66 
 1 
 10 
0.0
 20 
0.0
 30 
0.0
 0 
VERTEX
 8 
1
 10 
0.0
 20 
0.501
 30 
0.0
 0 
VERTEX
 8 
1
 10 
0.0513
 20 
0.51959
 30 
0.0
 0 
VERTEX
 8 
1
 10 
0.10247
 20 
0.53719
 30 
0.0
 0 
VERTEX
 8 
1
 10 
0.20468
 20 
0.57039
 30 
0.0
 0 
VERTEX
 8 
1
 10 
0.3066
 20 
0.59921
 30 
0.0
 0 
VERTEX
 8 
1
 10 
0.40815
 20 
0.62266
 30 
0.0
 0 
VERTEX
 8 
1
 10 
0.50925
 20 
0.63913
 30 
0.0
 0 
VERTEX
 8 
1
 10 
0.60987
 20 
0.64844
 30 
0.0
 0 
VERTEX
 8 
1
 10 
0.70969
 20 
0.6458
 30 
0.0
 0 
VERTEX
 8 
1
 10 
0.8087
 20 
0.63092
 30 
0.0
 0 
VERTEX
 8 
1
 10 
0.85784
 20 
0.61795
 30 
0.0
 0 
VERTEX
 8 
1
 10 
0.90639
 20 
0.59622
 30 
0.0
 0 
VERTEX
 8 
1
 10 
0.93046
 20 
0.58212
 30 
0.0
 0 
VERTEX
 8 
1
 10 
0.94425
 20 
0.56404
 30 
0.0
 0 
VERTEX
 8 
1
 10 
0.97759
 20 
0.53899
 30 
0.0
 0 
VERTEX
 8 
1
 10 
0.98904
 20 
0.52323
 30 
0.0
 0 
VERTEX
 8 
1
 10 
1
 20 
0.5
 30 
0.0
 0 
VERTEX
 8 
1
 10 
0.98656
 20 
0.48589
 30 
0.0
 0 
VERTEX
 8 
1
 10 
0.97371
 20 
0.48075
 30 
0.0
 0 
VERTEX
 8 
1
 10 
0.9482
 20 
0.47294
 30 
0.0
 0 
VERTEX
 8 
1
 10 
0.92274
 20 
0.46614
 30 
0.0
 0 
VERTEX
 8 
1
 10 
0.89746
 20 
0.46182
 30 
0.0
 0 
VERTEX
 8 
1
 10 
0.84698
 20 
0.45468
 30 
0.0
 0 
VERTEX
 8 
1
 10 
0.79674
 20 
0.45102
 30 
0.0
 0 
VERTEX
 8 
1
 10 
0.69685
 20 
0.45266
 30 
0.0
 0 
VERTEX
 8 
1
 10 
0.59765
 20 
0.46476
 30 
0.0
 0 
VERTEX
 8 
1
 10 
0.49872
 20 
0.48083
 30 
0.0
 0 
VERTEX
 8 
1
 10 
0.39969
 20 
0.49542
 30 
0.0
 0 
VERTEX
 8 
1
 10 
0.30047
 20 
0.50702
 30 
0.0
 0 
VERTEX
 8 
1
 10 
0.20071
 20 
0.51065
 30 
0.0
 0 
VERTEX
 8 
1
 10 
0.10055
 20 
0.50831
 30 
0.0
 0 
VERTEX
 8 
1
 10 
0.05024
 20 
0.50366
 30 
0.0
 0 
VERTEX
 8 
1
 10 
0.0
 20 
0.499
 30 
0.0
 0 
SEQEND
 8 
1
 0 
ENDSEC
 0 
EOF
