 0 
SECTION
 2 
ENTITIES
 0 
POLYLINE
 8 
1
 66 
 1 
 10 
0.0
 20 
0.0
 30 
0.0
 0 
VERTEX
 8 
1
 10 
0.0
 20 
0.5037
 30 
0.0
 0 
VERTEX
 8 
1
 10 
0.05053
 20 
0.5207
 30 
0.0
 0 
VERTEX
 8 
1
 10 
0.10099
 20 
0.5386
 30 
0.0
 0 
VERTEX
 8 
1
 10 
0.20178
 20 
0.56921
 30 
0.0
 0 
VERTEX
 8 
1
 10 
0.30247
 20 
0.59623
 30 
0.0
 0 
VERTEX
 8 
1
 10 
0.40299
 20 
0.61644
 30 
0.0
 0 
VERTEX
 8 
1
 10 
0.50335
 20 
0.63036
 30 
0.0
 0 
VERTEX
 8 
1
 10 
0.60351
 20 
0.63659
 30 
0.0
 0 
VERTEX
 8 
1
 10 
0.70343
 20 
0.63332
 30 
0.0
 0 
VERTEX
 8 
1
 10 
0.80309
 20 
0.62006
 30 
0.0
 0 
VERTEX
 8 
1
 10 
0.85278
 20 
0.60808
 30 
0.0
 0 
VERTEX
 8 
1
 10 
0.90227
 20 
0.58841
 30 
0.0
 0 
VERTEX
 8 
1
 10 
0.92695
 20 
0.57598
 30 
0.0
 0 
VERTEX
 8 
1
 10 
0.95156
 20 
0.56064
 30 
0.0
 0 
VERTEX
 8 
1
 10 
0.97605
 20 
0.54072
 30 
0.0
 0 
VERTEX
 8 
1
 10 
0.98825
 20 
0.5292
 30 
0.0
 0 
VERTEX
 8 
1
 10 
1
 20 
0.5
 30 
0.0
 0 
VERTEX
 8 
1
 10 
0.98715
 20 
0.48643
 30 
0.0
 0 
VERTEX
 8 
1
 10 
0.97454
 20 
0.48195
 30 
0.0
 0 
VERTEX
 8 
1
 10 
0.94944
 20 
0.4783
 30 
0.0
 0 
VERTEX
 8 
1
 10 
0.92439
 20 
0.47624
 30 
0.0
 0 
VERTEX
 8 
1
 10 
0.89933
 20 
0.47399
 30 
0.0
 0 
VERTEX
 8 
1
 10 
0.84934
 20 
0.47447
 30 
0.0
 0 
VERTEX
 8 
1
 10 
0.79943
 20 
0.47785
 30 
0.0
 0 
VERTEX
 8 
1
 10 
0.69998
 20 
0.49911
 30 
0.0
 0 
VERTEX
 8 
1
 10 
0.6008
 20 
0.53116
 30 
0.0
 0 
VERTEX
 8 
1
 10 
0.50137
 20 
0.55321
 30 
0.0
 0 
VERTEX
 8 
1
 10 
0.40158
 20 
0.56138
 30 
0.0
 0 
VERTEX
 8 
1
 10 
0.30144
 20 
0.55605
 30 
0.0
 0 
VERTEX
 8 
1
 10 
0.20115
 20 
0.54463
 30 
0.0
 0 
VERTEX
 8 
1
 10 
0.10057
 20 
0.52202
 30 
0.0
 0 
VERTEX
 8 
1
 10 
0.05023
 20 
0.50891
 30 
0.0
 0 
VERTEX
 8 
1
 10 
0.0
 20 
0.4963
 30 
0.0
 0 
SEQEND
 8 
1
 0 
ENDSEC
 0 
EOF
