 0 
SECTION
 2 
ENTITIES
 0 
POLYLINE
 8 
1
 66 
 1 
 10 
0.0
 20 
0.0
 30 
0.0
 0 
VERTEX
 8 
1
 10 
0.0
 20 
0.5015
 30 
0.0
 0 
VERTEX
 8 
1
 10 
0.05126
 20 
0.52356
 30 
0.0
 0 
VERTEX
 8 
1
 10 
0.10241
 20 
0.54502
 30 
0.0
 0 
VERTEX
 8 
1
 10 
0.20436
 20 
0.58157
 30 
0.0
 0 
VERTEX
 8 
1
 10 
0.30589
 20 
0.61013
 30 
0.0
 0 
VERTEX
 8 
1
 10 
0.40718
 20 
0.63422
 30 
0.0
 0 
VERTEX
 8 
1
 10 
0.50791
 20 
0.64783
 30 
0.0
 0 
VERTEX
 8 
1
 10 
0.60821
 20 
0.65346
 30 
0.0
 0 
VERTEX
 8 
1
 10 
0.70806
 20 
0.65062
 30 
0.0
 0 
VERTEX
 8 
1
 10 
0.80712
 20 
0.63312
 30 
0.0
 0 
VERTEX
 8 
1
 10 
0.85637
 20 
0.61918
 30 
0.0
 0 
VERTEX
 8 
1
 10 
0.90524
 20 
0.59807
 30 
0.0
 0 
VERTEX
 8 
1
 10 
0.92948
 20 
0.58377
 30 
0.0
 0 
VERTEX
 8 
1
 10 
0.95347
 20 
0.56499
 30 
0.0
 0 
VERTEX
 8 
1
 10 
0.97731
 20 
0.54321
 30 
0.0
 0 
VERTEX
 8 
1
 10 
0.98903
 20 
0.52859
 30 
0.0
 0 
VERTEX
 8 
1
 10 
1
 20 
0.5
 30 
0.0
 0 
VERTEX
 8 
1
 10 
0.9866
 20 
0.48322
 30 
0.0
 0 
VERTEX
 8 
1
 10 
0.97379
 20 
0.4774
 30 
0.0
 0 
VERTEX
 8 
1
 10 
0.94841
 20 
0.47026
 30 
0.0
 0 
VERTEX
 8 
1
 10 
0.92309
 20 
0.46441
 30 
0.0
 0 
VERTEX
 8 
1
 10 
0.89791
 20 
0.46096
 30 
0.0
 0 
VERTEX
 8 
1
 10 
0.84771
 20 
0.45715
 30 
0.0
 0 
VERTEX
 8 
1
 10 
0.79769
 20 
0.45682
 30 
0.0
 0 
VERTEX
 8 
1
 10 
0.69819
 20 
0.46615
 30 
0.0
 0 
VERTEX
 8 
1
 10 
0.59903
 20 
0.48195
 30 
0.0
 0 
VERTEX
 8 
1
 10 
0.49983
 20 
0.49676
 30 
0.0
 0 
VERTEX
 8 
1
 10 
0.40048
 20 
0.50907
 30 
0.0
 0 
VERTEX
 8 
1
 10 
0.3008
 20 
0.51491
 30 
0.0
 0 
VERTEX
 8 
1
 10 
0.20081
 20 
0.51506
 30 
0.0
 0 
VERTEX
 8 
1
 10 
0.10057
 20 
0.51062
 30 
0.0
 0 
VERTEX
 8 
1
 10 
0.05031
 20 
0.50581
 30 
0.0
 0 
VERTEX
 8 
1
 10 
0.0
 20 
0.4985
 30 
0.0
 0 
SEQEND
 8 
1
 0 
ENDSEC
 0 
EOF
