 0 
SECTION
 2 
ENTITIES
 0 
POLYLINE
 8 
1
 66 
 1 
 10 
0.0
 20 
0.0
 30 
0.0
 0 
VERTEX
 8 
1
 10 
0.0
 20 
0.5021
 30 
0.0
 0 
VERTEX
 8 
1
 10 
0.05031
 20 
0.51678
 30 
0.0
 0 
VERTEX
 8 
1
 10 
0.10053
 20 
0.52907
 30 
0.0
 0 
VERTEX
 8 
1
 10 
0.20097
 20 
0.55304
 30 
0.0
 0 
VERTEX
 8 
1
 10 
0.30135
 20 
0.57402
 30 
0.0
 0 
VERTEX
 8 
1
 10 
0.40163
 20 
0.58949
 30 
0.0
 0 
VERTEX
 8 
1
 10 
0.50184
 20 
0.60107
 30 
0.0
 0 
VERTEX
 8 
1
 10 
0.602
 20 
0.60984
 30 
0.0
 0 
VERTEX
 8 
1
 10 
0.702
 20 
0.60982
 30 
0.0
 0 
VERTEX
 8 
1
 10 
0.8018
 20 
0.59975
 30 
0.0
 0 
VERTEX
 8 
1
 10 
0.85163
 20 
0.5895
 30 
0.0
 0 
VERTEX
 8 
1
 10 
0.90133
 20 
0.5733
 30 
0.0
 0 
VERTEX
 8 
1
 10 
0.92615
 20 
0.56324
 30 
0.0
 0 
VERTEX
 8 
1
 10 
0.95092
 20 
0.55039
 30 
0.0
 0 
VERTEX
 8 
1
 10 
0.97564
 20 
0.53504
 30 
0.0
 0 
VERTEX
 8 
1
 10 
0.98794
 20 
0.52422
 30 
0.0
 0 
VERTEX
 8 
1
 10 
1
 20 
0.5
 30 
0.0
 0 
VERTEX
 8 
1
 10 
0.98727
 20 
0.48763
 30 
0.0
 0 
VERTEX
 8 
1
 10 
0.97471
 20 
0.48396
 30 
0.0
 0 
VERTEX
 8 
1
 10 
0.94966
 20 
0.4815
 30 
0.0
 0 
VERTEX
 8 
1
 10 
0.92466
 20 
0.48107
 30 
0.0
 0 
VERTEX
 8 
1
 10 
0.89966
 20 
0.48153
 30 
0.0
 0 
VERTEX
 8 
1
 10 
0.84969
 20 
0.48294
 30 
0.0
 0 
VERTEX
 8 
1
 10 
0.79978
 20 
0.48774
 30 
0.0
 0 
VERTEX
 8 
1
 10 
0.69999
 20 
0.49946
 30 
0.0
 0 
VERTEX
 8 
1
 10 
0.60019
 20 
0.51068
 30 
0.0
 0 
VERTEX
 8 
1
 10 
0.5003
 20 
0.51629
 30 
0.0
 0 
VERTEX
 8 
1
 10 
0.40034
 20 
0.51881
 30 
0.0
 0 
VERTEX
 8 
1
 10 
0.30033
 20 
0.51823
 30 
0.0
 0 
VERTEX
 8 
1
 10 
0.20023
 20 
0.51266
 30 
0.0
 0 
VERTEX
 8 
1
 10 
0.10013
 20 
0.50708
 30 
0.0
 0 
VERTEX
 8 
1
 10 
0.05005
 20 
0.50299
 30 
0.0
 0 
VERTEX
 8 
1
 10 
0.0
 20 
0.4979
 30 
0.0
 0 
SEQEND
 8 
1
 0 
ENDSEC
 0 
EOF
