 0 
SECTION
 2 
ENTITIES
 0 
POLYLINE
 8 
1
 66 
 1 
 10 
0.0
 20 
0.0
 30 
0.0
 0 
VERTEX
 8 
1
 10 
0.0
 20 
0.5008
 30 
0.0
 0 
VERTEX
 8 
1
 10 
0.05005
 20 
0.51095
 30 
0.0
 0 
VERTEX
 8 
1
 10 
0.1001
 20 
0.5207
 30 
0.0
 0 
VERTEX
 8 
1
 10 
0.20018
 20 
0.5366
 30 
0.0
 0 
VERTEX
 8 
1
 10 
0.30026
 20 
0.5512
 30 
0.0
 0 
VERTEX
 8 
1
 10 
0.40032
 20 
0.564
 30 
0.0
 0 
VERTEX
 8 
1
 10 
0.50036
 20 
0.5726
 30 
0.0
 0 
VERTEX
 8 
1
 10 
0.60038
 20 
0.5762
 30 
0.0
 0 
VERTEX
 8 
1
 10 
0.70038
 20 
0.5753
 30 
0.0
 0 
VERTEX
 8 
1
 10 
0.80035
 20 
0.5695
 30 
0.0
 0 
VERTEX
 8 
1
 10 
0.85032
 20 
0.56395
 30 
0.0
 0 
VERTEX
 8 
1
 10 
0.90028
 20 
0.5557
 30 
0.0
 0 
VERTEX
 8 
1
 10 
0.92524
 20 
0.54867
 30 
0.0
 0 
VERTEX
 8 
1
 10 
0.9502
 20 
0.53955
 30 
0.0
 0 
VERTEX
 8 
1
 10 
0.97514
 20 
0.52812
 30 
0.0
 0 
VERTEX
 8 
1
 10 
0.98759
 20 
0.51816
 30 
0.0
 0 
VERTEX
 8 
1
 10 
1
 20 
0.5
 30 
0.0
 0 
VERTEX
 8 
1
 10 
0.98747
 20 
0.49426
 30 
0.0
 0 
VERTEX
 8 
1
 10 
0.97497
 20 
0.4944
 30 
0.0
 0 
VERTEX
 8 
1
 10 
0.94998
 20 
0.49555
 30 
0.0
 0 
VERTEX
 8 
1
 10 
0.92499
 20 
0.49773
 30 
0.0
 0 
VERTEX
 8 
1
 10 
0.9
 20 
0.5
 30 
0.0
 0 
VERTEX
 8 
1
 10 
0.85002
 20 
0.50325
 30 
0.0
 0 
VERTEX
 8 
1
 10 
0.80003
 20 
0.5058
 30 
0.0
 0 
VERTEX
 8 
1
 10 
0.70004
 20 
0.509
 30 
0.0
 0 
VERTEX
 8 
1
 10 
0.60005
 20 
0.51066
 30 
0.0
 0 
VERTEX
 8 
1
 10 
0.50006
 20 
0.5118
 30 
0.0
 0 
VERTEX
 8 
1
 10 
0.40006
 20 
0.5112
 30 
0.0
 0 
VERTEX
 8 
1
 10 
0.30004
 20 
0.50939
 30 
0.0
 0 
VERTEX
 8 
1
 10 
0.20004
 20 
0.5072
 30 
0.0
 0 
VERTEX
 8 
1
 10 
0.10002
 20 
0.5038
 30 
0.0
 0 
VERTEX
 8 
1
 10 
0.05001
 20 
0.50145
 30 
0.0
 0 
VERTEX
 8 
1
 10 
0.0
 20 
0.4992
 30 
0.0
 0 
SEQEND
 8 
1
 0 
ENDSEC
 0 
EOF
