 0 
SECTION
 2 
ENTITIES
 0 
POLYLINE
 8 
1
 66 
 1 
 10 
0.0
 20 
0.0
 30 
0.0
 0 
VERTEX
 8 
1
 10 
0.0
 20 
0.504
 30 
0.0
 0 
VERTEX
 8 
1
 10 
0.05004
 20 
0.51386
 30 
0.0
 0 
VERTEX
 8 
1
 10 
0.10006
 20 
0.52343
 30 
0.0
 0 
VERTEX
 8 
1
 10 
0.20011
 20 
0.54176
 30 
0.0
 0 
VERTEX
 8 
1
 10 
0.30015
 20 
0.55589
 30 
0.0
 0 
VERTEX
 8 
1
 10 
0.40018
 20 
0.56832
 30 
0.0
 0 
VERTEX
 8 
1
 10 
0.50021
 20 
0.57715
 30 
0.0
 0 
VERTEX
 8 
1
 10 
0.60023
 20 
0.58338
 30 
0.0
 0 
VERTEX
 8 
1
 10 
0.70023
 20 
0.58511
 30 
0.0
 0 
VERTEX
 8 
1
 10 
0.80022
 20 
0.58004
 30 
0.0
 0 
VERTEX
 8 
1
 10 
0.8502
 20 
0.5741
 30 
0.0
 0 
VERTEX
 8 
1
 10 
0.90017
 20 
0.56457
 30 
0.0
 0 
VERTEX
 8 
1
 10 
0.92516
 20 
0.5575
 30 
0.0
 0 
VERTEX
 8 
1
 10 
0.95012
 20 
0.54613
 30 
0.0
 0 
VERTEX
 8 
1
 10 
0.97508
 20 
0.53067
 30 
0.0
 0 
VERTEX
 8 
1
 10 
0.98755
 20 
0.51673
 30 
0.0
 0 
VERTEX
 8 
1
 10 
1
 20 
0.5
 30 
0.0
 0 
VERTEX
 8 
1
 10 
0.98748
 20 
0.49333
 30 
0.0
 0 
VERTEX
 8 
1
 10 
0.97498
 20 
0.49427
 30 
0.0
 0 
VERTEX
 8 
1
 10 
0.94999
 20 
0.49744
 30 
0.0
 0 
VERTEX
 8 
1
 10 
0.925
 20 
0.4994
 30 
0.0
 0 
VERTEX
 8 
1
 10 
0.9
 20 
0.50107
 30 
0.0
 0 
VERTEX
 8 
1
 10 
0.85001
 20 
0.5033
 30 
0.0
 0 
VERTEX
 8 
1
 10 
0.80001
 20 
0.50484
 30 
0.0
 0 
VERTEX
 8 
1
 10 
0.70002
 20 
0.50581
 30 
0.0
 0 
VERTEX
 8 
1
 10 
0.60002
 20 
0.50558
 30 
0.0
 0 
VERTEX
 8 
1
 10 
0.50001
 20 
0.50525
 30 
0.0
 0 
VERTEX
 8 
1
 10 
0.40001
 20 
0.50452
 30 
0.0
 0 
VERTEX
 8 
1
 10 
0.30001
 20 
0.50304
 30 
0.0
 0 
VERTEX
 8 
1
 10 
0.2
 20 
0.50136
 30 
0.0
 0 
VERTEX
 8 
1
 10 
0.1
 20 
0.49923
 30 
0.0
 0 
VERTEX
 8 
1
 10 
0.04999
 20 
0.49767
 30 
0.0
 0 
VERTEX
 8 
1
 10 
0.0
 20 
0.496
 30 
0.0
 0 
SEQEND
 8 
1
 0 
ENDSEC
 0 
EOF
