 0 
SECTION
 2 
ENTITIES
 0 
POLYLINE
 8 
1
 66 
 1 
 10 
0.0
 20 
0.0
 30 
0.0
 0 
VERTEX
 8 
1
 10 
0.0
 20 
0.5026
 30 
0.0
 0 
VERTEX
 8 
1
 10 
0.05008
 20 
0.5128
 30 
0.0
 0 
VERTEX
 8 
1
 10 
0.10014
 20 
0.52331
 30 
0.0
 0 
VERTEX
 8 
1
 10 
0.20024
 20 
0.54122
 30 
0.0
 0 
VERTEX
 8 
1
 10 
0.30033
 20 
0.55643
 30 
0.0
 0 
VERTEX
 8 
1
 10 
0.40041
 20 
0.56884
 30 
0.0
 0 
VERTEX
 8 
1
 10 
0.50047
 20 
0.57915
 30 
0.0
 0 
VERTEX
 8 
1
 10 
0.60049
 20 
0.58386
 30 
0.0
 0 
VERTEX
 8 
1
 10 
0.7005
 20 
0.58507
 30 
0.0
 0 
VERTEX
 8 
1
 10 
0.80046
 20 
0.57838
 30 
0.0
 0 
VERTEX
 8 
1
 10 
0.85042
 20 
0.57178
 30 
0.0
 0 
VERTEX
 8 
1
 10 
0.90036
 20 
0.56079
 30 
0.0
 0 
VERTEX
 8 
1
 10 
0.92531
 20 
0.55334
 30 
0.0
 0 
VERTEX
 8 
1
 10 
0.95025
 20 
0.54259
 30 
0.0
 0 
VERTEX
 8 
1
 10 
0.97516
 20 
0.52665
 30 
0.0
 0 
VERTEX
 8 
1
 10 
0.9876
 20 
0.51657
 30 
0.0
 0 
VERTEX
 8 
1
 10 
1
 20 
0.5
 30 
0.0
 0 
VERTEX
 8 
1
 10 
0.98745
 20 
0.49157
 30 
0.0
 0 
VERTEX
 8 
1
 10 
0.97496
 20 
0.49255
 30 
0.0
 0 
VERTEX
 8 
1
 10 
0.94997
 20 
0.4944
 30 
0.0
 0 
VERTEX
 8 
1
 10 
0.92498
 20 
0.49594
 30 
0.0
 0 
VERTEX
 8 
1
 10 
0.89998
 20 
0.49709
 30 
0.0
 0 
VERTEX
 8 
1
 10 
0.85
 20 
0.49949
 30 
0.0
 0 
VERTEX
 8 
1
 10 
0.80001
 20 
0.50128
 30 
0.0
 0 
VERTEX
 8 
1
 10 
0.70003
 20 
0.50467
 30 
0.0
 0 
VERTEX
 8 
1
 10 
0.60004
 20 
0.50706
 30 
0.0
 0 
VERTEX
 8 
1
 10 
0.50005
 20 
0.50765
 30 
0.0
 0 
VERTEX
 8 
1
 10 
0.40004
 20 
0.50754
 30 
0.0
 0 
VERTEX
 8 
1
 10 
0.30003
 20 
0.50513
 30 
0.0
 0 
VERTEX
 8 
1
 10 
0.20001
 20 
0.50222
 30 
0.0
 0 
VERTEX
 8 
1
 10 
0.1
 20 
0.49991
 30 
0.0
 0 
VERTEX
 8 
1
 10 
0.04999
 20 
0.49831
 30 
0.0
 0 
VERTEX
 8 
1
 10 
0.0
 20 
0.4974
 30 
0.0
 0 
SEQEND
 8 
1
 0 
ENDSEC
 0 
EOF
