 0 
SECTION
 2 
ENTITIES
 0 
POLYLINE
 8 
1
 66 
 1 
 10 
0.0
 20 
0.0
 30 
0.0
 0 
VERTEX
 8 
1
 10 
0.0
 20 
0.50295
 30 
0.0
 0 
VERTEX
 8 
1
 10 
0.05097
 20 
0.51848
 30 
0.0
 0 
VERTEX
 8 
1
 10 
0.10172
 20 
0.53292
 30 
0.0
 0 
VERTEX
 8 
1
 10 
0.20314
 20 
0.55992
 30 
0.0
 0 
VERTEX
 8 
1
 10 
0.3044
 20 
0.58401
 30 
0.0
 0 
VERTEX
 8 
1
 10 
0.40551
 20 
0.60522
 30 
0.0
 0 
VERTEX
 8 
1
 10 
0.50646
 20 
0.62344
 30 
0.0
 0 
VERTEX
 8 
1
 10 
0.60708
 20 
0.63527
 30 
0.0
 0 
VERTEX
 8 
1
 10 
0.70715
 20 
0.63653
 30 
0.0
 0 
VERTEX
 8 
1
 10 
0.80663
 20 
0.62662
 30 
0.0
 0 
VERTEX
 8 
1
 10 
0.85594
 20 
0.61344
 30 
0.0
 0 
VERTEX
 8 
1
 10 
0.90482
 20 
0.59218
 30 
0.0
 0 
VERTEX
 8 
1
 10 
0.9291
 20 
0.57841
 30 
0.0
 0 
VERTEX
 8 
1
 10 
0.95327
 20 
0.56245
 30 
0.0
 0 
VERTEX
 8 
1
 10 
0.97717
 20 
0.5414
 30 
0.0
 0 
VERTEX
 8 
1
 10 
0.98893
 20 
0.52728
 30 
0.0
 0 
VERTEX
 8 
1
 10 
1
 20 
0.5
 30 
0.0
 0 
VERTEX
 8 
1
 10 
0.98627
 20 
0.47662
 30 
0.0
 0 
VERTEX
 8 
1
 10 
0.97344
 20 
0.47019
 30 
0.0
 0 
VERTEX
 8 
1
 10 
0.94805
 20 
0.46272
 30 
0.0
 0 
VERTEX
 8 
1
 10 
0.92281
 20 
0.45824
 30 
0.0
 0 
VERTEX
 8 
1
 10 
0.89769
 20 
0.45596
 30 
0.0
 0 
VERTEX
 8 
1
 10 
0.84762
 20 
0.45448
 30 
0.0
 0 
VERTEX
 8 
1
 10 
0.79766
 20 
0.45529
 30 
0.0
 0 
VERTEX
 8 
1
 10 
0.69808
 20 
0.46341
 30 
0.0
 0 
VERTEX
 8 
1
 10 
0.59876
 20 
0.4763
 30 
0.0
 0 
VERTEX
 8 
1
 10 
0.49934
 20 
0.48741
 30 
0.0
 0 
VERTEX
 8 
1
 10 
0.39976
 20 
0.49552
 30 
0.0
 0 
VERTEX
 8 
1
 10 
0.30001
 20 
0.50014
 30 
0.0
 0 
VERTEX
 8 
1
 10 
0.20007
 20 
0.50128
 30 
0.0
 0 
VERTEX
 8 
1
 10 
0.10003
 20 
0.50061
 30 
0.0
 0 
VERTEX
 8 
1
 10 
0.049950
 20 
0.49904
 30 
0.0
 0 
VERTEX
 8 
1
 10 
0.0
 20 
0.49705
 30 
0.0
 0 
SEQEND
 8 
1
 0 
ENDSEC
 0 
EOF
