 0 
SECTION
 2 
ENTITIES
 0 
POLYLINE
 8 
1
 66 
 1 
 10 
0.0
 20 
0.0
 30 
0.0
 0 
VERTEX
 8 
1
 10 
0.0
 20 
0.50295
 30 
0.0
 0 
VERTEX
 8 
1
 10 
0.05053
 20 
0.51276
 30 
0.0
 0 
VERTEX
 8 
1
 10 
0.10091
 20 
0.52187
 30 
0.0
 0 
VERTEX
 8 
1
 10 
0.20179
 20 
0.54309
 30 
0.0
 0 
VERTEX
 8 
1
 10 
0.30267
 20 
0.56265
 30 
0.0
 0 
VERTEX
 8 
1
 10 
0.40335
 20 
0.58093
 30 
0.0
 0 
VERTEX
 8 
1
 10 
0.50392
 20 
0.59446
 30 
0.0
 0 
VERTEX
 8 
1
 10 
0.60431
 20 
0.604
 30 
0.0
 0 
VERTEX
 8 
1
 10 
0.70431
 20 
0.60396
 30 
0.0
 0 
VERTEX
 8 
1
 10 
0.80405
 20 
0.59882
 30 
0.0
 0 
VERTEX
 8 
1
 10 
0.85378
 20 
0.59126
 30 
0.0
 0 
VERTEX
 8 
1
 10 
0.90323
 20 
0.57891
 30 
0.0
 0 
VERTEX
 8 
1
 10 
0.92792
 20 
0.57039
 30 
0.0
 0 
VERTEX
 8 
1
 10 
0.95241
 20 
0.55817
 30 
0.0
 0 
VERTEX
 8 
1
 10 
0.97666
 20 
0.53997
 30 
0.0
 0 
VERTEX
 8 
1
 10 
0.98867
 20 
0.52827
 30 
0.0
 0 
VERTEX
 8 
1
 10 
1
 20 
0.5
 30 
0.0
 0 
VERTEX
 8 
1
 10 
0.98642
 20 
0.47396
 30 
0.0
 0 
VERTEX
 8 
1
 10 
0.9736
 20 
0.46619
 30 
0.0
 0 
VERTEX
 8 
1
 10 
0.94833
 20 
0.45974
 30 
0.0
 0 
VERTEX
 8 
1
 10 
0.92329
 20 
0.45878
 30 
0.0
 0 
VERTEX
 8 
1
 10 
0.89838
 20 
0.46101
 30 
0.0
 0 
VERTEX
 8 
1
 10 
0.84859
 20 
0.46598
 30 
0.0
 0 
VERTEX
 8 
1
 10 
0.7988
 20 
0.47104
 30 
0.0
 0 
VERTEX
 8 
1
 10 
0.69917
 20 
0.47987
 30 
0.0
 0 
VERTEX
 8 
1
 10 
0.59946
 20 
0.487
 30 
0.0
 0 
VERTEX
 8 
1
 10 
0.49959
 20 
0.49053
 30 
0.0
 0 
VERTEX
 8 
1
 10 
0.39971
 20 
0.49298
 30 
0.0
 0 
VERTEX
 8 
1
 10 
0.29976
 20 
0.49447
 30 
0.0
 0 
VERTEX
 8 
1
 10 
0.19983
 20 
0.49587
 30 
0.0
 0 
VERTEX
 8 
1
 10 
0.0999
 20 
0.49761
 30 
0.0
 0 
VERTEX
 8 
1
 10 
0.04992
 20 
0.49798
 30 
0.0
 0 
VERTEX
 8 
1
 10 
0.0
 20 
0.49705
 30 
0.0
 0 
SEQEND
 8 
1
 0 
ENDSEC
 0 
EOF
