 0 
SECTION
 2 
ENTITIES
 0 
POLYLINE
 8 
1
 66 
 1 
 10 
0.0
 20 
0.0
 30 
0.0
 0 
VERTEX
 8 
1
 10 
0.0
 20 
0.50185
 30 
0.0
 0 
VERTEX
 8 
1
 10 
0.05005
 20 
0.51356
 30 
0.0
 0 
VERTEX
 8 
1
 10 
0.10009
 20 
0.52426
 30 
0.0
 0 
VERTEX
 8 
1
 10 
0.20017
 20 
0.54338
 30 
0.0
 0 
VERTEX
 8 
1
 10 
0.30023
 20 
0.55939
 30 
0.0
 0 
VERTEX
 8 
1
 10 
0.40027
 20 
0.57021
 30 
0.0
 0 
VERTEX
 8 
1
 10 
0.5003
 20 
0.57862
 30 
0.0
 0 
VERTEX
 8 
1
 10 
0.60032
 20 
0.58374
 30 
0.0
 0 
VERTEX
 8 
1
 10 
0.70032
 20 
0.58415
 30 
0.0
 0 
VERTEX
 8 
1
 10 
0.80031
 20 
0.57957
 30 
0.0
 0 
VERTEX
 8 
1
 10 
0.85028
 20 
0.57308
 30 
0.0
 0 
VERTEX
 8 
1
 10 
0.90024
 20 
0.56248
 30 
0.0
 0 
VERTEX
 8 
1
 10 
0.92521
 20 
0.55559
 30 
0.0
 0 
VERTEX
 8 
1
 10 
0.95018
 20 
0.54549
 30 
0.0
 0 
VERTEX
 8 
1
 10 
0.97512
 20 
0.532
 30 
0.0
 0 
VERTEX
 8 
1
 10 
0.98759
 20 
0.52355
 30 
0.0
 0 
VERTEX
 8 
1
 10 
1
 20 
0.5
 30 
0.0
 0 
VERTEX
 8 
1
 10 
0.98748
 20 
0.49435
 30 
0.0
 0 
VERTEX
 8 
1
 10 
0.97498
 20 
0.4949
 30 
0.0
 0 
VERTEX
 8 
1
 10 
0.94999
 20 
0.49849
 30 
0.0
 0 
VERTEX
 8 
1
 10 
0.925
 20 
0.50069
 30 
0.0
 0 
VERTEX
 8 
1
 10 
0.90001
 20 
0.50268
 30 
0.0
 0 
VERTEX
 8 
1
 10 
0.85002
 20 
0.50528
 30 
0.0
 0 
VERTEX
 8 
1
 10 
0.80003
 20 
0.50757
 30 
0.0
 0 
VERTEX
 8 
1
 10 
0.70004
 20 
0.50985
 30 
0.0
 0 
VERTEX
 8 
1
 10 
0.60004
 20 
0.51084
 30 
0.0
 0 
VERTEX
 8 
1
 10 
0.50004
 20 
0.50992
 30 
0.0
 0 
VERTEX
 8 
1
 10 
0.40003
 20 
0.50861
 30 
0.0
 0 
VERTEX
 8 
1
 10 
0.30003
 20 
0.50699
 30 
0.0
 0 
VERTEX
 8 
1
 10 
0.20002
 20 
0.50512
 30 
0.0
 0 
VERTEX
 8 
1
 10 
0.10001
 20 
0.50215
 30 
0.0
 0 
VERTEX
 8 
1
 10 
0.05
 20 
0.50046
 30 
0.0
 0 
VERTEX
 8 
1
 10 
0.0
 20 
0.49815
 30 
0.0
 0 
SEQEND
 8 
1
 0 
ENDSEC
 0 
EOF
