 0 
SECTION
 2 
ENTITIES
 0 
POLYLINE
 8 
1
 66 
 1 
 10 
0.0
 20 
0.0
 30 
0.0
 0 
VERTEX
 8 
1
 10 
0.0
 20 
0.50295
 30 
0.0
 0 
VERTEX
 8 
1
 10 
0.05077
 20 
0.51505
 30 
0.0
 0 
VERTEX
 8 
1
 10 
0.10148
 20 
0.52886
 30 
0.0
 0 
VERTEX
 8 
1
 10 
0.20287
 20 
0.55607
 30 
0.0
 0 
VERTEX
 8 
1
 10 
0.30414
 20 
0.58089
 30 
0.0
 0 
VERTEX
 8 
1
 10 
0.40528
 20 
0.60332
 30 
0.0
 0 
VERTEX
 8 
1
 10 
0.50629
 20 
0.62295
 30 
0.0
 0 
VERTEX
 8 
1
 10 
0.60699
 20 
0.6366
 30 
0.0
 0 
VERTEX
 8 
1
 10 
0.70703
 20 
0.63739
 30 
0.0
 0 
VERTEX
 8 
1
 10 
0.80646
 20 
0.6264
 30 
0.0
 0 
VERTEX
 8 
1
 10 
0.85582
 20 
0.61387
 30 
0.0
 0 
VERTEX
 8 
1
 10 
0.90476
 20 
0.59317
 30 
0.0
 0 
VERTEX
 8 
1
 10 
0.92914
 20 
0.58102
 30 
0.0
 0 
VERTEX
 8 
1
 10 
0.95336
 20 
0.56579
 30 
0.0
 0 
VERTEX
 8 
1
 10 
0.9773
 20 
0.54506
 30 
0.0
 0 
VERTEX
 8 
1
 10 
0.98912
 20 
0.53176
 30 
0.0
 0 
VERTEX
 8 
1
 10 
1
 20 
0.5
 30 
0.0
 0 
VERTEX
 8 
1
 10 
0.98627
 20 
0.476
 30 
0.0
 0 
VERTEX
 8 
1
 10 
0.97339
 20 
0.46846
 30 
0.0
 0 
VERTEX
 8 
1
 10 
0.94791
 20 
0.45916
 30 
0.0
 0 
VERTEX
 8 
1
 10 
0.92271
 20 
0.45535
 30 
0.0
 0 
VERTEX
 8 
1
 10 
0.89768
 20 
0.45463
 30 
0.0
 0 
VERTEX
 8 
1
 10 
0.84769
 20 
0.45489
 30 
0.0
 0 
VERTEX
 8 
1
 10 
0.79776
 20 
0.45624
 30 
0.0
 0 
VERTEX
 8 
1
 10 
0.69802
 20 
0.46135
 30 
0.0
 0 
VERTEX
 8 
1
 10 
0.59828
 20 
0.46645
 30 
0.0
 0 
VERTEX
 8 
1
 10 
0.49854
 20 
0.47155
 30 
0.0
 0 
VERTEX
 8 
1
 10 
0.3988
 20 
0.47665
 30 
0.0
 0 
VERTEX
 8 
1
 10 
0.29907
 20 
0.48175
 30 
0.0
 0 
VERTEX
 8 
1
 10 
0.19933
 20 
0.48685
 30 
0.0
 0 
VERTEX
 8 
1
 10 
0.09959
 20 
0.49196
 30 
0.0
 0 
VERTEX
 8 
1
 10 
0.04972
 20 
0.49451
 30 
0.0
 0 
VERTEX
 8 
1
 10 
0.0
 20 
0.49705
 30 
0.0
 0 
SEQEND
 8 
1
 0 
ENDSEC
 0 
EOF
