 0 
SECTION
 2 
ENTITIES
 0 
POLYLINE
 8 
1
 66 
 1 
 10 
0.0
 20 
0.0
 30 
0.0
 0 
VERTEX
 8 
1
 10 
0.0
 20 
0.501
 30 
0.0
 0 
VERTEX
 8 
1
 10 
0.05045
 20 
0.51771
 30 
0.0
 0 
VERTEX
 8 
1
 10 
0.10087
 20 
0.53393
 30 
0.0
 0 
VERTEX
 8 
1
 10 
0.2017
 20 
0.56686
 30 
0.0
 0 
VERTEX
 8 
1
 10 
0.30243
 20 
0.59529
 30 
0.0
 0 
VERTEX
 8 
1
 10 
0.40299
 20 
0.61722
 30 
0.0
 0 
VERTEX
 8 
1
 10 
0.5034
 20 
0.63316
 30 
0.0
 0 
VERTEX
 8 
1
 10 
0.60356
 20 
0.63961
 30 
0.0
 0 
VERTEX
 8 
1
 10 
0.70356
 20 
0.63956
 30 
0.0
 0 
VERTEX
 8 
1
 10 
0.8032
 20 
0.62552
 30 
0.0
 0 
VERTEX
 8 
1
 10 
0.85286
 20 
0.61225
 30 
0.0
 0 
VERTEX
 8 
1
 10 
0.90235
 20 
0.59199
 30 
0.0
 0 
VERTEX
 8 
1
 10 
0.92701
 20 
0.57886
 30 
0.0
 0 
VERTEX
 8 
1
 10 
0.95159
 20 
0.56253
 30 
0.0
 0 
VERTEX
 8 
1
 10 
0.97607
 20 
0.54211
 30 
0.0
 0 
VERTEX
 8 
1
 10 
0.98826
 20 
0.5298
 30 
0.0
 0 
VERTEX
 8 
1
 10 
1
 20 
0.5
 30 
0.0
 0 
VERTEX
 8 
1
 10 
0.9871
 20 
0.48433
 30 
0.0
 0 
VERTEX
 8 
1
 10 
0.97447
 20 
0.47915
 30 
0.0
 0 
VERTEX
 8 
1
 10 
0.94938
 20 
0.47579
 30 
0.0
 0 
VERTEX
 8 
1
 10 
0.92437
 20 
0.47543
 30 
0.0
 0 
VERTEX
 8 
1
 10 
0.89941
 20 
0.47706
 30 
0.0
 0 
VERTEX
 8 
1
 10 
0.84952
 20 
0.48114
 30 
0.0
 0 
VERTEX
 8 
1
 10 
0.79967
 20 
0.48711
 30 
0.0
 0 
VERTEX
 8 
1
 10 
0.70005
 20 
0.50215
 30 
0.0
 0 
VERTEX
 8 
1
 10 
0.60043
 20 
0.51669
 30 
0.0
 0 
VERTEX
 8 
1
 10 
0.50073
 20 
0.52873
 30 
0.0
 0 
VERTEX
 8 
1
 10 
0.40091
 20 
0.53578
 30 
0.0
 0 
VERTEX
 8 
1
 10 
0.30096
 20 
0.53783
 30 
0.0
 0 
VERTEX
 8 
1
 10 
0.20077
 20 
0.53038
 30 
0.0
 0 
VERTEX
 8 
1
 10 
0.10041
 20 
0.51594
 30 
0.0
 0 
VERTEX
 8 
1
 10 
0.0502
 20 
0.50772
 30 
0.0
 0 
VERTEX
 8 
1
 10 
0.0
 20 
0.499
 30 
0.0
 0 
SEQEND
 8 
1
 0 
ENDSEC
 0 
EOF
