 0 
SECTION
 2 
ENTITIES
 0 
POLYLINE
 8 
1
 66 
 1 
 10 
0.0
 20 
0.0
 30 
0.0
 0 
VERTEX
 8 
1
 10 
0.0
 20 
0.5
 30 
0.0
 0 
VERTEX
 8 
1
 10 
0.05014
 20 
0.50912
 30 
0.0
 0 
VERTEX
 8 
1
 10 
0.10026
 20 
0.51664
 30 
0.0
 0 
VERTEX
 8 
1
 10 
0.2005
 20 
0.53227
 30 
0.0
 0 
VERTEX
 8 
1
 10 
0.3008
 20 
0.55101
 30 
0.0
 0 
VERTEX
 8 
1
 10 
0.40111
 20 
0.57084
 30 
0.0
 0 
VERTEX
 8 
1
 10 
0.50138
 20 
0.58858
 30 
0.0
 0 
VERTEX
 8 
1
 10 
0.60158
 20 
0.60102
 30 
0.0
 0 
VERTEX
 8 
1
 10 
0.70162
 20 
0.60415
 30 
0.0
 0 
VERTEX
 8 
1
 10 
0.80146
 20 
0.5937
 30 
0.0
 0 
VERTEX
 8 
1
 10 
0.85132
 20 
0.58472
 30 
0.0
 0 
VERTEX
 8 
1
 10 
0.90109
 20 
0.56984
 30 
0.0
 0 
VERTEX
 8 
1
 10 
0.92593
 20 
0.55956
 30 
0.0
 0 
VERTEX
 8 
1
 10 
0.95074
 20 
0.54767
 30 
0.0
 0 
VERTEX
 8 
1
 10 
0.97553
 20 
0.53378
 30 
0.0
 0 
VERTEX
 8 
1
 10 
0.98787
 20 
0.52369
 30 
0.0
 0 
VERTEX
 8 
1
 10 
1
 20 
0.5
 30 
0.0
 0 
VERTEX
 8 
1
 10 
0.98728
 20 
0.486
 30 
0.0
 0 
VERTEX
 8 
1
 10 
0.97476
 20 
0.48479
 30 
0.0
 0 
VERTEX
 8 
1
 10 
0.94981
 20 
0.48778
 30 
0.0
 0 
VERTEX
 8 
1
 10 
0.92486
 20 
0.49077
 30 
0.0
 0 
VERTEX
 8 
1
 10 
0.89988
 20 
0.49216
 30 
0.0
 0 
VERTEX
 8 
1
 10 
0.84996
 20 
0.49714
 30 
0.0
 0 
VERTEX
 8 
1
 10 
0.80003
 20 
0.50162
 30 
0.0
 0 
VERTEX
 8 
1
 10 
0.70009
 20 
0.50608
 30 
0.0
 0 
VERTEX
 8 
1
 10 
0.60011
 20 
0.50734
 30 
0.0
 0 
VERTEX
 8 
1
 10 
0.50009
 20 
0.5057
 30 
0.0
 0 
VERTEX
 8 
1
 10 
0.40005
 20 
0.50316
 30 
0.0
 0 
VERTEX
 8 
1
 10 
0.30002
 20 
0.50102
 30 
0.0
 0 
VERTEX
 8 
1
 10 
0.19999
 20 
0.49948
 30 
0.0
 0 
VERTEX
 8 
1
 10 
0.1
 20 
0.50004
 30 
0.0
 0 
VERTEX
 8 
1
 10 
0.04999
 20 
0.49952
 30 
0.0
 0 
VERTEX
 8 
1
 10 
0.0
 20 
0.5
 30 
0.0
 0 
SEQEND
 8 
1
 0 
ENDSEC
 0 
EOF
