 0 
SECTION
 2 
ENTITIES
 0 
POLYLINE
 8 
1
 66 
 1 
 10 
0.0
 20 
0.0
 30 
0.0
 0 
VERTEX
 8 
1
 10 
0.0
 20 
0.50125
 30 
0.0
 0 
VERTEX
 8 
1
 10 
0.05054
 20 
0.51737
 30 
0.0
 0 
VERTEX
 8 
1
 10 
0.10101
 20 
0.53239
 30 
0.0
 0 
VERTEX
 8 
1
 10 
0.20192
 20 
0.56144
 30 
0.0
 0 
VERTEX
 8 
1
 10 
0.3027
 20 
0.58649
 30 
0.0
 0 
VERTEX
 8 
1
 10 
0.40335
 20 
0.60715
 30 
0.0
 0 
VERTEX
 8 
1
 10 
0.50374
 20 
0.61971
 30 
0.0
 0 
VERTEX
 8 
1
 10 
0.60393
 20 
0.62588
 30 
0.0
 0 
VERTEX
 8 
1
 10 
0.70391
 20 
0.62525
 30 
0.0
 0 
VERTEX
 8 
1
 10 
0.80353
 20 
0.61294
 30 
0.0
 0 
VERTEX
 8 
1
 10 
0.85313
 20 
0.60009
 30 
0.0
 0 
VERTEX
 8 
1
 10 
0.90259
 20 
0.58304
 30 
0.0
 0 
VERTEX
 8 
1
 10 
0.92725
 20 
0.57197
 30 
0.0
 0 
VERTEX
 8 
1
 10 
0.9518
 20 
0.55751
 30 
0.0
 0 
VERTEX
 8 
1
 10 
0.97617
 20 
0.53754
 30 
0.0
 0 
VERTEX
 8 
1
 10 
0.98828
 20 
0.52487
 30 
0.0
 0 
VERTEX
 8 
1
 10 
1
 20 
0.5
 30 
0.0
 0 
VERTEX
 8 
1
 10 
0.98681
 20 
0.47791
 30 
0.0
 0 
VERTEX
 8 
1
 10 
0.97411
 20 
0.47161
 30 
0.0
 0 
VERTEX
 8 
1
 10 
0.94896
 20 
0.4666
 30 
0.0
 0 
VERTEX
 8 
1
 10 
0.92391
 20 
0.46518
 30 
0.0
 0 
VERTEX
 8 
1
 10 
0.89889
 20 
0.46436
 30 
0.0
 0 
VERTEX
 8 
1
 10 
0.84887
 20 
0.46372
 30 
0.0
 0 
VERTEX
 8 
1
 10 
0.79886
 20 
0.46349
 30 
0.0
 0 
VERTEX
 8 
1
 10 
0.69892
 20 
0.46541
 30 
0.0
 0 
VERTEX
 8 
1
 10 
0.59902
 20 
0.46853
 30 
0.0
 0 
VERTEX
 8 
1
 10 
0.49911
 20 
0.47165
 30 
0.0
 0 
VERTEX
 8 
1
 10 
0.39921
 20 
0.47477
 30 
0.0
 0 
VERTEX
 8 
1
 10 
0.29931
 20 
0.4779
 30 
0.0
 0 
VERTEX
 8 
1
 10 
0.19941
 20 
0.48102
 30 
0.0
 0 
VERTEX
 8 
1
 10 
0.09962
 20 
0.48794
 30 
0.0
 0 
VERTEX
 8 
1
 10 
0.0498
 20 
0.49359
 30 
0.0
 0 
VERTEX
 8 
1
 10 
0.0
 20 
0.49875
 30 
0.0
 0 
SEQEND
 8 
1
 0 
ENDSEC
 0 
EOF
