 0 
SECTION
 2 
ENTITIES
 0 
POLYLINE
 8 
1
 66 
 1 
 10 
0.0
 20 
0.0
 30 
0.0
 0 
VERTEX
 8 
1
 10 
0.0
 20 
0.501
 30 
0.0
 0 
VERTEX
 8 
1
 10 
0.05008
 20 
0.51163
 30 
0.0
 0 
VERTEX
 8 
1
 10 
0.10015
 20 
0.52117
 30 
0.0
 0 
VERTEX
 8 
1
 10 
0.20029
 20 
0.53924
 30 
0.0
 0 
VERTEX
 8 
1
 10 
0.30039
 20 
0.55411
 30 
0.0
 0 
VERTEX
 8 
1
 10 
0.40047
 20 
0.56478
 30 
0.0
 0 
VERTEX
 8 
1
 10 
0.50054
 20 
0.57345
 30 
0.0
 0 
VERTEX
 8 
1
 10 
0.60057
 20 
0.57852
 30 
0.0
 0 
VERTEX
 8 
1
 10 
0.70058
 20 
0.57979
 30 
0.0
 0 
VERTEX
 8 
1
 10 
0.80055
 20 
0.57546
 30 
0.0
 0 
VERTEX
 8 
1
 10 
0.8505
 20 
0.56829
 30 
0.0
 0 
VERTEX
 8 
1
 10 
0.90042
 20 
0.55753
 30 
0.0
 0 
VERTEX
 8 
1
 10 
0.92536
 20 
0.54954
 30 
0.0
 0 
VERTEX
 8 
1
 10 
0.95029
 20 
0.53956
 30 
0.0
 0 
VERTEX
 8 
1
 10 
0.9752
 20 
0.52778
 30 
0.0
 0 
VERTEX
 8 
1
 10 
0.98765
 20 
0.52039
 30 
0.0
 0 
VERTEX
 8 
1
 10 
1
 20 
0.5
 30 
0.0
 0 
VERTEX
 8 
1
 10 
0.98744
 20 
0.49179
 30 
0.0
 0 
VERTEX
 8 
1
 10 
0.97494
 20 
0.49238
 30 
0.0
 0 
VERTEX
 8 
1
 10 
0.94997
 20 
0.4952
 30 
0.0
 0 
VERTEX
 8 
1
 10 
0.92498
 20 
0.49795
 30 
0.0
 0 
VERTEX
 8 
1
 10 
0.9
 20 
0.50023
 30 
0.0
 0 
VERTEX
 8 
1
 10 
0.85002
 20 
0.50269
 30 
0.0
 0 
VERTEX
 8 
1
 10 
0.80003
 20 
0.50356
 30 
0.0
 0 
VERTEX
 8 
1
 10 
0.70004
 20 
0.50539
 30 
0.0
 0 
VERTEX
 8 
1
 10 
0.60004
 20 
0.50612
 30 
0.0
 0 
VERTEX
 8 
1
 10 
0.50004
 20 
0.50618
 30 
0.0
 0 
VERTEX
 8 
1
 10 
0.40004
 20 
0.50598
 30 
0.0
 0 
VERTEX
 8 
1
 10 
0.30003
 20 
0.50461
 30 
0.0
 0 
VERTEX
 8 
1
 10 
0.20002
 20 
0.50274
 30 
0.0
 0 
VERTEX
 8 
1
 10 
0.1
 20 
0.50037
 30 
0.0
 0 
VERTEX
 8 
1
 10 
0.04999
 20 
0.49957
 30 
0.0
 0 
VERTEX
 8 
1
 10 
0.0
 20 
0.499
 30 
0.0
 0 
SEQEND
 8 
1
 0 
ENDSEC
 0 
EOF
