 0 
SECTION
 2 
ENTITIES
 0 
POLYLINE
 8 
1
 66 
 1 
 10 
0.0
 20 
0.0
 30 
0.0
 0 
VERTEX
 8 
1
 10 
0.0
 20 
0.5016
 30 
0.0
 0 
VERTEX
 8 
1
 10 
0.05011
 20 
0.51175
 30 
0.0
 0 
VERTEX
 8 
1
 10 
0.10019
 20 
0.5214
 30 
0.0
 0 
VERTEX
 8 
1
 10 
0.20035
 20 
0.5391
 30 
0.0
 0 
VERTEX
 8 
1
 10 
0.30048
 20 
0.5533
 30 
0.0
 0 
VERTEX
 8 
1
 10 
0.4006
 20 
0.56629
 30 
0.0
 0 
VERTEX
 8 
1
 10 
0.50069
 20 
0.57619
 30 
0.0
 0 
VERTEX
 8 
1
 10 
0.60075
 20 
0.58319
 30 
0.0
 0 
VERTEX
 8 
1
 10 
0.70077
 20 
0.58559
 30 
0.0
 0 
VERTEX
 8 
1
 10 
0.80073
 20 
0.58139
 30 
0.0
 0 
VERTEX
 8 
1
 10 
0.85066
 20 
0.57354
 30 
0.0
 0 
VERTEX
 8 
1
 10 
0.90055
 20 
0.5609
 30 
0.0
 0 
VERTEX
 8 
1
 10 
0.92547
 20 
0.55267
 30 
0.0
 0 
VERTEX
 8 
1
 10 
0.95038
 20 
0.54275
 30 
0.0
 0 
VERTEX
 8 
1
 10 
0.97525
 20 
0.52832
 30 
0.0
 0 
VERTEX
 8 
1
 10 
0.98767
 20 
0.51851
 30 
0.0
 0 
VERTEX
 8 
1
 10 
1
 20 
0.5
 30 
0.0
 0 
VERTEX
 8 
1
 10 
0.98741
 20 
0.49051
 30 
0.0
 0 
VERTEX
 8 
1
 10 
0.97491
 20 
0.48963
 30 
0.0
 0 
VERTEX
 8 
1
 10 
0.94992
 20 
0.49095
 30 
0.0
 0 
VERTEX
 8 
1
 10 
0.92494
 20 
0.49225
 30 
0.0
 0 
VERTEX
 8 
1
 10 
0.89995
 20 
0.49361
 30 
0.0
 0 
VERTEX
 8 
1
 10 
0.84997
 20 
0.49625
 30 
0.0
 0 
VERTEX
 8 
1
 10 
0.79999
 20 
0.4985
 30 
0.0
 0 
VERTEX
 8 
1
 10 
0.70002
 20 
0.5022
 30 
0.0
 0 
VERTEX
 8 
1
 10 
0.60003
 20 
0.5038
 30 
0.0
 0 
VERTEX
 8 
1
 10 
0.50004
 20 
0.5047
 30 
0.0
 0 
VERTEX
 8 
1
 10 
0.40004
 20 
0.5044
 30 
0.0
 0 
VERTEX
 8 
1
 10 
0.30003
 20 
0.50336
 30 
0.0
 0 
VERTEX
 8 
1
 10 
0.20002
 20 
0.5022
 30 
0.0
 0 
VERTEX
 8 
1
 10 
0.10001
 20 
0.5007
 30 
0.0
 0 
VERTEX
 8 
1
 10 
0.04999
 20 
0.49945
 30 
0.0
 0 
VERTEX
 8 
1
 10 
0.0
 20 
0.4984
 30 
0.0
 0 
SEQEND
 8 
1
 0 
ENDSEC
 0 
EOF
