 0 
SECTION
 2 
ENTITIES
 0 
POLYLINE
 8 
1
 66 
 1 
 10 
0.0
 20 
0.0
 30 
0.0
 0 
VERTEX
 8 
1
 10 
0.0
 20 
0.5025
 30 
0.0
 0 
VERTEX
 8 
1
 10 
0.050069
 20 
0.50889
 30 
0.0
 0 
VERTEX
 8 
1
 10 
0.10014
 20 
0.51789
 30 
0.0
 0 
VERTEX
 8 
1
 10 
0.20028
 20 
0.53468
 30 
0.0
 0 
VERTEX
 8 
1
 10 
0.30043
 20 
0.55267
 30 
0.0
 0 
VERTEX
 8 
1
 10 
0.40056
 20 
0.56896
 30 
0.0
 0 
VERTEX
 8 
1
 10 
0.50067
 20 
0.58284
 30 
0.0
 0 
VERTEX
 8 
1
 10 
0.60075
 20 
0.59263
 30 
0.0
 0 
VERTEX
 8 
1
 10 
0.70075
 20 
0.59232
 30 
0.0
 0 
VERTEX
 8 
1
 10 
0.80069
 20 
0.58511
 30 
0.0
 0 
VERTEX
 8 
1
 10 
0.85063
 20 
0.57771
 30 
0.0
 0 
VERTEX
 8 
1
 10 
0.90052
 20 
0.56371
 30 
0.0
 0 
VERTEX
 8 
1
 10 
0.92544
 20 
0.5547
 30 
0.0
 0 
VERTEX
 8 
1
 10 
0.95034
 20 
0.5423
 30 
0.0
 0 
VERTEX
 8 
1
 10 
0.97521
 20 
0.5261
 30 
0.0
 0 
VERTEX
 8 
1
 10 
0.98764
 20 
0.5171
 30 
0.0
 0 
VERTEX
 8 
1
 10 
1
 20 
0.5
 30 
0.0
 0 
VERTEX
 8 
1
 10 
0.98742
 20 
0.4902
 30 
0.0
 0 
VERTEX
 8 
1
 10 
0.97492
 20 
0.4896
 30 
0.0
 0 
VERTEX
 8 
1
 10 
0.94993
 20 
0.49101
 30 
0.0
 0 
VERTEX
 8 
1
 10 
0.92494
 20 
0.49291
 30 
0.0
 0 
VERTEX
 8 
1
 10 
0.89996
 20 
0.49491
 30 
0.0
 0 
VERTEX
 8 
1
 10 
0.84998
 20 
0.49772
 30 
0.0
 0 
VERTEX
 8 
1
 10 
0.79999
 20 
0.4999
 30 
0.0
 0 
VERTEX
 8 
1
 10 
0.70003
 20 
0.50363
 30 
0.0
 0 
VERTEX
 8 
1
 10 
0.60004
 20 
0.50504
 30 
0.0
 0 
VERTEX
 8 
1
 10 
0.50004
 20 
0.50525
 30 
0.0
 0 
VERTEX
 8 
1
 10 
0.40003
 20 
0.50366
 30 
0.0
 0 
VERTEX
 8 
1
 10 
0.30002
 20 
0.50187
 30 
0.0
 0 
VERTEX
 8 
1
 10 
0.2
 20 
0.50058
 30 
0.0
 0 
VERTEX
 8 
1
 10 
0.09999
 20 
0.49909
 30 
0.0
 0 
VERTEX
 8 
1
 10 
0.04999
 20 
0.4983
 30 
0.0
 0 
VERTEX
 8 
1
 10 
0.0
 20 
0.4975
 30 
0.0
 0 
SEQEND
 8 
1
 0 
ENDSEC
 0 
EOF
