 0 
SECTION
 2 
ENTITIES
 0 
POLYLINE
 8 
1
 66 
 1 
 10 
0.0
 20 
0.0
 30 
0.0
 0 
VERTEX
 8 
1
 10 
0.0
 20 
0.5
 30 
0.0
 0 
VERTEX
 8 
1
 10 
0.05
 20 
0.51063
 30 
0.0
 0 
VERTEX
 8 
1
 10 
0.1
 20 
0.51975
 30 
0.0
 0 
VERTEX
 8 
1
 10 
0.2
 20 
0.5375
 30 
0.0
 0 
VERTEX
 8 
1
 10 
0.3
 20 
0.55275
 30 
0.0
 0 
VERTEX
 8 
1
 10 
0.4
 20 
0.566
 30 
0.0
 0 
VERTEX
 8 
1
 10 
0.5
 20 
0.57725
 30 
0.0
 0 
VERTEX
 8 
1
 10 
0.6
 20 
0.5845
 30 
0.0
 0 
VERTEX
 8 
1
 10 
0.7
 20 
0.58725
 30 
0.0
 0 
VERTEX
 8 
1
 10 
0.8
 20 
0.5825
 30 
0.0
 0 
VERTEX
 8 
1
 10 
0.85
 20 
0.57563
 30 
0.0
 0 
VERTEX
 8 
1
 10 
0.9
 20 
0.56175
 30 
0.0
 0 
VERTEX
 8 
1
 10 
0.925
 20 
0.55256
 30 
0.0
 0 
VERTEX
 8 
1
 10 
0.95
 20 
0.54088
 30 
0.0
 0 
VERTEX
 8 
1
 10 
0.975
 20 
0.52569
 30 
0.0
 0 
VERTEX
 8 
1
 10 
0.9875
 20 
0.51709
 30 
0.0
 0 
VERTEX
 8 
1
 10 
1
 20 
0.5
 30 
0.0
 0 
VERTEX
 8 
1
 10 
0.9875
 20 
0.49159
 30 
0.0
 0 
VERTEX
 8 
1
 10 
0.975
 20 
0.49269
 30 
0.0
 0 
VERTEX
 8 
1
 10 
0.95
 20 
0.49588
 30 
0.0
 0 
VERTEX
 8 
1
 10 
0.925
 20 
0.49956
 30 
0.0
 0 
VERTEX
 8 
1
 10 
0.9
 20 
0.50325
 30 
0.0
 0 
VERTEX
 8 
1
 10 
0.85
 20 
0.50962
 30 
0.0
 0 
VERTEX
 8 
1
 10 
0.8
 20 
0.5145
 30 
0.0
 0 
VERTEX
 8 
1
 10 
0.7
 20 
0.52225
 30 
0.0
 0 
VERTEX
 8 
1
 10 
0.6
 20 
0.526
 30 
0.0
 0 
VERTEX
 8 
1
 10 
0.5
 20 
0.52775
 30 
0.0
 0 
VERTEX
 8 
1
 10 
0.4
 20 
0.5265
 30 
0.0
 0 
VERTEX
 8 
1
 10 
0.3
 20 
0.52275
 30 
0.0
 0 
VERTEX
 8 
1
 10 
0.2
 20 
0.5175
 30 
0.0
 0 
VERTEX
 8 
1
 10 
0.1
 20 
0.50875
 30 
0.0
 0 
VERTEX
 8 
1
 10 
0.05
 20 
0.50363
 30 
0.0
 0 
VERTEX
 8 
1
 10 
0.0
 20 
0.5
 30 
0.0
 0 
SEQEND
 8 
1
 0 
ENDSEC
 0 
EOF
