 0 
SECTION
 2 
ENTITIES
 0 
POLYLINE
 8 
1
 66 
 1 
 10 
0.0
 20 
0.0
 30 
0.0
 0 
VERTEX
 8 
1
 10 
0.0
 20 
0.5
 30 
0.0
 0 
VERTEX
 8 
1
 10 
0.05
 20 
0.51447
 30 
0.0
 0 
VERTEX
 8 
1
 10 
0.1
 20 
0.52795
 30 
0.0
 0 
VERTEX
 8 
1
 10 
0.2
 20 
0.5539
 30 
0.0
 0 
VERTEX
 8 
1
 10 
0.3
 20 
0.57835
 30 
0.0
 0 
VERTEX
 8 
1
 10 
0.4
 20 
0.5998
 30 
0.0
 0 
VERTEX
 8 
1
 10 
0.5
 20 
0.61675
 30 
0.0
 0 
VERTEX
 8 
1
 10 
0.6
 20 
0.6262
 30 
0.0
 0 
VERTEX
 8 
1
 10 
0.7
 20 
0.62765
 30 
0.0
 0 
VERTEX
 8 
1
 10 
0.8
 20 
0.6181
 30 
0.0
 0 
VERTEX
 8 
1
 10 
0.85
 20 
0.60658
 30 
0.0
 0 
VERTEX
 8 
1
 10 
0.9
 20 
0.59055
 30 
0.0
 0 
VERTEX
 8 
1
 10 
0.925
 20 
0.57879
 30 
0.0
 0 
VERTEX
 8 
1
 10 
0.95
 20 
0.56452
 30 
0.0
 0 
VERTEX
 8 
1
 10 
0.975
 20 
0.54526
 30 
0.0
 0 
VERTEX
 8 
1
 10 
0.9875
 20 
0.53088
 30 
0.0
 0 
VERTEX
 8 
1
 10 
1
 20 
0.5
 30 
0.0
 0 
VERTEX
 8 
1
 10 
0.9875
 20 
0.48138
 30 
0.0
 0 
VERTEX
 8 
1
 10 
0.975
 20 
0.47826
 30 
0.0
 0 
VERTEX
 8 
1
 10 
0.95
 20 
0.47503
 30 
0.0
 0 
VERTEX
 8 
1
 10 
0.925
 20 
0.47279
 30 
0.0
 0 
VERTEX
 8 
1
 10 
0.9
 20 
0.47205
 30 
0.0
 0 
VERTEX
 8 
1
 10 
0.85
 20 
0.47257
 30 
0.0
 0 
VERTEX
 8 
1
 10 
0.8
 20 
0.4741
 30 
0.0
 0 
VERTEX
 8 
1
 10 
0.7
 20 
0.47915
 30 
0.0
 0 
VERTEX
 8 
1
 10 
0.6
 20 
0.4842
 30 
0.0
 0 
VERTEX
 8 
1
 10 
0.5
 20 
0.48775
 30 
0.0
 0 
VERTEX
 8 
1
 10 
0.4
 20 
0.4913
 30 
0.0
 0 
VERTEX
 8 
1
 10 
0.3
 20 
0.49385
 30 
0.0
 0 
VERTEX
 8 
1
 10 
0.2
 20 
0.4954
 30 
0.0
 0 
VERTEX
 8 
1
 10 
0.1
 20 
0.49695
 30 
0.0
 0 
VERTEX
 8 
1
 10 
0.05
 20 
0.49748
 30 
0.0
 0 
VERTEX
 8 
1
 10 
0.0
 20 
0.5
 30 
0.0
 0 
SEQEND
 8 
1
 0 
ENDSEC
 0 
EOF
