 0 
SECTION
 2 
ENTITIES
 0 
POLYLINE
 8 
1
 66 
 1 
 10 
0.0
 20 
0.0
 30 
0.0
 0 
VERTEX
 8 
1
 10 
0.0
 20 
0.5015
 30 
0.0
 0 
VERTEX
 8 
1
 10 
0.050069
 20 
0.5125
 30 
0.0
 0 
VERTEX
 8 
1
 10 
0.10014
 20 
0.5226
 30 
0.0
 0 
VERTEX
 8 
1
 10 
0.20025
 20 
0.5413
 30 
0.0
 0 
VERTEX
 8 
1
 10 
0.30034
 20 
0.5578
 30 
0.0
 0 
VERTEX
 8 
1
 10 
0.40045
 20 
0.5743
 30 
0.0
 0 
VERTEX
 8 
1
 10 
0.50052
 20 
0.5875
 30 
0.0
 0 
VERTEX
 8 
1
 10 
0.60058
 20 
0.5967
 30 
0.0
 0 
VERTEX
 8 
1
 10 
0.70059
 20 
0.5988
 30 
0.0
 0 
VERTEX
 8 
1
 10 
0.80053
 20 
0.5887
 30 
0.0
 0 
VERTEX
 8 
1
 10 
0.85048
 20 
0.5802
 30 
0.0
 0 
VERTEX
 8 
1
 10 
0.9004
 20 
0.5673
 30 
0.0
 0 
VERTEX
 8 
1
 10 
0.92535
 20 
0.55895
 30 
0.0
 0 
VERTEX
 8 
1
 10 
0.95028
 20 
0.5473
 30 
0.0
 0 
VERTEX
 8 
1
 10 
0.97521
 20 
0.53265
 30 
0.0
 0 
VERTEX
 8 
1
 10 
0.98762
 20 
0.51957
 30 
0.0
 0 
VERTEX
 8 
1
 10 
1
 20 
0.5
 30 
0.0
 0 
VERTEX
 8 
1
 10 
0.98743
 20 
0.48898
 30 
0.0
 0 
VERTEX
 8 
1
 10 
0.97493
 20 
0.48765
 30 
0.0
 0 
VERTEX
 8 
1
 10 
0.94993
 20 
0.4878
 30 
0.0
 0 
VERTEX
 8 
1
 10 
0.92494
 20 
0.49025
 30 
0.0
 0 
VERTEX
 8 
1
 10 
0.89996
 20 
0.4936
 30 
0.0
 0 
VERTEX
 8 
1
 10 
0.85
 20 
0.4992
 30 
0.0
 0 
VERTEX
 8 
1
 10 
0.80002
 20 
0.5037
 30 
0.0
 0 
VERTEX
 8 
1
 10 
0.70006
 20 
0.5093
 30 
0.0
 0 
VERTEX
 8 
1
 10 
0.60006
 20 
0.5094
 30 
0.0
 0 
VERTEX
 8 
1
 10 
0.50004
 20 
0.5059
 30 
0.0
 0 
VERTEX
 8 
1
 10 
0.40001
 20 
0.5011
 30 
0.0
 0 
VERTEX
 8 
1
 10 
0.29998
 20 
0.4967
 30 
0.0
 0 
VERTEX
 8 
1
 10 
0.19996
 20 
0.4928
 30 
0.0
 0 
VERTEX
 8 
1
 10 
0.09996
 20 
0.4929
 30 
0.0
 0 
VERTEX
 8 
1
 10 
0.04997
 20 
0.4942
 30 
0.0
 0 
VERTEX
 8 
1
 10 
0.0
 20 
0.4985
 30 
0.0
 0 
SEQEND
 8 
1
 0 
ENDSEC
 0 
EOF
