 0 
SECTION
 2 
ENTITIES
 0 
POLYLINE
 8 
1
 66 
 1 
 10 
0.0
 20 
0.0
 30 
0.0
 0 
VERTEX
 8 
1
 10 
0.0
 20 
0.5
 30 
0.0
 0 
VERTEX
 8 
1
 10 
0.0501
 20 
0.51
 30 
0.0
 0 
VERTEX
 8 
1
 10 
0.10019
 20 
0.519
 30 
0.0
 0 
VERTEX
 8 
1
 10 
0.20035
 20 
0.535
 30 
0.0
 0 
VERTEX
 8 
1
 10 
0.3005
 20 
0.55
 30 
0.0
 0 
VERTEX
 8 
1
 10 
0.40063
 20 
0.56349
 30 
0.0
 0 
VERTEX
 8 
1
 10 
0.50073
 20 
0.57349
 30 
0.0
 0 
VERTEX
 8 
1
 10 
0.60081
 20 
0.58099
 30 
0.0
 0 
VERTEX
 8 
1
 10 
0.70083
 20 
0.58299
 30 
0.0
 0 
VERTEX
 8 
1
 10 
0.80078
 20 
0.57799
 30 
0.0
 0 
VERTEX
 8 
1
 10 
0.8507
 20 
0.57049
 30 
0.0
 0 
VERTEX
 8 
1
 10 
0.9006
 20 
0.55999
 30 
0.0
 0 
VERTEX
 8 
1
 10 
0.92552
 20 
0.55224
 30 
0.0
 0 
VERTEX
 8 
1
 10 
0.95042
 20 
0.542
 30 
0.0
 0 
VERTEX
 8 
1
 10 
0.97528
 20 
0.52775
 30 
0.0
 0 
VERTEX
 8 
1
 10 
0.98767
 20 
0.51662
 30 
0.0
 0 
VERTEX
 8 
1
 10 
1
 20 
0.5
 30 
0.0
 0 
VERTEX
 8 
1
 10 
0.9874
 20 
0.49013
 30 
0.0
 0 
VERTEX
 8 
1
 10 
0.97493
 20 
0.49325
 30 
0.0
 0 
VERTEX
 8 
1
 10 
0.94997
 20 
0.497
 30 
0.0
 0 
VERTEX
 8 
1
 10 
0.92501
 20 
0.50075
 30 
0.0
 0 
VERTEX
 8 
1
 10 
0.90004
 20 
0.504
 30 
0.0
 0 
VERTEX
 8 
1
 10 
0.85009
 20 
0.509
 30 
0.0
 0 
VERTEX
 8 
1
 10 
0.80013
 20 
0.5135
 30 
0.0
 0 
VERTEX
 8 
1
 10 
0.70018
 20 
0.518
 30 
0.0
 0 
VERTEX
 8 
1
 10 
0.6002
 20 
0.5205
 30 
0.0
 0 
VERTEX
 8 
1
 10 
0.5002
 20 
0.52
 30 
0.0
 0 
VERTEX
 8 
1
 10 
0.40018
 20 
0.5185
 30 
0.0
 0 
VERTEX
 8 
1
 10 
0.30015
 20 
0.5155
 30 
0.0
 0 
VERTEX
 8 
1
 10 
0.2001
 20 
0.5105
 30 
0.0
 0 
VERTEX
 8 
1
 10 
0.10005
 20 
0.5055
 30 
0.0
 0 
VERTEX
 8 
1
 10 
0.05002
 20 
0.5025
 30 
0.0
 0 
VERTEX
 8 
1
 10 
0.0
 20 
0.5
 30 
0.0
 0 
SEQEND
 8 
1
 0 
ENDSEC
 0 
EOF
