 0 
SECTION
 2 
ENTITIES
 0 
POLYLINE
 8 
1
 66 
 1 
 10 
0.0
 20 
0.0
 30 
0.0
 0 
VERTEX
 8 
1
 10 
0.0
 20 
0.5021
 30 
0.0
 0 
VERTEX
 8 
1
 10 
0.05009
 20 
0.50922
 30 
0.0
 0 
VERTEX
 8 
1
 10 
0.10016
 20 
0.51705
 30 
0.0
 0 
VERTEX
 8 
1
 10 
0.2003
 20 
0.5319
 30 
0.0
 0 
VERTEX
 8 
1
 10 
0.30045
 20 
0.54725
 30 
0.0
 0 
VERTEX
 8 
1
 10 
0.4006
 20 
0.56269
 30 
0.0
 0 
VERTEX
 8 
1
 10 
0.50071
 20 
0.57494
 30 
0.0
 0 
VERTEX
 8 
1
 10 
0.6008
 20 
0.58399
 30 
0.0
 0 
VERTEX
 8 
1
 10 
0.70083
 20 
0.58784
 30 
0.0
 0 
VERTEX
 8 
1
 10 
0.80081
 20 
0.58529
 30 
0.0
 0 
VERTEX
 8 
1
 10 
0.85073
 20 
0.57692
 30 
0.0
 0 
VERTEX
 8 
1
 10 
0.90061
 20 
0.56424
 30 
0.0
 0 
VERTEX
 8 
1
 10 
0.92553
 20 
0.55561
 30 
0.0
 0 
VERTEX
 8 
1
 10 
0.95042
 20 
0.54437
 30 
0.0
 0 
VERTEX
 8 
1
 10 
0.97529
 20 
0.53083
 30 
0.0
 0 
VERTEX
 8 
1
 10 
0.9877
 20 
0.52102
 30 
0.0
 0 
VERTEX
 8 
1
 10 
1
 20 
0.5
 30 
0.0
 0 
VERTEX
 8 
1
 10 
0.98739
 20 
0.48952
 30 
0.0
 0 
VERTEX
 8 
1
 10 
0.9749
 20 
0.48855
 30 
0.0
 0 
VERTEX
 8 
1
 10 
0.94991
 20 
0.49098
 30 
0.0
 0 
VERTEX
 8 
1
 10 
0.92494
 20 
0.49272
 30 
0.0
 0 
VERTEX
 8 
1
 10 
0.89995
 20 
0.49435
 30 
0.0
 0 
VERTEX
 8 
1
 10 
0.84997
 20 
0.49633
 30 
0.0
 0 
VERTEX
 8 
1
 10 
0.79997
 20 
0.4968
 30 
0.0
 0 
VERTEX
 8 
1
 10 
0.69997
 20 
0.49705
 30 
0.0
 0 
VERTEX
 8 
1
 10 
0.59998
 20 
0.4975
 30 
0.0
 0 
VERTEX
 8 
1
 10 
0.49997
 20 
0.49735
 30 
0.0
 0 
VERTEX
 8 
1
 10 
0.39997
 20 
0.4973
 30 
0.0
 0 
VERTEX
 8 
1
 10 
0.29997
 20 
0.49715
 30 
0.0
 0 
VERTEX
 8 
1
 10 
0.19997
 20 
0.4971
 30 
0.0
 0 
VERTEX
 8 
1
 10 
0.09998
 20 
0.49745
 30 
0.0
 0 
VERTEX
 8 
1
 10 
0.04998
 20 
0.49743
 30 
0.0
 0 
VERTEX
 8 
1
 10 
0.0
 20 
0.4979
 30 
0.0
 0 
SEQEND
 8 
1
 0 
ENDSEC
 0 
EOF
