 0 
SECTION
 2 
ENTITIES
 0 
POLYLINE
 8 
1
 66 
 1 
 10 
0.0
 20 
0.0
 30 
0.0
 0 
VERTEX
 8 
1
 10 
0.0
 20 
0.5
 30 
0.0
 0 
VERTEX
 8 
1
 10 
0.05015
 20 
0.51036
 30 
0.0
 0 
VERTEX
 8 
1
 10 
0.10028
 20 
0.51903
 30 
0.0
 0 
VERTEX
 8 
1
 10 
0.20051
 20 
0.53495
 30 
0.0
 0 
VERTEX
 8 
1
 10 
0.30074
 20 
0.55058
 30 
0.0
 0 
VERTEX
 8 
1
 10 
0.40094
 20 
0.56411
 30 
0.0
 0 
VERTEX
 8 
1
 10 
0.5011
 20 
0.57463
 30 
0.0
 0 
VERTEX
 8 
1
 10 
0.60122
 20 
0.58266
 30 
0.0
 0 
VERTEX
 8 
1
 10 
0.70128
 20 
0.58709
 30 
0.0
 0 
VERTEX
 8 
1
 10 
0.80123
 20 
0.58352
 30 
0.0
 0 
VERTEX
 8 
1
 10 
0.85113
 20 
0.57699
 30 
0.0
 0 
VERTEX
 8 
1
 10 
0.90096
 20 
0.56546
 30 
0.0
 0 
VERTEX
 8 
1
 10 
0.92582
 20 
0.55589
 30 
0.0
 0 
VERTEX
 8 
1
 10 
0.95065
 20 
0.54393
 30 
0.0
 0 
VERTEX
 8 
1
 10 
0.97545
 20 
0.53066
 30 
0.0
 0 
VERTEX
 8 
1
 10 
0.98786
 20 
0.52048
 30 
0.0
 0 
VERTEX
 8 
1
 10 
1
 20 
0.5
 30 
0.0
 0 
VERTEX
 8 
1
 10 
0.98729
 20 
0.48699
 30 
0.0
 0 
VERTEX
 8 
1
 10 
0.97479
 20 
0.48567
 30 
0.0
 0 
VERTEX
 8 
1
 10 
0.94985
 20 
0.48924
 30 
0.0
 0 
VERTEX
 8 
1
 10 
0.92489
 20 
0.4927
 30 
0.0
 0 
VERTEX
 8 
1
 10 
0.89995
 20 
0.49627
 30 
0.0
 0 
VERTEX
 8 
1
 10 
0.85001
 20 
0.5007
 30 
0.0
 0 
VERTEX
 8 
1
 10 
0.80006
 20 
0.50404
 30 
0.0
 0 
VERTEX
 8 
1
 10 
0.7001
 20 
0.50671
 30 
0.0
 0 
VERTEX
 8 
1
 10 
0.6001
 20 
0.50698
 30 
0.0
 0 
VERTEX
 8 
1
 10 
0.50009
 20 
0.50585
 30 
0.0
 0 
VERTEX
 8 
1
 10 
0.40007
 20 
0.50462
 30 
0.0
 0 
VERTEX
 8 
1
 10 
0.30003
 20 
0.50189
 30 
0.0
 0 
VERTEX
 8 
1
 10 
0.20002
 20 
0.50025
 30 
0.0
 0 
VERTEX
 8 
1
 10 
0.099469
 20 
0.49897
 30 
0.0
 0 
VERTEX
 8 
1
 10 
0.05
 20 
0.49977
 30 
0.0
 0 
VERTEX
 8 
1
 10 
0.0
 20 
0.5
 30 
0.0
 0 
SEQEND
 8 
1
 0 
ENDSEC
 0 
EOF
