 0 
SECTION
 2 
ENTITIES
 0 
POLYLINE
 8 
1
 66 
 1 
 10 
0.0
 20 
0.0
 30 
0.0
 0 
VERTEX
 8 
1
 10 
0.0
 20 
0.5012
 30 
0.0
 0 
VERTEX
 8 
1
 10 
0.05014
 20 
0.50858
 30 
0.0
 0 
VERTEX
 8 
1
 10 
0.10028
 20 
0.51737
 30 
0.0
 0 
VERTEX
 8 
1
 10 
0.2006
 20 
0.53653
 30 
0.0
 0 
VERTEX
 8 
1
 10 
0.30096
 20 
0.55879
 30 
0.0
 0 
VERTEX
 8 
1
 10 
0.40135
 20 
0.58266
 30 
0.0
 0 
VERTEX
 8 
1
 10 
0.5017
 20 
0.60442
 30 
0.0
 0 
VERTEX
 8 
1
 10 
0.60194
 20 
0.61929
 30 
0.0
 0 
VERTEX
 8 
1
 10 
0.70204
 20 
0.62516
 30 
0.0
 0 
VERTEX
 8 
1
 10 
0.80191
 20 
0.61713
 30 
0.0
 0 
VERTEX
 8 
1
 10 
0.85175
 20 
0.60722
 30 
0.0
 0 
VERTEX
 8 
1
 10 
0.90148
 20 
0.59051
 30 
0.0
 0 
VERTEX
 8 
1
 10 
0.92628
 20 
0.5787
 30 
0.0
 0 
VERTEX
 8 
1
 10 
0.95106
 20 
0.5651
 30 
0.0
 0 
VERTEX
 8 
1
 10 
0.97574
 20 
0.5452
 30 
0.0
 0 
VERTEX
 8 
1
 10 
0.98802
 20 
0.5322
 30 
0.0
 0 
VERTEX
 8 
1
 10 
1
 20 
0.5
 30 
0.0
 0 
VERTEX
 8 
1
 10 
0.98724
 20 
0.48381
 30 
0.0
 0 
VERTEX
 8 
1
 10 
0.97472
 20 
0.48291
 30 
0.0
 0 
VERTEX
 8 
1
 10 
0.94975
 20 
0.48442
 30 
0.0
 0 
VERTEX
 8 
1
 10 
0.92476
 20 
0.48577
 30 
0.0
 0 
VERTEX
 8 
1
 10 
0.89979
 20 
0.487
 30 
0.0
 0 
VERTEX
 8 
1
 10 
0.84983
 20 
0.48975
 30 
0.0
 0 
VERTEX
 8 
1
 10 
0.79986
 20 
0.49156
 30 
0.0
 0 
VERTEX
 8 
1
 10 
0.6999
 20 
0.49379
 30 
0.0
 0 
VERTEX
 8 
1
 10 
0.59993
 20 
0.49542
 30 
0.0
 0 
VERTEX
 8 
1
 10 
0.49993
 20 
0.49595
 30 
0.0
 0 
VERTEX
 8 
1
 10 
0.39993
 20 
0.49598
 30 
0.0
 0 
VERTEX
 8 
1
 10 
0.29993
 20 
0.49551
 30 
0.0
 0 
VERTEX
 8 
1
 10 
0.19994
 20 
0.49604
 30 
0.0
 0 
VERTEX
 8 
1
 10 
0.09995
 20 
0.49717
 30 
0.0
 0 
VERTEX
 8 
1
 10 
0.04997
 20 
0.49799
 30 
0.0
 0 
VERTEX
 8 
1
 10 
0.0
 20 
0.4988
 30 
0.0
 0 
SEQEND
 8 
1
 0 
ENDSEC
 0 
EOF
