 0 
SECTION
 2 
ENTITIES
 0 
POLYLINE
 8 
1
 66 
 1 
 10 
0.0
 20 
0.0
 30 
0.0
 0 
VERTEX
 8 
1
 10 
0.0
 20 
0.5
 30 
0.0
 0 
VERTEX
 8 
1
 10 
0.05
 20 
0.50767
 30 
0.0
 0 
VERTEX
 8 
1
 10 
0.1
 20 
0.51485
 30 
0.0
 0 
VERTEX
 8 
1
 10 
0.2
 20 
0.5282
 30 
0.0
 0 
VERTEX
 8 
1
 10 
0.3
 20 
0.54155
 30 
0.0
 0 
VERTEX
 8 
1
 10 
0.4
 20 
0.5524
 30 
0.0
 0 
VERTEX
 8 
1
 10 
0.5
 20 
0.56135
 30 
0.0
 0 
VERTEX
 8 
1
 10 
0.6
 20 
0.5646
 30 
0.0
 0 
VERTEX
 8 
1
 10 
0.7
 20 
0.56345
 30 
0.0
 0 
VERTEX
 8 
1
 10 
0.8
 20 
0.5563
 30 
0.0
 0 
VERTEX
 8 
1
 10 
0.85
 20 
0.54898
 30 
0.0
 0 
VERTEX
 8 
1
 10 
0.9
 20 
0.53965
 30 
0.0
 0 
VERTEX
 8 
1
 10 
0.925
 20 
0.53399
 30 
0.0
 0 
VERTEX
 8 
1
 10 
0.95
 20 
0.52733
 30 
0.0
 0 
VERTEX
 8 
1
 10 
0.975
 20 
0.51916
 30 
0.0
 0 
VERTEX
 8 
1
 10 
0.9875
 20 
0.51308
 30 
0.0
 0 
VERTEX
 8 
1
 10 
1
 20 
0.5
 30 
0.0
 0 
VERTEX
 8 
1
 10 
0.9875
 20 
0.49258
 30 
0.0
 0 
VERTEX
 8 
1
 10 
0.975
 20 
0.49266
 30 
0.0
 0 
VERTEX
 8 
1
 10 
0.95
 20 
0.49483
 30 
0.0
 0 
VERTEX
 8 
1
 10 
0.925
 20 
0.49699
 30 
0.0
 0 
VERTEX
 8 
1
 10 
0.9
 20 
0.49965
 30 
0.0
 0 
VERTEX
 8 
1
 10 
0.85
 20 
0.50447
 30 
0.0
 0 
VERTEX
 8 
1
 10 
0.8
 20 
0.5078
 30 
0.0
 0 
VERTEX
 8 
1
 10 
0.7
 20 
0.51245
 30 
0.0
 0 
VERTEX
 8 
1
 10 
0.6
 20 
0.5146
 30 
0.0
 0 
VERTEX
 8 
1
 10 
0.5
 20 
0.51375
 30 
0.0
 0 
VERTEX
 8 
1
 10 
0.4
 20 
0.5119
 30 
0.0
 0 
VERTEX
 8 
1
 10 
0.3
 20 
0.50855
 30 
0.0
 0 
VERTEX
 8 
1
 10 
0.2
 20 
0.5052
 30 
0.0
 0 
VERTEX
 8 
1
 10 
0.1
 20 
0.50185
 30 
0.0
 0 
VERTEX
 8 
1
 10 
0.05
 20 
0.50018
 30 
0.0
 0 
VERTEX
 8 
1
 10 
0.0
 20 
0.5
 30 
0.0
 0 
SEQEND
 8 
1
 0 
ENDSEC
 0 
EOF
