 0 
SECTION
 2 
ENTITIES
 0 
POLYLINE
 8 
1
 66 
 1 
 10 
0.0
 20 
0.0
 30 
0.0
 0 
VERTEX
 8 
1
 10 
0.0
 20 
0.5
 30 
0.0
 0 
VERTEX
 8 
1
 10 
0.05
 20 
0.51063
 30 
0.0
 0 
VERTEX
 8 
1
 10 
0.1
 20 
0.52025
 30 
0.0
 0 
VERTEX
 8 
1
 10 
0.2
 20 
0.5355
 30 
0.0
 0 
VERTEX
 8 
1
 10 
0.3
 20 
0.55075
 30 
0.0
 0 
VERTEX
 8 
1
 10 
0.4
 20 
0.564
 30 
0.0
 0 
VERTEX
 8 
1
 10 
0.5
 20 
0.57375
 30 
0.0
 0 
VERTEX
 8 
1
 10 
0.6
 20 
0.579
 30 
0.0
 0 
VERTEX
 8 
1
 10 
0.7
 20 
0.58125
 30 
0.0
 0 
VERTEX
 8 
1
 10 
0.8
 20 
0.5765
 30 
0.0
 0 
VERTEX
 8 
1
 10 
0.85
 20 
0.56863
 30 
0.0
 0 
VERTEX
 8 
1
 10 
0.9
 20 
0.55675
 30 
0.0
 0 
VERTEX
 8 
1
 10 
0.925
 20 
0.54806
 30 
0.0
 0 
VERTEX
 8 
1
 10 
0.95
 20 
0.53838
 30 
0.0
 0 
VERTEX
 8 
1
 10 
0.975
 20 
0.52519
 30 
0.0
 0 
VERTEX
 8 
1
 10 
0.9875
 20 
0.51609
 30 
0.0
 0 
VERTEX
 8 
1
 10 
1
 20 
0.5
 30 
0.0
 0 
VERTEX
 8 
1
 10 
0.9875
 20 
0.49309
 30 
0.0
 0 
VERTEX
 8 
1
 10 
0.975
 20 
0.49269
 30 
0.0
 0 
VERTEX
 8 
1
 10 
0.95
 20 
0.49437
 30 
0.0
 0 
VERTEX
 8 
1
 10 
0.925
 20 
0.49656
 30 
0.0
 0 
VERTEX
 8 
1
 10 
0.9
 20 
0.49925
 30 
0.0
 0 
VERTEX
 8 
1
 10 
0.85
 20 
0.50412
 30 
0.0
 0 
VERTEX
 8 
1
 10 
0.8
 20 
0.508
 30 
0.0
 0 
VERTEX
 8 
1
 10 
0.7
 20 
0.51425
 30 
0.0
 0 
VERTEX
 8 
1
 10 
0.6
 20 
0.517
 30 
0.0
 0 
VERTEX
 8 
1
 10 
0.5
 20 
0.51625
 30 
0.0
 0 
VERTEX
 8 
1
 10 
0.4
 20 
0.514
 30 
0.0
 0 
VERTEX
 8 
1
 10 
0.3
 20 
0.51075
 30 
0.0
 0 
VERTEX
 8 
1
 10 
0.2
 20 
0.507
 30 
0.0
 0 
VERTEX
 8 
1
 10 
0.1
 20 
0.50375
 30 
0.0
 0 
VERTEX
 8 
1
 10 
0.05
 20 
0.50213
 30 
0.0
 0 
VERTEX
 8 
1
 10 
0.0
 20 
0.5
 30 
0.0
 0 
SEQEND
 8 
1
 0 
ENDSEC
 0 
EOF
