 0 
SECTION
 2 
ENTITIES
 0 
POLYLINE
 8 
1
 66 
 1 
 10 
0.0
 20 
0.0
 30 
0.0
 0 
VERTEX
 8 
1
 10 
0.0
 20 
0.5
 30 
0.0
 0 
VERTEX
 8 
1
 10 
0.05015
 20 
0.51447
 30 
0.0
 0 
VERTEX
 8 
1
 10 
0.10028
 20 
0.52695
 30 
0.0
 0 
VERTEX
 8 
1
 10 
0.20053
 20 
0.55039
 30 
0.0
 0 
VERTEX
 8 
1
 10 
0.30075
 20 
0.57134
 30 
0.0
 0 
VERTEX
 8 
1
 10 
0.40095
 20 
0.59029
 30 
0.0
 0 
VERTEX
 8 
1
 10 
0.50108
 20 
0.60274
 30 
0.0
 0 
VERTEX
 8 
1
 10 
0.60115
 20 
0.60919
 30 
0.0
 0 
VERTEX
 8 
1
 10 
0.70115
 20 
0.60964
 30 
0.0
 0 
VERTEX
 8 
1
 10 
0.80107
 20 
0.60159
 30 
0.0
 0 
VERTEX
 8 
1
 10 
0.85098
 20 
0.59356
 30 
0.0
 0 
VERTEX
 8 
1
 10 
0.90085
 20 
0.58054
 30 
0.0
 0 
VERTEX
 8 
1
 10 
0.92574
 20 
0.57028
 30 
0.0
 0 
VERTEX
 8 
1
 10 
0.95061
 20 
0.55802
 30 
0.0
 0 
VERTEX
 8 
1
 10 
0.97541
 20 
0.53876
 30 
0.0
 0 
VERTEX
 8 
1
 10 
0.98778
 20 
0.52663
 30 
0.0
 0 
VERTEX
 8 
1
 10 
1
 20 
0.5
 30 
0.0
 0 
VERTEX
 8 
1
 10 
0.9874
 20 
0.49063
 30 
0.0
 0 
VERTEX
 8 
1
 10 
0.97489
 20 
0.48976
 30 
0.0
 0 
VERTEX
 8 
1
 10 
0.9499
 20 
0.49003
 30 
0.0
 0 
VERTEX
 8 
1
 10 
0.9249
 20 
0.49029
 30 
0.0
 0 
VERTEX
 8 
1
 10 
0.8999
 20 
0.49055
 30 
0.0
 0 
VERTEX
 8 
1
 10 
0.84991
 20 
0.49108
 30 
0.0
 0 
VERTEX
 8 
1
 10 
0.79991
 20 
0.4916
 30 
0.0
 0 
VERTEX
 8 
1
 10 
0.69992
 20 
0.49265
 30 
0.0
 0 
VERTEX
 8 
1
 10 
0.59993
 20 
0.4937
 30 
0.0
 0 
VERTEX
 8 
1
 10 
0.49994
 20 
0.49475
 30 
0.0
 0 
VERTEX
 8 
1
 10 
0.39996
 20 
0.4958
 30 
0.0
 0 
VERTEX
 8 
1
 10 
0.29997
 20 
0.49685
 30 
0.0
 0 
VERTEX
 8 
1
 10 
0.19998
 20 
0.4979
 30 
0.0
 0 
VERTEX
 8 
1
 10 
0.09999
 20 
0.49895
 30 
0.0
 0 
VERTEX
 8 
1
 10 
0.04999
 20 
0.49948
 30 
0.0
 0 
VERTEX
 8 
1
 10 
0.0
 20 
0.5
 30 
0.0
 0 
SEQEND
 8 
1
 0 
ENDSEC
 0 
EOF
