 0 
SECTION
 2 
ENTITIES
 0 
POLYLINE
 8 
1
 66 
 1 
 10 
0.0
 20 
0.0
 30 
0.0
 0 
VERTEX
 8 
1
 10 
0.0
 20 
0.5
 30 
0.0
 0 
VERTEX
 8 
1
 10 
0.05
 20 
0.5097
 30 
0.0
 0 
VERTEX
 8 
1
 10 
0.1
 20 
0.5194
 30 
0.0
 0 
VERTEX
 8 
1
 10 
0.2
 20 
0.5368
 30 
0.0
 0 
VERTEX
 8 
1
 10 
0.3
 20 
0.5522
 30 
0.0
 0 
VERTEX
 8 
1
 10 
0.4
 20 
0.5651
 30 
0.0
 0 
VERTEX
 8 
1
 10 
0.5
 20 
0.5755
 30 
0.0
 0 
VERTEX
 8 
1
 10 
0.6
 20 
0.5814
 30 
0.0
 0 
VERTEX
 8 
1
 10 
0.7
 20 
0.5833
 30 
0.0
 0 
VERTEX
 8 
1
 10 
0.8
 20 
0.5772
 30 
0.0
 0 
VERTEX
 8 
1
 10 
0.85
 20 
0.5699
 30 
0.0
 0 
VERTEX
 8 
1
 10 
0.9
 20 
0.5586
 30 
0.0
 0 
VERTEX
 8 
1
 10 
0.925
 20 
0.55095
 30 
0.0
 0 
VERTEX
 8 
1
 10 
0.95
 20 
0.5418
 30 
0.0
 0 
VERTEX
 8 
1
 10 
0.975
 20 
0.52965
 30 
0.0
 0 
VERTEX
 8 
1
 10 
0.9875
 20 
0.52057
 30 
0.0
 0 
VERTEX
 8 
1
 10 
1
 20 
0.5
 30 
0.0
 0 
VERTEX
 8 
1
 10 
0.9875
 20 
0.49507
 30 
0.0
 0 
VERTEX
 8 
1
 10 
0.975
 20 
0.49415
 30 
0.0
 0 
VERTEX
 8 
1
 10 
0.95
 20 
0.4948
 30 
0.0
 0 
VERTEX
 8 
1
 10 
0.925
 20 
0.49695
 30 
0.0
 0 
VERTEX
 8 
1
 10 
0.9
 20 
0.5001
 30 
0.0
 0 
VERTEX
 8 
1
 10 
0.85
 20 
0.5054
 30 
0.0
 0 
VERTEX
 8 
1
 10 
0.8
 20 
0.5112
 30 
0.0
 0 
VERTEX
 8 
1
 10 
0.7
 20 
0.5193
 30 
0.0
 0 
VERTEX
 8 
1
 10 
0.6
 20 
0.5244
 30 
0.0
 0 
VERTEX
 8 
1
 10 
0.5
 20 
0.5265
 30 
0.0
 0 
VERTEX
 8 
1
 10 
0.4
 20 
0.5256
 30 
0.0
 0 
VERTEX
 8 
1
 10 
0.3
 20 
0.5212
 30 
0.0
 0 
VERTEX
 8 
1
 10 
0.2
 20 
0.5168
 30 
0.0
 0 
VERTEX
 8 
1
 10 
0.1
 20 
0.5084
 30 
0.0
 0 
VERTEX
 8 
1
 10 
0.05
 20 
0.5037
 30 
0.0
 0 
VERTEX
 8 
1
 10 
0.0
 20 
0.5
 30 
0.0
 0 
SEQEND
 8 
1
 0 
ENDSEC
 0 
EOF
