 0 
SECTION
 2 
ENTITIES
 0 
POLYLINE
 8 
1
 66 
 1 
 10 
0.0
 20 
0.0
 30 
0.0
 0 
VERTEX
 8 
1
 10 
0.0
 20 
0.5015
 30 
0.0
 0 
VERTEX
 8 
1
 10 
0.05031
 20 
0.51972
 30 
0.0
 0 
VERTEX
 8 
1
 10 
0.10053
 20 
0.53394
 30 
0.0
 0 
VERTEX
 8 
1
 10 
0.2009
 20 
0.55819
 30 
0.0
 0 
VERTEX
 8 
1
 10 
0.30125
 20 
0.58083
 30 
0.0
 0 
VERTEX
 8 
1
 10 
0.40155
 20 
0.59978
 30 
0.0
 0 
VERTEX
 8 
1
 10 
0.50177
 20 
0.61422
 30 
0.0
 0 
VERTEX
 8 
1
 10 
0.60188
 20 
0.62117
 30 
0.0
 0 
VERTEX
 8 
1
 10 
0.70186
 20 
0.61982
 30 
0.0
 0 
VERTEX
 8 
1
 10 
0.80168
 20 
0.60807
 30 
0.0
 0 
VERTEX
 8 
1
 10 
0.85149
 20 
0.5963
 30 
0.0
 0 
VERTEX
 8 
1
 10 
0.90123
 20 
0.57953
 30 
0.0
 0 
VERTEX
 8 
1
 10 
0.92606
 20 
0.56815
 30 
0.0
 0 
VERTEX
 8 
1
 10 
0.95085
 20 
0.55476
 30 
0.0
 0 
VERTEX
 8 
1
 10 
0.97556
 20 
0.53588
 30 
0.0
 0 
VERTEX
 8 
1
 10 
0.98787
 20 
0.52419
 30 
0.0
 0 
VERTEX
 8 
1
 10 
1
 20 
0.5
 30 
0.0
 0 
VERTEX
 8 
1
 10 
0.98727
 20 
0.486
 30 
0.0
 0 
VERTEX
 8 
1
 10 
0.97475
 20 
0.48389
 30 
0.0
 0 
VERTEX
 8 
1
 10 
0.94975
 20 
0.48378
 30 
0.0
 0 
VERTEX
 8 
1
 10 
0.92476
 20 
0.48467
 30 
0.0
 0 
VERTEX
 8 
1
 10 
0.8998
 20 
0.48695
 30 
0.0
 0 
VERTEX
 8 
1
 10 
0.84988
 20 
0.49253
 30 
0.0
 0 
VERTEX
 8 
1
 10 
0.79995
 20 
0.4966
 30 
0.0
 0 
VERTEX
 8 
1
 10 
0.70003
 20 
0.50205
 30 
0.0
 0 
VERTEX
 8 
1
 10 
0.6001
 20 
0.5062
 30 
0.0
 0 
VERTEX
 8 
1
 10 
0.50012
 20 
0.50745
 30 
0.0
 0 
VERTEX
 8 
1
 10 
0.40012
 20 
0.5075
 30 
0.0
 0 
VERTEX
 8 
1
 10 
0.30012
 20 
0.50745
 30 
0.0
 0 
VERTEX
 8 
1
 10 
0.20008
 20 
0.5054
 30 
0.0
 0 
VERTEX
 8 
1
 10 
0.10003
 20 
0.50195
 30 
0.0
 0 
VERTEX
 8 
1
 10 
0.05001
 20 
0.50072
 30 
0.0
 0 
VERTEX
 8 
1
 10 
0.0
 20 
0.4985
 30 
0.0
 0 
SEQEND
 8 
1
 0 
ENDSEC
 0 
EOF
