 0 
SECTION
 2 
ENTITIES
 0 
POLYLINE
 8 
1
 66 
 1 
 10 
0.0
 20 
0.0
 30 
0.0
 0 
VERTEX
 8 
1
 10 
0.0
 20 
0.50325
 30 
0.0
 0 
VERTEX
 8 
1
 10 
0.050120
 20 
0.5133
 30 
0.0
 0 
VERTEX
 8 
1
 10 
0.10018
 20 
0.52035
 30 
0.0
 0 
VERTEX
 8 
1
 10 
0.20029
 20 
0.53276
 30 
0.0
 0 
VERTEX
 8 
1
 10 
0.30037
 20 
0.54146
 30 
0.0
 0 
VERTEX
 8 
1
 10 
0.40044
 20 
0.54907
 30 
0.0
 0 
VERTEX
 8 
1
 10 
0.50049
 20 
0.55517
 30 
0.0
 0 
VERTEX
 8 
1
 10 
0.60053
 20 
0.55958
 30 
0.0
 0 
VERTEX
 8 
1
 10 
0.70054
 20 
0.56078
 30 
0.0
 0 
VERTEX
 8 
1
 10 
0.80053
 20 
0.55889
 30 
0.0
 0 
VERTEX
 8 
1
 10 
0.85048
 20 
0.55514
 30 
0.0
 0 
VERTEX
 8 
1
 10 
0.90042
 20 
0.54779
 30 
0.0
 0 
VERTEX
 8 
1
 10 
0.92538
 20 
0.54227
 30 
0.0
 0 
VERTEX
 8 
1
 10 
0.95031
 20 
0.53514
 30 
0.0
 0 
VERTEX
 8 
1
 10 
0.97523
 20 
0.52532
 30 
0.0
 0 
VERTEX
 8 
1
 10 
0.98766
 20 
0.51771
 30 
0.0
 0 
VERTEX
 8 
1
 10 
1
 20 
0.5
 30 
0.0
 0 
VERTEX
 8 
1
 10 
0.98737
 20 
0.48771
 30 
0.0
 0 
VERTEX
 8 
1
 10 
0.97486
 20 
0.48423
 30 
0.0
 0 
VERTEX
 8 
1
 10 
0.94983
 20 
0.48125
 30 
0.0
 0 
VERTEX
 8 
1
 10 
0.92483
 20 
0.48067
 30 
0.0
 0 
VERTEX
 8 
1
 10 
0.89983
 20 
0.4812
 30 
0.0
 0 
VERTEX
 8 
1
 10 
0.84986
 20 
0.48434
 30 
0.0
 0 
VERTEX
 8 
1
 10 
0.79988
 20 
0.48689
 30 
0.0
 0 
VERTEX
 8 
1
 10 
0.69993
 20 
0.49209
 30 
0.0
 0 
VERTEX
 8 
1
 10 
0.59995
 20 
0.49458
 30 
0.0
 0 
VERTEX
 8 
1
 10 
0.49995
 20 
0.49388
 30 
0.0
 0 
VERTEX
 8 
1
 10 
0.39992
 20 
0.49097
 30 
0.0
 0 
VERTEX
 8 
1
 10 
0.2999
 20 
0.48847
 30 
0.0
 0 
VERTEX
 8 
1
 10 
0.19989
 20 
0.48746
 30 
0.0
 0 
VERTEX
 8 
1
 10 
0.099910
 20 
0.48996
 30 
0.0
 0 
VERTEX
 8 
1
 10 
0.04994
 20 
0.4931
 30 
0.0
 0 
VERTEX
 8 
1
 10 
0.0
 20 
0.49675
 30 
0.0
 0 
SEQEND
 8 
1
 0 
ENDSEC
 0 
EOF
