 0 
SECTION
 2 
ENTITIES
 0 
POLYLINE
 8 
1
 66 
 1 
 10 
0.0
 20 
0.0
 30 
0.0
 0 
VERTEX
 8 
1
 10 
0.0
 20 
0.5
 30 
0.0
 0 
VERTEX
 8 
1
 10 
0.050069
 20 
0.51017
 30 
0.0
 0 
VERTEX
 8 
1
 10 
0.10013
 20 
0.51985
 30 
0.0
 0 
VERTEX
 8 
1
 10 
0.20024
 20 
0.5372
 30 
0.0
 0 
VERTEX
 8 
1
 10 
0.30034
 20 
0.55255
 30 
0.0
 0 
VERTEX
 8 
1
 10 
0.40043
 20 
0.5659
 30 
0.0
 0 
VERTEX
 8 
1
 10 
0.50048
 20 
0.57375
 30 
0.0
 0 
VERTEX
 8 
1
 10 
0.60051
 20 
0.5786
 30 
0.0
 0 
VERTEX
 8 
1
 10 
0.70052
 20 
0.57945
 30 
0.0
 0 
VERTEX
 8 
1
 10 
0.80047
 20 
0.5718
 30 
0.0
 0 
VERTEX
 8 
1
 10 
0.85042
 20 
0.56497
 30 
0.0
 0 
VERTEX
 8 
1
 10 
0.90036
 20 
0.55515
 30 
0.0
 0 
VERTEX
 8 
1
 10 
0.92531
 20 
0.54799
 30 
0.0
 0 
VERTEX
 8 
1
 10 
0.95025
 20 
0.53882
 30 
0.0
 0 
VERTEX
 8 
1
 10 
0.97517
 20 
0.52666
 30 
0.0
 0 
VERTEX
 8 
1
 10 
0.98761
 20 
0.51758
 30 
0.0
 0 
VERTEX
 8 
1
 10 
1
 20 
0.5
 30 
0.0
 0 
VERTEX
 8 
1
 10 
0.98745
 20 
0.49258
 30 
0.0
 0 
VERTEX
 8 
1
 10 
0.97495
 20 
0.49266
 30 
0.0
 0 
VERTEX
 8 
1
 10 
0.94996
 20 
0.49383
 30 
0.0
 0 
VERTEX
 8 
1
 10 
0.92497
 20 
0.49549
 30 
0.0
 0 
VERTEX
 8 
1
 10 
0.89998
 20 
0.49765
 30 
0.0
 0 
VERTEX
 8 
1
 10 
0.85001
 20 
0.50147
 30 
0.0
 0 
VERTEX
 8 
1
 10 
0.80003
 20 
0.5048
 30 
0.0
 0 
VERTEX
 8 
1
 10 
0.70006
 20 
0.50995
 30 
0.0
 0 
VERTEX
 8 
1
 10 
0.60009
 20 
0.5136
 30 
0.0
 0 
VERTEX
 8 
1
 10 
0.5001
 20 
0.51525
 30 
0.0
 0 
VERTEX
 8 
1
 10 
0.4001
 20 
0.5149
 30 
0.0
 0 
VERTEX
 8 
1
 10 
0.30008
 20 
0.51255
 30 
0.0
 0 
VERTEX
 8 
1
 10 
0.20006
 20 
0.5092
 30 
0.0
 0 
VERTEX
 8 
1
 10 
0.10003
 20 
0.50435
 30 
0.0
 0 
VERTEX
 8 
1
 10 
0.05001
 20 
0.50167
 30 
0.0
 0 
VERTEX
 8 
1
 10 
0.0
 20 
0.5
 30 
0.0
 0 
SEQEND
 8 
1
 0 
ENDSEC
 0 
EOF
