 0 
SECTION
 2 
ENTITIES
 0 
POLYLINE
 8 
1
 66 
 1 
 10 
0.0
 20 
0.0
 30 
0.0
 0 
VERTEX
 8 
1
 10 
0.0
 20 
0.5
 30 
0.0
 0 
VERTEX
 8 
1
 10 
0.050069
 20 
0.5123
 30 
0.0
 0 
VERTEX
 8 
1
 10 
0.10013
 20 
0.52281
 30 
0.0
 0 
VERTEX
 8 
1
 10 
0.20024
 20 
0.54082
 30 
0.0
 0 
VERTEX
 8 
1
 10 
0.30034
 20 
0.55733
 30 
0.0
 0 
VERTEX
 8 
1
 10 
0.40042
 20 
0.57064
 30 
0.0
 0 
VERTEX
 8 
1
 10 
0.50048
 20 
0.58115
 30 
0.0
 0 
VERTEX
 8 
1
 10 
0.60052
 20 
0.58796
 30 
0.0
 0 
VERTEX
 8 
1
 10 
0.70054
 20 
0.59087
 30 
0.0
 0 
VERTEX
 8 
1
 10 
0.8005
 20 
0.58438
 30 
0.0
 0 
VERTEX
 8 
1
 10 
0.85045
 20 
0.57618
 30 
0.0
 0 
VERTEX
 8 
1
 10 
0.90038
 20 
0.56389
 30 
0.0
 0 
VERTEX
 8 
1
 10 
0.92532
 20 
0.55474
 30 
0.0
 0 
VERTEX
 8 
1
 10 
0.95025
 20 
0.54279
 30 
0.0
 0 
VERTEX
 8 
1
 10 
0.97516
 20 
0.52705
 30 
0.0
 0 
VERTEX
 8 
1
 10 
0.9876
 20 
0.51757
 30 
0.0
 0 
VERTEX
 8 
1
 10 
1
 20 
0.5
 30 
0.0
 0 
VERTEX
 8 
1
 10 
0.98744
 20 
0.49067
 30 
0.0
 0 
VERTEX
 8 
1
 10 
0.97494
 20 
0.48945
 30 
0.0
 0 
VERTEX
 8 
1
 10 
0.94994
 20 
0.4891
 30 
0.0
 0 
VERTEX
 8 
1
 10 
0.92494
 20 
0.49054
 30 
0.0
 0 
VERTEX
 8 
1
 10 
0.89997
 20 
0.49419
 30 
0.0
 0 
VERTEX
 8 
1
 10 
0.85
 20 
0.49959
 30 
0.0
 0 
VERTEX
 8 
1
 10 
0.80003
 20 
0.50488
 30 
0.0
 0 
VERTEX
 8 
1
 10 
0.70006
 20 
0.50997
 30 
0.0
 0 
VERTEX
 8 
1
 10 
0.60006
 20 
0.51016
 30 
0.0
 0 
VERTEX
 8 
1
 10 
0.50004
 20 
0.50695
 30 
0.0
 0 
VERTEX
 8 
1
 10 
0.40002
 20 
0.50354
 30 
0.0
 0 
VERTEX
 8 
1
 10 
0.3
 20 
0.49983
 30 
0.0
 0 
VERTEX
 8 
1
 10 
0.19997
 20 
0.49482
 30 
0.0
 0 
VERTEX
 8 
1
 10 
0.09997
 20 
0.49571
 30 
0.0
 0 
VERTEX
 8 
1
 10 
0.04999
 20 
0.49761
 30 
0.0
 0 
VERTEX
 8 
1
 10 
0.0
 20 
0.5
 30 
0.0
 0 
SEQEND
 8 
1
 0 
ENDSEC
 0 
EOF
