 0 
SECTION
 2 
ENTITIES
 0 
POLYLINE
 8 
1
 66 
 1 
 10 
0.0
 20 
0.0
 30 
0.0
 0 
VERTEX
 8 
1
 10 
0.0
 20 
0.5021
 30 
0.0
 0 
VERTEX
 8 
1
 10 
0.050120
 20 
0.51117
 30 
0.0
 0 
VERTEX
 8 
1
 10 
0.10024
 20 
0.52234
 30 
0.0
 0 
VERTEX
 8 
1
 10 
0.20046
 20 
0.54348
 30 
0.0
 0 
VERTEX
 8 
1
 10 
0.30065
 20 
0.56151
 30 
0.0
 0 
VERTEX
 8 
1
 10 
0.40083
 20 
0.57845
 30 
0.0
 0 
VERTEX
 8 
1
 10 
0.50096
 20 
0.59069
 30 
0.0
 0 
VERTEX
 8 
1
 10 
0.60107
 20 
0.60073
 30 
0.0
 0 
VERTEX
 8 
1
 10 
0.70107
 20 
0.60127
 30 
0.0
 0 
VERTEX
 8 
1
 10 
0.80097
 20 
0.59121
 30 
0.0
 0 
VERTEX
 8 
1
 10 
0.85087
 20 
0.58168
 30 
0.0
 0 
VERTEX
 8 
1
 10 
0.90071
 20 
0.56735
 30 
0.0
 0 
VERTEX
 8 
1
 10 
0.9256
 20 
0.55699
 30 
0.0
 0 
VERTEX
 8 
1
 10 
0.95049
 20 
0.54612
 30 
0.0
 0 
VERTEX
 8 
1
 10 
0.97532
 20 
0.52996
 30 
0.0
 0 
VERTEX
 8 
1
 10 
0.9877
 20 
0.51923
 30 
0.0
 0 
VERTEX
 8 
1
 10 
1
 20 
0.5
 30 
0.0
 0 
VERTEX
 8 
1
 10 
0.98741
 20 
0.49163
 30 
0.0
 0 
VERTEX
 8 
1
 10 
0.97487
 20 
0.48807
 30 
0.0
 0 
VERTEX
 8 
1
 10 
0.94987
 20 
0.48783
 30 
0.0
 0 
VERTEX
 8 
1
 10 
0.92487
 20 
0.4881
 30 
0.0
 0 
VERTEX
 8 
1
 10 
0.8999
 20 
0.49076
 30 
0.0
 0 
VERTEX
 8 
1
 10 
0.84999
 20 
0.49949
 30 
0.0
 0 
VERTEX
 8 
1
 10 
0.80007
 20 
0.50692
 30 
0.0
 0 
VERTEX
 8 
1
 10 
0.70019
 20 
0.51808
 30 
0.0
 0 
VERTEX
 8 
1
 10 
0.60022
 20 
0.52074
 30 
0.0
 0 
VERTEX
 8 
1
 10 
0.50017
 20 
0.5165
 30 
0.0
 0 
VERTEX
 8 
1
 10 
0.40011
 20 
0.51006
 30 
0.0
 0 
VERTEX
 8 
1
 10 
0.30004
 20 
0.50372
 30 
0.0
 0 
VERTEX
 8 
1
 10 
0.19998
 20 
0.49848
 30 
0.0
 0 
VERTEX
 8 
1
 10 
0.09997
 20 
0.49714
 30 
0.0
 0 
VERTEX
 8 
1
 10 
0.04997
 20 
0.49737
 30 
0.0
 0 
VERTEX
 8 
1
 10 
0.0
 20 
0.4979
 30 
0.0
 0 
SEQEND
 8 
1
 0 
ENDSEC
 0 
EOF
