 0 
SECTION
 2 
ENTITIES
 0 
POLYLINE
 8 
1
 66 
 1 
 10 
0.0
 20 
0.0
 30 
0.0
 0 
VERTEX
 8 
1
 10 
0.0
 20 
0.50105
 30 
0.0
 0 
VERTEX
 8 
1
 10 
0.05011
 20 
0.51167
 30 
0.0
 0 
VERTEX
 8 
1
 10 
0.10021
 20 
0.52179
 30 
0.0
 0 
VERTEX
 8 
1
 10 
0.20042
 20 
0.54414
 30 
0.0
 0 
VERTEX
 8 
1
 10 
0.30061
 20 
0.56438
 30 
0.0
 0 
VERTEX
 8 
1
 10 
0.40077
 20 
0.58082
 30 
0.0
 0 
VERTEX
 8 
1
 10 
0.50091
 20 
0.59527
 30 
0.0
 0 
VERTEX
 8 
1
 10 
0.601
 20 
0.60431
 30 
0.0
 0 
VERTEX
 8 
1
 10 
0.70102
 20 
0.60706
 30 
0.0
 0 
VERTEX
 8 
1
 10 
0.80095
 20 
0.5998
 30 
0.0
 0 
VERTEX
 8 
1
 10 
0.85085
 20 
0.58952
 30 
0.0
 0 
VERTEX
 8 
1
 10 
0.9007
 20 
0.57295
 30 
0.0
 0 
VERTEX
 8 
1
 10 
0.92559
 20 
0.56211
 30 
0.0
 0 
VERTEX
 8 
1
 10 
0.95047
 20 
0.54917
 30 
0.0
 0 
VERTEX
 8 
1
 10 
0.9753
 20 
0.53194
 30 
0.0
 0 
VERTEX
 8 
1
 10 
0.9877
 20 
0.52122
 30 
0.0
 0 
VERTEX
 8 
1
 10 
1
 20 
0.5
 30 
0.0
 0 
VERTEX
 8 
1
 10 
0.9874
 20 
0.48952
 30 
0.0
 0 
VERTEX
 8 
1
 10 
0.97491
 20 
0.49014
 30 
0.0
 0 
VERTEX
 8 
1
 10 
0.94995
 20 
0.49468
 30 
0.0
 0 
VERTEX
 8 
1
 10 
0.92498
 20 
0.49812
 30 
0.0
 0 
VERTEX
 8 
1
 10 
0.90001
 20 
0.50085
 30 
0.0
 0 
VERTEX
 8 
1
 10 
0.85005
 20 
0.50483
 30 
0.0
 0 
VERTEX
 8 
1
 10 
0.80007
 20 
0.50761
 30 
0.0
 0 
VERTEX
 8 
1
 10 
0.7001
 20 
0.51026
 30 
0.0
 0 
VERTEX
 8 
1
 10 
0.60011
 20 
0.51172
 30 
0.0
 0 
VERTEX
 8 
1
 10 
0.5001
 20 
0.51007
 30 
0.0
 0 
VERTEX
 8 
1
 10 
0.40007
 20 
0.50817
 30 
0.0
 0 
VERTEX
 8 
1
 10 
0.30006
 20 
0.5058
 30 
0.0
 0 
VERTEX
 8 
1
 10 
0.20003
 20 
0.50334
 30 
0.0
 0 
VERTEX
 8 
1
 10 
0.10002
 20 
0.50108
 30 
0.0
 0 
VERTEX
 8 
1
 10 
0.05
 20 
0.50007
 30 
0.0
 0 
VERTEX
 8 
1
 10 
0.0
 20 
0.49895
 30 
0.0
 0 
SEQEND
 8 
1
 0 
ENDSEC
 0 
EOF
