 0 
SECTION
 2 
ENTITIES
 0 
POLYLINE
 8 
1
 66 
 1 
 10 
0.0
 20 
0.0
 30 
0.0
 0 
VERTEX
 8 
1
 10 
0.0
 20 
0.50105
 30 
0.0
 0 
VERTEX
 8 
1
 10 
0.05018
 20 
0.51325
 30 
0.0
 0 
VERTEX
 8 
1
 10 
0.10034
 20 
0.52435
 30 
0.0
 0 
VERTEX
 8 
1
 10 
0.20066
 20 
0.54705
 30 
0.0
 0 
VERTEX
 8 
1
 10 
0.30093
 20 
0.56655
 30 
0.0
 0 
VERTEX
 8 
1
 10 
0.40118
 20 
0.58445
 30 
0.0
 0 
VERTEX
 8 
1
 10 
0.50134
 20 
0.59596
 30 
0.0
 0 
VERTEX
 8 
1
 10 
0.60144
 20 
0.60316
 30 
0.0
 0 
VERTEX
 8 
1
 10 
0.70143
 20 
0.60287
 30 
0.0
 0 
VERTEX
 8 
1
 10 
0.80132
 20 
0.59497
 30 
0.0
 0 
VERTEX
 8 
1
 10 
0.85118
 20 
0.58468
 30 
0.0
 0 
VERTEX
 8 
1
 10 
0.90098
 20 
0.56998
 30 
0.0
 0 
VERTEX
 8 
1
 10 
0.92584
 20 
0.56003
 30 
0.0
 0 
VERTEX
 8 
1
 10 
0.95067
 20 
0.52789
 30 
0.0
 0 
VERTEX
 8 
1
 10 
0.97545
 20 
0.53254
 30 
0.0
 0 
VERTEX
 8 
1
 10 
0.98782
 20 
0.52267
 30 
0.0
 0 
VERTEX
 8 
1
 10 
1
 20 
0.5
 30 
0.0
 0 
VERTEX
 8 
1
 10 
0.98732
 20 
0.48728
 30 
0.0
 0 
VERTEX
 8 
1
 10 
0.9748
 20 
0.48535
 30 
0.0
 0 
VERTEX
 8 
1
 10 
0.9498
 20 
0.4857
 30 
0.0
 0 
VERTEX
 8 
1
 10 
0.92481
 20 
0.48655
 30 
0.0
 0 
VERTEX
 8 
1
 10 
0.89983
 20 
0.4875
 30 
0.0
 0 
VERTEX
 8 
1
 10 
0.84988
 20 
0.49139
 30 
0.0
 0 
VERTEX
 8 
1
 10 
0.79993
 20 
0.49479
 30 
0.0
 0 
VERTEX
 8 
1
 10 
0.70001
 20 
0.50098
 30 
0.0
 0 
VERTEX
 8 
1
 10 
0.60008
 20 
0.50558
 30 
0.0
 0 
VERTEX
 8 
1
 10 
0.50011
 20 
0.50807
 30 
0.0
 0 
VERTEX
 8 
1
 10 
0.40012
 20 
0.50837
 30 
0.0
 0 
VERTEX
 8 
1
 10 
0.3001
 20 
0.50726
 30 
0.0
 0 
VERTEX
 8 
1
 10 
0.20008
 20 
0.50586
 30 
0.0
 0 
VERTEX
 8 
1
 10 
0.10004
 20 
0.50295
 30 
0.0
 0 
VERTEX
 8 
1
 10 
0.05002
 20 
0.50125
 30 
0.0
 0 
VERTEX
 8 
1
 10 
0.0
 20 
0.49895
 30 
0.0
 0 
SEQEND
 8 
1
 0 
ENDSEC
 0 
EOF
