 0 
SECTION
 2 
ENTITIES
 0 
POLYLINE
 8 
1
 66 
 1 
 10 
0.0
 20 
0.0
 30 
0.0
 0 
VERTEX
 8 
1
 10 
0.0
 20 
0.5013
 30 
0.0
 0 
VERTEX
 8 
1
 10 
0.05016
 20 
0.51681
 30 
0.0
 0 
VERTEX
 8 
1
 10 
0.10031
 20 
0.53223
 30 
0.0
 0 
VERTEX
 8 
1
 10 
0.20056
 20 
0.55795
 30 
0.0
 0 
VERTEX
 8 
1
 10 
0.30079
 20 
0.58158
 30 
0.0
 0 
VERTEX
 8 
1
 10 
0.40098
 20 
0.60121
 30 
0.0
 0 
VERTEX
 8 
1
 10 
0.50111
 20 
0.61454
 30 
0.0
 0 
VERTEX
 8 
1
 10 
0.60118
 20 
0.62157
 30 
0.0
 0 
VERTEX
 8 
1
 10 
0.70118
 20 
0.6212
 30 
0.0
 0 
VERTEX
 8 
1
 10 
0.8011
 20 
0.61373
 30 
0.0
 0 
VERTEX
 8 
1
 10 
0.85101
 20 
0.60375
 30 
0.0
 0 
VERTEX
 8 
1
 10 
0.90084
 20 
0.58696
 30 
0.0
 0 
VERTEX
 8 
1
 10 
0.92574
 20 
0.57582
 30 
0.0
 0 
VERTEX
 8 
1
 10 
0.95059
 20 
0.56128
 30 
0.0
 0 
VERTEX
 8 
1
 10 
0.97541
 20 
0.54244
 30 
0.0
 0 
VERTEX
 8 
1
 10 
0.98779
 20 
0.53012
 30 
0.0
 0 
VERTEX
 8 
1
 10 
1
 20 
0.5
 30 
0.0
 0 
VERTEX
 8 
1
 10 
0.98739
 20 
0.48912
 30 
0.0
 0 
VERTEX
 8 
1
 10 
0.97492
 20 
0.49134
 30 
0.0
 0 
VERTEX
 8 
1
 10 
0.94996
 20 
0.49589
 30 
0.0
 0 
VERTEX
 8 
1
 10 
0.925
 20 
0.49983
 30 
0.0
 0 
VERTEX
 8 
1
 10 
0.90003
 20 
0.50297
 30 
0.0
 0 
VERTEX
 8 
1
 10 
0.85008
 20 
0.50805
 30 
0.0
 0 
VERTEX
 8 
1
 10 
0.80011
 20 
0.51144
 30 
0.0
 0 
VERTEX
 8 
1
 10 
0.70014
 20 
0.51481
 30 
0.0
 0 
VERTEX
 8 
1
 10 
0.60015
 20 
0.51578
 30 
0.0
 0 
VERTEX
 8 
1
 10 
0.50015
 20 
0.51515
 30 
0.0
 0 
VERTEX
 8 
1
 10 
0.40013
 20 
0.51342
 30 
0.0
 0 
VERTEX
 8 
1
 10 
0.3001
 20 
0.51019
 30 
0.0
 0 
VERTEX
 8 
1
 10 
0.20007
 20 
0.50686
 30 
0.0
 0 
VERTEX
 8 
1
 10 
0.10003
 20 
0.50303
 30 
0.0
 0 
VERTEX
 8 
1
 10 
0.05001
 20 
0.50091
 30 
0.0
 0 
VERTEX
 8 
1
 10 
0.0
 20 
0.4987
 30 
0.0
 0 
SEQEND
 8 
1
 0 
ENDSEC
 0 
EOF
