 0 
SECTION
 2 
ENTITIES
 0 
POLYLINE
 8 
1
 66 
 1 
 10 
0.0
 20 
0.0
 30 
0.0
 0 
VERTEX
 8 
1
 10 
0.0
 20 
0.5008
 30 
0.0
 0 
VERTEX
 8 
1
 10 
0.05005
 20 
0.51037
 30 
0.0
 0 
VERTEX
 8 
1
 10 
0.10009
 20 
0.52034
 30 
0.0
 0 
VERTEX
 8 
1
 10 
0.20018
 20 
0.53988
 30 
0.0
 0 
VERTEX
 8 
1
 10 
0.30026
 20 
0.55702
 30 
0.0
 0 
VERTEX
 8 
1
 10 
0.40032
 20 
0.57036
 30 
0.0
 0 
VERTEX
 8 
1
 10 
0.50037
 20 
0.5807
 30 
0.0
 0 
VERTEX
 8 
1
 10 
0.60041
 20 
0.58834
 30 
0.0
 0 
VERTEX
 8 
1
 10 
0.70041
 20 
0.58948
 30 
0.0
 0 
VERTEX
 8 
1
 10 
0.80039
 20 
0.58372
 30 
0.0
 0 
VERTEX
 8 
1
 10 
0.85035
 20 
0.57739
 30 
0.0
 0 
VERTEX
 8 
1
 10 
0.9003
 20 
0.56536
 30 
0.0
 0 
VERTEX
 8 
1
 10 
0.92526
 20 
0.55714
 30 
0.0
 0 
VERTEX
 8 
1
 10 
0.9502
 20 
0.54343
 30 
0.0
 0 
VERTEX
 8 
1
 10 
0.97512
 20 
0.52711
 30 
0.0
 0 
VERTEX
 8 
1
 10 
0.98757
 20 
0.51626
 30 
0.0
 0 
VERTEX
 8 
1
 10 
1
 20 
0.5
 30 
0.0
 0 
VERTEX
 8 
1
 10 
0.98748
 20 
0.49466
 30 
0.0
 0 
VERTEX
 8 
1
 10 
0.97498
 20 
0.49612
 30 
0.0
 0 
VERTEX
 8 
1
 10 
0.95
 20 
0.50023
 30 
0.0
 0 
VERTEX
 8 
1
 10 
0.92503
 20 
0.50574
 30 
0.0
 0 
VERTEX
 8 
1
 10 
0.90005
 20 
0.51156
 30 
0.0
 0 
VERTEX
 8 
1
 10 
0.85009
 20 
0.51959
 30 
0.0
 0 
VERTEX
 8 
1
 10 
0.8001
 20 
0.52252
 30 
0.0
 0 
VERTEX
 8 
1
 10 
0.70012
 20 
0.52568
 30 
0.0
 0 
VERTEX
 8 
1
 10 
0.60012
 20 
0.52614
 30 
0.0
 0 
VERTEX
 8 
1
 10 
0.50011
 20 
0.5239
 30 
0.0
 0 
VERTEX
 8 
1
 10 
0.40009
 20 
0.51956
 30 
0.0
 0 
VERTEX
 8 
1
 10 
0.30007
 20 
0.51432
 30 
0.0
 0 
VERTEX
 8 
1
 10 
0.20004
 20 
0.50968
 30 
0.0
 0 
VERTEX
 8 
1
 10 
0.10002
 20 
0.50414
 30 
0.0
 0 
VERTEX
 8 
1
 10 
0.05001
 20 
0.50167
 30 
0.0
 0 
VERTEX
 8 
1
 10 
0.0
 20 
0.4992
 30 
0.0
 0 
SEQEND
 8 
1
 0 
ENDSEC
 0 
EOF
