 0 
SECTION
 2 
ENTITIES
 0 
POLYLINE
 8 
1
 66 
 1 
 10 
0.0
 20 
0.0
 30 
0.0
 0 
VERTEX
 8 
1
 10 
0.0
 20 
0.5
 30 
0.0
 0 
VERTEX
 8 
1
 10 
0.05
 20 
0.5146
 30 
0.0
 0 
VERTEX
 8 
1
 10 
0.1
 20 
0.5277
 30 
0.0
 0 
VERTEX
 8 
1
 10 
0.2
 20 
0.5519
 30 
0.0
 0 
VERTEX
 8 
1
 10 
0.3
 20 
0.5741
 30 
0.0
 0 
VERTEX
 8 
1
 10 
0.4
 20 
0.5928
 30 
0.0
 0 
VERTEX
 8 
1
 10 
0.5
 20 
0.607
 30 
0.0
 0 
VERTEX
 8 
1
 10 
0.6
 20 
0.6147
 30 
0.0
 0 
VERTEX
 8 
1
 10 
0.7
 20 
0.6169
 30 
0.0
 0 
VERTEX
 8 
1
 10 
0.8
 20 
0.6091
 30 
0.0
 0 
VERTEX
 8 
1
 10 
0.85
 20 
0.6002
 30 
0.0
 0 
VERTEX
 8 
1
 10 
0.9
 20 
0.5858
 30 
0.0
 0 
VERTEX
 8 
1
 10 
0.925
 20 
0.5751
 30 
0.0
 0 
VERTEX
 8 
1
 10 
0.95
 20 
0.5619
 30 
0.0
 0 
VERTEX
 8 
1
 10 
0.975
 20 
0.5457
 30 
0.0
 0 
VERTEX
 8 
1
 10 
0.9875
 20 
0.53435
 30 
0.0
 0 
VERTEX
 8 
1
 10 
1
 20 
0.5
 30 
0.0
 0 
VERTEX
 8 
1
 10 
0.9875
 20 
0.48785
 30 
0.0
 0 
VERTEX
 8 
1
 10 
0.975
 20 
0.4832
 30 
0.0
 0 
VERTEX
 8 
1
 10 
0.95
 20 
0.4784
 30 
0.0
 0 
VERTEX
 8 
1
 10 
0.925
 20 
0.4761
 30 
0.0
 0 
VERTEX
 8 
1
 10 
0.9
 20 
0.4748
 30 
0.0
 0 
VERTEX
 8 
1
 10 
0.85
 20 
0.4742
 30 
0.0
 0 
VERTEX
 8 
1
 10 
0.8
 20 
0.4756
 30 
0.0
 0 
VERTEX
 8 
1
 10 
0.7
 20 
0.4784
 30 
0.0
 0 
VERTEX
 8 
1
 10 
0.6
 20 
0.48233
 30 
0.0
 0 
VERTEX
 8 
1
 10 
0.5
 20 
0.4865
 30 
0.0
 0 
VERTEX
 8 
1
 10 
0.4
 20 
0.4903
 30 
0.0
 0 
VERTEX
 8 
1
 10 
0.3
 20 
0.4931
 30 
0.0
 0 
VERTEX
 8 
1
 10 
0.2
 20 
0.4949
 30 
0.0
 0 
VERTEX
 8 
1
 10 
0.1
 20 
0.4967
 30 
0.0
 0 
VERTEX
 8 
1
 10 
0.05
 20 
0.4971
 30 
0.0
 0 
VERTEX
 8 
1
 10 
0.0
 20 
0.5
 30 
0.0
 0 
SEQEND
 8 
1
 0 
ENDSEC
 0 
EOF
