 0 
SECTION
 2 
ENTITIES
 0 
POLYLINE
 8 
1
 66 
 1 
 10 
0.0
 20 
0.0
 30 
0.0
 0 
VERTEX
 8 
1
 10 
0.0
 20 
0.5
 30 
0.0
 0 
VERTEX
 8 
1
 10 
0.05
 20 
0.51085
 30 
0.0
 0 
VERTEX
 8 
1
 10 
0.1
 20 
0.5207
 30 
0.0
 0 
VERTEX
 8 
1
 10 
0.2
 20 
0.5384
 30 
0.0
 0 
VERTEX
 8 
1
 10 
0.3
 20 
0.5551
 30 
0.0
 0 
VERTEX
 8 
1
 10 
0.4
 20 
0.5678
 30 
0.0
 0 
VERTEX
 8 
1
 10 
0.5
 20 
0.5765
 30 
0.0
 0 
VERTEX
 8 
1
 10 
0.6
 20 
0.5802
 30 
0.0
 0 
VERTEX
 8 
1
 10 
0.7
 20 
0.5779
 30 
0.0
 0 
VERTEX
 8 
1
 10 
0.8
 20 
0.5676
 30 
0.0
 0 
VERTEX
 8 
1
 10 
0.85
 20 
0.55845
 30 
0.0
 0 
VERTEX
 8 
1
 10 
0.9
 20 
0.5473
 30 
0.0
 0 
VERTEX
 8 
1
 10 
0.925
 20 
0.54122
 30 
0.0
 0 
VERTEX
 8 
1
 10 
0.95
 20 
0.53215
 30 
0.0
 0 
VERTEX
 8 
1
 10 
0.975
 20 
0.52007
 30 
0.0
 0 
VERTEX
 8 
1
 10 
0.9875
 20 
0.51204
 30 
0.0
 0 
VERTEX
 8 
1
 10 
1
 20 
0.5
 30 
0.0
 0 
VERTEX
 8 
1
 10 
0.9875
 20 
0.49604
 30 
0.0
 0 
VERTEX
 8 
1
 10 
0.975
 20 
0.49607
 30 
0.0
 0 
VERTEX
 8 
1
 10 
0.95
 20 
0.49815
 30 
0.0
 0 
VERTEX
 8 
1
 10 
0.925
 20 
0.50123
 30 
0.0
 0 
VERTEX
 8 
1
 10 
0.9
 20 
0.5053
 30 
0.0
 0 
VERTEX
 8 
1
 10 
0.85
 20 
0.51345
 30 
0.0
 0 
VERTEX
 8 
1
 10 
0.8
 20 
0.5206
 30 
0.0
 0 
VERTEX
 8 
1
 10 
0.7
 20 
0.5309
 30 
0.0
 0 
VERTEX
 8 
1
 10 
0.6
 20 
0.5352
 30 
0.0
 0 
VERTEX
 8 
1
 10 
0.5
 20 
0.5325
 30 
0.0
 0 
VERTEX
 8 
1
 10 
0.4
 20 
0.5278
 30 
0.0
 0 
VERTEX
 8 
1
 10 
0.3
 20 
0.5211
 30 
0.0
 0 
VERTEX
 8 
1
 10 
0.2
 20 
0.5134
 30 
0.0
 0 
VERTEX
 8 
1
 10 
0.1
 20 
0.5057
 30 
0.0
 0 
VERTEX
 8 
1
 10 
0.05
 20 
0.50185
 30 
0.0
 0 
VERTEX
 8 
1
 10 
0.0
 20 
0.5
 30 
0.0
 0 
SEQEND
 8 
1
 0 
ENDSEC
 0 
EOF
