 0 
SECTION
 2 
ENTITIES
 0 
POLYLINE
 8 
1
 66 
 1 
 10 
0.0
 20 
0.0
 30 
0.0
 0 
VERTEX
 8 
1
 10 
0.0
 20 
0.5
 30 
0.0
 0 
VERTEX
 8 
1
 10 
0.05
 20 
0.5095
 30 
0.0
 0 
VERTEX
 8 
1
 10 
0.1
 20 
0.518
 30 
0.0
 0 
VERTEX
 8 
1
 10 
0.2
 20 
0.533
 30 
0.0
 0 
VERTEX
 8 
1
 10 
0.3
 20 
0.548
 30 
0.0
 0 
VERTEX
 8 
1
 10 
0.4
 20 
0.5625
 30 
0.0
 0 
VERTEX
 8 
1
 10 
0.5
 20 
0.575
 30 
0.0
 0 
VERTEX
 8 
1
 10 
0.6
 20 
0.5825
 30 
0.0
 0 
VERTEX
 8 
1
 10 
0.7
 20 
0.5835
 30 
0.0
 0 
VERTEX
 8 
1
 10 
0.8
 20 
0.578
 30 
0.0
 0 
VERTEX
 8 
1
 10 
0.85
 20 
0.5715
 30 
0.0
 0 
VERTEX
 8 
1
 10 
0.9
 20 
0.5625
 30 
0.0
 0 
VERTEX
 8 
1
 10 
0.925
 20 
0.556
 30 
0.0
 0 
VERTEX
 8 
1
 10 
0.95
 20 
0.54764
 30 
0.0
 0 
VERTEX
 8 
1
 10 
0.975
 20 
0.535
 30 
0.0
 0 
VERTEX
 8 
1
 10 
0.9875
 20 
0.525
 30 
0.0
 0 
VERTEX
 8 
1
 10 
1
 20 
0.501
 30 
0.0
 0 
VERTEX
 8 
1
 10 
0.9875
 20 
0.5
 30 
0.0
 0 
VERTEX
 8 
1
 10 
0.975
 20 
0.5025
 30 
0.0
 0 
VERTEX
 8 
1
 10 
0.95
 20 
0.506
 30 
0.0
 0 
VERTEX
 8 
1
 10 
0.925
 20 
0.51
 30 
0.0
 0 
VERTEX
 8 
1
 10 
0.9
 20 
0.5135
 30 
0.0
 0 
VERTEX
 8 
1
 10 
0.85
 20 
0.51764
 30 
0.0
 0 
VERTEX
 8 
1
 10 
0.8
 20 
0.52104
 30 
0.0
 0 
VERTEX
 8 
1
 10 
0.7
 20 
0.525
 30 
0.0
 0 
VERTEX
 8 
1
 10 
0.6
 20 
0.5265
 30 
0.0
 0 
VERTEX
 8 
1
 10 
0.5
 20 
0.5245
 30 
0.0
 0 
VERTEX
 8 
1
 10 
0.4
 20 
0.5205
 30 
0.0
 0 
VERTEX
 8 
1
 10 
0.3
 20 
0.515
 30 
0.0
 0 
VERTEX
 8 
1
 10 
0.2
 20 
0.51
 30 
0.0
 0 
VERTEX
 8 
1
 10 
0.1
 20 
0.505
 30 
0.0
 0 
VERTEX
 8 
1
 10 
0.05
 20 
0.502
 30 
0.0
 0 
VERTEX
 8 
1
 10 
0.0
 20 
0.5
 30 
0.0
 0 
SEQEND
 8 
1
 0 
ENDSEC
 0 
EOF
