 0 
SECTION
 2 
ENTITIES
 0 
POLYLINE
 8 
1
 66 
 1 
 10 
0.0
 20 
0.0
 30 
0.0
 0 
VERTEX
 8 
1
 10 
0.0
 20 
0.5
 30 
0.0
 0 
VERTEX
 8 
1
 10 
0.05011
 20 
0.50992
 30 
0.0
 0 
VERTEX
 8 
1
 10 
0.10022
 20 
0.51885
 30 
0.0
 0 
VERTEX
 8 
1
 10 
0.2004
 20 
0.5347
 30 
0.0
 0 
VERTEX
 8 
1
 10 
0.30056
 20 
0.54904
 30 
0.0
 0 
VERTEX
 8 
1
 10 
0.4007
 20 
0.56089
 30 
0.0
 0 
VERTEX
 8 
1
 10 
0.50078
 20 
0.56824
 30 
0.0
 0 
VERTEX
 8 
1
 10 
0.60083
 20 
0.57259
 30 
0.0
 0 
VERTEX
 8 
1
 10 
0.70082
 20 
0.57094
 30 
0.0
 0 
VERTEX
 8 
1
 10 
0.8007
 20 
0.56179
 30 
0.0
 0 
VERTEX
 8 
1
 10 
0.85064
 20 
0.55489
 30 
0.0
 0 
VERTEX
 8 
1
 10 
0.90051
 20 
0.54464
 30 
0.0
 0 
VERTEX
 8 
1
 10 
0.92544
 20 
0.53786
 30 
0.0
 0 
VERTEX
 8 
1
 10 
0.95033
 20 
0.52857
 30 
0.0
 0 
VERTEX
 8 
1
 10 
0.9752
 20 
0.51729
 30 
0.0
 0 
VERTEX
 8 
1
 10 
0.98762
 20 
0.51014
 30 
0.0
 0 
VERTEX
 8 
1
 10 
1
 20 
0.5
 30 
0.0
 0 
VERTEX
 8 
1
 10 
0.9874
 20 
0.49114
 30 
0.0
 0 
VERTEX
 8 
1
 10 
0.97487
 20 
0.48879
 30 
0.0
 0 
VERTEX
 8 
1
 10 
0.94986
 20 
0.48808
 30 
0.0
 0 
VERTEX
 8 
1
 10 
0.92488
 20 
0.48986
 30 
0.0
 0 
VERTEX
 8 
1
 10 
0.89991
 20 
0.49215
 30 
0.0
 0 
VERTEX
 8 
1
 10 
0.84997
 20 
0.49723
 30 
0.0
 0 
VERTEX
 8 
1
 10 
0.80002
 20 
0.5018
 30 
0.0
 0 
VERTEX
 8 
1
 10 
0.7001
 20 
0.50895
 30 
0.0
 0 
VERTEX
 8 
1
 10 
0.60016
 20 
0.5136
 30 
0.0
 0 
VERTEX
 8 
1
 10 
0.50018
 20 
0.51525
 30 
0.0
 0 
VERTEX
 8 
1
 10 
0.40017
 20 
0.5144
 30 
0.0
 0 
VERTEX
 8 
1
 10 
0.30014
 20 
0.51205
 30 
0.0
 0 
VERTEX
 8 
1
 10 
0.2001
 20 
0.5087
 30 
0.0
 0 
VERTEX
 8 
1
 10 
0.10004
 20 
0.50385
 30 
0.0
 0 
VERTEX
 8 
1
 10 
0.05002
 20 
0.50142
 30 
0.0
 0 
VERTEX
 8 
1
 10 
0.0
 20 
0.5
 30 
0.0
 0 
SEQEND
 8 
1
 0 
ENDSEC
 0 
EOF
