 0 
SECTION
 2 
ENTITIES
 0 
POLYLINE
 8 
1
 66 
 1 
 10 
0.0
 20 
0.0
 30 
0.0
 0 
VERTEX
 8 
1
 10 
0.0
 20 
0.5
 30 
0.0
 0 
VERTEX
 8 
1
 10 
0.05009
 20 
0.50847
 30 
0.0
 0 
VERTEX
 8 
1
 10 
0.10017
 20 
0.51594
 30 
0.0
 0 
VERTEX
 8 
1
 10 
0.20032
 20 
0.52978
 30 
0.0
 0 
VERTEX
 8 
1
 10 
0.30046
 20 
0.54382
 30 
0.0
 0 
VERTEX
 8 
1
 10 
0.40062
 20 
0.55835
 30 
0.0
 0 
VERTEX
 8 
1
 10 
0.50074
 20 
0.56969
 30 
0.0
 0 
VERTEX
 8 
1
 10 
0.60083
 20 
0.57873
 30 
0.0
 0 
VERTEX
 8 
1
 10 
0.70086
 20 
0.58137
 30 
0.0
 0 
VERTEX
 8 
1
 10 
0.80081
 20 
0.57661
 30 
0.0
 0 
VERTEX
 8 
1
 10 
0.85075
 20 
0.57078
 30 
0.0
 0 
VERTEX
 8 
1
 10 
0.90063
 20 
0.55955
 30 
0.0
 0 
VERTEX
 8 
1
 10 
0.92554
 20 
0.55139
 30 
0.0
 0 
VERTEX
 8 
1
 10 
0.95045
 20 
0.54203
 30 
0.0
 0 
VERTEX
 8 
1
 10 
0.9753
 20 
0.52876
 30 
0.0
 0 
VERTEX
 8 
1
 10 
0.98773
 20 
0.52143
 30 
0.0
 0 
VERTEX
 8 
1
 10 
1
 20 
0.5
 30 
0.0
 0 
VERTEX
 8 
1
 10 
0.98739
 20 
0.48973
 30 
0.0
 0 
VERTEX
 8 
1
 10 
0.97489
 20 
0.48967
 30 
0.0
 0 
VERTEX
 8 
1
 10 
0.94992
 20 
0.49203
 30 
0.0
 0 
VERTEX
 8 
1
 10 
0.92494
 20 
0.4942
 30 
0.0
 0 
VERTEX
 8 
1
 10 
0.89996
 20 
0.49636
 30 
0.0
 0 
VERTEX
 8 
1
 10 
0.84999
 20 
0.49899
 30 
0.0
 0 
VERTEX
 8 
1
 10 
0.80001
 20 
0.50052
 30 
0.0
 0 
VERTEX
 8 
1
 10 
0.70001
 20 
0.50058
 30 
0.0
 0 
VERTEX
 8 
1
 10 
0.6
 20 
0.50004
 30 
0.0
 0 
VERTEX
 8 
1
 10 
0.5
 20 
0.5
 30 
0.0
 0 
VERTEX
 8 
1
 10 
0.4
 20 
0.50026
 30 
0.0
 0 
VERTEX
 8 
1
 10 
0.30001
 20 
0.50052
 30 
0.0
 0 
VERTEX
 8 
1
 10 
0.19999
 20 
0.49948
 30 
0.0
 0 
VERTEX
 8 
1
 10 
0.09999
 20 
0.49944
 30 
0.0
 0 
VERTEX
 8 
1
 10 
0.04999
 20 
0.49947
 30 
0.0
 0 
VERTEX
 8 
1
 10 
0.0
 20 
0.5
 30 
0.0
 0 
SEQEND
 8 
1
 0 
ENDSEC
 0 
EOF
