 0 
SECTION
 2 
ENTITIES
 0 
POLYLINE
 8 
1
 66 
 1 
 10 
0.0
 20 
0.0
 30 
0.0
 0 
VERTEX
 8 
1
 10 
0.0
 20 
0.502
 30 
0.0
 0 
VERTEX
 8 
1
 10 
0.04999
 20 
0.51024
 30 
0.0
 0 
VERTEX
 8 
1
 10 
0.09999
 20 
0.51957
 30 
0.0
 0 
VERTEX
 8 
1
 10 
0.19997
 20 
0.53654
 30 
0.0
 0 
VERTEX
 8 
1
 10 
0.29996
 20 
0.55251
 30 
0.0
 0 
VERTEX
 8 
1
 10 
0.39995
 20 
0.56748
 30 
0.0
 0 
VERTEX
 8 
1
 10 
0.49994
 20 
0.57915
 30 
0.0
 0 
VERTEX
 8 
1
 10 
0.59994
 20 
0.58662
 30 
0.0
 0 
VERTEX
 8 
1
 10 
0.69994
 20 
0.58889
 30 
0.0
 0 
VERTEX
 8 
1
 10 
0.79994
 20 
0.58206
 30 
0.0
 0 
VERTEX
 8 
1
 10 
0.84995
 20 
0.57479
 30 
0.0
 0 
VERTEX
 8 
1
 10 
0.89996
 20 
0.56333
 30 
0.0
 0 
VERTEX
 8 
1
 10 
0.92496
 20 
0.55435
 30 
0.0
 0 
VERTEX
 8 
1
 10 
0.94997
 20 
0.54306
 30 
0.0
 0 
VERTEX
 8 
1
 10 
0.97498
 20 
0.52648
 30 
0.0
 0 
VERTEX
 8 
1
 10 
0.98749
 20 
0.51589
 30 
0.0
 0 
VERTEX
 8 
1
 10 
1
 20 
0.5
 30 
0.0
 0 
VERTEX
 8 
1
 10 
0.98751
 20 
0.49149
 30 
0.0
 0 
VERTEX
 8 
1
 10 
0.97501
 20 
0.48988
 30 
0.0
 0 
VERTEX
 8 
1
 10 
0.95001
 20 
0.48967
 30 
0.0
 0 
VERTEX
 8 
1
 10 
0.92501
 20 
0.49095
 30 
0.0
 0 
VERTEX
 8 
1
 10 
0.9
 20 
0.49353
 30 
0.0
 0 
VERTEX
 8 
1
 10 
0.85
 20 
0.4973
 30 
0.0
 0 
VERTEX
 8 
1
 10 
0.8
 20 
0.50006
 30 
0.0
 0 
VERTEX
 8 
1
 10 
0.7
 20 
0.50459
 30 
0.0
 0 
VERTEX
 8 
1
 10 
0.6
 20 
0.50262
 30 
0.0
 0 
VERTEX
 8 
1
 10 
0.5
 20 
0.49825
 30 
0.0
 0 
VERTEX
 8 
1
 10 
0.4
 20 
0.49318
 30 
0.0
 0 
VERTEX
 8 
1
 10 
0.30001
 20 
0.48981
 30 
0.0
 0 
VERTEX
 8 
1
 10 
0.20001
 20 
0.48934
 30 
0.0
 0 
VERTEX
 8 
1
 10 
0.10001
 20 
0.49247
 30 
0.0
 0 
VERTEX
 8 
1
 10 
0.05
 20 
0.49514
 30 
0.0
 0 
VERTEX
 8 
1
 10 
0.0
 20 
0.498
 30 
0.0
 0 
SEQEND
 8 
1
 0 
ENDSEC
 0 
EOF
