 0 
SECTION
 2 
ENTITIES
 0 
POLYLINE
 8 
1
 66 
 1 
 10 
0.0
 20 
0.0
 30 
0.0
 0 
VERTEX
 8 
1
 10 
0.0
 20 
0.50055
 30 
0.0
 0 
VERTEX
 8 
1
 10 
0.05021
 20 
0.51367
 30 
0.0
 0 
VERTEX
 8 
1
 10 
0.10042
 20 
0.52689
 30 
0.0
 0 
VERTEX
 8 
1
 10 
0.20078
 20 
0.55033
 30 
0.0
 0 
VERTEX
 8 
1
 10 
0.30112
 20 
0.57207
 30 
0.0
 0 
VERTEX
 8 
1
 10 
0.40138
 20 
0.58871
 30 
0.0
 0 
VERTEX
 8 
1
 10 
0.50156
 20 
0.60005
 30 
0.0
 0 
VERTEX
 8 
1
 10 
0.60168
 20 
0.60819
 30 
0.0
 0 
VERTEX
 8 
1
 10 
0.70171
 20 
0.60984
 30 
0.0
 0 
VERTEX
 8 
1
 10 
0.80163
 20 
0.60508
 30 
0.0
 0 
VERTEX
 8 
1
 10 
0.85153
 20 
0.59841
 30 
0.0
 0 
VERTEX
 8 
1
 10 
0.90132
 20 
0.58473
 30 
0.0
 0 
VERTEX
 8 
1
 10 
0.92617
 20 
0.57525
 30 
0.0
 0 
VERTEX
 8 
1
 10 
0.95093
 20 
0.55976
 30 
0.0
 0 
VERTEX
 8 
1
 10 
0.97561
 20 
0.53898
 30 
0.0
 0 
VERTEX
 8 
1
 10 
0.98788
 20 
0.52429
 30 
0.0
 0 
VERTEX
 8 
1
 10 
1
 20 
0.5
 30 
0.0
 0 
VERTEX
 8 
1
 10 
0.98735
 20 
0.4905
 30 
0.0
 0 
VERTEX
 8 
1
 10 
0.97481
 20 
0.48809
 30 
0.0
 0 
VERTEX
 8 
1
 10 
0.94978
 20 
0.48578
 30 
0.0
 0 
VERTEX
 8 
1
 10 
0.92477
 20 
0.48507
 30 
0.0
 0 
VERTEX
 8 
1
 10 
0.89978
 20 
0.48596
 30 
0.0
 0 
VERTEX
 8 
1
 10 
0.84985
 20 
0.49053
 30 
0.0
 0 
VERTEX
 8 
1
 10 
0.79991
 20 
0.49451
 30 
0.0
 0 
VERTEX
 8 
1
 10 
0.70003
 20 
0.50196
 30 
0.0
 0 
VERTEX
 8 
1
 10 
0.6001
 20 
0.50622
 30 
0.0
 0 
VERTEX
 8 
1
 10 
0.50012
 20 
0.50777
 30 
0.0
 0 
VERTEX
 8 
1
 10 
0.40011
 20 
0.50723
 30 
0.0
 0 
VERTEX
 8 
1
 10 
0.3001
 20 
0.50658
 30 
0.0
 0 
VERTEX
 8 
1
 10 
0.20009
 20 
0.50584
 30 
0.0
 0 
VERTEX
 8 
1
 10 
0.10005
 20 
0.50329
 30 
0.0
 0 
VERTEX
 8 
1
 10 
0.05002
 20 
0.50137
 30 
0.0
 0 
VERTEX
 8 
1
 10 
0.0
 20 
0.49945
 30 
0.0
 0 
SEQEND
 8 
1
 0 
ENDSEC
 0 
EOF
