 0 
SECTION
 2 
ENTITIES
 0 
POLYLINE
 8 
1
 66 
 1 
 10 
0.0
 20 
0.0
 30 
0.0
 0 
VERTEX
 8 
1
 10 
0.0
 20 
0.5021
 30 
0.0
 0 
VERTEX
 8 
1
 10 
0.0501
 20 
0.51127
 30 
0.0
 0 
VERTEX
 8 
1
 10 
0.10018
 20 
0.52135
 30 
0.0
 0 
VERTEX
 8 
1
 10 
0.20033
 20 
0.5385
 30 
0.0
 0 
VERTEX
 8 
1
 10 
0.30047
 20 
0.55565
 30 
0.0
 0 
VERTEX
 8 
1
 10 
0.40059
 20 
0.56949
 30 
0.0
 0 
VERTEX
 8 
1
 10 
0.5007
 20 
0.58204
 30 
0.0
 0 
VERTEX
 8 
1
 10 
0.60076
 20 
0.58959
 30 
0.0
 0 
VERTEX
 8 
1
 10 
0.70077
 20 
0.59084
 30 
0.0
 0 
VERTEX
 8 
1
 10 
0.80073
 20 
0.5851
 30 
0.0
 0 
VERTEX
 8 
1
 10 
0.85065
 20 
0.57737
 30 
0.0
 0 
VERTEX
 8 
1
 10 
0.90055
 20 
0.56435
 30 
0.0
 0 
VERTEX
 8 
1
 10 
0.92548
 20 
0.55613
 30 
0.0
 0 
VERTEX
 8 
1
 10 
0.95038
 20 
0.5445
 30 
0.0
 0 
VERTEX
 8 
1
 10 
0.97526
 20 
0.53031
 30 
0.0
 0 
VERTEX
 8 
1
 10 
0.98767
 20 
0.5198
 30 
0.0
 0 
VERTEX
 8 
1
 10 
1
 20 
0.5
 30 
0.0
 0 
VERTEX
 8 
1
 10 
0.98742
 20 
0.49061
 30 
0.0
 0 
VERTEX
 8 
1
 10 
0.97491
 20 
0.48961
 30 
0.0
 0 
VERTEX
 8 
1
 10 
0.94991
 20 
0.48983
 30 
0.0
 0 
VERTEX
 8 
1
 10 
0.92492
 20 
0.49004
 30 
0.0
 0 
VERTEX
 8 
1
 10 
0.89992
 20 
0.49025
 30 
0.0
 0 
VERTEX
 8 
1
 10 
0.84992
 20 
0.49068
 30 
0.0
 0 
VERTEX
 8 
1
 10 
0.79992
 20 
0.4911
 30 
0.0
 0 
VERTEX
 8 
1
 10 
0.69993
 20 
0.49195
 30 
0.0
 0 
VERTEX
 8 
1
 10 
0.59994
 20 
0.4928
 30 
0.0
 0 
VERTEX
 8 
1
 10 
0.49995
 20 
0.49365
 30 
0.0
 0 
VERTEX
 8 
1
 10 
0.39995
 20 
0.4945
 30 
0.0
 0 
VERTEX
 8 
1
 10 
0.29996
 20 
0.49535
 30 
0.0
 0 
VERTEX
 8 
1
 10 
0.19997
 20 
0.4962
 30 
0.0
 0 
VERTEX
 8 
1
 10 
0.09997
 20 
0.49705
 30 
0.0
 0 
VERTEX
 8 
1
 10 
0.04998
 20 
0.49748
 30 
0.0
 0 
VERTEX
 8 
1
 10 
0.0
 20 
0.4979
 30 
0.0
 0 
SEQEND
 8 
1
 0 
ENDSEC
 0 
EOF
