 0 
SECTION
 2 
ENTITIES
 0 
POLYLINE
 8 
1
 66 
 1 
 10 
0.0
 20 
0.0
 30 
0.0
 0 
VERTEX
 8 
1
 10 
0.0
 20 
0.5
 30 
0.0
 0 
VERTEX
 8 
1
 10 
0.05004
 20 
0.50877
 30 
0.0
 0 
VERTEX
 8 
1
 10 
0.10007
 20 
0.51655
 30 
0.0
 0 
VERTEX
 8 
1
 10 
0.20014
 20 
0.5306
 30 
0.0
 0 
VERTEX
 8 
1
 10 
0.3002
 20 
0.54515
 30 
0.0
 0 
VERTEX
 8 
1
 10 
0.40026
 20 
0.5572
 30 
0.0
 0 
VERTEX
 8 
1
 10 
0.5003
 20 
0.56625
 30 
0.0
 0 
VERTEX
 8 
1
 10 
0.60033
 20 
0.5733
 30 
0.0
 0 
VERTEX
 8 
1
 10 
0.70035
 20 
0.57735
 30 
0.0
 0 
VERTEX
 8 
1
 10 
0.80034
 20 
0.5759
 30 
0.0
 0 
VERTEX
 8 
1
 10 
0.85032
 20 
0.57217
 30 
0.0
 0 
VERTEX
 8 
1
 10 
0.90029
 20 
0.56395
 30 
0.0
 0 
VERTEX
 8 
1
 10 
0.92526
 20 
0.55734
 30 
0.0
 0 
VERTEX
 8 
1
 10 
0.95021
 20 
0.54722
 30 
0.0
 0 
VERTEX
 8 
1
 10 
0.97514
 20 
0.53211
 30 
0.0
 0 
VERTEX
 8 
1
 10 
0.98759
 20 
0.52106
 30 
0.0
 0 
VERTEX
 8 
1
 10 
1
 20 
0.5
 30 
0.0
 0 
VERTEX
 8 
1
 10 
0.98748
 20 
0.49606
 30 
0.0
 0 
VERTEX
 8 
1
 10 
0.975
 20 
0.49961
 30 
0.0
 0 
VERTEX
 8 
1
 10 
0.95002
 20 
0.50422
 30 
0.0
 0 
VERTEX
 8 
1
 10 
0.92503
 20 
0.50584
 30 
0.0
 0 
VERTEX
 8 
1
 10 
0.90003
 20 
0.50745
 30 
0.0
 0 
VERTEX
 8 
1
 10 
0.85004
 20 
0.50917
 30 
0.0
 0 
VERTEX
 8 
1
 10 
0.80005
 20 
0.5109
 30 
0.0
 0 
VERTEX
 8 
1
 10 
0.70006
 20 
0.51235
 30 
0.0
 0 
VERTEX
 8 
1
 10 
0.60006
 20 
0.5123
 30 
0.0
 0 
VERTEX
 8 
1
 10 
0.50005
 20 
0.51175
 30 
0.0
 0 
VERTEX
 8 
1
 10 
0.40005
 20 
0.5102
 30 
0.0
 0 
VERTEX
 8 
1
 10 
0.30003
 20 
0.50765
 30 
0.0
 0 
VERTEX
 8 
1
 10 
0.20002
 20 
0.5041
 30 
0.0
 0 
VERTEX
 8 
1
 10 
0.10001
 20 
0.50205
 30 
0.0
 0 
VERTEX
 8 
1
 10 
0.05
 20 
0.50027
 30 
0.0
 0 
VERTEX
 8 
1
 10 
0.0
 20 
0.5
 30 
0.0
 0 
SEQEND
 8 
1
 0 
ENDSEC
 0 
EOF
