 0 
SECTION
 2 
ENTITIES
 0 
POLYLINE
 8 
1
 66 
 1 
 10 
0.0
 20 
0.0
 30 
0.0
 0 
VERTEX
 8 
1
 10 
0.0
 20 
0.5
 30 
0.0
 0 
VERTEX
 8 
1
 10 
0.05
 20 
0.5116
 30 
0.0
 0 
VERTEX
 8 
1
 10 
0.1
 20 
0.5222
 30 
0.0
 0 
VERTEX
 8 
1
 10 
0.2
 20 
0.5404
 30 
0.0
 0 
VERTEX
 8 
1
 10 
0.3
 20 
0.5576
 30 
0.0
 0 
VERTEX
 8 
1
 10 
0.4
 20 
0.5718
 30 
0.0
 0 
VERTEX
 8 
1
 10 
0.5
 20 
0.583
 30 
0.0
 0 
VERTEX
 8 
1
 10 
0.6
 20 
0.5892
 30 
0.0
 0 
VERTEX
 8 
1
 10 
0.7
 20 
0.5904
 30 
0.0
 0 
VERTEX
 8 
1
 10 
0.8
 20 
0.5836
 30 
0.0
 0 
VERTEX
 8 
1
 10 
0.85
 20 
0.5742
 30 
0.0
 0 
VERTEX
 8 
1
 10 
0.9
 20 
0.5608
 30 
0.0
 0 
VERTEX
 8 
1
 10 
0.925
 20 
0.5516
 30 
0.0
 0 
VERTEX
 8 
1
 10 
0.95
 20 
0.5414
 30 
0.0
 0 
VERTEX
 8 
1
 10 
0.975
 20 
0.5262
 30 
0.0
 0 
VERTEX
 8 
1
 10 
0.9875
 20 
0.5171
 30 
0.0
 0 
VERTEX
 8 
1
 10 
1
 20 
0.5
 30 
0.0
 0 
VERTEX
 8 
1
 10 
0.9875
 20 
0.4941
 30 
0.0
 0 
VERTEX
 8 
1
 10 
0.975
 20 
0.4932
 30 
0.0
 0 
VERTEX
 8 
1
 10 
0.95
 20 
0.4934
 30 
0.0
 0 
VERTEX
 8 
1
 10 
0.925
 20 
0.4946
 30 
0.0
 0 
VERTEX
 8 
1
 10 
0.9
 20 
0.4968
 30 
0.0
 0 
VERTEX
 8 
1
 10 
0.85
 20 
0.5022
 30 
0.0
 0 
VERTEX
 8 
1
 10 
0.8
 20 
0.5056
 30 
0.0
 0 
VERTEX
 8 
1
 10 
0.7
 20 
0.5114
 30 
0.0
 0 
VERTEX
 8 
1
 10 
0.6
 20 
0.5152
 30 
0.0
 0 
VERTEX
 8 
1
 10 
0.5
 20 
0.517
 30 
0.0
 0 
VERTEX
 8 
1
 10 
0.4
 20 
0.5168
 30 
0.0
 0 
VERTEX
 8 
1
 10 
0.3
 20 
0.5136
 30 
0.0
 0 
VERTEX
 8 
1
 10 
0.2
 20 
0.5094
 30 
0.0
 0 
VERTEX
 8 
1
 10 
0.1
 20 
0.5052
 30 
0.0
 0 
VERTEX
 8 
1
 10 
0.05
 20 
0.5026
 30 
0.0
 0 
VERTEX
 8 
1
 10 
0.0
 20 
0.5
 30 
0.0
 0 
SEQEND
 8 
1
 0 
ENDSEC
 0 
EOF
