 0 
SECTION
 2 
ENTITIES
 0 
POLYLINE
 8 
1
 66 
 1 
 10 
0.0
 20 
0.0
 30 
0.0
 0 
VERTEX
 8 
1
 10 
0.0
 20 
0.5
 30 
0.0
 0 
VERTEX
 8 
1
 10 
0.05
 20 
0.51865
 30 
0.0
 0 
VERTEX
 8 
1
 10 
0.1
 20 
0.5353
 30 
0.0
 0 
VERTEX
 8 
1
 10 
0.2
 20 
0.5646
 30 
0.0
 0 
VERTEX
 8 
1
 10 
0.3
 20 
0.5899
 30 
0.0
 0 
VERTEX
 8 
1
 10 
0.4
 20 
0.6072
 30 
0.0
 0 
VERTEX
 8 
1
 10 
0.5
 20 
0.6145
 30 
0.0
 0 
VERTEX
 8 
1
 10 
0.6
 20 
0.6173
 30 
0.0
 0 
VERTEX
 8 
1
 10 
0.7
 20 
0.6161
 30 
0.0
 0 
VERTEX
 8 
1
 10 
0.8
 20 
0.6064
 30 
0.0
 0 
VERTEX
 8 
1
 10 
0.85
 20 
0.59405
 30 
0.0
 0 
VERTEX
 8 
1
 10 
0.9
 20 
0.5777
 30 
0.0
 0 
VERTEX
 8 
1
 10 
0.925
 20 
0.56702
 30 
0.0
 0 
VERTEX
 8 
1
 10 
0.95
 20 
0.55335
 30 
0.0
 0 
VERTEX
 8 
1
 10 
0.975
 20 
0.53568
 30 
0.0
 0 
VERTEX
 8 
1
 10 
0.9875
 20 
0.52434
 30 
0.0
 0 
VERTEX
 8 
1
 10 
1
 20 
0.5
 30 
0.0
 0 
VERTEX
 8 
1
 10 
0.9875
 20 
0.49034
 30 
0.0
 0 
VERTEX
 8 
1
 10 
0.975
 20 
0.48567
 30 
0.0
 0 
VERTEX
 8 
1
 10 
0.95
 20 
0.48035
 30 
0.0
 0 
VERTEX
 8 
1
 10 
0.925
 20 
0.47703
 30 
0.0
 0 
VERTEX
 8 
1
 10 
0.9
 20 
0.4757
 30 
0.0
 0 
VERTEX
 8 
1
 10 
0.85
 20 
0.48105
 30 
0.0
 0 
VERTEX
 8 
1
 10 
0.8
 20 
0.4884
 30 
0.0
 0 
VERTEX
 8 
1
 10 
0.7
 20 
0.5041
 30 
0.0
 0 
VERTEX
 8 
1
 10 
0.6
 20 
0.5178
 30 
0.0
 0 
VERTEX
 8 
1
 10 
0.5
 20 
0.5297
 30 
0.0
 0 
VERTEX
 8 
1
 10 
0.4
 20 
0.5372
 30 
0.0
 0 
VERTEX
 8 
1
 10 
0.3
 20 
0.5359
 30 
0.0
 0 
VERTEX
 8 
1
 10 
0.2
 20 
0.5296
 30 
0.0
 0 
VERTEX
 8 
1
 10 
0.1
 20 
0.5153
 30 
0.0
 0 
VERTEX
 8 
1
 10 
0.05
 20 
0.50865
 30 
0.0
 0 
VERTEX
 8 
1
 10 
0.0
 20 
0.5
 30 
0.0
 0 
SEQEND
 8 
1
 0 
ENDSEC
 0 
EOF
