 0 
SECTION
 2 
ENTITIES
 0 
POLYLINE
 8 
1
 66 
 1 
 10 
0.0
 20 
0.0
 30 
0.0
 0 
VERTEX
 8 
1
 10 
0.0
 20 
0.5
 30 
0.0
 0 
VERTEX
 8 
1
 10 
0.0501
 20 
0.50947
 30 
0.0
 0 
VERTEX
 8 
1
 10 
0.10019
 20 
0.51795
 30 
0.0
 0 
VERTEX
 8 
1
 10 
0.20035
 20 
0.5329
 30 
0.0
 0 
VERTEX
 8 
1
 10 
0.3005
 20 
0.54784
 30 
0.0
 0 
VERTEX
 8 
1
 10 
0.40063
 20 
0.55979
 30 
0.0
 0 
VERTEX
 8 
1
 10 
0.50072
 20 
0.56824
 30 
0.0
 0 
VERTEX
 8 
1
 10 
0.60078
 20 
0.57419
 30 
0.0
 0 
VERTEX
 8 
1
 10 
0.70079
 20 
0.57514
 30 
0.0
 0 
VERTEX
 8 
1
 10 
0.80071
 20 
0.56759
 30 
0.0
 0 
VERTEX
 8 
1
 10 
0.85063
 20 
0.55957
 30 
0.0
 0 
VERTEX
 8 
1
 10 
0.9005
 20 
0.54804
 30 
0.0
 0 
VERTEX
 8 
1
 10 
0.92542
 20 
0.53978
 30 
0.0
 0 
VERTEX
 8 
1
 10 
0.95032
 20 
0.53002
 30 
0.0
 0 
VERTEX
 8 
1
 10 
0.97519
 20 
0.51826
 30 
0.0
 0 
VERTEX
 8 
1
 10 
0.98761
 20 
0.51063
 30 
0.0
 0 
VERTEX
 8 
1
 10 
1
 20 
0.5
 30 
0.0
 0 
VERTEX
 8 
1
 10 
0.98742
 20 
0.49213
 30 
0.0
 0 
VERTEX
 8 
1
 10 
0.9749
 20 
0.49026
 30 
0.0
 0 
VERTEX
 8 
1
 10 
0.9499
 20 
0.49003
 30 
0.0
 0 
VERTEX
 8 
1
 10 
0.92491
 20 
0.49129
 30 
0.0
 0 
VERTEX
 8 
1
 10 
0.89993
 20 
0.49355
 30 
0.0
 0 
VERTEX
 8 
1
 10 
0.84998
 20 
0.49808
 30 
0.0
 0 
VERTEX
 8 
1
 10 
0.80002
 20 
0.5021
 30 
0.0
 0 
VERTEX
 8 
1
 10 
0.70009
 20 
0.50865
 30 
0.0
 0 
VERTEX
 8 
1
 10 
0.60013
 20 
0.5122
 30 
0.0
 0 
VERTEX
 8 
1
 10 
0.50014
 20 
0.51375
 30 
0.0
 0 
VERTEX
 8 
1
 10 
0.40013
 20 
0.5128
 30 
0.0
 0 
VERTEX
 8 
1
 10 
0.30011
 20 
0.51035
 30 
0.0
 0 
VERTEX
 8 
1
 10 
0.20008
 20 
0.5074
 30 
0.0
 0 
VERTEX
 8 
1
 10 
0.10004
 20 
0.50395
 30 
0.0
 0 
VERTEX
 8 
1
 10 
0.05002
 20 
0.50197
 30 
0.0
 0 
VERTEX
 8 
1
 10 
0.0
 20 
0.5
 30 
0.0
 0 
SEQEND
 8 
1
 0 
ENDSEC
 0 
EOF
