 0 
SECTION
 2 
ENTITIES
 0 
POLYLINE
 8 
1
 66 
 1 
 10 
0.0
 20 
0.0
 30 
0.0
 0 
VERTEX
 8 
1
 10 
0.0
 20 
0.5
 30 
0.0
 0 
VERTEX
 8 
1
 10 
0.1
 20 
0.526
 30 
0.0
 0 
VERTEX
 8 
1
 10 
0.2
 20 
0.547
 30 
0.0
 0 
VERTEX
 8 
1
 10 
0.3
 20 
0.565
 30 
0.0
 0 
VERTEX
 8 
1
 10 
0.4
 20 
0.5795
 30 
0.0
 0 
VERTEX
 8 
1
 10 
0.5
 20 
0.5895
 30 
0.0
 0 
VERTEX
 8 
1
 10 
0.6
 20 
0.5945
 30 
0.0
 0 
VERTEX
 8 
1
 10 
0.7
 20 
0.5925
 30 
0.0
 0 
VERTEX
 8 
1
 10 
0.8
 20 
0.5825
 30 
0.0
 0 
VERTEX
 8 
1
 10 
0.9
 20 
0.562
 30 
0.0
 0 
VERTEX
 8 
1
 10 
0.925
 20 
0.55338
 30 
0.0
 0 
VERTEX
 8 
1
 10 
0.95
 20 
0.54275
 30 
0.0
 0 
VERTEX
 8 
1
 10 
0.975
 20 
0.52912
 30 
0.0
 0 
VERTEX
 8 
1
 10 
0.9875
 20 
0.51981
 30 
0.0
 0 
VERTEX
 8 
1
 10 
1
 20 
0.5
 30 
0.0
 0 
VERTEX
 8 
1
 10 
0.9875
 20 
0.48631
 30 
0.0
 0 
VERTEX
 8 
1
 10 
0.975
 20 
0.48212
 30 
0.0
 0 
VERTEX
 8 
1
 10 
0.95
 20 
0.47875
 30 
0.0
 0 
VERTEX
 8 
1
 10 
0.925
 20 
0.47687
 30 
0.0
 0 
VERTEX
 8 
1
 10 
0.9
 20 
0.4775
 30 
0.0
 0 
VERTEX
 8 
1
 10 
0.8
 20 
0.4835
 30 
0.0
 0 
VERTEX
 8 
1
 10 
0.7
 20 
0.493
 30 
0.0
 0 
VERTEX
 8 
1
 10 
0.6
 20 
0.5025
 30 
0.0
 0 
VERTEX
 8 
1
 10 
0.5
 20 
0.5105
 30 
0.0
 0 
VERTEX
 8 
1
 10 
0.4
 20 
0.515
 30 
0.0
 0 
VERTEX
 8 
1
 10 
0.3
 20 
0.5175
 30 
0.0
 0 
VERTEX
 8 
1
 10 
0.2
 20 
0.515
 30 
0.0
 0 
VERTEX
 8 
1
 10 
0.1
 20 
0.51
 30 
0.0
 0 
VERTEX
 8 
1
 10 
0.0
 20 
0.5
 30 
0.0
 0 
SEQEND
 8 
1
 0 
ENDSEC
 0 
EOF
