 0 
SECTION
 2 
ENTITIES
 0 
POLYLINE
 8 
1
 66 
 1 
 10 
0.0
 20 
0.0
 30 
0.0
 0 
VERTEX
 8 
1
 10 
0.0
 20 
0.5
 30 
0.0
 0 
VERTEX
 8 
1
 10 
0.05
 20 
0.51075
 30 
0.0
 0 
VERTEX
 8 
1
 10 
0.1
 20 
0.5225
 30 
0.0
 0 
VERTEX
 8 
1
 10 
0.2
 20 
0.5455
 30 
0.0
 0 
VERTEX
 8 
1
 10 
0.3
 20 
0.566
 30 
0.0
 0 
VERTEX
 8 
1
 10 
0.4
 20 
0.585
 30 
0.0
 0 
VERTEX
 8 
1
 10 
0.5
 20 
0.6
 30 
0.0
 0 
VERTEX
 8 
1
 10 
0.6
 20 
0.6105
 30 
0.0
 0 
VERTEX
 8 
1
 10 
0.7
 20 
0.6115
 30 
0.0
 0 
VERTEX
 8 
1
 10 
0.8
 20 
0.6005
 30 
0.0
 0 
VERTEX
 8 
1
 10 
0.85
 20 
0.58875
 30 
0.0
 0 
VERTEX
 8 
1
 10 
0.9
 20 
0.572
 30 
0.0
 0 
VERTEX
 8 
1
 10 
0.925
 20 
0.56162
 30 
0.0
 0 
VERTEX
 8 
1
 10 
0.95
 20 
0.54875
 30 
0.0
 0 
VERTEX
 8 
1
 10 
0.975
 20 
0.53237
 30 
0.0
 0 
VERTEX
 8 
1
 10 
0.9875
 20 
0.52144
 30 
0.0
 0 
VERTEX
 8 
1
 10 
1
 20 
0.5
 30 
0.0
 0 
VERTEX
 8 
1
 10 
0.9875
 20 
0.48294
 30 
0.0
 0 
VERTEX
 8 
1
 10 
0.975
 20 
0.47937
 30 
0.0
 0 
VERTEX
 8 
1
 10 
0.95
 20 
0.47702
 30 
0.0
 0 
VERTEX
 8 
1
 10 
0.925
 20 
0.47513
 30 
0.0
 0 
VERTEX
 8 
1
 10 
0.9
 20 
0.4745
 30 
0.0
 0 
VERTEX
 8 
1
 10 
0.85
 20 
0.47375
 30 
0.0
 0 
VERTEX
 8 
1
 10 
0.8
 20 
0.4735
 30 
0.0
 0 
VERTEX
 8 
1
 10 
0.7
 20 
0.4755
 30 
0.0
 0 
VERTEX
 8 
1
 10 
0.6
 20 
0.4805
 30 
0.0
 0 
VERTEX
 8 
1
 10 
0.5
 20 
0.486
 30 
0.0
 0 
VERTEX
 8 
1
 10 
0.4
 20 
0.4925
 30 
0.0
 0 
VERTEX
 8 
1
 10 
0.3
 20 
0.498
 30 
0.0
 0 
VERTEX
 8 
1
 10 
0.2
 20 
0.502
 30 
0.0
 0 
VERTEX
 8 
1
 10 
0.1
 20 
0.5025
 30 
0.0
 0 
VERTEX
 8 
1
 10 
0.05
 20 
0.50175
 30 
0.0
 0 
VERTEX
 8 
1
 10 
0.0
 20 
0.5
 30 
0.0
 0 
SEQEND
 8 
1
 0 
ENDSEC
 0 
EOF
