 0 
SECTION
 2 
ENTITIES
 0 
POLYLINE
 8 
1
 66 
 1 
 10 
0.0
 20 
0.0
 30 
0.0
 0 
VERTEX
 8 
1
 10 
0.0
 20 
0.5013
 30 
0.0
 0 
VERTEX
 8 
1
 10 
0.05004
 20 
0.5218
 30 
0.0
 0 
VERTEX
 8 
1
 10 
0.10008
 20 
0.54071
 30 
0.0
 0 
VERTEX
 8 
1
 10 
0.20015
 20 
0.57752
 30 
0.0
 0 
VERTEX
 8 
1
 10 
0.30021
 20 
0.60793
 30 
0.0
 0 
VERTEX
 8 
1
 10 
0.40025
 20 
0.63354
 30 
0.0
 0 
VERTEX
 8 
1
 10 
0.50029
 20 
0.65345
 30 
0.0
 0 
VERTEX
 8 
1
 10 
0.60032
 20 
0.66586
 30 
0.0
 0 
VERTEX
 8 
1
 10 
0.70032
 20 
0.66997
 30 
0.0
 0 
VERTEX
 8 
1
 10 
0.8003
 20 
0.65808
 30 
0.0
 0 
VERTEX
 8 
1
 10 
0.85027
 20 
0.64218
 30 
0.0
 0 
VERTEX
 8 
1
 10 
0.90022
 20 
0.61409
 30 
0.0
 0 
VERTEX
 8 
1
 10 
0.92517
 20 
0.59144
 30 
0.0
 0 
VERTEX
 8 
1
 10 
0.9501
 20 
0.55489
 30 
0.0
 0 
VERTEX
 8 
1
 10 
0.97503
 20 
0.51475
 30 
0.0
 0 
VERTEX
 8 
1
 10 
0.98751
 20 
0.50522
 30 
0.0
 0 
VERTEX
 8 
1
 10 
1
 20 
0.5
 30 
0.0
 0 
VERTEX
 8 
1
 10 
0.98749
 20 
0.49682
 30 
0.0
 0 
VERTEX
 8 
1
 10 
0.97499
 20 
0.49685
 30 
0.0
 0 
VERTEX
 8 
1
 10 
0.94999
 20 
0.4974
 30 
0.0
 0 
VERTEX
 8 
1
 10 
0.925
 20 
0.49904
 30 
0.0
 0 
VERTEX
 8 
1
 10 
0.9
 20 
0.50119
 30 
0.0
 0 
VERTEX
 8 
1
 10 
0.85001
 20 
0.50338
 30 
0.0
 0 
VERTEX
 8 
1
 10 
0.80001
 20 
0.50768
 30 
0.0
 0 
VERTEX
 8 
1
 10 
0.70003
 20 
0.51747
 30 
0.0
 0 
VERTEX
 8 
1
 10 
0.60005
 20 
0.52816
 30 
0.0
 0 
VERTEX
 8 
1
 10 
0.50007
 20 
0.53465
 30 
0.0
 0 
VERTEX
 8 
1
 10 
0.40008
 20 
0.53964
 30 
0.0
 0 
VERTEX
 8 
1
 10 
0.30008
 20 
0.53983
 30 
0.0
 0 
VERTEX
 8 
1
 10 
0.20007
 20 
0.53472
 30 
0.0
 0 
VERTEX
 8 
1
 10 
0.10004
 20 
0.52221
 30 
0.0
 0 
VERTEX
 8 
1
 10 
0.05002
 20 
0.5123
 30 
0.0
 0 
VERTEX
 8 
1
 10 
0.0
 20 
0.4987
 30 
0.0
 0 
SEQEND
 8 
1
 0 
ENDSEC
 0 
EOF
