 0 
SECTION
 2 
ENTITIES
 0 
POLYLINE
 8 
1
 66 
 1 
 10 
0.0
 20 
0.0
 30 
0.0
 0 
VERTEX
 8 
1
 10 
0.0
 20 
0.5
 30 
0.0
 0 
VERTEX
 8 
1
 10 
0.05
 20 
0.5107
 30 
0.0
 0 
VERTEX
 8 
1
 10 
0.1
 20 
0.5204
 30 
0.0
 0 
VERTEX
 8 
1
 10 
0.2
 20 
0.5368
 30 
0.0
 0 
VERTEX
 8 
1
 10 
0.3
 20 
0.5522
 30 
0.0
 0 
VERTEX
 8 
1
 10 
0.4
 20 
0.5676
 30 
0.0
 0 
VERTEX
 8 
1
 10 
0.5
 20 
0.58
 30 
0.0
 0 
VERTEX
 8 
1
 10 
0.6
 20 
0.5884
 30 
0.0
 0 
VERTEX
 8 
1
 10 
0.7
 20 
0.5908
 30 
0.0
 0 
VERTEX
 8 
1
 10 
0.8
 20 
0.5862
 30 
0.0
 0 
VERTEX
 8 
1
 10 
0.85
 20 
0.5779
 30 
0.0
 0 
VERTEX
 8 
1
 10 
0.9
 20 
0.5646
 30 
0.0
 0 
VERTEX
 8 
1
 10 
0.925
 20 
0.55645
 30 
0.0
 0 
VERTEX
 8 
1
 10 
0.95
 20 
0.5448
 30 
0.0
 0 
VERTEX
 8 
1
 10 
0.975
 20 
0.53015
 30 
0.0
 0 
VERTEX
 8 
1
 10 
0.9875
 20 
0.52007
 30 
0.0
 0 
VERTEX
 8 
1
 10 
1
 20 
0.5
 30 
0.0
 0 
VERTEX
 8 
1
 10 
0.9875
 20 
0.49507
 30 
0.0
 0 
VERTEX
 8 
1
 10 
0.975
 20 
0.49635
 30 
0.0
 0 
VERTEX
 8 
1
 10 
0.95
 20 
0.5013
 30 
0.0
 0 
VERTEX
 8 
1
 10 
0.925
 20 
0.50445
 30 
0.0
 0 
VERTEX
 8 
1
 10 
0.9
 20 
0.5076
 30 
0.0
 0 
VERTEX
 8 
1
 10 
0.85
 20 
0.5129
 30 
0.0
 0 
VERTEX
 8 
1
 10 
0.8
 20 
0.5182
 30 
0.0
 0 
VERTEX
 8 
1
 10 
0.7
 20 
0.5238
 30 
0.0
 0 
VERTEX
 8 
1
 10 
0.6
 20 
0.5254
 30 
0.0
 0 
VERTEX
 8 
1
 10 
0.5
 20 
0.523
 30 
0.0
 0 
VERTEX
 8 
1
 10 
0.4
 20 
0.5196
 30 
0.0
 0 
VERTEX
 8 
1
 10 
0.3
 20 
0.5152
 30 
0.0
 0 
VERTEX
 8 
1
 10 
0.2
 20 
0.5108
 30 
0.0
 0 
VERTEX
 8 
1
 10 
0.1
 20 
0.5054
 30 
0.0
 0 
VERTEX
 8 
1
 10 
0.05
 20 
0.5027
 30 
0.0
 0 
VERTEX
 8 
1
 10 
0.0
 20 
0.5
 30 
0.0
 0 
SEQEND
 8 
1
 0 
ENDSEC
 0 
EOF
