 0 
SECTION
 2 
ENTITIES
 0 
POLYLINE
 8 
1
 66 
 1 
 10 
0.0
 20 
0.0
 30 
0.0
 0 
VERTEX
 8 
1
 10 
0.0
 20 
0.5
 30 
0.0
 0 
VERTEX
 8 
1
 10 
0.05
 20 
0.51242
 30 
0.0
 0 
VERTEX
 8 
1
 10 
0.1
 20 
0.52335
 30 
0.0
 0 
VERTEX
 8 
1
 10 
0.2
 20 
0.5422
 30 
0.0
 0 
VERTEX
 8 
1
 10 
0.3
 20 
0.55855
 30 
0.0
 0 
VERTEX
 8 
1
 10 
0.4
 20 
0.5704
 30 
0.0
 0 
VERTEX
 8 
1
 10 
0.5
 20 
0.57775
 30 
0.0
 0 
VERTEX
 8 
1
 10 
0.6
 20 
0.5806
 30 
0.0
 0 
VERTEX
 8 
1
 10 
0.7
 20 
0.57745
 30 
0.0
 0 
VERTEX
 8 
1
 10 
0.8
 20 
0.5678
 30 
0.0
 0 
VERTEX
 8 
1
 10 
0.85
 20 
0.55972
 30 
0.0
 0 
VERTEX
 8 
1
 10 
0.9
 20 
0.54965
 30 
0.0
 0 
VERTEX
 8 
1
 10 
0.925
 20 
0.54286
 30 
0.0
 0 
VERTEX
 8 
1
 10 
0.95
 20 
0.53457
 30 
0.0
 0 
VERTEX
 8 
1
 10 
0.975
 20 
0.52379
 30 
0.0
 0 
VERTEX
 8 
1
 10 
0.9875
 20 
0.51664
 30 
0.0
 0 
VERTEX
 8 
1
 10 
1
 20 
0.5
 30 
0.0
 0 
VERTEX
 8 
1
 10 
0.9875
 20 
0.49214
 30 
0.0
 0 
VERTEX
 8 
1
 10 
0.975
 20 
0.49029
 30 
0.0
 0 
VERTEX
 8 
1
 10 
0.95
 20 
0.48908
 30 
0.0
 0 
VERTEX
 8 
1
 10 
0.925
 20 
0.48936
 30 
0.0
 0 
VERTEX
 8 
1
 10 
0.9
 20 
0.49065
 30 
0.0
 0 
VERTEX
 8 
1
 10 
0.85
 20 
0.49473
 30 
0.0
 0 
VERTEX
 8 
1
 10 
0.8
 20 
0.4993
 30 
0.0
 0 
VERTEX
 8 
1
 10 
0.7
 20 
0.50845
 30 
0.0
 0 
VERTEX
 8 
1
 10 
0.6
 20 
0.5166
 30 
0.0
 0 
VERTEX
 8 
1
 10 
0.5
 20 
0.52225
 30 
0.0
 0 
VERTEX
 8 
1
 10 
0.4
 20 
0.5249
 30 
0.0
 0 
VERTEX
 8 
1
 10 
0.3
 20 
0.52405
 30 
0.0
 0 
VERTEX
 8 
1
 10 
0.2
 20 
0.5192
 30 
0.0
 0 
VERTEX
 8 
1
 10 
0.1
 20 
0.51085
 30 
0.0
 0 
VERTEX
 8 
1
 10 
0.05
 20 
0.50592
 30 
0.0
 0 
VERTEX
 8 
1
 10 
0.0
 20 
0.5
 30 
0.0
 0 
SEQEND
 8 
1
 0 
ENDSEC
 0 
EOF
