 0 
SECTION
 2 
ENTITIES
 0 
POLYLINE
 8 
1
 66 
 1 
 10 
0.0
 20 
0.0
 30 
0.0
 0 
VERTEX
 8 
1
 10 
0.0
 20 
0.5016
 30 
0.0
 0 
VERTEX
 8 
1
 10 
0.05042
 20 
0.52131
 30 
0.0
 0 
VERTEX
 8 
1
 10 
0.10077
 20 
0.53901
 30 
0.0
 0 
VERTEX
 8 
1
 10 
0.2014
 20 
0.57093
 30 
0.0
 0 
VERTEX
 8 
1
 10 
0.30197
 20 
0.59995
 30 
0.0
 0 
VERTEX
 8 
1
 10 
0.40242
 20 
0.62287
 30 
0.0
 0 
VERTEX
 8 
1
 10 
0.50271
 20 
0.6374
 30 
0.0
 0 
VERTEX
 8 
1
 10 
0.60279
 20 
0.64183
 30 
0.0
 0 
VERTEX
 8 
1
 10 
0.70271
 20 
0.63776
 30 
0.0
 0 
VERTEX
 8 
1
 10 
0.80237
 20 
0.62009
 30 
0.0
 0 
VERTEX
 8 
1
 10 
0.85209
 20 
0.60611
 30 
0.0
 0 
VERTEX
 8 
1
 10 
0.90171
 20 
0.58704
 30 
0.0
 0 
VERTEX
 8 
1
 10 
0.92644
 20 
0.57325
 30 
0.0
 0 
VERTEX
 8 
1
 10 
0.95114
 20 
0.55786
 30 
0.0
 0 
VERTEX
 8 
1
 10 
0.97574
 20 
0.53768
 30 
0.0
 0 
VERTEX
 8 
1
 10 
0.988
 20 
0.52524
 30 
0.0
 0 
VERTEX
 8 
1
 10 
1
 20 
0.5
 30 
0.0
 0 
VERTEX
 8 
1
 10 
0.98718
 20 
0.48375
 30 
0.0
 0 
VERTEX
 8 
1
 10 
0.97462
 20 
0.4808
 30 
0.0
 0 
VERTEX
 8 
1
 10 
0.94961
 20 
0.48019
 30 
0.0
 0 
VERTEX
 8 
1
 10 
0.92468
 20 
0.48368
 30 
0.0
 0 
VERTEX
 8 
1
 10 
0.89975
 20 
0.48708
 30 
0.0
 0 
VERTEX
 8 
1
 10 
0.84986
 20 
0.49286
 30 
0.0
 0 
VERTEX
 8 
1
 10 
0.79998
 20 
0.49914
 30 
0.0
 0 
VERTEX
 8 
1
 10 
0.70022
 20 
0.51121
 30 
0.0
 0 
VERTEX
 8 
1
 10 
0.60036
 20 
0.51847
 30 
0.0
 0 
VERTEX
 8 
1
 10 
0.5004
 20 
0.52044
 30 
0.0
 0 
VERTEX
 8 
1
 10 
0.40036
 20 
0.51821
 30 
0.0
 0 
VERTEX
 8 
1
 10 
0.30027
 20 
0.51378
 30 
0.0
 0 
VERTEX
 8 
1
 10 
0.20017
 20 
0.50886
 30 
0.0
 0 
VERTEX
 8 
1
 10 
0.10007
 20 
0.50333
 30 
0.0
 0 
VERTEX
 8 
1
 10 
0.05002
 20 
0.50111
 30 
0.0
 0 
VERTEX
 8 
1
 10 
0.0
 20 
0.4984
 30 
0.0
 0 
SEQEND
 8 
1
 0 
ENDSEC
 0 
EOF
