 0 
SECTION
 2 
ENTITIES
 0 
POLYLINE
 8 
1
 66 
 1 
 10 
0.0
 20 
0.0
 30 
0.0
 0 
VERTEX
 8 
1
 10 
0.0
 20 
0.50105
 30 
0.0
 0 
VERTEX
 8 
1
 10 
0.050679
 20 
0.51971
 30 
0.0
 0 
VERTEX
 8 
1
 10 
0.10137
 20 
0.53988
 30 
0.0
 0 
VERTEX
 8 
1
 10 
0.20247
 20 
0.57222
 30 
0.0
 0 
VERTEX
 8 
1
 10 
0.30345
 20 
0.60086
 30 
0.0
 0 
VERTEX
 8 
1
 10 
0.40425
 20 
0.6241
 30 
0.0
 0 
VERTEX
 8 
1
 10 
0.50479
 20 
0.63996
 30 
0.0
 0 
VERTEX
 8 
1
 10 
0.60508
 20 
0.64833
 30 
0.0
 0 
VERTEX
 8 
1
 10 
0.70505
 20 
0.6475
 30 
0.0
 0 
VERTEX
 8 
1
 10 
0.80461
 20 
0.63449
 30 
0.0
 0 
VERTEX
 8 
1
 10 
0.85411
 20 
0.62
 30 
0.0
 0 
VERTEX
 8 
1
 10 
0.90341
 20 
0.59951
 30 
0.0
 0 
VERTEX
 8 
1
 10 
0.92796
 20 
0.58637
 30 
0.0
 0 
VERTEX
 8 
1
 10 
0.95247
 20 
0.57223
 30 
0.0
 0 
VERTEX
 8 
1
 10 
0.97673
 20 
0.5505
 30 
0.0
 0 
VERTEX
 8 
1
 10 
0.98868
 20 
0.53459
 30 
0.0
 0 
VERTEX
 8 
1
 10 
1
 20 
0.5
 30 
0.0
 0 
VERTEX
 8 
1
 10 
0.98678
 20 
0.47905
 30 
0.0
 0 
VERTEX
 8 
1
 10 
0.97412
 20 
0.47419
 30 
0.0
 0 
VERTEX
 8 
1
 10 
0.94898
 20 
0.47015
 30 
0.0
 0 
VERTEX
 8 
1
 10 
0.92393
 20 
0.46891
 30 
0.0
 0 
VERTEX
 8 
1
 10 
0.89895
 20 
0.46926
 30 
0.0
 0 
VERTEX
 8 
1
 10 
0.84897
 20 
0.46987
 30 
0.0
 0 
VERTEX
 8 
1
 10 
0.79903
 20 
0.47158
 30 
0.0
 0 
VERTEX
 8 
1
 10 
0.69922
 20 
0.4771
 30 
0.0
 0 
VERTEX
 8 
1
 10 
0.59939
 20 
0.48212
 30 
0.0
 0 
VERTEX
 8 
1
 10 
0.49954
 20 
0.48664
 30 
0.0
 0 
VERTEX
 8 
1
 10 
0.39968
 20 
0.49056
 30 
0.0
 0 
VERTEX
 8 
1
 10 
0.29979
 20 
0.49398
 30 
0.0
 0 
VERTEX
 8 
1
 10 
0.19995
 20 
0.4985
 30 
0.0
 0 
VERTEX
 8 
1
 10 
0.09989
 20 
0.49902
 30 
0.0
 0 
VERTEX
 8 
1
 10 
0.04996
 20 
0.49884
 30 
0.0
 0 
VERTEX
 8 
1
 10 
0.0
 20 
0.49895
 30 
0.0
 0 
SEQEND
 8 
1
 0 
ENDSEC
 0 
EOF
