 0 
SECTION
 2 
ENTITIES
 0 
POLYLINE
 8 
1
 66 
 1 
 10 
0.0
 20 
0.0
 30 
0.0
 0 
VERTEX
 8 
1
 10 
0.0
 20 
0.5
 30 
0.0
 0 
VERTEX
 8 
1
 10 
0.05
 20 
0.51105
 30 
0.0
 0 
VERTEX
 8 
1
 10 
0.1
 20 
0.5216
 30 
0.0
 0 
VERTEX
 8 
1
 10 
0.2
 20 
0.5382
 30 
0.0
 0 
VERTEX
 8 
1
 10 
0.3
 20 
0.5518
 30 
0.0
 0 
VERTEX
 8 
1
 10 
0.4
 20 
0.5629
 30 
0.0
 0 
VERTEX
 8 
1
 10 
0.5
 20 
0.571
 30 
0.0
 0 
VERTEX
 8 
1
 10 
0.6
 20 
0.5776
 30 
0.0
 0 
VERTEX
 8 
1
 10 
0.7
 20 
0.5802
 30 
0.0
 0 
VERTEX
 8 
1
 10 
0.8
 20 
0.5758
 30 
0.0
 0 
VERTEX
 8 
1
 10 
0.85
 20 
0.56935
 30 
0.0
 0 
VERTEX
 8 
1
 10 
0.9
 20 
0.5609
 30 
0.0
 0 
VERTEX
 8 
1
 10 
0.925
 20 
0.55367
 30 
0.0
 0 
VERTEX
 8 
1
 10 
0.95
 20 
0.54445
 30 
0.0
 0 
VERTEX
 8 
1
 10 
0.975
 20 
0.53072
 30 
0.0
 0 
VERTEX
 8 
1
 10 
0.9875
 20 
0.52111
 30 
0.0
 0 
VERTEX
 8 
1
 10 
1
 20 
0.5
 30 
0.0
 0 
VERTEX
 8 
1
 10 
0.9875
 20 
0.49311
 30 
0.0
 0 
VERTEX
 8 
1
 10 
0.975
 20 
0.49123
 30 
0.0
 0 
VERTEX
 8 
1
 10 
0.95
 20 
0.49145
 30 
0.0
 0 
VERTEX
 8 
1
 10 
0.925
 20 
0.49217
 30 
0.0
 0 
VERTEX
 8 
1
 10 
0.9
 20 
0.4934
 30 
0.0
 0 
VERTEX
 8 
1
 10 
0.85
 20 
0.49585
 30 
0.0
 0 
VERTEX
 8 
1
 10 
0.8
 20 
0.4988
 30 
0.0
 0 
VERTEX
 8 
1
 10 
0.7
 20 
0.5052
 30 
0.0
 0 
VERTEX
 8 
1
 10 
0.6
 20 
0.5091
 30 
0.0
 0 
VERTEX
 8 
1
 10 
0.5
 20 
0.511
 30 
0.0
 0 
VERTEX
 8 
1
 10 
0.4
 20 
0.5109
 30 
0.0
 0 
VERTEX
 8 
1
 10 
0.3
 20 
0.5088
 30 
0.0
 0 
VERTEX
 8 
1
 10 
0.2
 20 
0.5062
 30 
0.0
 0 
VERTEX
 8 
1
 10 
0.1
 20 
0.5023
 30 
0.0
 0 
VERTEX
 8 
1
 10 
0.05
 20 
0.50105
 30 
0.0
 0 
VERTEX
 8 
1
 10 
0.0
 20 
0.5
 30 
0.0
 0 
SEQEND
 8 
1
 0 
ENDSEC
 0 
EOF
