 0 
SECTION
 2 
ENTITIES
 0 
POLYLINE
 8 
1
 66 
 1 
 10 
0.0
 20 
0.0
 30 
0.0
 0 
VERTEX
 8 
1
 10 
0.0
 20 
0.5008
 30 
0.0
 0 
VERTEX
 8 
1
 10 
0.05039
 20 
0.51253
 30 
0.0
 0 
VERTEX
 8 
1
 10 
0.10075
 20 
0.52427
 30 
0.0
 0 
VERTEX
 8 
1
 10 
0.20147
 20 
0.54723
 30 
0.0
 0 
VERTEX
 8 
1
 10 
0.30208
 20 
0.56691
 30 
0.0
 0 
VERTEX
 8 
1
 10 
0.40265
 20 
0.58508
 30 
0.0
 0 
VERTEX
 8 
1
 10 
0.50313
 20 
0.60055
 30 
0.0
 0 
VERTEX
 8 
1
 10 
0.60344
 20 
0.61073
 30 
0.0
 0 
VERTEX
 8 
1
 10 
0.7036
 20 
0.61562
 30 
0.0
 0 
VERTEX
 8 
1
 10 
0.80341
 20 
0.60981
 30 
0.0
 0 
VERTEX
 8 
1
 10 
0.85312
 20 
0.60037
 30 
0.0
 0 
VERTEX
 8 
1
 10 
0.90271
 20 
0.58713
 30 
0.0
 0 
VERTEX
 8 
1
 10 
0.9274
 20 
0.57726
 30 
0.0
 0 
VERTEX
 8 
1
 10 
0.95198
 20 
0.56369
 30 
0.0
 0 
VERTEX
 8 
1
 10 
0.97643
 20 
0.54593
 30 
0.0
 0 
VERTEX
 8 
1
 10 
0.98847
 20 
0.53126
 30 
0.0
 0 
VERTEX
 8 
1
 10 
1
 20 
0.5
 30 
0.0
 0 
VERTEX
 8 
1
 10 
0.98685
 20 
0.47911
 30 
0.0
 0 
VERTEX
 8 
1
 10 
0.9742
 20 
0.4742
 30 
0.0
 0 
VERTEX
 8 
1
 10 
0.94907
 20 
0.47018
 30 
0.0
 0 
VERTEX
 8 
1
 10 
0.92408
 20 
0.47046
 30 
0.0
 0 
VERTEX
 8 
1
 10 
0.89914
 20 
0.47234
 30 
0.0
 0 
VERTEX
 8 
1
 10 
0.84925
 20 
0.47599
 30 
0.0
 0 
VERTEX
 8 
1
 10 
0.79937
 20 
0.47964
 30 
0.0
 0 
VERTEX
 8 
1
 10 
0.6995
 20 
0.48385
 30 
0.0
 0 
VERTEX
 8 
1
 10 
0.59959
 20 
0.48695
 30 
0.0
 0 
VERTEX
 8 
1
 10 
0.49966
 20 
0.48896
 30 
0.0
 0 
VERTEX
 8 
1
 10 
0.39972
 20 
0.49107
 30 
0.0
 0 
VERTEX
 8 
1
 10 
0.29982
 20 
0.49418
 30 
0.0
 0 
VERTEX
 8 
1
 10 
0.19987
 20 
0.49568
 30 
0.0
 0 
VERTEX
 8 
1
 10 
0.09989
 20 
0.49659
 30 
0.0
 0 
VERTEX
 8 
1
 10 
0.04993
 20 
0.49765
 30 
0.0
 0 
VERTEX
 8 
1
 10 
0.0
 20 
0.4992
 30 
0.0
 0 
SEQEND
 8 
1
 0 
ENDSEC
 0 
EOF
