 0 
SECTION
 2 
ENTITIES
 0 
POLYLINE
 8 
1
 66 
 1 
 10 
0.0
 20 
0.0
 30 
0.0
 0 
VERTEX
 8 
1
 10 
0.0
 20 
0.5
 30 
0.0
 0 
VERTEX
 8 
1
 10 
0.05011
 20 
0.51621
 30 
0.0
 0 
VERTEX
 8 
1
 10 
0.10017
 20 
0.53076
 30 
0.0
 0 
VERTEX
 8 
1
 10 
0.20029
 20 
0.55302
 30 
0.0
 0 
VERTEX
 8 
1
 10 
0.3004
 20 
0.57388
 30 
0.0
 0 
VERTEX
 8 
1
 10 
0.4005
 20 
0.59264
 30 
0.0
 0 
VERTEX
 8 
1
 10 
0.50057
 20 
0.6064
 30 
0.0
 0 
VERTEX
 8 
1
 10 
0.60061
 20 
0.61326
 30 
0.0
 0 
VERTEX
 8 
1
 10 
0.70061
 20 
0.61372
 30 
0.0
 0 
VERTEX
 8 
1
 10 
0.80057
 20 
0.60638
 30 
0.0
 0 
VERTEX
 8 
1
 10 
0.85052
 20 
0.59601
 30 
0.0
 0 
VERTEX
 8 
1
 10 
0.90043
 20 
0.57884
 30 
0.0
 0 
VERTEX
 8 
1
 10 
0.92537
 20 
0.568
 30 
0.0
 0 
VERTEX
 8 
1
 10 
0.95029
 20 
0.55417
 30 
0.0
 0 
VERTEX
 8 
1
 10 
0.9752
 20 
0.53713
 30 
0.0
 0 
VERTEX
 8 
1
 10 
0.98764
 20 
0.52647
 30 
0.0
 0 
VERTEX
 8 
1
 10 
1
 20 
0.5
 30 
0.0
 0 
VERTEX
 8 
1
 10 
0.98742
 20 
0.48527
 30 
0.0
 0 
VERTEX
 8 
1
 10 
0.97491
 20 
0.48424
 30 
0.0
 0 
VERTEX
 8 
1
 10 
0.94992
 20 
0.48487
 30 
0.0
 0 
VERTEX
 8 
1
 10 
0.92493
 20 
0.48701
 30 
0.0
 0 
VERTEX
 8 
1
 10 
0.89994
 20 
0.48884
 30 
0.0
 0 
VERTEX
 8 
1
 10 
0.84995
 20 
0.49213
 30 
0.0
 0 
VERTEX
 8 
1
 10 
0.79997
 20 
0.49418
 30 
0.0
 0 
VERTEX
 8 
1
 10 
0.69998
 20 
0.49682
 30 
0.0
 0 
VERTEX
 8 
1
 10 
0.59999
 20 
0.49736
 30 
0.0
 0 
VERTEX
 8 
1
 10 
0.49999
 20 
0.4974
 30 
0.0
 0 
VERTEX
 8 
1
 10 
0.39998
 20 
0.49646
 30 
0.0
 0 
VERTEX
 8 
1
 10 
0.29997
 20 
0.49528
 30 
0.0
 0 
VERTEX
 8 
1
 10 
0.19997
 20 
0.49372
 30 
0.0
 0 
VERTEX
 8 
1
 10 
0.09995
 20 
0.49106
 30 
0.0
 0 
VERTEX
 8 
1
 10 
0.04994
 20 
0.49173
 30 
0.0
 0 
VERTEX
 8 
1
 10 
0.0
 20 
0.5
 30 
0.0
 0 
SEQEND
 8 
1
 0 
ENDSEC
 0 
EOF
