 0 
SECTION
 2 
ENTITIES
 0 
POLYLINE
 8 
1
 66 
 1 
 10 
0.0
 20 
0.0
 30 
0.0
 0 
VERTEX
 8 
1
 10 
0.0
 20 
0.5
 30 
0.0
 0 
VERTEX
 8 
1
 10 
0.05059
 20 
0.51503
 30 
0.0
 0 
VERTEX
 8 
1
 10 
0.10113
 20 
0.52906
 30 
0.0
 0 
VERTEX
 8 
1
 10 
0.20213
 20 
0.55462
 30 
0.0
 0 
VERTEX
 8 
1
 10 
0.30305
 20 
0.57818
 30 
0.0
 0 
VERTEX
 8 
1
 10 
0.40383
 20 
0.59825
 30 
0.0
 0 
VERTEX
 8 
1
 10 
0.50446
 20 
0.61433
 30 
0.0
 0 
VERTEX
 8 
1
 10 
0.60477
 20 
0.62241
 30 
0.0
 0 
VERTEX
 8 
1
 10 
0.70474
 20 
0.62152
 30 
0.0
 0 
VERTEX
 8 
1
 10 
0.80422
 20 
0.60814
 30 
0.0
 0 
VERTEX
 8 
1
 10 
0.85381
 20 
0.5977
 30 
0.0
 0 
VERTEX
 8 
1
 10 
0.90321
 20 
0.58227
 30 
0.0
 0 
VERTEX
 8 
1
 10 
0.9278
 20 
0.57182
 30 
0.0
 0 
VERTEX
 8 
1
 10 
0.95228
 20 
0.55836
 30 
0.0
 0 
VERTEX
 8 
1
 10 
0.97661
 20 
0.54141
 30 
0.0
 0 
VERTEX
 8 
1
 10 
0.98861
 20 
0.52844
 30 
0.0
 0 
VERTEX
 8 
1
 10 
1
 20 
0.5
 30 
0.0
 0 
VERTEX
 8 
1
 10 
0.98662
 20 
0.47752
 30 
0.0
 0 
VERTEX
 8 
1
 10 
0.97383
 20 
0.47002
 30 
0.0
 0 
VERTEX
 8 
1
 10 
0.94862
 20 
0.4645
 30 
0.0
 0 
VERTEX
 8 
1
 10 
0.92356
 20 
0.46298
 30 
0.0
 0 
VERTEX
 8 
1
 10 
0.89855
 20 
0.46296
 30 
0.0
 0 
VERTEX
 8 
1
 10 
0.84869
 20 
0.4664
 30 
0.0
 0 
VERTEX
 8 
1
 10 
0.79884
 20 
0.47035
 30 
0.0
 0 
VERTEX
 8 
1
 10 
0.69911
 20 
0.47723
 30 
0.0
 0 
VERTEX
 8 
1
 10 
0.5993
 20 
0.48213
 30 
0.0
 0 
VERTEX
 8 
1
 10 
0.49947
 20 
0.48652
 30 
0.0
 0 
VERTEX
 8 
1
 10 
0.39957
 20 
0.48892
 30 
0.0
 0 
VERTEX
 8 
1
 10 
0.29964
 20 
0.49081
 30 
0.0
 0 
VERTEX
 8 
1
 10 
0.19966
 20 
0.49121
 30 
0.0
 0 
VERTEX
 8 
1
 10 
0.09977
 20 
0.49411
 30 
0.0
 0 
VERTEX
 8 
1
 10 
0.04987
 20 
0.49656
 30 
0.0
 0 
VERTEX
 8 
1
 10 
0.0
 20 
0.5
 30 
0.0
 0 
SEQEND
 8 
1
 0 
ENDSEC
 0 
EOF
