 0 
SECTION
 2 
ENTITIES
 0 
POLYLINE
 8 
1
 66 
 1 
 10 
0.0
 20 
0.0
 30 
0.0
 0 
VERTEX
 8 
1
 10 
0.0
 20 
0.50055
 30 
0.0
 0 
VERTEX
 8 
1
 10 
0.05069
 20 
0.51294
 30 
0.0
 0 
VERTEX
 8 
1
 10 
0.10133
 20 
0.52482
 30 
0.0
 0 
VERTEX
 8 
1
 10 
0.20258
 20 
0.5481
 30 
0.0
 0 
VERTEX
 8 
1
 10 
0.30379
 20 
0.57078
 30 
0.0
 0 
VERTEX
 8 
1
 10 
0.405
 20 
0.59346
 30 
0.0
 0 
VERTEX
 8 
1
 10 
0.50599
 20 
0.61185
 30 
0.0
 0 
VERTEX
 8 
1
 10 
0.60663
 20 
0.62376
 30 
0.0
 0 
VERTEX
 8 
1
 10 
0.70663
 20 
0.62381
 30 
0.0
 0 
VERTEX
 8 
1
 10 
0.80589
 20 
0.60999
 30 
0.0
 0 
VERTEX
 8 
1
 10 
0.85517
 20 
0.59666
 30 
0.0
 0 
VERTEX
 8 
1
 10 
0.90427
 20 
0.57973
 30 
0.0
 0 
VERTEX
 8 
1
 10 
0.92867
 20 
0.56862
 30 
0.0
 0 
VERTEX
 8 
1
 10 
0.95297
 20 
0.55542
 30 
0.0
 0 
VERTEX
 8 
1
 10 
0.977
 20 
0.53743
 30 
0.0
 0 
VERTEX
 8 
1
 10 
0.98883
 20 
0.5249
 30 
0.0
 0 
VERTEX
 8 
1
 10 
1
 20 
0.5
 30 
0.0
 0 
VERTEX
 8 
1
 10 
0.98652
 20 
0.48172
 30 
0.0
 0 
VERTEX
 8 
1
 10 
0.9738
 20 
0.4776
 30 
0.0
 0 
VERTEX
 8 
1
 10 
0.94855
 20 
0.47296
 30 
0.0
 0 
VERTEX
 8 
1
 10 
0.92333
 20 
0.46891
 30 
0.0
 0 
VERTEX
 8 
1
 10 
0.89826
 20 
0.46755
 30 
0.0
 0 
VERTEX
 8 
1
 10 
0.84812
 20 
0.46483
 30 
0.0
 0 
VERTEX
 8 
1
 10 
0.79803
 20 
0.46322
 30 
0.0
 0 
VERTEX
 8 
1
 10 
0.69805
 20 
0.46367
 30 
0.0
 0 
VERTEX
 8 
1
 10 
0.59825
 20 
0.46741
 30 
0.0
 0 
VERTEX
 8 
1
 10 
0.49864
 20 
0.47455
 30 
0.0
 0 
VERTEX
 8 
1
 10 
0.39903
 20 
0.48188
 30 
0.0
 0 
VERTEX
 8 
1
 10 
0.2994
 20 
0.48782
 30 
0.0
 0 
VERTEX
 8 
1
 10 
0.19957
 20 
0.49196
 30 
0.0
 0 
VERTEX
 8 
1
 10 
0.099740
 20 
0.49521
 30 
0.0
 0 
VERTEX
 8 
1
 10 
0.04983
 20 
0.49678
 30 
0.0
 0 
VERTEX
 8 
1
 10 
0.0
 20 
0.49945
 30 
0.0
 0 
SEQEND
 8 
1
 0 
ENDSEC
 0 
EOF
