 0 
SECTION
 2 
ENTITIES
 0 
POLYLINE
 8 
1
 66 
 1 
 10 
0.0
 20 
0.0
 30 
0.0
 0 
VERTEX
 8 
1
 10 
0.0
 20 
0.50055
 30 
0.0
 0 
VERTEX
 8 
1
 10 
0.05009
 20 
0.50844
 30 
0.0
 0 
VERTEX
 8 
1
 10 
0.10016
 20 
0.51563
 30 
0.0
 0 
VERTEX
 8 
1
 10 
0.20032
 20 
0.53112
 30 
0.0
 0 
VERTEX
 8 
1
 10 
0.30045
 20 
0.5439
 30 
0.0
 0 
VERTEX
 8 
1
 10 
0.40056
 20 
0.55538
 30 
0.0
 0 
VERTEX
 8 
1
 10 
0.50066
 20 
0.56517
 30 
0.0
 0 
VERTEX
 8 
1
 10 
0.60075
 20 
0.57375
 30 
0.0
 0 
VERTEX
 8 
1
 10 
0.70079
 20 
0.57814
 30 
0.0
 0 
VERTEX
 8 
1
 10 
0.80077
 20 
0.57602
 30 
0.0
 0 
VERTEX
 8 
1
 10 
0.85071
 20 
0.57062
 30 
0.0
 0 
VERTEX
 8 
1
 10 
0.90061
 20 
0.56001
 30 
0.0
 0 
VERTEX
 8 
1
 10 
0.92554
 20 
0.55276
 30 
0.0
 0 
VERTEX
 8 
1
 10 
0.95043
 20 
0.5423
 30 
0.0
 0 
VERTEX
 8 
1
 10 
0.97527
 20 
0.52705
 30 
0.0
 0 
VERTEX
 8 
1
 10 
0.98767
 20 
0.51673
 30 
0.0
 0 
VERTEX
 8 
1
 10 
1
 20 
0.5
 30 
0.0
 0 
VERTEX
 8 
1
 10 
0.98746
 20 
0.4953
 30 
0.0
 0 
VERTEX
 8 
1
 10 
0.97495
 20 
0.4944
 30 
0.0
 0 
VERTEX
 8 
1
 10 
0.94993
 20 
0.4929
 30 
0.0
 0 
VERTEX
 8 
1
 10 
0.92492
 20 
0.4916
 30 
0.0
 0 
VERTEX
 8 
1
 10 
0.89991
 20 
0.49082
 30 
0.0
 0 
VERTEX
 8 
1
 10 
0.84991
 20 
0.49082
 30 
0.0
 0 
VERTEX
 8 
1
 10 
0.79991
 20 
0.49133
 30 
0.0
 0 
VERTEX
 8 
1
 10 
0.69995
 20 
0.49505
 30 
0.0
 0 
VERTEX
 8 
1
 10 
0.59999
 20 
0.49876
 30 
0.0
 0 
VERTEX
 8 
1
 10 
0.50002
 20 
0.50187
 30 
0.0
 0 
VERTEX
 8 
1
 10 
0.40002
 20 
0.50239
 30 
0.0
 0 
VERTEX
 8 
1
 10 
0.30003
 20 
0.5028
 30 
0.0
 0 
VERTEX
 8 
1
 10 
0.20003
 20 
0.50282
 30 
0.0
 0 
VERTEX
 8 
1
 10 
0.10001
 20 
0.50053
 30 
0.0
 0 
VERTEX
 8 
1
 10 
0.04999
 20 
0.49944
 30 
0.0
 0 
VERTEX
 8 
1
 10 
0.0
 20 
0.49945
 30 
0.0
 0 
SEQEND
 8 
1
 0 
ENDSEC
 0 
EOF
