 0 
SECTION
 2 
ENTITIES
 0 
POLYLINE
 8 
1
 66 
 1 
 10 
0.0
 20 
0.0
 30 
0.0
 0 
VERTEX
 8 
1
 10 
0.0
 20 
0.5
 30 
0.0
 0 
VERTEX
 8 
1
 10 
0.05
 20 
0.51202
 30 
0.0
 0 
VERTEX
 8 
1
 10 
0.1
 20 
0.52355
 30 
0.0
 0 
VERTEX
 8 
1
 10 
0.2
 20 
0.5446
 30 
0.0
 0 
VERTEX
 8 
1
 10 
0.3
 20 
0.56215
 30 
0.0
 0 
VERTEX
 8 
1
 10 
0.4
 20 
0.5772
 30 
0.0
 0 
VERTEX
 8 
1
 10 
0.5
 20 
0.58925
 30 
0.0
 0 
VERTEX
 8 
1
 10 
0.6
 20 
0.5958
 30 
0.0
 0 
VERTEX
 8 
1
 10 
0.7
 20 
0.59685
 30 
0.0
 0 
VERTEX
 8 
1
 10 
0.8
 20 
0.5889
 30 
0.0
 0 
VERTEX
 8 
1
 10 
0.85
 20 
0.58092
 30 
0.0
 0 
VERTEX
 8 
1
 10 
0.9
 20 
0.56845
 30 
0.0
 0 
VERTEX
 8 
1
 10 
0.925
 20 
0.55971
 30 
0.0
 0 
VERTEX
 8 
1
 10 
0.95
 20 
0.54858
 30 
0.0
 0 
VERTEX
 8 
1
 10 
0.975
 20 
0.53524
 30 
0.0
 0 
VERTEX
 8 
1
 10 
0.9875
 20 
0.52637
 30 
0.0
 0 
VERTEX
 8 
1
 10 
1
 20 
0.5
 30 
0.0
 0 
VERTEX
 8 
1
 10 
0.9875
 20 
0.48587
 30 
0.0
 0 
VERTEX
 8 
1
 10 
0.975
 20 
0.48124
 30 
0.0
 0 
VERTEX
 8 
1
 10 
0.95
 20 
0.47747
 30 
0.0
 0 
VERTEX
 8 
1
 10 
0.925
 20 
0.47571
 30 
0.0
 0 
VERTEX
 8 
1
 10 
0.9
 20 
0.47495
 30 
0.0
 0 
VERTEX
 8 
1
 10 
0.85
 20 
0.47543
 30 
0.0
 0 
VERTEX
 8 
1
 10 
0.8
 20 
0.4769
 30 
0.0
 0 
VERTEX
 8 
1
 10 
0.7
 20 
0.48085
 30 
0.0
 0 
VERTEX
 8 
1
 10 
0.6
 20 
0.4843
 30 
0.0
 0 
VERTEX
 8 
1
 10 
0.5
 20 
0.48775
 30 
0.0
 0 
VERTEX
 8 
1
 10 
0.4
 20 
0.4912
 30 
0.0
 0 
VERTEX
 8 
1
 10 
0.3
 20 
0.49415
 30 
0.0
 0 
VERTEX
 8 
1
 10 
0.2
 20 
0.4966
 30 
0.0
 0 
VERTEX
 8 
1
 10 
0.1
 20 
0.49805
 30 
0.0
 0 
VERTEX
 8 
1
 10 
0.05
 20 
0.49903
 30 
0.0
 0 
VERTEX
 8 
1
 10 
0.0
 20 
0.5
 30 
0.0
 0 
SEQEND
 8 
1
 0 
ENDSEC
 0 
EOF
