 0 
SECTION
 2 
ENTITIES
 0 
POLYLINE
 8 
1
 66 
 1 
 10 
0.0
 20 
0.0
 30 
0.0
 0 
VERTEX
 8 
1
 10 
0.0
 20 
0.5
 30 
0.0
 0 
VERTEX
 8 
1
 10 
0.1
 20 
0.5217
 30 
0.0
 0 
VERTEX
 8 
1
 10 
0.2
 20 
0.5404
 30 
0.0
 0 
VERTEX
 8 
1
 10 
0.3
 20 
0.5571
 30 
0.0
 0 
VERTEX
 8 
1
 10 
0.4
 20 
0.5718
 30 
0.0
 0 
VERTEX
 8 
1
 10 
0.5
 20 
0.5825
 30 
0.0
 0 
VERTEX
 8 
1
 10 
0.6
 20 
0.5892
 30 
0.0
 0 
VERTEX
 8 
1
 10 
0.7
 20 
0.5904
 30 
0.0
 0 
VERTEX
 8 
1
 10 
0.8
 20 
0.5831
 30 
0.0
 0 
VERTEX
 8 
1
 10 
0.9
 20 
0.5608
 30 
0.0
 0 
VERTEX
 8 
1
 10 
0.925
 20 
0.5516
 30 
0.0
 0 
VERTEX
 8 
1
 10 
0.95
 20 
0.5409
 30 
0.0
 0 
VERTEX
 8 
1
 10 
0.975
 20 
0.5257
 30 
0.0
 0 
VERTEX
 8 
1
 10 
0.9875
 20 
0.5171
 30 
0.0
 0 
VERTEX
 8 
1
 10 
1
 20 
0.5
 30 
0.0
 0 
VERTEX
 8 
1
 10 
0.9875
 20 
0.4941
 30 
0.0
 0 
VERTEX
 8 
1
 10 
0.975
 20 
0.4927
 30 
0.0
 0 
VERTEX
 8 
1
 10 
0.95
 20 
0.4929
 30 
0.0
 0 
VERTEX
 8 
1
 10 
0.925
 20 
0.4941
 30 
0.0
 0 
VERTEX
 8 
1
 10 
0.9
 20 
0.4968
 30 
0.0
 0 
VERTEX
 8 
1
 10 
0.8
 20 
0.5056
 30 
0.0
 0 
VERTEX
 8 
1
 10 
0.7
 20 
0.5114
 30 
0.0
 0 
VERTEX
 8 
1
 10 
0.6
 20 
0.5152
 30 
0.0
 0 
VERTEX
 8 
1
 10 
0.5
 20 
0.517
 30 
0.0
 0 
VERTEX
 8 
1
 10 
0.4
 20 
0.5163
 30 
0.0
 0 
VERTEX
 8 
1
 10 
0.3
 20 
0.5136
 30 
0.0
 0 
VERTEX
 8 
1
 10 
0.2
 20 
0.5094
 30 
0.0
 0 
VERTEX
 8 
1
 10 
0.1
 20 
0.5052
 30 
0.0
 0 
VERTEX
 8 
1
 10 
0.0
 20 
0.5
 30 
0.0
 0 
SEQEND
 8 
1
 0 
ENDSEC
 0 
EOF
