 0 
SECTION
 2 
ENTITIES
 0 
POLYLINE
 8 
1
 66 
 1 
 10 
0.0
 20 
0.0
 30 
0.0
 0 
VERTEX
 8 
1
 10 
0.0
 20 
0.5
 30 
0.0
 0 
VERTEX
 8 
1
 10 
0.05
 20 
0.512
 30 
0.0
 0 
VERTEX
 8 
1
 10 
0.1
 20 
0.52
 30 
0.0
 0 
VERTEX
 8 
1
 10 
0.2
 20 
0.535
 30 
0.0
 0 
VERTEX
 8 
1
 10 
0.3
 20 
0.549
 30 
0.0
 0 
VERTEX
 8 
1
 10 
0.4
 20 
0.559
 30 
0.0
 0 
VERTEX
 8 
1
 10 
0.5
 20 
0.567
 30 
0.0
 0 
VERTEX
 8 
1
 10 
0.6
 20 
0.5705
 30 
0.0
 0 
VERTEX
 8 
1
 10 
0.7
 20 
0.57
 30 
0.0
 0 
VERTEX
 8 
1
 10 
0.8
 20 
0.5625
 30 
0.0
 0 
VERTEX
 8 
1
 10 
0.85
 20 
0.555
 30 
0.0
 0 
VERTEX
 8 
1
 10 
0.9
 20 
0.5445
 30 
0.0
 0 
VERTEX
 8 
1
 10 
0.925
 20 
0.538
 30 
0.0
 0 
VERTEX
 8 
1
 10 
0.95
 20 
0.5295
 30 
0.0
 0 
VERTEX
 8 
1
 10 
0.975
 20 
0.519
 30 
0.0
 0 
VERTEX
 8 
1
 10 
0.9875
 20 
0.5135
 30 
0.0
 0 
VERTEX
 8 
1
 10 
1
 20 
0.505
 30 
0.0
 0 
VERTEX
 8 
1
 10 
0.9875
 20 
0.5005
 30 
0.0
 0 
VERTEX
 8 
1
 10 
0.975
 20 
0.5
 30 
0.0
 0 
VERTEX
 8 
1
 10 
0.95
 20 
0.501
 30 
0.0
 0 
VERTEX
 8 
1
 10 
0.925
 20 
0.503
 30 
0.0
 0 
VERTEX
 8 
1
 10 
0.9
 20 
0.505
 30 
0.0
 0 
VERTEX
 8 
1
 10 
0.85
 20 
0.509
 30 
0.0
 0 
VERTEX
 8 
1
 10 
0.8
 20 
0.5125
 30 
0.0
 0 
VERTEX
 8 
1
 10 
0.7
 20 
0.517
 30 
0.0
 0 
VERTEX
 8 
1
 10 
0.6
 20 
0.5175
 30 
0.0
 0 
VERTEX
 8 
1
 10 
0.5
 20 
0.5155
 30 
0.0
 0 
VERTEX
 8 
1
 10 
0.4
 20 
0.513
 30 
0.0
 0 
VERTEX
 8 
1
 10 
0.3
 20 
0.5095
 30 
0.0
 0 
VERTEX
 8 
1
 10 
0.2
 20 
0.506
 30 
0.0
 0 
VERTEX
 8 
1
 10 
0.1
 20 
0.503
 30 
0.0
 0 
VERTEX
 8 
1
 10 
0.05
 20 
0.5015
 30 
0.0
 0 
VERTEX
 8 
1
 10 
0.0
 20 
0.5
 30 
0.0
 0 
SEQEND
 8 
1
 0 
ENDSEC
 0 
EOF
