 0 
SECTION
 2 
ENTITIES
 0 
POLYLINE
 8 
1
 66 
 1 
 10 
0.0
 20 
0.0
 30 
0.0
 0 
VERTEX
 8 
1
 10 
0.0
 20 
0.5
 30 
0.0
 0 
VERTEX
 8 
1
 10 
0.0501
 20 
0.51105
 30 
0.0
 0 
VERTEX
 8 
1
 10 
0.10019
 20 
0.5212
 30 
0.0
 0 
VERTEX
 8 
1
 10 
0.20034
 20 
0.5382
 30 
0.0
 0 
VERTEX
 8 
1
 10 
0.30047
 20 
0.5518
 30 
0.0
 0 
VERTEX
 8 
1
 10 
0.40057
 20 
0.56289
 30 
0.0
 0 
VERTEX
 8 
1
 10 
0.50064
 20 
0.57099
 30 
0.0
 0 
VERTEX
 8 
1
 10 
0.6007
 20 
0.57759
 30 
0.0
 0 
VERTEX
 8 
1
 10 
0.70072
 20 
0.58019
 30 
0.0
 0 
VERTEX
 8 
1
 10 
0.80068
 20 
0.57579
 30 
0.0
 0 
VERTEX
 8 
1
 10 
0.85062
 20 
0.56934
 30 
0.0
 0 
VERTEX
 8 
1
 10 
0.90054
 20 
0.5599
 30 
0.0
 0 
VERTEX
 8 
1
 10 
0.92548
 20 
0.55367
 30 
0.0
 0 
VERTEX
 8 
1
 10 
0.9504
 20 
0.54445
 30 
0.0
 0 
VERTEX
 8 
1
 10 
0.97528
 20 
0.53072
 30 
0.0
 0 
VERTEX
 8 
1
 10 
0.98769
 20 
0.52111
 30 
0.0
 0 
VERTEX
 8 
1
 10 
1
 20 
0.5
 30 
0.0
 0 
VERTEX
 8 
1
 10 
0.98744
 20 
0.49311
 30 
0.0
 0 
VERTEX
 8 
1
 10 
0.97492
 20 
0.49123
 30 
0.0
 0 
VERTEX
 8 
1
 10 
0.94992
 20 
0.49145
 30 
0.0
 0 
VERTEX
 8 
1
 10 
0.92493
 20 
0.49268
 30 
0.0
 0 
VERTEX
 8 
1
 10 
0.89994
 20 
0.4934
 30 
0.0
 0 
VERTEX
 8 
1
 10 
0.84996
 20 
0.49585
 30 
0.0
 0 
VERTEX
 8 
1
 10 
0.79999
 20 
0.4988
 30 
0.0
 0 
VERTEX
 8 
1
 10 
0.70005
 20 
0.5052
 30 
0.0
 0 
VERTEX
 8 
1
 10 
0.60008
 20 
0.5091
 30 
0.0
 0 
VERTEX
 8 
1
 10 
0.5001
 20 
0.511
 30 
0.0
 0 
VERTEX
 8 
1
 10 
0.4001
 20 
0.5109
 30 
0.0
 0 
VERTEX
 8 
1
 10 
0.30008
 20 
0.5088
 30 
0.0
 0 
VERTEX
 8 
1
 10 
0.20006
 20 
0.5062
 30 
0.0
 0 
VERTEX
 8 
1
 10 
0.10002
 20 
0.5023
 30 
0.0
 0 
VERTEX
 8 
1
 10 
0.05001
 20 
0.50105
 30 
0.0
 0 
VERTEX
 8 
1
 10 
0.0
 20 
0.5
 30 
0.0
 0 
SEQEND
 8 
1
 0 
ENDSEC
 0 
EOF
