 0 
SECTION
 2 
ENTITIES
 0 
POLYLINE
 8 
1
 66 
 1 
 10 
0.0
 20 
0.0
 30 
0.0
 0 
VERTEX
 8 
1
 10 
0.0
 20 
0.5
 30 
0.0
 0 
VERTEX
 8 
1
 10 
0.05087
 20 
0.51748
 30 
0.0
 0 
VERTEX
 8 
1
 10 
0.10163
 20 
0.53297
 30 
0.0
 0 
VERTEX
 8 
1
 10 
0.20307
 20 
0.56195
 30 
0.0
 0 
VERTEX
 8 
1
 10 
0.30423
 20 
0.58544
 30 
0.0
 0 
VERTEX
 8 
1
 10 
0.40522
 20 
0.60544
 30 
0.0
 0 
VERTEX
 8 
1
 10 
0.50594
 20 
0.61996
 30 
0.0
 0 
VERTEX
 8 
1
 10 
0.60633
 20 
0.62799
 30 
0.0
 0 
VERTEX
 8 
1
 10 
0.70631
 20 
0.62754
 30 
0.0
 0 
VERTEX
 8 
1
 10 
0.80577
 20 
0.61661
 30 
0.0
 0 
VERTEX
 8 
1
 10 
0.8552
 20 
0.60517
 30 
0.0
 0 
VERTEX
 8 
1
 10 
0.90447
 20 
0.59023
 30 
0.0
 0 
VERTEX
 8 
1
 10 
0.92891
 20 
0.57902
 30 
0.0
 0 
VERTEX
 8 
1
 10 
0.95326
 20 
0.56581
 30 
0.0
 0 
VERTEX
 8 
1
 10 
0.97741
 20 
0.54862
 30 
0.0
 0 
VERTEX
 8 
1
 10 
0.98931
 20 
0.53653
 30 
0.0
 0 
VERTEX
 8 
1
 10 
1
 20 
0.5
 30 
0.0
 0 
VERTEX
 8 
1
 10 
0.98659
 20 
0.48166
 30 
0.0
 0 
VERTEX
 8 
1
 10 
0.97373
 20 
0.4743
 30 
0.0
 0 
VERTEX
 8 
1
 10 
0.94834
 20 
0.46656
 30 
0.0
 0 
VERTEX
 8 
1
 10 
0.92316
 20 
0.4628
 30 
0.0
 0 
VERTEX
 8 
1
 10 
0.89802
 20 
0.46005
 30 
0.0
 0 
VERTEX
 8 
1
 10 
0.84797
 20 
0.45903
 30 
0.0
 0 
VERTEX
 8 
1
 10 
0.79804
 20 
0.4605
 30 
0.0
 0 
VERTEX
 8 
1
 10 
0.69846
 20 
0.46893
 30 
0.0
 0 
VERTEX
 8 
1
 10 
0.599
 20 
0.47985
 30 
0.0
 0 
VERTEX
 8 
1
 10 
0.49954
 20 
0.49077
 30 
0.0
 0 
VERTEX
 8 
1
 10 
0.40003
 20 
0.5007
 30 
0.0
 0 
VERTEX
 8 
1
 10 
0.30033
 20 
0.50663
 30 
0.0
 0 
VERTEX
 8 
1
 10 
0.20042
 20 
0.50858
 30 
0.0
 0 
VERTEX
 8 
1
 10 
0.10032
 20 
0.50653
 30 
0.0
 0 
VERTEX
 8 
1
 10 
0.0502
 20 
0.50411
 30 
0.0
 0 
VERTEX
 8 
1
 10 
0.0
 20 
0.5
 30 
0.0
 0 
SEQEND
 8 
1
 0 
ENDSEC
 0 
EOF
