 0 
SECTION
 2 
ENTITIES
 0 
POLYLINE
 8 
1
 66 
 1 
 10 
0.0
 20 
0.0
 30 
0.0
 0 
VERTEX
 8 
1
 10 
0.0
 20 
0.50135
 30 
0.0
 0 
VERTEX
 8 
1
 10 
0.05062
 20 
0.5203
 30 
0.0
 0 
VERTEX
 8 
1
 10 
0.10117
 20 
0.53816
 30 
0.0
 0 
VERTEX
 8 
1
 10 
0.20215
 20 
0.57047
 30 
0.0
 0 
VERTEX
 8 
1
 10 
0.30301
 20 
0.59839
 30 
0.0
 0 
VERTEX
 8 
1
 10 
0.40372
 20 
0.62192
 30 
0.0
 0 
VERTEX
 8 
1
 10 
0.5042
 20 
0.63755
 30 
0.0
 0 
VERTEX
 8 
1
 10 
0.60458
 20 
0.64988
 30 
0.0
 0 
VERTEX
 8 
1
 10 
0.70466
 20 
0.65262
 30 
0.0
 0 
VERTEX
 8 
1
 10 
0.80425
 20 
0.63898
 30 
0.0
 0 
VERTEX
 8 
1
 10 
0.85379
 20 
0.62417
 30 
0.0
 0 
VERTEX
 8 
1
 10 
0.9031
 20 
0.60136
 30 
0.0
 0 
VERTEX
 8 
1
 10 
0.92764
 20 
0.58631
 30 
0.0
 0 
VERTEX
 8 
1
 10 
0.95203
 20 
0.56637
 30 
0.0
 0 
VERTEX
 8 
1
 10 
0.97632
 20 
0.54332
 30 
0.0
 0 
VERTEX
 8 
1
 10 
0.98841
 20 
0.52965
 30 
0.0
 0 
VERTEX
 8 
1
 10 
1
 20 
0.5
 30 
0.0
 0 
VERTEX
 8 
1
 10 
0.98686
 20 
0.4791
 30 
0.0
 0 
VERTEX
 8 
1
 10 
0.97421
 20 
0.47419
 30 
0.0
 0 
VERTEX
 8 
1
 10 
0.94911
 20 
0.47075
 30 
0.0
 0 
VERTEX
 8 
1
 10 
0.9241
 20 
0.47042
 30 
0.0
 0 
VERTEX
 8 
1
 10 
0.89915
 20 
0.47228
 30 
0.0
 0 
VERTEX
 8 
1
 10 
0.84927
 20 
0.4762
 30 
0.0
 0 
VERTEX
 8 
1
 10 
0.79946
 20 
0.48223
 30 
0.0
 0 
VERTEX
 8 
1
 10 
0.69979
 20 
0.49327
 30 
0.0
 0 
VERTEX
 8 
1
 10 
0.60016
 20 
0.50512
 30 
0.0
 0 
VERTEX
 8 
1
 10 
0.5005
 20 
0.51636
 30 
0.0
 0 
VERTEX
 8 
1
 10 
0.40072
 20 
0.52361
 30 
0.0
 0 
VERTEX
 8 
1
 10 
0.30081
 20 
0.52666
 30 
0.0
 0 
VERTEX
 8 
1
 10 
0.20076
 20 
0.52492
 30 
0.0
 0 
VERTEX
 8 
1
 10 
0.10044
 20 
0.51438
 30 
0.0
 0 
VERTEX
 8 
1
 10 
0.05024
 20 
0.50772
 30 
0.0
 0 
VERTEX
 8 
1
 10 
0.0
 20 
0.49865
 30 
0.0
 0 
SEQEND
 8 
1
 0 
ENDSEC
 0 
EOF
