 0 
SECTION
 2 
ENTITIES
 0 
POLYLINE
 8 
1
 66 
 1 
 10 
0.0
 20 
0.0
 30 
0.0
 0 
VERTEX
 8 
1
 10 
0.0
 20 
0.5
 30 
0.0
 0 
VERTEX
 8 
1
 10 
0.05097
 20 
0.5183
 30 
0.0
 0 
VERTEX
 8 
1
 10 
0.10186
 20 
0.5351
 30 
0.0
 0 
VERTEX
 8 
1
 10 
0.20356
 20 
0.56721
 30 
0.0
 0 
VERTEX
 8 
1
 10 
0.30489
 20 
0.59234
 30 
0.0
 0 
VERTEX
 8 
1
 10 
0.40593
 20 
0.61099
 30 
0.0
 0 
VERTEX
 8 
1
 10 
0.50639
 20 
0.62066
 30 
0.0
 0 
VERTEX
 8 
1
 10 
0.6067
 20 
0.62634
 30 
0.0
 0 
VERTEX
 8 
1
 10 
0.70671
 20 
0.62654
 30 
0.0
 0 
VERTEX
 8 
1
 10 
0.80624
 20 
0.61777
 30 
0.0
 0 
VERTEX
 8 
1
 10 
0.85557
 20 
0.60515
 30 
0.0
 0 
VERTEX
 8 
1
 10 
0.90469
 20 
0.58855
 30 
0.0
 0 
VERTEX
 8 
1
 10 
0.92896
 20 
0.57476
 30 
0.0
 0 
VERTEX
 8 
1
 10 
0.95312
 20 
0.55898
 30 
0.0
 0 
VERTEX
 8 
1
 10 
0.97697
 20 
0.53722
 30 
0.0
 0 
VERTEX
 8 
1
 10 
0.98878
 20 
0.52409
 30 
0.0
 0 
VERTEX
 8 
1
 10 
1
 20 
0.5
 30 
0.0
 0 
VERTEX
 8 
1
 10 
0.98682
 20 
0.4872
 30 
0.0
 0 
VERTEX
 8 
1
 10 
0.97406
 20 
0.48237
 30 
0.0
 0 
VERTEX
 8 
1
 10 
0.94866
 20 
0.47472
 30 
0.0
 0 
VERTEX
 8 
1
 10 
0.92336
 20 
0.46906
 30 
0.0
 0 
VERTEX
 8 
1
 10 
0.89811
 20 
0.4644
 30 
0.0
 0 
VERTEX
 8 
1
 10 
0.84783
 20 
0.45907
 30 
0.0
 0 
VERTEX
 8 
1
 10 
0.79781
 20 
0.45872
 30 
0.0
 0 
VERTEX
 8 
1
 10 
0.69798
 20 
0.46201
 30 
0.0
 0 
VERTEX
 8 
1
 10 
0.59827
 20 
0.46729
 30 
0.0
 0 
VERTEX
 8 
1
 10 
0.49855
 20 
0.47258
 30 
0.0
 0 
VERTEX
 8 
1
 10 
0.39883
 20 
0.47786
 30 
0.0
 0 
VERTEX
 8 
1
 10 
0.29911
 20 
0.48315
 30 
0.0
 0 
VERTEX
 8 
1
 10 
0.19939
 20 
0.48843
 30 
0.0
 0 
VERTEX
 8 
1
 10 
0.09967
 20 
0.49372
 30 
0.0
 0 
VERTEX
 8 
1
 10 
0.04981
 20 
0.49636
 30 
0.0
 0 
VERTEX
 8 
1
 10 
0.0
 20 
0.5
 30 
0.0
 0 
SEQEND
 8 
1
 0 
ENDSEC
 0 
EOF
