 0 
SECTION
 2 
ENTITIES
 0 
POLYLINE
 8 
1
 66 
 1 
 10 
0.0
 20 
0.0
 30 
0.0
 0 
VERTEX
 8 
1
 10 
0.0
 20 
0.5
 30 
0.0
 0 
VERTEX
 8 
1
 10 
0.05
 20 
0.50647
 30 
0.0
 0 
VERTEX
 8 
1
 10 
0.10001
 20 
0.51245
 30 
0.0
 0 
VERTEX
 8 
1
 10 
0.20001
 20 
0.5249
 30 
0.0
 0 
VERTEX
 8 
1
 10 
0.30002
 20 
0.53685
 30 
0.0
 0 
VERTEX
 8 
1
 10 
0.40002
 20 
0.5493
 30 
0.0
 0 
VERTEX
 8 
1
 10 
0.50003
 20 
0.55925
 30 
0.0
 0 
VERTEX
 8 
1
 10 
0.60003
 20 
0.5672
 30 
0.0
 0 
VERTEX
 8 
1
 10 
0.70003
 20 
0.56865
 30 
0.0
 0 
VERTEX
 8 
1
 10 
0.80003
 20 
0.5596
 30 
0.0
 0 
VERTEX
 8 
1
 10 
0.85003
 20 
0.55107
 30 
0.0
 0 
VERTEX
 8 
1
 10 
0.90002
 20 
0.54005
 30 
0.0
 0 
VERTEX
 8 
1
 10 
0.92502
 20 
0.53304
 30 
0.0
 0 
VERTEX
 8 
1
 10 
0.95001
 20 
0.52552
 30 
0.0
 0 
VERTEX
 8 
1
 10 
0.97501
 20 
0.51651
 30 
0.0
 0 
VERTEX
 8 
1
 10 
0.98751
 20 
0.51101
 30 
0.0
 0 
VERTEX
 8 
1
 10 
1
 20 
0.5
 30 
0.0
 0 
VERTEX
 8 
1
 10 
0.9875
 20 
0.49501
 30 
0.0
 0 
VERTEX
 8 
1
 10 
0.975
 20 
0.49501
 30 
0.0
 0 
VERTEX
 8 
1
 10 
0.95
 20 
0.49653
 30 
0.0
 0 
VERTEX
 8 
1
 10 
0.925
 20 
0.49904
 30 
0.0
 0 
VERTEX
 8 
1
 10 
0.9
 20 
0.50155
 30 
0.0
 0 
VERTEX
 8 
1
 10 
0.85
 20 
0.50607
 30 
0.0
 0 
VERTEX
 8 
1
 10 
0.8
 20 
0.5091
 30 
0.0
 0 
VERTEX
 8 
1
 10 
0.70001
 20 
0.51165
 30 
0.0
 0 
VERTEX
 8 
1
 10 
0.60001
 20 
0.5107
 30 
0.0
 0 
VERTEX
 8 
1
 10 
0.5
 20 
0.50525
 30 
0.0
 0 
VERTEX
 8 
1
 10 
0.4
 20 
0.5003
 30 
0.0
 0 
VERTEX
 8 
1
 10 
0.3
 20 
0.49585
 30 
0.0
 0 
VERTEX
 8 
1
 10 
0.2
 20 
0.4954
 30 
0.0
 0 
VERTEX
 8 
1
 10 
0.1
 20 
0.49595
 30 
0.0
 0 
VERTEX
 8 
1
 10 
0.05
 20 
0.49748
 30 
0.0
 0 
VERTEX
 8 
1
 10 
0.0
 20 
0.5
 30 
0.0
 0 
SEQEND
 8 
1
 0 
ENDSEC
 0 
EOF
