 0 
SECTION
 2 
ENTITIES
 0 
POLYLINE
 8 
1
 66 
 1 
 10 
0.0
 20 
0.0
 30 
0.0
 0 
VERTEX
 8 
1
 10 
0.0
 20 
0.5
 30 
0.0
 0 
VERTEX
 8 
1
 10 
0.05
 20 
0.51445
 30 
0.0
 0 
VERTEX
 8 
1
 10 
0.1
 20 
0.5294
 30 
0.0
 0 
VERTEX
 8 
1
 10 
0.2
 20 
0.5583
 30 
0.0
 0 
VERTEX
 8 
1
 10 
0.3
 20 
0.5862
 30 
0.0
 0 
VERTEX
 8 
1
 10 
0.4
 20 
0.6101
 30 
0.0
 0 
VERTEX
 8 
1
 10 
0.5
 20 
0.6275
 30 
0.0
 0 
VERTEX
 8 
1
 10 
0.6
 20 
0.6374
 30 
0.0
 0 
VERTEX
 8 
1
 10 
0.7
 20 
0.6363
 30 
0.0
 0 
VERTEX
 8 
1
 10 
0.8
 20 
0.6242
 30 
0.0
 0 
VERTEX
 8 
1
 10 
0.85
 20 
0.61365
 30 
0.0
 0 
VERTEX
 8 
1
 10 
0.9
 20 
0.5961
 30 
0.0
 0 
VERTEX
 8 
1
 10 
0.925
 20 
0.58408
 30 
0.0
 0 
VERTEX
 8 
1
 10 
0.95
 20 
0.56805
 30 
0.0
 0 
VERTEX
 8 
1
 10 
0.975
 20 
0.54753
 30 
0.0
 0 
VERTEX
 8 
1
 10 
0.9875
 20 
0.53101
 30 
0.0
 0 
VERTEX
 8 
1
 10 
1
 20 
0.5
 30 
0.0
 0 
VERTEX
 8 
1
 10 
0.9875
 20 
0.47901
 30 
0.0
 0 
VERTEX
 8 
1
 10 
0.975
 20 
0.47303
 30 
0.0
 0 
VERTEX
 8 
1
 10 
0.95
 20 
0.46805
 30 
0.0
 0 
VERTEX
 8 
1
 10 
0.925
 20 
0.46557
 30 
0.0
 0 
VERTEX
 8 
1
 10 
0.9
 20 
0.4651
 30 
0.0
 0 
VERTEX
 8 
1
 10 
0.85
 20 
0.46565
 30 
0.0
 0 
VERTEX
 8 
1
 10 
0.8
 20 
0.4672
 30 
0.0
 0 
VERTEX
 8 
1
 10 
0.7
 20 
0.4713
 30 
0.0
 0 
VERTEX
 8 
1
 10 
0.6
 20 
0.4754
 30 
0.0
 0 
VERTEX
 8 
1
 10 
0.5
 20 
0.4795
 30 
0.0
 0 
VERTEX
 8 
1
 10 
0.4
 20 
0.4836
 30 
0.0
 0 
VERTEX
 8 
1
 10 
0.3
 20 
0.4877
 30 
0.0
 0 
VERTEX
 8 
1
 10 
0.2
 20 
0.4918
 30 
0.0
 0 
VERTEX
 8 
1
 10 
0.1
 20 
0.4959
 30 
0.0
 0 
VERTEX
 8 
1
 10 
0.05
 20 
0.49795
 30 
0.0
 0 
VERTEX
 8 
1
 10 
0.0
 20 
0.5
 30 
0.0
 0 
SEQEND
 8 
1
 0 
ENDSEC
 0 
EOF
