 0 
SECTION
 2 
ENTITIES
 0 
POLYLINE
 8 
1
 66 
 1 
 10 
0.0
 20 
0.0
 30 
0.0
 0 
VERTEX
 8 
1
 10 
0.0
 20 
0.5
 30 
0.0
 0 
VERTEX
 8 
1
 10 
0.050340
 20 
0.51207
 30 
0.0
 0 
VERTEX
 8 
1
 10 
0.10069
 20 
0.52413
 30 
0.0
 0 
VERTEX
 8 
1
 10 
0.20132
 20 
0.54626
 30 
0.0
 0 
VERTEX
 8 
1
 10 
0.30189
 20 
0.5664
 30 
0.0
 0 
VERTEX
 8 
1
 10 
0.40238
 20 
0.58353
 30 
0.0
 0 
VERTEX
 8 
1
 10 
0.50271
 20 
0.59517
 30 
0.0
 0 
VERTEX
 8 
1
 10 
0.60287
 20 
0.60082
 30 
0.0
 0 
VERTEX
 8 
1
 10 
0.70289
 20 
0.60147
 30 
0.0
 0 
VERTEX
 8 
1
 10 
0.80265
 20 
0.59312
 30 
0.0
 0 
VERTEX
 8 
1
 10 
0.85239
 20 
0.58391
 30 
0.0
 0 
VERTEX
 8 
1
 10 
0.90205
 20 
0.57179
 30 
0.0
 0 
VERTEX
 8 
1
 10 
0.9268
 20 
0.56309
 30 
0.0
 0 
VERTEX
 8 
1
 10 
0.95149
 20 
0.55238
 30 
0.0
 0 
VERTEX
 8 
1
 10 
0.97607
 20 
0.53768
 30 
0.0
 0 
VERTEX
 8 
1
 10 
0.98826
 20 
0.52683
 30 
0.0
 0 
VERTEX
 8 
1
 10 
1
 20 
0.5
 30 
0.0
 0 
VERTEX
 8 
1
 10 
0.987
 20 
0.48237
 30 
0.0
 0 
VERTEX
 8 
1
 10 
0.97434
 20 
0.47673
 30 
0.0
 0 
VERTEX
 8 
1
 10 
0.9492
 20 
0.47195
 30 
0.0
 0 
VERTEX
 8 
1
 10 
0.92415
 20 
0.47016
 30 
0.0
 0 
VERTEX
 8 
1
 10 
0.89914
 20 
0.46987
 30 
0.0
 0 
VERTEX
 8 
1
 10 
0.8492
 20 
0.4718
 30 
0.0
 0 
VERTEX
 8 
1
 10 
0.79927
 20 
0.47422
 30 
0.0
 0 
VERTEX
 8 
1
 10 
0.69939
 20 
0.47857
 30 
0.0
 0 
VERTEX
 8 
1
 10 
0.59948
 20 
0.48191
 30 
0.0
 0 
VERTEX
 8 
1
 10 
0.49957
 20 
0.48476
 30 
0.0
 0 
VERTEX
 8 
1
 10 
0.39963
 20 
0.48711
 30 
0.0
 0 
VERTEX
 8 
1
 10 
0.29964
 20 
0.48746
 30 
0.0
 0 
VERTEX
 8 
1
 10 
0.19971
 20 
0.48981
 30 
0.0
 0 
VERTEX
 8 
1
 10 
0.09983
 20 
0.49415
 30 
0.0
 0 
VERTEX
 8 
1
 10 
0.04992
 20 
0.49708
 30 
0.0
 0 
VERTEX
 8 
1
 10 
0.0
 20 
0.5
 30 
0.0
 0 
SEQEND
 8 
1
 0 
ENDSEC
 0 
EOF
