 0 
SECTION
 2 
ENTITIES
 0 
POLYLINE
 8 
1
 66 
 1 
 10 
0.0
 20 
0.0
 30 
0.0
 0 
VERTEX
 8 
1
 10 
0.0
 20 
0.50175
 30 
0.0
 0 
VERTEX
 8 
1
 10 
0.05005
 20 
0.50554
 30 
0.0
 0 
VERTEX
 8 
1
 10 
0.10007
 20 
0.50892
 30 
0.0
 0 
VERTEX
 8 
1
 10 
0.20014
 20 
0.5168
 30 
0.0
 0 
VERTEX
 8 
1
 10 
0.3002
 20 
0.52367
 30 
0.0
 0 
VERTEX
 8 
1
 10 
0.40027
 20 
0.53255
 30 
0.0
 0 
VERTEX
 8 
1
 10 
0.50034
 20 
0.54162
 30 
0.0
 0 
VERTEX
 8 
1
 10 
0.60043
 20 
0.5518
 30 
0.0
 0 
VERTEX
 8 
1
 10 
0.70051
 20 
0.56217
 30 
0.0
 0 
VERTEX
 8 
1
 10 
0.80055
 20 
0.56695
 30 
0.0
 0 
VERTEX
 8 
1
 10 
0.85055
 20 
0.56653
 30 
0.0
 0 
VERTEX
 8 
1
 10 
0.9005
 20 
0.56052
 30 
0.0
 0 
VERTEX
 8 
1
 10 
0.92545
 20 
0.55511
 30 
0.0
 0 
VERTEX
 8 
1
 10 
0.95038
 20 
0.54611
 30 
0.0
 0 
VERTEX
 8 
1
 10 
0.97528
 20 
0.5337
 30 
0.0
 0 
VERTEX
 8 
1
 10 
0.9877
 20 
0.5246
 30 
0.0
 0 
VERTEX
 8 
1
 10 
1
 20 
0.5
 30 
0.0
 0 
VERTEX
 8 
1
 10 
0.98742
 20 
0.4901
 30 
0.0
 0 
VERTEX
 8 
1
 10 
0.97493
 20 
0.49161
 30 
0.0
 0 
VERTEX
 8 
1
 10 
0.94998
 20 
0.49741
 30 
0.0
 0 
VERTEX
 8 
1
 10 
0.92499
 20 
0.49902
 30 
0.0
 0 
VERTEX
 8 
1
 10 
0.90001
 20 
0.50062
 30 
0.0
 0 
VERTEX
 8 
1
 10 
0.85001
 20 
0.50174
 30 
0.0
 0 
VERTEX
 8 
1
 10 
0.80002
 20 
0.50265
 30 
0.0
 0 
VERTEX
 8 
1
 10 
0.70002
 20 
0.50297
 30 
0.0
 0 
VERTEX
 8 
1
 10 
0.60003
 20 
0.5033
 30 
0.0
 0 
VERTEX
 8 
1
 10 
0.50003
 20 
0.50322
 30 
0.0
 0 
VERTEX
 8 
1
 10 
0.40002
 20 
0.50295
 30 
0.0
 0 
VERTEX
 8 
1
 10 
0.30002
 20 
0.50277
 30 
0.0
 0 
VERTEX
 8 
1
 10 
0.20002
 20 
0.5029
 30 
0.0
 0 
VERTEX
 8 
1
 10 
0.10001
 20 
0.50092
 30 
0.0
 0 
VERTEX
 8 
1
 10 
0.04999
 20 
0.49924
 30 
0.0
 0 
VERTEX
 8 
1
 10 
0.0
 20 
0.49825
 30 
0.0
 0 
SEQEND
 8 
1
 0 
ENDSEC
 0 
EOF
