 0 
SECTION
 2 
ENTITIES
 0 
POLYLINE
 8 
1
 66 
 1 
 10 
0.0
 20 
0.0
 30 
0.0
 0 
VERTEX
 8 
1
 10 
0.0
 20 
0.5
 30 
0.0
 0 
VERTEX
 8 
1
 10 
0.05041
 20 
0.51784
 30 
0.0
 0 
VERTEX
 8 
1
 10 
0.10082
 20 
0.53568
 30 
0.0
 0 
VERTEX
 8 
1
 10 
0.2015
 20 
0.56537
 30 
0.0
 0 
VERTEX
 8 
1
 10 
0.30209
 20 
0.59105
 30 
0.0
 0 
VERTEX
 8 
1
 10 
0.4025
 20 
0.60874
 30 
0.0
 0 
VERTEX
 8 
1
 10 
0.50276
 20 
0.61994
 30 
0.0
 0 
VERTEX
 8 
1
 10 
0.60289
 20 
0.62563
 30 
0.0
 0 
VERTEX
 8 
1
 10 
0.70289
 20 
0.62583
 30 
0.0
 0 
VERTEX
 8 
1
 10 
0.8027
 20 
0.61754
 30 
0.0
 0 
VERTEX
 8 
1
 10 
0.85245
 20 
0.60639
 30 
0.0
 0 
VERTEX
 8 
1
 10 
0.90204
 20 
0.58875
 30 
0.0
 0 
VERTEX
 8 
1
 10 
0.92673
 20 
0.57519
 30 
0.0
 0 
VERTEX
 8 
1
 10 
0.95135
 20 
0.55862
 30 
0.0
 0 
VERTEX
 8 
1
 10 
0.97583
 20 
0.53606
 30 
0.0
 0 
VERTEX
 8 
1
 10 
0.988
 20 
0.52178
 30 
0.0
 0 
VERTEX
 8 
1
 10 
1
 20 
0.5
 30 
0.0
 0 
VERTEX
 8 
1
 10 
0.98713
 20 
0.4838
 30 
0.0
 0 
VERTEX
 8 
1
 10 
0.97453
 20 
0.47959
 30 
0.0
 0 
VERTEX
 8 
1
 10 
0.94942
 20 
0.47466
 30 
0.0
 0 
VERTEX
 8 
1
 10 
0.92437
 20 
0.47274
 30 
0.0
 0 
VERTEX
 8 
1
 10 
0.89936
 20 
0.47231
 30 
0.0
 0 
VERTEX
 8 
1
 10 
0.8494
 20 
0.47396
 30 
0.0
 0 
VERTEX
 8 
1
 10 
0.7995
 20 
0.47811
 30 
0.0
 0 
VERTEX
 8 
1
 10 
0.69969
 20 
0.48641
 30 
0.0
 0 
VERTEX
 8 
1
 10 
0.59982
 20 
0.4922
 30 
0.0
 0 
VERTEX
 8 
1
 10 
0.49982
 20 
0.492
 30 
0.0
 0 
VERTEX
 8 
1
 10 
0.39974
 20 
0.48881
 30 
0.0
 0 
VERTEX
 8 
1
 10 
0.2997
 20 
0.48711
 30 
0.0
 0 
VERTEX
 8 
1
 10 
0.19973
 20 
0.48841
 30 
0.0
 0 
VERTEX
 8 
1
 10 
0.09984
 20 
0.4932
 30 
0.0
 0 
VERTEX
 8 
1
 10 
0.049900
 20 
0.49585
 30 
0.0
 0 
VERTEX
 8 
1
 10 
0.0
 20 
0.5
 30 
0.0
 0 
SEQEND
 8 
1
 0 
ENDSEC
 0 
EOF
