 0 
SECTION
 2 
ENTITIES
 0 
POLYLINE
 8 
1
 66 
 1 
 10 
0.0
 20 
0.0
 30 
0.0
 0 
VERTEX
 8 
1
 10 
0.0
 20 
0.5
 30 
0.0
 0 
VERTEX
 8 
1
 10 
0.05031
 20 
0.51762
 30 
0.0
 0 
VERTEX
 8 
1
 10 
0.10063
 20 
0.53574
 30 
0.0
 0 
VERTEX
 8 
1
 10 
0.20114
 20 
0.56498
 30 
0.0
 0 
VERTEX
 8 
1
 10 
0.30154
 20 
0.58772
 30 
0.0
 0 
VERTEX
 8 
1
 10 
0.40188
 20 
0.60747
 30 
0.0
 0 
VERTEX
 8 
1
 10 
0.50211
 20 
0.62071
 30 
0.0
 0 
VERTEX
 8 
1
 10 
0.6023
 20 
0.63146
 30 
0.0
 0 
VERTEX
 8 
1
 10 
0.70237
 20 
0.63521
 30 
0.0
 0 
VERTEX
 8 
1
 10 
0.80224
 20 
0.62796
 30 
0.0
 0 
VERTEX
 8 
1
 10 
0.85208
 20 
0.61859
 30 
0.0
 0 
VERTEX
 8 
1
 10 
0.90177
 20 
0.60122
 30 
0.0
 0 
VERTEX
 8 
1
 10 
0.92654
 20 
0.58829
 30 
0.0
 0 
VERTEX
 8 
1
 10 
0.95125
 20 
0.57135
 30 
0.0
 0 
VERTEX
 8 
1
 10 
0.97585
 20 
0.54842
 30 
0.0
 0 
VERTEX
 8 
1
 10 
0.98806
 20 
0.53221
 30 
0.0
 0 
VERTEX
 8 
1
 10 
1
 20 
0.5
 30 
0.0
 0 
VERTEX
 8 
1
 10 
0.9872
 20 
0.48272
 30 
0.0
 0 
VERTEX
 8 
1
 10 
0.97461
 20 
0.47744
 30 
0.0
 0 
VERTEX
 8 
1
 10 
0.9495
 20 
0.47138
 30 
0.0
 0 
VERTEX
 8 
1
 10 
0.92442
 20 
0.46682
 30 
0.0
 0 
VERTEX
 8 
1
 10 
0.89937
 20 
0.46376
 30 
0.0
 0 
VERTEX
 8 
1
 10 
0.84931
 20 
0.46064
 30 
0.0
 0 
VERTEX
 8 
1
 10 
0.79934
 20 
0.46201
 30 
0.0
 0 
VERTEX
 8 
1
 10 
0.69946
 20 
0.46926
 30 
0.0
 0 
VERTEX
 8 
1
 10 
0.59953
 20 
0.47301
 30 
0.0
 0 
VERTEX
 8 
1
 10 
0.49951
 20 
0.47176
 30 
0.0
 0 
VERTEX
 8 
1
 10 
0.39947
 20 
0.46951
 30 
0.0
 0 
VERTEX
 8 
1
 10 
0.29948
 20 
0.47026
 30 
0.0
 0 
VERTEX
 8 
1
 10 
0.19957
 20 
0.47551
 30 
0.0
 0 
VERTEX
 8 
1
 10 
0.09971
 20 
0.48326
 30 
0.0
 0 
VERTEX
 8 
1
 10 
0.04982
 20 
0.48963
 30 
0.0
 0 
VERTEX
 8 
1
 10 
0.0
 20 
0.5
 30 
0.0
 0 
SEQEND
 8 
1
 0 
ENDSEC
 0 
EOF
