 0 
SECTION
 2 
ENTITIES
 0 
POLYLINE
 8 
1
 66 
 1 
 10 
0.0
 20 
0.0
 30 
0.0
 0 
VERTEX
 8 
1
 10 
0.0
 20 
0.5
 30 
0.0
 0 
VERTEX
 8 
1
 10 
0.05175
 20 
0.51997
 30 
0.0
 0 
VERTEX
 8 
1
 10 
0.10345
 20 
0.53945
 30 
0.0
 0 
VERTEX
 8 
1
 10 
0.20655
 20 
0.57493
 30 
0.0
 0 
VERTEX
 8 
1
 10 
0.30913
 20 
0.60445
 30 
0.0
 0 
VERTEX
 8 
1
 10 
0.4112
 20 
0.62802
 30 
0.0
 0 
VERTEX
 8 
1
 10 
0.51265
 20 
0.64464
 30 
0.0
 0 
VERTEX
 8 
1
 10 
0.61362
 20 
0.6558
 30 
0.0
 0 
VERTEX
 8 
1
 10 
0.71369
 20 
0.65655
 30 
0.0
 0 
VERTEX
 8 
1
 10 
0.81249
 20 
0.6429
 30 
0.0
 0 
VERTEX
 8 
1
 10 
0.86133
 20 
0.62963
 30 
0.0
 0 
VERTEX
 8 
1
 10 
0.90934
 20 
0.60693
 30 
0.0
 0 
VERTEX
 8 
1
 10 
0.93302
 20 
0.59186
 30 
0.0
 0 
VERTEX
 8 
1
 10 
0.95649
 20 
0.57431
 30 
0.0
 0 
VERTEX
 8 
1
 10 
0.97939
 20 
0.5503
 30 
0.0
 0 
VERTEX
 8 
1
 10 
0.99049
 20 
0.53433
 30 
0.0
 0 
VERTEX
 8 
1
 10 
0.99999
 20 
0.5
 30 
0.0
 0 
VERTEX
 8 
1
 10 
0.98485
 20 
0.46983
 30 
0.0
 0 
VERTEX
 8 
1
 10 
0.9717
 20 
0.46248
 30 
0.0
 0 
VERTEX
 8 
1
 10 
0.94563
 20 
0.45026
 30 
0.0
 0 
VERTEX
 8 
1
 10 
0.92004
 20 
0.4435
 30 
0.0
 0 
VERTEX
 8 
1
 10 
0.89467
 20 
0.43922
 30 
0.0
 0 
VERTEX
 8 
1
 10 
0.84431
 20 
0.43512
 30 
0.0
 0 
VERTEX
 8 
1
 10 
0.79417
 20 
0.43351
 30 
0.0
 0 
VERTEX
 8 
1
 10 
0.69467
 20 
0.43922
 30 
0.0
 0 
VERTEX
 8 
1
 10 
0.59556
 20 
0.44939
 30 
0.0
 0 
VERTEX
 8 
1
 10 
0.49663
 20 
0.46154
 30 
0.0
 0 
VERTEX
 8 
1
 10 
0.39769
 20 
0.4737
 30 
0.0
 0 
VERTEX
 8 
1
 10 
0.29863
 20 
0.48437
 30 
0.0
 0 
VERTEX
 8 
1
 10 
0.19939
 20 
0.49305
 30 
0.0
 0 
VERTEX
 8 
1
 10 
0.09993
 20 
0.49926
 30 
0.0
 0 
VERTEX
 8 
1
 10 
0.05001
 20 
0.50012
 30 
0.0
 0 
VERTEX
 8 
1
 10 
0.0
 20 
0.5
 30 
0.0
 0 
SEQEND
 8 
1
 0 
ENDSEC
 0 
EOF
