 0 
SECTION
 2 
ENTITIES
 0 
POLYLINE
 8 
1
 66 
 1 
 10 
0.0
 20 
0.0
 30 
0.0
 0 
VERTEX
 8 
1
 10 
0.0
 20 
0.5
 30 
0.0
 0 
VERTEX
 8 
1
 10 
0.1
 20 
0.51838
 30 
0.0
 0 
VERTEX
 8 
1
 10 
0.2
 20 
0.53476
 30 
0.0
 0 
VERTEX
 8 
1
 10 
0.3
 20 
0.54764
 30 
0.0
 0 
VERTEX
 8 
1
 10 
0.4
 20 
0.55802
 30 
0.0
 0 
VERTEX
 8 
1
 10 
0.5
 20 
0.5644
 30 
0.0
 0 
VERTEX
 8 
1
 10 
0.6
 20 
0.56778
 30 
0.0
 0 
VERTEX
 8 
1
 10 
0.7
 20 
0.56716
 30 
0.0
 0 
VERTEX
 8 
1
 10 
0.8
 20 
0.56154
 30 
0.0
 0 
VERTEX
 8 
1
 10 
0.85
 20 
0.55573
 30 
0.0
 0 
VERTEX
 8 
1
 10 
0.9
 20 
0.54792
 30 
0.0
 0 
VERTEX
 8 
1
 10 
0.925
 20 
0.54176
 30 
0.0
 0 
VERTEX
 8 
1
 10 
0.95
 20 
0.53411
 30 
0.0
 0 
VERTEX
 8 
1
 10 
0.975
 20 
0.52345
 30 
0.0
 0 
VERTEX
 8 
1
 10 
0.9875
 20 
0.51663
 30 
0.0
 0 
VERTEX
 8 
1
 10 
1
 20 
0.5
 30 
0.0
 0 
VERTEX
 8 
1
 10 
0.9875
 20 
0.48863
 30 
0.0
 0 
VERTEX
 8 
1
 10 
0.975
 20 
0.48446
 30 
0.0
 0 
VERTEX
 8 
1
 10 
0.95
 20 
0.48161
 30 
0.0
 0 
VERTEX
 8 
1
 10 
0.925
 20 
0.47977
 30 
0.0
 0 
VERTEX
 8 
1
 10 
0.9
 20 
0.47942
 30 
0.0
 0 
VERTEX
 8 
1
 10 
0.85
 20 
0.47873
 30 
0.0
 0 
VERTEX
 8 
1
 10 
0.8
 20 
0.47904
 30 
0.0
 0 
VERTEX
 8 
1
 10 
0.7
 20 
0.48316
 30 
0.0
 0 
VERTEX
 8 
1
 10 
0.6
 20 
0.48728
 30 
0.0
 0 
VERTEX
 8 
1
 10 
0.5
 20 
0.4914
 30 
0.0
 0 
VERTEX
 8 
1
 10 
0.4
 20 
0.49552
 30 
0.0
 0 
VERTEX
 8 
1
 10 
0.3
 20 
0.49864
 30 
0.0
 0 
VERTEX
 8 
1
 10 
0.2
 20 
0.49926
 30 
0.0
 0 
VERTEX
 8 
1
 10 
0.1
 20 
0.49988
 30 
0.0
 0 
VERTEX
 8 
1
 10 
0.0
 20 
0.5
 30 
0.0
 0 
SEQEND
 8 
1
 0 
ENDSEC
 0 
EOF
