 0 
SECTION
 2 
ENTITIES
 0 
POLYLINE
 8 
1
 66 
 1 
 10 
0.0
 20 
0.0
 30 
0.0
 0 
VERTEX
 8 
1
 10 
0.0
 20 
0.5
 30 
0.0
 0 
VERTEX
 8 
1
 10 
0.05
 20 
0.51255
 30 
0.0
 0 
VERTEX
 8 
1
 10 
0.1
 20 
0.5226
 30 
0.0
 0 
VERTEX
 8 
1
 10 
0.2
 20 
0.5422
 30 
0.0
 0 
VERTEX
 8 
1
 10 
0.3
 20 
0.5593
 30 
0.0
 0 
VERTEX
 8 
1
 10 
0.4
 20 
0.5717
 30 
0.0
 0 
VERTEX
 8 
1
 10 
0.5
 20 
0.581
 30 
0.0
 0 
VERTEX
 8 
1
 10 
0.6
 20 
0.5851
 30 
0.0
 0 
VERTEX
 8 
1
 10 
0.7
 20 
0.5837
 30 
0.0
 0 
VERTEX
 8 
1
 10 
0.8
 20 
0.5748
 30 
0.0
 0 
VERTEX
 8 
1
 10 
0.85
 20 
0.56735
 30 
0.0
 0 
VERTEX
 8 
1
 10 
0.9
 20 
0.5559
 30 
0.0
 0 
VERTEX
 8 
1
 10 
0.925
 20 
0.54867
 30 
0.0
 0 
VERTEX
 8 
1
 10 
0.95
 20 
0.53995
 30 
0.0
 0 
VERTEX
 8 
1
 10 
0.975
 20 
0.52822
 30 
0.0
 0 
VERTEX
 8 
1
 10 
0.9875
 20 
0.52086
 30 
0.0
 0 
VERTEX
 8 
1
 10 
1
 20 
0.5
 30 
0.0
 0 
VERTEX
 8 
1
 10 
0.9875
 20 
0.48836
 30 
0.0
 0 
VERTEX
 8 
1
 10 
0.975
 20 
0.48472
 30 
0.0
 0 
VERTEX
 8 
1
 10 
0.95
 20 
0.48145
 30 
0.0
 0 
VERTEX
 8 
1
 10 
0.925
 20 
0.47967
 30 
0.0
 0 
VERTEX
 8 
1
 10 
0.9
 20 
0.4784
 30 
0.0
 0 
VERTEX
 8 
1
 10 
0.85
 20 
0.47705
 30 
0.0
 0 
VERTEX
 8 
1
 10 
0.8
 20 
0.4768
 30 
0.0
 0 
VERTEX
 8 
1
 10 
0.7
 20 
0.4797
 30 
0.0
 0 
VERTEX
 8 
1
 10 
0.6
 20 
0.4846
 30 
0.0
 0 
VERTEX
 8 
1
 10 
0.5
 20 
0.4905
 30 
0.0
 0 
VERTEX
 8 
1
 10 
0.4
 20 
0.4954
 30 
0.0
 0 
VERTEX
 8 
1
 10 
0.3
 20 
0.4988
 30 
0.0
 0 
VERTEX
 8 
1
 10 
0.2
 20 
0.5007
 30 
0.0
 0 
VERTEX
 8 
1
 10 
0.1
 20 
0.5016
 30 
0.0
 0 
VERTEX
 8 
1
 10 
0.05
 20 
0.50105
 30 
0.0
 0 
VERTEX
 8 
1
 10 
0.0
 20 
0.5
 30 
0.0
 0 
SEQEND
 8 
1
 0 
ENDSEC
 0 
EOF
