 0 
SECTION
 2 
ENTITIES
 0 
POLYLINE
 8 
1
 66 
 1 
 10 
0.0
 20 
0.0
 30 
0.0
 0 
VERTEX
 8 
1
 10 
0.0
 20 
0.5
 30 
0.0
 0 
VERTEX
 8 
1
 10 
0.0504
 20 
0.51239
 30 
0.0
 0 
VERTEX
 8 
1
 10 
0.10076
 20 
0.52378
 30 
0.0
 0 
VERTEX
 8 
1
 10 
0.20146
 20 
0.54555
 30 
0.0
 0 
VERTEX
 8 
1
 10 
0.30209
 20 
0.56533
 30 
0.0
 0 
VERTEX
 8 
1
 10 
0.40268
 20 
0.58361
 30 
0.0
 0 
VERTEX
 8 
1
 10 
0.50321
 20 
0.6004
 30 
0.0
 0 
VERTEX
 8 
1
 10 
0.60356
 20 
0.61119
 30 
0.0
 0 
VERTEX
 8 
1
 10 
0.70366
 20 
0.61448
 30 
0.0
 0 
VERTEX
 8 
1
 10 
0.80342
 20 
0.60679
 30 
0.0
 0 
VERTEX
 8 
1
 10 
0.85309
 20 
0.5967
 30 
0.0
 0 
VERTEX
 8 
1
 10 
0.90263
 20 
0.58212
 30 
0.0
 0 
VERTEX
 8 
1
 10 
0.92727
 20 
0.57083
 30 
0.0
 0 
VERTEX
 8 
1
 10 
0.95184
 20 
0.55754
 30 
0.0
 0 
VERTEX
 8 
1
 10 
0.9763
 20 
0.54076
 30 
0.0
 0 
VERTEX
 8 
1
 10 
0.98842
 20 
0.52887
 30 
0.0
 0 
VERTEX
 8 
1
 10 
1
 20 
0.5
 30 
0.0
 0 
VERTEX
 8 
1
 10 
0.98705
 20 
0.48591
 30 
0.0
 0 
VERTEX
 8 
1
 10 
0.97443
 20 
0.48232
 30 
0.0
 0 
VERTEX
 8 
1
 10 
0.94933
 20 
0.47912
 30 
0.0
 0 
VERTEX
 8 
1
 10 
0.92426
 20 
0.47692
 30 
0.0
 0 
VERTEX
 8 
1
 10 
0.89924
 20 
0.47622
 30 
0.0
 0 
VERTEX
 8 
1
 10 
0.84921
 20 
0.47533
 30 
0.0
 0 
VERTEX
 8 
1
 10 
0.79921
 20 
0.47543
 30 
0.0
 0 
VERTEX
 8 
1
 10 
0.69928
 20 
0.47762
 30 
0.0
 0 
VERTEX
 8 
1
 10 
0.59943
 20 
0.48232
 30 
0.0
 0 
VERTEX
 8 
1
 10 
0.49968
 20 
0.49001
 30 
0.0
 0 
VERTEX
 8 
1
 10 
0.39994
 20 
0.4982
 30 
0.0
 0 
VERTEX
 8 
1
 10 
0.30014
 20 
0.5044
 30 
0.0
 0 
VERTEX
 8 
1
 10 
0.20023
 20 
0.50709
 30 
0.0
 0 
VERTEX
 8 
1
 10 
0.10017
 20 
0.50529
 30 
0.0
 0 
VERTEX
 8 
1
 10 
0.05009
 20 
0.5029
 30 
0.0
 0 
VERTEX
 8 
1
 10 
0.0
 20 
0.5
 30 
0.0
 0 
SEQEND
 8 
1
 0 
ENDSEC
 0 
EOF
