 0 
SECTION
 2 
ENTITIES
 0 
POLYLINE
 8 
1
 66 
 1 
 10 
0.0
 20 
0.0
 30 
0.0
 0 
VERTEX
 8 
1
 10 
0.0
 20 
0.5
 30 
0.0
 0 
VERTEX
 8 
1
 10 
0.05
 20 
0.515
 30 
0.0
 0 
VERTEX
 8 
1
 10 
0.1
 20 
0.527
 30 
0.0
 0 
VERTEX
 8 
1
 10 
0.2
 20 
0.549
 30 
0.0
 0 
VERTEX
 8 
1
 10 
0.3
 20 
0.5675
 30 
0.0
 0 
VERTEX
 8 
1
 10 
0.4
 20 
0.5825
 30 
0.0
 0 
VERTEX
 8 
1
 10 
0.5
 20 
0.5935
 30 
0.0
 0 
VERTEX
 8 
1
 10 
0.6
 20 
0.599
 30 
0.0
 0 
VERTEX
 8 
1
 10 
0.7
 20 
0.599
 30 
0.0
 0 
VERTEX
 8 
1
 10 
0.8
 20 
0.592
 30 
0.0
 0 
VERTEX
 8 
1
 10 
0.85
 20 
0.584
 30 
0.0
 0 
VERTEX
 8 
1
 10 
0.9
 20 
0.5705
 30 
0.0
 0 
VERTEX
 8 
1
 10 
0.925
 20 
0.56125
 30 
0.0
 0 
VERTEX
 8 
1
 10 
0.95
 20 
0.55
 30 
0.0
 0 
VERTEX
 8 
1
 10 
0.975
 20 
0.53575
 30 
0.0
 0 
VERTEX
 8 
1
 10 
0.9875
 20 
0.52537
 30 
0.0
 0 
VERTEX
 8 
1
 10 
1
 20 
0.5
 30 
0.0
 0 
VERTEX
 8 
1
 10 
0.9875
 20 
0.48837
 30 
0.0
 0 
VERTEX
 8 
1
 10 
0.975
 20 
0.48425
 30 
0.0
 0 
VERTEX
 8 
1
 10 
0.95
 20 
0.48
 30 
0.0
 0 
VERTEX
 8 
1
 10 
0.925
 20 
0.47775
 30 
0.0
 0 
VERTEX
 8 
1
 10 
0.9
 20 
0.477
 30 
0.0
 0 
VERTEX
 8 
1
 10 
0.85
 20 
0.477
 30 
0.0
 0 
VERTEX
 8 
1
 10 
0.8
 20 
0.4775
 30 
0.0
 0 
VERTEX
 8 
1
 10 
0.7
 20 
0.48
 30 
0.0
 0 
VERTEX
 8 
1
 10 
0.6
 20 
0.482
 30 
0.0
 0 
VERTEX
 8 
1
 10 
0.5
 20 
0.485
 30 
0.0
 0 
VERTEX
 8 
1
 10 
0.4
 20 
0.488
 30 
0.0
 0 
VERTEX
 8 
1
 10 
0.3
 20 
0.491
 30 
0.0
 0 
VERTEX
 8 
1
 10 
0.2
 20 
0.494
 30 
0.0
 0 
VERTEX
 8 
1
 10 
0.1
 20 
0.497
 30 
0.0
 0 
VERTEX
 8 
1
 10 
0.05
 20 
0.4985
 30 
0.0
 0 
VERTEX
 8 
1
 10 
0.0
 20 
0.5
 30 
0.0
 0 
SEQEND
 8 
1
 0 
ENDSEC
 0 
EOF
