 0 
SECTION
 2 
ENTITIES
 0 
POLYLINE
 8 
1
 66 
 1 
 10 
0.0
 20 
0.0
 30 
0.0
 0 
VERTEX
 8 
1
 10 
0.0
 20 
0.5
 30 
0.0
 0 
VERTEX
 8 
1
 10 
0.05006
 20 
0.51325
 30 
0.0
 0 
VERTEX
 8 
1
 10 
0.10014
 20 
0.528
 30 
0.0
 0 
VERTEX
 8 
1
 10 
0.20025
 20 
0.5495
 30 
0.0
 0 
VERTEX
 8 
1
 10 
0.30034
 20 
0.5685
 30 
0.0
 0 
VERTEX
 8 
1
 10 
0.40042
 20 
0.585
 30 
0.0
 0 
VERTEX
 8 
1
 10 
0.50048
 20 
0.597
 30 
0.0
 0 
VERTEX
 8 
1
 10 
0.60052
 20 
0.6035
 30 
0.0
 0 
VERTEX
 8 
1
 10 
0.70053
 20 
0.607
 30 
0.0
 0 
VERTEX
 8 
1
 10 
0.8005
 20 
0.5995
 30 
0.0
 0 
VERTEX
 8 
1
 10 
0.85045
 20 
0.59075
 30 
0.0
 0 
VERTEX
 8 
1
 10 
0.90039
 20 
0.5775
 30 
0.0
 0 
VERTEX
 8 
1
 10 
0.92533
 20 
0.56687
 30 
0.0
 0 
VERTEX
 8 
1
 10 
0.95027
 20 
0.55425
 30 
0.0
 0 
VERTEX
 8 
1
 10 
0.97518
 20 
0.53612
 30 
0.0
 0 
VERTEX
 8 
1
 10 
0.98763
 20 
0.52606
 30 
0.0
 0 
VERTEX
 8 
1
 10 
1
 20 
0.5
 30 
0.0
 0 
VERTEX
 8 
1
 10 
0.98746
 20 
0.49106
 30 
0.0
 0 
VERTEX
 8 
1
 10 
0.97494
 20 
0.48813
 30 
0.0
 0 
VERTEX
 8 
1
 10 
0.94993
 20 
0.48625
 30 
0.0
 0 
VERTEX
 8 
1
 10 
0.92493
 20 
0.48588
 30 
0.0
 0 
VERTEX
 8 
1
 10 
0.89993
 20 
0.486
 30 
0.0
 0 
VERTEX
 8 
1
 10 
0.84993
 20 
0.48675
 30 
0.0
 0 
VERTEX
 8 
1
 10 
0.79994
 20 
0.489
 30 
0.0
 0 
VERTEX
 8 
1
 10 
0.69998
 20 
0.4965
 30 
0.0
 0 
VERTEX
 8 
1
 10 
0.6
 20 
0.5
 30 
0.0
 0 
VERTEX
 8 
1
 10 
0.49999
 20 
0.4975
 30 
0.0
 0 
VERTEX
 8 
1
 10 
0.39996
 20 
0.492
 30 
0.0
 0 
VERTEX
 8 
1
 10 
0.29994
 20 
0.489
 30 
0.0
 0 
VERTEX
 8 
1
 10 
0.19995
 20 
0.4895
 30 
0.0
 0 
VERTEX
 8 
1
 10 
0.09996
 20 
0.492
 30 
0.0
 0 
VERTEX
 8 
1
 10 
0.04997
 20 
0.49425
 30 
0.0
 0 
VERTEX
 8 
1
 10 
0.0
 20 
0.5
 30 
0.0
 0 
SEQEND
 8 
1
 0 
ENDSEC
 0 
EOF
