 0 
SECTION
 2 
ENTITIES
 0 
POLYLINE
 8 
1
 66 
 1 
 10 
0.0
 20 
0.0
 30 
0.0
 0 
VERTEX
 8 
1
 10 
0.0
 20 
0.5
 30 
0.0
 0 
VERTEX
 8 
1
 10 
0.05044
 20 
0.51501
 30 
0.0
 0 
VERTEX
 8 
1
 10 
0.1008
 20 
0.52703
 30 
0.0
 0 
VERTEX
 8 
1
 10 
0.20143
 20 
0.54856
 30 
0.0
 0 
VERTEX
 8 
1
 10 
0.30196
 20 
0.56659
 30 
0.0
 0 
VERTEX
 8 
1
 10 
0.40235
 20 
0.57963
 30 
0.0
 0 
VERTEX
 8 
1
 10 
0.5026
 20 
0.58817
 30 
0.0
 0 
VERTEX
 8 
1
 10 
0.60266
 20 
0.59022
 30 
0.0
 0 
VERTEX
 8 
1
 10 
0.70253
 20 
0.58578
 30 
0.0
 0 
VERTEX
 8 
1
 10 
0.80222
 20 
0.57533
 30 
0.0
 0 
VERTEX
 8 
1
 10 
0.85197
 20 
0.56687
 30 
0.0
 0 
VERTEX
 8 
1
 10 
0.9016
 20 
0.5544
 30 
0.0
 0 
VERTEX
 8 
1
 10 
0.92639
 20 
0.54717
 30 
0.0
 0 
VERTEX
 8 
1
 10 
0.9511
 20 
0.53744
 30 
0.0
 0 
VERTEX
 8 
1
 10 
0.97574
 20 
0.52522
 30 
0.0
 0 
VERTEX
 8 
1
 10 
0.98798
 20 
0.51635
 30 
0.0
 0 
VERTEX
 8 
1
 10 
1
 20 
0.5
 30 
0.0
 0 
VERTEX
 8 
1
 10 
0.98708
 20 
0.48588
 30 
0.0
 0 
VERTEX
 8 
1
 10 
0.97448
 20 
0.48225
 30 
0.0
 0 
VERTEX
 8 
1
 10 
0.94937
 20 
0.47849
 30 
0.0
 0 
VERTEX
 8 
1
 10 
0.92433
 20 
0.47723
 30 
0.0
 0 
VERTEX
 8 
1
 10 
0.89929
 20 
0.47597
 30 
0.0
 0 
VERTEX
 8 
1
 10 
0.84926
 20 
0.47495
 30 
0.0
 0 
VERTEX
 8 
1
 10 
0.7993
 20 
0.47642
 30 
0.0
 0 
VERTEX
 8 
1
 10 
0.69944
 20 
0.48087
 30 
0.0
 0 
VERTEX
 8 
1
 10 
0.5996
 20 
0.48631
 30 
0.0
 0 
VERTEX
 8 
1
 10 
0.49977
 20 
0.49226
 30 
0.0
 0 
VERTEX
 8 
1
 10 
0.39992
 20 
0.4972
 30 
0.0
 0 
VERTEX
 8 
1
 10 
0.3
 20 
0.50015
 30 
0.0
 0 
VERTEX
 8 
1
 10 
0.20002
 20 
0.5006
 30 
0.0
 0 
VERTEX
 8 
1
 10 
0.10002
 20 
0.50055
 30 
0.0
 0 
VERTEX
 8 
1
 10 
0.05002
 20 
0.50052
 30 
0.0
 0 
VERTEX
 8 
1
 10 
0.0
 20 
0.5
 30 
0.0
 0 
SEQEND
 8 
1
 0 
ENDSEC
 0 
EOF
