 0 
SECTION
 2 
ENTITIES
 0 
POLYLINE
 8 
1
 66 
 1 
 10 
0.0
 20 
0.0
 30 
0.0
 0 
VERTEX
 8 
1
 10 
0.0
 20 
0.5
 30 
0.0
 0 
VERTEX
 8 
1
 10 
0.05038
 20 
0.51687
 30 
0.0
 0 
VERTEX
 8 
1
 10 
0.1008
 20 
0.53573
 30 
0.0
 0 
VERTEX
 8 
1
 10 
0.2016
 20 
0.57096
 30 
0.0
 0 
VERTEX
 8 
1
 10 
0.30225
 20 
0.6002
 30 
0.0
 0 
VERTEX
 8 
1
 10 
0.40277
 20 
0.62294
 30 
0.0
 0 
VERTEX
 8 
1
 10 
0.50312
 20 
0.63868
 30 
0.0
 0 
VERTEX
 8 
1
 10 
0.60327
 20 
0.64543
 30 
0.0
 0 
VERTEX
 8 
1
 10 
0.7032
 20 
0.64218
 30 
0.0
 0 
VERTEX
 8 
1
 10 
0.80286
 20 
0.62694
 30 
0.0
 0 
VERTEX
 8 
1
 10 
0.85256
 20 
0.61382
 30 
0.0
 0 
VERTEX
 8 
1
 10 
0.90214
 20 
0.5952
 30 
0.0
 0 
VERTEX
 8 
1
 10 
0.92688
 20 
0.58365
 30 
0.0
 0 
VERTEX
 8 
1
 10 
0.95158
 20 
0.57009
 30 
0.0
 0 
VERTEX
 8 
1
 10 
0.97615
 20 
0.55104
 30 
0.0
 0 
VERTEX
 8 
1
 10 
0.98833
 20 
0.53676
 30 
0.0
 0 
VERTEX
 8 
1
 10 
1
 20 
0.5
 30 
0.0
 0 
VERTEX
 8 
1
 10 
0.98718
 20 
0.48579
 30 
0.0
 0 
VERTEX
 8 
1
 10 
0.97457
 20 
0.48107
 30 
0.0
 0 
VERTEX
 8 
1
 10 
0.94952
 20 
0.47864
 30 
0.0
 0 
VERTEX
 8 
1
 10 
0.92455
 20 
0.4802
 30 
0.0
 0 
VERTEX
 8 
1
 10 
0.8996
 20 
0.48226
 30 
0.0
 0 
VERTEX
 8 
1
 10 
0.84976
 20 
0.4872
 30 
0.0
 0 
VERTEX
 8 
1
 10 
0.79982
 20 
0.492
 30 
0.0
 0 
VERTEX
 8 
1
 10 
0.69999
 20 
0.49975
 30 
0.0
 0 
VERTEX
 8 
1
 10 
0.6001
 20 
0.5045
 30 
0.0
 0 
VERTEX
 8 
1
 10 
0.50016
 20 
0.50725
 30 
0.0
 0 
VERTEX
 8 
1
 10 
0.4002
 20 
0.509
 30 
0.0
 0 
VERTEX
 8 
1
 10 
0.3002
 20 
0.50875
 30 
0.0
 0 
VERTEX
 8 
1
 10 
0.20015
 20 
0.5065
 30 
0.0
 0 
VERTEX
 8 
1
 10 
0.1001
 20 
0.50425
 30 
0.0
 0 
VERTEX
 8 
1
 10 
0.05005
 20 
0.50237
 30 
0.0
 0 
VERTEX
 8 
1
 10 
0.0
 20 
0.5
 30 
0.0
 0 
SEQEND
 8 
1
 0 
ENDSEC
 0 
EOF
