 0 
SECTION
 2 
ENTITIES
 0 
POLYLINE
 8 
1
 66 
 1 
 10 
0.0
 20 
0.0
 30 
0.0
 0 
VERTEX
 8 
1
 10 
0.0
 20 
0.5
 30 
0.0
 0 
VERTEX
 8 
1
 10 
0.05
 20 
0.5375
 30 
0.0
 0 
VERTEX
 8 
1
 10 
0.1
 20 
0.567
 30 
0.0
 0 
VERTEX
 8 
1
 10 
0.2
 20 
0.623
 30 
0.0
 0 
VERTEX
 8 
1
 10 
0.3
 20 
0.672
 30 
0.0
 0 
VERTEX
 8 
1
 10 
0.4
 20 
0.714
 30 
0.0
 0 
VERTEX
 8 
1
 10 
0.5
 20 
0.7445
 30 
0.0
 0 
VERTEX
 8 
1
 10 
0.6
 20 
0.7625
 30 
0.0
 0 
VERTEX
 8 
1
 10 
0.7
 20 
0.7635
 30 
0.0
 0 
VERTEX
 8 
1
 10 
0.8
 20 
0.7395
 30 
0.0
 0 
VERTEX
 8 
1
 10 
0.85
 20 
0.714
 30 
0.0
 0 
VERTEX
 8 
1
 10 
0.9
 20 
0.6785
 30 
0.0
 0 
VERTEX
 8 
1
 10 
0.925
 20 
0.653
 30 
0.0
 0 
VERTEX
 8 
1
 10 
0.95
 20 
0.621
 30 
0.0
 0 
VERTEX
 8 
1
 10 
0.975
 20 
0.58
 30 
0.0
 0 
VERTEX
 8 
1
 10 
0.9875
 20 
0.552
 30 
0.0
 0 
VERTEX
 8 
1
 10 
1
 20 
0.5
 30 
0.0
 0 
VERTEX
 8 
1
 10 
0.9875
 20 
0.4775
 30 
0.0
 0 
VERTEX
 8 
1
 10 
0.975
 20 
0.4635
 30 
0.0
 0 
VERTEX
 8 
1
 10 
0.95
 20 
0.451
 30 
0.0
 0 
VERTEX
 8 
1
 10 
0.925
 20 
0.4435
 30 
0.0
 0 
VERTEX
 8 
1
 10 
0.9
 20 
0.4382
 30 
0.0
 0 
VERTEX
 8 
1
 10 
0.85
 20 
0.4305
 30 
0.0
 0 
VERTEX
 8 
1
 10 
0.8
 20 
0.4285
 30 
0.0
 0 
VERTEX
 8 
1
 10 
0.7
 20 
0.4265
 30 
0.0
 0 
VERTEX
 8 
1
 10 
0.6
 20 
0.431
 30 
0.0
 0 
VERTEX
 8 
1
 10 
0.5
 20 
0.4395
 30 
0.0
 0 
VERTEX
 8 
1
 10 
0.4
 20 
0.449
 30 
0.0
 0 
VERTEX
 8 
1
 10 
0.3
 20 
0.4585
 30 
0.0
 0 
VERTEX
 8 
1
 10 
0.2
 20 
0.469
 30 
0.0
 0 
VERTEX
 8 
1
 10 
0.1
 20 
0.48
 30 
0.0
 0 
VERTEX
 8 
1
 10 
0.05
 20 
0.4891
 30 
0.0
 0 
VERTEX
 8 
1
 10 
0.0
 20 
0.5
 30 
0.0
 0 
SEQEND
 8 
1
 0 
ENDSEC
 0 
EOF
