 0 
SECTION
 2 
ENTITIES
 0 
POLYLINE
 8 
1
 66 
 1 
 10 
0.0
 20 
0.0
 30 
0.0
 0 
VERTEX
 8 
1
 10 
0.0
 20 
0.5
 30 
0.0
 0 
VERTEX
 8 
1
 10 
0.050459
 20 
0.52817
 30 
0.0
 0 
VERTEX
 8 
1
 10 
0.10071
 20 
0.54284
 30 
0.0
 0 
VERTEX
 8 
1
 10 
0.20103
 20 
0.56268
 30 
0.0
 0 
VERTEX
 8 
1
 10 
0.30125
 20 
0.57603
 30 
0.0
 0 
VERTEX
 8 
1
 10 
0.40144
 20 
0.58738
 30 
0.0
 0 
VERTEX
 8 
1
 10 
0.50159
 20 
0.59622
 30 
0.0
 0 
VERTEX
 8 
1
 10 
0.60168
 20 
0.60157
 30 
0.0
 0 
VERTEX
 8 
1
 10 
0.70169
 20 
0.60242
 30 
0.0
 0 
VERTEX
 8 
1
 10 
0.80159
 20 
0.59627
 30 
0.0
 0 
VERTEX
 8 
1
 10 
0.85146
 20 
0.58845
 30 
0.0
 0 
VERTEX
 8 
1
 10 
0.90126
 20 
0.57663
 30 
0.0
 0 
VERTEX
 8 
1
 10 
0.92612
 20 
0.56772
 30 
0.0
 0 
VERTEX
 8 
1
 10 
0.95093
 20 
0.55631
 30 
0.0
 0 
VERTEX
 8 
1
 10 
0.97567
 20 
0.5409
 30 
0.0
 0 
VERTEX
 8 
1
 10 
0.98797
 20 
0.5282
 30 
0.0
 0 
VERTEX
 8 
1
 10 
1
 20 
0.5
 30 
0.0
 0 
VERTEX
 8 
1
 10 
0.98722
 20 
0.48321
 30 
0.0
 0 
VERTEX
 8 
1
 10 
0.97462
 20 
0.47692
 30 
0.0
 0 
VERTEX
 8 
1
 10 
0.94955
 20 
0.47183
 30 
0.0
 0 
VERTEX
 8 
1
 10 
0.92447
 20 
0.46775
 30 
0.0
 0 
VERTEX
 8 
1
 10 
0.89944
 20 
0.46616
 30 
0.0
 0 
VERTEX
 8 
1
 10 
0.84944
 20 
0.46598
 30 
0.0
 0 
VERTEX
 8 
1
 10 
0.79946
 20 
0.46731
 30 
0.0
 0 
VERTEX
 8 
1
 10 
0.69949
 20 
0.46896
 30 
0.0
 0 
VERTEX
 8 
1
 10 
0.59951
 20 
0.47061
 30 
0.0
 0 
VERTEX
 8 
1
 10 
0.49953
 20 
0.47176
 30 
0.0
 0 
VERTEX
 8 
1
 10 
0.39954
 20 
0.47241
 30 
0.0
 0 
VERTEX
 8 
1
 10 
0.29957
 20 
0.47406
 30 
0.0
 0 
VERTEX
 8 
1
 10 
0.1996
 20 
0.47571
 30 
0.0
 0 
VERTEX
 8 
1
 10 
0.09965
 20 
0.47886
 30 
0.0
 0 
VERTEX
 8 
1
 10 
0.049679
 20 
0.48469
 30 
0.0
 0 
VERTEX
 8 
1
 10 
0.0
 20 
0.5
 30 
0.0
 0 
SEQEND
 8 
1
 0 
ENDSEC
 0 
EOF
