 0 
SECTION
 2 
ENTITIES
 0 
POLYLINE
 8 
1
 66 
 1 
 10 
0.0
 20 
0.0
 30 
0.0
 0 
VERTEX
 8 
1
 10 
0.0
 20 
0.5
 30 
0.0
 0 
VERTEX
 8 
1
 10 
0.05
 20 
0.5116
 30 
0.0
 0 
VERTEX
 8 
1
 10 
0.1
 20 
0.5217
 30 
0.0
 0 
VERTEX
 8 
1
 10 
0.2
 20 
0.5404
 30 
0.0
 0 
VERTEX
 8 
1
 10 
0.3
 20 
0.5551
 30 
0.0
 0 
VERTEX
 8 
1
 10 
0.4
 20 
0.5663
 30 
0.0
 0 
VERTEX
 8 
1
 10 
0.5
 20 
0.5735
 30 
0.0
 0 
VERTEX
 8 
1
 10 
0.6
 20 
0.5772
 30 
0.0
 0 
VERTEX
 8 
1
 10 
0.7
 20 
0.5774
 30 
0.0
 0 
VERTEX
 8 
1
 10 
0.8
 20 
0.5701
 30 
0.0
 0 
VERTEX
 8 
1
 10 
0.85
 20 
0.5637
 30 
0.0
 0 
VERTEX
 8 
1
 10 
0.9
 20 
0.5528
 30 
0.0
 0 
VERTEX
 8 
1
 10 
0.925
 20 
0.5451
 30 
0.0
 0 
VERTEX
 8 
1
 10 
0.95
 20 
0.5354
 30 
0.0
 0 
VERTEX
 8 
1
 10 
0.975
 20 
0.5242
 30 
0.0
 0 
VERTEX
 8 
1
 10 
0.9875
 20 
0.51685
 30 
0.0
 0 
VERTEX
 8 
1
 10 
1
 20 
0.5
 30 
0.0
 0 
VERTEX
 8 
1
 10 
0.9875
 20 
0.49185
 30 
0.0
 0 
VERTEX
 8 
1
 10 
0.975
 20 
0.4892
 30 
0.0
 0 
VERTEX
 8 
1
 10 
0.95
 20 
0.4849
 30 
0.0
 0 
VERTEX
 8 
1
 10 
0.925
 20 
0.4831
 30 
0.0
 0 
VERTEX
 8 
1
 10 
0.9
 20 
0.4818
 30 
0.0
 0 
VERTEX
 8 
1
 10 
0.85
 20 
0.4807
 30 
0.0
 0 
VERTEX
 8 
1
 10 
0.8
 20 
0.4806
 30 
0.0
 0 
VERTEX
 8 
1
 10 
0.7
 20 
0.4819
 30 
0.0
 0 
VERTEX
 8 
1
 10 
0.6
 20 
0.4832
 30 
0.0
 0 
VERTEX
 8 
1
 10 
0.5
 20 
0.486
 30 
0.0
 0 
VERTEX
 8 
1
 10 
0.4
 20 
0.4888
 30 
0.0
 0 
VERTEX
 8 
1
 10 
0.3
 20 
0.4916
 30 
0.0
 0 
VERTEX
 8 
1
 10 
0.2
 20 
0.4944
 30 
0.0
 0 
VERTEX
 8 
1
 10 
0.1
 20 
0.4972
 30 
0.0
 0 
VERTEX
 8 
1
 10 
0.05
 20 
0.4986
 30 
0.0
 0 
VERTEX
 8 
1
 10 
0.0
 20 
0.5
 30 
0.0
 0 
SEQEND
 8 
1
 0 
ENDSEC
 0 
EOF
