 0 
SECTION
 2 
ENTITIES
 0 
POLYLINE
 8 
1
 66 
 1 
 10 
0.0
 20 
0.0
 30 
0.0
 0 
VERTEX
 8 
1
 10 
0.0
 20 
0.5
 30 
0.0
 0 
VERTEX
 8 
1
 10 
0.05042
 20 
0.51889
 30 
0.0
 0 
VERTEX
 8 
1
 10 
0.10079
 20 
0.53578
 30 
0.0
 0 
VERTEX
 8 
1
 10 
0.20139
 20 
0.56307
 30 
0.0
 0 
VERTEX
 8 
1
 10 
0.30188
 20 
0.58536
 30 
0.0
 0 
VERTEX
 8 
1
 10 
0.40226
 20 
0.60265
 30 
0.0
 0 
VERTEX
 8 
1
 10 
0.50255
 20 
0.61594
 30 
0.0
 0 
VERTEX
 8 
1
 10 
0.60271
 20 
0.62324
 30 
0.0
 0 
VERTEX
 8 
1
 10 
0.70275
 20 
0.62504
 30 
0.0
 0 
VERTEX
 8 
1
 10 
0.80254
 20 
0.61534
 30 
0.0
 0 
VERTEX
 8 
1
 10 
0.85229
 20 
0.60425
 30 
0.0
 0 
VERTEX
 8 
1
 10 
0.90191
 20 
0.58666
 30 
0.0
 0 
VERTEX
 8 
1
 10 
0.92664
 20 
0.57461
 30 
0.0
 0 
VERTEX
 8 
1
 10 
0.95129
 20 
0.55857
 30 
0.0
 0 
VERTEX
 8 
1
 10 
0.97577
 20 
0.53503
 30 
0.0
 0 
VERTEX
 8 
1
 10 
0.98776
 20 
0.52188
 30 
0.0
 0 
VERTEX
 8 
1
 10 
1
 20 
0.5
 30 
0.0
 0 
VERTEX
 8 
1
 10 
0.98696
 20 
0.47901
 30 
0.0
 0 
VERTEX
 8 
1
 10 
0.97442
 20 
0.47356
 30 
0.0
 0 
VERTEX
 8 
1
 10 
0.94938
 20 
0.47161
 30 
0.0
 0 
VERTEX
 8 
1
 10 
0.92437
 20 
0.47116
 30 
0.0
 0 
VERTEX
 8 
1
 10 
0.89937
 20 
0.47121
 30 
0.0
 0 
VERTEX
 8 
1
 10 
0.84942
 20 
0.47381
 30 
0.0
 0 
VERTEX
 8 
1
 10 
0.79952
 20 
0.47841
 30 
0.0
 0 
VERTEX
 8 
1
 10 
0.69976
 20 
0.48911
 30 
0.0
 0 
VERTEX
 8 
1
 10 
0.59986
 20 
0.4938
 30 
0.0
 0 
VERTEX
 8 
1
 10 
0.4998
 20 
0.491
 30 
0.0
 0 
VERTEX
 8 
1
 10 
0.39971
 20 
0.48671
 30 
0.0
 0 
VERTEX
 8 
1
 10 
0.29967
 20 
0.48491
 30 
0.0
 0 
VERTEX
 8 
1
 10 
0.19972
 20 
0.48711
 30 
0.0
 0 
VERTEX
 8 
1
 10 
0.09983
 20 
0.4923
 30 
0.0
 0 
VERTEX
 8 
1
 10 
0.04992
 20 
0.4964
 30 
0.0
 0 
VERTEX
 8 
1
 10 
0.0
 20 
0.5
 30 
0.0
 0 
SEQEND
 8 
1
 0 
ENDSEC
 0 
EOF
