 0 
SECTION
 2 
ENTITIES
 0 
POLYLINE
 8 
1
 66 
 1 
 10 
0.0
 20 
0.0
 30 
0.0
 0 
VERTEX
 8 
1
 10 
0.0
 20 
0.5
 30 
0.0
 0 
VERTEX
 8 
1
 10 
0.05075
 20 
0.51246
 30 
0.0
 0 
VERTEX
 8 
1
 10 
0.10146
 20 
0.52441
 30 
0.0
 0 
VERTEX
 8 
1
 10 
0.20275
 20 
0.54583
 30 
0.0
 0 
VERTEX
 8 
1
 10 
0.30383
 20 
0.56377
 30 
0.0
 0 
VERTEX
 8 
1
 10 
0.40466
 20 
0.57772
 30 
0.0
 0 
VERTEX
 8 
1
 10 
0.50526
 20 
0.58768
 30 
0.0
 0 
VERTEX
 8 
1
 10 
0.60562
 20 
0.59366
 30 
0.0
 0 
VERTEX
 8 
1
 10 
0.70556
 20 
0.59267
 30 
0.0
 0 
VERTEX
 8 
1
 10 
0.80508
 20 
0.58469
 30 
0.0
 0 
VERTEX
 8 
1
 10 
0.85457
 20 
0.57623
 30 
0.0
 0 
VERTEX
 8 
1
 10 
0.90385
 20 
0.56427
 30 
0.0
 0 
VERTEX
 8 
1
 10 
0.92837
 20 
0.5563
 30 
0.0
 0 
VERTEX
 8 
1
 10 
0.95278
 20 
0.54633
 30 
0.0
 0 
VERTEX
 8 
1
 10 
0.97694
 20 
0.53238
 30 
0.0
 0 
VERTEX
 8 
1
 10 
0.98889
 20 
0.52317
 30 
0.0
 0 
VERTEX
 8 
1
 10 
1
 20 
0.5
 30 
0.0
 0 
VERTEX
 8 
1
 10 
0.98632
 20 
0.48032
 30 
0.0
 0 
VERTEX
 8 
1
 10 
0.97329
 20 
0.4716
 30 
0.0
 0 
VERTEX
 8 
1
 10 
0.9477
 20 
0.46164
 30 
0.0
 0 
VERTEX
 8 
1
 10 
0.9224
 20 
0.45666
 30 
0.0
 0 
VERTEX
 8 
1
 10 
0.89722
 20 
0.45367
 30 
0.0
 0 
VERTEX
 8 
1
 10 
0.84713
 20 
0.45217
 30 
0.0
 0 
VERTEX
 8 
1
 10 
0.79716
 20 
0.45267
 30 
0.0
 0 
VERTEX
 8 
1
 10 
0.6974
 20 
0.45666
 30 
0.0
 0 
VERTEX
 8 
1
 10 
0.59773
 20 
0.46214
 30 
0.0
 0 
VERTEX
 8 
1
 10 
0.49809
 20 
0.46811
 30 
0.0
 0 
VERTEX
 8 
1
 10 
0.39844
 20 
0.47409
 30 
0.0
 0 
VERTEX
 8 
1
 10 
0.2988
 20 
0.48007
 30 
0.0
 0 
VERTEX
 8 
1
 10 
0.19919
 20 
0.48655
 30 
0.0
 0 
VERTEX
 8 
1
 10 
0.09958
 20 
0.49303
 30 
0.0
 0 
VERTEX
 8 
1
 10 
0.04979
 20 
0.49651
 30 
0.0
 0 
VERTEX
 8 
1
 10 
0.0
 20 
0.5
 30 
0.0
 0 
SEQEND
 8 
1
 0 
ENDSEC
 0 
EOF
