 0 
SECTION
 2 
ENTITIES
 0 
POLYLINE
 8 
1
 66 
 1 
 10 
0.0
 20 
0.0
 30 
0.0
 0 
VERTEX
 8 
1
 10 
0.0
 20 
0.504
 30 
0.0
 0 
VERTEX
 8 
1
 10 
0.05
 20 
0.5114
 30 
0.0
 0 
VERTEX
 8 
1
 10 
0.1
 20 
0.5183
 30 
0.0
 0 
VERTEX
 8 
1
 10 
0.2
 20 
0.5331
 30 
0.0
 0 
VERTEX
 8 
1
 10 
0.3
 20 
0.5474
 30 
0.0
 0 
VERTEX
 8 
1
 10 
0.4
 20 
0.5617
 30 
0.0
 0 
VERTEX
 8 
1
 10 
0.5
 20 
0.5745
 30 
0.0
 0 
VERTEX
 8 
1
 10 
0.6
 20 
0.5808
 30 
0.0
 0 
VERTEX
 8 
1
 10 
0.7
 20 
0.5826
 30 
0.0
 0 
VERTEX
 8 
1
 10 
0.8
 20 
0.5754
 30 
0.0
 0 
VERTEX
 8 
1
 10 
0.85
 20 
0.5678
 30 
0.0
 0 
VERTEX
 8 
1
 10 
0.9
 20 
0.5567
 30 
0.0
 0 
VERTEX
 8 
1
 10 
0.925
 20 
0.54915
 30 
0.0
 0 
VERTEX
 8 
1
 10 
0.95
 20 
0.5406
 30 
0.0
 0 
VERTEX
 8 
1
 10 
0.975
 20 
0.52755
 30 
0.0
 0 
VERTEX
 8 
1
 10 
0.9875
 20 
0.51803
 30 
0.0
 0 
VERTEX
 8 
1
 10 
1
 20 
0.5
 30 
0.0
 0 
VERTEX
 8 
1
 10 
0.9875
 20 
0.48303
 30 
0.0
 0 
VERTEX
 8 
1
 10 
0.975
 20 
0.47755
 30 
0.0
 0 
VERTEX
 8 
1
 10 
0.95
 20 
0.4726
 30 
0.0
 0 
VERTEX
 8 
1
 10 
0.925
 20 
0.47015
 30 
0.0
 0 
VERTEX
 8 
1
 10 
0.9
 20 
0.4682
 30 
0.0
 0 
VERTEX
 8 
1
 10 
0.85
 20 
0.4663
 30 
0.0
 0 
VERTEX
 8 
1
 10 
0.8
 20 
0.4644
 30 
0.0
 0 
VERTEX
 8 
1
 10 
0.7
 20 
0.4631
 30 
0.0
 0 
VERTEX
 8 
1
 10 
0.6
 20 
0.4623
 30 
0.0
 0 
VERTEX
 8 
1
 10 
0.5
 20 
0.463
 30 
0.0
 0 
VERTEX
 8 
1
 10 
0.4
 20 
0.4642
 30 
0.0
 0 
VERTEX
 8 
1
 10 
0.3
 20 
0.4679
 30 
0.0
 0 
VERTEX
 8 
1
 10 
0.2
 20 
0.4741
 30 
0.0
 0 
VERTEX
 8 
1
 10 
0.1
 20 
0.4853
 30 
0.0
 0 
VERTEX
 8 
1
 10 
0.05
 20 
0.4924
 30 
0.0
 0 
VERTEX
 8 
1
 10 
0.0
 20 
0.5
 30 
0.0
 0 
SEQEND
 8 
1
 0 
ENDSEC
 0 
EOF
