 0 
SECTION
 2 
ENTITIES
 0 
POLYLINE
 8 
1
 66 
 1 
 10 
0.0
 20 
0.0
 30 
0.0
 0 
VERTEX
 8 
1
 10 
0.0
 20 
0.5
 30 
0.0
 0 
VERTEX
 8 
1
 10 
0.05011
 20 
0.5115
 30 
0.0
 0 
VERTEX
 8 
1
 10 
0.10022
 20 
0.522
 30 
0.0
 0 
VERTEX
 8 
1
 10 
0.20041
 20 
0.541
 30 
0.0
 0 
VERTEX
 8 
1
 10 
0.3006
 20 
0.55999
 30 
0.0
 0 
VERTEX
 8 
1
 10 
0.40072
 20 
0.57449
 30 
0.0
 0 
VERTEX
 8 
1
 10 
0.50085
 20 
0.58549
 30 
0.0
 0 
VERTEX
 8 
1
 10 
0.60092
 20 
0.59199
 30 
0.0
 0 
VERTEX
 8 
1
 10 
0.70089
 20 
0.58879
 30 
0.0
 0 
VERTEX
 8 
1
 10 
0.80082
 20 
0.58009
 30 
0.0
 0 
VERTEX
 8 
1
 10 
0.85071
 20 
0.57149
 30 
0.0
 0 
VERTEX
 8 
1
 10 
0.90058
 20 
0.55799
 30 
0.0
 0 
VERTEX
 8 
1
 10 
0.92551
 20 
0.55074
 30 
0.0
 0 
VERTEX
 8 
1
 10 
0.95041
 20 
0.5405
 30 
0.0
 0 
VERTEX
 8 
1
 10 
0.9852
 20 
0.52015
 30 
0.0
 0 
VERTEX
 8 
1
 10 
1
 20 
0.5
 30 
0.0
 0 
VERTEX
 8 
1
 10 
0.9849
 20 
0.49015
 30 
0.0
 0 
VERTEX
 8 
1
 10 
0.94992
 20 
0.4915
 30 
0.0
 0 
VERTEX
 8 
1
 10 
0.92494
 20 
0.49375
 30 
0.0
 0 
VERTEX
 8 
1
 10 
0.89997
 20 
0.4972
 30 
0.0
 0 
VERTEX
 8 
1
 10 
0.85004
 20 
0.5031
 30 
0.0
 0 
VERTEX
 8 
1
 10 
0.80007
 20 
0.507
 30 
0.0
 0 
VERTEX
 8 
1
 10 
0.70012
 20 
0.5122
 30 
0.0
 0 
VERTEX
 8 
1
 10 
0.60014
 20 
0.514
 30 
0.0
 0 
VERTEX
 8 
1
 10 
0.50014
 20 
0.514
 30 
0.0
 0 
VERTEX
 8 
1
 10 
0.40011
 20 
0.512
 30 
0.0
 0 
VERTEX
 8 
1
 10 
0.30009
 20 
0.509
 30 
0.0
 0 
VERTEX
 8 
1
 10 
0.20004
 20 
0.5045
 30 
0.0
 0 
VERTEX
 8 
1
 10 
0.1
 20 
0.5
 30 
0.0
 0 
VERTEX
 8 
1
 10 
0.04999
 20 
0.4995
 30 
0.0
 0 
VERTEX
 8 
1
 10 
0.0
 20 
0.5
 30 
0.0
 0 
SEQEND
 8 
1
 0 
ENDSEC
 0 
EOF
