 0 
SECTION
 2 
ENTITIES
 0 
POLYLINE
 8 
1
 66 
 1 
 10 
0.0
 20 
0.0
 30 
0.0
 0 
VERTEX
 8 
1
 10 
0.0
 20 
0.50175
 30 
0.0
 0 
VERTEX
 8 
1
 10 
0.05064
 20 
0.51849
 30 
0.0
 0 
VERTEX
 8 
1
 10 
0.10121
 20 
0.53473
 30 
0.0
 0 
VERTEX
 8 
1
 10 
0.2023
 20 
0.56622
 30 
0.0
 0 
VERTEX
 8 
1
 10 
0.30322
 20 
0.59271
 30 
0.0
 0 
VERTEX
 8 
1
 10 
0.4039
 20 
0.61221
 30 
0.0
 0 
VERTEX
 8 
1
 10 
0.50433
 20 
0.62472
 30 
0.0
 0 
VERTEX
 8 
1
 10 
0.60453
 20 
0.63024
 30 
0.0
 0 
VERTEX
 8 
1
 10 
0.70451
 20 
0.62977
 30 
0.0
 0 
VERTEX
 8 
1
 10 
0.80409
 20 
0.61781
 30 
0.0
 0 
VERTEX
 8 
1
 10 
0.85367
 20 
0.60559
 30 
0.0
 0 
VERTEX
 8 
1
 10 
0.90305
 20 
0.58787
 30 
0.0
 0 
VERTEX
 8 
1
 10 
0.92764
 20 
0.57601
 30 
0.0
 0 
VERTEX
 8 
1
 10 
0.95214
 20 
0.56166
 30 
0.0
 0 
VERTEX
 8 
1
 10 
0.97649
 20 
0.54282
 30 
0.0
 0 
VERTEX
 8 
1
 10 
0.98859
 20 
0.5314
 30 
0.0
 0 
VERTEX
 8 
1
 10 
1
 20 
0.5
 30 
0.0
 0 
VERTEX
 8 
1
 10 
0.9868
 20 
0.47996
 30 
0.0
 0 
VERTEX
 8 
1
 10 
0.97409
 20 
0.4739
 30 
0.0
 0 
VERTEX
 8 
1
 10 
0.94888
 20 
0.46778
 30 
0.0
 0 
VERTEX
 8 
1
 10 
0.92384
 20 
0.46665
 30 
0.0
 0 
VERTEX
 8 
1
 10 
0.89885
 20 
0.46701
 30 
0.0
 0 
VERTEX
 8 
1
 10 
0.84895
 20 
0.46975
 30 
0.0
 0 
VERTEX
 8 
1
 10 
0.79906
 20 
0.47298
 30 
0.0
 0 
VERTEX
 8 
1
 10 
0.69934
 20 
0.48095
 30 
0.0
 0 
VERTEX
 8 
1
 10 
0.59956
 20 
0.48742
 30 
0.0
 0 
VERTEX
 8 
1
 10 
0.49974
 20 
0.49238
 30 
0.0
 0 
VERTEX
 8 
1
 10 
0.39986
 20 
0.49586
 30 
0.0
 0 
VERTEX
 8 
1
 10 
0.29992
 20 
0.49783
 30 
0.0
 0 
VERTEX
 8 
1
 10 
0.19996
 20 
0.4988
 30 
0.0
 0 
VERTEX
 8 
1
 10 
0.09996
 20 
0.49878
 30 
0.0
 0 
VERTEX
 8 
1
 10 
0.049950
 20 
0.49851
 30 
0.0
 0 
VERTEX
 8 
1
 10 
0.0
 20 
0.49825
 30 
0.0
 0 
SEQEND
 8 
1
 0 
ENDSEC
 0 
EOF
