 0 
SECTION
 2 
ENTITIES
 0 
POLYLINE
 8 
1
 66 
 1 
 10 
0.0
 20 
0.0
 30 
0.0
 0 
VERTEX
 8 
1
 10 
0.0
 20 
0.5
 30 
0.0
 0 
VERTEX
 8 
1
 10 
0.05
 20 
0.51185
 30 
0.0
 0 
VERTEX
 8 
1
 10 
0.1
 20 
0.5232
 30 
0.0
 0 
VERTEX
 8 
1
 10 
0.2
 20 
0.5444
 30 
0.0
 0 
VERTEX
 8 
1
 10 
0.3
 20 
0.5656
 30 
0.0
 0 
VERTEX
 8 
1
 10 
0.4
 20 
0.5838
 30 
0.0
 0 
VERTEX
 8 
1
 10 
0.5
 20 
0.599
 30 
0.0
 0 
VERTEX
 8 
1
 10 
0.6
 20 
0.6077
 30 
0.0
 0 
VERTEX
 8 
1
 10 
0.7
 20 
0.6089
 30 
0.0
 0 
VERTEX
 8 
1
 10 
0.8
 20 
0.5991
 30 
0.0
 0 
VERTEX
 8 
1
 10 
0.85
 20 
0.58845
 30 
0.0
 0 
VERTEX
 8 
1
 10 
0.9
 20 
0.5748
 30 
0.0
 0 
VERTEX
 8 
1
 10 
0.925
 20 
0.56523
 30 
0.0
 0 
VERTEX
 8 
1
 10 
0.95
 20 
0.55415
 30 
0.0
 0 
VERTEX
 8 
1
 10 
0.975
 20 
0.53658
 30 
0.0
 0 
VERTEX
 8 
1
 10 
0.9875
 20 
0.52404
 30 
0.0
 0 
VERTEX
 8 
1
 10 
1
 20 
0.5
 30 
0.0
 0 
VERTEX
 8 
1
 10 
0.9875
 20 
0.48304
 30 
0.0
 0 
VERTEX
 8 
1
 10 
0.975
 20 
0.47858
 30 
0.0
 0 
VERTEX
 8 
1
 10 
0.95
 20 
0.47465
 30 
0.0
 0 
VERTEX
 8 
1
 10 
0.925
 20 
0.47322
 30 
0.0
 0 
VERTEX
 8 
1
 10 
0.9
 20 
0.4718
 30 
0.0
 0 
VERTEX
 8 
1
 10 
0.85
 20 
0.46995
 30 
0.0
 0 
VERTEX
 8 
1
 10 
0.8
 20 
0.4691
 30 
0.0
 0 
VERTEX
 8 
1
 10 
0.7
 20 
0.4689
 30 
0.0
 0 
VERTEX
 8 
1
 10 
0.6
 20 
0.4707
 30 
0.0
 0 
VERTEX
 8 
1
 10 
0.5
 20 
0.471
 30 
0.0
 0 
VERTEX
 8 
1
 10 
0.4
 20 
0.4698
 30 
0.0
 0 
VERTEX
 8 
1
 10 
0.3
 20 
0.4706
 30 
0.0
 0 
VERTEX
 8 
1
 10 
0.2
 20 
0.4749
 30 
0.0
 0 
VERTEX
 8 
1
 10 
0.1
 20 
0.4842
 30 
0.0
 0 
VERTEX
 8 
1
 10 
0.05
 20 
0.49085
 30 
0.0
 0 
VERTEX
 8 
1
 10 
0.0
 20 
0.5
 30 
0.0
 0 
SEQEND
 8 
1
 0 
ENDSEC
 0 
EOF
