 0 
SECTION
 2 
ENTITIES
 0 
POLYLINE
 8 
1
 66 
 1 
 10 
0.0
 20 
0.0
 30 
0.0
 0 
VERTEX
 8 
1
 10 
0.0
 20 
0.5
 30 
0.0
 0 
VERTEX
 8 
1
 10 
0.05
 20 
0.512
 30 
0.0
 0 
VERTEX
 8 
1
 10 
0.1
 20 
0.523
 30 
0.0
 0 
VERTEX
 8 
1
 10 
0.2
 20 
0.546
 30 
0.0
 0 
VERTEX
 8 
1
 10 
0.3
 20 
0.57
 30 
0.0
 0 
VERTEX
 8 
1
 10 
0.4
 20 
0.592
 30 
0.0
 0 
VERTEX
 8 
1
 10 
0.5
 20 
0.611
 30 
0.0
 0 
VERTEX
 8 
1
 10 
0.6
 20 
0.624
 30 
0.0
 0 
VERTEX
 8 
1
 10 
0.7
 20 
0.629
 30 
0.0
 0 
VERTEX
 8 
1
 10 
0.8
 20 
0.6205
 30 
0.0
 0 
VERTEX
 8 
1
 10 
0.85
 20 
0.609
 30 
0.0
 0 
VERTEX
 8 
1
 10 
0.9
 20 
0.591
 30 
0.0
 0 
VERTEX
 8 
1
 10 
0.925
 20 
0.58
 30 
0.0
 0 
VERTEX
 8 
1
 10 
0.95
 20 
0.565
 30 
0.0
 0 
VERTEX
 8 
1
 10 
0.975
 20 
0.545
 30 
0.0
 0 
VERTEX
 8 
1
 10 
0.9875
 20 
0.53
 30 
0.0
 0 
VERTEX
 8 
1
 10 
1
 20 
0.5
 30 
0.0
 0 
VERTEX
 8 
1
 10 
0.9875
 20 
0.475
 30 
0.0
 0 
VERTEX
 8 
1
 10 
0.975
 20 
0.465
 30 
0.0
 0 
VERTEX
 8 
1
 10 
0.95
 20 
0.4535
 30 
0.0
 0 
VERTEX
 8 
1
 10 
0.925
 20 
0.4465
 30 
0.0
 0 
VERTEX
 8 
1
 10 
0.9
 20 
0.4405
 30 
0.0
 0 
VERTEX
 8 
1
 10 
0.85
 20 
0.434
 30 
0.0
 0 
VERTEX
 8 
1
 10 
0.8
 20 
0.431
 30 
0.0
 0 
VERTEX
 8 
1
 10 
0.7
 20 
0.43
 30 
0.0
 0 
VERTEX
 8 
1
 10 
0.6
 20 
0.432
 30 
0.0
 0 
VERTEX
 8 
1
 10 
0.5
 20 
0.4365
 30 
0.0
 0 
VERTEX
 8 
1
 10 
0.4
 20 
0.4425
 30 
0.0
 0 
VERTEX
 8 
1
 10 
0.3
 20 
0.45
 30 
0.0
 0 
VERTEX
 8 
1
 10 
0.2
 20 
0.459
 30 
0.0
 0 
VERTEX
 8 
1
 10 
0.1
 20 
0.473
 30 
0.0
 0 
VERTEX
 8 
1
 10 
0.05
 20 
0.484
 30 
0.0
 0 
VERTEX
 8 
1
 10 
0.0
 20 
0.5
 30 
0.0
 0 
SEQEND
 8 
1
 0 
ENDSEC
 0 
EOF
