 0 
SECTION
 2 
ENTITIES
 0 
POLYLINE
 8 
1
 66 
 1 
 10 
0.0
 20 
0.0
 30 
0.0
 0 
VERTEX
 8 
1
 10 
0.0
 20 
0.5
 30 
0.0
 0 
VERTEX
 8 
1
 10 
0.0516
 20 
0.52149
 30 
0.0
 0 
VERTEX
 8 
1
 10 
0.10265
 20 
0.53902
 30 
0.0
 0 
VERTEX
 8 
1
 10 
0.20449
 20 
0.56609
 30 
0.0
 0 
VERTEX
 8 
1
 10 
0.30606
 20 
0.58919
 30 
0.0
 0 
VERTEX
 8 
1
 10 
0.4074
 20 
0.6088
 30 
0.0
 0 
VERTEX
 8 
1
 10 
0.50836
 20 
0.62293
 30 
0.0
 0 
VERTEX
 8 
1
 10 
0.60898
 20 
0.63209
 30 
0.0
 0 
VERTEX
 8 
1
 10 
0.70916
 20 
0.63478
 30 
0.0
 0 
VERTEX
 8 
1
 10 
0.80856
 20 
0.62602
 30 
0.0
 0 
VERTEX
 8 
1
 10 
0.85786
 20 
0.61566
 30 
0.0
 0 
VERTEX
 8 
1
 10 
0.90668
 20 
0.59834
 30 
0.0
 0 
VERTEX
 8 
1
 10 
0.93082
 20 
0.5857
 30 
0.0
 0 
VERTEX
 8 
1
 10 
0.95476
 20 
0.57008
 30 
0.0
 0 
VERTEX
 8 
1
 10 
0.97819
 20 
0.54698
 30 
0.0
 0 
VERTEX
 8 
1
 10 
0.98962
 20 
0.53121
 30 
0.0
 0 
VERTEX
 8 
1
 10 
0.99999
 20 
0.5
 30 
0.0
 0 
VERTEX
 8 
1
 10 
0.98572
 20 
0.47397
 30 
0.0
 0 
VERTEX
 8 
1
 10 
0.97271
 20 
0.46636
 30 
0.0
 0 
VERTEX
 8 
1
 10 
0.94708
 20 
0.4571
 30 
0.0
 0 
VERTEX
 8 
1
 10 
0.92169
 20 
0.45133
 30 
0.0
 0 
VERTEX
 8 
1
 10 
0.89646
 20 
0.44804
 30 
0.0
 0 
VERTEX
 8 
1
 10 
0.84632
 20 
0.44595
 30 
0.0
 0 
VERTEX
 8 
1
 10 
0.79638
 20 
0.44685
 30 
0.0
 0 
VERTEX
 8 
1
 10 
0.69677
 20 
0.45262
 30 
0.0
 0 
VERTEX
 8 
1
 10 
0.59724
 20 
0.45939
 30 
0.0
 0 
VERTEX
 8 
1
 10 
0.4977
 20 
0.46616
 30 
0.0
 0 
VERTEX
 8 
1
 10 
0.39816
 20 
0.47293
 30 
0.0
 0 
VERTEX
 8 
1
 10 
0.29862
 20 
0.47969
 30 
0.0
 0 
VERTEX
 8 
1
 10 
0.19908
 20 
0.48646
 30 
0.0
 0 
VERTEX
 8 
1
 10 
0.09954
 20 
0.49323
 30 
0.0
 0 
VERTEX
 8 
1
 10 
0.04977
 20 
0.49662
 30 
0.0
 0 
VERTEX
 8 
1
 10 
0.0
 20 
0.5
 30 
0.0
 0 
SEQEND
 8 
1
 0 
ENDSEC
 0 
EOF
