 0 
SECTION
 2 
ENTITIES
 0 
POLYLINE
 8 
1
 66 
 1 
 10 
0.0
 20 
0.0
 30 
0.0
 0 
VERTEX
 8 
1
 10 
0.0
 20 
0.5
 30 
0.0
 0 
VERTEX
 8 
1
 10 
0.05
 20 
0.51322
 30 
0.0
 0 
VERTEX
 8 
1
 10 
0.1
 20 
0.52445
 30 
0.0
 0 
VERTEX
 8 
1
 10 
0.2
 20 
0.5454
 30 
0.0
 0 
VERTEX
 8 
1
 10 
0.3
 20 
0.56235
 30 
0.0
 0 
VERTEX
 8 
1
 10 
0.4
 20 
0.5763
 30 
0.0
 0 
VERTEX
 8 
1
 10 
0.5
 20 
0.58525
 30 
0.0
 0 
VERTEX
 8 
1
 10 
0.6
 20 
0.5912
 30 
0.0
 0 
VERTEX
 8 
1
 10 
0.7
 20 
0.59215
 30 
0.0
 0 
VERTEX
 8 
1
 10 
0.8
 20 
0.5866
 30 
0.0
 0 
VERTEX
 8 
1
 10 
0.85
 20 
0.57932
 30 
0.0
 0 
VERTEX
 8 
1
 10 
0.9
 20 
0.56655
 30 
0.0
 0 
VERTEX
 8 
1
 10 
0.925
 20 
0.55766
 30 
0.0
 0 
VERTEX
 8 
1
 10 
0.95
 20 
0.54577
 30 
0.0
 0 
VERTEX
 8 
1
 10 
0.975
 20 
0.52939
 30 
0.0
 0 
VERTEX
 8 
1
 10 
0.9875
 20 
0.51819
 30 
0.0
 0 
VERTEX
 8 
1
 10 
1
 20 
0.5
 30 
0.0
 0 
VERTEX
 8 
1
 10 
0.9875
 20 
0.48819
 30 
0.0
 0 
VERTEX
 8 
1
 10 
0.975
 20 
0.48589
 30 
0.0
 0 
VERTEX
 8 
1
 10 
0.95
 20 
0.48577
 30 
0.0
 0 
VERTEX
 8 
1
 10 
0.925
 20 
0.48566
 30 
0.0
 0 
VERTEX
 8 
1
 10 
0.9
 20 
0.48605
 30 
0.0
 0 
VERTEX
 8 
1
 10 
0.85
 20 
0.48683
 30 
0.0
 0 
VERTEX
 8 
1
 10 
0.8
 20 
0.4876
 30 
0.0
 0 
VERTEX
 8 
1
 10 
0.7
 20 
0.48915
 30 
0.0
 0 
VERTEX
 8 
1
 10 
0.6
 20 
0.4907
 30 
0.0
 0 
VERTEX
 8 
1
 10 
0.5
 20 
0.49225
 30 
0.0
 0 
VERTEX
 8 
1
 10 
0.4
 20 
0.4938
 30 
0.0
 0 
VERTEX
 8 
1
 10 
0.3
 20 
0.49535
 30 
0.0
 0 
VERTEX
 8 
1
 10 
0.2
 20 
0.4969
 30 
0.0
 0 
VERTEX
 8 
1
 10 
0.1
 20 
0.49845
 30 
0.0
 0 
VERTEX
 8 
1
 10 
0.05
 20 
0.49922
 30 
0.0
 0 
VERTEX
 8 
1
 10 
0.0
 20 
0.5
 30 
0.0
 0 
SEQEND
 8 
1
 0 
ENDSEC
 0 
EOF
