 0 
SECTION
 2 
ENTITIES
 0 
POLYLINE
 8 
1
 66 
 1 
 10 
0.0
 20 
0.0
 30 
0.0
 0 
VERTEX
 8 
1
 10 
0.0
 20 
0.505
 30 
0.0
 0 
VERTEX
 8 
1
 10 
0.05
 20 
0.518
 30 
0.0
 0 
VERTEX
 8 
1
 10 
0.1
 20 
0.5315
 30 
0.0
 0 
VERTEX
 8 
1
 10 
0.2
 20 
0.558
 30 
0.0
 0 
VERTEX
 8 
1
 10 
0.3
 20 
0.583
 30 
0.0
 0 
VERTEX
 8 
1
 10 
0.4
 20 
0.604
 30 
0.0
 0 
VERTEX
 8 
1
 10 
0.5
 20 
0.6205
 30 
0.0
 0 
VERTEX
 8 
1
 10 
0.6
 20 
0.63
 30 
0.0
 0 
VERTEX
 8 
1
 10 
0.7
 20 
0.632
 30 
0.0
 0 
VERTEX
 8 
1
 10 
0.8
 20 
0.621
 30 
0.0
 0 
VERTEX
 8 
1
 10 
0.85
 20 
0.6095
 30 
0.0
 0 
VERTEX
 8 
1
 10 
0.9
 20 
0.5925
 30 
0.0
 0 
VERTEX
 8 
1
 10 
0.925
 20 
0.5805
 30 
0.0
 0 
VERTEX
 8 
1
 10 
0.95
 20 
0.566
 30 
0.0
 0 
VERTEX
 8 
1
 10 
0.975
 20 
0.546
 30 
0.0
 0 
VERTEX
 8 
1
 10 
0.9875
 20 
0.532
 30 
0.0
 0 
VERTEX
 8 
1
 10 
1
 20 
0.5
 30 
0.0
 0 
VERTEX
 8 
1
 10 
0.9875
 20 
0.483
 30 
0.0
 0 
VERTEX
 8 
1
 10 
0.975
 20 
0.4775
 30 
0.0
 0 
VERTEX
 8 
1
 10 
0.95
 20 
0.4715
 30 
0.0
 0 
VERTEX
 8 
1
 10 
0.925
 20 
0.469
 30 
0.0
 0 
VERTEX
 8 
1
 10 
0.9
 20 
0.468
 30 
0.0
 0 
VERTEX
 8 
1
 10 
0.85
 20 
0.4675
 30 
0.0
 0 
VERTEX
 8 
1
 10 
0.8
 20 
0.4685
 30 
0.0
 0 
VERTEX
 8 
1
 10 
0.7
 20 
0.472
 30 
0.0
 0 
VERTEX
 8 
1
 10 
0.6
 20 
0.476
 30 
0.0
 0 
VERTEX
 8 
1
 10 
0.5
 20 
0.48
 30 
0.0
 0 
VERTEX
 8 
1
 10 
0.4
 20 
0.484
 30 
0.0
 0 
VERTEX
 8 
1
 10 
0.3
 20 
0.488
 30 
0.0
 0 
VERTEX
 8 
1
 10 
0.2
 20 
0.492
 30 
0.0
 0 
VERTEX
 8 
1
 10 
0.1
 20 
0.496
 30 
0.0
 0 
VERTEX
 8 
1
 10 
0.05
 20 
0.498
 30 
0.0
 0 
VERTEX
 8 
1
 10 
0.0
 20 
0.5
 30 
0.0
 0 
SEQEND
 8 
1
 0 
ENDSEC
 0 
EOF
