 0 
SECTION
 2 
ENTITIES
 0 
POLYLINE
 8 
1
 66 
 1 
 10 
0.0
 20 
0.0
 30 
0.0
 0 
VERTEX
 8 
1
 10 
0.0
 20 
0.5
 30 
0.0
 0 
VERTEX
 8 
1
 10 
0.05108
 20 
0.52027
 30 
0.0
 0 
VERTEX
 8 
1
 10 
0.10206
 20 
0.53854
 30 
0.0
 0 
VERTEX
 8 
1
 10 
0.20378
 20 
0.5706
 30 
0.0
 0 
VERTEX
 8 
1
 10 
0.30528
 20 
0.59867
 30 
0.0
 0 
VERTEX
 8 
1
 10 
0.40651
 20 
0.62175
 30 
0.0
 0 
VERTEX
 8 
1
 10 
0.50745
 20 
0.63935
 30 
0.0
 0 
VERTEX
 8 
1
 10 
0.60805
 20 
0.65047
 30 
0.0
 0 
VERTEX
 8 
1
 10 
0.70811
 20 
0.65162
 30 
0.0
 0 
VERTEX
 8 
1
 10 
0.80737
 20 
0.63781
 30 
0.0
 0 
VERTEX
 8 
1
 10 
0.85661
 20 
0.62367
 30 
0.0
 0 
VERTEX
 8 
1
 10 
0.9054
 20 
0.60106
 30 
0.0
 0 
VERTEX
 8 
1
 10 
0.92972
 20 
0.58826
 30 
0.0
 0 
VERTEX
 8 
1
 10 
0.95371
 20 
0.56948
 30 
0.0
 0 
VERTEX
 8 
1
 10 
0.97739
 20 
0.54471
 30 
0.0
 0 
VERTEX
 8 
1
 10 
0.98903
 20 
0.52859
 30 
0.0
 0 
VERTEX
 8 
1
 10 
1
 20 
0.5
 30 
0.0
 0 
VERTEX
 8 
1
 10 
0.98636
 20 
0.47873
 30 
0.0
 0 
VERTEX
 8 
1
 10 
0.97691
 20 
0.47469
 30 
0.0
 0 
VERTEX
 8 
1
 10 
0.94814
 20 
0.46527
 30 
0.0
 0 
VERTEX
 8 
1
 10 
0.92286
 20 
0.46013
 30 
0.0
 0 
VERTEX
 8 
1
 10 
0.89775
 20 
0.45797
 30 
0.0
 0 
VERTEX
 8 
1
 10 
0.84763
 20 
0.45565
 30 
0.0
 0 
VERTEX
 8 
1
 10 
0.79772
 20 
0.45732
 30 
0.0
 0 
VERTEX
 8 
1
 10 
0.69811
 20 
0.46465
 30 
0.0
 0 
VERTEX
 8 
1
 10 
0.59861
 20 
0.47397
 30 
0.0
 0 
VERTEX
 8 
1
 10 
0.49911
 20 
0.4833
 30 
0.0
 0 
VERTEX
 8 
1
 10 
0.39952
 20 
0.49113
 30 
0.0
 0 
VERTEX
 8 
1
 10 
0.29981
 20 
0.49646
 30 
0.0
 0 
VERTEX
 8 
1
 10 
0.19999
 20 
0.4998
 30 
0.0
 0 
VERTEX
 8 
1
 10 
0.099469
 20 
0.49935
 30 
0.0
 0 
VERTEX
 8 
1
 10 
0.05002
 20 
0.50032
 30 
0.0
 0 
VERTEX
 8 
1
 10 
0.0
 20 
0.5
 30 
0.0
 0 
SEQEND
 8 
1
 0 
ENDSEC
 0 
EOF
