 0 
SECTION
 2 
ENTITIES
 0 
POLYLINE
 8 
1
 66 
 1 
 10 
0.0
 20 
0.0
 30 
0.0
 0 
VERTEX
 8 
1
 10 
0.0
 20 
0.5
 30 
0.0
 0 
VERTEX
 8 
1
 10 
0.05
 20 
0.508
 30 
0.0
 0 
VERTEX
 8 
1
 10 
0.1
 20 
0.517
 30 
0.0
 0 
VERTEX
 8 
1
 10 
0.2
 20 
0.534
 30 
0.0
 0 
VERTEX
 8 
1
 10 
0.3
 20 
0.552
 30 
0.0
 0 
VERTEX
 8 
1
 10 
0.4
 20 
0.565
 30 
0.0
 0 
VERTEX
 8 
1
 10 
0.5
 20 
0.57
 30 
0.0
 0 
VERTEX
 8 
1
 10 
0.6
 20 
0.568
 30 
0.0
 0 
VERTEX
 8 
1
 10 
0.7
 20 
0.56
 30 
0.0
 0 
VERTEX
 8 
1
 10 
0.8
 20 
0.548
 30 
0.0
 0 
VERTEX
 8 
1
 10 
0.85
 20 
0.54
 30 
0.0
 0 
VERTEX
 8 
1
 10 
0.9
 20 
0.53
 30 
0.0
 0 
VERTEX
 8 
1
 10 
0.925
 20 
0.525
 30 
0.0
 0 
VERTEX
 8 
1
 10 
0.95
 20 
0.52
 30 
0.0
 0 
VERTEX
 8 
1
 10 
0.975
 20 
0.513
 30 
0.0
 0 
VERTEX
 8 
1
 10 
0.9875
 20 
0.508
 30 
0.0
 0 
VERTEX
 8 
1
 10 
1
 20 
0.5
 30 
0.0
 0 
VERTEX
 8 
1
 10 
0.9875
 20 
0.491
 30 
0.0
 0 
VERTEX
 8 
1
 10 
0.975
 20 
0.487
 30 
0.0
 0 
VERTEX
 8 
1
 10 
0.95
 20 
0.482
 30 
0.0
 0 
VERTEX
 8 
1
 10 
0.925
 20 
0.477
 30 
0.0
 0 
VERTEX
 8 
1
 10 
0.9
 20 
0.474
 30 
0.0
 0 
VERTEX
 8 
1
 10 
0.85
 20 
0.468
 30 
0.0
 0 
VERTEX
 8 
1
 10 
0.8
 20 
0.463
 30 
0.0
 0 
VERTEX
 8 
1
 10 
0.7
 20 
0.456
 30 
0.0
 0 
VERTEX
 8 
1
 10 
0.6
 20 
0.452
 30 
0.0
 0 
VERTEX
 8 
1
 10 
0.5
 20 
0.45
 30 
0.0
 0 
VERTEX
 8 
1
 10 
0.4
 20 
0.451
 30 
0.0
 0 
VERTEX
 8 
1
 10 
0.3
 20 
0.456
 30 
0.0
 0 
VERTEX
 8 
1
 10 
0.2
 20 
0.464
 30 
0.0
 0 
VERTEX
 8 
1
 10 
0.1
 20 
0.479
 30 
0.0
 0 
VERTEX
 8 
1
 10 
0.05
 20 
0.488
 30 
0.0
 0 
VERTEX
 8 
1
 10 
0.0
 20 
0.5
 30 
0.0
 0 
SEQEND
 8 
1
 0 
ENDSEC
 0 
EOF
