 0 
SECTION
 2 
ENTITIES
 0 
POLYLINE
 8 
1
 66 
 1 
 10 
0.0
 20 
0.0
 30 
0.0
 0 
VERTEX
 8 
1
 10 
0.0
 20 
0.5
 30 
0.0
 0 
VERTEX
 8 
1
 10 
0.05
 20 
0.5135
 30 
0.0
 0 
VERTEX
 8 
1
 10 
0.1
 20 
0.5255
 30 
0.0
 0 
VERTEX
 8 
1
 10 
0.2
 20 
0.549
 30 
0.0
 0 
VERTEX
 8 
1
 10 
0.3
 20 
0.572
 30 
0.0
 0 
VERTEX
 8 
1
 10 
0.4
 20 
0.5915
 30 
0.0
 0 
VERTEX
 8 
1
 10 
0.5
 20 
0.608
 30 
0.0
 0 
VERTEX
 8 
1
 10 
0.6
 20 
0.6185
 30 
0.0
 0 
VERTEX
 8 
1
 10 
0.7
 20 
0.62
 30 
0.0
 0 
VERTEX
 8 
1
 10 
0.8
 20 
0.6105
 30 
0.0
 0 
VERTEX
 8 
1
 10 
0.85
 20 
0.6
 30 
0.0
 0 
VERTEX
 8 
1
 10 
0.9
 20 
0.585
 30 
0.0
 0 
VERTEX
 8 
1
 10 
0.925
 20 
0.575
 30 
0.0
 0 
VERTEX
 8 
1
 10 
0.95
 20 
0.561
 30 
0.0
 0 
VERTEX
 8 
1
 10 
0.975
 20 
0.5435
 30 
0.0
 0 
VERTEX
 8 
1
 10 
0.9875
 20 
0.5305
 30 
0.0
 0 
VERTEX
 8 
1
 10 
1
 20 
0.5
 30 
0.0
 0 
VERTEX
 8 
1
 10 
0.9875
 20 
0.4725
 30 
0.0
 0 
VERTEX
 8 
1
 10 
0.975
 20 
0.464
 30 
0.0
 0 
VERTEX
 8 
1
 10 
0.95
 20 
0.4535
 30 
0.0
 0 
VERTEX
 8 
1
 10 
0.925
 20 
0.446
 30 
0.0
 0 
VERTEX
 8 
1
 10 
0.9
 20 
0.4405
 30 
0.0
 0 
VERTEX
 8 
1
 10 
0.85
 20 
0.4335
 30 
0.0
 0 
VERTEX
 8 
1
 10 
0.8
 20 
0.4295
 30 
0.0
 0 
VERTEX
 8 
1
 10 
0.7
 20 
0.426
 30 
0.0
 0 
VERTEX
 8 
1
 10 
0.6
 20 
0.425
 30 
0.0
 0 
VERTEX
 8 
1
 10 
0.5
 20 
0.427
 30 
0.0
 0 
VERTEX
 8 
1
 10 
0.4
 20 
0.432
 30 
0.0
 0 
VERTEX
 8 
1
 10 
0.3
 20 
0.4405
 30 
0.0
 0 
VERTEX
 8 
1
 10 
0.2
 20 
0.454
 30 
0.0
 0 
VERTEX
 8 
1
 10 
0.1
 20 
0.474
 30 
0.0
 0 
VERTEX
 8 
1
 10 
0.05
 20 
0.4865
 30 
0.0
 0 
VERTEX
 8 
1
 10 
0.0
 20 
0.5
 30 
0.0
 0 
SEQEND
 8 
1
 0 
ENDSEC
 0 
EOF
