 0 
SECTION
 2 
ENTITIES
 0 
POLYLINE
 8 
1
 66 
 1 
 10 
0.0
 20 
0.0
 30 
0.0
 0 
VERTEX
 8 
1
 10 
0.0
 20 
0.5026
 30 
0.0
 0 
VERTEX
 8 
1
 10 
0.05
 20 
0.51464
 30 
0.0
 0 
VERTEX
 8 
1
 10 
0.1
 20 
0.52668
 30 
0.0
 0 
VERTEX
 8 
1
 10 
0.2
 20 
0.55056
 30 
0.0
 0 
VERTEX
 8 
1
 10 
0.3
 20 
0.57504
 30 
0.0
 0 
VERTEX
 8 
1
 10 
0.4
 20 
0.59912
 30 
0.0
 0 
VERTEX
 8 
1
 10 
0.5
 20 
0.6223
 30 
0.0
 0 
VERTEX
 8 
1
 10 
0.6
 20 
0.63948
 30 
0.0
 0 
VERTEX
 8 
1
 10 
0.7
 20 
0.64536
 30 
0.0
 0 
VERTEX
 8 
1
 10 
0.8
 20 
0.63694
 30 
0.0
 0 
VERTEX
 8 
1
 10 
0.85
 20 
0.62428
 30 
0.0
 0 
VERTEX
 8 
1
 10 
0.9
 20 
0.60562
 30 
0.0
 0 
VERTEX
 8 
1
 10 
0.95
 20 
0.57696
 30 
0.0
 0 
VERTEX
 8 
1
 10 
0.975
 20 
0.55623
 30 
0.0
 0 
VERTEX
 8 
1
 10 
0.9875
 20 
0.54272
 30 
0.0
 0 
VERTEX
 8 
1
 10 
1
 20 
0.5
 30 
0.0
 0 
VERTEX
 8 
1
 10 
0.9875
 20 
0.48252
 30 
0.0
 0 
VERTEX
 8 
1
 10 
0.975
 20 
0.47443
 30 
0.0
 0 
VERTEX
 8 
1
 10 
0.95
 20 
0.46436
 30 
0.0
 0 
VERTEX
 8 
1
 10 
0.9
 20 
0.45262
 30 
0.0
 0 
VERTEX
 8 
1
 10 
0.85
 20 
0.44418
 30 
0.0
 0 
VERTEX
 8 
1
 10 
0.8
 20 
0.43864
 30 
0.0
 0 
VERTEX
 8 
1
 10 
0.7
 20 
0.43546
 30 
0.0
 0 
VERTEX
 8 
1
 10 
0.6
 20 
0.43598
 30 
0.0
 0 
VERTEX
 8 
1
 10 
0.5
 20 
0.4437
 30 
0.0
 0 
VERTEX
 8 
1
 10 
0.4
 20 
0.45452
 30 
0.0
 0 
VERTEX
 8 
1
 10 
0.3
 20 
0.46584
 30 
0.0
 0 
VERTEX
 8 
1
 10 
0.2
 20 
0.47726
 30 
0.0
 0 
VERTEX
 8 
1
 10 
0.1
 20 
0.48858
 30 
0.0
 0 
VERTEX
 8 
1
 10 
0.05
 20 
0.49404
 30 
0.0
 0 
VERTEX
 8 
1
 10 
0.0
 20 
0.5
 30 
0.0
 0 
SEQEND
 8 
1
 0 
ENDSEC
 0 
EOF
