 0 
SECTION
 2 
ENTITIES
 0 
POLYLINE
 8 
1
 66 
 1 
 10 
0.0
 20 
0.0
 30 
0.0
 0 
VERTEX
 8 
1
 10 
0.0
 20 
0.5026
 30 
0.0
 0 
VERTEX
 8 
1
 10 
0.05
 20 
0.51673
 30 
0.0
 0 
VERTEX
 8 
1
 10 
0.1
 20 
0.53097
 30 
0.0
 0 
VERTEX
 8 
1
 10 
0.2
 20 
0.55934
 30 
0.0
 0 
VERTEX
 8 
1
 10 
0.3
 20 
0.58761
 30 
0.0
 0 
VERTEX
 8 
1
 10 
0.4
 20 
0.61608
 30 
0.0
 0 
VERTEX
 8 
1
 10 
0.5
 20 
0.64235
 30 
0.0
 0 
VERTEX
 8 
1
 10 
0.6
 20 
0.66362
 30 
0.0
 0 
VERTEX
 8 
1
 10 
0.7
 20 
0.66959
 30 
0.0
 0 
VERTEX
 8 
1
 10 
0.8
 20 
0.66046
 30 
0.0
 0 
VERTEX
 8 
1
 10 
0.85
 20 
0.64599
 30 
0.0
 0 
VERTEX
 8 
1
 10 
0.9
 20 
0.62383
 30 
0.0
 0 
VERTEX
 8 
1
 10 
0.925
 20 
0.6089
 30 
0.0
 0 
VERTEX
 8 
1
 10 
0.95
 20 
0.59076
 30 
0.0
 0 
VERTEX
 8 
1
 10 
0.975
 20 
0.56733
 30 
0.0
 0 
VERTEX
 8 
1
 10 
0.9875
 20 
0.55272
 30 
0.0
 0 
VERTEX
 8 
1
 10 
1
 20 
0.5
 30 
0.0
 0 
VERTEX
 8 
1
 10 
0.9875
 20 
0.48582
 30 
0.0
 0 
VERTEX
 8 
1
 10 
0.975
 20 
0.47873
 30 
0.0
 0 
VERTEX
 8 
1
 10 
0.95
 20 
0.46987
 30 
0.0
 0 
VERTEX
 8 
1
 10 
0.925
 20 
0.4651
 30 
0.0
 0 
VERTEX
 8 
1
 10 
0.9
 20 
0.46133
 30 
0.0
 0 
VERTEX
 8 
1
 10 
0.85
 20 
0.4554
 30 
0.0
 0 
VERTEX
 8 
1
 10 
0.8
 20 
0.45166
 30 
0.0
 0 
VERTEX
 8 
1
 10 
0.7
 20 
0.44959
 30 
0.0
 0 
VERTEX
 8 
1
 10 
0.6
 20 
0.45132
 30 
0.0
 0 
VERTEX
 8 
1
 10 
0.5
 20 
0.45545
 30 
0.0
 0 
VERTEX
 8 
1
 10 
0.4
 20 
0.46378
 30 
0.0
 0 
VERTEX
 8 
1
 10 
0.3
 20 
0.47311
 30 
0.0
 0 
VERTEX
 8 
1
 10 
0.2
 20 
0.48204
 30 
0.0
 0 
VERTEX
 8 
1
 10 
0.1
 20 
0.49087
 30 
0.0
 0 
VERTEX
 8 
1
 10 
0.05
 20 
0.49493
 30 
0.0
 0 
VERTEX
 8 
1
 10 
0.0
 20 
0.5
 30 
0.0
 0 
SEQEND
 8 
1
 0 
ENDSEC
 0 
EOF
