 0 
SECTION
 2 
ENTITIES
 0 
POLYLINE
 8 
1
 66 
 1 
 10 
0.0
 20 
0.0
 30 
0.0
 0 
VERTEX
 8 
1
 10 
0.0
 20 
0.5
 30 
0.0
 0 
VERTEX
 8 
1
 10 
0.05043
 20 
0.5084
 30 
0.0
 0 
VERTEX
 8 
1
 10 
0.10087
 20 
0.51681
 30 
0.0
 0 
VERTEX
 8 
1
 10 
0.20209
 20 
0.54059
 30 
0.0
 0 
VERTEX
 8 
1
 10 
0.30342
 20 
0.56637
 30 
0.0
 0 
VERTEX
 8 
1
 10 
0.40472
 20 
0.59166
 30 
0.0
 0 
VERTEX
 8 
1
 10 
0.50582
 20 
0.61295
 30 
0.0
 0 
VERTEX
 8 
1
 10 
0.6065
 20 
0.62626
 30 
0.0
 0 
VERTEX
 8 
1
 10 
0.70683
 20 
0.6326
 30 
0.0
 0 
VERTEX
 8 
1
 10 
0.80643
 20 
0.62497
 30 
0.0
 0 
VERTEX
 8 
1
 10 
0.85581
 20 
0.61293
 30 
0.0
 0 
VERTEX
 8 
1
 10 
0.90483
 20 
0.5939
 30 
0.0
 0 
VERTEX
 8 
1
 10 
0.92918
 20 
0.58115
 30 
0.0
 0 
VERTEX
 8 
1
 10 
0.95339
 20 
0.5659
 30 
0.0
 0 
VERTEX
 8 
1
 10 
0.97735
 20 
0.54567
 30 
0.0
 0 
VERTEX
 8 
1
 10 
0.9891
 20 
0.53106
 30 
0.0
 0 
VERTEX
 8 
1
 10 
1
 20 
0.5
 30 
0.0
 0 
VERTEX
 8 
1
 10 
0.98632
 20 
0.4772
 30 
0.0
 0 
VERTEX
 8 
1
 10 
0.97342
 20 
0.46937
 30 
0.0
 0 
VERTEX
 8 
1
 10 
0.94802
 20 
0.46168
 30 
0.0
 0 
VERTEX
 8 
1
 10 
0.92283
 20 
0.45797
 30 
0.0
 0 
VERTEX
 8 
1
 10 
0.89777
 20 
0.45676
 30 
0.0
 0 
VERTEX
 8 
1
 10 
0.84778
 20 
0.45684
 30 
0.0
 0 
VERTEX
 8 
1
 10 
0.79788
 20 
0.45891
 30 
0.0
 0 
VERTEX
 8 
1
 10 
0.69833
 20 
0.46754
 30 
0.0
 0 
VERTEX
 8 
1
 10 
0.5988
 20 
0.47666
 30 
0.0
 0 
VERTEX
 8 
1
 10 
0.49914
 20 
0.48329
 30 
0.0
 0 
VERTEX
 8 
1
 10 
0.39933
 20 
0.48693
 30 
0.0
 0 
VERTEX
 8 
1
 10 
0.29946
 20 
0.48958
 30 
0.0
 0 
VERTEX
 8 
1
 10 
0.19955
 20 
0.49122
 30 
0.0
 0 
VERTEX
 8 
1
 10 
0.099740
 20 
0.49486
 30 
0.0
 0 
VERTEX
 8 
1
 10 
0.04987
 20 
0.49743
 30 
0.0
 0 
VERTEX
 8 
1
 10 
0.0
 20 
0.5
 30 
0.0
 0 
SEQEND
 8 
1
 0 
ENDSEC
 0 
EOF
