 0 
SECTION
 2 
ENTITIES
 0 
POLYLINE
 8 
1
 66 
 1 
 10 
0.0
 20 
0.0
 30 
0.0
 0 
VERTEX
 8 
1
 10 
0.0
 20 
0.5
 30 
0.0
 0 
VERTEX
 8 
1
 10 
0.05
 20 
0.505
 30 
0.0
 0 
VERTEX
 8 
1
 10 
0.1
 20 
0.5097
 30 
0.0
 0 
VERTEX
 8 
1
 10 
0.2
 20 
0.5197
 30 
0.0
 0 
VERTEX
 8 
1
 10 
0.3
 20 
0.5294
 30 
0.0
 0 
VERTEX
 8 
1
 10 
0.4
 20 
0.539
 30 
0.0
 0 
VERTEX
 8 
1
 10 
0.5
 20 
0.5498
 30 
0.0
 0 
VERTEX
 8 
1
 10 
0.6
 20 
0.5609
 30 
0.0
 0 
VERTEX
 8 
1
 10 
0.7
 20 
0.5705
 30 
0.0
 0 
VERTEX
 8 
1
 10 
0.75
 20 
0.5737
 30 
0.0
 0 
VERTEX
 8 
1
 10 
0.8
 20 
0.575
 30 
0.0
 0 
VERTEX
 8 
1
 10 
0.85
 20 
0.5738
 30 
0.0
 0 
VERTEX
 8 
1
 10 
0.9
 20 
0.5672
 30 
0.0
 0 
VERTEX
 8 
1
 10 
0.95
 20 
0.5533
 30 
0.0
 0 
VERTEX
 8 
1
 10 
0.975
 20 
0.54
 30 
0.0
 0 
VERTEX
 8 
1
 10 
0.9875
 20 
0.5299
 30 
0.0
 0 
VERTEX
 8 
1
 10 
1
 20 
0.5
 30 
0.0
 0 
VERTEX
 8 
1
 10 
0.9875
 20 
0.481
 30 
0.0
 0 
VERTEX
 8 
1
 10 
0.975
 20 
0.474
 30 
0.0
 0 
VERTEX
 8 
1
 10 
0.95
 20 
0.4652
 30 
0.0
 0 
VERTEX
 8 
1
 10 
0.9
 20 
0.458
 30 
0.0
 0 
VERTEX
 8 
1
 10 
0.85
 20 
0.4556
 30 
0.0
 0 
VERTEX
 8 
1
 10 
0.8
 20 
0.455
 30 
0.0
 0 
VERTEX
 8 
1
 10 
0.75
 20 
0.4548
 30 
0.0
 0 
VERTEX
 8 
1
 10 
0.7
 20 
0.4557
 30 
0.0
 0 
VERTEX
 8 
1
 10 
0.6
 20 
0.459
 30 
0.0
 0 
VERTEX
 8 
1
 10 
0.5
 20 
0.4636
 30 
0.0
 0 
VERTEX
 8 
1
 10 
0.4
 20 
0.4694
 30 
0.0
 0 
VERTEX
 8 
1
 10 
0.3
 20 
0.4764
 30 
0.0
 0 
VERTEX
 8 
1
 10 
0.2
 20 
0.4838
 30 
0.0
 0 
VERTEX
 8 
1
 10 
0.1
 20 
0.4916
 30 
0.0
 0 
VERTEX
 8 
1
 10 
0.05
 20 
0.4958
 30 
0.0
 0 
VERTEX
 8 
1
 10 
0.0
 20 
0.5
 30 
0.0
 0 
SEQEND
 8 
1
 0 
ENDSEC
 0 
EOF
