 0 
SECTION
 2 
ENTITIES
 0 
POLYLINE
 8 
1
 66 
 1 
 10 
0.0
 20 
0.0
 30 
0.0
 0 
VERTEX
 8 
1
 10 
0.0
 20 
0.5
 30 
0.0
 0 
VERTEX
 8 
1
 10 
0.05
 20 
0.50205
 30 
0.0
 0 
VERTEX
 8 
1
 10 
0.1
 20 
0.5051
 30 
0.0
 0 
VERTEX
 8 
1
 10 
0.2
 20 
0.5167
 30 
0.0
 0 
VERTEX
 8 
1
 10 
0.3
 20 
0.5353
 30 
0.0
 0 
VERTEX
 8 
1
 10 
0.4
 20 
0.5559
 30 
0.0
 0 
VERTEX
 8 
1
 10 
0.5
 20 
0.5755
 30 
0.0
 0 
VERTEX
 8 
1
 10 
0.6
 20 
0.5921
 30 
0.0
 0 
VERTEX
 8 
1
 10 
0.7
 20 
0.5992
 30 
0.0
 0 
VERTEX
 8 
1
 10 
0.8
 20 
0.5933
 30 
0.0
 0 
VERTEX
 8 
1
 10 
0.85
 20 
0.58485
 30 
0.0
 0 
VERTEX
 8 
1
 10 
0.9
 20 
0.5704
 30 
0.0
 0 
VERTEX
 8 
1
 10 
0.925
 20 
0.55992
 30 
0.0
 0 
VERTEX
 8 
1
 10 
0.95
 20 
0.54745
 30 
0.0
 0 
VERTEX
 8 
1
 10 
0.975
 20 
0.52997
 30 
0.0
 0 
VERTEX
 8 
1
 10 
0.9875
 20 
0.51949
 30 
0.0
 0 
VERTEX
 8 
1
 10 
1
 20 
0.5
 30 
0.0
 0 
VERTEX
 8 
1
 10 
0.9875
 20 
0.49069
 30 
0.0
 0 
VERTEX
 8 
1
 10 
0.975
 20 
0.49048
 30 
0.0
 0 
VERTEX
 8 
1
 10 
0.95
 20 
0.49145
 30 
0.0
 0 
VERTEX
 8 
1
 10 
0.925
 20 
0.49293
 30 
0.0
 0 
VERTEX
 8 
1
 10 
0.9
 20 
0.4939
 30 
0.0
 0 
VERTEX
 8 
1
 10 
0.85
 20 
0.49635
 30 
0.0
 0 
VERTEX
 8 
1
 10 
0.8
 20 
0.4983
 30 
0.0
 0 
VERTEX
 8 
1
 10 
0.7
 20 
0.5017
 30 
0.0
 0 
VERTEX
 8 
1
 10 
0.6
 20 
0.5026
 30 
0.0
 0 
VERTEX
 8 
1
 10 
0.5
 20 
0.5005
 30 
0.0
 0 
VERTEX
 8 
1
 10 
0.4
 20 
0.4959
 30 
0.0
 0 
VERTEX
 8 
1
 10 
0.3
 20 
0.4908
 30 
0.0
 0 
VERTEX
 8 
1
 10 
0.2
 20 
0.4892
 30 
0.0
 0 
VERTEX
 8 
1
 10 
0.1
 20 
0.4916
 30 
0.0
 0 
VERTEX
 8 
1
 10 
0.05
 20 
0.49505
 30 
0.0
 0 
VERTEX
 8 
1
 10 
0.0
 20 
0.5
 30 
0.0
 0 
SEQEND
 8 
1
 0 
ENDSEC
 0 
EOF
