 0 
SECTION
 2 
ENTITIES
 0 
POLYLINE
 8 
1
 66 
 1 
 10 
0.0
 20 
0.0
 30 
0.0
 0 
VERTEX
 8 
1
 10 
0.0
 20 
0.503
 30 
0.0
 0 
VERTEX
 8 
1
 10 
0.05
 20 
0.51635
 30 
0.0
 0 
VERTEX
 8 
1
 10 
0.1
 20 
0.5257
 30 
0.0
 0 
VERTEX
 8 
1
 10 
0.2
 20 
0.5444
 30 
0.0
 0 
VERTEX
 8 
1
 10 
0.3
 20 
0.5611
 30 
0.0
 0 
VERTEX
 8 
1
 10 
0.4
 20 
0.5758
 30 
0.0
 0 
VERTEX
 8 
1
 10 
0.5
 20 
0.5865
 30 
0.0
 0 
VERTEX
 8 
1
 10 
0.6
 20 
0.5922
 30 
0.0
 0 
VERTEX
 8 
1
 10 
0.7
 20 
0.5919
 30 
0.0
 0 
VERTEX
 8 
1
 10 
0.8
 20 
0.5856
 30 
0.0
 0 
VERTEX
 8 
1
 10 
0.85
 20 
0.57895
 30 
0.0
 0 
VERTEX
 8 
1
 10 
0.9
 20 
0.5665
 30 
0.0
 0 
VERTEX
 8 
1
 10 
0.925
 20 
0.55798
 30 
0.0
 0 
VERTEX
 8 
1
 10 
0.95
 20 
0.54665
 30 
0.0
 0 
VERTEX
 8 
1
 10 
0.975
 20 
0.53182
 30 
0.0
 0 
VERTEX
 8 
1
 10 
0.98
 20 
0.52846
 30 
0.0
 0 
VERTEX
 8 
1
 10 
0.985
 20 
0.5243
 30 
0.0
 0 
VERTEX
 8 
1
 10 
0.99
 20 
0.51943
 30 
0.0
 0 
VERTEX
 8 
1
 10 
0.995
 20 
0.51286
 30 
0.0
 0 
VERTEX
 8 
1
 10 
1
 20 
0.5
 30 
0.0
 0 
VERTEX
 8 
1
 10 
0.995
 20 
0.49067
 30 
0.0
 0 
VERTEX
 8 
1
 10 
0.99
 20 
0.48813
 30 
0.0
 0 
VERTEX
 8 
1
 10 
0.985
 20 
0.4875
 30 
0.0
 0 
VERTEX
 8 
1
 10 
0.98
 20 
0.48776
 30 
0.0
 0 
VERTEX
 8 
1
 10 
0.975
 20 
0.48832
 30 
0.0
 0 
VERTEX
 8 
1
 10 
0.95
 20 
0.49465
 30 
0.0
 0 
VERTEX
 8 
1
 10 
0.925
 20 
0.50097
 30 
0.0
 0 
VERTEX
 8 
1
 10 
0.9
 20 
0.5063
 30 
0.0
 0 
VERTEX
 8 
1
 10 
0.85
 20 
0.51595
 30 
0.0
 0 
VERTEX
 8 
1
 10 
0.8
 20 
0.5236
 30 
0.0
 0 
VERTEX
 8 
1
 10 
0.7
 20 
0.5349
 30 
0.0
 0 
VERTEX
 8 
1
 10 
0.6
 20 
0.5412
 30 
0.0
 0 
VERTEX
 8 
1
 10 
0.5
 20 
0.5425
 30 
0.0
 0 
VERTEX
 8 
1
 10 
0.4
 20 
0.5428
 30 
0.0
 0 
VERTEX
 8 
1
 10 
0.3
 20 
0.5381
 30 
0.0
 0 
VERTEX
 8 
1
 10 
0.2
 20 
0.5294
 30 
0.0
 0 
VERTEX
 8 
1
 10 
0.1
 20 
0.5167
 30 
0.0
 0 
VERTEX
 8 
1
 10 
0.05
 20 
0.50835
 30 
0.0
 0 
VERTEX
 8 
1
 10 
0.0
 20 
0.5
 30 
0.0
 0 
SEQEND
 8 
1
 0 
ENDSEC
 0 
EOF
