 0 
SECTION
 2 
ENTITIES
 0 
POLYLINE
 8 
1
 66 
 1 
 10 
0.0
 20 
0.0
 30 
0.0
 0 
VERTEX
 8 
1
 10 
0.0
 20 
0.504
 30 
0.0
 0 
VERTEX
 8 
1
 10 
0.05
 20 
0.5164
 30 
0.0
 0 
VERTEX
 8 
1
 10 
0.1
 20 
0.5288
 30 
0.0
 0 
VERTEX
 8 
1
 10 
0.2
 20 
0.5526
 30 
0.0
 0 
VERTEX
 8 
1
 10 
0.3
 20 
0.5734
 30 
0.0
 0 
VERTEX
 8 
1
 10 
0.4
 20 
0.5897
 30 
0.0
 0 
VERTEX
 8 
1
 10 
0.5
 20 
0.6015
 30 
0.0
 0 
VERTEX
 8 
1
 10 
0.6
 20 
0.6088
 30 
0.0
 0 
VERTEX
 8 
1
 10 
0.7
 20 
0.6096
 30 
0.0
 0 
VERTEX
 8 
1
 10 
0.8
 20 
0.6014
 30 
0.0
 0 
VERTEX
 8 
1
 10 
0.85
 20 
0.5918
 30 
0.0
 0 
VERTEX
 8 
1
 10 
0.9
 20 
0.5782
 30 
0.0
 0 
VERTEX
 8 
1
 10 
0.925
 20 
0.5689
 30 
0.0
 0 
VERTEX
 8 
1
 10 
0.95
 20 
0.5566
 30 
0.0
 0 
VERTEX
 8 
1
 10 
0.975
 20 
0.5398
 30 
0.0
 0 
VERTEX
 8 
1
 10 
0.9875
 20 
0.52615
 30 
0.0
 0 
VERTEX
 8 
1
 10 
1
 20 
0.5
 30 
0.0
 0 
VERTEX
 8 
1
 10 
0.9875
 20 
0.48815
 30 
0.0
 0 
VERTEX
 8 
1
 10 
0.975
 20 
0.488
 30 
0.0
 0 
VERTEX
 8 
1
 10 
0.95
 20 
0.4906
 30 
0.0
 0 
VERTEX
 8 
1
 10 
0.925
 20 
0.4973
 30 
0.0
 0 
VERTEX
 8 
1
 10 
0.915
 20 
0.503
 30 
0.0
 0 
VERTEX
 8 
1
 10 
0.91
 20 
0.5115
 30 
0.0
 0 
VERTEX
 8 
1
 10 
0.905
 20 
0.5165
 30 
0.0
 0 
VERTEX
 8 
1
 10 
0.9
 20 
0.518
 30 
0.0
 0 
VERTEX
 8 
1
 10 
0.895
 20 
0.518
 30 
0.0
 0 
VERTEX
 8 
1
 10 
0.89
 20 
0.5165
 30 
0.0
 0 
VERTEX
 8 
1
 10 
0.885
 20 
0.513
 30 
0.0
 0 
VERTEX
 8 
1
 10 
0.88
 20 
0.51
 30 
0.0
 0 
VERTEX
 8 
1
 10 
0.875
 20 
0.506
 30 
0.0
 0 
VERTEX
 8 
1
 10 
0.87
 20 
0.503
 30 
0.0
 0 
VERTEX
 8 
1
 10 
0.865
 20 
0.501
 30 
0.0
 0 
VERTEX
 8 
1
 10 
0.86
 20 
0.5
 30 
0.0
 0 
VERTEX
 8 
1
 10 
0.855
 20 
0.4995
 30 
0.0
 0 
VERTEX
 8 
1
 10 
0.85
 20 
0.4998
 30 
0.0
 0 
VERTEX
 8 
1
 10 
0.845
 20 
0.50015
 30 
0.0
 0 
VERTEX
 8 
1
 10 
0.8
 20 
0.5044
 30 
0.0
 0 
VERTEX
 8 
1
 10 
0.7
 20 
0.5116
 30 
0.0
 0 
VERTEX
 8 
1
 10 
0.6
 20 
0.5148
 30 
0.0
 0 
VERTEX
 8 
1
 10 
0.5
 20 
0.515
 30 
0.0
 0 
VERTEX
 8 
1
 10 
0.4
 20 
0.5147
 30 
0.0
 0 
VERTEX
 8 
1
 10 
0.3
 20 
0.5124
 30 
0.0
 0 
VERTEX
 8 
1
 10 
0.2
 20 
0.5086
 30 
0.0
 0 
VERTEX
 8 
1
 10 
0.1
 20 
0.5038
 30 
0.0
 0 
VERTEX
 8 
1
 10 
0.05
 20 
0.5019
 30 
0.0
 0 
VERTEX
 8 
1
 10 
0.0
 20 
0.5
 30 
0.0
 0 
SEQEND
 8 
1
 0 
ENDSEC
 0 
EOF
