 0 
SECTION
 2 
ENTITIES
 0 
POLYLINE
 8 
1
 66 
 1 
 10 
0.0
 20 
0.0
 30 
0.0
 0 
VERTEX
 8 
1
 10 
0.0
 20 
0.5
 30 
0.0
 0 
VERTEX
 8 
1
 10 
0.05
 20 
0.51815
 30 
0.0
 0 
VERTEX
 8 
1
 10 
0.1
 20 
0.53602
 30 
0.0
 0 
VERTEX
 8 
1
 10 
0.15
 20 
0.55413
 30 
0.0
 0 
VERTEX
 8 
1
 10 
0.2
 20 
0.57282
 30 
0.0
 0 
VERTEX
 8 
1
 10 
0.25
 20 
0.59173
 30 
0.0
 0 
VERTEX
 8 
1
 10 
0.3
 20 
0.61037
 30 
0.0
 0 
VERTEX
 8 
1
 10 
0.35
 20 
0.62815
 30 
0.0
 0 
VERTEX
 8 
1
 10 
0.4
 20 
0.64434
 30 
0.0
 0 
VERTEX
 8 
1
 10 
0.45
 20 
0.658
 30 
0.0
 0 
VERTEX
 8 
1
 10 
0.5
 20 
0.6675
 30 
0.0
 0 
VERTEX
 8 
1
 10 
0.55
 20 
0.67084
 30 
0.0
 0 
VERTEX
 8 
1
 10 
0.6
 20 
0.67003
 30 
0.0
 0 
VERTEX
 8 
1
 10 
0.65
 20 
0.66582
 30 
0.0
 0 
VERTEX
 8 
1
 10 
0.7
 20 
0.65844
 30 
0.0
 0 
VERTEX
 8 
1
 10 
0.75
 20 
0.64787
 30 
0.0
 0 
VERTEX
 8 
1
 10 
0.8
 20 
0.63388
 30 
0.0
 0 
VERTEX
 8 
1
 10 
0.85
 20 
0.61593
 30 
0.0
 0 
VERTEX
 8 
1
 10 
0.9
 20 
0.59291
 30 
0.0
 0 
VERTEX
 8 
1
 10 
0.925
 20 
0.57876
 30 
0.0
 0 
VERTEX
 8 
1
 10 
0.95
 20 
0.56199
 30 
0.0
 0 
VERTEX
 8 
1
 10 
0.975
 20 
0.54082
 30 
0.0
 0 
VERTEX
 8 
1
 10 
0.995
 20 
0.51552
 30 
0.0
 0 
VERTEX
 8 
1
 10 
1
 20 
0.5
 30 
0.0
 0 
VERTEX
 8 
1
 10 
0.995
 20 
0.49036
 30 
0.0
 0 
VERTEX
 8 
1
 10 
0.975
 20 
0.48181
 30 
0.0
 0 
VERTEX
 8 
1
 10 
0.95
 20 
0.47738
 30 
0.0
 0 
VERTEX
 8 
1
 10 
0.925
 20 
0.47468
 30 
0.0
 0 
VERTEX
 8 
1
 10 
0.9
 20 
0.4728
 30 
0.0
 0 
VERTEX
 8 
1
 10 
0.85
 20 
0.47044
 30 
0.0
 0 
VERTEX
 8 
1
 10 
0.8
 20 
0.4692
 30 
0.0
 0 
VERTEX
 8 
1
 10 
0.75
 20 
0.46867
 30 
0.0
 0 
VERTEX
 8 
1
 10 
0.7
 20 
0.46869
 30 
0.0
 0 
VERTEX
 8 
1
 10 
0.65
 20 
0.46919
 30 
0.0
 0 
VERTEX
 8 
1
 10 
0.6
 20 
0.47015
 30 
0.0
 0 
VERTEX
 8 
1
 10 
0.55
 20 
0.47174
 30 
0.0
 0 
VERTEX
 8 
1
 10 
0.5
 20 
0.47384
 30 
0.0
 0 
VERTEX
 8 
1
 10 
0.45
 20 
0.47619
 30 
0.0
 0 
VERTEX
 8 
1
 10 
0.4
 20 
0.47869
 30 
0.0
 0 
VERTEX
 8 
1
 10 
0.35
 20 
0.48125
 30 
0.0
 0 
VERTEX
 8 
1
 10 
0.3
 20 
0.48379
 30 
0.0
 0 
VERTEX
 8 
1
 10 
0.25
 20 
0.48626
 30 
0.0
 0 
VERTEX
 8 
1
 10 
0.2
 20 
0.48863
 30 
0.0
 0 
VERTEX
 8 
1
 10 
0.15
 20 
0.49087
 30 
0.0
 0 
VERTEX
 8 
1
 10 
0.1
 20 
0.49306
 30 
0.0
 0 
VERTEX
 8 
1
 10 
0.05
 20 
0.4959
 30 
0.0
 0 
VERTEX
 8 
1
 10 
0.0
 20 
0.5
 30 
0.0
 0 
SEQEND
 8 
1
 0 
ENDSEC
 0 
EOF
