 0 
SECTION
 2 
ENTITIES
 0 
POLYLINE
 8 
1
 66 
 1 
 10 
0.0
 20 
0.0
 30 
0.0
 0 
VERTEX
 8 
1
 10 
0.0
 20 
0.5
 30 
0.0
 0 
VERTEX
 8 
1
 10 
0.0011100
 20 
0.50007
 30 
0.0
 0 
VERTEX
 8 
1
 10 
0.0043299
 20 
0.50026
 30 
0.0
 0 
VERTEX
 8 
1
 10 
0.0095600
 20 
0.50059
 30 
0.0
 0 
VERTEX
 8 
1
 10 
0.017
 20 
0.50106
 30 
0.0
 0 
VERTEX
 8 
1
 10 
0.02656
 20 
0.50167
 30 
0.0
 0 
VERTEX
 8 
1
 10 
0.03811
 20 
0.50245
 30 
0.0
 0 
VERTEX
 8 
1
 10 
0.051560
 20 
0.50347
 30 
0.0
 0 
VERTEX
 8 
1
 10 
0.066999
 20 
0.50475
 30 
0.0
 0 
VERTEX
 8 
1
 10 
0.08422
 20 
0.50627
 30 
0.0
 0 
VERTEX
 8 
1
 10 
0.10333
 20 
0.50796
 30 
0.0
 0 
VERTEX
 8 
1
 10 
0.12411
 20 
0.5098
 30 
0.0
 0 
VERTEX
 8 
1
 10 
0.14644
 20 
0.51186
 30 
0.0
 0 
VERTEX
 8 
1
 10 
0.17033
 20 
0.51423
 30 
0.0
 0 
VERTEX
 8 
1
 10 
0.19567
 20 
0.51689
 30 
0.0
 0 
VERTEX
 8 
1
 10 
0.22222
 20 
0.51974
 30 
0.0
 0 
VERTEX
 8 
1
 10 
0.25
 20 
0.52271
 30 
0.0
 0 
VERTEX
 8 
1
 10 
0.27889
 20 
0.5258
 30 
0.0
 0 
VERTEX
 8 
1
 10 
0.30867
 20 
0.52896
 30 
0.0
 0 
VERTEX
 8 
1
 10 
0.33933
 20 
0.53218
 30 
0.0
 0 
VERTEX
 8 
1
 10 
0.37056
 20 
0.53534
 30 
0.0
 0 
VERTEX
 8 
1
 10 
0.40244
 20 
0.53833
 30 
0.0
 0 
VERTEX
 8 
1
 10 
0.43478
 20 
0.54106
 30 
0.0
 0 
VERTEX
 8 
1
 10 
0.46733
 20 
0.54343
 30 
0.0
 0 
VERTEX
 8 
1
 10 
0.5
 20 
0.54539
 30 
0.0
 0 
VERTEX
 8 
1
 10 
0.53267
 20 
0.54692
 30 
0.0
 0 
VERTEX
 8 
1
 10 
0.56522
 20 
0.54812
 30 
0.0
 0 
VERTEX
 8 
1
 10 
0.59756
 20 
0.5491
 30 
0.0
 0 
VERTEX
 8 
1
 10 
0.62944
 20 
0.54981
 30 
0.0
 0 
VERTEX
 8 
1
 10 
0.66067
 20 
0.55
 30 
0.0
 0 
VERTEX
 8 
1
 10 
0.69133
 20 
0.54964
 30 
0.0
 0 
VERTEX
 8 
1
 10 
0.72111
 20 
0.549
 30 
0.0
 0 
VERTEX
 8 
1
 10 
0.75
 20 
0.54814
 30 
0.0
 0 
VERTEX
 8 
1
 10 
0.77778
 20 
0.54697
 30 
0.0
 0 
VERTEX
 8 
1
 10 
0.80433
 20 
0.54565
 30 
0.0
 0 
VERTEX
 8 
1
 10 
0.82967
 20 
0.54424
 30 
0.0
 0 
VERTEX
 8 
1
 10 
0.85356
 20 
0.5422
 30 
0.0
 0 
VERTEX
 8 
1
 10 
0.87589
 20 
0.53962
 30 
0.0
 0 
VERTEX
 8 
1
 10 
0.89667
 20 
0.53673
 30 
0.0
 0 
VERTEX
 8 
1
 10 
0.91578
 20 
0.53367
 30 
0.0
 0 
VERTEX
 8 
1
 10 
0.933
 20 
0.53046
 30 
0.0
 0 
VERTEX
 8 
1
 10 
0.94844
 20 
0.52706
 30 
0.0
 0 
VERTEX
 8 
1
 10 
0.96189
 20 
0.52346
 30 
0.0
 0 
VERTEX
 8 
1
 10 
0.97344
 20 
0.51967
 30 
0.0
 0 
VERTEX
 8 
1
 10 
0.983
 20 
0.51571
 30 
0.0
 0 
VERTEX
 8 
1
 10 
0.99044
 20 
0.51166
 30 
0.0
 0 
VERTEX
 8 
1
 10 
0.99567
 20 
0.50755
 30 
0.0
 0 
VERTEX
 8 
1
 10 
0.99889
 20 
0.50326
 30 
0.0
 0 
VERTEX
 8 
1
 10 
1
 20 
0.5
 30 
0.0
 0 
VERTEX
 8 
1
 10 
0.99889
 20 
0.49674
 30 
0.0
 0 
VERTEX
 8 
1
 10 
0.99567
 20 
0.49245
 30 
0.0
 0 
VERTEX
 8 
1
 10 
0.99044
 20 
0.48834
 30 
0.0
 0 
VERTEX
 8 
1
 10 
0.983
 20 
0.48429
 30 
0.0
 0 
VERTEX
 8 
1
 10 
0.97344
 20 
0.48033
 30 
0.0
 0 
VERTEX
 8 
1
 10 
0.96189
 20 
0.47654
 30 
0.0
 0 
VERTEX
 8 
1
 10 
0.94844
 20 
0.47294
 30 
0.0
 0 
VERTEX
 8 
1
 10 
0.933
 20 
0.46954
 30 
0.0
 0 
VERTEX
 8 
1
 10 
0.91578
 20 
0.46633
 30 
0.0
 0 
VERTEX
 8 
1
 10 
0.89667
 20 
0.46327
 30 
0.0
 0 
VERTEX
 8 
1
 10 
0.87589
 20 
0.46038
 30 
0.0
 0 
VERTEX
 8 
1
 10 
0.85356
 20 
0.4578
 30 
0.0
 0 
VERTEX
 8 
1
 10 
0.82967
 20 
0.45576
 30 
0.0
 0 
VERTEX
 8 
1
 10 
0.80433
 20 
0.45435
 30 
0.0
 0 
VERTEX
 8 
1
 10 
0.77778
 20 
0.45303
 30 
0.0
 0 
VERTEX
 8 
1
 10 
0.75
 20 
0.45186
 30 
0.0
 0 
VERTEX
 8 
1
 10 
0.72111
 20 
0.451
 30 
0.0
 0 
VERTEX
 8 
1
 10 
0.69133
 20 
0.45036
 30 
0.0
 0 
VERTEX
 8 
1
 10 
0.66067
 20 
0.45
 30 
0.0
 0 
VERTEX
 8 
1
 10 
0.62944
 20 
0.45019
 30 
0.0
 0 
VERTEX
 8 
1
 10 
0.59756
 20 
0.4509
 30 
0.0
 0 
VERTEX
 8 
1
 10 
0.56522
 20 
0.45188
 30 
0.0
 0 
VERTEX
 8 
1
 10 
0.53267
 20 
0.45308
 30 
0.0
 0 
VERTEX
 8 
1
 10 
0.5
 20 
0.45461
 30 
0.0
 0 
VERTEX
 8 
1
 10 
0.46733
 20 
0.45657
 30 
0.0
 0 
VERTEX
 8 
1
 10 
0.43478
 20 
0.45894
 30 
0.0
 0 
VERTEX
 8 
1
 10 
0.40244
 20 
0.46167
 30 
0.0
 0 
VERTEX
 8 
1
 10 
0.37056
 20 
0.46466
 30 
0.0
 0 
VERTEX
 8 
1
 10 
0.33933
 20 
0.46782
 30 
0.0
 0 
VERTEX
 8 
1
 10 
0.30867
 20 
0.47104
 30 
0.0
 0 
VERTEX
 8 
1
 10 
0.27889
 20 
0.4742
 30 
0.0
 0 
VERTEX
 8 
1
 10 
0.25
 20 
0.47729
 30 
0.0
 0 
VERTEX
 8 
1
 10 
0.22222
 20 
0.48026
 30 
0.0
 0 
VERTEX
 8 
1
 10 
0.19567
 20 
0.48311
 30 
0.0
 0 
VERTEX
 8 
1
 10 
0.17033
 20 
0.48577
 30 
0.0
 0 
VERTEX
 8 
1
 10 
0.14644
 20 
0.48814
 30 
0.0
 0 
VERTEX
 8 
1
 10 
0.12411
 20 
0.4902
 30 
0.0
 0 
VERTEX
 8 
1
 10 
0.10333
 20 
0.49204
 30 
0.0
 0 
VERTEX
 8 
1
 10 
0.08422
 20 
0.49373
 30 
0.0
 0 
VERTEX
 8 
1
 10 
0.066999
 20 
0.49525
 30 
0.0
 0 
VERTEX
 8 
1
 10 
0.051560
 20 
0.49653
 30 
0.0
 0 
VERTEX
 8 
1
 10 
0.03811
 20 
0.49755
 30 
0.0
 0 
VERTEX
 8 
1
 10 
0.02656
 20 
0.49833
 30 
0.0
 0 
VERTEX
 8 
1
 10 
0.017
 20 
0.49894
 30 
0.0
 0 
VERTEX
 8 
1
 10 
0.0095600
 20 
0.49941
 30 
0.0
 0 
VERTEX
 8 
1
 10 
0.0043299
 20 
0.49974
 30 
0.0
 0 
VERTEX
 8 
1
 10 
0.0011100
 20 
0.49993
 30 
0.0
 0 
VERTEX
 8 
1
 10 
0.0
 20 
0.5
 30 
0.0
 0 
SEQEND
 8 
1
 0 
ENDSEC
 0 
EOF
