 0 
SECTION
 2 
ENTITIES
 0 
POLYLINE
 8 
1
 66 
 1 
 10 
0.0
 20 
0.0
 30 
0.0
 0 
VERTEX
 8 
1
 10 
0.0
 20 
0.5
 30 
0.0
 0 
VERTEX
 8 
1
 10 
0.025
 20 
0.503
 30 
0.0
 0 
VERTEX
 8 
1
 10 
0.05
 20 
0.50635
 30 
0.0
 0 
VERTEX
 8 
1
 10 
0.075
 20 
0.50984
 30 
0.0
 0 
VERTEX
 8 
1
 10 
0.1
 20 
0.51319
 30 
0.0
 0 
VERTEX
 8 
1
 10 
0.125
 20 
0.51672
 30 
0.0
 0 
VERTEX
 8 
1
 10 
0.15
 20 
0.52029
 30 
0.0
 0 
VERTEX
 8 
1
 10 
0.175
 20 
0.52397
 30 
0.0
 0 
VERTEX
 8 
1
 10 
0.2
 20 
0.52771
 30 
0.0
 0 
VERTEX
 8 
1
 10 
0.25
 20 
0.53513
 30 
0.0
 0 
VERTEX
 8 
1
 10 
0.3
 20 
0.54234
 30 
0.0
 0 
VERTEX
 8 
1
 10 
0.35
 20 
0.54905
 30 
0.0
 0 
VERTEX
 8 
1
 10 
0.4
 20 
0.55514
 30 
0.0
 0 
VERTEX
 8 
1
 10 
0.45
 20 
0.56028
 30 
0.0
 0 
VERTEX
 8 
1
 10 
0.5
 20 
0.56431
 30 
0.0
 0 
VERTEX
 8 
1
 10 
0.55
 20 
0.56715
 30 
0.0
 0 
VERTEX
 8 
1
 10 
0.6
 20 
0.56883
 30 
0.0
 0 
VERTEX
 8 
1
 10 
0.625
 20 
0.56926
 30 
0.0
 0 
VERTEX
 8 
1
 10 
0.65
 20 
0.56939
 30 
0.0
 0 
VERTEX
 8 
1
 10 
0.675
 20 
0.56918
 30 
0.0
 0 
VERTEX
 8 
1
 10 
0.7
 20 
0.5686
 30 
0.0
 0 
VERTEX
 8 
1
 10 
0.725
 20 
0.56766
 30 
0.0
 0 
VERTEX
 8 
1
 10 
0.75
 20 
0.56646
 30 
0.0
 0 
VERTEX
 8 
1
 10 
0.775
 20 
0.56503
 30 
0.0
 0 
VERTEX
 8 
1
 10 
0.8
 20 
0.56327
 30 
0.0
 0 
VERTEX
 8 
1
 10 
0.825
 20 
0.56104
 30 
0.0
 0 
VERTEX
 8 
1
 10 
0.85
 20 
0.55812
 30 
0.0
 0 
VERTEX
 8 
1
 10 
0.875
 20 
0.55434
 30 
0.0
 0 
VERTEX
 8 
1
 10 
0.9
 20 
0.54957
 30 
0.0
 0 
VERTEX
 8 
1
 10 
0.925
 20 
0.54359
 30 
0.0
 0 
VERTEX
 8 
1
 10 
0.95
 20 
0.53587
 30 
0.0
 0 
VERTEX
 8 
1
 10 
0.9625
 20 
0.53105
 30 
0.0
 0 
VERTEX
 8 
1
 10 
0.975
 20 
0.52508
 30 
0.0
 0 
VERTEX
 8 
1
 10 
0.98125
 20 
0.52146
 30 
0.0
 0 
VERTEX
 8 
1
 10 
0.9875
 20 
0.51708
 30 
0.0
 0 
VERTEX
 8 
1
 10 
0.99125
 20 
0.51395
 30 
0.0
 0 
VERTEX
 8 
1
 10 
0.995
 20 
0.51013
 30 
0.0
 0 
VERTEX
 8 
1
 10 
0.9975
 20 
0.50677
 30 
0.0
 0 
VERTEX
 8 
1
 10 
1
 20 
0.5
 30 
0.0
 0 
VERTEX
 8 
1
 10 
0.9975
 20 
0.49432
 30 
0.0
 0 
VERTEX
 8 
1
 10 
0.995
 20 
0.49162
 30 
0.0
 0 
VERTEX
 8 
1
 10 
0.99125
 20 
0.4885
 30 
0.0
 0 
VERTEX
 8 
1
 10 
0.9875
 20 
0.48596
 30 
0.0
 0 
VERTEX
 8 
1
 10 
0.98125
 20 
0.4825
 30 
0.0
 0 
VERTEX
 8 
1
 10 
0.975
 20 
0.47976
 30 
0.0
 0 
VERTEX
 8 
1
 10 
0.9625
 20 
0.47537
 30 
0.0
 0 
VERTEX
 8 
1
 10 
0.95
 20 
0.47192
 30 
0.0
 0 
VERTEX
 8 
1
 10 
0.925
 20 
0.46654
 30 
0.0
 0 
VERTEX
 8 
1
 10 
0.9
 20 
0.46245
 30 
0.0
 0 
VERTEX
 8 
1
 10 
0.875
 20 
0.4592
 30 
0.0
 0 
VERTEX
 8 
1
 10 
0.85
 20 
0.45662
 30 
0.0
 0 
VERTEX
 8 
1
 10 
0.825
 20 
0.45465
 30 
0.0
 0 
VERTEX
 8 
1
 10 
0.8
 20 
0.45316
 30 
0.0
 0 
VERTEX
 8 
1
 10 
0.775
 20 
0.45204
 30 
0.0
 0 
VERTEX
 8 
1
 10 
0.75
 20 
0.45116
 30 
0.0
 0 
VERTEX
 8 
1
 10 
0.725
 20 
0.45047
 30 
0.0
 0 
VERTEX
 8 
1
 10 
0.7
 20 
0.44998
 30 
0.0
 0 
VERTEX
 8 
1
 10 
0.675
 20 
0.44974
 30 
0.0
 0 
VERTEX
 8 
1
 10 
0.65
 20 
0.44981
 30 
0.0
 0 
VERTEX
 8 
1
 10 
0.625
 20 
0.45019
 30 
0.0
 0 
VERTEX
 8 
1
 10 
0.6
 20 
0.45082
 30 
0.0
 0 
VERTEX
 8 
1
 10 
0.55
 20 
0.45277
 30 
0.0
 0 
VERTEX
 8 
1
 10 
0.5
 20 
0.45569
 30 
0.0
 0 
VERTEX
 8 
1
 10 
0.45
 20 
0.45956
 30 
0.0
 0 
VERTEX
 8 
1
 10 
0.4
 20 
0.46428
 30 
0.0
 0 
VERTEX
 8 
1
 10 
0.35
 20 
0.46962
 30 
0.0
 0 
VERTEX
 8 
1
 10 
0.3
 20 
0.4752
 30 
0.0
 0 
VERTEX
 8 
1
 10 
0.25
 20 
0.48082
 30 
0.0
 0 
VERTEX
 8 
1
 10 
0.2
 20 
0.48616
 30 
0.0
 0 
VERTEX
 8 
1
 10 
0.175
 20 
0.48863
 30 
0.0
 0 
VERTEX
 8 
1
 10 
0.15
 20 
0.49091
 30 
0.0
 0 
VERTEX
 8 
1
 10 
0.125
 20 
0.4929
 30 
0.0
 0 
VERTEX
 8 
1
 10 
0.1
 20 
0.4947
 30 
0.0
 0 
VERTEX
 8 
1
 10 
0.075
 20 
0.49618
 30 
0.0
 0 
VERTEX
 8 
1
 10 
0.05
 20 
0.49775
 30 
0.0
 0 
VERTEX
 8 
1
 10 
0.025
 20 
0.49905
 30 
0.0
 0 
VERTEX
 8 
1
 10 
0.0
 20 
0.5
 30 
0.0
 0 
SEQEND
 8 
1
 0 
ENDSEC
 0 
EOF
