 0 
SECTION
 2 
ENTITIES
 0 
POLYLINE
 8 
1
 66 
 1 
 10 
0.0
 20 
0.0
 30 
0.0
 0 
VERTEX
 8 
1
 10 
0.0
 20 
0.5
 30 
0.0
 0 
VERTEX
 8 
1
 10 
0.025
 20 
0.50269
 30 
0.0
 0 
VERTEX
 8 
1
 10 
0.05
 20 
0.50567
 30 
0.0
 0 
VERTEX
 8 
1
 10 
0.075
 20 
0.50873
 30 
0.0
 0 
VERTEX
 8 
1
 10 
0.1
 20 
0.51167
 30 
0.0
 0 
VERTEX
 8 
1
 10 
0.125
 20 
0.51473
 30 
0.0
 0 
VERTEX
 8 
1
 10 
0.15
 20 
0.51783
 30 
0.0
 0 
VERTEX
 8 
1
 10 
0.175
 20 
0.52103
 30 
0.0
 0 
VERTEX
 8 
1
 10 
0.2
 20 
0.5243
 30 
0.0
 0 
VERTEX
 8 
1
 10 
0.25
 20 
0.53073
 30 
0.0
 0 
VERTEX
 8 
1
 10 
0.3
 20 
0.53688
 30 
0.0
 0 
VERTEX
 8 
1
 10 
0.35
 20 
0.54252
 30 
0.0
 0 
VERTEX
 8 
1
 10 
0.4
 20 
0.5476
 30 
0.0
 0 
VERTEX
 8 
1
 10 
0.45
 20 
0.55187
 30 
0.0
 0 
VERTEX
 8 
1
 10 
0.5
 20 
0.55522
 30 
0.0
 0 
VERTEX
 8 
1
 10 
0.55
 20 
0.55758
 30 
0.0
 0 
VERTEX
 8 
1
 10 
0.6
 20 
0.55897
 30 
0.0
 0 
VERTEX
 8 
1
 10 
0.625
 20 
0.55932
 30 
0.0
 0 
VERTEX
 8 
1
 10 
0.65
 20 
0.5594
 30 
0.0
 0 
VERTEX
 8 
1
 10 
0.675
 20 
0.55919
 30 
0.0
 0 
VERTEX
 8 
1
 10 
0.7
 20 
0.55867
 30 
0.0
 0 
VERTEX
 8 
1
 10 
0.725
 20 
0.55787
 30 
0.0
 0 
VERTEX
 8 
1
 10 
0.75
 20 
0.55685
 30 
0.0
 0 
VERTEX
 8 
1
 10 
0.775
 20 
0.55562
 30 
0.0
 0 
VERTEX
 8 
1
 10 
0.8
 20 
0.55411
 30 
0.0
 0 
VERTEX
 8 
1
 10 
0.825
 20 
0.55218
 30 
0.0
 0 
VERTEX
 8 
1
 10 
0.85
 20 
0.54966
 30 
0.0
 0 
VERTEX
 8 
1
 10 
0.875
 20 
0.54641
 30 
0.0
 0 
VERTEX
 8 
1
 10 
0.9
 20 
0.54232
 30 
0.0
 0 
VERTEX
 8 
1
 10 
0.925
 20 
0.53719
 30 
0.0
 0 
VERTEX
 8 
1
 10 
0.95
 20 
0.53055
 30 
0.0
 0 
VERTEX
 8 
1
 10 
0.9625
 20 
0.5264
 30 
0.0
 0 
VERTEX
 8 
1
 10 
0.975
 20 
0.52128
 30 
0.0
 0 
VERTEX
 8 
1
 10 
0.98125
 20 
0.51818
 30 
0.0
 0 
VERTEX
 8 
1
 10 
0.9875
 20 
0.51445
 30 
0.0
 0 
VERTEX
 8 
1
 10 
0.99125
 20 
0.5118
 30 
0.0
 0 
VERTEX
 8 
1
 10 
0.995
 20 
0.50857
 30 
0.0
 0 
VERTEX
 8 
1
 10 
0.9975
 20 
0.5057
 30 
0.0
 0 
VERTEX
 8 
1
 10 
1
 20 
0.5
 30 
0.0
 0 
VERTEX
 8 
1
 10 
0.9975
 20 
0.4954
 30 
0.0
 0 
VERTEX
 8 
1
 10 
0.995
 20 
0.49319
 30 
0.0
 0 
VERTEX
 8 
1
 10 
0.99125
 20 
0.49063
 30 
0.0
 0 
VERTEX
 8 
1
 10 
0.9875
 20 
0.48857
 30 
0.0
 0 
VERTEX
 8 
1
 10 
0.98125
 20 
0.48575
 30 
0.0
 0 
VERTEX
 8 
1
 10 
0.975
 20 
0.48355
 30 
0.0
 0 
VERTEX
 8 
1
 10 
0.9625
 20 
0.48003
 30 
0.0
 0 
VERTEX
 8 
1
 10 
0.95
 20 
0.47728
 30 
0.0
 0 
VERTEX
 8 
1
 10 
0.925
 20 
0.47298
 30 
0.0
 0 
VERTEX
 8 
1
 10 
0.9
 20 
0.46972
 30 
0.0
 0 
VERTEX
 8 
1
 10 
0.875
 20 
0.46714
 30 
0.0
 0 
VERTEX
 8 
1
 10 
0.85
 20 
0.46511
 30 
0.0
 0 
VERTEX
 8 
1
 10 
0.825
 20 
0.46355
 30 
0.0
 0 
VERTEX
 8 
1
 10 
0.8
 20 
0.46238
 30 
0.0
 0 
VERTEX
 8 
1
 10 
0.775
 20 
0.46149
 30 
0.0
 0 
VERTEX
 8 
1
 10 
0.75
 20 
0.46081
 30 
0.0
 0 
VERTEX
 8 
1
 10 
0.725
 20 
0.46027
 30 
0.0
 0 
VERTEX
 8 
1
 10 
0.7
 20 
0.45989
 30 
0.0
 0 
VERTEX
 8 
1
 10 
0.675
 20 
0.45972
 30 
0.0
 0 
VERTEX
 8 
1
 10 
0.65
 20 
0.4598
 30 
0.0
 0 
VERTEX
 8 
1
 10 
0.625
 20 
0.46013
 30 
0.0
 0 
VERTEX
 8 
1
 10 
0.6
 20 
0.46067
 30 
0.0
 0 
VERTEX
 8 
1
 10 
0.55
 20 
0.46234
 30 
0.0
 0 
VERTEX
 8 
1
 10 
0.5
 20 
0.46477
 30 
0.0
 0 
VERTEX
 8 
1
 10 
0.45
 20 
0.46796
 30 
0.0
 0 
VERTEX
 8 
1
 10 
0.4
 20 
0.47182
 30 
0.0
 0 
VERTEX
 8 
1
 10 
0.35
 20 
0.47616
 30 
0.0
 0 
VERTEX
 8 
1
 10 
0.3
 20 
0.4807
 30 
0.0
 0 
VERTEX
 8 
1
 10 
0.25
 20 
0.48528
 30 
0.0
 0 
VERTEX
 8 
1
 10 
0.2
 20 
0.4896
 30 
0.0
 0 
VERTEX
 8 
1
 10 
0.175
 20 
0.49157
 30 
0.0
 0 
VERTEX
 8 
1
 10 
0.15
 20 
0.49334
 30 
0.0
 0 
VERTEX
 8 
1
 10 
0.125
 20 
0.49485
 30 
0.0
 0 
VERTEX
 8 
1
 10 
0.1
 20 
0.4962
 30 
0.0
 0 
VERTEX
 8 
1
 10 
0.075
 20 
0.49728
 30 
0.0
 0 
VERTEX
 8 
1
 10 
0.05
 20 
0.49842
 30 
0.0
 0 
VERTEX
 8 
1
 10 
0.025
 20 
0.49935
 30 
0.0
 0 
VERTEX
 8 
1
 10 
0.0
 20 
0.5
 30 
0.0
 0 
SEQEND
 8 
1
 0 
ENDSEC
 0 
EOF
