 0 
SECTION
 2 
ENTITIES
 0 
POLYLINE
 8 
1
 66 
 1 
 10 
0.0
 20 
0.0
 30 
0.0
 0 
VERTEX
 8 
1
 10 
0.0
 20 
0.5
 30 
0.0
 0 
VERTEX
 8 
1
 10 
0.025
 20 
0.50284
 30 
0.0
 0 
VERTEX
 8 
1
 10 
0.05
 20 
0.50592
 30 
0.0
 0 
VERTEX
 8 
1
 10 
0.075
 20 
0.50905
 30 
0.0
 0 
VERTEX
 8 
1
 10 
0.1
 20 
0.51206
 30 
0.0
 0 
VERTEX
 8 
1
 10 
0.125
 20 
0.51513
 30 
0.0
 0 
VERTEX
 8 
1
 10 
0.15
 20 
0.51819
 30 
0.0
 0 
VERTEX
 8 
1
 10 
0.175
 20 
0.52127
 30 
0.0
 0 
VERTEX
 8 
1
 10 
0.2
 20 
0.52433
 30 
0.0
 0 
VERTEX
 8 
1
 10 
0.25
 20 
0.53019
 30 
0.0
 0 
VERTEX
 8 
1
 10 
0.3
 20 
0.53565
 30 
0.0
 0 
VERTEX
 8 
1
 10 
0.35
 20 
0.54057
 30 
0.0
 0 
VERTEX
 8 
1
 10 
0.4
 20 
0.54488
 30 
0.0
 0 
VERTEX
 8 
1
 10 
0.45
 20 
0.5484
 30 
0.0
 0 
VERTEX
 8 
1
 10 
0.5
 20 
0.55104
 30 
0.0
 0 
VERTEX
 8 
1
 10 
0.55
 20 
0.55279
 30 
0.0
 0 
VERTEX
 8 
1
 10 
0.6
 20 
0.55377
 30 
0.0
 0 
VERTEX
 8 
1
 10 
0.625
 20 
0.554
 30 
0.0
 0 
VERTEX
 8 
1
 10 
0.65
 20 
0.55408
 30 
0.0
 0 
VERTEX
 8 
1
 10 
0.675
 20 
0.55396
 30 
0.0
 0 
VERTEX
 8 
1
 10 
0.7
 20 
0.5525
 30 
0.0
 0 
VERTEX
 8 
1
 10 
0.725
 20 
0.5527
 30 
0.0
 0 
VERTEX
 8 
1
 10 
0.75
 20 
0.55167
 30 
0.0
 0 
VERTEX
 8 
1
 10 
0.775
 20 
0.55047
 30 
0.0
 0 
VERTEX
 8 
1
 10 
0.8
 20 
0.54903
 30 
0.0
 0 
VERTEX
 8 
1
 10 
0.825
 20 
0.54723
 30 
0.0
 0 
VERTEX
 8 
1
 10 
0.85
 20 
0.5449
 30 
0.0
 0 
VERTEX
 8 
1
 10 
0.875
 20 
0.54189
 30 
0.0
 0 
VERTEX
 8 
1
 10 
0.9
 20 
0.53808
 30 
0.0
 0 
VERTEX
 8 
1
 10 
0.925
 20 
0.53331
 30 
0.0
 0 
VERTEX
 8 
1
 10 
0.95
 20 
0.52723
 30 
0.0
 0 
VERTEX
 8 
1
 10 
0.9625
 20 
0.52347
 30 
0.0
 0 
VERTEX
 8 
1
 10 
0.975
 20 
0.51893
 30 
0.0
 0 
VERTEX
 8 
1
 10 
0.98125
 20 
0.51621
 30 
0.0
 0 
VERTEX
 8 
1
 10 
0.9875
 20 
0.51294
 30 
0.0
 0 
VERTEX
 8 
1
 10 
0.99125
 20 
0.51061
 30 
0.0
 0 
VERTEX
 8 
1
 10 
0.995
 20 
0.50768
 30 
0.0
 0 
VERTEX
 8 
1
 10 
0.9975
 20 
0.50503
 30 
0.0
 0 
VERTEX
 8 
1
 10 
1
 20 
0.5
 30 
0.0
 0 
VERTEX
 8 
1
 10 
0.9975
 20 
0.49672
 30 
0.0
 0 
VERTEX
 8 
1
 10 
0.995
 20 
0.49517
 30 
0.0
 0 
VERTEX
 8 
1
 10 
0.99125
 20 
0.49338
 30 
0.0
 0 
VERTEX
 8 
1
 10 
0.9875
 20 
0.49193
 30 
0.0
 0 
VERTEX
 8 
1
 10 
0.98125
 20 
0.49
 30 
0.0
 0 
VERTEX
 8 
1
 10 
0.975
 20 
0.48853
 30 
0.0
 0 
VERTEX
 8 
1
 10 
0.9625
 20 
0.48624
 30 
0.0
 0 
VERTEX
 8 
1
 10 
0.95
 20 
0.4845
 30 
0.0
 0 
VERTEX
 8 
1
 10 
0.925
 20 
0.48187
 30 
0.0
 0 
VERTEX
 8 
1
 10 
0.9
 20 
0.47994
 30 
0.0
 0 
VERTEX
 8 
1
 10 
0.875
 20 
0.47842
 30 
0.0
 0 
VERTEX
 8 
1
 10 
0.85
 20 
0.47722
 30 
0.0
 0 
VERTEX
 8 
1
 10 
0.825
 20 
0.4763
 30 
0.0
 0 
VERTEX
 8 
1
 10 
0.8
 20 
0.47562
 30 
0.0
 0 
VERTEX
 8 
1
 10 
0.775
 20 
0.47512
 30 
0.0
 0 
VERTEX
 8 
1
 10 
0.75
 20 
0.47477
 30 
0.0
 0 
VERTEX
 8 
1
 10 
0.725
 20 
0.47453
 30 
0.0
 0 
VERTEX
 8 
1
 10 
0.7
 20 
0.47439
 30 
0.0
 0 
VERTEX
 8 
1
 10 
0.675
 20 
0.47438
 30 
0.0
 0 
VERTEX
 8 
1
 10 
0.65
 20 
0.47454
 30 
0.0
 0 
VERTEX
 8 
1
 10 
0.625
 20 
0.47488
 30 
0.0
 0 
VERTEX
 8 
1
 10 
0.6
 20 
0.47539
 30 
0.0
 0 
VERTEX
 8 
1
 10 
0.55
 20 
0.47683
 30 
0.0
 0 
VERTEX
 8 
1
 10 
0.5
 20 
0.47882
 30 
0.0
 0 
VERTEX
 8 
1
 10 
0.45
 20 
0.48132
 30 
0.0
 0 
VERTEX
 8 
1
 10 
0.4
 20 
0.48426
 30 
0.0
 0 
VERTEX
 8 
1
 10 
0.35
 20 
0.48748
 30 
0.0
 0 
VERTEX
 8 
1
 10 
0.3
 20 
0.49071
 30 
0.0
 0 
VERTEX
 8 
1
 10 
0.25
 20 
0.4938
 30 
0.0
 0 
VERTEX
 8 
1
 10 
0.2
 20 
0.49652
 30 
0.0
 0 
VERTEX
 8 
1
 10 
0.175
 20 
0.49767
 30 
0.0
 0 
VERTEX
 8 
1
 10 
0.15
 20 
0.49858
 30 
0.0
 0 
VERTEX
 8 
1
 10 
0.125
 20 
0.49915
 30 
0.0
 0 
VERTEX
 8 
1
 10 
0.1
 20 
0.49945
 30 
0.0
 0 
VERTEX
 8 
1
 10 
0.075
 20 
0.49955
 30 
0.0
 0 
VERTEX
 8 
1
 10 
0.05
 20 
0.4997
 30 
0.0
 0 
VERTEX
 8 
1
 10 
0.025
 20 
0.4998
 30 
0.0
 0 
VERTEX
 8 
1
 10 
0.0
 20 
0.5
 30 
0.0
 0 
SEQEND
 8 
1
 0 
ENDSEC
 0 
EOF
