 0 
SECTION
 2 
ENTITIES
 0 
POLYLINE
 8 
1
 66 
 1 
 10 
0.0
 20 
0.0
 30 
0.0
 0 
VERTEX
 8 
1
 10 
0.0
 20 
0.5
 30 
0.0
 0 
VERTEX
 8 
1
 10 
0.025
 20 
0.50304
 30 
0.0
 0 
VERTEX
 8 
1
 10 
0.05
 20 
0.50633
 30 
0.0
 0 
VERTEX
 8 
1
 10 
0.075
 20 
0.50966
 30 
0.0
 0 
VERTEX
 8 
1
 10 
0.1
 20 
0.51286
 30 
0.0
 0 
VERTEX
 8 
1
 10 
0.125
 20 
0.51613
 30 
0.0
 0 
VERTEX
 8 
1
 10 
0.15
 20 
0.5194
 30 
0.0
 0 
VERTEX
 8 
1
 10 
0.175
 20 
0.52272
 30 
0.0
 0 
VERTEX
 8 
1
 10 
0.2
 20 
0.52604
 30 
0.0
 0 
VERTEX
 8 
1
 10 
0.25
 20 
0.53245
 30 
0.0
 0 
VERTEX
 8 
1
 10 
0.3
 20 
0.53845
 30 
0.0
 0 
VERTEX
 8 
1
 10 
0.35
 20 
0.54386
 30 
0.0
 0 
VERTEX
 8 
1
 10 
0.4
 20 
0.54865
 30 
0.0
 0 
VERTEX
 8 
1
 10 
0.45
 20 
0.5526
 30 
0.0
 0 
VERTEX
 8 
1
 10 
0.5
 20 
0.55565
 30 
0.0
 0 
VERTEX
 8 
1
 10 
0.55
 20 
0.55774
 30 
0.0
 0 
VERTEX
 8 
1
 10 
0.6
 20 
0.55892
 30 
0.0
 0 
VERTEX
 8 
1
 10 
0.625
 20 
0.55919
 30 
0.0
 0 
VERTEX
 8 
1
 10 
0.65
 20 
0.55921
 30 
0.0
 0 
VERTEX
 8 
1
 10 
0.675
 20 
0.55896
 30 
0.0
 0 
VERTEX
 8 
1
 10 
0.7
 20 
0.55839
 30 
0.0
 0 
VERTEX
 8 
1
 10 
0.725
 20 
0.55754
 30 
0.0
 0 
VERTEX
 8 
1
 10 
0.75
 20 
0.55646
 30 
0.0
 0 
VERTEX
 8 
1
 10 
0.775
 20 
0.55519
 30 
0.0
 0 
VERTEX
 8 
1
 10 
0.8
 20 
0.55362
 30 
0.0
 0 
VERTEX
 8 
1
 10 
0.825
 20 
0.55165
 30 
0.0
 0 
VERTEX
 8 
1
 10 
0.85
 20 
0.5491
 30 
0.0
 0 
VERTEX
 8 
1
 10 
0.875
 20 
0.54583
 30 
0.0
 0 
VERTEX
 8 
1
 10 
0.9
 20 
0.54169
 30 
0.0
 0 
VERTEX
 8 
1
 10 
0.925
 20 
0.53652
 30 
0.0
 0 
VERTEX
 8 
1
 10 
0.95
 20 
0.52993
 30 
0.0
 0 
VERTEX
 8 
1
 10 
0.9625
 20 
0.52585
 30 
0.0
 0 
VERTEX
 8 
1
 10 
0.975
 20 
0.52093
 30 
0.0
 0 
VERTEX
 8 
1
 10 
0.98125
 20 
0.51797
 30 
0.0
 0 
VERTEX
 8 
1
 10 
0.9875
 20 
0.51439
 30 
0.0
 0 
VERTEX
 8 
1
 10 
0.99125
 20 
0.51182
 30 
0.0
 0 
VERTEX
 8 
1
 10 
0.995
 20 
0.50855
 30 
0.0
 0 
VERTEX
 8 
1
 10 
0.9975
 20 
0.50557
 30 
0.0
 0 
VERTEX
 8 
1
 10 
1
 20 
0.5
 30 
0.0
 0 
VERTEX
 8 
1
 10 
0.9975
 20 
0.49622
 30 
0.0
 0 
VERTEX
 8 
1
 10 
0.995
 20 
0.49443
 30 
0.0
 0 
VERTEX
 8 
1
 10 
0.99125
 20 
0.49235
 30 
0.0
 0 
VERTEX
 8 
1
 10 
0.9875
 20 
0.49067
 30 
0.0
 0 
VERTEX
 8 
1
 10 
0.98125
 20 
0.48841
 30 
0.0
 0 
VERTEX
 8 
1
 10 
0.975
 20 
0.48669
 30 
0.0
 0 
VERTEX
 8 
1
 10 
0.9625
 20 
0.48397
 30 
0.0
 0 
VERTEX
 8 
1
 10 
0.95
 20 
0.48188
 30 
0.0
 0 
VERTEX
 8 
1
 10 
0.925
 20 
0.47869
 30 
0.0
 0 
VERTEX
 8 
1
 10 
0.9
 20 
0.47631
 30 
0.0
 0 
VERTEX
 8 
1
 10 
0.875
 20 
0.47444
 30 
0.0
 0 
VERTEX
 8 
1
 10 
0.85
 20 
0.47298
 30 
0.0
 0 
VERTEX
 8 
1
 10 
0.825
 20 
0.47188
 30 
0.0
 0 
VERTEX
 8 
1
 10 
0.8
 20 
0.47107
 30 
0.0
 0 
VERTEX
 8 
1
 10 
0.775
 20 
0.47045
 30 
0.0
 0 
VERTEX
 8 
1
 10 
0.75
 20 
0.46998
 30 
0.0
 0 
VERTEX
 8 
1
 10 
0.725
 20 
0.46962
 30 
0.0
 0 
VERTEX
 8 
1
 10 
0.7
 20 
0.46941
 30 
0.0
 0 
VERTEX
 8 
1
 10 
0.675
 20 
0.46937
 30 
0.0
 0 
VERTEX
 8 
1
 10 
0.65
 20 
0.46954
 30 
0.0
 0 
VERTEX
 8 
1
 10 
0.625
 20 
0.46992
 30 
0.0
 0 
VERTEX
 8 
1
 10 
0.6
 20 
0.47049
 30 
0.0
 0 
VERTEX
 8 
1
 10 
0.55
 20 
0.47209
 30 
0.0
 0 
VERTEX
 8 
1
 10 
0.5
 20 
0.47432
 30 
0.0
 0 
VERTEX
 8 
1
 10 
0.45
 20 
0.47715
 30 
0.0
 0 
VERTEX
 8 
1
 10 
0.4
 20 
0.48048
 30 
0.0
 0 
VERTEX
 8 
1
 10 
0.35
 20 
0.48416
 30 
0.0
 0 
VERTEX
 8 
1
 10 
0.3
 20 
0.4879
 30 
0.0
 0 
VERTEX
 8 
1
 10 
0.25
 20 
0.49154
 30 
0.0
 0 
VERTEX
 8 
1
 10 
0.2
 20 
0.4948
 30 
0.0
 0 
VERTEX
 8 
1
 10 
0.175
 20 
0.4962
 30 
0.0
 0 
VERTEX
 8 
1
 10 
0.15
 20 
0.49737
 30 
0.0
 0 
VERTEX
 8 
1
 10 
0.125
 20 
0.49825
 30 
0.0
 0 
VERTEX
 8 
1
 10 
0.1
 20 
0.49891
 30 
0.0
 0 
VERTEX
 8 
1
 10 
0.075
 20 
0.4993
 30 
0.0
 0 
VERTEX
 8 
1
 10 
0.05
 20 
0.49972
 30 
0.0
 0 
VERTEX
 8 
1
 10 
0.025
 20 
0.49995
 30 
0.0
 0 
VERTEX
 8 
1
 10 
0.0
 20 
0.5
 30 
0.0
 0 
SEQEND
 8 
1
 0 
ENDSEC
 0 
EOF
