 0 
SECTION
 2 
ENTITIES
 0 
POLYLINE
 8 
1
 66 
 1 
 10 
0.0
 20 
0.0
 30 
0.0
 0 
VERTEX
 8 
1
 10 
0.0
 20 
0.5
 30 
0.0
 0 
VERTEX
 8 
1
 10 
0.025
 20 
0.50405
 30 
0.0
 0 
VERTEX
 8 
1
 10 
0.05
 20 
0.50841
 30 
0.0
 0 
VERTEX
 8 
1
 10 
0.075
 20 
0.51279
 30 
0.0
 0 
VERTEX
 8 
1
 10 
0.1
 20 
0.517
 30 
0.0
 0 
VERTEX
 8 
1
 10 
0.125
 20 
0.52128
 30 
0.0
 0 
VERTEX
 8 
1
 10 
0.15
 20 
0.52561
 30 
0.0
 0 
VERTEX
 8 
1
 10 
0.175
 20 
0.53007
 30 
0.0
 0 
VERTEX
 8 
1
 10 
0.2
 20 
0.53456
 30 
0.0
 0 
VERTEX
 8 
1
 10 
0.25
 20 
0.54319
 30 
0.0
 0 
VERTEX
 8 
1
 10 
0.3
 20 
0.55121
 30 
0.0
 0 
VERTEX
 8 
1
 10 
0.35
 20 
0.55844
 30 
0.0
 0 
VERTEX
 8 
1
 10 
0.4
 20 
0.56485
 30 
0.0
 0 
VERTEX
 8 
1
 10 
0.45
 20 
0.57019
 30 
0.0
 0 
VERTEX
 8 
1
 10 
0.5
 20 
0.5743
 30 
0.0
 0 
VERTEX
 8 
1
 10 
0.55
 20 
0.57711
 30 
0.0
 0 
VERTEX
 8 
1
 10 
0.6
 20 
0.57865
 30 
0.0
 0 
VERTEX
 8 
1
 10 
0.625
 20 
0.57897
 30 
0.0
 0 
VERTEX
 8 
1
 10 
0.65
 20 
0.57899
 30 
0.0
 0 
VERTEX
 8 
1
 10 
0.675
 20 
0.57864
 30 
0.0
 0 
VERTEX
 8 
1
 10 
0.7
 20 
0.57788
 30 
0.0
 0 
VERTEX
 8 
1
 10 
0.725
 20 
0.57673
 30 
0.0
 0 
VERTEX
 8 
1
 10 
0.75
 20 
0.57527
 30 
0.0
 0 
VERTEX
 8 
1
 10 
0.775
 20 
0.57356
 30 
0.0
 0 
VERTEX
 8 
1
 10 
0.8
 20 
0.57148
 30 
0.0
 0 
VERTEX
 8 
1
 10 
0.825
 20 
0.56887
 30 
0.0
 0 
VERTEX
 8 
1
 10 
0.85
 20 
0.5655
 30 
0.0
 0 
VERTEX
 8 
1
 10 
0.875
 20 
0.56113
 30 
0.0
 0 
VERTEX
 8 
1
 10 
0.9
 20 
0.55559
 30 
0.0
 0 
VERTEX
 8 
1
 10 
0.925
 20 
0.54868
 30 
0.0
 0 
VERTEX
 8 
1
 10 
0.95
 20 
0.53991
 30 
0.0
 0 
VERTEX
 8 
1
 10 
0.9625
 20 
0.53452
 30 
0.0
 0 
VERTEX
 8 
1
 10 
0.975
 20 
0.52806
 30 
0.0
 0 
VERTEX
 8 
1
 10 
0.98125
 20 
0.52419
 30 
0.0
 0 
VERTEX
 8 
1
 10 
0.9875
 20 
0.51946
 30 
0.0
 0 
VERTEX
 8 
1
 10 
0.99125
 20 
0.51604
 30 
0.0
 0 
VERTEX
 8 
1
 10 
0.995
 20 
0.5116
 30 
0.0
 0 
VERTEX
 8 
1
 10 
0.9975
 20 
0.50751
 30 
0.0
 0 
VERTEX
 8 
1
 10 
1
 20 
0.5
 30 
0.0
 0 
VERTEX
 8 
1
 10 
0.9975
 20 
0.49491
 30 
0.0
 0 
VERTEX
 8 
1
 10 
0.995
 20 
0.49251
 30 
0.0
 0 
VERTEX
 8 
1
 10 
0.99125
 20 
0.48975
 30 
0.0
 0 
VERTEX
 8 
1
 10 
0.9875
 20 
0.48753
 30 
0.0
 0 
VERTEX
 8 
1
 10 
0.98125
 20 
0.48454
 30 
0.0
 0 
VERTEX
 8 
1
 10 
0.975
 20 
0.48223
 30 
0.0
 0 
VERTEX
 8 
1
 10 
0.9625
 20 
0.47857
 30 
0.0
 0 
VERTEX
 8 
1
 10 
0.95
 20 
0.47574
 30 
0.0
 0 
VERTEX
 8 
1
 10 
0.925
 20 
0.47143
 30 
0.0
 0 
VERTEX
 8 
1
 10 
0.9
 20 
0.46825
 30 
0.0
 0 
VERTEX
 8 
1
 10 
0.875
 20 
0.46582
 30 
0.0
 0 
VERTEX
 8 
1
 10 
0.85
 20 
0.46395
 30 
0.0
 0 
VERTEX
 8 
1
 10 
0.825
 20 
0.46253
 30 
0.0
 0 
VERTEX
 8 
1
 10 
0.8
 20 
0.46146
 30 
0.0
 0 
VERTEX
 8 
1
 10 
0.775
 20 
0.46063
 30 
0.0
 0 
VERTEX
 8 
1
 10 
0.75
 20 
0.46001
 30 
0.0
 0 
VERTEX
 8 
1
 10 
0.725
 20 
0.45957
 30 
0.0
 0 
VERTEX
 8 
1
 10 
0.7
 20 
0.45928
 30 
0.0
 0 
VERTEX
 8 
1
 10 
0.675
 20 
0.45916
 30 
0.0
 0 
VERTEX
 8 
1
 10 
0.65
 20 
0.45926
 30 
0.0
 0 
VERTEX
 8 
1
 10 
0.625
 20 
0.45967
 30 
0.0
 0 
VERTEX
 8 
1
 10 
0.6
 20 
0.46039
 30 
0.0
 0 
VERTEX
 8 
1
 10 
0.55
 20 
0.46252
 30 
0.0
 0 
VERTEX
 8 
1
 10 
0.5
 20 
0.46558
 30 
0.0
 0 
VERTEX
 8 
1
 10 
0.45
 20 
0.46945
 30 
0.0
 0 
VERTEX
 8 
1
 10 
0.4
 20 
0.474
 30 
0.0
 0 
VERTEX
 8 
1
 10 
0.35
 20 
0.47899
 30 
0.0
 0 
VERTEX
 8 
1
 10 
0.3
 20 
0.48402
 30 
0.0
 0 
VERTEX
 8 
1
 10 
0.25
 20 
0.48885
 30 
0.0
 0 
VERTEX
 8 
1
 10 
0.2
 20 
0.49313
 30 
0.0
 0 
VERTEX
 8 
1
 10 
0.175
 20 
0.49494
 30 
0.0
 0 
VERTEX
 8 
1
 10 
0.15
 20 
0.49649
 30 
0.0
 0 
VERTEX
 8 
1
 10 
0.125
 20 
0.49765
 30 
0.0
 0 
VERTEX
 8 
1
 10 
0.1
 20 
0.49855
 30 
0.0
 0 
VERTEX
 8 
1
 10 
0.075
 20 
0.49907
 30 
0.0
 0 
VERTEX
 8 
1
 10 
0.05
 20 
0.49965
 30 
0.0
 0 
VERTEX
 8 
1
 10 
0.025
 20 
0.49995
 30 
0.0
 0 
VERTEX
 8 
1
 10 
0.0
 20 
0.5
 30 
0.0
 0 
SEQEND
 8 
1
 0 
ENDSEC
 0 
EOF
