 0 
SECTION
 2 
ENTITIES
 0 
POLYLINE
 8 
1
 66 
 1 
 10 
0.0
 20 
0.0
 30 
0.0
 0 
VERTEX
 8 
1
 10 
0.0
 20 
0.50001
 30 
0.0
 0 
VERTEX
 8 
1
 10 
0.0056399
 20 
0.50093
 30 
0.0
 0 
VERTEX
 8 
1
 10 
0.02243
 20 
0.50367
 30 
0.0
 0 
VERTEX
 8 
1
 10 
0.05
 20 
0.50813
 30 
0.0
 0 
VERTEX
 8 
1
 10 
0.07302
 20 
0.51185
 30 
0.0
 0 
VERTEX
 8 
1
 10 
0.1
 20 
0.51615
 30 
0.0
 0 
VERTEX
 8 
1
 10 
0.15
 20 
0.52401
 30 
0.0
 0 
VERTEX
 8 
1
 10 
0.2
 20 
0.53172
 30 
0.0
 0 
VERTEX
 8 
1
 10 
0.25
 20 
0.53906
 30 
0.0
 0 
VERTEX
 8 
1
 10 
0.3
 20 
0.54593
 30 
0.0
 0 
VERTEX
 8 
1
 10 
0.35
 20 
0.55226
 30 
0.0
 0 
VERTEX
 8 
1
 10 
0.4
 20 
0.55751
 30 
0.0
 0 
VERTEX
 8 
1
 10 
0.45
 20 
0.5613
 30 
0.0
 0 
VERTEX
 8 
1
 10 
0.5
 20 
0.56384
 30 
0.0
 0 
VERTEX
 8 
1
 10 
0.54999
 20 
0.56555
 30 
0.0
 0 
VERTEX
 8 
1
 10 
0.6
 20 
0.56652
 30 
0.0
 0 
VERTEX
 8 
1
 10 
0.65
 20 
0.56678
 30 
0.0
 0 
VERTEX
 8 
1
 10 
0.7
 20 
0.56623
 30 
0.0
 0 
VERTEX
 8 
1
 10 
0.75
 20 
0.56461
 30 
0.0
 0 
VERTEX
 8 
1
 10 
0.8
 20 
0.56132
 30 
0.0
 0 
VERTEX
 8 
1
 10 
0.85
 20 
0.55572
 30 
0.0
 0 
VERTEX
 8 
1
 10 
0.9
 20 
0.54725
 30 
0.0
 0 
VERTEX
 8 
1
 10 
0.95
 20 
0.53458
 30 
0.0
 0 
VERTEX
 8 
1
 10 
0.975
 20 
0.52492
 30 
0.0
 0 
VERTEX
 8 
1
 10 
0.9875
 20 
0.51784
 30 
0.0
 0 
VERTEX
 8 
1
 10 
0.995
 20 
0.51175
 30 
0.0
 0 
VERTEX
 8 
1
 10 
1
 20 
0.5
 30 
0.0
 0 
VERTEX
 8 
1
 10 
0.995
 20 
0.49315
 30 
0.0
 0 
VERTEX
 8 
1
 10 
0.9875
 20 
0.48946
 30 
0.0
 0 
VERTEX
 8 
1
 10 
0.975
 20 
0.48604
 30 
0.0
 0 
VERTEX
 8 
1
 10 
0.95
 20 
0.48202
 30 
0.0
 0 
VERTEX
 8 
1
 10 
0.9
 20 
0.47757
 30 
0.0
 0 
VERTEX
 8 
1
 10 
0.85
 20 
0.4749
 30 
0.0
 0 
VERTEX
 8 
1
 10 
0.8
 20 
0.47304
 30 
0.0
 0 
VERTEX
 8 
1
 10 
0.75
 20 
0.47191
 30 
0.0
 0 
VERTEX
 8 
1
 10 
0.7
 20 
0.47153
 30 
0.0
 0 
VERTEX
 8 
1
 10 
0.65
 20 
0.47186
 30 
0.0
 0 
VERTEX
 8 
1
 10 
0.6
 20 
0.47298
 30 
0.0
 0 
VERTEX
 8 
1
 10 
0.54999
 20 
0.47501
 30 
0.0
 0 
VERTEX
 8 
1
 10 
0.5
 20 
0.47766
 30 
0.0
 0 
VERTEX
 8 
1
 10 
0.45
 20 
0.48068
 30 
0.0
 0 
VERTEX
 8 
1
 10 
0.4
 20 
0.48415
 30 
0.0
 0 
VERTEX
 8 
1
 10 
0.35
 20 
0.48808
 30 
0.0
 0 
VERTEX
 8 
1
 10 
0.3
 20 
0.49201
 30 
0.0
 0 
VERTEX
 8 
1
 10 
0.25
 20 
0.49544
 30 
0.0
 0 
VERTEX
 8 
1
 10 
0.2
 20 
0.4984
 30 
0.0
 0 
VERTEX
 8 
1
 10 
0.15
 20 
0.50089
 30 
0.0
 0 
VERTEX
 8 
1
 10 
0.1
 20 
0.50227
 30 
0.0
 0 
VERTEX
 8 
1
 10 
0.07302
 20 
0.50227
 30 
0.0
 0 
VERTEX
 8 
1
 10 
0.05
 20 
0.50183
 30 
0.0
 0 
VERTEX
 8 
1
 10 
0.02243
 20 
0.50091
 30 
0.0
 0 
VERTEX
 8 
1
 10 
0.0056399
 20 
0.50023
 30 
0.0
 0 
VERTEX
 8 
1
 10 
0.0
 20 
0.5
 30 
0.0
 0 
SEQEND
 8 
1
 0 
ENDSEC
 0 
EOF
