 0 
SECTION
 2 
ENTITIES
 0 
POLYLINE
 8 
1
 66 
 1 
 10 
0.0
 20 
0.0
 30 
0.0
 0 
VERTEX
 8 
1
 10 
0.0
 20 
0.5
 30 
0.0
 0 
VERTEX
 8 
1
 10 
0.025
 20 
0.50425
 30 
0.0
 0 
VERTEX
 8 
1
 10 
0.05
 20 
0.50876
 30 
0.0
 0 
VERTEX
 8 
1
 10 
0.075
 20 
0.51326
 30 
0.0
 0 
VERTEX
 8 
1
 10 
0.1
 20 
0.5176
 30 
0.0
 0 
VERTEX
 8 
1
 10 
0.125
 20 
0.52195
 30 
0.0
 0 
VERTEX
 8 
1
 10 
0.15
 20 
0.52624
 30 
0.0
 0 
VERTEX
 8 
1
 10 
0.175
 20 
0.53051
 30 
0.0
 0 
VERTEX
 8 
1
 10 
0.2
 20 
0.53472
 30 
0.0
 0 
VERTEX
 8 
1
 10 
0.25
 20 
0.54268
 30 
0.0
 0 
VERTEX
 8 
1
 10 
0.3
 20 
0.54998
 30 
0.0
 0 
VERTEX
 8 
1
 10 
0.35
 20 
0.55647
 30 
0.0
 0 
VERTEX
 8 
1
 10 
0.4
 20 
0.56213
 30 
0.0
 0 
VERTEX
 8 
1
 10 
0.45
 20 
0.56674
 30 
0.0
 0 
VERTEX
 8 
1
 10 
0.5
 20 
0.57021
 30 
0.0
 0 
VERTEX
 8 
1
 10 
0.55
 20 
0.5725
 30 
0.0
 0 
VERTEX
 8 
1
 10 
0.6
 20 
0.57368
 30 
0.0
 0 
VERTEX
 8 
1
 10 
0.625
 20 
0.57387
 30 
0.0
 0 
VERTEX
 8 
1
 10 
0.65
 20 
0.57378
 30 
0.0
 0 
VERTEX
 8 
1
 10 
0.675
 20 
0.57337
 30 
0.0
 0 
VERTEX
 8 
1
 10 
0.7
 20 
0.5726
 30 
0.0
 0 
VERTEX
 8 
1
 10 
0.725
 20 
0.57151
 30 
0.0
 0 
VERTEX
 8 
1
 10 
0.75
 20 
0.57011
 30 
0.0
 0 
VERTEX
 8 
1
 10 
0.775
 20 
0.5684
 30 
0.0
 0 
VERTEX
 8 
1
 10 
0.8
 20 
0.56626
 30 
0.0
 0 
VERTEX
 8 
1
 10 
0.825
 20 
0.56357
 30 
0.0
 0 
VERTEX
 8 
1
 10 
0.85
 20 
0.56025
 30 
0.0
 0 
VERTEX
 8 
1
 10 
0.875
 20 
0.55618
 30 
0.0
 0 
VERTEX
 8 
1
 10 
0.9
 20 
0.55112
 30 
0.0
 0 
VERTEX
 8 
1
 10 
0.925
 20 
0.54479
 30 
0.0
 0 
VERTEX
 8 
1
 10 
0.95
 20 
0.5365
 30 
0.0
 0 
VERTEX
 8 
1
 10 
0.9625
 20 
0.53129
 30 
0.0
 0 
VERTEX
 8 
1
 10 
0.975
 20 
0.52486
 30 
0.0
 0 
VERTEX
 8 
1
 10 
0.98125
 20 
0.52101
 30 
0.0
 0 
VERTEX
 8 
1
 10 
0.9875
 20 
0.5164
 30 
0.0
 0 
VERTEX
 8 
1
 10 
0.99125
 20 
0.51315
 30 
0.0
 0 
VERTEX
 8 
1
 10 
0.995
 20 
0.50925
 30 
0.0
 0 
VERTEX
 8 
1
 10 
0.9975
 20 
0.50591
 30 
0.0
 0 
VERTEX
 8 
1
 10 
1
 20 
0.5
 30 
0.0
 0 
VERTEX
 8 
1
 10 
0.9975
 20 
0.49634
 30 
0.0
 0 
VERTEX
 8 
1
 10 
0.995
 20 
0.49458
 30 
0.0
 0 
VERTEX
 8 
1
 10 
0.99125
 20 
0.49254
 30 
0.0
 0 
VERTEX
 8 
1
 10 
0.9875
 20 
0.4909
 30 
0.0
 0 
VERTEX
 8 
1
 10 
0.98125
 20 
0.48876
 30 
0.0
 0 
VERTEX
 8 
1
 10 
0.975
 20 
0.48721
 30 
0.0
 0 
VERTEX
 8 
1
 10 
0.9625
 20 
0.48484
 30 
0.0
 0 
VERTEX
 8 
1
 10 
0.95
 20 
0.4831
 30 
0.0
 0 
VERTEX
 8 
1
 10 
0.925
 20 
0.48054
 30 
0.0
 0 
VERTEX
 8 
1
 10 
0.9
 20 
0.47868
 30 
0.0
 0 
VERTEX
 8 
1
 10 
0.875
 20 
0.47722
 30 
0.0
 0 
VERTEX
 8 
1
 10 
0.85
 20 
0.47609
 30 
0.0
 0 
VERTEX
 8 
1
 10 
0.825
 20 
0.47526
 30 
0.0
 0 
VERTEX
 8 
1
 10 
0.8
 20 
0.47467
 30 
0.0
 0 
VERTEX
 8 
1
 10 
0.775
 20 
0.47426
 30 
0.0
 0 
VERTEX
 8 
1
 10 
0.75
 20 
0.474
 30 
0.0
 0 
VERTEX
 8 
1
 10 
0.725
 20 
0.47383
 30 
0.0
 0 
VERTEX
 8 
1
 10 
0.7
 20 
0.47378
 30 
0.0
 0 
VERTEX
 8 
1
 10 
0.675
 20 
0.47386
 30 
0.0
 0 
VERTEX
 8 
1
 10 
0.65
 20 
0.47413
 30 
0.0
 0 
VERTEX
 8 
1
 10 
0.625
 20 
0.47463
 30 
0.0
 0 
VERTEX
 8 
1
 10 
0.6
 20 
0.47533
 30 
0.0
 0 
VERTEX
 8 
1
 10 
0.55
 20 
0.47722
 30 
0.0
 0 
VERTEX
 8 
1
 10 
0.5
 20 
0.47974
 30 
0.0
 0 
VERTEX
 8 
1
 10 
0.45
 20 
0.48284
 30 
0.0
 0 
VERTEX
 8 
1
 10 
0.4
 20 
0.4864
 30 
0.0
 0 
VERTEX
 8 
1
 10 
0.35
 20 
0.49019
 30 
0.0
 0 
VERTEX
 8 
1
 10 
0.3
 20 
0.49389
 30 
0.0
 0 
VERTEX
 8 
1
 10 
0.25
 20 
0.49727
 30 
0.0
 0 
VERTEX
 8 
1
 10 
0.2
 20 
0.49999
 30 
0.0
 0 
VERTEX
 8 
1
 10 
0.175
 20 
0.50099
 30 
0.0
 0 
VERTEX
 8 
1
 10 
0.15
 20 
0.5017
 30 
0.0
 0 
VERTEX
 8 
1
 10 
0.125
 20 
0.50202
 30 
0.0
 0 
VERTEX
 8 
1
 10 
0.1
 20 
0.5021
 30 
0.0
 0 
VERTEX
 8 
1
 10 
0.075
 20 
0.5018
 30 
0.0
 0 
VERTEX
 8 
1
 10 
0.05
 20 
0.50151
 30 
0.0
 0 
VERTEX
 8 
1
 10 
0.025
 20 
0.5009
 30 
0.0
 0 
VERTEX
 8 
1
 10 
0.0
 20 
0.5
 30 
0.0
 0 
SEQEND
 8 
1
 0 
ENDSEC
 0 
EOF
