 0 
SECTION
 2 
ENTITIES
 0 
POLYLINE
 8 
1
 66 
 1 
 10 
0.0
 20 
0.0
 30 
0.0
 0 
VERTEX
 8 
1
 10 
0.0
 20 
0.5
 30 
0.0
 0 
VERTEX
 8 
1
 10 
0.025
 20 
0.50454
 30 
0.0
 0 
VERTEX
 8 
1
 10 
0.05
 20 
0.50943
 30 
0.0
 0 
VERTEX
 8 
1
 10 
0.075
 20 
0.51436
 30 
0.0
 0 
VERTEX
 8 
1
 10 
0.1
 20 
0.5191
 30 
0.0
 0 
VERTEX
 8 
1
 10 
0.125
 20 
0.5239
 30 
0.0
 0 
VERTEX
 8 
1
 10 
0.15
 20 
0.52865
 30 
0.0
 0 
VERTEX
 8 
1
 10 
0.175
 20 
0.53341
 30 
0.0
 0 
VERTEX
 8 
1
 10 
0.2
 20 
0.53812
 30 
0.0
 0 
VERTEX
 8 
1
 10 
0.25
 20 
0.54713
 30 
0.0
 0 
VERTEX
 8 
1
 10 
0.3
 20 
0.55551
 30 
0.0
 0 
VERTEX
 8 
1
 10 
0.35
 20 
0.56304
 30 
0.0
 0 
VERTEX
 8 
1
 10 
0.4
 20 
0.56967
 30 
0.0
 0 
VERTEX
 8 
1
 10 
0.45
 20 
0.57514
 30 
0.0
 0 
VERTEX
 8 
1
 10 
0.5
 20 
0.57929
 30 
0.0
 0 
VERTEX
 8 
1
 10 
0.55
 20 
0.58208
 30 
0.0
 0 
VERTEX
 8 
1
 10 
0.6
 20 
0.58356
 30 
0.0
 0 
VERTEX
 8 
1
 10 
0.625
 20 
0.58383
 30 
0.0
 0 
VERTEX
 8 
1
 10 
0.65
 20 
0.58378
 30 
0.0
 0 
VERTEX
 8 
1
 10 
0.675
 20 
0.58334
 30 
0.0
 0 
VERTEX
 8 
1
 10 
0.7
 20 
0.5825
 30 
0.0
 0 
VERTEX
 8 
1
 10 
0.725
 20 
0.58127
 30 
0.0
 0 
VERTEX
 8 
1
 10 
0.75
 20 
0.5797
 30 
0.0
 0 
VERTEX
 8 
1
 10 
0.775
 20 
0.57779
 30 
0.0
 0 
VERTEX
 8 
1
 10 
0.8
 20 
0.57542
 30 
0.0
 0 
VERTEX
 8 
1
 10 
0.825
 20 
0.57246
 30 
0.0
 0 
VERTEX
 8 
1
 10 
0.85
 20 
0.56875
 30 
0.0
 0 
VERTEX
 8 
1
 10 
0.875
 20 
0.56415
 30 
0.0
 0 
VERTEX
 8 
1
 10 
0.9
 20 
0.5584
 30 
0.0
 0 
VERTEX
 8 
1
 10 
0.925
 20 
0.55119
 30 
0.0
 0 
VERTEX
 8 
1
 10 
0.95
 20 
0.54179
 30 
0.0
 0 
VERTEX
 8 
1
 10 
0.9625
 20 
0.5359
 30 
0.0
 0 
VERTEX
 8 
1
 10 
0.975
 20 
0.52864
 30 
0.0
 0 
VERTEX
 8 
1
 10 
0.98125
 20 
0.52428
 30 
0.0
 0 
VERTEX
 8 
1
 10 
0.9875
 20 
0.51904
 30 
0.0
 0 
VERTEX
 8 
1
 10 
0.99125
 20 
0.51533
 30 
0.0
 0 
VERTEX
 8 
1
 10 
0.995
 20 
0.51085
 30 
0.0
 0 
VERTEX
 8 
1
 10 
0.9975
 20 
0.507
 30 
0.0
 0 
VERTEX
 8 
1
 10 
1
 20 
0.5
 30 
0.0
 0 
VERTEX
 8 
1
 10 
0.9975
 20 
0.49525
 30 
0.0
 0 
VERTEX
 8 
1
 10 
0.995
 20 
0.49298
 30 
0.0
 0 
VERTEX
 8 
1
 10 
0.99125
 20 
0.49036
 30 
0.0
 0 
VERTEX
 8 
1
 10 
0.9875
 20 
0.48826
 30 
0.0
 0 
VERTEX
 8 
1
 10 
0.98125
 20 
0.48549
 30 
0.0
 0 
VERTEX
 8 
1
 10 
0.975
 20 
0.48342
 30 
0.0
 0 
VERTEX
 8 
1
 10 
0.9625
 20 
0.48022
 30 
0.0
 0 
VERTEX
 8 
1
 10 
0.95
 20 
0.4778
 30 
0.0
 0 
VERTEX
 8 
1
 10 
0.925
 20 
0.47415
 30 
0.0
 0 
VERTEX
 8 
1
 10 
0.9
 20 
0.47144
 30 
0.0
 0 
VERTEX
 8 
1
 10 
0.875
 20 
0.46931
 30 
0.0
 0 
VERTEX
 8 
1
 10 
0.85
 20 
0.46765
 30 
0.0
 0 
VERTEX
 8 
1
 10 
0.825
 20 
0.46642
 30 
0.0
 0 
VERTEX
 8 
1
 10 
0.8
 20 
0.46553
 30 
0.0
 0 
VERTEX
 8 
1
 10 
0.775
 20 
0.46488
 30 
0.0
 0 
VERTEX
 8 
1
 10 
0.75
 20 
0.4644
 30 
0.0
 0 
VERTEX
 8 
1
 10 
0.725
 20 
0.46406
 30 
0.0
 0 
VERTEX
 8 
1
 10 
0.7
 20 
0.46387
 30 
0.0
 0 
VERTEX
 8 
1
 10 
0.675
 20 
0.46389
 30 
0.0
 0 
VERTEX
 8 
1
 10 
0.65
 20 
0.46417
 30 
0.0
 0 
VERTEX
 8 
1
 10 
0.625
 20 
0.46472
 30 
0.0
 0 
VERTEX
 8 
1
 10 
0.6
 20 
0.4655
 30 
0.0
 0 
VERTEX
 8 
1
 10 
0.55
 20 
0.46766
 30 
0.0
 0 
VERTEX
 8 
1
 10 
0.5
 20 
0.47065
 30 
0.0
 0 
VERTEX
 8 
1
 10 
0.45
 20 
0.47441
 30 
0.0
 0 
VERTEX
 8 
1
 10 
0.4
 20 
0.47882
 30 
0.0
 0 
VERTEX
 8 
1
 10 
0.35
 20 
0.48362
 30 
0.0
 0 
VERTEX
 8 
1
 10 
0.3
 20 
0.48838
 30 
0.0
 0 
VERTEX
 8 
1
 10 
0.25
 20 
0.49282
 30 
0.0
 0 
VERTEX
 8 
1
 10 
0.2
 20 
0.49657
 30 
0.0
 0 
VERTEX
 8 
1
 10 
0.175
 20 
0.49806
 30 
0.0
 0 
VERTEX
 8 
1
 10 
0.15
 20 
0.49926
 30 
0.0
 0 
VERTEX
 8 
1
 10 
0.125
 20 
0.50006
 30 
0.0
 0 
VERTEX
 8 
1
 10 
0.1
 20 
0.5006
 30 
0.0
 0 
VERTEX
 8 
1
 10 
0.075
 20 
0.5007
 30 
0.0
 0 
VERTEX
 8 
1
 10 
0.05
 20 
0.50083
 30 
0.0
 0 
VERTEX
 8 
1
 10 
0.025
 20 
0.5006
 30 
0.0
 0 
VERTEX
 8 
1
 10 
0.0
 20 
0.5
 30 
0.0
 0 
SEQEND
 8 
1
 0 
ENDSEC
 0 
EOF
