 0 
SECTION
 2 
ENTITIES
 0 
POLYLINE
 8 
1
 66 
 1 
 10 
0.0
 20 
0.0
 30 
0.0
 0 
VERTEX
 8 
1
 10 
0.0
 20 
0.5
 30 
0.0
 0 
VERTEX
 8 
1
 10 
0.025
 20 
0.50555
 30 
0.0
 0 
VERTEX
 8 
1
 10 
0.05
 20 
0.51153
 30 
0.0
 0 
VERTEX
 8 
1
 10 
0.075
 20 
0.51756
 30 
0.0
 0 
VERTEX
 8 
1
 10 
0.1
 20 
0.52337
 30 
0.0
 0 
VERTEX
 8 
1
 10 
0.125
 20 
0.52926
 30 
0.0
 0 
VERTEX
 8 
1
 10 
0.15
 20 
0.53511
 30 
0.0
 0 
VERTEX
 8 
1
 10 
0.175
 20 
0.54099
 30 
0.0
 0 
VERTEX
 8 
1
 10 
0.2
 20 
0.54684
 30 
0.0
 0 
VERTEX
 8 
1
 10 
0.25
 20 
0.55803
 30 
0.0
 0 
VERTEX
 8 
1
 10 
0.3
 20 
0.56842
 30 
0.0
 0 
VERTEX
 8 
1
 10 
0.35
 20 
0.57774
 30 
0.0
 0 
VERTEX
 8 
1
 10 
0.4
 20 
0.58594
 30 
0.0
 0 
VERTEX
 8 
1
 10 
0.45
 20 
0.59269
 30 
0.0
 0 
VERTEX
 8 
1
 10 
0.5
 20 
0.59784
 30 
0.0
 0 
VERTEX
 8 
1
 10 
0.55
 20 
0.60133
 30 
0.0
 0 
VERTEX
 8 
1
 10 
0.6
 20 
0.6032
 30 
0.0
 0 
VERTEX
 8 
1
 10 
0.625
 20 
0.60356
 30 
0.0
 0 
VERTEX
 8 
1
 10 
0.65
 20 
0.6035
 30 
0.0
 0 
VERTEX
 8 
1
 10 
0.675
 20 
0.60297
 30 
0.0
 0 
VERTEX
 8 
1
 10 
0.7
 20 
0.60194
 30 
0.0
 0 
VERTEX
 8 
1
 10 
0.725
 20 
0.60046
 30 
0.0
 0 
VERTEX
 8 
1
 10 
0.75
 20 
0.59855
 30 
0.0
 0 
VERTEX
 8 
1
 10 
0.775
 20 
0.59617
 30 
0.0
 0 
VERTEX
 8 
1
 10 
0.8
 20 
0.59315
 30 
0.0
 0 
VERTEX
 8 
1
 10 
0.825
 20 
0.58935
 30 
0.0
 0 
VERTEX
 8 
1
 10 
0.85
 20 
0.58469
 30 
0.0
 0 
VERTEX
 8 
1
 10 
0.875
 20 
0.57904
 30 
0.0
 0 
VERTEX
 8 
1
 10 
0.9
 20 
0.57205
 30 
0.0
 0 
VERTEX
 8 
1
 10 
0.925
 20 
0.56328
 30 
0.0
 0 
VERTEX
 8 
1
 10 
0.95
 20 
0.55188
 30 
0.0
 0 
VERTEX
 8 
1
 10 
0.9625
 20 
0.54476
 30 
0.0
 0 
VERTEX
 8 
1
 10 
0.975
 20 
0.53616
 30 
0.0
 0 
VERTEX
 8 
1
 10 
0.98125
 20 
0.53102
 30 
0.0
 0 
VERTEX
 8 
1
 10 
0.9875
 20 
0.52489
 30 
0.0
 0 
VERTEX
 8 
1
 10 
0.99125
 20 
0.52048
 30 
0.0
 0 
VERTEX
 8 
1
 10 
0.995
 20 
0.51483
 30 
0.0
 0 
VERTEX
 8 
1
 10 
0.9975
 20 
0.50963
 30 
0.0
 0 
VERTEX
 8 
1
 10 
1
 20 
0.5
 30 
0.0
 0 
VERTEX
 8 
1
 10 
0.9975
 20 
0.49398
 30 
0.0
 0 
VERTEX
 8 
1
 10 
0.995
 20 
0.49115
 30 
0.0
 0 
VERTEX
 8 
1
 10 
0.99125
 20 
0.48784
 30 
0.0
 0 
VERTEX
 8 
1
 10 
0.9875
 20 
0.48517
 30 
0.0
 0 
VERTEX
 8 
1
 10 
0.98125
 20 
0.48163
 30 
0.0
 0 
VERTEX
 8 
1
 10 
0.975
 20 
0.47898
 30 
0.0
 0 
VERTEX
 8 
1
 10 
0.9625
 20 
0.47485
 30 
0.0
 0 
VERTEX
 8 
1
 10 
0.95
 20 
0.47174
 30 
0.0
 0 
VERTEX
 8 
1
 10 
0.925
 20 
0.46705
 30 
0.0
 0 
VERTEX
 8 
1
 10 
0.9
 20 
0.46357
 30 
0.0
 0 
VERTEX
 8 
1
 10 
0.875
 20 
0.46083
 30 
0.0
 0 
VERTEX
 8 
1
 10 
0.85
 20 
0.45869
 30 
0.0
 0 
VERTEX
 8 
1
 10 
0.825
 20 
0.45708
 30 
0.0
 0 
VERTEX
 8 
1
 10 
0.8
 20 
0.4559
 30 
0.0
 0 
VERTEX
 8 
1
 10 
0.775
 20 
0.45504
 30 
0.0
 0 
VERTEX
 8 
1
 10 
0.75
 20 
0.45443
 30 
0.0
 0 
VERTEX
 8 
1
 10 
0.725
 20 
0.45405
 30 
0.0
 0 
VERTEX
 8 
1
 10 
0.7
 20 
0.45379
 30 
0.0
 0 
VERTEX
 8 
1
 10 
0.675
 20 
0.45364
 30 
0.0
 0 
VERTEX
 8 
1
 10 
0.65
 20 
0.45367
 30 
0.0
 0 
VERTEX
 8 
1
 10 
0.625
 20 
0.45414
 30 
0.0
 0 
VERTEX
 8 
1
 10 
0.6
 20 
0.45507
 30 
0.0
 0 
VERTEX
 8 
1
 10 
0.55
 20 
0.45788
 30 
0.0
 0 
VERTEX
 8 
1
 10 
0.5
 20 
0.46187
 30 
0.0
 0 
VERTEX
 8 
1
 10 
0.45
 20 
0.46674
 30 
0.0
 0 
VERTEX
 8 
1
 10 
0.4
 20 
0.47232
 30 
0.0
 0 
VERTEX
 8 
1
 10 
0.35
 20 
0.47829
 30 
0.0
 0 
VERTEX
 8 
1
 10 
0.3
 20 
0.48424
 30 
0.0
 0 
VERTEX
 8 
1
 10 
0.25
 20 
0.48989
 30 
0.0
 0 
VERTEX
 8 
1
 10 
0.2
 20 
0.49481
 30 
0.0
 0 
VERTEX
 8 
1
 10 
0.175
 20 
0.49681
 30 
0.0
 0 
VERTEX
 8 
1
 10 
0.15
 20 
0.49843
 30 
0.0
 0 
VERTEX
 8 
1
 10 
0.125
 20 
0.49952
 30 
0.0
 0 
VERTEX
 8 
1
 10 
0.1
 20 
0.50027
 30 
0.0
 0 
VERTEX
 8 
1
 10 
0.075
 20 
0.50049
 30 
0.0
 0 
VERTEX
 8 
1
 10 
0.05
 20 
0.50076
 30 
0.0
 0 
VERTEX
 8 
1
 10 
0.025
 20 
0.5006
 30 
0.0
 0 
VERTEX
 8 
1
 10 
0.0
 20 
0.5
 30 
0.0
 0 
SEQEND
 8 
1
 0 
ENDSEC
 0 
EOF
