 0 
SECTION
 2 
ENTITIES
 0 
POLYLINE
 8 
1
 66 
 1 
 10 
0.0
 20 
0.0
 30 
0.0
 0 
VERTEX
 8 
1
 10 
0.0
 20 
0.5
 30 
0.0
 0 
VERTEX
 8 
1
 10 
0.025
 20 
0.50524
 30 
0.0
 0 
VERTEX
 8 
1
 10 
0.05
 20 
0.51092
 30 
0.0
 0 
VERTEX
 8 
1
 10 
0.075
 20 
0.51659
 30 
0.0
 0 
VERTEX
 8 
1
 10 
0.1
 20 
0.52206
 30 
0.0
 0 
VERTEX
 8 
1
 10 
0.125
 20 
0.52749
 30 
0.0
 0 
VERTEX
 8 
1
 10 
0.15
 20 
0.53278
 30 
0.0
 0 
VERTEX
 8 
1
 10 
0.175
 20 
0.53807
 30 
0.0
 0 
VERTEX
 8 
1
 10 
0.2
 20 
0.54334
 30 
0.0
 0 
VERTEX
 8 
1
 10 
0.25
 20 
0.55334
 30 
0.0
 0 
VERTEX
 8 
1
 10 
0.3
 20 
0.56279
 30 
0.0
 0 
VERTEX
 8 
1
 10 
0.35
 20 
0.5711
 30 
0.0
 0 
VERTEX
 8 
1
 10 
0.4
 20 
0.57837
 30 
0.0
 0 
VERTEX
 8 
1
 10 
0.45
 20 
0.58429
 30 
0.0
 0 
VERTEX
 8 
1
 10 
0.5
 20 
0.58877
 30 
0.0
 0 
VERTEX
 8 
1
 10 
0.55
 20 
0.59175
 30 
0.0
 0 
VERTEX
 8 
1
 10 
0.6
 20 
0.59332
 30 
0.0
 0 
VERTEX
 8 
1
 10 
0.625
 20 
0.5936
 30 
0.0
 0 
VERTEX
 8 
1
 10 
0.65
 20 
0.59353
 30 
0.0
 0 
VERTEX
 8 
1
 10 
0.675
 20 
0.59305
 30 
0.0
 0 
VERTEX
 8 
1
 10 
0.7
 20 
0.5921
 30 
0.0
 0 
VERTEX
 8 
1
 10 
0.725
 20 
0.59073
 30 
0.0
 0 
VERTEX
 8 
1
 10 
0.75
 20 
0.58895
 30 
0.0
 0 
VERTEX
 8 
1
 10 
0.775
 20 
0.58675
 30 
0.0
 0 
VERTEX
 8 
1
 10 
0.8
 20 
0.58397
 30 
0.0
 0 
VERTEX
 8 
1
 10 
0.825
 20 
0.5805
 30 
0.0
 0 
VERTEX
 8 
1
 10 
0.85
 20 
0.57628
 30 
0.0
 0 
VERTEX
 8 
1
 10 
0.875
 20 
0.57117
 30 
0.0
 0 
VERTEX
 8 
1
 10 
0.9
 20 
0.56484
 30 
0.0
 0 
VERTEX
 8 
1
 10 
0.925
 20 
0.5569
 30 
0.0
 0 
VERTEX
 8 
1
 10 
0.95
 20 
0.54657
 30 
0.0
 0 
VERTEX
 8 
1
 10 
0.9625
 20 
0.54012
 30 
0.0
 0 
VERTEX
 8 
1
 10 
0.975
 20 
0.53235
 30 
0.0
 0 
VERTEX
 8 
1
 10 
0.98125
 20 
0.52772
 30 
0.0
 0 
VERTEX
 8 
1
 10 
0.9875
 20 
0.52223
 30 
0.0
 0 
VERTEX
 8 
1
 10 
0.99125
 20 
0.5183
 30 
0.0
 0 
VERTEX
 8 
1
 10 
0.995
 20 
0.51325
 30 
0.0
 0 
VERTEX
 8 
1
 10 
0.9975
 20 
0.5086
 30 
0.0
 0 
VERTEX
 8 
1
 10 
1
 20 
0.5
 30 
0.0
 0 
VERTEX
 8 
1
 10 
0.9975
 20 
0.495
 30 
0.0
 0 
VERTEX
 8 
1
 10 
0.995
 20 
0.49269
 30 
0.0
 0 
VERTEX
 8 
1
 10 
0.99125
 20 
0.48998
 30 
0.0
 0 
VERTEX
 8 
1
 10 
0.9875
 20 
0.48778
 30 
0.0
 0 
VERTEX
 8 
1
 10 
0.98125
 20 
0.48488
 30 
0.0
 0 
VERTEX
 8 
1
 10 
0.975
 20 
0.48275
 30 
0.0
 0 
VERTEX
 8 
1
 10 
0.9625
 20 
0.47946
 30 
0.0
 0 
VERTEX
 8 
1
 10 
0.95
 20 
0.47704
 30 
0.0
 0 
VERTEX
 8 
1
 10 
0.925
 20 
0.47344
 30 
0.0
 0 
VERTEX
 8 
1
 10 
0.9
 20 
0.47081
 30 
0.0
 0 
VERTEX
 8 
1
 10 
0.875
 20 
0.46875
 30 
0.0
 0 
VERTEX
 8 
1
 10 
0.85
 20 
0.46713
 30 
0.0
 0 
VERTEX
 8 
1
 10 
0.825
 20 
0.46592
 30 
0.0
 0 
VERTEX
 8 
1
 10 
0.8
 20 
0.46505
 30 
0.0
 0 
VERTEX
 8 
1
 10 
0.775
 20 
0.46442
 30 
0.0
 0 
VERTEX
 8 
1
 10 
0.75
 20 
0.464
 30 
0.0
 0 
VERTEX
 8 
1
 10 
0.725
 20 
0.46376
 30 
0.0
 0 
VERTEX
 8 
1
 10 
0.7
 20 
0.46363
 30 
0.0
 0 
VERTEX
 8 
1
 10 
0.675
 20 
0.46359
 30 
0.0
 0 
VERTEX
 8 
1
 10 
0.65
 20 
0.46366
 30 
0.0
 0 
VERTEX
 8 
1
 10 
0.625
 20 
0.46409
 30 
0.0
 0 
VERTEX
 8 
1
 10 
0.6
 20 
0.46494
 30 
0.0
 0 
VERTEX
 8 
1
 10 
0.55
 20 
0.46757
 30 
0.0
 0 
VERTEX
 8 
1
 10 
0.5
 20 
0.47128
 30 
0.0
 0 
VERTEX
 8 
1
 10 
0.45
 20 
0.47566
 30 
0.0
 0 
VERTEX
 8 
1
 10 
0.4
 20 
0.48048
 30 
0.0
 0 
VERTEX
 8 
1
 10 
0.35
 20 
0.48537
 30 
0.0
 0 
VERTEX
 8 
1
 10 
0.3
 20 
0.49009
 30 
0.0
 0 
VERTEX
 8 
1
 10 
0.25
 20 
0.49447
 30 
0.0
 0 
VERTEX
 8 
1
 10 
0.2
 20 
0.49822
 30 
0.0
 0 
VERTEX
 8 
1
 10 
0.175
 20 
0.49971
 30 
0.0
 0 
VERTEX
 8 
1
 10 
0.15
 20 
0.50085
 30 
0.0
 0 
VERTEX
 8 
1
 10 
0.125
 20 
0.50148
 30 
0.0
 0 
VERTEX
 8 
1
 10 
0.1
 20 
0.5018
 30 
0.0
 0 
VERTEX
 8 
1
 10 
0.075
 20 
0.50163
 30 
0.0
 0 
VERTEX
 8 
1
 10 
0.05
 20 
0.50149
 30 
0.0
 0 
VERTEX
 8 
1
 10 
0.025
 20 
0.50095
 30 
0.0
 0 
VERTEX
 8 
1
 10 
0.0
 20 
0.5
 30 
0.0
 0 
SEQEND
 8 
1
 0 
ENDSEC
 0 
EOF
