 0 
SECTION
 2 
ENTITIES
 0 
POLYLINE
 8 
1
 66 
 1 
 10 
0.0
 20 
0.0
 30 
0.0
 0 
VERTEX
 8 
1
 10 
0.0
 20 
0.5
 30 
0.0
 0 
VERTEX
 8 
1
 10 
0.025
 20 
0.5051
 30 
0.0
 0 
VERTEX
 8 
1
 10 
0.05
 20 
0.51043
 30 
0.0
 0 
VERTEX
 8 
1
 10 
0.075
 20 
0.51568
 30 
0.0
 0 
VERTEX
 8 
1
 10 
0.1
 20 
0.52073
 30 
0.0
 0 
VERTEX
 8 
1
 10 
0.125
 20 
0.52571
 30 
0.0
 0 
VERTEX
 8 
1
 10 
0.15
 20 
0.53057
 30 
0.0
 0 
VERTEX
 8 
1
 10 
0.175
 20 
0.53532
 30 
0.0
 0 
VERTEX
 8 
1
 10 
0.2
 20 
0.53992
 30 
0.0
 0 
VERTEX
 8 
1
 10 
0.25
 20 
0.54841
 30 
0.0
 0 
VERTEX
 8 
1
 10 
0.3
 20 
0.55597
 30 
0.0
 0 
VERTEX
 8 
1
 10 
0.35
 20 
0.56249
 30 
0.0
 0 
VERTEX
 8 
1
 10 
0.4
 20 
0.56803
 30 
0.0
 0 
VERTEX
 8 
1
 10 
0.45
 20 
0.57243
 30 
0.0
 0 
VERTEX
 8 
1
 10 
0.5
 20 
0.57565
 30 
0.0
 0 
VERTEX
 8 
1
 10 
0.55
 20 
0.57767
 30 
0.0
 0 
VERTEX
 8 
1
 10 
0.6
 20 
0.57857
 30 
0.0
 0 
VERTEX
 8 
1
 10 
0.625
 20 
0.57862
 30 
0.0
 0 
VERTEX
 8 
1
 10 
0.65
 20 
0.57841
 30 
0.0
 0 
VERTEX
 8 
1
 10 
0.675
 20 
0.57788
 30 
0.0
 0 
VERTEX
 8 
1
 10 
0.7
 20 
0.57696
 30 
0.0
 0 
VERTEX
 8 
1
 10 
0.725
 20 
0.57567
 30 
0.0
 0 
VERTEX
 8 
1
 10 
0.75
 20 
0.57409
 30 
0.0
 0 
VERTEX
 8 
1
 10 
0.775
 20 
0.57225
 30 
0.0
 0 
VERTEX
 8 
1
 10 
0.8
 20 
0.57005
 30 
0.0
 0 
VERTEX
 8 
1
 10 
0.825
 20 
0.56734
 30 
0.0
 0 
VERTEX
 8 
1
 10 
0.85
 20 
0.56384
 30 
0.0
 0 
VERTEX
 8 
1
 10 
0.875
 20 
0.55936
 30 
0.0
 0 
VERTEX
 8 
1
 10 
0.9
 20 
0.55372
 30 
0.0
 0 
VERTEX
 8 
1
 10 
0.925
 20 
0.54667
 30 
0.0
 0 
VERTEX
 8 
1
 10 
0.95
 20 
0.53767
 30 
0.0
 0 
VERTEX
 8 
1
 10 
0.9625
 20 
0.53215
 30 
0.0
 0 
VERTEX
 8 
1
 10 
0.975
 20 
0.52551
 30 
0.0
 0 
VERTEX
 8 
1
 10 
0.98125
 20 
0.52156
 30 
0.0
 0 
VERTEX
 8 
1
 10 
0.9875
 20 
0.51701
 30 
0.0
 0 
VERTEX
 8 
1
 10 
0.99125
 20 
0.51384
 30 
0.0
 0 
VERTEX
 8 
1
 10 
0.995
 20 
0.51001
 30 
0.0
 0 
VERTEX
 8 
1
 10 
0.9975
 20 
0.50656
 30 
0.0
 0 
VERTEX
 8 
1
 10 
1
 20 
0.5
 30 
0.0
 0 
VERTEX
 8 
1
 10 
0.9975
 20 
0.49728
 30 
0.0
 0 
VERTEX
 8 
1
 10 
0.995
 20 
0.49618
 30 
0.0
 0 
VERTEX
 8 
1
 10 
0.99125
 20 
0.49479
 30 
0.0
 0 
VERTEX
 8 
1
 10 
0.9875
 20 
0.49369
 30 
0.0
 0 
VERTEX
 8 
1
 10 
0.98125
 20 
0.49233
 30 
0.0
 0 
VERTEX
 8 
1
 10 
0.975
 20 
0.49149
 30 
0.0
 0 
VERTEX
 8 
1
 10 
0.9625
 20 
0.49036
 30 
0.0
 0 
VERTEX
 8 
1
 10 
0.95
 20 
0.48969
 30 
0.0
 0 
VERTEX
 8 
1
 10 
0.925
 20 
0.48888
 30 
0.0
 0 
VERTEX
 8 
1
 10 
0.9
 20 
0.48839
 30 
0.0
 0 
VERTEX
 8 
1
 10 
0.875
 20 
0.48803
 30 
0.0
 0 
VERTEX
 8 
1
 10 
0.85
 20 
0.48774
 30 
0.0
 0 
VERTEX
 8 
1
 10 
0.825
 20 
0.48758
 30 
0.0
 0 
VERTEX
 8 
1
 10 
0.8
 20 
0.48752
 30 
0.0
 0 
VERTEX
 8 
1
 10 
0.775
 20 
0.48756
 30 
0.0
 0 
VERTEX
 8 
1
 10 
0.75
 20 
0.48766
 30 
0.0
 0 
VERTEX
 8 
1
 10 
0.725
 20 
0.48781
 30 
0.0
 0 
VERTEX
 8 
1
 10 
0.7
 20 
0.48801
 30 
0.0
 0 
VERTEX
 8 
1
 10 
0.675
 20 
0.48829
 30 
0.0
 0 
VERTEX
 8 
1
 10 
0.65
 20 
0.48871
 30 
0.0
 0 
VERTEX
 8 
1
 10 
0.625
 20 
0.48931
 30 
0.0
 0 
VERTEX
 8 
1
 10 
0.6
 20 
0.49009
 30 
0.0
 0 
VERTEX
 8 
1
 10 
0.55
 20 
0.49197
 30 
0.0
 0 
VERTEX
 8 
1
 10 
0.5
 20 
0.4943
 30 
0.0
 0 
VERTEX
 8 
1
 10 
0.45
 20 
0.49697
 30 
0.0
 0 
VERTEX
 8 
1
 10 
0.4
 20 
0.4999
 30 
0.0
 0 
VERTEX
 8 
1
 10 
0.35
 20 
0.50285
 30 
0.0
 0 
VERTEX
 8 
1
 10 
0.3
 20 
0.50548
 30 
0.0
 0 
VERTEX
 8 
1
 10 
0.25
 20 
0.50755
 30 
0.0
 0 
VERTEX
 8 
1
 10 
0.2
 20 
0.5087
 30 
0.0
 0 
VERTEX
 8 
1
 10 
0.175
 20 
0.50879
 30 
0.0
 0 
VERTEX
 8 
1
 10 
0.15
 20 
0.50854
 30 
0.0
 0 
VERTEX
 8 
1
 10 
0.125
 20 
0.50784
 30 
0.0
 0 
VERTEX
 8 
1
 10 
0.1
 20 
0.50684
 30 
0.0
 0 
VERTEX
 8 
1
 10 
0.075
 20 
0.5054
 30 
0.0
 0 
VERTEX
 8 
1
 10 
0.05
 20 
0.50393
 30 
0.0
 0 
VERTEX
 8 
1
 10 
0.025
 20 
0.5021
 30 
0.0
 0 
VERTEX
 8 
1
 10 
0.0
 20 
0.5
 30 
0.0
 0 
SEQEND
 8 
1
 0 
ENDSEC
 0 
EOF
