 0 
SECTION
 2 
ENTITIES
 0 
POLYLINE
 8 
1
 66 
 1 
 10 
0.0
 20 
0.0
 30 
0.0
 0 
VERTEX
 8 
1
 10 
0.0
 20 
0.5
 30 
0.0
 0 
VERTEX
 8 
1
 10 
0.025
 20 
0.50577
 30 
0.0
 0 
VERTEX
 8 
1
 10 
0.05
 20 
0.51189
 30 
0.0
 0 
VERTEX
 8 
1
 10 
0.075
 20 
0.518
 30 
0.0
 0 
VERTEX
 8 
1
 10 
0.1
 20 
0.52387
 30 
0.0
 0 
VERTEX
 8 
1
 10 
0.125
 20 
0.52976
 30 
0.0
 0 
VERTEX
 8 
1
 10 
0.15
 20 
0.53555
 30 
0.0
 0 
VERTEX
 8 
1
 10 
0.175
 20 
0.54129
 30 
0.0
 0 
VERTEX
 8 
1
 10 
0.2
 20 
0.5469
 30 
0.0
 0 
VERTEX
 8 
1
 10 
0.25
 20 
0.55748
 30 
0.0
 0 
VERTEX
 8 
1
 10 
0.3
 20 
0.56717
 30 
0.0
 0 
VERTEX
 8 
1
 10 
0.35
 20 
0.57579
 30 
0.0
 0 
VERTEX
 8 
1
 10 
0.4
 20 
0.58331
 30 
0.0
 0 
VERTEX
 8 
1
 10 
0.45
 20 
0.58943
 30 
0.0
 0 
VERTEX
 8 
1
 10 
0.5
 20 
0.59401
 30 
0.0
 0 
VERTEX
 8 
1
 10 
0.55
 20 
0.597
 30 
0.0
 0 
VERTEX
 8 
1
 10 
0.6
 20 
0.59849
 30 
0.0
 0 
VERTEX
 8 
1
 10 
0.625
 20 
0.5987
 30 
0.0
 0 
VERTEX
 8 
1
 10 
0.65
 20 
0.59855
 30 
0.0
 0 
VERTEX
 8 
1
 10 
0.675
 20 
0.59801
 30 
0.0
 0 
VERTEX
 8 
1
 10 
0.7
 20 
0.59695
 30 
0.0
 0 
VERTEX
 8 
1
 10 
0.725
 20 
0.59543
 30 
0.0
 0 
VERTEX
 8 
1
 10 
0.75
 20 
0.59354
 30 
0.0
 0 
VERTEX
 8 
1
 10 
0.775
 20 
0.59133
 30 
0.0
 0 
VERTEX
 8 
1
 10 
0.8
 20 
0.58865
 30 
0.0
 0 
VERTEX
 8 
1
 10 
0.825
 20 
0.58529
 30 
0.0
 0 
VERTEX
 8 
1
 10 
0.85
 20 
0.58095
 30 
0.0
 0 
VERTEX
 8 
1
 10 
0.875
 20 
0.57537
 30 
0.0
 0 
VERTEX
 8 
1
 10 
0.9
 20 
0.56837
 30 
0.0
 0 
VERTEX
 8 
1
 10 
0.925
 20 
0.55963
 30 
0.0
 0 
VERTEX
 8 
1
 10 
0.95
 20 
0.54844
 30 
0.0
 0 
VERTEX
 8 
1
 10 
0.9625
 20 
0.54153
 30 
0.0
 0 
VERTEX
 8 
1
 10 
0.975
 20 
0.53314
 30 
0.0
 0 
VERTEX
 8 
1
 10 
0.98125
 20 
0.52813
 30 
0.0
 0 
VERTEX
 8 
1
 10 
0.9875
 20 
0.52227
 30 
0.0
 0 
VERTEX
 8 
1
 10 
0.99125
 20 
0.51815
 30 
0.0
 0 
VERTEX
 8 
1
 10 
0.995
 20 
0.51317
 30 
0.0
 0 
VERTEX
 8 
1
 10 
0.9975
 20 
0.50869
 30 
0.0
 0 
VERTEX
 8 
1
 10 
1
 20 
0.5
 30 
0.0
 0 
VERTEX
 8 
1
 10 
0.9975
 20 
0.49515
 30 
0.0
 0 
VERTEX
 8 
1
 10 
0.995
 20 
0.49303
 30 
0.0
 0 
VERTEX
 8 
1
 10 
0.99125
 20 
0.49048
 30 
0.0
 0 
VERTEX
 8 
1
 10 
0.9875
 20 
0.48843
 30 
0.0
 0 
VERTEX
 8 
1
 10 
0.98125
 20 
0.48576
 30 
0.0
 0 
VERTEX
 8 
1
 10 
0.975
 20 
0.48386
 30 
0.0
 0 
VERTEX
 8 
1
 10 
0.9625
 20 
0.48098
 30 
0.0
 0 
VERTEX
 8 
1
 10 
0.95
 20 
0.4789
 30 
0.0
 0 
VERTEX
 8 
1
 10 
0.925
 20 
0.47585
 30 
0.0
 0 
VERTEX
 8 
1
 10 
0.9
 20 
0.47365
 30 
0.0
 0 
VERTEX
 8 
1
 10 
0.875
 20 
0.47193
 30 
0.0
 0 
VERTEX
 8 
1
 10 
0.85
 20 
0.47059
 30 
0.0
 0 
VERTEX
 8 
1
 10 
0.825
 20 
0.46962
 30 
0.0
 0 
VERTEX
 8 
1
 10 
0.8
 20 
0.46894
 30 
0.0
 0 
VERTEX
 8 
1
 10 
0.775
 20 
0.46848
 30 
0.0
 0 
VERTEX
 8 
1
 10 
0.75
 20 
0.46819
 30 
0.0
 0 
VERTEX
 8 
1
 10 
0.725
 20 
0.46802
 30 
0.0
 0 
VERTEX
 8 
1
 10 
0.7
 20 
0.46799
 30 
0.0
 0 
VERTEX
 8 
1
 10 
0.675
 20 
0.46815
 30 
0.0
 0 
VERTEX
 8 
1
 10 
0.65
 20 
0.46855
 30 
0.0
 0 
VERTEX
 8 
1
 10 
0.625
 20 
0.46925
 30 
0.0
 0 
VERTEX
 8 
1
 10 
0.6
 20 
0.47018
 30 
0.0
 0 
VERTEX
 8 
1
 10 
0.55
 20 
0.47264
 30 
0.0
 0 
VERTEX
 8 
1
 10 
0.5
 20 
0.47591
 30 
0.0
 0 
VERTEX
 8 
1
 10 
0.45
 20 
0.47993
 30 
0.0
 0 
VERTEX
 8 
1
 10 
0.4
 20 
0.48454
 30 
0.0
 0 
VERTEX
 8 
1
 10 
0.35
 20 
0.48945
 30 
0.0
 0 
VERTEX
 8 
1
 10 
0.3
 20 
0.49418
 30 
0.0
 0 
VERTEX
 8 
1
 10 
0.25
 20 
0.49842
 30 
0.0
 0 
VERTEX
 8 
1
 10 
0.2
 20 
0.50173
 30 
0.0
 0 
VERTEX
 8 
1
 10 
0.175
 20 
0.50286
 30 
0.0
 0 
VERTEX
 8 
1
 10 
0.15
 20 
0.50361
 30 
0.0
 0 
VERTEX
 8 
1
 10 
0.125
 20 
0.50384
 30 
0.0
 0 
VERTEX
 8 
1
 10 
0.1
 20 
0.50373
 30 
0.0
 0 
VERTEX
 8 
1
 10 
0.075
 20 
0.50309
 30 
0.0
 0 
VERTEX
 8 
1
 10 
0.05
 20 
0.50247
 30 
0.0
 0 
VERTEX
 8 
1
 10 
0.025
 20 
0.50143
 30 
0.0
 0 
VERTEX
 8 
1
 10 
0.0
 20 
0.5
 30 
0.0
 0 
SEQEND
 8 
1
 0 
ENDSEC
 0 
EOF
