 0 
SECTION
 2 
ENTITIES
 0 
POLYLINE
 8 
1
 66 
 1 
 10 
0.0
 20 
0.0
 30 
0.0
 0 
VERTEX
 8 
1
 10 
0.0
 20 
0.50067
 30 
0.0
 0 
VERTEX
 8 
1
 10 
0.01003
 20 
0.50152
 30 
0.0
 0 
VERTEX
 8 
1
 10 
0.020039
 20 
0.50241
 30 
0.0
 0 
VERTEX
 8 
1
 10 
0.02505
 20 
0.50289
 30 
0.0
 0 
VERTEX
 8 
1
 10 
0.05009
 20 
0.50558
 30 
0.0
 0 
VERTEX
 8 
1
 10 
0.07513
 20 
0.50854
 30 
0.0
 0 
VERTEX
 8 
1
 10 
0.08014
 20 
0.50919
 30 
0.0
 0 
VERTEX
 8 
1
 10 
0.10017
 20 
0.51192
 30 
0.0
 0 
VERTEX
 8 
1
 10 
0.12523
 20 
0.51566
 30 
0.0
 0 
VERTEX
 8 
1
 10 
0.15028
 20 
0.51991
 30 
0.0
 0 
VERTEX
 8 
1
 10 
0.17535
 20 
0.52451
 30 
0.0
 0 
VERTEX
 8 
1
 10 
0.18036
 20 
0.52546
 30 
0.0
 0 
VERTEX
 8 
1
 10 
0.20042
 20 
0.52939
 30 
0.0
 0 
VERTEX
 8 
1
 10 
0.22047
 20 
0.53355
 30 
0.0
 0 
VERTEX
 8 
1
 10 
0.22549
 20 
0.5346
 30 
0.0
 0 
VERTEX
 8 
1
 10 
0.25056
 20 
0.53995
 30 
0.0
 0 
VERTEX
 8 
1
 10 
0.27564
 20 
0.54552
 30 
0.0
 0 
VERTEX
 8 
1
 10 
0.30072
 20 
0.55104
 30 
0.0
 0 
VERTEX
 8 
1
 10 
0.32077
 20 
0.55531
 30 
0.0
 0 
VERTEX
 8 
1
 10 
0.32579
 20 
0.55634
 30 
0.0
 0 
VERTEX
 8 
1
 10 
0.35086
 20 
0.5612
 30 
0.0
 0 
VERTEX
 8 
1
 10 
0.37592
 20 
0.56549
 30 
0.0
 0 
VERTEX
 8 
1
 10 
0.40097
 20 
0.5691
 30 
0.0
 0 
VERTEX
 8 
1
 10 
0.42601
 20 
0.57205
 30 
0.0
 0 
VERTEX
 8 
1
 10 
0.45104
 20 
0.5744
 30 
0.0
 0 
VERTEX
 8 
1
 10 
0.47606
 20 
0.57624
 30 
0.0
 0 
VERTEX
 8 
1
 10 
0.50108
 20 
0.57762
 30 
0.0
 0 
VERTEX
 8 
1
 10 
0.5261
 20 
0.57861
 30 
0.0
 0 
VERTEX
 8 
1
 10 
0.5511
 20 
0.57924
 30 
0.0
 0 
VERTEX
 8 
1
 10 
0.57611
 20 
0.57955
 30 
0.0
 0 
VERTEX
 8 
1
 10 
0.60111
 20 
0.57954
 30 
0.0
 0 
VERTEX
 8 
1
 10 
0.6261
 20 
0.57922
 30 
0.0
 0 
VERTEX
 8 
1
 10 
0.65109
 20 
0.5786
 30 
0.0
 0 
VERTEX
 8 
1
 10 
0.67608
 20 
0.57766
 30 
0.0
 0 
VERTEX
 8 
1
 10 
0.70106
 20 
0.57639
 30 
0.0
 0 
VERTEX
 8 
1
 10 
0.72604
 20 
0.57478
 30 
0.0
 0 
VERTEX
 8 
1
 10 
0.75101
 20 
0.57282
 30 
0.0
 0 
VERTEX
 8 
1
 10 
0.77598
 20 
0.57048
 30 
0.0
 0 
VERTEX
 8 
1
 10 
0.80094
 20 
0.56774
 30 
0.0
 0 
VERTEX
 8 
1
 10 
0.8259
 20 
0.56456
 30 
0.0
 0 
VERTEX
 8 
1
 10 
0.85085
 20 
0.56085
 30 
0.0
 0 
VERTEX
 8 
1
 10 
0.87579
 20 
0.55655
 30 
0.0
 0 
VERTEX
 8 
1
 10 
0.90072
 20 
0.55153
 30 
0.0
 0 
VERTEX
 8 
1
 10 
0.91069
 20 
0.54927
 30 
0.0
 0 
VERTEX
 8 
1
 10 
0.92065
 20 
0.54683
 30 
0.0
 0 
VERTEX
 8 
1
 10 
0.94057
 20 
0.54131
 30 
0.0
 0 
VERTEX
 8 
1
 10 
0.95053
 20 
0.53812
 30 
0.0
 0 
VERTEX
 8 
1
 10 
0.96048
 20 
0.53455
 30 
0.0
 0 
VERTEX
 8 
1
 10 
0.97042
 20 
0.53047
 30 
0.0
 0 
VERTEX
 8 
1
 10 
0.98035
 20 
0.52551
 30 
0.0
 0 
VERTEX
 8 
1
 10 
0.99026
 20 
0.5188
 30 
0.0
 0 
VERTEX
 8 
1
 10 
0.99519
 20 
0.51358
 30 
0.0
 0 
VERTEX
 8 
1
 10 
0.99763
 20 
0.50967
 30 
0.0
 0 
VERTEX
 8 
1
 10 
0.99812
 20 
0.50865
 30 
0.0
 0 
VERTEX
 8 
1
 10 
0.9986
 20 
0.50749
 30 
0.0
 0 
VERTEX
 8 
1
 10 
0.99908
 20 
0.5061
 30 
0.0
 0 
VERTEX
 8 
1
 10 
0.99932
 20 
0.50527
 30 
0.0
 0 
VERTEX
 8 
1
 10 
0.99956
 20 
0.50429
 30 
0.0
 0 
VERTEX
 8 
1
 10 
0.99979
 20 
0.50302
 30 
0.0
 0 
VERTEX
 8 
1
 10 
1
 20 
0.5
 30 
0.0
 0 
VERTEX
 8 
1
 10 
0.99973
 20 
0.4984
 30 
0.0
 0 
VERTEX
 8 
1
 10 
0.99947
 20 
0.49771
 30 
0.0
 0 
VERTEX
 8 
1
 10 
0.99921
 20 
0.49715
 30 
0.0
 0 
VERTEX
 8 
1
 10 
0.99895
 20 
0.49667
 30 
0.0
 0 
VERTEX
 8 
1
 10 
0.99844
 20 
0.49583
 30 
0.0
 0 
VERTEX
 8 
1
 10 
0.99793
 20 
0.49511
 30 
0.0
 0 
VERTEX
 8 
1
 10 
0.99742
 20 
0.49447
 30 
0.0
 0 
VERTEX
 8 
1
 10 
0.99489
 20 
0.49211
 30 
0.0
 0 
VERTEX
 8 
1
 10 
0.98985
 20 
0.48894
 30 
0.0
 0 
VERTEX
 8 
1
 10 
0.97979
 20 
0.48477
 30 
0.0
 0 
VERTEX
 8 
1
 10 
0.96974
 20 
0.48162
 30 
0.0
 0 
VERTEX
 8 
1
 10 
0.95971
 20 
0.47901
 30 
0.0
 0 
VERTEX
 8 
1
 10 
0.94968
 20 
0.47679
 30 
0.0
 0 
VERTEX
 8 
1
 10 
0.93965
 20 
0.47482
 30 
0.0
 0 
VERTEX
 8 
1
 10 
0.9196
 20 
0.47135
 30 
0.0
 0 
VERTEX
 8 
1
 10 
0.90958
 20 
0.46979
 30 
0.0
 0 
VERTEX
 8 
1
 10 
0.89956
 20 
0.46832
 30 
0.0
 0 
VERTEX
 8 
1
 10 
0.87452
 20 
0.46501
 30 
0.0
 0 
VERTEX
 8 
1
 10 
0.84948
 20 
0.46212
 30 
0.0
 0 
VERTEX
 8 
1
 10 
0.82444
 20 
0.45961
 30 
0.0
 0 
VERTEX
 8 
1
 10 
0.79941
 20 
0.45743
 30 
0.0
 0 
VERTEX
 8 
1
 10 
0.77438
 20 
0.4555
 30 
0.0
 0 
VERTEX
 8 
1
 10 
0.74936
 20 
0.45377
 30 
0.0
 0 
VERTEX
 8 
1
 10 
0.72434
 20 
0.45225
 30 
0.0
 0 
VERTEX
 8 
1
 10 
0.69932
 20 
0.45091
 30 
0.0
 0 
VERTEX
 8 
1
 10 
0.6743
 20 
0.44975
 30 
0.0
 0 
VERTEX
 8 
1
 10 
0.64929
 20 
0.44877
 30 
0.0
 0 
VERTEX
 8 
1
 10 
0.62428
 20 
0.44799
 30 
0.0
 0 
VERTEX
 8 
1
 10 
0.59927
 20 
0.4474
 30 
0.0
 0 
VERTEX
 8 
1
 10 
0.57427
 20 
0.44699
 30 
0.0
 0 
VERTEX
 8 
1
 10 
0.54927
 20 
0.44679
 30 
0.0
 0 
VERTEX
 8 
1
 10 
0.52427
 20 
0.4468
 30 
0.0
 0 
VERTEX
 8 
1
 10 
0.49927
 20 
0.44697
 30 
0.0
 0 
VERTEX
 8 
1
 10 
0.47427
 20 
0.44728
 30 
0.0
 0 
VERTEX
 8 
1
 10 
0.44928
 20 
0.44785
 30 
0.0
 0 
VERTEX
 8 
1
 10 
0.42429
 20 
0.44867
 30 
0.0
 0 
VERTEX
 8 
1
 10 
0.39931
 20 
0.44978
 30 
0.0
 0 
VERTEX
 8 
1
 10 
0.37433
 20 
0.45121
 30 
0.0
 0 
VERTEX
 8 
1
 10 
0.34935
 20 
0.4531
 30 
0.0
 0 
VERTEX
 8 
1
 10 
0.32439
 20 
0.45554
 30 
0.0
 0 
VERTEX
 8 
1
 10 
0.3194
 20 
0.4561
 30 
0.0
 0 
VERTEX
 8 
1
 10 
0.29943
 20 
0.4588
 30 
0.0
 0 
VERTEX
 8 
1
 10 
0.2745
 20 
0.46373
 30 
0.0
 0 
VERTEX
 8 
1
 10 
0.24958
 20 
0.46936
 30 
0.0
 0 
VERTEX
 8 
1
 10 
0.22465
 20 
0.47402
 30 
0.0
 0 
VERTEX
 8 
1
 10 
0.21966
 20 
0.47485
 30 
0.0
 0 
VERTEX
 8 
1
 10 
0.1997
 20 
0.47799
 30 
0.0
 0 
VERTEX
 8 
1
 10 
0.17974
 20 
0.4809
 30 
0.0
 0 
VERTEX
 8 
1
 10 
0.17475
 20 
0.48159
 30 
0.0
 0 
VERTEX
 8 
1
 10 
0.1498
 20 
0.48486
 30 
0.0
 0 
VERTEX
 8 
1
 10 
0.12484
 20 
0.48783
 30 
0.0
 0 
VERTEX
 8 
1
 10 
0.09988
 20 
0.49062
 30 
0.0
 0 
VERTEX
 8 
1
 10 
0.07991
 20 
0.49276
 30 
0.0
 0 
VERTEX
 8 
1
 10 
0.07492
 20 
0.49327
 30 
0.0
 0 
VERTEX
 8 
1
 10 
0.049950
 20 
0.49568
 30 
0.0
 0 
VERTEX
 8 
1
 10 
0.02498
 20 
0.49771
 30 
0.0
 0 
VERTEX
 8 
1
 10 
0.01998
 20 
0.49807
 30 
0.0
 0 
VERTEX
 8 
1
 10 
0.0099900
 20 
0.49872
 30 
0.0
 0 
VERTEX
 8 
1
 10 
0.0
 20 
0.49933
 30 
0.0
 0 
SEQEND
 8 
1
 0 
ENDSEC
 0 
EOF
