 0 
SECTION
 2 
ENTITIES
 0 
POLYLINE
 8 
1
 66 
 1 
 10 
0.0
 20 
0.0
 30 
0.0
 0 
VERTEX
 8 
1
 10 
0.0
 20 
0.5
 30 
0.0
 0 
VERTEX
 8 
1
 10 
0.0027399
 20 
0.50043
 30 
0.0
 0 
VERTEX
 8 
1
 10 
0.01093
 20 
0.50169
 30 
0.0
 0 
VERTEX
 8 
1
 10 
0.02447
 20 
0.50377
 30 
0.0
 0 
VERTEX
 8 
1
 10 
0.04323
 20 
0.50659
 30 
0.0
 0 
VERTEX
 8 
1
 10 
0.06699
 20 
0.51009
 30 
0.0
 0 
VERTEX
 8 
1
 10 
0.09549
 20 
0.51416
 30 
0.0
 0 
VERTEX
 8 
1
 10 
0.12843
 20 
0.5187
 30 
0.0
 0 
VERTEX
 8 
1
 10 
0.16543
 20 
0.52357
 30 
0.0
 0 
VERTEX
 8 
1
 10 
0.20611
 20 
0.52864
 30 
0.0
 0 
VERTEX
 8 
1
 10 
0.25
 20 
0.53377
 30 
0.0
 0 
VERTEX
 8 
1
 10 
0.29663
 20 
0.5388
 30 
0.0
 0 
VERTEX
 8 
1
 10 
0.34549
 20 
0.54359
 30 
0.0
 0 
VERTEX
 8 
1
 10 
0.39604
 20 
0.548
 30 
0.0
 0 
VERTEX
 8 
1
 10 
0.44774
 20 
0.55189
 30 
0.0
 0 
VERTEX
 8 
1
 10 
0.5
 20 
0.55514
 30 
0.0
 0 
VERTEX
 8 
1
 10 
0.55226
 20 
0.55763
 30 
0.0
 0 
VERTEX
 8 
1
 10 
0.60396
 20 
0.55928
 30 
0.0
 0 
VERTEX
 8 
1
 10 
0.65451
 20 
0.56
 30 
0.0
 0 
VERTEX
 8 
1
 10 
0.70337
 20 
0.55975
 30 
0.0
 0 
VERTEX
 8 
1
 10 
0.75
 20 
0.55849
 30 
0.0
 0 
VERTEX
 8 
1
 10 
0.79389
 20 
0.55621
 30 
0.0
 0 
VERTEX
 8 
1
 10 
0.83456
 20 
0.55294
 30 
0.0
 0 
VERTEX
 8 
1
 10 
0.87157
 20 
0.54871
 30 
0.0
 0 
VERTEX
 8 
1
 10 
0.90451
 20 
0.54359
 30 
0.0
 0 
VERTEX
 8 
1
 10 
0.93301
 20 
0.53766
 30 
0.0
 0 
VERTEX
 8 
1
 10 
0.95677
 20 
0.53102
 30 
0.0
 0 
VERTEX
 8 
1
 10 
0.97553
 20 
0.5238
 30 
0.0
 0 
VERTEX
 8 
1
 10 
0.98907
 20 
0.51612
 30 
0.0
 0 
VERTEX
 8 
1
 10 
0.99726
 20 
0.50814
 30 
0.0
 0 
VERTEX
 8 
1
 10 
1
 20 
0.5
 30 
0.0
 0 
VERTEX
 8 
1
 10 
0.99726
 20 
0.49186
 30 
0.0
 0 
VERTEX
 8 
1
 10 
0.98907
 20 
0.48388
 30 
0.0
 0 
VERTEX
 8 
1
 10 
0.97553
 20 
0.4762
 30 
0.0
 0 
VERTEX
 8 
1
 10 
0.95677
 20 
0.46898
 30 
0.0
 0 
VERTEX
 8 
1
 10 
0.93301
 20 
0.46234
 30 
0.0
 0 
VERTEX
 8 
1
 10 
0.90451
 20 
0.45641
 30 
0.0
 0 
VERTEX
 8 
1
 10 
0.87157
 20 
0.45129
 30 
0.0
 0 
VERTEX
 8 
1
 10 
0.83457
 20 
0.44706
 30 
0.0
 0 
VERTEX
 8 
1
 10 
0.79389
 20 
0.44379
 30 
0.0
 0 
VERTEX
 8 
1
 10 
0.75
 20 
0.44151
 30 
0.0
 0 
VERTEX
 8 
1
 10 
0.70337
 20 
0.44025
 30 
0.0
 0 
VERTEX
 8 
1
 10 
0.65451
 20 
0.44
 30 
0.0
 0 
VERTEX
 8 
1
 10 
0.60396
 20 
0.44072
 30 
0.0
 0 
VERTEX
 8 
1
 10 
0.55226
 20 
0.44237
 30 
0.0
 0 
VERTEX
 8 
1
 10 
0.5
 20 
0.44486
 30 
0.0
 0 
VERTEX
 8 
1
 10 
0.44774
 20 
0.44811
 30 
0.0
 0 
VERTEX
 8 
1
 10 
0.39604
 20 
0.452
 30 
0.0
 0 
VERTEX
 8 
1
 10 
0.34549
 20 
0.45641
 30 
0.0
 0 
VERTEX
 8 
1
 10 
0.29663
 20 
0.4612
 30 
0.0
 0 
VERTEX
 8 
1
 10 
0.25
 20 
0.46623
 30 
0.0
 0 
VERTEX
 8 
1
 10 
0.20611
 20 
0.47136
 30 
0.0
 0 
VERTEX
 8 
1
 10 
0.16544
 20 
0.47643
 30 
0.0
 0 
VERTEX
 8 
1
 10 
0.12843
 20 
0.4813
 30 
0.0
 0 
VERTEX
 8 
1
 10 
0.09549
 20 
0.48584
 30 
0.0
 0 
VERTEX
 8 
1
 10 
0.06699
 20 
0.48991
 30 
0.0
 0 
VERTEX
 8 
1
 10 
0.04323
 20 
0.49341
 30 
0.0
 0 
VERTEX
 8 
1
 10 
0.02447
 20 
0.49623
 30 
0.0
 0 
VERTEX
 8 
1
 10 
0.01093
 20 
0.49831
 30 
0.0
 0 
VERTEX
 8 
1
 10 
0.0027399
 20 
0.49957
 30 
0.0
 0 
VERTEX
 8 
1
 10 
0.0
 20 
0.5
 30 
0.0
 0 
SEQEND
 8 
1
 0 
ENDSEC
 0 
EOF
