 0 
SECTION
 2 
ENTITIES
 0 
POLYLINE
 8 
1
 66 
 1 
 10 
0.0
 20 
0.0
 30 
0.0
 0 
VERTEX
 8 
1
 10 
0.0
 20 
0.5
 30 
0.0
 0 
VERTEX
 8 
1
 10 
0.05
 20 
0.51043
 30 
0.0
 0 
VERTEX
 8 
1
 10 
0.1
 20 
0.52009
 30 
0.0
 0 
VERTEX
 8 
1
 10 
0.15
 20 
0.52931
 30 
0.0
 0 
VERTEX
 8 
1
 10 
0.2
 20 
0.53842
 30 
0.0
 0 
VERTEX
 8 
1
 10 
0.25
 20 
0.5467
 30 
0.0
 0 
VERTEX
 8 
1
 10 
0.3
 20 
0.55476
 30 
0.0
 0 
VERTEX
 8 
1
 10 
0.35
 20 
0.5617
 30 
0.0
 0 
VERTEX
 8 
1
 10 
0.4
 20 
0.56895
 30 
0.0
 0 
VERTEX
 8 
1
 10 
0.45
 20 
0.57485
 30 
0.0
 0 
VERTEX
 8 
1
 10 
0.5
 20 
0.57966
 30 
0.0
 0 
VERTEX
 8 
1
 10 
0.55
 20 
0.58347
 30 
0.0
 0 
VERTEX
 8 
1
 10 
0.6
 20 
0.58618
 30 
0.0
 0 
VERTEX
 8 
1
 10 
0.65
 20 
0.58702
 30 
0.0
 0 
VERTEX
 8 
1
 10 
0.7
 20 
0.58595
 30 
0.0
 0 
VERTEX
 8 
1
 10 
0.75
 20 
0.5831
 30 
0.0
 0 
VERTEX
 8 
1
 10 
0.8
 20 
0.57776
 30 
0.0
 0 
VERTEX
 8 
1
 10 
0.85
 20 
0.56966
 30 
0.0
 0 
VERTEX
 8 
1
 10 
0.9
 20 
0.55748
 30 
0.0
 0 
VERTEX
 8 
1
 10 
0.92
 20 
0.5513
 30 
0.0
 0 
VERTEX
 8 
1
 10 
0.94
 20 
0.54412
 30 
0.0
 0 
VERTEX
 8 
1
 10 
0.96
 20 
0.53498
 30 
0.0
 0 
VERTEX
 8 
1
 10 
0.98
 20 
0.52327
 30 
0.0
 0 
VERTEX
 8 
1
 10 
0.99
 20 
0.51563
 30 
0.0
 0 
VERTEX
 8 
1
 10 
1
 20 
0.5
 30 
0.0
 0 
VERTEX
 8 
1
 10 
0.99
 20 
0.48964
 30 
0.0
 0 
VERTEX
 8 
1
 10 
0.98
 20 
0.48715
 30 
0.0
 0 
VERTEX
 8 
1
 10 
0.96
 20 
0.48365
 30 
0.0
 0 
VERTEX
 8 
1
 10 
0.94
 20 
0.48104
 30 
0.0
 0 
VERTEX
 8 
1
 10 
0.92
 20 
0.47955
 30 
0.0
 0 
VERTEX
 8 
1
 10 
0.9
 20 
0.47831
 30 
0.0
 0 
VERTEX
 8 
1
 10 
0.85
 20 
0.47613
 30 
0.0
 0 
VERTEX
 8 
1
 10 
0.8
 20 
0.47508
 30 
0.0
 0 
VERTEX
 8 
1
 10 
0.75
 20 
0.47532
 30 
0.0
 0 
VERTEX
 8 
1
 10 
0.7
 20 
0.47595
 30 
0.0
 0 
VERTEX
 8 
1
 10 
0.65
 20 
0.4774
 30 
0.0
 0 
VERTEX
 8 
1
 10 
0.6
 20 
0.47887
 30 
0.0
 0 
VERTEX
 8 
1
 10 
0.55
 20 
0.48117
 30 
0.0
 0 
VERTEX
 8 
1
 10 
0.5
 20 
0.48392
 30 
0.0
 0 
VERTEX
 8 
1
 10 
0.45
 20 
0.48673
 30 
0.0
 0 
VERTEX
 8 
1
 10 
0.4
 20 
0.48947
 30 
0.0
 0 
VERTEX
 8 
1
 10 
0.35
 20 
0.49188
 30 
0.0
 0 
VERTEX
 8 
1
 10 
0.3
 20 
0.49408
 30 
0.0
 0 
VERTEX
 8 
1
 10 
0.25
 20 
0.49604
 30 
0.0
 0 
VERTEX
 8 
1
 10 
0.2
 20 
0.49768
 30 
0.0
 0 
VERTEX
 8 
1
 10 
0.15
 20 
0.49879
 30 
0.0
 0 
VERTEX
 8 
1
 10 
0.1
 20 
0.49949
 30 
0.0
 0 
VERTEX
 8 
1
 10 
0.05
 20 
0.49946
 30 
0.0
 0 
VERTEX
 8 
1
 10 
0.0
 20 
0.5
 30 
0.0
 0 
SEQEND
 8 
1
 0 
ENDSEC
 0 
EOF
