 0 
SECTION
 2 
ENTITIES
 0 
POLYLINE
 8 
1
 66 
 1 
 10 
0.0
 20 
0.0
 30 
0.0
 0 
VERTEX
 8 
1
 10 
0.0
 20 
0.5
 30 
0.0
 0 
VERTEX
 8 
1
 10 
0.05
 20 
0.50726
 30 
0.0
 0 
VERTEX
 8 
1
 10 
0.1
 20 
0.51452
 30 
0.0
 0 
VERTEX
 8 
1
 10 
0.15
 20 
0.52178
 30 
0.0
 0 
VERTEX
 8 
1
 10 
0.2
 20 
0.52904
 30 
0.0
 0 
VERTEX
 8 
1
 10 
0.25
 20 
0.53605
 30 
0.0
 0 
VERTEX
 8 
1
 10 
0.3
 20 
0.54267
 30 
0.0
 0 
VERTEX
 8 
1
 10 
0.35
 20 
0.5488
 30 
0.0
 0 
VERTEX
 8 
1
 10 
0.4
 20 
0.55412
 30 
0.0
 0 
VERTEX
 8 
1
 10 
0.45
 20 
0.5585
 30 
0.0
 0 
VERTEX
 8 
1
 10 
0.5
 20 
0.56178
 30 
0.0
 0 
VERTEX
 8 
1
 10 
0.55
 20 
0.5637
 30 
0.0
 0 
VERTEX
 8 
1
 10 
0.6
 20 
0.56449
 30 
0.0
 0 
VERTEX
 8 
1
 10 
0.65
 20 
0.5643
 30 
0.0
 0 
VERTEX
 8 
1
 10 
0.7
 20 
0.5628
 30 
0.0
 0 
VERTEX
 8 
1
 10 
0.75
 20 
0.5605
 30 
0.0
 0 
VERTEX
 8 
1
 10 
0.8
 20 
0.55704
 30 
0.0
 0 
VERTEX
 8 
1
 10 
0.85
 20 
0.5521
 30 
0.0
 0 
VERTEX
 8 
1
 10 
0.9
 20 
0.54423
 30 
0.0
 0 
VERTEX
 8 
1
 10 
0.925
 20 
0.53857
 30 
0.0
 0 
VERTEX
 8 
1
 10 
0.95
 20 
0.5313
 30 
0.0
 0 
VERTEX
 8 
1
 10 
0.975
 20 
0.5216
 30 
0.0
 0 
VERTEX
 8 
1
 10 
0.9875
 20 
0.51519
 30 
0.0
 0 
VERTEX
 8 
1
 10 
0.9925
 20 
0.51198
 30 
0.0
 0 
VERTEX
 8 
1
 10 
0.995
 20 
0.50997
 30 
0.0
 0 
VERTEX
 8 
1
 10 
1
 20 
0.50306
 30 
0.0
 0 
VERTEX
 8 
1
 10 
0.995
 20 
0.49535
 30 
0.0
 0 
VERTEX
 8 
1
 10 
0.9925
 20 
0.49442
 30 
0.0
 0 
VERTEX
 8 
1
 10 
0.9875
 20 
0.49343
 30 
0.0
 0 
VERTEX
 8 
1
 10 
0.975
 20 
0.4925
 30 
0.0
 0 
VERTEX
 8 
1
 10 
0.95
 20 
0.49105
 30 
0.0
 0 
VERTEX
 8 
1
 10 
0.925
 20 
0.48959
 30 
0.0
 0 
VERTEX
 8 
1
 10 
0.9
 20 
0.48813
 30 
0.0
 0 
VERTEX
 8 
1
 10 
0.85
 20 
0.48521
 30 
0.0
 0 
VERTEX
 8 
1
 10 
0.8
 20 
0.4823
 30 
0.0
 0 
VERTEX
 8 
1
 10 
0.75
 20 
0.47941
 30 
0.0
 0 
VERTEX
 8 
1
 10 
0.7
 20 
0.47725
 30 
0.0
 0 
VERTEX
 8 
1
 10 
0.65
 20 
0.47555
 30 
0.0
 0 
VERTEX
 8 
1
 10 
0.6
 20 
0.47457
 30 
0.0
 0 
VERTEX
 8 
1
 10 
0.55
 20 
0.47432
 30 
0.0
 0 
VERTEX
 8 
1
 10 
0.5
 20 
0.47499
 30 
0.0
 0 
VERTEX
 8 
1
 10 
0.45
 20 
0.4767
 30 
0.0
 0 
VERTEX
 8 
1
 10 
0.4
 20 
0.47922
 30 
0.0
 0 
VERTEX
 8 
1
 10 
0.35
 20 
0.48182
 30 
0.0
 0 
VERTEX
 8 
1
 10 
0.3
 20 
0.48442
 30 
0.0
 0 
VERTEX
 8 
1
 10 
0.25
 20 
0.48701
 30 
0.0
 0 
VERTEX
 8 
1
 10 
0.2
 20 
0.48961
 30 
0.0
 0 
VERTEX
 8 
1
 10 
0.15
 20 
0.49225
 30 
0.0
 0 
VERTEX
 8 
1
 10 
0.1
 20 
0.4948
 30 
0.0
 0 
VERTEX
 8 
1
 10 
0.05
 20 
0.4974
 30 
0.0
 0 
VERTEX
 8 
1
 10 
0.0
 20 
0.5
 30 
0.0
 0 
SEQEND
 8 
1
 0 
ENDSEC
 0 
EOF
