 0 
SECTION
 2 
ENTITIES
 0 
POLYLINE
 8 
1
 66 
 1 
 10 
0.0
 20 
0.0
 30 
0.0
 0 
VERTEX
 8 
1
 10 
0.0
 20 
0.5
 30 
0.0
 0 
VERTEX
 8 
1
 10 
0.05
 20 
0.50732
 30 
0.0
 0 
VERTEX
 8 
1
 10 
0.1
 20 
0.51465
 30 
0.0
 0 
VERTEX
 8 
1
 10 
0.15
 20 
0.52197
 30 
0.0
 0 
VERTEX
 8 
1
 10 
0.2
 20 
0.52929
 30 
0.0
 0 
VERTEX
 8 
1
 10 
0.25
 20 
0.53687
 30 
0.0
 0 
VERTEX
 8 
1
 10 
0.3
 20 
0.5438
 30 
0.0
 0 
VERTEX
 8 
1
 10 
0.35
 20 
0.55049
 30 
0.0
 0 
VERTEX
 8 
1
 10 
0.4
 20 
0.55643
 30 
0.0
 0 
VERTEX
 8 
1
 10 
0.45
 20 
0.56136
 30 
0.0
 0 
VERTEX
 8 
1
 10 
0.5
 20 
0.56509
 30 
0.0
 0 
VERTEX
 8 
1
 10 
0.55
 20 
0.56736
 30 
0.0
 0 
VERTEX
 8 
1
 10 
0.6
 20 
0.56829
 30 
0.0
 0 
VERTEX
 8 
1
 10 
0.65
 20 
0.56805
 30 
0.0
 0 
VERTEX
 8 
1
 10 
0.7
 20 
0.56666
 30 
0.0
 0 
VERTEX
 8 
1
 10 
0.75
 20 
0.56422
 30 
0.0
 0 
VERTEX
 8 
1
 10 
0.8
 20 
0.56047
 30 
0.0
 0 
VERTEX
 8 
1
 10 
0.85
 20 
0.5553
 30 
0.0
 0 
VERTEX
 8 
1
 10 
0.9
 20 
0.54699
 30 
0.0
 0 
VERTEX
 8 
1
 10 
0.925
 20 
0.54114
 30 
0.0
 0 
VERTEX
 8 
1
 10 
0.95
 20 
0.5336
 30 
0.0
 0 
VERTEX
 8 
1
 10 
0.975
 20 
0.5235
 30 
0.0
 0 
VERTEX
 8 
1
 10 
0.9875
 20 
0.51687
 30 
0.0
 0 
VERTEX
 8 
1
 10 
0.9925
 20 
0.5134
 30 
0.0
 0 
VERTEX
 8 
1
 10 
0.995
 20 
0.51123
 30 
0.0
 0 
VERTEX
 8 
1
 10 
1
 20 
0.50374
 30 
0.0
 0 
VERTEX
 8 
1
 10 
0.995
 20 
0.4943
 30 
0.0
 0 
VERTEX
 8 
1
 10 
0.9925
 20 
0.49316
 30 
0.0
 0 
VERTEX
 8 
1
 10 
0.9875
 20 
0.49163
 30 
0.0
 0 
VERTEX
 8 
1
 10 
0.975
 20 
0.48947
 30 
0.0
 0 
VERTEX
 8 
1
 10 
0.95
 20 
0.48693
 30 
0.0
 0 
VERTEX
 8 
1
 10 
0.925
 20 
0.48456
 30 
0.0
 0 
VERTEX
 8 
1
 10 
0.9
 20 
0.48213
 30 
0.0
 0 
VERTEX
 8 
1
 10 
0.85
 20 
0.47735
 30 
0.0
 0 
VERTEX
 8 
1
 10 
0.8
 20 
0.47269
 30 
0.0
 0 
VERTEX
 8 
1
 10 
0.75
 20 
0.46882
 30 
0.0
 0 
VERTEX
 8 
1
 10 
0.7
 20 
0.46575
 30 
0.0
 0 
VERTEX
 8 
1
 10 
0.65
 20 
0.46358
 30 
0.0
 0 
VERTEX
 8 
1
 10 
0.6
 20 
0.46237
 30 
0.0
 0 
VERTEX
 8 
1
 10 
0.55
 20 
0.46218
 30 
0.0
 0 
VERTEX
 8 
1
 10 
0.5
 20 
0.46304
 30 
0.0
 0 
VERTEX
 8 
1
 10 
0.45
 20 
0.46513
 30 
0.0
 0 
VERTEX
 8 
1
 10 
0.4
 20 
0.46826
 30 
0.0
 0 
VERTEX
 8 
1
 10 
0.35
 20 
0.47213
 30 
0.0
 0 
VERTEX
 8 
1
 10 
0.3
 20 
0.47611
 30 
0.0
 0 
VERTEX
 8 
1
 10 
0.25
 20 
0.48009
 30 
0.0
 0 
VERTEX
 8 
1
 10 
0.2
 20 
0.48407
 30 
0.0
 0 
VERTEX
 8 
1
 10 
0.15
 20 
0.48806
 30 
0.0
 0 
VERTEX
 8 
1
 10 
0.1
 20 
0.49204
 30 
0.0
 0 
VERTEX
 8 
1
 10 
0.05
 20 
0.49602
 30 
0.0
 0 
VERTEX
 8 
1
 10 
0.0
 20 
0.5
 30 
0.0
 0 
SEQEND
 8 
1
 0 
ENDSEC
 0 
EOF
