 0 
SECTION
 2 
ENTITIES
 0 
POLYLINE
 8 
1
 66 
 1 
 10 
0.0
 20 
0.0
 30 
0.0
 0 
VERTEX
 8 
1
 10 
0.0
 20 
0.5
 30 
0.0
 0 
VERTEX
 8 
1
 10 
0.0010700
 20 
0.50259
 30 
0.0
 0 
VERTEX
 8 
1
 10 
0.0041200
 20 
0.50614
 30 
0.0
 0 
VERTEX
 8 
1
 10 
0.0091599
 20 
0.5103
 30 
0.0
 0 
VERTEX
 8 
1
 10 
0.01615
 20 
0.51477
 30 
0.0
 0 
VERTEX
 8 
1
 10 
0.02506
 20 
0.51981
 30 
0.0
 0 
VERTEX
 8 
1
 10 
0.03586
 20 
0.52522
 30 
0.0
 0 
VERTEX
 8 
1
 10 
0.048510
 20 
0.53099
 30 
0.0
 0 
VERTEX
 8 
1
 10 
0.06295
 20 
0.5371
 30 
0.0
 0 
VERTEX
 8 
1
 10 
0.07913
 20 
0.54349
 30 
0.0
 0 
VERTEX
 8 
1
 10 
0.09697
 20 
0.55018
 30 
0.0
 0 
VERTEX
 8 
1
 10 
0.11643
 20 
0.55713
 30 
0.0
 0 
VERTEX
 8 
1
 10 
0.13742
 20 
0.56434
 30 
0.0
 0 
VERTEX
 8 
1
 10 
0.15985
 20 
0.57182
 30 
0.0
 0 
VERTEX
 8 
1
 10 
0.18364
 20 
0.57954
 30 
0.0
 0 
VERTEX
 8 
1
 10 
0.2087
 20 
0.58752
 30 
0.0
 0 
VERTEX
 8 
1
 10 
0.23492
 20 
0.59576
 30 
0.0
 0 
VERTEX
 8 
1
 10 
0.2622
 20 
0.60424
 30 
0.0
 0 
VERTEX
 8 
1
 10 
0.29045
 20 
0.61294
 30 
0.0
 0 
VERTEX
 8 
1
 10 
0.31954
 20 
0.6219
 30 
0.0
 0 
VERTEX
 8 
1
 10 
0.34936
 20 
0.63108
 30 
0.0
 0 
VERTEX
 8 
1
 10 
0.37981
 20 
0.64047
 30 
0.0
 0 
VERTEX
 8 
1
 10 
0.41074
 20 
0.65007
 30 
0.0
 0 
VERTEX
 8 
1
 10 
0.44205
 20 
0.65985
 30 
0.0
 0 
VERTEX
 8 
1
 10 
0.47362
 20 
0.66976
 30 
0.0
 0 
VERTEX
 8 
1
 10 
0.50531
 20 
0.67977
 30 
0.0
 0 
VERTEX
 8 
1
 10 
0.53701
 20 
0.68976
 30 
0.0
 0 
VERTEX
 8 
1
 10 
0.56856
 20 
0.69949
 30 
0.0
 0 
VERTEX
 8 
1
 10 
0.59985
 20 
0.70838
 30 
0.0
 0 
VERTEX
 8 
1
 10 
0.63067
 20 
0.71389
 30 
0.0
 0 
VERTEX
 8 
1
 10 
0.66088
 20 
0.71553
 30 
0.0
 0 
VERTEX
 8 
1
 10 
0.6904
 20 
0.71456
 30 
0.0
 0 
VERTEX
 8 
1
 10 
0.71913
 20 
0.71109
 30 
0.0
 0 
VERTEX
 8 
1
 10 
0.74696
 20 
0.70565
 30 
0.0
 0 
VERTEX
 8 
1
 10 
0.77378
 20 
0.69856
 30 
0.0
 0 
VERTEX
 8 
1
 10 
0.79951
 20 
0.69006
 30 
0.0
 0 
VERTEX
 8 
1
 10 
0.82404
 20 
0.68033
 30 
0.0
 0 
VERTEX
 8 
1
 10 
0.84728
 20 
0.66955
 30 
0.0
 0 
VERTEX
 8 
1
 10 
0.86914
 20 
0.65784
 30 
0.0
 0 
VERTEX
 8 
1
 10 
0.88955
 20 
0.64536
 30 
0.0
 0 
VERTEX
 8 
1
 10 
0.90842
 20 
0.63226
 30 
0.0
 0 
VERTEX
 8 
1
 10 
0.92567
 20 
0.61867
 30 
0.0
 0 
VERTEX
 8 
1
 10 
0.94124
 20 
0.60474
 30 
0.0
 0 
VERTEX
 8 
1
 10 
0.95509
 20 
0.59062
 30 
0.0
 0 
VERTEX
 8 
1
 10 
0.96715
 20 
0.57646
 30 
0.0
 0 
VERTEX
 8 
1
 10 
0.97737
 20 
0.56243
 30 
0.0
 0 
VERTEX
 8 
1
 10 
0.98573
 20 
0.54865
 30 
0.0
 0 
VERTEX
 8 
1
 10 
0.99219
 20 
0.53541
 30 
0.0
 0 
VERTEX
 8 
1
 10 
0.99673
 20 
0.52268
 30 
0.0
 0 
VERTEX
 8 
1
 10 
0.99931
 20 
0.51008
 30 
0.0
 0 
VERTEX
 8 
1
 10 
1
 20 
0.5
 30 
0.0
 0 
VERTEX
 8 
1
 10 
0.9986
 20 
0.4862
 30 
0.0
 0 
VERTEX
 8 
1
 10 
0.99522
 20 
0.47173
 30 
0.0
 0 
VERTEX
 8 
1
 10 
0.98991
 20 
0.45832
 30 
0.0
 0 
VERTEX
 8 
1
 10 
0.98277
 20 
0.44844
 30 
0.0
 0 
VERTEX
 8 
1
 10 
0.97381
 20 
0.44183
 30 
0.0
 0 
VERTEX
 8 
1
 10 
0.96306
 20 
0.43792
 30 
0.0
 0 
VERTEX
 8 
1
 10 
0.95049
 20 
0.43517
 30 
0.0
 0 
VERTEX
 8 
1
 10 
0.93617
 20 
0.43302
 30 
0.0
 0 
VERTEX
 8 
1
 10 
0.92013
 20 
0.43123
 30 
0.0
 0 
VERTEX
 8 
1
 10 
0.90244
 20 
0.42986
 30 
0.0
 0 
VERTEX
 8 
1
 10 
0.88316
 20 
0.42896
 30 
0.0
 0 
VERTEX
 8 
1
 10 
0.86237
 20 
0.42847
 30 
0.0
 0 
VERTEX
 8 
1
 10 
0.84015
 20 
0.42839
 30 
0.0
 0 
VERTEX
 8 
1
 10 
0.8166
 20 
0.42873
 30 
0.0
 0 
VERTEX
 8 
1
 10 
0.79181
 20 
0.42948
 30 
0.0
 0 
VERTEX
 8 
1
 10 
0.76586
 20 
0.43062
 30 
0.0
 0 
VERTEX
 8 
1
 10 
0.73887
 20 
0.43209
 30 
0.0
 0 
VERTEX
 8 
1
 10 
0.71094
 20 
0.43387
 30 
0.0
 0 
VERTEX
 8 
1
 10 
0.68217
 20 
0.43594
 30 
0.0
 0 
VERTEX
 8 
1
 10 
0.65269
 20 
0.43825
 30 
0.0
 0 
VERTEX
 8 
1
 10 
0.6226
 20 
0.44082
 30 
0.0
 0 
VERTEX
 8 
1
 10 
0.59203
 20 
0.4437
 30 
0.0
 0 
VERTEX
 8 
1
 10 
0.5611
 20 
0.44695
 30 
0.0
 0 
VERTEX
 8 
1
 10 
0.52994
 20 
0.45067
 30 
0.0
 0 
VERTEX
 8 
1
 10 
0.49867
 20 
0.45497
 30 
0.0
 0 
VERTEX
 8 
1
 10 
0.46742
 20 
0.45992
 30 
0.0
 0 
VERTEX
 8 
1
 10 
0.43631
 20 
0.46556
 30 
0.0
 0 
VERTEX
 8 
1
 10 
0.40548
 20 
0.47188
 30 
0.0
 0 
VERTEX
 8 
1
 10 
0.37503
 20 
0.47881
 30 
0.0
 0 
VERTEX
 8 
1
 10 
0.34508
 20 
0.48606
 30 
0.0
 0 
VERTEX
 8 
1
 10 
0.31574
 20 
0.49333
 30 
0.0
 0 
VERTEX
 8 
1
 10 
0.28712
 20 
0.50024
 30 
0.0
 0 
VERTEX
 8 
1
 10 
0.25931
 20 
0.5065
 30 
0.0
 0 
VERTEX
 8 
1
 10 
0.23244
 20 
0.51191
 30 
0.0
 0 
VERTEX
 8 
1
 10 
0.20659
 20 
0.51637
 30 
0.0
 0 
VERTEX
 8 
1
 10 
0.18188
 20 
0.51985
 30 
0.0
 0 
VERTEX
 8 
1
 10 
0.15839
 20 
0.52237
 30 
0.0
 0 
VERTEX
 8 
1
 10 
0.13623
 20 
0.52396
 30 
0.0
 0 
VERTEX
 8 
1
 10 
0.11547
 20 
0.52464
 30 
0.0
 0 
VERTEX
 8 
1
 10 
0.09621
 20 
0.52449
 30 
0.0
 0 
VERTEX
 8 
1
 10 
0.078540
 20 
0.52359
 30 
0.0
 0 
VERTEX
 8 
1
 10 
0.0625
 20 
0.52206
 30 
0.0
 0 
VERTEX
 8 
1
 10 
0.04818
 20 
0.51993
 30 
0.0
 0 
VERTEX
 8 
1
 10 
0.03562
 20 
0.51729
 30 
0.0
 0 
VERTEX
 8 
1
 10 
0.02489
 20 
0.51427
 30 
0.0
 0 
VERTEX
 8 
1
 10 
0.016040
 20 
0.51107
 30 
0.0
 0 
VERTEX
 8 
1
 10 
0.0090900
 20 
0.50789
 30 
0.0
 0 
VERTEX
 8 
1
 10 
0.0040799
 20 
0.50473
 30 
0.0
 0 
VERTEX
 8 
1
 10 
0.00105
 20 
0.50216
 30 
0.0
 0 
VERTEX
 8 
1
 10 
0.0
 20 
0.5
 30 
0.0
 0 
SEQEND
 8 
1
 0 
ENDSEC
 0 
EOF
