 0 
SECTION
 2 
ENTITIES
 0 
POLYLINE
 8 
1
 66 
 1 
 10 
0.0
 20 
0.0
 30 
0.0
 0 
VERTEX
 8 
1
 10 
0.0
 20 
0.5
 30 
0.0
 0 
VERTEX
 8 
1
 10 
0.0060599
 20 
0.50304
 30 
0.0
 0 
VERTEX
 8 
1
 10 
0.01385
 20 
0.50588
 30 
0.0
 0 
VERTEX
 8 
1
 10 
0.02333
 20 
0.50898
 30 
0.0
 0 
VERTEX
 8 
1
 10 
0.03448
 20 
0.51241
 30 
0.0
 0 
VERTEX
 8 
1
 10 
0.04726
 20 
0.51616
 30 
0.0
 0 
VERTEX
 8 
1
 10 
0.061610
 20 
0.52026
 30 
0.0
 0 
VERTEX
 8 
1
 10 
0.0775
 20 
0.5247
 30 
0.0
 0 
VERTEX
 8 
1
 10 
0.094860
 20 
0.52949
 30 
0.0
 0 
VERTEX
 8 
1
 10 
0.11363
 20 
0.53463
 30 
0.0
 0 
VERTEX
 8 
1
 10 
0.13375
 20 
0.54011
 30 
0.0
 0 
VERTEX
 8 
1
 10 
0.15514
 20 
0.54594
 30 
0.0
 0 
VERTEX
 8 
1
 10 
0.17774
 20 
0.55209
 30 
0.0
 0 
VERTEX
 8 
1
 10 
0.20146
 20 
0.55854
 30 
0.0
 0 
VERTEX
 8 
1
 10 
0.22621
 20 
0.56529
 30 
0.0
 0 
VERTEX
 8 
1
 10 
0.25191
 20 
0.57229
 30 
0.0
 0 
VERTEX
 8 
1
 10 
0.27848
 20 
0.57999
 30 
0.0
 0 
VERTEX
 8 
1
 10 
0.30581
 20 
0.5868
 30 
0.0
 0 
VERTEX
 8 
1
 10 
0.33381
 20 
0.59406
 30 
0.0
 0 
VERTEX
 8 
1
 10 
0.36238
 20 
0.60109
 30 
0.0
 0 
VERTEX
 8 
1
 10 
0.39142
 20 
0.60764
 30 
0.0
 0 
VERTEX
 8 
1
 10 
0.42083
 20 
0.61357
 30 
0.0
 0 
VERTEX
 8 
1
 10 
0.45051
 20 
0.61877
 30 
0.0
 0 
VERTEX
 8 
1
 10 
0.48035
 20 
0.62318
 30 
0.0
 0 
VERTEX
 8 
1
 10 
0.51024
 20 
0.62674
 30 
0.0
 0 
VERTEX
 8 
1
 10 
0.54008
 20 
0.62944
 30 
0.0
 0 
VERTEX
 8 
1
 10 
0.56977
 20 
0.63122
 30 
0.0
 0 
VERTEX
 8 
1
 10 
0.5992
 20 
0.63209
 30 
0.0
 0 
VERTEX
 8 
1
 10 
0.62827
 20 
0.63207
 30 
0.0
 0 
VERTEX
 8 
1
 10 
0.65687
 20 
0.63118
 30 
0.0
 0 
VERTEX
 8 
1
 10 
0.68491
 20 
0.62943
 30 
0.0
 0 
VERTEX
 8 
1
 10 
0.71228
 20 
0.62685
 30 
0.0
 0 
VERTEX
 8 
1
 10 
0.73889
 20 
0.62342
 30 
0.0
 0 
VERTEX
 8 
1
 10 
0.76465
 20 
0.61923
 30 
0.0
 0 
VERTEX
 8 
1
 10 
0.78946
 20 
0.61439
 30 
0.0
 0 
VERTEX
 8 
1
 10 
0.81324
 20 
0.60897
 30 
0.0
 0 
VERTEX
 8 
1
 10 
0.83591
 20 
0.60305
 30 
0.0
 0 
VERTEX
 8 
1
 10 
0.85737
 20 
0.59669
 30 
0.0
 0 
VERTEX
 8 
1
 10 
0.87757
 20 
0.58996
 30 
0.0
 0 
VERTEX
 8 
1
 10 
0.89642
 20 
0.58292
 30 
0.0
 0 
VERTEX
 8 
1
 10 
0.91386
 20 
0.57564
 30 
0.0
 0 
VERTEX
 8 
1
 10 
0.92984
 20 
0.56819
 30 
0.0
 0 
VERTEX
 8 
1
 10 
0.94428
 20 
0.56064
 30 
0.0
 0 
VERTEX
 8 
1
 10 
0.95715
 20 
0.55305
 30 
0.0
 0 
VERTEX
 8 
1
 10 
0.9684
 20 
0.54549
 30 
0.0
 0 
VERTEX
 8 
1
 10 
0.97799
 20 
0.53803
 30 
0.0
 0 
VERTEX
 8 
1
 10 
0.98587
 20 
0.53068
 30 
0.0
 0 
VERTEX
 8 
1
 10 
0.99204
 20 
0.52334
 30 
0.0
 0 
VERTEX
 8 
1
 10 
0.99646
 20 
0.51584
 30 
0.0
 0 
VERTEX
 8 
1
 10 
0.99911
 20 
0.506
 30 
0.0
 0 
VERTEX
 8 
1
 10 
1
 20 
0.5
 30 
0.0
 0 
VERTEX
 8 
1
 10 
0.99911
 20 
0.49198
 30 
0.0
 0 
VERTEX
 8 
1
 10 
0.99646
 20 
0.48486
 30 
0.0
 0 
VERTEX
 8 
1
 10 
0.99204
 20 
0.47846
 30 
0.0
 0 
VERTEX
 8 
1
 10 
0.98587
 20 
0.47348
 30 
0.0
 0 
VERTEX
 8 
1
 10 
0.97799
 20 
0.47036
 30 
0.0
 0 
VERTEX
 8 
1
 10 
0.9684
 20 
0.46868
 30 
0.0
 0 
VERTEX
 8 
1
 10 
0.95715
 20 
0.46779
 30 
0.0
 0 
VERTEX
 8 
1
 10 
0.94428
 20 
0.46732
 30 
0.0
 0 
VERTEX
 8 
1
 10 
0.92984
 20 
0.46713
 30 
0.0
 0 
VERTEX
 8 
1
 10 
0.91386
 20 
0.46734
 30 
0.0
 0 
VERTEX
 8 
1
 10 
0.89642
 20 
0.46731
 30 
0.0
 0 
VERTEX
 8 
1
 10 
0.87757
 20 
0.46759
 30 
0.0
 0 
VERTEX
 8 
1
 10 
0.85737
 20 
0.46798
 30 
0.0
 0 
VERTEX
 8 
1
 10 
0.83591
 20 
0.46844
 30 
0.0
 0 
VERTEX
 8 
1
 10 
0.81324
 20 
0.46898
 30 
0.0
 0 
VERTEX
 8 
1
 10 
0.78946
 20 
0.46959
 30 
0.0
 0 
VERTEX
 8 
1
 10 
0.76465
 20 
0.47028
 30 
0.0
 0 
VERTEX
 8 
1
 10 
0.73889
 20 
0.47103
 30 
0.0
 0 
VERTEX
 8 
1
 10 
0.71228
 20 
0.47187
 30 
0.0
 0 
VERTEX
 8 
1
 10 
0.68491
 20 
0.47282
 30 
0.0
 0 
VERTEX
 8 
1
 10 
0.65687
 20 
0.47388
 30 
0.0
 0 
VERTEX
 8 
1
 10 
0.62827
 20 
0.47508
 30 
0.0
 0 
VERTEX
 8 
1
 10 
0.5992
 20 
0.47649
 30 
0.0
 0 
VERTEX
 8 
1
 10 
0.56977
 20 
0.47817
 30 
0.0
 0 
VERTEX
 8 
1
 10 
0.54008
 20 
0.48017
 30 
0.0
 0 
VERTEX
 8 
1
 10 
0.51024
 20 
0.48247
 30 
0.0
 0 
VERTEX
 8 
1
 10 
0.48035
 20 
0.48505
 30 
0.0
 0 
VERTEX
 8 
1
 10 
0.45051
 20 
0.4879
 30 
0.0
 0 
VERTEX
 8 
1
 10 
0.42083
 20 
0.49095
 30 
0.0
 0 
VERTEX
 8 
1
 10 
0.39142
 20 
0.49408
 30 
0.0
 0 
VERTEX
 8 
1
 10 
0.36238
 20 
0.49718
 30 
0.0
 0 
VERTEX
 8 
1
 10 
0.33381
 20 
0.50014
 30 
0.0
 0 
VERTEX
 8 
1
 10 
0.30581
 20 
0.50292
 30 
0.0
 0 
VERTEX
 8 
1
 10 
0.27848
 20 
0.50545
 30 
0.0
 0 
VERTEX
 8 
1
 10 
0.25191
 20 
0.50769
 30 
0.0
 0 
VERTEX
 8 
1
 10 
0.22621
 20 
0.5096
 30 
0.0
 0 
VERTEX
 8 
1
 10 
0.20146
 20 
0.51115
 30 
0.0
 0 
VERTEX
 8 
1
 10 
0.17774
 20 
0.51231
 30 
0.0
 0 
VERTEX
 8 
1
 10 
0.15514
 20 
0.51309
 30 
0.0
 0 
VERTEX
 8 
1
 10 
0.13375
 20 
0.51348
 30 
0.0
 0 
VERTEX
 8 
1
 10 
0.11363
 20 
0.51345
 30 
0.0
 0 
VERTEX
 8 
1
 10 
0.094860
 20 
0.51306
 30 
0.0
 0 
VERTEX
 8 
1
 10 
0.0775
 20 
0.5123
 30 
0.0
 0 
VERTEX
 8 
1
 10 
0.061610
 20 
0.51122
 30 
0.0
 0 
VERTEX
 8 
1
 10 
0.04726
 20 
0.50984
 30 
0.0
 0 
VERTEX
 8 
1
 10 
0.03448
 20 
0.50821
 30 
0.0
 0 
VERTEX
 8 
1
 10 
0.02333
 20 
0.50639
 30 
0.0
 0 
VERTEX
 8 
1
 10 
0.01385
 20 
0.50443
 30 
0.0
 0 
VERTEX
 8 
1
 10 
0.0060599
 20 
0.50238
 30 
0.0
 0 
VERTEX
 8 
1
 10 
0.0
 20 
0.5
 30 
0.0
 0 
SEQEND
 8 
1
 0 
ENDSEC
 0 
EOF
