 0 
SECTION
 2 
ENTITIES
 0 
POLYLINE
 8 
1
 66 
 1 
 10 
0.0
 20 
0.0
 30 
0.0
 0 
VERTEX
 8 
1
 10 
0.0
 20 
0.5015
 30 
0.0
 0 
VERTEX
 8 
1
 10 
0.025
 20 
0.50521
 30 
0.0
 0 
VERTEX
 8 
1
 10 
0.05
 20 
0.50884
 30 
0.0
 0 
VERTEX
 8 
1
 10 
0.075
 20 
0.51236
 30 
0.0
 0 
VERTEX
 8 
1
 10 
0.1
 20 
0.51579
 30 
0.0
 0 
VERTEX
 8 
1
 10 
0.125
 20 
0.51911
 30 
0.0
 0 
VERTEX
 8 
1
 10 
0.15
 20 
0.52234
 30 
0.0
 0 
VERTEX
 8 
1
 10 
0.175
 20 
0.52545
 30 
0.0
 0 
VERTEX
 8 
1
 10 
0.2
 20 
0.52846
 30 
0.0
 0 
VERTEX
 8 
1
 10 
0.225
 20 
0.53136
 30 
0.0
 0 
VERTEX
 8 
1
 10 
0.25
 20 
0.53415
 30 
0.0
 0 
VERTEX
 8 
1
 10 
0.275
 20 
0.53682
 30 
0.0
 0 
VERTEX
 8 
1
 10 
0.3
 20 
0.53938
 30 
0.0
 0 
VERTEX
 8 
1
 10 
0.325
 20 
0.54183
 30 
0.0
 0 
VERTEX
 8 
1
 10 
0.35
 20 
0.54415
 30 
0.0
 0 
VERTEX
 8 
1
 10 
0.375
 20 
0.54634
 30 
0.0
 0 
VERTEX
 8 
1
 10 
0.4
 20 
0.54842
 30 
0.0
 0 
VERTEX
 8 
1
 10 
0.425
 20 
0.55037
 30 
0.0
 0 
VERTEX
 8 
1
 10 
0.45
 20 
0.55219
 30 
0.0
 0 
VERTEX
 8 
1
 10 
0.475
 20 
0.55388
 30 
0.0
 0 
VERTEX
 8 
1
 10 
0.5
 20 
0.55543
 30 
0.0
 0 
VERTEX
 8 
1
 10 
0.525
 20 
0.55684
 30 
0.0
 0 
VERTEX
 8 
1
 10 
0.55
 20 
0.55813
 30 
0.0
 0 
VERTEX
 8 
1
 10 
0.575
 20 
0.55926
 30 
0.0
 0 
VERTEX
 8 
1
 10 
0.6
 20 
0.56026
 30 
0.0
 0 
VERTEX
 8 
1
 10 
0.625
 20 
0.56111
 30 
0.0
 0 
VERTEX
 8 
1
 10 
0.65
 20 
0.56181
 30 
0.0
 0 
VERTEX
 8 
1
 10 
0.68
 20 
0.56246
 30 
0.0
 0 
VERTEX
 8 
1
 10 
0.71769
 20 
0.56294
 30 
0.0
 0 
VERTEX
 8 
1
 10 
0.74852
 20 
0.56298
 30 
0.0
 0 
VERTEX
 8 
1
 10 
0.77923
 20 
0.56266
 30 
0.0
 0 
VERTEX
 8 
1
 10 
0.80982
 20 
0.56187
 30 
0.0
 0 
VERTEX
 8 
1
 10 
0.84028
 20 
0.56037
 30 
0.0
 0 
VERTEX
 8 
1
 10 
0.87058
 20 
0.55782
 30 
0.0
 0 
VERTEX
 8 
1
 10 
0.90072
 20 
0.55369
 30 
0.0
 0 
VERTEX
 8 
1
 10 
0.91572
 20 
0.55079
 30 
0.0
 0 
VERTEX
 8 
1
 10 
0.93233
 20 
0.54668
 30 
0.0
 0 
VERTEX
 8 
1
 10 
0.94794
 20 
0.54164
 30 
0.0
 0 
VERTEX
 8 
1
 10 
0.96156
 20 
0.53594
 30 
0.0
 0 
VERTEX
 8 
1
 10 
0.97322
 20 
0.52973
 30 
0.0
 0 
VERTEX
 8 
1
 10 
0.98278
 20 
0.52349
 30 
0.0
 0 
VERTEX
 8 
1
 10 
0.99028
 20 
0.51724
 30 
0.0
 0 
VERTEX
 8 
1
 10 
0.99567
 20 
0.51115
 30 
0.0
 0 
VERTEX
 8 
1
 10 
0.99894
 20 
0.50529
 30 
0.0
 0 
VERTEX
 8 
1
 10 
1
 20 
0.5
 30 
0.0
 0 
VERTEX
 8 
1
 10 
0.99894
 20 
0.49589
 30 
0.0
 0 
VERTEX
 8 
1
 10 
0.99567
 20 
0.49271
 30 
0.0
 0 
VERTEX
 8 
1
 10 
0.99028
 20 
0.48999
 30 
0.0
 0 
VERTEX
 8 
1
 10 
0.98278
 20 
0.48733
 30 
0.0
 0 
VERTEX
 8 
1
 10 
0.97322
 20 
0.48475
 30 
0.0
 0 
VERTEX
 8 
1
 10 
0.96156
 20 
0.48227
 30 
0.0
 0 
VERTEX
 8 
1
 10 
0.94794
 20 
0.4799
 30 
0.0
 0 
VERTEX
 8 
1
 10 
0.93233
 20 
0.47762
 30 
0.0
 0 
VERTEX
 8 
1
 10 
0.91572
 20 
0.47556
 30 
0.0
 0 
VERTEX
 8 
1
 10 
0.90072
 20 
0.47395
 30 
0.0
 0 
VERTEX
 8 
1
 10 
0.87058
 20 
0.47119
 30 
0.0
 0 
VERTEX
 8 
1
 10 
0.84028
 20 
0.46893
 30 
0.0
 0 
VERTEX
 8 
1
 10 
0.80982
 20 
0.46708
 30 
0.0
 0 
VERTEX
 8 
1
 10 
0.77923
 20 
0.46555
 30 
0.0
 0 
VERTEX
 8 
1
 10 
0.74852
 20 
0.46431
 30 
0.0
 0 
VERTEX
 8 
1
 10 
0.71769
 20 
0.46333
 30 
0.0
 0 
VERTEX
 8 
1
 10 
0.68
 20 
0.46247
 30 
0.0
 0 
VERTEX
 8 
1
 10 
0.65
 20 
0.46203
 30 
0.0
 0 
VERTEX
 8 
1
 10 
0.625
 20 
0.46183
 30 
0.0
 0 
VERTEX
 8 
1
 10 
0.6
 20 
0.46177
 30 
0.0
 0 
VERTEX
 8 
1
 10 
0.575
 20 
0.46187
 30 
0.0
 0 
VERTEX
 8 
1
 10 
0.55
 20 
0.46209
 30 
0.0
 0 
VERTEX
 8 
1
 10 
0.525
 20 
0.46247
 30 
0.0
 0 
VERTEX
 8 
1
 10 
0.5
 20 
0.46297
 30 
0.0
 0 
VERTEX
 8 
1
 10 
0.475
 20 
0.46362
 30 
0.0
 0 
VERTEX
 8 
1
 10 
0.45
 20 
0.46439
 30 
0.0
 0 
VERTEX
 8 
1
 10 
0.425
 20 
0.4653
 30 
0.0
 0 
VERTEX
 8 
1
 10 
0.4
 20 
0.46634
 30 
0.0
 0 
VERTEX
 8 
1
 10 
0.375
 20 
0.4675
 30 
0.0
 0 
VERTEX
 8 
1
 10 
0.35
 20 
0.46878
 30 
0.0
 0 
VERTEX
 8 
1
 10 
0.325
 20 
0.47019
 30 
0.0
 0 
VERTEX
 8 
1
 10 
0.3
 20 
0.47172
 30 
0.0
 0 
VERTEX
 8 
1
 10 
0.275
 20 
0.47336
 30 
0.0
 0 
VERTEX
 8 
1
 10 
0.25
 20 
0.47511
 30 
0.0
 0 
VERTEX
 8 
1
 10 
0.225
 20 
0.47698
 30 
0.0
 0 
VERTEX
 8 
1
 10 
0.2
 20 
0.47896
 30 
0.0
 0 
VERTEX
 8 
1
 10 
0.175
 20 
0.48105
 30 
0.0
 0 
VERTEX
 8 
1
 10 
0.15
 20 
0.48324
 30 
0.0
 0 
VERTEX
 8 
1
 10 
0.125
 20 
0.48554
 30 
0.0
 0 
VERTEX
 8 
1
 10 
0.1
 20 
0.48794
 30 
0.0
 0 
VERTEX
 8 
1
 10 
0.075
 20 
0.49043
 30 
0.0
 0 
VERTEX
 8 
1
 10 
0.05
 20 
0.49303
 30 
0.0
 0 
VERTEX
 8 
1
 10 
0.025
 20 
0.49572
 30 
0.0
 0 
VERTEX
 8 
1
 10 
0.0
 20 
0.4985
 30 
0.0
 0 
SEQEND
 8 
1
 0 
ENDSEC
 0 
EOF
