 0 
SECTION
 2 
ENTITIES
 0 
POLYLINE
 8 
1
 66 
 1 
 10 
0.0
 20 
0.0
 30 
0.0
 0 
VERTEX
 8 
1
 10 
0.0
 20 
0.5
 30 
0.0
 0 
VERTEX
 8 
1
 10 
0.0395
 20 
0.5078
 30 
0.0
 0 
VERTEX
 8 
1
 10 
0.0795
 20 
0.5162
 30 
0.0
 0 
VERTEX
 8 
1
 10 
0.1195
 20 
0.52509
 30 
0.0
 0 
VERTEX
 8 
1
 10 
0.1595
 20 
0.53467
 30 
0.0
 0 
VERTEX
 8 
1
 10 
0.1995
 20 
0.54498
 30 
0.0
 0 
VERTEX
 8 
1
 10 
0.2395
 20 
0.55585
 30 
0.0
 0 
VERTEX
 8 
1
 10 
0.2795
 20 
0.56679
 30 
0.0
 0 
VERTEX
 8 
1
 10 
0.3195
 20 
0.57608
 30 
0.0
 0 
VERTEX
 8 
1
 10 
0.36314
 20 
0.5828
 30 
0.0
 0 
VERTEX
 8 
1
 10 
0.41025
 20 
0.58837
 30 
0.0
 0 
VERTEX
 8 
1
 10 
0.45805
 20 
0.59203
 30 
0.0
 0 
VERTEX
 8 
1
 10 
0.50616
 20 
0.59433
 30 
0.0
 0 
VERTEX
 8 
1
 10 
0.55423
 20 
0.59527
 30 
0.0
 0 
VERTEX
 8 
1
 10 
0.60182
 20 
0.59491
 30 
0.0
 0 
VERTEX
 8 
1
 10 
0.64848
 20 
0.59334
 30 
0.0
 0 
VERTEX
 8 
1
 10 
0.69372
 20 
0.59056
 30 
0.0
 0 
VERTEX
 8 
1
 10 
0.73712
 20 
0.58666
 30 
0.0
 0 
VERTEX
 8 
1
 10 
0.77824
 20 
0.58167
 30 
0.0
 0 
VERTEX
 8 
1
 10 
0.8167
 20 
0.5757
 30 
0.0
 0 
VERTEX
 8 
1
 10 
0.85214
 20 
0.56881
 30 
0.0
 0 
VERTEX
 8 
1
 10 
0.88427
 20 
0.56113
 30 
0.0
 0 
VERTEX
 8 
1
 10 
0.91278
 20 
0.55281
 30 
0.0
 0 
VERTEX
 8 
1
 10 
0.93748
 20 
0.544
 30 
0.0
 0 
VERTEX
 8 
1
 10 
0.95817
 20 
0.53492
 30 
0.0
 0 
VERTEX
 8 
1
 10 
0.97374
 20 
0.52635
 30 
0.0
 0 
VERTEX
 8 
1
 10 
0.98712
 20 
0.5169
 30 
0.0
 0 
VERTEX
 8 
1
 10 
0.99529
 20 
0.50864
 30 
0.0
 0 
VERTEX
 8 
1
 10 
0.9995
 20 
0.5024
 30 
0.0
 0 
VERTEX
 8 
1
 10 
1
 20 
0.5
 30 
0.0
 0 
VERTEX
 8 
1
 10 
0.9995
 20 
0.50005
 30 
0.0
 0 
VERTEX
 8 
1
 10 
0.99529
 20 
0.501
 30 
0.0
 0 
VERTEX
 8 
1
 10 
0.98712
 20 
0.50322
 30 
0.0
 0 
VERTEX
 8 
1
 10 
0.97374
 20 
0.50646
 30 
0.0
 0 
VERTEX
 8 
1
 10 
0.95817
 20 
0.50922
 30 
0.0
 0 
VERTEX
 8 
1
 10 
0.93748
 20 
0.51225
 30 
0.0
 0 
VERTEX
 8 
1
 10 
0.91278
 20 
0.51499
 30 
0.0
 0 
VERTEX
 8 
1
 10 
0.88427
 20 
0.51703
 30 
0.0
 0 
VERTEX
 8 
1
 10 
0.85214
 20 
0.51863
 30 
0.0
 0 
VERTEX
 8 
1
 10 
0.8167
 20 
0.51948
 30 
0.0
 0 
VERTEX
 8 
1
 10 
0.77824
 20 
0.52009
 30 
0.0
 0 
VERTEX
 8 
1
 10 
0.73712
 20 
0.52052
 30 
0.0
 0 
VERTEX
 8 
1
 10 
0.69372
 20 
0.52081
 30 
0.0
 0 
VERTEX
 8 
1
 10 
0.64848
 20 
0.52151
 30 
0.0
 0 
VERTEX
 8 
1
 10 
0.60182
 20 
0.52217
 30 
0.0
 0 
VERTEX
 8 
1
 10 
0.55423
 20 
0.52277
 30 
0.0
 0 
VERTEX
 8 
1
 10 
0.50616
 20 
0.5231
 30 
0.0
 0 
VERTEX
 8 
1
 10 
0.45805
 20 
0.52354
 30 
0.0
 0 
VERTEX
 8 
1
 10 
0.41025
 20 
0.52378
 30 
0.0
 0 
VERTEX
 8 
1
 10 
0.36304
 20 
0.52353
 30 
0.0
 0 
VERTEX
 8 
1
 10 
0.3195
 20 
0.52242
 30 
0.0
 0 
VERTEX
 8 
1
 10 
0.2795
 20 
0.52067
 30 
0.0
 0 
VERTEX
 8 
1
 10 
0.2395
 20 
0.51839
 30 
0.0
 0 
VERTEX
 8 
1
 10 
0.1995
 20 
0.51595
 30 
0.0
 0 
VERTEX
 8 
1
 10 
0.1595
 20 
0.51286
 30 
0.0
 0 
VERTEX
 8 
1
 10 
0.1195
 20 
0.50972
 30 
0.0
 0 
VERTEX
 8 
1
 10 
0.0795
 20 
0.50649
 30 
0.0
 0 
VERTEX
 8 
1
 10 
0.0395
 20 
0.5032
 30 
0.0
 0 
VERTEX
 8 
1
 10 
0.0
 20 
0.5
 30 
0.0
 0 
SEQEND
 8 
1
 0 
ENDSEC
 0 
EOF
