 0 
SECTION
 2 
ENTITIES
 0 
POLYLINE
 8 
1
 66 
 1 
 10 
0.0
 20 
0.0
 30 
0.0
 0 
VERTEX
 8 
1
 10 
0.0
 20 
0.50378
 30 
0.0
 0 
VERTEX
 8 
1
 10 
0.02407
 20 
0.51034
 30 
0.0
 0 
VERTEX
 8 
1
 10 
0.04978
 20 
0.51657
 30 
0.0
 0 
VERTEX
 8 
1
 10 
0.07537
 20 
0.52238
 30 
0.0
 0 
VERTEX
 8 
1
 10 
0.09756
 20 
0.52737
 30 
0.0
 0 
VERTEX
 8 
1
 10 
0.12496
 20 
0.53337
 30 
0.0
 0 
VERTEX
 8 
1
 10 
0.14977
 20 
0.53874
 30 
0.0
 0 
VERTEX
 8 
1
 10 
0.17554
 20 
0.54422
 30 
0.0
 0 
VERTEX
 8 
1
 10 
0.19698
 20 
0.5487
 30 
0.0
 0 
VERTEX
 8 
1
 10 
0.22326
 20 
0.55412
 30 
0.0
 0 
VERTEX
 8 
1
 10 
0.25034
 20 
0.55956
 30 
0.0
 0 
VERTEX
 8 
1
 10 
0.27383
 20 
0.56416
 30 
0.0
 0 
VERTEX
 8 
1
 10 
0.2976
 20 
0.56864
 30 
0.0
 0 
VERTEX
 8 
1
 10 
0.32425
 20 
0.57339
 30 
0.0
 0 
VERTEX
 8 
1
 10 
0.35039
 20 
0.5777
 30 
0.0
 0 
VERTEX
 8 
1
 10 
0.37592
 20 
0.58153
 30 
0.0
 0 
VERTEX
 8 
1
 10 
0.3975
 20 
0.58445
 30 
0.0
 0 
VERTEX
 8 
1
 10 
0.42586
 20 
0.58788
 30 
0.0
 0 
VERTEX
 8 
1
 10 
0.44694
 20 
0.59013
 30 
0.0
 0 
VERTEX
 8 
1
 10 
0.47522
 20 
0.5928
 30 
0.0
 0 
VERTEX
 8 
1
 10 
0.50017
 20 
0.59488
 30 
0.0
 0 
VERTEX
 8 
1
 10 
0.52568
 20 
0.5968
 30 
0.0
 0 
VERTEX
 8 
1
 10 
0.54772
 20 
0.59836
 30 
0.0
 0 
VERTEX
 8 
1
 10 
0.57393
 20 
0.60012
 30 
0.0
 0 
VERTEX
 8 
1
 10 
0.59656
 20 
0.60157
 30 
0.0
 0 
VERTEX
 8 
1
 10 
0.62315
 20 
0.6032
 30 
0.0
 0 
VERTEX
 8 
1
 10 
0.64983
 20 
0.60471
 30 
0.0
 0 
VERTEX
 8 
1
 10 
0.69805
 20 
0.60678
 30 
0.0
 0 
VERTEX
 8 
1
 10 
0.72538
 20 
0.60734
 30 
0.0
 0 
VERTEX
 8 
1
 10 
0.74809
 20 
0.60731
 30 
0.0
 0 
VERTEX
 8 
1
 10 
0.77542
 20 
0.60651
 30 
0.0
 0 
VERTEX
 8 
1
 10 
0.79864
 20 
0.60503
 30 
0.0
 0 
VERTEX
 8 
1
 10 
0.82387
 20 
0.60242
 30 
0.0
 0 
VERTEX
 8 
1
 10 
0.84805
 20 
0.59875
 30 
0.0
 0 
VERTEX
 8 
1
 10 
0.87358
 20 
0.59341
 30 
0.0
 0 
VERTEX
 8 
1
 10 
0.90008
 20 
0.58593
 30 
0.0
 0 
VERTEX
 8 
1
 10 
0.92898
 20 
0.57488
 30 
0.0
 0 
VERTEX
 8 
1
 10 
0.9492
 20 
0.56464
 30 
0.0
 0 
VERTEX
 8 
1
 10 
0.9585
 20 
0.55894
 30 
0.0
 0 
VERTEX
 8 
1
 10 
0.96867
 20 
0.5517
 30 
0.0
 0 
VERTEX
 8 
1
 10 
0.97912
 20 
0.54266
 30 
0.0
 0 
VERTEX
 8 
1
 10 
0.987
 20 
0.53408
 30 
0.0
 0 
VERTEX
 8 
1
 10 
0.99259
 20 
0.52642
 30 
0.0
 0 
VERTEX
 8 
1
 10 
0.99761
 20 
0.51665
 30 
0.0
 0 
VERTEX
 8 
1
 10 
0.99876
 20 
0.51286
 30 
0.0
 0 
VERTEX
 8 
1
 10 
1
 20 
0.5
 30 
0.0
 0 
VERTEX
 8 
1
 10 
0.99894
 20 
0.49272
 30 
0.0
 0 
VERTEX
 8 
1
 10 
0.99752
 20 
0.48937
 30 
0.0
 0 
VERTEX
 8 
1
 10 
0.99235
 20 
0.48317
 30 
0.0
 0 
VERTEX
 8 
1
 10 
0.98662
 20 
0.47904
 30 
0.0
 0 
VERTEX
 8 
1
 10 
0.98009
 20 
0.47559
 30 
0.0
 0 
VERTEX
 8 
1
 10 
0.96817
 20 
0.47055
 30 
0.0
 0 
VERTEX
 8 
1
 10 
0.95813
 20 
0.46706
 30 
0.0
 0 
VERTEX
 8 
1
 10 
0.9489
 20 
0.46427
 30 
0.0
 0 
VERTEX
 8 
1
 10 
0.92797
 20 
0.45899
 30 
0.0
 0 
VERTEX
 8 
1
 10 
0.89912
 20 
0.45335
 30 
0.0
 0 
VERTEX
 8 
1
 10 
0.87469
 20 
0.4496
 30 
0.0
 0 
VERTEX
 8 
1
 10 
0.84844
 20 
0.44626
 30 
0.0
 0 
VERTEX
 8 
1
 10 
0.82397
 20 
0.44367
 30 
0.0
 0 
VERTEX
 8 
1
 10 
0.79849
 20 
0.44149
 30 
0.0
 0 
VERTEX
 8 
1
 10 
0.77513
 20 
0.43984
 30 
0.0
 0 
VERTEX
 8 
1
 10 
0.74771
 20 
0.43833
 30 
0.0
 0 
VERTEX
 8 
1
 10 
0.72314
 20 
0.43741
 30 
0.0
 0 
VERTEX
 8 
1
 10 
0.6982
 20 
0.43677
 30 
0.0
 0 
VERTEX
 8 
1
 10 
0.6767
 20 
0.43645
 30 
0.0
 0 
VERTEX
 8 
1
 10 
0.64761
 20 
0.43633
 30 
0.0
 0 
VERTEX
 8 
1
 10 
0.62569
 20 
0.43647
 30 
0.0
 0 
VERTEX
 8 
1
 10 
0.6
 20 
0.43688
 30 
0.0
 0 
VERTEX
 8 
1
 10 
0.5742
 20 
0.43757
 30 
0.0
 0 
VERTEX
 8 
1
 10 
0.54852
 20 
0.43854
 30 
0.0
 0 
VERTEX
 8 
1
 10 
0.52679
 20 
0.43958
 30 
0.0
 0 
VERTEX
 8 
1
 10 
0.49855
 20 
0.44131
 30 
0.0
 0 
VERTEX
 8 
1
 10 
0.47439
 20 
0.44319
 30 
0.0
 0 
VERTEX
 8 
1
 10 
0.44785
 20 
0.44576
 30 
0.0
 0 
VERTEX
 8 
1
 10 
0.42505
 20 
0.44845
 30 
0.0
 0 
VERTEX
 8 
1
 10 
0.39911
 20 
0.45207
 30 
0.0
 0 
VERTEX
 8 
1
 10 
0.37611
 20 
0.45568
 30 
0.0
 0 
VERTEX
 8 
1
 10 
0.3493
 20 
0.46024
 30 
0.0
 0 
VERTEX
 8 
1
 10 
0.32542
 20 
0.46448
 30 
0.0
 0 
VERTEX
 8 
1
 10 
0.30089
 20 
0.46896
 30 
0.0
 0 
VERTEX
 8 
1
 10 
0.27581
 20 
0.47368
 30 
0.0
 0 
VERTEX
 8 
1
 10 
0.25033
 20 
0.47852
 30 
0.0
 0 
VERTEX
 8 
1
 10 
0.22366
 20 
0.48348
 30 
0.0
 0 
VERTEX
 8 
1
 10 
0.19877
 20 
0.48784
 30 
0.0
 0 
VERTEX
 8 
1
 10 
0.1752
 20 
0.49159
 30 
0.0
 0 
VERTEX
 8 
1
 10 
0.14974
 20 
0.49515
 30 
0.0
 0 
VERTEX
 8 
1
 10 
0.12556
 20 
0.49805
 30 
0.0
 0 
VERTEX
 8 
1
 10 
0.09993
 20 
0.50032
 30 
0.0
 0 
VERTEX
 8 
1
 10 
0.07582
 20 
0.50147
 30 
0.0
 0 
VERTEX
 8 
1
 10 
0.04978
 20 
0.5016
 30 
0.0
 0 
VERTEX
 8 
1
 10 
0.024140
 20 
0.50013
 30 
0.0
 0 
VERTEX
 8 
1
 10 
0.0
 20 
0.49646
 30 
0.0
 0 
SEQEND
 8 
1
 0 
ENDSEC
 0 
EOF
