 0 
SECTION
 2 
ENTITIES
 0 
POLYLINE
 8 
1
 66 
 1 
 10 
0.0
 20 
0.0
 30 
0.0
 0 
VERTEX
 8 
1
 10 
0.0
 20 
0.5044
 30 
0.0
 0 
VERTEX
 8 
1
 10 
0.05
 20 
0.51056
 30 
0.0
 0 
VERTEX
 8 
1
 10 
0.1
 20 
0.51642
 30 
0.0
 0 
VERTEX
 8 
1
 10 
0.2
 20 
0.52924
 30 
0.0
 0 
VERTEX
 8 
1
 10 
0.3
 20 
0.54186
 30 
0.0
 0 
VERTEX
 8 
1
 10 
0.4
 20 
0.55378
 30 
0.0
 0 
VERTEX
 8 
1
 10 
0.5
 20 
0.5636
 30 
0.0
 0 
VERTEX
 8 
1
 10 
0.6
 20 
0.56942
 30 
0.0
 0 
VERTEX
 8 
1
 10 
0.7
 20 
0.57014
 30 
0.0
 0 
VERTEX
 8 
1
 10 
0.8
 20 
0.56276
 30 
0.0
 0 
VERTEX
 8 
1
 10 
0.85
 20 
0.55542
 30 
0.0
 0 
VERTEX
 8 
1
 10 
0.9
 20 
0.54468
 30 
0.0
 0 
VERTEX
 8 
1
 10 
0.925
 20 
0.53791
 30 
0.0
 0 
VERTEX
 8 
1
 10 
0.95
 20 
0.52964
 30 
0.0
 0 
VERTEX
 8 
1
 10 
0.975
 20 
0.51937
 30 
0.0
 0 
VERTEX
 8 
1
 10 
0.9875
 20 
0.51278
 30 
0.0
 0 
VERTEX
 8 
1
 10 
1
 20 
0.5
 30 
0.0
 0 
VERTEX
 8 
1
 10 
0.9875
 20 
0.49188
 30 
0.0
 0 
VERTEX
 8 
1
 10 
0.975
 20 
0.49187
 30 
0.0
 0 
VERTEX
 8 
1
 10 
0.95
 20 
0.49209
 30 
0.0
 0 
VERTEX
 8 
1
 10 
0.925
 20 
0.49561
 30 
0.0
 0 
VERTEX
 8 
1
 10 
0.9
 20 
0.49778
 30 
0.0
 0 
VERTEX
 8 
1
 10 
0.85
 20 
0.50192
 30 
0.0
 0 
VERTEX
 8 
1
 10 
0.8
 20 
0.50506
 30 
0.0
 0 
VERTEX
 8 
1
 10 
0.7
 20 
0.50804
 30 
0.0
 0 
VERTEX
 8 
1
 10 
0.6
 20 
0.50772
 30 
0.0
 0 
VERTEX
 8 
1
 10 
0.5
 20 
0.5055
 30 
0.0
 0 
VERTEX
 8 
1
 10 
0.4
 20 
0.50228
 30 
0.0
 0 
VERTEX
 8 
1
 10 
0.3
 20 
0.49936
 30 
0.0
 0 
VERTEX
 8 
1
 10 
0.2
 20 
0.49774
 30 
0.0
 0 
VERTEX
 8 
1
 10 
0.1
 20 
0.49772
 30 
0.0
 0 
VERTEX
 8 
1
 10 
0.05
 20 
0.49856
 30 
0.0
 0 
VERTEX
 8 
1
 10 
0.0
 20 
0.5
 30 
0.0
 0 
SEQEND
 8 
1
 0 
ENDSEC
 0 
EOF
