 0 
SECTION
 2 
ENTITIES
 0 
POLYLINE
 8 
1
 66 
 1 
 10 
0.0
 20 
0.0
 30 
0.0
 0 
VERTEX
 8 
1
 10 
0.0
 20 
0.5028
 30 
0.0
 0 
VERTEX
 8 
1
 10 
0.05
 20 
0.50612
 30 
0.0
 0 
VERTEX
 8 
1
 10 
0.09999
 20 
0.51085
 30 
0.0
 0 
VERTEX
 8 
1
 10 
0.19999
 20 
0.5227
 30 
0.0
 0 
VERTEX
 8 
1
 10 
0.29998
 20 
0.53615
 30 
0.0
 0 
VERTEX
 8 
1
 10 
0.39998
 20 
0.5497
 30 
0.0
 0 
VERTEX
 8 
1
 10 
0.49997
 20 
0.56205
 30 
0.0
 0 
VERTEX
 8 
1
 10 
0.59996
 20 
0.57
 30 
0.0
 0 
VERTEX
 8 
1
 10 
0.69996
 20 
0.57185
 30 
0.0
 0 
VERTEX
 8 
1
 10 
0.79997
 20 
0.565
 30 
0.0
 0 
VERTEX
 8 
1
 10 
0.84997
 20 
0.55722
 30 
0.0
 0 
VERTEX
 8 
1
 10 
0.89998
 20 
0.54585
 30 
0.0
 0 
VERTEX
 8 
1
 10 
0.92498
 20 
0.53856
 30 
0.0
 0 
VERTEX
 8 
1
 10 
0.94999
 20 
0.52977
 30 
0.0
 0 
VERTEX
 8 
1
 10 
0.97499
 20 
0.51879
 30 
0.0
 0 
VERTEX
 8 
1
 10 
0.98749
 20 
0.51209
 30 
0.0
 0 
VERTEX
 8 
1
 10 
1
 20 
0.5
 30 
0.0
 0 
VERTEX
 8 
1
 10 
0.9875
 20 
0.49189
 30 
0.0
 0 
VERTEX
 8 
1
 10 
0.975
 20 
0.49179
 30 
0.0
 0 
VERTEX
 8 
1
 10 
0.95
 20 
0.49418
 30 
0.0
 0 
VERTEX
 8 
1
 10 
0.925
 20 
0.49676
 30 
0.0
 0 
VERTEX
 8 
1
 10 
0.9
 20 
0.49945
 30 
0.0
 0 
VERTEX
 8 
1
 10 
0.85
 20 
0.50402
 30 
0.0
 0 
VERTEX
 8 
1
 10 
0.8
 20 
0.5075
 30 
0.0
 0 
VERTEX
 8 
1
 10 
0.69999
 20 
0.51035
 30 
0.0
 0 
VERTEX
 8 
1
 10 
0.6
 20 
0.5086
 30 
0.0
 0 
VERTEX
 8 
1
 10 
0.5
 20 
0.50445
 30 
0.0
 0 
VERTEX
 8 
1
 10 
0.4
 20 
0.4986
 30 
0.0
 0 
VERTEX
 8 
1
 10 
0.3
 20 
0.49395
 30 
0.0
 0 
VERTEX
 8 
1
 10 
0.2
 20 
0.4914
 30 
0.0
 0 
VERTEX
 8 
1
 10 
0.1
 20 
0.49255
 30 
0.0
 0 
VERTEX
 8 
1
 10 
0.05
 20 
0.49473
 30 
0.0
 0 
VERTEX
 8 
1
 10 
0.0
 20 
0.4972
 30 
0.0
 0 
SEQEND
 8 
1
 0 
ENDSEC
 0 
EOF
