 0 
SECTION
 2 
ENTITIES
 0 
POLYLINE
 8 
1
 66 
 1 
 10 
0.0
 20 
0.0
 30 
0.0
 0 
VERTEX
 8 
1
 10 
0.0
 20 
0.50205
 30 
0.0
 0 
VERTEX
 8 
1
 10 
0.04999
 20 
0.50705
 30 
0.0
 0 
VERTEX
 8 
1
 10 
0.09997
 20 
0.51295
 30 
0.0
 0 
VERTEX
 8 
1
 10 
0.19994
 20 
0.52686
 30 
0.0
 0 
VERTEX
 8 
1
 10 
0.29991
 20 
0.54246
 30 
0.0
 0 
VERTEX
 8 
1
 10 
0.39988
 20 
0.55767
 30 
0.0
 0 
VERTEX
 8 
1
 10 
0.49985
 20 
0.57107
 30 
0.0
 0 
VERTEX
 8 
1
 10 
0.59984
 20 
0.57988
 30 
0.0
 0 
VERTEX
 8 
1
 10 
0.69983
 20 
0.58148
 30 
0.0
 0 
VERTEX
 8 
1
 10 
0.79985
 20 
0.57319
 30 
0.0
 0 
VERTEX
 8 
1
 10 
0.84987
 20 
0.56509
 30 
0.0
 0 
VERTEX
 8 
1
 10 
0.89989
 20 
0.55359
 30 
0.0
 0 
VERTEX
 8 
1
 10 
0.92491
 20 
0.54565
 30 
0.0
 0 
VERTEX
 8 
1
 10 
0.94993
 20 
0.5358
 30 
0.0
 0 
VERTEX
 8 
1
 10 
0.97495
 20 
0.52345
 30 
0.0
 0 
VERTEX
 8 
1
 10 
0.98747
 20 
0.51557
 30 
0.0
 0 
VERTEX
 8 
1
 10 
1
 20 
0.5
 30 
0.0
 0 
VERTEX
 8 
1
 10 
0.98752
 20 
0.48957
 30 
0.0
 0 
VERTEX
 8 
1
 10 
0.97502
 20 
0.48845
 30 
0.0
 0 
VERTEX
 8 
1
 10 
0.95002
 20 
0.489
 30 
0.0
 0 
VERTEX
 8 
1
 10 
0.92502
 20 
0.49055
 30 
0.0
 0 
VERTEX
 8 
1
 10 
0.90002
 20 
0.4925
 30 
0.0
 0 
VERTEX
 8 
1
 10 
0.85001
 20 
0.49589
 30 
0.0
 0 
VERTEX
 8 
1
 10 
0.8
 20 
0.49859
 30 
0.0
 0 
VERTEX
 8 
1
 10 
0.7
 20 
0.50078
 30 
0.0
 0 
VERTEX
 8 
1
 10 
0.6
 20 
0.49908
 30 
0.0
 0 
VERTEX
 8 
1
 10 
0.50001
 20 
0.49538
 30 
0.0
 0 
VERTEX
 8 
1
 10 
0.40002
 20 
0.49037
 30 
0.0
 0 
VERTEX
 8 
1
 10 
0.30003
 20 
0.48767
 30 
0.0
 0 
VERTEX
 8 
1
 10 
0.20003
 20 
0.48696
 30 
0.0
 0 
VERTEX
 8 
1
 10 
0.10002
 20 
0.48986
 30 
0.0
 0 
VERTEX
 8 
1
 10 
0.05001
 20 
0.49325
 30 
0.0
 0 
VERTEX
 8 
1
 10 
0.0
 20 
0.49795
 30 
0.0
 0 
SEQEND
 8 
1
 0 
ENDSEC
 0 
EOF
