 0 
SECTION
 2 
ENTITIES
 0 
POLYLINE
 8 
1
 66 
 1 
 10 
0.0
 20 
0.0
 30 
0.0
 0 
VERTEX
 8 
1
 10 
0.0
 20 
0.5047
 30 
0.0
 0 
VERTEX
 8 
1
 10 
0.05
 20 
0.5106
 30 
0.0
 0 
VERTEX
 8 
1
 10 
0.1
 20 
0.5178
 30 
0.0
 0 
VERTEX
 8 
1
 10 
0.2
 20 
0.535
 30 
0.0
 0 
VERTEX
 8 
1
 10 
0.3
 20 
0.554
 30 
0.0
 0 
VERTEX
 8 
1
 10 
0.4
 20 
0.573
 30 
0.0
 0 
VERTEX
 8 
1
 10 
0.5
 20 
0.5892
 30 
0.0
 0 
VERTEX
 8 
1
 10 
0.6
 20 
0.5999
 30 
0.0
 0 
VERTEX
 8 
1
 10 
0.7
 20 
0.6021
 30 
0.0
 0 
VERTEX
 8 
1
 10 
0.8
 20 
0.5914
 30 
0.0
 0 
VERTEX
 8 
1
 10 
0.85
 20 
0.5803
 30 
0.0
 0 
VERTEX
 8 
1
 10 
0.9
 20 
0.5647
 30 
0.0
 0 
VERTEX
 8 
1
 10 
0.925
 20 
0.5537
 30 
0.0
 0 
VERTEX
 8 
1
 10 
0.95
 20 
0.5417
 30 
0.0
 0 
VERTEX
 8 
1
 10 
0.975
 20 
0.526
 30 
0.0
 0 
VERTEX
 8 
1
 10 
0.9875
 20 
0.51705
 30 
0.0
 0 
VERTEX
 8 
1
 10 
1
 20 
0.5
 30 
0.0
 0 
VERTEX
 8 
1
 10 
0.9875
 20 
0.49025
 30 
0.0
 0 
VERTEX
 8 
1
 10 
0.975
 20 
0.4906
 30 
0.0
 0 
VERTEX
 8 
1
 10 
0.95
 20 
0.4943
 30 
0.0
 0 
VERTEX
 8 
1
 10 
0.925
 20 
0.4987
 30 
0.0
 0 
VERTEX
 8 
1
 10 
0.9
 20 
0.5031
 30 
0.0
 0 
VERTEX
 8 
1
 10 
0.85
 20 
0.5103
 30 
0.0
 0 
VERTEX
 8 
1
 10 
0.8
 20 
0.5156
 30 
0.0
 0 
VERTEX
 8 
1
 10 
0.7
 20 
0.5206
 30 
0.0
 0 
VERTEX
 8 
1
 10 
0.6
 20 
0.519
 30 
0.0
 0 
VERTEX
 8 
1
 10 
0.5
 20 
0.5133
 30 
0.0
 0 
VERTEX
 8 
1
 10 
0.4
 20 
0.5058
 30 
0.0
 0 
VERTEX
 8 
1
 10 
0.3
 20 
0.4988
 30 
0.0
 0 
VERTEX
 8 
1
 10 
0.2
 20 
0.4945
 30 
0.0
 0 
VERTEX
 8 
1
 10 
0.1
 20 
0.4944
 30 
0.0
 0 
VERTEX
 8 
1
 10 
0.05
 20 
0.4964
 30 
0.0
 0 
VERTEX
 8 
1
 10 
0.0
 20 
0.5
 30 
0.0
 0 
SEQEND
 8 
1
 0 
ENDSEC
 0 
EOF
