 0 
SECTION
 2 
ENTITIES
 0 
POLYLINE
 8 
1
 66 
 1 
 10 
0.0
 20 
0.0
 30 
0.0
 0 
VERTEX
 8 
1
 10 
0.0
 20 
0.5024
 30 
0.0
 0 
VERTEX
 8 
1
 10 
0.05
 20 
0.5105
 30 
0.0
 0 
VERTEX
 8 
1
 10 
0.1
 20 
0.5202
 30 
0.0
 0 
VERTEX
 8 
1
 10 
0.2
 20 
0.5421
 30 
0.0
 0 
VERTEX
 8 
1
 10 
0.3
 20 
0.5649
 30 
0.0
 0 
VERTEX
 8 
1
 10 
0.4
 20 
0.5868
 30 
0.0
 0 
VERTEX
 8 
1
 10 
0.5
 20 
0.6055
 30 
0.0
 0 
VERTEX
 8 
1
 10 
0.6
 20 
0.6178
 30 
0.0
 0 
VERTEX
 8 
1
 10 
0.7
 20 
0.6202
 30 
0.0
 0 
VERTEX
 8 
1
 10 
0.8
 20 
0.609
 30 
0.0
 0 
VERTEX
 8 
1
 10 
0.85
 20 
0.5965
 30 
0.0
 0 
VERTEX
 8 
1
 10 
0.9
 20 
0.5782
 30 
0.0
 0 
VERTEX
 8 
1
 10 
0.925
 20 
0.5662
 30 
0.0
 0 
VERTEX
 8 
1
 10 
0.95
 20 
0.5518
 30 
0.0
 0 
VERTEX
 8 
1
 10 
0.975
 20 
0.5336
 30 
0.0
 0 
VERTEX
 8 
1
 10 
0.9875
 20 
0.5221
 30 
0.0
 0 
VERTEX
 8 
1
 10 
1
 20 
0.5
 30 
0.0
 0 
VERTEX
 8 
1
 10 
0.9875
 20 
0.4849
 30 
0.0
 0 
VERTEX
 8 
1
 10 
0.975
 20 
0.4814
 30 
0.0
 0 
VERTEX
 8 
1
 10 
0.95
 20 
0.4815
 30 
0.0
 0 
VERTEX
 8 
1
 10 
0.925
 20 
0.48503
 30 
0.0
 0 
VERTEX
 8 
1
 10 
0.9
 20 
0.4887
 30 
0.0
 0 
VERTEX
 8 
1
 10 
0.85
 20 
0.4935
 30 
0.0
 0 
VERTEX
 8 
1
 10 
0.8
 20 
0.4974
 30 
0.0
 0 
VERTEX
 8 
1
 10 
0.7
 20 
0.5007
 30 
0.0
 0 
VERTEX
 8 
1
 10 
0.6
 20 
0.4989
 30 
0.0
 0 
VERTEX
 8 
1
 10 
0.5
 20 
0.4943
 30 
0.0
 0 
VERTEX
 8 
1
 10 
0.4
 20 
0.4886
 30 
0.0
 0 
VERTEX
 8 
1
 10 
0.3
 20 
0.4844
 30 
0.0
 0 
VERTEX
 8 
1
 10 
0.2
 20 
0.4835
 30 
0.0
 0 
VERTEX
 8 
1
 10 
0.1
 20 
0.4873
 30 
0.0
 0 
VERTEX
 8 
1
 10 
0.05
 20 
0.4913
 30 
0.0
 0 
VERTEX
 8 
1
 10 
0.0
 20 
0.4976
 30 
0.0
 0 
SEQEND
 8 
1
 0 
ENDSEC
 0 
EOF
