 0 
SECTION
 2 
ENTITIES
 0 
POLYLINE
 8 
1
 66 
 1 
 10 
0.0
 20 
0.0
 30 
0.0
 0 
VERTEX
 8 
1
 10 
0.0
 20 
0.50225
 30 
0.0
 0 
VERTEX
 8 
1
 10 
0.05
 20 
0.50607
 30 
0.0
 0 
VERTEX
 8 
1
 10 
0.1
 20 
0.51199
 30 
0.0
 0 
VERTEX
 8 
1
 10 
0.19999
 20 
0.52962
 30 
0.0
 0 
VERTEX
 8 
1
 10 
0.29998
 20 
0.55165
 30 
0.0
 0 
VERTEX
 8 
1
 10 
0.39997
 20 
0.57469
 30 
0.0
 0 
VERTEX
 8 
1
 10 
0.49997
 20 
0.59532
 30 
0.0
 0 
VERTEX
 8 
1
 10 
0.59996
 20 
0.60996
 30 
0.0
 0 
VERTEX
 8 
1
 10 
0.69996
 20 
0.6137
 30 
0.0
 0 
VERTEX
 8 
1
 10 
0.79996
 20 
0.60213
 30 
0.0
 0 
VERTEX
 8 
1
 10 
0.84997
 20 
0.58845
 30 
0.0
 0 
VERTEX
 8 
1
 10 
0.89998
 20 
0.56926
 30 
0.0
 0 
VERTEX
 8 
1
 10 
0.92498
 20 
0.55717
 30 
0.0
 0 
VERTEX
 8 
1
 10 
0.94998
 20 
0.54368
 30 
0.0
 0 
VERTEX
 8 
1
 10 
0.97499
 20 
0.52569
 30 
0.0
 0 
VERTEX
 8 
1
 10 
0.98749
 20 
0.5161
 30 
0.0
 0 
VERTEX
 8 
1
 10 
1
 20 
0.5
 30 
0.0
 0 
VERTEX
 8 
1
 10 
0.9875
 20 
0.4942
 30 
0.0
 0 
VERTEX
 8 
1
 10 
0.975
 20 
0.49779
 30 
0.0
 0 
VERTEX
 8 
1
 10 
0.95
 20 
0.50608
 30 
0.0
 0 
VERTEX
 8 
1
 10 
0.92499
 20 
0.51477
 30 
0.0
 0 
VERTEX
 8 
1
 10 
0.89999
 20 
0.52237
 30 
0.0
 0 
VERTEX
 8 
1
 10 
0.84999
 20 
0.53465
 30 
0.0
 0 
VERTEX
 8 
1
 10 
0.79998
 20 
0.54363
 30 
0.0
 0 
VERTEX
 8 
1
 10 
0.69998
 20 
0.551
 30 
0.0
 0 
VERTEX
 8 
1
 10 
0.59998
 20 
0.54756
 30 
0.0
 0 
VERTEX
 8 
1
 10 
0.49999
 20 
0.53672
 30 
0.0
 0 
VERTEX
 8 
1
 10 
0.39999
 20 
0.52269
 30 
0.0
 0 
VERTEX
 8 
1
 10 
0.3
 20 
0.50845
 30 
0.0
 0 
VERTEX
 8 
1
 10 
0.2
 20 
0.49772
 30 
0.0
 0 
VERTEX
 8 
1
 10 
0.1
 20 
0.49299
 30 
0.0
 0 
VERTEX
 8 
1
 10 
0.05
 20 
0.49407
 30 
0.0
 0 
VERTEX
 8 
1
 10 
0.0
 20 
0.49775
 30 
0.0
 0 
SEQEND
 8 
1
 0 
ENDSEC
 0 
EOF
