 0 
SECTION
 2 
ENTITIES
 0 
POLYLINE
 8 
1
 66 
 1 
 10 
0.0
 20 
0.0
 30 
0.0
 0 
VERTEX
 8 
1
 10 
0.0
 20 
0.5024
 30 
0.0
 0 
VERTEX
 8 
1
 10 
0.04999
 20 
0.50707
 30 
0.0
 0 
VERTEX
 8 
1
 10 
0.09998
 20 
0.51404
 30 
0.0
 0 
VERTEX
 8 
1
 10 
0.19995
 20 
0.53388
 30 
0.0
 0 
VERTEX
 8 
1
 10 
0.29992
 20 
0.55762
 30 
0.0
 0 
VERTEX
 8 
1
 10 
0.39989
 20 
0.58206
 30 
0.0
 0 
VERTEX
 8 
1
 10 
0.49985
 20 
0.6043
 30 
0.0
 0 
VERTEX
 8 
1
 10 
0.59984
 20 
0.62144
 30 
0.0
 0 
VERTEX
 8 
1
 10 
0.69983
 20 
0.62328
 30 
0.0
 0 
VERTEX
 8 
1
 10 
0.79984
 20 
0.6102
 30 
0.0
 0 
VERTEX
 8 
1
 10 
0.84987
 20 
0.59629
 30 
0.0
 0 
VERTEX
 8 
1
 10 
0.89989
 20 
0.57576
 30 
0.0
 0 
VERTEX
 8 
1
 10 
0.92491
 20 
0.56279
 30 
0.0
 0 
VERTEX
 8 
1
 10 
0.94993
 20 
0.54833
 30 
0.0
 0 
VERTEX
 8 
1
 10 
0.97496
 20 
0.52886
 30 
0.0
 0 
VERTEX
 8 
1
 10 
0.98748
 20 
0.51778
 30 
0.0
 0 
VERTEX
 8 
1
 10 
1
 20 
0.5
 30 
0.0
 0 
VERTEX
 8 
1
 10 
0.98751
 20 
0.49198
 30 
0.0
 0 
VERTEX
 8 
1
 10 
0.97501
 20 
0.49427
 30 
0.0
 0 
VERTEX
 8 
1
 10 
0.95
 20 
0.50113
 30 
0.0
 0 
VERTEX
 8 
1
 10 
0.92499
 20 
0.50849
 30 
0.0
 0 
VERTEX
 8 
1
 10 
0.89998
 20 
0.51556
 30 
0.0
 0 
VERTEX
 8 
1
 10 
0.84996
 20 
0.52699
 30 
0.0
 0 
VERTEX
 8 
1
 10 
0.79995
 20 
0.53502
 30 
0.0
 0 
VERTEX
 8 
1
 10 
0.69994
 20 
0.54178
 30 
0.0
 0 
VERTEX
 8 
1
 10 
0.59995
 20 
0.53844
 30 
0.0
 0 
VERTEX
 8 
1
 10 
0.49996
 20 
0.5284
 30 
0.0
 0 
VERTEX
 8 
1
 10 
0.39998
 20 
0.51536
 30 
0.0
 0 
VERTEX
 8 
1
 10 
0.3
 20 
0.50272
 30 
0.0
 0 
VERTEX
 8 
1
 10 
0.20001
 20 
0.49358
 30 
0.0
 0 
VERTEX
 8 
1
 10 
0.10001
 20 
0.49074
 30 
0.0
 0 
VERTEX
 8 
1
 10 
0.05001
 20 
0.49307
 30 
0.0
 0 
VERTEX
 8 
1
 10 
0.0
 20 
0.4976
 30 
0.0
 0 
SEQEND
 8 
1
 0 
ENDSEC
 0 
EOF
