 0 
SECTION
 2 
ENTITIES
 0 
POLYLINE
 8 
1
 66 
 1 
 10 
0.0
 20 
0.0
 30 
0.0
 0 
VERTEX
 8 
1
 10 
0.0
 20 
0.5
 30 
0.0
 0 
VERTEX
 8 
1
 10 
0.05
 20 
0.5052
 30 
0.0
 0 
VERTEX
 8 
1
 10 
0.1
 20 
0.510075
 30 
0.0
 0 
VERTEX
 8 
1
 10 
0.2
 20 
0.51989
 30 
0.0
 0 
VERTEX
 8 
1
 10 
0.3
 20 
0.52977
 30 
0.0
 0 
VERTEX
 8 
1
 10 
0.4
 20 
0.539195
 30 
0.0
 0 
VERTEX
 8 
1
 10 
0.5
 20 
0.54719
 30 
0.0
 0 
VERTEX
 8 
1
 10 
0.6
 20 
0.552325
 30 
0.0
 0 
VERTEX
 8 
1
 10 
0.7
 20 
0.55343
 30 
0.0
 0 
VERTEX
 8 
1
 10 
0.75
 20 
0.552065
 30 
0.0
 0 
VERTEX
 8 
1
 10 
0.8
 20 
0.549075
 30 
0.0
 0 
VERTEX
 8 
1
 10 
0.85
 20 
0.54433
 30 
0.0
 0 
VERTEX
 8 
1
 10 
0.9
 20 
0.537115
 30 
0.0
 0 
VERTEX
 8 
1
 10 
0.925
 20 
0.53211
 30 
0.0
 0 
VERTEX
 8 
1
 10 
0.95
 20 
0.526195
 30 
0.0
 0 
VERTEX
 8 
1
 10 
0.975
 20 
0.518265
 30 
0.0
 0 
VERTEX
 8 
1
 10 
0.9875
 20 
0.512805
 30 
0.0
 0 
VERTEX
 8 
1
 10 
0.99
 20 
0.51144
 30 
0.0
 0 
VERTEX
 8 
1
 10 
0.994
 20 
0.508905
 30 
0.0
 0 
VERTEX
 8 
1
 10 
0.996
 20 
0.507345
 30 
0.0
 0 
VERTEX
 8 
1
 10 
0.998
 20 
0.504875
 30 
0.0
 0 
VERTEX
 8 
1
 10 
1
 20 
0.5
 30 
0.0
 0 
VERTEX
 8 
1
 10 
0.9975
 20 
0.493825
 30 
0.0
 0 
VERTEX
 8 
1
 10 
0.995
 20 
0.492005
 30 
0.0
 0 
VERTEX
 8 
1
 10 
0.9925
 20 
0.49038
 30 
0.0
 0 
VERTEX
 8 
1
 10 
0.99
 20 
0.48947
 30 
0.0
 0 
VERTEX
 8 
1
 10 
0.9875
 20 
0.48856
 30 
0.0
 0 
VERTEX
 8 
1
 10 
0.975
 20 
0.4857
 30 
0.0
 0 
VERTEX
 8 
1
 10 
0.95
 20 
0.482255
 30 
0.0
 0 
VERTEX
 8 
1
 10 
0.925
 20 
0.480305
 30 
0.0
 0 
VERTEX
 8 
1
 10 
0.9
 20 
0.47894
 30 
0.0
 0 
VERTEX
 8 
1
 10 
0.85
 20 
0.477445
 30 
0.0
 0 
VERTEX
 8 
1
 10 
0.8
 20 
0.47647
 30 
0.0
 0 
VERTEX
 8 
1
 10 
0.75
 20 
0.475885
 30 
0.0
 0 
VERTEX
 8 
1
 10 
0.7
 20 
0.475365
 30 
0.0
 0 
VERTEX
 8 
1
 10 
0.6
 20 
0.47465
 30 
0.0
 0 
VERTEX
 8 
1
 10 
0.5
 20 
0.47439
 30 
0.0
 0 
VERTEX
 8 
1
 10 
0.4
 20 
0.47517
 30 
0.0
 0 
VERTEX
 8 
1
 10 
0.3
 20 
0.47738
 30 
0.0
 0 
VERTEX
 8 
1
 10 
0.2
 20 
0.481605
 30 
0.0
 0 
VERTEX
 8 
1
 10 
0.1
 20 
0.488495
 30 
0.0
 0 
VERTEX
 8 
1
 10 
0.05
 20 
0.49298
 30 
0.0
 0 
VERTEX
 8 
1
 10 
0.0
 20 
0.5
 30 
0.0
 0 
SEQEND
 8 
1
 0 
ENDSEC
 0 
EOF
