 0 
SECTION
 2 
ENTITIES
 0 
POLYLINE
 8 
1
 66 
 1 
 10 
0.0
 20 
0.0
 30 
0.0
 0 
VERTEX
 8 
1
 10 
0.0
 20 
0.5
 30 
0.0
 0 
VERTEX
 8 
1
 10 
0.1
 20 
0.5133
 30 
0.0
 0 
VERTEX
 8 
1
 10 
0.2
 20 
0.5331
 30 
0.0
 0 
VERTEX
 8 
1
 10 
0.3
 20 
0.5544
 30 
0.0
 0 
VERTEX
 8 
1
 10 
0.4
 20 
0.5782
 30 
0.0
 0 
VERTEX
 8 
1
 10 
0.5
 20 
0.5989
 30 
0.0
 0 
VERTEX
 8 
1
 10 
0.6
 20 
0.6157
 30 
0.0
 0 
VERTEX
 8 
1
 10 
0.7
 20 
0.6241
 30 
0.0
 0 
VERTEX
 8 
1
 10 
0.75
 20 
0.625
 30 
0.0
 0 
VERTEX
 8 
1
 10 
0.8
 20 
0.6212
 30 
0.0
 0 
VERTEX
 8 
1
 10 
0.85
 20 
0.6139
 30 
0.0
 0 
VERTEX
 8 
1
 10 
0.9
 20 
0.5995
 30 
0.0
 0 
VERTEX
 8 
1
 10 
0.925
 20 
0.5875
 30 
0.0
 0 
VERTEX
 8 
1
 10 
0.95
 20 
0.5718
 30 
0.0
 0 
VERTEX
 8 
1
 10 
0.975
 20 
0.5506
 30 
0.0
 0 
VERTEX
 8 
1
 10 
0.9875
 20 
0.535
 30 
0.0
 0 
VERTEX
 8 
1
 10 
1
 20 
0.5
 30 
0.0
 0 
VERTEX
 8 
1
 10 
0.9875
 20 
0.49
 30 
0.0
 0 
VERTEX
 8 
1
 10 
0.975
 20 
0.4871
 30 
0.0
 0 
VERTEX
 8 
1
 10 
0.95
 20 
0.4863
 30 
0.0
 0 
VERTEX
 8 
1
 10 
0.925
 20 
0.488
 30 
0.0
 0 
VERTEX
 8 
1
 10 
0.9
 20 
0.4902
 30 
0.0
 0 
VERTEX
 8 
1
 10 
0.85
 20 
0.4967
 30 
0.0
 0 
VERTEX
 8 
1
 10 
0.8
 20 
0.5174
 30 
0.0
 0 
VERTEX
 8 
1
 10 
0.75
 20 
0.5298
 30 
0.0
 0 
VERTEX
 8 
1
 10 
0.7
 20 
0.5368
 30 
0.0
 0 
VERTEX
 8 
1
 10 
0.6
 20 
0.5443
 30 
0.0
 0 
VERTEX
 8 
1
 10 
0.5
 20 
0.5388
 30 
0.0
 0 
VERTEX
 8 
1
 10 
0.4
 20 
0.5311
 30 
0.0
 0 
VERTEX
 8 
1
 10 
0.3
 20 
0.5194
 30 
0.0
 0 
VERTEX
 8 
1
 10 
0.2
 20 
0.5083
 30 
0.0
 0 
VERTEX
 8 
1
 10 
0.1
 20 
0.5
 30 
0.0
 0 
VERTEX
 8 
1
 10 
0.0
 20 
0.5
 30 
0.0
 0 
SEQEND
 8 
1
 0 
ENDSEC
 0 
EOF
