 0 
SECTION
 2 
ENTITIES
 0 
POLYLINE
 8 
1
 66 
 1 
 10 
0.0
 20 
0.0
 30 
0.0
 0 
VERTEX
 8 
1
 10 
0.0
 20 
0.5
 30 
0.0
 0 
VERTEX
 8 
1
 10 
0.1
 20 
0.5125
 30 
0.0
 0 
VERTEX
 8 
1
 10 
0.2
 20 
0.5244
 30 
0.0
 0 
VERTEX
 8 
1
 10 
0.3
 20 
0.537
 30 
0.0
 0 
VERTEX
 8 
1
 10 
0.4
 20 
0.552
 30 
0.0
 0 
VERTEX
 8 
1
 10 
0.5
 20 
0.5656
 30 
0.0
 0 
VERTEX
 8 
1
 10 
0.6
 20 
0.577
 30 
0.0
 0 
VERTEX
 8 
1
 10 
0.7
 20 
0.5857
 30 
0.0
 0 
VERTEX
 8 
1
 10 
0.75
 20 
0.5895
 30 
0.0
 0 
VERTEX
 8 
1
 10 
0.8
 20 
0.5927
 30 
0.0
 0 
VERTEX
 8 
1
 10 
0.85
 20 
0.5933
 30 
0.0
 0 
VERTEX
 8 
1
 10 
0.9
 20 
0.5877
 30 
0.0
 0 
VERTEX
 8 
1
 10 
0.925
 20 
0.5803
 30 
0.0
 0 
VERTEX
 8 
1
 10 
0.95
 20 
0.5692
 30 
0.0
 0 
VERTEX
 8 
1
 10 
0.975
 20 
0.5514
 30 
0.0
 0 
VERTEX
 8 
1
 10 
0.9875
 20 
0.5389
 30 
0.0
 0 
VERTEX
 8 
1
 10 
1
 20 
0.5
 30 
0.0
 0 
VERTEX
 8 
1
 10 
0.9875
 20 
0.4917
 30 
0.0
 0 
VERTEX
 8 
1
 10 
0.975
 20 
0.4886
 30 
0.0
 0 
VERTEX
 8 
1
 10 
0.95
 20 
0.4846
 30 
0.0
 0 
VERTEX
 8 
1
 10 
0.925
 20 
0.4815
 30 
0.0
 0 
VERTEX
 8 
1
 10 
0.9
 20 
0.4789
 30 
0.0
 0 
VERTEX
 8 
1
 10 
0.85
 20 
0.4743
 30 
0.0
 0 
VERTEX
 8 
1
 10 
0.8
 20 
0.4705
 30 
0.0
 0 
VERTEX
 8 
1
 10 
0.75
 20 
0.4673
 30 
0.0
 0 
VERTEX
 8 
1
 10 
0.7
 20 
0.465
 30 
0.0
 0 
VERTEX
 8 
1
 10 
0.6
 20 
0.4608
 30 
0.0
 0 
VERTEX
 8 
1
 10 
0.5
 20 
0.4597
 30 
0.0
 0 
VERTEX
 8 
1
 10 
0.4
 20 
0.4608
 30 
0.0
 0 
VERTEX
 8 
1
 10 
0.3
 20 
0.464
 30 
0.0
 0 
VERTEX
 8 
1
 10 
0.2
 20 
0.4726
 30 
0.0
 0 
VERTEX
 8 
1
 10 
0.1
 20 
0.485
 30 
0.0
 0 
VERTEX
 8 
1
 10 
0.0
 20 
0.5
 30 
0.0
 0 
SEQEND
 8 
1
 0 
ENDSEC
 0 
EOF
