 0 
SECTION
 2 
ENTITIES
 0 
POLYLINE
 8 
1
 66 
 1 
 10 
0.0
 20 
0.0
 30 
0.0
 0 
VERTEX
 8 
1
 10 
0.0
 20 
0.5
 30 
0.0
 0 
VERTEX
 8 
1
 10 
0.1
 20 
0.5104
 30 
0.0
 0 
VERTEX
 8 
1
 10 
0.2
 20 
0.5203
 30 
0.0
 0 
VERTEX
 8 
1
 10 
0.3
 20 
0.5308
 30 
0.0
 0 
VERTEX
 8 
1
 10 
0.4
 20 
0.5433
 30 
0.0
 0 
VERTEX
 8 
1
 10 
0.5
 20 
0.5547
 30 
0.0
 0 
VERTEX
 8 
1
 10 
0.6
 20 
0.5642
 30 
0.0
 0 
VERTEX
 8 
1
 10 
0.7
 20 
0.5714
 30 
0.0
 0 
VERTEX
 8 
1
 10 
0.75
 20 
0.5746
 30 
0.0
 0 
VERTEX
 8 
1
 10 
0.8
 20 
0.5773
 30 
0.0
 0 
VERTEX
 8 
1
 10 
0.85
 20 
0.5777
 30 
0.0
 0 
VERTEX
 8 
1
 10 
0.9
 20 
0.5731
 30 
0.0
 0 
VERTEX
 8 
1
 10 
0.925
 20 
0.5669
 30 
0.0
 0 
VERTEX
 8 
1
 10 
0.95
 20 
0.5577
 30 
0.0
 0 
VERTEX
 8 
1
 10 
0.975
 20 
0.5428
 30 
0.0
 0 
VERTEX
 8 
1
 10 
0.9875
 20 
0.5324
 30 
0.0
 0 
VERTEX
 8 
1
 10 
1
 20 
0.5
 30 
0.0
 0 
VERTEX
 8 
1
 10 
0.9875
 20 
0.4931
 30 
0.0
 0 
VERTEX
 8 
1
 10 
0.975
 20 
0.4905
 30 
0.0
 0 
VERTEX
 8 
1
 10 
0.95
 20 
0.4872
 30 
0.0
 0 
VERTEX
 8 
1
 10 
0.925
 20 
0.4846
 30 
0.0
 0 
VERTEX
 8 
1
 10 
0.9
 20 
0.4824
 30 
0.0
 0 
VERTEX
 8 
1
 10 
0.85
 20 
0.4786
 30 
0.0
 0 
VERTEX
 8 
1
 10 
0.8
 20 
0.4754
 30 
0.0
 0 
VERTEX
 8 
1
 10 
0.75
 20 
0.4728
 30 
0.0
 0 
VERTEX
 8 
1
 10 
0.7
 20 
0.4708
 30 
0.0
 0 
VERTEX
 8 
1
 10 
0.6
 20 
0.4673
 30 
0.0
 0 
VERTEX
 8 
1
 10 
0.5
 20 
0.4664
 30 
0.0
 0 
VERTEX
 8 
1
 10 
0.4
 20 
0.4673
 30 
0.0
 0 
VERTEX
 8 
1
 10 
0.3
 20 
0.47
 30 
0.0
 0 
VERTEX
 8 
1
 10 
0.2
 20 
0.4772
 30 
0.0
 0 
VERTEX
 8 
1
 10 
0.1
 20 
0.4875
 30 
0.0
 0 
VERTEX
 8 
1
 10 
0.0
 20 
0.5
 30 
0.0
 0 
SEQEND
 8 
1
 0 
ENDSEC
 0 
EOF
