 0 
SECTION
 2 
ENTITIES
 0 
POLYLINE
 8 
1
 66 
 1 
 10 
0.0
 20 
0.0
 30 
0.0
 0 
VERTEX
 8 
1
 10 
0.0
 20 
0.5
 30 
0.0
 0 
VERTEX
 8 
1
 10 
0.0035800
 20 
0.49997
 30 
0.0
 0 
VERTEX
 8 
1
 10 
0.01432
 20 
0.50016
 30 
0.0
 0 
VERTEX
 8 
1
 10 
0.03202
 20 
0.5012
 30 
0.0
 0 
VERTEX
 8 
1
 10 
0.05611
 20 
0.50367
 30 
0.0
 0 
VERTEX
 8 
1
 10 
0.08567
 20 
0.50783
 30 
0.0
 0 
VERTEX
 8 
1
 10 
0.11982
 20 
0.51355
 30 
0.0
 0 
VERTEX
 8 
1
 10 
0.15779
 20 
0.52055
 30 
0.0
 0 
VERTEX
 8 
1
 10 
0.19889
 20 
0.52852
 30 
0.0
 0 
VERTEX
 8 
1
 10 
0.24248
 20 
0.53709
 30 
0.0
 0 
VERTEX
 8 
1
 10 
0.28796
 20 
0.54591
 30 
0.0
 0 
VERTEX
 8 
1
 10 
0.33478
 20 
0.55458
 30 
0.0
 0 
VERTEX
 8 
1
 10 
0.38242
 20 
0.56278
 30 
0.0
 0 
VERTEX
 8 
1
 10 
0.43029
 20 
0.5701
 30 
0.0
 0 
VERTEX
 8 
1
 10 
0.47802
 20 
0.57594
 30 
0.0
 0 
VERTEX
 8 
1
 10 
0.52568
 20 
0.57997
 30 
0.0
 0 
VERTEX
 8 
1
 10 
0.5732
 20 
0.58236
 30 
0.0
 0 
VERTEX
 8 
1
 10 
0.62016
 20 
0.58337
 30 
0.0
 0 
VERTEX
 8 
1
 10 
0.66601
 20 
0.58307
 30 
0.0
 0 
VERTEX
 8 
1
 10 
0.71027
 20 
0.58148
 30 
0.0
 0 
VERTEX
 8 
1
 10 
0.7525
 20 
0.57859
 30 
0.0
 0 
VERTEX
 8 
1
 10 
0.79235
 20 
0.57444
 30 
0.0
 0 
VERTEX
 8 
1
 10 
0.82948
 20 
0.5691
 30 
0.0
 0 
VERTEX
 8 
1
 10 
0.86359
 20 
0.56267
 30 
0.0
 0 
VERTEX
 8 
1
 10 
0.89443
 20 
0.55533
 30 
0.0
 0 
VERTEX
 8 
1
 10 
0.92172
 20 
0.54726
 30 
0.0
 0 
VERTEX
 8 
1
 10 
0.94523
 20 
0.53866
 30 
0.0
 0 
VERTEX
 8 
1
 10 
0.96479
 20 
0.52977
 30 
0.0
 0 
VERTEX
 8 
1
 10 
0.98023
 20 
0.52088
 30 
0.0
 0 
VERTEX
 8 
1
 10 
0.99142
 20 
0.51235
 30 
0.0
 0 
VERTEX
 8 
1
 10 
0.99816
 20 
0.50466
 30 
0.0
 0 
VERTEX
 8 
1
 10 
0.99985
 20 
0.49878
 30 
0.0
 0 
VERTEX
 8 
1
 10 
0.99548
 20 
0.49392
 30 
0.0
 0 
VERTEX
 8 
1
 10 
0.98518
 20 
0.48893
 30 
0.0
 0 
VERTEX
 8 
1
 10 
0.96977
 20 
0.48435
 30 
0.0
 0 
VERTEX
 8 
1
 10 
0.94932
 20 
0.48045
 30 
0.0
 0 
VERTEX
 8 
1
 10 
0.92393
 20 
0.47729
 30 
0.0
 0 
VERTEX
 8 
1
 10 
0.89378
 20 
0.47488
 30 
0.0
 0 
VERTEX
 8 
1
 10 
0.85911
 20 
0.47318
 30 
0.0
 0 
VERTEX
 8 
1
 10 
0.82024
 20 
0.4721
 30 
0.0
 0 
VERTEX
 8 
1
 10 
0.77756
 20 
0.47155
 30 
0.0
 0 
VERTEX
 8 
1
 10 
0.73157
 20 
0.47142
 30 
0.0
 0 
VERTEX
 8 
1
 10 
0.68282
 20 
0.47162
 30 
0.0
 0 
VERTEX
 8 
1
 10 
0.63193
 20 
0.47209
 30 
0.0
 0 
VERTEX
 8 
1
 10 
0.5795
 20 
0.47283
 30 
0.0
 0 
VERTEX
 8 
1
 10 
0.52615
 20 
0.47381
 30 
0.0
 0 
VERTEX
 8 
1
 10 
0.47249
 20 
0.47501
 30 
0.0
 0 
VERTEX
 8 
1
 10 
0.41915
 20 
0.47639
 30 
0.0
 0 
VERTEX
 8 
1
 10 
0.36673
 20 
0.47794
 30 
0.0
 0 
VERTEX
 8 
1
 10 
0.31585
 20 
0.47962
 30 
0.0
 0 
VERTEX
 8 
1
 10 
0.2671
 20 
0.48142
 30 
0.0
 0 
VERTEX
 8 
1
 10 
0.22104
 20 
0.4833
 30 
0.0
 0 
VERTEX
 8 
1
 10 
0.17822
 20 
0.48525
 30 
0.0
 0 
VERTEX
 8 
1
 10 
0.13913
 20 
0.48725
 30 
0.0
 0 
VERTEX
 8 
1
 10 
0.10425
 20 
0.4893
 30 
0.0
 0 
VERTEX
 8 
1
 10 
0.07398
 20 
0.49138
 30 
0.0
 0 
VERTEX
 8 
1
 10 
0.04871
 20 
0.49356
 30 
0.0
 0 
VERTEX
 8 
1
 10 
0.02851
 20 
0.49595
 30 
0.0
 0 
VERTEX
 8 
1
 10 
0.01328
 20 
0.49819
 30 
0.0
 0 
VERTEX
 8 
1
 10 
0.0034499
 20 
0.49959
 30 
0.0
 0 
VERTEX
 8 
1
 10 
0.0
 20 
0.5
 30 
0.0
 0 
SEQEND
 8 
1
 0 
ENDSEC
 0 
EOF
