 0 
SECTION
 2 
ENTITIES
 0 
POLYLINE
 8 
1
 66 
 1 
 10 
0.0
 20 
0.0
 30 
0.0
 0 
VERTEX
 8 
1
 10 
1
 20 
0.8
 30 
0.0
 0 
VERTEX
 8 
1
 10 
0.0
 20 
0.5
 30 
0.0
 0 
VERTEX
 8 
1
 10 
0.0032499
 20 
0.50027
 30 
0.0
 0 
VERTEX
 8 
1
 10 
0.01283
 20 
0.5012
 30 
0.0
 0 
VERTEX
 8 
1
 10 
0.02834
 20 
0.50296
 30 
0.0
 0 
VERTEX
 8 
1
 10 
0.04935
 20 
0.50558
 30 
0.0
 0 
VERTEX
 8 
1
 10 
0.07539
 20 
0.50901
 30 
0.0
 0 
VERTEX
 8 
1
 10 
0.106
 20 
0.51315
 30 
0.0
 0 
VERTEX
 8 
1
 10 
0.14066
 20 
0.51782
 30 
0.0
 0 
VERTEX
 8 
1
 10 
0.1789
 20 
0.52284
 30 
0.0
 0 
VERTEX
 8 
1
 10 
0.22021
 20 
0.52799
 30 
0.0
 0 
VERTEX
 8 
1
 10 
0.26416
 20 
0.53299
 30 
0.0
 0 
VERTEX
 8 
1
 10 
0.31035
 20 
0.53767
 30 
0.0
 0 
VERTEX
 8 
1
 10 
0.35837
 20 
0.54192
 30 
0.0
 0 
VERTEX
 8 
1
 10 
0.40778
 20 
0.54569
 30 
0.0
 0 
VERTEX
 8 
1
 10 
0.45807
 20 
0.54894
 30 
0.0
 0 
VERTEX
 8 
1
 10 
0.50863
 20 
0.55164
 30 
0.0
 0 
VERTEX
 8 
1
 10 
0.55893
 20 
0.55365
 30 
0.0
 0 
VERTEX
 8 
1
 10 
0.60849
 20 
0.55491
 30 
0.0
 0 
VERTEX
 8 
1
 10 
0.65681
 20 
0.5554
 30 
0.0
 0 
VERTEX
 8 
1
 10 
0.70337
 20 
0.55504
 30 
0.0
 0 
VERTEX
 8 
1
 10 
0.74776
 20 
0.55382
 30 
0.0
 0 
VERTEX
 8 
1
 10 
0.78954
 20 
0.55177
 30 
0.0
 0 
VERTEX
 8 
1
 10 
0.82828
 20 
0.54887
 30 
0.0
 0 
VERTEX
 8 
1
 10 
0.86365
 20 
0.54511
 30 
0.0
 0 
VERTEX
 8 
1
 10 
0.89536
 20 
0.54056
 30 
0.0
 0 
VERTEX
 8 
1
 10 
0.92317
 20 
0.53527
 30 
0.0
 0 
VERTEX
 8 
1
 10 
0.94688
 20 
0.52936
 30 
0.0
 0 
VERTEX
 8 
1
 10 
0.96636
 20 
0.52297
 30 
0.0
 0 
VERTEX
 8 
1
 10 
0.98151
 20 
0.5163
 30 
0.0
 0 
VERTEX
 8 
1
 10 
0.99228
 20 
0.50966
 30 
0.0
 0 
VERTEX
 8 
1
 10 
0.99858
 20 
0.50349
 30 
0.0
 0 
VERTEX
 8 
1
 10 
1
 20 
0.5
 30 
0.0
 0 
VERTEX
 8 
1
 10 
0.99975
 20 
0.49863
 30 
0.0
 0 
VERTEX
 8 
1
 10 
0.99517
 20 
0.4945
 30 
0.0
 0 
VERTEX
 8 
1
 10 
0.98508
 20 
0.49028
 30 
0.0
 0 
VERTEX
 8 
1
 10 
0.96993
 20 
0.48638
 30 
0.0
 0 
VERTEX
 8 
1
 10 
0.94988
 20 
0.48297
 30 
0.0
 0 
VERTEX
 8 
1
 10 
0.92507
 20 
0.48019
 30 
0.0
 0 
VERTEX
 8 
1
 10 
0.89569
 20 
0.47808
 30 
0.0
 0 
VERTEX
 8 
1
 10 
0.86194
 20 
0.47668
 30 
0.0
 0 
VERTEX
 8 
1
 10 
0.82411
 20 
0.47591
 30 
0.0
 0 
VERTEX
 8 
1
 10 
0.78258
 20 
0.47574
 30 
0.0
 0 
VERTEX
 8 
1
 10 
0.73776
 20 
0.47609
 30 
0.0
 0 
VERTEX
 8 
1
 10 
0.69015
 20 
0.47691
 30 
0.0
 0 
VERTEX
 8 
1
 10 
0.64025
 20 
0.47811
 30 
0.0
 0 
VERTEX
 8 
1
 10 
0.58863
 20 
0.47964
 30 
0.0
 0 
VERTEX
 8 
1
 10 
0.53584
 20 
0.48143
 30 
0.0
 0 
VERTEX
 8 
1
 10 
0.48249
 20 
0.48341
 30 
0.0
 0 
VERTEX
 8 
1
 10 
0.42918
 20 
0.4855
 30 
0.0
 0 
VERTEX
 8 
1
 10 
0.37652
 20 
0.48765
 30 
0.0
 0 
VERTEX
 8 
1
 10 
0.32511
 20 
0.48976
 30 
0.0
 0 
VERTEX
 8 
1
 10 
0.27557
 20 
0.49178
 30 
0.0
 0 
VERTEX
 8 
1
 10 
0.22849
 20 
0.49365
 30 
0.0
 0 
VERTEX
 8 
1
 10 
0.18445
 20 
0.49531
 30 
0.0
 0 
VERTEX
 8 
1
 10 
0.14401
 20 
0.49671
 30 
0.0
 0 
VERTEX
 8 
1
 10 
0.1077
 20 
0.49783
 30 
0.0
 0 
VERTEX
 8 
1
 10 
0.07601
 20 
0.49866
 30 
0.0
 0 
VERTEX
 8 
1
 10 
0.04938
 20 
0.49924
 30 
0.0
 0 
VERTEX
 8 
1
 10 
0.0282
 20 
0.49961
 30 
0.0
 0 
VERTEX
 8 
1
 10 
0.01276
 20 
0.49985
 30 
0.0
 0 
VERTEX
 8 
1
 10 
0.0032499
 20 
0.49997
 30 
0.0
 0 
VERTEX
 8 
1
 10 
0.0
 20 
0.5
 30 
0.0
 0 
SEQEND
 8 
1
 0 
ENDSEC
 0 
EOF
