 0 
SECTION
 2 
ENTITIES
 0 
POLYLINE
 8 
1
 66 
 1 
 10 
0.0
 20 
0.0
 30 
0.0
 0 
VERTEX
 8 
1
 10 
0.0
 20 
0.5
 30 
0.0
 0 
VERTEX
 8 
1
 10 
0.0032799
 20 
0.50035
 30 
0.0
 0 
VERTEX
 8 
1
 10 
0.01294
 20 
0.5015
 30 
0.0
 0 
VERTEX
 8 
1
 10 
0.02855
 20 
0.50363
 30 
0.0
 0 
VERTEX
 8 
1
 10 
0.04965
 20 
0.50676
 30 
0.0
 0 
VERTEX
 8 
1
 10 
0.07577
 20 
0.51084
 30 
0.0
 0 
VERTEX
 8 
1
 10 
0.10639
 20 
0.51573
 30 
0.0
 0 
VERTEX
 8 
1
 10 
0.14102
 20 
0.52123
 30 
0.0
 0 
VERTEX
 8 
1
 10 
0.17914
 20 
0.52714
 30 
0.0
 0 
VERTEX
 8 
1
 10 
0.22027
 20 
0.53319
 30 
0.0
 0 
VERTEX
 8 
1
 10 
0.26396
 20 
0.5391
 30 
0.0
 0 
VERTEX
 8 
1
 10 
0.30983
 20 
0.54467
 30 
0.0
 0 
VERTEX
 8 
1
 10 
0.35748
 20 
0.54977
 30 
0.0
 0 
VERTEX
 8 
1
 10 
0.40646
 20 
0.55432
 30 
0.0
 0 
VERTEX
 8 
1
 10 
0.45626
 20 
0.5583
 30 
0.0
 0 
VERTEX
 8 
1
 10 
0.50628
 20 
0.56161
 30 
0.0
 0 
VERTEX
 8 
1
 10 
0.55599
 20 
0.56409
 30 
0.0
 0 
VERTEX
 8 
1
 10 
0.60497
 20 
0.56565
 30 
0.0
 0 
VERTEX
 8 
1
 10 
0.6527
 20 
0.56627
 30 
0.0
 0 
VERTEX
 8 
1
 10 
0.69872
 20 
0.56586
 30 
0.0
 0 
VERTEX
 8 
1
 10 
0.74266
 20 
0.56439
 30 
0.0
 0 
VERTEX
 8 
1
 10 
0.78411
 20 
0.56192
 30 
0.0
 0 
VERTEX
 8 
1
 10 
0.82265
 20 
0.55844
 30 
0.0
 0 
VERTEX
 8 
1
 10 
0.85797
 20 
0.55398
 30 
0.0
 0 
VERTEX
 8 
1
 10 
0.88981
 20 
0.54861
 30 
0.0
 0 
VERTEX
 8 
1
 10 
0.91792
 20 
0.54245
 30 
0.0
 0 
VERTEX
 8 
1
 10 
0.94208
 20 
0.53562
 30 
0.0
 0 
VERTEX
 8 
1
 10 
0.96217
 20 
0.52829
 30 
0.0
 0 
VERTEX
 8 
1
 10 
0.97807
 20 
0.52067
 30 
0.0
 0 
VERTEX
 8 
1
 10 
0.98974
 20 
0.51308
 30 
0.0
 0 
VERTEX
 8 
1
 10 
0.99711
 20 
0.50595
 30 
0.0
 0 
VERTEX
 8 
1
 10 
0.999
 20 
0.50004
 30 
0.0
 0 
VERTEX
 8 
1
 10 
1
 20 
0.5
 30 
0.0
 0 
VERTEX
 8 
1
 10 
0.99719
 20 
0.49538
 30 
0.0
 0 
VERTEX
 8 
1
 10 
0.98829
 20 
0.49118
 30 
0.0
 0 
VERTEX
 8 
1
 10 
0.97417
 20 
0.4873
 30 
0.0
 0 
VERTEX
 8 
1
 10 
0.955
 20 
0.48396
 30 
0.0
 0 
VERTEX
 8 
1
 10 
0.93094
 20 
0.48127
 30 
0.0
 0 
VERTEX
 8 
1
 10 
0.90217
 20 
0.47926
 30 
0.0
 0 
VERTEX
 8 
1
 10 
0.86894
 20 
0.47794
 30 
0.0
 0 
VERTEX
 8 
1
 10 
0.83153
 20 
0.47729
 30 
0.0
 0 
VERTEX
 8 
1
 10 
0.79031
 20 
0.47726
 30 
0.0
 0 
VERTEX
 8 
1
 10 
0.74568
 20 
0.47777
 30 
0.0
 0 
VERTEX
 8 
1
 10 
0.69812
 20 
0.47874
 30 
0.0
 0 
VERTEX
 8 
1
 10 
0.64816
 20 
0.4801
 30 
0.0
 0 
VERTEX
 8 
1
 10 
0.59634
 20 
0.48176
 30 
0.0
 0 
VERTEX
 8 
1
 10 
0.54353
 20 
0.48366
 30 
0.0
 0 
VERTEX
 8 
1
 10 
0.48952
 20 
0.48571
 30 
0.0
 0 
VERTEX
 8 
1
 10 
0.43572
 20 
0.48784
 30 
0.0
 0 
VERTEX
 8 
1
 10 
0.3825
 20 
0.48997
 30 
0.0
 0 
VERTEX
 8 
1
 10 
0.33048
 20 
0.49203
 30 
0.0
 0 
VERTEX
 8 
1
 10 
0.28029
 20 
0.49395
 30 
0.0
 0 
VERTEX
 8 
1
 10 
0.23254
 20 
0.49567
 30 
0.0
 0 
VERTEX
 8 
1
 10 
0.18782
 20 
0.49714
 30 
0.0
 0 
VERTEX
 8 
1
 10 
0.14671
 20 
0.49831
 30 
0.0
 0 
VERTEX
 8 
1
 10 
0.10977
 20 
0.49918
 30 
0.0
 0 
VERTEX
 8 
1
 10 
0.0775
 20 
0.49974
 30 
0.0
 0 
VERTEX
 8 
1
 10 
0.05036
 20 
0.50003
 30 
0.0
 0 
VERTEX
 8 
1
 10 
0.028750
 20 
0.50012
 30 
0.0
 0 
VERTEX
 8 
1
 10 
0.012989
 20 
0.50011
 30 
0.0
 0 
VERTEX
 8 
1
 10 
0.0032999
 20 
0.50005
 30 
0.0
 0 
VERTEX
 8 
1
 10 
0.0
 20 
0.5
 30 
0.0
 0 
SEQEND
 8 
1
 0 
ENDSEC
 0 
EOF
