 0 
SECTION
 2 
ENTITIES
 0 
POLYLINE
 8 
1
 66 
 1 
 10 
0.0
 20 
0.0
 30 
0.0
 0 
VERTEX
 8 
1
 10 
0.0
 20 
0.5
 30 
0.0
 0 
VERTEX
 8 
1
 10 
0.00322
 20 
0.50014
 30 
0.0
 0 
VERTEX
 8 
1
 10 
0.012769
 20 
0.50065
 30 
0.0
 0 
VERTEX
 8 
1
 10 
0.0284
 20 
0.50169
 30 
0.0
 0 
VERTEX
 8 
1
 10 
0.04979
 20 
0.50339
 30 
0.0
 0 
VERTEX
 8 
1
 10 
0.07657
 20 
0.50579
 30 
0.0
 0 
VERTEX
 8 
1
 10 
0.10831
 20 
0.50892
 30 
0.0
 0 
VERTEX
 8 
1
 10 
0.14451
 20 
0.51279
 30 
0.0
 0 
VERTEX
 8 
1
 10 
0.18458
 20 
0.51741
 30 
0.0
 0 
VERTEX
 8 
1
 10 
0.22783
 20 
0.52267
 30 
0.0
 0 
VERTEX
 8 
1
 10 
0.2736
 20 
0.52833
 30 
0.0
 0 
VERTEX
 8 
1
 10 
0.32128
 20 
0.53415
 30 
0.0
 0 
VERTEX
 8 
1
 10 
0.3703
 20 
0.53987
 30 
0.0
 0 
VERTEX
 8 
1
 10 
0.42012
 20 
0.54524
 30 
0.0
 0 
VERTEX
 8 
1
 10 
0.47023
 20 
0.54998
 30 
0.0
 0 
VERTEX
 8 
1
 10 
0.52021
 20 
0.55389
 30 
0.0
 0 
VERTEX
 8 
1
 10 
0.56964
 20 
0.55682
 30 
0.0
 0 
VERTEX
 8 
1
 10 
0.61812
 20 
0.55867
 30 
0.0
 0 
VERTEX
 8 
1
 10 
0.66526
 20 
0.5594
 30 
0.0
 0 
VERTEX
 8 
1
 10 
0.7107
 20 
0.55901
 30 
0.0
 0 
VERTEX
 8 
1
 10 
0.75402
 20 
0.55756
 30 
0.0
 0 
VERTEX
 8 
1
 10 
0.79481
 20 
0.5551
 30 
0.0
 0 
VERTEX
 8 
1
 10 
0.83269
 20 
0.55167
 30 
0.0
 0 
VERTEX
 8 
1
 10 
0.86733
 20 
0.54735
 30 
0.0
 0 
VERTEX
 8 
1
 10 
0.89843
 20 
0.54222
 30 
0.0
 0 
VERTEX
 8 
1
 10 
0.92572
 20 
0.53641
 30 
0.0
 0 
VERTEX
 8 
1
 10 
0.94898
 20 
0.53003
 30 
0.0
 0 
VERTEX
 8 
1
 10 
0.96803
 20 
0.52325
 30 
0.0
 0 
VERTEX
 8 
1
 10 
0.98275
 20 
0.51627
 30 
0.0
 0 
VERTEX
 8 
1
 10 
0.99311
 20 
0.50937
 30 
0.0
 0 
VERTEX
 8 
1
 10 
0.99899
 20 
0.50305
 30 
0.0
 0 
VERTEX
 8 
1
 10 
0.99951
 20 
0.49799
 30 
0.0
 0 
VERTEX
 8 
1
 10 
0.9942
 20 
0.49353
 30 
0.0
 0 
VERTEX
 8 
1
 10 
0.98357
 20 
0.489
 30 
0.0
 0 
VERTEX
 8 
1
 10 
0.96793
 20 
0.48478
 30 
0.0
 0 
VERTEX
 8 
1
 10 
0.94749
 20 
0.48106
 30 
0.0
 0 
VERTEX
 8 
1
 10 
0.92241
 20 
0.47801
 30 
0.0
 0 
VERTEX
 8 
1
 10 
0.89282
 20 
0.47575
 30 
0.0
 0 
VERTEX
 8 
1
 10 
0.85886
 20 
0.47431
 30 
0.0
 0 
VERTEX
 8 
1
 10 
0.82078
 20 
0.47354
 30 
0.0
 0 
VERTEX
 8 
1
 10 
0.77899
 20 
0.47335
 30 
0.0
 0 
VERTEX
 8 
1
 10 
0.73394
 20 
0.47366
 30 
0.0
 0 
VERTEX
 8 
1
 10 
0.68615
 20 
0.47441
 30 
0.0
 0 
VERTEX
 8 
1
 10 
0.63616
 20 
0.47555
 30 
0.0
 0 
VERTEX
 8 
1
 10 
0.5845
 20 
0.47703
 30 
0.0
 0 
VERTEX
 8 
1
 10 
0.53176
 20 
0.47878
 30 
0.0
 0 
VERTEX
 8 
1
 10 
0.47853
 20 
0.48074
 30 
0.0
 0 
VERTEX
 8 
1
 10 
0.42541
 20 
0.48283
 30 
0.0
 0 
VERTEX
 8 
1
 10 
0.37304
 20 
0.48502
 30 
0.0
 0 
VERTEX
 8 
1
 10 
0.32198
 20 
0.48725
 30 
0.0
 0 
VERTEX
 8 
1
 10 
0.27282
 20 
0.48947
 30 
0.0
 0 
VERTEX
 8 
1
 10 
0.22612
 20 
0.49156
 30 
0.0
 0 
VERTEX
 8 
1
 10 
0.18245
 20 
0.49349
 30 
0.0
 0 
VERTEX
 8 
1
 10 
0.14239
 20 
0.49517
 30 
0.0
 0 
VERTEX
 8 
1
 10 
0.10643
 20 
0.49659
 30 
0.0
 0 
VERTEX
 8 
1
 10 
0.07507
 20 
0.49772
 30 
0.0
 0 
VERTEX
 8 
1
 10 
0.048730
 20 
0.49859
 30 
0.0
 0 
VERTEX
 8 
1
 10 
0.02779
 20 
0.49922
 30 
0.0
 0 
VERTEX
 8 
1
 10 
0.01255
 20 
0.49966
 30 
0.0
 0 
VERTEX
 8 
1
 10 
0.0031900
 20 
0.49992
 30 
0.0
 0 
VERTEX
 8 
1
 10 
0.0
 20 
0.5
 30 
0.0
 0 
SEQEND
 8 
1
 0 
ENDSEC
 0 
EOF
