 0 
SECTION
 2 
ENTITIES
 0 
POLYLINE
 8 
1
 66 
 1 
 10 
0.0
 20 
0.0
 30 
0.0
 0 
VERTEX
 8 
1
 10 
0.0
 20 
0.5
 30 
0.0
 0 
VERTEX
 8 
1
 10 
0.0032799
 20 
0.49994
 30 
0.0
 0 
VERTEX
 8 
1
 10 
0.013159
 20 
0.49995
 30 
0.0
 0 
VERTEX
 8 
1
 10 
0.02949
 20 
0.50042
 30 
0.0
 0 
VERTEX
 8 
1
 10 
0.05188
 20 
0.50163
 30 
0.0
 0 
VERTEX
 8 
1
 10 
0.07989
 20 
0.50371
 30 
0.0
 0 
VERTEX
 8 
1
 10 
0.11297
 20 
0.50681
 30 
0.0
 0 
VERTEX
 8 
1
 10 
0.15044
 20 
0.51096
 30 
0.0
 0 
VERTEX
 8 
1
 10 
0.19158
 20 
0.51602
 30 
0.0
 0 
VERTEX
 8 
1
 10 
0.23572
 20 
0.52179
 30 
0.0
 0 
VERTEX
 8 
1
 10 
0.28219
 20 
0.52802
 30 
0.0
 0 
VERTEX
 8 
1
 10 
0.33035
 20 
0.5344
 30 
0.0
 0 
VERTEX
 8 
1
 10 
0.37965
 20 
0.54055
 30 
0.0
 0 
VERTEX
 8 
1
 10 
0.42967
 20 
0.54619
 30 
0.0
 0 
VERTEX
 8 
1
 10 
0.47998
 20 
0.5511
 30 
0.0
 0 
VERTEX
 8 
1
 10 
0.53019
 20 
0.55515
 30 
0.0
 0 
VERTEX
 8 
1
 10 
0.57988
 20 
0.5583
 30 
0.0
 0 
VERTEX
 8 
1
 10 
0.62854
 20 
0.56051
 30 
0.0
 0 
VERTEX
 8 
1
 10 
0.67569
 20 
0.56171
 30 
0.0
 0 
VERTEX
 8 
1
 10 
0.72087
 20 
0.56186
 30 
0.0
 0 
VERTEX
 8 
1
 10 
0.76367
 20 
0.56089
 30 
0.0
 0 
VERTEX
 8 
1
 10 
0.80371
 20 
0.55879
 30 
0.0
 0 
VERTEX
 8 
1
 10 
0.84067
 20 
0.55557
 30 
0.0
 0 
VERTEX
 8 
1
 10 
0.87427
 20 
0.55127
 30 
0.0
 0 
VERTEX
 8 
1
 10 
0.90423
 20 
0.546
 30 
0.0
 0 
VERTEX
 8 
1
 10 
0.93035
 20 
0.53985
 30 
0.0
 0 
VERTEX
 8 
1
 10 
0.95245
 20 
0.53293
 30 
0.0
 0 
VERTEX
 8 
1
 10 
0.97046
 20 
0.52544
 30 
0.0
 0 
VERTEX
 8 
1
 10 
0.98432
 20 
0.51766
 30 
0.0
 0 
VERTEX
 8 
1
 10 
0.99398
 20 
0.50997
 30 
0.0
 0 
VERTEX
 8 
1
 10 
0.99933
 20 
0.50297
 30 
0.0
 0 
VERTEX
 8 
1
 10 
0.9934
 20 
0.49251
 30 
0.0
 0 
VERTEX
 8 
1
 10 
0.98207
 20 
0.48752
 30 
0.0
 0 
VERTEX
 8 
1
 10 
0.96577
 20 
0.48276
 30 
0.0
 0 
VERTEX
 8 
1
 10 
0.94475
 20 
0.47843
 30 
0.0
 0 
VERTEX
 8 
1
 10 
0.9192
 20 
0.47474
 30 
0.0
 0 
VERTEX
 8 
1
 10 
0.88933
 20 
0.47183
 30 
0.0
 0 
VERTEX
 8 
1
 10 
0.85532
 20 
0.46979
 30 
0.0
 0 
VERTEX
 8 
1
 10 
0.81739
 20 
0.46863
 30 
0.0
 0 
VERTEX
 8 
1
 10 
0.77584
 20 
0.46829
 30 
0.0
 0 
VERTEX
 8 
1
 10 
0.73103
 20 
0.46868
 30 
0.0
 0 
VERTEX
 8 
1
 10 
0.68344
 20 
0.4697
 30 
0.0
 0 
VERTEX
 8 
1
 10 
0.63354
 20 
0.47124
 30 
0.0
 0 
VERTEX
 8 
1
 10 
0.58187
 20 
0.47319
 30 
0.0
 0 
VERTEX
 8 
1
 10 
0.52902
 20 
0.47542
 30 
0.0
 0 
VERTEX
 8 
1
 10 
0.47559
 20 
0.47783
 30 
0.0
 0 
VERTEX
 8 
1
 10 
0.42225
 20 
0.48029
 30 
0.0
 0 
VERTEX
 8 
1
 10 
0.36964
 20 
0.48275
 30 
0.0
 0 
VERTEX
 8 
1
 10 
0.31841
 20 
0.48512
 30 
0.0
 0 
VERTEX
 8 
1
 10 
0.26919
 20 
0.48738
 30 
0.0
 0 
VERTEX
 8 
1
 10 
0.22258
 20 
0.48948
 30 
0.0
 0 
VERTEX
 8 
1
 10 
0.17916
 20 
0.49141
 30 
0.0
 0 
VERTEX
 8 
1
 10 
0.13945
 20 
0.49313
 30 
0.0
 0 
VERTEX
 8 
1
 10 
0.10398
 20 
0.49465
 30 
0.0
 0 
VERTEX
 8 
1
 10 
0.07317
 20 
0.49596
 30 
0.0
 0 
VERTEX
 8 
1
 10 
0.04742
 20 
0.4971
 30 
0.0
 0 
VERTEX
 8 
1
 10 
0.02706
 20 
0.4981
 30 
0.0
 0 
VERTEX
 8 
1
 10 
0.01229
 20 
0.49902
 30 
0.0
 0 
VERTEX
 8 
1
 10 
0.0031600
 20 
0.49974
 30 
0.0
 0 
VERTEX
 8 
1
 10 
0.0
 20 
0.5
 30 
0.0
 0 
SEQEND
 8 
1
 0 
ENDSEC
 0 
EOF
