 0 
SECTION
 2 
ENTITIES
 0 
POLYLINE
 8 
1
 66 
 1 
 10 
0.0
 20 
0.0
 30 
0.0
 0 
VERTEX
 8 
1
 10 
0.0
 20 
0.500094
 30 
0.0
 0 
VERTEX
 8 
1
 10 
0.0087230
 20 
0.502239
 30 
0.0
 0 
VERTEX
 8 
1
 10 
0.021617
 20 
0.505394
 30 
0.0
 0 
VERTEX
 8 
1
 10 
0.038505
 20 
0.509502
 30 
0.0
 0 
VERTEX
 8 
1
 10 
0.057278
 20 
0.514043
 30 
0.0
 0 
VERTEX
 8 
1
 10 
0.076540
 20 
0.518672
 30 
0.0
 0 
VERTEX
 8 
1
 10 
0.095876
 20 
0.523279
 30 
0.0
 0 
VERTEX
 8 
1
 10 
0.115223
 20 
0.527836
 30 
0.0
 0 
VERTEX
 8 
1
 10 
0.134561
 20 
0.532338
 30 
0.0
 0 
VERTEX
 8 
1
 10 
0.153861
 20 
0.536765
 30 
0.0
 0 
VERTEX
 8 
1
 10 
0.173128
 20 
0.541098
 30 
0.0
 0 
VERTEX
 8 
1
 10 
0.192374
 20 
0.545328
 30 
0.0
 0 
VERTEX
 8 
1
 10 
0.211611
 20 
0.549446
 30 
0.0
 0 
VERTEX
 8 
1
 10 
0.230844
 20 
0.553444
 30 
0.0
 0 
VERTEX
 8 
1
 10 
0.250081
 20 
0.557319
 30 
0.0
 0 
VERTEX
 8 
1
 10 
0.269324
 20 
0.561064
 30 
0.0
 0 
VERTEX
 8 
1
 10 
0.288576
 20 
0.564675
 30 
0.0
 0 
VERTEX
 8 
1
 10 
0.307838
 20 
0.568149
 30 
0.0
 0 
VERTEX
 8 
1
 10 
0.327109
 20 
0.571481
 30 
0.0
 0 
VERTEX
 8 
1
 10 
0.346386
 20 
0.574667
 30 
0.0
 0 
VERTEX
 8 
1
 10 
0.365668
 20 
0.5777
 30 
0.0
 0 
VERTEX
 8 
1
 10 
0.384954
 20 
0.580576
 30 
0.0
 0 
VERTEX
 8 
1
 10 
0.404242
 20 
0.583287
 30 
0.0
 0 
VERTEX
 8 
1
 10 
0.423531
 20 
0.585829
 30 
0.0
 0 
VERTEX
 8 
1
 10 
0.442819
 20 
0.588195
 30 
0.0
 0 
VERTEX
 8 
1
 10 
0.462105
 20 
0.590378
 30 
0.0
 0 
VERTEX
 8 
1
 10 
0.481387
 20 
0.592372
 30 
0.0
 0 
VERTEX
 8 
1
 10 
0.500662
 20 
0.59417
 30 
0.0
 0 
VERTEX
 8 
1
 10 
0.519928
 20 
0.595766
 30 
0.0
 0 
VERTEX
 8 
1
 10 
0.539182
 20 
0.59715
 30 
0.0
 0 
VERTEX
 8 
1
 10 
0.558419
 20 
0.598317
 30 
0.0
 0 
VERTEX
 8 
1
 10 
0.577636
 20 
0.599256
 30 
0.0
 0 
VERTEX
 8 
1
 10 
0.596829
 20 
0.599959
 30 
0.0
 0 
VERTEX
 8 
1
 10 
0.615991
 20 
0.600417
 30 
0.0
 0 
VERTEX
 8 
1
 10 
0.635117
 20 
0.60062
 30 
0.0
 0 
VERTEX
 8 
1
 10 
0.654202
 20 
0.600557
 30 
0.0
 0 
VERTEX
 8 
1
 10 
0.673235
 20 
0.600218
 30 
0.0
 0 
VERTEX
 8 
1
 10 
0.692211
 20 
0.599589
 30 
0.0
 0 
VERTEX
 8 
1
 10 
0.711118
 20 
0.598659
 30 
0.0
 0 
VERTEX
 8 
1
 10 
0.729946
 20 
0.597414
 30 
0.0
 0 
VERTEX
 8 
1
 10 
0.74868
 20 
0.595839
 30 
0.0
 0 
VERTEX
 8 
1
 10 
0.767307
 20 
0.593918
 30 
0.0
 0 
VERTEX
 8 
1
 10 
0.785811
 20 
0.591635
 30 
0.0
 0 
VERTEX
 8 
1
 10 
0.804168
 20 
0.588974
 30 
0.0
 0 
VERTEX
 8 
1
 10 
0.822337
 20 
0.585918
 30 
0.0
 0 
VERTEX
 8 
1
 10 
0.840279
 20 
0.582441
 30 
0.0
 0 
VERTEX
 8 
1
 10 
0.857952
 20 
0.578518
 30 
0.0
 0 
VERTEX
 8 
1
 10 
0.875303
 20 
0.574121
 30 
0.0
 0 
VERTEX
 8 
1
 10 
0.892262
 20 
0.569228
 30 
0.0
 0 
VERTEX
 8 
1
 10 
0.908733
 20 
0.563815
 30 
0.0
 0 
VERTEX
 8 
1
 10 
0.924583
 20 
0.55787
 30 
0.0
 0 
VERTEX
 8 
1
 10 
0.939616
 20 
0.551409
 30 
0.0
 0 
VERTEX
 8 
1
 10 
0.953531
 20 
0.544509
 30 
0.0
 0 
VERTEX
 8 
1
 10 
0.965887
 20 
0.53738
 30 
0.0
 0 
VERTEX
 8 
1
 10 
0.97618
 20 
0.530402
 30 
0.0
 0 
VERTEX
 8 
1
 10 
0.984142
 20 
0.524004
 30 
0.0
 0 
VERTEX
 8 
1
 10 
0.989953
 20 
0.518416
 30 
0.0
 0 
VERTEX
 8 
1
 10 
0.994062
 20 
0.513612
 30 
0.0
 0 
VERTEX
 8 
1
 10 
0.9969
 20 
0.509441
 30 
0.0
 0 
VERTEX
 8 
1
 10 
0.998759
 20 
0.505741
 30 
0.0
 0 
VERTEX
 8 
1
 10 
0.999771
 20 
0.502385
 30 
0.0
 0 
VERTEX
 8 
1
 10 
0.99998
 20 
0.499314
 30 
0.0
 0 
VERTEX
 8 
1
 10 
0.999363
 20 
0.49625
 30 
0.0
 0 
VERTEX
 8 
1
 10 
0.997757
 20 
0.49322
 30 
0.0
 0 
VERTEX
 8 
1
 10 
0.995099
 20 
0.490365
 30 
0.0
 0 
VERTEX
 8 
1
 10 
0.991328
 20 
0.487672
 30 
0.0
 0 
VERTEX
 8 
1
 10 
0.98622
 20 
0.48503
 30 
0.0
 0 
VERTEX
 8 
1
 10 
0.979299
 20 
0.482327
 30 
0.0
 0 
VERTEX
 8 
1
 10 
0.96989
 20 
0.479508
 30 
0.0
 0 
VERTEX
 8 
1
 10 
0.957466
 20 
0.476641
 30 
0.0
 0 
VERTEX
 8 
1
 10 
0.942266
 20 
0.473918
 30 
0.0
 0 
VERTEX
 8 
1
 10 
0.925205
 20 
0.471503
 30 
0.0
 0 
VERTEX
 8 
1
 10 
0.907122
 20 
0.469439
 30 
0.0
 0 
VERTEX
 8 
1
 10 
0.888492
 20 
0.4677
 30 
0.0
 0 
VERTEX
 8 
1
 10 
0.869542
 20 
0.466243
 30 
0.0
 0 
VERTEX
 8 
1
 10 
0.850385
 20 
0.465029
 30 
0.0
 0 
VERTEX
 8 
1
 10 
0.831085
 20 
0.464024
 30 
0.0
 0 
VERTEX
 8 
1
 10 
0.81168
 20 
0.463205
 30 
0.0
 0 
VERTEX
 8 
1
 10 
0.792194
 20 
0.462551
 30 
0.0
 0 
VERTEX
 8 
1
 10 
0.772645
 20 
0.462045
 30 
0.0
 0 
VERTEX
 8 
1
 10 
0.753046
 20 
0.461674
 30 
0.0
 0 
VERTEX
 8 
1
 10 
0.733408
 20 
0.461427
 30 
0.0
 0 
VERTEX
 8 
1
 10 
0.713736
 20 
0.461294
 30 
0.0
 0 
VERTEX
 8 
1
 10 
0.694033
 20 
0.461269
 30 
0.0
 0 
VERTEX
 8 
1
 10 
0.674307
 20 
0.461341
 30 
0.0
 0 
VERTEX
 8 
1
 10 
0.65456
 20 
0.461507
 30 
0.0
 0 
VERTEX
 8 
1
 10 
0.634797
 20 
0.461759
 30 
0.0
 0 
VERTEX
 8 
1
 10 
0.615018
 20 
0.462095
 30 
0.0
 0 
VERTEX
 8 
1
 10 
0.595223
 20 
0.462508
 30 
0.0
 0 
VERTEX
 8 
1
 10 
0.575415
 20 
0.462995
 30 
0.0
 0 
VERTEX
 8 
1
 10 
0.555595
 20 
0.463551
 30 
0.0
 0 
VERTEX
 8 
1
 10 
0.535764
 20 
0.464171
 30 
0.0
 0 
VERTEX
 8 
1
 10 
0.515927
 20 
0.464854
 30 
0.0
 0 
VERTEX
 8 
1
 10 
0.496091
 20 
0.465597
 30 
0.0
 0 
VERTEX
 8 
1
 10 
0.476258
 20 
0.4664
 30 
0.0
 0 
VERTEX
 8 
1
 10 
0.456428
 20 
0.467265
 30 
0.0
 0 
VERTEX
 8 
1
 10 
0.436597
 20 
0.46819
 30 
0.0
 0 
VERTEX
 8 
1
 10 
0.416763
 20 
0.469175
 30 
0.0
 0 
VERTEX
 8 
1
 10 
0.396928
 20 
0.470218
 30 
0.0
 0 
VERTEX
 8 
1
 10 
0.377092
 20 
0.471317
 30 
0.0
 0 
VERTEX
 8 
1
 10 
0.357255
 20 
0.472472
 30 
0.0
 0 
VERTEX
 8 
1
 10 
0.337419
 20 
0.473681
 30 
0.0
 0 
VERTEX
 8 
1
 10 
0.317578
 20 
0.474944
 30 
0.0
 0 
VERTEX
 8 
1
 10 
0.29773
 20 
0.476258
 30 
0.0
 0 
VERTEX
 8 
1
 10 
0.277872
 20 
0.477621
 30 
0.0
 0 
VERTEX
 8 
1
 10 
0.257998
 20 
0.479027
 30 
0.0
 0 
VERTEX
 8 
1
 10 
0.238107
 20 
0.480471
 30 
0.0
 0 
VERTEX
 8 
1
 10 
0.218203
 20 
0.481947
 30 
0.0
 0 
VERTEX
 8 
1
 10 
0.19829
 20 
0.48345
 30 
0.0
 0 
VERTEX
 8 
1
 10 
0.178377
 20 
0.484978
 30 
0.0
 0 
VERTEX
 8 
1
 10 
0.158472
 20 
0.486532
 30 
0.0
 0 
VERTEX
 8 
1
 10 
0.138567
 20 
0.488116
 30 
0.0
 0 
VERTEX
 8 
1
 10 
0.118644
 20 
0.489726
 30 
0.0
 0 
VERTEX
 8 
1
 10 
0.098695
 20 
0.491354
 30 
0.0
 0 
VERTEX
 8 
1
 10 
0.078760
 20 
0.49298
 30 
0.0
 0 
VERTEX
 8 
1
 10 
0.058932
 20 
0.494586
 30 
0.0
 0 
VERTEX
 8 
1
 10 
0.039604
 20 
0.496142
 30 
0.0
 0 
VERTEX
 8 
1
 10 
0.022218
 20 
0.497543
 30 
0.0
 0 
VERTEX
 8 
1
 10 
0.0089590
 20 
0.498617
 30 
0.0
 0 
VERTEX
 8 
1
 10 
0.0
 20 
0.499349
 30 
0.0
 0 
SEQEND
 8 
1
 0 
ENDSEC
 0 
EOF
