 0 
SECTION
 2 
ENTITIES
 0 
POLYLINE
 8 
1
 66 
 1 
 10 
0.0
 20 
0.0
 30 
0.0
 0 
VERTEX
 8 
1
 10 
0.0
 20 
0.49953
 30 
0.0
 0 
VERTEX
 8 
1
 10 
0.025
 20 
0.5047
 30 
0.0
 0 
VERTEX
 8 
1
 10 
0.05
 20 
0.50982
 30 
0.0
 0 
VERTEX
 8 
1
 10 
0.075
 20 
0.51495
 30 
0.0
 0 
VERTEX
 8 
1
 10 
0.1
 20 
0.52008
 30 
0.0
 0 
VERTEX
 8 
1
 10 
0.125
 20 
0.52518
 30 
0.0
 0 
VERTEX
 8 
1
 10 
0.15
 20 
0.53026
 30 
0.0
 0 
VERTEX
 8 
1
 10 
0.175
 20 
0.53529
 30 
0.0
 0 
VERTEX
 8 
1
 10 
0.2
 20 
0.54018
 30 
0.0
 0 
VERTEX
 8 
1
 10 
0.225
 20 
0.5449
 30 
0.0
 0 
VERTEX
 8 
1
 10 
0.25
 20 
0.54942
 30 
0.0
 0 
VERTEX
 8 
1
 10 
0.275
 20 
0.55371
 30 
0.0
 0 
VERTEX
 8 
1
 10 
0.3
 20 
0.55774
 30 
0.0
 0 
VERTEX
 8 
1
 10 
0.325
 20 
0.56149
 30 
0.0
 0 
VERTEX
 8 
1
 10 
0.35
 20 
0.5649
 30 
0.0
 0 
VERTEX
 8 
1
 10 
0.375
 20 
0.56796
 30 
0.0
 0 
VERTEX
 8 
1
 10 
0.4
 20 
0.57064
 30 
0.0
 0 
VERTEX
 8 
1
 10 
0.425
 20 
0.57293
 30 
0.0
 0 
VERTEX
 8 
1
 10 
0.45
 20 
0.57487
 30 
0.0
 0 
VERTEX
 8 
1
 10 
0.475
 20 
0.57646
 30 
0.0
 0 
VERTEX
 8 
1
 10 
0.5
 20 
0.57775
 30 
0.0
 0 
VERTEX
 8 
1
 10 
0.525
 20 
0.57876
 30 
0.0
 0 
VERTEX
 8 
1
 10 
0.55
 20 
0.57952
 30 
0.0
 0 
VERTEX
 8 
1
 10 
0.575
 20 
0.58003
 30 
0.0
 0 
VERTEX
 8 
1
 10 
0.6
 20 
0.58029
 30 
0.0
 0 
VERTEX
 8 
1
 10 
0.625
 20 
0.58032
 30 
0.0
 0 
VERTEX
 8 
1
 10 
0.65
 20 
0.58012
 30 
0.0
 0 
VERTEX
 8 
1
 10 
0.675
 20 
0.57968
 30 
0.0
 0 
VERTEX
 8 
1
 10 
0.7
 20 
0.57899
 30 
0.0
 0 
VERTEX
 8 
1
 10 
0.725
 20 
0.57803
 30 
0.0
 0 
VERTEX
 8 
1
 10 
0.75
 20 
0.57678
 30 
0.0
 0 
VERTEX
 8 
1
 10 
0.775
 20 
0.5752
 30 
0.0
 0 
VERTEX
 8 
1
 10 
0.8
 20 
0.57327
 30 
0.0
 0 
VERTEX
 8 
1
 10 
0.825
 20 
0.57096
 30 
0.0
 0 
VERTEX
 8 
1
 10 
0.85
 20 
0.56819
 30 
0.0
 0 
VERTEX
 8 
1
 10 
0.875
 20 
0.56481
 30 
0.0
 0 
VERTEX
 8 
1
 10 
0.9
 20 
0.56061
 30 
0.0
 0 
VERTEX
 8 
1
 10 
0.925
 20 
0.55517
 30 
0.0
 0 
VERTEX
 8 
1
 10 
0.95
 20 
0.54743
 30 
0.0
 0 
VERTEX
 8 
1
 10 
0.9625
 20 
0.54187
 30 
0.0
 0 
VERTEX
 8 
1
 10 
0.975
 20 
0.53445
 30 
0.0
 0 
VERTEX
 8 
1
 10 
0.9875
 20 
0.52429
 30 
0.0
 0 
VERTEX
 8 
1
 10 
0.995
 20 
0.51512
 30 
0.0
 0 
VERTEX
 8 
1
 10 
0.998
 20 
0.50948
 30 
0.0
 0 
VERTEX
 8 
1
 10 
1
 20 
0.50099
 30 
0.0
 0 
VERTEX
 8 
1
 10 
0.998
 20 
0.49373
 30 
0.0
 0 
VERTEX
 8 
1
 10 
0.995
 20 
0.49002
 30 
0.0
 0 
VERTEX
 8 
1
 10 
0.9875
 20 
0.48475
 30 
0.0
 0 
VERTEX
 8 
1
 10 
0.975
 20 
0.47941
 30 
0.0
 0 
VERTEX
 8 
1
 10 
0.9625
 20 
0.4756
 30 
0.0
 0 
VERTEX
 8 
1
 10 
0.95
 20 
0.47255
 30 
0.0
 0 
VERTEX
 8 
1
 10 
0.925
 20 
0.46772
 30 
0.0
 0 
VERTEX
 8 
1
 10 
0.9
 20 
0.46392
 30 
0.0
 0 
VERTEX
 8 
1
 10 
0.875
 20 
0.4608
 30 
0.0
 0 
VERTEX
 8 
1
 10 
0.85
 20 
0.45818
 30 
0.0
 0 
VERTEX
 8 
1
 10 
0.825
 20 
0.456
 30 
0.0
 0 
VERTEX
 8 
1
 10 
0.8
 20 
0.45419
 30 
0.0
 0 
VERTEX
 8 
1
 10 
0.775
 20 
0.45272
 30 
0.0
 0 
VERTEX
 8 
1
 10 
0.75
 20 
0.45153
 30 
0.0
 0 
VERTEX
 8 
1
 10 
0.725
 20 
0.45059
 30 
0.0
 0 
VERTEX
 8 
1
 10 
0.7
 20 
0.44987
 30 
0.0
 0 
VERTEX
 8 
1
 10 
0.675
 20 
0.44935
 30 
0.0
 0 
VERTEX
 8 
1
 10 
0.65
 20 
0.44904
 30 
0.0
 0 
VERTEX
 8 
1
 10 
0.625
 20 
0.44894
 30 
0.0
 0 
VERTEX
 8 
1
 10 
0.6
 20 
0.44908
 30 
0.0
 0 
VERTEX
 8 
1
 10 
0.575
 20 
0.44949
 30 
0.0
 0 
VERTEX
 8 
1
 10 
0.55
 20 
0.45019
 30 
0.0
 0 
VERTEX
 8 
1
 10 
0.525
 20 
0.45119
 30 
0.0
 0 
VERTEX
 8 
1
 10 
0.5
 20 
0.45249
 30 
0.0
 0 
VERTEX
 8 
1
 10 
0.475
 20 
0.45408
 30 
0.0
 0 
VERTEX
 8 
1
 10 
0.45
 20 
0.45598
 30 
0.0
 0 
VERTEX
 8 
1
 10 
0.425
 20 
0.45819
 30 
0.0
 0 
VERTEX
 8 
1
 10 
0.4
 20 
0.46073
 30 
0.0
 0 
VERTEX
 8 
1
 10 
0.375
 20 
0.46357
 30 
0.0
 0 
VERTEX
 8 
1
 10 
0.35
 20 
0.46669
 30 
0.0
 0 
VERTEX
 8 
1
 10 
0.325
 20 
0.46999
 30 
0.0
 0 
VERTEX
 8 
1
 10 
0.3
 20 
0.47343
 30 
0.0
 0 
VERTEX
 8 
1
 10 
0.275
 20 
0.47693
 30 
0.0
 0 
VERTEX
 8 
1
 10 
0.25
 20 
0.48043
 30 
0.0
 0 
VERTEX
 8 
1
 10 
0.225
 20 
0.48386
 30 
0.0
 0 
VERTEX
 8 
1
 10 
0.2
 20 
0.48712
 30 
0.0
 0 
VERTEX
 8 
1
 10 
0.175
 20 
0.4901
 30 
0.0
 0 
VERTEX
 8 
1
 10 
0.15
 20 
0.49271
 30 
0.0
 0 
VERTEX
 8 
1
 10 
0.125
 20 
0.49487
 30 
0.0
 0 
VERTEX
 8 
1
 10 
0.1
 20 
0.49647
 30 
0.0
 0 
VERTEX
 8 
1
 10 
0.075
 20 
0.49739
 30 
0.0
 0 
VERTEX
 8 
1
 10 
0.05
 20 
0.49748
 30 
0.0
 0 
VERTEX
 8 
1
 10 
0.025
 20 
0.49646
 30 
0.0
 0 
VERTEX
 8 
1
 10 
0.0
 20 
0.49395
 30 
0.0
 0 
SEQEND
 8 
1
 0 
ENDSEC
 0 
EOF
