 0 
SECTION
 2 
ENTITIES
 0 
POLYLINE
 8 
1
 66 
 1 
 10 
0.0
 20 
0.0
 30 
0.0
 0 
VERTEX
 8 
1
 10 
0.0
 20 
0.5
 30 
0.0
 0 
VERTEX
 8 
1
 10 
0.0042799
 20 
0.50057
 30 
0.0
 0 
VERTEX
 8 
1
 10 
0.017040
 20 
0.50218
 30 
0.0
 0 
VERTEX
 8 
1
 10 
0.03806
 20 
0.50463
 30 
0.0
 0 
VERTEX
 8 
1
 10 
0.06699
 20 
0.5077
 30 
0.0
 0 
VERTEX
 8 
1
 10 
0.10332
 20 
0.51127
 30 
0.0
 0 
VERTEX
 8 
1
 10 
0.14645
 20 
0.51522
 30 
0.0
 0 
VERTEX
 8 
1
 10 
0.19562
 20 
0.51945
 30 
0.0
 0 
VERTEX
 8 
1
 10 
0.25
 20 
0.52384
 30 
0.0
 0 
VERTEX
 8 
1
 10 
0.30866
 20 
0.52823
 30 
0.0
 0 
VERTEX
 8 
1
 10 
0.37059
 20 
0.53247
 30 
0.0
 0 
VERTEX
 8 
1
 10 
0.43474
 20 
0.53638
 30 
0.0
 0 
VERTEX
 8 
1
 10 
0.5
 20 
0.53978
 30 
0.0
 0 
VERTEX
 8 
1
 10 
0.56526
 20 
0.54248
 30 
0.0
 0 
VERTEX
 8 
1
 10 
0.62941
 20 
0.54431
 30 
0.0
 0 
VERTEX
 8 
1
 10 
0.66072
 20 
0.54484
 30 
0.0
 0 
VERTEX
 8 
1
 10 
0.69134
 20 
0.54509
 30 
0.0
 0 
VERTEX
 8 
1
 10 
0.72114
 20 
0.54504
 30 
0.0
 0 
VERTEX
 8 
1
 10 
0.75
 20 
0.54466
 30 
0.0
 0 
VERTEX
 8 
1
 10 
0.77779
 20 
0.54397
 30 
0.0
 0 
VERTEX
 8 
1
 10 
0.80438
 20 
0.54295
 30 
0.0
 0 
VERTEX
 8 
1
 10 
0.82967
 20 
0.54161
 30 
0.0
 0 
VERTEX
 8 
1
 10 
0.85355
 20 
0.53994
 30 
0.0
 0 
VERTEX
 8 
1
 10 
0.87592
 20 
0.53795
 30 
0.0
 0 
VERTEX
 8 
1
 10 
0.89668
 20 
0.53564
 30 
0.0
 0 
VERTEX
 8 
1
 10 
0.91573
 20 
0.53305
 30 
0.0
 0 
VERTEX
 8 
1
 10 
0.93301
 20 
0.53023
 30 
0.0
 0 
VERTEX
 8 
1
 10 
0.94844
 20 
0.5272
 30 
0.0
 0 
VERTEX
 8 
1
 10 
0.96194
 20 
0.52395
 30 
0.0
 0 
VERTEX
 8 
1
 10 
0.97347
 20 
0.52039
 30 
0.0
 0 
VERTEX
 8 
1
 10 
0.98296
 20 
0.51646
 30 
0.0
 0 
VERTEX
 8 
1
 10 
0.99039
 20 
0.51214
 30 
0.0
 0 
VERTEX
 8 
1
 10 
0.99572
 20 
0.50767
 30 
0.0
 0 
VERTEX
 8 
1
 10 
0.99893
 20 
0.50349
 30 
0.0
 0 
VERTEX
 8 
1
 10 
1
 20 
0.5
 30 
0.0
 0 
VERTEX
 8 
1
 10 
0.99893
 20 
0.49651
 30 
0.0
 0 
VERTEX
 8 
1
 10 
0.99572
 20 
0.49233
 30 
0.0
 0 
VERTEX
 8 
1
 10 
0.99039
 20 
0.48786
 30 
0.0
 0 
VERTEX
 8 
1
 10 
0.98296
 20 
0.48354
 30 
0.0
 0 
VERTEX
 8 
1
 10 
0.97347
 20 
0.47961
 30 
0.0
 0 
VERTEX
 8 
1
 10 
0.96194
 20 
0.47605
 30 
0.0
 0 
VERTEX
 8 
1
 10 
0.94844
 20 
0.4728
 30 
0.0
 0 
VERTEX
 8 
1
 10 
0.93301
 20 
0.46977
 30 
0.0
 0 
VERTEX
 8 
1
 10 
0.91573
 20 
0.46695
 30 
0.0
 0 
VERTEX
 8 
1
 10 
0.89668
 20 
0.46436
 30 
0.0
 0 
VERTEX
 8 
1
 10 
0.87592
 20 
0.46205
 30 
0.0
 0 
VERTEX
 8 
1
 10 
0.85355
 20 
0.46006
 30 
0.0
 0 
VERTEX
 8 
1
 10 
0.82967
 20 
0.45839
 30 
0.0
 0 
VERTEX
 8 
1
 10 
0.80438
 20 
0.45705
 30 
0.0
 0 
VERTEX
 8 
1
 10 
0.77779
 20 
0.45603
 30 
0.0
 0 
VERTEX
 8 
1
 10 
0.75
 20 
0.45534
 30 
0.0
 0 
VERTEX
 8 
1
 10 
0.72114
 20 
0.45496
 30 
0.0
 0 
VERTEX
 8 
1
 10 
0.69134
 20 
0.45491
 30 
0.0
 0 
VERTEX
 8 
1
 10 
0.66072
 20 
0.45516
 30 
0.0
 0 
VERTEX
 8 
1
 10 
0.62941
 20 
0.45569
 30 
0.0
 0 
VERTEX
 8 
1
 10 
0.56526
 20 
0.45752
 30 
0.0
 0 
VERTEX
 8 
1
 10 
0.5
 20 
0.46022
 30 
0.0
 0 
VERTEX
 8 
1
 10 
0.43474
 20 
0.46362
 30 
0.0
 0 
VERTEX
 8 
1
 10 
0.37059
 20 
0.46753
 30 
0.0
 0 
VERTEX
 8 
1
 10 
0.30866
 20 
0.47177
 30 
0.0
 0 
VERTEX
 8 
1
 10 
0.25
 20 
0.47616
 30 
0.0
 0 
VERTEX
 8 
1
 10 
0.19562
 20 
0.48055
 30 
0.0
 0 
VERTEX
 8 
1
 10 
0.14645
 20 
0.48478
 30 
0.0
 0 
VERTEX
 8 
1
 10 
0.10332
 20 
0.48873
 30 
0.0
 0 
VERTEX
 8 
1
 10 
0.06699
 20 
0.4923
 30 
0.0
 0 
VERTEX
 8 
1
 10 
0.03806
 20 
0.49537
 30 
0.0
 0 
VERTEX
 8 
1
 10 
0.017040
 20 
0.49782
 30 
0.0
 0 
VERTEX
 8 
1
 10 
0.0042799
 20 
0.49943
 30 
0.0
 0 
VERTEX
 8 
1
 10 
0.0
 20 
0.5
 30 
0.0
 0 
SEQEND
 8 
1
 0 
ENDSEC
 0 
EOF
