 0 
SECTION
 2 
ENTITIES
 0 
POLYLINE
 8 
1
 66 
 1 
 10 
0.0
 20 
0.0
 30 
0.0
 0 
VERTEX
 8 
1
 10 
0.0
 20 
0.5
 30 
0.0
 0 
VERTEX
 8 
1
 10 
0.0501
 20 
0.5027
 30 
0.0
 0 
VERTEX
 8 
1
 10 
0.0998
 20 
0.5017
 30 
0.0
 0 
VERTEX
 8 
1
 10 
0.1985
 20 
0.5184
 30 
0.0
 0 
VERTEX
 8 
1
 10 
0.2971
 20 
0.5391
 30 
0.0
 0 
VERTEX
 8 
1
 10 
0.3961
 20 
0.5597
 30 
0.0
 0 
VERTEX
 8 
1
 10 
0.4961
 20 
0.5772
 30 
0.0
 0 
VERTEX
 8 
1
 10 
0.5978
 20 
0.5883
 30 
0.0
 0 
VERTEX
 8 
1
 10 
0.7004
 20 
0.5889
 30 
0.0
 0 
VERTEX
 8 
1
 10 
0.7516
 20 
0.5857
 30 
0.0
 0 
VERTEX
 8 
1
 10 
0.8027
 20 
0.5799
 30 
0.0
 0 
VERTEX
 8 
1
 10 
0.8539
 20 
0.5711
 30 
0.0
 0 
VERTEX
 8 
1
 10 
0.9048
 20 
0.5585
 30 
0.0
 0 
VERTEX
 8 
1
 10 
0.9301
 20 
0.5502
 30 
0.0
 0 
VERTEX
 8 
1
 10 
0.9553
 20 
0.54
 30 
0.0
 0 
VERTEX
 8 
1
 10 
0.98
 20 
0.5266
 30 
0.0
 0 
VERTEX
 8 
1
 10 
0.9922
 20 
0.5174
 30 
0.0
 0 
VERTEX
 8 
1
 10 
0.9966
 20 
0.5127
 30 
0.0
 0 
VERTEX
 8 
1
 10 
1
 20 
0.5
 30 
0.0
 0 
VERTEX
 8 
1
 10 
0.9884
 20 
0.4969
 30 
0.0
 0 
VERTEX
 8 
1
 10 
0.9829
 20 
0.4969
 30 
0.0
 0 
VERTEX
 8 
1
 10 
0.97
 20 
0.4976
 30 
0.0
 0 
VERTEX
 8 
1
 10 
0.9448
 20 
0.4991
 30 
0.0
 0 
VERTEX
 8 
1
 10 
0.9199
 20 
0.4996
 30 
0.0
 0 
VERTEX
 8 
1
 10 
0.8952
 20 
0.5013
 30 
0.0
 0 
VERTEX
 8 
1
 10 
0.8462
 20 
0.5025
 30 
0.0
 0 
VERTEX
 8 
1
 10 
0.7973
 20 
0.5028
 30 
0.0
 0 
VERTEX
 8 
1
 10 
0.7484
 20 
0.5023
 30 
0.0
 0 
VERTEX
 8 
1
 10 
0.6996
 20 
0.5014
 30 
0.0
 0 
VERTEX
 8 
1
 10 
0.6022
 20 
0.4986
 30 
0.0
 0 
VERTEX
 8 
1
 10 
0.5039
 20 
0.4949
 30 
0.0
 0 
VERTEX
 8 
1
 10 
0.4039
 20 
0.4911
 30 
0.0
 0 
VERTEX
 8 
1
 10 
0.303
 20 
0.4883
 30 
0.0
 0 
VERTEX
 8 
1
 10 
0.2015
 20 
0.4873
 30 
0.0
 0 
VERTEX
 8 
1
 10 
0.1002
 20 
0.4895
 30 
0.0
 0 
VERTEX
 8 
1
 10 
0.049900
 20 
0.4929
 30 
0.0
 0 
VERTEX
 8 
1
 10 
0.0
 20 
0.5
 30 
0.0
 0 
SEQEND
 8 
1
 0 
ENDSEC
 0 
EOF
