 0 
SECTION
 2 
ENTITIES
 0 
POLYLINE
 8 
1
 66 
 1 
 10 
0.0
 20 
0.0
 30 
0.0
 0 
VERTEX
 8 
1
 10 
0.0
 20 
0.50157
 30 
0.0
 0 
VERTEX
 8 
1
 10 
0.0026000
 20 
0.50223
 30 
0.0
 0 
VERTEX
 8 
1
 10 
0.0107
 20 
0.50419
 30 
0.0
 0 
VERTEX
 8 
1
 10 
0.0241
 20 
0.50739
 30 
0.0
 0 
VERTEX
 8 
1
 10 
0.04267
 20 
0.51172
 30 
0.0
 0 
VERTEX
 8 
1
 10 
0.06623
 20 
0.51705
 30 
0.0
 0 
VERTEX
 8 
1
 10 
0.09452
 20 
0.52323
 30 
0.0
 0 
VERTEX
 8 
1
 10 
0.12725
 20 
0.53006
 30 
0.0
 0 
VERTEX
 8 
1
 10 
0.16409
 20 
0.53738
 30 
0.0
 0 
VERTEX
 8 
1
 10 
0.20464
 20 
0.54498
 30 
0.0
 0 
VERTEX
 8 
1
 10 
0.24846
 20 
0.55267
 30 
0.0
 0 
VERTEX
 8 
1
 10 
0.2951
 20 
0.56025
 30 
0.0
 0 
VERTEX
 8 
1
 10 
0.34405
 20 
0.56753
 30 
0.0
 0 
VERTEX
 8 
1
 10 
0.39476
 20 
0.57431
 30 
0.0
 0 
VERTEX
 8 
1
 10 
0.44669
 20 
0.5804
 30 
0.0
 0 
VERTEX
 8 
1
 10 
0.49926
 20 
0.58562
 30 
0.0
 0 
VERTEX
 8 
1
 10 
0.55189
 20 
0.58978
 30 
0.0
 0 
VERTEX
 8 
1
 10 
0.60403
 20 
0.59272
 30 
0.0
 0 
VERTEX
 8 
1
 10 
0.65552
 20 
0.59409
 30 
0.0
 0 
VERTEX
 8 
1
 10 
0.70531
 20 
0.59366
 30 
0.0
 0 
VERTEX
 8 
1
 10 
0.75278
 20 
0.5914
 30 
0.0
 0 
VERTEX
 8 
1
 10 
0.79739
 20 
0.58736
 30 
0.0
 0 
VERTEX
 8 
1
 10 
0.83858
 20 
0.58163
 30 
0.0
 0 
VERTEX
 8 
1
 10 
0.87589
 20 
0.57438
 30 
0.0
 0 
VERTEX
 8 
1
 10 
0.90888
 20 
0.5658
 30 
0.0
 0 
VERTEX
 8 
1
 10 
0.93718
 20 
0.55615
 30 
0.0
 0 
VERTEX
 8 
1
 10 
0.96048
 20 
0.54566
 30 
0.0
 0 
VERTEX
 8 
1
 10 
0.97855
 20 
0.5346
 30 
0.0
 0 
VERTEX
 8 
1
 10 
0.99122
 20 
0.52319
 30 
0.0
 0 
VERTEX
 8 
1
 10 
0.99839
 20 
0.51161
 30 
0.0
 0 
VERTEX
 8 
1
 10 
1
 20 
0.5
 30 
0.0
 0 
VERTEX
 8 
1
 10 
0.99613
 20 
0.48894
 30 
0.0
 0 
VERTEX
 8 
1
 10 
0.98692
 20 
0.47897
 30 
0.0
 0 
VERTEX
 8 
1
 10 
0.9725
 20 
0.47015
 30 
0.0
 0 
VERTEX
 8 
1
 10 
0.95306
 20 
0.46252
 30 
0.0
 0 
VERTEX
 8 
1
 10 
0.92885
 20 
0.45613
 30 
0.0
 0 
VERTEX
 8 
1
 10 
0.90014
 20 
0.45101
 30 
0.0
 0 
VERTEX
 8 
1
 10 
0.86725
 20 
0.44718
 30 
0.0
 0 
VERTEX
 8 
1
 10 
0.83055
 20 
0.44461
 30 
0.0
 0 
VERTEX
 8 
1
 10 
0.7904
 20 
0.44324
 30 
0.0
 0 
VERTEX
 8 
1
 10 
0.74722
 20 
0.44297
 30 
0.0
 0 
VERTEX
 8 
1
 10 
0.70143
 20 
0.44367
 30 
0.0
 0 
VERTEX
 8 
1
 10 
0.65349
 20 
0.44517
 30 
0.0
 0 
VERTEX
 8 
1
 10 
0.60388
 20 
0.44728
 30 
0.0
 0 
VERTEX
 8 
1
 10 
0.55263
 20 
0.44997
 30 
0.0
 0 
VERTEX
 8 
1
 10 
0.50074
 20 
0.45327
 30 
0.0
 0 
VERTEX
 8 
1
 10 
0.44878
 20 
0.45702
 30 
0.0
 0 
VERTEX
 8 
1
 10 
0.39733
 20 
0.46107
 30 
0.0
 0 
VERTEX
 8 
1
 10 
0.34694
 20 
0.46528
 30 
0.0
 0 
VERTEX
 8 
1
 10 
0.29816
 20 
0.46952
 30 
0.0
 0 
VERTEX
 8 
1
 10 
0.25154
 20 
0.47372
 30 
0.0
 0 
VERTEX
 8 
1
 10 
0.20758
 20 
0.47778
 30 
0.0
 0 
VERTEX
 8 
1
 10 
0.16678
 20 
0.48164
 30 
0.0
 0 
VERTEX
 8 
1
 10 
0.1296
 20 
0.48523
 30 
0.0
 0 
VERTEX
 8 
1
 10 
0.09646
 20 
0.48849
 30 
0.0
 0 
VERTEX
 8 
1
 10 
0.06775
 20 
0.49138
 30 
0.0
 0 
VERTEX
 8 
1
 10 
0.04378
 20 
0.49384
 30 
0.0
 0 
VERTEX
 8 
1
 10 
0.02484
 20 
0.49581
 30 
0.0
 0 
VERTEX
 8 
1
 10 
0.01115
 20 
0.49725
 30 
0.0
 0 
VERTEX
 8 
1
 10 
0.0028799
 20 
0.49813
 30 
0.0
 0 
VERTEX
 8 
1
 10 
0.0
 20 
0.49843
 30 
0.0
 0 
SEQEND
 8 
1
 0 
ENDSEC
 0 
EOF
