 0 
SECTION
 2 
ENTITIES
 0 
POLYLINE
 8 
1
 66 
 1 
 10 
0.0
 20 
0.0
 30 
0.0
 0 
VERTEX
 8 
1
 10 
0.0
 20 
0.5
 30 
0.0
 0 
VERTEX
 8 
1
 10 
0.04
 20 
0.5027
 30 
0.0
 0 
VERTEX
 8 
1
 10 
0.1
 20 
0.5067
 30 
0.0
 0 
VERTEX
 8 
1
 10 
0.2
 20 
0.52
 30 
0.0
 0 
VERTEX
 8 
1
 10 
0.3
 20 
0.539
 30 
0.0
 0 
VERTEX
 8 
1
 10 
0.4
 20 
0.555
 30 
0.0
 0 
VERTEX
 8 
1
 10 
0.5
 20 
0.567
 30 
0.0
 0 
VERTEX
 8 
1
 10 
0.6
 20 
0.572
 30 
0.0
 0 
VERTEX
 8 
1
 10 
0.7
 20 
0.569
 30 
0.0
 0 
VERTEX
 8 
1
 10 
0.75
 20 
0.566
 30 
0.0
 0 
VERTEX
 8 
1
 10 
0.8
 20 
0.561
 30 
0.0
 0 
VERTEX
 8 
1
 10 
0.85
 20 
0.553
 30 
0.0
 0 
VERTEX
 8 
1
 10 
0.9
 20 
0.5437
 30 
0.0
 0 
VERTEX
 8 
1
 10 
0.925
 20 
0.538
 30 
0.0
 0 
VERTEX
 8 
1
 10 
0.95
 20 
0.531
 30 
0.0
 0 
VERTEX
 8 
1
 10 
0.975
 20 
0.521
 30 
0.0
 0 
VERTEX
 8 
1
 10 
0.9875
 20 
0.515
 30 
0.0
 0 
VERTEX
 8 
1
 10 
1
 20 
0.5
 30 
0.0
 0 
VERTEX
 8 
1
 10 
0.9875
 20 
0.4907
 30 
0.0
 0 
VERTEX
 8 
1
 10 
0.975
 20 
0.488
 30 
0.0
 0 
VERTEX
 8 
1
 10 
0.95
 20 
0.485
 30 
0.0
 0 
VERTEX
 8 
1
 10 
0.925
 20 
0.4832
 30 
0.0
 0 
VERTEX
 8 
1
 10 
0.9
 20 
0.4815
 30 
0.0
 0 
VERTEX
 8 
1
 10 
0.85
 20 
0.479
 30 
0.0
 0 
VERTEX
 8 
1
 10 
0.8
 20 
0.477
 30 
0.0
 0 
VERTEX
 8 
1
 10 
0.75
 20 
0.476
 30 
0.0
 0 
VERTEX
 8 
1
 10 
0.7
 20 
0.475
 30 
0.0
 0 
VERTEX
 8 
1
 10 
0.6
 20 
0.473
 30 
0.0
 0 
VERTEX
 8 
1
 10 
0.5
 20 
0.472
 30 
0.0
 0 
VERTEX
 8 
1
 10 
0.4
 20 
0.471
 30 
0.0
 0 
VERTEX
 8 
1
 10 
0.3
 20 
0.471
 30 
0.0
 0 
VERTEX
 8 
1
 10 
0.2
 20 
0.476
 30 
0.0
 0 
VERTEX
 8 
1
 10 
0.1
 20 
0.489
 30 
0.0
 0 
VERTEX
 8 
1
 10 
0.04
 20 
0.4953
 30 
0.0
 0 
VERTEX
 8 
1
 10 
0.0
 20 
0.5
 30 
0.0
 0 
SEQEND
 8 
1
 0 
ENDSEC
 0 
EOF
