 0 
SECTION
 2 
ENTITIES
 0 
POLYLINE
 8 
1
 66 
 1 
 10 
0.0
 20 
0.0
 30 
0.0
 0 
VERTEX
 8 
1
 10 
0.0
 20 
0.5
 30 
0.0
 0 
VERTEX
 8 
1
 10 
0.05
 20 
0.5053
 30 
0.0
 0 
VERTEX
 8 
1
 10 
0.1
 20 
0.513
 30 
0.0
 0 
VERTEX
 8 
1
 10 
0.2
 20 
0.541
 30 
0.0
 0 
VERTEX
 8 
1
 10 
0.3
 20 
0.579
 30 
0.0
 0 
VERTEX
 8 
1
 10 
0.4
 20 
0.611
 30 
0.0
 0 
VERTEX
 8 
1
 10 
0.5
 20 
0.635
 30 
0.0
 0 
VERTEX
 8 
1
 10 
0.6
 20 
0.644
 30 
0.0
 0 
VERTEX
 8 
1
 10 
0.7
 20 
0.637
 30 
0.0
 0 
VERTEX
 8 
1
 10 
0.75
 20 
0.631
 30 
0.0
 0 
VERTEX
 8 
1
 10 
0.8
 20 
0.621
 30 
0.0
 0 
VERTEX
 8 
1
 10 
0.85
 20 
0.607
 30 
0.0
 0 
VERTEX
 8 
1
 10 
0.9
 20 
0.587
 30 
0.0
 0 
VERTEX
 8 
1
 10 
0.925
 20 
0.576
 30 
0.0
 0 
VERTEX
 8 
1
 10 
0.95
 20 
0.561
 30 
0.0
 0 
VERTEX
 8 
1
 10 
0.975
 20 
0.543
 30 
0.0
 0 
VERTEX
 8 
1
 10 
0.9875
 20 
0.531
 30 
0.0
 0 
VERTEX
 8 
1
 10 
1
 20 
0.5
 30 
0.0
 0 
VERTEX
 8 
1
 10 
0.9875
 20 
0.481
 30 
0.0
 0 
VERTEX
 8 
1
 10 
0.975
 20 
0.476
 30 
0.0
 0 
VERTEX
 8 
1
 10 
0.95
 20 
0.471
 30 
0.0
 0 
VERTEX
 8 
1
 10 
0.925
 20 
0.4675
 30 
0.0
 0 
VERTEX
 8 
1
 10 
0.9
 20 
0.464
 30 
0.0
 0 
VERTEX
 8 
1
 10 
0.85
 20 
0.459
 30 
0.0
 0 
VERTEX
 8 
1
 10 
0.8
 20 
0.455
 30 
0.0
 0 
VERTEX
 8 
1
 10 
0.75
 20 
0.452
 30 
0.0
 0 
VERTEX
 8 
1
 10 
0.7
 20 
0.4493
 30 
0.0
 0 
VERTEX
 8 
1
 10 
0.6
 20 
0.445
 30 
0.0
 0 
VERTEX
 8 
1
 10 
0.5
 20 
0.443
 30 
0.0
 0 
VERTEX
 8 
1
 10 
0.4
 20 
0.441
 30 
0.0
 0 
VERTEX
 8 
1
 10 
0.3
 20 
0.441
 30 
0.0
 0 
VERTEX
 8 
1
 10 
0.2
 20 
0.452
 30 
0.0
 0 
VERTEX
 8 
1
 10 
0.1
 20 
0.479
 30 
0.0
 0 
VERTEX
 8 
1
 10 
0.05
 20 
0.4907
 30 
0.0
 0 
VERTEX
 8 
1
 10 
0.0
 20 
0.5
 30 
0.0
 0 
SEQEND
 8 
1
 0 
ENDSEC
 0 
EOF
