 0 
SECTION
 2 
ENTITIES
 0 
POLYLINE
 8 
1
 66 
 1 
 10 
0.0
 20 
0.0
 30 
0.0
 0 
VERTEX
 8 
1
 10 
0.0
 20 
0.50021
 30 
0.0
 0 
VERTEX
 8 
1
 10 
0.05
 20 
0.50525
 30 
0.0
 0 
VERTEX
 8 
1
 10 
0.1
 20 
0.5103
 30 
0.0
 0 
VERTEX
 8 
1
 10 
0.15
 20 
0.51535
 30 
0.0
 0 
VERTEX
 8 
1
 10 
0.2
 20 
0.5204
 30 
0.0
 0 
VERTEX
 8 
1
 10 
0.25
 20 
0.52545
 30 
0.0
 0 
VERTEX
 8 
1
 10 
0.3
 20 
0.53044
 30 
0.0
 0 
VERTEX
 8 
1
 10 
0.35
 20 
0.53517
 30 
0.0
 0 
VERTEX
 8 
1
 10 
0.4
 20 
0.53943
 30 
0.0
 0 
VERTEX
 8 
1
 10 
0.45
 20 
0.54311
 30 
0.0
 0 
VERTEX
 8 
1
 10 
0.5
 20 
0.54613
 30 
0.0
 0 
VERTEX
 8 
1
 10 
0.55
 20 
0.54837
 30 
0.0
 0 
VERTEX
 8 
1
 10 
0.6
 20 
0.54968
 30 
0.0
 0 
VERTEX
 8 
1
 10 
0.65
 20 
0.54995
 30 
0.0
 0 
VERTEX
 8 
1
 10 
0.7
 20 
0.54913
 30 
0.0
 0 
VERTEX
 8 
1
 10 
0.75
 20 
0.54714
 30 
0.0
 0 
VERTEX
 8 
1
 10 
0.8
 20 
0.544
 30 
0.0
 0 
VERTEX
 8 
1
 10 
0.85
 20 
0.5395
 30 
0.0
 0 
VERTEX
 8 
1
 10 
0.9
 20 
0.53324
 30 
0.0
 0 
VERTEX
 8 
1
 10 
0.925
 20 
0.52917
 30 
0.0
 0 
VERTEX
 8 
1
 10 
0.95
 20 
0.52412
 30 
0.0
 0 
VERTEX
 8 
1
 10 
0.975
 20 
0.51737
 30 
0.0
 0 
VERTEX
 8 
1
 10 
0.9875
 20 
0.5125
 30 
0.0
 0 
VERTEX
 8 
1
 10 
0.9925
 20 
0.50983
 30 
0.0
 0 
VERTEX
 8 
1
 10 
0.995
 20 
0.50816
 30 
0.0
 0 
VERTEX
 8 
1
 10 
1
 20 
0.5
 30 
0.0
 0 
VERTEX
 8 
1
 10 
0.995
 20 
0.49184
 30 
0.0
 0 
VERTEX
 8 
1
 10 
0.9925
 20 
0.49017
 30 
0.0
 0 
VERTEX
 8 
1
 10 
0.9875
 20 
0.4875
 30 
0.0
 0 
VERTEX
 8 
1
 10 
0.975
 20 
0.48263
 30 
0.0
 0 
VERTEX
 8 
1
 10 
0.95
 20 
0.47588
 30 
0.0
 0 
VERTEX
 8 
1
 10 
0.925
 20 
0.47083
 30 
0.0
 0 
VERTEX
 8 
1
 10 
0.9
 20 
0.46676
 30 
0.0
 0 
VERTEX
 8 
1
 10 
0.85
 20 
0.4605
 30 
0.0
 0 
VERTEX
 8 
1
 10 
0.8
 20 
0.456
 30 
0.0
 0 
VERTEX
 8 
1
 10 
0.75
 20 
0.45286
 30 
0.0
 0 
VERTEX
 8 
1
 10 
0.7
 20 
0.45087
 30 
0.0
 0 
VERTEX
 8 
1
 10 
0.65
 20 
0.45005
 30 
0.0
 0 
VERTEX
 8 
1
 10 
0.6
 20 
0.45032
 30 
0.0
 0 
VERTEX
 8 
1
 10 
0.55
 20 
0.45163
 30 
0.0
 0 
VERTEX
 8 
1
 10 
0.5
 20 
0.45387
 30 
0.0
 0 
VERTEX
 8 
1
 10 
0.45
 20 
0.45689
 30 
0.0
 0 
VERTEX
 8 
1
 10 
0.4
 20 
0.46057
 30 
0.0
 0 
VERTEX
 8 
1
 10 
0.35
 20 
0.46483
 30 
0.0
 0 
VERTEX
 8 
1
 10 
0.3
 20 
0.46956
 30 
0.0
 0 
VERTEX
 8 
1
 10 
0.25
 20 
0.47455
 30 
0.0
 0 
VERTEX
 8 
1
 10 
0.2
 20 
0.4796
 30 
0.0
 0 
VERTEX
 8 
1
 10 
0.15
 20 
0.48465
 30 
0.0
 0 
VERTEX
 8 
1
 10 
0.1
 20 
0.4897
 30 
0.0
 0 
VERTEX
 8 
1
 10 
0.05
 20 
0.49475
 30 
0.0
 0 
VERTEX
 8 
1
 10 
0.0
 20 
0.49979
 30 
0.0
 0 
SEQEND
 8 
1
 0 
ENDSEC
 0 
EOF
