 0 
SECTION
 2 
ENTITIES
 0 
POLYLINE
 8 
1
 66 
 1 
 10 
0.0
 20 
0.0
 30 
0.0
 0 
VERTEX
 8 
1
 10 
0.0
 20 
0.5
 30 
0.0
 0 
VERTEX
 8 
1
 10 
0.04972
 20 
0.50931
 30 
0.0
 0 
VERTEX
 8 
1
 10 
0.09941
 20 
0.51884
 30 
0.0
 0 
VERTEX
 8 
1
 10 
0.14915
 20 
0.52885
 30 
0.0
 0 
VERTEX
 8 
1
 10 
0.19898
 20 
0.539
 30 
0.0
 0 
VERTEX
 8 
1
 10 
0.24891
 20 
0.54907
 30 
0.0
 0 
VERTEX
 8 
1
 10 
0.29894
 20 
0.55877
 30 
0.0
 0 
VERTEX
 8 
1
 10 
0.34907
 20 
0.5678
 30 
0.0
 0 
VERTEX
 8 
1
 10 
0.3993
 20 
0.57595
 30 
0.0
 0 
VERTEX
 8 
1
 10 
0.44961
 20 
0.58298
 30 
0.0
 0 
VERTEX
 8 
1
 10 
0.5
 20 
0.58871
 30 
0.0
 0 
VERTEX
 8 
1
 10 
0.55045
 20 
0.59289
 30 
0.0
 0 
VERTEX
 8 
1
 10 
0.60095
 20 
0.59527
 30 
0.0
 0 
VERTEX
 8 
1
 10 
0.65148
 20 
0.59559
 30 
0.0
 0 
VERTEX
 8 
1
 10 
0.702
 20 
0.59362
 30 
0.0
 0 
VERTEX
 8 
1
 10 
0.7525
 20 
0.58941
 30 
0.0
 0 
VERTEX
 8 
1
 10 
0.80295
 20 
0.58279
 30 
0.0
 0 
VERTEX
 8 
1
 10 
0.85331
 20 
0.57348
 30 
0.0
 0 
VERTEX
 8 
1
 10 
0.90353
 20 
0.56077
 30 
0.0
 0 
VERTEX
 8 
1
 10 
0.92853
 20 
0.55261
 30 
0.0
 0 
VERTEX
 8 
1
 10 
0.9534
 20 
0.54264
 30 
0.0
 0 
VERTEX
 8 
1
 10 
0.97802
 20 
0.52964
 30 
0.0
 0 
VERTEX
 8 
1
 10 
0.99009
 20 
0.52074
 30 
0.0
 0 
VERTEX
 8 
1
 10 
0.99475
 20 
0.51585
 30 
0.0
 0 
VERTEX
 8 
1
 10 
0.997
 20 
0.51287
 30 
0.0
 0 
VERTEX
 8 
1
 10 
1
 20 
0.5
 30 
0.0
 0 
VERTEX
 8 
1
 10 
0.993
 20 
0.48913
 30 
0.0
 0 
VERTEX
 8 
1
 10 
0.99025
 20 
0.48695
 30 
0.0
 0 
VERTEX
 8 
1
 10 
0.98491
 20 
0.48354
 30 
0.0
 0 
VERTEX
 8 
1
 10 
0.97198
 20 
0.4778
 30 
0.0
 0 
VERTEX
 8 
1
 10 
0.9466
 20 
0.47
 30 
0.0
 0 
VERTEX
 8 
1
 10 
0.92147
 20 
0.46435
 30 
0.0
 0 
VERTEX
 8 
1
 10 
0.89647
 20 
0.45991
 30 
0.0
 0 
VERTEX
 8 
1
 10 
0.84669
 20 
0.45344
 30 
0.0
 0 
VERTEX
 8 
1
 10 
0.79705
 20 
0.44905
 30 
0.0
 0 
VERTEX
 8 
1
 10 
0.7475
 20 
0.44639
 30 
0.0
 0 
VERTEX
 8 
1
 10 
0.698
 20 
0.44526
 30 
0.0
 0 
VERTEX
 8 
1
 10 
0.64852
 20 
0.44561
 30 
0.0
 0 
VERTEX
 8 
1
 10 
0.59905
 20 
0.44757
 30 
0.0
 0 
VERTEX
 8 
1
 10 
0.54955
 20 
0.45091
 30 
0.0
 0 
VERTEX
 8 
1
 10 
0.5
 20 
0.45541
 30 
0.0
 0 
VERTEX
 8 
1
 10 
0.45039
 20 
0.46082
 30 
0.0
 0 
VERTEX
 8 
1
 10 
0.4007
 20 
0.46689
 30 
0.0
 0 
VERTEX
 8 
1
 10 
0.35093
 20 
0.4734
 30 
0.0
 0 
VERTEX
 8 
1
 10 
0.30106
 20 
0.48011
 30 
0.0
 0 
VERTEX
 8 
1
 10 
0.25109
 20 
0.48673
 30 
0.0
 0 
VERTEX
 8 
1
 10 
0.20011
 20 
0.49284
 30 
0.0
 0 
VERTEX
 8 
1
 10 
0.15085
 20 
0.49807
 30 
0.0
 0 
VERTEX
 8 
1
 10 
0.10059
 20 
0.50184
 30 
0.0
 0 
VERTEX
 8 
1
 10 
0.05028
 20 
0.50333
 30 
0.0
 0 
VERTEX
 8 
1
 10 
0.0
 20 
0.5
 30 
0.0
 0 
SEQEND
 8 
1
 0 
ENDSEC
 0 
EOF
