 0 
SECTION
 2 
ENTITIES
 0 
POLYLINE
 8 
1
 66 
 1 
 10 
0.0
 20 
0.0
 30 
0.0
 0 
VERTEX
 8 
1
 10 
0.0
 20 
0.5
 30 
0.0
 0 
VERTEX
 8 
1
 10 
0.04977
 20 
0.50881
 30 
0.0
 0 
VERTEX
 8 
1
 10 
0.09951
 20 
0.51739
 30 
0.0
 0 
VERTEX
 8 
1
 10 
0.1493
 20 
0.52618
 30 
0.0
 0 
VERTEX
 8 
1
 10 
0.19916
 20 
0.53492
 30 
0.0
 0 
VERTEX
 8 
1
 10 
0.24911
 20 
0.54344
 30 
0.0
 0 
VERTEX
 8 
1
 10 
0.29913
 20 
0.55153
 30 
0.0
 0 
VERTEX
 8 
1
 10 
0.34924
 20 
0.55899
 30 
0.0
 0 
VERTEX
 8 
1
 10 
0.39943
 20 
0.56562
 30 
0.0
 0 
VERTEX
 8 
1
 10 
0.44969
 20 
0.57125
 30 
0.0
 0 
VERTEX
 8 
1
 10 
0.5
 20 
0.57567
 30 
0.0
 0 
VERTEX
 8 
1
 10 
0.55036
 20 
0.57894
 30 
0.0
 0 
VERTEX
 8 
1
 10 
0.60076
 20 
0.58062
 30 
0.0
 0 
VERTEX
 8 
1
 10 
0.65118
 20 
0.58059
 30 
0.0
 0 
VERTEX
 8 
1
 10 
0.7016
 20 
0.57872
 30 
0.0
 0 
VERTEX
 8 
1
 10 
0.752
 20 
0.57499
 30 
0.0
 0 
VERTEX
 8 
1
 10 
0.80235
 20 
0.56929
 30 
0.0
 0 
VERTEX
 8 
1
 10 
0.85265
 20 
0.56138
 30 
0.0
 0 
VERTEX
 8 
1
 10 
0.90282
 20 
0.55063
 30 
0.0
 0 
VERTEX
 8 
1
 10 
0.92782
 20 
0.54379
 30 
0.0
 0 
VERTEX
 8 
1
 10 
0.95273
 20 
0.53544
 30 
0.0
 0 
VERTEX
 8 
1
 10 
0.97743
 20 
0.5246
 30 
0.0
 0 
VERTEX
 8 
1
 10 
0.98959
 20 
0.51719
 30 
0.0
 0 
VERTEX
 8 
1
 10 
0.99433
 20 
0.5132
 30 
0.0
 0 
VERTEX
 8 
1
 10 
0.99664
 20 
0.51071
 30 
0.0
 0 
VERTEX
 8 
1
 10 
1
 20 
0.5
 30 
0.0
 0 
VERTEX
 8 
1
 10 
0.99336
 20 
0.49129
 30 
0.0
 0 
VERTEX
 8 
1
 10 
0.99067
 20 
0.4896
 30 
0.0
 0 
VERTEX
 8 
1
 10 
0.98541
 20 
0.48709
 30 
0.0
 0 
VERTEX
 8 
1
 10 
0.97257
 20 
0.48284
 30 
0.0
 0 
VERTEX
 8 
1
 10 
0.94727
 20 
0.4772
 30 
0.0
 0 
VERTEX
 8 
1
 10 
0.92218
 20 
0.47315
 30 
0.0
 0 
VERTEX
 8 
1
 10 
0.89718
 20 
0.47005
 30 
0.0
 0 
VERTEX
 8 
1
 10 
0.84735
 20 
0.46554
 30 
0.0
 0 
VERTEX
 8 
1
 10 
0.79765
 20 
0.46255
 30 
0.0
 0 
VERTEX
 8 
1
 10 
0.748
 20 
0.46081
 30 
0.0
 0 
VERTEX
 8 
1
 10 
0.6984
 20 
0.46016
 30 
0.0
 0 
VERTEX
 8 
1
 10 
0.64888
 20 
0.46061
 30 
0.0
 0 
VERTEX
 8 
1
 10 
0.59924
 20 
0.46222
 30 
0.0
 0 
VERTEX
 8 
1
 10 
0.54965
 20 
0.46486
 30 
0.0
 0 
VERTEX
 8 
1
 10 
0.5
 20 
0.46836
 30 
0.0
 0 
VERTEX
 8 
1
 10 
0.45031
 20 
0.47255
 30 
0.0
 0 
VERTEX
 8 
1
 10 
0.40057
 20 
0.47722
 30 
0.0
 0 
VERTEX
 8 
1
 10 
0.35076
 20 
0.48201
 30 
0.0
 0 
VERTEX
 8 
1
 10 
0.30087
 20 
0.48735
 30 
0.0
 0 
VERTEX
 8 
1
 10 
0.25089
 20 
0.49236
 30 
0.0
 0 
VERTEX
 8 
1
 10 
0.20084
 20 
0.49692
 30 
0.0
 0 
VERTEX
 8 
1
 10 
0.1507
 20 
0.50074
 30 
0.0
 0 
VERTEX
 8 
1
 10 
0.10049
 20 
0.50329
 30 
0.0
 0 
VERTEX
 8 
1
 10 
0.05023
 20 
0.5033
 30 
0.0
 0 
VERTEX
 8 
1
 10 
0.0
 20 
0.5
 30 
0.0
 0 
SEQEND
 8 
1
 0 
ENDSEC
 0 
EOF
