 0 
SECTION
 2 
ENTITIES
 0 
POLYLINE
 8 
1
 66 
 1 
 10 
0.0
 20 
0.0
 30 
0.0
 0 
VERTEX
 8 
1
 10 
0.0
 20 
0.50018
 30 
0.0
 0 
VERTEX
 8 
1
 10 
0.05
 20 
0.50438
 30 
0.0
 0 
VERTEX
 8 
1
 10 
0.1
 20 
0.50858
 30 
0.0
 0 
VERTEX
 8 
1
 10 
0.15
 20 
0.51278
 30 
0.0
 0 
VERTEX
 8 
1
 10 
0.2
 20 
0.51698
 30 
0.0
 0 
VERTEX
 8 
1
 10 
0.25
 20 
0.52117
 30 
0.0
 0 
VERTEX
 8 
1
 10 
0.3
 20 
0.52521
 30 
0.0
 0 
VERTEX
 8 
1
 10 
0.35
 20 
0.52897
 30 
0.0
 0 
VERTEX
 8 
1
 10 
0.4
 20 
0.53234
 30 
0.0
 0 
VERTEX
 8 
1
 10 
0.45
 20 
0.53524
 30 
0.0
 0 
VERTEX
 8 
1
 10 
0.5
 20 
0.53757
 30 
0.0
 0 
VERTEX
 8 
1
 10 
0.55
 20 
0.53921
 30 
0.0
 0 
VERTEX
 8 
1
 10 
0.6
 20 
0.53998
 30 
0.0
 0 
VERTEX
 8 
1
 10 
0.65
 20 
0.53972
 30 
0.0
 0 
VERTEX
 8 
1
 10 
0.7
 20 
0.53866
 30 
0.0
 0 
VERTEX
 8 
1
 10 
0.75
 20 
0.53681
 30 
0.0
 0 
VERTEX
 8 
1
 10 
0.8
 20 
0.53414
 30 
0.0
 0 
VERTEX
 8 
1
 10 
0.85
 20 
0.53047
 30 
0.0
 0 
VERTEX
 8 
1
 10 
0.9
 20 
0.52559
 30 
0.0
 0 
VERTEX
 8 
1
 10 
0.925
 20 
0.52245
 30 
0.0
 0 
VERTEX
 8 
1
 10 
0.95
 20 
0.51863
 30 
0.0
 0 
VERTEX
 8 
1
 10 
0.975
 20 
0.51353
 30 
0.0
 0 
VERTEX
 8 
1
 10 
0.9875
 20 
0.50983
 30 
0.0
 0 
VERTEX
 8 
1
 10 
0.9925
 20 
0.50778
 30 
0.0
 0 
VERTEX
 8 
1
 10 
0.995
 20 
0.50646
 30 
0.0
 0 
VERTEX
 8 
1
 10 
1
 20 
0.5
 30 
0.0
 0 
VERTEX
 8 
1
 10 
0.995
 20 
0.49354
 30 
0.0
 0 
VERTEX
 8 
1
 10 
0.9925
 20 
0.49222
 30 
0.0
 0 
VERTEX
 8 
1
 10 
0.9875
 20 
0.49017
 30 
0.0
 0 
VERTEX
 8 
1
 10 
0.975
 20 
0.48647
 30 
0.0
 0 
VERTEX
 8 
1
 10 
0.95
 20 
0.48137
 30 
0.0
 0 
VERTEX
 8 
1
 10 
0.925
 20 
0.47755
 30 
0.0
 0 
VERTEX
 8 
1
 10 
0.9
 20 
0.47441
 30 
0.0
 0 
VERTEX
 8 
1
 10 
0.85
 20 
0.46953
 30 
0.0
 0 
VERTEX
 8 
1
 10 
0.8
 20 
0.46586
 30 
0.0
 0 
VERTEX
 8 
1
 10 
0.75
 20 
0.46319
 30 
0.0
 0 
VERTEX
 8 
1
 10 
0.7
 20 
0.46134
 30 
0.0
 0 
VERTEX
 8 
1
 10 
0.65
 20 
0.46028
 30 
0.0
 0 
VERTEX
 8 
1
 10 
0.6
 20 
0.46002
 30 
0.0
 0 
VERTEX
 8 
1
 10 
0.55
 20 
0.46079
 30 
0.0
 0 
VERTEX
 8 
1
 10 
0.5
 20 
0.46243
 30 
0.0
 0 
VERTEX
 8 
1
 10 
0.45
 20 
0.46476
 30 
0.0
 0 
VERTEX
 8 
1
 10 
0.4
 20 
0.46766
 30 
0.0
 0 
VERTEX
 8 
1
 10 
0.35
 20 
0.47103
 30 
0.0
 0 
VERTEX
 8 
1
 10 
0.3
 20 
0.47479
 30 
0.0
 0 
VERTEX
 8 
1
 10 
0.25
 20 
0.47883
 30 
0.0
 0 
VERTEX
 8 
1
 10 
0.2
 20 
0.48302
 30 
0.0
 0 
VERTEX
 8 
1
 10 
0.15
 20 
0.48722
 30 
0.0
 0 
VERTEX
 8 
1
 10 
0.1
 20 
0.49142
 30 
0.0
 0 
VERTEX
 8 
1
 10 
0.05
 20 
0.49562
 30 
0.0
 0 
VERTEX
 8 
1
 10 
0.0
 20 
0.49982
 30 
0.0
 0 
SEQEND
 8 
1
 0 
ENDSEC
 0 
EOF
