 0 
SECTION
 2 
ENTITIES
 0 
POLYLINE
 8 
1
 66 
 1 
 10 
0.0
 20 
0.0
 30 
0.0
 0 
VERTEX
 8 
1
 10 
0.0
 20 
0.5
 30 
0.0
 0 
VERTEX
 8 
1
 10 
0.05
 20 
0.50288
 30 
0.0
 0 
VERTEX
 8 
1
 10 
0.1
 20 
0.50789
 30 
0.0
 0 
VERTEX
 8 
1
 10 
0.15
 20 
0.51382
 30 
0.0
 0 
VERTEX
 8 
1
 10 
0.2
 20 
0.52029
 30 
0.0
 0 
VERTEX
 8 
1
 10 
0.25
 20 
0.52695
 30 
0.0
 0 
VERTEX
 8 
1
 10 
0.3
 20 
0.5335
 30 
0.0
 0 
VERTEX
 8 
1
 10 
0.35
 20 
0.53974
 30 
0.0
 0 
VERTEX
 8 
1
 10 
0.4
 20 
0.54548
 30 
0.0
 0 
VERTEX
 8 
1
 10 
0.45
 20 
0.55056
 30 
0.0
 0 
VERTEX
 8 
1
 10 
0.5
 20 
0.5548
 30 
0.0
 0 
VERTEX
 8 
1
 10 
0.55
 20 
0.55798
 30 
0.0
 0 
VERTEX
 8 
1
 10 
0.6
 20 
0.55981
 30 
0.0
 0 
VERTEX
 8 
1
 10 
0.65
 20 
0.55978
 30 
0.0
 0 
VERTEX
 8 
1
 10 
0.7
 20 
0.55844
 30 
0.0
 0 
VERTEX
 8 
1
 10 
0.75
 20 
0.55576
 30 
0.0
 0 
VERTEX
 8 
1
 10 
0.8
 20 
0.55173
 30 
0.0
 0 
VERTEX
 8 
1
 10 
0.85
 20 
0.5462
 30 
0.0
 0 
VERTEX
 8 
1
 10 
0.9
 20 
0.53871
 30 
0.0
 0 
VERTEX
 8 
1
 10 
0.925
 20 
0.53394
 30 
0.0
 0 
VERTEX
 8 
1
 10 
0.95
 20 
0.5281
 30 
0.0
 0 
VERTEX
 8 
1
 10 
0.975
 20 
0.52035
 30 
0.0
 0 
VERTEX
 8 
1
 10 
0.9875
 20 
0.5149
 30 
0.0
 0 
VERTEX
 8 
1
 10 
0.9925
 20 
0.51179
 30 
0.0
 0 
VERTEX
 8 
1
 10 
0.995
 20 
0.50978
 30 
0.0
 0 
VERTEX
 8 
1
 10 
1
 20 
0.5
 30 
0.0
 0 
VERTEX
 8 
1
 10 
0.995
 20 
0.49022
 30 
0.0
 0 
VERTEX
 8 
1
 10 
0.9925
 20 
0.48821
 30 
0.0
 0 
VERTEX
 8 
1
 10 
0.9875
 20 
0.4851
 30 
0.0
 0 
VERTEX
 8 
1
 10 
0.975
 20 
0.47965
 30 
0.0
 0 
VERTEX
 8 
1
 10 
0.95
 20 
0.4719
 30 
0.0
 0 
VERTEX
 8 
1
 10 
0.925
 20 
0.46606
 30 
0.0
 0 
VERTEX
 8 
1
 10 
0.9
 20 
0.46129
 30 
0.0
 0 
VERTEX
 8 
1
 10 
0.85
 20 
0.4538
 30 
0.0
 0 
VERTEX
 8 
1
 10 
0.8
 20 
0.44827
 30 
0.0
 0 
VERTEX
 8 
1
 10 
0.75
 20 
0.44424
 30 
0.0
 0 
VERTEX
 8 
1
 10 
0.7
 20 
0.44156
 30 
0.0
 0 
VERTEX
 8 
1
 10 
0.65
 20 
0.44022
 30 
0.0
 0 
VERTEX
 8 
1
 10 
0.6
 20 
0.44019
 30 
0.0
 0 
VERTEX
 8 
1
 10 
0.55
 20 
0.44202
 30 
0.0
 0 
VERTEX
 8 
1
 10 
0.5
 20 
0.4452
 30 
0.0
 0 
VERTEX
 8 
1
 10 
0.45
 20 
0.44944
 30 
0.0
 0 
VERTEX
 8 
1
 10 
0.4
 20 
0.45452
 30 
0.0
 0 
VERTEX
 8 
1
 10 
0.35
 20 
0.46026
 30 
0.0
 0 
VERTEX
 8 
1
 10 
0.3
 20 
0.4665
 30 
0.0
 0 
VERTEX
 8 
1
 10 
0.25
 20 
0.47305
 30 
0.0
 0 
VERTEX
 8 
1
 10 
0.2
 20 
0.47971
 30 
0.0
 0 
VERTEX
 8 
1
 10 
0.15
 20 
0.48618
 30 
0.0
 0 
VERTEX
 8 
1
 10 
0.1
 20 
0.49211
 30 
0.0
 0 
VERTEX
 8 
1
 10 
0.05
 20 
0.49712
 30 
0.0
 0 
VERTEX
 8 
1
 10 
0.0
 20 
0.5
 30 
0.0
 0 
SEQEND
 8 
1
 0 
ENDSEC
 0 
EOF
