 0 
SECTION
 2 
ENTITIES
 0 
POLYLINE
 8 
1
 66 
 1 
 10 
0.0
 20 
0.0
 30 
0.0
 0 
VERTEX
 8 
1
 10 
0.0
 20 
0.5
 30 
0.0
 0 
VERTEX
 8 
1
 10 
0.05
 20 
0.50346
 30 
0.0
 0 
VERTEX
 8 
1
 10 
0.1
 20 
0.5095
 30 
0.0
 0 
VERTEX
 8 
1
 10 
0.15
 20 
0.51677
 30 
0.0
 0 
VERTEX
 8 
1
 10 
0.2
 20 
0.52472
 30 
0.0
 0 
VERTEX
 8 
1
 10 
0.25
 20 
0.53296
 30 
0.0
 0 
VERTEX
 8 
1
 10 
0.3
 20 
0.54113
 30 
0.0
 0 
VERTEX
 8 
1
 10 
0.35
 20 
0.54895
 30 
0.0
 0 
VERTEX
 8 
1
 10 
0.4
 20 
0.5562
 30 
0.0
 0 
VERTEX
 8 
1
 10 
0.45
 20 
0.56266
 30 
0.0
 0 
VERTEX
 8 
1
 10 
0.5
 20 
0.5681
 30 
0.0
 0 
VERTEX
 8 
1
 10 
0.55
 20 
0.57224
 30 
0.0
 0 
VERTEX
 8 
1
 10 
0.6
 20 
0.57473
 30 
0.0
 0 
VERTEX
 8 
1
 10 
0.65
 20 
0.57482
 30 
0.0
 0 
VERTEX
 8 
1
 10 
0.7
 20 
0.57319
 30 
0.0
 0 
VERTEX
 8 
1
 10 
0.75
 20 
0.56985
 30 
0.0
 0 
VERTEX
 8 
1
 10 
0.8
 20 
0.5648
 30 
0.0
 0 
VERTEX
 8 
1
 10 
0.85
 20 
0.55785
 30 
0.0
 0 
VERTEX
 8 
1
 10 
0.9
 20 
0.54842
 30 
0.0
 0 
VERTEX
 8 
1
 10 
0.925
 20 
0.5424
 30 
0.0
 0 
VERTEX
 8 
1
 10 
0.95
 20 
0.53504
 30 
0.0
 0 
VERTEX
 8 
1
 10 
0.975
 20 
0.52528
 30 
0.0
 0 
VERTEX
 8 
1
 10 
0.9875
 20 
0.51842
 30 
0.0
 0 
VERTEX
 8 
1
 10 
0.9925
 20 
0.51456
 30 
0.0
 0 
VERTEX
 8 
1
 10 
0.995
 20 
0.51208
 30 
0.0
 0 
VERTEX
 8 
1
 10 
1
 20 
0.5
 30 
0.0
 0 
VERTEX
 8 
1
 10 
0.995
 20 
0.48792
 30 
0.0
 0 
VERTEX
 8 
1
 10 
0.9925
 20 
0.48544
 30 
0.0
 0 
VERTEX
 8 
1
 10 
0.9875
 20 
0.48158
 30 
0.0
 0 
VERTEX
 8 
1
 10 
0.975
 20 
0.47472
 30 
0.0
 0 
VERTEX
 8 
1
 10 
0.95
 20 
0.46496
 30 
0.0
 0 
VERTEX
 8 
1
 10 
0.925
 20 
0.4576
 30 
0.0
 0 
VERTEX
 8 
1
 10 
0.9
 20 
0.45158
 30 
0.0
 0 
VERTEX
 8 
1
 10 
0.85
 20 
0.44215
 30 
0.0
 0 
VERTEX
 8 
1
 10 
0.8
 20 
0.4352
 30 
0.0
 0 
VERTEX
 8 
1
 10 
0.75
 20 
0.43015
 30 
0.0
 0 
VERTEX
 8 
1
 10 
0.7
 20 
0.42681
 30 
0.0
 0 
VERTEX
 8 
1
 10 
0.65
 20 
0.42518
 30 
0.0
 0 
VERTEX
 8 
1
 10 
0.6
 20 
0.42527
 30 
0.0
 0 
VERTEX
 8 
1
 10 
0.55
 20 
0.42776
 30 
0.0
 0 
VERTEX
 8 
1
 10 
0.5
 20 
0.4319
 30 
0.0
 0 
VERTEX
 8 
1
 10 
0.45
 20 
0.43734
 30 
0.0
 0 
VERTEX
 8 
1
 10 
0.4
 20 
0.4438
 30 
0.0
 0 
VERTEX
 8 
1
 10 
0.35
 20 
0.45105
 30 
0.0
 0 
VERTEX
 8 
1
 10 
0.3
 20 
0.45887
 30 
0.0
 0 
VERTEX
 8 
1
 10 
0.25
 20 
0.46704
 30 
0.0
 0 
VERTEX
 8 
1
 10 
0.2
 20 
0.47528
 30 
0.0
 0 
VERTEX
 8 
1
 10 
0.15
 20 
0.48323
 30 
0.0
 0 
VERTEX
 8 
1
 10 
0.1
 20 
0.4905
 30 
0.0
 0 
VERTEX
 8 
1
 10 
0.05
 20 
0.49654
 30 
0.0
 0 
VERTEX
 8 
1
 10 
0.0
 20 
0.5
 30 
0.0
 0 
SEQEND
 8 
1
 0 
ENDSEC
 0 
EOF
