 0 
SECTION
 2 
ENTITIES
 0 
POLYLINE
 8 
1
 66 
 1 
 10 
0.0
 20 
0.0
 30 
0.0
 0 
VERTEX
 8 
1
 10 
0.0
 20 
0.5
 30 
0.0
 0 
VERTEX
 8 
1
 10 
0.04882
 20 
0.50702
 30 
0.0
 0 
VERTEX
 8 
1
 10 
0.09762
 20 
0.51499
 30 
0.0
 0 
VERTEX
 8 
1
 10 
0.14643
 20 
0.52347
 30 
0.0
 0 
VERTEX
 8 
1
 10 
0.19528
 20 
0.53216
 30 
0.0
 0 
VERTEX
 8 
1
 10 
0.24418
 20 
0.54079
 30 
0.0
 0 
VERTEX
 8 
1
 10 
0.29313
 20 
0.54909
 30 
0.0
 0 
VERTEX
 8 
1
 10 
0.34212
 20 
0.55689
 30 
0.0
 0 
VERTEX
 8 
1
 10 
0.39117
 20 
0.56403
 30 
0.0
 0 
VERTEX
 8 
1
 10 
0.44026
 20 
0.57033
 30 
0.0
 0 
VERTEX
 8 
1
 10 
0.48941
 20 
0.57563
 30 
0.0
 0 
VERTEX
 8 
1
 10 
0.53859
 20 
0.57972
 30 
0.0
 0 
VERTEX
 8 
1
 10 
0.58784
 20 
0.58229
 30 
0.0
 0 
VERTEX
 8 
1
 10 
0.63712
 20 
0.58284
 30 
0.0
 0 
VERTEX
 8 
1
 10 
0.68641
 20 
0.58274
 30 
0.0
 0 
VERTEX
 8 
1
 10 
0.73571
 20 
0.58113
 30 
0.0
 0 
VERTEX
 8 
1
 10 
0.78501
 20 
0.57882
 30 
0.0
 0 
VERTEX
 8 
1
 10 
0.83431
 20 
0.5755
 30 
0.0
 0 
VERTEX
 8 
1
 10 
0.88358
 20 
0.56969
 30 
0.0
 0 
VERTEX
 8 
1
 10 
0.90824
 20 
0.56468
 30 
0.0
 0 
VERTEX
 8 
1
 10 
0.93826
 20 
0.55818
 30 
0.0
 0 
VERTEX
 8 
1
 10 
0.95135
 20 
0.55154
 30 
0.0
 0 
VERTEX
 8 
1
 10 
0.96125
 20 
0.54733
 30 
0.0
 0 
VERTEX
 8 
1
 10 
0.97119
 20 
0.54143
 30 
0.0
 0 
VERTEX
 8 
1
 10 
0.98113
 20 
0.53523
 30 
0.0
 0 
VERTEX
 8 
1
 10 
0.98612
 20 
0.53153
 30 
0.0
 0 
VERTEX
 8 
1
 10 
0.99113
 20 
0.52633
 30 
0.0
 0 
VERTEX
 8 
1
 10 
0.99516
 20 
0.52091
 30 
0.0
 0 
VERTEX
 8 
1
 10 
0.99825
 20 
0.51397
 30 
0.0
 0 
VERTEX
 8 
1
 10 
1
 20 
0.5
 30 
0.0
 0 
VERTEX
 8 
1
 10 
0.99866
 20 
0.49317
 30 
0.0
 0 
VERTEX
 8 
1
 10 
0.99581
 20 
0.48881
 30 
0.0
 0 
VERTEX
 8 
1
 10 
0.99195
 20 
0.48534
 30 
0.0
 0 
VERTEX
 8 
1
 10 
0.98709
 20 
0.48274
 30 
0.0
 0 
VERTEX
 8 
1
 10 
0.97732
 20 
0.48054
 30 
0.0
 0 
VERTEX
 8 
1
 10 
0.96752
 20 
0.47955
 30 
0.0
 0 
VERTEX
 8 
1
 10 
0.943
 20 
0.47826
 30 
0.0
 0 
VERTEX
 8 
1
 10 
0.90376
 20 
0.47627
 30 
0.0
 0 
VERTEX
 8 
1
 10 
0.86453
 20 
0.47429
 30 
0.0
 0 
VERTEX
 8 
1
 10 
0.82529
 20 
0.4724
 30 
0.0
 0 
VERTEX
 8 
1
 10 
0.78606
 20 
0.47032
 30 
0.0
 0 
VERTEX
 8 
1
 10 
0.74683
 20 
0.46813
 30 
0.0
 0 
VERTEX
 8 
1
 10 
0.68721
 20 
0.46503
 30 
0.0
 0 
VERTEX
 8 
1
 10 
0.63835
 20 
0.46328
 30 
0.0
 0 
VERTEX
 8 
1
 10 
0.58947
 20 
0.46268
 30 
0.0
 0 
VERTEX
 8 
1
 10 
0.54056
 20 
0.46377
 30 
0.0
 0 
VERTEX
 8 
1
 10 
0.4916
 20 
0.46606
 30 
0.0
 0 
VERTEX
 8 
1
 10 
0.4426
 20 
0.46924
 30 
0.0
 0 
VERTEX
 8 
1
 10 
0.39356
 20 
0.4731
 30 
0.0
 0 
VERTEX
 8 
1
 10 
0.34448
 20 
0.47745
 30 
0.0
 0 
VERTEX
 8 
1
 10 
0.29535
 20 
0.48212
 30 
0.0
 0 
VERTEX
 8 
1
 10 
0.24618
 20 
0.48692
 30 
0.0
 0 
VERTEX
 8 
1
 10 
0.19698
 20 
0.49161
 30 
0.0
 0 
VERTEX
 8 
1
 10 
0.14773
 20 
0.49587
 30 
0.0
 0 
VERTEX
 8 
1
 10 
0.09846
 20 
0.49928
 30 
0.0
 0 
VERTEX
 8 
1
 10 
0.04919
 20 
0.50126
 30 
0.0
 0 
VERTEX
 8 
1
 10 
0.0
 20 
0.5
 30 
0.0
 0 
SEQEND
 8 
1
 0 
ENDSEC
 0 
EOF
