 0 
SECTION
 2 
ENTITIES
 0 
POLYLINE
 8 
1
 66 
 1 
 10 
0.0
 20 
0.0
 30 
0.0
 0 
VERTEX
 8 
1
 10 
0.0
 20 
0.50124
 30 
0.0
 0 
VERTEX
 8 
1
 10 
0.0024199
 20 
0.50216
 30 
0.0
 0 
VERTEX
 8 
1
 10 
0.01039
 20 
0.5049
 30 
0.0
 0 
VERTEX
 8 
1
 10 
0.0236
 20 
0.50935
 30 
0.0
 0 
VERTEX
 8 
1
 10 
0.04192
 20 
0.51538
 30 
0.0
 0 
VERTEX
 8 
1
 10 
0.06519
 20 
0.52278
 30 
0.0
 0 
VERTEX
 8 
1
 10 
0.09318
 20 
0.5313
 30 
0.0
 0 
VERTEX
 8 
1
 10 
0.12564
 20 
0.54068
 30 
0.0
 0 
VERTEX
 8 
1
 10 
0.16223
 20 
0.55062
 30 
0.0
 0 
VERTEX
 8 
1
 10 
0.2026
 20 
0.56082
 30 
0.0
 0 
VERTEX
 8 
1
 10 
0.24634
 20 
0.57097
 30 
0.0
 0 
VERTEX
 8 
1
 10 
0.29298
 20 
0.58079
 30 
0.0
 0 
VERTEX
 8 
1
 10 
0.34203
 20 
0.58998
 30 
0.0
 0 
VERTEX
 8 
1
 10 
0.39297
 20 
0.59827
 30 
0.0
 0 
VERTEX
 8 
1
 10 
0.44523
 20 
0.60543
 30 
0.0
 0 
VERTEX
 8 
1
 10 
0.49824
 20 
0.61124
 30 
0.0
 0 
VERTEX
 8 
1
 10 
0.55137
 20 
0.61554
 30 
0.0
 0 
VERTEX
 8 
1
 10 
0.60413
 20 
0.61817
 30 
0.0
 0 
VERTEX
 8 
1
 10 
0.65694
 20 
0.61841
 30 
0.0
 0 
VERTEX
 8 
1
 10 
0.70801
 20 
0.61583
 30 
0.0
 0 
VERTEX
 8 
1
 10 
0.75664
 20 
0.6106
 30 
0.0
 0 
VERTEX
 8 
1
 10 
0.8022
 20 
0.60302
 30 
0.0
 0 
VERTEX
 8 
1
 10 
0.84408
 20 
0.59344
 30 
0.0
 0 
VERTEX
 8 
1
 10 
0.88175
 20 
0.58231
 30 
0.0
 0 
VERTEX
 8 
1
 10 
0.91476
 20 
0.57012
 30 
0.0
 0 
VERTEX
 8 
1
 10 
0.94274
 20 
0.55736
 30 
0.0
 0 
VERTEX
 8 
1
 10 
0.9654
 20 
0.54452
 30 
0.0
 0 
VERTEX
 8 
1
 10 
0.98255
 20 
0.53204
 30 
0.0
 0 
VERTEX
 8 
1
 10 
0.99405
 20 
0.52029
 30 
0.0
 0 
VERTEX
 8 
1
 10 
0.99986
 20 
0.50955
 30 
0.0
 0 
VERTEX
 8 
1
 10 
1
 20 
0.5
 30 
0.0
 0 
VERTEX
 8 
1
 10 
0.99466
 20 
0.49208
 30 
0.0
 0 
VERTEX
 8 
1
 10 
0.9841
 20 
0.48617
 30 
0.0
 0 
VERTEX
 8 
1
 10 
0.96851
 20 
0.48219
 30 
0.0
 0 
VERTEX
 8 
1
 10 
0.94814
 20 
0.48001
 30 
0.0
 0 
VERTEX
 8 
1
 10 
0.92328
 20 
0.47946
 30 
0.0
 0 
VERTEX
 8 
1
 10 
0.89426
 20 
0.48033
 30 
0.0
 0 
VERTEX
 8 
1
 10 
0.86139
 20 
0.48237
 30 
0.0
 0 
VERTEX
 8 
1
 10 
0.82505
 20 
0.4853
 30 
0.0
 0 
VERTEX
 8 
1
 10 
0.78559
 20 
0.48879
 30 
0.0
 0 
VERTEX
 8 
1
 10 
0.74336
 20 
0.49252
 30 
0.0
 0 
VERTEX
 8 
1
 10 
0.69873
 20 
0.49616
 30 
0.0
 0 
VERTEX
 8 
1
 10 
0.65208
 20 
0.49936
 30 
0.0
 0 
VERTEX
 8 
1
 10 
0.60378
 20 
0.50182
 30 
0.0
 0 
VERTEX
 8 
1
 10 
0.55315
 20 
0.5037
 30 
0.0
 0 
VERTEX
 8 
1
 10 
0.50176
 20 
0.50542
 30 
0.0
 0 
VERTEX
 8 
1
 10 
0.45024
 20 
0.50684
 30 
0.0
 0 
VERTEX
 8 
1
 10 
0.39912
 20 
0.50786
 30 
0.0
 0 
VERTEX
 8 
1
 10 
0.34895
 20 
0.50843
 30 
0.0
 0 
VERTEX
 8 
1
 10 
0.30028
 20 
0.50853
 30 
0.0
 0 
VERTEX
 8 
1
 10 
0.25366
 20 
0.50819
 30 
0.0
 0 
VERTEX
 8 
1
 10 
0.20961
 20 
0.50747
 30 
0.0
 0 
VERTEX
 8 
1
 10 
0.16863
 20 
0.50643
 30 
0.0
 0 
VERTEX
 8 
1
 10 
0.13122
 20 
0.5052
 30 
0.0
 0 
VERTEX
 8 
1
 10 
0.0978
 20 
0.50386
 30 
0.0
 0 
VERTEX
 8 
1
 10 
0.06879
 20 
0.50252
 30 
0.0
 0 
VERTEX
 8 
1
 10 
0.04454
 20 
0.50129
 30 
0.0
 0 
VERTEX
 8 
1
 10 
0.02535
 20 
0.50024
 30 
0.0
 0 
VERTEX
 8 
1
 10 
0.01146
 20 
0.49943
 30 
0.0
 0 
VERTEX
 8 
1
 10 
0.0030599
 20 
0.49893
 30 
0.0
 0 
VERTEX
 8 
1
 10 
0.00024999
 20 
0.49876
 30 
0.0
 0 
VERTEX
 8 
1
 10 
0.0
 20 
0.5
 30 
0.0
 0 
SEQEND
 8 
1
 0 
ENDSEC
 0 
EOF
