 0 
SECTION
 2 
ENTITIES
 0 
POLYLINE
 8 
1
 66 
 1 
 10 
0.0
 20 
0.0
 30 
0.0
 0 
VERTEX
 8 
1
 10 
0.0
 20 
0.50126
 30 
0.0
 0 
VERTEX
 8 
1
 10 
0.0027000
 20 
0.5017
 30 
0.0
 0 
VERTEX
 8 
1
 10 
0.01086
 20 
0.50302
 30 
0.0
 0 
VERTEX
 8 
1
 10 
0.02437
 20 
0.50518
 30 
0.0
 0 
VERTEX
 8 
1
 10 
0.043070
 20 
0.50812
 30 
0.0
 0 
VERTEX
 8 
1
 10 
0.06676
 20 
0.51176
 30 
0.0
 0 
VERTEX
 8 
1
 10 
0.09518
 20 
0.51602
 30 
0.0
 0 
VERTEX
 8 
1
 10 
0.12803
 20 
0.52079
 30 
0.0
 0 
VERTEX
 8 
1
 10 
0.16494
 20 
0.52597
 30 
0.0
 0 
VERTEX
 8 
1
 10 
0.20551
 20 
0.53145
 30 
0.0
 0 
VERTEX
 8 
1
 10 
0.2493
 20 
0.53712
 30 
0.0
 0 
VERTEX
 8 
1
 10 
0.29583
 20 
0.54285
 30 
0.0
 0 
VERTEX
 8 
1
 10 
0.34459
 20 
0.54854
 30 
0.0
 0 
VERTEX
 8 
1
 10 
0.39504
 20 
0.55405
 30 
0.0
 0 
VERTEX
 8 
1
 10 
0.44665
 20 
0.55924
 30 
0.0
 0 
VERTEX
 8 
1
 10 
0.49883
 20 
0.56397
 30 
0.0
 0 
VERTEX
 8 
1
 10 
0.55103
 20 
0.56811
 30 
0.0
 0 
VERTEX
 8 
1
 10 
0.60267
 20 
0.5715
 30 
0.0
 0 
VERTEX
 8 
1
 10 
0.65319
 20 
0.57402
 30 
0.0
 0 
VERTEX
 8 
1
 10 
0.70204
 20 
0.57554
 30 
0.0
 0 
VERTEX
 8 
1
 10 
0.74869
 20 
0.57597
 30 
0.0
 0 
VERTEX
 8 
1
 10 
0.79262
 20 
0.57524
 30 
0.0
 0 
VERTEX
 8 
1
 10 
0.83396
 20 
0.5732
 30 
0.0
 0 
VERTEX
 8 
1
 10 
0.87268
 20 
0.56915
 30 
0.0
 0 
VERTEX
 8 
1
 10 
0.9077
 20 
0.56265
 30 
0.0
 0 
VERTEX
 8 
1
 10 
0.93797
 20 
0.55382
 30 
0.0
 0 
VERTEX
 8 
1
 10 
0.9627
 20 
0.54324
 30 
0.0
 0 
VERTEX
 8 
1
 10 
0.98135
 20 
0.53176
 30 
0.0
 0 
VERTEX
 8 
1
 10 
0.99372
 20 
0.5203
 30 
0.0
 0 
VERTEX
 8 
1
 10 
0.99985
 20 
0.50956
 30 
0.0
 0 
VERTEX
 8 
1
 10 
1
 20 
0.5
 30 
0.0
 0 
VERTEX
 8 
1
 10 
0.99467
 20 
0.49208
 30 
0.0
 0 
VERTEX
 8 
1
 10 
0.98443
 20 
0.48599
 30 
0.0
 0 
VERTEX
 8 
1
 10 
0.96971
 20 
0.4813
 30 
0.0
 0 
VERTEX
 8 
1
 10 
0.95085
 20 
0.47752
 30 
0.0
 0 
VERTEX
 8 
1
 10 
0.92805
 20 
0.47414
 30 
0.0
 0 
VERTEX
 8 
1
 10 
0.90132
 20 
0.47078
 30 
0.0
 0 
VERTEX
 8 
1
 10 
0.87046
 20 
0.46718
 30 
0.0
 0 
VERTEX
 8 
1
 10 
0.83517
 20 
0.4634
 30 
0.0
 0 
VERTEX
 8 
1
 10 
0.79517
 20 
0.45984
 30 
0.0
 0 
VERTEX
 8 
1
 10 
0.75131
 20 
0.45717
 30 
0.0
 0 
VERTEX
 8 
1
 10 
0.70469
 20 
0.45554
 30 
0.0
 0 
VERTEX
 8 
1
 10 
0.65582
 20 
0.4549
 30 
0.0
 0 
VERTEX
 8 
1
 10 
0.60524
 20 
0.45518
 30 
0.0
 0 
VERTEX
 8 
1
 10 
0.5535
 20 
0.45629
 30 
0.0
 0 
VERTEX
 8 
1
 10 
0.50117
 20 
0.45812
 30 
0.0
 0 
VERTEX
 8 
1
 10 
0.44883
 20 
0.46055
 30 
0.0
 0 
VERTEX
 8 
1
 10 
0.39704
 20 
0.46345
 30 
0.0
 0 
VERTEX
 8 
1
 10 
0.3464
 20 
0.46673
 30 
0.0
 0 
VERTEX
 8 
1
 10 
0.29743
 20 
0.47025
 30 
0.0
 0 
VERTEX
 8 
1
 10 
0.2507
 20 
0.47393
 30 
0.0
 0 
VERTEX
 8 
1
 10 
0.2067
 20 
0.47765
 30 
0.0
 0 
VERTEX
 8 
1
 10 
0.16593
 20 
0.48134
 30 
0.0
 0 
VERTEX
 8 
1
 10 
0.12882
 20 
0.48488
 30 
0.0
 0 
VERTEX
 8 
1
 10 
0.0958
 20 
0.4882
 30 
0.0
 0 
VERTEX
 8 
1
 10 
0.06721
 20 
0.4912
 30 
0.0
 0 
VERTEX
 8 
1
 10 
0.04339
 20 
0.49379
 30 
0.0
 0 
VERTEX
 8 
1
 10 
0.02457
 20 
0.4959
 30 
0.0
 0 
VERTEX
 8 
1
 10 
0.010990
 20 
0.49746
 30 
0.0
 0 
VERTEX
 8 
1
 10 
0.00278
 20 
0.49842
 30 
0.0
 0 
VERTEX
 8 
1
 10 
0.000029999
 20 
0.49874
 30 
0.0
 0 
SEQEND
 8 
1
 0 
ENDSEC
 0 
EOF
