 0 
SECTION
 2 
ENTITIES
 0 
POLYLINE
 8 
1
 66 
 1 
 10 
0.0
 20 
0.0
 30 
0.0
 0 
VERTEX
 8 
1
 10 
0.0
 20 
0.5
 30 
0.0
 0 
VERTEX
 8 
1
 10 
0.0056500
 20 
0.50062
 30 
0.0
 0 
VERTEX
 8 
1
 10 
0.022480
 20 
0.50254
 30 
0.0
 0 
VERTEX
 8 
1
 10 
0.05
 20 
0.50646
 30 
0.0
 0 
VERTEX
 8 
1
 10 
0.07311
 20 
0.51096
 30 
0.0
 0 
VERTEX
 8 
1
 10 
0.1
 20 
0.51713
 30 
0.0
 0 
VERTEX
 8 
1
 10 
0.15
 20 
0.52934
 30 
0.0
 0 
VERTEX
 8 
1
 10 
0.2
 20 
0.54206
 30 
0.0
 0 
VERTEX
 8 
1
 10 
0.25
 20 
0.55451
 30 
0.0
 0 
VERTEX
 8 
1
 10 
0.3
 20 
0.56597
 30 
0.0
 0 
VERTEX
 8 
1
 10 
0.35001
 20 
0.5758
 30 
0.0
 0 
VERTEX
 8 
1
 10 
0.4
 20 
0.58323
 30 
0.0
 0 
VERTEX
 8 
1
 10 
0.45
 20 
0.58733
 30 
0.0
 0 
VERTEX
 8 
1
 10 
0.5
 20 
0.58942
 30 
0.0
 0 
VERTEX
 8 
1
 10 
0.55
 20 
0.58998
 30 
0.0
 0 
VERTEX
 8 
1
 10 
0.6
 20 
0.58918
 30 
0.0
 0 
VERTEX
 8 
1
 10 
0.65
 20 
0.58701
 30 
0.0
 0 
VERTEX
 8 
1
 10 
0.7
 20 
0.58346
 30 
0.0
 0 
VERTEX
 8 
1
 10 
0.75
 20 
0.57848
 30 
0.0
 0 
VERTEX
 8 
1
 10 
0.8
 20 
0.57188
 30 
0.0
 0 
VERTEX
 8 
1
 10 
0.85
 20 
0.56333
 30 
0.0
 0 
VERTEX
 8 
1
 10 
0.9
 20 
0.5521
 30 
0.0
 0 
VERTEX
 8 
1
 10 
0.925
 20 
0.54513
 30 
0.0
 0 
VERTEX
 8 
1
 10 
0.95
 20 
0.5369
 30 
0.0
 0 
VERTEX
 8 
1
 10 
0.975
 20 
0.52646
 30 
0.0
 0 
VERTEX
 8 
1
 10 
0.9875
 20 
0.51952
 30 
0.0
 0 
VERTEX
 8 
1
 10 
0.9925
 20 
0.51571
 30 
0.0
 0 
VERTEX
 8 
1
 10 
0.995
 20 
0.51323
 30 
0.0
 0 
VERTEX
 8 
1
 10 
0.99873
 20 
0.50708
 30 
0.0
 0 
VERTEX
 8 
1
 10 
1
 20 
0.5
 30 
0.0
 0 
VERTEX
 8 
1
 10 
0.99873
 20 
0.49292
 30 
0.0
 0 
VERTEX
 8 
1
 10 
0.995
 20 
0.48677
 30 
0.0
 0 
VERTEX
 8 
1
 10 
0.9925
 20 
0.48429
 30 
0.0
 0 
VERTEX
 8 
1
 10 
0.9875
 20 
0.48048
 30 
0.0
 0 
VERTEX
 8 
1
 10 
0.975
 20 
0.47354
 30 
0.0
 0 
VERTEX
 8 
1
 10 
0.95
 20 
0.4631
 30 
0.0
 0 
VERTEX
 8 
1
 10 
0.925
 20 
0.45487
 30 
0.0
 0 
VERTEX
 8 
1
 10 
0.9
 20 
0.4479
 30 
0.0
 0 
VERTEX
 8 
1
 10 
0.85
 20 
0.43667
 30 
0.0
 0 
VERTEX
 8 
1
 10 
0.8
 20 
0.42812
 30 
0.0
 0 
VERTEX
 8 
1
 10 
0.75
 20 
0.42152
 30 
0.0
 0 
VERTEX
 8 
1
 10 
0.7
 20 
0.41654
 30 
0.0
 0 
VERTEX
 8 
1
 10 
0.65
 20 
0.41299
 30 
0.0
 0 
VERTEX
 8 
1
 10 
0.6
 20 
0.41082
 30 
0.0
 0 
VERTEX
 8 
1
 10 
0.55
 20 
0.41002
 30 
0.0
 0 
VERTEX
 8 
1
 10 
0.5
 20 
0.41058
 30 
0.0
 0 
VERTEX
 8 
1
 10 
0.45
 20 
0.41267
 30 
0.0
 0 
VERTEX
 8 
1
 10 
0.4
 20 
0.41677
 30 
0.0
 0 
VERTEX
 8 
1
 10 
0.35001
 20 
0.4242
 30 
0.0
 0 
VERTEX
 8 
1
 10 
0.3
 20 
0.43403
 30 
0.0
 0 
VERTEX
 8 
1
 10 
0.25
 20 
0.44549
 30 
0.0
 0 
VERTEX
 8 
1
 10 
0.2
 20 
0.45794
 30 
0.0
 0 
VERTEX
 8 
1
 10 
0.15
 20 
0.47066
 30 
0.0
 0 
VERTEX
 8 
1
 10 
0.12393
 20 
0.4771
 30 
0.0
 0 
VERTEX
 8 
1
 10 
0.1
 20 
0.48287
 30 
0.0
 0 
VERTEX
 8 
1
 10 
0.05
 20 
0.49354
 30 
0.0
 0 
VERTEX
 8 
1
 10 
0.022480
 20 
0.49746
 30 
0.0
 0 
VERTEX
 8 
1
 10 
0.0056500
 20 
0.49938
 30 
0.0
 0 
VERTEX
 8 
1
 10 
0.0
 20 
0.5
 30 
0.0
 0 
SEQEND
 8 
1
 0 
ENDSEC
 0 
EOF
