 0 
SECTION
 2 
ENTITIES
 0 
POLYLINE
 8 
1
 66 
 1 
 10 
0.0
 20 
0.0
 30 
0.0
 0 
VERTEX
 8 
1
 10 
0.0
 20 
0.5
 30 
0.0
 0 
VERTEX
 8 
1
 10 
0.0034199
 20 
0.50126
 30 
0.0
 0 
VERTEX
 8 
1
 10 
0.0129
 20 
0.50507
 30 
0.0
 0 
VERTEX
 8 
1
 10 
0.02715
 20 
0.51082
 30 
0.0
 0 
VERTEX
 8 
1
 10 
0.04591
 20 
0.51737
 30 
0.0
 0 
VERTEX
 8 
1
 10 
0.06956
 20 
0.52428
 30 
0.0
 0 
VERTEX
 8 
1
 10 
0.09807
 20 
0.53175
 30 
0.0
 0 
VERTEX
 8 
1
 10 
0.13098
 20 
0.53983
 30 
0.0
 0 
VERTEX
 8 
1
 10 
0.16778
 20 
0.54844
 30 
0.0
 0 
VERTEX
 8 
1
 10 
0.20794
 20 
0.55746
 30 
0.0
 0 
VERTEX
 8 
1
 10 
0.25086
 20 
0.56673
 30 
0.0
 0 
VERTEX
 8 
1
 10 
0.29592
 20 
0.57603
 30 
0.0
 0 
VERTEX
 8 
1
 10 
0.34248
 20 
0.58513
 30 
0.0
 0 
VERTEX
 8 
1
 10 
0.3899
 20 
0.59373
 30 
0.0
 0 
VERTEX
 8 
1
 10 
0.43753
 20 
0.60147
 30 
0.0
 0 
VERTEX
 8 
1
 10 
0.48476
 20 
0.60784
 30 
0.0
 0 
VERTEX
 8 
1
 10 
0.53136
 20 
0.61219
 30 
0.0
 0 
VERTEX
 8 
1
 10 
0.57747
 20 
0.61427
 30 
0.0
 0 
VERTEX
 8 
1
 10 
0.62298
 20 
0.61428
 30 
0.0
 0 
VERTEX
 8 
1
 10 
0.66763
 20 
0.6124
 30 
0.0
 0 
VERTEX
 8 
1
 10 
0.71106
 20 
0.60887
 30 
0.0
 0 
VERTEX
 8 
1
 10 
0.7528
 20 
0.60389
 30 
0.0
 0 
VERTEX
 8 
1
 10 
0.79242
 20 
0.59761
 30 
0.0
 0 
VERTEX
 8 
1
 10 
0.8295
 20 
0.59019
 30 
0.0
 0 
VERTEX
 8 
1
 10 
0.86365
 20 
0.58175
 30 
0.0
 0 
VERTEX
 8 
1
 10 
0.89454
 20 
0.57247
 30 
0.0
 0 
VERTEX
 8 
1
 10 
0.92184
 20 
0.5625
 30 
0.0
 0 
VERTEX
 8 
1
 10 
0.94531
 20 
0.55201
 30 
0.0
 0 
VERTEX
 8 
1
 10 
0.96473
 20 
0.5412
 30 
0.0
 0 
VERTEX
 8 
1
 10 
0.97996
 20 
0.53027
 30 
0.0
 0 
VERTEX
 8 
1
 10 
0.99091
 20 
0.51947
 30 
0.0
 0 
VERTEX
 8 
1
 10 
0.9976
 20 
0.50917
 30 
0.0
 0 
VERTEX
 8 
1
 10 
1
 20 
0.5
 30 
0.0
 0 
VERTEX
 8 
1
 10 
0.99755
 20 
0.49296
 30 
0.0
 0 
VERTEX
 8 
1
 10 
0.98901
 20 
0.48789
 30 
0.0
 0 
VERTEX
 8 
1
 10 
0.97408
 20 
0.48344
 30 
0.0
 0 
VERTEX
 8 
1
 10 
0.95347
 20 
0.47948
 30 
0.0
 0 
VERTEX
 8 
1
 10 
0.92758
 20 
0.47601
 30 
0.0
 0 
VERTEX
 8 
1
 10 
0.89676
 20 
0.47301
 30 
0.0
 0 
VERTEX
 8 
1
 10 
0.86146
 20 
0.47046
 30 
0.0
 0 
VERTEX
 8 
1
 10 
0.82212
 20 
0.46834
 30 
0.0
 0 
VERTEX
 8 
1
 10 
0.77927
 20 
0.46666
 30 
0.0
 0 
VERTEX
 8 
1
 10 
0.73346
 20 
0.46544
 30 
0.0
 0 
VERTEX
 8 
1
 10 
0.68527
 20 
0.46469
 30 
0.0
 0 
VERTEX
 8 
1
 10 
0.63532
 20 
0.46446
 30 
0.0
 0 
VERTEX
 8 
1
 10 
0.58424
 20 
0.46481
 30 
0.0
 0 
VERTEX
 8 
1
 10 
0.53269
 20 
0.46585
 30 
0.0
 0 
VERTEX
 8 
1
 10 
0.48133
 20 
0.46775
 30 
0.0
 0 
VERTEX
 8 
1
 10 
0.4308
 20 
0.47075
 30 
0.0
 0 
VERTEX
 8 
1
 10 
0.38175
 20 
0.47559
 30 
0.0
 0 
VERTEX
 8 
1
 10 
0.33338
 20 
0.48337
 30 
0.0
 0 
VERTEX
 8 
1
 10 
0.28386
 20 
0.49295
 30 
0.0
 0 
VERTEX
 8 
1
 10 
0.23355
 20 
0.50167
 30 
0.0
 0 
VERTEX
 8 
1
 10 
0.18435
 20 
0.50804
 30 
0.0
 0 
VERTEX
 8 
1
 10 
0.13802
 20 
0.51155
 30 
0.0
 0 
VERTEX
 8 
1
 10 
0.09641
 20 
0.51198
 30 
0.0
 0 
VERTEX
 8 
1
 10 
0.06138
 20 
0.5099
 30 
0.0
 0 
VERTEX
 8 
1
 10 
0.03412
 20 
0.50655
 30 
0.0
 0 
VERTEX
 8 
1
 10 
0.01496
 20 
0.50323
 30 
0.0
 0 
VERTEX
 8 
1
 10 
0.0037000
 20 
0.50086
 30 
0.0
 0 
VERTEX
 8 
1
 10 
0.0
 20 
0.5
 30 
0.0
 0 
SEQEND
 8 
1
 0 
ENDSEC
 0 
EOF
