 0 
SECTION
 2 
ENTITIES
 0 
POLYLINE
 8 
1
 66 
 1 
 10 
0.0
 20 
0.0
 30 
0.0
 0 
VERTEX
 8 
1
 10 
0.0
 20 
0.5
 30 
0.0
 0 
VERTEX
 8 
1
 10 
0.00344
 20 
0.50098
 30 
0.0
 0 
VERTEX
 8 
1
 10 
0.01314
 20 
0.50398
 30 
0.0
 0 
VERTEX
 8 
1
 10 
0.02803
 20 
0.50862
 30 
0.0
 0 
VERTEX
 8 
1
 10 
0.04776
 20 
0.514
 30 
0.0
 0 
VERTEX
 8 
1
 10 
0.07251
 20 
0.51974
 30 
0.0
 0 
VERTEX
 8 
1
 10 
0.10221
 20 
0.52594
 30 
0.0
 0 
VERTEX
 8 
1
 10 
0.13643
 20 
0.53265
 30 
0.0
 0 
VERTEX
 8 
1
 10 
0.1747
 20 
0.53977
 30 
0.0
 0 
VERTEX
 8 
1
 10 
0.2165
 20 
0.54724
 30 
0.0
 0 
VERTEX
 8 
1
 10 
0.26128
 20 
0.55493
 30 
0.0
 0 
VERTEX
 8 
1
 10 
0.30845
 20 
0.56272
 30 
0.0
 0 
VERTEX
 8 
1
 10 
0.35738
 20 
0.57047
 30 
0.0
 0 
VERTEX
 8 
1
 10 
0.40744
 20 
0.57801
 30 
0.0
 0 
VERTEX
 8 
1
 10 
0.45796
 20 
0.58515
 30 
0.0
 0 
VERTEX
 8 
1
 10 
0.50828
 20 
0.59166
 30 
0.0
 0 
VERTEX
 8 
1
 10 
0.55773
 20 
0.59729
 30 
0.0
 0 
VERTEX
 8 
1
 10 
0.60562
 20 
0.60162
 30 
0.0
 0 
VERTEX
 8 
1
 10 
0.65161
 20 
0.60405
 30 
0.0
 0 
VERTEX
 8 
1
 10 
0.69578
 20 
0.60425
 30 
0.0
 0 
VERTEX
 8 
1
 10 
0.73813
 20 
0.60247
 30 
0.0
 0 
VERTEX
 8 
1
 10 
0.77831
 20 
0.59892
 30 
0.0
 0 
VERTEX
 8 
1
 10 
0.81596
 20 
0.59374
 30 
0.0
 0 
VERTEX
 8 
1
 10 
0.85075
 20 
0.58707
 30 
0.0
 0 
VERTEX
 8 
1
 10 
0.88239
 20 
0.57904
 30 
0.0
 0 
VERTEX
 8 
1
 10 
0.91064
 20 
0.56984
 30 
0.0
 0 
VERTEX
 8 
1
 10 
0.93529
 20 
0.55964
 30 
0.0
 0 
VERTEX
 8 
1
 10 
0.95617
 20 
0.5487
 30 
0.0
 0 
VERTEX
 8 
1
 10 
0.97313
 20 
0.53729
 30 
0.0
 0 
VERTEX
 8 
1
 10 
0.98607
 20 
0.52573
 30 
0.0
 0 
VERTEX
 8 
1
 10 
0.99491
 20 
0.51446
 30 
0.0
 0 
VERTEX
 8 
1
 10 
0.99951
 20 
0.50403
 30 
0.0
 0 
VERTEX
 8 
1
 10 
1
 20 
0.5
 30 
0.0
 0 
VERTEX
 8 
1
 10 
0.99927
 20 
0.49561
 30 
0.0
 0 
VERTEX
 8 
1
 10 
0.99291
 20 
0.48846
 30 
0.0
 0 
VERTEX
 8 
1
 10 
0.98044
 20 
0.48117
 30 
0.0
 0 
VERTEX
 8 
1
 10 
0.96292
 20 
0.47406
 30 
0.0
 0 
VERTEX
 8 
1
 10 
0.94067
 20 
0.46746
 30 
0.0
 0 
VERTEX
 8 
1
 10 
0.91391
 20 
0.46153
 30 
0.0
 0 
VERTEX
 8 
1
 10 
0.88292
 20 
0.45639
 30 
0.0
 0 
VERTEX
 8 
1
 10 
0.848
 20 
0.45213
 30 
0.0
 0 
VERTEX
 8 
1
 10 
0.8095
 20 
0.44879
 30 
0.0
 0 
VERTEX
 8 
1
 10 
0.76782
 20 
0.44643
 30 
0.0
 0 
VERTEX
 8 
1
 10 
0.72341
 20 
0.44506
 30 
0.0
 0 
VERTEX
 8 
1
 10 
0.67674
 20 
0.44471
 30 
0.0
 0 
VERTEX
 8 
1
 10 
0.62833
 20 
0.44538
 30 
0.0
 0 
VERTEX
 8 
1
 10 
0.57873
 20 
0.44709
 30 
0.0
 0 
VERTEX
 8 
1
 10 
0.5285
 20 
0.44991
 30 
0.0
 0 
VERTEX
 8 
1
 10 
0.47825
 20 
0.45386
 30 
0.0
 0 
VERTEX
 8 
1
 10 
0.42878
 20 
0.45937
 30 
0.0
 0 
VERTEX
 8 
1
 10 
0.37981
 20 
0.4675
 30 
0.0
 0 
VERTEX
 8 
1
 10 
0.32986
 20 
0.47769
 30 
0.0
 0 
VERTEX
 8 
1
 10 
0.27893
 20 
0.48779
 30 
0.0
 0 
VERTEX
 8 
1
 10 
0.22844
 20 
0.49636
 30 
0.0
 0 
VERTEX
 8 
1
 10 
0.17988
 20 
0.50278
 30 
0.0
 0 
VERTEX
 8 
1
 10 
0.13464
 20 
0.50667
 30 
0.0
 0 
VERTEX
 8 
1
 10 
0.09424
 20 
0.50792
 30 
0.0
 0 
VERTEX
 8 
1
 10 
0.060220
 20 
0.50696
 30 
0.0
 0 
VERTEX
 8 
1
 10 
0.03362
 20 
0.50478
 30 
0.0
 0 
VERTEX
 8 
1
 10 
0.0148
 20 
0.50242
 30 
0.0
 0 
VERTEX
 8 
1
 10 
0.0036699
 20 
0.50065
 30 
0.0
 0 
VERTEX
 8 
1
 10 
0.0
 20 
0.5
 30 
0.0
 0 
SEQEND
 8 
1
 0 
ENDSEC
 0 
EOF
