 0 
SECTION
 2 
ENTITIES
 0 
POLYLINE
 8 
1
 66 
 1 
 10 
0.0
 20 
0.0
 30 
0.0
 0 
VERTEX
 8 
1
 10 
0.0
 20 
0.50055
 30 
0.0
 0 
VERTEX
 8 
1
 10 
0.01
 20 
0.50258
 30 
0.0
 0 
VERTEX
 8 
1
 10 
0.025
 20 
0.50577
 30 
0.0
 0 
VERTEX
 8 
1
 10 
0.05
 20 
0.51129
 30 
0.0
 0 
VERTEX
 8 
1
 10 
0.075
 20 
0.51696
 30 
0.0
 0 
VERTEX
 8 
1
 10 
0.1
 20 
0.52269
 30 
0.0
 0 
VERTEX
 8 
1
 10 
0.15
 20 
0.53415
 30 
0.0
 0 
VERTEX
 8 
1
 10 
0.2
 20 
0.54523
 30 
0.0
 0 
VERTEX
 8 
1
 10 
0.25
 20 
0.55551
 30 
0.0
 0 
VERTEX
 8 
1
 10 
0.3
 20 
0.56458
 30 
0.0
 0 
VERTEX
 8 
1
 10 
0.35
 20 
0.57212
 30 
0.0
 0 
VERTEX
 8 
1
 10 
0.4
 20 
0.57789
 30 
0.0
 0 
VERTEX
 8 
1
 10 
0.45
 20 
0.58206
 30 
0.0
 0 
VERTEX
 8 
1
 10 
0.5
 20 
0.58495
 30 
0.0
 0 
VERTEX
 8 
1
 10 
0.55
 20 
0.58678
 30 
0.0
 0 
VERTEX
 8 
1
 10 
0.6
 20 
0.58764
 30 
0.0
 0 
VERTEX
 8 
1
 10 
0.65
 20 
0.58755
 30 
0.0
 0 
VERTEX
 8 
1
 10 
0.7
 20 
0.58649
 30 
0.0
 0 
VERTEX
 8 
1
 10 
0.75
 20 
0.58441
 30 
0.0
 0 
VERTEX
 8 
1
 10 
0.8
 20 
0.58115
 30 
0.0
 0 
VERTEX
 8 
1
 10 
0.85
 20 
0.57648
 30 
0.0
 0 
VERTEX
 8 
1
 10 
0.875
 20 
0.57347
 30 
0.0
 0 
VERTEX
 8 
1
 10 
0.9
 20 
0.56985
 30 
0.0
 0 
VERTEX
 8 
1
 10 
0.92
 20 
0.56636
 30 
0.0
 0 
VERTEX
 8 
1
 10 
0.935
 20 
0.56321
 30 
0.0
 0 
VERTEX
 8 
1
 10 
0.95
 20 
0.5592
 30 
0.0
 0 
VERTEX
 8 
1
 10 
0.965
 20 
0.55372
 30 
0.0
 0 
VERTEX
 8 
1
 10 
0.975
 20 
0.54873
 30 
0.0
 0 
VERTEX
 8 
1
 10 
0.98
 20 
0.54514
 30 
0.0
 0 
VERTEX
 8 
1
 10 
0.984
 20 
0.5414
 30 
0.0
 0 
VERTEX
 8 
1
 10 
0.9875
 20 
0.53729
 30 
0.0
 0 
VERTEX
 8 
1
 10 
0.99
 20 
0.53375
 30 
0.0
 0 
VERTEX
 8 
1
 10 
0.992
 20 
0.53043
 30 
0.0
 0 
VERTEX
 8 
1
 10 
0.9935
 20 
0.52756
 30 
0.0
 0 
VERTEX
 8 
1
 10 
0.995
 20 
0.52424
 30 
0.0
 0 
VERTEX
 8 
1
 10 
0.9965
 20 
0.5203
 30 
0.0
 0 
VERTEX
 8 
1
 10 
0.998
 20 
0.51518
 30 
0.0
 0 
VERTEX
 8 
1
 10 
0.999
 20 
0.51051
 30 
0.0
 0 
VERTEX
 8 
1
 10 
0.9995
 20 
0.5073
 30 
0.0
 0 
VERTEX
 8 
1
 10 
1
 20 
0.5
 30 
0.0
 0 
VERTEX
 8 
1
 10 
0.9995
 20 
0.49252
 30 
0.0
 0 
VERTEX
 8 
1
 10 
0.999
 20 
0.4898
 30 
0.0
 0 
VERTEX
 8 
1
 10 
0.998
 20 
0.48627
 30 
0.0
 0 
VERTEX
 8 
1
 10 
0.9965
 20 
0.48265
 30 
0.0
 0 
VERTEX
 8 
1
 10 
0.995
 20 
0.47984
 30 
0.0
 0 
VERTEX
 8 
1
 10 
0.9935
 20 
0.47748
 30 
0.0
 0 
VERTEX
 8 
1
 10 
0.992
 20 
0.47545
 30 
0.0
 0 
VERTEX
 8 
1
 10 
0.99
 20 
0.47312
 30 
0.0
 0 
VERTEX
 8 
1
 10 
0.9875
 20 
0.47065
 30 
0.0
 0 
VERTEX
 8 
1
 10 
0.984
 20 
0.46775
 30 
0.0
 0 
VERTEX
 8 
1
 10 
0.98
 20 
0.46498
 30 
0.0
 0 
VERTEX
 8 
1
 10 
0.975
 20 
0.46206
 30 
0.0
 0 
VERTEX
 8 
1
 10 
0.965
 20 
0.45736
 30 
0.0
 0 
VERTEX
 8 
1
 10 
0.95
 20 
0.45194
 30 
0.0
 0 
VERTEX
 8 
1
 10 
0.935
 20 
0.44771
 30 
0.0
 0 
VERTEX
 8 
1
 10 
0.92
 20 
0.44424
 30 
0.0
 0 
VERTEX
 8 
1
 10 
0.9
 20 
0.44038
 30 
0.0
 0 
VERTEX
 8 
1
 10 
0.875
 20 
0.43642
 30 
0.0
 0 
VERTEX
 8 
1
 10 
0.85
 20 
0.43311
 30 
0.0
 0 
VERTEX
 8 
1
 10 
0.8
 20 
0.42806
 30 
0.0
 0 
VERTEX
 8 
1
 10 
0.75
 20 
0.42473
 30 
0.0
 0 
VERTEX
 8 
1
 10 
0.7
 20 
0.42287
 30 
0.0
 0 
VERTEX
 8 
1
 10 
0.65
 20 
0.42237
 30 
0.0
 0 
VERTEX
 8 
1
 10 
0.6
 20 
0.42328
 30 
0.0
 0 
VERTEX
 8 
1
 10 
0.55
 20 
0.42588
 30 
0.0
 0 
VERTEX
 8 
1
 10 
0.5
 20 
0.43066
 30 
0.0
 0 
VERTEX
 8 
1
 10 
0.45
 20 
0.43763
 30 
0.0
 0 
VERTEX
 8 
1
 10 
0.4
 20 
0.44614
 30 
0.0
 0 
VERTEX
 8 
1
 10 
0.35
 20 
0.45603
 30 
0.0
 0 
VERTEX
 8 
1
 10 
0.3
 20 
0.46684
 30 
0.0
 0 
VERTEX
 8 
1
 10 
0.25
 20 
0.47773
 30 
0.0
 0 
VERTEX
 8 
1
 10 
0.2
 20 
0.48779
 30 
0.0
 0 
VERTEX
 8 
1
 10 
0.15
 20 
0.49591
 30 
0.0
 0 
VERTEX
 8 
1
 10 
0.1
 20 
0.50108
 30 
0.0
 0 
VERTEX
 8 
1
 10 
0.075
 20 
0.50228
 30 
0.0
 0 
VERTEX
 8 
1
 10 
0.05
 20 
0.50246
 30 
0.0
 0 
VERTEX
 8 
1
 10 
0.025
 20 
0.50153
 30 
0.0
 0 
VERTEX
 8 
1
 10 
0.01
 20 
0.50042
 30 
0.0
 0 
VERTEX
 8 
1
 10 
0.0
 20 
0.49945
 30 
0.0
 0 
SEQEND
 8 
1
 0 
ENDSEC
 0 
EOF
