 0 
SECTION
 2 
ENTITIES
 0 
POLYLINE
 8 
1
 66 
 1 
 10 
0.0
 20 
0.0
 30 
0.0
 0 
VERTEX
 8 
1
 10 
0.0
 20 
0.50244
 30 
0.0
 0 
VERTEX
 8 
1
 10 
0.01999
 20 
0.50647
 30 
0.0
 0 
VERTEX
 8 
1
 10 
0.03998
 20 
0.51042
 30 
0.0
 0 
VERTEX
 8 
1
 10 
0.05997
 20 
0.51424
 30 
0.0
 0 
VERTEX
 8 
1
 10 
0.07996
 20 
0.51783
 30 
0.0
 0 
VERTEX
 8 
1
 10 
0.09995
 20 
0.52116
 30 
0.0
 0 
VERTEX
 8 
1
 10 
0.11994
 20 
0.52426
 30 
0.0
 0 
VERTEX
 8 
1
 10 
0.13994
 20 
0.52722
 30 
0.0
 0 
VERTEX
 8 
1
 10 
0.15993
 20 
0.52999
 30 
0.0
 0 
VERTEX
 8 
1
 10 
0.17992
 20 
0.53258
 30 
0.0
 0 
VERTEX
 8 
1
 10 
0.19992
 20 
0.53492
 30 
0.0
 0 
VERTEX
 8 
1
 10 
0.21991
 20 
0.53711
 30 
0.0
 0 
VERTEX
 8 
1
 10 
0.23991
 20 
0.53906
 30 
0.0
 0 
VERTEX
 8 
1
 10 
0.2599
 20 
0.54081
 30 
0.0
 0 
VERTEX
 8 
1
 10 
0.2799
 20 
0.54238
 30 
0.0
 0 
VERTEX
 8 
1
 10 
0.2999
 20 
0.54371
 30 
0.0
 0 
VERTEX
 8 
1
 10 
0.31989
 20 
0.54488
 30 
0.0
 0 
VERTEX
 8 
1
 10 
0.33989
 20 
0.54579
 30 
0.0
 0 
VERTEX
 8 
1
 10 
0.35989
 20 
0.54661
 30 
0.0
 0 
VERTEX
 8 
1
 10 
0.37989
 20 
0.54727
 30 
0.0
 0 
VERTEX
 8 
1
 10 
0.39988
 20 
0.54783
 30 
0.0
 0 
VERTEX
 8 
1
 10 
0.41988
 20 
0.54828
 30 
0.0
 0 
VERTEX
 8 
1
 10 
0.43988
 20 
0.54858
 30 
0.0
 0 
VERTEX
 8 
1
 10 
0.45988
 20 
0.54884
 30 
0.0
 0 
VERTEX
 8 
1
 10 
0.47988
 20 
0.54901
 30 
0.0
 0 
VERTEX
 8 
1
 10 
0.49988
 20 
0.54909
 30 
0.0
 0 
VERTEX
 8 
1
 10 
0.51988
 20 
0.5491
 30 
0.0
 0 
VERTEX
 8 
1
 10 
0.53988
 20 
0.54901
 30 
0.0
 0 
VERTEX
 8 
1
 10 
0.55988
 20 
0.54883
 30 
0.0
 0 
VERTEX
 8 
1
 10 
0.57988
 20 
0.54857
 30 
0.0
 0 
VERTEX
 8 
1
 10 
0.59988
 20 
0.5482
 30 
0.0
 0 
VERTEX
 8 
1
 10 
0.61988
 20 
0.54775
 30 
0.0
 0 
VERTEX
 8 
1
 10 
0.63988
 20 
0.54719
 30 
0.0
 0 
VERTEX
 8 
1
 10 
0.65989
 20 
0.54659
 30 
0.0
 0 
VERTEX
 8 
1
 10 
0.67989
 20 
0.54592
 30 
0.0
 0 
VERTEX
 8 
1
 10 
0.69989
 20 
0.5452
 30 
0.0
 0 
VERTEX
 8 
1
 10 
0.71989
 20 
0.5444
 30 
0.0
 0 
VERTEX
 8 
1
 10 
0.73989
 20 
0.54355
 30 
0.0
 0 
VERTEX
 8 
1
 10 
0.7599
 20 
0.54257
 30 
0.0
 0 
VERTEX
 8 
1
 10 
0.7799
 20 
0.54152
 30 
0.0
 0 
VERTEX
 8 
1
 10 
0.7999
 20 
0.54042
 30 
0.0
 0 
VERTEX
 8 
1
 10 
0.8199
 20 
0.53927
 30 
0.0
 0 
VERTEX
 8 
1
 10 
0.83991
 20 
0.53801
 30 
0.0
 0 
VERTEX
 8 
1
 10 
0.85991
 20 
0.53661
 30 
0.0
 0 
VERTEX
 8 
1
 10 
0.87991
 20 
0.53502
 30 
0.0
 0 
VERTEX
 8 
1
 10 
0.89992
 20 
0.5332
 30 
0.0
 0 
VERTEX
 8 
1
 10 
0.90992
 20 
0.53221
 30 
0.0
 0 
VERTEX
 8 
1
 10 
0.91992
 20 
0.53111
 30 
0.0
 0 
VERTEX
 8 
1
 10 
0.92993
 20 
0.52992
 30 
0.0
 0 
VERTEX
 8 
1
 10 
0.93993
 20 
0.52858
 30 
0.0
 0 
VERTEX
 8 
1
 10 
0.94993
 20 
0.52712
 30 
0.0
 0 
VERTEX
 8 
1
 10 
0.95994
 20 
0.52545
 30 
0.0
 0 
VERTEX
 8 
1
 10 
0.96994
 20 
0.52352
 30 
0.0
 0 
VERTEX
 8 
1
 10 
0.97494
 20 
0.52234
 30 
0.0
 0 
VERTEX
 8 
1
 10 
0.97995
 20 
0.52097
 30 
0.0
 0 
VERTEX
 8 
1
 10 
0.98495
 20 
0.5192
 30 
0.0
 0 
VERTEX
 8 
1
 10 
0.98996
 20 
0.5167
 30 
0.0
 0 
VERTEX
 8 
1
 10 
0.99497
 20 
0.51278
 30 
0.0
 0 
VERTEX
 8 
1
 10 
0.99748
 20 
0.50943
 30 
0.0
 0 
VERTEX
 8 
1
 10 
0.99838
 20 
0.50762
 30 
0.0
 0 
VERTEX
 8 
1
 10 
0.99959
 20 
0.50394
 30 
0.0
 0 
VERTEX
 8 
1
 10 
1
 20 
0.5
 30 
0.0
 0 
VERTEX
 8 
1
 10 
0.99961
 20 
0.49605
 30 
0.0
 0 
VERTEX
 8 
1
 10 
0.99842
 20 
0.49207
 30 
0.0
 0 
VERTEX
 8 
1
 10 
0.99752
 20 
0.49025
 30 
0.0
 0 
VERTEX
 8 
1
 10 
0.99503
 20 
0.48648
 30 
0.0
 0 
VERTEX
 8 
1
 10 
0.99005
 20 
0.48154
 30 
0.0
 0 
VERTEX
 8 
1
 10 
0.98505
 20 
0.47797
 30 
0.0
 0 
VERTEX
 8 
1
 10 
0.98006
 20 
0.47499
 30 
0.0
 0 
VERTEX
 8 
1
 10 
0.97507
 20 
0.47243
 30 
0.0
 0 
VERTEX
 8 
1
 10 
0.97007
 20 
0.47011
 30 
0.0
 0 
VERTEX
 8 
1
 10 
0.96008
 20 
0.46604
 30 
0.0
 0 
VERTEX
 8 
1
 10 
0.95009
 20 
0.46252
 30 
0.0
 0 
VERTEX
 8 
1
 10 
0.9401
 20 
0.45944
 30 
0.0
 0 
VERTEX
 8 
1
 10 
0.93011
 20 
0.45675
 30 
0.0
 0 
VERTEX
 8 
1
 10 
0.92011
 20 
0.45435
 30 
0.0
 0 
VERTEX
 8 
1
 10 
0.91012
 20 
0.45227
 30 
0.0
 0 
VERTEX
 8 
1
 10 
0.90012
 20 
0.45037
 30 
0.0
 0 
VERTEX
 8 
1
 10 
0.88013
 20 
0.44707
 30 
0.0
 0 
VERTEX
 8 
1
 10 
0.84014
 20 
0.44203
 30 
0.0
 0 
VERTEX
 8 
1
 10 
0.80015
 20 
0.43838
 30 
0.0
 0 
VERTEX
 8 
1
 10 
0.76016
 20 
0.43603
 30 
0.0
 0 
VERTEX
 8 
1
 10 
0.72016
 20 
0.43495
 30 
0.0
 0 
VERTEX
 8 
1
 10 
0.68016
 20 
0.43515
 30 
0.0
 0 
VERTEX
 8 
1
 10 
0.63946
 20 
0.43666
 30 
0.0
 0 
VERTEX
 8 
1
 10 
0.60015
 20 
0.43941
 30 
0.0
 0 
VERTEX
 8 
1
 10 
0.56014
 20 
0.4434
 30 
0.0
 0 
VERTEX
 8 
1
 10 
0.52013
 20 
0.44847
 30 
0.0
 0 
VERTEX
 8 
1
 10 
0.48012
 20 
0.45445
 30 
0.0
 0 
VERTEX
 8 
1
 10 
0.4401
 20 
0.46101
 30 
0.0
 0 
VERTEX
 8 
1
 10 
0.40008
 20 
0.46786
 30 
0.0
 0 
VERTEX
 8 
1
 10 
0.36007
 20 
0.4747
 30 
0.0
 0 
VERTEX
 8 
1
 10 
0.32005
 20 
0.48128
 30 
0.0
 0 
VERTEX
 8 
1
 10 
0.28013
 20 
0.48759
 30 
0.0
 0 
VERTEX
 8 
1
 10 
0.24002
 20 
0.49311
 30 
0.0
 0 
VERTEX
 8 
1
 10 
0.20001
 20 
0.49757
 30 
0.0
 0 
VERTEX
 8 
1
 10 
0.16
 20 
0.50093
 30 
0.0
 0 
VERTEX
 8 
1
 10 
0.12
 20 
0.50259
 30 
0.0
 0 
VERTEX
 8 
1
 10 
0.08
 20 
0.50259
 30 
0.0
 0 
VERTEX
 8 
1
 10 
0.04
 20 
0.50086
 30 
0.0
 0 
VERTEX
 8 
1
 10 
0.0
 20 
0.49756
 30 
0.0
 0 
SEQEND
 8 
1
 0 
ENDSEC
 0 
EOF
