 0 
SECTION
 2 
ENTITIES
 0 
POLYLINE
 8 
1
 66 
 1 
 10 
0.0
 20 
0.0
 30 
0.0
 0 
VERTEX
 8 
1
 10 
0.0
 20 
0.50178
 30 
0.0
 0 
VERTEX
 8 
1
 10 
0.0222
 20 
0.50143
 30 
0.0
 0 
VERTEX
 8 
1
 10 
0.04889
 20 
0.50213
 30 
0.0
 0 
VERTEX
 8 
1
 10 
0.06131
 20 
0.50279
 30 
0.0
 0 
VERTEX
 8 
1
 10 
0.08086
 20 
0.50417
 30 
0.0
 0 
VERTEX
 8 
1
 10 
0.10042
 20 
0.50581
 30 
0.0
 0 
VERTEX
 8 
1
 10 
0.11997
 20 
0.50759
 30 
0.0
 0 
VERTEX
 8 
1
 10 
0.12975
 20 
0.50849
 30 
0.0
 0 
VERTEX
 8 
1
 10 
0.14931
 20 
0.51028
 30 
0.0
 0 
VERTEX
 8 
1
 10 
0.16886
 20 
0.51201
 30 
0.0
 0 
VERTEX
 8 
1
 10 
0.19331
 20 
0.51409
 30 
0.0
 0 
VERTEX
 8 
1
 10 
0.21775
 20 
0.51607
 30 
0.0
 0 
VERTEX
 8 
1
 10 
0.2422
 20 
0.51797
 30 
0.0
 0 
VERTEX
 8 
1
 10 
0.26664
 20 
0.5198
 30 
0.0
 0 
VERTEX
 8 
1
 10 
0.29108
 20 
0.52156
 30 
0.0
 0 
VERTEX
 8 
1
 10 
0.31553
 20 
0.52324
 30 
0.0
 0 
VERTEX
 8 
1
 10 
0.33997
 20 
0.52483
 30 
0.0
 0 
VERTEX
 8 
1
 10 
0.36442
 20 
0.52634
 30 
0.0
 0 
VERTEX
 8 
1
 10 
0.38886
 20 
0.52775
 30 
0.0
 0 
VERTEX
 8 
1
 10 
0.41331
 20 
0.52907
 30 
0.0
 0 
VERTEX
 8 
1
 10 
0.43775
 20 
0.5303
 30 
0.0
 0 
VERTEX
 8 
1
 10 
0.4622
 20 
0.53143
 30 
0.0
 0 
VERTEX
 8 
1
 10 
0.48664
 20 
0.53246
 30 
0.0
 0 
VERTEX
 8 
1
 10 
0.51109
 20 
0.53338
 30 
0.0
 0 
VERTEX
 8 
1
 10 
0.53553
 20 
0.5342
 30 
0.0
 0 
VERTEX
 8 
1
 10 
0.55998
 20 
0.5349
 30 
0.0
 0 
VERTEX
 8 
1
 10 
0.58442
 20 
0.53551
 30 
0.0
 0 
VERTEX
 8 
1
 10 
0.60887
 20 
0.53603
 30 
0.0
 0 
VERTEX
 8 
1
 10 
0.63331
 20 
0.5365
 30 
0.0
 0 
VERTEX
 8 
1
 10 
0.65776
 20 
0.53692
 30 
0.0
 0 
VERTEX
 8 
1
 10 
0.6822
 20 
0.53731
 30 
0.0
 0 
VERTEX
 8 
1
 10 
0.70665
 20 
0.53764
 30 
0.0
 0 
VERTEX
 8 
1
 10 
0.73109
 20 
0.53785
 30 
0.0
 0 
VERTEX
 8 
1
 10 
0.75554
 20 
0.53788
 30 
0.0
 0 
VERTEX
 8 
1
 10 
0.77998
 20 
0.53766
 30 
0.0
 0 
VERTEX
 8 
1
 10 
0.80443
 20 
0.53714
 30 
0.0
 0 
VERTEX
 8 
1
 10 
0.82887
 20 
0.53628
 30 
0.0
 0 
VERTEX
 8 
1
 10 
0.85332
 20 
0.53502
 30 
0.0
 0 
VERTEX
 8 
1
 10 
0.87777
 20 
0.53328
 30 
0.0
 0 
VERTEX
 8 
1
 10 
0.9071
 20 
0.53037
 30 
0.0
 0 
VERTEX
 8 
1
 10 
0.91688
 20 
0.52913
 30 
0.0
 0 
VERTEX
 8 
1
 10 
0.92666
 20 
0.52771
 30 
0.0
 0 
VERTEX
 8 
1
 10 
0.93644
 20 
0.52608
 30 
0.0
 0 
VERTEX
 8 
1
 10 
0.94621
 20 
0.52418
 30 
0.0
 0 
VERTEX
 8 
1
 10 
0.95502
 20 
0.5222
 30 
0.0
 0 
VERTEX
 8 
1
 10 
0.96088
 20 
0.52072
 30 
0.0
 0 
VERTEX
 8 
1
 10 
0.96479
 20 
0.51964
 30 
0.0
 0 
VERTEX
 8 
1
 10 
0.97066
 20 
0.51788
 30 
0.0
 0 
VERTEX
 8 
1
 10 
0.97751
 20 
0.51558
 30 
0.0
 0 
VERTEX
 8 
1
 10 
0.98435
 20 
0.51289
 30 
0.0
 0 
VERTEX
 8 
1
 10 
0.99022
 20 
0.51011
 30 
0.0
 0 
VERTEX
 8 
1
 10 
0.99296
 20 
0.50855
 30 
0.0
 0 
VERTEX
 8 
1
 10 
0.99511
 20 
0.50712
 30 
0.0
 0 
VERTEX
 8 
1
 10 
0.99824
 20 
0.50429
 30 
0.0
 0 
VERTEX
 8 
1
 10 
0.99922
 20 
0.50289
 30 
0.0
 0 
VERTEX
 8 
1
 10 
0.99971
 20 
0.50178
 30 
0.0
 0 
VERTEX
 8 
1
 10 
1
 20 
0.5
 30 
0.0
 0 
VERTEX
 8 
1
 10 
0.99971
 20 
0.49819
 30 
0.0
 0 
VERTEX
 8 
1
 10 
0.99922
 20 
0.49705
 30 
0.0
 0 
VERTEX
 8 
1
 10 
0.99824
 20 
0.49568
 30 
0.0
 0 
VERTEX
 8 
1
 10 
0.99511
 20 
0.49332
 30 
0.0
 0 
VERTEX
 8 
1
 10 
0.99296
 20 
0.49235
 30 
0.0
 0 
VERTEX
 8 
1
 10 
0.99022
 20 
0.49144
 30 
0.0
 0 
VERTEX
 8 
1
 10 
0.98435
 20 
0.4901
 30 
0.0
 0 
VERTEX
 8 
1
 10 
0.97751
 20 
0.48903
 30 
0.0
 0 
VERTEX
 8 
1
 10 
0.97066
 20 
0.48822
 30 
0.0
 0 
VERTEX
 8 
1
 10 
0.9648
 20 
0.48765
 30 
0.0
 0 
VERTEX
 8 
1
 10 
0.96089
 20 
0.48731
 30 
0.0
 0 
VERTEX
 8 
1
 10 
0.95502
 20 
0.48684
 30 
0.0
 0 
VERTEX
 8 
1
 10 
0.94622
 20 
0.48622
 30 
0.0
 0 
VERTEX
 8 
1
 10 
0.93644
 20 
0.48559
 30 
0.0
 0 
VERTEX
 8 
1
 10 
0.92666
 20 
0.48501
 30 
0.0
 0 
VERTEX
 8 
1
 10 
0.91688
 20 
0.48446
 30 
0.0
 0 
VERTEX
 8 
1
 10 
0.90711
 20 
0.48393
 30 
0.0
 0 
VERTEX
 8 
1
 10 
0.87777
 20 
0.4825
 30 
0.0
 0 
VERTEX
 8 
1
 10 
0.85333
 20 
0.48146
 30 
0.0
 0 
VERTEX
 8 
1
 10 
0.82888
 20 
0.48054
 30 
0.0
 0 
VERTEX
 8 
1
 10 
0.80444
 20 
0.47975
 30 
0.0
 0 
VERTEX
 8 
1
 10 
0.77999
 20 
0.47907
 30 
0.0
 0 
VERTEX
 8 
1
 10 
0.75555
 20 
0.47848
 30 
0.0
 0 
VERTEX
 8 
1
 10 
0.7311
 20 
0.47798
 30 
0.0
 0 
VERTEX
 8 
1
 10 
0.70666
 20 
0.47757
 30 
0.0
 0 
VERTEX
 8 
1
 10 
0.68221
 20 
0.47724
 30 
0.0
 0 
VERTEX
 8 
1
 10 
0.65777
 20 
0.47697
 30 
0.0
 0 
VERTEX
 8 
1
 10 
0.63332
 20 
0.47674
 30 
0.0
 0 
VERTEX
 8 
1
 10 
0.60887
 20 
0.47656
 30 
0.0
 0 
VERTEX
 8 
1
 10 
0.58443
 20 
0.47642
 30 
0.0
 0 
VERTEX
 8 
1
 10 
0.55998
 20 
0.47635
 30 
0.0
 0 
VERTEX
 8 
1
 10 
0.53554
 20 
0.47637
 30 
0.0
 0 
VERTEX
 8 
1
 10 
0.51109
 20 
0.47648
 30 
0.0
 0 
VERTEX
 8 
1
 10 
0.48665
 20 
0.47669
 30 
0.0
 0 
VERTEX
 8 
1
 10 
0.4622
 20 
0.47699
 30 
0.0
 0 
VERTEX
 8 
1
 10 
0.43776
 20 
0.47738
 30 
0.0
 0 
VERTEX
 8 
1
 10 
0.41331
 20 
0.47787
 30 
0.0
 0 
VERTEX
 8 
1
 10 
0.38887
 20 
0.47845
 30 
0.0
 0 
VERTEX
 8 
1
 10 
0.36442
 20 
0.47913
 30 
0.0
 0 
VERTEX
 8 
1
 10 
0.33998
 20 
0.47991
 30 
0.0
 0 
VERTEX
 8 
1
 10 
0.31554
 20 
0.4808
 30 
0.0
 0 
VERTEX
 8 
1
 10 
0.29109
 20 
0.48179
 30 
0.0
 0 
VERTEX
 8 
1
 10 
0.26664
 20 
0.48289
 30 
0.0
 0 
VERTEX
 8 
1
 10 
0.2422
 20 
0.4841
 30 
0.0
 0 
VERTEX
 8 
1
 10 
0.21775
 20 
0.48544
 30 
0.0
 0 
VERTEX
 8 
1
 10 
0.19331
 20 
0.48691
 30 
0.0
 0 
VERTEX
 8 
1
 10 
0.16887
 20 
0.48854
 30 
0.0
 0 
VERTEX
 8 
1
 10 
0.14931
 20 
0.48997
 30 
0.0
 0 
VERTEX
 8 
1
 10 
0.12975
 20 
0.49151
 30 
0.0
 0 
VERTEX
 8 
1
 10 
0.11998
 20 
0.49231
 30 
0.0
 0 
VERTEX
 8 
1
 10 
0.10042
 20 
0.49394
 30 
0.0
 0 
VERTEX
 8 
1
 10 
0.08086
 20 
0.4955
 30 
0.0
 0 
VERTEX
 8 
1
 10 
0.06131
 20 
0.49686
 30 
0.0
 0 
VERTEX
 8 
1
 10 
0.04889
 20 
0.49756
 30 
0.0
 0 
VERTEX
 8 
1
 10 
0.0222
 20 
0.49847
 30 
0.0
 0 
VERTEX
 8 
1
 10 
0.0
 20 
0.49843
 30 
0.0
 0 
SEQEND
 8 
1
 0 
ENDSEC
 0 
EOF
