 0 
SECTION
 2 
ENTITIES
 0 
POLYLINE
 8 
1
 66 
 1 
 10 
0.0
 20 
0.0
 30 
0.0
 0 
VERTEX
 8 
1
 10 
0.0
 20 
0.50251
 30 
0.0
 0 
VERTEX
 8 
1
 10 
0.0222
 20 
0.50198
 30 
0.0
 0 
VERTEX
 8 
1
 10 
0.04889
 20 
0.50358
 30 
0.0
 0 
VERTEX
 8 
1
 10 
0.06131
 20 
0.50491
 30 
0.0
 0 
VERTEX
 8 
1
 10 
0.08087
 20 
0.50747
 30 
0.0
 0 
VERTEX
 8 
1
 10 
0.10042
 20 
0.51036
 30 
0.0
 0 
VERTEX
 8 
1
 10 
0.11998
 20 
0.51336
 30 
0.0
 0 
VERTEX
 8 
1
 10 
0.12976
 20 
0.51484
 30 
0.0
 0 
VERTEX
 8 
1
 10 
0.14931
 20 
0.51771
 30 
0.0
 0 
VERTEX
 8 
1
 10 
0.16887
 20 
0.52044
 30 
0.0
 0 
VERTEX
 8 
1
 10 
0.19332
 20 
0.52367
 30 
0.0
 0 
VERTEX
 8 
1
 10 
0.21776
 20 
0.52673
 30 
0.0
 0 
VERTEX
 8 
1
 10 
0.24221
 20 
0.52964
 30 
0.0
 0 
VERTEX
 8 
1
 10 
0.26665
 20 
0.53241
 30 
0.0
 0 
VERTEX
 8 
1
 10 
0.2911
 20 
0.53504
 30 
0.0
 0 
VERTEX
 8 
1
 10 
0.31555
 20 
0.53754
 30 
0.0
 0 
VERTEX
 8 
1
 10 
0.33999
 20 
0.53988
 30 
0.0
 0 
VERTEX
 8 
1
 10 
0.36444
 20 
0.54208
 30 
0.0
 0 
VERTEX
 8 
1
 10 
0.38888
 20 
0.54413
 30 
0.0
 0 
VERTEX
 8 
1
 10 
0.41333
 20 
0.54604
 30 
0.0
 0 
VERTEX
 8 
1
 10 
0.43777
 20 
0.54781
 30 
0.0
 0 
VERTEX
 8 
1
 10 
0.46222
 20 
0.54943
 30 
0.0
 0 
VERTEX
 8 
1
 10 
0.48666
 20 
0.55092
 30 
0.0
 0 
VERTEX
 8 
1
 10 
0.51111
 20 
0.55225
 30 
0.0
 0 
VERTEX
 8 
1
 10 
0.53555
 20 
0.55343
 30 
0.0
 0 
VERTEX
 8 
1
 10 
0.56
 20 
0.55445
 30 
0.0
 0 
VERTEX
 8 
1
 10 
0.58444
 20 
0.55533
 30 
0.0
 0 
VERTEX
 8 
1
 10 
0.60889
 20 
0.5561
 30 
0.0
 0 
VERTEX
 8 
1
 10 
0.63334
 20 
0.55679
 30 
0.0
 0 
VERTEX
 8 
1
 10 
0.65778
 20 
0.55742
 30 
0.0
 0 
VERTEX
 8 
1
 10 
0.68223
 20 
0.558
 30 
0.0
 0 
VERTEX
 8 
1
 10 
0.70667
 20 
0.55851
 30 
0.0
 0 
VERTEX
 8 
1
 10 
0.73112
 20 
0.55889
 30 
0.0
 0 
VERTEX
 8 
1
 10 
0.75556
 20 
0.55906
 30 
0.0
 0 
VERTEX
 8 
1
 10 
0.78001
 20 
0.55893
 30 
0.0
 0 
VERTEX
 8 
1
 10 
0.80445
 20 
0.55841
 30 
0.0
 0 
VERTEX
 8 
1
 10 
0.8289
 20 
0.55739
 30 
0.0
 0 
VERTEX
 8 
1
 10 
0.85334
 20 
0.55571
 30 
0.0
 0 
VERTEX
 8 
1
 10 
0.87779
 20 
0.55322
 30 
0.0
 0 
VERTEX
 8 
1
 10 
0.90712
 20 
0.5488
 30 
0.0
 0 
VERTEX
 8 
1
 10 
0.9169
 20 
0.54687
 30 
0.0
 0 
VERTEX
 8 
1
 10 
0.92667
 20 
0.54467
 30 
0.0
 0 
VERTEX
 8 
1
 10 
0.93645
 20 
0.54213
 30 
0.0
 0 
VERTEX
 8 
1
 10 
0.94623
 20 
0.53919
 30 
0.0
 0 
VERTEX
 8 
1
 10 
0.95503
 20 
0.53614
 30 
0.0
 0 
VERTEX
 8 
1
 10 
0.96089
 20 
0.53384
 30 
0.0
 0 
VERTEX
 8 
1
 10 
0.96481
 20 
0.53217
 30 
0.0
 0 
VERTEX
 8 
1
 10 
0.97067
 20 
0.52944
 30 
0.0
 0 
VERTEX
 8 
1
 10 
0.97752
 20 
0.52585
 30 
0.0
 0 
VERTEX
 8 
1
 10 
0.98436
 20 
0.52162
 30 
0.0
 0 
VERTEX
 8 
1
 10 
0.99023
 20 
0.51715
 30 
0.0
 0 
VERTEX
 8 
1
 10 
0.99296
 20 
0.51458
 30 
0.0
 0 
VERTEX
 8 
1
 10 
0.99511
 20 
0.51216
 30 
0.0
 0 
VERTEX
 8 
1
 10 
0.99824
 20 
0.50722
 30 
0.0
 0 
VERTEX
 8 
1
 10 
0.99922
 20 
0.50475
 30 
0.0
 0 
VERTEX
 8 
1
 10 
0.99971
 20 
0.50286
 30 
0.0
 0 
VERTEX
 8 
1
 10 
1
 20 
0.5
 30 
0.0
 0 
VERTEX
 8 
1
 10 
0.99971
 20 
0.4974
 30 
0.0
 0 
VERTEX
 8 
1
 10 
0.99922
 20 
0.49592
 30 
0.0
 0 
VERTEX
 8 
1
 10 
0.99824
 20 
0.49421
 30 
0.0
 0 
VERTEX
 8 
1
 10 
0.99511
 20 
0.49138
 30 
0.0
 0 
VERTEX
 8 
1
 10 
0.99296
 20 
0.49021
 30 
0.0
 0 
VERTEX
 8 
1
 10 
0.99022
 20 
0.48909
 30 
0.0
 0 
VERTEX
 8 
1
 10 
0.98435
 20 
0.48739
 30 
0.0
 0 
VERTEX
 8 
1
 10 
0.97751
 20 
0.48599
 30 
0.0
 0 
VERTEX
 8 
1
 10 
0.97066
 20 
0.48491
 30 
0.0
 0 
VERTEX
 8 
1
 10 
0.9648
 20 
0.48413
 30 
0.0
 0 
VERTEX
 8 
1
 10 
0.96088
 20 
0.48367
 30 
0.0
 0 
VERTEX
 8 
1
 10 
0.95502
 20 
0.48304
 30 
0.0
 0 
VERTEX
 8 
1
 10 
0.94622
 20 
0.4822
 30 
0.0
 0 
VERTEX
 8 
1
 10 
0.93644
 20 
0.48136
 30 
0.0
 0 
VERTEX
 8 
1
 10 
0.92666
 20 
0.48058
 30 
0.0
 0 
VERTEX
 8 
1
 10 
0.91688
 20 
0.47984
 30 
0.0
 0 
VERTEX
 8 
1
 10 
0.9071
 20 
0.47911
 30 
0.0
 0 
VERTEX
 8 
1
 10 
0.87777
 20 
0.47701
 30 
0.0
 0 
VERTEX
 8 
1
 10 
0.85333
 20 
0.47533
 30 
0.0
 0 
VERTEX
 8 
1
 10 
0.82888
 20 
0.47374
 30 
0.0
 0 
VERTEX
 8 
1
 10 
0.80443
 20 
0.47228
 30 
0.0
 0 
VERTEX
 8 
1
 10 
0.77999
 20 
0.471
 30 
0.0
 0 
VERTEX
 8 
1
 10 
0.75554
 20 
0.46993
 30 
0.0
 0 
VERTEX
 8 
1
 10 
0.7311
 20 
0.46908
 30 
0.0
 0 
VERTEX
 8 
1
 10 
0.70665
 20 
0.46842
 30 
0.0
 0 
VERTEX
 8 
1
 10 
0.68221
 20 
0.46792
 30 
0.0
 0 
VERTEX
 8 
1
 10 
0.65776
 20 
0.46751
 30 
0.0
 0 
VERTEX
 8 
1
 10 
0.63332
 20 
0.46716
 30 
0.0
 0 
VERTEX
 8 
1
 10 
0.60887
 20 
0.46688
 30 
0.0
 0 
VERTEX
 8 
1
 10 
0.58443
 20 
0.46667
 30 
0.0
 0 
VERTEX
 8 
1
 10 
0.55998
 20 
0.46658
 30 
0.0
 0 
VERTEX
 8 
1
 10 
0.53554
 20 
0.46663
 30 
0.0
 0 
VERTEX
 8 
1
 10 
0.51109
 20 
0.46684
 30 
0.0
 0 
VERTEX
 8 
1
 10 
0.48665
 20 
0.46721
 30 
0.0
 0 
VERTEX
 8 
1
 10 
0.4622
 20 
0.46773
 30 
0.0
 0 
VERTEX
 8 
1
 10 
0.43776
 20 
0.46839
 30 
0.0
 0 
VERTEX
 8 
1
 10 
0.41331
 20 
0.46919
 30 
0.0
 0 
VERTEX
 8 
1
 10 
0.38887
 20 
0.47012
 30 
0.0
 0 
VERTEX
 8 
1
 10 
0.36442
 20 
0.47121
 30 
0.0
 0 
VERTEX
 8 
1
 10 
0.33998
 20 
0.47243
 30 
0.0
 0 
VERTEX
 8 
1
 10 
0.31553
 20 
0.47381
 30 
0.0
 0 
VERTEX
 8 
1
 10 
0.29109
 20 
0.47533
 30 
0.0
 0 
VERTEX
 8 
1
 10 
0.26664
 20 
0.47699
 30 
0.0
 0 
VERTEX
 8 
1
 10 
0.2422
 20 
0.47878
 30 
0.0
 0 
VERTEX
 8 
1
 10 
0.21775
 20 
0.48072
 30 
0.0
 0 
VERTEX
 8 
1
 10 
0.19331
 20 
0.48282
 30 
0.0
 0 
VERTEX
 8 
1
 10 
0.16886
 20 
0.4851
 30 
0.0
 0 
VERTEX
 8 
1
 10 
0.14931
 20 
0.48708
 30 
0.0
 0 
VERTEX
 8 
1
 10 
0.12975
 20 
0.4892
 30 
0.0
 0 
VERTEX
 8 
1
 10 
0.11998
 20 
0.49029
 30 
0.0
 0 
VERTEX
 8 
1
 10 
0.10042
 20 
0.49245
 30 
0.0
 0 
VERTEX
 8 
1
 10 
0.08086
 20 
0.49445
 30 
0.0
 0 
VERTEX
 8 
1
 10 
0.06131
 20 
0.49607
 30 
0.0
 0 
VERTEX
 8 
1
 10 
0.04889
 20 
0.49682
 30 
0.0
 0 
VERTEX
 8 
1
 10 
0.0222
 20 
0.49757
 30 
0.0
 0 
VERTEX
 8 
1
 10 
0.0
 20 
0.49749
 30 
0.0
 0 
SEQEND
 8 
1
 0 
ENDSEC
 0 
EOF
