 0 
SECTION
 2 
ENTITIES
 0 
POLYLINE
 8 
1
 66 
 1 
 10 
0.0
 20 
0.0
 30 
0.0
 0 
VERTEX
 8 
1
 10 
0.0
 20 
0.50332
 30 
0.0
 0 
VERTEX
 8 
1
 10 
0.0222
 20 
0.50178
 30 
0.0
 0 
VERTEX
 8 
1
 10 
0.04889
 20 
0.50272
 30 
0.0
 0 
VERTEX
 8 
1
 10 
0.06131
 20 
0.50401
 30 
0.0
 0 
VERTEX
 8 
1
 10 
0.08086
 20 
0.50684
 30 
0.0
 0 
VERTEX
 8 
1
 10 
0.10042
 20 
0.51038
 30 
0.0
 0 
VERTEX
 8 
1
 10 
0.11997
 20 
0.51434
 30 
0.0
 0 
VERTEX
 8 
1
 10 
0.12975
 20 
0.51639
 30 
0.0
 0 
VERTEX
 8 
1
 10 
0.1493
 20 
0.52054
 30 
0.0
 0 
VERTEX
 8 
1
 10 
0.16886
 20 
0.52465
 30 
0.0
 0 
VERTEX
 8 
1
 10 
0.1933
 20 
0.52967
 30 
0.0
 0 
VERTEX
 8 
1
 10 
0.21774
 20 
0.53453
 30 
0.0
 0 
VERTEX
 8 
1
 10 
0.24219
 20 
0.53923
 30 
0.0
 0 
VERTEX
 8 
1
 10 
0.26663
 20 
0.54376
 30 
0.0
 0 
VERTEX
 8 
1
 10 
0.29108
 20 
0.54812
 30 
0.0
 0 
VERTEX
 8 
1
 10 
0.31552
 20 
0.55228
 30 
0.0
 0 
VERTEX
 8 
1
 10 
0.33996
 20 
0.55622
 30 
0.0
 0 
VERTEX
 8 
1
 10 
0.36441
 20 
0.55993
 30 
0.0
 0 
VERTEX
 8 
1
 10 
0.38885
 20 
0.56337
 30 
0.0
 0 
VERTEX
 8 
1
 10 
0.4133
 20 
0.56656
 30 
0.0
 0 
VERTEX
 8 
1
 10 
0.43774
 20 
0.56948
 30 
0.0
 0 
VERTEX
 8 
1
 10 
0.46218
 20 
0.57212
 30 
0.0
 0 
VERTEX
 8 
1
 10 
0.48663
 20 
0.57447
 30 
0.0
 0 
VERTEX
 8 
1
 10 
0.51107
 20 
0.57651
 30 
0.0
 0 
VERTEX
 8 
1
 10 
0.53552
 20 
0.57824
 30 
0.0
 0 
VERTEX
 8 
1
 10 
0.55996
 20 
0.57966
 30 
0.0
 0 
VERTEX
 8 
1
 10 
0.58441
 20 
0.5808
 30 
0.0
 0 
VERTEX
 8 
1
 10 
0.60885
 20 
0.58168
 30 
0.0
 0 
VERTEX
 8 
1
 10 
0.6333
 20 
0.58234
 30 
0.0
 0 
VERTEX
 8 
1
 10 
0.65774
 20 
0.58277
 30 
0.0
 0 
VERTEX
 8 
1
 10 
0.68219
 20 
0.58296
 30 
0.0
 0 
VERTEX
 8 
1
 10 
0.70663
 20 
0.58288
 30 
0.0
 0 
VERTEX
 8 
1
 10 
0.73108
 20 
0.58246
 30 
0.0
 0 
VERTEX
 8 
1
 10 
0.75552
 20 
0.58158
 30 
0.0
 0 
VERTEX
 8 
1
 10 
0.77997
 20 
0.58014
 30 
0.0
 0 
VERTEX
 8 
1
 10 
0.80442
 20 
0.57801
 30 
0.0
 0 
VERTEX
 8 
1
 10 
0.82886
 20 
0.57505
 30 
0.0
 0 
VERTEX
 8 
1
 10 
0.85331
 20 
0.57116
 30 
0.0
 0 
VERTEX
 8 
1
 10 
0.87775
 20 
0.56619
 30 
0.0
 0 
VERTEX
 8 
1
 10 
0.90709
 20 
0.55855
 30 
0.0
 0 
VERTEX
 8 
1
 10 
0.91687
 20 
0.55553
 30 
0.0
 0 
VERTEX
 8 
1
 10 
0.92665
 20 
0.55224
 30 
0.0
 0 
VERTEX
 8 
1
 10 
0.93643
 20 
0.54864
 30 
0.0
 0 
VERTEX
 8 
1
 10 
0.94621
 20 
0.54468
 30 
0.0
 0 
VERTEX
 8 
1
 10 
0.95501
 20 
0.54075
 30 
0.0
 0 
VERTEX
 8 
1
 10 
0.96088
 20 
0.5379
 30 
0.0
 0 
VERTEX
 8 
1
 10 
0.96479
 20 
0.53589
 30 
0.0
 0 
VERTEX
 8 
1
 10 
0.97066
 20 
0.53266
 30 
0.0
 0 
VERTEX
 8 
1
 10 
0.9775
 20 
0.52852
 30 
0.0
 0 
VERTEX
 8 
1
 10 
0.98435
 20 
0.52377
 30 
0.0
 0 
VERTEX
 8 
1
 10 
0.99022
 20 
0.51889
 30 
0.0
 0 
VERTEX
 8 
1
 10 
0.99295
 20 
0.51613
 30 
0.0
 0 
VERTEX
 8 
1
 10 
0.99511
 20 
0.51356
 30 
0.0
 0 
VERTEX
 8 
1
 10 
0.99824
 20 
0.50836
 30 
0.0
 0 
VERTEX
 8 
1
 10 
0.99922
 20 
0.50567
 30 
0.0
 0 
VERTEX
 8 
1
 10 
0.99971
 20 
0.50353
 30 
0.0
 0 
VERTEX
 8 
1
 10 
1
 20 
0.5
 30 
0.0
 0 
VERTEX
 8 
1
 10 
0.99971
 20 
0.49635
 30 
0.0
 0 
VERTEX
 8 
1
 10 
0.99922
 20 
0.49404
 30 
0.0
 0 
VERTEX
 8 
1
 10 
0.99824
 20 
0.49117
 30 
0.0
 0 
VERTEX
 8 
1
 10 
0.99511
 20 
0.486
 30 
0.0
 0 
VERTEX
 8 
1
 10 
0.99296
 20 
0.48375
 30 
0.0
 0 
VERTEX
 8 
1
 10 
0.99022
 20 
0.48156
 30 
0.0
 0 
VERTEX
 8 
1
 10 
0.98436
 20 
0.4782
 30 
0.0
 0 
VERTEX
 8 
1
 10 
0.97751
 20 
0.47545
 30 
0.0
 0 
VERTEX
 8 
1
 10 
0.97067
 20 
0.47337
 30 
0.0
 0 
VERTEX
 8 
1
 10 
0.9648
 20 
0.47194
 30 
0.0
 0 
VERTEX
 8 
1
 10 
0.96089
 20 
0.47112
 30 
0.0
 0 
VERTEX
 8 
1
 10 
0.95503
 20 
0.47007
 30 
0.0
 0 
VERTEX
 8 
1
 10 
0.94622
 20 
0.46879
 30 
0.0
 0 
VERTEX
 8 
1
 10 
0.93645
 20 
0.4677
 30 
0.0
 0 
VERTEX
 8 
1
 10 
0.92667
 20 
0.46687
 30 
0.0
 0 
VERTEX
 8 
1
 10 
0.91689
 20 
0.46622
 30 
0.0
 0 
VERTEX
 8 
1
 10 
0.90711
 20 
0.46571
 30 
0.0
 0 
VERTEX
 8 
1
 10 
0.87778
 20 
0.46466
 30 
0.0
 0 
VERTEX
 8 
1
 10 
0.85333
 20 
0.46409
 30 
0.0
 0 
VERTEX
 8 
1
 10 
0.82889
 20 
0.46367
 30 
0.0
 0 
VERTEX
 8 
1
 10 
0.80444
 20 
0.46334
 30 
0.0
 0 
VERTEX
 8 
1
 10 
0.78
 20 
0.46309
 30 
0.0
 0 
VERTEX
 8 
1
 10 
0.75555
 20 
0.46292
 30 
0.0
 0 
VERTEX
 8 
1
 10 
0.73111
 20 
0.46284
 30 
0.0
 0 
VERTEX
 8 
1
 10 
0.70666
 20 
0.46283
 30 
0.0
 0 
VERTEX
 8 
1
 10 
0.68222
 20 
0.46286
 30 
0.0
 0 
VERTEX
 8 
1
 10 
0.65777
 20 
0.46288
 30 
0.0
 0 
VERTEX
 8 
1
 10 
0.63333
 20 
0.46285
 30 
0.0
 0 
VERTEX
 8 
1
 10 
0.60888
 20 
0.46277
 30 
0.0
 0 
VERTEX
 8 
1
 10 
0.58443
 20 
0.46269
 30 
0.0
 0 
VERTEX
 8 
1
 10 
0.55999
 20 
0.46263
 30 
0.0
 0 
VERTEX
 8 
1
 10 
0.53554
 20 
0.46265
 30 
0.0
 0 
VERTEX
 8 
1
 10 
0.5111
 20 
0.46276
 30 
0.0
 0 
VERTEX
 8 
1
 10 
0.48665
 20 
0.46297
 30 
0.0
 0 
VERTEX
 8 
1
 10 
0.46221
 20 
0.46328
 30 
0.0
 0 
VERTEX
 8 
1
 10 
0.43777
 20 
0.46369
 30 
0.0
 0 
VERTEX
 8 
1
 10 
0.41332
 20 
0.4642
 30 
0.0
 0 
VERTEX
 8 
1
 10 
0.38888
 20 
0.46482
 30 
0.0
 0 
VERTEX
 8 
1
 10 
0.36443
 20 
0.46556
 30 
0.0
 0 
VERTEX
 8 
1
 10 
0.33999
 20 
0.46643
 30 
0.0
 0 
VERTEX
 8 
1
 10 
0.31554
 20 
0.46745
 30 
0.0
 0 
VERTEX
 8 
1
 10 
0.29109
 20 
0.46862
 30 
0.0
 0 
VERTEX
 8 
1
 10 
0.26665
 20 
0.46996
 30 
0.0
 0 
VERTEX
 8 
1
 10 
0.2422
 20 
0.47149
 30 
0.0
 0 
VERTEX
 8 
1
 10 
0.21776
 20 
0.47326
 30 
0.0
 0 
VERTEX
 8 
1
 10 
0.19332
 20 
0.47533
 30 
0.0
 0 
VERTEX
 8 
1
 10 
0.16887
 20 
0.47775
 30 
0.0
 0 
VERTEX
 8 
1
 10 
0.14931
 20 
0.48
 30 
0.0
 0 
VERTEX
 8 
1
 10 
0.12976
 20 
0.48252
 30 
0.0
 0 
VERTEX
 8 
1
 10 
0.11998
 20 
0.48388
 30 
0.0
 0 
VERTEX
 8 
1
 10 
0.10042
 20 
0.4867
 30 
0.0
 0 
VERTEX
 8 
1
 10 
0.08087
 20 
0.48952
 30 
0.0
 0 
VERTEX
 8 
1
 10 
0.06131
 20 
0.49214
 30 
0.0
 0 
VERTEX
 8 
1
 10 
0.04889
 20 
0.49359
 30 
0.0
 0 
VERTEX
 8 
1
 10 
0.0222
 20 
0.49587
 30 
0.0
 0 
VERTEX
 8 
1
 10 
0.0
 20 
0.49662
 30 
0.0
 0 
SEQEND
 8 
1
 0 
ENDSEC
 0 
EOF
