 0 
SECTION
 2 
ENTITIES
 0 
POLYLINE
 8 
1
 66 
 1 
 10 
0.0
 20 
0.0
 30 
0.0
 0 
VERTEX
 8 
1
 10 
0.0
 20 
0.50017
 30 
0.0
 0 
VERTEX
 8 
1
 10 
0.00099000
 20 
0.50032
 30 
0.0
 0 
VERTEX
 8 
1
 10 
0.0039400
 20 
0.50076
 30 
0.0
 0 
VERTEX
 8 
1
 10 
0.0088599
 20 
0.50151
 30 
0.0
 0 
VERTEX
 8 
1
 10 
0.01571
 20 
0.5026
 30 
0.0
 0 
VERTEX
 8 
1
 10 
0.02447
 20 
0.50404
 30 
0.0
 0 
VERTEX
 8 
1
 10 
0.03511
 20 
0.50587
 30 
0.0
 0 
VERTEX
 8 
1
 10 
0.04759
 20 
0.50808
 30 
0.0
 0 
VERTEX
 8 
1
 10 
0.06185
 20 
0.51069
 30 
0.0
 0 
VERTEX
 8 
1
 10 
0.07784
 20 
0.51369
 30 
0.0
 0 
VERTEX
 8 
1
 10 
0.09549
 20 
0.51704
 30 
0.0
 0 
VERTEX
 8 
1
 10 
0.11474
 20 
0.52072
 30 
0.0
 0 
VERTEX
 8 
1
 10 
0.13552
 20 
0.52466
 30 
0.0
 0 
VERTEX
 8 
1
 10 
0.15773
 20 
0.52881
 30 
0.0
 0 
VERTEX
 8 
1
 10 
0.18129
 20 
0.53311
 30 
0.0
 0 
VERTEX
 8 
1
 10 
0.20611
 20 
0.5375
 30 
0.0
 0 
VERTEX
 8 
1
 10 
0.23209
 20 
0.54191
 30 
0.0
 0 
VERTEX
 8 
1
 10 
0.25912
 20 
0.54628
 30 
0.0
 0 
VERTEX
 8 
1
 10 
0.28711
 20 
0.55057
 30 
0.0
 0 
VERTEX
 8 
1
 10 
0.31594
 20 
0.55473
 30 
0.0
 0 
VERTEX
 8 
1
 10 
0.34549
 20 
0.55869
 30 
0.0
 0 
VERTEX
 8 
1
 10 
0.37565
 20 
0.56241
 30 
0.0
 0 
VERTEX
 8 
1
 10 
0.40631
 20 
0.56584
 30 
0.0
 0 
VERTEX
 8 
1
 10 
0.43733
 20 
0.56891
 30 
0.0
 0 
VERTEX
 8 
1
 10 
0.46861
 20 
0.57157
 30 
0.0
 0 
VERTEX
 8 
1
 10 
0.5
 20 
0.57377
 30 
0.0
 0 
VERTEX
 8 
1
 10 
0.5314
 20 
0.57549
 30 
0.0
 0 
VERTEX
 8 
1
 10 
0.56267
 20 
0.5767
 30 
0.0
 0 
VERTEX
 8 
1
 10 
0.59369
 20 
0.57747
 30 
0.0
 0 
VERTEX
 8 
1
 10 
0.62434
 20 
0.57753
 30 
0.0
 0 
VERTEX
 8 
1
 10 
0.65451
 20 
0.577
 30 
0.0
 0 
VERTEX
 8 
1
 10 
0.68406
 20 
0.57599
 30 
0.0
 0 
VERTEX
 8 
1
 10 
0.71289
 20 
0.57449
 30 
0.0
 0 
VERTEX
 8 
1
 10 
0.74088
 20 
0.57252
 30 
0.0
 0 
VERTEX
 8 
1
 10 
0.76791
 20 
0.57013
 30 
0.0
 0 
VERTEX
 8 
1
 10 
0.79389
 20 
0.56736
 30 
0.0
 0 
VERTEX
 8 
1
 10 
0.81871
 20 
0.56424
 30 
0.0
 0 
VERTEX
 8 
1
 10 
0.84227
 20 
0.5608
 30 
0.0
 0 
VERTEX
 8 
1
 10 
0.86448
 20 
0.55705
 30 
0.0
 0 
VERTEX
 8 
1
 10 
0.88526
 20 
0.55304
 30 
0.0
 0 
VERTEX
 8 
1
 10 
0.90451
 20 
0.54878
 30 
0.0
 0 
VERTEX
 8 
1
 10 
0.92216
 20 
0.54432
 30 
0.0
 0 
VERTEX
 8 
1
 10 
0.93815
 20 
0.53968
 30 
0.0
 0 
VERTEX
 8 
1
 10 
0.95241
 20 
0.53492
 30 
0.0
 0 
VERTEX
 8 
1
 10 
0.96489
 20 
0.53007
 30 
0.0
 0 
VERTEX
 8 
1
 10 
0.97553
 20 
0.52515
 30 
0.0
 0 
VERTEX
 8 
1
 10 
0.98429
 20 
0.52018
 30 
0.0
 0 
VERTEX
 8 
1
 10 
0.99114
 20 
0.51518
 30 
0.0
 0 
VERTEX
 8 
1
 10 
0.99606
 20 
0.51014
 30 
0.0
 0 
VERTEX
 8 
1
 10 
0.99901
 20 
0.50509
 30 
0.0
 0 
VERTEX
 8 
1
 10 
1
 20 
0.5
 30 
0.0
 0 
VERTEX
 8 
1
 10 
0.99901
 20 
0.49562
 30 
0.0
 0 
VERTEX
 8 
1
 10 
0.99606
 20 
0.4913
 30 
0.0
 0 
VERTEX
 8 
1
 10 
0.99114
 20 
0.48719
 30 
0.0
 0 
VERTEX
 8 
1
 10 
0.98429
 20 
0.48341
 30 
0.0
 0 
VERTEX
 8 
1
 10 
0.97553
 20 
0.48003
 30 
0.0
 0 
VERTEX
 8 
1
 10 
0.96489
 20 
0.47707
 30 
0.0
 0 
VERTEX
 8 
1
 10 
0.95241
 20 
0.47453
 30 
0.0
 0 
VERTEX
 8 
1
 10 
0.93815
 20 
0.47247
 30 
0.0
 0 
VERTEX
 8 
1
 10 
0.92216
 20 
0.47098
 30 
0.0
 0 
VERTEX
 8 
1
 10 
0.90451
 20 
0.47003
 30 
0.0
 0 
VERTEX
 8 
1
 10 
0.88526
 20 
0.4696
 30 
0.0
 0 
VERTEX
 8 
1
 10 
0.86448
 20 
0.46974
 30 
0.0
 0 
VERTEX
 8 
1
 10 
0.84227
 20 
0.47053
 30 
0.0
 0 
VERTEX
 8 
1
 10 
0.81871
 20 
0.47172
 30 
0.0
 0 
VERTEX
 8 
1
 10 
0.79389
 20 
0.47334
 30 
0.0
 0 
VERTEX
 8 
1
 10 
0.76791
 20 
0.47536
 30 
0.0
 0 
VERTEX
 8 
1
 10 
0.74088
 20 
0.47776
 30 
0.0
 0 
VERTEX
 8 
1
 10 
0.71289
 20 
0.48048
 30 
0.0
 0 
VERTEX
 8 
1
 10 
0.68406
 20 
0.48346
 30 
0.0
 0 
VERTEX
 8 
1
 10 
0.65451
 20 
0.4866
 30 
0.0
 0 
VERTEX
 8 
1
 10 
0.62434
 20 
0.48983
 30 
0.0
 0 
VERTEX
 8 
1
 10 
0.59369
 20 
0.49305
 30 
0.0
 0 
VERTEX
 8 
1
 10 
0.56267
 20 
0.49617
 30 
0.0
 0 
VERTEX
 8 
1
 10 
0.5314
 20 
0.49911
 30 
0.0
 0 
VERTEX
 8 
1
 10 
0.5
 20 
0.50182
 30 
0.0
 0 
VERTEX
 8 
1
 10 
0.46861
 20 
0.50423
 30 
0.0
 0 
VERTEX
 8 
1
 10 
0.43733
 20 
0.50632
 30 
0.0
 0 
VERTEX
 8 
1
 10 
0.40631
 20 
0.50806
 30 
0.0
 0 
VERTEX
 8 
1
 10 
0.37565
 20 
0.50946
 30 
0.0
 0 
VERTEX
 8 
1
 10 
0.34549
 20 
0.51051
 30 
0.0
 0 
VERTEX
 8 
1
 10 
0.31594
 20 
0.51124
 30 
0.0
 0 
VERTEX
 8 
1
 10 
0.28711
 20 
0.51166
 30 
0.0
 0 
VERTEX
 8 
1
 10 
0.25912
 20 
0.5118
 30 
0.0
 0 
VERTEX
 8 
1
 10 
0.23209
 20 
0.51167
 30 
0.0
 0 
VERTEX
 8 
1
 10 
0.20611
 20 
0.5113
 30 
0.0
 0 
VERTEX
 8 
1
 10 
0.18129
 20 
0.5107
 30 
0.0
 0 
VERTEX
 8 
1
 10 
0.15773
 20 
0.50989
 30 
0.0
 0 
VERTEX
 8 
1
 10 
0.13552
 20 
0.50889
 30 
0.0
 0 
VERTEX
 8 
1
 10 
0.11474
 20 
0.5077
 30 
0.0
 0 
VERTEX
 8 
1
 10 
0.09549
 20 
0.50637
 30 
0.0
 0 
VERTEX
 8 
1
 10 
0.07784
 20 
0.50492
 30 
0.0
 0 
VERTEX
 8 
1
 10 
0.06185
 20 
0.50338
 30 
0.0
 0 
VERTEX
 8 
1
 10 
0.04759
 20 
0.50183
 30 
0.0
 0 
VERTEX
 8 
1
 10 
0.03511
 20 
0.5003
 30 
0.0
 0 
VERTEX
 8 
1
 10 
0.02447
 20 
0.49886
 30 
0.0
 0 
VERTEX
 8 
1
 10 
0.01571
 20 
0.49757
 30 
0.0
 0 
VERTEX
 8 
1
 10 
0.0088599
 20 
0.4965
 30 
0.0
 0 
VERTEX
 8 
1
 10 
0.0039400
 20 
0.49569
 30 
0.0
 0 
VERTEX
 8 
1
 10 
0.00099000
 20 
0.49519
 30 
0.0
 0 
VERTEX
 8 
1
 10 
0.0
 20 
0.49502
 30 
0.0
 0 
SEQEND
 8 
1
 0 
ENDSEC
 0 
EOF
