 0 
SECTION
 2 
ENTITIES
 0 
POLYLINE
 8 
1
 66 
 1 
 10 
0.0
 20 
0.0
 30 
0.0
 0 
VERTEX
 8 
1
 10 
0.0
 20 
0.50495
 30 
0.0
 0 
VERTEX
 8 
1
 10 
0.00099000
 20 
0.50507
 30 
0.0
 0 
VERTEX
 8 
1
 10 
0.0039400
 20 
0.50544
 30 
0.0
 0 
VERTEX
 8 
1
 10 
0.0088599
 20 
0.50608
 30 
0.0
 0 
VERTEX
 8 
1
 10 
0.01571
 20 
0.50701
 30 
0.0
 0 
VERTEX
 8 
1
 10 
0.02447
 20 
0.50827
 30 
0.0
 0 
VERTEX
 8 
1
 10 
0.03511
 20 
0.50987
 30 
0.0
 0 
VERTEX
 8 
1
 10 
0.04759
 20 
0.51185
 30 
0.0
 0 
VERTEX
 8 
1
 10 
0.06185
 20 
0.5142
 30 
0.0
 0 
VERTEX
 8 
1
 10 
0.07784
 20 
0.51692
 30 
0.0
 0 
VERTEX
 8 
1
 10 
0.09549
 20 
0.51998
 30 
0.0
 0 
VERTEX
 8 
1
 10 
0.11474
 20 
0.52336
 30 
0.0
 0 
VERTEX
 8 
1
 10 
0.13552
 20 
0.52702
 30 
0.0
 0 
VERTEX
 8 
1
 10 
0.15773
 20 
0.53089
 30 
0.0
 0 
VERTEX
 8 
1
 10 
0.18129
 20 
0.53494
 30 
0.0
 0 
VERTEX
 8 
1
 10 
0.20611
 20 
0.53912
 30 
0.0
 0 
VERTEX
 8 
1
 10 
0.23209
 20 
0.5434
 30 
0.0
 0 
VERTEX
 8 
1
 10 
0.25912
 20 
0.54772
 30 
0.0
 0 
VERTEX
 8 
1
 10 
0.28711
 20 
0.55204
 30 
0.0
 0 
VERTEX
 8 
1
 10 
0.31594
 20 
0.55633
 30 
0.0
 0 
VERTEX
 8 
1
 10 
0.34549
 20 
0.5605
 30 
0.0
 0 
VERTEX
 8 
1
 10 
0.37565
 20 
0.56449
 30 
0.0
 0 
VERTEX
 8 
1
 10 
0.40631
 20 
0.56821
 30 
0.0
 0 
VERTEX
 8 
1
 10 
0.43733
 20 
0.57155
 30 
0.0
 0 
VERTEX
 8 
1
 10 
0.46861
 20 
0.57441
 30 
0.0
 0 
VERTEX
 8 
1
 10 
0.5
 20 
0.57671
 30 
0.0
 0 
VERTEX
 8 
1
 10 
0.5314
 20 
0.5784
 30 
0.0
 0 
VERTEX
 8 
1
 10 
0.56267
 20 
0.57949
 30 
0.0
 0 
VERTEX
 8 
1
 10 
0.59369
 20 
0.5801
 30 
0.0
 0 
VERTEX
 8 
1
 10 
0.62434
 20 
0.58
 30 
0.0
 0 
VERTEX
 8 
1
 10 
0.65451
 20 
0.57929
 30 
0.0
 0 
VERTEX
 8 
1
 10 
0.68406
 20 
0.57798
 30 
0.0
 0 
VERTEX
 8 
1
 10 
0.71289
 20 
0.57608
 30 
0.0
 0 
VERTEX
 8 
1
 10 
0.74088
 20 
0.57364
 30 
0.0
 0 
VERTEX
 8 
1
 10 
0.76791
 20 
0.57072
 30 
0.0
 0 
VERTEX
 8 
1
 10 
0.79389
 20 
0.56739
 30 
0.0
 0 
VERTEX
 8 
1
 10 
0.81871
 20 
0.5637
 30 
0.0
 0 
VERTEX
 8 
1
 10 
0.84227
 20 
0.55971
 30 
0.0
 0 
VERTEX
 8 
1
 10 
0.86448
 20 
0.55548
 30 
0.0
 0 
VERTEX
 8 
1
 10 
0.88526
 20 
0.55105
 30 
0.0
 0 
VERTEX
 8 
1
 10 
0.90451
 20 
0.54648
 30 
0.0
 0 
VERTEX
 8 
1
 10 
0.92216
 20 
0.54181
 30 
0.0
 0 
VERTEX
 8 
1
 10 
0.93815
 20 
0.5371
 30 
0.0
 0 
VERTEX
 8 
1
 10 
0.95241
 20 
0.53239
 30 
0.0
 0 
VERTEX
 8 
1
 10 
0.96489
 20 
0.52769
 30 
0.0
 0 
VERTEX
 8 
1
 10 
0.97553
 20 
0.52302
 30 
0.0
 0 
VERTEX
 8 
1
 10 
0.98429
 20 
0.51839
 30 
0.0
 0 
VERTEX
 8 
1
 10 
0.99114
 20 
0.51379
 30 
0.0
 0 
VERTEX
 8 
1
 10 
0.99606
 20 
0.5092
 30 
0.0
 0 
VERTEX
 8 
1
 10 
0.99901
 20 
0.50461
 30 
0.0
 0 
VERTEX
 8 
1
 10 
1
 20 
0.5
 30 
0.0
 0 
VERTEX
 8 
1
 10 
0.99901
 20 
0.49586
 30 
0.0
 0 
VERTEX
 8 
1
 10 
0.99606
 20 
0.49182
 30 
0.0
 0 
VERTEX
 8 
1
 10 
0.99114
 20 
0.48792
 30 
0.0
 0 
VERTEX
 8 
1
 10 
0.98429
 20 
0.48424
 30 
0.0
 0 
VERTEX
 8 
1
 10 
0.97553
 20 
0.48081
 30 
0.0
 0 
VERTEX
 8 
1
 10 
0.96489
 20 
0.47767
 30 
0.0
 0 
VERTEX
 8 
1
 10 
0.95241
 20 
0.47485
 30 
0.0
 0 
VERTEX
 8 
1
 10 
0.93815
 20 
0.47238
 30 
0.0
 0 
VERTEX
 8 
1
 10 
0.92216
 20 
0.47035
 30 
0.0
 0 
VERTEX
 8 
1
 10 
0.90451
 20 
0.46879
 30 
0.0
 0 
VERTEX
 8 
1
 10 
0.88526
 20 
0.46773
 30 
0.0
 0 
VERTEX
 8 
1
 10 
0.86448
 20 
0.46715
 30 
0.0
 0 
VERTEX
 8 
1
 10 
0.84227
 20 
0.4671
 30 
0.0
 0 
VERTEX
 8 
1
 10 
0.81871
 20 
0.46775
 30 
0.0
 0 
VERTEX
 8 
1
 10 
0.79389
 20 
0.46878
 30 
0.0
 0 
VERTEX
 8 
1
 10 
0.76791
 20 
0.47023
 30 
0.0
 0 
VERTEX
 8 
1
 10 
0.74088
 20 
0.4721
 30 
0.0
 0 
VERTEX
 8 
1
 10 
0.71289
 20 
0.47438
 30 
0.0
 0 
VERTEX
 8 
1
 10 
0.68406
 20 
0.47701
 30 
0.0
 0 
VERTEX
 8 
1
 10 
0.65451
 20 
0.47994
 30 
0.0
 0 
VERTEX
 8 
1
 10 
0.62434
 20 
0.48306
 30 
0.0
 0 
VERTEX
 8 
1
 10 
0.59369
 20 
0.48628
 30 
0.0
 0 
VERTEX
 8 
1
 10 
0.56267
 20 
0.4895
 30 
0.0
 0 
VERTEX
 8 
1
 10 
0.5314
 20 
0.49261
 30 
0.0
 0 
VERTEX
 8 
1
 10 
0.5
 20 
0.49553
 30 
0.0
 0 
VERTEX
 8 
1
 10 
0.46861
 20 
0.49818
 30 
0.0
 0 
VERTEX
 8 
1
 10 
0.43733
 20 
0.50052
 30 
0.0
 0 
VERTEX
 8 
1
 10 
0.40631
 20 
0.50252
 30 
0.0
 0 
VERTEX
 8 
1
 10 
0.37565
 20 
0.50417
 30 
0.0
 0 
VERTEX
 8 
1
 10 
0.34549
 20 
0.50548
 30 
0.0
 0 
VERTEX
 8 
1
 10 
0.31594
 20 
0.50646
 30 
0.0
 0 
VERTEX
 8 
1
 10 
0.28711
 20 
0.50715
 30 
0.0
 0 
VERTEX
 8 
1
 10 
0.25912
 20 
0.50758
 30 
0.0
 0 
VERTEX
 8 
1
 10 
0.23209
 20 
0.50776
 30 
0.0
 0 
VERTEX
 8 
1
 10 
0.20611
 20 
0.50773
 30 
0.0
 0 
VERTEX
 8 
1
 10 
0.18129
 20 
0.5075
 30 
0.0
 0 
VERTEX
 8 
1
 10 
0.15773
 20 
0.50708
 30 
0.0
 0 
VERTEX
 8 
1
 10 
0.13552
 20 
0.50647
 30 
0.0
 0 
VERTEX
 8 
1
 10 
0.11474
 20 
0.50568
 30 
0.0
 0 
VERTEX
 8 
1
 10 
0.09549
 20 
0.50472
 30 
0.0
 0 
VERTEX
 8 
1
 10 
0.07784
 20 
0.50361
 30 
0.0
 0 
VERTEX
 8 
1
 10 
0.06185
 20 
0.50239
 30 
0.0
 0 
VERTEX
 8 
1
 10 
0.04759
 20 
0.50109
 30 
0.0
 0 
VERTEX
 8 
1
 10 
0.03511
 20 
0.49977
 30 
0.0
 0 
VERTEX
 8 
1
 10 
0.02447
 20 
0.49849
 30 
0.0
 0 
VERTEX
 8 
1
 10 
0.01571
 20 
0.49732
 30 
0.0
 0 
VERTEX
 8 
1
 10 
0.0088599
 20 
0.49633
 30 
0.0
 0 
VERTEX
 8 
1
 10 
0.0039400
 20 
0.49557
 30 
0.0
 0 
VERTEX
 8 
1
 10 
0.00099000
 20 
0.49509
 30 
0.0
 0 
VERTEX
 8 
1
 10 
0.0
 20 
0.49493
 30 
0.0
 0 
SEQEND
 8 
1
 0 
ENDSEC
 0 
EOF
