 0 
SECTION
 2 
ENTITIES
 0 
POLYLINE
 8 
1
 66 
 1 
 10 
0.0
 20 
0.0
 30 
0.0
 0 
VERTEX
 8 
1
 10 
0.0
 20 
0.50493
 30 
0.0
 0 
VERTEX
 8 
1
 10 
0.00099000
 20 
0.505
 30 
0.0
 0 
VERTEX
 8 
1
 10 
0.0039400
 20 
0.50521
 30 
0.0
 0 
VERTEX
 8 
1
 10 
0.0088599
 20 
0.50558
 30 
0.0
 0 
VERTEX
 8 
1
 10 
0.01571
 20 
0.50611
 30 
0.0
 0 
VERTEX
 8 
1
 10 
0.02447
 20 
0.50683
 30 
0.0
 0 
VERTEX
 8 
1
 10 
0.03511
 20 
0.50775
 30 
0.0
 0 
VERTEX
 8 
1
 10 
0.04759
 20 
0.5089
 30 
0.0
 0 
VERTEX
 8 
1
 10 
0.06185
 20 
0.51029
 30 
0.0
 0 
VERTEX
 8 
1
 10 
0.07784
 20 
0.51193
 30 
0.0
 0 
VERTEX
 8 
1
 10 
0.09549
 20 
0.51383
 30 
0.0
 0 
VERTEX
 8 
1
 10 
0.11474
 20 
0.51599
 30 
0.0
 0 
VERTEX
 8 
1
 10 
0.13552
 20 
0.51839
 30 
0.0
 0 
VERTEX
 8 
1
 10 
0.15773
 20 
0.52102
 30 
0.0
 0 
VERTEX
 8 
1
 10 
0.18129
 20 
0.52387
 30 
0.0
 0 
VERTEX
 8 
1
 10 
0.20611
 20 
0.52691
 30 
0.0
 0 
VERTEX
 8 
1
 10 
0.23209
 20 
0.53012
 30 
0.0
 0 
VERTEX
 8 
1
 10 
0.25912
 20 
0.53346
 30 
0.0
 0 
VERTEX
 8 
1
 10 
0.28711
 20 
0.53692
 30 
0.0
 0 
VERTEX
 8 
1
 10 
0.31594
 20 
0.54045
 30 
0.0
 0 
VERTEX
 8 
1
 10 
0.34549
 20 
0.54403
 30 
0.0
 0 
VERTEX
 8 
1
 10 
0.37565
 20 
0.54763
 30 
0.0
 0 
VERTEX
 8 
1
 10 
0.40631
 20 
0.5512
 30 
0.0
 0 
VERTEX
 8 
1
 10 
0.43733
 20 
0.5547
 30 
0.0
 0 
VERTEX
 8 
1
 10 
0.46861
 20 
0.55809
 30 
0.0
 0 
VERTEX
 8 
1
 10 
0.5
 20 
0.5613
 30 
0.0
 0 
VERTEX
 8 
1
 10 
0.5314
 20 
0.5643
 30 
0.0
 0 
VERTEX
 8 
1
 10 
0.56267
 20 
0.567
 30 
0.0
 0 
VERTEX
 8 
1
 10 
0.59369
 20 
0.56935
 30 
0.0
 0 
VERTEX
 8 
1
 10 
0.62434
 20 
0.5713
 30 
0.0
 0 
VERTEX
 8 
1
 10 
0.65451
 20 
0.57278
 30 
0.0
 0 
VERTEX
 8 
1
 10 
0.68406
 20 
0.57375
 30 
0.0
 0 
VERTEX
 8 
1
 10 
0.71289
 20 
0.57418
 30 
0.0
 0 
VERTEX
 8 
1
 10 
0.74088
 20 
0.57394
 30 
0.0
 0 
VERTEX
 8 
1
 10 
0.76791
 20 
0.57329
 30 
0.0
 0 
VERTEX
 8 
1
 10 
0.79389
 20 
0.57193
 30 
0.0
 0 
VERTEX
 8 
1
 10 
0.81871
 20 
0.56989
 30 
0.0
 0 
VERTEX
 8 
1
 10 
0.84227
 20 
0.5673
 30 
0.0
 0 
VERTEX
 8 
1
 10 
0.86448
 20 
0.5642
 30 
0.0
 0 
VERTEX
 8 
1
 10 
0.88526
 20 
0.5606
 30 
0.0
 0 
VERTEX
 8 
1
 10 
0.90451
 20 
0.55651
 30 
0.0
 0 
VERTEX
 8 
1
 10 
0.92216
 20 
0.55194
 30 
0.0
 0 
VERTEX
 8 
1
 10 
0.93815
 20 
0.54696
 30 
0.0
 0 
VERTEX
 8 
1
 10 
0.95241
 20 
0.54167
 30 
0.0
 0 
VERTEX
 8 
1
 10 
0.96489
 20 
0.53617
 30 
0.0
 0 
VERTEX
 8 
1
 10 
0.97553
 20 
0.53054
 30 
0.0
 0 
VERTEX
 8 
1
 10 
0.98429
 20 
0.5248
 30 
0.0
 0 
VERTEX
 8 
1
 10 
0.99114
 20 
0.51895
 30 
0.0
 0 
VERTEX
 8 
1
 10 
0.99606
 20 
0.51291
 30 
0.0
 0 
VERTEX
 8 
1
 10 
0.99901
 20 
0.50662
 30 
0.0
 0 
VERTEX
 8 
1
 10 
1
 20 
0.5
 30 
0.0
 0 
VERTEX
 8 
1
 10 
0.99901
 20 
0.49478
 30 
0.0
 0 
VERTEX
 8 
1
 10 
0.99606
 20 
0.48958
 30 
0.0
 0 
VERTEX
 8 
1
 10 
0.99114
 20 
0.48456
 30 
0.0
 0 
VERTEX
 8 
1
 10 
0.98429
 20 
0.47988
 30 
0.0
 0 
VERTEX
 8 
1
 10 
0.97553
 20 
0.47565
 30 
0.0
 0 
VERTEX
 8 
1
 10 
0.96489
 20 
0.47188
 30 
0.0
 0 
VERTEX
 8 
1
 10 
0.95241
 20 
0.4685
 30 
0.0
 0 
VERTEX
 8 
1
 10 
0.93815
 20 
0.46545
 30 
0.0
 0 
VERTEX
 8 
1
 10 
0.92216
 20 
0.4628
 30 
0.0
 0 
VERTEX
 8 
1
 10 
0.90451
 20 
0.46067
 30 
0.0
 0 
VERTEX
 8 
1
 10 
0.88526
 20 
0.45915
 30 
0.0
 0 
VERTEX
 8 
1
 10 
0.86448
 20 
0.45814
 30 
0.0
 0 
VERTEX
 8 
1
 10 
0.84227
 20 
0.45745
 30 
0.0
 0 
VERTEX
 8 
1
 10 
0.81871
 20 
0.4575
 30 
0.0
 0 
VERTEX
 8 
1
 10 
0.79389
 20 
0.45782
 30 
0.0
 0 
VERTEX
 8 
1
 10 
0.76791
 20 
0.45861
 30 
0.0
 0 
VERTEX
 8 
1
 10 
0.74088
 20 
0.45984
 30 
0.0
 0 
VERTEX
 8 
1
 10 
0.71289
 20 
0.46147
 30 
0.0
 0 
VERTEX
 8 
1
 10 
0.68406
 20 
0.46344
 30 
0.0
 0 
VERTEX
 8 
1
 10 
0.65451
 20 
0.4657
 30 
0.0
 0 
VERTEX
 8 
1
 10 
0.62434
 20 
0.46818
 30 
0.0
 0 
VERTEX
 8 
1
 10 
0.59369
 20 
0.4708
 30 
0.0
 0 
VERTEX
 8 
1
 10 
0.56267
 20 
0.4735
 30 
0.0
 0 
VERTEX
 8 
1
 10 
0.5314
 20 
0.47621
 30 
0.0
 0 
VERTEX
 8 
1
 10 
0.5
 20 
0.47888
 30 
0.0
 0 
VERTEX
 8 
1
 10 
0.46861
 20 
0.48146
 30 
0.0
 0 
VERTEX
 8 
1
 10 
0.43733
 20 
0.48391
 30 
0.0
 0 
VERTEX
 8 
1
 10 
0.40631
 20 
0.48621
 30 
0.0
 0 
VERTEX
 8 
1
 10 
0.37565
 20 
0.48833
 30 
0.0
 0 
VERTEX
 8 
1
 10 
0.34549
 20 
0.49025
 30 
0.0
 0 
VERTEX
 8 
1
 10 
0.31594
 20 
0.49198
 30 
0.0
 0 
VERTEX
 8 
1
 10 
0.28711
 20 
0.4935
 30 
0.0
 0 
VERTEX
 8 
1
 10 
0.25912
 20 
0.49481
 30 
0.0
 0 
VERTEX
 8 
1
 10 
0.23209
 20 
0.49592
 30 
0.0
 0 
VERTEX
 8 
1
 10 
0.20611
 20 
0.49682
 30 
0.0
 0 
VERTEX
 8 
1
 10 
0.18129
 20 
0.49751
 30 
0.0
 0 
VERTEX
 8 
1
 10 
0.15773
 20 
0.498
 30 
0.0
 0 
VERTEX
 8 
1
 10 
0.13552
 20 
0.49829
 30 
0.0
 0 
VERTEX
 8 
1
 10 
0.11474
 20 
0.4984
 30 
0.0
 0 
VERTEX
 8 
1
 10 
0.09549
 20 
0.49834
 30 
0.0
 0 
VERTEX
 8 
1
 10 
0.07784
 20 
0.49814
 30 
0.0
 0 
VERTEX
 8 
1
 10 
0.06185
 20 
0.4978
 30 
0.0
 0 
VERTEX
 8 
1
 10 
0.04759
 20 
0.49738
 30 
0.0
 0 
VERTEX
 8 
1
 10 
0.03511
 20 
0.49691
 30 
0.0
 0 
VERTEX
 8 
1
 10 
0.02447
 20 
0.49642
 30 
0.0
 0 
VERTEX
 8 
1
 10 
0.01571
 20 
0.49595
 30 
0.0
 0 
VERTEX
 8 
1
 10 
0.0088599
 20 
0.49554
 30 
0.0
 0 
VERTEX
 8 
1
 10 
0.0039400
 20 
0.49523
 30 
0.0
 0 
VERTEX
 8 
1
 10 
0.00099000
 20 
0.49503
 30 
0.0
 0 
VERTEX
 8 
1
 10 
0.0
 20 
0.49496
 30 
0.0
 0 
SEQEND
 8 
1
 0 
ENDSEC
 0 
EOF
