 0 
SECTION
 2 
ENTITIES
 0 
POLYLINE
 8 
1
 66 
 1 
 10 
0.0
 20 
0.0
 30 
0.0
 0 
VERTEX
 8 
1
 10 
0.0
 20 
0.5
 30 
0.0
 0 
VERTEX
 8 
1
 10 
0.02221
 20 
0.50202
 30 
0.0
 0 
VERTEX
 8 
1
 10 
0.04952
 20 
0.50479
 30 
0.0
 0 
VERTEX
 8 
1
 10 
0.08688
 20 
0.50948
 30 
0.0
 0 
VERTEX
 8 
1
 10 
0.13347
 20 
0.51616
 30 
0.0
 0 
VERTEX
 8 
1
 10 
0.18826
 20 
0.5251
 30 
0.0
 0 
VERTEX
 8 
1
 10 
0.25
 20 
0.53707
 30 
0.0
 0 
VERTEX
 8 
1
 10 
0.31733
 20 
0.55047
 30 
0.0
 0 
VERTEX
 8 
1
 10 
0.38874
 20 
0.562
 30 
0.0
 0 
VERTEX
 8 
1
 10 
0.46263
 20 
0.5689
 30 
0.0
 0 
VERTEX
 8 
1
 10 
0.53736
 20 
0.57009
 30 
0.0
 0 
VERTEX
 8 
1
 10 
0.61126
 20 
0.56755
 30 
0.0
 0 
VERTEX
 8 
1
 10 
0.68267
 20 
0.56394
 30 
0.0
 0 
VERTEX
 8 
1
 10 
0.75
 20 
0.5586
 30 
0.0
 0 
VERTEX
 8 
1
 10 
0.81174
 20 
0.55195
 30 
0.0
 0 
VERTEX
 8 
1
 10 
0.86653
 20 
0.54432
 30 
0.0
 0 
VERTEX
 8 
1
 10 
0.91312
 20 
0.53577
 30 
0.0
 0 
VERTEX
 8 
1
 10 
0.95048
 20 
0.5266
 30 
0.0
 0 
VERTEX
 8 
1
 10 
0.97779
 20 
0.51719
 30 
0.0
 0 
VERTEX
 8 
1
 10 
0.99442
 20 
0.50809
 30 
0.0
 0 
VERTEX
 8 
1
 10 
1
 20 
0.5
 30 
0.0
 0 
VERTEX
 8 
1
 10 
0.99442
 20 
0.49276
 30 
0.0
 0 
VERTEX
 8 
1
 10 
0.97779
 20 
0.48582
 30 
0.0
 0 
VERTEX
 8 
1
 10 
0.95048
 20 
0.4801
 30 
0.0
 0 
VERTEX
 8 
1
 10 
0.91312
 20 
0.4747
 30 
0.0
 0 
VERTEX
 8 
1
 10 
0.86653
 20 
0.46947
 30 
0.0
 0 
VERTEX
 8 
1
 10 
0.81174
 20 
0.46498
 30 
0.0
 0 
VERTEX
 8 
1
 10 
0.75
 20 
0.46148
 30 
0.0
 0 
VERTEX
 8 
1
 10 
0.68267
 20 
0.45856
 30 
0.0
 0 
VERTEX
 8 
1
 10 
0.61126
 20 
0.45707
 30 
0.0
 0 
VERTEX
 8 
1
 10 
0.53736
 20 
0.45591
 30 
0.0
 0 
VERTEX
 8 
1
 10 
0.46263
 20 
0.45646
 30 
0.0
 0 
VERTEX
 8 
1
 10 
0.38874
 20 
0.46102
 30 
0.0
 0 
VERTEX
 8 
1
 10 
0.31733
 20 
0.46984
 30 
0.0
 0 
VERTEX
 8 
1
 10 
0.25
 20 
0.47943
 30 
0.0
 0 
VERTEX
 8 
1
 10 
0.18826
 20 
0.48767
 30 
0.0
 0 
VERTEX
 8 
1
 10 
0.13347
 20 
0.49367
 30 
0.0
 0 
VERTEX
 8 
1
 10 
0.08688
 20 
0.49704
 30 
0.0
 0 
VERTEX
 8 
1
 10 
0.04952
 20 
0.49856
 30 
0.0
 0 
VERTEX
 8 
1
 10 
0.02221
 20 
0.49939
 30 
0.0
 0 
VERTEX
 8 
1
 10 
0.0
 20 
0.5
 30 
0.0
 0 
SEQEND
 8 
1
 0 
ENDSEC
 0 
EOF
