 0 
SECTION
 2 
ENTITIES
 0 
POLYLINE
 8 
1
 66 
 1 
 10 
0.0
 20 
0.0
 30 
0.0
 0 
VERTEX
 8 
1
 10 
0.0
 20 
0.5
 30 
0.0
 0 
VERTEX
 8 
1
 10 
0.0099900
 20 
0.50081
 30 
0.0
 0 
VERTEX
 8 
1
 10 
0.01497
 20 
0.50139
 30 
0.0
 0 
VERTEX
 8 
1
 10 
0.02494
 20 
0.50281
 30 
0.0
 0 
VERTEX
 8 
1
 10 
0.04982
 20 
0.50726
 30 
0.0
 0 
VERTEX
 8 
1
 10 
0.074659
 20 
0.51256
 30 
0.0
 0 
VERTEX
 8 
1
 10 
0.09948
 20 
0.51838
 30 
0.0
 0 
VERTEX
 8 
1
 10 
0.12428
 20 
0.52451
 30 
0.0
 0 
VERTEX
 8 
1
 10 
0.14909
 20 
0.53081
 30 
0.0
 0 
VERTEX
 8 
1
 10 
0.1739
 20 
0.53719
 30 
0.0
 0 
VERTEX
 8 
1
 10 
0.19872
 20 
0.54359
 30 
0.0
 0 
VERTEX
 8 
1
 10 
0.22356
 20 
0.54988
 30 
0.0
 0 
VERTEX
 8 
1
 10 
0.24843
 20 
0.55598
 30 
0.0
 0 
VERTEX
 8 
1
 10 
0.27334
 20 
0.5618
 30 
0.0
 0 
VERTEX
 8 
1
 10 
0.29829
 20 
0.56731
 30 
0.0
 0 
VERTEX
 8 
1
 10 
0.32328
 20 
0.57248
 30 
0.0
 0 
VERTEX
 8 
1
 10 
0.34834
 20 
0.57717
 30 
0.0
 0 
VERTEX
 8 
1
 10 
0.37348
 20 
0.58116
 30 
0.0
 0 
VERTEX
 8 
1
 10 
0.39878
 20 
0.58428
 30 
0.0
 0 
VERTEX
 8 
1
 10 
0.42411
 20 
0.58659
 30 
0.0
 0 
VERTEX
 8 
1
 10 
0.44936
 20 
0.58828
 30 
0.0
 0 
VERTEX
 8 
1
 10 
0.47459
 20 
0.58949
 30 
0.0
 0 
VERTEX
 8 
1
 10 
0.4998
 20 
0.59029
 30 
0.0
 0 
VERTEX
 8 
1
 10 
0.525
 20 
0.59071
 30 
0.0
 0 
VERTEX
 8 
1
 10 
0.5502
 20 
0.59076
 30 
0.0
 0 
VERTEX
 8 
1
 10 
0.57538
 20 
0.59046
 30 
0.0
 0 
VERTEX
 8 
1
 10 
0.60056
 20 
0.5898
 30 
0.0
 0 
VERTEX
 8 
1
 10 
0.62573
 20 
0.5888
 30 
0.0
 0 
VERTEX
 8 
1
 10 
0.6509
 20 
0.58746
 30 
0.0
 0 
VERTEX
 8 
1
 10 
0.67606
 20 
0.58576
 30 
0.0
 0 
VERTEX
 8 
1
 10 
0.70121
 20 
0.58371
 30 
0.0
 0 
VERTEX
 8 
1
 10 
0.72635
 20 
0.58129
 30 
0.0
 0 
VERTEX
 8 
1
 10 
0.75148
 20 
0.57847
 30 
0.0
 0 
VERTEX
 8 
1
 10 
0.77659
 20 
0.57524
 30 
0.0
 0 
VERTEX
 8 
1
 10 
0.8017
 20 
0.57157
 30 
0.0
 0 
VERTEX
 8 
1
 10 
0.82679
 20 
0.56741
 30 
0.0
 0 
VERTEX
 8 
1
 10 
0.85186
 20 
0.56268
 30 
0.0
 0 
VERTEX
 8 
1
 10 
0.87691
 20 
0.55729
 30 
0.0
 0 
VERTEX
 8 
1
 10 
0.90192
 20 
0.55114
 30 
0.0
 0 
VERTEX
 8 
1
 10 
0.92689
 20 
0.54407
 30 
0.0
 0 
VERTEX
 8 
1
 10 
0.9518
 20 
0.53567
 30 
0.0
 0 
VERTEX
 8 
1
 10 
0.97659
 20 
0.52516
 30 
0.0
 0 
VERTEX
 8 
1
 10 
0.98153
 20 
0.52269
 30 
0.0
 0 
VERTEX
 8 
1
 10 
0.9881
 20 
0.51837
 30 
0.0
 0 
VERTEX
 8 
1
 10 
0.99134
 20 
0.51662
 30 
0.0
 0 
VERTEX
 8 
1
 10 
0.99376
 20 
0.51456
 30 
0.0
 0 
VERTEX
 8 
1
 10 
0.99613
 20 
0.51204
 30 
0.0
 0 
VERTEX
 8 
1
 10 
0.99832
 20 
0.5086
 30 
0.0
 0 
VERTEX
 8 
1
 10 
1
 20 
0.5
 30 
0.0
 0 
VERTEX
 8 
1
 10 
0.99668
 20 
0.49204
 30 
0.0
 0 
VERTEX
 8 
1
 10 
0.99387
 20 
0.48913
 30 
0.0
 0 
VERTEX
 8 
1
 10 
0.99124
 20 
0.48708
 30 
0.0
 0 
VERTEX
 8 
1
 10 
0.98866
 20 
0.48547
 30 
0.0
 0 
VERTEX
 8 
1
 10 
0.98609
 20 
0.48413
 30 
0.0
 0 
VERTEX
 8 
1
 10 
0.97847
 20 
0.48098
 30 
0.0
 0 
VERTEX
 8 
1
 10 
0.97341
 20 
0.47922
 30 
0.0
 0 
VERTEX
 8 
1
 10 
0.9482
 20 
0.47182
 30 
0.0
 0 
VERTEX
 8 
1
 10 
0.92311
 20 
0.46603
 30 
0.0
 0 
VERTEX
 8 
1
 10 
0.89808
 20 
0.46123
 30 
0.0
 0 
VERTEX
 8 
1
 10 
0.87309
 20 
0.45705
 30 
0.0
 0 
VERTEX
 8 
1
 10 
0.84814
 20 
0.45351
 30 
0.0
 0 
VERTEX
 8 
1
 10 
0.82321
 20 
0.4504
 30 
0.0
 0 
VERTEX
 8 
1
 10 
0.7983
 20 
0.44769
 30 
0.0
 0 
VERTEX
 8 
1
 10 
0.77341
 20 
0.44531
 30 
0.0
 0 
VERTEX
 8 
1
 10 
0.74852
 20 
0.44324
 30 
0.0
 0 
VERTEX
 8 
1
 10 
0.72365
 20 
0.44145
 30 
0.0
 0 
VERTEX
 8 
1
 10 
0.69879
 20 
0.43993
 30 
0.0
 0 
VERTEX
 8 
1
 10 
0.67394
 20 
0.43865
 30 
0.0
 0 
VERTEX
 8 
1
 10 
0.6491
 20 
0.43762
 30 
0.0
 0 
VERTEX
 8 
1
 10 
0.62427
 20 
0.43681
 30 
0.0
 0 
VERTEX
 8 
1
 10 
0.59944
 20 
0.43624
 30 
0.0
 0 
VERTEX
 8 
1
 10 
0.57462
 20 
0.43589
 30 
0.0
 0 
VERTEX
 8 
1
 10 
0.5498
 20 
0.43577
 30 
0.0
 0 
VERTEX
 8 
1
 10 
0.525
 20 
0.43589
 30 
0.0
 0 
VERTEX
 8 
1
 10 
0.5002
 20 
0.43624
 30 
0.0
 0 
VERTEX
 8 
1
 10 
0.47541
 20 
0.43685
 30 
0.0
 0 
VERTEX
 8 
1
 10 
0.45064
 20 
0.43772
 30 
0.0
 0 
VERTEX
 8 
1
 10 
0.42589
 20 
0.43882
 30 
0.0
 0 
VERTEX
 8 
1
 10 
0.40122
 20 
0.44048
 30 
0.0
 0 
VERTEX
 8 
1
 10 
0.37652
 20 
0.44262
 30 
0.0
 0 
VERTEX
 8 
1
 10 
0.35166
 20 
0.44543
 30 
0.0
 0 
VERTEX
 8 
1
 10 
0.32672
 20 
0.44878
 30 
0.0
 0 
VERTEX
 8 
1
 10 
0.30171
 20 
0.45251
 30 
0.0
 0 
VERTEX
 8 
1
 10 
0.27666
 20 
0.45648
 30 
0.0
 0 
VERTEX
 8 
1
 10 
0.25157
 20 
0.46063
 30 
0.0
 0 
VERTEX
 8 
1
 10 
0.22644
 20 
0.46512
 30 
0.0
 0 
VERTEX
 8 
1
 10 
0.20128
 20 
0.4697
 30 
0.0
 0 
VERTEX
 8 
1
 10 
0.1761
 20 
0.47435
 30 
0.0
 0 
VERTEX
 8 
1
 10 
0.15091
 20 
0.47898
 30 
0.0
 0 
VERTEX
 8 
1
 10 
0.12572
 20 
0.48353
 30 
0.0
 0 
VERTEX
 8 
1
 10 
0.10052
 20 
0.48792
 30 
0.0
 0 
VERTEX
 8 
1
 10 
0.07534
 20 
0.49205
 30 
0.0
 0 
VERTEX
 8 
1
 10 
0.05019
 20 
0.49571
 30 
0.0
 0 
VERTEX
 8 
1
 10 
0.02506
 20 
0.49861
 30 
0.0
 0 
VERTEX
 8 
1
 10 
0.01503
 20 
0.49944
 30 
0.0
 0 
VERTEX
 8 
1
 10 
0.01001
 20 
0.49974
 30 
0.0
 0 
VERTEX
 8 
1
 10 
0.0
 20 
0.5
 30 
0.0
 0 
SEQEND
 8 
1
 0 
ENDSEC
 0 
EOF
