 0 
SECTION
 2 
ENTITIES
 0 
POLYLINE
 8 
1
 66 
 1 
 10 
0.0
 20 
0.0
 30 
0.0
 0 
VERTEX
 8 
1
 10 
1
 20 
0.5
 30 
0.0
 0 
VERTEX
 8 
1
 10 
0.995
 20 
0.50756
 30 
0.0
 0 
VERTEX
 8 
1
 10 
0.9925
 20 
0.50911
 30 
0.0
 0 
VERTEX
 8 
1
 10 
0.9875
 20 
0.51158
 30 
0.0
 0 
VERTEX
 8 
1
 10 
0.975
 20 
0.51623
 30 
0.0
 0 
VERTEX
 8 
1
 10 
0.95
 20 
0.5229
 30 
0.0
 0 
VERTEX
 8 
1
 10 
0.925
 20 
0.52804
 30 
0.0
 0 
VERTEX
 8 
1
 10 
0.9
 20 
0.53234
 30 
0.0
 0 
VERTEX
 8 
1
 10 
0.85
 20 
0.53918
 30 
0.0
 0 
VERTEX
 8 
1
 10 
0.8
 20 
0.54441
 30 
0.0
 0 
VERTEX
 8 
1
 10 
0.75
 20 
0.54833
 30 
0.0
 0 
VERTEX
 8 
1
 10 
0.7
 20 
0.55117
 30 
0.0
 0 
VERTEX
 8 
1
 10 
0.65
 20 
0.55299
 30 
0.0
 0 
VERTEX
 8 
1
 10 
0.6
 20 
0.55375
 30 
0.0
 0 
VERTEX
 8 
1
 10 
0.55
 20 
0.55327
 30 
0.0
 0 
VERTEX
 8 
1
 10 
0.5
 20 
0.55171
 30 
0.0
 0 
VERTEX
 8 
1
 10 
0.45
 20 
0.54925
 30 
0.0
 0 
VERTEX
 8 
1
 10 
0.4
 20 
0.546
 30 
0.0
 0 
VERTEX
 8 
1
 10 
0.35
 20 
0.54207
 30 
0.0
 0 
VERTEX
 8 
1
 10 
0.3
 20 
0.53751
 30 
0.0
 0 
VERTEX
 8 
1
 10 
0.25
 20 
0.53244
 30 
0.0
 0 
VERTEX
 8 
1
 10 
0.2
 20 
0.52694
 30 
0.0
 0 
VERTEX
 8 
1
 10 
0.15
 20 
0.52075
 30 
0.0
 0 
VERTEX
 8 
1
 10 
0.1
 20 
0.51437
 30 
0.0
 0 
VERTEX
 8 
1
 10 
0.05
 20 
0.50784
 30 
0.0
 0 
VERTEX
 8 
1
 10 
0.0
 20 
0.50131
 30 
0.0
 0 
VERTEX
 8 
1
 10 
1
 20 
0.5
 30 
0.0
 0 
VERTEX
 8 
1
 10 
0.995
 20 
0.4943
 30 
0.0
 0 
VERTEX
 8 
1
 10 
0.9925
 20 
0.49316
 30 
0.0
 0 
VERTEX
 8 
1
 10 
0.9875
 20 
0.49143
 30 
0.0
 0 
VERTEX
 8 
1
 10 
0.975
 20 
0.48848
 30 
0.0
 0 
VERTEX
 8 
1
 10 
0.95
 20 
0.48468
 30 
0.0
 0 
VERTEX
 8 
1
 10 
0.925
 20 
0.48199
 30 
0.0
 0 
VERTEX
 8 
1
 10 
0.9
 20 
0.47984
 30 
0.0
 0 
VERTEX
 8 
1
 10 
0.85
 20 
0.47661
 30 
0.0
 0 
VERTEX
 8 
1
 10 
0.8
 20 
0.47432
 30 
0.0
 0 
VERTEX
 8 
1
 10 
0.75
 20 
0.47277
 30 
0.0
 0 
VERTEX
 8 
1
 10 
0.7
 20 
0.47184
 30 
0.0
 0 
VERTEX
 8 
1
 10 
0.65
 20 
0.47151
 30 
0.0
 0 
VERTEX
 8 
1
 10 
0.6
 20 
0.47182
 30 
0.0
 0 
VERTEX
 8 
1
 10 
0.55
 20 
0.47301
 30 
0.0
 0 
VERTEX
 8 
1
 10 
0.5
 20 
0.47489
 30 
0.0
 0 
VERTEX
 8 
1
 10 
0.45
 20 
0.47729
 30 
0.0
 0 
VERTEX
 8 
1
 10 
0.4
 20 
0.48006
 30 
0.0
 0 
VERTEX
 8 
1
 10 
0.35
 20 
0.48308
 30 
0.0
 0 
VERTEX
 8 
1
 10 
0.3
 20 
0.48622
 30 
0.0
 0 
VERTEX
 8 
1
 10 
0.25
 20 
0.48925
 30 
0.0
 0 
VERTEX
 8 
1
 10 
0.2
 20 
0.49186
 30 
0.0
 0 
VERTEX
 8 
1
 10 
0.15
 20 
0.49378
 30 
0.0
 0 
VERTEX
 8 
1
 10 
0.1
 20 
0.49552
 30 
0.0
 0 
VERTEX
 8 
1
 10 
0.05
 20 
0.49711
 30 
0.0
 0 
VERTEX
 8 
1
 10 
0.0
 20 
0.4987
 30 
0.0
 0 
SEQEND
 8 
1
 0 
ENDSEC
 0 
EOF
