 0 
SECTION
 2 
ENTITIES
 0 
POLYLINE
 8 
1
 66 
 1 
 10 
0.0
 20 
0.0
 30 
0.0
 0 
VERTEX
 8 
1
 10 
0.0
 20 
0.50095
 30 
0.0
 0 
VERTEX
 8 
1
 10 
0.0024600
 20 
0.50124
 30 
0.0
 0 
VERTEX
 8 
1
 10 
0.0092999
 20 
0.50189
 30 
0.0
 0 
VERTEX
 8 
1
 10 
0.01963
 20 
0.50258
 30 
0.0
 0 
VERTEX
 8 
1
 10 
0.03302
 20 
0.50325
 30 
0.0
 0 
VERTEX
 8 
1
 10 
0.04956
 20 
0.504
 30 
0.0
 0 
VERTEX
 8 
1
 10 
0.06936
 20 
0.50497
 30 
0.0
 0 
VERTEX
 8 
1
 10 
0.092250
 20 
0.50627
 30 
0.0
 0 
VERTEX
 8 
1
 10 
0.11798
 20 
0.50795
 30 
0.0
 0 
VERTEX
 8 
1
 10 
0.1463
 20 
0.51006
 30 
0.0
 0 
VERTEX
 8 
1
 10 
0.17691
 20 
0.5126
 30 
0.0
 0 
VERTEX
 8 
1
 10 
0.20952
 20 
0.51556
 30 
0.0
 0 
VERTEX
 8 
1
 10 
0.24384
 20 
0.51891
 30 
0.0
 0 
VERTEX
 8 
1
 10 
0.27957
 20 
0.52258
 30 
0.0
 0 
VERTEX
 8 
1
 10 
0.31641
 20 
0.5265
 30 
0.0
 0 
VERTEX
 8 
1
 10 
0.35406
 20 
0.53058
 30 
0.0
 0 
VERTEX
 8 
1
 10 
0.39222
 20 
0.53476
 30 
0.0
 0 
VERTEX
 8 
1
 10 
0.43063
 20 
0.53892
 30 
0.0
 0 
VERTEX
 8 
1
 10 
0.46901
 20 
0.54301
 30 
0.0
 0 
VERTEX
 8 
1
 10 
0.50735
 20 
0.54694
 30 
0.0
 0 
VERTEX
 8 
1
 10 
0.54565
 20 
0.55065
 30 
0.0
 0 
VERTEX
 8 
1
 10 
0.58362
 20 
0.55406
 30 
0.0
 0 
VERTEX
 8 
1
 10 
0.62113
 20 
0.55707
 30 
0.0
 0 
VERTEX
 8 
1
 10 
0.65796
 20 
0.55959
 30 
0.0
 0 
VERTEX
 8 
1
 10 
0.69391
 20 
0.56151
 30 
0.0
 0 
VERTEX
 8 
1
 10 
0.7288
 20 
0.56271
 30 
0.0
 0 
VERTEX
 8 
1
 10 
0.7624
 20 
0.56305
 30 
0.0
 0 
VERTEX
 8 
1
 10 
0.79451
 20 
0.56237
 30 
0.0
 0 
VERTEX
 8 
1
 10 
0.82496
 20 
0.56049
 30 
0.0
 0 
VERTEX
 8 
1
 10 
0.85352
 20 
0.55731
 30 
0.0
 0 
VERTEX
 8 
1
 10 
0.88001
 20 
0.55288
 30 
0.0
 0 
VERTEX
 8 
1
 10 
0.90424
 20 
0.54739
 30 
0.0
 0 
VERTEX
 8 
1
 10 
0.92605
 20 
0.54101
 30 
0.0
 0 
VERTEX
 8 
1
 10 
0.94532
 20 
0.53407
 30 
0.0
 0 
VERTEX
 8 
1
 10 
0.96189
 20 
0.52717
 30 
0.0
 0 
VERTEX
 8 
1
 10 
0.97567
 20 
0.52075
 30 
0.0
 0 
VERTEX
 8 
1
 10 
0.98662
 20 
0.51476
 30 
0.0
 0 
VERTEX
 8 
1
 10 
0.99452
 20 
0.50905
 30 
0.0
 0 
VERTEX
 8 
1
 10 
0.99902
 20 
0.50359
 30 
0.0
 0 
VERTEX
 8 
1
 10 
1
 20 
0.49989
 30 
0.0
 0 
VERTEX
 8 
1
 10 
0.99902
 20 
0.49657
 30 
0.0
 0 
VERTEX
 8 
1
 10 
0.99452
 20 
0.49287
 30 
0.0
 0 
VERTEX
 8 
1
 10 
0.98662
 20 
0.49041
 30 
0.0
 0 
VERTEX
 8 
1
 10 
0.97567
 20 
0.48911
 30 
0.0
 0 
VERTEX
 8 
1
 10 
0.96189
 20 
0.48849
 30 
0.0
 0 
VERTEX
 8 
1
 10 
0.94532
 20 
0.48802
 30 
0.0
 0 
VERTEX
 8 
1
 10 
0.92605
 20 
0.48751
 30 
0.0
 0 
VERTEX
 8 
1
 10 
0.90424
 20 
0.48682
 30 
0.0
 0 
VERTEX
 8 
1
 10 
0.88001
 20 
0.48577
 30 
0.0
 0 
VERTEX
 8 
1
 10 
0.85352
 20 
0.4842
 30 
0.0
 0 
VERTEX
 8 
1
 10 
0.82496
 20 
0.482
 30 
0.0
 0 
VERTEX
 8 
1
 10 
0.79451
 20 
0.47927
 30 
0.0
 0 
VERTEX
 8 
1
 10 
0.7624
 20 
0.47625
 30 
0.0
 0 
VERTEX
 8 
1
 10 
0.7288
 20 
0.47317
 30 
0.0
 0 
VERTEX
 8 
1
 10 
0.69391
 20 
0.47023
 30 
0.0
 0 
VERTEX
 8 
1
 10 
0.65796
 20 
0.46765
 30 
0.0
 0 
VERTEX
 8 
1
 10 
0.62113
 20 
0.4656
 30 
0.0
 0 
VERTEX
 8 
1
 10 
0.58362
 20 
0.46424
 30 
0.0
 0 
VERTEX
 8 
1
 10 
0.54565
 20 
0.46368
 30 
0.0
 0 
VERTEX
 8 
1
 10 
0.50735
 20 
0.4639
 30 
0.0
 0 
VERTEX
 8 
1
 10 
0.46901
 20 
0.46486
 30 
0.0
 0 
VERTEX
 8 
1
 10 
0.43063
 20 
0.46645
 30 
0.0
 0 
VERTEX
 8 
1
 10 
0.39222
 20 
0.46862
 30 
0.0
 0 
VERTEX
 8 
1
 10 
0.35406
 20 
0.47128
 30 
0.0
 0 
VERTEX
 8 
1
 10 
0.31641
 20 
0.4743
 30 
0.0
 0 
VERTEX
 8 
1
 10 
0.27957
 20 
0.47758
 30 
0.0
 0 
VERTEX
 8 
1
 10 
0.24384
 20 
0.48097
 30 
0.0
 0 
VERTEX
 8 
1
 10 
0.20952
 20 
0.48433
 30 
0.0
 0 
VERTEX
 8 
1
 10 
0.17691
 20 
0.48749
 30 
0.0
 0 
VERTEX
 8 
1
 10 
0.1463
 20 
0.49031
 30 
0.0
 0 
VERTEX
 8 
1
 10 
0.11798
 20 
0.49271
 30 
0.0
 0 
VERTEX
 8 
1
 10 
0.092250
 20 
0.49464
 30 
0.0
 0 
VERTEX
 8 
1
 10 
0.06936
 20 
0.4961
 30 
0.0
 0 
VERTEX
 8 
1
 10 
0.04956
 20 
0.49703
 30 
0.0
 0 
VERTEX
 8 
1
 10 
0.03302
 20 
0.49745
 30 
0.0
 0 
VERTEX
 8 
1
 10 
0.01963
 20 
0.49768
 30 
0.0
 0 
VERTEX
 8 
1
 10 
0.0092999
 20 
0.49808
 30 
0.0
 0 
VERTEX
 8 
1
 10 
0.0024600
 20 
0.49866
 30 
0.0
 0 
VERTEX
 8 
1
 10 
0.0
 20 
0.49897
 30 
0.0
 0 
SEQEND
 8 
1
 0 
ENDSEC
 0 
EOF
