 0 
SECTION
 2 
ENTITIES
 0 
POLYLINE
 8 
1
 66 
 1 
 10 
0.0
 20 
0.0
 30 
0.0
 0 
VERTEX
 8 
1
 10 
0.0
 20 
0.5
 30 
0.0
 0 
VERTEX
 8 
1
 10 
0.02759
 20 
0.50414
 30 
0.0
 0 
VERTEX
 8 
1
 10 
0.05518
 20 
0.5076
 30 
0.0
 0 
VERTEX
 8 
1
 10 
0.08174
 20 
0.51182
 30 
0.0
 0 
VERTEX
 8 
1
 10 
0.11035
 20 
0.51565
 30 
0.0
 0 
VERTEX
 8 
1
 10 
0.13794
 20 
0.52015
 30 
0.0
 0 
VERTEX
 8 
1
 10 
0.16552
 20 
0.52416
 30 
0.0
 0 
VERTEX
 8 
1
 10 
0.19311
 20 
0.52709
 30 
0.0
 0 
VERTEX
 8 
1
 10 
0.22069
 20 
0.5314
 30 
0.0
 0 
VERTEX
 8 
1
 10 
0.24828
 20 
0.53485
 30 
0.0
 0 
VERTEX
 8 
1
 10 
0.27587
 20 
0.53795
 30 
0.0
 0 
VERTEX
 8 
1
 10 
0.30304
 20 
0.5413
 30 
0.0
 0 
VERTEX
 8 
1
 10 
0.33043
 20 
0.54435
 30 
0.0
 0 
VERTEX
 8 
1
 10 
0.35826
 20 
0.54761
 30 
0.0
 0 
VERTEX
 8 
1
 10 
0.38609
 20 
0.55075
 30 
0.0
 0 
VERTEX
 8 
1
 10 
0.41217
 20 
0.55308
 30 
0.0
 0 
VERTEX
 8 
1
 10 
0.43826
 20 
0.55565
 30 
0.0
 0 
VERTEX
 8 
1
 10 
0.46696
 20 
0.55826
 30 
0.0
 0 
VERTEX
 8 
1
 10 
0.49565
 20 
0.5607
 30 
0.0
 0 
VERTEX
 8 
1
 10 
0.52087
 20 
0.56174
 30 
0.0
 0 
VERTEX
 8 
1
 10 
0.54783
 20 
0.56313
 30 
0.0
 0 
VERTEX
 8 
1
 10 
0.57739
 20 
0.56456
 30 
0.0
 0 
VERTEX
 8 
1
 10 
0.60696
 20 
0.56428
 30 
0.0
 0 
VERTEX
 8 
1
 10 
0.63304
 20 
0.5645
 30 
0.0
 0 
VERTEX
 8 
1
 10 
0.65913
 20 
0.56378
 30 
0.0
 0 
VERTEX
 8 
1
 10 
0.68965
 20 
0.56266
 30 
0.0
 0 
VERTEX
 8 
1
 10 
0.71725
 20 
0.56067
 30 
0.0
 0 
VERTEX
 8 
1
 10 
0.74483
 20 
0.5588
 30 
0.0
 0 
VERTEX
 8 
1
 10 
0.77241
 20 
0.55659
 30 
0.0
 0 
VERTEX
 8 
1
 10 
0.8
 20 
0.55328
 30 
0.0
 0 
VERTEX
 8 
1
 10 
0.82217
 20 
0.55087
 30 
0.0
 0 
VERTEX
 8 
1
 10 
0.83913
 20 
0.5487
 30 
0.0
 0 
VERTEX
 8 
1
 10 
0.85565
 20 
0.54613
 30 
0.0
 0 
VERTEX
 8 
1
 10 
0.86897
 20 
0.54334
 30 
0.0
 0 
VERTEX
 8 
1
 10 
0.88276
 20 
0.54072
 30 
0.0
 0 
VERTEX
 8 
1
 10 
0.89655
 20 
0.5383
 30 
0.0
 0 
VERTEX
 8 
1
 10 
0.91035
 20 
0.53512
 30 
0.0
 0 
VERTEX
 8 
1
 10 
0.92414
 20 
0.53224
 30 
0.0
 0 
VERTEX
 8 
1
 10 
0.93793
 20 
0.52899
 30 
0.0
 0 
VERTEX
 8 
1
 10 
0.95174
 20 
0.52512
 30 
0.0
 0 
VERTEX
 8 
1
 10 
0.96552
 20 
0.52098
 30 
0.0
 0 
VERTEX
 8 
1
 10 
0.97241
 20 
0.51835
 30 
0.0
 0 
VERTEX
 8 
1
 10 
0.97931
 20 
0.51546
 30 
0.0
 0 
VERTEX
 8 
1
 10 
0.98621
 20 
0.51208
 30 
0.0
 0 
VERTEX
 8 
1
 10 
0.9931
 20 
0.5076
 30 
0.0
 0 
VERTEX
 8 
1
 10 
0.99652
 20 
0.50414
 30 
0.0
 0 
VERTEX
 8 
1
 10 
1
 20 
0.5
 30 
0.0
 0 
VERTEX
 8 
1
 10 
0.99652
 20 
0.49585
 30 
0.0
 0 
VERTEX
 8 
1
 10 
0.9931
 20 
0.4924
 30 
0.0
 0 
VERTEX
 8 
1
 10 
0.98621
 20 
0.4884
 30 
0.0
 0 
VERTEX
 8 
1
 10 
0.97931
 20 
0.48509
 30 
0.0
 0 
VERTEX
 8 
1
 10 
0.97241
 20 
0.48247
 30 
0.0
 0 
VERTEX
 8 
1
 10 
0.96552
 20 
0.48067
 30 
0.0
 0 
VERTEX
 8 
1
 10 
0.95174
 20 
0.47722
 30 
0.0
 0 
VERTEX
 8 
1
 10 
0.93739
 20 
0.47391
 30 
0.0
 0 
VERTEX
 8 
1
 10 
0.92348
 20 
0.47043
 30 
0.0
 0 
VERTEX
 8 
1
 10 
0.90957
 20 
0.46869
 30 
0.0
 0 
VERTEX
 8 
1
 10 
0.89652
 20 
0.46609
 30 
0.0
 0 
VERTEX
 8 
1
 10 
0.88261
 20 
0.46435
 30 
0.0
 0 
VERTEX
 8 
1
 10 
0.86696
 20 
0.46174
 30 
0.0
 0 
VERTEX
 8 
1
 10 
0.85304
 20 
0.46
 30 
0.0
 0 
VERTEX
 8 
1
 10 
0.83826
 20 
0.45826
 30 
0.0
 0 
VERTEX
 8 
1
 10 
0.82304
 20 
0.45696
 30 
0.0
 0 
VERTEX
 8 
1
 10 
0.8
 20 
0.4543
 30 
0.0
 0 
VERTEX
 8 
1
 10 
0.77241
 20 
0.45155
 30 
0.0
 0 
VERTEX
 8 
1
 10 
0.74483
 20 
0.44893
 30 
0.0
 0 
VERTEX
 8 
1
 10 
0.71478
 20 
0.44696
 30 
0.0
 0 
VERTEX
 8 
1
 10 
0.68965
 20 
0.44603
 30 
0.0
 0 
VERTEX
 8 
1
 10 
0.66207
 20 
0.44502
 30 
0.0
 0 
VERTEX
 8 
1
 10 
0.63448
 20 
0.44471
 30 
0.0
 0 
VERTEX
 8 
1
 10 
0.6069
 20 
0.44428
 30 
0.0
 0 
VERTEX
 8 
1
 10 
0.57932
 20 
0.44474
 30 
0.0
 0 
VERTEX
 8 
1
 10 
0.55173
 20 
0.44529
 30 
0.0
 0 
VERTEX
 8 
1
 10 
0.52414
 20 
0.44616
 30 
0.0
 0 
VERTEX
 8 
1
 10 
0.49656
 20 
0.44745
 30 
0.0
 0 
VERTEX
 8 
1
 10 
0.46957
 20 
0.4487
 30 
0.0
 0 
VERTEX
 8 
1
 10 
0.44138
 20 
0.45064
 30 
0.0
 0 
VERTEX
 8 
1
 10 
0.41379
 20 
0.45305
 30 
0.0
 0 
VERTEX
 8 
1
 10 
0.38621
 20 
0.45546
 30 
0.0
 0 
VERTEX
 8 
1
 10 
0.3587
 20 
0.45826
 30 
0.0
 0 
VERTEX
 8 
1
 10 
0.33087
 20 
0.46087
 30 
0.0
 0 
VERTEX
 8 
1
 10 
0.30345
 20 
0.46332
 30 
0.0
 0 
VERTEX
 8 
1
 10 
0.27569
 20 
0.46549
 30 
0.0
 0 
VERTEX
 8 
1
 10 
0.24828
 20 
0.46866
 30 
0.0
 0 
VERTEX
 8 
1
 10 
0.22069
 20 
0.47169
 30 
0.0
 0 
VERTEX
 8 
1
 10 
0.1913
 20 
0.47565
 30 
0.0
 0 
VERTEX
 8 
1
 10 
0.16552
 20 
0.47861
 30 
0.0
 0 
VERTEX
 8 
1
 10 
0.13794
 20 
0.48219
 30 
0.0
 0 
VERTEX
 8 
1
 10 
0.1113
 20 
0.4853
 30 
0.0
 0 
VERTEX
 8 
1
 10 
0.082759
 20 
0.48872
 30 
0.0
 0 
VERTEX
 8 
1
 10 
0.05518
 20 
0.4924
 30 
0.0
 0 
VERTEX
 8 
1
 10 
0.02759
 20 
0.49585
 30 
0.0
 0 
VERTEX
 8 
1
 10 
0.0
 20 
0.5
 30 
0.0
 0 
SEQEND
 8 
1
 0 
ENDSEC
 0 
EOF
