 0 
SECTION
 2 
ENTITIES
 0 
POLYLINE
 8 
1
 66 
 1 
 10 
0.0
 20 
0.0
 30 
0.0
 0 
VERTEX
 8 
1
 10 
0.0
 20 
0.5
 30 
0.0
 0 
VERTEX
 8 
1
 10 
0.00060000
 20 
0.50013
 30 
0.0
 0 
VERTEX
 8 
1
 10 
0.0024100
 20 
0.50051
 30 
0.0
 0 
VERTEX
 8 
1
 10 
0.0054100
 20 
0.50114
 30 
0.0
 0 
VERTEX
 8 
1
 10 
0.0096100
 20 
0.502
 30 
0.0
 0 
VERTEX
 8 
1
 10 
0.01498
 20 
0.50309
 30 
0.0
 0 
VERTEX
 8 
1
 10 
0.02153
 20 
0.5044
 30 
0.0
 0 
VERTEX
 8 
1
 10 
0.02923
 20 
0.50592
 30 
0.0
 0 
VERTEX
 8 
1
 10 
0.03806
 20 
0.50762
 30 
0.0
 0 
VERTEX
 8 
1
 10 
0.048
 20 
0.50951
 30 
0.0
 0 
VERTEX
 8 
1
 10 
0.05904
 20 
0.51156
 30 
0.0
 0 
VERTEX
 8 
1
 10 
0.07114
 20 
0.51377
 30 
0.0
 0 
VERTEX
 8 
1
 10 
0.08427
 20 
0.51611
 30 
0.0
 0 
VERTEX
 8 
1
 10 
0.0984
 20 
0.51858
 30 
0.0
 0 
VERTEX
 8 
1
 10 
0.1135
 20 
0.52115
 30 
0.0
 0 
VERTEX
 8 
1
 10 
0.12952
 20 
0.52382
 30 
0.0
 0 
VERTEX
 8 
1
 10 
0.14645
 20 
0.52655
 30 
0.0
 0 
VERTEX
 8 
1
 10 
0.16422
 20 
0.52935
 30 
0.0
 0 
VERTEX
 8 
1
 10 
0.1828
 20 
0.53218
 30 
0.0
 0 
VERTEX
 8 
1
 10 
0.20215
 20 
0.53502
 30 
0.0
 0 
VERTEX
 8 
1
 10 
0.22222
 20 
0.53785
 30 
0.0
 0 
VERTEX
 8 
1
 10 
0.24295
 20 
0.54064
 30 
0.0
 0 
VERTEX
 8 
1
 10 
0.2643
 20 
0.54338
 30 
0.0
 0 
VERTEX
 8 
1
 10 
0.28622
 20 
0.54603
 30 
0.0
 0 
VERTEX
 8 
1
 10 
0.30866
 20 
0.54858
 30 
0.0
 0 
VERTEX
 8 
1
 10 
0.33156
 20 
0.55099
 30 
0.0
 0 
VERTEX
 8 
1
 10 
0.35486
 20 
0.55326
 30 
0.0
 0 
VERTEX
 8 
1
 10 
0.37851
 20 
0.55534
 30 
0.0
 0 
VERTEX
 8 
1
 10 
0.40246
 20 
0.55722
 30 
0.0
 0 
VERTEX
 8 
1
 10 
0.42663
 20 
0.55885
 30 
0.0
 0 
VERTEX
 8 
1
 10 
0.45099
 20 
0.56019
 30 
0.0
 0 
VERTEX
 8 
1
 10 
0.47547
 20 
0.56125
 30 
0.0
 0 
VERTEX
 8 
1
 10 
0.5
 20 
0.56203
 30 
0.0
 0 
VERTEX
 8 
1
 10 
0.52453
 20 
0.56253
 30 
0.0
 0 
VERTEX
 8 
1
 10 
0.54901
 20 
0.56277
 30 
0.0
 0 
VERTEX
 8 
1
 10 
0.57337
 20 
0.56278
 30 
0.0
 0 
VERTEX
 8 
1
 10 
0.59754
 20 
0.56256
 30 
0.0
 0 
VERTEX
 8 
1
 10 
0.62149
 20 
0.56213
 30 
0.0
 0 
VERTEX
 8 
1
 10 
0.64514
 20 
0.5615
 30 
0.0
 0 
VERTEX
 8 
1
 10 
0.66845
 20 
0.56066
 30 
0.0
 0 
VERTEX
 8 
1
 10 
0.69134
 20 
0.55963
 30 
0.0
 0 
VERTEX
 8 
1
 10 
0.71378
 20 
0.55841
 30 
0.0
 0 
VERTEX
 8 
1
 10 
0.7357
 20 
0.55703
 30 
0.0
 0 
VERTEX
 8 
1
 10 
0.75705
 20 
0.55547
 30 
0.0
 0 
VERTEX
 8 
1
 10 
0.77779
 20 
0.55375
 30 
0.0
 0 
VERTEX
 8 
1
 10 
0.79785
 20 
0.55189
 30 
0.0
 0 
VERTEX
 8 
1
 10 
0.8172
 20 
0.54987
 30 
0.0
 0 
VERTEX
 8 
1
 10 
0.83578
 20 
0.54773
 30 
0.0
 0 
VERTEX
 8 
1
 10 
0.85355
 20 
0.54546
 30 
0.0
 0 
VERTEX
 8 
1
 10 
0.87048
 20 
0.54307
 30 
0.0
 0 
VERTEX
 8 
1
 10 
0.88651
 20 
0.54059
 30 
0.0
 0 
VERTEX
 8 
1
 10 
0.9016
 20 
0.53801
 30 
0.0
 0 
VERTEX
 8 
1
 10 
0.91573
 20 
0.53536
 30 
0.0
 0 
VERTEX
 8 
1
 10 
0.92886
 20 
0.53264
 30 
0.0
 0 
VERTEX
 8 
1
 10 
0.94096
 20 
0.52987
 30 
0.0
 0 
VERTEX
 8 
1
 10 
0.952
 20 
0.52706
 30 
0.0
 0 
VERTEX
 8 
1
 10 
0.96194
 20 
0.52422
 30 
0.0
 0 
VERTEX
 8 
1
 10 
0.97077
 20 
0.52135
 30 
0.0
 0 
VERTEX
 8 
1
 10 
0.97847
 20 
0.51844
 30 
0.0
 0 
VERTEX
 8 
1
 10 
0.98502
 20 
0.51549
 30 
0.0
 0 
VERTEX
 8 
1
 10 
0.99039
 20 
0.51248
 30 
0.0
 0 
VERTEX
 8 
1
 10 
0.99459
 20 
0.50942
 30 
0.0
 0 
VERTEX
 8 
1
 10 
0.99759
 20 
0.50631
 30 
0.0
 0 
VERTEX
 8 
1
 10 
0.9994
 20 
0.50316
 30 
0.0
 0 
VERTEX
 8 
1
 10 
1
 20 
0.5
 30 
0.0
 0 
VERTEX
 8 
1
 10 
0.9994
 20 
0.49684
 30 
0.0
 0 
VERTEX
 8 
1
 10 
0.99759
 20 
0.49369
 30 
0.0
 0 
VERTEX
 8 
1
 10 
0.99459
 20 
0.49056
 30 
0.0
 0 
VERTEX
 8 
1
 10 
0.99039
 20 
0.48744
 30 
0.0
 0 
VERTEX
 8 
1
 10 
0.98502
 20 
0.48435
 30 
0.0
 0 
VERTEX
 8 
1
 10 
0.97847
 20 
0.48129
 30 
0.0
 0 
VERTEX
 8 
1
 10 
0.97077
 20 
0.47828
 30 
0.0
 0 
VERTEX
 8 
1
 10 
0.96194
 20 
0.47532
 30 
0.0
 0 
VERTEX
 8 
1
 10 
0.952
 20 
0.47241
 30 
0.0
 0 
VERTEX
 8 
1
 10 
0.94096
 20 
0.46958
 30 
0.0
 0 
VERTEX
 8 
1
 10 
0.92886
 20 
0.46683
 30 
0.0
 0 
VERTEX
 8 
1
 10 
0.91573
 20 
0.46416
 30 
0.0
 0 
VERTEX
 8 
1
 10 
0.9016
 20 
0.46157
 30 
0.0
 0 
VERTEX
 8 
1
 10 
0.88651
 20 
0.45907
 30 
0.0
 0 
VERTEX
 8 
1
 10 
0.87048
 20 
0.45667
 30 
0.0
 0 
VERTEX
 8 
1
 10 
0.85355
 20 
0.45439
 30 
0.0
 0 
VERTEX
 8 
1
 10 
0.83578
 20 
0.45223
 30 
0.0
 0 
VERTEX
 8 
1
 10 
0.8172
 20 
0.45019
 30 
0.0
 0 
VERTEX
 8 
1
 10 
0.79785
 20 
0.44831
 30 
0.0
 0 
VERTEX
 8 
1
 10 
0.77779
 20 
0.44657
 30 
0.0
 0 
VERTEX
 8 
1
 10 
0.75705
 20 
0.44501
 30 
0.0
 0 
VERTEX
 8 
1
 10 
0.7357
 20 
0.44362
 30 
0.0
 0 
VERTEX
 8 
1
 10 
0.71378
 20 
0.44245
 30 
0.0
 0 
VERTEX
 8 
1
 10 
0.69134
 20 
0.44154
 30 
0.0
 0 
VERTEX
 8 
1
 10 
0.66845
 20 
0.44095
 30 
0.0
 0 
VERTEX
 8 
1
 10 
0.64514
 20 
0.44076
 30 
0.0
 0 
VERTEX
 8 
1
 10 
0.62149
 20 
0.44103
 30 
0.0
 0 
VERTEX
 8 
1
 10 
0.59754
 20 
0.44178
 30 
0.0
 0 
VERTEX
 8 
1
 10 
0.57337
 20 
0.44302
 30 
0.0
 0 
VERTEX
 8 
1
 10 
0.54901
 20 
0.44474
 30 
0.0
 0 
VERTEX
 8 
1
 10 
0.52453
 20 
0.4469
 30 
0.0
 0 
VERTEX
 8 
1
 10 
0.5
 20 
0.44944
 30 
0.0
 0 
VERTEX
 8 
1
 10 
0.47547
 20 
0.45228
 30 
0.0
 0 
VERTEX
 8 
1
 10 
0.45099
 20 
0.45536
 30 
0.0
 0 
VERTEX
 8 
1
 10 
0.42663
 20 
0.4586
 30 
0.0
 0 
VERTEX
 8 
1
 10 
0.40246
 20 
0.46196
 30 
0.0
 0 
VERTEX
 8 
1
 10 
0.37851
 20 
0.46537
 30 
0.0
 0 
VERTEX
 8 
1
 10 
0.35486
 20 
0.46879
 30 
0.0
 0 
VERTEX
 8 
1
 10 
0.33156
 20 
0.47219
 30 
0.0
 0 
VERTEX
 8 
1
 10 
0.30866
 20 
0.47551
 30 
0.0
 0 
VERTEX
 8 
1
 10 
0.28622
 20 
0.47871
 30 
0.0
 0 
VERTEX
 8 
1
 10 
0.2643
 20 
0.48177
 30 
0.0
 0 
VERTEX
 8 
1
 10 
0.24295
 20 
0.48464
 30 
0.0
 0 
VERTEX
 8 
1
 10 
0.22222
 20 
0.48731
 30 
0.0
 0 
VERTEX
 8 
1
 10 
0.20215
 20 
0.48976
 30 
0.0
 0 
VERTEX
 8 
1
 10 
0.1828
 20 
0.49197
 30 
0.0
 0 
VERTEX
 8 
1
 10 
0.16422
 20 
0.49395
 30 
0.0
 0 
VERTEX
 8 
1
 10 
0.14645
 20 
0.49569
 30 
0.0
 0 
VERTEX
 8 
1
 10 
0.12952
 20 
0.49717
 30 
0.0
 0 
VERTEX
 8 
1
 10 
0.1135
 20 
0.49841
 30 
0.0
 0 
VERTEX
 8 
1
 10 
0.0984
 20 
0.4994
 30 
0.0
 0 
VERTEX
 8 
1
 10 
0.08427
 20 
0.50016
 30 
0.0
 0 
VERTEX
 8 
1
 10 
0.07114
 20 
0.50069
 30 
0.0
 0 
VERTEX
 8 
1
 10 
0.05904
 20 
0.50103
 30 
0.0
 0 
VERTEX
 8 
1
 10 
0.048
 20 
0.5012
 30 
0.0
 0 
VERTEX
 8 
1
 10 
0.03806
 20 
0.50121
 30 
0.0
 0 
VERTEX
 8 
1
 10 
0.02923
 20 
0.50111
 30 
0.0
 0 
VERTEX
 8 
1
 10 
0.02153
 20 
0.50093
 30 
0.0
 0 
VERTEX
 8 
1
 10 
0.01498
 20 
0.50072
 30 
0.0
 0 
VERTEX
 8 
1
 10 
0.0096100
 20 
0.5005
 30 
0.0
 0 
VERTEX
 8 
1
 10 
0.0054100
 20 
0.5003
 30 
0.0
 0 
VERTEX
 8 
1
 10 
0.0024100
 20 
0.50014
 30 
0.0
 0 
VERTEX
 8 
1
 10 
0.00060000
 20 
0.50003
 30 
0.0
 0 
VERTEX
 8 
1
 10 
0.0
 20 
0.5
 30 
0.0
 0 
SEQEND
 8 
1
 0 
ENDSEC
 0 
EOF
