 0 
SECTION
 2 
ENTITIES
 0 
POLYLINE
 8 
1
 66 
 1 
 10 
0.0
 20 
0.0
 30 
0.0
 0 
VERTEX
 8 
1
 10 
0.0
 20 
0.5
 30 
0.0
 0 
VERTEX
 8 
1
 10 
0.1
 20 
0.5078
 30 
0.0
 0 
VERTEX
 8 
1
 10 
0.2
 20 
0.515
 30 
0.0
 0 
VERTEX
 8 
1
 10 
0.3
 20 
0.5222
 30 
0.0
 0 
VERTEX
 8 
1
 10 
0.4
 20 
0.5287
 30 
0.0
 0 
VERTEX
 8 
1
 10 
0.5
 20 
0.534
 30 
0.0
 0 
VERTEX
 8 
1
 10 
0.6
 20 
0.5372
 30 
0.0
 0 
VERTEX
 8 
1
 10 
0.7
 20 
0.538
 30 
0.0
 0 
VERTEX
 8 
1
 10 
0.8
 20 
0.5356
 30 
0.0
 0 
VERTEX
 8 
1
 10 
0.85
 20 
0.5326
 30 
0.0
 0 
VERTEX
 8 
1
 10 
0.9
 20 
0.5281
 30 
0.0
 0 
VERTEX
 8 
1
 10 
0.95
 20 
0.5208
 30 
0.0
 0 
VERTEX
 8 
1
 10 
0.975
 20 
0.5149
 30 
0.0
 0 
VERTEX
 8 
1
 10 
0.9875
 20 
0.5108
 30 
0.0
 0 
VERTEX
 8 
1
 10 
1
 20 
0.5
 30 
0.0
 0 
VERTEX
 8 
1
 10 
0.9875
 20 
0.4892
 30 
0.0
 0 
VERTEX
 8 
1
 10 
0.975
 20 
0.4851
 30 
0.0
 0 
VERTEX
 8 
1
 10 
0.95
 20 
0.4792
 30 
0.0
 0 
VERTEX
 8 
1
 10 
0.9
 20 
0.4719
 30 
0.0
 0 
VERTEX
 8 
1
 10 
0.85
 20 
0.4674
 30 
0.0
 0 
VERTEX
 8 
1
 10 
0.8
 20 
0.4644
 30 
0.0
 0 
VERTEX
 8 
1
 10 
0.7
 20 
0.462
 30 
0.0
 0 
VERTEX
 8 
1
 10 
0.6
 20 
0.4628
 30 
0.0
 0 
VERTEX
 8 
1
 10 
0.5
 20 
0.466
 30 
0.0
 0 
VERTEX
 8 
1
 10 
0.4
 20 
0.4713
 30 
0.0
 0 
VERTEX
 8 
1
 10 
0.3
 20 
0.4778
 30 
0.0
 0 
VERTEX
 8 
1
 10 
0.2
 20 
0.485
 30 
0.0
 0 
VERTEX
 8 
1
 10 
0.1
 20 
0.4922
 30 
0.0
 0 
VERTEX
 8 
1
 10 
0.0
 20 
0.5
 30 
0.0
 0 
SEQEND
 8 
1
 0 
ENDSEC
 0 
EOF
