 0 
SECTION
 2 
ENTITIES
 0 
POLYLINE
 8 
1
 66 
 1 
 10 
0.0
 20 
0.0
 30 
0.0
 0 
VERTEX
 8 
1
 10 
0.0
 20 
0.5
 30 
0.0
 0 
VERTEX
 8 
1
 10 
0.1
 20 
0.52516
 30 
0.0
 0 
VERTEX
 8 
1
 10 
0.2
 20 
0.54622
 30 
0.0
 0 
VERTEX
 8 
1
 10 
0.3
 20 
0.56388
 30 
0.0
 0 
VERTEX
 8 
1
 10 
0.4
 20 
0.57694
 30 
0.0
 0 
VERTEX
 8 
1
 10 
0.5
 20 
0.5853
 30 
0.0
 0 
VERTEX
 8 
1
 10 
0.6
 20 
0.58816
 30 
0.0
 0 
VERTEX
 8 
1
 10 
0.7
 20 
0.58452
 30 
0.0
 0 
VERTEX
 8 
1
 10 
0.8
 20 
0.57338
 30 
0.0
 0 
VERTEX
 8 
1
 10 
0.85
 20 
0.56456
 30 
0.0
 0 
VERTEX
 8 
1
 10 
0.9
 20 
0.55304
 30 
0.0
 0 
VERTEX
 8 
1
 10 
0.95
 20 
0.53662
 30 
0.0
 0 
VERTEX
 8 
1
 10 
0.975
 20 
0.52546
 30 
0.0
 0 
VERTEX
 8 
1
 10 
0.9875
 20 
0.51743
 30 
0.0
 0 
VERTEX
 8 
1
 10 
1
 20 
0.5
 30 
0.0
 0 
VERTEX
 8 
1
 10 
0.9875
 20 
0.48863
 30 
0.0
 0 
VERTEX
 8 
1
 10 
0.975
 20 
0.48526
 30 
0.0
 0 
VERTEX
 8 
1
 10 
0.95
 20 
0.48092
 30 
0.0
 0 
VERTEX
 8 
1
 10 
0.9
 20 
0.47764
 30 
0.0
 0 
VERTEX
 8 
1
 10 
0.85
 20 
0.47716
 30 
0.0
 0 
VERTEX
 8 
1
 10 
0.8
 20 
0.47788
 30 
0.0
 0 
VERTEX
 8 
1
 10 
0.7
 20 
0.48292
 30 
0.0
 0 
VERTEX
 8 
1
 10 
0.6
 20 
0.48876
 30 
0.0
 0 
VERTEX
 8 
1
 10 
0.5
 20 
0.4938
 30 
0.0
 0 
VERTEX
 8 
1
 10 
0.4
 20 
0.50014
 30 
0.0
 0 
VERTEX
 8 
1
 10 
0.3
 20 
0.50388
 30 
0.0
 0 
VERTEX
 8 
1
 10 
0.2
 20 
0.50542
 30 
0.0
 0 
VERTEX
 8 
1
 10 
0.1
 20 
0.50376
 30 
0.0
 0 
VERTEX
 8 
1
 10 
0.0
 20 
0.5
 30 
0.0
 0 
SEQEND
 8 
1
 0 
ENDSEC
 0 
EOF
