 0 
SECTION
 2 
ENTITIES
 0 
POLYLINE
 8 
1
 66 
 1 
 10 
0.0
 20 
0.0
 30 
0.0
 0 
VERTEX
 8 
1
 10 
0.0
 20 
0.5
 30 
0.0
 0 
VERTEX
 8 
1
 10 
0.05
 20 
0.51137
 30 
0.0
 0 
VERTEX
 8 
1
 10 
0.1
 20 
0.52004
 30 
0.0
 0 
VERTEX
 8 
1
 10 
0.2
 20 
0.53868
 30 
0.0
 0 
VERTEX
 8 
1
 10 
0.3
 20 
0.55502
 30 
0.0
 0 
VERTEX
 8 
1
 10 
0.4
 20 
0.56856
 30 
0.0
 0 
VERTEX
 8 
1
 10 
0.5
 20 
0.5777
 30 
0.0
 0 
VERTEX
 8 
1
 10 
0.6
 20 
0.58124
 30 
0.0
 0 
VERTEX
 8 
1
 10 
0.7
 20 
0.58078
 30 
0.0
 0 
VERTEX
 8 
1
 10 
0.75
 20 
0.57685
 30 
0.0
 0 
VERTEX
 8 
1
 10 
0.8
 20 
0.57232
 30 
0.0
 0 
VERTEX
 8 
1
 10 
0.85
 20 
0.56449
 30 
0.0
 0 
VERTEX
 8 
1
 10 
0.9
 20 
0.55366
 30 
0.0
 0 
VERTEX
 8 
1
 10 
0.925
 20 
0.547
 30 
0.0
 0 
VERTEX
 8 
1
 10 
0.95
 20 
0.53873
 30 
0.0
 0 
VERTEX
 8 
1
 10 
0.975
 20 
0.52697
 30 
0.0
 0 
VERTEX
 8 
1
 10 
0.9875
 20 
0.51788
 30 
0.0
 0 
VERTEX
 8 
1
 10 
1
 20 
0.5
 30 
0.0
 0 
VERTEX
 8 
1
 10 
0.9875
 20 
0.48268
 30 
0.0
 0 
VERTEX
 8 
1
 10 
0.975
 20 
0.47717
 30 
0.0
 0 
VERTEX
 8 
1
 10 
0.95
 20 
0.46913
 30 
0.0
 0 
VERTEX
 8 
1
 10 
0.925
 20 
0.4645
 30 
0.0
 0 
VERTEX
 8 
1
 10 
0.9
 20 
0.46106
 30 
0.0
 0 
VERTEX
 8 
1
 10 
0.85
 20 
0.45599
 30 
0.0
 0 
VERTEX
 8 
1
 10 
0.8
 20 
0.45372
 30 
0.0
 0 
VERTEX
 8 
1
 10 
0.75
 20 
0.45285
 30 
0.0
 0 
VERTEX
 8 
1
 10 
0.7
 20 
0.45338
 30 
0.0
 0 
VERTEX
 8 
1
 10 
0.6
 20 
0.45764
 30 
0.0
 0 
VERTEX
 8 
1
 10 
0.5
 20 
0.4637
 30 
0.0
 0 
VERTEX
 8 
1
 10 
0.4
 20 
0.47156
 30 
0.0
 0 
VERTEX
 8 
1
 10 
0.3
 20 
0.47982
 30 
0.0
 0 
VERTEX
 8 
1
 10 
0.2
 20 
0.48788
 30 
0.0
 0 
VERTEX
 8 
1
 10 
0.1
 20 
0.49414
 30 
0.0
 0 
VERTEX
 8 
1
 10 
0.05
 20 
0.49667
 30 
0.0
 0 
VERTEX
 8 
1
 10 
0.0
 20 
0.5
 30 
0.0
 0 
SEQEND
 8 
1
 0 
ENDSEC
 0 
EOF
