 0 
SECTION
 2 
ENTITIES
 0 
POLYLINE
 8 
1
 66 
 1 
 10 
0.0
 20 
0.0
 30 
0.0
 0 
VERTEX
 8 
1
 10 
0.0
 20 
0.5018
 30 
0.0
 0 
VERTEX
 8 
1
 10 
0.03172
 20 
0.506
 30 
0.0
 0 
VERTEX
 8 
1
 10 
0.06369
 20 
0.51052
 30 
0.0
 0 
VERTEX
 8 
1
 10 
0.095910
 20 
0.51564
 30 
0.0
 0 
VERTEX
 8 
1
 10 
0.12918
 20 
0.52096
 30 
0.0
 0 
VERTEX
 8 
1
 10 
0.16377
 20 
0.52644
 30 
0.0
 0 
VERTEX
 8 
1
 10 
0.19998
 20 
0.532
 30 
0.0
 0 
VERTEX
 8 
1
 10 
0.23815
 20 
0.53758
 30 
0.0
 0 
VERTEX
 8 
1
 10 
0.27768
 20 
0.54296
 30 
0.0
 0 
VERTEX
 8 
1
 10 
0.31724
 20 
0.54787
 30 
0.0
 0 
VERTEX
 8 
1
 10 
0.35622
 20 
0.5522
 30 
0.0
 0 
VERTEX
 8 
1
 10 
0.39453
 20 
0.55593
 30 
0.0
 0 
VERTEX
 8 
1
 10 
0.43254
 20 
0.55909
 30 
0.0
 0 
VERTEX
 8 
1
 10 
0.47051
 20 
0.5617
 30 
0.0
 0 
VERTEX
 8 
1
 10 
0.50852
 20 
0.56376
 30 
0.0
 0 
VERTEX
 8 
1
 10 
0.54664
 20 
0.56528
 30 
0.0
 0 
VERTEX
 8 
1
 10 
0.58476
 20 
0.56627
 30 
0.0
 0 
VERTEX
 8 
1
 10 
0.62267
 20 
0.56672
 30 
0.0
 0 
VERTEX
 8 
1
 10 
0.66005
 20 
0.56661
 30 
0.0
 0 
VERTEX
 8 
1
 10 
0.69657
 20 
0.56596
 30 
0.0
 0 
VERTEX
 8 
1
 10 
0.73193
 20 
0.56474
 30 
0.0
 0 
VERTEX
 8 
1
 10 
0.76598
 20 
0.56292
 30 
0.0
 0 
VERTEX
 8 
1
 10 
0.79863
 20 
0.56051
 30 
0.0
 0 
VERTEX
 8 
1
 10 
0.82977
 20 
0.55748
 30 
0.0
 0 
VERTEX
 8 
1
 10 
0.85925
 20 
0.55376
 30 
0.0
 0 
VERTEX
 8 
1
 10 
0.88695
 20 
0.54944
 30 
0.0
 0 
VERTEX
 8 
1
 10 
0.91276
 20 
0.54435
 30 
0.0
 0 
VERTEX
 8 
1
 10 
0.93653
 20 
0.53854
 30 
0.0
 0 
VERTEX
 8 
1
 10 
0.95786
 20 
0.53193
 30 
0.0
 0 
VERTEX
 8 
1
 10 
0.97597
 20 
0.52462
 30 
0.0
 0 
VERTEX
 8 
1
 10 
0.98907
 20 
0.517
 30 
0.0
 0 
VERTEX
 8 
1
 10 
0.9969
 20 
0.50906
 30 
0.0
 0 
VERTEX
 8 
1
 10 
1
 20 
0.5
 30 
0.0
 0 
VERTEX
 8 
1
 10 
0.9969
 20 
0.49235
 30 
0.0
 0 
VERTEX
 8 
1
 10 
0.98907
 20 
0.4877
 30 
0.0
 0 
VERTEX
 8 
1
 10 
0.97597
 20 
0.48381
 30 
0.0
 0 
VERTEX
 8 
1
 10 
0.95786
 20 
0.4805
 30 
0.0
 0 
VERTEX
 8 
1
 10 
0.93653
 20 
0.47797
 30 
0.0
 0 
VERTEX
 8 
1
 10 
0.91276
 20 
0.476
 30 
0.0
 0 
VERTEX
 8 
1
 10 
0.88695
 20 
0.47439
 30 
0.0
 0 
VERTEX
 8 
1
 10 
0.85925
 20 
0.47304
 30 
0.0
 0 
VERTEX
 8 
1
 10 
0.82977
 20 
0.47183
 30 
0.0
 0 
VERTEX
 8 
1
 10 
0.79863
 20 
0.47077
 30 
0.0
 0 
VERTEX
 8 
1
 10 
0.76598
 20 
0.4698
 30 
0.0
 0 
VERTEX
 8 
1
 10 
0.73193
 20 
0.46893
 30 
0.0
 0 
VERTEX
 8 
1
 10 
0.69657
 20 
0.46816
 30 
0.0
 0 
VERTEX
 8 
1
 10 
0.66005
 20 
0.46751
 30 
0.0
 0 
VERTEX
 8 
1
 10 
0.62267
 20 
0.46699
 30 
0.0
 0 
VERTEX
 8 
1
 10 
0.58476
 20 
0.46663
 30 
0.0
 0 
VERTEX
 8 
1
 10 
0.54664
 20 
0.46643
 30 
0.0
 0 
VERTEX
 8 
1
 10 
0.50852
 20 
0.4664
 30 
0.0
 0 
VERTEX
 8 
1
 10 
0.47051
 20 
0.46654
 30 
0.0
 0 
VERTEX
 8 
1
 10 
0.43254
 20 
0.46687
 30 
0.0
 0 
VERTEX
 8 
1
 10 
0.39453
 20 
0.4674
 30 
0.0
 0 
VERTEX
 8 
1
 10 
0.35622
 20 
0.46816
 30 
0.0
 0 
VERTEX
 8 
1
 10 
0.31724
 20 
0.46921
 30 
0.0
 0 
VERTEX
 8 
1
 10 
0.27768
 20 
0.47061
 30 
0.0
 0 
VERTEX
 8 
1
 10 
0.23815
 20 
0.47242
 30 
0.0
 0 
VERTEX
 8 
1
 10 
0.19998
 20 
0.47464
 30 
0.0
 0 
VERTEX
 8 
1
 10 
0.16377
 20 
0.47728
 30 
0.0
 0 
VERTEX
 8 
1
 10 
0.12918
 20 
0.48041
 30 
0.0
 0 
VERTEX
 8 
1
 10 
0.095910
 20 
0.48406
 30 
0.0
 0 
VERTEX
 8 
1
 10 
0.06369
 20 
0.48829
 30 
0.0
 0 
VERTEX
 8 
1
 10 
0.03172
 20 
0.49367
 30 
0.0
 0 
VERTEX
 8 
1
 10 
0.0
 20 
0.4998
 30 
0.0
 0 
SEQEND
 8 
1
 0 
ENDSEC
 0 
EOF
