 0 
SECTION
 2 
ENTITIES
 0 
POLYLINE
 8 
1
 66 
 1 
 10 
0.0
 20 
0.0
 30 
0.0
 0 
VERTEX
 8 
1
 10 
0.0
 20 
0.5008
 30 
0.0
 0 
VERTEX
 8 
1
 10 
0.02511
 20 
0.50254
 30 
0.0
 0 
VERTEX
 8 
1
 10 
0.05008
 20 
0.5045
 30 
0.0
 0 
VERTEX
 8 
1
 10 
0.07504
 20 
0.50666
 30 
0.0
 0 
VERTEX
 8 
1
 10 
0.10001
 20 
0.50905
 30 
0.0
 0 
VERTEX
 8 
1
 10 
0.12496
 20 
0.51163
 30 
0.0
 0 
VERTEX
 8 
1
 10 
0.14981
 20 
0.51438
 30 
0.0
 0 
VERTEX
 8 
1
 10 
0.17461
 20 
0.51732
 30 
0.0
 0 
VERTEX
 8 
1
 10 
0.19933
 20 
0.52045
 30 
0.0
 0 
VERTEX
 8 
1
 10 
0.22398
 20 
0.52376
 30 
0.0
 0 
VERTEX
 8 
1
 10 
0.24881
 20 
0.5273
 30 
0.0
 0 
VERTEX
 8 
1
 10 
0.27376
 20 
0.53098
 30 
0.0
 0 
VERTEX
 8 
1
 10 
0.29861
 20 
0.53471
 30 
0.0
 0 
VERTEX
 8 
1
 10 
0.32377
 20 
0.53841
 30 
0.0
 0 
VERTEX
 8 
1
 10 
0.34862
 20 
0.54201
 30 
0.0
 0 
VERTEX
 8 
1
 10 
0.37366
 20 
0.54543
 30 
0.0
 0 
VERTEX
 8 
1
 10 
0.39871
 20 
0.54861
 30 
0.0
 0 
VERTEX
 8 
1
 10 
0.42375
 20 
0.55156
 30 
0.0
 0 
VERTEX
 8 
1
 10 
0.44877
 20 
0.55425
 30 
0.0
 0 
VERTEX
 8 
1
 10 
0.47382
 20 
0.55666
 30 
0.0
 0 
VERTEX
 8 
1
 10 
0.49888
 20 
0.55879
 30 
0.0
 0 
VERTEX
 8 
1
 10 
0.52394
 20 
0.5606
 30 
0.0
 0 
VERTEX
 8 
1
 10 
0.54903
 20 
0.56206
 30 
0.0
 0 
VERTEX
 8 
1
 10 
0.57417
 20 
0.56317
 30 
0.0
 0 
VERTEX
 8 
1
 10 
0.59929
 20 
0.5639
 30 
0.0
 0 
VERTEX
 8 
1
 10 
0.62443
 20 
0.56431
 30 
0.0
 0 
VERTEX
 8 
1
 10 
0.64959
 20 
0.56437
 30 
0.0
 0 
VERTEX
 8 
1
 10 
0.69991
 20 
0.56353
 30 
0.0
 0 
VERTEX
 8 
1
 10 
0.75028
 20 
0.5613
 30 
0.0
 0 
VERTEX
 8 
1
 10 
0.77548
 20 
0.55959
 30 
0.0
 0 
VERTEX
 8 
1
 10 
0.8008
 20 
0.55742
 30 
0.0
 0 
VERTEX
 8 
1
 10 
0.82616
 20 
0.55473
 30 
0.0
 0 
VERTEX
 8 
1
 10 
0.85144
 20 
0.55148
 30 
0.0
 0 
VERTEX
 8 
1
 10 
0.87667
 20 
0.54764
 30 
0.0
 0 
VERTEX
 8 
1
 10 
0.90182
 20 
0.54311
 30 
0.0
 0 
VERTEX
 8 
1
 10 
0.92691
 20 
0.53766
 30 
0.0
 0 
VERTEX
 8 
1
 10 
0.95251
 20 
0.53062
 30 
0.0
 0 
VERTEX
 8 
1
 10 
0.97722
 20 
0.52111
 30 
0.0
 0 
VERTEX
 8 
1
 10 
0.99098
 20 
0.51297
 30 
0.0
 0 
VERTEX
 8 
1
 10 
0.99706
 20 
0.50714
 30 
0.0
 0 
VERTEX
 8 
1
 10 
0.99961
 20 
0.50249
 30 
0.0
 0 
VERTEX
 8 
1
 10 
1
 20 
0.5
 30 
0.0
 0 
VERTEX
 8 
1
 10 
0.99536
 20 
0.49326
 30 
0.0
 0 
VERTEX
 8 
1
 10 
0.99294
 20 
0.49206
 30 
0.0
 0 
VERTEX
 8 
1
 10 
0.98403
 20 
0.48937
 30 
0.0
 0 
VERTEX
 8 
1
 10 
0.97283
 20 
0.48729
 30 
0.0
 0 
VERTEX
 8 
1
 10 
0.94756
 20 
0.484
 30 
0.0
 0 
VERTEX
 8 
1
 10 
0.92319
 20 
0.48139
 30 
0.0
 0 
VERTEX
 8 
1
 10 
0.8983
 20 
0.47896
 30 
0.0
 0 
VERTEX
 8 
1
 10 
0.87348
 20 
0.47676
 30 
0.0
 0 
VERTEX
 8 
1
 10 
0.84872
 20 
0.47477
 30 
0.0
 0 
VERTEX
 8 
1
 10 
0.824
 20 
0.47297
 30 
0.0
 0 
VERTEX
 8 
1
 10 
0.79937
 20 
0.47136
 30 
0.0
 0 
VERTEX
 8 
1
 10 
0.77469
 20 
0.46988
 30 
0.0
 0 
VERTEX
 8 
1
 10 
0.74989
 20 
0.46855
 30 
0.0
 0 
VERTEX
 8 
1
 10 
0.70027
 20 
0.46631
 30 
0.0
 0 
VERTEX
 8 
1
 10 
0.65059
 20 
0.46474
 30 
0.0
 0 
VERTEX
 8 
1
 10 
0.62576
 20 
0.46421
 30 
0.0
 0 
VERTEX
 8 
1
 10 
0.60088
 20 
0.46389
 30 
0.0
 0 
VERTEX
 8 
1
 10 
0.576
 20 
0.46379
 30 
0.0
 0 
VERTEX
 8 
1
 10 
0.55113
 20 
0.46392
 30 
0.0
 0 
VERTEX
 8 
1
 10 
0.52622
 20 
0.46428
 30 
0.0
 0 
VERTEX
 8 
1
 10 
0.50129
 20 
0.46488
 30 
0.0
 0 
VERTEX
 8 
1
 10 
0.47634
 20 
0.46568
 30 
0.0
 0 
VERTEX
 8 
1
 10 
0.45138
 20 
0.46668
 30 
0.0
 0 
VERTEX
 8 
1
 10 
0.42639
 20 
0.46785
 30 
0.0
 0 
VERTEX
 8 
1
 10 
0.40142
 20 
0.46914
 30 
0.0
 0 
VERTEX
 8 
1
 10 
0.37648
 20 
0.47053
 30 
0.0
 0 
VERTEX
 8 
1
 10 
0.3515
 20 
0.47198
 30 
0.0
 0 
VERTEX
 8 
1
 10 
0.32654
 20 
0.47341
 30 
0.0
 0 
VERTEX
 8 
1
 10 
0.30149
 20 
0.47477
 30 
0.0
 0 
VERTEX
 8 
1
 10 
0.27633
 20 
0.47607
 30 
0.0
 0 
VERTEX
 8 
1
 10 
0.25126
 20 
0.4773
 30 
0.0
 0 
VERTEX
 8 
1
 10 
0.22608
 20 
0.47857
 30 
0.0
 0 
VERTEX
 8 
1
 10 
0.20073
 20 
0.47999
 30 
0.0
 0 
VERTEX
 8 
1
 10 
0.17545
 20 
0.48166
 30 
0.0
 0 
VERTEX
 8 
1
 10 
0.15024
 20 
0.4836
 30 
0.0
 0 
VERTEX
 8 
1
 10 
0.1251
 20 
0.48581
 30 
0.0
 0 
VERTEX
 8 
1
 10 
0.10003
 20 
0.48816
 30 
0.0
 0 
VERTEX
 8 
1
 10 
0.075
 20 
0.49058
 30 
0.0
 0 
VERTEX
 8 
1
 10 
0.04998
 20 
0.49305
 30 
0.0
 0 
VERTEX
 8 
1
 10 
0.02495
 20 
0.49572
 30 
0.0
 0 
VERTEX
 8 
1
 10 
0.0
 20 
0.4992
 30 
0.0
 0 
SEQEND
 8 
1
 0 
ENDSEC
 0 
EOF
