 0 
SECTION
 2 
ENTITIES
 0 
POLYLINE
 8 
1
 66 
 1 
 10 
0.0
 20 
0.0
 30 
0.0
 0 
VERTEX
 8 
1
 10 
0.0
 20 
0.50095
 30 
0.0
 0 
VERTEX
 8 
1
 10 
0.025140
 20 
0.50319
 30 
0.0
 0 
VERTEX
 8 
1
 10 
0.05011
 20 
0.50557
 30 
0.0
 0 
VERTEX
 8 
1
 10 
0.07506
 20 
0.50816
 30 
0.0
 0 
VERTEX
 8 
1
 10 
0.10003
 20 
0.51099
 30 
0.0
 0 
VERTEX
 8 
1
 10 
0.12496
 20 
0.51403
 30 
0.0
 0 
VERTEX
 8 
1
 10 
0.1498
 20 
0.51725
 30 
0.0
 0 
VERTEX
 8 
1
 10 
0.17456
 20 
0.52065
 30 
0.0
 0 
VERTEX
 8 
1
 10 
0.19924
 20 
0.52421
 30 
0.0
 0 
VERTEX
 8 
1
 10 
0.22382
 20 
0.52797
 30 
0.0
 0 
VERTEX
 8 
1
 10 
0.24862
 20 
0.53195
 30 
0.0
 0 
VERTEX
 8 
1
 10 
0.27356
 20 
0.53609
 30 
0.0
 0 
VERTEX
 8 
1
 10 
0.29839
 20 
0.54027
 30 
0.0
 0 
VERTEX
 8 
1
 10 
0.32334
 20 
0.54444
 30 
0.0
 0 
VERTEX
 8 
1
 10 
0.3484
 20 
0.5485
 30 
0.0
 0 
VERTEX
 8 
1
 10 
0.37345
 20 
0.55235
 30 
0.0
 0 
VERTEX
 8 
1
 10 
0.39853
 20 
0.55597
 30 
0.0
 0 
VERTEX
 8 
1
 10 
0.42358
 20 
0.5593
 30 
0.0
 0 
VERTEX
 8 
1
 10 
0.44861
 20 
0.56233
 30 
0.0
 0 
VERTEX
 8 
1
 10 
0.47367
 20 
0.56505
 30 
0.0
 0 
VERTEX
 8 
1
 10 
0.49874
 20 
0.56743
 30 
0.0
 0 
VERTEX
 8 
1
 10 
0.52381
 20 
0.56943
 30 
0.0
 0 
VERTEX
 8 
1
 10 
0.54893
 20 
0.57103
 30 
0.0
 0 
VERTEX
 8 
1
 10 
0.5741
 20 
0.57222
 30 
0.0
 0 
VERTEX
 8 
1
 10 
0.59924
 20 
0.57298
 30 
0.0
 0 
VERTEX
 8 
1
 10 
0.6244
 20 
0.57334
 30 
0.0
 0 
VERTEX
 8 
1
 10 
0.64959
 20 
0.57333
 30 
0.0
 0 
VERTEX
 8 
1
 10 
0.69998
 20 
0.57215
 30 
0.0
 0 
VERTEX
 8 
1
 10 
0.75042
 20 
0.56939
 30 
0.0
 0 
VERTEX
 8 
1
 10 
0.77565
 20 
0.56733
 30 
0.0
 0 
VERTEX
 8 
1
 10 
0.80102
 20 
0.56476
 30 
0.0
 0 
VERTEX
 8 
1
 10 
0.82646
 20 
0.5616
 30 
0.0
 0 
VERTEX
 8 
1
 10 
0.85179
 20 
0.5578
 30 
0.0
 0 
VERTEX
 8 
1
 10 
0.87704
 20 
0.55331
 30 
0.0
 0 
VERTEX
 8 
1
 10 
0.90223
 20 
0.54802
 30 
0.0
 0 
VERTEX
 8 
1
 10 
0.92733
 20 
0.54171
 30 
0.0
 0 
VERTEX
 8 
1
 10 
0.95304
 20 
0.53366
 30 
0.0
 0 
VERTEX
 8 
1
 10 
0.97767
 20 
0.52312
 30 
0.0
 0 
VERTEX
 8 
1
 10 
0.99168
 20 
0.51391
 30 
0.0
 0 
VERTEX
 8 
1
 10 
0.99746
 20 
0.50753
 30 
0.0
 0 
VERTEX
 8 
1
 10 
1
 20 
0.5
 30 
0.0
 0 
VERTEX
 8 
1
 10 
0.99997
 20 
0.49941
 30 
0.0
 0 
VERTEX
 8 
1
 10 
0.9949
 20 
0.4911
 30 
0.0
 0 
VERTEX
 8 
1
 10 
0.99248
 20 
0.48949
 30 
0.0
 0 
VERTEX
 8 
1
 10 
0.98329
 20 
0.48558
 30 
0.0
 0 
VERTEX
 8 
1
 10 
0.97233
 20 
0.48258
 30 
0.0
 0 
VERTEX
 8 
1
 10 
0.947
 20 
0.47782
 30 
0.0
 0 
VERTEX
 8 
1
 10 
0.92275
 20 
0.47428
 30 
0.0
 0 
VERTEX
 8 
1
 10 
0.89788
 20 
0.47111
 30 
0.0
 0 
VERTEX
 8 
1
 10 
0.87308
 20 
0.46828
 30 
0.0
 0 
VERTEX
 8 
1
 10 
0.84836
 20 
0.46574
 30 
0.0
 0 
VERTEX
 8 
1
 10 
0.82369
 20 
0.46348
 30 
0.0
 0 
VERTEX
 8 
1
 10 
0.79914
 20 
0.46146
 30 
0.0
 0 
VERTEX
 8 
1
 10 
0.77453
 20 
0.45965
 30 
0.0
 0 
VERTEX
 8 
1
 10 
0.74977
 20 
0.45804
 30 
0.0
 0 
VERTEX
 8 
1
 10 
0.70021
 20 
0.45543
 30 
0.0
 0 
VERTEX
 8 
1
 10 
0.65061
 20 
0.45368
 30 
0.0
 0 
VERTEX
 8 
1
 10 
0.62579
 20 
0.45315
 30 
0.0
 0 
VERTEX
 8 
1
 10 
0.60094
 20 
0.45288
 30 
0.0
 0 
VERTEX
 8 
1
 10 
0.57609
 20 
0.45286
 30 
0.0
 0 
VERTEX
 8 
1
 10 
0.55125
 20 
0.45314
 30 
0.0
 0 
VERTEX
 8 
1
 10 
0.52637
 20 
0.45373
 30 
0.0
 0 
VERTEX
 8 
1
 10 
0.50145
 20 
0.4546
 30 
0.0
 0 
VERTEX
 8 
1
 10 
0.4765
 20 
0.45576
 30 
0.0
 0 
VERTEX
 8 
1
 10 
0.45155
 20 
0.45714
 30 
0.0
 0 
VERTEX
 8 
1
 10 
0.42658
 20 
0.45873
 30 
0.0
 0 
VERTEX
 8 
1
 10 
0.40163
 20 
0.46049
 30 
0.0
 0 
VERTEX
 8 
1
 10 
0.37669
 20 
0.46239
 30 
0.0
 0 
VERTEX
 8 
1
 10 
0.35173
 20 
0.46435
 30 
0.0
 0 
VERTEX
 8 
1
 10 
0.32678
 20 
0.46632
 30 
0.0
 0 
VERTEX
 8 
1
 10 
0.30172
 20 
0.46824
 30 
0.0
 0 
VERTEX
 8 
1
 10 
0.27654
 20 
0.47008
 30 
0.0
 0 
VERTEX
 8 
1
 10 
0.25146
 20 
0.47185
 30 
0.0
 0 
VERTEX
 8 
1
 10 
0.22625
 20 
0.47364
 30 
0.0
 0 
VERTEX
 8 
1
 10 
0.20082
 20 
0.47558
 30 
0.0
 0 
VERTEX
 8 
1
 10 
0.1755
 20 
0.47778
 30 
0.0
 0 
VERTEX
 8 
1
 10 
0.15025
 20 
0.48026
 30 
0.0
 0 
VERTEX
 8 
1
 10 
0.12509
 20 
0.483
 30 
0.0
 0 
VERTEX
 8 
1
 10 
0.10002
 20 
0.4859
 30 
0.0
 0 
VERTEX
 8 
1
 10 
0.07499
 20 
0.48884
 30 
0.0
 0 
VERTEX
 8 
1
 10 
0.04996
 20 
0.49181
 30 
0.0
 0 
VERTEX
 8 
1
 10 
0.02493
 20 
0.49498
 30 
0.0
 0 
VERTEX
 8 
1
 10 
0.0
 20 
0.49905
 30 
0.0
 0 
SEQEND
 8 
1
 0 
ENDSEC
 0 
EOF
