 0 
SECTION
 2 
ENTITIES
 0 
POLYLINE
 8 
1
 66 
 1 
 10 
0.0
 20 
0.0
 30 
0.0
 0 
VERTEX
 8 
1
 10 
0.0
 20 
0.50079
 30 
0.0
 0 
VERTEX
 8 
1
 10 
0.02495
 20 
0.50283
 30 
0.0
 0 
VERTEX
 8 
1
 10 
0.04978
 20 
0.50506
 30 
0.0
 0 
VERTEX
 8 
1
 10 
0.07459
 20 
0.50752
 30 
0.0
 0 
VERTEX
 8 
1
 10 
0.09942
 20 
0.51019
 30 
0.0
 0 
VERTEX
 8 
1
 10 
0.12421
 20 
0.51305
 30 
0.0
 0 
VERTEX
 8 
1
 10 
0.14892
 20 
0.51609
 30 
0.0
 0 
VERTEX
 8 
1
 10 
0.17356
 20 
0.51931
 30 
0.0
 0 
VERTEX
 8 
1
 10 
0.19813
 20 
0.52272
 30 
0.0
 0 
VERTEX
 8 
1
 10 
0.22262
 20 
0.52631
 30 
0.0
 0 
VERTEX
 8 
1
 10 
0.24729
 20 
0.53012
 30 
0.0
 0 
VERTEX
 8 
1
 10 
0.27207
 20 
0.53409
 30 
0.0
 0 
VERTEX
 8 
1
 10 
0.29676
 20 
0.53809
 30 
0.0
 0 
VERTEX
 8 
1
 10 
0.32156
 20 
0.54208
 30 
0.0
 0 
VERTEX
 8 
1
 10 
0.34644
 20 
0.54596
 30 
0.0
 0 
VERTEX
 8 
1
 10 
0.37132
 20 
0.54965
 30 
0.0
 0 
VERTEX
 8 
1
 10 
0.39622
 20 
0.55312
 30 
0.0
 0 
VERTEX
 8 
1
 10 
0.42111
 20 
0.55635
 30 
0.0
 0 
VERTEX
 8 
1
 10 
0.44598
 20 
0.55933
 30 
0.0
 0 
VERTEX
 8 
1
 10 
0.47087
 20 
0.56205
 30 
0.0
 0 
VERTEX
 8 
1
 10 
0.4958
 20 
0.56447
 30 
0.0
 0 
VERTEX
 8 
1
 10 
0.52066
 20 
0.56652
 30 
0.0
 0 
VERTEX
 8 
1
 10 
0.54586
 20 
0.56817
 30 
0.0
 0 
VERTEX
 8 
1
 10 
0.57114
 20 
0.56939
 30 
0.0
 0 
VERTEX
 8 
1
 10 
0.59623
 20 
0.57018
 30 
0.0
 0 
VERTEX
 8 
1
 10 
0.62138
 20 
0.5706
 30 
0.0
 0 
VERTEX
 8 
1
 10 
0.64638
 20 
0.57073
 30 
0.0
 0 
VERTEX
 8 
1
 10 
0.69638
 20 
0.5703
 30 
0.0
 0 
VERTEX
 8 
1
 10 
0.74658
 20 
0.56917
 30 
0.0
 0 
VERTEX
 8 
1
 10 
0.77178
 20 
0.56836
 30 
0.0
 0 
VERTEX
 8 
1
 10 
0.79699
 20 
0.56736
 30 
0.0
 0 
VERTEX
 8 
1
 10 
0.82233
 20 
0.56611
 30 
0.0
 0 
VERTEX
 8 
1
 10 
0.84772
 20 
0.56449
 30 
0.0
 0 
VERTEX
 8 
1
 10 
0.87344
 20 
0.5622
 30 
0.0
 0 
VERTEX
 8 
1
 10 
0.89942
 20 
0.55872
 30 
0.0
 0 
VERTEX
 8 
1
 10 
0.92596
 20 
0.55318
 30 
0.0
 0 
VERTEX
 8 
1
 10 
0.95267
 20 
0.54428
 30 
0.0
 0 
VERTEX
 8 
1
 10 
0.97624
 20 
0.53155
 30 
0.0
 0 
VERTEX
 8 
1
 10 
0.9908
 20 
0.51884
 30 
0.0
 0 
VERTEX
 8 
1
 10 
0.99707
 20 
0.51002
 30 
0.0
 0 
VERTEX
 8 
1
 10 
1
 20 
0.5
 30 
0.0
 0 
VERTEX
 8 
1
 10 
0.99538
 20 
0.48979
 30 
0.0
 0 
VERTEX
 8 
1
 10 
0.98576
 20 
0.48381
 30 
0.0
 0 
VERTEX
 8 
1
 10 
0.98365
 20 
0.48291
 30 
0.0
 0 
VERTEX
 8 
1
 10 
0.97495
 20 
0.47989
 30 
0.0
 0 
VERTEX
 8 
1
 10 
0.96456
 20 
0.47729
 30 
0.0
 0 
VERTEX
 8 
1
 10 
0.93831
 20 
0.47373
 30 
0.0
 0 
VERTEX
 8 
1
 10 
0.9152
 20 
0.47282
 30 
0.0
 0 
VERTEX
 8 
1
 10 
0.89194
 20 
0.47299
 30 
0.0
 0 
VERTEX
 8 
1
 10 
0.86813
 20 
0.47357
 30 
0.0
 0 
VERTEX
 8 
1
 10 
0.84406
 20 
0.47407
 30 
0.0
 0 
VERTEX
 8 
1
 10 
0.81968
 20 
0.47424
 30 
0.0
 0 
VERTEX
 8 
1
 10 
0.79524
 20 
0.47409
 30 
0.0
 0 
VERTEX
 8 
1
 10 
0.77069
 20 
0.47375
 30 
0.0
 0 
VERTEX
 8 
1
 10 
0.74612
 20 
0.47332
 30 
0.0
 0 
VERTEX
 8 
1
 10 
0.69679
 20 
0.47229
 30 
0.0
 0 
VERTEX
 8 
1
 10 
0.64726
 20 
0.47126
 30 
0.0
 0 
VERTEX
 8 
1
 10 
0.6225
 20 
0.47082
 30 
0.0
 0 
VERTEX
 8 
1
 10 
0.59789
 20 
0.47047
 30 
0.0
 0 
VERTEX
 8 
1
 10 
0.57322
 20 
0.47026
 30 
0.0
 0 
VERTEX
 8 
1
 10 
0.54875
 20 
0.47022
 30 
0.0
 0 
VERTEX
 8 
1
 10 
0.52419
 20 
0.47036
 30 
0.0
 0 
VERTEX
 8 
1
 10 
0.4993
 20 
0.4707
 30 
0.0
 0 
VERTEX
 8 
1
 10 
0.47448
 20 
0.47122
 30 
0.0
 0 
VERTEX
 8 
1
 10 
0.44962
 20 
0.47194
 30 
0.0
 0 
VERTEX
 8 
1
 10 
0.42474
 20 
0.4728
 30 
0.0
 0 
VERTEX
 8 
1
 10 
0.39988
 20 
0.47376
 30 
0.0
 0 
VERTEX
 8 
1
 10 
0.37503
 20 
0.47478
 30 
0.0
 0 
VERTEX
 8 
1
 10 
0.35016
 20 
0.47582
 30 
0.0
 0 
VERTEX
 8 
1
 10 
0.3253
 20 
0.47686
 30 
0.0
 0 
VERTEX
 8 
1
 10 
0.30035
 20 
0.47792
 30 
0.0
 0 
VERTEX
 8 
1
 10 
0.2753
 20 
0.47898
 30 
0.0
 0 
VERTEX
 8 
1
 10 
0.25033
 20 
0.48008
 30 
0.0
 0 
VERTEX
 8 
1
 10 
0.22526
 20 
0.48125
 30 
0.0
 0 
VERTEX
 8 
1
 10 
0.2
 20 
0.48253
 30 
0.0
 0 
VERTEX
 8 
1
 10 
0.17482
 20 
0.48397
 30 
0.0
 0 
VERTEX
 8 
1
 10 
0.14971
 20 
0.48559
 30 
0.0
 0 
VERTEX
 8 
1
 10 
0.12466
 20 
0.4874
 30 
0.0
 0 
VERTEX
 8 
1
 10 
0.099689
 20 
0.48936
 30 
0.0
 0 
VERTEX
 8 
1
 10 
0.07475
 20 
0.49143
 30 
0.0
 0 
VERTEX
 8 
1
 10 
0.04981
 20 
0.49361
 30 
0.0
 0 
VERTEX
 8 
1
 10 
0.024869
 20 
0.49601
 30 
0.0
 0 
VERTEX
 8 
1
 10 
0.0
 20 
0.49921
 30 
0.0
 0 
SEQEND
 8 
1
 0 
ENDSEC
 0 
EOF
