 0 
SECTION
 2 
ENTITIES
 0 
POLYLINE
 8 
1
 66 
 1 
 10 
0.0
 20 
0.0
 30 
0.0
 0 
VERTEX
 8 
1
 10 
0.0
 20 
0.50079
 30 
0.0
 0 
VERTEX
 8 
1
 10 
0.02497
 20 
0.50285
 30 
0.0
 0 
VERTEX
 8 
1
 10 
0.04983
 20 
0.50511
 30 
0.0
 0 
VERTEX
 8 
1
 10 
0.07468
 20 
0.50759
 30 
0.0
 0 
VERTEX
 8 
1
 10 
0.09953
 20 
0.51028
 30 
0.0
 0 
VERTEX
 8 
1
 10 
0.12434
 20 
0.51317
 30 
0.0
 0 
VERTEX
 8 
1
 10 
0.14908
 20 
0.51624
 30 
0.0
 0 
VERTEX
 8 
1
 10 
0.17375
 20 
0.51948
 30 
0.0
 0 
VERTEX
 8 
1
 10 
0.19834
 20 
0.52291
 30 
0.0
 0 
VERTEX
 8 
1
 10 
0.22286
 20 
0.52653
 30 
0.0
 0 
VERTEX
 8 
1
 10 
0.24756
 20 
0.53037
 30 
0.0
 0 
VERTEX
 8 
1
 10 
0.27237
 20 
0.53436
 30 
0.0
 0 
VERTEX
 8 
1
 10 
0.29708
 20 
0.53839
 30 
0.0
 0 
VERTEX
 8 
1
 10 
0.3219
 20 
0.5424
 30 
0.0
 0 
VERTEX
 8 
1
 10 
0.34681
 20 
0.5463
 30 
0.0
 0 
VERTEX
 8 
1
 10 
0.37172
 20 
0.55002
 30 
0.0
 0 
VERTEX
 8 
1
 10 
0.39665
 20 
0.55352
 30 
0.0
 0 
VERTEX
 8 
1
 10 
0.42156
 20 
0.55677
 30 
0.0
 0 
VERTEX
 8 
1
 10 
0.44646
 20 
0.55978
 30 
0.0
 0 
VERTEX
 8 
1
 10 
0.47138
 20 
0.56252
 30 
0.0
 0 
VERTEX
 8 
1
 10 
0.49633
 20 
0.56496
 30 
0.0
 0 
VERTEX
 8 
1
 10 
0.52122
 20 
0.56705
 30 
0.0
 0 
VERTEX
 8 
1
 10 
0.54645
 20 
0.56874
 30 
0.0
 0 
VERTEX
 8 
1
 10 
0.57176
 20 
0.56999
 30 
0.0
 0 
VERTEX
 8 
1
 10 
0.59687
 20 
0.57079
 30 
0.0
 0 
VERTEX
 8 
1
 10 
0.62206
 20 
0.57121
 30 
0.0
 0 
VERTEX
 8 
1
 10 
0.64709
 20 
0.57129
 30 
0.0
 0 
VERTEX
 8 
1
 10 
0.69715
 20 
0.57064
 30 
0.0
 0 
VERTEX
 8 
1
 10 
0.7474
 20 
0.56905
 30 
0.0
 0 
VERTEX
 8 
1
 10 
0.77263
 20 
0.5679
 30 
0.0
 0 
VERTEX
 8 
1
 10 
0.79785
 20 
0.56647
 30 
0.0
 0 
VERTEX
 8 
1
 10 
0.82318
 20 
0.56467
 30 
0.0
 0 
VERTEX
 8 
1
 10 
0.84856
 20 
0.56237
 30 
0.0
 0 
VERTEX
 8 
1
 10 
0.8742
 20 
0.5593
 30 
0.0
 0 
VERTEX
 8 
1
 10 
0.90006
 20 
0.55506
 30 
0.0
 0 
VERTEX
 8 
1
 10 
0.92636
 20 
0.54895
 30 
0.0
 0 
VERTEX
 8 
1
 10 
0.95268
 20 
0.54005
 30 
0.0
 0 
VERTEX
 8 
1
 10 
0.97641
 20 
0.52792
 30 
0.0
 0 
VERTEX
 8 
1
 10 
0.99064
 20 
0.51671
 30 
0.0
 0 
VERTEX
 8 
1
 10 
0.99713
 20 
0.50865
 30 
0.0
 0 
VERTEX
 8 
1
 10 
1
 20 
0.5
 30 
0.0
 0 
VERTEX
 8 
1
 10 
0.99656
 20 
0.49241
 30 
0.0
 0 
VERTEX
 8 
1
 10 
0.98812
 20 
0.4876
 30 
0.0
 0 
VERTEX
 8 
1
 10 
0.98595
 20 
0.48683
 30 
0.0
 0 
VERTEX
 8 
1
 10 
0.97745
 20 
0.48452
 30 
0.0
 0 
VERTEX
 8 
1
 10 
0.96669
 20 
0.48256
 30 
0.0
 0 
VERTEX
 8 
1
 10 
0.94053
 20 
0.48
 30 
0.0
 0 
VERTEX
 8 
1
 10 
0.91697
 20 
0.47904
 30 
0.0
 0 
VERTEX
 8 
1
 10 
0.8934
 20 
0.47864
 30 
0.0
 0 
VERTEX
 8 
1
 10 
0.8694
 20 
0.47838
 30 
0.0
 0 
VERTEX
 8 
1
 10 
0.8452
 20 
0.47802
 30 
0.0
 0 
VERTEX
 8 
1
 10 
0.82074
 20 
0.47744
 30 
0.0
 0 
VERTEX
 8 
1
 10 
0.79624
 20 
0.47669
 30 
0.0
 0 
VERTEX
 8 
1
 10 
0.77163
 20 
0.47588
 30 
0.0
 0 
VERTEX
 8 
1
 10 
0.74703
 20 
0.47506
 30 
0.0
 0 
VERTEX
 8 
1
 10 
0.69764
 20 
0.4735
 30 
0.0
 0 
VERTEX
 8 
1
 10 
0.64806
 20 
0.47216
 30 
0.0
 0 
VERTEX
 8 
1
 10 
0.62326
 20 
0.47162
 30 
0.0
 0 
VERTEX
 8 
1
 10 
0.59863
 20 
0.47121
 30 
0.0
 0 
VERTEX
 8 
1
 10 
0.57393
 20 
0.47096
 30 
0.0
 0 
VERTEX
 8 
1
 10 
0.54943
 20 
0.47089
 30 
0.0
 0 
VERTEX
 8 
1
 10 
0.52484
 20 
0.47101
 30 
0.0
 0 
VERTEX
 8 
1
 10 
0.49992
 20 
0.47135
 30 
0.0
 0 
VERTEX
 8 
1
 10 
0.47507
 20 
0.47188
 30 
0.0
 0 
VERTEX
 8 
1
 10 
0.45018
 20 
0.47257
 30 
0.0
 0 
VERTEX
 8 
1
 10 
0.42527
 20 
0.47339
 30 
0.0
 0 
VERTEX
 8 
1
 10 
0.40037
 20 
0.4743
 30 
0.0
 0 
VERTEX
 8 
1
 10 
0.3755
 20 
0.47527
 30 
0.0
 0 
VERTEX
 8 
1
 10 
0.3506
 20 
0.47627
 30 
0.0
 0 
VERTEX
 8 
1
 10 
0.32571
 20 
0.47728
 30 
0.0
 0 
VERTEX
 8 
1
 10 
0.30073
 20 
0.4783
 30 
0.0
 0 
VERTEX
 8 
1
 10 
0.27564
 20 
0.47933
 30 
0.0
 0 
VERTEX
 8 
1
 10 
0.25065
 20 
0.48037
 30 
0.0
 0 
VERTEX
 8 
1
 10 
0.22554
 20 
0.48148
 30 
0.0
 0 
VERTEX
 8 
1
 10 
0.20025
 20 
0.4827
 30 
0.0
 0 
VERTEX
 8 
1
 10 
0.17504
 20 
0.48406
 30 
0.0
 0 
VERTEX
 8 
1
 10 
0.1499
 20 
0.48562
 30 
0.0
 0 
VERTEX
 8 
1
 10 
0.12482
 20 
0.48741
 30 
0.0
 0 
VERTEX
 8 
1
 10 
0.09982
 20 
0.48945
 30 
0.0
 0 
VERTEX
 8 
1
 10 
0.07485
 20 
0.49155
 30 
0.0
 0 
VERTEX
 8 
1
 10 
0.04987
 20 
0.49368
 30 
0.0
 0 
VERTEX
 8 
1
 10 
0.02491
 20 
0.49603
 30 
0.0
 0 
VERTEX
 8 
1
 10 
0.0
 20 
0.49921
 30 
0.0
 0 
SEQEND
 8 
1
 0 
ENDSEC
 0 
EOF
