 0 
SECTION
 2 
ENTITIES
 0 
POLYLINE
 8 
1
 66 
 1 
 10 
0.0
 20 
0.0
 30 
0.0
 0 
VERTEX
 8 
1
 10 
0.0
 20 
0.5
 30 
0.0
 0 
VERTEX
 8 
1
 10 
0.0034100
 20 
0.50048
 30 
0.0
 0 
VERTEX
 8 
1
 10 
0.01346
 20 
0.50216
 30 
0.0
 0 
VERTEX
 8 
1
 10 
0.02974
 20 
0.50504
 30 
0.0
 0 
VERTEX
 8 
1
 10 
0.05183
 20 
0.50866
 30 
0.0
 0 
VERTEX
 8 
1
 10 
0.079370
 20 
0.51274
 30 
0.0
 0 
VERTEX
 8 
1
 10 
0.11189
 20 
0.51734
 30 
0.0
 0 
VERTEX
 8 
1
 10 
0.14879
 20 
0.52233
 30 
0.0
 0 
VERTEX
 8 
1
 10 
0.18943
 20 
0.52759
 30 
0.0
 0 
VERTEX
 8 
1
 10 
0.23311
 20 
0.53295
 30 
0.0
 0 
VERTEX
 8 
1
 10 
0.27927
 20 
0.53825
 30 
0.0
 0 
VERTEX
 8 
1
 10 
0.32773
 20 
0.54337
 30 
0.0
 0 
VERTEX
 8 
1
 10 
0.37825
 20 
0.54821
 30 
0.0
 0 
VERTEX
 8 
1
 10 
0.43021
 20 
0.5526
 30 
0.0
 0 
VERTEX
 8 
1
 10 
0.48299
 20 
0.55641
 30 
0.0
 0 
VERTEX
 8 
1
 10 
0.53599
 20 
0.5595
 30 
0.0
 0 
VERTEX
 8 
1
 10 
0.58856
 20 
0.5617
 30 
0.0
 0 
VERTEX
 8 
1
 10 
0.64011
 20 
0.56293
 30 
0.0
 0 
VERTEX
 8 
1
 10 
0.69002
 20 
0.56307
 30 
0.0
 0 
VERTEX
 8 
1
 10 
0.73773
 20 
0.56208
 30 
0.0
 0 
VERTEX
 8 
1
 10 
0.7827
 20 
0.55991
 30 
0.0
 0 
VERTEX
 8 
1
 10 
0.82441
 20 
0.55655
 30 
0.0
 0 
VERTEX
 8 
1
 10 
0.86244
 20 
0.55204
 30 
0.0
 0 
VERTEX
 8 
1
 10 
0.89637
 20 
0.54706
 30 
0.0
 0 
VERTEX
 8 
1
 10 
0.92588
 20 
0.54098
 30 
0.0
 0 
VERTEX
 8 
1
 10 
0.95069
 20 
0.53414
 30 
0.0
 0 
VERTEX
 8 
1
 10 
0.97062
 20 
0.52663
 30 
0.0
 0 
VERTEX
 8 
1
 10 
0.98553
 20 
0.51859
 30 
0.0
 0 
VERTEX
 8 
1
 10 
0.99535
 20 
0.51025
 30 
0.0
 0 
VERTEX
 8 
1
 10 
1
 20 
0.5
 30 
0.0
 0 
VERTEX
 8 
1
 10 
0.99535
 20 
0.49317
 30 
0.0
 0 
VERTEX
 8 
1
 10 
0.98553
 20 
0.48779
 30 
0.0
 0 
VERTEX
 8 
1
 10 
0.97062
 20 
0.48296
 30 
0.0
 0 
VERTEX
 8 
1
 10 
0.95069
 20 
0.47877
 30 
0.0
 0 
VERTEX
 8 
1
 10 
0.92588
 20 
0.4753
 30 
0.0
 0 
VERTEX
 8 
1
 10 
0.89637
 20 
0.47252
 30 
0.0
 0 
VERTEX
 8 
1
 10 
0.86244
 20 
0.47044
 30 
0.0
 0 
VERTEX
 8 
1
 10 
0.82441
 20 
0.46899
 30 
0.0
 0 
VERTEX
 8 
1
 10 
0.7827
 20 
0.46816
 30 
0.0
 0 
VERTEX
 8 
1
 10 
0.73773
 20 
0.46787
 30 
0.0
 0 
VERTEX
 8 
1
 10 
0.69002
 20 
0.46807
 30 
0.0
 0 
VERTEX
 8 
1
 10 
0.64011
 20 
0.46873
 30 
0.0
 0 
VERTEX
 8 
1
 10 
0.58856
 20 
0.46977
 30 
0.0
 0 
VERTEX
 8 
1
 10 
0.53599
 20 
0.47114
 30 
0.0
 0 
VERTEX
 8 
1
 10 
0.48299
 20 
0.47282
 30 
0.0
 0 
VERTEX
 8 
1
 10 
0.43021
 20 
0.47475
 30 
0.0
 0 
VERTEX
 8 
1
 10 
0.37825
 20 
0.47694
 30 
0.0
 0 
VERTEX
 8 
1
 10 
0.32773
 20 
0.47936
 30 
0.0
 0 
VERTEX
 8 
1
 10 
0.27927
 20 
0.48217
 30 
0.0
 0 
VERTEX
 8 
1
 10 
0.23311
 20 
0.4855
 30 
0.0
 0 
VERTEX
 8 
1
 10 
0.18943
 20 
0.48903
 30 
0.0
 0 
VERTEX
 8 
1
 10 
0.14879
 20 
0.49226
 30 
0.0
 0 
VERTEX
 8 
1
 10 
0.11189
 20 
0.49497
 30 
0.0
 0 
VERTEX
 8 
1
 10 
0.079370
 20 
0.49707
 30 
0.0
 0 
VERTEX
 8 
1
 10 
0.05183
 20 
0.49855
 30 
0.0
 0 
VERTEX
 8 
1
 10 
0.02974
 20 
0.49952
 30 
0.0
 0 
VERTEX
 8 
1
 10 
0.01346
 20 
0.5
 30 
0.0
 0 
VERTEX
 8 
1
 10 
0.0034100
 20 
0.50006
 30 
0.0
 0 
VERTEX
 8 
1
 10 
0.0
 20 
0.5
 30 
0.0
 0 
SEQEND
 8 
1
 0 
ENDSEC
 0 
EOF
