 0 
SECTION
 2 
ENTITIES
 0 
POLYLINE
 8 
1
 66 
 1 
 10 
0.0
 20 
0.0
 30 
0.0
 0 
VERTEX
 8 
1
 10 
0.0
 20 
0.5
 30 
0.0
 0 
VERTEX
 8 
1
 10 
0.0033300
 20 
0.50038
 30 
0.0
 0 
VERTEX
 8 
1
 10 
0.01295
 20 
0.50164
 30 
0.0
 0 
VERTEX
 8 
1
 10 
0.02811
 20 
0.50375
 30 
0.0
 0 
VERTEX
 8 
1
 10 
0.04838
 20 
0.50638
 30 
0.0
 0 
VERTEX
 8 
1
 10 
0.07364
 20 
0.50934
 30 
0.0
 0 
VERTEX
 8 
1
 10 
0.10364
 20 
0.51264
 30 
0.0
 0 
VERTEX
 8 
1
 10 
0.13793
 20 
0.51625
 30 
0.0
 0 
VERTEX
 8 
1
 10 
0.17608
 20 
0.52008
 30 
0.0
 0 
VERTEX
 8 
1
 10 
0.21759
 20 
0.52405
 30 
0.0
 0 
VERTEX
 8 
1
 10 
0.272
 20 
0.5286
 30 
0.0
 0 
VERTEX
 8 
1
 10 
0.30877
 20 
0.53198
 30 
0.0
 0 
VERTEX
 8 
1
 10 
0.35733
 20 
0.53572
 30 
0.0
 0 
VERTEX
 8 
1
 10 
0.40715
 20 
0.53918
 30 
0.0
 0 
VERTEX
 8 
1
 10 
0.45769
 20 
0.54225
 30 
0.0
 0 
VERTEX
 8 
1
 10 
0.50842
 20 
0.54483
 30 
0.0
 0 
VERTEX
 8 
1
 10 
0.55882
 20 
0.54684
 30 
0.0
 0 
VERTEX
 8 
1
 10 
0.60837
 20 
0.5482
 30 
0.0
 0 
VERTEX
 8 
1
 10 
0.6566
 20 
0.54885
 30 
0.0
 0 
VERTEX
 8 
1
 10 
0.70302
 20 
0.54874
 30 
0.0
 0 
VERTEX
 8 
1
 10 
0.74723
 20 
0.54783
 30 
0.0
 0 
VERTEX
 8 
1
 10 
0.78881
 20 
0.54613
 30 
0.0
 0 
VERTEX
 8 
1
 10 
0.82742
 20 
0.54363
 30 
0.0
 0 
VERTEX
 8 
1
 10 
0.86271
 20 
0.54039
 30 
0.0
 0 
VERTEX
 8 
1
 10 
0.89442
 20 
0.53644
 30 
0.0
 0 
VERTEX
 8 
1
 10 
0.92228
 20 
0.53187
 30 
0.0
 0 
VERTEX
 8 
1
 10 
0.94608
 20 
0.52678
 30 
0.0
 0 
VERTEX
 8 
1
 10 
0.96569
 20 
0.52128
 30 
0.0
 0 
VERTEX
 8 
1
 10 
0.98095
 20 
0.51554
 30 
0.0
 0 
VERTEX
 8 
1
 10 
0.99199
 20 
0.50976
 30 
0.0
 0 
VERTEX
 8 
1
 10 
0.99837
 20 
0.50433
 30 
0.0
 0 
VERTEX
 8 
1
 10 
1
 20 
0.5
 30 
0.0
 0 
VERTEX
 8 
1
 10 
0.9969
 20 
0.49668
 30 
0.0
 0 
VERTEX
 8 
1
 10 
0.9905
 20 
0.49381
 30 
0.0
 0 
VERTEX
 8 
1
 10 
0.97843
 20 
0.49036
 30 
0.0
 0 
VERTEX
 8 
1
 10 
0.96301
 20 
0.48757
 30 
0.0
 0 
VERTEX
 8 
1
 10 
0.94324
 20 
0.48511
 30 
0.0
 0 
VERTEX
 8 
1
 10 
0.91952
 20 
0.48308
 30 
0.0
 0 
VERTEX
 8 
1
 10 
0.89184
 20 
0.48145
 30 
0.0
 0 
VERTEX
 8 
1
 10 
0.86045
 20 
0.48023
 30 
0.0
 0 
VERTEX
 8 
1
 10 
0.82552
 20 
0.47937
 30 
0.0
 0 
VERTEX
 8 
1
 10 
0.78735
 20 
0.47887
 30 
0.0
 0 
VERTEX
 8 
1
 10 
0.74622
 20 
0.47867
 30 
0.0
 0 
VERTEX
 8 
1
 10 
0.70245
 20 
0.47877
 30 
0.0
 0 
VERTEX
 8 
1
 10 
0.65645
 20 
0.47912
 30 
0.0
 0 
VERTEX
 8 
1
 10 
0.6086
 20 
0.4797
 30 
0.0
 0 
VERTEX
 8 
1
 10 
0.55936
 20 
0.48048
 30 
0.0
 0 
VERTEX
 8 
1
 10 
0.50921
 20 
0.48144
 30 
0.0
 0 
VERTEX
 8 
1
 10 
0.45865
 20 
0.48257
 30 
0.0
 0 
VERTEX
 8 
1
 10 
0.40819
 20 
0.48386
 30 
0.0
 0 
VERTEX
 8 
1
 10 
0.35839
 20 
0.48532
 30 
0.0
 0 
VERTEX
 8 
1
 10 
0.30974
 20 
0.48697
 30 
0.0
 0 
VERTEX
 8 
1
 10 
0.26274
 20 
0.48899
 30 
0.0
 0 
VERTEX
 8 
1
 10 
0.21819
 20 
0.49134
 30 
0.0
 0 
VERTEX
 8 
1
 10 
0.17663
 20 
0.49369
 30 
0.0
 0 
VERTEX
 8 
1
 10 
0.13846
 20 
0.49574
 30 
0.0
 0 
VERTEX
 8 
1
 10 
0.10411
 20 
0.4974
 30 
0.0
 0 
VERTEX
 8 
1
 10 
0.07404
 20 
0.49862
 30 
0.0
 0 
VERTEX
 8 
1
 10 
0.04871
 20 
0.49944
 30 
0.0
 0 
VERTEX
 8 
1
 10 
0.02834
 20 
0.49993
 30 
0.0
 0 
VERTEX
 8 
1
 10 
0.01305
 20 
0.50013
 30 
0.0
 0 
VERTEX
 8 
1
 10 
0.0033499
 20 
0.50008
 30 
0.0
 0 
VERTEX
 8 
1
 10 
0.0
 20 
0.5
 30 
0.0
 0 
SEQEND
 8 
1
 0 
ENDSEC
 0 
EOF
