 0 
SECTION
 2 
ENTITIES
 0 
POLYLINE
 8 
1
 66 
 1 
 10 
0.0
 20 
0.0
 30 
0.0
 0 
VERTEX
 8 
1
 10 
0.0
 20 
0.5
 30 
0.0
 0 
VERTEX
 8 
1
 10 
0.0032799
 20 
0.50059
 30 
0.0
 0 
VERTEX
 8 
1
 10 
0.01272
 20 
0.50249
 30 
0.0
 0 
VERTEX
 8 
1
 10 
0.02758
 20 
0.50565
 30 
0.0
 0 
VERTEX
 8 
1
 10 
0.04745
 20 
0.50956
 30 
0.0
 0 
VERTEX
 8 
1
 10 
0.07226
 20 
0.51395
 30 
0.0
 0 
VERTEX
 8 
1
 10 
0.10179
 20 
0.51886
 30 
0.0
 0 
VERTEX
 8 
1
 10 
0.1356
 20 
0.52424
 30 
0.0
 0 
VERTEX
 8 
1
 10 
0.17326
 20 
0.52996
 30 
0.0
 0 
VERTEX
 8 
1
 10 
0.2143
 20 
0.5359
 30 
0.0
 0 
VERTEX
 8 
1
 10 
0.25822
 20 
0.54189
 30 
0.0
 0 
VERTEX
 8 
1
 10 
0.30452
 20 
0.54779
 30 
0.0
 0 
VERTEX
 8 
1
 10 
0.35267
 20 
0.55341
 30 
0.0
 0 
VERTEX
 8 
1
 10 
0.40213
 20 
0.55858
 30 
0.0
 0 
VERTEX
 8 
1
 10 
0.45237
 20 
0.56313
 30 
0.0
 0 
VERTEX
 8 
1
 10 
0.50288
 20 
0.5669
 30 
0.0
 0 
VERTEX
 8 
1
 10 
0.55317
 20 
0.56979
 30 
0.0
 0 
VERTEX
 8 
1
 10 
0.60272
 20 
0.57173
 30 
0.0
 0 
VERTEX
 8 
1
 10 
0.65103
 20 
0.57262
 30 
0.0
 0 
VERTEX
 8 
1
 10 
0.69764
 20 
0.57241
 30 
0.0
 0 
VERTEX
 8 
1
 10 
0.74211
 20 
0.57105
 30 
0.0
 0 
VERTEX
 8 
1
 10 
0.78405
 20 
0.56854
 30 
0.0
 0 
VERTEX
 8 
1
 10 
0.82306
 20 
0.56488
 30 
0.0
 0 
VERTEX
 8 
1
 10 
0.85883
 20 
0.56012
 30 
0.0
 0 
VERTEX
 8 
1
 10 
0.89105
 20 
0.55435
 30 
0.0
 0 
VERTEX
 8 
1
 10 
0.91945
 20 
0.54767
 30 
0.0
 0 
VERTEX
 8 
1
 10 
0.94381
 20 
0.54023
 30 
0.0
 0 
VERTEX
 8 
1
 10 
0.96396
 20 
0.53222
 30 
0.0
 0 
VERTEX
 8 
1
 10 
0.97972
 20 
0.52379
 30 
0.0
 0 
VERTEX
 8 
1
 10 
0.99112
 20 
0.51533
 30 
0.0
 0 
VERTEX
 8 
1
 10 
0.99786
 20 
0.50714
 30 
0.0
 0 
VERTEX
 8 
1
 10 
1
 20 
0.5
 30 
0.0
 0 
VERTEX
 8 
1
 10 
0.99604
 20 
0.49361
 30 
0.0
 0 
VERTEX
 8 
1
 10 
0.9868
 20 
0.48782
 30 
0.0
 0 
VERTEX
 8 
1
 10 
0.97499
 20 
0.48291
 30 
0.0
 0 
VERTEX
 8 
1
 10 
0.95844
 20 
0.47817
 30 
0.0
 0 
VERTEX
 8 
1
 10 
0.93821
 20 
0.47411
 30 
0.0
 0 
VERTEX
 8 
1
 10 
0.91392
 20 
0.4706
 30 
0.0
 0 
VERTEX
 8 
1
 10 
0.88589
 20 
0.46773
 30 
0.0
 0 
VERTEX
 8 
1
 10 
0.85423
 20 
0.46548
 30 
0.0
 0 
VERTEX
 8 
1
 10 
0.81919
 20 
0.46385
 30 
0.0
 0 
VERTEX
 8 
1
 10 
0.78098
 20 
0.46282
 30 
0.0
 0 
VERTEX
 8 
1
 10 
0.7399
 20 
0.46237
 30 
0.0
 0 
VERTEX
 8 
1
 10 
0.69625
 20 
0.46246
 30 
0.0
 0 
VERTEX
 8 
1
 10 
0.65041
 20 
0.46308
 30 
0.0
 0 
VERTEX
 8 
1
 10 
0.60276
 20 
0.4642
 30 
0.0
 0 
VERTEX
 8 
1
 10 
0.55374
 20 
0.46583
 30 
0.0
 0 
VERTEX
 8 
1
 10 
0.50381
 20 
0.46795
 30 
0.0
 0 
VERTEX
 8 
1
 10 
0.45334
 20 
0.47068
 30 
0.0
 0 
VERTEX
 8 
1
 10 
0.40295
 20 
0.47422
 30 
0.0
 0 
VERTEX
 8 
1
 10 
0.35354
 20 
0.47837
 30 
0.0
 0 
VERTEX
 8 
1
 10 
0.30558
 20 
0.48265
 30 
0.0
 0 
VERTEX
 8 
1
 10 
0.25945
 20 
0.48675
 30 
0.0
 0 
VERTEX
 8 
1
 10 
0.21563
 20 
0.49046
 30 
0.0
 0 
VERTEX
 8 
1
 10 
0.17461
 20 
0.49365
 30 
0.0
 0 
VERTEX
 8 
1
 10 
0.1369
 20 
0.49622
 30 
0.0
 0 
VERTEX
 8 
1
 10 
0.10294
 20 
0.49815
 30 
0.0
 0 
VERTEX
 8 
1
 10 
0.07322
 20 
0.49944
 30 
0.0
 0 
VERTEX
 8 
1
 10 
0.04821
 20 
0.50018
 30 
0.0
 0 
VERTEX
 8 
1
 10 
0.028089
 20 
0.50048
 30 
0.0
 0 
VERTEX
 8 
1
 10 
0.01295
 20 
0.50044
 30 
0.0
 0 
VERTEX
 8 
1
 10 
0.0033300
 20 
0.50017
 30 
0.0
 0 
VERTEX
 8 
1
 10 
0.0
 20 
0.5
 30 
0.0
 0 
SEQEND
 8 
1
 0 
ENDSEC
 0 
EOF
