 0 
SECTION
 2 
ENTITIES
 0 
POLYLINE
 8 
1
 66 
 1 
 10 
0.0
 20 
0.0
 30 
0.0
 0 
VERTEX
 8 
1
 10 
0.0
 20 
0.5
 30 
0.0
 0 
VERTEX
 8 
1
 10 
0.0031900
 20 
0.50011
 30 
0.0
 0 
VERTEX
 8 
1
 10 
0.01258
 20 
0.50058
 30 
0.0
 0 
VERTEX
 8 
1
 10 
0.02781
 20 
0.50153
 30 
0.0
 0 
VERTEX
 8 
1
 10 
0.04847
 20 
0.50292
 30 
0.0
 0 
VERTEX
 8 
1
 10 
0.07428
 20 
0.50466
 30 
0.0
 0 
VERTEX
 8 
1
 10 
0.10493
 20 
0.50673
 30 
0.0
 0 
VERTEX
 8 
1
 10 
0.13996
 20 
0.50916
 30 
0.0
 0 
VERTEX
 8 
1
 10 
0.17886
 20 
0.51188
 30 
0.0
 0 
VERTEX
 8 
1
 10 
0.22107
 20 
0.51477
 30 
0.0
 0 
VERTEX
 8 
1
 10 
0.26602
 20 
0.51763
 30 
0.0
 0 
VERTEX
 8 
1
 10 
0.31328
 20 
0.52014
 30 
0.0
 0 
VERTEX
 8 
1
 10 
0.36262
 20 
0.5222
 30 
0.0
 0 
VERTEX
 8 
1
 10 
0.41363
 20 
0.52394
 30 
0.0
 0 
VERTEX
 8 
1
 10 
0.46574
 20 
0.52546
 30 
0.0
 0 
VERTEX
 8 
1
 10 
0.51832
 20 
0.52678
 30 
0.0
 0 
VERTEX
 8 
1
 10 
0.57074
 20 
0.5279
 30 
0.0
 0 
VERTEX
 8 
1
 10 
0.62241
 20 
0.52883
 30 
0.0
 0 
VERTEX
 8 
1
 10 
0.67269
 20 
0.52952
 30 
0.0
 0 
VERTEX
 8 
1
 10 
0.72101
 20 
0.52996
 30 
0.0
 0 
VERTEX
 8 
1
 10 
0.76678
 20 
0.53011
 30 
0.0
 0 
VERTEX
 8 
1
 10 
0.80947
 20 
0.52992
 30 
0.0
 0 
VERTEX
 8 
1
 10 
0.84853
 20 
0.52931
 30 
0.0
 0 
VERTEX
 8 
1
 10 
0.88353
 20 
0.52816
 30 
0.0
 0 
VERTEX
 8 
1
 10 
0.91411
 20 
0.52633
 30 
0.0
 0 
VERTEX
 8 
1
 10 
0.94004
 20 
0.52363
 30 
0.0
 0 
VERTEX
 8 
1
 10 
0.96131
 20 
0.52003
 30 
0.0
 0 
VERTEX
 8 
1
 10 
0.97791
 20 
0.51557
 30 
0.0
 0 
VERTEX
 8 
1
 10 
0.98993
 20 
0.51044
 30 
0.0
 0 
VERTEX
 8 
1
 10 
0.99741
 20 
0.505
 30 
0.0
 0 
VERTEX
 8 
1
 10 
1
 20 
0.5
 30 
0.0
 0 
VERTEX
 8 
1
 10 
0.99741
 20 
0.495
 30 
0.0
 0 
VERTEX
 8 
1
 10 
0.98993
 20 
0.48956
 30 
0.0
 0 
VERTEX
 8 
1
 10 
0.97791
 20 
0.48443
 30 
0.0
 0 
VERTEX
 8 
1
 10 
0.96131
 20 
0.47997
 30 
0.0
 0 
VERTEX
 8 
1
 10 
0.94004
 20 
0.47637
 30 
0.0
 0 
VERTEX
 8 
1
 10 
0.91411
 20 
0.47367
 30 
0.0
 0 
VERTEX
 8 
1
 10 
0.88353
 20 
0.47184
 30 
0.0
 0 
VERTEX
 8 
1
 10 
0.84853
 20 
0.47069
 30 
0.0
 0 
VERTEX
 8 
1
 10 
0.80947
 20 
0.47008
 30 
0.0
 0 
VERTEX
 8 
1
 10 
0.76678
 20 
0.46989
 30 
0.0
 0 
VERTEX
 8 
1
 10 
0.72101
 20 
0.47004
 30 
0.0
 0 
VERTEX
 8 
1
 10 
0.67269
 20 
0.47048
 30 
0.0
 0 
VERTEX
 8 
1
 10 
0.62241
 20 
0.47117
 30 
0.0
 0 
VERTEX
 8 
1
 10 
0.57074
 20 
0.4721
 30 
0.0
 0 
VERTEX
 8 
1
 10 
0.51832
 20 
0.47322
 30 
0.0
 0 
VERTEX
 8 
1
 10 
0.46574
 20 
0.47454
 30 
0.0
 0 
VERTEX
 8 
1
 10 
0.41363
 20 
0.47606
 30 
0.0
 0 
VERTEX
 8 
1
 10 
0.36262
 20 
0.4778
 30 
0.0
 0 
VERTEX
 8 
1
 10 
0.31328
 20 
0.47986
 30 
0.0
 0 
VERTEX
 8 
1
 10 
0.26602
 20 
0.48237
 30 
0.0
 0 
VERTEX
 8 
1
 10 
0.22107
 20 
0.48523
 30 
0.0
 0 
VERTEX
 8 
1
 10 
0.17886
 20 
0.48812
 30 
0.0
 0 
VERTEX
 8 
1
 10 
0.13996
 20 
0.49084
 30 
0.0
 0 
VERTEX
 8 
1
 10 
0.10493
 20 
0.49327
 30 
0.0
 0 
VERTEX
 8 
1
 10 
0.07428
 20 
0.49534
 30 
0.0
 0 
VERTEX
 8 
1
 10 
0.04847
 20 
0.49708
 30 
0.0
 0 
VERTEX
 8 
1
 10 
0.02781
 20 
0.49847
 30 
0.0
 0 
VERTEX
 8 
1
 10 
0.01258
 20 
0.49942
 30 
0.0
 0 
VERTEX
 8 
1
 10 
0.0031900
 20 
0.49989
 30 
0.0
 0 
VERTEX
 8 
1
 10 
0.0
 20 
0.5
 30 
0.0
 0 
SEQEND
 8 
1
 0 
ENDSEC
 0 
EOF
