 0 
SECTION
 2 
ENTITIES
 0 
POLYLINE
 8 
1
 66 
 1 
 10 
0.0
 20 
0.0
 30 
0.0
 0 
VERTEX
 8 
1
 10 
0.0
 20 
0.5
 30 
0.0
 0 
VERTEX
 8 
1
 10 
0.0036300
 20 
0.50132
 30 
0.0
 0 
VERTEX
 8 
1
 10 
0.01367
 20 
0.50544
 30 
0.0
 0 
VERTEX
 8 
1
 10 
0.02862
 20 
0.51201
 30 
0.0
 0 
VERTEX
 8 
1
 10 
0.04779
 20 
0.51987
 30 
0.0
 0 
VERTEX
 8 
1
 10 
0.07142
 20 
0.52824
 30 
0.0
 0 
VERTEX
 8 
1
 10 
0.09963
 20 
0.53716
 30 
0.0
 0 
VERTEX
 8 
1
 10 
0.13198
 20 
0.54669
 30 
0.0
 0 
VERTEX
 8 
1
 10 
0.16794
 20 
0.55668
 30 
0.0
 0 
VERTEX
 8 
1
 10 
0.20697
 20 
0.5669
 30 
0.0
 0 
VERTEX
 8 
1
 10 
0.2485
 20 
0.57709
 30 
0.0
 0 
VERTEX
 8 
1
 10 
0.292
 20 
0.58691
 30 
0.0
 0 
VERTEX
 8 
1
 10 
0.33701
 20 
0.59599
 30 
0.0
 0 
VERTEX
 8 
1
 10 
0.38314
 20 
0.60404
 30 
0.0
 0 
VERTEX
 8 
1
 10 
0.42999
 20 
0.61082
 30 
0.0
 0 
VERTEX
 8 
1
 10 
0.47719
 20 
0.61615
 30 
0.0
 0 
VERTEX
 8 
1
 10 
0.52435
 20 
0.61991
 30 
0.0
 0 
VERTEX
 8 
1
 10 
0.57107
 20 
0.622
 30 
0.0
 0 
VERTEX
 8 
1
 10 
0.61692
 20 
0.62232
 30 
0.0
 0 
VERTEX
 8 
1
 10 
0.66159
 20 
0.62081
 30 
0.0
 0 
VERTEX
 8 
1
 10 
0.70479
 20 
0.61747
 30 
0.0
 0 
VERTEX
 8 
1
 10 
0.74621
 20 
0.61243
 30 
0.0
 0 
VERTEX
 8 
1
 10 
0.78553
 20 
0.60583
 30 
0.0
 0 
VERTEX
 8 
1
 10 
0.82241
 20 
0.59786
 30 
0.0
 0 
VERTEX
 8 
1
 10 
0.85652
 20 
0.58869
 30 
0.0
 0 
VERTEX
 8 
1
 10 
0.88754
 20 
0.5785
 30 
0.0
 0 
VERTEX
 8 
1
 10 
0.91521
 20 
0.56752
 30 
0.0
 0 
VERTEX
 8 
1
 10 
0.93931
 20 
0.55597
 30 
0.0
 0 
VERTEX
 8 
1
 10 
0.95964
 20 
0.54414
 30 
0.0
 0 
VERTEX
 8 
1
 10 
0.97601
 20 
0.53235
 30 
0.0
 0 
VERTEX
 8 
1
 10 
0.98828
 20 
0.52092
 30 
0.0
 0 
VERTEX
 8 
1
 10 
0.99632
 20 
0.5103
 30 
0.0
 0 
VERTEX
 8 
1
 10 
0.99994
 20 
0.50111
 30 
0.0
 0 
VERTEX
 8 
1
 10 
0.9979
 20 
0.49403
 30 
0.0
 0 
VERTEX
 8 
1
 10 
0.98952
 20 
0.48824
 30 
0.0
 0 
VERTEX
 8 
1
 10 
0.97547
 20 
0.48284
 30 
0.0
 0 
VERTEX
 8 
1
 10 
0.95613
 20 
0.47807
 30 
0.0
 0 
VERTEX
 8 
1
 10 
0.93178
 20 
0.47404
 30 
0.0
 0 
VERTEX
 8 
1
 10 
0.90271
 20 
0.47081
 30 
0.0
 0 
VERTEX
 8 
1
 10 
0.86923
 20 
0.46842
 30 
0.0
 0 
VERTEX
 8 
1
 10 
0.83172
 20 
0.46691
 30 
0.0
 0 
VERTEX
 8 
1
 10 
0.79057
 20 
0.4663
 30 
0.0
 0 
VERTEX
 8 
1
 10 
0.74622
 20 
0.46666
 30 
0.0
 0 
VERTEX
 8 
1
 10 
0.69914
 20 
0.46801
 30 
0.0
 0 
VERTEX
 8 
1
 10 
0.64977
 20 
0.47043
 30 
0.0
 0 
VERTEX
 8 
1
 10 
0.59841
 20 
0.47403
 30 
0.0
 0 
VERTEX
 8 
1
 10 
0.5452
 20 
0.47859
 30 
0.0
 0 
VERTEX
 8 
1
 10 
0.49061
 20 
0.48361
 30 
0.0
 0 
VERTEX
 8 
1
 10 
0.43534
 20 
0.48874
 30 
0.0
 0 
VERTEX
 8 
1
 10 
0.3801
 20 
0.4937
 30 
0.0
 0 
VERTEX
 8 
1
 10 
0.32562
 20 
0.49822
 30 
0.0
 0 
VERTEX
 8 
1
 10 
0.27269
 20 
0.50203
 30 
0.0
 0 
VERTEX
 8 
1
 10 
0.22215
 20 
0.50495
 30 
0.0
 0 
VERTEX
 8 
1
 10 
0.17485
 20 
0.50682
 30 
0.0
 0 
VERTEX
 8 
1
 10 
0.13164
 20 
0.5076
 30 
0.0
 0 
VERTEX
 8 
1
 10 
0.09337
 20 
0.50733
 30 
0.0
 0 
VERTEX
 8 
1
 10 
0.06082
 20 
0.50618
 30 
0.0
 0 
VERTEX
 8 
1
 10 
0.03469
 20 
0.50441
 30 
0.0
 0 
VERTEX
 8 
1
 10 
0.01557
 20 
0.50242
 30 
0.0
 0 
VERTEX
 8 
1
 10 
0.0039099
 20 
0.50071
 30 
0.0
 0 
VERTEX
 8 
1
 10 
0.0
 20 
0.5
 30 
0.0
 0 
SEQEND
 8 
1
 0 
ENDSEC
 0 
EOF
