 0 
SECTION
 2 
ENTITIES
 0 
POLYLINE
 8 
1
 66 
 1 
 10 
0.0
 20 
0.0
 30 
0.0
 0 
VERTEX
 8 
1
 10 
0.0
 20 
0.5
 30 
0.0
 0 
VERTEX
 8 
1
 10 
0.0031600
 20 
0.50049
 30 
0.0
 0 
VERTEX
 8 
1
 10 
0.01244
 20 
0.50202
 30 
0.0
 0 
VERTEX
 8 
1
 10 
0.02737
 20 
0.50462
 30 
0.0
 0 
VERTEX
 8 
1
 10 
0.04753
 20 
0.50812
 30 
0.0
 0 
VERTEX
 8 
1
 10 
0.07263
 20 
0.51233
 30 
0.0
 0 
VERTEX
 8 
1
 10 
0.1034
 20 
0.51717
 30 
0.0
 0 
VERTEX
 8 
1
 10 
0.13621
 20 
0.52256
 30 
0.0
 0 
VERTEX
 8 
1
 10 
0.17376
 20 
0.52835
 30 
0.0
 0 
VERTEX
 8 
1
 10 
0.21448
 20 
0.53433
 30 
0.0
 0 
VERTEX
 8 
1
 10 
0.25789
 20 
0.54029
 30 
0.0
 0 
VERTEX
 8 
1
 10 
0.3035
 20 
0.54603
 30 
0.0
 0 
VERTEX
 8 
1
 10 
0.35085
 20 
0.55136
 30 
0.0
 0 
VERTEX
 8 
1
 10 
0.39947
 20 
0.55608
 30 
0.0
 0 
VERTEX
 8 
1
 10 
0.44892
 20 
0.56005
 30 
0.0
 0 
VERTEX
 8 
1
 10 
0.49878
 20 
0.56316
 30 
0.0
 0 
VERTEX
 8 
1
 10 
0.54863
 20 
0.5654
 30 
0.0
 0 
VERTEX
 8 
1
 10 
0.59797
 20 
0.56678
 30 
0.0
 0 
VERTEX
 8 
1
 10 
0.64626
 20 
0.56732
 30 
0.0
 0 
VERTEX
 8 
1
 10 
0.69297
 20 
0.567
 30 
0.0
 0 
VERTEX
 8 
1
 10 
0.73757
 20 
0.56577
 30 
0.0
 0 
VERTEX
 8 
1
 10 
0.7796
 20 
0.56357
 30 
0.0
 0 
VERTEX
 8 
1
 10 
0.81871
 20 
0.56031
 30 
0.0
 0 
VERTEX
 8 
1
 10 
0.85461
 20 
0.556
 30 
0.0
 0 
VERTEX
 8 
1
 10 
0.88709
 20 
0.55071
 30 
0.0
 0 
VERTEX
 8 
1
 10 
0.91594
 20 
0.54462
 30 
0.0
 0 
VERTEX
 8 
1
 10 
0.94088
 20 
0.53795
 30 
0.0
 0 
VERTEX
 8 
1
 10 
0.96162
 20 
0.53089
 30 
0.0
 0 
VERTEX
 8 
1
 10 
0.97791
 20 
0.52352
 30 
0.0
 0 
VERTEX
 8 
1
 10 
0.98964
 20 
0.51588
 30 
0.0
 0 
VERTEX
 8 
1
 10 
0.99693
 20 
0.50813
 30 
0.0
 0 
VERTEX
 8 
1
 10 
0.99997
 20 
0.50077
 30 
0.0
 0 
VERTEX
 8 
1
 10 
1
 20 
0.5
 30 
0.0
 0 
VERTEX
 8 
1
 10 
0.99808
 20 
0.49464
 30 
0.0
 0 
VERTEX
 8 
1
 10 
0.99078
 20 
0.48941
 30 
0.0
 0 
VERTEX
 8 
1
 10 
0.97846
 20 
0.48465
 30 
0.0
 0 
VERTEX
 8 
1
 10 
0.96125
 20 
0.48081
 30 
0.0
 0 
VERTEX
 8 
1
 10 
0.93908
 20 
0.478
 30 
0.0
 0 
VERTEX
 8 
1
 10 
0.91193
 20 
0.47617
 30 
0.0
 0 
VERTEX
 8 
1
 10 
0.87999
 20 
0.47508
 30 
0.0
 0 
VERTEX
 8 
1
 10 
0.84371
 20 
0.47458
 30 
0.0
 0 
VERTEX
 8 
1
 10 
0.80353
 20 
0.47464
 30 
0.0
 0 
VERTEX
 8 
1
 10 
0.75998
 20 
0.47519
 30 
0.0
 0 
VERTEX
 8 
1
 10 
0.71356
 20 
0.47627
 30 
0.0
 0 
VERTEX
 8 
1
 10 
0.66486
 20 
0.47794
 30 
0.0
 0 
VERTEX
 8 
1
 10 
0.61433
 20 
0.48033
 30 
0.0
 0 
VERTEX
 8 
1
 10 
0.56231
 20 
0.48345
 30 
0.0
 0 
VERTEX
 8 
1
 10 
0.50917
 20 
0.48716
 30 
0.0
 0 
VERTEX
 8 
1
 10 
0.45535
 20 
0.49124
 30 
0.0
 0 
VERTEX
 8 
1
 10 
0.40137
 20 
0.49539
 30 
0.0
 0 
VERTEX
 8 
1
 10 
0.34787
 20 
0.49932
 30 
0.0
 0 
VERTEX
 8 
1
 10 
0.29554
 20 
0.50276
 30 
0.0
 0 
VERTEX
 8 
1
 10 
0.24509
 20 
0.50546
 30 
0.0
 0 
VERTEX
 8 
1
 10 
0.19731
 20 
0.50717
 30 
0.0
 0 
VERTEX
 8 
1
 10 
0.15311
 20 
0.50768
 30 
0.0
 0 
VERTEX
 8 
1
 10 
0.11351
 20 
0.5071
 30 
0.0
 0 
VERTEX
 8 
1
 10 
0.07927
 20 
0.50578
 30 
0.0
 0 
VERTEX
 8 
1
 10 
0.05091
 20 
0.50412
 30 
0.0
 0 
VERTEX
 8 
1
 10 
0.02871
 20 
0.50249
 30 
0.0
 0 
VERTEX
 8 
1
 10 
0.01279
 20 
0.50116
 30 
0.0
 0 
VERTEX
 8 
1
 10 
0.0032100
 20 
0.5003
 30 
0.0
 0 
VERTEX
 8 
1
 10 
0.0
 20 
0.5
 30 
0.0
 0 
SEQEND
 8 
1
 0 
ENDSEC
 0 
EOF
