 0 
SECTION
 2 
ENTITIES
 0 
POLYLINE
 8 
1
 66 
 1 
 10 
0.0
 20 
0.0
 30 
0.0
 0 
VERTEX
 8 
1
 10 
0.0
 20 
0.5
 30 
0.0
 0 
VERTEX
 8 
1
 10 
0.0032900
 20 
0.50045
 30 
0.0
 0 
VERTEX
 8 
1
 10 
0.0129
 20 
0.50196
 30 
0.0
 0 
VERTEX
 8 
1
 10 
0.02826
 20 
0.5047
 30 
0.0
 0 
VERTEX
 8 
1
 10 
0.04874
 20 
0.50855
 30 
0.0
 0 
VERTEX
 8 
1
 10 
0.07383
 20 
0.5132
 30 
0.0
 0 
VERTEX
 8 
1
 10 
0.10317
 20 
0.51825
 30 
0.0
 0 
VERTEX
 8 
1
 10 
0.13657
 20 
0.52345
 30 
0.0
 0 
VERTEX
 8 
1
 10 
0.17377
 20 
0.52877
 30 
0.0
 0 
VERTEX
 8 
1
 10 
0.21428
 20 
0.53418
 30 
0.0
 0 
VERTEX
 8 
1
 10 
0.25757
 20 
0.53954
 30 
0.0
 0 
VERTEX
 8 
1
 10 
0.30309
 20 
0.54467
 30 
0.0
 0 
VERTEX
 8 
1
 10 
0.35032
 20 
0.54934
 30 
0.0
 0 
VERTEX
 8 
1
 10 
0.39885
 20 
0.55332
 30 
0.0
 0 
VERTEX
 8 
1
 10 
0.44829
 20 
0.55649
 30 
0.0
 0 
VERTEX
 8 
1
 10 
0.49824
 20 
0.55879
 30 
0.0
 0 
VERTEX
 8 
1
 10 
0.54828
 20 
0.56025
 30 
0.0
 0 
VERTEX
 8 
1
 10 
0.59788
 20 
0.56093
 30 
0.0
 0 
VERTEX
 8 
1
 10 
0.6465
 20 
0.56086
 30 
0.0
 0 
VERTEX
 8 
1
 10 
0.6936
 20 
0.56004
 30 
0.0
 0 
VERTEX
 8 
1
 10 
0.73868
 20 
0.55849
 30 
0.0
 0 
VERTEX
 8 
1
 10 
0.78122
 20 
0.55621
 30 
0.0
 0 
VERTEX
 8 
1
 10 
0.82075
 20 
0.55318
 30 
0.0
 0 
VERTEX
 8 
1
 10 
0.85681
 20 
0.54935
 30 
0.0
 0 
VERTEX
 8 
1
 10 
0.88913
 20 
0.54457
 30 
0.0
 0 
VERTEX
 8 
1
 10 
0.91768
 20 
0.53887
 30 
0.0
 0 
VERTEX
 8 
1
 10 
0.94235
 20 
0.53256
 30 
0.0
 0 
VERTEX
 8 
1
 10 
0.96285
 20 
0.5259
 30 
0.0
 0 
VERTEX
 8 
1
 10 
0.97894
 20 
0.51905
 30 
0.0
 0 
VERTEX
 8 
1
 10 
0.9905
 20 
0.51218
 30 
0.0
 0 
VERTEX
 8 
1
 10 
0.99751
 20 
0.50552
 30 
0.0
 0 
VERTEX
 8 
1
 10 
0.99999
 20 
0.49972
 30 
0.0
 0 
VERTEX
 8 
1
 10 
0.99693
 20 
0.49494
 30 
0.0
 0 
VERTEX
 8 
1
 10 
0.988
 20 
0.49057
 30 
0.0
 0 
VERTEX
 8 
1
 10 
0.97397
 20 
0.48661
 30 
0.0
 0 
VERTEX
 8 
1
 10 
0.95482
 20 
0.48333
 30 
0.0
 0 
VERTEX
 8 
1
 10 
0.93058
 20 
0.48066
 30 
0.0
 0 
VERTEX
 8 
1
 10 
0.90148
 20 
0.47848
 30 
0.0
 0 
VERTEX
 8 
1
 10 
0.8679
 20 
0.47673
 30 
0.0
 0 
VERTEX
 8 
1
 10 
0.83028
 20 
0.47539
 30 
0.0
 0 
VERTEX
 8 
1
 10 
0.78904
 20 
0.47447
 30 
0.0
 0 
VERTEX
 8 
1
 10 
0.74469
 20 
0.474
 30 
0.0
 0 
VERTEX
 8 
1
 10 
0.69775
 20 
0.474
 30 
0.0
 0 
VERTEX
 8 
1
 10 
0.64873
 20 
0.47454
 30 
0.0
 0 
VERTEX
 8 
1
 10 
0.59811
 20 
0.47568
 30 
0.0
 0 
VERTEX
 8 
1
 10 
0.54637
 20 
0.4774
 30 
0.0
 0 
VERTEX
 8 
1
 10 
0.49404
 20 
0.4797
 30 
0.0
 0 
VERTEX
 8 
1
 10 
0.44154
 20 
0.48264
 30 
0.0
 0 
VERTEX
 8 
1
 10 
0.38916
 20 
0.48605
 30 
0.0
 0 
VERTEX
 8 
1
 10 
0.3374
 20 
0.48951
 30 
0.0
 0 
VERTEX
 8 
1
 10 
0.28698
 20 
0.49276
 30 
0.0
 0 
VERTEX
 8 
1
 10 
0.23861
 20 
0.49561
 30 
0.0
 0 
VERTEX
 8 
1
 10 
0.193
 20 
0.49792
 30 
0.0
 0 
VERTEX
 8 
1
 10 
0.15086
 20 
0.4996
 30 
0.0
 0 
VERTEX
 8 
1
 10 
0.11288
 20 
0.50067
 30 
0.0
 0 
VERTEX
 8 
1
 10 
0.07964
 20 
0.5012
 30 
0.0
 0 
VERTEX
 8 
1
 10 
0.05167
 20 
0.50127
 30 
0.0
 0 
VERTEX
 8 
1
 10 
0.02941
 20 
0.50102
 30 
0.0
 0 
VERTEX
 8 
1
 10 
0.01319
 20 
0.5006
 30 
0.0
 0 
VERTEX
 8 
1
 10 
0.0033100
 20 
0.50018
 30 
0.0
 0 
VERTEX
 8 
1
 10 
0.0
 20 
0.5
 30 
0.0
 0 
SEQEND
 8 
1
 0 
ENDSEC
 0 
EOF
