 0 
SECTION
 2 
ENTITIES
 0 
POLYLINE
 8 
1
 66 
 1 
 10 
0.0
 20 
0.0
 30 
0.0
 0 
VERTEX
 8 
1
 10 
0.0
 20 
0.5
 30 
0.0
 0 
VERTEX
 8 
1
 10 
0.0032299
 20 
0.5004
 30 
0.0
 0 
VERTEX
 8 
1
 10 
0.01266
 20 
0.50172
 30 
0.0
 0 
VERTEX
 8 
1
 10 
0.02777
 20 
0.50403
 30 
0.0
 0 
VERTEX
 8 
1
 10 
0.04809
 20 
0.50714
 30 
0.0
 0 
VERTEX
 8 
1
 10 
0.07333
 20 
0.51085
 30 
0.0
 0 
VERTEX
 8 
1
 10 
0.10317
 20 
0.51507
 30 
0.0
 0 
VERTEX
 8 
1
 10 
0.13719
 20 
0.51971
 30 
0.0
 0 
VERTEX
 8 
1
 10 
0.17492
 20 
0.52465
 30 
0.0
 0 
VERTEX
 8 
1
 10 
0.21586
 20 
0.52972
 30 
0.0
 0 
VERTEX
 8 
1
 10 
0.25952
 20 
0.5347
 30 
0.0
 0 
VERTEX
 8 
1
 10 
0.30549
 20 
0.53941
 30 
0.0
 0 
VERTEX
 8 
1
 10 
0.35332
 20 
0.54372
 30 
0.0
 0 
VERTEX
 8 
1
 10 
0.40253
 20 
0.54756
 30 
0.0
 0 
VERTEX
 8 
1
 10 
0.4526
 20 
0.55083
 30 
0.0
 0 
VERTEX
 8 
1
 10 
0.50302
 20 
0.55345
 30 
0.0
 0 
VERTEX
 8 
1
 10 
0.55329
 20 
0.55536
 30 
0.0
 0 
VERTEX
 8 
1
 10 
0.6029
 20 
0.55649
 30 
0.0
 0 
VERTEX
 8 
1
 10 
0.65134
 20 
0.55682
 30 
0.0
 0 
VERTEX
 8 
1
 10 
0.69814
 20 
0.55631
 30 
0.0
 0 
VERTEX
 8 
1
 10 
0.74282
 20 
0.55495
 30 
0.0
 0 
VERTEX
 8 
1
 10 
0.78495
 20 
0.55274
 30 
0.0
 0 
VERTEX
 8 
1
 10 
0.82413
 20 
0.54968
 30 
0.0
 0 
VERTEX
 8 
1
 10 
0.86001
 20 
0.54579
 30 
0.0
 0 
VERTEX
 8 
1
 10 
0.89228
 20 
0.54112
 30 
0.0
 0 
VERTEX
 8 
1
 10 
0.92069
 20 
0.53575
 30 
0.0
 0 
VERTEX
 8 
1
 10 
0.94501
 20 
0.5298
 30 
0.0
 0 
VERTEX
 8 
1
 10 
0.96507
 20 
0.5234
 30 
0.0
 0 
VERTEX
 8 
1
 10 
0.98077
 20 
0.51676
 30 
0.0
 0 
VERTEX
 8 
1
 10 
0.99198
 20 
0.51015
 30 
0.0
 0 
VERTEX
 8 
1
 10 
0.99858
 20 
0.50395
 30 
0.0
 0 
VERTEX
 8 
1
 10 
0.99979
 20 
0.49851
 30 
0.0
 0 
VERTEX
 8 
1
 10 
0.99554
 20 
0.49335
 30 
0.0
 0 
VERTEX
 8 
1
 10 
0.9865
 20 
0.4883
 30 
0.0
 0 
VERTEX
 8 
1
 10 
0.97266
 20 
0.484
 30 
0.0
 0 
VERTEX
 8 
1
 10 
0.95384
 20 
0.48058
 30 
0.0
 0 
VERTEX
 8 
1
 10 
0.93006
 20 
0.47801
 30 
0.0
 0 
VERTEX
 8 
1
 10 
0.90148
 20 
0.47621
 30 
0.0
 0 
VERTEX
 8 
1
 10 
0.86835
 20 
0.47511
 30 
0.0
 0 
VERTEX
 8 
1
 10 
0.831
 20 
0.47465
 30 
0.0
 0 
VERTEX
 8 
1
 10 
0.7898
 20 
0.47476
 30 
0.0
 0 
VERTEX
 8 
1
 10 
0.74522
 20 
0.47533
 30 
0.0
 0 
VERTEX
 8 
1
 10 
0.69776
 20 
0.47633
 30 
0.0
 0 
VERTEX
 8 
1
 10 
0.64795
 20 
0.47767
 30 
0.0
 0 
VERTEX
 8 
1
 10 
0.59637
 20 
0.4793
 30 
0.0
 0 
VERTEX
 8 
1
 10 
0.54362
 20 
0.48117
 30 
0.0
 0 
VERTEX
 8 
1
 10 
0.49032
 20 
0.48324
 30 
0.0
 0 
VERTEX
 8 
1
 10 
0.43709
 20 
0.48553
 30 
0.0
 0 
VERTEX
 8 
1
 10 
0.38443
 20 
0.48808
 30 
0.0
 0 
VERTEX
 8 
1
 10 
0.33277
 20 
0.49076
 30 
0.0
 0 
VERTEX
 8 
1
 10 
0.28269
 20 
0.49333
 30 
0.0
 0 
VERTEX
 8 
1
 10 
0.23484
 20 
0.49562
 30 
0.0
 0 
VERTEX
 8 
1
 10 
0.18989
 20 
0.49755
 30 
0.0
 0 
VERTEX
 8 
1
 10 
0.14846
 20 
0.49906
 30 
0.0
 0 
VERTEX
 8 
1
 10 
0.11114
 20 
0.50012
 30 
0.0
 0 
VERTEX
 8 
1
 10 
0.07846
 20 
0.50074
 30 
0.0
 0 
VERTEX
 8 
1
 10 
0.05092
 20 
0.50095
 30 
0.0
 0 
VERTEX
 8 
1
 10 
0.028970
 20 
0.50083
 30 
0.0
 0 
VERTEX
 8 
1
 10 
0.012989
 20 
0.50051
 30 
0.0
 0 
VERTEX
 8 
1
 10 
0.00327
 20 
0.50016
 30 
0.0
 0 
VERTEX
 8 
1
 10 
0.0
 20 
0.5
 30 
0.0
 0 
SEQEND
 8 
1
 0 
ENDSEC
 0 
EOF
