 0 
SECTION
 2 
ENTITIES
 0 
POLYLINE
 8 
1
 66 
 1 
 10 
0.0
 20 
0.0
 30 
0.0
 0 
VERTEX
 8 
1
 10 
0.0
 20 
0.5
 30 
0.0
 0 
VERTEX
 8 
1
 10 
0.0032600
 20 
0.50035
 30 
0.0
 0 
VERTEX
 8 
1
 10 
0.01293
 20 
0.5015
 30 
0.0
 0 
VERTEX
 8 
1
 10 
0.02874
 20 
0.50367
 30 
0.0
 0 
VERTEX
 8 
1
 10 
0.0503
 20 
0.50699
 30 
0.0
 0 
VERTEX
 8 
1
 10 
0.07708
 20 
0.5115
 30 
0.0
 0 
VERTEX
 8 
1
 10 
0.10853
 20 
0.51713
 30 
0.0
 0 
VERTEX
 8 
1
 10 
0.14405
 20 
0.52373
 30 
0.0
 0 
VERTEX
 8 
1
 10 
0.18306
 20 
0.53107
 30 
0.0
 0 
VERTEX
 8 
1
 10 
0.22499
 20 
0.53888
 30 
0.0
 0 
VERTEX
 8 
1
 10 
0.26929
 20 
0.54688
 30 
0.0
 0 
VERTEX
 8 
1
 10 
0.31545
 20 
0.55478
 30 
0.0
 0 
VERTEX
 8 
1
 10 
0.36299
 20 
0.56231
 30 
0.0
 0 
VERTEX
 8 
1
 10 
0.41144
 20 
0.5692
 30 
0.0
 0 
VERTEX
 8 
1
 10 
0.46034
 20 
0.57525
 30 
0.0
 0 
VERTEX
 8 
1
 10 
0.50927
 20 
0.58028
 30 
0.0
 0 
VERTEX
 8 
1
 10 
0.5578
 20 
0.58415
 30 
0.0
 0 
VERTEX
 8 
1
 10 
0.6055
 20 
0.58676
 30 
0.0
 0 
VERTEX
 8 
1
 10 
0.65195
 20 
0.58804
 30 
0.0
 0 
VERTEX
 8 
1
 10 
0.69677
 20 
0.58793
 30 
0.0
 0 
VERTEX
 8 
1
 10 
0.73957
 20 
0.58643
 30 
0.0
 0 
VERTEX
 8 
1
 10 
0.77998
 20 
0.58355
 30 
0.0
 0 
VERTEX
 8 
1
 10 
0.81768
 20 
0.57933
 30 
0.0
 0 
VERTEX
 8 
1
 10 
0.85235
 20 
0.57381
 30 
0.0
 0 
VERTEX
 8 
1
 10 
0.88378
 20 
0.56708
 30 
0.0
 0 
VERTEX
 8 
1
 10 
0.91177
 20 
0.55927
 30 
0.0
 0 
VERTEX
 8 
1
 10 
0.93616
 20 
0.55059
 30 
0.0
 0 
VERTEX
 8 
1
 10 
0.9568
 20 
0.5413
 30 
0.0
 0 
VERTEX
 8 
1
 10 
0.97355
 20 
0.53168
 30 
0.0
 0 
VERTEX
 8 
1
 10 
0.98626
 20 
0.52204
 30 
0.0
 0 
VERTEX
 8 
1
 10 
0.99483
 20 
0.51269
 30 
0.0
 0 
VERTEX
 8 
1
 10 
0.99924
 20 
0.50401
 30 
0.0
 0 
VERTEX
 8 
1
 10 
0.99942
 20 
0.49688
 30 
0.0
 0 
VERTEX
 8 
1
 10 
0.99425
 20 
0.49136
 30 
0.0
 0 
VERTEX
 8 
1
 10 
0.98338
 20 
0.48685
 30 
0.0
 0 
VERTEX
 8 
1
 10 
0.96737
 20 
0.48355
 30 
0.0
 0 
VERTEX
 8 
1
 10 
0.94603
 20 
0.48156
 30 
0.0
 0 
VERTEX
 8 
1
 10 
0.91937
 20 
0.48065
 30 
0.0
 0 
VERTEX
 8 
1
 10 
0.88763
 20 
0.48061
 30 
0.0
 0 
VERTEX
 8 
1
 10 
0.85116
 20 
0.48128
 30 
0.0
 0 
VERTEX
 8 
1
 10 
0.8104
 20 
0.4825
 30 
0.0
 0 
VERTEX
 8 
1
 10 
0.76583
 20 
0.4842
 30 
0.0
 0 
VERTEX
 8 
1
 10 
0.71794
 20 
0.48627
 30 
0.0
 0 
VERTEX
 8 
1
 10 
0.66728
 20 
0.48859
 30 
0.0
 0 
VERTEX
 8 
1
 10 
0.61444
 20 
0.49106
 30 
0.0
 0 
VERTEX
 8 
1
 10 
0.56004
 20 
0.49358
 30 
0.0
 0 
VERTEX
 8 
1
 10 
0.50471
 20 
0.49603
 30 
0.0
 0 
VERTEX
 8 
1
 10 
0.4491
 20 
0.4983
 30 
0.0
 0 
VERTEX
 8 
1
 10 
0.39393
 20 
0.50025
 30 
0.0
 0 
VERTEX
 8 
1
 10 
0.33993
 20 
0.50182
 30 
0.0
 0 
VERTEX
 8 
1
 10 
0.28782
 20 
0.50296
 30 
0.0
 0 
VERTEX
 8 
1
 10 
0.23831
 20 
0.50367
 30 
0.0
 0 
VERTEX
 8 
1
 10 
0.19204
 20 
0.50397
 30 
0.0
 0 
VERTEX
 8 
1
 10 
0.14963
 20 
0.50391
 30 
0.0
 0 
VERTEX
 8 
1
 10 
0.11165
 20 
0.50354
 30 
0.0
 0 
VERTEX
 8 
1
 10 
0.07858
 20 
0.50295
 30 
0.0
 0 
VERTEX
 8 
1
 10 
0.05088
 20 
0.50222
 30 
0.0
 0 
VERTEX
 8 
1
 10 
0.0289
 20 
0.50144
 30 
0.0
 0 
VERTEX
 8 
1
 10 
0.01294
 20 
0.50073
 30 
0.0
 0 
VERTEX
 8 
1
 10 
0.0032499
 20 
0.5002
 30 
0.0
 0 
VERTEX
 8 
1
 10 
0.0
 20 
0.5
 30 
0.0
 0 
SEQEND
 8 
1
 0 
ENDSEC
 0 
EOF
