 0 
SECTION
 2 
ENTITIES
 0 
POLYLINE
 8 
1
 66 
 1 
 10 
0.0
 20 
0.0
 30 
0.0
 0 
VERTEX
 8 
1
 10 
0.0
 20 
0.5
 30 
0.0
 0 
VERTEX
 8 
1
 10 
0.0032600
 20 
0.50027
 30 
0.0
 0 
VERTEX
 8 
1
 10 
0.01294
 20 
0.50118
 30 
0.0
 0 
VERTEX
 8 
1
 10 
0.02878
 20 
0.50293
 30 
0.0
 0 
VERTEX
 8 
1
 10 
0.05041
 20 
0.50564
 30 
0.0
 0 
VERTEX
 8 
1
 10 
0.07736
 20 
0.50936
 30 
0.0
 0 
VERTEX
 8 
1
 10 
0.1091
 20 
0.51405
 30 
0.0
 0 
VERTEX
 8 
1
 10 
0.14507
 20 
0.5196
 30 
0.0
 0 
VERTEX
 8 
1
 10 
0.18469
 20 
0.52585
 30 
0.0
 0 
VERTEX
 8 
1
 10 
0.22739
 20 
0.53259
 30 
0.0
 0 
VERTEX
 8 
1
 10 
0.27261
 20 
0.53958
 30 
0.0
 0 
VERTEX
 8 
1
 10 
0.31979
 20 
0.54658
 30 
0.0
 0 
VERTEX
 8 
1
 10 
0.36842
 20 
0.55337
 30 
0.0
 0 
VERTEX
 8 
1
 10 
0.41797
 20 
0.55971
 30 
0.0
 0 
VERTEX
 8 
1
 10 
0.46796
 20 
0.56541
 30 
0.0
 0 
VERTEX
 8 
1
 10 
0.51787
 20 
0.57029
 30 
0.0
 0 
VERTEX
 8 
1
 10 
0.56725
 20 
0.57422
 30 
0.0
 0 
VERTEX
 8 
1
 10 
0.61562
 20 
0.57706
 30 
0.0
 0 
VERTEX
 8 
1
 10 
0.6625
 20 
0.5787
 30 
0.0
 0 
VERTEX
 8 
1
 10 
0.7075
 20 
0.57902
 30 
0.0
 0 
VERTEX
 8 
1
 10 
0.7503
 20 
0.57796
 30 
0.0
 0 
VERTEX
 8 
1
 10 
0.79056
 20 
0.57556
 30 
0.0
 0 
VERTEX
 8 
1
 10 
0.82794
 20 
0.57184
 30 
0.0
 0 
VERTEX
 8 
1
 10 
0.86215
 20 
0.56689
 30 
0.0
 0 
VERTEX
 8 
1
 10 
0.89294
 20 
0.56076
 30 
0.0
 0 
VERTEX
 8 
1
 10 
0.9201
 20 
0.5536
 30 
0.0
 0 
VERTEX
 8 
1
 10 
0.94345
 20 
0.54556
 30 
0.0
 0 
VERTEX
 8 
1
 10 
0.96287
 20 
0.53683
 30 
0.0
 0 
VERTEX
 8 
1
 10 
0.97827
 20 
0.52766
 30 
0.0
 0 
VERTEX
 8 
1
 10 
0.98958
 20 
0.51835
 30 
0.0
 0 
VERTEX
 8 
1
 10 
0.99681
 20 
0.50927
 30 
0.0
 0 
VERTEX
 8 
1
 10 
0.99995
 20 
0.501
 30 
0.0
 0 
VERTEX
 8 
1
 10 
0.99819
 20 
0.49457
 30 
0.0
 0 
VERTEX
 8 
1
 10 
0.99068
 20 
0.48952
 30 
0.0
 0 
VERTEX
 8 
1
 10 
0.97761
 20 
0.48494
 30 
0.0
 0 
VERTEX
 8 
1
 10 
0.95939
 20 
0.48106
 30 
0.0
 0 
VERTEX
 8 
1
 10 
0.93619
 20 
0.47797
 30 
0.0
 0 
VERTEX
 8 
1
 10 
0.9082
 20 
0.47573
 30 
0.0
 0 
VERTEX
 8 
1
 10 
0.87565
 20 
0.47433
 30 
0.0
 0 
VERTEX
 8 
1
 10 
0.83881
 20 
0.47375
 30 
0.0
 0 
VERTEX
 8 
1
 10 
0.798
 20 
0.4739
 30 
0.0
 0 
VERTEX
 8 
1
 10 
0.75365
 20 
0.47469
 30 
0.0
 0 
VERTEX
 8 
1
 10 
0.70624
 20 
0.47601
 30 
0.0
 0 
VERTEX
 8 
1
 10 
0.65629
 20 
0.47779
 30 
0.0
 0 
VERTEX
 8 
1
 10 
0.60435
 20 
0.47991
 30 
0.0
 0 
VERTEX
 8 
1
 10 
0.55101
 20 
0.48231
 30 
0.0
 0 
VERTEX
 8 
1
 10 
0.49688
 20 
0.48486
 30 
0.0
 0 
VERTEX
 8 
1
 10 
0.44257
 20 
0.48748
 30 
0.0
 0 
VERTEX
 8 
1
 10 
0.38873
 20 
0.49006
 30 
0.0
 0 
VERTEX
 8 
1
 10 
0.33601
 20 
0.49251
 30 
0.0
 0 
VERTEX
 8 
1
 10 
0.28505
 20 
0.49474
 30 
0.0
 0 
VERTEX
 8 
1
 10 
0.2365
 20 
0.49668
 30 
0.0
 0 
VERTEX
 8 
1
 10 
0.19099
 20 
0.49828
 30 
0.0
 0 
VERTEX
 8 
1
 10 
0.14913
 20 
0.49949
 30 
0.0
 0 
VERTEX
 8 
1
 10 
0.11149
 20 
0.50031
 30 
0.0
 0 
VERTEX
 8 
1
 10 
0.0786
 20 
0.50075
 30 
0.0
 0 
VERTEX
 8 
1
 10 
0.050950
 20 
0.50086
 30 
0.0
 0 
VERTEX
 8 
1
 10 
0.02896
 20 
0.50072
 30 
0.0
 0 
VERTEX
 8 
1
 10 
0.01297
 20 
0.50042
 30 
0.0
 0 
VERTEX
 8 
1
 10 
0.0032600
 20 
0.50013
 30 
0.0
 0 
VERTEX
 8 
1
 10 
0.0
 20 
0.5
 30 
0.0
 0 
SEQEND
 8 
1
 0 
ENDSEC
 0 
EOF
