 0 
SECTION
 2 
ENTITIES
 0 
POLYLINE
 8 
1
 66 
 1 
 10 
0.0
 20 
0.0
 30 
0.0
 0 
VERTEX
 8 
1
 10 
0.0
 20 
0.5
 30 
0.0
 0 
VERTEX
 8 
1
 10 
0.0033600
 20 
0.50017
 30 
0.0
 0 
VERTEX
 8 
1
 10 
0.01331
 20 
0.50085
 30 
0.0
 0 
VERTEX
 8 
1
 10 
0.02952
 20 
0.50233
 30 
0.0
 0 
VERTEX
 8 
1
 10 
0.05157
 20 
0.50476
 30 
0.0
 0 
VERTEX
 8 
1
 10 
0.078929
 20 
0.50821
 30 
0.0
 0 
VERTEX
 8 
1
 10 
0.11102
 20 
0.51266
 30 
0.0
 0 
VERTEX
 8 
1
 10 
0.14726
 20 
0.51798
 30 
0.0
 0 
VERTEX
 8 
1
 10 
0.18701
 20 
0.524
 30 
0.0
 0 
VERTEX
 8 
1
 10 
0.22965
 20 
0.53047
 30 
0.0
 0 
VERTEX
 8 
1
 10 
0.27459
 20 
0.53706
 30 
0.0
 0 
VERTEX
 8 
1
 10 
0.32135
 20 
0.54337
 30 
0.0
 0 
VERTEX
 8 
1
 10 
0.3696
 20 
0.54917
 30 
0.0
 0 
VERTEX
 8 
1
 10 
0.41894
 20 
0.55437
 30 
0.0
 0 
VERTEX
 8 
1
 10 
0.46888
 20 
0.55885
 30 
0.0
 0 
VERTEX
 8 
1
 10 
0.51891
 20 
0.56252
 30 
0.0
 0 
VERTEX
 8 
1
 10 
0.56856
 20 
0.56528
 30 
0.0
 0 
VERTEX
 8 
1
 10 
0.61735
 20 
0.56707
 30 
0.0
 0 
VERTEX
 8 
1
 10 
0.66483
 20 
0.56783
 30 
0.0
 0 
VERTEX
 8 
1
 10 
0.71054
 20 
0.56755
 30 
0.0
 0 
VERTEX
 8 
1
 10 
0.75407
 20 
0.56624
 30 
0.0
 0 
VERTEX
 8 
1
 10 
0.79496
 20 
0.56396
 30 
0.0
 0 
VERTEX
 8 
1
 10 
0.83274
 20 
0.56066
 30 
0.0
 0 
VERTEX
 8 
1
 10 
0.86712
 20 
0.55631
 30 
0.0
 0 
VERTEX
 8 
1
 10 
0.89784
 20 
0.55092
 30 
0.0
 0 
VERTEX
 8 
1
 10 
0.92471
 20 
0.54459
 30 
0.0
 0 
VERTEX
 8 
1
 10 
0.9476
 20 
0.53743
 30 
0.0
 0 
VERTEX
 8 
1
 10 
0.96642
 20 
0.52964
 30 
0.0
 0 
VERTEX
 8 
1
 10 
0.98108
 20 
0.52146
 30 
0.0
 0 
VERTEX
 8 
1
 10 
0.99161
 20 
0.51321
 30 
0.0
 0 
VERTEX
 8 
1
 10 
0.99797
 20 
0.50544
 30 
0.0
 0 
VERTEX
 8 
1
 10 
0.99993
 20 
0.49905
 30 
0.0
 0 
VERTEX
 8 
1
 10 
0.99609
 20 
0.49394
 30 
0.0
 0 
VERTEX
 8 
1
 10 
0.98614
 20 
0.48912
 30 
0.0
 0 
VERTEX
 8 
1
 10 
0.97109
 20 
0.48457
 30 
0.0
 0 
VERTEX
 8 
1
 10 
0.95112
 20 
0.48059
 30 
0.0
 0 
VERTEX
 8 
1
 10 
0.92638
 20 
0.47729
 30 
0.0
 0 
VERTEX
 8 
1
 10 
0.89704
 20 
0.47474
 30 
0.0
 0 
VERTEX
 8 
1
 10 
0.86334
 20 
0.47295
 30 
0.0
 0 
VERTEX
 8 
1
 10 
0.82556
 20 
0.47193
 30 
0.0
 0 
VERTEX
 8 
1
 10 
0.78402
 20 
0.47161
 30 
0.0
 0 
VERTEX
 8 
1
 10 
0.73915
 20 
0.4719
 30 
0.0
 0 
VERTEX
 8 
1
 10 
0.69143
 20 
0.47271
 30 
0.0
 0 
VERTEX
 8 
1
 10 
0.64138
 20 
0.47396
 30 
0.0
 0 
VERTEX
 8 
1
 10 
0.58956
 20 
0.47558
 30 
0.0
 0 
VERTEX
 8 
1
 10 
0.53655
 20 
0.47749
 30 
0.0
 0 
VERTEX
 8 
1
 10 
0.48295
 20 
0.4796
 30 
0.0
 0 
VERTEX
 8 
1
 10 
0.42939
 20 
0.48184
 30 
0.0
 0 
VERTEX
 8 
1
 10 
0.37648
 20 
0.48412
 30 
0.0
 0 
VERTEX
 8 
1
 10 
0.32486
 20 
0.48637
 30 
0.0
 0 
VERTEX
 8 
1
 10 
0.27516
 20 
0.48853
 30 
0.0
 0 
VERTEX
 8 
1
 10 
0.22798
 20 
0.49054
 30 
0.0
 0 
VERTEX
 8 
1
 10 
0.18393
 20 
0.49237
 30 
0.0
 0 
VERTEX
 8 
1
 10 
0.14355
 20 
0.49398
 30 
0.0
 0 
VERTEX
 8 
1
 10 
0.10736
 20 
0.49538
 30 
0.0
 0 
VERTEX
 8 
1
 10 
0.07586
 20 
0.49656
 30 
0.0
 0 
VERTEX
 8 
1
 10 
0.04945
 20 
0.49758
 30 
0.0
 0 
VERTEX
 8 
1
 10 
0.02846
 20 
0.49852
 30 
0.0
 0 
VERTEX
 8 
1
 10 
0.013
 20 
0.49937
 30 
0.0
 0 
VERTEX
 8 
1
 10 
0.0033199
 20 
0.49988
 30 
0.0
 0 
VERTEX
 8 
1
 10 
0.0
 20 
0.5
 30 
0.0
 0 
SEQEND
 8 
1
 0 
ENDSEC
 0 
EOF
