 0 
SECTION
 2 
ENTITIES
 0 
POLYLINE
 8 
1
 66 
 1 
 10 
0.0
 20 
0.0
 30 
0.0
 0 
VERTEX
 8 
1
 10 
0.0
 20 
0.5
 30 
0.0
 0 
VERTEX
 8 
1
 10 
0.0032900
 20 
0.50041
 30 
0.0
 0 
VERTEX
 8 
1
 10 
0.013040
 20 
0.50178
 30 
0.0
 0 
VERTEX
 8 
1
 10 
0.02893
 20 
0.50438
 30 
0.0
 0 
VERTEX
 8 
1
 10 
0.050459
 20 
0.50836
 30 
0.0
 0 
VERTEX
 8 
1
 10 
0.07703
 20 
0.51374
 30 
0.0
 0 
VERTEX
 8 
1
 10 
0.108
 20 
0.52036
 30 
0.0
 0 
VERTEX
 8 
1
 10 
0.14273
 20 
0.52799
 30 
0.0
 0 
VERTEX
 8 
1
 10 
0.18064
 20 
0.53628
 30 
0.0
 0 
VERTEX
 8 
1
 10 
0.22119
 20 
0.54487
 30 
0.0
 0 
VERTEX
 8 
1
 10 
0.26391
 20 
0.55339
 30 
0.0
 0 
VERTEX
 8 
1
 10 
0.30835
 20 
0.56147
 30 
0.0
 0 
VERTEX
 8 
1
 10 
0.35414
 20 
0.56881
 30 
0.0
 0 
VERTEX
 8 
1
 10 
0.40091
 20 
0.57513
 30 
0.0
 0 
VERTEX
 8 
1
 10 
0.44832
 20 
0.58024
 30 
0.0
 0 
VERTEX
 8 
1
 10 
0.49603
 20 
0.58399
 30 
0.0
 0 
VERTEX
 8 
1
 10 
0.54374
 20 
0.5863
 30 
0.0
 0 
VERTEX
 8 
1
 10 
0.59113
 20 
0.58717
 30 
0.0
 0 
VERTEX
 8 
1
 10 
0.63783
 20 
0.58673
 30 
0.0
 0 
VERTEX
 8 
1
 10 
0.68339
 20 
0.5851
 30 
0.0
 0 
VERTEX
 8 
1
 10 
0.72729
 20 
0.58239
 30 
0.0
 0 
VERTEX
 8 
1
 10 
0.76908
 20 
0.57864
 30 
0.0
 0 
VERTEX
 8 
1
 10 
0.80829
 20 
0.57393
 30 
0.0
 0 
VERTEX
 8 
1
 10 
0.8445
 20 
0.56828
 30 
0.0
 0 
VERTEX
 8 
1
 10 
0.87741
 20 
0.56173
 30 
0.0
 0 
VERTEX
 8 
1
 10 
0.90674
 20 
0.55435
 30 
0.0
 0 
VERTEX
 8 
1
 10 
0.93231
 20 
0.54627
 30 
0.0
 0 
VERTEX
 8 
1
 10 
0.95396
 20 
0.53765
 30 
0.0
 0 
VERTEX
 8 
1
 10 
0.97157
 20 
0.52876
 30 
0.0
 0 
VERTEX
 8 
1
 10 
0.98501
 20 
0.51986
 30 
0.0
 0 
VERTEX
 8 
1
 10 
0.99422
 20 
0.51124
 30 
0.0
 0 
VERTEX
 8 
1
 10 
0.99919
 20 
0.50339
 30 
0.0
 0 
VERTEX
 8 
1
 10 
0.99939
 20 
0.49738
 30 
0.0
 0 
VERTEX
 8 
1
 10 
0.99392
 20 
0.49275
 30 
0.0
 0 
VERTEX
 8 
1
 10 
0.98281
 20 
0.48855
 30 
0.0
 0 
VERTEX
 8 
1
 10 
0.96658
 20 
0.48518
 30 
0.0
 0 
VERTEX
 8 
1
 10 
0.9453
 20 
0.48284
 30 
0.0
 0 
VERTEX
 8 
1
 10 
0.91903
 20 
0.48156
 30 
0.0
 0 
VERTEX
 8 
1
 10 
0.88789
 20 
0.48132
 30 
0.0
 0 
VERTEX
 8 
1
 10 
0.85207
 20 
0.482
 30 
0.0
 0 
VERTEX
 8 
1
 10 
0.81187
 20 
0.48341
 30 
0.0
 0 
VERTEX
 8 
1
 10 
0.76771
 20 
0.48538
 30 
0.0
 0 
VERTEX
 8 
1
 10 
0.72007
 20 
0.48776
 30 
0.0
 0 
VERTEX
 8 
1
 10 
0.66951
 20 
0.49035
 30 
0.0
 0 
VERTEX
 8 
1
 10 
0.61664
 20 
0.493
 30 
0.0
 0 
VERTEX
 8 
1
 10 
0.56212
 20 
0.49559
 30 
0.0
 0 
VERTEX
 8 
1
 10 
0.50664
 20 
0.49801
 30 
0.0
 0 
VERTEX
 8 
1
 10 
0.45091
 20 
0.50015
 30 
0.0
 0 
VERTEX
 8 
1
 10 
0.39564
 20 
0.50196
 30 
0.0
 0 
VERTEX
 8 
1
 10 
0.34155
 20 
0.50337
 30 
0.0
 0 
VERTEX
 8 
1
 10 
0.28934
 20 
0.50437
 30 
0.0
 0 
VERTEX
 8 
1
 10 
0.23969
 20 
0.50495
 30 
0.0
 0 
VERTEX
 8 
1
 10 
0.19327
 20 
0.50511
 30 
0.0
 0 
VERTEX
 8 
1
 10 
0.15068
 20 
0.50491
 30 
0.0
 0 
VERTEX
 8 
1
 10 
0.11249
 20 
0.50439
 30 
0.0
 0 
VERTEX
 8 
1
 10 
0.07922
 20 
0.50364
 30 
0.0
 0 
VERTEX
 8 
1
 10 
0.05131
 20 
0.50273
 30 
0.0
 0 
VERTEX
 8 
1
 10 
0.029140
 20 
0.50178
 30 
0.0
 0 
VERTEX
 8 
1
 10 
0.01305
 20 
0.5009
 30 
0.0
 0 
VERTEX
 8 
1
 10 
0.00327
 20 
0.50025
 30 
0.0
 0 
VERTEX
 8 
1
 10 
0.0
 20 
0.5
 30 
0.0
 0 
SEQEND
 8 
1
 0 
ENDSEC
 0 
EOF
