 0 
SECTION
 2 
ENTITIES
 0 
POLYLINE
 8 
1
 66 
 1 
 10 
0.0
 20 
0.0
 30 
0.0
 0 
VERTEX
 8 
1
 10 
0.0
 20 
0.5
 30 
0.0
 0 
VERTEX
 8 
1
 10 
0.0018500
 20 
0.50055
 30 
0.0
 0 
VERTEX
 8 
1
 10 
0.0069200
 20 
0.5022
 30 
0.0
 0 
VERTEX
 8 
1
 10 
0.01472
 20 
0.50445
 30 
0.0
 0 
VERTEX
 8 
1
 10 
0.025310
 20 
0.50689
 30 
0.0
 0 
VERTEX
 8 
1
 10 
0.038850
 20 
0.50948
 30 
0.0
 0 
VERTEX
 8 
1
 10 
0.05527
 20 
0.5123
 30 
0.0
 0 
VERTEX
 8 
1
 10 
0.07445
 20 
0.51533
 30 
0.0
 0 
VERTEX
 8 
1
 10 
0.09626
 20 
0.51855
 30 
0.0
 0 
VERTEX
 8 
1
 10 
0.12056
 20 
0.52193
 30 
0.0
 0 
VERTEX
 8 
1
 10 
0.14718
 20 
0.52544
 30 
0.0
 0 
VERTEX
 8 
1
 10 
0.17596
 20 
0.52907
 30 
0.0
 0 
VERTEX
 8 
1
 10 
0.2067
 20 
0.53277
 30 
0.0
 0 
VERTEX
 8 
1
 10 
0.2392
 20 
0.53653
 30 
0.0
 0 
VERTEX
 8 
1
 10 
0.27325
 20 
0.54031
 30 
0.0
 0 
VERTEX
 8 
1
 10 
0.30863
 20 
0.5441
 30 
0.0
 0 
VERTEX
 8 
1
 10 
0.34509
 20 
0.54787
 30 
0.0
 0 
VERTEX
 8 
1
 10 
0.38238
 20 
0.55157
 30 
0.0
 0 
VERTEX
 8 
1
 10 
0.42025
 20 
0.55519
 30 
0.0
 0 
VERTEX
 8 
1
 10 
0.45842
 20 
0.55867
 30 
0.0
 0 
VERTEX
 8 
1
 10 
0.49662
 20 
0.56196
 30 
0.0
 0 
VERTEX
 8 
1
 10 
0.53459
 20 
0.56498
 30 
0.0
 0 
VERTEX
 8 
1
 10 
0.57206
 20 
0.56768
 30 
0.0
 0 
VERTEX
 8 
1
 10 
0.60879
 20 
0.56995
 30 
0.0
 0 
VERTEX
 8 
1
 10 
0.64456
 20 
0.57169
 30 
0.0
 0 
VERTEX
 8 
1
 10 
0.67918
 20 
0.57282
 30 
0.0
 0 
VERTEX
 8 
1
 10 
0.71242
 20 
0.57322
 30 
0.0
 0 
VERTEX
 8 
1
 10 
0.74425
 20 
0.57277
 30 
0.0
 0 
VERTEX
 8 
1
 10 
0.77462
 20 
0.5715
 30 
0.0
 0 
VERTEX
 8 
1
 10 
0.80335
 20 
0.56938
 30 
0.0
 0 
VERTEX
 8 
1
 10 
0.83045
 20 
0.5664
 30 
0.0
 0 
VERTEX
 8 
1
 10 
0.85584
 20 
0.56271
 30 
0.0
 0 
VERTEX
 8 
1
 10 
0.8794
 20 
0.55835
 30 
0.0
 0 
VERTEX
 8 
1
 10 
0.90107
 20 
0.55339
 30 
0.0
 0 
VERTEX
 8 
1
 10 
0.92073
 20 
0.54795
 30 
0.0
 0 
VERTEX
 8 
1
 10 
0.93832
 20 
0.54208
 30 
0.0
 0 
VERTEX
 8 
1
 10 
0.95382
 20 
0.53591
 30 
0.0
 0 
VERTEX
 8 
1
 10 
0.96711
 20 
0.52953
 30 
0.0
 0 
VERTEX
 8 
1
 10 
0.9782
 20 
0.52306
 30 
0.0
 0 
VERTEX
 8 
1
 10 
0.98707
 20 
0.51669
 30 
0.0
 0 
VERTEX
 8 
1
 10 
0.99368
 20 
0.51057
 30 
0.0
 0 
VERTEX
 8 
1
 10 
0.99799
 20 
0.50493
 30 
0.0
 0 
VERTEX
 8 
1
 10 
1
 20 
0.50016
 30 
0.0
 0 
VERTEX
 8 
1
 10 
0.99901
 20 
0.49654
 30 
0.0
 0 
VERTEX
 8 
1
 10 
0.99459
 20 
0.49382
 30 
0.0
 0 
VERTEX
 8 
1
 10 
0.98695
 20 
0.49158
 30 
0.0
 0 
VERTEX
 8 
1
 10 
0.97617
 20 
0.48981
 30 
0.0
 0 
VERTEX
 8 
1
 10 
0.96235
 20 
0.48854
 30 
0.0
 0 
VERTEX
 8 
1
 10 
0.94553
 20 
0.48773
 30 
0.0
 0 
VERTEX
 8 
1
 10 
0.92581
 20 
0.48735
 30 
0.0
 0 
VERTEX
 8 
1
 10 
0.90328
 20 
0.48739
 30 
0.0
 0 
VERTEX
 8 
1
 10 
0.87808
 20 
0.48781
 30 
0.0
 0 
VERTEX
 8 
1
 10 
0.85032
 20 
0.48857
 30 
0.0
 0 
VERTEX
 8 
1
 10 
0.82017
 20 
0.48963
 30 
0.0
 0 
VERTEX
 8 
1
 10 
0.78779
 20 
0.49093
 30 
0.0
 0 
VERTEX
 8 
1
 10 
0.75341
 20 
0.49243
 30 
0.0
 0 
VERTEX
 8 
1
 10 
0.71721
 20 
0.49407
 30 
0.0
 0 
VERTEX
 8 
1
 10 
0.67945
 20 
0.4958
 30 
0.0
 0 
VERTEX
 8 
1
 10 
0.64036
 20 
0.49757
 30 
0.0
 0 
VERTEX
 8 
1
 10 
0.60021
 20 
0.49933
 30 
0.0
 0 
VERTEX
 8 
1
 10 
0.55925
 20 
0.50104
 30 
0.0
 0 
VERTEX
 8 
1
 10 
0.51779
 20 
0.50264
 30 
0.0
 0 
VERTEX
 8 
1
 10 
0.4761
 20 
0.50412
 30 
0.0
 0 
VERTEX
 8 
1
 10 
0.43448
 20 
0.50546
 30 
0.0
 0 
VERTEX
 8 
1
 10 
0.39316
 20 
0.50667
 30 
0.0
 0 
VERTEX
 8 
1
 10 
0.35232
 20 
0.50768
 30 
0.0
 0 
VERTEX
 8 
1
 10 
0.31224
 20 
0.50824
 30 
0.0
 0 
VERTEX
 8 
1
 10 
0.27343
 20 
0.50826
 30 
0.0
 0 
VERTEX
 8 
1
 10 
0.23642
 20 
0.50787
 30 
0.0
 0 
VERTEX
 8 
1
 10 
0.2014
 20 
0.50723
 30 
0.0
 0 
VERTEX
 8 
1
 10 
0.16862
 20 
0.50643
 30 
0.0
 0 
VERTEX
 8 
1
 10 
0.13827
 20 
0.50551
 30 
0.0
 0 
VERTEX
 8 
1
 10 
0.11054
 20 
0.50454
 30 
0.0
 0 
VERTEX
 8 
1
 10 
0.08563
 20 
0.50355
 30 
0.0
 0 
VERTEX
 8 
1
 10 
0.06368
 20 
0.50262
 30 
0.0
 0 
VERTEX
 8 
1
 10 
0.044849
 20 
0.50179
 30 
0.0
 0 
VERTEX
 8 
1
 10 
0.02918
 20 
0.50115
 30 
0.0
 0 
VERTEX
 8 
1
 10 
0.01672
 20 
0.50067
 30 
0.0
 0 
VERTEX
 8 
1
 10 
0.0076100
 20 
0.50031
 30 
0.0
 0 
VERTEX
 8 
1
 10 
0.0019500
 20 
0.5001
 30 
0.0
 0 
VERTEX
 8 
1
 10 
0.0
 20 
0.5
 30 
0.0
 0 
SEQEND
 8 
1
 0 
ENDSEC
 0 
EOF
