 0 
SECTION
 2 
ENTITIES
 0 
POLYLINE
 8 
1
 66 
 1 
 10 
0.0
 20 
0.0
 30 
0.0
 0 
VERTEX
 8 
1
 10 
0.0
 20 
0.5
 30 
0.0
 0 
VERTEX
 8 
1
 10 
0.0033499
 20 
0.50043
 30 
0.0
 0 
VERTEX
 8 
1
 10 
0.01325
 20 
0.50184
 30 
0.0
 0 
VERTEX
 8 
1
 10 
0.029309
 20 
0.50444
 30 
0.0
 0 
VERTEX
 8 
1
 10 
0.051069
 20 
0.50834
 30 
0.0
 0 
VERTEX
 8 
1
 10 
0.07798
 20 
0.51351
 30 
0.0
 0 
VERTEX
 8 
1
 10 
0.10946
 20 
0.51984
 30 
0.0
 0 
VERTEX
 8 
1
 10 
0.14493
 20 
0.52714
 30 
0.0
 0 
VERTEX
 8 
1
 10 
0.18384
 20 
0.53516
 30 
0.0
 0 
VERTEX
 8 
1
 10 
0.22561
 20 
0.54365
 30 
0.0
 0 
VERTEX
 8 
1
 10 
0.26971
 20 
0.5523
 30 
0.0
 0 
VERTEX
 8 
1
 10 
0.31561
 20 
0.56084
 30 
0.0
 0 
VERTEX
 8 
1
 10 
0.36279
 20 
0.56896
 30 
0.0
 0 
VERTEX
 8 
1
 10 
0.41077
 20 
0.5764
 30 
0.0
 0 
VERTEX
 8 
1
 10 
0.45909
 20 
0.58285
 30 
0.0
 0 
VERTEX
 8 
1
 10 
0.50735
 20 
0.58806
 30 
0.0
 0 
VERTEX
 8 
1
 10 
0.55523
 20 
0.59187
 30 
0.0
 0 
VERTEX
 8 
1
 10 
0.60239
 20 
0.59421
 30 
0.0
 0 
VERTEX
 8 
1
 10 
0.64846
 20 
0.59504
 30 
0.0
 0 
VERTEX
 8 
1
 10 
0.69306
 20 
0.59439
 30 
0.0
 0 
VERTEX
 8 
1
 10 
0.73584
 20 
0.59231
 30 
0.0
 0 
VERTEX
 8 
1
 10 
0.77639
 20 
0.58889
 30 
0.0
 0 
VERTEX
 8 
1
 10 
0.81431
 20 
0.58418
 30 
0.0
 0 
VERTEX
 8 
1
 10 
0.84927
 20 
0.57822
 30 
0.0
 0 
VERTEX
 8 
1
 10 
0.88102
 20 
0.57113
 30 
0.0
 0 
VERTEX
 8 
1
 10 
0.90928
 20 
0.56303
 30 
0.0
 0 
VERTEX
 8 
1
 10 
0.93389
 20 
0.55406
 30 
0.0
 0 
VERTEX
 8 
1
 10 
0.9547
 20 
0.54443
 30 
0.0
 0 
VERTEX
 8 
1
 10 
0.9716
 20 
0.53437
 30 
0.0
 0 
VERTEX
 8 
1
 10 
0.98454
 20 
0.52416
 30 
0.0
 0 
VERTEX
 8 
1
 10 
0.99357
 20 
0.51419
 30 
0.0
 0 
VERTEX
 8 
1
 10 
0.9987
 20 
0.50509
 30 
0.0
 0 
VERTEX
 8 
1
 10 
1
 20 
0.5
 30 
0.0
 0 
VERTEX
 8 
1
 10 
0.9997
 20 
0.4979
 30 
0.0
 0 
VERTEX
 8 
1
 10 
0.99502
 20 
0.49279
 30 
0.0
 0 
VERTEX
 8 
1
 10 
0.98397
 20 
0.48883
 30 
0.0
 0 
VERTEX
 8 
1
 10 
0.9674
 20 
0.48566
 30 
0.0
 0 
VERTEX
 8 
1
 10 
0.94549
 20 
0.48336
 30 
0.0
 0 
VERTEX
 8 
1
 10 
0.91844
 20 
0.48193
 30 
0.0
 0 
VERTEX
 8 
1
 10 
0.88648
 20 
0.48131
 30 
0.0
 0 
VERTEX
 8 
1
 10 
0.84989
 20 
0.48143
 30 
0.0
 0 
VERTEX
 8 
1
 10 
0.80905
 20 
0.48216
 30 
0.0
 0 
VERTEX
 8 
1
 10 
0.76438
 20 
0.48339
 30 
0.0
 0 
VERTEX
 8 
1
 10 
0.71638
 20 
0.48497
 30 
0.0
 0 
VERTEX
 8 
1
 10 
0.66563
 20 
0.48677
 30 
0.0
 0 
VERTEX
 8 
1
 10 
0.61274
 20 
0.48867
 30 
0.0
 0 
VERTEX
 8 
1
 10 
0.55838
 20 
0.49058
 30 
0.0
 0 
VERTEX
 8 
1
 10 
0.50323
 20 
0.49242
 30 
0.0
 0 
VERTEX
 8 
1
 10 
0.44797
 20 
0.49415
 30 
0.0
 0 
VERTEX
 8 
1
 10 
0.39329
 20 
0.49572
 30 
0.0
 0 
VERTEX
 8 
1
 10 
0.33987
 20 
0.49709
 30 
0.0
 0 
VERTEX
 8 
1
 10 
0.28838
 20 
0.49825
 30 
0.0
 0 
VERTEX
 8 
1
 10 
0.23947
 20 
0.49921
 30 
0.0
 0 
VERTEX
 8 
1
 10 
0.19373
 20 
0.50001
 30 
0.0
 0 
VERTEX
 8 
1
 10 
0.15167
 20 
0.50067
 30 
0.0
 0 
VERTEX
 8 
1
 10 
0.11378
 20 
0.50114
 30 
0.0
 0 
VERTEX
 8 
1
 10 
0.080539
 20 
0.50139
 30 
0.0
 0 
VERTEX
 8 
1
 10 
0.05243
 20 
0.50137
 30 
0.0
 0 
VERTEX
 8 
1
 10 
0.029919
 20 
0.5011
 30 
0.0
 0 
VERTEX
 8 
1
 10 
0.01345
 20 
0.50065
 30 
0.0
 0 
VERTEX
 8 
1
 10 
0.00339
 20 
0.5002
 30 
0.0
 0 
VERTEX
 8 
1
 10 
0.0
 20 
0.5
 30 
0.0
 0 
SEQEND
 8 
1
 0 
ENDSEC
 0 
EOF
