 0 
SECTION
 2 
ENTITIES
 0 
POLYLINE
 8 
1
 66 
 1 
 10 
0.0
 20 
0.0
 30 
0.0
 0 
VERTEX
 8 
1
 10 
0.0
 20 
0.5
 30 
0.0
 0 
VERTEX
 8 
1
 10 
0.0031700
 20 
0.49999
 30 
0.0
 0 
VERTEX
 8 
1
 10 
0.01264
 20 
0.5
 30 
0.0
 0 
VERTEX
 8 
1
 10 
0.0284
 20 
0.50015
 30 
0.0
 0 
VERTEX
 8 
1
 10 
0.05036
 20 
0.50066
 30 
0.0
 0 
VERTEX
 8 
1
 10 
0.07829
 20 
0.50186
 30 
0.0
 0 
VERTEX
 8 
1
 10 
0.11167
 20 
0.50413
 30 
0.0
 0 
VERTEX
 8 
1
 10 
0.14974
 20 
0.50766
 30 
0.0
 0 
VERTEX
 8 
1
 10 
0.1916
 20 
0.51234
 30 
0.0
 0 
VERTEX
 8 
1
 10 
0.23661
 20 
0.51795
 30 
0.0
 0 
VERTEX
 8 
1
 10 
0.28406
 20 
0.5243
 30 
0.0
 0 
VERTEX
 8 
1
 10 
0.33328
 20 
0.53116
 30 
0.0
 0 
VERTEX
 8 
1
 10 
0.38356
 20 
0.53827
 30 
0.0
 0 
VERTEX
 8 
1
 10 
0.43424
 20 
0.54524
 30 
0.0
 0 
VERTEX
 8 
1
 10 
0.48481
 20 
0.5517
 30 
0.0
 0 
VERTEX
 8 
1
 10 
0.53484
 20 
0.55736
 30 
0.0
 0 
VERTEX
 8 
1
 10 
0.58392
 20 
0.56198
 30 
0.0
 0 
VERTEX
 8 
1
 10 
0.6317
 20 
0.56539
 30 
0.0
 0 
VERTEX
 8 
1
 10 
0.67782
 20 
0.56748
 30 
0.0
 0 
VERTEX
 8 
1
 10 
0.72197
 20 
0.56821
 30 
0.0
 0 
VERTEX
 8 
1
 10 
0.7638
 20 
0.56759
 30 
0.0
 0 
VERTEX
 8 
1
 10 
0.80298
 20 
0.56565
 30 
0.0
 0 
VERTEX
 8 
1
 10 
0.83919
 20 
0.56244
 30 
0.0
 0 
VERTEX
 8 
1
 10 
0.87215
 20 
0.55802
 30 
0.0
 0 
VERTEX
 8 
1
 10 
0.90163
 20 
0.55249
 30 
0.0
 0 
VERTEX
 8 
1
 10 
0.92743
 20 
0.54596
 30 
0.0
 0 
VERTEX
 8 
1
 10 
0.94941
 20 
0.53862
 30 
0.0
 0 
VERTEX
 8 
1
 10 
0.96748
 20 
0.53065
 30 
0.0
 0 
VERTEX
 8 
1
 10 
0.98157
 20 
0.52234
 30 
0.0
 0 
VERTEX
 8 
1
 10 
0.99167
 20 
0.51401
 30 
0.0
 0 
VERTEX
 8 
1
 10 
0.99781
 20 
0.50613
 30 
0.0
 0 
VERTEX
 8 
1
 10 
0.99998
 20 
0.49951
 30 
0.0
 0 
VERTEX
 8 
1
 10 
0.99692
 20 
0.49493
 30 
0.0
 0 
VERTEX
 8 
1
 10 
0.98774
 20 
0.49185
 30 
0.0
 0 
VERTEX
 8 
1
 10 
0.97273
 20 
0.48963
 30 
0.0
 0 
VERTEX
 8 
1
 10 
0.95193
 20 
0.48808
 30 
0.0
 0 
VERTEX
 8 
1
 10 
0.92566
 20 
0.4869
 30 
0.0
 0 
VERTEX
 8 
1
 10 
0.89437
 20 
0.48596
 30 
0.0
 0 
VERTEX
 8 
1
 10 
0.85852
 20 
0.48522
 30 
0.0
 0 
VERTEX
 8 
1
 10 
0.81859
 20 
0.48466
 30 
0.0
 0 
VERTEX
 8 
1
 10 
0.77509
 20 
0.48431
 30 
0.0
 0 
VERTEX
 8 
1
 10 
0.7285
 20 
0.48417
 30 
0.0
 0 
VERTEX
 8 
1
 10 
0.67936
 20 
0.48424
 30 
0.0
 0 
VERTEX
 8 
1
 10 
0.62821
 20 
0.4845
 30 
0.0
 0 
VERTEX
 8 
1
 10 
0.57564
 20 
0.48493
 30 
0.0
 0 
VERTEX
 8 
1
 10 
0.52224
 20 
0.48551
 30 
0.0
 0 
VERTEX
 8 
1
 10 
0.46861
 20 
0.48621
 30 
0.0
 0 
VERTEX
 8 
1
 10 
0.41538
 20 
0.48703
 30 
0.0
 0 
VERTEX
 8 
1
 10 
0.36313
 20 
0.48794
 30 
0.0
 0 
VERTEX
 8 
1
 10 
0.31248
 20 
0.48892
 30 
0.0
 0 
VERTEX
 8 
1
 10 
0.26399
 20 
0.48996
 30 
0.0
 0 
VERTEX
 8 
1
 10 
0.21822
 20 
0.49104
 30 
0.0
 0 
VERTEX
 8 
1
 10 
0.1757
 20 
0.49215
 30 
0.0
 0 
VERTEX
 8 
1
 10 
0.13692
 20 
0.49328
 30 
0.0
 0 
VERTEX
 8 
1
 10 
0.10233
 20 
0.49443
 30 
0.0
 0 
VERTEX
 8 
1
 10 
0.07233
 20 
0.4956
 30 
0.0
 0 
VERTEX
 8 
1
 10 
0.047239
 20 
0.49683
 30 
0.0
 0 
VERTEX
 8 
1
 10 
0.02721
 20 
0.49812
 30 
0.0
 0 
VERTEX
 8 
1
 10 
0.01237
 20 
0.49921
 30 
0.0
 0 
VERTEX
 8 
1
 10 
0.0031400
 20 
0.49984
 30 
0.0
 0 
VERTEX
 8 
1
 10 
0.0
 20 
0.5
 30 
0.0
 0 
SEQEND
 8 
1
 0 
ENDSEC
 0 
EOF
