 0 
SECTION
 2 
ENTITIES
 0 
POLYLINE
 8 
1
 66 
 1 
 10 
0.0
 20 
0.0
 30 
0.0
 0 
VERTEX
 8 
1
 10 
0.0
 20 
0.5
 30 
0.0
 0 
VERTEX
 8 
1
 10 
0.0018899
 20 
0.5003
 30 
0.0
 0 
VERTEX
 8 
1
 10 
0.0073800
 20 
0.5013
 30 
0.0
 0 
VERTEX
 8 
1
 10 
0.01616
 20 
0.50301
 30 
0.0
 0 
VERTEX
 8 
1
 10 
0.02811
 20 
0.50532
 30 
0.0
 0 
VERTEX
 8 
1
 10 
0.04311
 20 
0.50825
 30 
0.0
 0 
VERTEX
 8 
1
 10 
0.06094
 20 
0.51183
 30 
0.0
 0 
VERTEX
 8 
1
 10 
0.08135
 20 
0.51599
 30 
0.0
 0 
VERTEX
 8 
1
 10 
0.1041
 20 
0.52064
 30 
0.0
 0 
VERTEX
 8 
1
 10 
0.12895
 20 
0.52565
 30 
0.0
 0 
VERTEX
 8 
1
 10 
0.15565
 20 
0.53084
 30 
0.0
 0 
VERTEX
 8 
1
 10 
0.1841
 20 
0.53603
 30 
0.0
 0 
VERTEX
 8 
1
 10 
0.21415
 20 
0.54114
 30 
0.0
 0 
VERTEX
 8 
1
 10 
0.24562
 20 
0.54596
 30 
0.0
 0 
VERTEX
 8 
1
 10 
0.27848
 20 
0.55039
 30 
0.0
 0 
VERTEX
 8 
1
 10 
0.31264
 20 
0.55452
 30 
0.0
 0 
VERTEX
 8 
1
 10 
0.34787
 20 
0.55833
 30 
0.0
 0 
VERTEX
 8 
1
 10 
0.38395
 20 
0.56181
 30 
0.0
 0 
VERTEX
 8 
1
 10 
0.42064
 20 
0.56492
 30 
0.0
 0 
VERTEX
 8 
1
 10 
0.45772
 20 
0.56762
 30 
0.0
 0 
VERTEX
 8 
1
 10 
0.49498
 20 
0.56988
 30 
0.0
 0 
VERTEX
 8 
1
 10 
0.53218
 20 
0.57165
 30 
0.0
 0 
VERTEX
 8 
1
 10 
0.56914
 20 
0.5729
 30 
0.0
 0 
VERTEX
 8 
1
 10 
0.60564
 20 
0.57362
 30 
0.0
 0 
VERTEX
 8 
1
 10 
0.64147
 20 
0.57377
 30 
0.0
 0 
VERTEX
 8 
1
 10 
0.67645
 20 
0.57334
 30 
0.0
 0 
VERTEX
 8 
1
 10 
0.71039
 20 
0.57232
 30 
0.0
 0 
VERTEX
 8 
1
 10 
0.7431
 20 
0.57072
 30 
0.0
 0 
VERTEX
 8 
1
 10 
0.77444
 20 
0.56854
 30 
0.0
 0 
VERTEX
 8 
1
 10 
0.80422
 20 
0.56579
 30 
0.0
 0 
VERTEX
 8 
1
 10 
0.83231
 20 
0.56249
 30 
0.0
 0 
VERTEX
 8 
1
 10 
0.85857
 20 
0.55868
 30 
0.0
 0 
VERTEX
 8 
1
 10 
0.88286
 20 
0.55438
 30 
0.0
 0 
VERTEX
 8 
1
 10 
0.9051
 20 
0.54963
 30 
0.0
 0 
VERTEX
 8 
1
 10 
0.92515
 20 
0.54451
 30 
0.0
 0 
VERTEX
 8 
1
 10 
0.94296
 20 
0.53906
 30 
0.0
 0 
VERTEX
 8 
1
 10 
0.95845
 20 
0.53336
 30 
0.0
 0 
VERTEX
 8 
1
 10 
0.97154
 20 
0.52751
 30 
0.0
 0 
VERTEX
 8 
1
 10 
0.98217
 20 
0.52158
 30 
0.0
 0 
VERTEX
 8 
1
 10 
0.99026
 20 
0.51572
 30 
0.0
 0 
VERTEX
 8 
1
 10 
0.99574
 20 
0.50983
 30 
0.0
 0 
VERTEX
 8 
1
 10 
0.99888
 20 
0.50396
 30 
0.0
 0 
VERTEX
 8 
1
 10 
0.99988
 20 
0.49873
 30 
0.0
 0 
VERTEX
 8 
1
 10 
0.99795
 20 
0.49468
 30 
0.0
 0 
VERTEX
 8 
1
 10 
0.9926
 20 
0.49139
 30 
0.0
 0 
VERTEX
 8 
1
 10 
0.98414
 20 
0.48846
 30 
0.0
 0 
VERTEX
 8 
1
 10 
0.97264
 20 
0.48597
 30 
0.0
 0 
VERTEX
 8 
1
 10 
0.95818
 20 
0.48384
 30 
0.0
 0 
VERTEX
 8 
1
 10 
0.94085
 20 
0.48215
 30 
0.0
 0 
VERTEX
 8 
1
 10 
0.92073
 20 
0.48088
 30 
0.0
 0 
VERTEX
 8 
1
 10 
0.89792
 20 
0.48003
 30 
0.0
 0 
VERTEX
 8 
1
 10 
0.87254
 20 
0.47959
 30 
0.0
 0 
VERTEX
 8 
1
 10 
0.84473
 20 
0.47951
 30 
0.0
 0 
VERTEX
 8 
1
 10 
0.81464
 20 
0.47978
 30 
0.0
 0 
VERTEX
 8 
1
 10 
0.78244
 20 
0.48035
 30 
0.0
 0 
VERTEX
 8 
1
 10 
0.74833
 20 
0.4812
 30 
0.0
 0 
VERTEX
 8 
1
 10 
0.71251
 20 
0.48226
 30 
0.0
 0 
VERTEX
 8 
1
 10 
0.67522
 20 
0.48351
 30 
0.0
 0 
VERTEX
 8 
1
 10 
0.63669
 20 
0.4849
 30 
0.0
 0 
VERTEX
 8 
1
 10 
0.59717
 20 
0.4864
 30 
0.0
 0 
VERTEX
 8 
1
 10 
0.55694
 20 
0.48795
 30 
0.0
 0 
VERTEX
 8 
1
 10 
0.51625
 20 
0.48953
 30 
0.0
 0 
VERTEX
 8 
1
 10 
0.4754
 20 
0.49111
 30 
0.0
 0 
VERTEX
 8 
1
 10 
0.43466
 20 
0.49266
 30 
0.0
 0 
VERTEX
 8 
1
 10 
0.39432
 20 
0.49416
 30 
0.0
 0 
VERTEX
 8 
1
 10 
0.35468
 20 
0.49562
 30 
0.0
 0 
VERTEX
 8 
1
 10 
0.31603
 20 
0.49709
 30 
0.0
 0 
VERTEX
 8 
1
 10 
0.27851
 20 
0.4986
 30 
0.0
 0 
VERTEX
 8 
1
 10 
0.24231
 20 
0.50009
 30 
0.0
 0 
VERTEX
 8 
1
 10 
0.20765
 20 
0.5016
 30 
0.0
 0 
VERTEX
 8 
1
 10 
0.17457
 20 
0.50301
 30 
0.0
 0 
VERTEX
 8 
1
 10 
0.14321
 20 
0.50399
 30 
0.0
 0 
VERTEX
 8 
1
 10 
0.11418
 20 
0.5042
 30 
0.0
 0 
VERTEX
 8 
1
 10 
0.0881
 20 
0.50378
 30 
0.0
 0 
VERTEX
 8 
1
 10 
0.065219
 20 
0.50312
 30 
0.0
 0 
VERTEX
 8 
1
 10 
0.04565
 20 
0.50237
 30 
0.0
 0 
VERTEX
 8 
1
 10 
0.02947
 20 
0.50163
 30 
0.0
 0 
VERTEX
 8 
1
 10 
0.01678
 20 
0.50099
 30 
0.0
 0 
VERTEX
 8 
1
 10 
0.0075699
 20 
0.50051
 30 
0.0
 0 
VERTEX
 8 
1
 10 
0.0019200
 20 
0.50016
 30 
0.0
 0 
VERTEX
 8 
1
 10 
0.0
 20 
0.5
 30 
0.0
 0 
SEQEND
 8 
1
 0 
ENDSEC
 0 
EOF
