 0 
SECTION
 2 
ENTITIES
 0 
POLYLINE
 8 
1
 66 
 1 
 10 
0.0
 20 
0.0
 30 
0.0
 0 
VERTEX
 8 
1
 10 
0.0
 20 
0.5
 30 
0.0
 0 
VERTEX
 8 
1
 10 
0.0021700
 20 
0.50035
 30 
0.0
 0 
VERTEX
 8 
1
 10 
0.0082499
 20 
0.50162
 30 
0.0
 0 
VERTEX
 8 
1
 10 
0.01758
 20 
0.50368
 30 
0.0
 0 
VERTEX
 8 
1
 10 
0.02988
 20 
0.50616
 30 
0.0
 0 
VERTEX
 8 
1
 10 
0.04522
 20 
0.50881
 30 
0.0
 0 
VERTEX
 8 
1
 10 
0.063610
 20 
0.51168
 30 
0.0
 0 
VERTEX
 8 
1
 10 
0.08494
 20 
0.51485
 30 
0.0
 0 
VERTEX
 8 
1
 10 
0.10898
 20 
0.51832
 30 
0.0
 0 
VERTEX
 8 
1
 10 
0.13555
 20 
0.52208
 30 
0.0
 0 
VERTEX
 8 
1
 10 
0.16441
 20 
0.52611
 30 
0.0
 0 
VERTEX
 8 
1
 10 
0.19533
 20 
0.53037
 30 
0.0
 0 
VERTEX
 8 
1
 10 
0.22806
 20 
0.53482
 30 
0.0
 0 
VERTEX
 8 
1
 10 
0.26235
 20 
0.53941
 30 
0.0
 0 
VERTEX
 8 
1
 10 
0.29793
 20 
0.54406
 30 
0.0
 0 
VERTEX
 8 
1
 10 
0.33453
 20 
0.5487
 30 
0.0
 0 
VERTEX
 8 
1
 10 
0.37187
 20 
0.55325
 30 
0.0
 0 
VERTEX
 8 
1
 10 
0.40969
 20 
0.55756
 30 
0.0
 0 
VERTEX
 8 
1
 10 
0.4478
 20 
0.56154
 30 
0.0
 0 
VERTEX
 8 
1
 10 
0.48594
 20 
0.56511
 30 
0.0
 0 
VERTEX
 8 
1
 10 
0.52392
 20 
0.56814
 30 
0.0
 0 
VERTEX
 8 
1
 10 
0.5616
 20 
0.57057
 30 
0.0
 0 
VERTEX
 8 
1
 10 
0.59874
 20 
0.57238
 30 
0.0
 0 
VERTEX
 8 
1
 10 
0.63519
 20 
0.57349
 30 
0.0
 0 
VERTEX
 8 
1
 10 
0.67083
 20 
0.57393
 30 
0.0
 0 
VERTEX
 8 
1
 10 
0.70544
 20 
0.57368
 30 
0.0
 0 
VERTEX
 8 
1
 10 
0.73885
 20 
0.57274
 30 
0.0
 0 
VERTEX
 8 
1
 10 
0.77091
 20 
0.57117
 30 
0.0
 0 
VERTEX
 8 
1
 10 
0.80143
 20 
0.56898
 30 
0.0
 0 
VERTEX
 8 
1
 10 
0.83025
 20 
0.56618
 30 
0.0
 0 
VERTEX
 8 
1
 10 
0.8572
 20 
0.56284
 30 
0.0
 0 
VERTEX
 8 
1
 10 
0.88211
 20 
0.55899
 30 
0.0
 0 
VERTEX
 8 
1
 10 
0.90483
 20 
0.55464
 30 
0.0
 0 
VERTEX
 8 
1
 10 
0.92521
 20 
0.54979
 30 
0.0
 0 
VERTEX
 8 
1
 10 
0.94319
 20 
0.54445
 30 
0.0
 0 
VERTEX
 8 
1
 10 
0.95865
 20 
0.53869
 30 
0.0
 0 
VERTEX
 8 
1
 10 
0.97155
 20 
0.53242
 30 
0.0
 0 
VERTEX
 8 
1
 10 
0.98203
 20 
0.52568
 30 
0.0
 0 
VERTEX
 8 
1
 10 
0.99004
 20 
0.51878
 30 
0.0
 0 
VERTEX
 8 
1
 10 
0.99559
 20 
0.51171
 30 
0.0
 0 
VERTEX
 8 
1
 10 
0.9989
 20 
0.50471
 30 
0.0
 0 
VERTEX
 8 
1
 10 
0.99987
 20 
0.49843
 30 
0.0
 0 
VERTEX
 8 
1
 10 
0.99754
 20 
0.49299
 30 
0.0
 0 
VERTEX
 8 
1
 10 
0.99161
 20 
0.48773
 30 
0.0
 0 
VERTEX
 8 
1
 10 
0.98274
 20 
0.4824
 30 
0.0
 0 
VERTEX
 8 
1
 10 
0.97104
 20 
0.47716
 30 
0.0
 0 
VERTEX
 8 
1
 10 
0.95669
 20 
0.47209
 30 
0.0
 0 
VERTEX
 8 
1
 10 
0.93973
 20 
0.4673
 30 
0.0
 0 
VERTEX
 8 
1
 10 
0.92026
 20 
0.46284
 30 
0.0
 0 
VERTEX
 8 
1
 10 
0.89841
 20 
0.45878
 30 
0.0
 0 
VERTEX
 8 
1
 10 
0.87426
 20 
0.45517
 30 
0.0
 0 
VERTEX
 8 
1
 10 
0.84795
 20 
0.452
 30 
0.0
 0 
VERTEX
 8 
1
 10 
0.81962
 20 
0.44935
 30 
0.0
 0 
VERTEX
 8 
1
 10 
0.78941
 20 
0.44721
 30 
0.0
 0 
VERTEX
 8 
1
 10 
0.7575
 20 
0.44558
 30 
0.0
 0 
VERTEX
 8 
1
 10 
0.72408
 20 
0.4445
 30 
0.0
 0 
VERTEX
 8 
1
 10 
0.68932
 20 
0.44394
 30 
0.0
 0 
VERTEX
 8 
1
 10 
0.65343
 20 
0.44393
 30 
0.0
 0 
VERTEX
 8 
1
 10 
0.61663
 20 
0.44446
 30 
0.0
 0 
VERTEX
 8 
1
 10 
0.57914
 20 
0.44553
 30 
0.0
 0 
VERTEX
 8 
1
 10 
0.54116
 20 
0.44719
 30 
0.0
 0 
VERTEX
 8 
1
 10 
0.50283
 20 
0.44944
 30 
0.0
 0 
VERTEX
 8 
1
 10 
0.46443
 20 
0.45225
 30 
0.0
 0 
VERTEX
 8 
1
 10 
0.42601
 20 
0.45565
 30 
0.0
 0 
VERTEX
 8 
1
 10 
0.38761
 20 
0.45949
 30 
0.0
 0 
VERTEX
 8 
1
 10 
0.34952
 20 
0.46355
 30 
0.0
 0 
VERTEX
 8 
1
 10 
0.31201
 20 
0.4677
 30 
0.0
 0 
VERTEX
 8 
1
 10 
0.27536
 20 
0.47181
 30 
0.0
 0 
VERTEX
 8 
1
 10 
0.23986
 20 
0.4758
 30 
0.0
 0 
VERTEX
 8 
1
 10 
0.20581
 20 
0.47957
 30 
0.0
 0 
VERTEX
 8 
1
 10 
0.17349
 20 
0.48306
 30 
0.0
 0 
VERTEX
 8 
1
 10 
0.1432
 20 
0.48622
 30 
0.0
 0 
VERTEX
 8 
1
 10 
0.11521
 20 
0.48901
 30 
0.0
 0 
VERTEX
 8 
1
 10 
0.08979
 20 
0.49143
 30 
0.0
 0 
VERTEX
 8 
1
 10 
0.0672
 20 
0.49349
 30 
0.0
 0 
VERTEX
 8 
1
 10 
0.04766
 20 
0.49523
 30 
0.0
 0 
VERTEX
 8 
1
 10 
0.03135
 20 
0.49674
 30 
0.0
 0 
VERTEX
 8 
1
 10 
0.01829
 20 
0.49814
 30 
0.0
 0 
VERTEX
 8 
1
 10 
0.00849
 20 
0.49926
 30 
0.0
 0 
VERTEX
 8 
1
 10 
0.0022100
 20 
0.49988
 30 
0.0
 0 
VERTEX
 8 
1
 10 
0.0
 20 
0.5
 30 
0.0
 0 
SEQEND
 8 
1
 0 
ENDSEC
 0 
EOF
