 0 
SECTION
 2 
ENTITIES
 0 
POLYLINE
 8 
1
 66 
 1 
 10 
0.0
 20 
0.0
 30 
0.0
 0 
VERTEX
 8 
1
 10 
0.0
 20 
0.5
 30 
0.0
 0 
VERTEX
 8 
1
 10 
0.0024199
 20 
0.50043
 30 
0.0
 0 
VERTEX
 8 
1
 10 
0.0091099
 20 
0.50205
 30 
0.0
 0 
VERTEX
 8 
1
 10 
0.01916
 20 
0.50478
 30 
0.0
 0 
VERTEX
 8 
1
 10 
0.03218
 20 
0.50814
 30 
0.0
 0 
VERTEX
 8 
1
 10 
0.048290
 20 
0.51178
 30 
0.0
 0 
VERTEX
 8 
1
 10 
0.06756
 20 
0.5158
 30 
0.0
 0 
VERTEX
 8 
1
 10 
0.089809
 20 
0.52034
 30 
0.0
 0 
VERTEX
 8 
1
 10 
0.1148
 20 
0.52543
 30 
0.0
 0 
VERTEX
 8 
1
 10 
0.14224
 20 
0.53105
 30 
0.0
 0 
VERTEX
 8 
1
 10 
0.17187
 20 
0.53716
 30 
0.0
 0 
VERTEX
 8 
1
 10 
0.20338
 20 
0.5437
 30 
0.0
 0 
VERTEX
 8 
1
 10 
0.23648
 20 
0.55059
 30 
0.0
 0 
VERTEX
 8 
1
 10 
0.27087
 20 
0.55772
 30 
0.0
 0 
VERTEX
 8 
1
 10 
0.30622
 20 
0.56496
 30 
0.0
 0 
VERTEX
 8 
1
 10 
0.34224
 20 
0.57216
 30 
0.0
 0 
VERTEX
 8 
1
 10 
0.3786
 20 
0.57911
 30 
0.0
 0 
VERTEX
 8 
1
 10 
0.41512
 20 
0.5855
 30 
0.0
 0 
VERTEX
 8 
1
 10 
0.45172
 20 
0.59116
 30 
0.0
 0 
VERTEX
 8 
1
 10 
0.48825
 20 
0.59607
 30 
0.0
 0 
VERTEX
 8 
1
 10 
0.52456
 20 
0.60007
 30 
0.0
 0 
VERTEX
 8 
1
 10 
0.56059
 20 
0.60309
 30 
0.0
 0 
VERTEX
 8 
1
 10 
0.59611
 20 
0.60515
 30 
0.0
 0 
VERTEX
 8 
1
 10 
0.63103
 20 
0.60618
 30 
0.0
 0 
VERTEX
 8 
1
 10 
0.66527
 20 
0.60623
 30 
0.0
 0 
VERTEX
 8 
1
 10 
0.69862
 20 
0.60533
 30 
0.0
 0 
VERTEX
 8 
1
 10 
0.73093
 20 
0.60349
 30 
0.0
 0 
VERTEX
 8 
1
 10 
0.76205
 20 
0.60079
 30 
0.0
 0 
VERTEX
 8 
1
 10 
0.7918
 20 
0.59726
 30 
0.0
 0 
VERTEX
 8 
1
 10 
0.82003
 20 
0.59295
 30 
0.0
 0 
VERTEX
 8 
1
 10 
0.84656
 20 
0.5879
 30 
0.0
 0 
VERTEX
 8 
1
 10 
0.87127
 20 
0.58214
 30 
0.0
 0 
VERTEX
 8 
1
 10 
0.89406
 20 
0.57574
 30 
0.0
 0 
VERTEX
 8 
1
 10 
0.91478
 20 
0.56875
 30 
0.0
 0 
VERTEX
 8 
1
 10 
0.93338
 20 
0.56121
 30 
0.0
 0 
VERTEX
 8 
1
 10 
0.9498
 20 
0.55327
 30 
0.0
 0 
VERTEX
 8 
1
 10 
0.96395
 20 
0.54497
 30 
0.0
 0 
VERTEX
 8 
1
 10 
0.97582
 20 
0.53644
 30 
0.0
 0 
VERTEX
 8 
1
 10 
0.9853
 20 
0.52787
 30 
0.0
 0 
VERTEX
 8 
1
 10 
0.99239
 20 
0.51929
 30 
0.0
 0 
VERTEX
 8 
1
 10 
0.99723
 20 
0.5109
 30 
0.0
 0 
VERTEX
 8 
1
 10 
0.99977
 20 
0.5031
 30 
0.0
 0 
VERTEX
 8 
1
 10 
0.99974
 20 
0.49659
 30 
0.0
 0 
VERTEX
 8 
1
 10 
0.99619
 20 
0.49107
 30 
0.0
 0 
VERTEX
 8 
1
 10 
0.98887
 20 
0.48575
 30 
0.0
 0 
VERTEX
 8 
1
 10 
0.97842
 20 
0.48059
 30 
0.0
 0 
VERTEX
 8 
1
 10 
0.96506
 20 
0.47566
 30 
0.0
 0 
VERTEX
 8 
1
 10 
0.94884
 20 
0.47107
 30 
0.0
 0 
VERTEX
 8 
1
 10 
0.92982
 20 
0.46681
 30 
0.0
 0 
VERTEX
 8 
1
 10 
0.90818
 20 
0.46289
 30 
0.0
 0 
VERTEX
 8 
1
 10 
0.88404
 20 
0.45936
 30 
0.0
 0 
VERTEX
 8 
1
 10 
0.85755
 20 
0.45619
 30 
0.0
 0 
VERTEX
 8 
1
 10 
0.82891
 20 
0.45341
 30 
0.0
 0 
VERTEX
 8 
1
 10 
0.79831
 20 
0.45103
 30 
0.0
 0 
VERTEX
 8 
1
 10 
0.76597
 20 
0.44909
 30 
0.0
 0 
VERTEX
 8 
1
 10 
0.73206
 20 
0.44763
 30 
0.0
 0 
VERTEX
 8 
1
 10 
0.6968
 20 
0.44666
 30 
0.0
 0 
VERTEX
 8 
1
 10 
0.66041
 20 
0.44622
 30 
0.0
 0 
VERTEX
 8 
1
 10 
0.62307
 20 
0.44634
 30 
0.0
 0 
VERTEX
 8 
1
 10 
0.58499
 20 
0.44699
 30 
0.0
 0 
VERTEX
 8 
1
 10 
0.54638
 20 
0.44823
 30 
0.0
 0 
VERTEX
 8 
1
 10 
0.50738
 20 
0.45003
 30 
0.0
 0 
VERTEX
 8 
1
 10 
0.46827
 20 
0.45235
 30 
0.0
 0 
VERTEX
 8 
1
 10 
0.42916
 20 
0.4552
 30 
0.0
 0 
VERTEX
 8 
1
 10 
0.39015
 20 
0.45845
 30 
0.0
 0 
VERTEX
 8 
1
 10 
0.35154
 20 
0.46191
 30 
0.0
 0 
VERTEX
 8 
1
 10 
0.3136
 20 
0.4655
 30 
0.0
 0 
VERTEX
 8 
1
 10 
0.27661
 20 
0.46911
 30 
0.0
 0 
VERTEX
 8 
1
 10 
0.24086
 20 
0.47267
 30 
0.0
 0 
VERTEX
 8 
1
 10 
0.20664
 20 
0.4761
 30 
0.0
 0 
VERTEX
 8 
1
 10 
0.17423
 20 
0.47936
 30 
0.0
 0 
VERTEX
 8 
1
 10 
0.14391
 20 
0.48241
 30 
0.0
 0 
VERTEX
 8 
1
 10 
0.11595
 20 
0.48522
 30 
0.0
 0 
VERTEX
 8 
1
 10 
0.09061
 20 
0.48778
 30 
0.0
 0 
VERTEX
 8 
1
 10 
0.06812
 20 
0.49013
 30 
0.0
 0 
VERTEX
 8 
1
 10 
0.04871
 20 
0.49231
 30 
0.0
 0 
VERTEX
 8 
1
 10 
0.032529
 20 
0.49448
 30 
0.0
 0 
VERTEX
 8 
1
 10 
0.01941
 20 
0.49673
 30 
0.0
 0 
VERTEX
 8 
1
 10 
0.0092400
 20 
0.49866
 30 
0.0
 0 
VERTEX
 8 
1
 10 
0.0024499
 20 
0.49977
 30 
0.0
 0 
VERTEX
 8 
1
 10 
0.0
 20 
0.5
 30 
0.0
 0 
SEQEND
 8 
1
 0 
ENDSEC
 0 
EOF
