 0 
SECTION
 2 
ENTITIES
 0 
POLYLINE
 8 
1
 66 
 1 
 10 
0.0
 20 
0.0
 30 
0.0
 0 
VERTEX
 8 
1
 10 
0.0
 20 
0.5
 30 
0.0
 0 
VERTEX
 8 
1
 10 
0.0018500
 20 
0.50022
 30 
0.0
 0 
VERTEX
 8 
1
 10 
0.0073400
 20 
0.50097
 30 
0.0
 0 
VERTEX
 8 
1
 10 
0.0163
 20 
0.50235
 30 
0.0
 0 
VERTEX
 8 
1
 10 
0.028530
 20 
0.50443
 30 
0.0
 0 
VERTEX
 8 
1
 10 
0.04381
 20 
0.5072
 30 
0.0
 0 
VERTEX
 8 
1
 10 
0.0619
 20 
0.51061
 30 
0.0
 0 
VERTEX
 8 
1
 10 
0.08256
 20 
0.51458
 30 
0.0
 0 
VERTEX
 8 
1
 10 
0.1056
 20 
0.51901
 30 
0.0
 0 
VERTEX
 8 
1
 10 
0.1308
 20 
0.52375
 30 
0.0
 0 
VERTEX
 8 
1
 10 
0.15799
 20 
0.52869
 30 
0.0
 0 
VERTEX
 8 
1
 10 
0.18702
 20 
0.53371
 30 
0.0
 0 
VERTEX
 8 
1
 10 
0.21773
 20 
0.53873
 30 
0.0
 0 
VERTEX
 8 
1
 10 
0.24993
 20 
0.54367
 30 
0.0
 0 
VERTEX
 8 
1
 10 
0.28345
 20 
0.54844
 30 
0.0
 0 
VERTEX
 8 
1
 10 
0.31814
 20 
0.553
 30 
0.0
 0 
VERTEX
 8 
1
 10 
0.35378
 20 
0.55732
 30 
0.0
 0 
VERTEX
 8 
1
 10 
0.39014
 20 
0.56135
 30 
0.0
 0 
VERTEX
 8 
1
 10 
0.427
 20 
0.56502
 30 
0.0
 0 
VERTEX
 8 
1
 10 
0.46416
 20 
0.5683
 30 
0.0
 0 
VERTEX
 8 
1
 10 
0.50139
 20 
0.57112
 30 
0.0
 0 
VERTEX
 8 
1
 10 
0.53849
 20 
0.57343
 30 
0.0
 0 
VERTEX
 8 
1
 10 
0.57523
 20 
0.57522
 30 
0.0
 0 
VERTEX
 8 
1
 10 
0.61143
 20 
0.57641
 30 
0.0
 0 
VERTEX
 8 
1
 10 
0.6469
 20 
0.577
 30 
0.0
 0 
VERTEX
 8 
1
 10 
0.68142
 20 
0.57696
 30 
0.0
 0 
VERTEX
 8 
1
 10 
0.71485
 20 
0.57625
 30 
0.0
 0 
VERTEX
 8 
1
 10 
0.74702
 20 
0.5749
 30 
0.0
 0 
VERTEX
 8 
1
 10 
0.77774
 20 
0.57288
 30 
0.0
 0 
VERTEX
 8 
1
 10 
0.8069
 20 
0.5702
 30 
0.0
 0 
VERTEX
 8 
1
 10 
0.83434
 20 
0.5669
 30 
0.0
 0 
VERTEX
 8 
1
 10 
0.85994
 20 
0.56298
 30 
0.0
 0 
VERTEX
 8 
1
 10 
0.88362
 20 
0.55847
 30 
0.0
 0 
VERTEX
 8 
1
 10 
0.90525
 20 
0.55344
 30 
0.0
 0 
VERTEX
 8 
1
 10 
0.92477
 20 
0.54791
 30 
0.0
 0 
VERTEX
 8 
1
 10 
0.94214
 20 
0.54199
 30 
0.0
 0 
VERTEX
 8 
1
 10 
0.95726
 20 
0.53574
 30 
0.0
 0 
VERTEX
 8 
1
 10 
0.97013
 20 
0.52924
 30 
0.0
 0 
VERTEX
 8 
1
 10 
0.98075
 20 
0.52268
 30 
0.0
 0 
VERTEX
 8 
1
 10 
0.98905
 20 
0.51619
 30 
0.0
 0 
VERTEX
 8 
1
 10 
0.99501
 20 
0.5099
 30 
0.0
 0 
VERTEX
 8 
1
 10 
0.99862
 20 
0.50405
 30 
0.0
 0 
VERTEX
 8 
1
 10 
0.99992
 20 
0.49901
 30 
0.0
 0 
VERTEX
 8 
1
 10 
0.9981
 20 
0.49526
 30 
0.0
 0 
VERTEX
 8 
1
 10 
0.99265
 20 
0.49226
 30 
0.0
 0 
VERTEX
 8 
1
 10 
0.98403
 20 
0.48941
 30 
0.0
 0 
VERTEX
 8 
1
 10 
0.97247
 20 
0.48694
 30 
0.0
 0 
VERTEX
 8 
1
 10 
0.95798
 20 
0.48495
 30 
0.0
 0 
VERTEX
 8 
1
 10 
0.94057
 20 
0.48339
 30 
0.0
 0 
VERTEX
 8 
1
 10 
0.92036
 20 
0.48223
 30 
0.0
 0 
VERTEX
 8 
1
 10 
0.89745
 20 
0.48149
 30 
0.0
 0 
VERTEX
 8 
1
 10 
0.87197
 20 
0.48115
 30 
0.0
 0 
VERTEX
 8 
1
 10 
0.84404
 20 
0.48118
 30 
0.0
 0 
VERTEX
 8 
1
 10 
0.81384
 20 
0.48154
 30 
0.0
 0 
VERTEX
 8 
1
 10 
0.78153
 20 
0.48221
 30 
0.0
 0 
VERTEX
 8 
1
 10 
0.74731
 20 
0.48315
 30 
0.0
 0 
VERTEX
 8 
1
 10 
0.71138
 20 
0.48432
 30 
0.0
 0 
VERTEX
 8 
1
 10 
0.67397
 20 
0.48567
 30 
0.0
 0 
VERTEX
 8 
1
 10 
0.6353
 20 
0.48717
 30 
0.0
 0 
VERTEX
 8 
1
 10 
0.59564
 20 
0.48875
 30 
0.0
 0 
VERTEX
 8 
1
 10 
0.55524
 20 
0.49039
 30 
0.0
 0 
VERTEX
 8 
1
 10 
0.51437
 20 
0.49204
 30 
0.0
 0 
VERTEX
 8 
1
 10 
0.47331
 20 
0.49368
 30 
0.0
 0 
VERTEX
 8 
1
 10 
0.43233
 20 
0.49527
 30 
0.0
 0 
VERTEX
 8 
1
 10 
0.39169
 20 
0.49678
 30 
0.0
 0 
VERTEX
 8 
1
 10 
0.35168
 20 
0.49816
 30 
0.0
 0 
VERTEX
 8 
1
 10 
0.31258
 20 
0.49939
 30 
0.0
 0 
VERTEX
 8 
1
 10 
0.27467
 20 
0.50044
 30 
0.0
 0 
VERTEX
 8 
1
 10 
0.23823
 20 
0.50129
 30 
0.0
 0 
VERTEX
 8 
1
 10 
0.20353
 20 
0.50193
 30 
0.0
 0 
VERTEX
 8 
1
 10 
0.17083
 20 
0.50236
 30 
0.0
 0 
VERTEX
 8 
1
 10 
0.14039
 20 
0.50259
 30 
0.0
 0 
VERTEX
 8 
1
 10 
0.11244
 20 
0.50264
 30 
0.0
 0 
VERTEX
 8 
1
 10 
0.08718
 20 
0.50254
 30 
0.0
 0 
VERTEX
 8 
1
 10 
0.0648
 20 
0.50231
 30 
0.0
 0 
VERTEX
 8 
1
 10 
0.045459
 20 
0.50196
 30 
0.0
 0 
VERTEX
 8 
1
 10 
0.02935
 20 
0.50152
 30 
0.0
 0 
VERTEX
 8 
1
 10 
0.01663
 20 
0.50102
 30 
0.0
 0 
VERTEX
 8 
1
 10 
0.0074300
 20 
0.50054
 30 
0.0
 0 
VERTEX
 8 
1
 10 
0.0018599
 20 
0.50016
 30 
0.0
 0 
VERTEX
 8 
1
 10 
0.0
 20 
0.5
 30 
0.0
 0 
SEQEND
 8 
1
 0 
ENDSEC
 0 
EOF
