 0 
SECTION
 2 
ENTITIES
 0 
POLYLINE
 8 
1
 66 
 1 
 10 
0.0
 20 
0.0
 30 
0.0
 0 
VERTEX
 8 
1
 10 
0.0
 20 
0.5
 30 
0.0
 0 
VERTEX
 8 
1
 10 
0.1
 20 
0.5285
 30 
0.0
 0 
VERTEX
 8 
1
 10 
0.2
 20 
0.555
 30 
0.0
 0 
VERTEX
 8 
1
 10 
0.3
 20 
0.5775
 30 
0.0
 0 
VERTEX
 8 
1
 10 
0.4
 20 
0.597
 30 
0.0
 0 
VERTEX
 8 
1
 10 
0.5
 20 
0.6135
 30 
0.0
 0 
VERTEX
 8 
1
 10 
0.6
 20 
0.625
 30 
0.0
 0 
VERTEX
 8 
1
 10 
0.7
 20 
0.6175
 30 
0.0
 0 
VERTEX
 8 
1
 10 
0.8
 20 
0.597
 30 
0.0
 0 
VERTEX
 8 
1
 10 
0.85
 20 
0.58275
 30 
0.0
 0 
VERTEX
 8 
1
 10 
0.9
 20 
0.5675
 30 
0.0
 0 
VERTEX
 8 
1
 10 
0.95
 20 
0.54625
 30 
0.0
 0 
VERTEX
 8 
1
 10 
0.975
 20 
0.53063
 30 
0.0
 0 
VERTEX
 8 
1
 10 
0.9875
 20 
0.52031
 30 
0.0
 0 
VERTEX
 8 
1
 10 
1
 20 
0.5
 30 
0.0
 0 
VERTEX
 8 
1
 10 
0.9875
 20 
0.48531
 30 
0.0
 0 
VERTEX
 8 
1
 10 
0.975
 20 
0.48062
 30 
0.0
 0 
VERTEX
 8 
1
 10 
0.95
 20 
0.47825
 30 
0.0
 0 
VERTEX
 8 
1
 10 
0.9
 20 
0.4795
 30 
0.0
 0 
VERTEX
 8 
1
 10 
0.85
 20 
0.49075
 30 
0.0
 0 
VERTEX
 8 
1
 10 
0.8
 20 
0.505
 30 
0.0
 0 
VERTEX
 8 
1
 10 
0.7
 20 
0.5355
 30 
0.0
 0 
VERTEX
 8 
1
 10 
0.6
 20 
0.57
 30 
0.0
 0 
VERTEX
 8 
1
 10 
0.5
 20 
0.5625
 30 
0.0
 0 
VERTEX
 8 
1
 10 
0.4
 20 
0.55
 30 
0.0
 0 
VERTEX
 8 
1
 10 
0.3
 20 
0.5375
 30 
0.0
 0 
VERTEX
 8 
1
 10 
0.2
 20 
0.525
 30 
0.0
 0 
VERTEX
 8 
1
 10 
0.1
 20 
0.5125
 30 
0.0
 0 
VERTEX
 8 
1
 10 
0.0
 20 
0.5
 30 
0.0
 0 
SEQEND
 8 
1
 0 
ENDSEC
 0 
EOF
