 0 
SECTION
 2 
ENTITIES
 0 
POLYLINE
 8 
1
 66 
 1 
 10 
0.0
 20 
0.0
 30 
0.0
 0 
VERTEX
 8 
1
 10 
0.0
 20 
0.500175
 30 
0.0
 0 
VERTEX
 8 
1
 10 
0.014069
 20 
0.502195
 30 
0.0
 0 
VERTEX
 8 
1
 10 
0.048235
 20 
0.507154
 30 
0.0
 0 
VERTEX
 8 
1
 10 
0.093175
 20 
0.514122
 30 
0.0
 0 
VERTEX
 8 
1
 10 
0.140904
 20 
0.521957
 30 
0.0
 0 
VERTEX
 8 
1
 10 
0.18942
 20 
0.530071
 30 
0.0
 0 
VERTEX
 8 
1
 10 
0.237542
 20 
0.53798
 30 
0.0
 0 
VERTEX
 8 
1
 10 
0.284921
 20 
0.545393
 30 
0.0
 0 
VERTEX
 8 
1
 10 
0.331831
 20 
0.552148
 30 
0.0
 0 
VERTEX
 8 
1
 10 
0.378387
 20 
0.558145
 30 
0.0
 0 
VERTEX
 8 
1
 10 
0.424856
 20 
0.563316
 30 
0.0
 0 
VERTEX
 8 
1
 10 
0.471413
 20 
0.5677
 30 
0.0
 0 
VERTEX
 8 
1
 10 
0.517815
 20 
0.571244
 30 
0.0
 0 
VERTEX
 8 
1
 10 
0.563974
 20 
0.573875
 30 
0.0
 0 
VERTEX
 8 
1
 10 
0.609821
 20 
0.575511
 30 
0.0
 0 
VERTEX
 8 
1
 10 
0.655304
 20 
0.576067
 30 
0.0
 0 
VERTEX
 8 
1
 10 
0.700339
 20 
0.575454
 30 
0.0
 0 
VERTEX
 8 
1
 10 
0.744785
 20 
0.573575
 30 
0.0
 0 
VERTEX
 8 
1
 10 
0.788368
 20 
0.570319
 30 
0.0
 0 
VERTEX
 8 
1
 10 
0.830658
 20 
0.565562
 30 
0.0
 0 
VERTEX
 8 
1
 10 
0.870909
 20 
0.559187
 30 
0.0
 0 
VERTEX
 8 
1
 10 
0.907673
 20 
0.551248
 30 
0.0
 0 
VERTEX
 8 
1
 10 
0.938265
 20 
0.542402
 30 
0.0
 0 
VERTEX
 8 
1
 10 
0.960175
 20 
0.534112
 30 
0.0
 0 
VERTEX
 8 
1
 10 
0.974438
 20 
0.527236
 30 
0.0
 0 
VERTEX
 8 
1
 10 
0.983816
 20 
0.521563
 30 
0.0
 0 
VERTEX
 8 
1
 10 
0.990254
 20 
0.516669
 30 
0.0
 0 
VERTEX
 8 
1
 10 
0.994765
 20 
0.512226
 30 
0.0
 0 
VERTEX
 8 
1
 10 
0.997783
 20 
0.507976
 30 
0.0
 0 
VERTEX
 8 
1
 10 
0.999485
 20 
0.503838
 30 
0.0
 0 
VERTEX
 8 
1
 10 
1
 20 
0.499892
 30 
0.0
 0 
VERTEX
 8 
1
 10 
0.999404
 20 
0.495985
 30 
0.0
 0 
VERTEX
 8 
1
 10 
0.997505
 20 
0.492078
 30 
0.0
 0 
VERTEX
 8 
1
 10 
0.994082
 20 
0.488499
 30 
0.0
 0 
VERTEX
 8 
1
 10 
0.989109
 20 
0.485231
 30 
0.0
 0 
VERTEX
 8 
1
 10 
0.982269
 20 
0.482004
 30 
0.0
 0 
VERTEX
 8 
1
 10 
0.972572
 20 
0.478582
 30 
0.0
 0 
VERTEX
 8 
1
 10 
0.957878
 20 
0.474733
 30 
0.0
 0 
VERTEX
 8 
1
 10 
0.934497
 20 
0.470336
 30 
0.0
 0 
VERTEX
 8 
1
 10 
0.900412
 20 
0.466031
 30 
0.0
 0 
VERTEX
 8 
1
 10 
0.859265
 20 
0.462805
 30 
0.0
 0 
VERTEX
 8 
1
 10 
0.815034
 20 
0.460872
 30 
0.0
 0 
VERTEX
 8 
1
 10 
0.769327
 20 
0.460066
 30 
0.0
 0 
VERTEX
 8 
1
 10 
0.722699
 20 
0.460176
 30 
0.0
 0 
VERTEX
 8 
1
 10 
0.675456
 20 
0.461039
 30 
0.0
 0 
VERTEX
 8 
1
 10 
0.627723
 20 
0.462508
 30 
0.0
 0 
VERTEX
 8 
1
 10 
0.579664
 20 
0.464481
 30 
0.0
 0 
VERTEX
 8 
1
 10 
0.53133
 20 
0.466871
 30 
0.0
 0 
VERTEX
 8 
1
 10 
0.482767
 20 
0.469606
 30 
0.0
 0 
VERTEX
 8 
1
 10 
0.434014
 20 
0.472623
 30 
0.0
 0 
VERTEX
 8 
1
 10 
0.385135
 20 
0.475863
 30 
0.0
 0 
VERTEX
 8 
1
 10 
0.33606
 20 
0.479301
 30 
0.0
 0 
VERTEX
 8 
1
 10 
0.286703
 20 
0.482848
 30 
0.0
 0 
VERTEX
 8 
1
 10 
0.23752
 20 
0.486348
 30 
0.0
 0 
VERTEX
 8 
1
 10 
0.188821
 20 
0.489641
 30 
0.0
 0 
VERTEX
 8 
1
 10 
0.140736
 20 
0.492573
 30 
0.0
 0 
VERTEX
 8 
1
 10 
0.093485
 20 
0.494932
 30 
0.0
 0 
VERTEX
 8 
1
 10 
0.048564
 20 
0.496563
 30 
0.0
 0 
VERTEX
 8 
1
 10 
0.014205
 20 
0.497401
 30 
0.0
 0 
VERTEX
 8 
1
 10 
0.0
 20 
0.497723
 30 
0.0
 0 
SEQEND
 8 
1
 0 
ENDSEC
 0 
EOF
