 0 
SECTION
 2 
ENTITIES
 0 
POLYLINE
 8 
1
 66 
 1 
 10 
0.0
 20 
0.0
 30 
0.0
 0 
VERTEX
 8 
1
 10 
0.0
 20 
0.5
 30 
0.0
 0 
VERTEX
 8 
1
 10 
0.013341
 20 
0.502467
 30 
0.0
 0 
VERTEX
 8 
1
 10 
0.048215
 20 
0.507353
 30 
0.0
 0 
VERTEX
 8 
1
 10 
0.089539
 20 
0.512664
 30 
0.0
 0 
VERTEX
 8 
1
 10 
0.13147
 20 
0.517838
 30 
0.0
 0 
VERTEX
 8 
1
 10 
0.173406
 20 
0.522849
 30 
0.0
 0 
VERTEX
 8 
1
 10 
0.215315
 20 
0.527668
 30 
0.0
 0 
VERTEX
 8 
1
 10 
0.257194
 20 
0.532267
 30 
0.0
 0 
VERTEX
 8 
1
 10 
0.299057
 20 
0.536625
 30 
0.0
 0 
VERTEX
 8 
1
 10 
0.340881
 20 
0.540716
 30 
0.0
 0 
VERTEX
 8 
1
 10 
0.382665
 20 
0.544502
 30 
0.0
 0 
VERTEX
 8 
1
 10 
0.424411
 20 
0.547953
 30 
0.0
 0 
VERTEX
 8 
1
 10 
0.466114
 20 
0.551036
 30 
0.0
 0 
VERTEX
 8 
1
 10 
0.507749
 20 
0.55371
 30 
0.0
 0 
VERTEX
 8 
1
 10 
0.549307
 20 
0.555923
 30 
0.0
 0 
VERTEX
 8 
1
 10 
0.590777
 20 
0.557624
 30 
0.0
 0 
VERTEX
 8 
1
 10 
0.632095
 20 
0.558748
 30 
0.0
 0 
VERTEX
 8 
1
 10 
0.673258
 20 
0.559219
 30 
0.0
 0 
VERTEX
 8 
1
 10 
0.714195
 20 
0.558943
 30 
0.0
 0 
VERTEX
 8 
1
 10 
0.754822
 20 
0.557809
 30 
0.0
 0 
VERTEX
 8 
1
 10 
0.79503
 20 
0.555674
 30 
0.0
 0 
VERTEX
 8 
1
 10 
0.834614
 20 
0.552362
 30 
0.0
 0 
VERTEX
 8 
1
 10 
0.873268
 20 
0.547643
 30 
0.0
 0 
VERTEX
 8 
1
 10 
0.910336
 20 
0.541248
 30 
0.0
 0 
VERTEX
 8 
1
 10 
0.944283
 20 
0.532982
 30 
0.0
 0 
VERTEX
 8 
1
 10 
0.970752
 20 
0.523648
 30 
0.0
 0 
VERTEX
 8 
1
 10 
0.985764
 20 
0.516
 30 
0.0
 0 
VERTEX
 8 
1
 10 
0.993349
 20 
0.510516
 30 
0.0
 0 
VERTEX
 8 
1
 10 
0.997471
 20 
0.506244
 30 
0.0
 0 
VERTEX
 8 
1
 10 
0.99956
 20 
0.502515
 30 
0.0
 0 
VERTEX
 8 
1
 10 
0.999942
 20 
0.499097
 30 
0.0
 0 
VERTEX
 8 
1
 10 
0.998552
 20 
0.495705
 30 
0.0
 0 
VERTEX
 8 
1
 10 
0.995141
 20 
0.492525
 30 
0.0
 0 
VERTEX
 8 
1
 10 
0.989197
 20 
0.489446
 30 
0.0
 0 
VERTEX
 8 
1
 10 
0.978323
 20 
0.485917
 30 
0.0
 0 
VERTEX
 8 
1
 10 
0.956383
 20 
0.481535
 30 
0.0
 0 
VERTEX
 8 
1
 10 
0.921976
 20 
0.477652
 30 
0.0
 0 
VERTEX
 8 
1
 10 
0.882878
 20 
0.475261
 30 
0.0
 0 
VERTEX
 8 
1
 10 
0.84233
 20 
0.473954
 30 
0.0
 0 
VERTEX
 8 
1
 10 
0.801114
 20 
0.473429
 30 
0.0
 0 
VERTEX
 8 
1
 10 
0.759482
 20 
0.473457
 30 
0.0
 0 
VERTEX
 8 
1
 10 
0.71762
 20 
0.473892
 30 
0.0
 0 
VERTEX
 8 
1
 10 
0.675624
 20 
0.47465
 30 
0.0
 0 
VERTEX
 8 
1
 10 
0.633535
 20 
0.475673
 30 
0.0
 0 
VERTEX
 8 
1
 10 
0.591397
 20 
0.476924
 30 
0.0
 0 
VERTEX
 8 
1
 10 
0.549261
 20 
0.478381
 30 
0.0
 0 
VERTEX
 8 
1
 10 
0.507281
 20 
0.480074
 30 
0.0
 0 
VERTEX
 8 
1
 10 
0.465422
 20 
0.482081
 30 
0.0
 0 
VERTEX
 8 
1
 10 
0.423632
 20 
0.484442
 30 
0.0
 0 
VERTEX
 8 
1
 10 
0.381693
 20 
0.487154
 30 
0.0
 0 
VERTEX
 8 
1
 10 
0.339424
 20 
0.49008
 30 
0.0
 0 
VERTEX
 8 
1
 10 
0.297137
 20 
0.493004
 30 
0.0
 0 
VERTEX
 8 
1
 10 
0.255104
 20 
0.495746
 30 
0.0
 0 
VERTEX
 8 
1
 10 
0.213299
 20 
0.498183
 30 
0.0
 0 
VERTEX
 8 
1
 10 
0.171736
 20 
0.50019
 30 
0.0
 0 
VERTEX
 8 
1
 10 
0.130464
 20 
0.501634
 30 
0.0
 0 
VERTEX
 8 
1
 10 
0.089648
 20 
0.502334
 30 
0.0
 0 
VERTEX
 8 
1
 10 
0.049537
 20 
0.502048
 30 
0.0
 0 
VERTEX
 8 
1
 10 
0.013958
 20 
0.500823
 30 
0.0
 0 
VERTEX
 8 
1
 10 
0.0
 20 
0.5
 30 
0.0
 0 
SEQEND
 8 
1
 0 
ENDSEC
 0 
EOF
