 0 
SECTION
 2 
ENTITIES
 0 
POLYLINE
 8 
1
 66 
 1 
 10 
0.0
 20 
0.0
 30 
0.0
 0 
VERTEX
 8 
1
 10 
0.0
 20 
0.501106
 30 
0.0
 0 
VERTEX
 8 
1
 10 
0.013989
 20 
0.501242
 30 
0.0
 0 
VERTEX
 8 
1
 10 
0.048435
 20 
0.502226
 30 
0.0
 0 
VERTEX
 8 
1
 10 
0.089643
 20 
0.504453
 30 
0.0
 0 
VERTEX
 8 
1
 10 
0.131778
 20 
0.507826
 30 
0.0
 0 
VERTEX
 8 
1
 10 
0.174755
 20 
0.512091
 30 
0.0
 0 
VERTEX
 8 
1
 10 
0.218196
 20 
0.516966
 30 
0.0
 0 
VERTEX
 8 
1
 10 
0.261917
 20 
0.522266
 30 
0.0
 0 
VERTEX
 8 
1
 10 
0.305808
 20 
0.527919
 30 
0.0
 0 
VERTEX
 8 
1
 10 
0.350096
 20 
0.533802
 30 
0.0
 0 
VERTEX
 8 
1
 10 
0.394227
 20 
0.539625
 30 
0.0
 0 
VERTEX
 8 
1
 10 
0.437893
 20 
0.545115
 30 
0.0
 0 
VERTEX
 8 
1
 10 
0.481299
 20 
0.550137
 30 
0.0
 0 
VERTEX
 8 
1
 10 
0.524487
 20 
0.554602
 30 
0.0
 0 
VERTEX
 8 
1
 10 
0.567413
 20 
0.5584
 30 
0.0
 0 
VERTEX
 8 
1
 10 
0.610013
 20 
0.561394
 30 
0.0
 0 
VERTEX
 8 
1
 10 
0.652358
 20 
0.563474
 30 
0.0
 0 
VERTEX
 8 
1
 10 
0.69431
 20 
0.564528
 30 
0.0
 0 
VERTEX
 8 
1
 10 
0.735709
 20 
0.564381
 30 
0.0
 0 
VERTEX
 8 
1
 10 
0.776552
 20 
0.562867
 30 
0.0
 0 
VERTEX
 8 
1
 10 
0.816876
 20 
0.559832
 30 
0.0
 0 
VERTEX
 8 
1
 10 
0.856504
 20 
0.55521
 30 
0.0
 0 
VERTEX
 8 
1
 10 
0.894568
 20 
0.548898
 30 
0.0
 0 
VERTEX
 8 
1
 10 
0.92951
 20 
0.540878
 30 
0.0
 0 
VERTEX
 8 
1
 10 
0.957718
 20 
0.531855
 30 
0.0
 0 
VERTEX
 8 
1
 10 
0.976097
 20 
0.523692
 30 
0.0
 0 
VERTEX
 8 
1
 10 
0.986702
 20 
0.517325
 30 
0.0
 0 
VERTEX
 8 
1
 10 
0.993034
 20 
0.512253
 30 
0.0
 0 
VERTEX
 8 
1
 10 
0.996952
 20 
0.507902
 30 
0.0
 0 
VERTEX
 8 
1
 10 
0.999194
 20 
0.503921
 30 
0.0
 0 
VERTEX
 8 
1
 10 
0.999991
 20 
0.500216
 30 
0.0
 0 
VERTEX
 8 
1
 10 
0.999399
 20 
0.496637
 30 
0.0
 0 
VERTEX
 8 
1
 10 
0.997159
 20 
0.493141
 30 
0.0
 0 
VERTEX
 8 
1
 10 
0.99315
 20 
0.490028
 30 
0.0
 0 
VERTEX
 8 
1
 10 
0.987021
 20 
0.487197
 30 
0.0
 0 
VERTEX
 8 
1
 10 
0.977359
 20 
0.484323
 30 
0.0
 0 
VERTEX
 8 
1
 10 
0.960375
 20 
0.481086
 30 
0.0
 0 
VERTEX
 8 
1
 10 
0.930957
 20 
0.477825
 30 
0.0
 0 
VERTEX
 8 
1
 10 
0.89231
 20 
0.475641
 30 
0.0
 0 
VERTEX
 8 
1
 10 
0.850384
 20 
0.474623
 30 
0.0
 0 
VERTEX
 8 
1
 10 
0.807707
 20 
0.474412
 30 
0.0
 0 
VERTEX
 8 
1
 10 
0.763282
 20 
0.474712
 30 
0.0
 0 
VERTEX
 8 
1
 10 
0.718932
 20 
0.47531
 30 
0.0
 0 
VERTEX
 8 
1
 10 
0.674353
 20 
0.476091
 30 
0.0
 0 
VERTEX
 8 
1
 10 
0.629637
 20 
0.476987
 30 
0.0
 0 
VERTEX
 8 
1
 10 
0.584819
 20 
0.477952
 30 
0.0
 0 
VERTEX
 8 
1
 10 
0.539993
 20 
0.478954
 30 
0.0
 0 
VERTEX
 8 
1
 10 
0.495207
 20 
0.480012
 30 
0.0
 0 
VERTEX
 8 
1
 10 
0.450379
 20 
0.481127
 30 
0.0
 0 
VERTEX
 8 
1
 10 
0.405505
 20 
0.482254
 30 
0.0
 0 
VERTEX
 8 
1
 10 
0.3608
 20 
0.483414
 30 
0.0
 0 
VERTEX
 8 
1
 10 
0.31615
 20 
0.484688
 30 
0.0
 0 
VERTEX
 8 
1
 10 
0.271773
 20 
0.486074
 30 
0.0
 0 
VERTEX
 8 
1
 10 
0.227744
 20 
0.487766
 30 
0.0
 0 
VERTEX
 8 
1
 10 
0.183547
 20 
0.489797
 30 
0.0
 0 
VERTEX
 8 
1
 10 
0.139082
 20 
0.49206
 30 
0.0
 0 
VERTEX
 8 
1
 10 
0.094376
 20 
0.494364
 30 
0.0
 0 
VERTEX
 8 
1
 10 
0.050256
 20 
0.496613
 30 
0.0
 0 
VERTEX
 8 
1
 10 
0.013721
 20 
0.498459
 30 
0.0
 0 
VERTEX
 8 
1
 10 
0.0
 20 
0.499147
 30 
0.0
 0 
SEQEND
 8 
1
 0 
ENDSEC
 0 
EOF
