 0 
SECTION
 2 
ENTITIES
 0 
POLYLINE
 8 
1
 66 
 1 
 10 
0.0
 20 
0.0
 30 
0.0
 0 
VERTEX
 8 
1
 10 
-102
 20 
103,5
 30 
0.0
 0 
VERTEX
 8 
1
 10 
1
 20 
0.5
 30 
0.0
 0 
VERTEX
 8 
1
 10 
0.998
 20 
0.5043
 30 
0.0
 0 
VERTEX
 8 
1
 10 
0.995
 20 
0.5065
 30 
0.0
 0 
VERTEX
 8 
1
 10 
0.99
 20 
0.5088
 30 
0.0
 0 
VERTEX
 8 
1
 10 
0.98
 20 
0.5119
 30 
0.0
 0 
VERTEX
 8 
1
 10 
0.97
 20 
0.514
 30 
0.0
 0 
VERTEX
 8 
1
 10 
0.96
 20 
0.5157
 30 
0.0
 0 
VERTEX
 8 
1
 10 
0.95
 20 
0.5171
 30 
0.0
 0 
VERTEX
 8 
1
 10 
0.94
 20 
0.5183
 30 
0.0
 0 
VERTEX
 8 
1
 10 
0.93
 20 
0.5194
 30 
0.0
 0 
VERTEX
 8 
1
 10 
0.92
 20 
0.5204
 30 
0.0
 0 
VERTEX
 8 
1
 10 
0.91
 20 
0.5213
 30 
0.0
 0 
VERTEX
 8 
1
 10 
0.9
 20 
0.5221
 30 
0.0
 0 
VERTEX
 8 
1
 10 
0.89
 20 
0.5228
 30 
0.0
 0 
VERTEX
 8 
1
 10 
0.88
 20 
0.5235
 30 
0.0
 0 
VERTEX
 8 
1
 10 
0.87
 20 
0.5241
 30 
0.0
 0 
VERTEX
 8 
1
 10 
0.86
 20 
0.5247
 30 
0.0
 0 
VERTEX
 8 
1
 10 
0.85
 20 
0.5252
 30 
0.0
 0 
VERTEX
 8 
1
 10 
0.84
 20 
0.5257
 30 
0.0
 0 
VERTEX
 8 
1
 10 
0.83
 20 
0.5262
 30 
0.0
 0 
VERTEX
 8 
1
 10 
0.82
 20 
0.5266
 30 
0.0
 0 
VERTEX
 8 
1
 10 
0.81
 20 
0.527
 30 
0.0
 0 
VERTEX
 8 
1
 10 
0.8
 20 
0.5274
 30 
0.0
 0 
VERTEX
 8 
1
 10 
0.79
 20 
0.5277
 30 
0.0
 0 
VERTEX
 8 
1
 10 
0.78
 20 
0.528
 30 
0.0
 0 
VERTEX
 8 
1
 10 
0.77
 20 
0.5283
 30 
0.0
 0 
VERTEX
 8 
1
 10 
0.76
 20 
0.5286
 30 
0.0
 0 
VERTEX
 8 
1
 10 
0.75
 20 
0.5288
 30 
0.0
 0 
VERTEX
 8 
1
 10 
0.74
 20 
0.529
 30 
0.0
 0 
VERTEX
 8 
1
 10 
0.73
 20 
0.5292
 30 
0.0
 0 
VERTEX
 8 
1
 10 
0.72
 20 
0.5294
 30 
0.0
 0 
VERTEX
 8 
1
 10 
0.71
 20 
0.5295
 30 
0.0
 0 
VERTEX
 8 
1
 10 
0.7
 20 
0.5296
 30 
0.0
 0 
VERTEX
 8 
1
 10 
0.69
 20 
0.5297
 30 
0.0
 0 
VERTEX
 8 
1
 10 
0.68
 20 
0.5298
 30 
0.0
 0 
VERTEX
 8 
1
 10 
0.67
 20 
0.5299
 30 
0.0
 0 
VERTEX
 8 
1
 10 
0.66
 20 
0.53
 30 
0.0
 0 
VERTEX
 8 
1
 10 
0.65
 20 
0.53
 30 
0.0
 0 
VERTEX
 8 
1
 10 
0.64
 20 
0.53
 30 
0.0
 0 
VERTEX
 8 
1
 10 
0.63
 20 
0.53
 30 
0.0
 0 
VERTEX
 8 
1
 10 
0.62
 20 
0.53
 30 
0.0
 0 
VERTEX
 8 
1
 10 
0.61
 20 
0.53
 30 
0.0
 0 
VERTEX
 8 
1
 10 
0.6
 20 
0.53
 30 
0.0
 0 
VERTEX
 8 
1
 10 
0.59
 20 
0.53
 30 
0.0
 0 
VERTEX
 8 
1
 10 
0.58
 20 
0.5299
 30 
0.0
 0 
VERTEX
 8 
1
 10 
0.57
 20 
0.5298
 30 
0.0
 0 
VERTEX
 8 
1
 10 
0.56
 20 
0.5297
 30 
0.0
 0 
VERTEX
 8 
1
 10 
0.55
 20 
0.5296
 30 
0.0
 0 
VERTEX
 8 
1
 10 
0.54
 20 
0.5295
 30 
0.0
 0 
VERTEX
 8 
1
 10 
0.53
 20 
0.5294
 30 
0.0
 0 
VERTEX
 8 
1
 10 
0.52
 20 
0.5292
 30 
0.0
 0 
VERTEX
 8 
1
 10 
0.51
 20 
0.529
 30 
0.0
 0 
VERTEX
 8 
1
 10 
0.5
 20 
0.5288
 30 
0.0
 0 
VERTEX
 8 
1
 10 
0.49
 20 
0.5286
 30 
0.0
 0 
VERTEX
 8 
1
 10 
0.48
 20 
0.5284
 30 
0.0
 0 
VERTEX
 8 
1
 10 
0.47
 20 
0.5282
 30 
0.0
 0 
VERTEX
 8 
1
 10 
0.46
 20 
0.528
 30 
0.0
 0 
VERTEX
 8 
1
 10 
0.45
 20 
0.5277
 30 
0.0
 0 
VERTEX
 8 
1
 10 
0.44
 20 
0.5274
 30 
0.0
 0 
VERTEX
 8 
1
 10 
0.43
 20 
0.5271
 30 
0.0
 0 
VERTEX
 8 
1
 10 
0.42
 20 
0.5268
 30 
0.0
 0 
VERTEX
 8 
1
 10 
0.41
 20 
0.5265
 30 
0.0
 0 
VERTEX
 8 
1
 10 
0.4
 20 
0.5262
 30 
0.0
 0 
VERTEX
 8 
1
 10 
0.39
 20 
0.5259
 30 
0.0
 0 
VERTEX
 8 
1
 10 
0.38
 20 
0.5255
 30 
0.0
 0 
VERTEX
 8 
1
 10 
0.37
 20 
0.5251
 30 
0.0
 0 
VERTEX
 8 
1
 10 
0.36
 20 
0.5247
 30 
0.0
 0 
VERTEX
 8 
1
 10 
0.35
 20 
0.5243
 30 
0.0
 0 
VERTEX
 8 
1
 10 
0.34
 20 
0.5239
 30 
0.0
 0 
VERTEX
 8 
1
 10 
0.33
 20 
0.5234
 30 
0.0
 0 
VERTEX
 8 
1
 10 
0.32
 20 
0.5229
 30 
0.0
 0 
VERTEX
 8 
1
 10 
0.31
 20 
0.5224
 30 
0.0
 0 
VERTEX
 8 
1
 10 
0.3
 20 
0.5219
 30 
0.0
 0 
VERTEX
 8 
1
 10 
0.29
 20 
0.5213
 30 
0.0
 0 
VERTEX
 8 
1
 10 
0.28
 20 
0.5207
 30 
0.0
 0 
VERTEX
 8 
1
 10 
0.27
 20 
0.5201
 30 
0.0
 0 
VERTEX
 8 
1
 10 
0.26
 20 
0.5195
 30 
0.0
 0 
VERTEX
 8 
1
 10 
0.25
 20 
0.5189
 30 
0.0
 0 
VERTEX
 8 
1
 10 
0.24
 20 
0.5182
 30 
0.0
 0 
VERTEX
 8 
1
 10 
0.23
 20 
0.5175
 30 
0.0
 0 
VERTEX
 8 
1
 10 
0.22
 20 
0.5168
 30 
0.0
 0 
VERTEX
 8 
1
 10 
0.21
 20 
0.5161
 30 
0.0
 0 
VERTEX
 8 
1
 10 
0.2
 20 
0.5153
 30 
0.0
 0 
VERTEX
 8 
1
 10 
0.19
 20 
0.5145
 30 
0.0
 0 
VERTEX
 8 
1
 10 
0.18
 20 
0.5137
 30 
0.0
 0 
VERTEX
 8 
1
 10 
0.17
 20 
0.5128
 30 
0.0
 0 
VERTEX
 8 
1
 10 
0.16
 20 
0.5119
 30 
0.0
 0 
VERTEX
 8 
1
 10 
0.15
 20 
0.511
 30 
0.0
 0 
VERTEX
 8 
1
 10 
0.14
 20 
0.51
 30 
0.0
 0 
VERTEX
 8 
1
 10 
0.13
 20 
0.509
 30 
0.0
 0 
VERTEX
 8 
1
 10 
0.12
 20 
0.5079
 30 
0.0
 0 
VERTEX
 8 
1
 10 
0.11
 20 
0.5068
 30 
0.0
 0 
VERTEX
 8 
1
 10 
0.1
 20 
0.5056
 30 
0.0
 0 
VERTEX
 8 
1
 10 
0.09
 20 
0.5044
 30 
0.0
 0 
VERTEX
 8 
1
 10 
0.08
 20 
0.5031
 30 
0.0
 0 
VERTEX
 8 
1
 10 
0.07
 20 
0.5018
 30 
0.0
 0 
VERTEX
 8 
1
 10 
0.060000
 20 
0.5004
 30 
0.0
 0 
VERTEX
 8 
1
 10 
0.05
 20 
0.499
 30 
0.0
 0 
VERTEX
 8 
1
 10 
0.04
 20 
0.4975
 30 
0.0
 0 
VERTEX
 8 
1
 10 
0.03
 20 
0.4959
 30 
0.0
 0 
VERTEX
 8 
1
 10 
0.02
 20 
0.4941
 30 
0.0
 0 
VERTEX
 8 
1
 10 
0.01
 20 
0.4922
 30 
0.0
 0 
VERTEX
 8 
1
 10 
0.0
 20 
0.4902
 30 
0.0
 0 
VERTEX
 8 
1
 10 
1
 20 
0.5
 30 
0.0
 0 
VERTEX
 8 
1
 10 
0.998
 20 
0.4957
 30 
0.0
 0 
VERTEX
 8 
1
 10 
0.995
 20 
0.4935
 30 
0.0
 0 
VERTEX
 8 
1
 10 
0.99
 20 
0.4912
 30 
0.0
 0 
VERTEX
 8 
1
 10 
0.98
 20 
0.4881
 30 
0.0
 0 
VERTEX
 8 
1
 10 
0.97
 20 
0.486
 30 
0.0
 0 
VERTEX
 8 
1
 10 
0.96
 20 
0.4843
 30 
0.0
 0 
VERTEX
 8 
1
 10 
0.95
 20 
0.4829
 30 
0.0
 0 
VERTEX
 8 
1
 10 
0.94
 20 
0.4817
 30 
0.0
 0 
VERTEX
 8 
1
 10 
0.93
 20 
0.4806
 30 
0.0
 0 
VERTEX
 8 
1
 10 
0.92
 20 
0.4796
 30 
0.0
 0 
VERTEX
 8 
1
 10 
0.91
 20 
0.4787
 30 
0.0
 0 
VERTEX
 8 
1
 10 
0.9
 20 
0.4779
 30 
0.0
 0 
VERTEX
 8 
1
 10 
0.89
 20 
0.4771
 30 
0.0
 0 
VERTEX
 8 
1
 10 
0.88
 20 
0.4764
 30 
0.0
 0 
VERTEX
 8 
1
 10 
0.87
 20 
0.4758
 30 
0.0
 0 
VERTEX
 8 
1
 10 
0.86
 20 
0.4752
 30 
0.0
 0 
VERTEX
 8 
1
 10 
0.85
 20 
0.4747
 30 
0.0
 0 
VERTEX
 8 
1
 10 
0.84
 20 
0.4742
 30 
0.0
 0 
VERTEX
 8 
1
 10 
0.83
 20 
0.4737
 30 
0.0
 0 
VERTEX
 8 
1
 10 
0.82
 20 
0.4733
 30 
0.0
 0 
VERTEX
 8 
1
 10 
0.81
 20 
0.4729
 30 
0.0
 0 
VERTEX
 8 
1
 10 
0.8
 20 
0.4725
 30 
0.0
 0 
VERTEX
 8 
1
 10 
0.79
 20 
0.4722
 30 
0.0
 0 
VERTEX
 8 
1
 10 
0.78
 20 
0.4719
 30 
0.0
 0 
VERTEX
 8 
1
 10 
0.77
 20 
0.4716
 30 
0.0
 0 
VERTEX
 8 
1
 10 
0.76
 20 
0.4713
 30 
0.0
 0 
VERTEX
 8 
1
 10 
0.75
 20 
0.4711
 30 
0.0
 0 
VERTEX
 8 
1
 10 
0.74
 20 
0.4709
 30 
0.0
 0 
VERTEX
 8 
1
 10 
0.73
 20 
0.4707
 30 
0.0
 0 
VERTEX
 8 
1
 10 
0.72
 20 
0.4705
 30 
0.0
 0 
VERTEX
 8 
1
 10 
0.71
 20 
0.4704
 30 
0.0
 0 
VERTEX
 8 
1
 10 
0.7
 20 
0.4703
 30 
0.0
 0 
VERTEX
 8 
1
 10 
0.69
 20 
0.4702
 30 
0.0
 0 
VERTEX
 8 
1
 10 
0.68
 20 
0.4701
 30 
0.0
 0 
VERTEX
 8 
1
 10 
0.67
 20 
0.47
 30 
0.0
 0 
VERTEX
 8 
1
 10 
0.66
 20 
0.47
 30 
0.0
 0 
VERTEX
 8 
1
 10 
0.65
 20 
0.47
 30 
0.0
 0 
VERTEX
 8 
1
 10 
0.64
 20 
0.47
 30 
0.0
 0 
VERTEX
 8 
1
 10 
0.63
 20 
0.47
 30 
0.0
 0 
VERTEX
 8 
1
 10 
0.62
 20 
0.4701
 30 
0.0
 0 
VERTEX
 8 
1
 10 
0.61
 20 
0.4702
 30 
0.0
 0 
VERTEX
 8 
1
 10 
0.6
 20 
0.4703
 30 
0.0
 0 
VERTEX
 8 
1
 10 
0.59
 20 
0.4704
 30 
0.0
 0 
VERTEX
 8 
1
 10 
0.58
 20 
0.4706
 30 
0.0
 0 
VERTEX
 8 
1
 10 
0.57
 20 
0.4708
 30 
0.0
 0 
VERTEX
 8 
1
 10 
0.56
 20 
0.471
 30 
0.0
 0 
VERTEX
 8 
1
 10 
0.55
 20 
0.4713
 30 
0.0
 0 
VERTEX
 8 
1
 10 
0.54
 20 
0.4716
 30 
0.0
 0 
VERTEX
 8 
1
 10 
0.53
 20 
0.4719
 30 
0.0
 0 
VERTEX
 8 
1
 10 
0.52
 20 
0.4722
 30 
0.0
 0 
VERTEX
 8 
1
 10 
0.51
 20 
0.4726
 30 
0.0
 0 
VERTEX
 8 
1
 10 
0.5
 20 
0.473
 30 
0.0
 0 
VERTEX
 8 
1
 10 
0.49
 20 
0.4734
 30 
0.0
 0 
VERTEX
 8 
1
 10 
0.48
 20 
0.4738
 30 
0.0
 0 
VERTEX
 8 
1
 10 
0.47
 20 
0.4743
 30 
0.0
 0 
VERTEX
 8 
1
 10 
0.46
 20 
0.4748
 30 
0.0
 0 
VERTEX
 8 
1
 10 
0.45
 20 
0.4753
 30 
0.0
 0 
VERTEX
 8 
1
 10 
0.44
 20 
0.4759
 30 
0.0
 0 
VERTEX
 8 
1
 10 
0.43
 20 
0.4765
 30 
0.0
 0 
VERTEX
 8 
1
 10 
0.42
 20 
0.4771
 30 
0.0
 0 
VERTEX
 8 
1
 10 
0.41
 20 
0.4777
 30 
0.0
 0 
VERTEX
 8 
1
 10 
0.4
 20 
0.4783
 30 
0.0
 0 
VERTEX
 8 
1
 10 
0.39
 20 
0.4789
 30 
0.0
 0 
VERTEX
 8 
1
 10 
0.38
 20 
0.4795
 30 
0.0
 0 
VERTEX
 8 
1
 10 
0.37
 20 
0.4801
 30 
0.0
 0 
VERTEX
 8 
1
 10 
0.36
 20 
0.4808
 30 
0.0
 0 
VERTEX
 8 
1
 10 
0.35
 20 
0.4815
 30 
0.0
 0 
VERTEX
 8 
1
 10 
0.34
 20 
0.4822
 30 
0.0
 0 
VERTEX
 8 
1
 10 
0.33
 20 
0.4829
 30 
0.0
 0 
VERTEX
 8 
1
 10 
0.32
 20 
0.4836
 30 
0.0
 0 
VERTEX
 8 
1
 10 
0.31
 20 
0.4843
 30 
0.0
 0 
VERTEX
 8 
1
 10 
0.3
 20 
0.485
 30 
0.0
 0 
VERTEX
 8 
1
 10 
0.29
 20 
0.4857
 30 
0.0
 0 
VERTEX
 8 
1
 10 
0.28
 20 
0.4864
 30 
0.0
 0 
VERTEX
 8 
1
 10 
0.27
 20 
0.4871
 30 
0.0
 0 
VERTEX
 8 
1
 10 
0.26
 20 
0.4878
 30 
0.0
 0 
VERTEX
 8 
1
 10 
0.25
 20 
0.4885
 30 
0.0
 0 
VERTEX
 8 
1
 10 
0.24
 20 
0.4892
 30 
0.0
 0 
VERTEX
 8 
1
 10 
0.23
 20 
0.4899
 30 
0.0
 0 
VERTEX
 8 
1
 10 
0.22
 20 
0.4906
 30 
0.0
 0 
VERTEX
 8 
1
 10 
0.21
 20 
0.4912
 30 
0.0
 0 
VERTEX
 8 
1
 10 
0.2
 20 
0.4918
 30 
0.0
 0 
VERTEX
 8 
1
 10 
0.19
 20 
0.4924
 30 
0.0
 0 
VERTEX
 8 
1
 10 
0.18
 20 
0.4929
 30 
0.0
 0 
VERTEX
 8 
1
 10 
0.17
 20 
0.4934
 30 
0.0
 0 
VERTEX
 8 
1
 10 
0.16
 20 
0.4939
 30 
0.0
 0 
VERTEX
 8 
1
 10 
0.15
 20 
0.4943
 30 
0.0
 0 
VERTEX
 8 
1
 10 
0.14
 20 
0.4947
 30 
0.0
 0 
VERTEX
 8 
1
 10 
0.13
 20 
0.495
 30 
0.0
 0 
VERTEX
 8 
1
 10 
0.12
 20 
0.4952
 30 
0.0
 0 
VERTEX
 8 
1
 10 
0.11
 20 
0.4953
 30 
0.0
 0 
VERTEX
 8 
1
 10 
0.1
 20 
0.4953
 30 
0.0
 0 
VERTEX
 8 
1
 10 
0.09
 20 
0.4952
 30 
0.0
 0 
VERTEX
 8 
1
 10 
0.08
 20 
0.495
 30 
0.0
 0 
VERTEX
 8 
1
 10 
0.07
 20 
0.4946
 30 
0.0
 0 
VERTEX
 8 
1
 10 
0.060000
 20 
0.4941
 30 
0.0
 0 
VERTEX
 8 
1
 10 
0.05
 20 
0.4934
 30 
0.0
 0 
VERTEX
 8 
1
 10 
0.04
 20 
0.4924
 30 
0.0
 0 
VERTEX
 8 
1
 10 
0.03
 20 
0.4912
 30 
0.0
 0 
VERTEX
 8 
1
 10 
0.02
 20 
0.4897
 30 
0.0
 0 
VERTEX
 8 
1
 10 
0.01
 20 
0.488
 30 
0.0
 0 
VERTEX
 8 
1
 10 
0.0
 20 
0.4861
 30 
0.0
 0 
SEQEND
 8 
1
 0 
ENDSEC
 0 
EOF
