 0 
SECTION
 2 
ENTITIES
 0 
POLYLINE
 8 
1
 66 
 1 
 10 
0.0
 20 
0.0
 30 
0.0
 0 
VERTEX
 8 
1
 10 
-102
 20 
103,5
 30 
0.0
 0 
VERTEX
 8 
1
 10 
1
 20 
0.5
 30 
0.0
 0 
VERTEX
 8 
1
 10 
0.998
 20 
0.5021
 30 
0.0
 0 
VERTEX
 8 
1
 10 
0.995
 20 
0.5032
 30 
0.0
 0 
VERTEX
 8 
1
 10 
0.99
 20 
0.5043
 30 
0.0
 0 
VERTEX
 8 
1
 10 
0.98
 20 
0.5057
 30 
0.0
 0 
VERTEX
 8 
1
 10 
0.97
 20 
0.5068
 30 
0.0
 0 
VERTEX
 8 
1
 10 
0.96
 20 
0.5076
 30 
0.0
 0 
VERTEX
 8 
1
 10 
0.95
 20 
0.5083
 30 
0.0
 0 
VERTEX
 8 
1
 10 
0.94
 20 
0.5089
 30 
0.0
 0 
VERTEX
 8 
1
 10 
0.93
 20 
0.5095
 30 
0.0
 0 
VERTEX
 8 
1
 10 
0.92
 20 
0.51
 30 
0.0
 0 
VERTEX
 8 
1
 10 
0.91
 20 
0.5105
 30 
0.0
 0 
VERTEX
 8 
1
 10 
0.9
 20 
0.5109
 30 
0.0
 0 
VERTEX
 8 
1
 10 
0.89
 20 
0.5113
 30 
0.0
 0 
VERTEX
 8 
1
 10 
0.88
 20 
0.5117
 30 
0.0
 0 
VERTEX
 8 
1
 10 
0.87
 20 
0.512
 30 
0.0
 0 
VERTEX
 8 
1
 10 
0.86
 20 
0.5123
 30 
0.0
 0 
VERTEX
 8 
1
 10 
0.85
 20 
0.5126
 30 
0.0
 0 
VERTEX
 8 
1
 10 
0.84
 20 
0.51285
 30 
0.0
 0 
VERTEX
 8 
1
 10 
0.83
 20 
0.5131
 30 
0.0
 0 
VERTEX
 8 
1
 10 
0.82
 20 
0.5133
 30 
0.0
 0 
VERTEX
 8 
1
 10 
0.81
 20 
0.5135
 30 
0.0
 0 
VERTEX
 8 
1
 10 
0.8
 20 
0.5137
 30 
0.0
 0 
VERTEX
 8 
1
 10 
0.79
 20 
0.5139
 30 
0.0
 0 
VERTEX
 8 
1
 10 
0.78
 20 
0.51405
 30 
0.0
 0 
VERTEX
 8 
1
 10 
0.77
 20 
0.5142
 30 
0.0
 0 
VERTEX
 8 
1
 10 
0.76
 20 
0.51435
 30 
0.0
 0 
VERTEX
 8 
1
 10 
0.75
 20 
0.5145
 30 
0.0
 0 
VERTEX
 8 
1
 10 
0.74
 20 
0.5146
 30 
0.0
 0 
VERTEX
 8 
1
 10 
0.73
 20 
0.5147
 30 
0.0
 0 
VERTEX
 8 
1
 10 
0.72
 20 
0.5148
 30 
0.0
 0 
VERTEX
 8 
1
 10 
0.71
 20 
0.51485
 30 
0.0
 0 
VERTEX
 8 
1
 10 
0.7
 20 
0.5149
 30 
0.0
 0 
VERTEX
 8 
1
 10 
0.69
 20 
0.51495
 30 
0.0
 0 
VERTEX
 8 
1
 10 
0.68
 20 
0.515
 30 
0.0
 0 
VERTEX
 8 
1
 10 
0.67
 20 
0.515
 30 
0.0
 0 
VERTEX
 8 
1
 10 
0.66
 20 
0.515
 30 
0.0
 0 
VERTEX
 8 
1
 10 
0.65
 20 
0.515
 30 
0.0
 0 
VERTEX
 8 
1
 10 
0.64
 20 
0.515
 30 
0.0
 0 
VERTEX
 8 
1
 10 
0.63
 20 
0.515
 30 
0.0
 0 
VERTEX
 8 
1
 10 
0.62
 20 
0.515
 30 
0.0
 0 
VERTEX
 8 
1
 10 
0.61
 20 
0.515
 30 
0.0
 0 
VERTEX
 8 
1
 10 
0.6
 20 
0.51495
 30 
0.0
 0 
VERTEX
 8 
1
 10 
0.59
 20 
0.5149
 30 
0.0
 0 
VERTEX
 8 
1
 10 
0.58
 20 
0.51485
 30 
0.0
 0 
VERTEX
 8 
1
 10 
0.57
 20 
0.5148
 30 
0.0
 0 
VERTEX
 8 
1
 10 
0.56
 20 
0.51475
 30 
0.0
 0 
VERTEX
 8 
1
 10 
0.55
 20 
0.5147
 30 
0.0
 0 
VERTEX
 8 
1
 10 
0.54
 20 
0.51465
 30 
0.0
 0 
VERTEX
 8 
1
 10 
0.53
 20 
0.5146
 30 
0.0
 0 
VERTEX
 8 
1
 10 
0.52
 20 
0.5145
 30 
0.0
 0 
VERTEX
 8 
1
 10 
0.51
 20 
0.5144
 30 
0.0
 0 
VERTEX
 8 
1
 10 
0.5
 20 
0.5143
 30 
0.0
 0 
VERTEX
 8 
1
 10 
0.49
 20 
0.5142
 30 
0.0
 0 
VERTEX
 8 
1
 10 
0.48
 20 
0.5141
 30 
0.0
 0 
VERTEX
 8 
1
 10 
0.47
 20 
0.514
 30 
0.0
 0 
VERTEX
 8 
1
 10 
0.46
 20 
0.5139
 30 
0.0
 0 
VERTEX
 8 
1
 10 
0.45
 20 
0.51375
 30 
0.0
 0 
VERTEX
 8 
1
 10 
0.44
 20 
0.5136
 30 
0.0
 0 
VERTEX
 8 
1
 10 
0.43
 20 
0.51345
 30 
0.0
 0 
VERTEX
 8 
1
 10 
0.42
 20 
0.5133
 30 
0.0
 0 
VERTEX
 8 
1
 10 
0.41
 20 
0.51315
 30 
0.0
 0 
VERTEX
 8 
1
 10 
0.4
 20 
0.513
 30 
0.0
 0 
VERTEX
 8 
1
 10 
0.39
 20 
0.5128
 30 
0.0
 0 
VERTEX
 8 
1
 10 
0.38
 20 
0.5126
 30 
0.0
 0 
VERTEX
 8 
1
 10 
0.37
 20 
0.5124
 30 
0.0
 0 
VERTEX
 8 
1
 10 
0.36
 20 
0.5122
 30 
0.0
 0 
VERTEX
 8 
1
 10 
0.35
 20 
0.512
 30 
0.0
 0 
VERTEX
 8 
1
 10 
0.34
 20 
0.5118
 30 
0.0
 0 
VERTEX
 8 
1
 10 
0.33
 20 
0.5116
 30 
0.0
 0 
VERTEX
 8 
1
 10 
0.32
 20 
0.5114
 30 
0.0
 0 
VERTEX
 8 
1
 10 
0.31
 20 
0.51115
 30 
0.0
 0 
VERTEX
 8 
1
 10 
0.3
 20 
0.5109
 30 
0.0
 0 
VERTEX
 8 
1
 10 
0.29
 20 
0.51065
 30 
0.0
 0 
VERTEX
 8 
1
 10 
0.28
 20 
0.5104
 30 
0.0
 0 
VERTEX
 8 
1
 10 
0.27
 20 
0.51015
 30 
0.0
 0 
VERTEX
 8 
1
 10 
0.26
 20 
0.5099
 30 
0.0
 0 
VERTEX
 8 
1
 10 
0.25
 20 
0.5096
 30 
0.0
 0 
VERTEX
 8 
1
 10 
0.24
 20 
0.5093
 30 
0.0
 0 
VERTEX
 8 
1
 10 
0.23
 20 
0.509
 30 
0.0
 0 
VERTEX
 8 
1
 10 
0.22
 20 
0.5087
 30 
0.0
 0 
VERTEX
 8 
1
 10 
0.21
 20 
0.5084
 30 
0.0
 0 
VERTEX
 8 
1
 10 
0.2
 20 
0.5081
 30 
0.0
 0 
VERTEX
 8 
1
 10 
0.19
 20 
0.5077
 30 
0.0
 0 
VERTEX
 8 
1
 10 
0.18
 20 
0.5073
 30 
0.0
 0 
VERTEX
 8 
1
 10 
0.17
 20 
0.5069
 30 
0.0
 0 
VERTEX
 8 
1
 10 
0.16
 20 
0.5065
 30 
0.0
 0 
VERTEX
 8 
1
 10 
0.15
 20 
0.5061
 30 
0.0
 0 
VERTEX
 8 
1
 10 
0.14
 20 
0.5056
 30 
0.0
 0 
VERTEX
 8 
1
 10 
0.13
 20 
0.5051
 30 
0.0
 0 
VERTEX
 8 
1
 10 
0.12
 20 
0.5046
 30 
0.0
 0 
VERTEX
 8 
1
 10 
0.11
 20 
0.504
 30 
0.0
 0 
VERTEX
 8 
1
 10 
0.1
 20 
0.5034
 30 
0.0
 0 
VERTEX
 8 
1
 10 
0.09
 20 
0.5027
 30 
0.0
 0 
VERTEX
 8 
1
 10 
0.08
 20 
0.502
 30 
0.0
 0 
VERTEX
 8 
1
 10 
0.07
 20 
0.5012
 30 
0.0
 0 
VERTEX
 8 
1
 10 
0.060000
 20 
0.5004
 30 
0.0
 0 
VERTEX
 8 
1
 10 
0.05
 20 
0.4995
 30 
0.0
 0 
VERTEX
 8 
1
 10 
0.04
 20 
0.4985
 30 
0.0
 0 
VERTEX
 8 
1
 10 
0.03
 20 
0.4975
 30 
0.0
 0 
VERTEX
 8 
1
 10 
0.02
 20 
0.4964
 30 
0.0
 0 
VERTEX
 8 
1
 10 
0.01
 20 
0.4953
 30 
0.0
 0 
VERTEX
 8 
1
 10 
0.0
 20 
0.4941
 30 
0.0
 0 
VERTEX
 8 
1
 10 
1
 20 
0.5
 30 
0.0
 0 
VERTEX
 8 
1
 10 
0.998
 20 
0.4979
 30 
0.0
 0 
VERTEX
 8 
1
 10 
0.995
 20 
0.4968
 30 
0.0
 0 
VERTEX
 8 
1
 10 
0.99
 20 
0.4957
 30 
0.0
 0 
VERTEX
 8 
1
 10 
0.98
 20 
0.4943
 30 
0.0
 0 
VERTEX
 8 
1
 10 
0.97
 20 
0.4932
 30 
0.0
 0 
VERTEX
 8 
1
 10 
0.96
 20 
0.4924
 30 
0.0
 0 
VERTEX
 8 
1
 10 
0.95
 20 
0.4917
 30 
0.0
 0 
VERTEX
 8 
1
 10 
0.94
 20 
0.4911
 30 
0.0
 0 
VERTEX
 8 
1
 10 
0.93
 20 
0.4905
 30 
0.0
 0 
VERTEX
 8 
1
 10 
0.92
 20 
0.49
 30 
0.0
 0 
VERTEX
 8 
1
 10 
0.91
 20 
0.4895
 30 
0.0
 0 
VERTEX
 8 
1
 10 
0.9
 20 
0.4891
 30 
0.0
 0 
VERTEX
 8 
1
 10 
0.89
 20 
0.4887
 30 
0.0
 0 
VERTEX
 8 
1
 10 
0.88
 20 
0.4883
 30 
0.0
 0 
VERTEX
 8 
1
 10 
0.87
 20 
0.488
 30 
0.0
 0 
VERTEX
 8 
1
 10 
0.86
 20 
0.4877
 30 
0.0
 0 
VERTEX
 8 
1
 10 
0.85
 20 
0.4874
 30 
0.0
 0 
VERTEX
 8 
1
 10 
0.84
 20 
0.4871
 30 
0.0
 0 
VERTEX
 8 
1
 10 
0.83
 20 
0.4869
 30 
0.0
 0 
VERTEX
 8 
1
 10 
0.82
 20 
0.4867
 30 
0.0
 0 
VERTEX
 8 
1
 10 
0.81
 20 
0.4865
 30 
0.0
 0 
VERTEX
 8 
1
 10 
0.8
 20 
0.4863
 30 
0.0
 0 
VERTEX
 8 
1
 10 
0.79
 20 
0.4861
 30 
0.0
 0 
VERTEX
 8 
1
 10 
0.78
 20 
0.4859
 30 
0.0
 0 
VERTEX
 8 
1
 10 
0.77
 20 
0.4857
 30 
0.0
 0 
VERTEX
 8 
1
 10 
0.76
 20 
0.4856
 30 
0.0
 0 
VERTEX
 8 
1
 10 
0.75
 20 
0.4855
 30 
0.0
 0 
VERTEX
 8 
1
 10 
0.74
 20 
0.4854
 30 
0.0
 0 
VERTEX
 8 
1
 10 
0.73
 20 
0.4853
 30 
0.0
 0 
VERTEX
 8 
1
 10 
0.72
 20 
0.4852
 30 
0.0
 0 
VERTEX
 8 
1
 10 
0.71
 20 
0.4851
 30 
0.0
 0 
VERTEX
 8 
1
 10 
0.7
 20 
0.485
 30 
0.0
 0 
VERTEX
 8 
1
 10 
0.69
 20 
0.4849
 30 
0.0
 0 
VERTEX
 8 
1
 10 
0.68
 20 
0.4849
 30 
0.0
 0 
VERTEX
 8 
1
 10 
0.67
 20 
0.4849
 30 
0.0
 0 
VERTEX
 8 
1
 10 
0.66
 20 
0.4849
 30 
0.0
 0 
VERTEX
 8 
1
 10 
0.65
 20 
0.4849
 30 
0.0
 0 
VERTEX
 8 
1
 10 
0.64
 20 
0.4849
 30 
0.0
 0 
VERTEX
 8 
1
 10 
0.63
 20 
0.4849
 30 
0.0
 0 
VERTEX
 8 
1
 10 
0.62
 20 
0.4849
 30 
0.0
 0 
VERTEX
 8 
1
 10 
0.61
 20 
0.4849
 30 
0.0
 0 
VERTEX
 8 
1
 10 
0.6
 20 
0.4849
 30 
0.0
 0 
VERTEX
 8 
1
 10 
0.59
 20 
0.485
 30 
0.0
 0 
VERTEX
 8 
1
 10 
0.58
 20 
0.4851
 30 
0.0
 0 
VERTEX
 8 
1
 10 
0.57
 20 
0.4852
 30 
0.0
 0 
VERTEX
 8 
1
 10 
0.56
 20 
0.4853
 30 
0.0
 0 
VERTEX
 8 
1
 10 
0.55
 20 
0.4854
 30 
0.0
 0 
VERTEX
 8 
1
 10 
0.54
 20 
0.4855
 30 
0.0
 0 
VERTEX
 8 
1
 10 
0.53
 20 
0.4856
 30 
0.0
 0 
VERTEX
 8 
1
 10 
0.52
 20 
0.4858
 30 
0.0
 0 
VERTEX
 8 
1
 10 
0.51
 20 
0.486
 30 
0.0
 0 
VERTEX
 8 
1
 10 
0.5
 20 
0.4862
 30 
0.0
 0 
VERTEX
 8 
1
 10 
0.49
 20 
0.4864
 30 
0.0
 0 
VERTEX
 8 
1
 10 
0.48
 20 
0.4866
 30 
0.0
 0 
VERTEX
 8 
1
 10 
0.47
 20 
0.4868
 30 
0.0
 0 
VERTEX
 8 
1
 10 
0.46
 20 
0.487
 30 
0.0
 0 
VERTEX
 8 
1
 10 
0.45
 20 
0.4873
 30 
0.0
 0 
VERTEX
 8 
1
 10 
0.44
 20 
0.4876
 30 
0.0
 0 
VERTEX
 8 
1
 10 
0.43
 20 
0.4879
 30 
0.0
 0 
VERTEX
 8 
1
 10 
0.42
 20 
0.4882
 30 
0.0
 0 
VERTEX
 8 
1
 10 
0.41
 20 
0.4885
 30 
0.0
 0 
VERTEX
 8 
1
 10 
0.4
 20 
0.4888
 30 
0.0
 0 
VERTEX
 8 
1
 10 
0.39
 20 
0.4891
 30 
0.0
 0 
VERTEX
 8 
1
 10 
0.38
 20 
0.4894
 30 
0.0
 0 
VERTEX
 8 
1
 10 
0.37
 20 
0.4897
 30 
0.0
 0 
VERTEX
 8 
1
 10 
0.36
 20 
0.4901
 30 
0.0
 0 
VERTEX
 8 
1
 10 
0.35
 20 
0.4905
 30 
0.0
 0 
VERTEX
 8 
1
 10 
0.34
 20 
0.4909
 30 
0.0
 0 
VERTEX
 8 
1
 10 
0.33
 20 
0.4913
 30 
0.0
 0 
VERTEX
 8 
1
 10 
0.32
 20 
0.4917
 30 
0.0
 0 
VERTEX
 8 
1
 10 
0.31
 20 
0.4921
 30 
0.0
 0 
VERTEX
 8 
1
 10 
0.3
 20 
0.4925
 30 
0.0
 0 
VERTEX
 8 
1
 10 
0.29
 20 
0.4929
 30 
0.0
 0 
VERTEX
 8 
1
 10 
0.28
 20 
0.4933
 30 
0.0
 0 
VERTEX
 8 
1
 10 
0.27
 20 
0.4937
 30 
0.0
 0 
VERTEX
 8 
1
 10 
0.26
 20 
0.4941
 30 
0.0
 0 
VERTEX
 8 
1
 10 
0.25
 20 
0.4945
 30 
0.0
 0 
VERTEX
 8 
1
 10 
0.24
 20 
0.4949
 30 
0.0
 0 
VERTEX
 8 
1
 10 
0.23
 20 
0.4952
 30 
0.0
 0 
VERTEX
 8 
1
 10 
0.22
 20 
0.4955
 30 
0.0
 0 
VERTEX
 8 
1
 10 
0.21
 20 
0.4958
 30 
0.0
 0 
VERTEX
 8 
1
 10 
0.2
 20 
0.4961
 30 
0.0
 0 
VERTEX
 8 
1
 10 
0.19
 20 
0.4964
 30 
0.0
 0 
VERTEX
 8 
1
 10 
0.18
 20 
0.4967
 30 
0.0
 0 
VERTEX
 8 
1
 10 
0.17
 20 
0.4969
 30 
0.0
 0 
VERTEX
 8 
1
 10 
0.16
 20 
0.4971
 30 
0.0
 0 
VERTEX
 8 
1
 10 
0.15
 20 
0.4973
 30 
0.0
 0 
VERTEX
 8 
1
 10 
0.14
 20 
0.4974
 30 
0.0
 0 
VERTEX
 8 
1
 10 
0.13
 20 
0.4975
 30 
0.0
 0 
VERTEX
 8 
1
 10 
0.12
 20 
0.4975
 30 
0.0
 0 
VERTEX
 8 
1
 10 
0.11
 20 
0.4975
 30 
0.0
 0 
VERTEX
 8 
1
 10 
0.1
 20 
0.4974
 30 
0.0
 0 
VERTEX
 8 
1
 10 
0.09
 20 
0.4972
 30 
0.0
 0 
VERTEX
 8 
1
 10 
0.08
 20 
0.497
 30 
0.0
 0 
VERTEX
 8 
1
 10 
0.07
 20 
0.4967
 30 
0.0
 0 
VERTEX
 8 
1
 10 
0.060000
 20 
0.4963
 30 
0.0
 0 
VERTEX
 8 
1
 10 
0.05
 20 
0.4958
 30 
0.0
 0 
VERTEX
 8 
1
 10 
0.04
 20 
0.4952
 30 
0.0
 0 
VERTEX
 8 
1
 10 
0.03
 20 
0.4945
 30 
0.0
 0 
VERTEX
 8 
1
 10 
0.02
 20 
0.4937
 30 
0.0
 0 
VERTEX
 8 
1
 10 
0.01
 20 
0.4928
 30 
0.0
 0 
VERTEX
 8 
1
 10 
0.0
 20 
0.4917
 30 
0.0
 0 
SEQEND
 8 
1
 0 
ENDSEC
 0 
EOF
