 0 
SECTION
 2 
ENTITIES
 0 
POLYLINE
 8 
1
 66 
 1 
 10 
0.0
 20 
0.0
 30 
0.0
 0 
VERTEX
 8 
1
 10 
-102
 20 
103,5
 30 
0.0
 0 
VERTEX
 8 
1
 10 
1
 20 
0.5
 30 
0.0
 0 
VERTEX
 8 
1
 10 
0.998
 20 
0.5108
 30 
0.0
 0 
VERTEX
 8 
1
 10 
0.995
 20 
0.5166
 30 
0.0
 0 
VERTEX
 8 
1
 10 
0.99
 20 
0.5225
 30 
0.0
 0 
VERTEX
 8 
1
 10 
0.98
 20 
0.5299
 30 
0.0
 0 
VERTEX
 8 
1
 10 
0.97
 20 
0.535
 30 
0.0
 0 
VERTEX
 8 
1
 10 
0.96
 20 
0.5389
 30 
0.0
 0 
VERTEX
 8 
1
 10 
0.95
 20 
0.5421
 30 
0.0
 0 
VERTEX
 8 
1
 10 
0.94
 20 
0.5448
 30 
0.0
 0 
VERTEX
 8 
1
 10 
0.93
 20 
0.5471
 30 
0.0
 0 
VERTEX
 8 
1
 10 
0.92
 20 
0.5491
 30 
0.0
 0 
VERTEX
 8 
1
 10 
0.91
 20 
0.551
 30 
0.0
 0 
VERTEX
 8 
1
 10 
0.9
 20 
0.5527
 30 
0.0
 0 
VERTEX
 8 
1
 10 
0.89
 20 
0.5542
 30 
0.0
 0 
VERTEX
 8 
1
 10 
0.88
 20 
0.5556
 30 
0.0
 0 
VERTEX
 8 
1
 10 
0.87
 20 
0.5569
 30 
0.0
 0 
VERTEX
 8 
1
 10 
0.86
 20 
0.5581
 30 
0.0
 0 
VERTEX
 8 
1
 10 
0.85
 20 
0.5592
 30 
0.0
 0 
VERTEX
 8 
1
 10 
0.84
 20 
0.5602
 30 
0.0
 0 
VERTEX
 8 
1
 10 
0.83
 20 
0.5612
 30 
0.0
 0 
VERTEX
 8 
1
 10 
0.82
 20 
0.5621
 30 
0.0
 0 
VERTEX
 8 
1
 10 
0.81
 20 
0.5629
 30 
0.0
 0 
VERTEX
 8 
1
 10 
0.8
 20 
0.5637
 30 
0.0
 0 
VERTEX
 8 
1
 10 
0.79
 20 
0.5644
 30 
0.0
 0 
VERTEX
 8 
1
 10 
0.78
 20 
0.5651
 30 
0.0
 0 
VERTEX
 8 
1
 10 
0.77
 20 
0.5657
 30 
0.0
 0 
VERTEX
 8 
1
 10 
0.76
 20 
0.5663
 30 
0.0
 0 
VERTEX
 8 
1
 10 
0.75
 20 
0.5668
 30 
0.0
 0 
VERTEX
 8 
1
 10 
0.74
 20 
0.5673
 30 
0.0
 0 
VERTEX
 8 
1
 10 
0.73
 20 
0.5677
 30 
0.0
 0 
VERTEX
 8 
1
 10 
0.72
 20 
0.5681
 30 
0.0
 0 
VERTEX
 8 
1
 10 
0.71
 20 
0.5685
 30 
0.0
 0 
VERTEX
 8 
1
 10 
0.7
 20 
0.5688
 30 
0.0
 0 
VERTEX
 8 
1
 10 
0.69
 20 
0.5691
 30 
0.0
 0 
VERTEX
 8 
1
 10 
0.68
 20 
0.5693
 30 
0.0
 0 
VERTEX
 8 
1
 10 
0.67
 20 
0.5695
 30 
0.0
 0 
VERTEX
 8 
1
 10 
0.66
 20 
0.5697
 30 
0.0
 0 
VERTEX
 8 
1
 10 
0.65
 20 
0.5699
 30 
0.0
 0 
VERTEX
 8 
1
 10 
0.64
 20 
0.57
 30 
0.0
 0 
VERTEX
 8 
1
 10 
0.63
 20 
0.5701
 30 
0.0
 0 
VERTEX
 8 
1
 10 
0.62
 20 
0.5702
 30 
0.0
 0 
VERTEX
 8 
1
 10 
0.61
 20 
0.5702
 30 
0.0
 0 
VERTEX
 8 
1
 10 
0.6
 20 
0.5702
 30 
0.0
 0 
VERTEX
 8 
1
 10 
0.59
 20 
0.5702
 30 
0.0
 0 
VERTEX
 8 
1
 10 
0.58
 20 
0.5701
 30 
0.0
 0 
VERTEX
 8 
1
 10 
0.57
 20 
0.57
 30 
0.0
 0 
VERTEX
 8 
1
 10 
0.56
 20 
0.5699
 30 
0.0
 0 
VERTEX
 8 
1
 10 
0.55
 20 
0.5697
 30 
0.0
 0 
VERTEX
 8 
1
 10 
0.54
 20 
0.5695
 30 
0.0
 0 
VERTEX
 8 
1
 10 
0.53
 20 
0.5693
 30 
0.0
 0 
VERTEX
 8 
1
 10 
0.52
 20 
0.569
 30 
0.0
 0 
VERTEX
 8 
1
 10 
0.51
 20 
0.5687
 30 
0.0
 0 
VERTEX
 8 
1
 10 
0.5
 20 
0.5684
 30 
0.0
 0 
VERTEX
 8 
1
 10 
0.49
 20 
0.568
 30 
0.0
 0 
VERTEX
 8 
1
 10 
0.48
 20 
0.5676
 30 
0.0
 0 
VERTEX
 8 
1
 10 
0.47
 20 
0.5672
 30 
0.0
 0 
VERTEX
 8 
1
 10 
0.46
 20 
0.5667
 30 
0.0
 0 
VERTEX
 8 
1
 10 
0.45
 20 
0.5662
 30 
0.0
 0 
VERTEX
 8 
1
 10 
0.44
 20 
0.5656
 30 
0.0
 0 
VERTEX
 8 
1
 10 
0.43
 20 
0.565
 30 
0.0
 0 
VERTEX
 8 
1
 10 
0.42
 20 
0.5643
 30 
0.0
 0 
VERTEX
 8 
1
 10 
0.41
 20 
0.5636
 30 
0.0
 0 
VERTEX
 8 
1
 10 
0.4
 20 
0.5628
 30 
0.0
 0 
VERTEX
 8 
1
 10 
0.39
 20 
0.562
 30 
0.0
 0 
VERTEX
 8 
1
 10 
0.38
 20 
0.5611
 30 
0.0
 0 
VERTEX
 8 
1
 10 
0.37
 20 
0.5602
 30 
0.0
 0 
VERTEX
 8 
1
 10 
0.36
 20 
0.5593
 30 
0.0
 0 
VERTEX
 8 
1
 10 
0.35
 20 
0.5583
 30 
0.0
 0 
VERTEX
 8 
1
 10 
0.34
 20 
0.5573
 30 
0.0
 0 
VERTEX
 8 
1
 10 
0.33
 20 
0.5562
 30 
0.0
 0 
VERTEX
 8 
1
 10 
0.32
 20 
0.5551
 30 
0.0
 0 
VERTEX
 8 
1
 10 
0.31
 20 
0.554
 30 
0.0
 0 
VERTEX
 8 
1
 10 
0.3
 20 
0.5528
 30 
0.0
 0 
VERTEX
 8 
1
 10 
0.29
 20 
0.5516
 30 
0.0
 0 
VERTEX
 8 
1
 10 
0.28
 20 
0.5503
 30 
0.0
 0 
VERTEX
 8 
1
 10 
0.27
 20 
0.549
 30 
0.0
 0 
VERTEX
 8 
1
 10 
0.26
 20 
0.5477
 30 
0.0
 0 
VERTEX
 8 
1
 10 
0.25
 20 
0.5464
 30 
0.0
 0 
VERTEX
 8 
1
 10 
0.24
 20 
0.545
 30 
0.0
 0 
VERTEX
 8 
1
 10 
0.23
 20 
0.5436
 30 
0.0
 0 
VERTEX
 8 
1
 10 
0.22
 20 
0.5422
 30 
0.0
 0 
VERTEX
 8 
1
 10 
0.21
 20 
0.5407
 30 
0.0
 0 
VERTEX
 8 
1
 10 
0.2
 20 
0.5392
 30 
0.0
 0 
VERTEX
 8 
1
 10 
0.19
 20 
0.5377
 30 
0.0
 0 
VERTEX
 8 
1
 10 
0.18
 20 
0.5362
 30 
0.0
 0 
VERTEX
 8 
1
 10 
0.17
 20 
0.5346
 30 
0.0
 0 
VERTEX
 8 
1
 10 
0.16
 20 
0.533
 30 
0.0
 0 
VERTEX
 8 
1
 10 
0.15
 20 
0.5314
 30 
0.0
 0 
VERTEX
 8 
1
 10 
0.14
 20 
0.5298
 30 
0.0
 0 
VERTEX
 8 
1
 10 
0.13
 20 
0.5281
 30 
0.0
 0 
VERTEX
 8 
1
 10 
0.12
 20 
0.5264
 30 
0.0
 0 
VERTEX
 8 
1
 10 
0.11
 20 
0.5247
 30 
0.0
 0 
VERTEX
 8 
1
 10 
0.1
 20 
0.5229
 30 
0.0
 0 
VERTEX
 8 
1
 10 
0.09
 20 
0.5211
 30 
0.0
 0 
VERTEX
 8 
1
 10 
0.08
 20 
0.5193
 30 
0.0
 0 
VERTEX
 8 
1
 10 
0.07
 20 
0.5175
 30 
0.0
 0 
VERTEX
 8 
1
 10 
0.060000
 20 
0.5156
 30 
0.0
 0 
VERTEX
 8 
1
 10 
0.05
 20 
0.5137
 30 
0.0
 0 
VERTEX
 8 
1
 10 
0.04
 20 
0.5117
 30 
0.0
 0 
VERTEX
 8 
1
 10 
0.03
 20 
0.5097
 30 
0.0
 0 
VERTEX
 8 
1
 10 
0.02
 20 
0.5076
 30 
0.0
 0 
VERTEX
 8 
1
 10 
0.01
 20 
0.5055
 30 
0.0
 0 
VERTEX
 8 
1
 10 
0.0
 20 
0.5033
 30 
0.0
 0 
VERTEX
 8 
1
 10 
1
 20 
0.5
 30 
0.0
 0 
VERTEX
 8 
1
 10 
0.998
 20 
0.4892
 30 
0.0
 0 
VERTEX
 8 
1
 10 
0.995
 20 
0.4834
 30 
0.0
 0 
VERTEX
 8 
1
 10 
0.99
 20 
0.4775
 30 
0.0
 0 
VERTEX
 8 
1
 10 
0.98
 20 
0.4701
 30 
0.0
 0 
VERTEX
 8 
1
 10 
0.97
 20 
0.465
 30 
0.0
 0 
VERTEX
 8 
1
 10 
0.96
 20 
0.4611
 30 
0.0
 0 
VERTEX
 8 
1
 10 
0.95
 20 
0.4579
 30 
0.0
 0 
VERTEX
 8 
1
 10 
0.94
 20 
0.4552
 30 
0.0
 0 
VERTEX
 8 
1
 10 
0.93
 20 
0.4528
 30 
0.0
 0 
VERTEX
 8 
1
 10 
0.92
 20 
0.4507
 30 
0.0
 0 
VERTEX
 8 
1
 10 
0.91
 20 
0.4488
 30 
0.0
 0 
VERTEX
 8 
1
 10 
0.9
 20 
0.4471
 30 
0.0
 0 
VERTEX
 8 
1
 10 
0.89
 20 
0.4455
 30 
0.0
 0 
VERTEX
 8 
1
 10 
0.88
 20 
0.444
 30 
0.0
 0 
VERTEX
 8 
1
 10 
0.87
 20 
0.4427
 30 
0.0
 0 
VERTEX
 8 
1
 10 
0.86
 20 
0.4415
 30 
0.0
 0 
VERTEX
 8 
1
 10 
0.85
 20 
0.4403
 30 
0.0
 0 
VERTEX
 8 
1
 10 
0.84
 20 
0.4392
 30 
0.0
 0 
VERTEX
 8 
1
 10 
0.83
 20 
0.4382
 30 
0.0
 0 
VERTEX
 8 
1
 10 
0.82
 20 
0.4373
 30 
0.0
 0 
VERTEX
 8 
1
 10 
0.81
 20 
0.4364
 30 
0.0
 0 
VERTEX
 8 
1
 10 
0.8
 20 
0.4356
 30 
0.0
 0 
VERTEX
 8 
1
 10 
0.79
 20 
0.4349
 30 
0.0
 0 
VERTEX
 8 
1
 10 
0.78
 20 
0.4342
 30 
0.0
 0 
VERTEX
 8 
1
 10 
0.77
 20 
0.4336
 30 
0.0
 0 
VERTEX
 8 
1
 10 
0.76
 20 
0.433
 30 
0.0
 0 
VERTEX
 8 
1
 10 
0.75
 20 
0.4325
 30 
0.0
 0 
VERTEX
 8 
1
 10 
0.74
 20 
0.432
 30 
0.0
 0 
VERTEX
 8 
1
 10 
0.73
 20 
0.4316
 30 
0.0
 0 
VERTEX
 8 
1
 10 
0.72
 20 
0.4312
 30 
0.0
 0 
VERTEX
 8 
1
 10 
0.71
 20 
0.4309
 30 
0.0
 0 
VERTEX
 8 
1
 10 
0.7
 20 
0.4306
 30 
0.0
 0 
VERTEX
 8 
1
 10 
0.69
 20 
0.4304
 30 
0.0
 0 
VERTEX
 8 
1
 10 
0.68
 20 
0.4302
 30 
0.0
 0 
VERTEX
 8 
1
 10 
0.67
 20 
0.4301
 30 
0.0
 0 
VERTEX
 8 
1
 10 
0.66
 20 
0.43
 30 
0.0
 0 
VERTEX
 8 
1
 10 
0.65
 20 
0.43
 30 
0.0
 0 
VERTEX
 8 
1
 10 
0.64
 20 
0.43
 30 
0.0
 0 
VERTEX
 8 
1
 10 
0.63
 20 
0.4301
 30 
0.0
 0 
VERTEX
 8 
1
 10 
0.62
 20 
0.4302
 30 
0.0
 0 
VERTEX
 8 
1
 10 
0.61
 20 
0.4303
 30 
0.0
 0 
VERTEX
 8 
1
 10 
0.6
 20 
0.4305
 30 
0.0
 0 
VERTEX
 8 
1
 10 
0.59
 20 
0.4307
 30 
0.0
 0 
VERTEX
 8 
1
 10 
0.58
 20 
0.431
 30 
0.0
 0 
VERTEX
 8 
1
 10 
0.57
 20 
0.4314
 30 
0.0
 0 
VERTEX
 8 
1
 10 
0.56
 20 
0.4318
 30 
0.0
 0 
VERTEX
 8 
1
 10 
0.55
 20 
0.4323
 30 
0.0
 0 
VERTEX
 8 
1
 10 
0.54
 20 
0.4328
 30 
0.0
 0 
VERTEX
 8 
1
 10 
0.53
 20 
0.4334
 30 
0.0
 0 
VERTEX
 8 
1
 10 
0.52
 20 
0.4341
 30 
0.0
 0 
VERTEX
 8 
1
 10 
0.51
 20 
0.4349
 30 
0.0
 0 
VERTEX
 8 
1
 10 
0.5
 20 
0.4358
 30 
0.0
 0 
VERTEX
 8 
1
 10 
0.49
 20 
0.4367
 30 
0.0
 0 
VERTEX
 8 
1
 10 
0.48
 20 
0.4377
 30 
0.0
 0 
VERTEX
 8 
1
 10 
0.47
 20 
0.4388
 30 
0.0
 0 
VERTEX
 8 
1
 10 
0.46
 20 
0.44
 30 
0.0
 0 
VERTEX
 8 
1
 10 
0.45
 20 
0.4413
 30 
0.0
 0 
VERTEX
 8 
1
 10 
0.44
 20 
0.4427
 30 
0.0
 0 
VERTEX
 8 
1
 10 
0.43
 20 
0.4442
 30 
0.0
 0 
VERTEX
 8 
1
 10 
0.42
 20 
0.4457
 30 
0.0
 0 
VERTEX
 8 
1
 10 
0.41
 20 
0.4473
 30 
0.0
 0 
VERTEX
 8 
1
 10 
0.4
 20 
0.449
 30 
0.0
 0 
VERTEX
 8 
1
 10 
0.39
 20 
0.4508
 30 
0.0
 0 
VERTEX
 8 
1
 10 
0.38
 20 
0.4526
 30 
0.0
 0 
VERTEX
 8 
1
 10 
0.37
 20 
0.4545
 30 
0.0
 0 
VERTEX
 8 
1
 10 
0.36
 20 
0.4565
 30 
0.0
 0 
VERTEX
 8 
1
 10 
0.35
 20 
0.4585
 30 
0.0
 0 
VERTEX
 8 
1
 10 
0.34
 20 
0.4606
 30 
0.0
 0 
VERTEX
 8 
1
 10 
0.33
 20 
0.4627
 30 
0.0
 0 
VERTEX
 8 
1
 10 
0.32
 20 
0.4648
 30 
0.0
 0 
VERTEX
 8 
1
 10 
0.31
 20 
0.467
 30 
0.0
 0 
VERTEX
 8 
1
 10 
0.3
 20 
0.4692
 30 
0.0
 0 
VERTEX
 8 
1
 10 
0.29
 20 
0.4714
 30 
0.0
 0 
VERTEX
 8 
1
 10 
0.28
 20 
0.4736
 30 
0.0
 0 
VERTEX
 8 
1
 10 
0.27
 20 
0.4758
 30 
0.0
 0 
VERTEX
 8 
1
 10 
0.26
 20 
0.478
 30 
0.0
 0 
VERTEX
 8 
1
 10 
0.25
 20 
0.4802
 30 
0.0
 0 
VERTEX
 8 
1
 10 
0.24
 20 
0.4823
 30 
0.0
 0 
VERTEX
 8 
1
 10 
0.23
 20 
0.4844
 30 
0.0
 0 
VERTEX
 8 
1
 10 
0.22
 20 
0.4864
 30 
0.0
 0 
VERTEX
 8 
1
 10 
0.21
 20 
0.4884
 30 
0.0
 0 
VERTEX
 8 
1
 10 
0.2
 20 
0.4903
 30 
0.0
 0 
VERTEX
 8 
1
 10 
0.19
 20 
0.4922
 30 
0.0
 0 
VERTEX
 8 
1
 10 
0.18
 20 
0.494
 30 
0.0
 0 
VERTEX
 8 
1
 10 
0.17
 20 
0.4957
 30 
0.0
 0 
VERTEX
 8 
1
 10 
0.16
 20 
0.4973
 30 
0.0
 0 
VERTEX
 8 
1
 10 
0.15
 20 
0.4988
 30 
0.0
 0 
VERTEX
 8 
1
 10 
0.14
 20 
0.5001
 30 
0.0
 0 
VERTEX
 8 
1
 10 
0.13
 20 
0.5013
 30 
0.0
 0 
VERTEX
 8 
1
 10 
0.12
 20 
0.5023
 30 
0.0
 0 
VERTEX
 8 
1
 10 
0.11
 20 
0.5032
 30 
0.0
 0 
VERTEX
 8 
1
 10 
0.1
 20 
0.5039
 30 
0.0
 0 
VERTEX
 8 
1
 10 
0.09
 20 
0.5044
 30 
0.0
 0 
VERTEX
 8 
1
 10 
0.08
 20 
0.5046
 30 
0.0
 0 
VERTEX
 8 
1
 10 
0.07
 20 
0.5046
 30 
0.0
 0 
VERTEX
 8 
1
 10 
0.060000
 20 
0.5043
 30 
0.0
 0 
VERTEX
 8 
1
 10 
0.05
 20 
0.5038
 30 
0.0
 0 
VERTEX
 8 
1
 10 
0.04
 20 
0.5031
 30 
0.0
 0 
VERTEX
 8 
1
 10 
0.03
 20 
0.5021
 30 
0.0
 0 
VERTEX
 8 
1
 10 
0.02
 20 
0.5008
 30 
0.0
 0 
VERTEX
 8 
1
 10 
0.01
 20 
0.4992
 30 
0.0
 0 
VERTEX
 8 
1
 10 
0.0
 20 
0.4973
 30 
0.0
 0 
SEQEND
 8 
1
 0 
ENDSEC
 0 
EOF
