 0 
SECTION
 2 
ENTITIES
 0 
POLYLINE
 8 
1
 66 
 1 
 10 
0.0
 20 
0.0
 30 
0.0
 0 
VERTEX
 8 
1
 10 
-102
 20 
103,5
 30 
0.0
 0 
VERTEX
 8 
1
 10 
1
 20 
0.5
 30 
0.0
 0 
VERTEX
 8 
1
 10 
0.998
 20 
0.5076
 30 
0.0
 0 
VERTEX
 8 
1
 10 
0.995
 20 
0.5116
 30 
0.0
 0 
VERTEX
 8 
1
 10 
0.99
 20 
0.5156
 30 
0.0
 0 
VERTEX
 8 
1
 10 
0.98
 20 
0.5207
 30 
0.0
 0 
VERTEX
 8 
1
 10 
0.97
 20 
0.5242
 30 
0.0
 0 
VERTEX
 8 
1
 10 
0.96
 20 
0.527
 30 
0.0
 0 
VERTEX
 8 
1
 10 
0.95
 20 
0.5294
 30 
0.0
 0 
VERTEX
 8 
1
 10 
0.94
 20 
0.5315
 30 
0.0
 0 
VERTEX
 8 
1
 10 
0.93
 20 
0.5333
 30 
0.0
 0 
VERTEX
 8 
1
 10 
0.92
 20 
0.5349
 30 
0.0
 0 
VERTEX
 8 
1
 10 
0.91
 20 
0.5364
 30 
0.0
 0 
VERTEX
 8 
1
 10 
0.9
 20 
0.5378
 30 
0.0
 0 
VERTEX
 8 
1
 10 
0.89
 20 
0.539
 30 
0.0
 0 
VERTEX
 8 
1
 10 
0.88
 20 
0.5401
 30 
0.0
 0 
VERTEX
 8 
1
 10 
0.87
 20 
0.5412
 30 
0.0
 0 
VERTEX
 8 
1
 10 
0.86
 20 
0.5422
 30 
0.0
 0 
VERTEX
 8 
1
 10 
0.85
 20 
0.5431
 30 
0.0
 0 
VERTEX
 8 
1
 10 
0.84
 20 
0.5439
 30 
0.0
 0 
VERTEX
 8 
1
 10 
0.83
 20 
0.5447
 30 
0.0
 0 
VERTEX
 8 
1
 10 
0.82
 20 
0.5454
 30 
0.0
 0 
VERTEX
 8 
1
 10 
0.81
 20 
0.546
 30 
0.0
 0 
VERTEX
 8 
1
 10 
0.8
 20 
0.5466
 30 
0.0
 0 
VERTEX
 8 
1
 10 
0.79
 20 
0.5471
 30 
0.0
 0 
VERTEX
 8 
1
 10 
0.78
 20 
0.5476
 30 
0.0
 0 
VERTEX
 8 
1
 10 
0.77
 20 
0.548
 30 
0.0
 0 
VERTEX
 8 
1
 10 
0.76
 20 
0.5484
 30 
0.0
 0 
VERTEX
 8 
1
 10 
0.75
 20 
0.5487
 30 
0.0
 0 
VERTEX
 8 
1
 10 
0.74
 20 
0.549
 30 
0.0
 0 
VERTEX
 8 
1
 10 
0.73
 20 
0.5493
 30 
0.0
 0 
VERTEX
 8 
1
 10 
0.72
 20 
0.5495
 30 
0.0
 0 
VERTEX
 8 
1
 10 
0.71
 20 
0.5497
 30 
0.0
 0 
VERTEX
 8 
1
 10 
0.7
 20 
0.5498
 30 
0.0
 0 
VERTEX
 8 
1
 10 
0.69
 20 
0.5499
 30 
0.0
 0 
VERTEX
 8 
1
 10 
0.68
 20 
0.55
 30 
0.0
 0 
VERTEX
 8 
1
 10 
0.67
 20 
0.55
 30 
0.0
 0 
VERTEX
 8 
1
 10 
0.66
 20 
0.55
 30 
0.0
 0 
VERTEX
 8 
1
 10 
0.65
 20 
0.55
 30 
0.0
 0 
VERTEX
 8 
1
 10 
0.64
 20 
0.5499
 30 
0.0
 0 
VERTEX
 8 
1
 10 
0.63
 20 
0.5498
 30 
0.0
 0 
VERTEX
 8 
1
 10 
0.62
 20 
0.5497
 30 
0.0
 0 
VERTEX
 8 
1
 10 
0.61
 20 
0.5495
 30 
0.0
 0 
VERTEX
 8 
1
 10 
0.6
 20 
0.5493
 30 
0.0
 0 
VERTEX
 8 
1
 10 
0.59
 20 
0.5491
 30 
0.0
 0 
VERTEX
 8 
1
 10 
0.58
 20 
0.5488
 30 
0.0
 0 
VERTEX
 8 
1
 10 
0.57
 20 
0.5485
 30 
0.0
 0 
VERTEX
 8 
1
 10 
0.56
 20 
0.5482
 30 
0.0
 0 
VERTEX
 8 
1
 10 
0.55
 20 
0.5478
 30 
0.0
 0 
VERTEX
 8 
1
 10 
0.54
 20 
0.5474
 30 
0.0
 0 
VERTEX
 8 
1
 10 
0.53
 20 
0.547
 30 
0.0
 0 
VERTEX
 8 
1
 10 
0.52
 20 
0.5465
 30 
0.0
 0 
VERTEX
 8 
1
 10 
0.51
 20 
0.546
 30 
0.0
 0 
VERTEX
 8 
1
 10 
0.5
 20 
0.5455
 30 
0.0
 0 
VERTEX
 8 
1
 10 
0.49
 20 
0.5449
 30 
0.0
 0 
VERTEX
 8 
1
 10 
0.48
 20 
0.5443
 30 
0.0
 0 
VERTEX
 8 
1
 10 
0.47
 20 
0.5437
 30 
0.0
 0 
VERTEX
 8 
1
 10 
0.46
 20 
0.543
 30 
0.0
 0 
VERTEX
 8 
1
 10 
0.45
 20 
0.5423
 30 
0.0
 0 
VERTEX
 8 
1
 10 
0.44
 20 
0.5416
 30 
0.0
 0 
VERTEX
 8 
1
 10 
0.43
 20 
0.5408
 30 
0.0
 0 
VERTEX
 8 
1
 10 
0.42
 20 
0.54
 30 
0.0
 0 
VERTEX
 8 
1
 10 
0.41
 20 
0.5391
 30 
0.0
 0 
VERTEX
 8 
1
 10 
0.4
 20 
0.5382
 30 
0.0
 0 
VERTEX
 8 
1
 10 
0.39
 20 
0.5373
 30 
0.0
 0 
VERTEX
 8 
1
 10 
0.38
 20 
0.5363
 30 
0.0
 0 
VERTEX
 8 
1
 10 
0.37
 20 
0.5353
 30 
0.0
 0 
VERTEX
 8 
1
 10 
0.36
 20 
0.5342
 30 
0.0
 0 
VERTEX
 8 
1
 10 
0.35
 20 
0.533
 30 
0.0
 0 
VERTEX
 8 
1
 10 
0.34
 20 
0.5318
 30 
0.0
 0 
VERTEX
 8 
1
 10 
0.33
 20 
0.5305
 30 
0.0
 0 
VERTEX
 8 
1
 10 
0.32
 20 
0.5292
 30 
0.0
 0 
VERTEX
 8 
1
 10 
0.31
 20 
0.5278
 30 
0.0
 0 
VERTEX
 8 
1
 10 
0.3
 20 
0.5264
 30 
0.0
 0 
VERTEX
 8 
1
 10 
0.29
 20 
0.5249
 30 
0.0
 0 
VERTEX
 8 
1
 10 
0.28
 20 
0.5233
 30 
0.0
 0 
VERTEX
 8 
1
 10 
0.27
 20 
0.5217
 30 
0.0
 0 
VERTEX
 8 
1
 10 
0.26
 20 
0.52
 30 
0.0
 0 
VERTEX
 8 
1
 10 
0.25
 20 
0.5183
 30 
0.0
 0 
VERTEX
 8 
1
 10 
0.24
 20 
0.5165
 30 
0.0
 0 
VERTEX
 8 
1
 10 
0.23
 20 
0.5147
 30 
0.0
 0 
VERTEX
 8 
1
 10 
0.22
 20 
0.5128
 30 
0.0
 0 
VERTEX
 8 
1
 10 
0.21
 20 
0.5109
 30 
0.0
 0 
VERTEX
 8 
1
 10 
0.2
 20 
0.5089
 30 
0.0
 0 
VERTEX
 8 
1
 10 
0.19
 20 
0.5069
 30 
0.0
 0 
VERTEX
 8 
1
 10 
0.18
 20 
0.5048
 30 
0.0
 0 
VERTEX
 8 
1
 10 
0.17
 20 
0.5027
 30 
0.0
 0 
VERTEX
 8 
1
 10 
0.16
 20 
0.5005
 30 
0.0
 0 
VERTEX
 8 
1
 10 
0.15
 20 
0.4983
 30 
0.0
 0 
VERTEX
 8 
1
 10 
0.14
 20 
0.496
 30 
0.0
 0 
VERTEX
 8 
1
 10 
0.13
 20 
0.4937
 30 
0.0
 0 
VERTEX
 8 
1
 10 
0.12
 20 
0.4913
 30 
0.0
 0 
VERTEX
 8 
1
 10 
0.11
 20 
0.4889
 30 
0.0
 0 
VERTEX
 8 
1
 10 
0.1
 20 
0.4864
 30 
0.0
 0 
VERTEX
 8 
1
 10 
0.09
 20 
0.4839
 30 
0.0
 0 
VERTEX
 8 
1
 10 
0.08
 20 
0.4813
 30 
0.0
 0 
VERTEX
 8 
1
 10 
0.07
 20 
0.4786
 30 
0.0
 0 
VERTEX
 8 
1
 10 
0.060000
 20 
0.4759
 30 
0.0
 0 
VERTEX
 8 
1
 10 
0.05
 20 
0.4731
 30 
0.0
 0 
VERTEX
 8 
1
 10 
0.04
 20 
0.4702
 30 
0.0
 0 
VERTEX
 8 
1
 10 
0.03
 20 
0.4673
 30 
0.0
 0 
VERTEX
 8 
1
 10 
0.02
 20 
0.4643
 30 
0.0
 0 
VERTEX
 8 
1
 10 
0.01
 20 
0.4612
 30 
0.0
 0 
VERTEX
 8 
1
 10 
0.0
 20 
0.458
 30 
0.0
 0 
VERTEX
 8 
1
 10 
1
 20 
0.5
 30 
0.0
 0 
VERTEX
 8 
1
 10 
0.998
 20 
0.4924
 30 
0.0
 0 
VERTEX
 8 
1
 10 
0.995
 20 
0.4884
 30 
0.0
 0 
VERTEX
 8 
1
 10 
0.99
 20 
0.4844
 30 
0.0
 0 
VERTEX
 8 
1
 10 
0.98
 20 
0.4793
 30 
0.0
 0 
VERTEX
 8 
1
 10 
0.97
 20 
0.4758
 30 
0.0
 0 
VERTEX
 8 
1
 10 
0.96
 20 
0.473
 30 
0.0
 0 
VERTEX
 8 
1
 10 
0.95
 20 
0.4706
 30 
0.0
 0 
VERTEX
 8 
1
 10 
0.94
 20 
0.4686
 30 
0.0
 0 
VERTEX
 8 
1
 10 
0.93
 20 
0.4668
 30 
0.0
 0 
VERTEX
 8 
1
 10 
0.92
 20 
0.4652
 30 
0.0
 0 
VERTEX
 8 
1
 10 
0.91
 20 
0.4638
 30 
0.0
 0 
VERTEX
 8 
1
 10 
0.9
 20 
0.4625
 30 
0.0
 0 
VERTEX
 8 
1
 10 
0.89
 20 
0.4613
 30 
0.0
 0 
VERTEX
 8 
1
 10 
0.88
 20 
0.4602
 30 
0.0
 0 
VERTEX
 8 
1
 10 
0.87
 20 
0.4592
 30 
0.0
 0 
VERTEX
 8 
1
 10 
0.86
 20 
0.4582
 30 
0.0
 0 
VERTEX
 8 
1
 10 
0.85
 20 
0.4573
 30 
0.0
 0 
VERTEX
 8 
1
 10 
0.84
 20 
0.4565
 30 
0.0
 0 
VERTEX
 8 
1
 10 
0.83
 20 
0.4557
 30 
0.0
 0 
VERTEX
 8 
1
 10 
0.82
 20 
0.455
 30 
0.0
 0 
VERTEX
 8 
1
 10 
0.81
 20 
0.4543
 30 
0.0
 0 
VERTEX
 8 
1
 10 
0.8
 20 
0.4537
 30 
0.0
 0 
VERTEX
 8 
1
 10 
0.79
 20 
0.4532
 30 
0.0
 0 
VERTEX
 8 
1
 10 
0.78
 20 
0.4527
 30 
0.0
 0 
VERTEX
 8 
1
 10 
0.77
 20 
0.4522
 30 
0.0
 0 
VERTEX
 8 
1
 10 
0.76
 20 
0.4518
 30 
0.0
 0 
VERTEX
 8 
1
 10 
0.75
 20 
0.4514
 30 
0.0
 0 
VERTEX
 8 
1
 10 
0.74
 20 
0.4511
 30 
0.0
 0 
VERTEX
 8 
1
 10 
0.73
 20 
0.4508
 30 
0.0
 0 
VERTEX
 8 
1
 10 
0.72
 20 
0.4506
 30 
0.0
 0 
VERTEX
 8 
1
 10 
0.71
 20 
0.4504
 30 
0.0
 0 
VERTEX
 8 
1
 10 
0.7
 20 
0.4502
 30 
0.0
 0 
VERTEX
 8 
1
 10 
0.69
 20 
0.4501
 30 
0.0
 0 
VERTEX
 8 
1
 10 
0.68
 20 
0.45
 30 
0.0
 0 
VERTEX
 8 
1
 10 
0.67
 20 
0.45
 30 
0.0
 0 
VERTEX
 8 
1
 10 
0.66
 20 
0.45
 30 
0.0
 0 
VERTEX
 8 
1
 10 
0.65
 20 
0.45
 30 
0.0
 0 
VERTEX
 8 
1
 10 
0.64
 20 
0.4501
 30 
0.0
 0 
VERTEX
 8 
1
 10 
0.63
 20 
0.4502
 30 
0.0
 0 
VERTEX
 8 
1
 10 
0.62
 20 
0.4504
 30 
0.0
 0 
VERTEX
 8 
1
 10 
0.61
 20 
0.4506
 30 
0.0
 0 
VERTEX
 8 
1
 10 
0.6
 20 
0.4508
 30 
0.0
 0 
VERTEX
 8 
1
 10 
0.59
 20 
0.4511
 30 
0.0
 0 
VERTEX
 8 
1
 10 
0.58
 20 
0.4514
 30 
0.0
 0 
VERTEX
 8 
1
 10 
0.57
 20 
0.4517
 30 
0.0
 0 
VERTEX
 8 
1
 10 
0.56
 20 
0.452
 30 
0.0
 0 
VERTEX
 8 
1
 10 
0.55
 20 
0.4524
 30 
0.0
 0 
VERTEX
 8 
1
 10 
0.54
 20 
0.4528
 30 
0.0
 0 
VERTEX
 8 
1
 10 
0.53
 20 
0.4532
 30 
0.0
 0 
VERTEX
 8 
1
 10 
0.52
 20 
0.4536
 30 
0.0
 0 
VERTEX
 8 
1
 10 
0.51
 20 
0.4541
 30 
0.0
 0 
VERTEX
 8 
1
 10 
0.5
 20 
0.4546
 30 
0.0
 0 
VERTEX
 8 
1
 10 
0.49
 20 
0.4551
 30 
0.0
 0 
VERTEX
 8 
1
 10 
0.48
 20 
0.4556
 30 
0.0
 0 
VERTEX
 8 
1
 10 
0.47
 20 
0.4561
 30 
0.0
 0 
VERTEX
 8 
1
 10 
0.46
 20 
0.4566
 30 
0.0
 0 
VERTEX
 8 
1
 10 
0.45
 20 
0.4572
 30 
0.0
 0 
VERTEX
 8 
1
 10 
0.44
 20 
0.4578
 30 
0.0
 0 
VERTEX
 8 
1
 10 
0.43
 20 
0.4584
 30 
0.0
 0 
VERTEX
 8 
1
 10 
0.42
 20 
0.459
 30 
0.0
 0 
VERTEX
 8 
1
 10 
0.41
 20 
0.4596
 30 
0.0
 0 
VERTEX
 8 
1
 10 
0.4
 20 
0.4602
 30 
0.0
 0 
VERTEX
 8 
1
 10 
0.39
 20 
0.4608
 30 
0.0
 0 
VERTEX
 8 
1
 10 
0.38
 20 
0.4614
 30 
0.0
 0 
VERTEX
 8 
1
 10 
0.37
 20 
0.462
 30 
0.0
 0 
VERTEX
 8 
1
 10 
0.36
 20 
0.4626
 30 
0.0
 0 
VERTEX
 8 
1
 10 
0.35
 20 
0.4633
 30 
0.0
 0 
VERTEX
 8 
1
 10 
0.34
 20 
0.464
 30 
0.0
 0 
VERTEX
 8 
1
 10 
0.33
 20 
0.4647
 30 
0.0
 0 
VERTEX
 8 
1
 10 
0.32
 20 
0.4654
 30 
0.0
 0 
VERTEX
 8 
1
 10 
0.31
 20 
0.4661
 30 
0.0
 0 
VERTEX
 8 
1
 10 
0.3
 20 
0.4668
 30 
0.0
 0 
VERTEX
 8 
1
 10 
0.29
 20 
0.4675
 30 
0.0
 0 
VERTEX
 8 
1
 10 
0.28
 20 
0.4681
 30 
0.0
 0 
VERTEX
 8 
1
 10 
0.27
 20 
0.4687
 30 
0.0
 0 
VERTEX
 8 
1
 10 
0.26
 20 
0.4693
 30 
0.0
 0 
VERTEX
 8 
1
 10 
0.25
 20 
0.4699
 30 
0.0
 0 
VERTEX
 8 
1
 10 
0.24
 20 
0.4705
 30 
0.0
 0 
VERTEX
 8 
1
 10 
0.23
 20 
0.471
 30 
0.0
 0 
VERTEX
 8 
1
 10 
0.22
 20 
0.4715
 30 
0.0
 0 
VERTEX
 8 
1
 10 
0.21
 20 
0.472
 30 
0.0
 0 
VERTEX
 8 
1
 10 
0.2
 20 
0.4724
 30 
0.0
 0 
VERTEX
 8 
1
 10 
0.19
 20 
0.4728
 30 
0.0
 0 
VERTEX
 8 
1
 10 
0.18
 20 
0.4731
 30 
0.0
 0 
VERTEX
 8 
1
 10 
0.17
 20 
0.4734
 30 
0.0
 0 
VERTEX
 8 
1
 10 
0.16
 20 
0.4736
 30 
0.0
 0 
VERTEX
 8 
1
 10 
0.15
 20 
0.4737
 30 
0.0
 0 
VERTEX
 8 
1
 10 
0.14
 20 
0.4736
 30 
0.0
 0 
VERTEX
 8 
1
 10 
0.13
 20 
0.4733
 30 
0.0
 0 
VERTEX
 8 
1
 10 
0.12
 20 
0.4729
 30 
0.0
 0 
VERTEX
 8 
1
 10 
0.11
 20 
0.4723
 30 
0.0
 0 
VERTEX
 8 
1
 10 
0.1
 20 
0.4715
 30 
0.0
 0 
VERTEX
 8 
1
 10 
0.09
 20 
0.4705
 30 
0.0
 0 
VERTEX
 8 
1
 10 
0.08
 20 
0.4693
 30 
0.0
 0 
VERTEX
 8 
1
 10 
0.07
 20 
0.4679
 30 
0.0
 0 
VERTEX
 8 
1
 10 
0.060000
 20 
0.4663
 30 
0.0
 0 
VERTEX
 8 
1
 10 
0.05
 20 
0.4645
 30 
0.0
 0 
VERTEX
 8 
1
 10 
0.04
 20 
0.4625
 30 
0.0
 0 
VERTEX
 8 
1
 10 
0.03
 20 
0.4602
 30 
0.0
 0 
VERTEX
 8 
1
 10 
0.02
 20 
0.4577
 30 
0.0
 0 
VERTEX
 8 
1
 10 
0.01
 20 
0.4549
 30 
0.0
 0 
VERTEX
 8 
1
 10 
0.0
 20 
0.4519
 30 
0.0
 0 
SEQEND
 8 
1
 0 
ENDSEC
 0 
EOF
