 0 
SECTION
 2 
ENTITIES
 0 
POLYLINE
 8 
1
 66 
 1 
 10 
0.0
 20 
0.0
 30 
0.0
 0 
VERTEX
 8 
1
 10 
0.0
 20 
0.5
 30 
0.0
 0 
VERTEX
 8 
1
 10 
0.0031900
 20 
0.50046
 30 
0.0
 0 
VERTEX
 8 
1
 10 
0.01264
 20 
0.50191
 30 
0.0
 0 
VERTEX
 8 
1
 10 
0.02798
 20 
0.50451
 30 
0.0
 0 
VERTEX
 8 
1
 10 
0.04879
 20 
0.50828
 30 
0.0
 0 
VERTEX
 8 
1
 10 
0.07456
 20 
0.51315
 30 
0.0
 0 
VERTEX
 8 
1
 10 
0.10478
 20 
0.51897
 30 
0.0
 0 
VERTEX
 8 
1
 10 
0.13892
 20 
0.52553
 30 
0.0
 0 
VERTEX
 8 
1
 10 
0.17649
 20 
0.53256
 30 
0.0
 0 
VERTEX
 8 
1
 10 
0.21699
 20 
0.53979
 30 
0.0
 0 
VERTEX
 8 
1
 10 
0.25996
 20 
0.5469
 30 
0.0
 0 
VERTEX
 8 
1
 10 
0.305
 20 
0.55362
 30 
0.0
 0 
VERTEX
 8 
1
 10 
0.35175
 20 
0.55974
 30 
0.0
 0 
VERTEX
 8 
1
 10 
0.39981
 20 
0.56515
 30 
0.0
 0 
VERTEX
 8 
1
 10 
0.44873
 20 
0.56975
 30 
0.0
 0 
VERTEX
 8 
1
 10 
0.49801
 20 
0.57347
 30 
0.0
 0 
VERTEX
 8 
1
 10 
0.54718
 20 
0.5762
 30 
0.0
 0 
VERTEX
 8 
1
 10 
0.59578
 20 
0.57789
 30 
0.0
 0 
VERTEX
 8 
1
 10 
0.64335
 20 
0.5785
 30 
0.0
 0 
VERTEX
 8 
1
 10 
0.68944
 20 
0.57802
 30 
0.0
 0 
VERTEX
 8 
1
 10 
0.73361
 20 
0.57645
 30 
0.0
 0 
VERTEX
 8 
1
 10 
0.77543
 20 
0.57382
 30 
0.0
 0 
VERTEX
 8 
1
 10 
0.81451
 20 
0.57015
 30 
0.0
 0 
VERTEX
 8 
1
 10 
0.85046
 20 
0.56549
 30 
0.0
 0 
VERTEX
 8 
1
 10 
0.88298
 20 
0.55989
 30 
0.0
 0 
VERTEX
 8 
1
 10 
0.91179
 20 
0.5534
 30 
0.0
 0 
VERTEX
 8 
1
 10 
0.93669
 20 
0.54612
 30 
0.0
 0 
VERTEX
 8 
1
 10 
0.95751
 20 
0.53818
 30 
0.0
 0 
VERTEX
 8 
1
 10 
0.97419
 20 
0.52975
 30 
0.0
 0 
VERTEX
 8 
1
 10 
0.98666
 20 
0.52106
 30 
0.0
 0 
VERTEX
 8 
1
 10 
0.99491
 20 
0.51236
 30 
0.0
 0 
VERTEX
 8 
1
 10 
0.99917
 20 
0.50404
 30 
0.0
 0 
VERTEX
 8 
1
 10 
0.99948
 20 
0.49722
 30 
0.0
 0 
VERTEX
 8 
1
 10 
0.99445
 20 
0.4923
 30 
0.0
 0 
VERTEX
 8 
1
 10 
0.98331
 20 
0.4885
 30 
0.0
 0 
VERTEX
 8 
1
 10 
0.96676
 20 
0.48548
 30 
0.0
 0 
VERTEX
 8 
1
 10 
0.94499
 20 
0.48331
 30 
0.0
 0 
VERTEX
 8 
1
 10 
0.91817
 20 
0.48198
 30 
0.0
 0 
VERTEX
 8 
1
 10 
0.88655
 20 
0.48144
 30 
0.0
 0 
VERTEX
 8 
1
 10 
0.85044
 20 
0.48161
 30 
0.0
 0 
VERTEX
 8 
1
 10 
0.81021
 20 
0.48244
 30 
0.0
 0 
VERTEX
 8 
1
 10 
0.76626
 20 
0.48383
 30 
0.0
 0 
VERTEX
 8 
1
 10 
0.71906
 20 
0.48571
 30 
0.0
 0 
VERTEX
 8 
1
 10 
0.66912
 20 
0.48796
 30 
0.0
 0 
VERTEX
 8 
1
 10 
0.61698
 20 
0.49049
 30 
0.0
 0 
VERTEX
 8 
1
 10 
0.56322
 20 
0.49317
 30 
0.0
 0 
VERTEX
 8 
1
 10 
0.50847
 20 
0.49588
 30 
0.0
 0 
VERTEX
 8 
1
 10 
0.45335
 20 
0.49852
 30 
0.0
 0 
VERTEX
 8 
1
 10 
0.39854
 20 
0.50096
 30 
0.0
 0 
VERTEX
 8 
1
 10 
0.3447
 20 
0.50311
 30 
0.0
 0 
VERTEX
 8 
1
 10 
0.29249
 20 
0.50487
 30 
0.0
 0 
VERTEX
 8 
1
 10 
0.2426
 20 
0.50615
 30 
0.0
 0 
VERTEX
 8 
1
 10 
0.1957
 20 
0.50688
 30 
0.0
 0 
VERTEX
 8 
1
 10 
0.15245
 20 
0.50703
 30 
0.0
 0 
VERTEX
 8 
1
 10 
0.1135
 20 
0.50654
 30 
0.0
 0 
VERTEX
 8 
1
 10 
0.07953
 20 
0.50546
 30 
0.0
 0 
VERTEX
 8 
1
 10 
0.05119
 20 
0.504
 30 
0.0
 0 
VERTEX
 8 
1
 10 
0.0289
 20 
0.50248
 30 
0.0
 0 
VERTEX
 8 
1
 10 
0.01287
 20 
0.50119
 30 
0.0
 0 
VERTEX
 8 
1
 10 
0.00322
 20 
0.50031
 30 
0.0
 0 
VERTEX
 8 
1
 10 
0.0
 20 
0.5
 30 
0.0
 0 
SEQEND
 8 
1
 0 
ENDSEC
 0 
EOF
