 0 
SECTION
 2 
ENTITIES
 0 
POLYLINE
 8 
1
 66 
 1 
 10 
0.0
 20 
0.0
 30 
0.0
 0 
VERTEX
 8 
1
 10 
0.0
 20 
0.5
 30 
0.0
 0 
VERTEX
 8 
1
 10 
0.0034800
 20 
0.50057
 30 
0.0
 0 
VERTEX
 8 
1
 10 
0.01366
 20 
0.50242
 30 
0.0
 0 
VERTEX
 8 
1
 10 
0.02996
 20 
0.50571
 30 
0.0
 0 
VERTEX
 8 
1
 10 
0.05182
 20 
0.51036
 30 
0.0
 0 
VERTEX
 8 
1
 10 
0.07873
 20 
0.51615
 30 
0.0
 0 
VERTEX
 8 
1
 10 
0.11033
 20 
0.52289
 30 
0.0
 0 
VERTEX
 8 
1
 10 
0.14619
 20 
0.53049
 30 
0.0
 0 
VERTEX
 8 
1
 10 
0.18573
 20 
0.53885
 30 
0.0
 0 
VERTEX
 8 
1
 10 
0.22834
 20 
0.54778
 30 
0.0
 0 
VERTEX
 8 
1
 10 
0.27338
 20 
0.55702
 30 
0.0
 0 
VERTEX
 8 
1
 10 
0.32027
 20 
0.56626
 30 
0.0
 0 
VERTEX
 8 
1
 10 
0.36846
 20 
0.57517
 30 
0.0
 0 
VERTEX
 8 
1
 10 
0.41746
 20 
0.58347
 30 
0.0
 0 
VERTEX
 8 
1
 10 
0.46678
 20 
0.59089
 30 
0.0
 0 
VERTEX
 8 
1
 10 
0.51598
 20 
0.59723
 30 
0.0
 0 
VERTEX
 8 
1
 10 
0.5646
 20 
0.60229
 30 
0.0
 0 
VERTEX
 8 
1
 10 
0.61221
 20 
0.60592
 30 
0.0
 0 
VERTEX
 8 
1
 10 
0.65841
 20 
0.60801
 30 
0.0
 0 
VERTEX
 8 
1
 10 
0.7028
 20 
0.60846
 30 
0.0
 0 
VERTEX
 8 
1
 10 
0.74504
 20 
0.60722
 30 
0.0
 0 
VERTEX
 8 
1
 10 
0.78479
 20 
0.60428
 30 
0.0
 0 
VERTEX
 8 
1
 10 
0.82175
 20 
0.59965
 30 
0.0
 0 
VERTEX
 8 
1
 10 
0.85568
 20 
0.5934
 30 
0.0
 0 
VERTEX
 8 
1
 10 
0.88637
 20 
0.58562
 30 
0.0
 0 
VERTEX
 8 
1
 10 
0.91363
 20 
0.57647
 30 
0.0
 0 
VERTEX
 8 
1
 10 
0.93731
 20 
0.56616
 30 
0.0
 0 
VERTEX
 8 
1
 10 
0.95728
 20 
0.55491
 30 
0.0
 0 
VERTEX
 8 
1
 10 
0.9735
 20 
0.543
 30 
0.0
 0 
VERTEX
 8 
1
 10 
0.9859
 20 
0.53081
 30 
0.0
 0 
VERTEX
 8 
1
 10 
0.99438
 20 
0.51871
 30 
0.0
 0 
VERTEX
 8 
1
 10 
0.99897
 20 
0.50711
 30 
0.0
 0 
VERTEX
 8 
1
 10 
0.99973
 20 
0.49673
 30 
0.0
 0 
VERTEX
 8 
1
 10 
0.99575
 20 
0.48885
 30 
0.0
 0 
VERTEX
 8 
1
 10 
0.98586
 20 
0.48299
 30 
0.0
 0 
VERTEX
 8 
1
 10 
0.97009
 20 
0.47795
 30 
0.0
 0 
VERTEX
 8 
1
 10 
0.94901
 20 
0.47377
 30 
0.0
 0 
VERTEX
 8 
1
 10 
0.9229
 20 
0.47052
 30 
0.0
 0 
VERTEX
 8 
1
 10 
0.89202
 20 
0.46821
 30 
0.0
 0 
VERTEX
 8 
1
 10 
0.85672
 20 
0.46681
 30 
0.0
 0 
VERTEX
 8 
1
 10 
0.81735
 20 
0.46633
 30 
0.0
 0 
VERTEX
 8 
1
 10 
0.7743
 20 
0.46673
 30 
0.0
 0 
VERTEX
 8 
1
 10 
0.72801
 20 
0.46794
 30 
0.0
 0 
VERTEX
 8 
1
 10 
0.67895
 20 
0.4699
 30 
0.0
 0 
VERTEX
 8 
1
 10 
0.62762
 20 
0.47253
 30 
0.0
 0 
VERTEX
 8 
1
 10 
0.57453
 20 
0.47574
 30 
0.0
 0 
VERTEX
 8 
1
 10 
0.52021
 20 
0.47936
 30 
0.0
 0 
VERTEX
 8 
1
 10 
0.46523
 20 
0.4832
 30 
0.0
 0 
VERTEX
 8 
1
 10 
0.41025
 20 
0.48705
 30 
0.0
 0 
VERTEX
 8 
1
 10 
0.35597
 20 
0.49073
 30 
0.0
 0 
VERTEX
 8 
1
 10 
0.30308
 20 
0.49407
 30 
0.0
 0 
VERTEX
 8 
1
 10 
0.25232
 20 
0.49693
 30 
0.0
 0 
VERTEX
 8 
1
 10 
0.20443
 20 
0.49921
 30 
0.0
 0 
VERTEX
 8 
1
 10 
0.1601
 20 
0.50087
 30 
0.0
 0 
VERTEX
 8 
1
 10 
0.12002
 20 
0.50189
 30 
0.0
 0 
VERTEX
 8 
1
 10 
0.08482
 20 
0.5023
 30 
0.0
 0 
VERTEX
 8 
1
 10 
0.05509
 20 
0.50216
 30 
0.0
 0 
VERTEX
 8 
1
 10 
0.031360
 20 
0.50163
 30 
0.0
 0 
VERTEX
 8 
1
 10 
0.01407
 20 
0.50092
 30 
0.0
 0 
VERTEX
 8 
1
 10 
0.0035399
 20 
0.50027
 30 
0.0
 0 
VERTEX
 8 
1
 10 
0.0
 20 
0.5
 30 
0.0
 0 
SEQEND
 8 
1
 0 
ENDSEC
 0 
EOF
