 0 
SECTION
 2 
ENTITIES
 0 
POLYLINE
 8 
1
 66 
 1 
 10 
0.0
 20 
0.0
 30 
0.0
 0 
VERTEX
 8 
1
 10 
0.0
 20 
0.5
 30 
0.0
 0 
VERTEX
 8 
1
 10 
0.0032799
 20 
0.50042
 30 
0.0
 0 
VERTEX
 8 
1
 10 
0.01293
 20 
0.5018
 30 
0.0
 0 
VERTEX
 8 
1
 10 
0.02854
 20 
0.50436
 30 
0.0
 0 
VERTEX
 8 
1
 10 
0.04959
 20 
0.50811
 30 
0.0
 0 
VERTEX
 8 
1
 10 
0.0755
 20 
0.51295
 30 
0.0
 0 
VERTEX
 8 
1
 10 
0.10575
 20 
0.51865
 30 
0.0
 0 
VERTEX
 8 
1
 10 
0.13985
 20 
0.5249
 30 
0.0
 0 
VERTEX
 8 
1
 10 
0.17739
 20 
0.53141
 30 
0.0
 0 
VERTEX
 8 
1
 10 
0.21799
 20 
0.53788
 30 
0.0
 0 
VERTEX
 8 
1
 10 
0.26135
 20 
0.54413
 30 
0.0
 0 
VERTEX
 8 
1
 10 
0.30706
 20 
0.55011
 30 
0.0
 0 
VERTEX
 8 
1
 10 
0.35461
 20 
0.55572
 30 
0.0
 0 
VERTEX
 8 
1
 10 
0.40345
 20 
0.56085
 30 
0.0
 0 
VERTEX
 8 
1
 10 
0.45307
 20 
0.56538
 30 
0.0
 0 
VERTEX
 8 
1
 10 
0.50294
 20 
0.56917
 30 
0.0
 0 
VERTEX
 8 
1
 10 
0.55255
 20 
0.57211
 30 
0.0
 0 
VERTEX
 8 
1
 10 
0.60138
 20 
0.5741
 30 
0.0
 0 
VERTEX
 8 
1
 10 
0.64899
 20 
0.57504
 30 
0.0
 0 
VERTEX
 8 
1
 10 
0.69492
 20 
0.57488
 30 
0.0
 0 
VERTEX
 8 
1
 10 
0.73875
 20 
0.57358
 30 
0.0
 0 
VERTEX
 8 
1
 10 
0.78011
 20 
0.57113
 30 
0.0
 0 
VERTEX
 8 
1
 10 
0.81863
 20 
0.56754
 30 
0.0
 0 
VERTEX
 8 
1
 10 
0.85399
 20 
0.56286
 30 
0.0
 0 
VERTEX
 8 
1
 10 
0.8859
 20 
0.55715
 30 
0.0
 0 
VERTEX
 8 
1
 10 
0.91414
 20 
0.55049
 30 
0.0
 0 
VERTEX
 8 
1
 10 
0.93854
 20 
0.543
 30 
0.0
 0 
VERTEX
 8 
1
 10 
0.95898
 20 
0.53486
 30 
0.0
 0 
VERTEX
 8 
1
 10 
0.97538
 20 
0.52632
 30 
0.0
 0 
VERTEX
 8 
1
 10 
0.98768
 20 
0.5177
 30 
0.0
 0 
VERTEX
 8 
1
 10 
0.99582
 20 
0.50936
 30 
0.0
 0 
VERTEX
 8 
1
 10 
0.99979
 20 
0.50185
 30 
0.0
 0 
VERTEX
 8 
1
 10 
0.99873
 20 
0.49607
 30 
0.0
 0 
VERTEX
 8 
1
 10 
0.99194
 20 
0.49161
 30 
0.0
 0 
VERTEX
 8 
1
 10 
0.97962
 20 
0.48773
 30 
0.0
 0 
VERTEX
 8 
1
 10 
0.962
 20 
0.48459
 30 
0.0
 0 
VERTEX
 8 
1
 10 
0.93926
 20 
0.48223
 30 
0.0
 0 
VERTEX
 8 
1
 10 
0.91156
 20 
0.48066
 30 
0.0
 0 
VERTEX
 8 
1
 10 
0.87916
 20 
0.47983
 30 
0.0
 0 
VERTEX
 8 
1
 10 
0.84235
 20 
0.47968
 30 
0.0
 0 
VERTEX
 8 
1
 10 
0.8015
 20 
0.48013
 30 
0.0
 0 
VERTEX
 8 
1
 10 
0.75704
 20 
0.48109
 30 
0.0
 0 
VERTEX
 8 
1
 10 
0.70945
 20 
0.48246
 30 
0.0
 0 
VERTEX
 8 
1
 10 
0.65929
 20 
0.48414
 30 
0.0
 0 
VERTEX
 8 
1
 10 
0.60712
 20 
0.48604
 30 
0.0
 0 
VERTEX
 8 
1
 10 
0.55357
 20 
0.4881
 30 
0.0
 0 
VERTEX
 8 
1
 10 
0.49926
 20 
0.49024
 30 
0.0
 0 
VERTEX
 8 
1
 10 
0.44481
 20 
0.4924
 30 
0.0
 0 
VERTEX
 8 
1
 10 
0.39086
 20 
0.49451
 30 
0.0
 0 
VERTEX
 8 
1
 10 
0.33803
 20 
0.49651
 30 
0.0
 0 
VERTEX
 8 
1
 10 
0.28695
 20 
0.49832
 30 
0.0
 0 
VERTEX
 8 
1
 10 
0.23822
 20 
0.49986
 30 
0.0
 0 
VERTEX
 8 
1
 10 
0.19248
 20 
0.50104
 30 
0.0
 0 
VERTEX
 8 
1
 10 
0.15036
 20 
0.50182
 30 
0.0
 0 
VERTEX
 8 
1
 10 
0.11244
 20 
0.5022
 30 
0.0
 0 
VERTEX
 8 
1
 10 
0.07929
 20 
0.50218
 30 
0.0
 0 
VERTEX
 8 
1
 10 
0.05141
 20 
0.50185
 30 
0.0
 0 
VERTEX
 8 
1
 10 
0.02923
 20 
0.50132
 30 
0.0
 0 
VERTEX
 8 
1
 10 
0.0131
 20 
0.50071
 30 
0.0
 0 
VERTEX
 8 
1
 10 
0.0032900
 20 
0.50021
 30 
0.0
 0 
VERTEX
 8 
1
 10 
0.0
 20 
0.5
 30 
0.0
 0 
SEQEND
 8 
1
 0 
ENDSEC
 0 
EOF
