 0 
SECTION
 2 
ENTITIES
 0 
POLYLINE
 8 
1
 66 
 1 
 10 
0.0
 20 
0.0
 30 
0.0
 0 
VERTEX
 8 
1
 10 
0.0
 20 
0.5
 30 
0.0
 0 
VERTEX
 8 
1
 10 
0.0031900
 20 
0.50031
 30 
0.0
 0 
VERTEX
 8 
1
 10 
0.01255
 20 
0.50132
 30 
0.0
 0 
VERTEX
 8 
1
 10 
0.02765
 20 
0.5031
 30 
0.0
 0 
VERTEX
 8 
1
 10 
0.048069
 20 
0.50547
 30 
0.0
 0 
VERTEX
 8 
1
 10 
0.07361
 20 
0.50824
 30 
0.0
 0 
VERTEX
 8 
1
 10 
0.104
 20 
0.51139
 30 
0.0
 0 
VERTEX
 8 
1
 10 
0.13888
 20 
0.51494
 30 
0.0
 0 
VERTEX
 8 
1
 10 
0.17776
 20 
0.51884
 30 
0.0
 0 
VERTEX
 8 
1
 10 
0.22015
 20 
0.52304
 30 
0.0
 0 
VERTEX
 8 
1
 10 
0.26551
 20 
0.52744
 30 
0.0
 0 
VERTEX
 8 
1
 10 
0.31327
 20 
0.53197
 30 
0.0
 0 
VERTEX
 8 
1
 10 
0.36283
 20 
0.53649
 30 
0.0
 0 
VERTEX
 8 
1
 10 
0.41359
 20 
0.54086
 30 
0.0
 0 
VERTEX
 8 
1
 10 
0.46501
 20 
0.54494
 30 
0.0
 0 
VERTEX
 8 
1
 10 
0.5165
 20 
0.54859
 30 
0.0
 0 
VERTEX
 8 
1
 10 
0.56751
 20 
0.55171
 30 
0.0
 0 
VERTEX
 8 
1
 10 
0.6175
 20 
0.55415
 30 
0.0
 0 
VERTEX
 8 
1
 10 
0.66595
 20 
0.55581
 30 
0.0
 0 
VERTEX
 8 
1
 10 
0.7124
 20 
0.55658
 30 
0.0
 0 
VERTEX
 8 
1
 10 
0.75642
 20 
0.55639
 30 
0.0
 0 
VERTEX
 8 
1
 10 
0.7976
 20 
0.55518
 30 
0.0
 0 
VERTEX
 8 
1
 10 
0.83558
 20 
0.55292
 30 
0.0
 0 
VERTEX
 8 
1
 10 
0.87007
 20 
0.54961
 30 
0.0
 0 
VERTEX
 8 
1
 10 
0.90079
 20 
0.54526
 30 
0.0
 0 
VERTEX
 8 
1
 10 
0.92756
 20 
0.53993
 30 
0.0
 0 
VERTEX
 8 
1
 10 
0.95022
 20 
0.53372
 30 
0.0
 0 
VERTEX
 8 
1
 10 
0.9687
 20 
0.52677
 30 
0.0
 0 
VERTEX
 8 
1
 10 
0.98298
 20 
0.51932
 30 
0.0
 0 
VERTEX
 8 
1
 10 
0.99303
 20 
0.51172
 30 
0.0
 0 
VERTEX
 8 
1
 10 
0.99873
 20 
0.50438
 30 
0.0
 0 
VERTEX
 8 
1
 10 
0.99975
 20 
0.49814
 30 
0.0
 0 
VERTEX
 8 
1
 10 
0.99543
 20 
0.49259
 30 
0.0
 0 
VERTEX
 8 
1
 10 
0.98592
 20 
0.48715
 30 
0.0
 0 
VERTEX
 8 
1
 10 
0.97161
 20 
0.48241
 30 
0.0
 0 
VERTEX
 8 
1
 10 
0.95237
 20 
0.47859
 30 
0.0
 0 
VERTEX
 8 
1
 10 
0.92818
 20 
0.47562
 30 
0.0
 0 
VERTEX
 8 
1
 10 
0.89927
 20 
0.4734
 30 
0.0
 0 
VERTEX
 8 
1
 10 
0.86593
 20 
0.47191
 30 
0.0
 0 
VERTEX
 8 
1
 10 
0.8285
 20 
0.47112
 30 
0.0
 0 
VERTEX
 8 
1
 10 
0.78732
 20 
0.471
 30 
0.0
 0 
VERTEX
 8 
1
 10 
0.74281
 20 
0.47148
 30 
0.0
 0 
VERTEX
 8 
1
 10 
0.69544
 20 
0.47248
 30 
0.0
 0 
VERTEX
 8 
1
 10 
0.64574
 20 
0.47392
 30 
0.0
 0 
VERTEX
 8 
1
 10 
0.59428
 20 
0.47572
 30 
0.0
 0 
VERTEX
 8 
1
 10 
0.54163
 20 
0.47783
 30 
0.0
 0 
VERTEX
 8 
1
 10 
0.48839
 20 
0.4802
 30 
0.0
 0 
VERTEX
 8 
1
 10 
0.43516
 20 
0.48277
 30 
0.0
 0 
VERTEX
 8 
1
 10 
0.38252
 20 
0.4855
 30 
0.0
 0 
VERTEX
 8 
1
 10 
0.33102
 20 
0.48833
 30 
0.0
 0 
VERTEX
 8 
1
 10 
0.28117
 20 
0.49113
 30 
0.0
 0 
VERTEX
 8 
1
 10 
0.23356
 20 
0.49372
 30 
0.0
 0 
VERTEX
 8 
1
 10 
0.18882
 20 
0.49597
 30 
0.0
 0 
VERTEX
 8 
1
 10 
0.14759
 20 
0.4978
 30 
0.0
 0 
VERTEX
 8 
1
 10 
0.11043
 20 
0.49918
 30 
0.0
 0 
VERTEX
 8 
1
 10 
0.0779
 20 
0.50008
 30 
0.0
 0 
VERTEX
 8 
1
 10 
0.05048
 20 
0.50052
 30 
0.0
 0 
VERTEX
 8 
1
 10 
0.02866
 20 
0.50057
 30 
0.0
 0 
VERTEX
 8 
1
 10 
0.012820
 20 
0.50037
 30 
0.0
 0 
VERTEX
 8 
1
 10 
0.0032100
 20 
0.50011
 30 
0.0
 0 
VERTEX
 8 
1
 10 
0.0
 20 
0.5
 30 
0.0
 0 
SEQEND
 8 
1
 0 
ENDSEC
 0 
EOF
