 0 
SECTION
 2 
ENTITIES
 0 
POLYLINE
 8 
1
 66 
 1 
 10 
0.0
 20 
0.0
 30 
0.0
 0 
VERTEX
 8 
1
 10 
0.0
 20 
0.5
 30 
0.0
 0 
VERTEX
 8 
1
 10 
0.05
 20 
0.51195
 30 
0.0
 0 
VERTEX
 8 
1
 10 
0.1
 20 
0.5227
 30 
0.0
 0 
VERTEX
 8 
1
 10 
0.15
 20 
0.53275
 30 
0.0
 0 
VERTEX
 8 
1
 10 
0.2
 20 
0.5426
 30 
0.0
 0 
VERTEX
 8 
1
 10 
0.25
 20 
0.55238
 30 
0.0
 0 
VERTEX
 8 
1
 10 
0.3
 20 
0.5619
 30 
0.0
 0 
VERTEX
 8 
1
 10 
0.35
 20 
0.57107
 30 
0.0
 0 
VERTEX
 8 
1
 10 
0.4
 20 
0.5797
 30 
0.0
 0 
VERTEX
 8 
1
 10 
0.45
 20 
0.58773
 30 
0.0
 0 
VERTEX
 8 
1
 10 
0.5
 20 
0.5949
 30 
0.0
 0 
VERTEX
 8 
1
 10 
0.55
 20 
0.60053
 30 
0.0
 0 
VERTEX
 8 
1
 10 
0.6
 20 
0.60415
 30 
0.0
 0 
VERTEX
 8 
1
 10 
0.65
 20 
0.60583
 30 
0.0
 0 
VERTEX
 8 
1
 10 
0.7
 20 
0.6053
 30 
0.0
 0 
VERTEX
 8 
1
 10 
0.75
 20 
0.60242
 30 
0.0
 0 
VERTEX
 8 
1
 10 
0.8
 20 
0.5969
 30 
0.0
 0 
VERTEX
 8 
1
 10 
0.85
 20 
0.58805
 30 
0.0
 0 
VERTEX
 8 
1
 10 
0.9
 20 
0.574
 30 
0.0
 0 
VERTEX
 8 
1
 10 
0.92
 20 
0.56634
 30 
0.0
 0 
VERTEX
 8 
1
 10 
0.94
 20 
0.55704
 30 
0.0
 0 
VERTEX
 8 
1
 10 
0.96
 20 
0.5456
 30 
0.0
 0 
VERTEX
 8 
1
 10 
0.98
 20 
0.53042
 30 
0.0
 0 
VERTEX
 8 
1
 10 
0.99
 20 
0.52053
 30 
0.0
 0 
VERTEX
 8 
1
 10 
1
 20 
0.5
 30 
0.0
 0 
VERTEX
 8 
1
 10 
0.99
 20 
0.4872
 30 
0.0
 0 
VERTEX
 8 
1
 10 
0.98
 20 
0.4849
 30 
0.0
 0 
VERTEX
 8 
1
 10 
0.96
 20 
0.48368
 30 
0.0
 0 
VERTEX
 8 
1
 10 
0.94
 20 
0.4841
 30 
0.0
 0 
VERTEX
 8 
1
 10 
0.92
 20 
0.48436
 30 
0.0
 0 
VERTEX
 8 
1
 10 
0.9
 20 
0.4847
 30 
0.0
 0 
VERTEX
 8 
1
 10 
0.85
 20 
0.48555
 30 
0.0
 0 
VERTEX
 8 
1
 10 
0.8
 20 
0.4864
 30 
0.0
 0 
VERTEX
 8 
1
 10 
0.75
 20 
0.48725
 30 
0.0
 0 
VERTEX
 8 
1
 10 
0.7
 20 
0.4881
 30 
0.0
 0 
VERTEX
 8 
1
 10 
0.65
 20 
0.48895
 30 
0.0
 0 
VERTEX
 8 
1
 10 
0.6
 20 
0.4898
 30 
0.0
 0 
VERTEX
 8 
1
 10 
0.55
 20 
0.49065
 30 
0.0
 0 
VERTEX
 8 
1
 10 
0.5
 20 
0.4915
 30 
0.0
 0 
VERTEX
 8 
1
 10 
0.45
 20 
0.49235
 30 
0.0
 0 
VERTEX
 8 
1
 10 
0.4
 20 
0.4932
 30 
0.0
 0 
VERTEX
 8 
1
 10 
0.35
 20 
0.49405
 30 
0.0
 0 
VERTEX
 8 
1
 10 
0.3
 20 
0.4949
 30 
0.0
 0 
VERTEX
 8 
1
 10 
0.25
 20 
0.49575
 30 
0.0
 0 
VERTEX
 8 
1
 10 
0.2
 20 
0.4966
 30 
0.0
 0 
VERTEX
 8 
1
 10 
0.15
 20 
0.49745
 30 
0.0
 0 
VERTEX
 8 
1
 10 
0.1
 20 
0.4983
 30 
0.0
 0 
VERTEX
 8 
1
 10 
0.05
 20 
0.49915
 30 
0.0
 0 
VERTEX
 8 
1
 10 
0.0
 20 
0.5
 30 
0.0
 0 
SEQEND
 8 
1
 0 
ENDSEC
 0 
EOF
