 0 
SECTION
 2 
ENTITIES
 0 
POLYLINE
 8 
1
 66 
 1 
 10 
0.0
 20 
0.0
 30 
0.0
 0 
VERTEX
 8 
1
 10 
0.0
 20 
0.5
 30 
0.0
 0 
VERTEX
 8 
1
 10 
0.0036000
 20 
0.50119
 30 
0.0
 0 
VERTEX
 8 
1
 10 
0.01384
 20 
0.50504
 30 
0.0
 0 
VERTEX
 8 
1
 10 
0.02949
 20 
0.51167
 30 
0.0
 0 
VERTEX
 8 
1
 10 
0.04944
 20 
0.52051
 30 
0.0
 0 
VERTEX
 8 
1
 10 
0.07311
 20 
0.53067
 30 
0.0
 0 
VERTEX
 8 
1
 10 
0.10042
 20 
0.54145
 30 
0.0
 0 
VERTEX
 8 
1
 10 
0.13131
 20 
0.55272
 30 
0.0
 0 
VERTEX
 8 
1
 10 
0.16509
 20 
0.56453
 30 
0.0
 0 
VERTEX
 8 
1
 10 
0.20067
 20 
0.57622
 30 
0.0
 0 
VERTEX
 8 
1
 10 
0.23774
 20 
0.58632
 30 
0.0
 0 
VERTEX
 8 
1
 10 
0.2772
 20 
0.59417
 30 
0.0
 0 
VERTEX
 8 
1
 10 
0.31914
 20 
0.60034
 30 
0.0
 0 
VERTEX
 8 
1
 10 
0.36364
 20 
0.60514
 30 
0.0
 0 
VERTEX
 8 
1
 10 
0.40959
 20 
0.60859
 30 
0.0
 0 
VERTEX
 8 
1
 10 
0.45673
 20 
0.61073
 30 
0.0
 0 
VERTEX
 8 
1
 10 
0.50452
 20 
0.61187
 30 
0.0
 0 
VERTEX
 8 
1
 10 
0.55257
 20 
0.61112
 30 
0.0
 0 
VERTEX
 8 
1
 10 
0.60029
 20 
0.60944
 30 
0.0
 0 
VERTEX
 8 
1
 10 
0.64724
 20 
0.60685
 30 
0.0
 0 
VERTEX
 8 
1
 10 
0.69292
 20 
0.60253
 30 
0.0
 0 
VERTEX
 8 
1
 10 
0.73688
 20 
0.59744
 30 
0.0
 0 
VERTEX
 8 
1
 10 
0.77868
 20 
0.5914
 30 
0.0
 0 
VERTEX
 8 
1
 10 
0.8179
 20 
0.58449
 30 
0.0
 0 
VERTEX
 8 
1
 10 
0.85414
 20 
0.57687
 30 
0.0
 0 
VERTEX
 8 
1
 10 
0.88703
 20 
0.56866
 30 
0.0
 0 
VERTEX
 8 
1
 10 
0.91627
 20 
0.56003
 30 
0.0
 0 
VERTEX
 8 
1
 10 
0.94154
 20 
0.55117
 30 
0.0
 0 
VERTEX
 8 
1
 10 
0.96262
 20 
0.54229
 30 
0.0
 0 
VERTEX
 8 
1
 10 
0.97925
 20 
0.53363
 30 
0.0
 0 
VERTEX
 8 
1
 10 
0.99127
 20 
0.52551
 30 
0.0
 0 
VERTEX
 8 
1
 10 
0.99842
 20 
0.51838
 30 
0.0
 0 
VERTEX
 8 
1
 10 
0.99968
 20 
0.51304
 30 
0.0
 0 
VERTEX
 8 
1
 10 
0.9963
 20 
0.5085
 30 
0.0
 0 
VERTEX
 8 
1
 10 
0.98271
 20 
0.50382
 30 
0.0
 0 
VERTEX
 8 
1
 10 
0.96563
 20 
0.49839
 30 
0.0
 0 
VERTEX
 8 
1
 10 
0.94342
 20 
0.49328
 30 
0.0
 0 
VERTEX
 8 
1
 10 
0.91641
 20 
0.4883
 30 
0.0
 0 
VERTEX
 8 
1
 10 
0.88497
 20 
0.48354
 30 
0.0
 0 
VERTEX
 8 
1
 10 
0.8495
 20 
0.4791
 30 
0.0
 0 
VERTEX
 8 
1
 10 
0.81044
 20 
0.47507
 30 
0.0
 0 
VERTEX
 8 
1
 10 
0.76826
 20 
0.47153
 30 
0.0
 0 
VERTEX
 8 
1
 10 
0.72348
 20 
0.46858
 30 
0.0
 0 
VERTEX
 8 
1
 10 
0.67663
 20 
0.46632
 30 
0.0
 0 
VERTEX
 8 
1
 10 
0.62826
 20 
0.46485
 30 
0.0
 0 
VERTEX
 8 
1
 10 
0.57896
 20 
0.46431
 30 
0.0
 0 
VERTEX
 8 
1
 10 
0.52933
 20 
0.46488
 30 
0.0
 0 
VERTEX
 8 
1
 10 
0.47997
 20 
0.46679
 30 
0.0
 0 
VERTEX
 8 
1
 10 
0.43159
 20 
0.47085
 30 
0.0
 0 
VERTEX
 8 
1
 10 
0.38318
 20 
0.47829
 30 
0.0
 0 
VERTEX
 8 
1
 10 
0.33284
 20 
0.48777
 30 
0.0
 0 
VERTEX
 8 
1
 10 
0.28109
 20 
0.49656
 30 
0.0
 0 
VERTEX
 8 
1
 10 
0.22993
 20 
0.50336
 30 
0.0
 0 
VERTEX
 8 
1
 10 
0.18103
 20 
0.50794
 30 
0.0
 0 
VERTEX
 8 
1
 10 
0.13582
 20 
0.5102
 30 
0.0
 0 
VERTEX
 8 
1
 10 
0.09552
 20 
0.51034
 30 
0.0
 0 
VERTEX
 8 
1
 10 
0.061389
 20 
0.50868
 30 
0.0
 0 
VERTEX
 8 
1
 10 
0.034410
 20 
0.50591
 30 
0.0
 0 
VERTEX
 8 
1
 10 
0.01519
 20 
0.50299
 30 
0.0
 0 
VERTEX
 8 
1
 10 
0.0037700
 20 
0.50081
 30 
0.0
 0 
SEQEND
 8 
1
 0 
ENDSEC
 0 
EOF
