 0 
SECTION
 2 
ENTITIES
 0 
POLYLINE
 8 
1
 66 
 1 
 10 
0.0
 20 
0.0
 30 
0.0
 0 
VERTEX
 8 
1
 10 
0.0
 20 
0.5
 30 
0.0
 0 
VERTEX
 8 
1
 10 
0.046
 20 
0.5031
 30 
0.0
 0 
VERTEX
 8 
1
 10 
0.1051
 20 
0.5082
 30 
0.0
 0 
VERTEX
 8 
1
 10 
0.2099
 20 
0.5203
 30 
0.0
 0 
VERTEX
 8 
1
 10 
0.3022
 20 
0.5341
 30 
0.0
 0 
VERTEX
 8 
1
 10 
0.4019
 20 
0.5524
 30 
0.0
 0 
VERTEX
 8 
1
 10 
0.4814
 20 
0.569
 30 
0.0
 0 
VERTEX
 8 
1
 10 
0.5605
 20 
0.5868
 30 
0.0
 0 
VERTEX
 8 
1
 10 
0.59
 20 
0.5943
 30 
0.0
 0 
VERTEX
 8 
1
 10 
0.6195
 20 
0.6018
 30 
0.0
 0 
VERTEX
 8 
1
 10 
0.6786
 20 
0.616
 30 
0.0
 0 
VERTEX
 8 
1
 10 
0.7393
 20 
0.6167
 30 
0.0
 0 
VERTEX
 8 
1
 10 
0.7997
 20 
0.6093
 30 
0.0
 0 
VERTEX
 8 
1
 10 
0.8393
 20 
0.6005
 30 
0.0
 0 
VERTEX
 8 
1
 10 
0.897
 20 
0.5815
 30 
0.0
 0 
VERTEX
 8 
1
 10 
0.9512
 20 
0.5541
 30 
0.0
 0 
VERTEX
 8 
1
 10 
0.9802
 20 
0.532
 30 
0.0
 0 
VERTEX
 8 
1
 10 
0.9886
 20 
0.5232
 30 
0.0
 0 
VERTEX
 8 
1
 10 
0.9956
 20 
0.5133
 30 
0.0
 0 
VERTEX
 8 
1
 10 
1
 20 
0.5
 30 
0.0
 0 
VERTEX
 8 
1
 10 
0.9952
 20 
0.4848
 30 
0.0
 0 
VERTEX
 8 
1
 10 
0.9894
 20 
0.4792
 30 
0.0
 0 
VERTEX
 8 
1
 10 
0.976
 20 
0.4763
 30 
0.0
 0 
VERTEX
 8 
1
 10 
0.9541
 20 
0.4727
 30 
0.0
 0 
VERTEX
 8 
1
 10 
0.8931
 20 
0.4634
 30 
0.0
 0 
VERTEX
 8 
1
 10 
0.8348
 20 
0.4601
 30 
0.0
 0 
VERTEX
 8 
1
 10 
0.791
 20 
0.4603
 30 
0.0
 0 
VERTEX
 8 
1
 10 
0.7368
 20 
0.4623
 30 
0.0
 0 
VERTEX
 8 
1
 10 
0.6807
 20 
0.4656
 30 
0.0
 0 
VERTEX
 8 
1
 10 
0.6028
 20 
0.4719
 30 
0.0
 0 
VERTEX
 8 
1
 10 
0.5829
 20 
0.4737
 30 
0.0
 0 
VERTEX
 8 
1
 10 
0.5626
 20 
0.4757
 30 
0.0
 0 
VERTEX
 8 
1
 10 
0.48
 20 
0.4836
 30 
0.0
 0 
VERTEX
 8 
1
 10 
0.3956
 20 
0.4911
 30 
0.0
 0 
VERTEX
 8 
1
 10 
0.3086
 20 
0.4973
 30 
0.0
 0 
VERTEX
 8 
1
 10 
0.22
 20 
0.5023
 30 
0.0
 0 
VERTEX
 8 
1
 10 
0.1083
 20 
0.5042
 30 
0.0
 0 
VERTEX
 8 
1
 10 
0.0421
 20 
0.5026
 30 
0.0
 0 
VERTEX
 8 
1
 10 
0.0
 20 
0.5
 30 
0.0
 0 
SEQEND
 8 
1
 0 
ENDSEC
 0 
EOF
