 0 
SECTION
 2 
ENTITIES
 0 
POLYLINE
 8 
1
 66 
 1 
 10 
0.0
 20 
0.0
 30 
0.0
 0 
VERTEX
 8 
1
 10 
0.0
 20 
0.5
 30 
0.0
 0 
VERTEX
 8 
1
 10 
0.0042499
 20 
0.50096
 30 
0.0
 0 
VERTEX
 8 
1
 10 
0.01515
 20 
0.50344
 30 
0.0
 0 
VERTEX
 8 
1
 10 
0.02988
 20 
0.50678
 30 
0.0
 0 
VERTEX
 8 
1
 10 
0.04808
 20 
0.51087
 30 
0.0
 0 
VERTEX
 8 
1
 10 
0.06816
 20 
0.51531
 30 
0.0
 0 
VERTEX
 8 
1
 10 
0.08891
 20 
0.51977
 30 
0.0
 0 
VERTEX
 8 
1
 10 
0.10985
 20 
0.52414
 30 
0.0
 0 
VERTEX
 8 
1
 10 
0.13089
 20 
0.52838
 30 
0.0
 0 
VERTEX
 8 
1
 10 
0.15198
 20 
0.53249
 30 
0.0
 0 
VERTEX
 8 
1
 10 
0.17312
 20 
0.53647
 30 
0.0
 0 
VERTEX
 8 
1
 10 
0.19429
 20 
0.54033
 30 
0.0
 0 
VERTEX
 8 
1
 10 
0.21548
 20 
0.54407
 30 
0.0
 0 
VERTEX
 8 
1
 10 
0.23667
 20 
0.54766
 30 
0.0
 0 
VERTEX
 8 
1
 10 
0.25784
 20 
0.55112
 30 
0.0
 0 
VERTEX
 8 
1
 10 
0.279
 20 
0.55443
 30 
0.0
 0 
VERTEX
 8 
1
 10 
0.30014
 20 
0.55757
 30 
0.0
 0 
VERTEX
 8 
1
 10 
0.32127
 20 
0.56054
 30 
0.0
 0 
VERTEX
 8 
1
 10 
0.34241
 20 
0.56334
 30 
0.0
 0 
VERTEX
 8 
1
 10 
0.36357
 20 
0.56597
 30 
0.0
 0 
VERTEX
 8 
1
 10 
0.38475
 20 
0.56842
 30 
0.0
 0 
VERTEX
 8 
1
 10 
0.40595
 20 
0.5707
 30 
0.0
 0 
VERTEX
 8 
1
 10 
0.42718
 20 
0.57282
 30 
0.0
 0 
VERTEX
 8 
1
 10 
0.44841
 20 
0.57476
 30 
0.0
 0 
VERTEX
 8 
1
 10 
0.46963
 20 
0.57653
 30 
0.0
 0 
VERTEX
 8 
1
 10 
0.49081
 20 
0.57812
 30 
0.0
 0 
VERTEX
 8 
1
 10 
0.51192
 20 
0.5795
 30 
0.0
 0 
VERTEX
 8 
1
 10 
0.53297
 20 
0.58067
 30 
0.0
 0 
VERTEX
 8 
1
 10 
0.55395
 20 
0.58159
 30 
0.0
 0 
VERTEX
 8 
1
 10 
0.57488
 20 
0.58227
 30 
0.0
 0 
VERTEX
 8 
1
 10 
0.59578
 20 
0.58268
 30 
0.0
 0 
VERTEX
 8 
1
 10 
0.61669
 20 
0.58283
 30 
0.0
 0 
VERTEX
 8 
1
 10 
0.6376
 20 
0.58272
 30 
0.0
 0 
VERTEX
 8 
1
 10 
0.6585
 20 
0.58235
 30 
0.0
 0 
VERTEX
 8 
1
 10 
0.67937
 20 
0.58172
 30 
0.0
 0 
VERTEX
 8 
1
 10 
0.70021
 20 
0.58083
 30 
0.0
 0 
VERTEX
 8 
1
 10 
0.721
 20 
0.57967
 30 
0.0
 0 
VERTEX
 8 
1
 10 
0.74171
 20 
0.57823
 30 
0.0
 0 
VERTEX
 8 
1
 10 
0.76232
 20 
0.57651
 30 
0.0
 0 
VERTEX
 8 
1
 10 
0.78278
 20 
0.57449
 30 
0.0
 0 
VERTEX
 8 
1
 10 
0.80303
 20 
0.57215
 30 
0.0
 0 
VERTEX
 8 
1
 10 
0.82304
 20 
0.56946
 30 
0.0
 0 
VERTEX
 8 
1
 10 
0.8428
 20 
0.56638
 30 
0.0
 0 
VERTEX
 8 
1
 10 
0.86226
 20 
0.5629
 30 
0.0
 0 
VERTEX
 8 
1
 10 
0.88131
 20 
0.55901
 30 
0.0
 0 
VERTEX
 8 
1
 10 
0.89971
 20 
0.55473
 30 
0.0
 0 
VERTEX
 8 
1
 10 
0.91714
 20 
0.55007
 30 
0.0
 0 
VERTEX
 8 
1
 10 
0.93321
 20 
0.54508
 30 
0.0
 0 
VERTEX
 8 
1
 10 
0.94746
 20 
0.53992
 30 
0.0
 0 
VERTEX
 8 
1
 10 
0.95948
 20 
0.53485
 30 
0.0
 0 
VERTEX
 8 
1
 10 
0.96916
 20 
0.53013
 30 
0.0
 0 
VERTEX
 8 
1
 10 
0.97675
 20 
0.52589
 30 
0.0
 0 
VERTEX
 8 
1
 10 
0.98266
 20 
0.52212
 30 
0.0
 0 
VERTEX
 8 
1
 10 
0.98729
 20 
0.51876
 30 
0.0
 0 
VERTEX
 8 
1
 10 
0.99095
 20 
0.5157
 30 
0.0
 0 
VERTEX
 8 
1
 10 
0.99385
 20 
0.51287
 30 
0.0
 0 
VERTEX
 8 
1
 10 
0.99614
 20 
0.51019
 30 
0.0
 0 
VERTEX
 8 
1
 10 
0.99787
 20 
0.50762
 30 
0.0
 0 
VERTEX
 8 
1
 10 
0.99909
 20 
0.50512
 30 
0.0
 0 
VERTEX
 8 
1
 10 
0.9998
 20 
0.50268
 30 
0.0
 0 
VERTEX
 8 
1
 10 
1
 20 
0.50035
 30 
0.0
 0 
VERTEX
 8 
1
 10 
0.99969
 20 
0.498
 30 
0.0
 0 
VERTEX
 8 
1
 10 
0.99885
 20 
0.49558
 30 
0.0
 0 
VERTEX
 8 
1
 10 
0.99746
 20 
0.49315
 30 
0.0
 0 
VERTEX
 8 
1
 10 
0.9955
 20 
0.49073
 30 
0.0
 0 
VERTEX
 8 
1
 10 
0.99297
 20 
0.48827
 30 
0.0
 0 
VERTEX
 8 
1
 10 
0.9898
 20 
0.4857
 30 
0.0
 0 
VERTEX
 8 
1
 10 
0.98584
 20 
0.48299
 30 
0.0
 0 
VERTEX
 8 
1
 10 
0.98088
 20 
0.48005
 30 
0.0
 0 
VERTEX
 8 
1
 10 
0.97459
 20 
0.47681
 30 
0.0
 0 
VERTEX
 8 
1
 10 
0.96658
 20 
0.47325
 30 
0.0
 0 
VERTEX
 8 
1
 10 
0.95644
 20 
0.46941
 30 
0.0
 0 
VERTEX
 8 
1
 10 
0.94392
 20 
0.46545
 30 
0.0
 0 
VERTEX
 8 
1
 10 
0.92912
 20 
0.46162
 30 
0.0
 0 
VERTEX
 8 
1
 10 
0.91239
 20 
0.45806
 30 
0.0
 0 
VERTEX
 8 
1
 10 
0.89417
 20 
0.45487
 30 
0.0
 0 
VERTEX
 8 
1
 10 
0.87491
 20 
0.45201
 30 
0.0
 0 
VERTEX
 8 
1
 10 
0.85497
 20 
0.44948
 30 
0.0
 0 
VERTEX
 8 
1
 10 
0.83463
 20 
0.44724
 30 
0.0
 0 
VERTEX
 8 
1
 10 
0.81404
 20 
0.44529
 30 
0.0
 0 
VERTEX
 8 
1
 10 
0.79326
 20 
0.44361
 30 
0.0
 0 
VERTEX
 8 
1
 10 
0.77236
 20 
0.44217
 30 
0.0
 0 
VERTEX
 8 
1
 10 
0.75133
 20 
0.44097
 30 
0.0
 0 
VERTEX
 8 
1
 10 
0.73021
 20 
0.43997
 30 
0.0
 0 
VERTEX
 8 
1
 10 
0.70901
 20 
0.43917
 30 
0.0
 0 
VERTEX
 8 
1
 10 
0.68778
 20 
0.43856
 30 
0.0
 0 
VERTEX
 8 
1
 10 
0.66651
 20 
0.43813
 30 
0.0
 0 
VERTEX
 8 
1
 10 
0.64524
 20 
0.43788
 30 
0.0
 0 
VERTEX
 8 
1
 10 
0.62395
 20 
0.43782
 30 
0.0
 0 
VERTEX
 8 
1
 10 
0.60266
 20 
0.43793
 30 
0.0
 0 
VERTEX
 8 
1
 10 
0.58137
 20 
0.43823
 30 
0.0
 0 
VERTEX
 8 
1
 10 
0.56006
 20 
0.4387
 30 
0.0
 0 
VERTEX
 8 
1
 10 
0.53874
 20 
0.43935
 30 
0.0
 0 
VERTEX
 8 
1
 10 
0.51738
 20 
0.44017
 30 
0.0
 0 
VERTEX
 8 
1
 10 
0.49599
 20 
0.44114
 30 
0.0
 0 
VERTEX
 8 
1
 10 
0.47456
 20 
0.44227
 30 
0.0
 0 
VERTEX
 8 
1
 10 
0.4531
 20 
0.44354
 30 
0.0
 0 
VERTEX
 8 
1
 10 
0.43161
 20 
0.44494
 30 
0.0
 0 
VERTEX
 8 
1
 10 
0.4101
 20 
0.44646
 30 
0.0
 0 
VERTEX
 8 
1
 10 
0.38859
 20 
0.4481
 30 
0.0
 0 
VERTEX
 8 
1
 10 
0.36709
 20 
0.44985
 30 
0.0
 0 
VERTEX
 8 
1
 10 
0.34562
 20 
0.45172
 30 
0.0
 0 
VERTEX
 8 
1
 10 
0.32419
 20 
0.45371
 30 
0.0
 0 
VERTEX
 8 
1
 10 
0.3028
 20 
0.45584
 30 
0.0
 0 
VERTEX
 8 
1
 10 
0.28142
 20 
0.4581
 30 
0.0
 0 
VERTEX
 8 
1
 10 
0.26007
 20 
0.46049
 30 
0.0
 0 
VERTEX
 8 
1
 10 
0.23872
 20 
0.46303
 30 
0.0
 0 
VERTEX
 8 
1
 10 
0.21736
 20 
0.4657
 30 
0.0
 0 
VERTEX
 8 
1
 10 
0.196
 20 
0.46849
 30 
0.0
 0 
VERTEX
 8 
1
 10 
0.17465
 20 
0.47141
 30 
0.0
 0 
VERTEX
 8 
1
 10 
0.15332
 20 
0.47445
 30 
0.0
 0 
VERTEX
 8 
1
 10 
0.13203
 20 
0.4776
 30 
0.0
 0 
VERTEX
 8 
1
 10 
0.11081
 20 
0.48088
 30 
0.0
 0 
VERTEX
 8 
1
 10 
0.08968
 20 
0.48429
 30 
0.0
 0 
VERTEX
 8 
1
 10 
0.06876
 20 
0.4878
 30 
0.0
 0 
VERTEX
 8 
1
 10 
0.04852
 20 
0.49131
 30 
0.0
 0 
VERTEX
 8 
1
 10 
0.03016
 20 
0.49458
 30 
0.0
 0 
VERTEX
 8 
1
 10 
0.01529
 20 
0.49725
 30 
0.0
 0 
VERTEX
 8 
1
 10 
0.0042799
 20 
0.49923
 30 
0.0
 0 
VERTEX
 8 
1
 10 
0.0
 20 
0.5
 30 
0.0
 0 
SEQEND
 8 
1
 0 
ENDSEC
 0 
EOF
