 0 
SECTION
 2 
ENTITIES
 0 
POLYLINE
 8 
1
 66 
 1 
 10 
0.0
 20 
0.0
 30 
0.0
 0 
VERTEX
 8 
1
 10 
0.0
 20 
0.5
 30 
0.0
 0 
VERTEX
 8 
1
 10 
0.004
 20 
0.50076
 30 
0.0
 0 
VERTEX
 8 
1
 10 
0.015260
 20 
0.50289
 30 
0.0
 0 
VERTEX
 8 
1
 10 
0.03132
 20 
0.50594
 30 
0.0
 0 
VERTEX
 8 
1
 10 
0.05024
 20 
0.50949
 30 
0.0
 0 
VERTEX
 8 
1
 10 
0.06993
 20 
0.51311
 30 
0.0
 0 
VERTEX
 8 
1
 10 
0.08972
 20 
0.51666
 30 
0.0
 0 
VERTEX
 8 
1
 10 
0.10954
 20 
0.52012
 30 
0.0
 0 
VERTEX
 8 
1
 10 
0.12938
 20 
0.52347
 30 
0.0
 0 
VERTEX
 8 
1
 10 
0.14925
 20 
0.52671
 30 
0.0
 0 
VERTEX
 8 
1
 10 
0.16914
 20 
0.52987
 30 
0.0
 0 
VERTEX
 8 
1
 10 
0.18906
 20 
0.53293
 30 
0.0
 0 
VERTEX
 8 
1
 10 
0.20899
 20 
0.5359
 30 
0.0
 0 
VERTEX
 8 
1
 10 
0.22893
 20 
0.53877
 30 
0.0
 0 
VERTEX
 8 
1
 10 
0.24886
 20 
0.54154
 30 
0.0
 0 
VERTEX
 8 
1
 10 
0.26878
 20 
0.5442
 30 
0.0
 0 
VERTEX
 8 
1
 10 
0.2887
 20 
0.54675
 30 
0.0
 0 
VERTEX
 8 
1
 10 
0.30861
 20 
0.54917
 30 
0.0
 0 
VERTEX
 8 
1
 10 
0.32852
 20 
0.55147
 30 
0.0
 0 
VERTEX
 8 
1
 10 
0.34844
 20 
0.55364
 30 
0.0
 0 
VERTEX
 8 
1
 10 
0.36837
 20 
0.55568
 30 
0.0
 0 
VERTEX
 8 
1
 10 
0.38831
 20 
0.55759
 30 
0.0
 0 
VERTEX
 8 
1
 10 
0.40828
 20 
0.55937
 30 
0.0
 0 
VERTEX
 8 
1
 10 
0.42826
 20 
0.56103
 30 
0.0
 0 
VERTEX
 8 
1
 10 
0.44824
 20 
0.56256
 30 
0.0
 0 
VERTEX
 8 
1
 10 
0.46822
 20 
0.56396
 30 
0.0
 0 
VERTEX
 8 
1
 10 
0.48818
 20 
0.56523
 30 
0.0
 0 
VERTEX
 8 
1
 10 
0.50811
 20 
0.56635
 30 
0.0
 0 
VERTEX
 8 
1
 10 
0.528
 20 
0.56731
 30 
0.0
 0 
VERTEX
 8 
1
 10 
0.54785
 20 
0.56809
 30 
0.0
 0 
VERTEX
 8 
1
 10 
0.56767
 20 
0.5687
 30 
0.0
 0 
VERTEX
 8 
1
 10 
0.58747
 20 
0.5691
 30 
0.0
 0 
VERTEX
 8 
1
 10 
0.60728
 20 
0.5693
 30 
0.0
 0 
VERTEX
 8 
1
 10 
0.62709
 20 
0.56931
 30 
0.0
 0 
VERTEX
 8 
1
 10 
0.6469
 20 
0.56913
 30 
0.0
 0 
VERTEX
 8 
1
 10 
0.6667
 20 
0.56875
 30 
0.0
 0 
VERTEX
 8 
1
 10 
0.68649
 20 
0.56817
 30 
0.0
 0 
VERTEX
 8 
1
 10 
0.70625
 20 
0.56739
 30 
0.0
 0 
VERTEX
 8 
1
 10 
0.72598
 20 
0.56641
 30 
0.0
 0 
VERTEX
 8 
1
 10 
0.74566
 20 
0.56521
 30 
0.0
 0 
VERTEX
 8 
1
 10 
0.76529
 20 
0.56379
 30 
0.0
 0 
VERTEX
 8 
1
 10 
0.78482
 20 
0.56214
 30 
0.0
 0 
VERTEX
 8 
1
 10 
0.80424
 20 
0.56023
 30 
0.0
 0 
VERTEX
 8 
1
 10 
0.8235
 20 
0.55804
 30 
0.0
 0 
VERTEX
 8 
1
 10 
0.84263
 20 
0.55553
 30 
0.0
 0 
VERTEX
 8 
1
 10 
0.86159
 20 
0.5527
 30 
0.0
 0 
VERTEX
 8 
1
 10 
0.88033
 20 
0.5495
 30 
0.0
 0 
VERTEX
 8 
1
 10 
0.89872
 20 
0.54593
 30 
0.0
 0 
VERTEX
 8 
1
 10 
0.91658
 20 
0.54195
 30 
0.0
 0 
VERTEX
 8 
1
 10 
0.93365
 20 
0.53752
 30 
0.0
 0 
VERTEX
 8 
1
 10 
0.9495
 20 
0.53265
 30 
0.0
 0 
VERTEX
 8 
1
 10 
0.9634
 20 
0.52756
 30 
0.0
 0 
VERTEX
 8 
1
 10 
0.97448
 20 
0.52273
 30 
0.0
 0 
VERTEX
 8 
1
 10 
0.98256
 20 
0.51854
 30 
0.0
 0 
VERTEX
 8 
1
 10 
0.98828
 20 
0.51503
 30 
0.0
 0 
VERTEX
 8 
1
 10 
0.99237
 20 
0.51202
 30 
0.0
 0 
VERTEX
 8 
1
 10 
0.99535
 20 
0.50937
 30 
0.0
 0 
VERTEX
 8 
1
 10 
0.99751
 20 
0.50692
 30 
0.0
 0 
VERTEX
 8 
1
 10 
0.99897
 20 
0.50458
 30 
0.0
 0 
VERTEX
 8 
1
 10 
0.9998
 20 
0.50231
 30 
0.0
 0 
VERTEX
 8 
1
 10 
0.99999
 20 
0.50015
 30 
0.0
 0 
VERTEX
 8 
1
 10 
0.99954
 20 
0.49796
 30 
0.0
 0 
VERTEX
 8 
1
 10 
0.99841
 20 
0.49573
 30 
0.0
 0 
VERTEX
 8 
1
 10 
0.99659
 20 
0.49349
 30 
0.0
 0 
VERTEX
 8 
1
 10 
0.99402
 20 
0.49121
 30 
0.0
 0 
VERTEX
 8 
1
 10 
0.99053
 20 
0.48877
 30 
0.0
 0 
VERTEX
 8 
1
 10 
0.98578
 20 
0.48605
 30 
0.0
 0 
VERTEX
 8 
1
 10 
0.97915
 20 
0.4829
 30 
0.0
 0 
VERTEX
 8 
1
 10 
0.96987
 20 
0.47924
 30 
0.0
 0 
VERTEX
 8 
1
 10 
0.95751
 20 
0.47525
 30 
0.0
 0 
VERTEX
 8 
1
 10 
0.94255
 20 
0.47139
 30 
0.0
 0 
VERTEX
 8 
1
 10 
0.92585
 20 
0.46797
 30 
0.0
 0 
VERTEX
 8 
1
 10 
0.90803
 20 
0.46503
 30 
0.0
 0 
VERTEX
 8 
1
 10 
0.88944
 20 
0.46249
 30 
0.0
 0 
VERTEX
 8 
1
 10 
0.87035
 20 
0.46029
 30 
0.0
 0 
VERTEX
 8 
1
 10 
0.85096
 20 
0.45836
 30 
0.0
 0 
VERTEX
 8 
1
 10 
0.83139
 20 
0.45667
 30 
0.0
 0 
VERTEX
 8 
1
 10 
0.81171
 20 
0.45519
 30 
0.0
 0 
VERTEX
 8 
1
 10 
0.79195
 20 
0.45391
 30 
0.0
 0 
VERTEX
 8 
1
 10 
0.77212
 20 
0.45282
 30 
0.0
 0 
VERTEX
 8 
1
 10 
0.75222
 20 
0.45189
 30 
0.0
 0 
VERTEX
 8 
1
 10 
0.73227
 20 
0.45112
 30 
0.0
 0 
VERTEX
 8 
1
 10 
0.71228
 20 
0.4505
 30 
0.0
 0 
VERTEX
 8 
1
 10 
0.69228
 20 
0.45001
 30 
0.0
 0 
VERTEX
 8 
1
 10 
0.67225
 20 
0.44965
 30 
0.0
 0 
VERTEX
 8 
1
 10 
0.65223
 20 
0.44942
 30 
0.0
 0 
VERTEX
 8 
1
 10 
0.6322
 20 
0.44933
 30 
0.0
 0 
VERTEX
 8 
1
 10 
0.61216
 20 
0.44936
 30 
0.0
 0 
VERTEX
 8 
1
 10 
0.59212
 20 
0.44952
 30 
0.0
 0 
VERTEX
 8 
1
 10 
0.57207
 20 
0.44981
 30 
0.0
 0 
VERTEX
 8 
1
 10 
0.55203
 20 
0.45023
 30 
0.0
 0 
VERTEX
 8 
1
 10 
0.53197
 20 
0.45077
 30 
0.0
 0 
VERTEX
 8 
1
 10 
0.5119
 20 
0.45143
 30 
0.0
 0 
VERTEX
 8 
1
 10 
0.49181
 20 
0.4522
 30 
0.0
 0 
VERTEX
 8 
1
 10 
0.47169
 20 
0.45308
 30 
0.0
 0 
VERTEX
 8 
1
 10 
0.45157
 20 
0.45405
 30 
0.0
 0 
VERTEX
 8 
1
 10 
0.43142
 20 
0.45512
 30 
0.0
 0 
VERTEX
 8 
1
 10 
0.41127
 20 
0.45628
 30 
0.0
 0 
VERTEX
 8 
1
 10 
0.39112
 20 
0.45752
 30 
0.0
 0 
VERTEX
 8 
1
 10 
0.37098
 20 
0.45884
 30 
0.0
 0 
VERTEX
 8 
1
 10 
0.35085
 20 
0.46024
 30 
0.0
 0 
VERTEX
 8 
1
 10 
0.33074
 20 
0.46174
 30 
0.0
 0 
VERTEX
 8 
1
 10 
0.31065
 20 
0.46332
 30 
0.0
 0 
VERTEX
 8 
1
 10 
0.29058
 20 
0.465
 30 
0.0
 0 
VERTEX
 8 
1
 10 
0.27053
 20 
0.46678
 30 
0.0
 0 
VERTEX
 8 
1
 10 
0.25048
 20 
0.46866
 30 
0.0
 0 
VERTEX
 8 
1
 10 
0.23043
 20 
0.47065
 30 
0.0
 0 
VERTEX
 8 
1
 10 
0.21038
 20 
0.47272
 30 
0.0
 0 
VERTEX
 8 
1
 10 
0.19033
 20 
0.47489
 30 
0.0
 0 
VERTEX
 8 
1
 10 
0.17028
 20 
0.47714
 30 
0.0
 0 
VERTEX
 8 
1
 10 
0.15025
 20 
0.47949
 30 
0.0
 0 
VERTEX
 8 
1
 10 
0.13024
 20 
0.48192
 30 
0.0
 0 
VERTEX
 8 
1
 10 
0.11027
 20 
0.48444
 30 
0.0
 0 
VERTEX
 8 
1
 10 
0.09032
 20 
0.48707
 30 
0.0
 0 
VERTEX
 8 
1
 10 
0.07039
 20 
0.48979
 30 
0.0
 0 
VERTEX
 8 
1
 10 
0.05059
 20 
0.4926
 30 
0.0
 0 
VERTEX
 8 
1
 10 
0.03154
 20 
0.49536
 30 
0.0
 0 
VERTEX
 8 
1
 10 
0.01536
 20 
0.49774
 30 
0.0
 0 
VERTEX
 8 
1
 10 
0.0040299
 20 
0.49941
 30 
0.0
 0 
VERTEX
 8 
1
 10 
0.0
 20 
0.5
 30 
0.0
 0 
SEQEND
 8 
1
 0 
ENDSEC
 0 
EOF
