 0 
SECTION
 2 
ENTITIES
 0 
POLYLINE
 8 
1
 66 
 1 
 10 
0.0
 20 
0.0
 30 
0.0
 0 
VERTEX
 8 
1
 10 
0.0
 20 
0.50022
 30 
0.0
 0 
VERTEX
 8 
1
 10 
0.05
 20 
0.51791
 30 
0.0
 0 
VERTEX
 8 
1
 10 
0.1
 20 
0.53297
 30 
0.0
 0 
VERTEX
 8 
1
 10 
0.2
 20 
0.55836
 30 
0.0
 0 
VERTEX
 8 
1
 10 
0.3
 20 
0.5792
 30 
0.0
 0 
VERTEX
 8 
1
 10 
0.4
 20 
0.59436
 30 
0.0
 0 
VERTEX
 8 
1
 10 
0.5
 20 
0.60707
 30 
0.0
 0 
VERTEX
 8 
1
 10 
0.6
 20 
0.61437
 30 
0.0
 0 
VERTEX
 8 
1
 10 
0.7
 20 
0.61676
 30 
0.0
 0 
VERTEX
 8 
1
 10 
0.8
 20 
0.60961
 30 
0.0
 0 
VERTEX
 8 
1
 10 
0.85
 20 
0.5994
 30 
0.0
 0 
VERTEX
 8 
1
 10 
0.9
 20 
0.58463
 30 
0.0
 0 
VERTEX
 8 
1
 10 
0.925
 20 
0.57327
 30 
0.0
 0 
VERTEX
 8 
1
 10 
0.95
 20 
0.55858
 30 
0.0
 0 
VERTEX
 8 
1
 10 
0.975
 20 
0.53724
 30 
0.0
 0 
VERTEX
 8 
1
 10 
0.9875
 20 
0.52371
 30 
0.0
 0 
VERTEX
 8 
1
 10 
1
 20 
0.50083
 30 
0.0
 0 
VERTEX
 8 
1
 10 
0.9875
 20 
0.4841
 30 
0.0
 0 
VERTEX
 8 
1
 10 
0.975
 20 
0.48154
 30 
0.0
 0 
VERTEX
 8 
1
 10 
0.95
 20 
0.47804
 30 
0.0
 0 
VERTEX
 8 
1
 10 
0.925
 20 
0.47604
 30 
0.0
 0 
VERTEX
 8 
1
 10 
0.9
 20 
0.47444
 30 
0.0
 0 
VERTEX
 8 
1
 10 
0.85
 20 
0.47456
 30 
0.0
 0 
VERTEX
 8 
1
 10 
0.8
 20 
0.47709
 30 
0.0
 0 
VERTEX
 8 
1
 10 
0.7
 20 
0.48388
 30 
0.0
 0 
VERTEX
 8 
1
 10 
0.6
 20 
0.48761
 30 
0.0
 0 
VERTEX
 8 
1
 10 
0.5
 20 
0.48523
 30 
0.0
 0 
VERTEX
 8 
1
 10 
0.4
 20 
0.48248
 30 
0.0
 0 
VERTEX
 8 
1
 10 
0.3
 20 
0.48269
 30 
0.0
 0 
VERTEX
 8 
1
 10 
0.2
 20 
0.48526
 30 
0.0
 0 
VERTEX
 8 
1
 10 
0.1
 20 
0.48999
 30 
0.0
 0 
VERTEX
 8 
1
 10 
0.05
 20 
0.49427
 30 
0.0
 0 
VERTEX
 8 
1
 10 
0.0
 20 
0.49998
 30 
0.0
 0 
SEQEND
 8 
1
 0 
ENDSEC
 0 
EOF
