 0 
SECTION
 2 
ENTITIES
 0 
POLYLINE
 8 
1
 66 
 1 
 10 
0.0
 20 
0.0
 30 
0.0
 0 
VERTEX
 8 
1
 10 
0.0
 20 
0.5
 30 
0.0
 0 
VERTEX
 8 
1
 10 
0.05017
 20 
0.51751
 30 
0.0
 0 
VERTEX
 8 
1
 10 
0.10028
 20 
0.52902
 30 
0.0
 0 
VERTEX
 8 
1
 10 
0.20048
 20 
0.54904
 30 
0.0
 0 
VERTEX
 8 
1
 10 
0.30066
 20 
0.56755
 30 
0.0
 0 
VERTEX
 8 
1
 10 
0.4008
 20 
0.58157
 30 
0.0
 0 
VERTEX
 8 
1
 10 
0.50091
 20 
0.59259
 30 
0.0
 0 
VERTEX
 8 
1
 10 
0.60094
 20 
0.59601
 30 
0.0
 0 
VERTEX
 8 
1
 10 
0.70094
 20 
0.59543
 30 
0.0
 0 
VERTEX
 8 
1
 10 
0.80083
 20 
0.58445
 30 
0.0
 0 
VERTEX
 8 
1
 10 
0.85073
 20 
0.57436
 30 
0.0
 0 
VERTEX
 8 
1
 10 
0.90059
 20 
0.56047
 30 
0.0
 0 
VERTEX
 8 
1
 10 
0.9255
 20 
0.55143
 30 
0.0
 0 
VERTEX
 8 
1
 10 
0.9504
 20 
0.54049
 30 
0.0
 0 
VERTEX
 8 
1
 10 
0.97526
 20 
0.52634
 30 
0.0
 0 
VERTEX
 8 
1
 10 
0.98767
 20 
0.51732
 30 
0.0
 0 
VERTEX
 8 
1
 10 
1
 20 
0.5
 30 
0.0
 0 
VERTEX
 8 
1
 10 
0.98733
 20 
0.48282
 30 
0.0
 0 
VERTEX
 8 
1
 10 
0.97477
 20 
0.47665
 30 
0.0
 0 
VERTEX
 8 
1
 10 
0.9497
 20 
0.46939
 30 
0.0
 0 
VERTEX
 8 
1
 10 
0.92465
 20 
0.46444
 30 
0.0
 0 
VERTEX
 8 
1
 10 
0.89961
 20 
0.46058
 30 
0.0
 0 
VERTEX
 8 
1
 10 
0.84959
 20 
0.45837
 30 
0.0
 0 
VERTEX
 8 
1
 10 
0.79959
 20 
0.45836
 30 
0.0
 0 
VERTEX
 8 
1
 10 
0.69965
 20 
0.46384
 30 
0.0
 0 
VERTEX
 8 
1
 10 
0.59976
 20 
0.47502
 30 
0.0
 0 
VERTEX
 8 
1
 10 
0.49983
 20 
0.4825
 30 
0.0
 0 
VERTEX
 8 
1
 10 
0.39986
 20 
0.48558
 30 
0.0
 0 
VERTEX
 8 
1
 10 
0.29988
 20 
0.48816
 30 
0.0
 0 
VERTEX
 8 
1
 10 
0.19991
 20 
0.49054
 30 
0.0
 0 
VERTEX
 8 
1
 10 
0.09992
 20 
0.49152
 30 
0.0
 0 
VERTEX
 8 
1
 10 
0.049950
 20 
0.49451
 30 
0.0
 0 
VERTEX
 8 
1
 10 
0.0
 20 
0.5
 30 
0.0
 0 
SEQEND
 8 
1
 0 
ENDSEC
 0 
EOF
