 0 
SECTION
 2 
ENTITIES
 0 
POLYLINE
 8 
1
 66 
 1 
 10 
0.0
 20 
0.0
 30 
0.0
 0 
VERTEX
 8 
1
 10 
0.0
 20 
0.5
 30 
0.0
 0 
VERTEX
 8 
1
 10 
0.05038
 20 
0.5211
 30 
0.0
 0 
VERTEX
 8 
1
 10 
0.10082
 20 
0.54519
 30 
0.0
 0 
VERTEX
 8 
1
 10 
0.20151
 20 
0.58337
 30 
0.0
 0 
VERTEX
 8 
1
 10 
0.30205
 20 
0.61257
 30 
0.0
 0 
VERTEX
 8 
1
 10 
0.40244
 20 
0.63377
 30 
0.0
 0 
VERTEX
 8 
1
 10 
0.50272
 20 
0.64896
 30 
0.0
 0 
VERTEX
 8 
1
 10 
0.60286
 20 
0.65616
 30 
0.0
 0 
VERTEX
 8 
1
 10 
0.70283
 20 
0.65436
 30 
0.0
 0 
VERTEX
 8 
1
 10 
0.80258
 20 
0.63956
 30 
0.0
 0 
VERTEX
 8 
1
 10 
0.85233
 20 
0.62567
 30 
0.0
 0 
VERTEX
 8 
1
 10 
0.90198
 20 
0.60577
 30 
0.0
 0 
VERTEX
 8 
1
 10 
0.92673
 20 
0.59232
 30 
0.0
 0 
VERTEX
 8 
1
 10 
0.95144
 20 
0.57588
 30 
0.0
 0 
VERTEX
 8 
1
 10 
0.976
 20 
0.55144
 30 
0.0
 0 
VERTEX
 8 
1
 10 
0.98819
 20 
0.53422
 30 
0.0
 0 
VERTEX
 8 
1
 10 
1
 20 
0.5
 30 
0.0
 0 
VERTEX
 8 
1
 10 
0.98731
 20 
0.48523
 30 
0.0
 0 
VERTEX
 8 
1
 10 
0.97478
 20 
0.48345
 30 
0.0
 0 
VERTEX
 8 
1
 10 
0.94975
 20 
0.4819
 30 
0.0
 0 
VERTEX
 8 
1
 10 
0.92473
 20 
0.48135
 30 
0.0
 0 
VERTEX
 8 
1
 10 
0.89975
 20 
0.4818
 30 
0.0
 0 
VERTEX
 8 
1
 10 
0.84987
 20 
0.4856
 30 
0.0
 0 
VERTEX
 8 
1
 10 
0.79941
 20 
0.49146
 30 
0.0
 0 
VERTEX
 8 
1
 10 
0.70008
 20 
0.51228
 30 
0.0
 0 
VERTEX
 8 
1
 10 
0.60061
 20 
0.53119
 30 
0.0
 0 
VERTEX
 8 
1
 10 
0.50058
 20 
0.52999
 30 
0.0
 0 
VERTEX
 8 
1
 10 
0.40048
 20 
0.5248
 30 
0.0
 0 
VERTEX
 8 
1
 10 
0.30034
 20 
0.5176
 30 
0.0
 0 
VERTEX
 8 
1
 10 
0.20018
 20 
0.5094
 30 
0.0
 0 
VERTEX
 8 
1
 10 
0.10005
 20 
0.5022
 30 
0.0
 0 
VERTEX
 8 
1
 10 
0.04999
 20 
0.4991
 30 
0.0
 0 
VERTEX
 8 
1
 10 
0.0
 20 
0.5
 30 
0.0
 0 
SEQEND
 8 
1
 0 
ENDSEC
 0 
EOF
