 0 
SECTION
 2 
ENTITIES
 0 
POLYLINE
 8 
1
 66 
 1 
 10 
0.0
 20 
0.0
 30 
0.0
 0 
VERTEX
 8 
1
 10 
0.0
 20 
0.50215
 30 
0.0
 0 
VERTEX
 8 
1
 10 
0.05081
 20 
0.51966
 30 
0.0
 0 
VERTEX
 8 
1
 10 
0.10152
 20 
0.53697
 30 
0.0
 0 
VERTEX
 8 
1
 10 
0.20281
 20 
0.5683
 30 
0.0
 0 
VERTEX
 8 
1
 10 
0.30397
 20 
0.59654
 30 
0.0
 0 
VERTEX
 8 
1
 10 
0.40495
 20 
0.62029
 30 
0.0
 0 
VERTEX
 8 
1
 10 
0.5057
 20 
0.63864
 30 
0.0
 0 
VERTEX
 8 
1
 10 
0.60623
 20 
0.6515
 30 
0.0
 0 
VERTEX
 8 
1
 10 
0.7063
 20 
0.65309
 30 
0.0
 0 
VERTEX
 8 
1
 10 
0.80584
 20 
0.64189
 30 
0.0
 0 
VERTEX
 8 
1
 10 
0.85529
 20 
0.62865
 30 
0.0
 0 
VERTEX
 8 
1
 10 
0.9045
 20 
0.60943
 30 
0.0
 0 
VERTEX
 8 
1
 10 
0.92893
 20 
0.59542
 30 
0.0
 0 
VERTEX
 8 
1
 10 
0.95316
 20 
0.57693
 30 
0.0
 0 
VERTEX
 8 
1
 10 
0.9772
 20 
0.55344
 30 
0.0
 0 
VERTEX
 8 
1
 10 
0.98907
 20 
0.53805
 30 
0.0
 0 
VERTEX
 8 
1
 10 
1
 20 
0.5
 30 
0.0
 0 
VERTEX
 8 
1
 10 
0.98641
 20 
0.47346
 30 
0.0
 0 
VERTEX
 8 
1
 10 
0.97366
 20 
0.46738
 30 
0.0
 0 
VERTEX
 8 
1
 10 
0.94848
 20 
0.46302
 30 
0.0
 0 
VERTEX
 8 
1
 10 
0.92344
 20 
0.46205
 30 
0.0
 0 
VERTEX
 8 
1
 10 
0.89843
 20 
0.46198
 30 
0.0
 0 
VERTEX
 8 
1
 10 
0.84847
 20 
0.46294
 30 
0.0
 0 
VERTEX
 8 
1
 10 
0.79859
 20 
0.46579
 30 
0.0
 0 
VERTEX
 8 
1
 10 
0.69883
 20 
0.47159
 30 
0.0
 0 
VERTEX
 8 
1
 10 
0.59908
 20 
0.4776
 30 
0.0
 0 
VERTEX
 8 
1
 10 
0.49933
 20 
0.4838
 30 
0.0
 0 
VERTEX
 8 
1
 10 
0.3995
 20 
0.48791
 30 
0.0
 0 
VERTEX
 8 
1
 10 
0.29967
 20 
0.49202
 30 
0.0
 0 
VERTEX
 8 
1
 10 
0.19982
 20 
0.49553
 30 
0.0
 0 
VERTEX
 8 
1
 10 
0.09987
 20 
0.49694
 30 
0.0
 0 
VERTEX
 8 
1
 10 
0.04991
 20 
0.4977
 30 
0.0
 0 
VERTEX
 8 
1
 10 
0.0
 20 
0.49785
 30 
0.0
 0 
SEQEND
 8 
1
 0 
ENDSEC
 0 
EOF
