 0 
SECTION
 2 
ENTITIES
 0 
POLYLINE
 8 
1
 66 
 1 
 10 
0.0
 20 
0.0
 30 
0.0
 0 
VERTEX
 8 
1
 10 
0.0
 20 
0.5
 30 
0.0
 0 
VERTEX
 8 
1
 10 
0.05017
 20 
0.51068
 30 
0.0
 0 
VERTEX
 8 
1
 10 
0.10035
 20 
0.52126
 30 
0.0
 0 
VERTEX
 8 
1
 10 
0.20068
 20 
0.54153
 30 
0.0
 0 
VERTEX
 8 
1
 10 
0.30099
 20 
0.56049
 30 
0.0
 0 
VERTEX
 8 
1
 10 
0.40127
 20 
0.57786
 30 
0.0
 0 
VERTEX
 8 
1
 10 
0.50152
 20 
0.59313
 30 
0.0
 0 
VERTEX
 8 
1
 10 
0.60172
 20 
0.60559
 30 
0.0
 0 
VERTEX
 8 
1
 10 
0.70186
 20 
0.61416
 30 
0.0
 0 
VERTEX
 8 
1
 10 
0.80182
 20 
0.61183
 30 
0.0
 0 
VERTEX
 8 
1
 10 
0.85168
 20 
0.60302
 30 
0.0
 0 
VERTEX
 8 
1
 10 
0.90142
 20 
0.58731
 30 
0.0
 0 
VERTEX
 8 
1
 10 
0.92624
 20 
0.5758
 30 
0.0
 0 
VERTEX
 8 
1
 10 
0.95097
 20 
0.5594
 30 
0.0
 0 
VERTEX
 8 
1
 10 
0.97561
 20 
0.5372
 30 
0.0
 0 
VERTEX
 8 
1
 10 
0.98789
 20 
0.5239
 30 
0.0
 0 
VERTEX
 8 
1
 10 
1
 20 
0.5
 30 
0.0
 0 
VERTEX
 8 
1
 10 
0.98728
 20 
0.48641
 30 
0.0
 0 
VERTEX
 8 
1
 10 
0.97471
 20 
0.48211
 30 
0.0
 0 
VERTEX
 8 
1
 10 
0.94963
 20 
0.47712
 30 
0.0
 0 
VERTEX
 8 
1
 10 
0.92458
 20 
0.47433
 30 
0.0
 0 
VERTEX
 8 
1
 10 
0.89955
 20 
0.47234
 30 
0.0
 0 
VERTEX
 8 
1
 10 
0.84951
 20 
0.46985
 30 
0.0
 0 
VERTEX
 8 
1
 10 
0.7995
 20 
0.46907
 30 
0.0
 0 
VERTEX
 8 
1
 10 
0.69949
 20 
0.4688
 30 
0.0
 0 
VERTEX
 8 
1
 10 
0.59951
 20 
0.47023
 30 
0.0
 0 
VERTEX
 8 
1
 10 
0.49955
 20 
0.47226
 30 
0.0
 0 
VERTEX
 8 
1
 10 
0.3996
 20 
0.47559
 30 
0.0
 0 
VERTEX
 8 
1
 10 
0.29968
 20 
0.48012
 30 
0.0
 0 
VERTEX
 8 
1
 10 
0.19977
 20 
0.48584
 30 
0.0
 0 
VERTEX
 8 
1
 10 
0.09984
 20 
0.49266
 30 
0.0
 0 
VERTEX
 8 
1
 10 
0.04994
 20 
0.49619
 30 
0.0
 0 
VERTEX
 8 
1
 10 
0.0
 20 
0.5
 30 
0.0
 0 
SEQEND
 8 
1
 0 
ENDSEC
 0 
EOF
