 0 
SECTION
 2 
ENTITIES
 0 
POLYLINE
 8 
1
 66 
 1 
 10 
0.0
 20 
0.0
 30 
0.0
 0 
VERTEX
 8 
1
 10 
0.0
 20 
0.5
 30 
0.0
 0 
VERTEX
 8 
1
 10 
0.05001
 20 
0.50693
 30 
0.0
 0 
VERTEX
 8 
1
 10 
0.10002
 20 
0.51256
 30 
0.0
 0 
VERTEX
 8 
1
 10 
0.20003
 20 
0.52342
 30 
0.0
 0 
VERTEX
 8 
1
 10 
0.30005
 20 
0.53328
 30 
0.0
 0 
VERTEX
 8 
1
 10 
0.40006
 20 
0.54144
 30 
0.0
 0 
VERTEX
 8 
1
 10 
0.50007
 20 
0.5477
 30 
0.0
 0 
VERTEX
 8 
1
 10 
0.60007
 20 
0.55216
 30 
0.0
 0 
VERTEX
 8 
1
 10 
0.70007
 20 
0.55242
 30 
0.0
 0 
VERTEX
 8 
1
 10 
0.80007
 20 
0.54928
 30 
0.0
 0 
VERTEX
 8 
1
 10 
0.85006
 20 
0.54481
 30 
0.0
 0 
VERTEX
 8 
1
 10 
0.90005
 20 
0.53704
 30 
0.0
 0 
VERTEX
 8 
1
 10 
0.92504
 20 
0.5321
 30 
0.0
 0 
VERTEX
 8 
1
 10 
0.95004
 20 
0.52537
 30 
0.0
 0 
VERTEX
 8 
1
 10 
0.97502
 20 
0.51703
 30 
0.0
 0 
VERTEX
 8 
1
 10 
0.98752
 20 
0.51102
 30 
0.0
 0 
VERTEX
 8 
1
 10 
1
 20 
0.5
 30 
0.0
 0 
VERTEX
 8 
1
 10 
0.98749
 20 
0.49002
 30 
0.0
 0 
VERTEX
 8 
1
 10 
0.97498
 20 
0.48604
 30 
0.0
 0 
VERTEX
 8 
1
 10 
0.94998
 20 
0.48237
 30 
0.0
 0 
VERTEX
 8 
1
 10 
0.92497
 20 
0.48071
 30 
0.0
 0 
VERTEX
 8 
1
 10 
0.89997
 20 
0.48014
 30 
0.0
 0 
VERTEX
 8 
1
 10 
0.84997
 20 
0.48181
 30 
0.0
 0 
VERTEX
 8 
1
 10 
0.79998
 20 
0.48388
 30 
0.0
 0 
VERTEX
 8 
1
 10 
0.69998
 20 
0.48742
 30 
0.0
 0 
VERTEX
 8 
1
 10 
0.59999
 20 
0.49116
 30 
0.0
 0 
VERTEX
 8 
1
 10 
0.49999
 20 
0.495
 30 
0.0
 0 
VERTEX
 8 
1
 10 
0.4
 20 
0.49884
 30 
0.0
 0 
VERTEX
 8 
1
 10 
0.3
 20 
0.50258
 30 
0.0
 0 
VERTEX
 8 
1
 10 
0.20001
 20 
0.50572
 30 
0.0
 0 
VERTEX
 8 
1
 10 
0.1
 20 
0.50356
 30 
0.0
 0 
VERTEX
 8 
1
 10 
0.05
 20 
0.50133
 30 
0.0
 0 
VERTEX
 8 
1
 10 
0.0
 20 
0.5
 30 
0.0
 0 
SEQEND
 8 
1
 0 
ENDSEC
 0 
EOF
