 0 
SECTION
 2 
ENTITIES
 0 
POLYLINE
 8 
1
 66 
 1 
 10 
0.0
 20 
0.0
 30 
0.0
 0 
VERTEX
 8 
1
 10 
0.0
 20 
0.5
 30 
0.0
 0 
VERTEX
 8 
1
 10 
0.05
 20 
0.50988
 30 
0.0
 0 
VERTEX
 8 
1
 10 
0.1
 20 
0.51957
 30 
0.0
 0 
VERTEX
 8 
1
 10 
0.2
 20 
0.53654
 30 
0.0
 0 
VERTEX
 8 
1
 10 
0.3
 20 
0.55051
 30 
0.0
 0 
VERTEX
 8 
1
 10 
0.4
 20 
0.56168
 30 
0.0
 0 
VERTEX
 8 
1
 10 
0.5
 20 
0.57045
 30 
0.0
 0 
VERTEX
 8 
1
 10 
0.6
 20 
0.57532
 30 
0.0
 0 
VERTEX
 8 
1
 10 
0.7
 20 
0.57719
 30 
0.0
 0 
VERTEX
 8 
1
 10 
0.8
 20 
0.57256
 30 
0.0
 0 
VERTEX
 8 
1
 10 
0.85
 20 
0.56504
 30 
0.0
 0 
VERTEX
 8 
1
 10 
0.9
 20 
0.55513
 30 
0.0
 0 
VERTEX
 8 
1
 10 
0.925
 20 
0.54697
 30 
0.0
 0 
VERTEX
 8 
1
 10 
0.95
 20 
0.53701
 30 
0.0
 0 
VERTEX
 8 
1
 10 
0.975
 20 
0.52316
 30 
0.0
 0 
VERTEX
 8 
1
 10 
0.9875
 20 
0.51373
 30 
0.0
 0 
VERTEX
 8 
1
 10 
1
 20 
0.5
 30 
0.0
 0 
VERTEX
 8 
1
 10 
0.9875
 20 
0.49443
 30 
0.0
 0 
VERTEX
 8 
1
 10 
0.975
 20 
0.49306
 30 
0.0
 0 
VERTEX
 8 
1
 10 
0.95
 20 
0.49312
 30 
0.0
 0 
VERTEX
 8 
1
 10 
0.925
 20 
0.49537
 30 
0.0
 0 
VERTEX
 8 
1
 10 
0.9
 20 
0.49893
 30 
0.0
 0 
VERTEX
 8 
1
 10 
0.85
 20 
0.50454
 30 
0.0
 0 
VERTEX
 8 
1
 10 
0.8
 20 
0.50906
 30 
0.0
 0 
VERTEX
 8 
1
 10 
0.7
 20 
0.51339
 30 
0.0
 0 
VERTEX
 8 
1
 10 
0.6
 20 
0.51532
 30 
0.0
 0 
VERTEX
 8 
1
 10 
0.5
 20 
0.51325
 30 
0.0
 0 
VERTEX
 8 
1
 10 
0.4
 20 
0.51028
 30 
0.0
 0 
VERTEX
 8 
1
 10 
0.3
 20 
0.50591
 30 
0.0
 0 
VERTEX
 8 
1
 10 
0.2
 20 
0.50224
 30 
0.0
 0 
VERTEX
 8 
1
 10 
0.1
 20 
0.49877
 30 
0.0
 0 
VERTEX
 8 
1
 10 
0.05
 20 
0.49688
 30 
0.0
 0 
VERTEX
 8 
1
 10 
0.0
 20 
0.5
 30 
0.0
 0 
SEQEND
 8 
1
 0 
ENDSEC
 0 
EOF
