 0 
SECTION
 2 
ENTITIES
 0 
POLYLINE
 8 
1
 66 
 1 
 10 
0.0
 20 
0.0
 30 
0.0
 0 
VERTEX
 8 
1
 10 
0.0
 20 
0.50055
 30 
0.0
 0 
VERTEX
 8 
1
 10 
0.04989
 20 
0.50648
 30 
0.0
 0 
VERTEX
 8 
1
 10 
0.09979
 20 
0.5119
 30 
0.0
 0 
VERTEX
 8 
1
 10 
0.19961
 20 
0.52215
 30 
0.0
 0 
VERTEX
 8 
1
 10 
0.29943
 20 
0.53214
 30 
0.0
 0 
VERTEX
 8 
1
 10 
0.39927
 20 
0.5412
 30 
0.0
 0 
VERTEX
 8 
1
 10 
0.49914
 20 
0.54866
 30 
0.0
 0 
VERTEX
 8 
1
 10 
0.59904
 20 
0.55436
 30 
0.0
 0 
VERTEX
 8 
1
 10 
0.64901
 20 
0.55613
 30 
0.0
 0 
VERTEX
 8 
1
 10 
0.69899
 20 
0.55728
 30 
0.0
 0 
VERTEX
 8 
1
 10 
0.74899
 20 
0.55746
 30 
0.0
 0 
VERTEX
 8 
1
 10 
0.799
 20 
0.5565
 30 
0.0
 0 
VERTEX
 8 
1
 10 
0.84905
 20 
0.55368
 30 
0.0
 0 
VERTEX
 8 
1
 10 
0.89914
 20 
0.54881
 30 
0.0
 0 
VERTEX
 8 
1
 10 
0.92422
 20 
0.54408
 30 
0.0
 0 
VERTEX
 8 
1
 10 
0.94934
 20 
0.53752
 30 
0.0
 0 
VERTEX
 8 
1
 10 
0.97452
 20 
0.5274
 30 
0.0
 0 
VERTEX
 8 
1
 10 
0.98716
 20 
0.5194
 30 
0.0
 0 
VERTEX
 8 
1
 10 
0.99479
 20 
0.51169
 30 
0.0
 0 
VERTEX
 8 
1
 10 
1
 20 
0.5
 30 
0.0
 0 
VERTEX
 8 
1
 10 
0.99518
 20 
0.48987
 30 
0.0
 0 
VERTEX
 8 
1
 10 
0.98776
 20 
0.4853
 30 
0.0
 0 
VERTEX
 8 
1
 10 
0.97533
 20 
0.48111
 30 
0.0
 0 
VERTEX
 8 
1
 10 
0.95041
 20 
0.47696
 30 
0.0
 0 
VERTEX
 8 
1
 10 
0.92544
 20 
0.47482
 30 
0.0
 0 
VERTEX
 8 
1
 10 
0.90047
 20 
0.47317
 30 
0.0
 0 
VERTEX
 8 
1
 10 
0.85051
 20 
0.47104
 30 
0.0
 0 
VERTEX
 8 
1
 10 
0.80054
 20 
0.46951
 30 
0.0
 0 
VERTEX
 8 
1
 10 
0.75056
 20 
0.46818
 30 
0.0
 0 
VERTEX
 8 
1
 10 
0.70058
 20 
0.4673
 30 
0.0
 0 
VERTEX
 8 
1
 10 
0.65059
 20 
0.46678
 30 
0.0
 0 
VERTEX
 8 
1
 10 
0.60059
 20 
0.46679
 30 
0.0
 0 
VERTEX
 8 
1
 10 
0.50055
 20 
0.46897
 30 
0.0
 0 
VERTEX
 8 
1
 10 
0.40048
 20 
0.47291
 30 
0.0
 0 
VERTEX
 8 
1
 10 
0.30038
 20 
0.47843
 30 
0.0
 0 
VERTEX
 8 
1
 10 
0.20027
 20 
0.4849
 30 
0.0
 0 
VERTEX
 8 
1
 10 
0.10015
 20 
0.49162
 30 
0.0
 0 
VERTEX
 8 
1
 10 
0.05008
 20 
0.49528
 30 
0.0
 0 
VERTEX
 8 
1
 10 
0.0
 20 
0.49945
 30 
0.0
 0 
SEQEND
 8 
1
 0 
ENDSEC
 0 
EOF
