 0 
SECTION
 2 
ENTITIES
 0 
POLYLINE
 8 
1
 66 
 1 
 10 
0.0
 20 
0.0
 30 
0.0
 0 
VERTEX
 8 
1
 10 
0.0
 20 
0.5
 30 
0.0
 0 
VERTEX
 8 
1
 10 
0.05
 20 
0.5109
 30 
0.0
 0 
VERTEX
 8 
1
 10 
0.1
 20 
0.5217
 30 
0.0
 0 
VERTEX
 8 
1
 10 
0.2
 20 
0.5416
 30 
0.0
 0 
VERTEX
 8 
1
 10 
0.3
 20 
0.5593
 30 
0.0
 0 
VERTEX
 8 
1
 10 
0.4
 20 
0.575
 30 
0.0
 0 
VERTEX
 8 
1
 10 
0.5
 20 
0.5885
 30 
0.0
 0 
VERTEX
 8 
1
 10 
0.6
 20 
0.5991
 30 
0.0
 0 
VERTEX
 8 
1
 10 
0.7
 20 
0.6062
 30 
0.0
 0 
VERTEX
 8 
1
 10 
0.75
 20 
0.6078
 30 
0.0
 0 
VERTEX
 8 
1
 10 
0.8
 20 
0.6071
 30 
0.0
 0 
VERTEX
 8 
1
 10 
0.85
 20 
0.6036
 30 
0.0
 0 
VERTEX
 8 
1
 10 
0.875
 20 
0.5998
 30 
0.0
 0 
VERTEX
 8 
1
 10 
0.9
 20 
0.5941
 30 
0.0
 0 
VERTEX
 8 
1
 10 
0.925
 20 
0.5861
 30 
0.0
 0 
VERTEX
 8 
1
 10 
0.95
 20 
0.5741
 30 
0.0
 0 
VERTEX
 8 
1
 10 
0.96
 20 
0.568
 30 
0.0
 0 
VERTEX
 8 
1
 10 
0.97
 20 
0.5608
 30 
0.0
 0 
VERTEX
 8 
1
 10 
0.98
 20 
0.5522
 30 
0.0
 0 
VERTEX
 8 
1
 10 
0.99
 20 
0.5412
 30 
0.0
 0 
VERTEX
 8 
1
 10 
1
 20 
0.5
 30 
0.0
 0 
VERTEX
 8 
1
 10 
0.99
 20 
0.4904
 30 
0.0
 0 
VERTEX
 8 
1
 10 
0.98
 20 
0.487
 30 
0.0
 0 
VERTEX
 8 
1
 10 
0.97
 20 
0.485
 30 
0.0
 0 
VERTEX
 8 
1
 10 
0.96
 20 
0.4834
 30 
0.0
 0 
VERTEX
 8 
1
 10 
0.95
 20 
0.4821
 30 
0.0
 0 
VERTEX
 8 
1
 10 
0.925
 20 
0.4798
 30 
0.0
 0 
VERTEX
 8 
1
 10 
0.9
 20 
0.477
 30 
0.0
 0 
VERTEX
 8 
1
 10 
0.875
 20 
0.4735
 30 
0.0
 0 
VERTEX
 8 
1
 10 
0.85
 20 
0.47
 30 
0.0
 0 
VERTEX
 8 
1
 10 
0.8
 20 
0.4635
 30 
0.0
 0 
VERTEX
 8 
1
 10 
0.75
 20 
0.4588
 30 
0.0
 0 
VERTEX
 8 
1
 10 
0.7
 20 
0.4559
 30 
0.0
 0 
VERTEX
 8 
1
 10 
0.6
 20 
0.454
 30 
0.0
 0 
VERTEX
 8 
1
 10 
0.5
 20 
0.456
 30 
0.0
 0 
VERTEX
 8 
1
 10 
0.4
 20 
0.4608
 30 
0.0
 0 
VERTEX
 8 
1
 10 
0.3
 20 
0.468
 30 
0.0
 0 
VERTEX
 8 
1
 10 
0.2
 20 
0.4767
 30 
0.0
 0 
VERTEX
 8 
1
 10 
0.1
 20 
0.487
 30 
0.0
 0 
VERTEX
 8 
1
 10 
0.05
 20 
0.4932
 30 
0.0
 0 
VERTEX
 8 
1
 10 
0.0
 20 
0.5
 30 
0.0
 0 
SEQEND
 8 
1
 0 
ENDSEC
 0 
EOF
