 0 
SECTION
 2 
ENTITIES
 0 
POLYLINE
 8 
1
 66 
 1 
 10 
0.0
 20 
0.0
 30 
0.0
 0 
VERTEX
 8 
1
 10 
0.0
 20 
0.50134
 30 
0.0
 0 
VERTEX
 8 
1
 10 
0.005
 20 
0.50155
 30 
0.0
 0 
VERTEX
 8 
1
 10 
0.01
 20 
0.50194
 30 
0.0
 0 
VERTEX
 8 
1
 10 
0.02
 20 
0.50298
 30 
0.0
 0 
VERTEX
 8 
1
 10 
0.03
 20 
0.50379
 30 
0.0
 0 
VERTEX
 8 
1
 10 
0.045
 20 
0.50552
 30 
0.0
 0 
VERTEX
 8 
1
 10 
0.064999
 20 
0.50835
 30 
0.0
 0 
VERTEX
 8 
1
 10 
0.09
 20 
0.51218
 30 
0.0
 0 
VERTEX
 8 
1
 10 
0.12
 20 
0.51678
 30 
0.0
 0 
VERTEX
 8 
1
 10 
0.155
 20 
0.5222
 30 
0.0
 0 
VERTEX
 8 
1
 10 
0.19
 20 
0.52752
 30 
0.0
 0 
VERTEX
 8 
1
 10 
0.23
 20 
0.53319
 30 
0.0
 0 
VERTEX
 8 
1
 10 
0.27
 20 
0.53875
 30 
0.0
 0 
VERTEX
 8 
1
 10 
0.31
 20 
0.54412
 30 
0.0
 0 
VERTEX
 8 
1
 10 
0.35
 20 
0.54898
 30 
0.0
 0 
VERTEX
 8 
1
 10 
0.4
 20 
0.55427
 30 
0.0
 0 
VERTEX
 8 
1
 10 
0.45
 20 
0.55846
 30 
0.0
 0 
VERTEX
 8 
1
 10 
0.5
 20 
0.56181
 30 
0.0
 0 
VERTEX
 8 
1
 10 
0.55
 20 
0.56418
 30 
0.0
 0 
VERTEX
 8 
1
 10 
0.6
 20 
0.56602
 30 
0.0
 0 
VERTEX
 8 
1
 10 
0.65
 20 
0.56696
 30 
0.0
 0 
VERTEX
 8 
1
 10 
0.7
 20 
0.56718
 30 
0.0
 0 
VERTEX
 8 
1
 10 
0.75
 20 
0.56673
 30 
0.0
 0 
VERTEX
 8 
1
 10 
0.8
 20 
0.56548
 30 
0.0
 0 
VERTEX
 8 
1
 10 
0.85
 20 
0.56262
 30 
0.0
 0 
VERTEX
 8 
1
 10 
0.886
 20 
0.55868
 30 
0.0
 0 
VERTEX
 8 
1
 10 
0.912
 20 
0.55421
 30 
0.0
 0 
VERTEX
 8 
1
 10 
0.9315
 20 
0.54947
 30 
0.0
 0 
VERTEX
 8 
1
 10 
0.9465
 20 
0.54446
 30 
0.0
 0 
VERTEX
 8 
1
 10 
0.9584
 20 
0.53958
 30 
0.0
 0 
VERTEX
 8 
1
 10 
0.96795
 20 
0.53508
 30 
0.0
 0 
VERTEX
 8 
1
 10 
0.9755
 20 
0.53072
 30 
0.0
 0 
VERTEX
 8 
1
 10 
0.9814
 20 
0.52677
 30 
0.0
 0 
VERTEX
 8 
1
 10 
0.98585
 20 
0.52335
 30 
0.0
 0 
VERTEX
 8 
1
 10 
0.98895
 20 
0.52063
 30 
0.0
 0 
VERTEX
 8 
1
 10 
0.991
 20 
0.51862
 30 
0.0
 0 
VERTEX
 8 
1
 10 
0.993
 20 
0.51642
 30 
0.0
 0 
VERTEX
 8 
1
 10 
0.9948
 20 
0.51415
 30 
0.0
 0 
VERTEX
 8 
1
 10 
0.9966
 20 
0.51144
 30 
0.0
 0 
VERTEX
 8 
1
 10 
0.99805
 20 
0.50867
 30 
0.0
 0 
VERTEX
 8 
1
 10 
0.9992
 20 
0.50555
 30 
0.0
 0 
VERTEX
 8 
1
 10 
0.99988
 20 
0.50215
 30 
0.0
 0 
VERTEX
 8 
1
 10 
1
 20 
0.5
 30 
0.0
 0 
VERTEX
 8 
1
 10 
0.99945
 20 
0.49776
 30 
0.0
 0 
VERTEX
 8 
1
 10 
0.998
 20 
0.4958
 30 
0.0
 0 
VERTEX
 8 
1
 10 
0.996
 20 
0.49396
 30 
0.0
 0 
VERTEX
 8 
1
 10 
0.9938
 20 
0.49249
 30 
0.0
 0 
VERTEX
 8 
1
 10 
0.9914
 20 
0.49121
 30 
0.0
 0 
VERTEX
 8 
1
 10 
0.989
 20 
0.49021
 30 
0.0
 0 
VERTEX
 8 
1
 10 
0.98535
 20 
0.489
 30 
0.0
 0 
VERTEX
 8 
1
 10 
0.98045
 20 
0.48792
 30 
0.0
 0 
VERTEX
 8 
1
 10 
0.97385
 20 
0.48676
 30 
0.0
 0 
VERTEX
 8 
1
 10 
0.9657
 20 
0.48564
 30 
0.0
 0 
VERTEX
 8 
1
 10 
0.95551
 20 
0.48443
 30 
0.0
 0 
VERTEX
 8 
1
 10 
0.9431
 20 
0.48309
 30 
0.0
 0 
VERTEX
 8 
1
 10 
0.92755
 20 
0.48166
 30 
0.0
 0 
VERTEX
 8 
1
 10 
0.9076
 20 
0.48023
 30 
0.0
 0 
VERTEX
 8 
1
 10 
0.8815
 20 
0.47867
 30 
0.0
 0 
VERTEX
 8 
1
 10 
0.85
 20 
0.47714
 30 
0.0
 0 
VERTEX
 8 
1
 10 
0.8
 20 
0.47531
 30 
0.0
 0 
VERTEX
 8 
1
 10 
0.75
 20 
0.47397
 30 
0.0
 0 
VERTEX
 8 
1
 10 
0.7
 20 
0.47307
 30 
0.0
 0 
VERTEX
 8 
1
 10 
0.65
 20 
0.47245
 30 
0.0
 0 
VERTEX
 8 
1
 10 
0.6
 20 
0.47218
 30 
0.0
 0 
VERTEX
 8 
1
 10 
0.55
 20 
0.47227
 30 
0.0
 0 
VERTEX
 8 
1
 10 
0.5
 20 
0.47258
 30 
0.0
 0 
VERTEX
 8 
1
 10 
0.45
 20 
0.47316
 30 
0.0
 0 
VERTEX
 8 
1
 10 
0.4
 20 
0.474
 30 
0.0
 0 
VERTEX
 8 
1
 10 
0.35
 20 
0.47518
 30 
0.0
 0 
VERTEX
 8 
1
 10 
0.31
 20 
0.47636
 30 
0.0
 0 
VERTEX
 8 
1
 10 
0.27
 20 
0.47779
 30 
0.0
 0 
VERTEX
 8 
1
 10 
0.23
 20 
0.47951
 30 
0.0
 0 
VERTEX
 8 
1
 10 
0.19
 20 
0.48147
 30 
0.0
 0 
VERTEX
 8 
1
 10 
0.155
 20 
0.48343
 30 
0.0
 0 
VERTEX
 8 
1
 10 
0.12
 20 
0.48564
 30 
0.0
 0 
VERTEX
 8 
1
 10 
0.09
 20 
0.48809
 30 
0.0
 0 
VERTEX
 8 
1
 10 
0.064999
 20 
0.49031
 30 
0.0
 0 
VERTEX
 8 
1
 10 
0.045
 20 
0.49215
 30 
0.0
 0 
VERTEX
 8 
1
 10 
0.03
 20 
0.49393
 30 
0.0
 0 
VERTEX
 8 
1
 10 
0.02
 20 
0.49533
 30 
0.0
 0 
VERTEX
 8 
1
 10 
0.01
 20 
0.49681
 30 
0.0
 0 
VERTEX
 8 
1
 10 
0.005
 20 
0.49773
 30 
0.0
 0 
VERTEX
 8 
1
 10 
0.0
 20 
0.49866
 30 
0.0
 0 
SEQEND
 8 
1
 0 
ENDSEC
 0 
EOF
