 0 
SECTION
 2 
ENTITIES
 0 
POLYLINE
 8 
1
 66 
 1 
 10 
0.0
 20 
0.0
 30 
0.0
 0 
VERTEX
 8 
1
 10 
0.0
 20 
0.5
 30 
0.0
 0 
VERTEX
 8 
1
 10 
0.05
 20 
0.512
 30 
0.0
 0 
VERTEX
 8 
1
 10 
0.1
 20 
0.5231
 30 
0.0
 0 
VERTEX
 8 
1
 10 
0.15
 20 
0.53425
 30 
0.0
 0 
VERTEX
 8 
1
 10 
0.2
 20 
0.545
 30 
0.0
 0 
VERTEX
 8 
1
 10 
0.25
 20 
0.5551
 30 
0.0
 0 
VERTEX
 8 
1
 10 
0.3
 20 
0.56465
 30 
0.0
 0 
VERTEX
 8 
1
 10 
0.35
 20 
0.5736
 30 
0.0
 0 
VERTEX
 8 
1
 10 
0.4
 20 
0.58175
 30 
0.0
 0 
VERTEX
 8 
1
 10 
0.45
 20 
0.58875
 30 
0.0
 0 
VERTEX
 8 
1
 10 
0.5
 20 
0.59425
 30 
0.0
 0 
VERTEX
 8 
1
 10 
0.55
 20 
0.5979
 30 
0.0
 0 
VERTEX
 8 
1
 10 
0.6
 20 
0.59975
 30 
0.0
 0 
VERTEX
 8 
1
 10 
0.65
 20 
0.6
 30 
0.0
 0 
VERTEX
 8 
1
 10 
0.7
 20 
0.599
 30 
0.0
 0 
VERTEX
 8 
1
 10 
0.725
 20 
0.598
 30 
0.0
 0 
VERTEX
 8 
1
 10 
0.75
 20 
0.5966
 30 
0.0
 0 
VERTEX
 8 
1
 10 
0.775
 20 
0.5947
 30 
0.0
 0 
VERTEX
 8 
1
 10 
0.8
 20 
0.592
 30 
0.0
 0 
VERTEX
 8 
1
 10 
0.825
 20 
0.58825
 30 
0.0
 0 
VERTEX
 8 
1
 10 
0.85
 20 
0.58325
 30 
0.0
 0 
VERTEX
 8 
1
 10 
0.875
 20 
0.577
 30 
0.0
 0 
VERTEX
 8 
1
 10 
0.9
 20 
0.56915
 30 
0.0
 0 
VERTEX
 8 
1
 10 
0.925
 20 
0.559
 30 
0.0
 0 
VERTEX
 8 
1
 10 
0.95
 20 
0.5465
 30 
0.0
 0 
VERTEX
 8 
1
 10 
0.975
 20 
0.53
 30 
0.0
 0 
VERTEX
 8 
1
 10 
0.9875
 20 
0.51875
 30 
0.0
 0 
VERTEX
 8 
1
 10 
1
 20 
0.5
 30 
0.0
 0 
VERTEX
 8 
1
 10 
0.9875
 20 
0.488
 30 
0.0
 0 
VERTEX
 8 
1
 10 
0.975
 20 
0.482
 30 
0.0
 0 
VERTEX
 8 
1
 10 
0.95
 20 
0.4733
 30 
0.0
 0 
VERTEX
 8 
1
 10 
0.925
 20 
0.46725
 30 
0.0
 0 
VERTEX
 8 
1
 10 
0.9
 20 
0.46315
 30 
0.0
 0 
VERTEX
 8 
1
 10 
0.875
 20 
0.4607
 30 
0.0
 0 
VERTEX
 8 
1
 10 
0.85
 20 
0.4595
 30 
0.0
 0 
VERTEX
 8 
1
 10 
0.825
 20 
0.45915
 30 
0.0
 0 
VERTEX
 8 
1
 10 
0.8
 20 
0.4594
 30 
0.0
 0 
VERTEX
 8 
1
 10 
0.775
 20 
0.46005
 30 
0.0
 0 
VERTEX
 8 
1
 10 
0.75
 20 
0.4611
 30 
0.0
 0 
VERTEX
 8 
1
 10 
0.725
 20 
0.4625
 30 
0.0
 0 
VERTEX
 8 
1
 10 
0.7
 20 
0.46425
 30 
0.0
 0 
VERTEX
 8 
1
 10 
0.65
 20 
0.46815
 30 
0.0
 0 
VERTEX
 8 
1
 10 
0.6
 20 
0.47225
 30 
0.0
 0 
VERTEX
 8 
1
 10 
0.55
 20 
0.4765
 30 
0.0
 0 
VERTEX
 8 
1
 10 
0.5
 20 
0.48075
 30 
0.0
 0 
VERTEX
 8 
1
 10 
0.45
 20 
0.48468
 30 
0.0
 0 
VERTEX
 8 
1
 10 
0.4
 20 
0.488
 30 
0.0
 0 
VERTEX
 8 
1
 10 
0.35
 20 
0.4906
 30 
0.0
 0 
VERTEX
 8 
1
 10 
0.3
 20 
0.4925
 30 
0.0
 0 
VERTEX
 8 
1
 10 
0.25
 20 
0.494
 30 
0.0
 0 
VERTEX
 8 
1
 10 
0.2
 20 
0.495
 30 
0.0
 0 
VERTEX
 8 
1
 10 
0.15
 20 
0.496
 30 
0.0
 0 
VERTEX
 8 
1
 10 
0.1
 20 
0.49675
 30 
0.0
 0 
VERTEX
 8 
1
 10 
0.05
 20 
0.4975
 30 
0.0
 0 
VERTEX
 8 
1
 10 
0.0
 20 
0.5
 30 
0.0
 0 
SEQEND
 8 
1
 0 
ENDSEC
 0 
EOF
