 0 
SECTION
 2 
ENTITIES
 0 
POLYLINE
 8 
1
 66 
 1 
 10 
0.0
 20 
0.0
 30 
0.0
 0 
VERTEX
 8 
1
 10 
0.0
 20 
0.4992
 30 
0.0
 0 
VERTEX
 8 
1
 10 
0.025
 20 
0.5074
 30 
0.0
 0 
VERTEX
 8 
1
 10 
0.05
 20 
0.5144
 30 
0.0
 0 
VERTEX
 8 
1
 10 
0.075
 20 
0.5204
 30 
0.0
 0 
VERTEX
 8 
1
 10 
0.1
 20 
0.5255
 30 
0.0
 0 
VERTEX
 8 
1
 10 
0.125
 20 
0.53
 30 
0.0
 0 
VERTEX
 8 
1
 10 
0.15
 20 
0.5337
 30 
0.0
 0 
VERTEX
 8 
1
 10 
0.175
 20 
0.537
 30 
0.0
 0 
VERTEX
 8 
1
 10 
0.2
 20 
0.5398
 30 
0.0
 0 
VERTEX
 8 
1
 10 
0.225
 20 
0.5422
 30 
0.0
 0 
VERTEX
 8 
1
 10 
0.25
 20 
0.5442
 30 
0.0
 0 
VERTEX
 8 
1
 10 
0.275
 20 
0.546
 30 
0.0
 0 
VERTEX
 8 
1
 10 
0.3
 20 
0.5476
 30 
0.0
 0 
VERTEX
 8 
1
 10 
0.325
 20 
0.5489
 30 
0.0
 0 
VERTEX
 8 
1
 10 
0.35
 20 
0.5501
 30 
0.0
 0 
VERTEX
 8 
1
 10 
0.375
 20 
0.5511
 30 
0.0
 0 
VERTEX
 8 
1
 10 
0.4
 20 
0.5519
 30 
0.0
 0 
VERTEX
 8 
1
 10 
0.425
 20 
0.5527
 30 
0.0
 0 
VERTEX
 8 
1
 10 
0.45
 20 
0.5533
 30 
0.0
 0 
VERTEX
 8 
1
 10 
0.5
 20 
0.5543
 30 
0.0
 0 
VERTEX
 8 
1
 10 
0.55
 20 
0.5548
 30 
0.0
 0 
VERTEX
 8 
1
 10 
0.6
 20 
0.555
 30 
0.0
 0 
VERTEX
 8 
1
 10 
0.65
 20 
0.5547
 30 
0.0
 0 
VERTEX
 8 
1
 10 
0.7
 20 
0.554
 30 
0.0
 0 
VERTEX
 8 
1
 10 
0.75
 20 
0.5528
 30 
0.0
 0 
VERTEX
 8 
1
 10 
0.8
 20 
0.5507
 30 
0.0
 0 
VERTEX
 8 
1
 10 
0.825
 20 
0.5493
 30 
0.0
 0 
VERTEX
 8 
1
 10 
0.85
 20 
0.5476
 30 
0.0
 0 
VERTEX
 8 
1
 10 
0.875
 20 
0.5455
 30 
0.0
 0 
VERTEX
 8 
1
 10 
0.9
 20 
0.5428
 30 
0.0
 0 
VERTEX
 8 
1
 10 
0.925
 20 
0.5394
 30 
0.0
 0 
VERTEX
 8 
1
 10 
0.95
 20 
0.5347
 30 
0.0
 0 
VERTEX
 8 
1
 10 
0.9625
 20 
0.5316
 30 
0.0
 0 
VERTEX
 8 
1
 10 
0.975
 20 
0.5276
 30 
0.0
 0 
VERTEX
 8 
1
 10 
0.9875
 20 
0.5215
 30 
0.0
 0 
VERTEX
 8 
1
 10 
0.9925
 20 
0.5176
 30 
0.0
 0 
VERTEX
 8 
1
 10 
1
 20 
0.5
 30 
0.0
 0 
VERTEX
 8 
1
 10 
0.9925
 20 
0.4824
 30 
0.0
 0 
VERTEX
 8 
1
 10 
0.9875
 20 
0.4784
 30 
0.0
 0 
VERTEX
 8 
1
 10 
0.975
 20 
0.4719
 30 
0.0
 0 
VERTEX
 8 
1
 10 
0.9625
 20 
0.4676
 30 
0.0
 0 
VERTEX
 8 
1
 10 
0.95
 20 
0.4642
 30 
0.0
 0 
VERTEX
 8 
1
 10 
0.925
 20 
0.4592
 30 
0.0
 0 
VERTEX
 8 
1
 10 
0.9
 20 
0.4556
 30 
0.0
 0 
VERTEX
 8 
1
 10 
0.875
 20 
0.4528
 30 
0.0
 0 
VERTEX
 8 
1
 10 
0.85
 20 
0.4507
 30 
0.0
 0 
VERTEX
 8 
1
 10 
0.825
 20 
0.449
 30 
0.0
 0 
VERTEX
 8 
1
 10 
0.8
 20 
0.4478
 30 
0.0
 0 
VERTEX
 8 
1
 10 
0.75
 20 
0.446
 30 
0.0
 0 
VERTEX
 8 
1
 10 
0.7
 20 
0.4452
 30 
0.0
 0 
VERTEX
 8 
1
 10 
0.65
 20 
0.4451
 30 
0.0
 0 
VERTEX
 8 
1
 10 
0.6
 20 
0.4459
 30 
0.0
 0 
VERTEX
 8 
1
 10 
0.55
 20 
0.4476
 30 
0.0
 0 
VERTEX
 8 
1
 10 
0.5
 20 
0.4503
 30 
0.0
 0 
VERTEX
 8 
1
 10 
0.45
 20 
0.4545
 30 
0.0
 0 
VERTEX
 8 
1
 10 
0.425
 20 
0.4574
 30 
0.0
 0 
VERTEX
 8 
1
 10 
0.4
 20 
0.4611
 30 
0.0
 0 
VERTEX
 8 
1
 10 
0.375
 20 
0.4658
 30 
0.0
 0 
VERTEX
 8 
1
 10 
0.35
 20 
0.4718
 30 
0.0
 0 
VERTEX
 8 
1
 10 
0.325
 20 
0.4785
 30 
0.0
 0 
VERTEX
 8 
1
 10 
0.3
 20 
0.4851
 30 
0.0
 0 
VERTEX
 8 
1
 10 
0.275
 20 
0.491
 30 
0.0
 0 
VERTEX
 8 
1
 10 
0.25
 20 
0.4964
 30 
0.0
 0 
VERTEX
 8 
1
 10 
0.225
 20 
0.5012
 30 
0.0
 0 
VERTEX
 8 
1
 10 
0.2
 20 
0.5053
 30 
0.0
 0 
VERTEX
 8 
1
 10 
0.175
 20 
0.5088
 30 
0.0
 0 
VERTEX
 8 
1
 10 
0.15
 20 
0.5114
 30 
0.0
 0 
VERTEX
 8 
1
 10 
0.125
 20 
0.5132
 30 
0.0
 0 
VERTEX
 8 
1
 10 
0.1
 20 
0.5138
 30 
0.0
 0 
VERTEX
 8 
1
 10 
0.075
 20 
0.5131
 30 
0.0
 0 
VERTEX
 8 
1
 10 
0.05
 20 
0.5106
 30 
0.0
 0 
VERTEX
 8 
1
 10 
0.025
 20 
0.506
 30 
0.0
 0 
VERTEX
 8 
1
 10 
0.0
 20 
0.4987
 30 
0.0
 0 
SEQEND
 8 
1
 0 
ENDSEC
 0 
EOF
