G75*
%MOIN*%
%OFA0B0*%
%FSLAX24Y24*%
%IPPOS*%
%LPD*%
%AMOC8*
5,1,8,0,0,1.08239X$1,22.5*
%
%ADD10R,0.9744X0.2559*%
%ADD11R,0.5118X0.2559*%
%ADD12R,0.4134X0.2559*%
%ADD13C,0.0397*%
%ADD14C,0.1575*%
%ADD15C,0.0591*%
%ADD16C,0.0118*%
%ADD17C,0.0600*%
%ADD18R,0.3150X0.2559*%
%ADD19R,0.0500X0.0250*%
%ADD20OC8,0.0520*%
%ADD21C,0.0160*%
%ADD22C,0.0396*%
%ADD23OC8,0.0396*%
%ADD24C,0.0357*%
D10*
X011690Y013596D03*
D11*
X009338Y010683D03*
D12*
X014515Y010683D03*
D13*
X015387Y011240D03*
X014924Y011387D03*
X014403Y011387D03*
X013881Y011387D03*
X013349Y011387D03*
X012887Y011240D03*
X012601Y010846D03*
X012601Y010354D03*
X012887Y009960D03*
X013349Y009813D03*
X013881Y009813D03*
X014403Y009813D03*
X014924Y009813D03*
X015387Y009960D03*
X015668Y010350D03*
X015668Y010850D03*
X016716Y010978D03*
X016912Y010387D03*
X017503Y010387D03*
X018094Y010387D03*
X018684Y010387D03*
X019275Y010387D03*
X019275Y009600D03*
X018684Y009600D03*
X018094Y009600D03*
X017503Y009600D03*
X016912Y009600D03*
X016716Y011569D03*
X017503Y011765D03*
X018094Y011765D03*
X018684Y011765D03*
X019275Y011765D03*
X019275Y012750D03*
X018684Y012750D03*
X018094Y012750D03*
X017503Y012750D03*
X016912Y012750D03*
X016912Y013537D03*
X017503Y013537D03*
X018094Y013537D03*
X018684Y013537D03*
X019275Y013537D03*
X019275Y014128D03*
X019275Y014718D03*
X018684Y014718D03*
X018094Y014718D03*
X018094Y014128D03*
X018684Y014128D03*
X017503Y014128D03*
X016912Y014128D03*
X016912Y014718D03*
X017503Y014718D03*
X011735Y010846D03*
X011450Y011240D03*
X010987Y011387D03*
X010466Y011387D03*
X009934Y011387D03*
X009412Y011387D03*
X008950Y011240D03*
X008668Y010850D03*
X008668Y010350D03*
X008950Y009960D03*
X009412Y009813D03*
X009934Y009813D03*
X010466Y009813D03*
X010987Y009813D03*
X011450Y009960D03*
X011735Y010354D03*
X006621Y010584D03*
X006227Y010978D03*
X005637Y010978D03*
X005046Y010978D03*
X004456Y010978D03*
X003865Y010978D03*
X003865Y011765D03*
X004456Y011765D03*
X005046Y011765D03*
X005637Y011765D03*
X006227Y011765D03*
X006424Y012750D03*
X005834Y012750D03*
X005243Y012750D03*
X004653Y012750D03*
X004062Y012750D03*
X004062Y013340D03*
X004653Y013340D03*
X005243Y013340D03*
X005834Y013340D03*
X006424Y013340D03*
X006424Y013931D03*
X006424Y014521D03*
X005834Y014521D03*
X005243Y014521D03*
X005243Y013931D03*
X005834Y013931D03*
X004653Y013931D03*
X004653Y014521D03*
X004062Y014521D03*
X004062Y013931D03*
X006621Y009994D03*
X005834Y009600D03*
X005243Y009600D03*
X004653Y009600D03*
X004062Y009600D03*
D14*
X009412Y010600D02*
X010987Y010600D01*
X013349Y010600D02*
X014924Y010600D01*
D15*
X012920Y002175D03*
X012168Y002175D03*
X011416Y002175D03*
D16*
X011043Y009475D02*
X009418Y009475D01*
X009251Y009488D01*
X009087Y009525D01*
X008930Y009586D01*
X008785Y009670D01*
X008653Y009775D01*
X008539Y009899D01*
X008444Y010038D01*
X008371Y010189D01*
X008322Y010350D01*
X008296Y010516D01*
X008296Y010684D01*
X008322Y010850D01*
X008371Y011011D01*
X008444Y011163D01*
X008539Y011301D01*
X008653Y011425D01*
X008785Y011530D01*
X008930Y011614D01*
X009087Y011675D01*
X009251Y011712D01*
X009418Y011725D01*
X011043Y011725D01*
X011215Y011699D01*
X011380Y011647D01*
X011537Y011573D01*
X011680Y011476D01*
X011809Y011359D01*
X011918Y011225D01*
X011918Y009975D01*
X011810Y009839D01*
X011683Y009720D01*
X011539Y009623D01*
X011382Y009548D01*
X011216Y009499D01*
X011043Y009475D01*
X011372Y009545D02*
X009035Y009545D01*
X008799Y009662D02*
X011597Y009662D01*
X011746Y009779D02*
X008650Y009779D01*
X008542Y009895D02*
X011855Y009895D01*
X011918Y010012D02*
X008461Y010012D01*
X008400Y010129D02*
X011918Y010129D01*
X011918Y010245D02*
X008354Y010245D01*
X008320Y010362D02*
X011918Y010362D01*
X011918Y010478D02*
X008302Y010478D01*
X008296Y010595D02*
X011918Y010595D01*
X011918Y010712D02*
X008301Y010712D01*
X008318Y010828D02*
X011918Y010828D01*
X011918Y010945D02*
X008351Y010945D01*
X008395Y011061D02*
X011918Y011061D01*
X011918Y011178D02*
X008455Y011178D01*
X008534Y011295D02*
X011861Y011295D01*
X011751Y011411D02*
X008641Y011411D01*
X008782Y011528D02*
X011603Y011528D01*
X011386Y011644D02*
X009009Y011644D01*
X012418Y011225D02*
X012418Y009975D01*
X012528Y009841D01*
X012656Y009724D01*
X012800Y009627D01*
X012956Y009553D01*
X013122Y009501D01*
X013293Y009475D01*
X014918Y009475D01*
X015086Y009488D01*
X015250Y009525D01*
X015406Y009586D01*
X015552Y009670D01*
X015684Y009775D01*
X015798Y009899D01*
X015893Y010038D01*
X015966Y010189D01*
X016015Y010350D01*
X016040Y010516D01*
X016040Y010684D01*
X016015Y010850D01*
X015966Y011011D01*
X015893Y011163D01*
X015798Y011301D01*
X015684Y011425D01*
X015552Y011530D01*
X015406Y011614D01*
X015250Y011675D01*
X015086Y011712D01*
X014918Y011725D01*
X013293Y011725D01*
X013121Y011701D01*
X012954Y011652D01*
X012797Y011577D01*
X012654Y011480D01*
X012526Y011361D01*
X012418Y011225D01*
X012418Y011178D02*
X015882Y011178D01*
X015941Y011061D02*
X012418Y011061D01*
X012418Y010945D02*
X015986Y010945D01*
X016018Y010828D02*
X012418Y010828D01*
X012418Y010712D02*
X016036Y010712D01*
X016040Y010595D02*
X012418Y010595D01*
X012418Y010478D02*
X016034Y010478D01*
X016017Y010362D02*
X012418Y010362D01*
X012418Y010245D02*
X015983Y010245D01*
X015936Y010129D02*
X012418Y010129D01*
X012418Y010012D02*
X015875Y010012D01*
X015795Y009895D02*
X012484Y009895D01*
X012596Y009779D02*
X015687Y009779D01*
X015537Y009662D02*
X012749Y009662D01*
X012980Y009545D02*
X015302Y009545D01*
X015803Y011295D02*
X012473Y011295D01*
X012580Y011411D02*
X015696Y011411D01*
X015554Y011528D02*
X012725Y011528D01*
X012939Y011644D02*
X015328Y011644D01*
D17*
X017868Y005100D02*
X018468Y005100D01*
X018468Y004100D02*
X017868Y004100D01*
X017868Y003100D02*
X018468Y003100D01*
X018468Y002100D02*
X017868Y002100D01*
D18*
X018094Y010683D03*
X018094Y013635D03*
X005243Y013635D03*
X005243Y010683D03*
D19*
X018487Y011175D03*
X018881Y013340D03*
D20*
X007629Y012679D03*
X007629Y008679D03*
D21*
X004168Y008600D02*
X004168Y000600D01*
X019168Y000600D01*
X004168Y000600D01*
X004168Y008600D01*
X006969Y008600D01*
X006969Y008405D01*
X007356Y008019D01*
X007902Y008019D01*
X008004Y008120D01*
X011469Y008120D01*
X011688Y007901D01*
X011688Y006759D01*
X011575Y006872D01*
X011440Y007007D01*
X011264Y007080D01*
X005534Y007080D01*
X005507Y007107D01*
X005287Y007198D01*
X005049Y007198D01*
X004830Y007107D01*
X004661Y006939D01*
X004570Y006719D01*
X004570Y006481D01*
X004661Y006261D01*
X004830Y006093D01*
X005049Y006002D01*
X005287Y006002D01*
X005507Y006093D01*
X005534Y006120D01*
X010936Y006120D01*
X010936Y002678D01*
X010827Y002569D01*
X010721Y002313D01*
X010721Y002037D01*
X010827Y001781D01*
X011022Y001585D01*
X011278Y001480D01*
X011555Y001480D01*
X011792Y001578D01*
X012030Y001480D01*
X012110Y001480D01*
X012261Y001328D01*
X012396Y001193D01*
X012573Y001120D01*
X017764Y001120D01*
X017940Y001193D01*
X018147Y001400D01*
X018608Y001400D01*
X018865Y001507D01*
X019062Y001703D01*
X019168Y001961D01*
X019168Y002239D01*
X019062Y002497D01*
X018958Y002600D01*
X019062Y002703D01*
X019168Y002961D01*
X019168Y003239D01*
X019062Y003497D01*
X018958Y003600D01*
X019062Y003703D01*
X019168Y003961D01*
X019168Y004239D01*
X019062Y004497D01*
X018958Y004600D01*
X019062Y004703D01*
X019168Y004961D01*
X019168Y005239D01*
X019062Y005497D01*
X018865Y005693D01*
X018608Y005800D01*
X017729Y005800D01*
X017472Y005693D01*
X017275Y005497D01*
X017168Y005239D01*
X017168Y008600D01*
X016668Y008600D02*
X016668Y002080D01*
X017168Y002080D02*
X013616Y002080D01*
X013616Y002313D01*
X013510Y002569D01*
X013314Y002764D01*
X013059Y002870D01*
X012782Y002870D01*
X012648Y002815D01*
X012648Y008195D01*
X012575Y008372D01*
X012347Y008600D01*
X019168Y008600D01*
X019168Y000600D01*
X018668Y000600D02*
X018668Y001425D01*
X018958Y001600D02*
X019168Y001600D01*
X019168Y001100D02*
X004168Y001100D01*
X004168Y001600D02*
X011008Y001600D01*
X011168Y001525D02*
X011168Y000600D01*
X010668Y000600D02*
X010668Y006120D01*
X010936Y006100D02*
X005514Y006100D01*
X005668Y006120D02*
X005668Y000600D01*
X005168Y000600D02*
X005168Y006002D01*
X004822Y006100D02*
X004168Y006100D01*
X004668Y006254D02*
X004668Y000600D01*
X006168Y000600D02*
X006168Y006120D01*
X006668Y006120D02*
X006668Y000600D01*
X007168Y000600D02*
X007168Y006120D01*
X007668Y006120D02*
X007668Y000600D01*
X008168Y000600D02*
X008168Y006120D01*
X008668Y006120D02*
X008668Y000600D01*
X009168Y000600D02*
X009168Y006120D01*
X009668Y006120D02*
X009668Y000600D01*
X010168Y000600D02*
X010168Y006120D01*
X010936Y005600D02*
X004168Y005600D01*
X004168Y005100D02*
X010936Y005100D01*
X010936Y004600D02*
X004168Y004600D01*
X004168Y004100D02*
X010936Y004100D01*
X010936Y003600D02*
X004168Y003600D01*
X004168Y003100D02*
X010936Y003100D01*
X010858Y002600D02*
X004168Y002600D01*
X004168Y002100D02*
X010721Y002100D01*
X011416Y002175D02*
X011416Y006352D01*
X011168Y006600D01*
X005168Y006600D01*
X004570Y006600D02*
X004168Y006600D01*
X004668Y006946D02*
X004668Y008600D01*
X005168Y008600D02*
X005168Y007198D01*
X004822Y007100D02*
X004168Y007100D01*
X004168Y007600D02*
X011688Y007600D01*
X011668Y007921D02*
X011668Y006779D01*
X011688Y007100D02*
X005514Y007100D01*
X005668Y007080D02*
X005668Y008600D01*
X006168Y008600D02*
X006168Y007080D01*
X006668Y007080D02*
X006668Y008600D01*
X007168Y008206D02*
X007168Y007080D01*
X007668Y007080D02*
X007668Y008019D01*
X007984Y008100D02*
X011489Y008100D01*
X011168Y008120D02*
X011168Y007080D01*
X010668Y007080D02*
X010668Y008120D01*
X010168Y008120D02*
X010168Y007080D01*
X009668Y007080D02*
X009668Y008120D01*
X009168Y008120D02*
X009168Y007080D01*
X008668Y007080D02*
X008668Y008120D01*
X008168Y008120D02*
X008168Y007080D01*
X007274Y008100D02*
X004168Y008100D01*
X007629Y008679D02*
X007708Y008600D01*
X011668Y008600D01*
X012168Y008100D01*
X012168Y002175D01*
X012168Y002100D01*
X012668Y001600D01*
X017668Y001600D01*
X018168Y002100D01*
X018168Y001400D02*
X018168Y000600D01*
X017668Y000600D02*
X017668Y001120D01*
X017168Y001120D02*
X017168Y000600D01*
X016668Y000600D02*
X016668Y001120D01*
X016168Y001120D02*
X016168Y000600D01*
X015668Y000600D02*
X015668Y001120D01*
X015168Y001120D02*
X015168Y000600D01*
X014668Y000600D02*
X014668Y001120D01*
X014168Y001120D02*
X014168Y000600D01*
X013668Y000600D02*
X013668Y001120D01*
X013168Y001120D02*
X013168Y000600D01*
X012668Y000600D02*
X012668Y001120D01*
X012168Y001421D02*
X012168Y000600D01*
X011668Y000600D02*
X011668Y001527D01*
X012668Y002823D02*
X012668Y008600D01*
X013168Y008600D02*
X013168Y002825D01*
X013478Y002600D02*
X017378Y002600D01*
X017275Y002497D01*
X017168Y002239D01*
X017168Y002961D01*
X017275Y002703D01*
X017378Y002600D01*
X017168Y002961D02*
X017168Y003239D01*
X017168Y003961D01*
X017275Y003703D01*
X017378Y003600D01*
X012648Y003600D01*
X012648Y003100D02*
X017168Y003100D01*
X017168Y003239D02*
X017275Y003497D01*
X017378Y003600D01*
X017168Y003961D02*
X017168Y004239D01*
X017168Y004961D01*
X017275Y004703D01*
X017378Y004600D01*
X012648Y004600D01*
X012648Y004100D02*
X017168Y004100D01*
X017168Y004239D02*
X017275Y004497D01*
X017378Y004600D01*
X017168Y004961D02*
X017168Y005239D01*
X017168Y005100D02*
X012648Y005100D01*
X012648Y005600D02*
X017378Y005600D01*
X017668Y005775D02*
X017668Y008600D01*
X018168Y008600D02*
X018168Y005800D01*
X018668Y005775D02*
X018668Y008600D01*
X019168Y008100D02*
X012648Y008100D01*
X012648Y007600D02*
X019168Y007600D01*
X019168Y007100D02*
X012648Y007100D01*
X012648Y006600D02*
X019168Y006600D01*
X019168Y006100D02*
X012648Y006100D01*
X013668Y008600D02*
X013668Y002080D01*
X013616Y002100D02*
X017168Y002100D01*
X017168Y002080D02*
X017168Y002239D01*
X016168Y002080D02*
X016168Y008600D01*
X015668Y008600D02*
X015668Y002080D01*
X015168Y002080D02*
X015168Y008600D01*
X014668Y008600D02*
X014668Y002080D01*
X014168Y002080D02*
X014168Y008600D01*
X015668Y010850D02*
X018162Y010850D01*
X018487Y011175D01*
X017641Y013100D02*
X018881Y013340D01*
X017641Y013100D02*
X012168Y013100D01*
X018958Y005600D02*
X019168Y005600D01*
X019168Y005100D02*
X019168Y005100D01*
X019168Y004600D02*
X018958Y004600D01*
X019168Y004100D02*
X019168Y004100D01*
X019168Y003600D02*
X018958Y003600D01*
X019168Y003100D02*
X019168Y003100D01*
X019168Y002600D02*
X018958Y002600D01*
X019168Y002100D02*
X019168Y002100D01*
D22*
X005168Y006600D03*
D23*
X012168Y013100D03*
D24*
X011149Y013104D03*
X009968Y013104D03*
X008786Y013104D03*
X007605Y013301D03*
X007605Y014285D03*
X008786Y014285D03*
X009968Y014285D03*
X011149Y014285D03*
X012330Y014285D03*
X013511Y014285D03*
X014692Y014285D03*
X015873Y014285D03*
X015873Y013104D03*
X014692Y013104D03*
X013511Y013104D03*
M02*
