G75*
%MOIN*%
%OFA0B0*%
%FSLAX24Y24*%
%IPPOS*%
%LPD*%
%AMOC8*
5,1,8,0,0,1.08239X$1,22.5*
%
%ADD10C,0.0060*%
%ADD11C,0.0080*%
%ADD12C,0.0236*%
%ADD13C,0.0040*%
%ADD14C,0.0050*%
%ADD15R,0.0240X0.0340*%
%ADD16C,0.0070*%
%ADD17R,0.0427X0.0013*%
%ADD18R,0.0587X0.0013*%
%ADD19R,0.0721X0.0013*%
%ADD20R,0.0827X0.0013*%
%ADD21R,0.0908X0.0013*%
%ADD22R,0.1014X0.0013*%
%ADD23R,0.1094X0.0013*%
%ADD24R,0.1148X0.0013*%
%ADD25R,0.1228X0.0013*%
%ADD26R,0.1281X0.0013*%
%ADD27R,0.1335X0.0013*%
%ADD28R,0.1388X0.0013*%
%ADD29R,0.1441X0.0013*%
%ADD30R,0.1495X0.0013*%
%ADD31R,0.1548X0.0013*%
%ADD32R,0.1602X0.0013*%
%ADD33R,0.0721X0.0013*%
%ADD34R,0.0654X0.0013*%
%ADD35R,0.0654X0.0013*%
%ADD36R,0.0614X0.0013*%
%ADD37R,0.0614X0.0013*%
%ADD38R,0.0574X0.0013*%
%ADD39R,0.0547X0.0013*%
%ADD40R,0.0521X0.0013*%
%ADD41R,0.0494X0.0013*%
%ADD42R,0.0494X0.0013*%
%ADD43R,0.0467X0.0013*%
%ADD44R,0.0467X0.0013*%
%ADD45R,0.0454X0.0013*%
%ADD46R,0.0454X0.0013*%
%ADD47R,0.0440X0.0013*%
%ADD48R,0.0427X0.0013*%
%ADD49R,0.0414X0.0013*%
%ADD50R,0.0400X0.0013*%
%ADD51R,0.0400X0.0013*%
%ADD52R,0.0387X0.0013*%
%ADD53R,0.0387X0.0013*%
%ADD54R,0.0374X0.0013*%
%ADD55R,0.0374X0.0013*%
%ADD56R,0.0360X0.0013*%
%ADD57R,0.0360X0.0013*%
%ADD58R,0.0360X0.0013*%
%ADD59R,0.0360X0.0013*%
%ADD60R,0.0347X0.0013*%
%ADD61R,0.0347X0.0013*%
%ADD62R,0.0334X0.0013*%
%ADD63R,0.0334X0.0013*%
%ADD64R,0.0334X0.0013*%
%ADD65R,0.0334X0.0013*%
%ADD66R,0.0334X0.0013*%
%ADD67R,0.0320X0.0013*%
%ADD68R,0.0320X0.0013*%
%ADD69R,0.0307X0.0013*%
%ADD70R,0.0307X0.0013*%
%ADD71R,0.0307X0.0013*%
%ADD72R,0.0294X0.0013*%
%ADD73R,0.0294X0.0013*%
%ADD74R,0.0294X0.0013*%
%ADD75R,0.0280X0.0013*%
%ADD76R,0.0280X0.0013*%
%ADD77R,0.0280X0.0013*%
%ADD78R,0.0280X0.0013*%
%ADD79R,0.0280X0.0013*%
%ADD80R,0.0267X0.0013*%
%ADD81R,0.0267X0.0013*%
%ADD82R,0.0267X0.0013*%
%ADD83R,0.0267X0.0013*%
%ADD84R,0.0267X0.0013*%
%ADD85R,0.0267X0.0013*%
%ADD86R,0.0267X0.0013*%
%ADD87R,0.0254X0.0013*%
%ADD88R,0.0214X0.0013*%
%ADD89R,0.0320X0.0013*%
%ADD90R,0.0400X0.0013*%
%ADD91R,0.0254X0.0013*%
%ADD92R,0.0454X0.0013*%
%ADD93R,0.0254X0.0013*%
%ADD94R,0.0507X0.0013*%
%ADD95R,0.0240X0.0013*%
%ADD96R,0.0561X0.0013*%
%ADD97R,0.0240X0.0013*%
%ADD98R,0.0601X0.0013*%
%ADD99R,0.0240X0.0013*%
%ADD100R,0.0641X0.0013*%
%ADD101R,0.0667X0.0013*%
%ADD102R,0.0694X0.0013*%
%ADD103R,0.0254X0.0013*%
%ADD104R,0.0734X0.0013*%
%ADD105R,0.2416X0.0013*%
%ADD106R,0.2429X0.0013*%
%ADD107R,0.2456X0.0013*%
%ADD108R,0.0240X0.0013*%
%ADD109R,0.2469X0.0013*%
%ADD110R,0.0240X0.0013*%
%ADD111R,0.0414X0.0013*%
%ADD112R,0.2042X0.0013*%
%ADD113R,0.1989X0.0013*%
%ADD114R,0.0227X0.0013*%
%ADD115R,0.1949X0.0013*%
%ADD116R,0.1935X0.0013*%
%ADD117R,0.1909X0.0013*%
%ADD118R,0.1882X0.0013*%
%ADD119R,0.1855X0.0013*%
%ADD120R,0.0254X0.0013*%
%ADD121R,0.1842X0.0013*%
%ADD122R,0.1828X0.0013*%
%ADD123R,0.1828X0.0013*%
%ADD124R,0.0214X0.0013*%
%ADD125R,0.0227X0.0013*%
%ADD126R,0.0214X0.0013*%
%ADD127R,0.0200X0.0013*%
%ADD128R,0.0227X0.0013*%
%ADD129R,0.1815X0.0013*%
%ADD130R,0.0227X0.0013*%
%ADD131R,0.1815X0.0013*%
%ADD132R,0.1842X0.0013*%
%ADD133R,0.1869X0.0013*%
%ADD134R,0.1895X0.0013*%
%ADD135R,0.1962X0.0013*%
%ADD136R,0.0374X0.0013*%
%ADD137R,0.2002X0.0013*%
%ADD138R,0.2482X0.0013*%
%ADD139R,0.2469X0.0013*%
%ADD140R,0.0774X0.0013*%
%ADD141R,0.0747X0.0013*%
%ADD142R,0.0587X0.0013*%
%ADD143R,0.0534X0.0013*%
%ADD144R,0.0494X0.0013*%
%ADD145R,0.0427X0.0013*%
%ADD146R,0.0334X0.0013*%
%ADD147R,0.1441X0.0013*%
%ADD148R,0.1388X0.0013*%
%ADD149R,0.1228X0.0013*%
%ADD150R,0.1148X0.0013*%
%ADD151C,0.0030*%
D10*
X007279Y009429D02*
X007979Y009429D01*
X007996Y009431D01*
X008013Y009435D01*
X008029Y009442D01*
X008043Y009452D01*
X008056Y009465D01*
X008066Y009479D01*
X008073Y009495D01*
X008077Y009512D01*
X008079Y009529D01*
X008079Y009679D01*
X008029Y009729D01*
X008029Y011629D01*
X008079Y011679D01*
X008079Y011829D01*
X008077Y011846D01*
X008073Y011863D01*
X008066Y011879D01*
X008056Y011893D01*
X008043Y011906D01*
X008029Y011916D01*
X008013Y011923D01*
X007996Y011927D01*
X007979Y011929D01*
X007279Y011929D01*
X007262Y011927D01*
X007245Y011923D01*
X007229Y011916D01*
X007215Y011906D01*
X007202Y011893D01*
X007192Y011879D01*
X007185Y011863D01*
X007181Y011846D01*
X007179Y011829D01*
X007179Y011679D01*
X007229Y011629D01*
X007229Y009729D01*
X007179Y009679D01*
X007179Y009529D01*
X007181Y009512D01*
X007185Y009495D01*
X007192Y009479D01*
X007202Y009465D01*
X007215Y009452D01*
X007229Y009442D01*
X007245Y009435D01*
X007262Y009431D01*
X007279Y009429D01*
X015998Y006424D02*
X016425Y006424D01*
X016638Y006211D01*
X016425Y005997D01*
X015998Y005997D01*
X016105Y005135D02*
X015998Y005028D01*
X015998Y004815D01*
X016105Y004708D01*
X016532Y004708D01*
X016638Y004815D01*
X016638Y005028D01*
X016532Y005135D01*
X017668Y005350D02*
X017668Y004850D01*
X017918Y004600D01*
X018418Y004600D01*
X018668Y004850D01*
X018668Y005350D01*
X018418Y005600D01*
X017918Y005600D01*
X017668Y005350D01*
X017918Y004600D02*
X017668Y004350D01*
X017668Y003850D01*
X017918Y003600D01*
X018418Y003600D01*
X018668Y003350D01*
X018668Y002850D01*
X018418Y002600D01*
X018668Y002350D01*
X018668Y001850D01*
X018418Y001600D01*
X017918Y001600D01*
X017668Y001850D01*
X017668Y002350D01*
X017918Y002600D01*
X017668Y002850D01*
X017668Y003350D01*
X017918Y003600D01*
X018418Y003600D02*
X018668Y003850D01*
X018668Y004350D01*
X018418Y004600D01*
X016532Y003633D02*
X016105Y003633D01*
X016318Y003419D02*
X016318Y003846D01*
X017918Y002600D02*
X018418Y002600D01*
X016318Y002557D02*
X016318Y002130D01*
D11*
X014117Y003671D02*
X014117Y008671D01*
X010219Y008671D01*
X010219Y003671D01*
X014117Y003671D01*
X014137Y005177D02*
X014737Y005177D01*
X014924Y005620D01*
X014924Y008671D01*
X010190Y005177D02*
X009599Y005177D01*
X009412Y005620D01*
X009412Y008671D01*
X010730Y004212D02*
X010732Y004239D01*
X010738Y004265D01*
X010747Y004290D01*
X010760Y004314D01*
X010776Y004335D01*
X010795Y004354D01*
X010816Y004370D01*
X010840Y004383D01*
X010865Y004392D01*
X010891Y004398D01*
X010918Y004400D01*
X010945Y004398D01*
X010971Y004392D01*
X010996Y004383D01*
X011020Y004370D01*
X011041Y004354D01*
X011060Y004335D01*
X011076Y004314D01*
X011089Y004290D01*
X011098Y004265D01*
X011104Y004239D01*
X011106Y004212D01*
X011104Y004185D01*
X011098Y004159D01*
X011089Y004134D01*
X011076Y004110D01*
X011060Y004089D01*
X011041Y004070D01*
X011020Y004054D01*
X010996Y004041D01*
X010971Y004032D01*
X010945Y004026D01*
X010918Y004024D01*
X010891Y004026D01*
X010865Y004032D01*
X010840Y004041D01*
X010816Y004054D01*
X010795Y004070D01*
X010776Y004089D01*
X010760Y004110D01*
X010747Y004134D01*
X010738Y004159D01*
X010732Y004185D01*
X010730Y004212D01*
D12*
X011416Y003582D02*
X011416Y002647D01*
X012168Y002647D02*
X012168Y003582D01*
X012920Y003582D02*
X012920Y002647D01*
D13*
X013067Y005370D02*
X012990Y005447D01*
X012990Y005523D01*
X013067Y005600D01*
X013220Y005600D01*
X013297Y005677D01*
X013297Y005754D01*
X013220Y005830D01*
X013067Y005830D01*
X012990Y005754D01*
X012990Y005677D01*
X013067Y005600D01*
X013220Y005600D02*
X013297Y005523D01*
X013297Y005447D01*
X013220Y005370D01*
X013067Y005370D01*
X012837Y005447D02*
X012837Y005600D01*
X012760Y005677D01*
X012683Y005677D01*
X012530Y005600D01*
X012530Y005830D01*
X012837Y005830D01*
X012837Y005447D02*
X012760Y005370D01*
X012607Y005370D01*
X012530Y005447D01*
X012376Y005754D02*
X012069Y005447D01*
X012069Y005370D01*
X011916Y005447D02*
X011839Y005370D01*
X011686Y005370D01*
X011609Y005447D01*
X011456Y005447D02*
X011379Y005370D01*
X011225Y005370D01*
X011149Y005447D01*
X011149Y005754D01*
X011225Y005830D01*
X011379Y005830D01*
X011456Y005754D01*
X011609Y005754D02*
X011609Y005677D01*
X011686Y005600D01*
X011839Y005600D01*
X011916Y005523D01*
X011916Y005447D01*
X011916Y005754D02*
X011839Y005830D01*
X011686Y005830D01*
X011609Y005754D01*
X012069Y005830D02*
X012376Y005830D01*
X012376Y005754D01*
X013451Y005830D02*
X013451Y005370D01*
X013758Y005370D01*
X013911Y005447D02*
X013988Y005370D01*
X014141Y005370D01*
X014218Y005447D01*
X014371Y005370D02*
X014602Y005370D01*
X014678Y005447D01*
X014678Y005523D01*
X014602Y005600D01*
X014371Y005600D01*
X014218Y005754D02*
X014141Y005830D01*
X013988Y005830D01*
X013911Y005754D01*
X013911Y005447D01*
X014371Y005370D02*
X014371Y005830D01*
X014602Y005830D01*
X014678Y005754D01*
X014678Y005677D01*
X014602Y005600D01*
X014832Y005600D02*
X015139Y005600D01*
X015292Y005447D02*
X015599Y005754D01*
X015599Y005447D01*
X015522Y005370D01*
X015369Y005370D01*
X015292Y005447D01*
X015292Y005754D01*
X015369Y005830D01*
X015522Y005830D01*
X015599Y005754D01*
X015753Y005830D02*
X015753Y005600D01*
X015906Y005677D01*
X015983Y005677D01*
X016060Y005600D01*
X016060Y005447D01*
X015983Y005370D01*
X015829Y005370D01*
X015753Y005447D01*
X015753Y005830D02*
X016060Y005830D01*
X016213Y005754D02*
X016290Y005830D01*
X016443Y005830D01*
X016520Y005754D01*
X016213Y005447D01*
X016290Y005370D01*
X016443Y005370D01*
X016520Y005447D01*
X016520Y005754D01*
X016673Y005830D02*
X016904Y005830D01*
X016980Y005754D01*
X016980Y005677D01*
X016904Y005600D01*
X016673Y005600D01*
X016673Y005370D02*
X016904Y005370D01*
X016980Y005447D01*
X016980Y005523D01*
X016904Y005600D01*
X017134Y005600D02*
X017441Y005600D01*
X017594Y005523D02*
X017824Y005523D01*
X017901Y005600D01*
X017901Y005754D01*
X017824Y005830D01*
X017594Y005830D01*
X017594Y005370D01*
X018055Y005370D02*
X018055Y005830D01*
X018362Y005830D01*
X018515Y005830D02*
X018822Y005830D01*
X018975Y005600D02*
X019282Y005600D01*
X019436Y005830D02*
X019743Y005830D01*
X019589Y005830D02*
X019589Y005370D01*
X018668Y005600D02*
X018515Y005600D01*
X018515Y005370D02*
X018515Y005830D01*
X018208Y005600D02*
X018055Y005600D01*
X016673Y005370D02*
X016673Y005830D01*
X016213Y005754D02*
X016213Y005447D01*
X011763Y007370D02*
X011456Y007370D01*
X011609Y007370D02*
X011609Y007830D01*
X011456Y007677D01*
X011302Y007754D02*
X011225Y007830D01*
X011072Y007830D01*
X010995Y007754D01*
X010995Y007447D01*
X011072Y007370D01*
X011225Y007370D01*
X011302Y007447D01*
X010842Y007370D02*
X010688Y007370D01*
X010765Y007370D02*
X010765Y007830D01*
X010688Y007830D02*
X010842Y007830D01*
X008748Y006987D02*
X008748Y006680D01*
X008748Y006527D02*
X008595Y006373D01*
X008548Y006406D02*
X008395Y006253D01*
X008395Y006329D02*
X008395Y006099D01*
X008548Y006099D02*
X008088Y006099D01*
X008088Y006329D01*
X008165Y006406D01*
X008318Y006406D01*
X008395Y006329D01*
X008288Y006220D02*
X008288Y006450D01*
X008365Y006527D01*
X008518Y006527D01*
X008595Y006450D01*
X008595Y006220D01*
X008748Y006220D02*
X008288Y006220D01*
X008165Y006560D02*
X008088Y006636D01*
X008088Y006790D01*
X008165Y006867D01*
X008241Y006867D01*
X008548Y006560D01*
X008548Y006867D01*
X008748Y006834D02*
X008288Y006834D01*
X008441Y006680D01*
X010688Y005677D02*
X010688Y005370D01*
X010688Y005600D02*
X010995Y005600D01*
X010995Y005677D02*
X010842Y005830D01*
X010688Y005677D01*
X010995Y005677D02*
X010995Y005370D01*
D14*
X016973Y002666D02*
X017423Y002666D01*
X017423Y002516D02*
X017423Y002816D01*
X017123Y002516D02*
X016973Y002666D01*
X017048Y002356D02*
X017198Y002356D01*
X017273Y002281D01*
X017273Y002055D01*
X017423Y002055D02*
X016973Y002055D01*
X016973Y002281D01*
X017048Y002356D01*
X016973Y001895D02*
X016973Y001745D01*
X016973Y001820D02*
X017348Y001820D01*
X017423Y001745D01*
X017423Y001670D01*
X017348Y001595D01*
X005716Y010033D02*
X005716Y010624D01*
X003668Y010624D01*
X003668Y012395D01*
X005716Y012395D01*
X005716Y014049D01*
X003668Y014049D01*
X003668Y014915D01*
X000125Y014915D01*
X003668Y014049D02*
X003668Y012395D01*
X003668Y010624D02*
X003668Y010033D01*
X005716Y010033D01*
X003668Y010033D02*
X003668Y009600D01*
X000125Y009600D01*
X008254Y010983D02*
X008254Y011208D01*
X008329Y011283D01*
X008479Y011283D01*
X008554Y011208D01*
X008554Y010983D01*
X008704Y010983D02*
X008254Y010983D01*
X008554Y011133D02*
X008704Y011283D01*
X008629Y011443D02*
X008704Y011518D01*
X008704Y011669D01*
X008629Y011744D01*
X008554Y011744D01*
X008479Y011669D01*
X008479Y011593D01*
X008479Y011669D02*
X008404Y011744D01*
X008329Y011744D01*
X008254Y011669D01*
X008254Y011518D01*
X008329Y011443D01*
D15*
X007629Y012099D03*
X007629Y009259D03*
D16*
X005203Y001517D02*
X005335Y001385D01*
X005599Y001385D01*
X005730Y001517D01*
X005995Y001517D02*
X006127Y001385D01*
X006391Y001385D01*
X006522Y001517D01*
X006522Y001780D01*
X006391Y001912D01*
X006127Y001912D01*
X005995Y001780D01*
X005995Y001517D01*
X005730Y002044D02*
X005599Y002176D01*
X005335Y002176D01*
X005203Y002044D01*
X005203Y001517D01*
X006787Y001517D02*
X006919Y001385D01*
X007182Y001385D01*
X007314Y001517D01*
X007314Y001780D01*
X007182Y001912D01*
X006919Y001912D01*
X006787Y001780D01*
X006787Y001517D01*
X007579Y001385D02*
X007579Y002176D01*
X007579Y001912D02*
X007974Y001912D01*
X008106Y001780D01*
X008106Y001517D01*
X007974Y001385D01*
X007579Y001385D01*
X008371Y001517D02*
X008503Y001385D01*
X008766Y001385D01*
X008898Y001517D01*
X008898Y001780D01*
X008766Y001912D01*
X008503Y001912D01*
X008371Y001780D01*
X008371Y001517D01*
X009163Y001517D02*
X009294Y001385D01*
X009690Y001385D01*
X009163Y001517D02*
X009163Y001780D01*
X009294Y001912D01*
X009690Y001912D01*
D17*
X007236Y002350D03*
D18*
X007236Y002363D03*
X007236Y005473D03*
D19*
X007237Y005460D03*
X006769Y005273D03*
X006729Y004312D03*
X006769Y002564D03*
X007237Y002377D03*
D20*
X007237Y002390D03*
X007237Y005446D03*
D21*
X007236Y005433D03*
X007236Y002403D03*
D22*
X007237Y002417D03*
X007237Y005420D03*
D23*
X007237Y005406D03*
X007237Y002430D03*
D24*
X007236Y002443D03*
D25*
X007237Y002457D03*
D26*
X007237Y002470D03*
X007237Y005366D03*
D27*
X007237Y005353D03*
X007237Y002483D03*
D28*
X007237Y002497D03*
D29*
X007236Y002510D03*
D30*
X007236Y002524D03*
X007236Y005313D03*
D31*
X007236Y005300D03*
X007236Y002537D03*
D32*
X007236Y002550D03*
X007236Y005286D03*
D33*
X007704Y005273D03*
X007704Y002564D03*
D34*
X006723Y002577D03*
X006736Y004339D03*
X006723Y005260D03*
D35*
X007750Y005260D03*
X007750Y002577D03*
D36*
X006676Y002590D03*
X006676Y005246D03*
D37*
X007797Y005246D03*
X006729Y004352D03*
X007797Y002590D03*
D38*
X007830Y002604D03*
X006643Y002604D03*
X006643Y005233D03*
X007830Y005233D03*
D39*
X007870Y005220D03*
X006603Y005220D03*
X006603Y002617D03*
X007870Y002617D03*
D40*
X007897Y002630D03*
X006576Y002630D03*
X006576Y005206D03*
X007897Y005206D03*
D41*
X006549Y005193D03*
X006522Y005179D03*
X006522Y002657D03*
X006549Y002644D03*
D42*
X007924Y002644D03*
X007951Y002657D03*
X007951Y005179D03*
X007924Y005193D03*
D43*
X006496Y005166D03*
X006496Y002670D03*
D44*
X007977Y002670D03*
X007977Y005166D03*
D45*
X008024Y005139D03*
X006476Y005153D03*
X006476Y002684D03*
X008024Y002697D03*
D46*
X007997Y002684D03*
X006449Y002697D03*
X006449Y005139D03*
X007997Y005153D03*
D47*
X008044Y005126D03*
X006429Y005126D03*
X006429Y002710D03*
X008044Y002710D03*
D48*
X008064Y002724D03*
X006409Y002724D03*
X006409Y005113D03*
X008064Y005113D03*
D49*
X008084Y005099D03*
X006389Y005099D03*
X006389Y002737D03*
X008084Y002737D03*
D50*
X006369Y002750D03*
X006369Y005086D03*
D51*
X008104Y005086D03*
X008104Y002750D03*
D52*
X006349Y002764D03*
X006349Y005073D03*
D53*
X008124Y005073D03*
X008124Y002764D03*
D54*
X008144Y002777D03*
X008157Y002790D03*
X006476Y003605D03*
X006329Y002777D03*
X006329Y005059D03*
X008144Y005059D03*
X008157Y005046D03*
D55*
X006729Y004419D03*
X006316Y005046D03*
X006316Y002790D03*
D56*
X006296Y002804D03*
X006282Y005019D03*
X006296Y005033D03*
D57*
X008177Y005033D03*
X008191Y005019D03*
X008177Y002804D03*
D58*
X006282Y002817D03*
D59*
X008191Y002817D03*
D60*
X008211Y002830D03*
X006262Y002830D03*
D61*
X006249Y002844D03*
X006462Y004219D03*
X006249Y004993D03*
X006262Y005006D03*
X008211Y005006D03*
X008224Y004993D03*
X008224Y002844D03*
D62*
X008244Y002857D03*
X008258Y002871D03*
X006229Y002857D03*
X006229Y004979D03*
X008244Y004979D03*
X008258Y004966D03*
X008271Y004953D03*
D63*
X008284Y004939D03*
X006442Y004205D03*
X006456Y003618D03*
X006215Y002871D03*
X006189Y004939D03*
X006215Y004966D03*
D64*
X006202Y002884D03*
D65*
X008271Y002884D03*
D66*
X008284Y002897D03*
X006189Y002897D03*
D67*
X006169Y002911D03*
X006169Y004926D03*
D68*
X006436Y003631D03*
X008304Y002911D03*
X008304Y004926D03*
D69*
X006429Y004192D03*
X006162Y004913D03*
X006162Y002924D03*
D70*
X006135Y002951D03*
X006416Y003645D03*
X006135Y004886D03*
X008311Y004913D03*
X008324Y004899D03*
X008338Y004886D03*
X008351Y004873D03*
X008351Y002964D03*
X008338Y002951D03*
X008324Y002937D03*
X008311Y002924D03*
D71*
X006149Y002937D03*
X006122Y002964D03*
X006122Y004873D03*
X006149Y004899D03*
D72*
X006115Y004859D03*
X006089Y004832D03*
X006062Y004792D03*
X006022Y004739D03*
X006729Y004432D03*
X006409Y004178D03*
X006022Y003097D03*
X006062Y003044D03*
X006089Y003004D03*
X006115Y002977D03*
X008358Y002977D03*
X008384Y003004D03*
X008398Y003017D03*
X008398Y003031D03*
X008411Y003044D03*
X008424Y003057D03*
X008451Y003097D03*
X008451Y004739D03*
X008424Y004779D03*
X008411Y004792D03*
X008398Y004806D03*
X008398Y004819D03*
X008384Y004832D03*
X008358Y004859D03*
D73*
X006102Y004846D03*
X006049Y004779D03*
X006049Y003057D03*
X006102Y002991D03*
D74*
X006075Y003017D03*
X006075Y003031D03*
X008371Y002991D03*
X008371Y004846D03*
X006075Y004819D03*
X006075Y004806D03*
D75*
X006042Y004766D03*
X006042Y003071D03*
D76*
X006015Y003111D03*
X006002Y003124D03*
X005975Y003178D03*
X006402Y003658D03*
X005975Y004659D03*
X005989Y004686D03*
X006002Y004699D03*
X006002Y004712D03*
X006015Y004726D03*
X008431Y004766D03*
X008444Y004752D03*
X008458Y004726D03*
X008471Y004712D03*
X008471Y004699D03*
X008484Y004686D03*
X008498Y004659D03*
X008498Y003178D03*
X008471Y003124D03*
X008458Y003111D03*
X008444Y003084D03*
X008431Y003071D03*
D77*
X006389Y003671D03*
X006389Y004165D03*
X006029Y004752D03*
X006029Y003084D03*
D78*
X006002Y003137D03*
X008471Y003137D03*
D79*
X008484Y003151D03*
X005989Y003151D03*
D80*
X005982Y003164D03*
X005969Y003191D03*
X005955Y003204D03*
X005955Y003218D03*
X005942Y003231D03*
X005942Y003244D03*
X005889Y003351D03*
X005889Y004485D03*
X005942Y004592D03*
X005942Y004606D03*
X005955Y004619D03*
X005955Y004632D03*
X008518Y004632D03*
X008518Y004619D03*
X008531Y004606D03*
X008531Y004592D03*
X008558Y004552D03*
X008558Y004539D03*
X008571Y004525D03*
X008571Y004512D03*
X008585Y004485D03*
X008598Y004459D03*
X008598Y003378D03*
X008585Y003351D03*
X008571Y003324D03*
X008571Y003311D03*
X008531Y003244D03*
X008531Y003231D03*
X008518Y003218D03*
X008518Y003204D03*
X008504Y003191D03*
X008491Y003164D03*
D81*
X008544Y003258D03*
X008544Y003271D03*
X008544Y004566D03*
X008544Y004579D03*
X006382Y004152D03*
X005875Y004459D03*
X005915Y004539D03*
X005915Y004552D03*
X005929Y004566D03*
X005929Y004579D03*
X005875Y003378D03*
X005929Y003271D03*
X005929Y003258D03*
D82*
X005915Y003284D03*
D83*
X005969Y004646D03*
X008504Y004646D03*
X008558Y003284D03*
D84*
X005915Y003298D03*
D85*
X005982Y004672D03*
X008491Y004672D03*
X008558Y003298D03*
D86*
X005902Y003311D03*
X005902Y003324D03*
X005902Y004512D03*
X005902Y004525D03*
D87*
X005895Y004499D03*
X005882Y004472D03*
X005869Y004445D03*
X005869Y004432D03*
X005855Y004419D03*
X005855Y004405D03*
X005828Y004325D03*
X006362Y004125D03*
X006362Y003711D03*
X006362Y003698D03*
X005828Y003511D03*
X005842Y003471D03*
X005855Y003418D03*
X005869Y003404D03*
X005869Y003391D03*
X005882Y003364D03*
X005895Y003338D03*
X008578Y003338D03*
X008591Y003364D03*
X008605Y003391D03*
X008605Y003404D03*
X008618Y003418D03*
X008631Y003471D03*
X008618Y004405D03*
X008618Y004419D03*
X008605Y004432D03*
X008605Y004445D03*
X008591Y004472D03*
X008578Y004499D03*
D88*
X006729Y003391D03*
D89*
X006729Y003404D03*
D90*
X006729Y003418D03*
D91*
X005855Y003431D03*
X005842Y004365D03*
X008631Y004365D03*
X008618Y003431D03*
D92*
X006729Y003431D03*
D93*
X006349Y004098D03*
X005855Y004392D03*
X005855Y003444D03*
X008618Y003444D03*
X008618Y004392D03*
D94*
X006729Y003444D03*
D95*
X005848Y003458D03*
X005808Y003565D03*
X005808Y003605D03*
X005808Y004232D03*
X005808Y004245D03*
X005808Y004259D03*
X005808Y004272D03*
X005848Y004379D03*
X008638Y004352D03*
X008638Y004339D03*
X008651Y004312D03*
X008651Y004299D03*
X008651Y004285D03*
X008651Y003525D03*
X008638Y003498D03*
X008638Y003484D03*
D96*
X006729Y003458D03*
D97*
X006356Y003725D03*
X006342Y003738D03*
X006342Y003751D03*
X006329Y003778D03*
X006329Y004045D03*
X006329Y004058D03*
X006342Y004085D03*
X006356Y004112D03*
X005822Y004285D03*
X005822Y004299D03*
X005822Y004312D03*
X005795Y004205D03*
X005795Y004192D03*
X005795Y004178D03*
X005795Y003658D03*
X005795Y003645D03*
X005795Y003631D03*
X005822Y003551D03*
X005822Y003538D03*
X005822Y003525D03*
X008625Y003458D03*
X008625Y004379D03*
D98*
X006736Y003471D03*
D99*
X006316Y003818D03*
X005782Y003725D03*
X005782Y003711D03*
X005835Y003498D03*
X005835Y003484D03*
X005782Y004112D03*
X005782Y004125D03*
X005835Y004339D03*
X005835Y004352D03*
D100*
X006729Y003484D03*
D101*
X006729Y003498D03*
D102*
X006729Y003511D03*
X006729Y004325D03*
D103*
X008645Y004325D03*
X008645Y003511D03*
D104*
X006736Y003525D03*
D105*
X007564Y003538D03*
D106*
X007557Y003551D03*
D107*
X007557Y003565D03*
X007557Y004272D03*
D108*
X005808Y003578D03*
D109*
X007550Y003578D03*
D110*
X005808Y003591D03*
D111*
X006509Y003591D03*
D112*
X007764Y003591D03*
D113*
X007790Y003605D03*
D114*
X006336Y003765D03*
X006322Y003791D03*
X006322Y003805D03*
X006322Y004018D03*
X006322Y004032D03*
X005788Y004138D03*
X005788Y004152D03*
X005788Y004165D03*
X005802Y004219D03*
X005775Y004085D03*
X005775Y004058D03*
X005775Y004045D03*
X005775Y004032D03*
X005775Y003805D03*
X005775Y003791D03*
X005775Y003778D03*
X005775Y003765D03*
X005775Y003751D03*
X005775Y003738D03*
X005788Y003698D03*
X005788Y003685D03*
X005788Y003671D03*
X005802Y003618D03*
D115*
X007810Y003618D03*
X007824Y004205D03*
D116*
X007830Y003631D03*
D117*
X007844Y003645D03*
X007844Y004192D03*
D118*
X007857Y003658D03*
D119*
X007870Y003671D03*
X007870Y004152D03*
D120*
X006376Y004138D03*
X006376Y003685D03*
D121*
X007877Y003685D03*
D122*
X007884Y003698D03*
X007884Y004138D03*
D123*
X007897Y004112D03*
X007897Y003725D03*
X007897Y003711D03*
D124*
X005768Y003818D03*
X005768Y003831D03*
X005768Y003845D03*
X005768Y003858D03*
X005768Y003872D03*
X005768Y003885D03*
X005768Y003898D03*
X005768Y003912D03*
X005768Y003925D03*
X005768Y003938D03*
X005768Y003952D03*
X005768Y003965D03*
X005768Y003978D03*
X005768Y003992D03*
X005768Y004005D03*
X005768Y004018D03*
D125*
X006309Y004005D03*
X006309Y003992D03*
X006309Y003978D03*
X006309Y003858D03*
X006309Y003845D03*
X006309Y003831D03*
D126*
X006302Y003872D03*
X006302Y003885D03*
X006302Y003898D03*
X006302Y003925D03*
X006302Y003938D03*
X006302Y003952D03*
X006302Y003965D03*
D127*
X006296Y003912D03*
D128*
X006336Y004072D03*
X005775Y004072D03*
D129*
X007904Y004085D03*
D130*
X005775Y004098D03*
D131*
X007904Y004098D03*
D132*
X007890Y004125D03*
D133*
X007864Y004165D03*
D134*
X007850Y004178D03*
D135*
X007804Y004219D03*
D136*
X006489Y004232D03*
D137*
X007784Y004232D03*
D138*
X007543Y004245D03*
D139*
X007550Y004259D03*
D140*
X006729Y004285D03*
D141*
X006729Y004299D03*
D142*
X006729Y004365D03*
D143*
X006729Y004379D03*
D144*
X006736Y004392D03*
D145*
X006729Y004405D03*
X007236Y005486D03*
D146*
X006202Y004953D03*
D147*
X007236Y005326D03*
D148*
X007237Y005340D03*
D149*
X007237Y005380D03*
D150*
X007236Y005393D03*
D151*
X005809Y006283D02*
X005809Y006406D01*
X005747Y006468D01*
X005809Y006590D02*
X005809Y006836D01*
X005809Y006713D02*
X005439Y006713D01*
X005562Y006590D01*
X005500Y006468D02*
X005439Y006406D01*
X005439Y006283D01*
X005500Y006221D01*
X005747Y006221D01*
X005809Y006283D01*
M02*
