G75*
%MOIN*%
%OFA0B0*%
%FSLAX24Y24*%
%IPPOS*%
%LPD*%
%AMOC8*
5,1,8,0,0,1.08239X$1,22.5*
%
%ADD10R,0.9744X0.2559*%
%ADD11R,0.5118X0.2559*%
%ADD12R,0.4094X0.2559*%
%ADD13C,0.0477*%
%ADD14C,0.1655*%
%ADD15C,0.0671*%
%ADD16C,0.0680*%
%ADD17R,0.0580X0.0330*%
%ADD18R,0.3150X0.2559*%
%ADD19R,0.0710X0.0592*%
%ADD20OC8,0.0600*%
%ADD21C,0.0476*%
%ADD22OC8,0.0476*%
%ADD23C,0.0437*%
D10*
X011690Y013596D03*
D11*
X009338Y010683D03*
D12*
X014495Y010683D03*
D13*
X015387Y011240D03*
X014924Y011387D03*
X014403Y011387D03*
X013881Y011387D03*
X013349Y011387D03*
X012887Y011240D03*
X012601Y010846D03*
X012601Y010354D03*
X012887Y009960D03*
X013349Y009813D03*
X013881Y009813D03*
X014403Y009813D03*
X014924Y009813D03*
X015387Y009960D03*
X015668Y010350D03*
X015668Y010850D03*
X016716Y010978D03*
X016912Y010387D03*
X017503Y010387D03*
X018094Y010387D03*
X018684Y010387D03*
X019275Y010387D03*
X019275Y009600D03*
X018684Y009600D03*
X018094Y009600D03*
X017503Y009600D03*
X016912Y009600D03*
X016716Y011569D03*
X017503Y011765D03*
X018094Y011765D03*
X018684Y011765D03*
X019275Y011765D03*
X019275Y012750D03*
X018684Y012750D03*
X018094Y012750D03*
X017503Y012750D03*
X016912Y012750D03*
X016912Y013537D03*
X017503Y013537D03*
X018094Y013537D03*
X018684Y013537D03*
X019275Y013537D03*
X019275Y014128D03*
X019275Y014718D03*
X018684Y014718D03*
X018094Y014718D03*
X018094Y014128D03*
X018684Y014128D03*
X017503Y014128D03*
X016912Y014128D03*
X016912Y014718D03*
X017503Y014718D03*
X011735Y010846D03*
X011450Y011240D03*
X010987Y011387D03*
X010466Y011387D03*
X009934Y011387D03*
X009412Y011387D03*
X008950Y011240D03*
X008668Y010850D03*
X008668Y010350D03*
X008950Y009960D03*
X009412Y009813D03*
X009934Y009813D03*
X010466Y009813D03*
X010987Y009813D03*
X011450Y009960D03*
X011735Y010354D03*
X006621Y010584D03*
X006227Y010978D03*
X005637Y010978D03*
X005046Y010978D03*
X004456Y010978D03*
X003865Y010978D03*
X003865Y011765D03*
X004456Y011765D03*
X005046Y011765D03*
X005637Y011765D03*
X006227Y011765D03*
X006424Y012750D03*
X005834Y012750D03*
X005243Y012750D03*
X004653Y012750D03*
X004062Y012750D03*
X004062Y013340D03*
X004653Y013340D03*
X005243Y013340D03*
X005834Y013340D03*
X006424Y013340D03*
X006424Y013931D03*
X006424Y014521D03*
X005834Y014521D03*
X005243Y014521D03*
X005243Y013931D03*
X005834Y013931D03*
X004653Y013931D03*
X004653Y014521D03*
X004062Y014521D03*
X004062Y013931D03*
X006621Y009994D03*
X005834Y009600D03*
X005243Y009600D03*
X004653Y009600D03*
X004062Y009600D03*
D14*
X009412Y010600D02*
X010987Y010600D01*
X013349Y010600D02*
X014924Y010600D01*
D15*
X012920Y002175D03*
X012168Y002175D03*
X011416Y002175D03*
D16*
X017868Y002100D02*
X018468Y002100D01*
X018468Y003100D02*
X017868Y003100D01*
X017868Y004100D02*
X018468Y004100D01*
X018468Y005100D02*
X017868Y005100D01*
D17*
X004653Y010191D03*
X004653Y013143D03*
D18*
X005243Y013635D03*
X005243Y010683D03*
X018094Y010683D03*
X018094Y013635D03*
D19*
X006168Y006206D03*
X006168Y006994D03*
X007668Y006974D03*
X007668Y006226D03*
X009168Y006226D03*
X009168Y006974D03*
D20*
X007629Y008679D03*
X007629Y012679D03*
D21*
X005168Y006600D03*
D22*
X012168Y013100D03*
D23*
X011149Y013104D03*
X009968Y013104D03*
X008786Y013104D03*
X007605Y013301D03*
X007605Y014285D03*
X008786Y014285D03*
X009968Y014285D03*
X011149Y014285D03*
X012330Y014285D03*
X013511Y014285D03*
X014692Y014285D03*
X015873Y014285D03*
X015873Y013104D03*
X014692Y013104D03*
X013511Y013104D03*
M02*
