%
M48
M72
T01C0.0197
T02C0.0236
T03C0.0315
T04C0.0320
T05C0.0400
T06C0.0787
%
T01
X4062Y9600
X4653Y9600
X5243Y9600
X5834Y9600
X6621Y9994
X6621Y10584
X6227Y10978
X5637Y10978
X5046Y10978
X4456Y10978
X3865Y10978
X3865Y11765
X4456Y11765
X5046Y11765
X5637Y11765
X6227Y11765
X6424Y12750
X5834Y12750
X5243Y12750
X4653Y12750
X4062Y12750
X4062Y13340
X4653Y13340
X5243Y13340
X5834Y13340
X6424Y13340
X6424Y13931
X6424Y14521
X5834Y14521
X5243Y14521
X5243Y13931
X5834Y13931
X4653Y13931
X4653Y14521
X4062Y14521
X4062Y13931
X7605Y14285
X8786Y14285
X9968Y14285
X11149Y14285
X12330Y14285
X13511Y14285
X14692Y14285
X15873Y14285
X16912Y14128
X17503Y14128
X17503Y14718
X16912Y14718
X18094Y14718
X18684Y14718
X18684Y14128
X18094Y14128
X18094Y13537
X18684Y13537
X19275Y13537
X19275Y14128
X19275Y14718
X17503Y13537
X16912Y13537
X16912Y12750
X17503Y12750
X18094Y12750
X18684Y12750
X19275Y12750
X19275Y11765
X18684Y11765
X18094Y11765
X17503Y11765
X16716Y11569
X16716Y10978
X16912Y10387
X17503Y10387
X18094Y10387
X18684Y10387
X19275Y10387
X19275Y9600
X18684Y9600
X18094Y9600
X17503Y9600
X16912Y9600
X15668Y10350
X15387Y9960
X14924Y9813
X14403Y9813
X13881Y9813
X13349Y9813
X12887Y9960
X12601Y10354
X12601Y10846
X12887Y11240
X13349Y11387
X13881Y11387
X14403Y11387
X14924Y11387
X15387Y11240
X15668Y10850
X15873Y13104
X14692Y13104
X13511Y13104
X11149Y13104
X9968Y13104
X8786Y13104
X7605Y13301
X9412Y11387
X8950Y11240
X8668Y10850
X8668Y10350
X8950Y9960
X9412Y9813
X9934Y9813
X10466Y9813
X10987Y9813
X11450Y9960
X11735Y10354
X11735Y10846
X11450Y11240
X10987Y11387
X10466Y11387
X9934Y11387
T02
X5168Y6600
X12168Y13100
T03
X12168Y2175
X11416Y2175
X12920Y2175
T04
X7629Y8679
X7629Y12679
T05
X18168Y5100
X18168Y4100
X18168Y3100
X18168Y2100
T06
X14924Y10600
X9412Y10600
M30
