G75*
%MOIN*%
%OFA0B0*%
%FSLAX24Y24*%
%IPPOS*%
%LPD*%
%AMOC8*
5,1,8,0,0,1.08239X$1,22.5*
%
%ADD10R,0.9744X0.2559*%
%ADD11R,0.5118X0.2559*%
%ADD12R,0.4094X0.2559*%
%ADD13C,0.0397*%
%ADD14C,0.1575*%
%ADD15C,0.0591*%
%ADD16C,0.0118*%
%ADD17C,0.0600*%
%ADD18R,0.0500X0.0250*%
%ADD19R,0.3150X0.2559*%
%ADD20R,0.0630X0.0512*%
%ADD21OC8,0.0520*%
%ADD22C,0.0070*%
%ADD23R,0.0427X0.0013*%
%ADD24R,0.0587X0.0013*%
%ADD25R,0.0721X0.0013*%
%ADD26R,0.0827X0.0013*%
%ADD27R,0.0908X0.0013*%
%ADD28R,0.1014X0.0013*%
%ADD29R,0.1094X0.0013*%
%ADD30R,0.1148X0.0013*%
%ADD31R,0.1228X0.0013*%
%ADD32R,0.1281X0.0013*%
%ADD33R,0.1335X0.0013*%
%ADD34R,0.1388X0.0013*%
%ADD35R,0.1441X0.0013*%
%ADD36R,0.1495X0.0013*%
%ADD37R,0.1548X0.0013*%
%ADD38R,0.1602X0.0013*%
%ADD39R,0.0721X0.0013*%
%ADD40R,0.0654X0.0013*%
%ADD41R,0.0654X0.0013*%
%ADD42R,0.0614X0.0013*%
%ADD43R,0.0614X0.0013*%
%ADD44R,0.0574X0.0013*%
%ADD45R,0.0547X0.0013*%
%ADD46R,0.0521X0.0013*%
%ADD47R,0.0494X0.0013*%
%ADD48R,0.0494X0.0013*%
%ADD49R,0.0467X0.0013*%
%ADD50R,0.0467X0.0013*%
%ADD51R,0.0454X0.0013*%
%ADD52R,0.0454X0.0013*%
%ADD53R,0.0440X0.0013*%
%ADD54R,0.0427X0.0013*%
%ADD55R,0.0414X0.0013*%
%ADD56R,0.0400X0.0013*%
%ADD57R,0.0400X0.0013*%
%ADD58R,0.0387X0.0013*%
%ADD59R,0.0387X0.0013*%
%ADD60R,0.0374X0.0013*%
%ADD61R,0.0374X0.0013*%
%ADD62R,0.0360X0.0013*%
%ADD63R,0.0360X0.0013*%
%ADD64R,0.0360X0.0013*%
%ADD65R,0.0360X0.0013*%
%ADD66R,0.0347X0.0013*%
%ADD67R,0.0347X0.0013*%
%ADD68R,0.0334X0.0013*%
%ADD69R,0.0334X0.0013*%
%ADD70R,0.0334X0.0013*%
%ADD71R,0.0334X0.0013*%
%ADD72R,0.0334X0.0013*%
%ADD73R,0.0320X0.0013*%
%ADD74R,0.0320X0.0013*%
%ADD75R,0.0307X0.0013*%
%ADD76R,0.0307X0.0013*%
%ADD77R,0.0307X0.0013*%
%ADD78R,0.0294X0.0013*%
%ADD79R,0.0294X0.0013*%
%ADD80R,0.0294X0.0013*%
%ADD81R,0.0280X0.0013*%
%ADD82R,0.0280X0.0013*%
%ADD83R,0.0280X0.0013*%
%ADD84R,0.0280X0.0013*%
%ADD85R,0.0280X0.0013*%
%ADD86R,0.0267X0.0013*%
%ADD87R,0.0267X0.0013*%
%ADD88R,0.0267X0.0013*%
%ADD89R,0.0267X0.0013*%
%ADD90R,0.0267X0.0013*%
%ADD91R,0.0267X0.0013*%
%ADD92R,0.0267X0.0013*%
%ADD93R,0.0254X0.0013*%
%ADD94R,0.0214X0.0013*%
%ADD95R,0.0320X0.0013*%
%ADD96R,0.0400X0.0013*%
%ADD97R,0.0254X0.0013*%
%ADD98R,0.0454X0.0013*%
%ADD99R,0.0254X0.0013*%
%ADD100R,0.0507X0.0013*%
%ADD101R,0.0240X0.0013*%
%ADD102R,0.0561X0.0013*%
%ADD103R,0.0240X0.0013*%
%ADD104R,0.0601X0.0013*%
%ADD105R,0.0240X0.0013*%
%ADD106R,0.0641X0.0013*%
%ADD107R,0.0667X0.0013*%
%ADD108R,0.0694X0.0013*%
%ADD109R,0.0254X0.0013*%
%ADD110R,0.0734X0.0013*%
%ADD111R,0.2416X0.0013*%
%ADD112R,0.2429X0.0013*%
%ADD113R,0.2456X0.0013*%
%ADD114R,0.0240X0.0013*%
%ADD115R,0.2469X0.0013*%
%ADD116R,0.0240X0.0013*%
%ADD117R,0.0414X0.0013*%
%ADD118R,0.2042X0.0013*%
%ADD119R,0.1989X0.0013*%
%ADD120R,0.0227X0.0013*%
%ADD121R,0.1949X0.0013*%
%ADD122R,0.1935X0.0013*%
%ADD123R,0.1909X0.0013*%
%ADD124R,0.1882X0.0013*%
%ADD125R,0.1855X0.0013*%
%ADD126R,0.0254X0.0013*%
%ADD127R,0.1842X0.0013*%
%ADD128R,0.1828X0.0013*%
%ADD129R,0.1828X0.0013*%
%ADD130R,0.0214X0.0013*%
%ADD131R,0.0227X0.0013*%
%ADD132R,0.0214X0.0013*%
%ADD133R,0.0200X0.0013*%
%ADD134R,0.0227X0.0013*%
%ADD135R,0.1815X0.0013*%
%ADD136R,0.0227X0.0013*%
%ADD137R,0.1815X0.0013*%
%ADD138R,0.1842X0.0013*%
%ADD139R,0.1869X0.0013*%
%ADD140R,0.1895X0.0013*%
%ADD141R,0.1962X0.0013*%
%ADD142R,0.0374X0.0013*%
%ADD143R,0.2002X0.0013*%
%ADD144R,0.2482X0.0013*%
%ADD145R,0.2469X0.0013*%
%ADD146R,0.0774X0.0013*%
%ADD147R,0.0747X0.0013*%
%ADD148R,0.0587X0.0013*%
%ADD149R,0.0534X0.0013*%
%ADD150R,0.0494X0.0013*%
%ADD151R,0.0427X0.0013*%
%ADD152R,0.0334X0.0013*%
%ADD153R,0.1441X0.0013*%
%ADD154R,0.1388X0.0013*%
%ADD155R,0.1228X0.0013*%
%ADD156R,0.1148X0.0013*%
%ADD157C,0.0160*%
%ADD158C,0.0396*%
%ADD159OC8,0.0396*%
%ADD160C,0.0357*%
D10*
X011690Y013596D03*
D11*
X009338Y010683D03*
D12*
X014495Y010683D03*
D13*
X015387Y011240D03*
X014924Y011387D03*
X014403Y011387D03*
X013881Y011387D03*
X013349Y011387D03*
X012887Y011240D03*
X012601Y010846D03*
X012601Y010354D03*
X012887Y009960D03*
X013349Y009813D03*
X013881Y009813D03*
X014403Y009813D03*
X014924Y009813D03*
X015387Y009960D03*
X015668Y010350D03*
X015668Y010850D03*
X016716Y010978D03*
X016912Y010387D03*
X017503Y010387D03*
X018094Y010387D03*
X018684Y010387D03*
X019275Y010387D03*
X019275Y009600D03*
X018684Y009600D03*
X018094Y009600D03*
X017503Y009600D03*
X016912Y009600D03*
X016716Y011569D03*
X017503Y011765D03*
X018094Y011765D03*
X018684Y011765D03*
X019275Y011765D03*
X019275Y012750D03*
X018684Y012750D03*
X018094Y012750D03*
X017503Y012750D03*
X016912Y012750D03*
X016912Y013537D03*
X017503Y013537D03*
X018094Y013537D03*
X018684Y013537D03*
X019275Y013537D03*
X019275Y014128D03*
X019275Y014718D03*
X018684Y014718D03*
X018094Y014718D03*
X018094Y014128D03*
X018684Y014128D03*
X017503Y014128D03*
X016912Y014128D03*
X016912Y014718D03*
X017503Y014718D03*
X011735Y010846D03*
X011450Y011240D03*
X010987Y011387D03*
X010466Y011387D03*
X009934Y011387D03*
X009412Y011387D03*
X008950Y011240D03*
X008668Y010850D03*
X008668Y010350D03*
X008950Y009960D03*
X009412Y009813D03*
X009934Y009813D03*
X010466Y009813D03*
X010987Y009813D03*
X011450Y009960D03*
X011735Y010354D03*
X006621Y010584D03*
X006227Y010978D03*
X005637Y010978D03*
X005046Y010978D03*
X004456Y010978D03*
X003865Y010978D03*
X003865Y011765D03*
X004456Y011765D03*
X005046Y011765D03*
X005637Y011765D03*
X006227Y011765D03*
X006424Y012750D03*
X005834Y012750D03*
X005243Y012750D03*
X004653Y012750D03*
X004062Y012750D03*
X004062Y013340D03*
X004653Y013340D03*
X005243Y013340D03*
X005834Y013340D03*
X006424Y013340D03*
X006424Y013931D03*
X006424Y014521D03*
X005834Y014521D03*
X005243Y014521D03*
X005243Y013931D03*
X005834Y013931D03*
X004653Y013931D03*
X004653Y014521D03*
X004062Y014521D03*
X004062Y013931D03*
X006621Y009994D03*
X005834Y009600D03*
X005243Y009600D03*
X004653Y009600D03*
X004062Y009600D03*
D14*
X009412Y010600D02*
X010987Y010600D01*
X013349Y010600D02*
X014924Y010600D01*
D15*
X012920Y002175D03*
X012168Y002175D03*
X011416Y002175D03*
D16*
X011043Y009475D02*
X009418Y009475D01*
X009251Y009488D01*
X009087Y009525D01*
X008930Y009586D01*
X008785Y009670D01*
X008653Y009775D01*
X008539Y009899D01*
X008444Y010038D01*
X008371Y010189D01*
X008322Y010350D01*
X008296Y010516D01*
X008296Y010684D01*
X008322Y010850D01*
X008371Y011011D01*
X008444Y011163D01*
X008539Y011301D01*
X008653Y011425D01*
X008785Y011530D01*
X008930Y011614D01*
X009087Y011675D01*
X009251Y011712D01*
X009418Y011725D01*
X011043Y011725D01*
X011215Y011699D01*
X011380Y011647D01*
X011537Y011573D01*
X011680Y011476D01*
X011809Y011359D01*
X011918Y011225D01*
X011918Y009975D01*
X011810Y009839D01*
X011683Y009720D01*
X011539Y009623D01*
X011382Y009548D01*
X011216Y009499D01*
X011043Y009475D01*
X011372Y009545D02*
X009035Y009545D01*
X008799Y009662D02*
X011597Y009662D01*
X011746Y009779D02*
X008650Y009779D01*
X008542Y009895D02*
X011855Y009895D01*
X011918Y010012D02*
X008461Y010012D01*
X008400Y010129D02*
X011918Y010129D01*
X011918Y010245D02*
X008354Y010245D01*
X008320Y010362D02*
X011918Y010362D01*
X011918Y010478D02*
X008302Y010478D01*
X008296Y010595D02*
X011918Y010595D01*
X011918Y010712D02*
X008301Y010712D01*
X008318Y010828D02*
X011918Y010828D01*
X011918Y010945D02*
X008351Y010945D01*
X008395Y011061D02*
X011918Y011061D01*
X011918Y011178D02*
X008455Y011178D01*
X008534Y011295D02*
X011861Y011295D01*
X011751Y011411D02*
X008641Y011411D01*
X008782Y011528D02*
X011603Y011528D01*
X011386Y011644D02*
X009009Y011644D01*
X012418Y011225D02*
X012418Y009975D01*
X012528Y009841D01*
X012656Y009724D01*
X012800Y009627D01*
X012956Y009553D01*
X013122Y009501D01*
X013293Y009475D01*
X014918Y009475D01*
X015086Y009488D01*
X015250Y009525D01*
X015406Y009586D01*
X015552Y009670D01*
X015684Y009775D01*
X015798Y009899D01*
X015893Y010038D01*
X015966Y010189D01*
X016015Y010350D01*
X016040Y010516D01*
X016040Y010684D01*
X016015Y010850D01*
X015966Y011011D01*
X015893Y011163D01*
X015798Y011301D01*
X015684Y011425D01*
X015552Y011530D01*
X015406Y011614D01*
X015250Y011675D01*
X015086Y011712D01*
X014918Y011725D01*
X013293Y011725D01*
X013121Y011701D01*
X012954Y011652D01*
X012797Y011577D01*
X012654Y011480D01*
X012526Y011361D01*
X012418Y011225D01*
X012418Y011178D02*
X015882Y011178D01*
X015941Y011061D02*
X012418Y011061D01*
X012418Y010945D02*
X015986Y010945D01*
X016018Y010828D02*
X012418Y010828D01*
X012418Y010712D02*
X016036Y010712D01*
X016040Y010595D02*
X012418Y010595D01*
X012418Y010478D02*
X016034Y010478D01*
X016017Y010362D02*
X012418Y010362D01*
X012418Y010245D02*
X015983Y010245D01*
X015936Y010129D02*
X012418Y010129D01*
X012418Y010012D02*
X015875Y010012D01*
X015795Y009895D02*
X012484Y009895D01*
X012596Y009779D02*
X015687Y009779D01*
X015537Y009662D02*
X012749Y009662D01*
X012980Y009545D02*
X015302Y009545D01*
X015803Y011295D02*
X012473Y011295D01*
X012580Y011411D02*
X015696Y011411D01*
X015554Y011528D02*
X012725Y011528D01*
X012939Y011644D02*
X015328Y011644D01*
D17*
X017868Y005100D02*
X018468Y005100D01*
X018468Y004100D02*
X017868Y004100D01*
X017868Y003100D02*
X018468Y003100D01*
X018468Y002100D02*
X017868Y002100D01*
D18*
X004653Y010191D03*
X004653Y013143D03*
D19*
X005243Y013635D03*
X005243Y010683D03*
X018094Y010683D03*
X018094Y013635D03*
D20*
X009168Y006974D03*
X009168Y006226D03*
X007668Y006226D03*
X007668Y006974D03*
X006168Y006994D03*
X006168Y006206D03*
D21*
X007629Y008679D03*
X007629Y012679D03*
D22*
X007579Y002176D02*
X007579Y001385D01*
X007974Y001385D01*
X008106Y001517D01*
X008106Y001780D01*
X007974Y001912D01*
X007579Y001912D01*
X007314Y001780D02*
X007182Y001912D01*
X006919Y001912D01*
X006787Y001780D01*
X006787Y001517D01*
X006919Y001385D01*
X007182Y001385D01*
X007314Y001517D01*
X007314Y001780D01*
X006522Y001780D02*
X006522Y001517D01*
X006391Y001385D01*
X006127Y001385D01*
X005995Y001517D01*
X005995Y001780D01*
X006127Y001912D01*
X006391Y001912D01*
X006522Y001780D01*
X005730Y001517D02*
X005599Y001385D01*
X005335Y001385D01*
X005203Y001517D01*
X005203Y002044D01*
X005335Y002176D01*
X005599Y002176D01*
X005730Y002044D01*
X008371Y001780D02*
X008371Y001517D01*
X008503Y001385D01*
X008766Y001385D01*
X008898Y001517D01*
X008898Y001780D01*
X008766Y001912D01*
X008503Y001912D01*
X008371Y001780D01*
X009163Y001780D02*
X009163Y001517D01*
X009294Y001385D01*
X009690Y001385D01*
X009163Y001780D02*
X009294Y001912D01*
X009690Y001912D01*
D23*
X007236Y002350D03*
D24*
X007236Y002363D03*
X007236Y005473D03*
D25*
X007237Y005460D03*
X006769Y005273D03*
X006729Y004312D03*
X006769Y002564D03*
X007237Y002377D03*
D26*
X007237Y002390D03*
X007237Y005446D03*
D27*
X007236Y005433D03*
X007236Y002403D03*
D28*
X007237Y002417D03*
X007237Y005420D03*
D29*
X007237Y005406D03*
X007237Y002430D03*
D30*
X007236Y002443D03*
D31*
X007237Y002457D03*
D32*
X007237Y002470D03*
X007237Y005366D03*
D33*
X007237Y005353D03*
X007237Y002483D03*
D34*
X007237Y002497D03*
D35*
X007236Y002510D03*
D36*
X007236Y002524D03*
X007236Y005313D03*
D37*
X007236Y005300D03*
X007236Y002537D03*
D38*
X007236Y002550D03*
X007236Y005286D03*
D39*
X007704Y005273D03*
X007704Y002564D03*
D40*
X006723Y002577D03*
X006736Y004339D03*
X006723Y005260D03*
D41*
X007750Y005260D03*
X007750Y002577D03*
D42*
X006676Y002590D03*
X006676Y005246D03*
D43*
X007797Y005246D03*
X006729Y004352D03*
X007797Y002590D03*
D44*
X007830Y002604D03*
X006643Y002604D03*
X006643Y005233D03*
X007830Y005233D03*
D45*
X007870Y005220D03*
X006603Y005220D03*
X006603Y002617D03*
X007870Y002617D03*
D46*
X007897Y002630D03*
X006576Y002630D03*
X006576Y005206D03*
X007897Y005206D03*
D47*
X006549Y005193D03*
X006522Y005179D03*
X006522Y002657D03*
X006549Y002644D03*
D48*
X007924Y002644D03*
X007951Y002657D03*
X007951Y005179D03*
X007924Y005193D03*
D49*
X006496Y005166D03*
X006496Y002670D03*
D50*
X007977Y002670D03*
X007977Y005166D03*
D51*
X008024Y005139D03*
X006476Y005153D03*
X006476Y002684D03*
X008024Y002697D03*
D52*
X007997Y002684D03*
X006449Y002697D03*
X006449Y005139D03*
X007997Y005153D03*
D53*
X008044Y005126D03*
X006429Y005126D03*
X006429Y002710D03*
X008044Y002710D03*
D54*
X008064Y002724D03*
X006409Y002724D03*
X006409Y005113D03*
X008064Y005113D03*
D55*
X008084Y005099D03*
X006389Y005099D03*
X006389Y002737D03*
X008084Y002737D03*
D56*
X006369Y002750D03*
X006369Y005086D03*
D57*
X008104Y005086D03*
X008104Y002750D03*
D58*
X006349Y002764D03*
X006349Y005073D03*
D59*
X008124Y005073D03*
X008124Y002764D03*
D60*
X008144Y002777D03*
X008157Y002790D03*
X006476Y003605D03*
X006329Y002777D03*
X006329Y005059D03*
X008144Y005059D03*
X008157Y005046D03*
D61*
X006729Y004419D03*
X006316Y005046D03*
X006316Y002790D03*
D62*
X006296Y002804D03*
X006282Y005019D03*
X006296Y005033D03*
D63*
X008177Y005033D03*
X008191Y005019D03*
X008177Y002804D03*
D64*
X006282Y002817D03*
D65*
X008191Y002817D03*
D66*
X008211Y002830D03*
X006262Y002830D03*
D67*
X006249Y002844D03*
X006462Y004219D03*
X006249Y004993D03*
X006262Y005006D03*
X008211Y005006D03*
X008224Y004993D03*
X008224Y002844D03*
D68*
X008244Y002857D03*
X008258Y002871D03*
X006229Y002857D03*
X006229Y004979D03*
X008244Y004979D03*
X008258Y004966D03*
X008271Y004953D03*
D69*
X008284Y004939D03*
X006442Y004205D03*
X006456Y003618D03*
X006215Y002871D03*
X006189Y004939D03*
X006215Y004966D03*
D70*
X006202Y002884D03*
D71*
X008271Y002884D03*
D72*
X008284Y002897D03*
X006189Y002897D03*
D73*
X006169Y002911D03*
X006169Y004926D03*
D74*
X006436Y003631D03*
X008304Y002911D03*
X008304Y004926D03*
D75*
X006429Y004192D03*
X006162Y004913D03*
X006162Y002924D03*
D76*
X006135Y002951D03*
X006416Y003645D03*
X006135Y004886D03*
X008311Y004913D03*
X008324Y004899D03*
X008338Y004886D03*
X008351Y004873D03*
X008351Y002964D03*
X008338Y002951D03*
X008324Y002937D03*
X008311Y002924D03*
D77*
X006149Y002937D03*
X006122Y002964D03*
X006122Y004873D03*
X006149Y004899D03*
D78*
X006115Y004859D03*
X006089Y004832D03*
X006062Y004792D03*
X006022Y004739D03*
X006729Y004432D03*
X006409Y004178D03*
X006022Y003097D03*
X006062Y003044D03*
X006089Y003004D03*
X006115Y002977D03*
X008358Y002977D03*
X008384Y003004D03*
X008398Y003017D03*
X008398Y003031D03*
X008411Y003044D03*
X008424Y003057D03*
X008451Y003097D03*
X008451Y004739D03*
X008424Y004779D03*
X008411Y004792D03*
X008398Y004806D03*
X008398Y004819D03*
X008384Y004832D03*
X008358Y004859D03*
D79*
X006102Y004846D03*
X006049Y004779D03*
X006049Y003057D03*
X006102Y002991D03*
D80*
X006075Y003017D03*
X006075Y003031D03*
X008371Y002991D03*
X008371Y004846D03*
X006075Y004819D03*
X006075Y004806D03*
D81*
X006042Y004766D03*
X006042Y003071D03*
D82*
X006015Y003111D03*
X006002Y003124D03*
X005975Y003178D03*
X006402Y003658D03*
X005975Y004659D03*
X005989Y004686D03*
X006002Y004699D03*
X006002Y004712D03*
X006015Y004726D03*
X008431Y004766D03*
X008444Y004752D03*
X008458Y004726D03*
X008471Y004712D03*
X008471Y004699D03*
X008484Y004686D03*
X008498Y004659D03*
X008498Y003178D03*
X008471Y003124D03*
X008458Y003111D03*
X008444Y003084D03*
X008431Y003071D03*
D83*
X006389Y003671D03*
X006389Y004165D03*
X006029Y004752D03*
X006029Y003084D03*
D84*
X006002Y003137D03*
X008471Y003137D03*
D85*
X008484Y003151D03*
X005989Y003151D03*
D86*
X005982Y003164D03*
X005969Y003191D03*
X005955Y003204D03*
X005955Y003218D03*
X005942Y003231D03*
X005942Y003244D03*
X005889Y003351D03*
X005889Y004485D03*
X005942Y004592D03*
X005942Y004606D03*
X005955Y004619D03*
X005955Y004632D03*
X008518Y004632D03*
X008518Y004619D03*
X008531Y004606D03*
X008531Y004592D03*
X008558Y004552D03*
X008558Y004539D03*
X008571Y004525D03*
X008571Y004512D03*
X008585Y004485D03*
X008598Y004459D03*
X008598Y003378D03*
X008585Y003351D03*
X008571Y003324D03*
X008571Y003311D03*
X008531Y003244D03*
X008531Y003231D03*
X008518Y003218D03*
X008518Y003204D03*
X008504Y003191D03*
X008491Y003164D03*
D87*
X008544Y003258D03*
X008544Y003271D03*
X008544Y004566D03*
X008544Y004579D03*
X006382Y004152D03*
X005875Y004459D03*
X005915Y004539D03*
X005915Y004552D03*
X005929Y004566D03*
X005929Y004579D03*
X005875Y003378D03*
X005929Y003271D03*
X005929Y003258D03*
D88*
X005915Y003284D03*
D89*
X005969Y004646D03*
X008504Y004646D03*
X008558Y003284D03*
D90*
X005915Y003298D03*
D91*
X005982Y004672D03*
X008491Y004672D03*
X008558Y003298D03*
D92*
X005902Y003311D03*
X005902Y003324D03*
X005902Y004512D03*
X005902Y004525D03*
D93*
X005895Y004499D03*
X005882Y004472D03*
X005869Y004445D03*
X005869Y004432D03*
X005855Y004419D03*
X005855Y004405D03*
X005828Y004325D03*
X006362Y004125D03*
X006362Y003711D03*
X006362Y003698D03*
X005828Y003511D03*
X005842Y003471D03*
X005855Y003418D03*
X005869Y003404D03*
X005869Y003391D03*
X005882Y003364D03*
X005895Y003338D03*
X008578Y003338D03*
X008591Y003364D03*
X008605Y003391D03*
X008605Y003404D03*
X008618Y003418D03*
X008631Y003471D03*
X008618Y004405D03*
X008618Y004419D03*
X008605Y004432D03*
X008605Y004445D03*
X008591Y004472D03*
X008578Y004499D03*
D94*
X006729Y003391D03*
D95*
X006729Y003404D03*
D96*
X006729Y003418D03*
D97*
X005855Y003431D03*
X005842Y004365D03*
X008631Y004365D03*
X008618Y003431D03*
D98*
X006729Y003431D03*
D99*
X006349Y004098D03*
X005855Y004392D03*
X005855Y003444D03*
X008618Y003444D03*
X008618Y004392D03*
D100*
X006729Y003444D03*
D101*
X005848Y003458D03*
X005808Y003565D03*
X005808Y003605D03*
X005808Y004232D03*
X005808Y004245D03*
X005808Y004259D03*
X005808Y004272D03*
X005848Y004379D03*
X008638Y004352D03*
X008638Y004339D03*
X008651Y004312D03*
X008651Y004299D03*
X008651Y004285D03*
X008651Y003525D03*
X008638Y003498D03*
X008638Y003484D03*
D102*
X006729Y003458D03*
D103*
X006356Y003725D03*
X006342Y003738D03*
X006342Y003751D03*
X006329Y003778D03*
X006329Y004045D03*
X006329Y004058D03*
X006342Y004085D03*
X006356Y004112D03*
X005822Y004285D03*
X005822Y004299D03*
X005822Y004312D03*
X005795Y004205D03*
X005795Y004192D03*
X005795Y004178D03*
X005795Y003658D03*
X005795Y003645D03*
X005795Y003631D03*
X005822Y003551D03*
X005822Y003538D03*
X005822Y003525D03*
X008625Y003458D03*
X008625Y004379D03*
D104*
X006736Y003471D03*
D105*
X006316Y003818D03*
X005782Y003725D03*
X005782Y003711D03*
X005835Y003498D03*
X005835Y003484D03*
X005782Y004112D03*
X005782Y004125D03*
X005835Y004339D03*
X005835Y004352D03*
D106*
X006729Y003484D03*
D107*
X006729Y003498D03*
D108*
X006729Y003511D03*
X006729Y004325D03*
D109*
X008645Y004325D03*
X008645Y003511D03*
D110*
X006736Y003525D03*
D111*
X007564Y003538D03*
D112*
X007557Y003551D03*
D113*
X007557Y003565D03*
X007557Y004272D03*
D114*
X005808Y003578D03*
D115*
X007550Y003578D03*
D116*
X005808Y003591D03*
D117*
X006509Y003591D03*
D118*
X007764Y003591D03*
D119*
X007790Y003605D03*
D120*
X006336Y003765D03*
X006322Y003791D03*
X006322Y003805D03*
X006322Y004018D03*
X006322Y004032D03*
X005788Y004138D03*
X005788Y004152D03*
X005788Y004165D03*
X005802Y004219D03*
X005775Y004085D03*
X005775Y004058D03*
X005775Y004045D03*
X005775Y004032D03*
X005775Y003805D03*
X005775Y003791D03*
X005775Y003778D03*
X005775Y003765D03*
X005775Y003751D03*
X005775Y003738D03*
X005788Y003698D03*
X005788Y003685D03*
X005788Y003671D03*
X005802Y003618D03*
D121*
X007810Y003618D03*
X007824Y004205D03*
D122*
X007830Y003631D03*
D123*
X007844Y003645D03*
X007844Y004192D03*
D124*
X007857Y003658D03*
D125*
X007870Y003671D03*
X007870Y004152D03*
D126*
X006376Y004138D03*
X006376Y003685D03*
D127*
X007877Y003685D03*
D128*
X007884Y003698D03*
X007884Y004138D03*
D129*
X007897Y004112D03*
X007897Y003725D03*
X007897Y003711D03*
D130*
X005768Y003818D03*
X005768Y003831D03*
X005768Y003845D03*
X005768Y003858D03*
X005768Y003872D03*
X005768Y003885D03*
X005768Y003898D03*
X005768Y003912D03*
X005768Y003925D03*
X005768Y003938D03*
X005768Y003952D03*
X005768Y003965D03*
X005768Y003978D03*
X005768Y003992D03*
X005768Y004005D03*
X005768Y004018D03*
D131*
X006309Y004005D03*
X006309Y003992D03*
X006309Y003978D03*
X006309Y003858D03*
X006309Y003845D03*
X006309Y003831D03*
D132*
X006302Y003872D03*
X006302Y003885D03*
X006302Y003898D03*
X006302Y003925D03*
X006302Y003938D03*
X006302Y003952D03*
X006302Y003965D03*
D133*
X006296Y003912D03*
D134*
X006336Y004072D03*
X005775Y004072D03*
D135*
X007904Y004085D03*
D136*
X005775Y004098D03*
D137*
X007904Y004098D03*
D138*
X007890Y004125D03*
D139*
X007864Y004165D03*
D140*
X007850Y004178D03*
D141*
X007804Y004219D03*
D142*
X006489Y004232D03*
D143*
X007784Y004232D03*
D144*
X007543Y004245D03*
D145*
X007550Y004259D03*
D146*
X006729Y004285D03*
D147*
X006729Y004299D03*
D148*
X006729Y004365D03*
D149*
X006729Y004379D03*
D150*
X006736Y004392D03*
D151*
X006729Y004405D03*
X007236Y005486D03*
D152*
X006202Y004953D03*
D153*
X007236Y005326D03*
D154*
X007237Y005340D03*
D155*
X007237Y005380D03*
D156*
X007236Y005393D03*
D157*
X004168Y008600D02*
X004168Y000600D01*
X019168Y000600D01*
X004168Y000600D01*
X004168Y008600D01*
X006969Y008600D01*
X006969Y008405D01*
X007149Y008225D01*
X007149Y007578D01*
X007127Y007569D01*
X007031Y007474D01*
X006823Y007474D01*
X006822Y007476D01*
X006710Y007589D01*
X006563Y007650D01*
X005774Y007650D01*
X005627Y007589D01*
X005514Y007476D01*
X005453Y007329D01*
X005453Y007129D01*
X005287Y007198D01*
X005049Y007198D01*
X004830Y007107D01*
X004661Y006939D01*
X004570Y006719D01*
X004570Y006481D01*
X004661Y006261D01*
X004830Y006093D01*
X005049Y006002D01*
X005088Y006002D01*
X005290Y005799D01*
X005467Y005726D01*
X005513Y005726D01*
X005514Y005724D01*
X005627Y005611D01*
X005774Y005550D01*
X006088Y005550D01*
X006076Y005539D01*
X006076Y005539D01*
X006072Y005535D01*
X006049Y005525D01*
X006018Y005495D01*
X005996Y005485D01*
X005942Y005432D01*
X005830Y005319D01*
X005816Y005306D01*
X005803Y005293D01*
X005803Y005293D01*
X005750Y005239D01*
X005736Y005226D01*
X005723Y005213D01*
X005710Y005199D01*
X005683Y005172D01*
X005670Y005159D01*
X005660Y005136D01*
X005643Y005119D01*
X005643Y005119D01*
X005630Y005106D01*
X005620Y005083D01*
X005616Y005079D01*
X005603Y005066D01*
X005603Y005066D01*
X005589Y005052D01*
X005580Y005030D01*
X005576Y005026D01*
X005563Y005012D01*
X005553Y004990D01*
X005536Y004972D01*
X005527Y004950D01*
X005523Y004946D01*
X005513Y004923D01*
X005509Y004919D01*
X005500Y004896D01*
X005496Y004892D01*
X005487Y004870D01*
X005483Y004866D01*
X005473Y004843D01*
X005469Y004839D01*
X005460Y004816D01*
X005456Y004812D01*
X005447Y004789D01*
X005443Y004785D01*
X005433Y004763D01*
X005429Y004759D01*
X005368Y004612D01*
X005368Y004609D01*
X005342Y004545D01*
X005342Y004537D01*
X005328Y004505D01*
X005328Y004484D01*
X005315Y004452D01*
X005315Y004444D01*
X005302Y004412D01*
X005302Y004390D01*
X005288Y004358D01*
X005288Y004324D01*
X005275Y004291D01*
X005275Y004243D01*
X005262Y004211D01*
X005262Y003625D01*
X005275Y003593D01*
X005275Y003545D01*
X005288Y003513D01*
X005288Y003478D01*
X005302Y003446D01*
X005302Y003425D01*
X005315Y003393D01*
X005315Y003385D01*
X005328Y003353D01*
X005328Y003331D01*
X005342Y003299D01*
X005342Y003291D01*
X005368Y003227D01*
X005368Y003225D01*
X005429Y003078D01*
X005433Y003074D01*
X005443Y003051D01*
X005447Y003047D01*
X005456Y003024D01*
X005460Y003020D01*
X005469Y002998D01*
X005473Y002994D01*
X005483Y002971D01*
X005487Y002967D01*
X005496Y002944D01*
X005500Y002940D01*
X005509Y002918D01*
X005513Y002914D01*
X005520Y002897D01*
X004864Y002897D01*
X004829Y002894D01*
X004795Y002888D01*
X004761Y002879D01*
X004728Y002867D01*
X004697Y002852D01*
X004667Y002834D01*
X004638Y002814D01*
X004611Y002792D01*
X004586Y002767D01*
X004564Y002740D01*
X004544Y002712D01*
X004526Y002682D01*
X004512Y002650D01*
X004500Y002617D01*
X004491Y002583D01*
X004485Y002549D01*
X004482Y002514D01*
X004482Y001046D01*
X004485Y001011D01*
X004491Y000977D01*
X004500Y000943D01*
X004512Y000910D01*
X004526Y000878D01*
X004544Y000848D01*
X004564Y000820D01*
X004586Y000793D01*
X004611Y000768D01*
X004638Y000746D01*
X004667Y000726D01*
X004697Y000708D01*
X004728Y000693D01*
X004761Y000681D01*
X004795Y000672D01*
X004829Y000666D01*
X004864Y000663D01*
X009710Y000663D01*
X009745Y000666D01*
X009780Y000672D01*
X009813Y000681D01*
X009846Y000693D01*
X009878Y000708D01*
X009908Y000726D01*
X009937Y000746D01*
X009963Y000768D01*
X009988Y000793D01*
X010011Y000820D01*
X010031Y000848D01*
X010048Y000878D01*
X010063Y000910D01*
X010075Y000943D01*
X010084Y000977D01*
X010090Y001011D01*
X010093Y001046D01*
X010093Y002514D01*
X010090Y002549D01*
X010084Y002583D01*
X010075Y002617D01*
X010063Y002650D01*
X010048Y002682D01*
X010031Y002712D01*
X010011Y002740D01*
X009988Y002767D01*
X009963Y002792D01*
X009937Y002814D01*
X009908Y002834D01*
X009878Y002852D01*
X009846Y002867D01*
X009813Y002879D01*
X009780Y002888D01*
X009745Y002894D01*
X009710Y002897D01*
X008953Y002897D01*
X008960Y002914D01*
X008964Y002918D01*
X008973Y002940D01*
X008977Y002944D01*
X008986Y002967D01*
X008990Y002971D01*
X009000Y002994D01*
X009004Y002998D01*
X009013Y003020D01*
X009017Y003024D01*
X009026Y003047D01*
X009030Y003051D01*
X009040Y003074D01*
X009044Y003078D01*
X009105Y003225D01*
X009105Y003227D01*
X009131Y003291D01*
X009131Y003299D01*
X009145Y003331D01*
X009145Y003353D01*
X009158Y003385D01*
X009158Y003393D01*
X009171Y003425D01*
X009171Y003446D01*
X009185Y003478D01*
X009185Y003513D01*
X009198Y003545D01*
X009198Y003593D01*
X009211Y003625D01*
X009211Y003811D01*
X009172Y003905D01*
X009211Y003999D01*
X009211Y004211D01*
X009198Y004243D01*
X009198Y004291D01*
X009185Y004324D01*
X009185Y004358D01*
X009171Y004390D01*
X009171Y004412D01*
X009158Y004444D01*
X009158Y004452D01*
X009145Y004484D01*
X009145Y004505D01*
X009131Y004537D01*
X009131Y004545D01*
X009105Y004609D01*
X009105Y004612D01*
X009044Y004759D01*
X009040Y004763D01*
X009030Y004785D01*
X009026Y004789D01*
X009017Y004812D01*
X009013Y004816D01*
X009004Y004839D01*
X009000Y004843D01*
X008990Y004866D01*
X008986Y004869D01*
X008977Y004892D01*
X008973Y004896D01*
X008964Y004919D01*
X008960Y004923D01*
X008950Y004946D01*
X008946Y004950D01*
X008937Y004972D01*
X008924Y004986D01*
X008920Y004990D01*
X008910Y005012D01*
X008897Y005026D01*
X008893Y005030D01*
X008884Y005052D01*
X008870Y005066D01*
X008857Y005079D01*
X008853Y005083D01*
X008844Y005106D01*
X008830Y005119D01*
X008830Y005119D01*
X008817Y005132D01*
X008817Y005132D01*
X008813Y005136D01*
X008804Y005159D01*
X008790Y005172D01*
X008777Y005186D01*
X008763Y005199D01*
X008750Y005213D01*
X008638Y005325D01*
X008638Y005325D01*
X008531Y005432D01*
X008477Y005485D01*
X008455Y005495D01*
X008424Y005525D01*
X008401Y005535D01*
X008371Y005565D01*
X008348Y005575D01*
X008344Y005579D01*
X008331Y005592D01*
X008308Y005601D01*
X008291Y005619D01*
X008268Y005628D01*
X008264Y005632D01*
X008241Y005641D01*
X008237Y005645D01*
X008228Y005649D01*
X008322Y005743D01*
X008323Y005746D01*
X008513Y005746D01*
X008514Y005743D01*
X008627Y005631D01*
X008774Y005570D01*
X009563Y005570D01*
X009710Y005631D01*
X009822Y005743D01*
X009823Y005746D01*
X017344Y005746D01*
X017434Y005656D01*
X017275Y005497D01*
X017168Y005239D01*
X017168Y005746D01*
X017378Y005600D02*
X009635Y005600D01*
X009668Y005614D02*
X009668Y002897D01*
X009168Y002897D02*
X009168Y003418D01*
X009201Y003600D02*
X016489Y003600D01*
X016668Y003779D02*
X016668Y005746D01*
X016168Y005746D02*
X016168Y003279D01*
X015989Y003100D02*
X009053Y003100D01*
X010079Y002600D02*
X010858Y002600D01*
X010827Y002569D02*
X010721Y002313D01*
X010721Y002037D01*
X010827Y001781D01*
X010996Y001611D01*
X011009Y001580D01*
X011261Y001328D01*
X011396Y001193D01*
X011573Y001120D01*
X015764Y001120D01*
X015940Y001193D01*
X017363Y002616D01*
X017378Y002600D01*
X017347Y002600D01*
X017378Y002600D02*
X017275Y002497D01*
X017168Y002239D01*
X017168Y002421D01*
X017168Y002239D02*
X017168Y001961D01*
X017168Y000600D01*
X016668Y000600D02*
X016668Y001921D01*
X016847Y002100D02*
X017168Y002100D01*
X017168Y001961D02*
X017275Y001703D01*
X017472Y001507D01*
X017729Y001400D01*
X018608Y001400D01*
X018865Y001507D01*
X019062Y001703D01*
X019168Y001961D01*
X019168Y002239D01*
X019062Y002497D01*
X018958Y002600D01*
X019062Y002703D01*
X019168Y002961D01*
X019168Y003239D01*
X019062Y003497D01*
X018958Y003600D01*
X019062Y003703D01*
X019168Y003961D01*
X019168Y004239D01*
X019062Y004497D01*
X018958Y004600D01*
X019062Y004703D01*
X019168Y004961D01*
X019168Y005239D01*
X019062Y005497D01*
X018865Y005693D01*
X018608Y005800D01*
X018605Y005800D01*
X018575Y005872D01*
X018440Y006007D01*
X017814Y006633D01*
X017638Y006706D01*
X013953Y006706D01*
X014440Y007193D01*
X014575Y007328D01*
X014648Y007505D01*
X014648Y008600D01*
X019168Y008600D01*
X019168Y000600D01*
X018668Y000600D02*
X018668Y001425D01*
X018958Y001600D02*
X019168Y001600D01*
X019168Y001100D02*
X010093Y001100D01*
X009668Y000663D02*
X009668Y000600D01*
X009168Y000600D02*
X009168Y000663D01*
X008668Y000663D02*
X008668Y000600D01*
X008168Y000600D02*
X008168Y000663D01*
X007668Y000663D02*
X007668Y000600D01*
X007168Y000600D02*
X007168Y000663D01*
X006668Y000663D02*
X006668Y000600D01*
X006168Y000600D02*
X006168Y000663D01*
X005668Y000663D02*
X005668Y000600D01*
X005168Y000600D02*
X005168Y000663D01*
X004668Y000600D02*
X004668Y000725D01*
X004482Y001100D02*
X004168Y001100D01*
X004168Y001600D02*
X004482Y001600D01*
X004482Y002100D02*
X004168Y002100D01*
X004168Y002600D02*
X004495Y002600D01*
X004668Y002835D02*
X004668Y006254D01*
X004822Y006100D02*
X004168Y006100D01*
X004168Y005600D02*
X005654Y005600D01*
X005668Y005594D02*
X005668Y005156D01*
X005710Y005199D02*
X005710Y005199D01*
X005627Y005100D02*
X004168Y005100D01*
X004168Y004600D02*
X005365Y004600D01*
X005262Y004100D02*
X004168Y004100D01*
X004168Y003600D02*
X005272Y003600D01*
X005420Y003100D02*
X004168Y003100D01*
X005168Y002897D02*
X005168Y005921D01*
X005562Y006206D02*
X005168Y006600D01*
X005562Y006206D02*
X006168Y006206D01*
X006883Y006100D02*
X006953Y006100D01*
X006953Y005893D02*
X006953Y006514D01*
X006883Y006514D01*
X006883Y005880D01*
X006911Y005880D01*
X006943Y005893D01*
X006953Y005893D01*
X007668Y006226D02*
X009168Y006226D01*
X017542Y006226D01*
X018168Y005600D01*
X018168Y005100D01*
X017378Y004600D02*
X009109Y004600D01*
X009168Y004419D02*
X009168Y005570D01*
X008702Y005600D02*
X008311Y005600D01*
X008344Y005579D02*
X008344Y005579D01*
X008531Y005432D02*
X008531Y005432D01*
X008668Y005294D02*
X008668Y005614D01*
X008846Y005100D02*
X017168Y005100D01*
X017168Y005239D02*
X017168Y004961D01*
X017168Y004279D01*
X017196Y004307D02*
X015544Y002655D01*
X013424Y002655D01*
X013314Y002764D01*
X013059Y002870D01*
X012782Y002870D01*
X012544Y002772D01*
X012307Y002870D01*
X012030Y002870D01*
X011792Y002772D01*
X011555Y002870D01*
X011278Y002870D01*
X011022Y002764D01*
X010827Y002569D01*
X011168Y002825D02*
X011168Y005746D01*
X010668Y005746D02*
X010668Y000600D01*
X010168Y000600D02*
X010168Y005746D01*
X011668Y005746D02*
X011668Y002823D01*
X012168Y002870D02*
X012168Y005746D01*
X012668Y005746D02*
X012668Y002823D01*
X013168Y002825D02*
X013168Y005746D01*
X013668Y005746D02*
X013668Y002655D01*
X014168Y002655D02*
X014168Y005746D01*
X014668Y005746D02*
X014668Y002655D01*
X015168Y002655D02*
X015168Y005746D01*
X015668Y005746D02*
X015668Y002779D01*
X015743Y002175D02*
X017668Y004100D01*
X018168Y004100D01*
X017378Y004600D02*
X017275Y004497D01*
X017196Y004307D01*
X016989Y004100D02*
X009211Y004100D01*
X007779Y004679D02*
X007295Y004679D01*
X007290Y004684D01*
X007267Y004694D01*
X007263Y004698D01*
X007263Y004698D01*
X007250Y004711D01*
X007227Y004720D01*
X007210Y004738D01*
X007063Y004799D01*
X007060Y004799D01*
X006996Y004825D01*
X006988Y004825D01*
X006987Y004826D01*
X006988Y004826D01*
X007009Y004826D01*
X007041Y004840D01*
X007063Y004840D01*
X007095Y004853D01*
X007129Y004853D01*
X007161Y004866D01*
X007209Y004866D01*
X007237Y004877D01*
X007264Y004866D01*
X007312Y004866D01*
X007344Y004853D01*
X007378Y004853D01*
X007411Y004840D01*
X007432Y004840D01*
X007464Y004826D01*
X007485Y004826D01*
X007517Y004813D01*
X007525Y004813D01*
X007557Y004799D01*
X007560Y004799D01*
X007568Y004796D01*
X007570Y004794D01*
X007593Y004784D01*
X007597Y004780D01*
X007620Y004771D01*
X007624Y004767D01*
X007647Y004758D01*
X007651Y004754D01*
X007673Y004744D01*
X007677Y004740D01*
X007700Y004731D01*
X007704Y004727D01*
X007727Y004718D01*
X007731Y004714D01*
X007744Y004700D01*
X007767Y004691D01*
X007771Y004687D01*
X007779Y004679D01*
X007668Y004679D02*
X007668Y004746D01*
X007168Y004755D02*
X007168Y004866D01*
X005942Y005432D02*
X005942Y005432D01*
X004570Y006600D02*
X004168Y006600D01*
X004668Y006946D02*
X004668Y008600D01*
X005168Y008600D02*
X005168Y007198D01*
X004822Y007100D02*
X004168Y007100D01*
X004168Y007600D02*
X005654Y007600D01*
X005668Y007606D02*
X005668Y008600D01*
X006168Y008600D02*
X006168Y007650D01*
X006668Y007606D02*
X006668Y008600D01*
X007149Y008100D02*
X004168Y008100D01*
X006168Y006994D02*
X007668Y006994D01*
X007668Y006974D01*
X007629Y006974D01*
X007629Y008679D01*
X008168Y008285D02*
X008168Y007586D01*
X008135Y007600D02*
X008702Y007600D01*
X008668Y007586D02*
X008668Y008600D01*
X008289Y008600D02*
X008289Y008405D01*
X008109Y008225D01*
X008109Y007611D01*
X008210Y007569D01*
X008322Y007457D01*
X008383Y007309D01*
X008383Y006706D01*
X008453Y006706D01*
X008453Y007309D01*
X008514Y007457D01*
X008627Y007569D01*
X008774Y007630D01*
X009563Y007630D01*
X009710Y007569D01*
X009822Y007457D01*
X009823Y007454D01*
X013344Y007454D01*
X013688Y007799D01*
X013688Y008600D01*
X008289Y008600D01*
X008109Y008100D02*
X013688Y008100D01*
X013668Y007779D02*
X013668Y008600D01*
X013168Y008600D02*
X013168Y007454D01*
X013489Y007600D02*
X009635Y007600D01*
X009668Y007586D02*
X009668Y008600D01*
X009168Y008600D02*
X009168Y007630D01*
X009168Y006974D02*
X013542Y006974D01*
X014168Y007600D01*
X014168Y009844D01*
X014924Y010600D01*
X015168Y008600D02*
X015168Y006706D01*
X014668Y006706D02*
X014668Y008600D01*
X014648Y008100D02*
X019168Y008100D01*
X018668Y008600D02*
X018668Y005775D01*
X018958Y005600D02*
X019168Y005600D01*
X019168Y005100D02*
X019168Y005100D01*
X019168Y004600D02*
X018958Y004600D01*
X019168Y004100D02*
X019168Y004100D01*
X019168Y003600D02*
X018958Y003600D01*
X019168Y003100D02*
X019168Y003100D01*
X019168Y002600D02*
X018958Y002600D01*
X019168Y002100D02*
X019168Y002100D01*
X018168Y001400D02*
X018168Y000600D01*
X017668Y000600D02*
X017668Y001425D01*
X017378Y001600D02*
X016347Y001600D01*
X016168Y001421D02*
X016168Y000600D01*
X015668Y000600D02*
X015668Y001120D01*
X015168Y001120D02*
X015168Y000600D01*
X014668Y000600D02*
X014668Y001120D01*
X014168Y001120D02*
X014168Y000600D01*
X013668Y000600D02*
X013668Y001120D01*
X013168Y001120D02*
X013168Y000600D01*
X012668Y000600D02*
X012668Y001120D01*
X012168Y001120D02*
X012168Y000600D01*
X011668Y000600D02*
X011668Y001120D01*
X011668Y001600D02*
X015668Y001600D01*
X017168Y003100D01*
X018168Y003100D01*
X017378Y004600D02*
X017275Y004703D01*
X017168Y004961D01*
X018347Y006100D02*
X019168Y006100D01*
X019168Y006600D02*
X017847Y006600D01*
X017668Y006693D02*
X017668Y008600D01*
X017168Y008600D02*
X017168Y006706D01*
X016668Y006706D02*
X016668Y008600D01*
X016168Y008600D02*
X016168Y006706D01*
X015668Y006706D02*
X015668Y008600D01*
X014648Y007600D02*
X019168Y007600D01*
X019168Y007100D02*
X014347Y007100D01*
X014168Y006921D02*
X014168Y006706D01*
X012668Y007454D02*
X012668Y008600D01*
X012168Y008600D02*
X012168Y007454D01*
X011668Y007454D02*
X011668Y008600D01*
X011168Y008600D02*
X011168Y007454D01*
X010668Y007454D02*
X010668Y008600D01*
X010168Y008600D02*
X010168Y007454D01*
X008453Y007100D02*
X008383Y007100D01*
X007149Y007600D02*
X006683Y007600D01*
X008237Y010191D02*
X004653Y010191D01*
X008237Y010191D02*
X009934Y011387D01*
X007629Y012679D02*
X007668Y013143D01*
X012168Y013143D01*
X012168Y013100D01*
X007668Y013143D02*
X004653Y013143D01*
X018168Y008600D02*
X018168Y006279D01*
X015743Y002175D02*
X012920Y002175D01*
X011668Y001600D02*
X011416Y001852D01*
X011416Y002175D01*
X010721Y002100D02*
X010093Y002100D01*
X010093Y001600D02*
X011001Y001600D01*
X011168Y001421D02*
X011168Y000600D01*
X007647Y003079D02*
X007624Y003069D01*
X007620Y003066D01*
X007597Y003056D01*
X007593Y003052D01*
X007570Y003043D01*
X007568Y003041D01*
X007560Y003037D01*
X007557Y003037D01*
X007525Y003024D01*
X007517Y003024D01*
X007485Y003010D01*
X007464Y003010D01*
X007432Y002997D01*
X007411Y002997D01*
X007378Y002984D01*
X007344Y002984D01*
X007312Y002970D01*
X007264Y002970D01*
X007237Y002959D01*
X007209Y002970D01*
X007161Y002970D01*
X007129Y002984D01*
X007095Y002984D01*
X007063Y002997D01*
X007041Y002997D01*
X007009Y003010D01*
X006999Y003010D01*
X007001Y003011D01*
X007009Y003011D01*
X007156Y003072D01*
X007160Y003076D01*
X007183Y003085D01*
X007187Y003089D01*
X007210Y003099D01*
X007214Y003103D01*
X007236Y003112D01*
X007240Y003116D01*
X007263Y003125D01*
X007269Y003131D01*
X007739Y003131D01*
X007727Y003119D01*
X007704Y003110D01*
X007700Y003106D01*
X007677Y003096D01*
X007673Y003092D01*
X007651Y003083D01*
X007647Y003079D01*
X007668Y003090D02*
X007668Y003131D01*
X007686Y003100D02*
X007211Y003100D01*
X007168Y003079D02*
X007168Y002970D01*
D158*
X005168Y006600D03*
D159*
X012168Y013100D03*
D160*
X011149Y013104D03*
X009968Y013104D03*
X008786Y013104D03*
X007605Y013301D03*
X007605Y014285D03*
X008786Y014285D03*
X009968Y014285D03*
X011149Y014285D03*
X012330Y014285D03*
X013511Y014285D03*
X014692Y014285D03*
X015873Y014285D03*
X015873Y013104D03*
X014692Y013104D03*
X013511Y013104D03*
M02*
