G75*
%MOIN*%
%OFA0B0*%
%FSLAX24Y24*%
%IPPOS*%
%LPD*%
%AMOC8*
5,1,8,0,0,1.08239X$1,22.5*
%
%ADD10C,0.0000*%
%ADD11C,0.0050*%
D10*
X003668Y000100D02*
X003668Y016096D01*
X019668Y016096D01*
X019668Y000100D01*
X003668Y000100D01*
X009412Y010206D02*
X010987Y010206D01*
X011026Y010208D01*
X011064Y010214D01*
X011101Y010223D01*
X011138Y010236D01*
X011173Y010253D01*
X011206Y010272D01*
X011237Y010295D01*
X011266Y010321D01*
X011292Y010350D01*
X011315Y010381D01*
X011334Y010414D01*
X011351Y010449D01*
X011364Y010486D01*
X011373Y010523D01*
X011379Y010561D01*
X011381Y010600D01*
X011379Y010639D01*
X011373Y010677D01*
X011364Y010714D01*
X011351Y010751D01*
X011334Y010786D01*
X011315Y010819D01*
X011292Y010850D01*
X011266Y010879D01*
X011237Y010905D01*
X011206Y010928D01*
X011173Y010947D01*
X011138Y010964D01*
X011101Y010977D01*
X011064Y010986D01*
X011026Y010992D01*
X010987Y010994D01*
X009412Y010994D01*
X009373Y010992D01*
X009335Y010986D01*
X009298Y010977D01*
X009261Y010964D01*
X009226Y010947D01*
X009193Y010928D01*
X009162Y010905D01*
X009133Y010879D01*
X009107Y010850D01*
X009084Y010819D01*
X009065Y010786D01*
X009048Y010751D01*
X009035Y010714D01*
X009026Y010677D01*
X009020Y010639D01*
X009018Y010600D01*
X009020Y010561D01*
X009026Y010523D01*
X009035Y010486D01*
X009048Y010449D01*
X009065Y010414D01*
X009084Y010381D01*
X009107Y010350D01*
X009133Y010321D01*
X009162Y010295D01*
X009193Y010272D01*
X009226Y010253D01*
X009261Y010236D01*
X009298Y010223D01*
X009335Y010214D01*
X009373Y010208D01*
X009412Y010206D01*
X013349Y010206D02*
X014924Y010206D01*
X014963Y010208D01*
X015001Y010214D01*
X015038Y010223D01*
X015075Y010236D01*
X015110Y010253D01*
X015143Y010272D01*
X015174Y010295D01*
X015203Y010321D01*
X015229Y010350D01*
X015252Y010381D01*
X015271Y010414D01*
X015288Y010449D01*
X015301Y010486D01*
X015310Y010523D01*
X015316Y010561D01*
X015318Y010600D01*
X015316Y010639D01*
X015310Y010677D01*
X015301Y010714D01*
X015288Y010751D01*
X015271Y010786D01*
X015252Y010819D01*
X015229Y010850D01*
X015203Y010879D01*
X015174Y010905D01*
X015143Y010928D01*
X015110Y010947D01*
X015075Y010964D01*
X015038Y010977D01*
X015001Y010986D01*
X014963Y010992D01*
X014924Y010994D01*
X013349Y010994D01*
X013310Y010992D01*
X013272Y010986D01*
X013235Y010977D01*
X013198Y010964D01*
X013163Y010947D01*
X013130Y010928D01*
X013099Y010905D01*
X013070Y010879D01*
X013044Y010850D01*
X013021Y010819D01*
X013002Y010786D01*
X012985Y010751D01*
X012972Y010714D01*
X012963Y010677D01*
X012957Y010639D01*
X012955Y010600D01*
X012957Y010561D01*
X012963Y010523D01*
X012972Y010486D01*
X012985Y010449D01*
X013002Y010414D01*
X013021Y010381D01*
X013044Y010350D01*
X013070Y010321D01*
X013099Y010295D01*
X013130Y010272D01*
X013163Y010253D01*
X013198Y010236D01*
X013235Y010223D01*
X013272Y010214D01*
X013310Y010208D01*
X013349Y010206D01*
D11*
X017503Y010781D02*
X019668Y010781D01*
X019668Y011569D02*
X017503Y011569D01*
X017503Y010781D01*
X005834Y010781D02*
X005834Y009797D01*
X003668Y009797D01*
X003668Y010781D02*
X005834Y010781D01*
M02*
