999
dxfrw 0.5.10
0
SECTION
2
HEADER
9
$ACADVER
1
AC1021
9
$HANDSEED
5
20000
9
$DWGCODEPAGE
3
ANSI_1252
9
$INSBASE
10
0
20
0
30
0
9
$EXTMIN
10
-0.037030688012
20
-102
30
0
9
$EXTMAX
10
306.5
20
80
30
0
9
$LIMMIN
10
0
20
0
9
$LIMMAX
10
420
20
297
9
$ORTHOMODE
70
0
9
$LTSCALE
40
1
9
$TEXTSTYLE
7
STANDARD
9
$CLAYER
8
KT_conn
9
$DIMASZ
40
2.5
9
$DIMLFAC
40
1
9
$DIMSCALE
40
1
9
$DIMEXO
40
0.625
9
$DIMEXE
40
1.25
9
$DIMTXT
40
2.5
9
$DIMTSZ
40
0
9
$DIMAUNIT
70
0
9
$DIMADEC
70
0
9
$DIMLUNIT
70
2
9
$DIMSTYLE
2
STANDARD
9
$DIMGAP
40
0.625
9
$DIMTIH
70
0
9
$LUNITS
70
2
9
$LUPREC
70
4
9
$AUNITS
70
0
9
$AUPREC
70
2
9
$SPLINESEGS
70
8
9
$GRIDMODE
70
1
9
$SNAPSTYLE
70
0
9
$PINSBASE
10
0
20
0
30
0
9
$PLIMMIN
10
0
20
0
9
$PLIMMAX
10
210
20
297
9
$INSUNITS
70
4
9
$PSVPSCALE
40
1
0
ENDSEC
0
SECTION
2
CLASSES
0
ENDSEC
0
SECTION
2
TABLES
0
TABLE
2
VPORT
5
8
330
0
100
AcDbSymbolTable
70
1
0
VPORT
5
31
330
2
100
AcDbSymbolTableRecord
100
AcDbViewportTableRecord
2
*ACTIVE
70
0
10
0
20
0
11
1
21
1
12
150.813715696
22
13.2408881208
13
0
23
0
14
10
24
10
15
10
25
10
16
0
26
0
36
1
17
0
27
0
37
0
40
204.439312585
41
2.04015544041
42
50
43
0
44
0
50
0
51
0
71
0
72
100
73
1
74
3
75
0
76
1
77
0
78
0
281
0
65
1
110
0
120
0
130
0
111
1
121
0
131
0
112
0
122
1
132
0
79
0
146
0
348
10020
60
7
61
5
292
1
282
1
141
0
142
0
63
250
421
3358443
0
ENDTAB
0
TABLE
2
LTYPE
5
5
330
0
100
AcDbSymbolTable
70
4
0
LTYPE
5
14
330
5
100
AcDbSymbolTableRecord
100
AcDbLinetypeTableRecord
2
ByBlock
70
0
3

72
65
73
0
40
0
0
LTYPE
5
15
330
5
100
AcDbSymbolTableRecord
100
AcDbLinetypeTableRecord
2
ByLayer
70
0
3

72
65
73
0
40
0
0
LTYPE
5
16
330
5
100
AcDbSymbolTableRecord
100
AcDbLinetypeTableRecord
2
Continuous
70
0
3
Solid line
72
65
73
0
40
0
0
LTYPE
5
32
330
5
100
AcDbSymbolTableRecord
100
AcDbLinetypeTableRecord
2
DOT
70
0
3
Dot . . . . . . . . . . . . . . . . . . . . . .
72
65
73
2
40
6.35
49
0
74
0
49
-6.35
74
0
0
LTYPE
5
33
330
5
100
AcDbSymbolTableRecord
100
AcDbLinetypeTableRecord
2
DOT2
70
0
3
Dot (.5x) .....................................
72
65
73
2
40
3.175
49
0
74
0
49
-3.175
74
0
0
LTYPE
5
34
330
5
100
AcDbSymbolTableRecord
100
AcDbLinetypeTableRecord
2
DOTX2
70
0
3
Dot (2x) .  .  .  .  .  .  .  .  .  .  .  .  .
72
65
73
2
40
12.7
49
0
74
0
49
-12.7
74
0
0
LTYPE
5
35
330
5
100
AcDbSymbolTableRecord
100
AcDbLinetypeTableRecord
2
DASHED
70
0
3
Dot . . . . . . . . . . . . . . . . . . . . . .
72
65
73
2
40
19.05
49
12.7
74
0
49
-6.35
74
0
0
LTYPE
5
36
330
5
100
AcDbSymbolTableRecord
100
AcDbLinetypeTableRecord
2
DASHED2
70
0
3
Dashed (.5x) _ _ _ _ _ _ _ _ _ _ _ _ _ _ _ _ _
72
65
73
2
40
9.525
49
6.35
74
0
49
-3.175
74
0
0
LTYPE
5
37
330
5
100
AcDbSymbolTableRecord
100
AcDbLinetypeTableRecord
2
DASHEDX2
70
0
3
Dashed (2x) ____  ____  ____  ____  ____  ___
72
65
73
2
40
38.1
49
25.4
74
0
49
-12.7
74
0
0
LTYPE
5
38
330
5
100
AcDbSymbolTableRecord
100
AcDbLinetypeTableRecord
2
DASHDOT
70
0
3
Dash dot __ . __ . __ . __ . __ . __ . __ . __
72
65
73
4
40
25.4
49
12.7
74
0
49
-6.35
74
0
49
0
74
0
49
-6.35
74
0
0
LTYPE
5
39
330
5
100
AcDbSymbolTableRecord
100
AcDbLinetypeTableRecord
2
DASHDOT2
70
0
3
Dash dot (.5x) _._._._._._._._._._._._._._._.
72
65
73
4
40
12.7
49
6.35
74
0
49
-3.175
74
0
49
0
74
0
49
-3.175
74
0
0
LTYPE
5
3A
330
5
100
AcDbSymbolTableRecord
100
AcDbLinetypeTableRecord
2
DASHDOTX2
70
0
3
Dash dot (2x) ____  .  ____  .  ____  .  ___
72
65
73
4
40
50.8
49
25.4
74
0
49
-12.7
74
0
49
0
74
0
49
-12.7
74
0
0
LTYPE
5
3B
330
5
100
AcDbSymbolTableRecord
100
AcDbLinetypeTableRecord
2
DIVIDE
70
0
3
Divide ____ . . ____ . . ____ . . ____ . . ____
72
65
73
6
40
31.75
49
12.7
74
0
49
-6.35
74
0
49
0
74
0
49
-6.35
74
0
49
0
74
0
49
-6.35
74
0
0
LTYPE
5
3C
330
5
100
AcDbSymbolTableRecord
100
AcDbLinetypeTableRecord
2
DIVIDE2
70
0
3
Divide (.5x) __..__..__..__..__..__..__..__.._
72
65
73
6
40
15.875
49
6.35
74
0
49
-3.175
74
0
49
0
74
0
49
-3.175
74
0
49
0
74
0
49
-3.175
74
0
0
LTYPE
5
3D
330
5
100
AcDbSymbolTableRecord
100
AcDbLinetypeTableRecord
2
DIVIDEX2
70
0
3
Divide (2x) ________  .  .  ________  .  .  _
72
65
73
6
40
63.5
49
25.4
74
0
49
-12.7
74
0
49
0
74
0
49
-12.7
74
0
49
0
74
0
49
-12.7
74
0
0
LTYPE
5
3E
330
5
100
AcDbSymbolTableRecord
100
AcDbLinetypeTableRecord
2
BORDER
70
0
3
Border __ __ . __ __ . __ __ . __ __ . __ __ .
72
65
73
6
40
44.45
49
12.7
74
0
49
-6.35
74
0
49
12.7
74
0
49
-6.35
74
0
49
0
74
0
49
-6.35
74
0
0
LTYPE
5
3F
330
5
100
AcDbSymbolTableRecord
100
AcDbLinetypeTableRecord
2
BORDER2
70
0
3
Border (.5x) __.__.__.__.__.__.__.__.__.__.__.
72
65
73
6
40
22.225
49
6.35
74
0
49
-3.175
74
0
49
6.35
74
0
49
-3.175
74
0
49
0
74
0
49
-3.175
74
0
0
LTYPE
5
40
330
5
100
AcDbSymbolTableRecord
100
AcDbLinetypeTableRecord
2
BORDERX2
70
0
3
Border (2x) ____  ____  .  ____  ____  .  ___
72
65
73
6
40
88.9
49
25.4
74
0
49
-12.7
74
0
49
25.4
74
0
49
-12.7
74
0
49
0
74
0
49
-12.7
74
0
0
LTYPE
5
41
330
5
100
AcDbSymbolTableRecord
100
AcDbLinetypeTableRecord
2
CENTER
70
0
3
Center ____ _ ____ _ ____ _ ____ _ ____ _ ____
72
65
73
4
40
50.8
49
31.75
74
0
49
-6.35
74
0
49
6.35
74
0
49
-6.35
74
0
0
LTYPE
5
42
330
5
100
AcDbSymbolTableRecord
100
AcDbLinetypeTableRecord
2
CENTER2
70
0
3
Center (.5x) ___ _ ___ _ ___ _ ___ _ ___ _ ___
72
65
73
4
40
28.575
49
19.05
74
0
49
-3.175
74
0
49
3.175
74
0
49
-3.175
74
0
0
LTYPE
5
43
330
5
100
AcDbSymbolTableRecord
100
AcDbLinetypeTableRecord
2
CENTERX2
70
0
3
Center (2x) ________  __  ________  __  _____
72
65
73
4
40
101.6
49
63.5
74
0
49
-12.7
74
0
49
12.7
74
0
49
-12.7
74
0
0
ENDTAB
0
TABLE
2
LAYER
5
2
330
0
100
AcDbSymbolTable
70
1
0
LAYER
5
10
330
2
100
AcDbSymbolTableRecord
100
AcDbLayerTableRecord
2
0
70
4
62
7
6
CONTINUOUS
370
0
390
F
0
LAYER
5
44
330
2
100
AcDbSymbolTableRecord
100
AcDbLayerTableRecord
2
summary
70
0
62
4
6
CONTINUOUS
370
0
390
F
0
LAYER
5
45
330
2
100
AcDbSymbolTableRecord
100
AcDbLayerTableRecord
2
side
70
0
62
7
6
CONTINUOUS
370
0
390
F
0
LAYER
5
46
330
2
100
AcDbSymbolTableRecord
100
AcDbLayerTableRecord
2
side-help
70
0
62
1
6
CONTINUOUS
370
0
390
F
0
LAYER
5
47
330
2
100
AcDbSymbolTableRecord
100
AcDbLayerTableRecord
2
bulkhead
70
0
62
7
6
CONTINUOUS
370
0
390
F
0
LAYER
5
48
330
2
100
AcDbSymbolTableRecord
100
AcDbLayerTableRecord
2
bulkhead-help
70
0
62
1
6
CONTINUOUS
370
0
390
F
0
LAYER
5
49
330
2
100
AcDbSymbolTableRecord
100
AcDbLayerTableRecord
2
bottom
70
0
62
7
6
CONTINUOUS
370
0
390
F
0
LAYER
5
4A
330
2
100
AcDbSymbolTableRecord
100
AcDbLayerTableRecord
2
bottom-help
70
0
62
1
6
CONTINUOUS
370
0
390
F
0
LAYER
5
4B
330
2
100
AcDbSymbolTableRecord
100
AcDbLayerTableRecord
2
top
70
0
62
7
6
CONTINUOUS
370
0
390
F
0
LAYER
5
4C
330
2
100
AcDbSymbolTableRecord
100
AcDbLayerTableRecord
2
top-help
70
0
62
1
6
CONTINUOUS
370
0
390
F
0
LAYER
5
4D
330
2
100
AcDbSymbolTableRecord
100
AcDbLayerTableRecord
2
KT_conn
70
0
62
7
6
CONTINUOUS
370
0
390
F
0
LAYER
5
4E
330
2
100
AcDbSymbolTableRecord
100
AcDbLayerTableRecord
2
KT_conn-help
70
0
62
1
6
CONTINUOUS
370
0
390
F
0
ENDTAB
0
TABLE
2
STYLE
5
3
330
0
100
AcDbSymbolTable
70
3
0
STYLE
5
4F
330
2
100
AcDbSymbolTableRecord
100
AcDbTextStyleTableRecord
2
Standard
70
0
40
0
41
1
50
0
71
0
42
1
3
txt
4

0
ENDTAB
0
TABLE
2
VIEW
5
6
330
0
100
AcDbSymbolTable
70
0
0
ENDTAB
0
TABLE
2
UCS
5
7
330
0
100
AcDbSymbolTable
70
0
0
ENDTAB
0
TABLE
2
APPID
5
9
330
0
100
AcDbSymbolTable
70
1
0
APPID
5
12
330
9
100
AcDbSymbolTableRecord
100
AcDbRegAppTableRecord
2
ACAD
70
0
0
ENDTAB
0
TABLE
2
DIMSTYLE
5
A
330
0
100
AcDbSymbolTable
70
1
100
AcDbDimStyleTable
71
1
0
DIMSTYLE
105
50
330
A
100
AcDbSymbolTableRecord
100
AcDbDimStyleTableRecord
2
Standard
70
0
40
1
41
2.5
42
0.625
43
0.38
44
1.25
45
0
46
0
47
0
48
0
140
2.5
141
0.09
142
0
143
25.4
144
1
145
0
146
1
147
0.625
148
0
71
0
72
0
73
0
74
1
75
0
76
0
77
0
78
0
79
0
170
0
171
2
172
0
173
0
174
0
175
0
176
0
177
0
178
0
179
0
271
4
272
4
273
2
274
2
275
0
276
0
277
2
278
46
279
0
280
0
281
0
282
0
283
1
284
0
285
0
286
0
288
0
289
3
340
Standard
341

371
-2
372
-2
0
ENDTAB
0
TABLE
2
BLOCK_RECORD
5
1
330
0
100
AcDbSymbolTable
70
2
0
BLOCK_RECORD
5
1F
330
1
100
AcDbSymbolTableRecord
100
AcDbBlockTableRecord
2
*Model_Space
70
0
280
1
281
0
0
BLOCK_RECORD
5
1E
330
1
100
AcDbSymbolTableRecord
100
AcDbBlockTableRecord
2
*Paper_Space
70
0
280
1
281
0
0
ENDTAB
0
ENDSEC
0
SECTION
2
BLOCKS
0
BLOCK
5
20
330
1F
100
AcDbEntity
8
0
100
AcDbBlockBegin
2
*Model_Space
70
0
10
0
20
0
30
0
3
*Model_Space
1

0
ENDBLK
5
21
330
1F
100
AcDbEntity
8
0
100
AcDbBlockEnd
0
BLOCK
5
1C
330
1B
100
AcDbEntity
8
0
100
AcDbBlockBegin
2
*Paper_Space
70
0
10
0
20
0
30
0
3
*Paper_Space
1

0
ENDBLK
5
1D
330
1F
100
AcDbEntity
8
0
100
AcDbBlockEnd
0
ENDSEC
0
SECTION
2
ENTITIES
0
LINE
5
51
100
AcDbEntity
8
summary
6
ByLayer
62
256
370
-1
100
AcDbLine
10
300
20
0
11
300
21
80
0
LINE
5
52
100
AcDbEntity
8
summary
6
ByLayer
62
256
370
-1
100
AcDbLine
10
300
20
0
11
450
21
0
0
LINE
5
53
100
AcDbEntity
8
summary
6
ByLayer
62
256
370
-1
100
AcDbLine
10
300
20
80
11
450
21
72.1388331075
0
LINE
5
54
100
AcDbEntity
8
summary
6
ByLayer
62
256
370
-1
100
AcDbLine
10
450
20
0
11
450
21
72.1388331075
0
LINE
5
55
100
AcDbEntity
8
summary
6
ByLayer
62
256
370
-1
100
AcDbLine
10
450
20
0
11
510
21
0
0
LINE
5
56
100
AcDbEntity
8
summary
6
ByLayer
62
256
370
-1
100
AcDbLine
10
510
20
0
11
510
21
40
0
LINE
5
57
100
AcDbEntity
8
summary
6
ByLayer
62
256
370
-1
100
AcDbLine
10
0
20
0
11
0
21
45
0
LINE
5
58
100
AcDbEntity
8
summary
6
ByLayer
62
256
370
-1
100
AcDbLine
10
270
20
50
11
0
21
45
0
LINE
5
59
100
AcDbEntity
8
summary
6
ByLayer
62
256
370
-1
100
AcDbLine
10
0
20
0
11
300
21
0
0
LINE
5
5A
100
AcDbEntity
8
side-help
6
ByLayer
62
256
370
-1
100
AcDbLine
10
271.5
20
50
11
271.5
21
-3.67394039744e-16
0
LINE
5
5B
100
AcDbEntity
8
side-help
6
ByLayer
62
256
370
-1
100
AcDbLine
10
512
20
-4.89858719659e-16
11
512
21
40
0
LINE
5
5C
100
AcDbEntity
8
side-help
6
ByLayer
62
256
370
-1
100
AcDbLine
10
268
20
50
11
268
21
7.34788079488e-16
0
LINE
5
5D
100
AcDbEntity
8
side-help
6
ByLayer
62
256
370
-1
100
AcDbLine
10
270
20
10
11
300
21
10
0
LINE
5
5E
100
AcDbEntity
8
side-help
6
ByLayer
62
256
370
-1
100
AcDbLine
10
270
20
20
11
300
21
20
0
LINE
5
5F
100
AcDbEntity
8
side-help
6
ByLayer
62
256
370
-1
100
AcDbLine
10
270
20
30
11
300
21
30
0
LINE
5
60
100
AcDbEntity
8
side-help
6
ByLayer
62
256
370
-1
100
AcDbLine
10
270
20
40
11
300
21
40
0
LINE
5
61
100
AcDbEntity
8
side-help
6
ByLayer
62
256
370
-1
100
AcDbLine
10
270
20
50
11
300
21
50
0
LINE
5
62
100
AcDbEntity
8
side-help
6
ByLayer
62
256
370
-1
100
AcDbLine
10
270
20
60
11
300
21
60
0
LINE
5
63
100
AcDbEntity
8
side-help
6
ByLayer
62
256
370
-1
100
AcDbLine
10
270
20
70
11
300
21
70
0
LINE
5
64
100
AcDbEntity
8
side-help
6
ByLayer
62
256
370
-1
100
AcDbLine
10
270
20
80
11
300
21
80
0
LINE
5
65
100
AcDbEntity
8
side-help
6
ByLayer
62
256
370
-1
100
AcDbLine
10
270
20
90
11
300
21
90
0
LINE
5
66
100
AcDbEntity
8
side-help
6
ByLayer
62
256
370
-1
100
AcDbLine
10
270
20
100
11
300
21
100
0
LINE
5
67
100
AcDbEntity
8
side-help
6
ByLayer
62
256
370
-1
100
AcDbLine
10
300
20
80
11
450
21
80
0
LINE
5
68
100
AcDbEntity
8
side-help
6
ByLayer
62
256
370
-1
100
AcDbLine
10
300
20
90
11
450
21
90
0
LINE
5
69
100
AcDbEntity
8
side-help
6
ByLayer
62
256
370
-1
100
AcDbLine
10
300
20
100
11
450
21
100
0
LINE
5
6A
100
AcDbEntity
8
side-help
6
ByLayer
62
256
370
-1
100
AcDbLine
10
450
20
10
11
510
21
10
0
LINE
5
6B
100
AcDbEntity
8
side-help
6
ByLayer
62
256
370
-1
100
AcDbLine
10
450
20
20
11
510
21
20
0
LINE
5
6C
100
AcDbEntity
8
side-help
6
ByLayer
62
256
370
-1
100
AcDbLine
10
450
20
30
11
510
21
30
0
LINE
5
6D
100
AcDbEntity
8
side-help
6
ByLayer
62
256
370
-1
100
AcDbLine
10
450
20
40
11
510
21
40
0
LINE
5
6E
100
AcDbEntity
8
side-help
6
ByLayer
62
256
370
-1
100
AcDbLine
10
450
20
50
11
510
21
50
0
LINE
5
6F
100
AcDbEntity
8
side-help
6
ByLayer
62
256
370
-1
100
AcDbLine
10
450
20
60
11
510
21
60
0
LINE
5
70
100
AcDbEntity
8
side-help
6
ByLayer
62
256
370
-1
100
AcDbLine
10
450
20
70
11
510
21
70
0
LINE
5
71
100
AcDbEntity
8
side-help
6
ByLayer
62
256
370
-1
100
AcDbLine
10
450
20
80
11
510
21
80
0
LINE
5
72
100
AcDbEntity
8
side-help
6
ByLayer
62
256
370
-1
100
AcDbLine
10
450
20
90
11
510
21
90
0
LINE
5
73
100
AcDbEntity
8
side-help
6
ByLayer
62
256
370
-1
100
AcDbLine
10
450
20
100
11
510
21
100
0
LINE
5
74
100
AcDbEntity
8
side-help
6
ByLayer
62
256
370
-1
100
AcDbLine
10
450
20
1.5
11
512
21
1.5
0
LINE
5
75
100
AcDbEntity
8
side-help
6
ByLayer
62
256
370
-1
100
AcDbLine
10
300
20
80
11
299.921496066
21
78.5020556979
0
LINE
5
76
100
AcDbEntity
8
side-help
6
ByLayer
62
256
370
-1
100
AcDbLine
10
324.965738369
20
78.6916010939
11
324.887234434
21
77.1936567918
0
LINE
5
77
100
AcDbEntity
8
side-help
6
ByLayer
62
256
370
-1
100
AcDbLine
10
349.931476738
20
77.3832021878
11
349.852972803
21
75.8852578857
0
LINE
5
78
100
AcDbEntity
8
side-help
6
ByLayer
62
256
370
-1
100
AcDbLine
10
374.897215107
20
76.0748032818
11
374.818711172
21
74.5768589796
0
LINE
5
79
100
AcDbEntity
8
side-help
6
ByLayer
62
256
370
-1
100
AcDbLine
10
301.229894972
20
103.467794067
11
451.229894972
21
95.6066271742
0
LINE
5
7A
100
AcDbEntity
8
side-help
6
ByLayer
62
256
370
-1
100
AcDbLine
10
399.862953475
20
74.7664043757
11
399.784449541
21
73.2684600735
0
LINE
5
7B
100
AcDbEntity
8
side-help
6
ByLayer
62
256
370
-1
100
AcDbLine
10
409.849248823
20
74.2430448132
11
409.770744889
21
72.7451005111
0
LINE
5
7C
100
AcDbEntity
8
side-help
6
ByLayer
62
256
370
-1
100
AcDbLine
10
419.835544171
20
73.7196852508
11
419.757040236
21
72.2217409487
0
LINE
5
7D
100
AcDbEntity
8
side-help
6
ByLayer
62
256
370
-1
100
AcDbLine
10
429.821839518
20
73.1963256884
11
429.743335584
21
71.6983813862
0
LINE
5
7E
100
AcDbEntity
8
side-help
6
ByLayer
62
256
370
-1
100
AcDbLine
10
439.808134866
20
72.6729661259
11
439.729630931
21
71.1750218238
0
LINE
5
7F
100
AcDbEntity
8
side-help
6
ByLayer
62
256
370
-1
100
AcDbLine
10
450
20
72.1388331075
11
449.921496066
21
70.6408888054
0
LINE
5
80
100
AcDbEntity
8
side-help
6
ByLayer
62
256
370
-1
100
AcDbLine
10
0
20
20
11
450
21
20
0
LINE
5
81
100
AcDbEntity
8
side-help
6
ByLayer
62
256
370
-1
100
AcDbLine
10
0
20
10
11
450
21
10
0
LINE
5
82
100
AcDbEntity
8
side-help
6
ByLayer
62
256
370
-1
100
AcDbLine
10
0
20
1.5
11
450
21
1.5
0
LINE
5
83
100
AcDbEntity
8
side-help
6
ByLayer
62
256
370
-1
100
AcDbLine
10
0
20
1.5
11
512
21
1.5
0
LINE
5
84
100
AcDbEntity
8
side-help
6
ByLayer
62
256
370
-1
100
AcDbLine
10
0
20
30
11
450
21
30
0
LINE
5
85
100
AcDbEntity
8
side-help
6
ByLayer
62
256
370
-1
100
AcDbLine
10
0
20
40
11
450
21
40
0
LINE
5
86
100
AcDbEntity
8
side-help
6
ByLayer
62
256
370
-1
100
AcDbLine
10
0
20
70
11
450
21
70
0
LINE
5
87
100
AcDbEntity
8
side-help
6
ByLayer
62
256
370
-1
100
AcDbLine
10
0
20
60
11
450
21
60
0
LINE
5
88
100
AcDbEntity
8
bulkhead-help
6
ByLayer
62
256
370
-1
100
AcDbLine
10
101.5
20
78.42
11
101.5
21
-3.67394039744e-16
0
LINE
5
89
100
AcDbEntity
8
bulkhead-help
6
ByLayer
62
256
370
-1
100
AcDbLine
10
188.5
20
1.83697019872e-16
11
188.5
21
78.42
0
LINE
5
8A
100
AcDbEntity
8
bulkhead-help
6
ByLayer
62
256
370
-1
100
AcDbLine
10
201.5
20
70.64
11
201.5
21
-3.67394039744e-16
0
LINE
5
8B
100
AcDbEntity
8
bulkhead-help
6
ByLayer
62
256
370
-1
100
AcDbLine
10
288.5
20
1.83697019872e-16
11
288.5
21
70.64
0
LINE
5
8C
100
AcDbEntity
8
bulkhead-help
6
ByLayer
62
256
370
-1
100
AcDbLine
10
388.5
20
1.83697019872e-16
11
388.5
21
40
0
LINE
5
8D
100
AcDbEntity
8
bulkhead
6
ByLayer
62
256
370
-1
100
AcDbLine
10
0
20
40
11
0
21
30
0
LINE
5
8E
100
AcDbEntity
8
bulkhead
6
ByLayer
62
256
370
-1
100
AcDbLine
10
0
20
10
11
1.5
21
10
0
LINE
5
8F
100
AcDbEntity
8
bulkhead
6
ByLayer
62
256
370
-1
100
AcDbLine
10
0
20
10
11
0
21
20
0
LINE
5
90
100
AcDbEntity
8
side-help
6
ByLayer
62
256
370
-1
100
AcDbLine
10
300
20
5
11
510
21
5
0
LINE
5
91
100
AcDbEntity
8
bulkhead
6
ByLayer
62
256
370
-1
100
AcDbLine
10
0
20
130
11
0
21
120
0
LINE
5
92
100
AcDbEntity
8
bulkhead
6
ByLayer
62
256
370
-1
100
AcDbLine
10
0
20
110
11
0
21
100
0
LINE
5
93
100
AcDbEntity
8
bulkhead
6
ByLayer
62
256
370
-1
100
AcDbLine
10
0
20
90
11
0
21
70
0
LINE
5
94
100
AcDbEntity
8
bulkhead
6
ByLayer
62
256
370
-1
100
AcDbLine
10
0
20
210
11
0
21
200
0
LINE
5
95
100
AcDbEntity
8
bulkhead
6
ByLayer
62
256
370
-1
100
AcDbLine
10
0
20
190
11
0
21
180
0
LINE
5
96
100
AcDbEntity
8
bulkhead
6
ByLayer
62
256
370
-1
100
AcDbLine
10
0
20
170
11
0
21
160
0
LINE
5
97
100
AcDbEntity
8
bulkhead
6
ByLayer
62
256
370
-1
100
AcDbLine
10
-0.0300007179431
20
270
11
-0.0200004786287
21
260
0
LINE
5
98
100
AcDbEntity
8
bulkhead
6
ByLayer
62
256
370
-1
100
AcDbLine
10
-0.0100002393144
20
250
11
0
21
245
0
LINE
5
99
100
AcDbEntity
8
bulkhead-help
6
ByLayer
62
256
370
-1
100
AcDbLine
10
0
20
280
11
0
21
0
0
LINE
5
9A
100
AcDbEntity
8
bulkhead-help
6
ByLayer
62
256
370
-1
100
AcDbLine
10
17
20
280
11
17
21
-4.1637991171e-15
0
LINE
5
9B
100
AcDbEntity
8
bulkhead-help
6
ByLayer
62
256
370
-1
100
AcDbLine
10
73
20
280
11
73
21
6.24569867565e-15
0
LINE
5
9C
100
AcDbEntity
8
bulkhead-help
6
ByLayer
62
256
370
-1
100
AcDbLine
10
1.5
20
33
11
88.5
21
33
0
LINE
5
9D
100
AcDbEntity
8
bulkhead-help
6
ByLayer
62
256
370
-1
100
AcDbLine
10
1.04094977928e-15
20
77
11
90
21
77
0
LINE
5
9E
100
AcDbEntity
8
bulkhead-help
6
ByLayer
62
256
370
-1
100
AcDbLine
10
88.5
20
17
11
1.5
21
17
0
LINE
5
9F
100
AcDbEntity
8
bulkhead-help
6
ByLayer
62
256
370
-1
100
AcDbLine
10
90
20
121.42
11
-3.12284933783e-15
21
121.42
0
LINE
5
A0
100
AcDbEntity
8
bulkhead-help
6
ByLayer
62
256
370
-1
100
AcDbLine
10
1.04094977928e-15
20
167
11
90
21
167
0
LINE
5
A1
100
AcDbEntity
8
bulkhead-help
6
ByLayer
62
256
370
-1
100
AcDbLine
10
1.04094977928e-15
20
257
11
90
21
257
0
LINE
5
A2
100
AcDbEntity
8
bulkhead-help
6
ByLayer
62
256
370
-1
100
AcDbLine
10
90
20
263
11
-3.12284933783e-15
21
263
0
LINE
5
A3
100
AcDbEntity
8
bulkhead-help
6
ByLayer
62
256
370
-1
100
AcDbLine
10
90
20
203.64
11
-3.12284933783e-15
21
203.64
0
LINE
5
A4
100
AcDbEntity
8
bulkhead-help
6
ByLayer
62
256
370
-1
100
AcDbLine
10
6.12323399574e-16
20
160
11
90
21
160
0
LINE
5
A5
100
AcDbEntity
8
bulkhead-help
6
ByLayer
62
256
370
-1
100
AcDbLine
10
90
20
265
11
-2.75545529808e-15
21
265
0
LINE
5
A6
100
AcDbEntity
8
bulkhead-help
6
ByLayer
62
256
370
-1
100
AcDbLine
10
90
20
270
11
-1.83697019872e-15
21
270
0
LINE
5
A7
100
AcDbEntity
8
bulkhead-help
6
ByLayer
62
256
370
-1
100
AcDbLine
10
90
20
205.64
11
-2.75545529808e-15
21
205.64
0
LINE
5
A8
100
AcDbEntity
8
bulkhead-help
6
ByLayer
62
256
370
-1
100
AcDbLine
10
1.5
20
35
11
88.5
21
35
0
ARC
5
A9
100
AcDbEntity
8
bulkhead
6
ByLayer
62
256
370
-1
100
AcDbCircle
10
68
20
22
40
5
100
AcDbArc
50
270
51
0
0
ARC
5
AA
100
AcDbEntity
8
bulkhead
6
ByLayer
62
256
370
-1
100
AcDbCircle
10
68
20
30
40
5
100
AcDbArc
50
0
51
90
0
ARC
5
AB
100
AcDbEntity
8
bulkhead
6
ByLayer
62
256
370
-1
100
AcDbCircle
10
22
20
30
40
5
100
AcDbArc
50
90
51
180
0
ARC
5
AC
100
AcDbEntity
8
bulkhead
6
ByLayer
62
256
370
-1
100
AcDbCircle
10
22
20
22
40
5
100
AcDbArc
50
180
51
270
0
ARC
5
AD
100
AcDbEntity
8
bulkhead
6
ByLayer
62
256
370
-1
100
AcDbCircle
10
68
20
82
40
5
100
AcDbArc
50
270
51
0
0
ARC
5
AE
100
AcDbEntity
8
bulkhead
6
ByLayer
62
256
370
-1
100
AcDbCircle
10
22
20
82
40
5
100
AcDbArc
50
180
51
270
0
ARC
5
AF
100
AcDbEntity
8
bulkhead
6
ByLayer
62
256
370
-1
100
AcDbCircle
10
22
20
172
40
5
100
AcDbArc
50
180
51
270
0
ARC
5
B0
100
AcDbEntity
8
bulkhead
6
ByLayer
62
256
370
-1
100
AcDbCircle
10
68
20
172
40
5
100
AcDbArc
50
270
51
0
0
ARC
5
B1
100
AcDbEntity
8
bulkhead
6
ByLayer
62
256
370
-1
100
AcDbCircle
10
68
20
262
40
5
100
AcDbArc
50
270
51
0
0
ARC
5
B2
100
AcDbEntity
8
bulkhead
6
ByLayer
62
256
370
-1
100
AcDbCircle
10
68
20
265
40
5
100
AcDbArc
50
0
51
90
0
ARC
5
B3
100
AcDbEntity
8
bulkhead
6
ByLayer
62
256
370
-1
100
AcDbCircle
10
55.9544511501
20
275
40
5
100
AcDbArc
50
249.306458769
51
270
0
ARC
5
B4
100
AcDbEntity
8
bulkhead
6
ByLayer
62
256
370
-1
100
AcDbCircle
10
34.0455488499
20
275
40
5
100
AcDbArc
50
270
51
290.693541231
0
ARC
5
B5
100
AcDbEntity
8
bulkhead
6
ByLayer
62
256
370
-1
100
AcDbCircle
10
22
20
265
40
5
100
AcDbArc
50
90
51
180
0
ARC
5
B6
100
AcDbEntity
8
bulkhead
6
ByLayer
62
256
370
-1
100
AcDbCircle
10
22
20
262
40
5
100
AcDbArc
50
180
51
270
0
ARC
5
B7
100
AcDbEntity
8
bulkhead
6
ByLayer
62
256
370
-1
100
AcDbCircle
10
45
20
246
40
26
100
AcDbArc
50
67.380135052
51
112.619864948
0
LINE
5
B8
100
AcDbEntity
8
bulkhead
6
ByLayer
62
256
370
-1
100
AcDbLine
10
22
20
270
11
34.0455488499
21
270
0
LINE
5
B9
100
AcDbEntity
8
bulkhead
6
ByLayer
62
256
370
-1
100
AcDbLine
10
17
20
262
11
17
21
265
0
LINE
5
BA
100
AcDbEntity
8
bulkhead
6
ByLayer
62
256
370
-1
100
AcDbLine
10
55.9544511501
20
270
11
68
21
270
0
LINE
5
BB
100
AcDbEntity
8
bulkhead
6
ByLayer
62
256
370
-1
100
AcDbLine
10
73
20
265
11
73
21
262
0
LINE
5
BC
100
AcDbEntity
8
bulkhead
6
ByLayer
62
256
370
-1
100
AcDbLine
10
22
20
35
11
68
21
35
0
LINE
5
BD
100
AcDbEntity
8
bulkhead
6
ByLayer
62
256
370
-1
100
AcDbLine
10
73
20
30
11
73
21
22
0
LINE
5
BE
100
AcDbEntity
8
bulkhead
6
ByLayer
62
256
370
-1
100
AcDbLine
10
17
20
22
11
17
21
30
0
ARC
5
BF
100
AcDbEntity
8
bulkhead
6
ByLayer
62
256
370
-1
100
AcDbCircle
10
22
20
198.638852652
40
5
100
AcDbArc
50
85
51
180
0
ARC
5
C0
100
AcDbEntity
8
bulkhead
6
ByLayer
62
256
370
-1
100
AcDbCircle
10
68
20
198.638852652
40
5
100
AcDbArc
50
0
51
95
0
ARC
5
C1
100
AcDbEntity
8
bulkhead
6
ByLayer
62
256
370
-1
100
AcDbCircle
10
45
20
206.664811766
40
5
100
AcDbArc
50
265
51
275
0
LINE
5
C2
100
AcDbEntity
8
bulkhead
6
ByLayer
62
256
370
-1
100
AcDbLine
10
17
20
172
11
17
21
198.638852652
0
LINE
5
C3
100
AcDbEntity
8
bulkhead
6
ByLayer
62
256
370
-1
100
AcDbLine
10
73
20
198.638852652
11
73
21
172
0
LINE
5
C4
100
AcDbEntity
8
bulkhead
6
ByLayer
62
256
370
-1
100
AcDbLine
10
67.5642179826
20
203.619825853
11
45.4357809503
21
201.683838471
0
LINE
5
C5
100
AcDbEntity
8
bulkhead
6
ByLayer
62
256
370
-1
100
AcDbLine
10
22.4357801242
20
203.619826019
11
44.5642190497
21
201.683838471
0
ARC
5
C6
100
AcDbEntity
8
bulkhead
6
ByLayer
62
256
370
-1
100
AcDbCircle
10
22
20
116.418852652
40
5
100
AcDbArc
50
85
51
180
0
ARC
5
C7
100
AcDbEntity
8
bulkhead
6
ByLayer
62
256
370
-1
100
AcDbCircle
10
68
20
116.418852652
40
5
100
AcDbArc
50
0
51
95
0
ARC
5
C8
100
AcDbEntity
8
bulkhead
6
ByLayer
62
256
370
-1
100
AcDbCircle
10
45
20
124.444811766
40
5
100
AcDbArc
50
265
51
275
0
LINE
5
C9
100
AcDbEntity
8
bulkhead
6
ByLayer
62
256
370
-1
100
AcDbLine
10
22.4357808328
20
121.399825957
11
44.564219567
21
119.463838426
0
LINE
5
CA
100
AcDbEntity
8
bulkhead
6
ByLayer
62
256
370
-1
100
AcDbLine
10
17
20
82
11
17
21
116.418852652
0
LINE
5
CB
100
AcDbEntity
8
bulkhead
6
ByLayer
62
256
370
-1
100
AcDbLine
10
67.5642199376
20
121.399826024
11
45.4357796674
21
119.463838359
0
LINE
5
CC
100
AcDbEntity
8
bulkhead
6
ByLayer
62
256
370
-1
100
AcDbLine
10
73
20
116.418851303
11
73
21
82
0
LINE
5
CD
100
AcDbEntity
8
bulkhead-help
6
ByLayer
62
256
370
-1
100
AcDbLine
10
88.5
20
1.5
11
1.5
21
1.5
0
LINE
5
CE
100
AcDbEntity
8
bulkhead-help
6
ByLayer
62
256
370
-1
100
AcDbLine
10
1.5
20
61.5
11
88.5
21
61.5
0
LINE
5
CF
100
AcDbEntity
8
bulkhead-help
6
ByLayer
62
256
370
-1
100
AcDbLine
10
1.5
20
151.5
11
88.5
21
151.5
0
LINE
5
D0
100
AcDbEntity
8
bulkhead-help
6
ByLayer
62
256
370
-1
100
AcDbLine
10
1.5
20
241.5
11
88.5
21
241.5
0
LINE
5
D1
100
AcDbEntity
8
bulkhead-help
6
ByLayer
62
256
370
-1
100
AcDbLine
10
30
20
280
11
30
21
-7.34788079488e-15
0
LINE
5
D2
100
AcDbEntity
8
bulkhead-help
6
ByLayer
62
256
370
-1
100
AcDbLine
10
60
20
280
11
60
21
-1.46957615898e-14
0
LINE
5
D3
100
AcDbEntity
8
bulkhead-help
6
ByLayer
62
256
370
-1
100
AcDbLine
10
10
20
280
11
10
21
-2.44929359829e-15
0
LINE
5
D4
100
AcDbEntity
8
bulkhead-help
6
ByLayer
62
256
370
-1
100
AcDbLine
10
20
20
280
11
20
21
-4.89858719659e-15
0
LINE
5
D5
100
AcDbEntity
8
bulkhead-help
6
ByLayer
62
256
370
-1
100
AcDbLine
10
80
20
280
11
80
21
3.67394039744e-15
0
LINE
5
D6
100
AcDbEntity
8
bulkhead-help
6
ByLayer
62
256
370
-1
100
AcDbLine
10
70
20
280
11
70
21
7.34788079488e-15
0
LINE
5
D7
100
AcDbEntity
8
bulkhead
6
ByLayer
62
256
370
-1
100
AcDbLine
10
10
20
240
11
20
21
240
0
LINE
5
D8
100
AcDbEntity
8
bulkhead
6
ByLayer
62
256
370
-1
100
AcDbLine
10
30
20
240
11
60
21
240
0
LINE
5
D9
100
AcDbEntity
8
bulkhead
6
ByLayer
62
256
370
-1
100
AcDbLine
10
70
20
240
11
80
21
240
0
LINE
5
DA
100
AcDbEntity
8
bulkhead
6
ByLayer
62
256
370
-1
100
AcDbLine
10
10
20
150
11
20
21
150
0
LINE
5
DB
100
AcDbEntity
8
bulkhead
6
ByLayer
62
256
370
-1
100
AcDbLine
10
30
20
150
11
60
21
150
0
LINE
5
DC
100
AcDbEntity
8
bulkhead
6
ByLayer
62
256
370
-1
100
AcDbLine
10
70
20
150
11
80
21
150
0
LINE
5
DD
100
AcDbEntity
8
bulkhead
6
ByLayer
62
256
370
-1
100
AcDbLine
10
10
20
60
11
20
21
60
0
LINE
5
DE
100
AcDbEntity
8
bulkhead
6
ByLayer
62
256
370
-1
100
AcDbLine
10
30
20
60
11
60
21
60
0
LINE
5
DF
100
AcDbEntity
8
bulkhead
6
ByLayer
62
256
370
-1
100
AcDbLine
10
70
20
60
11
80
21
60
0
LINE
5
E0
100
AcDbEntity
8
bulkhead
6
ByLayer
62
256
370
-1
100
AcDbLine
10
10
20
-3.13551809782e-16
11
20
21
-2.50208009826e-16
0
LINE
5
E1
100
AcDbEntity
8
bulkhead
6
ByLayer
62
256
370
-1
100
AcDbLine
10
30
20
-1.8686420987e-16
11
60
21
-1.46957615898e-14
0
LINE
5
E2
100
AcDbEntity
8
bulkhead
6
ByLayer
62
256
370
-1
100
AcDbLine
10
70
20
7.34788079488e-15
11
80
21
3.67394039744e-15
0
LINE
5
E3
100
AcDbEntity
8
bottom-help
6
ByLayer
62
256
370
-1
100
AcDbLine
10
548
20
-40
11
268
21
-40
0
LINE
5
E4
100
AcDbEntity
8
bottom-help
6
ByLayer
62
256
370
-1
100
AcDbLine
10
548
20
-70
11
268
21
-70
0
LINE
5
E5
100
AcDbEntity
8
bottom-help
6
ByLayer
62
256
370
-1
100
AcDbLine
10
548
20
-20
11
268
21
-20
0
LINE
5
E6
100
AcDbEntity
8
bottom-help
6
ByLayer
62
256
370
-1
100
AcDbLine
10
548
20
-30
11
268
21
-30
0
LINE
5
E7
100
AcDbEntity
8
bottom-help
6
ByLayer
62
256
370
-1
100
AcDbLine
10
548
20
-90
11
268
21
-90
0
LINE
5
E8
100
AcDbEntity
8
bottom-help
6
ByLayer
62
256
370
-1
100
AcDbLine
10
548
20
-80
11
268
21
-80
0
LINE
5
E9
100
AcDbEntity
8
bottom-help
6
ByLayer
62
256
370
-1
100
AcDbLine
10
270
20
-100
11
270
21
20
0
LINE
5
EA
100
AcDbEntity
8
bottom-help
6
ByLayer
62
256
370
-1
100
AcDbLine
10
299.969999282
20
-100
11
299.969999282
21
30
0
LINE
5
EB
100
AcDbEntity
8
bottom-help
6
ByLayer
62
256
370
-1
100
AcDbLine
10
508.5
20
-100
11
508.5
21
10
0
LINE
5
EC
100
AcDbEntity
8
bottom-help
6
ByLayer
62
256
370
-1
100
AcDbLine
10
271.5
20
-100
11
271.5
21
20
0
LINE
5
ED
100
AcDbEntity
8
bottom-help
6
ByLayer
62
256
370
-1
100
AcDbLine
10
450
20
-100
11
450
21
20
0
LINE
5
EE
100
AcDbEntity
8
bottom-help
6
ByLayer
62
256
370
-1
100
AcDbLine
10
510
20
-100
11
510
21
10
0
LINE
5
EF
100
AcDbEntity
8
bottom
6
ByLayer
62
256
370
-1
100
AcDbLine
10
270
20
-30
11
270
21
-20
0
LINE
5
F0
100
AcDbEntity
8
bottom
6
ByLayer
62
256
370
-1
100
AcDbLine
10
299.969999282
20
-30
11
299.969999282
21
-20
0
LINE
5
F1
100
AcDbEntity
8
bottom
6
ByLayer
62
256
370
-1
100
AcDbLine
10
270
20
-70
11
270
21
-40
0
LINE
5
F2
100
AcDbEntity
8
bottom
6
ByLayer
62
256
370
-1
100
AcDbLine
10
299.969999282
20
-70
11
299.969999282
21
-40
0
LINE
5
F3
100
AcDbEntity
8
bottom
6
ByLayer
62
256
370
-1
100
AcDbLine
10
270
20
-90
11
270
21
-80
0
LINE
5
F4
100
AcDbEntity
8
bottom
6
ByLayer
62
256
370
-1
100
AcDbLine
10
299.969999282
20
-90
11
299.969999282
21
-80
0
LINE
5
F5
100
AcDbEntity
8
bottom
6
ByLayer
62
256
370
-1
100
AcDbLine
10
450
20
-20
11
450
21
-30
0
LINE
5
F6
100
AcDbEntity
8
bottom
6
ByLayer
62
256
370
-1
100
AcDbLine
10
510
20
-20
11
510
21
-30
0
LINE
5
F7
100
AcDbEntity
8
bottom
6
ByLayer
62
256
370
-1
100
AcDbLine
10
450
20
-40
11
450
21
-70
0
LINE
5
F8
100
AcDbEntity
8
bottom
6
ByLayer
62
256
370
-1
100
AcDbLine
10
510
20
-40
11
510
21
-70
0
LINE
5
F9
100
AcDbEntity
8
bottom
6
ByLayer
62
256
370
-1
100
AcDbLine
10
450
20
-80
11
450
21
-90
0
LINE
5
FA
100
AcDbEntity
8
bottom
6
ByLayer
62
256
370
-1
100
AcDbLine
10
510
20
-80
11
510
21
-90
0
LINE
5
FB
100
AcDbEntity
8
bottom-help
6
ByLayer
62
256
370
-1
100
AcDbLine
10
268
20
-98.5
11
512
21
-98.5
0
LINE
5
FC
100
AcDbEntity
8
bottom-help
6
ByLayer
62
256
370
-1
100
AcDbLine
10
306.5
20
-100
11
306.5
21
20
0
LINE
5
FD
100
AcDbEntity
8
bottom-help
6
ByLayer
62
256
370
-1
100
AcDbLine
10
341.5
20
-100
11
341.5
21
20
0
LINE
5
FE
100
AcDbEntity
8
bottom-help
6
ByLayer
62
256
370
-1
100
AcDbLine
10
376.5
20
-100
11
376.5
21
20
0
LINE
5
FF
100
AcDbEntity
8
bottom-help
6
ByLayer
62
256
370
-1
100
AcDbLine
10
411.5
20
-100
11
411.5
21
20
0
LINE
5
100
100
AcDbEntity
8
bottom-help
6
ByLayer
62
256
370
-1
100
AcDbLine
10
446.5
20
-100
11
446.5
21
20
0
LINE
5
101
100
AcDbEntity
8
bottom-help
6
ByLayer
62
256
370
-1
100
AcDbLine
10
481.5
20
-100
11
481.5
21
20
0
LINE
5
102
100
AcDbEntity
8
bottom-help
6
ByLayer
62
256
370
-1
100
AcDbLine
10
516.5
20
-100
11
516.5
21
20
0
LINE
5
103
100
AcDbEntity
8
bottom-help
6
ByLayer
62
256
370
-1
100
AcDbLine
10
270
20
-10
11
516.5
21
-10
0
LINE
5
104
100
AcDbEntity
8
bottom-help
6
ByLayer
62
256
370
-1
100
AcDbLine
10
270
20
-100
11
516.5
21
-100
0
ARC
5
105
100
AcDbEntity
8
bottom
6
ByLayer
62
256
370
-1
100
AcDbCircle
10
341.469999282
20
-31.5
40
5
100
AcDbArc
50
90
51
180
0
LINE
5
106
100
AcDbEntity
8
bottom
6
ByLayer
62
256
370
-1
100
AcDbLine
10
408.5
20
-26.5
11
341.469999282
21
-26.5
0
ARC
5
107
100
AcDbEntity
8
bottom
6
ByLayer
62
256
370
-1
100
AcDbCircle
10
408.5
20
-31.5
40
5
100
AcDbArc
50
5.08888749034e-14
51
90
0
LINE
5
108
100
AcDbEntity
8
bottom
6
ByLayer
62
256
370
-1
100
AcDbLine
10
413.5
20
-78.5
11
413.5
21
-31.5
0
ARC
5
109
100
AcDbEntity
8
bottom
6
ByLayer
62
256
370
-1
100
AcDbCircle
10
408.5
20
-78.5
40
5
100
AcDbArc
50
270
51
0
0
LINE
5
10A
100
AcDbEntity
8
bottom
6
ByLayer
62
256
370
-1
100
AcDbLine
10
336.469999282
20
-78.5
11
336.469999282
21
-31.5
0
LINE
5
10B
100
AcDbEntity
8
bottom
6
ByLayer
62
256
370
-1
100
AcDbLine
10
341.469999282
20
-83.5
11
408.5
21
-83.5
0
ARC
5
10C
100
AcDbEntity
8
bottom
6
ByLayer
62
256
370
-1
100
AcDbCircle
10
341.469999282
20
-78.5
40
5
100
AcDbArc
50
180
51
270
0
LINE
5
10D
100
AcDbEntity
8
bottom-help
6
ByLayer
62
256
370
-1
100
AcDbLine
10
270
20
-12
11
516.5
21
-12
0
LINE
5
10E
100
AcDbEntity
8
bottom
6
ByLayer
62
256
370
-1
100
AcDbLine
10
268
20
-12
11
306.5
21
-12
0
LINE
5
10F
100
AcDbEntity
8
bottom
6
ByLayer
62
256
370
-1
100
AcDbLine
10
306.5
20
-12
11
306.5
21
-10
0
LINE
5
110
100
AcDbEntity
8
bottom
6
ByLayer
62
256
370
-1
100
AcDbLine
10
306.5
20
-10
11
341.5
21
-10
0
LINE
5
111
100
AcDbEntity
8
bottom
6
ByLayer
62
256
370
-1
100
AcDbLine
10
341.5
20
-10
11
341.5
21
-12
0
LINE
5
112
100
AcDbEntity
8
bottom
6
ByLayer
62
256
370
-1
100
AcDbLine
10
341.5
20
-12
11
376.5
21
-12
0
LINE
5
113
100
AcDbEntity
8
bottom
6
ByLayer
62
256
370
-1
100
AcDbLine
10
376.5
20
-12
11
376.5
21
-10
0
LINE
5
114
100
AcDbEntity
8
bottom
6
ByLayer
62
256
370
-1
100
AcDbLine
10
376.5
20
-10
11
411.5
21
-10
0
LINE
5
115
100
AcDbEntity
8
bottom
6
ByLayer
62
256
370
-1
100
AcDbLine
10
411.5
20
-10
11
411.5
21
-12
0
LINE
5
116
100
AcDbEntity
8
bottom
6
ByLayer
62
256
370
-1
100
AcDbLine
10
411.5
20
-12
11
446.5
21
-12
0
LINE
5
117
100
AcDbEntity
8
bottom
6
ByLayer
62
256
370
-1
100
AcDbLine
10
446.5
20
-12
11
446.5
21
-10
0
LINE
5
118
100
AcDbEntity
8
bottom
6
ByLayer
62
256
370
-1
100
AcDbLine
10
446.5
20
-10
11
481.5
21
-10
0
LINE
5
119
100
AcDbEntity
8
bottom
6
ByLayer
62
256
370
-1
100
AcDbLine
10
481.5
20
-10
11
481.5
21
-12
0
LINE
5
11A
100
AcDbEntity
8
bottom
6
ByLayer
62
256
370
-1
100
AcDbLine
10
481.5
20
-12
11
512
21
-12
0
LINE
5
11B
100
AcDbEntity
8
bottom
6
ByLayer
62
256
370
-1
100
AcDbLine
10
268
20
-98
11
306.5
21
-98
0
LINE
5
11C
100
AcDbEntity
8
bottom
6
ByLayer
62
256
370
-1
100
AcDbLine
10
306.5
20
-98
11
306.5
21
-100
0
LINE
5
11D
100
AcDbEntity
8
bottom
6
ByLayer
62
256
370
-1
100
AcDbLine
10
306.5
20
-100
11
341.5
21
-100
0
LINE
5
11E
100
AcDbEntity
8
bottom
6
ByLayer
62
256
370
-1
100
AcDbLine
10
341.5
20
-100
11
341.5
21
-98
0
LINE
5
11F
100
AcDbEntity
8
bottom
6
ByLayer
62
256
370
-1
100
AcDbLine
10
341.5
20
-98
11
376.5
21
-98
0
LINE
5
120
100
AcDbEntity
8
bottom
6
ByLayer
62
256
370
-1
100
AcDbLine
10
376.5
20
-98
11
376.5
21
-100
0
LINE
5
121
100
AcDbEntity
8
bottom
6
ByLayer
62
256
370
-1
100
AcDbLine
10
376.5
20
-100
11
411.5
21
-100
0
LINE
5
122
100
AcDbEntity
8
bottom
6
ByLayer
62
256
370
-1
100
AcDbLine
10
411.5
20
-100
11
411.5
21
-98
0
LINE
5
123
100
AcDbEntity
8
bottom
6
ByLayer
62
256
370
-1
100
AcDbLine
10
411.5
20
-98
11
446.5
21
-98
0
LINE
5
124
100
AcDbEntity
8
bottom
6
ByLayer
62
256
370
-1
100
AcDbLine
10
446.5
20
-98
11
446.5
21
-100
0
LINE
5
125
100
AcDbEntity
8
bottom
6
ByLayer
62
256
370
-1
100
AcDbLine
10
446.5
20
-100
11
481.5
21
-100
0
LINE
5
126
100
AcDbEntity
8
bottom
6
ByLayer
62
256
370
-1
100
AcDbLine
10
481.5
20
-100
11
481.5
21
-98
0
LINE
5
127
100
AcDbEntity
8
bottom
6
ByLayer
62
256
370
-1
100
AcDbLine
10
481.5
20
-98
11
512
21
-98
0
LINE
5
128
100
AcDbEntity
8
bottom
6
ByLayer
62
256
370
-1
100
AcDbLine
10
268
20
-12
11
268
21
-98
0
LINE
5
129
100
AcDbEntity
8
bottom
6
ByLayer
62
256
370
-1
100
AcDbLine
10
512
20
-98
11
512
21
-12
0
LINE
5
12A
100
AcDbEntity
8
bottom
6
ByLayer
62
256
370
-1
100
AcDbLine
10
272
20
-20
11
272
21
-30
0
LINE
5
12B
100
AcDbEntity
8
bottom
6
ByLayer
62
256
370
-1
100
AcDbLine
10
301.969999282
20
-20
11
301.969999282
21
-30
0
LINE
5
12C
100
AcDbEntity
8
bottom
6
ByLayer
62
256
370
-1
100
AcDbLine
10
272
20
-40
11
272
21
-70
0
LINE
5
12D
100
AcDbEntity
8
bottom
6
ByLayer
62
256
370
-1
100
AcDbLine
10
301.969999282
20
-40
11
301.969999282
21
-70
0
LINE
5
12E
100
AcDbEntity
8
bottom
6
ByLayer
62
256
370
-1
100
AcDbLine
10
272
20
-80
11
272
21
-90
0
LINE
5
12F
100
AcDbEntity
8
bottom
6
ByLayer
62
256
370
-1
100
AcDbLine
10
301.969999282
20
-80
11
301.969999282
21
-90
0
LINE
5
130
100
AcDbEntity
8
bottom
6
ByLayer
62
256
370
-1
100
AcDbLine
10
448
20
-30
11
448
21
-20
0
LINE
5
131
100
AcDbEntity
8
bottom
6
ByLayer
62
256
370
-1
100
AcDbLine
10
508
20
-30
11
508
21
-20
0
LINE
5
132
100
AcDbEntity
8
bottom
6
ByLayer
62
256
370
-1
100
AcDbLine
10
448
20
-70
11
448
21
-40
0
LINE
5
133
100
AcDbEntity
8
bottom
6
ByLayer
62
256
370
-1
100
AcDbLine
10
508
20
-70
11
508
21
-40
0
LINE
5
134
100
AcDbEntity
8
bottom
6
ByLayer
62
256
370
-1
100
AcDbLine
10
448
20
-90
11
448
21
-80
0
LINE
5
135
100
AcDbEntity
8
bottom
6
ByLayer
62
256
370
-1
100
AcDbLine
10
508
20
-90
11
508
21
-80
0
LINE
5
136
100
AcDbEntity
8
bottom
6
ByLayer
62
256
370
-1
100
AcDbLine
10
270
20
-20
11
272
21
-20
0
LINE
5
137
100
AcDbEntity
8
bottom
6
ByLayer
62
256
370
-1
100
AcDbLine
10
272
20
-30
11
270
21
-30
0
LINE
5
138
100
AcDbEntity
8
bottom
6
ByLayer
62
256
370
-1
100
AcDbLine
10
270
20
-40
11
272
21
-40
0
LINE
5
139
100
AcDbEntity
8
bottom
6
ByLayer
62
256
370
-1
100
AcDbLine
10
272
20
-70
11
270
21
-70
0
LINE
5
13A
100
AcDbEntity
8
bottom
6
ByLayer
62
256
370
-1
100
AcDbLine
10
270
20
-80
11
272
21
-80
0
LINE
5
13B
100
AcDbEntity
8
bottom
6
ByLayer
62
256
370
-1
100
AcDbLine
10
272
20
-90
11
270
21
-90
0
LINE
5
13C
100
AcDbEntity
8
bottom
6
ByLayer
62
256
370
-1
100
AcDbLine
10
299.969999282
20
-20
11
302
21
-20
0
LINE
5
13D
100
AcDbEntity
8
bottom
6
ByLayer
62
256
370
-1
100
AcDbLine
10
302
20
-30
11
299.969999282
21
-30
0
LINE
5
13E
100
AcDbEntity
8
bottom
6
ByLayer
62
256
370
-1
100
AcDbLine
10
299.969999282
20
-40
11
302
21
-40
0
LINE
5
13F
100
AcDbEntity
8
bottom
6
ByLayer
62
256
370
-1
100
AcDbLine
10
302
20
-70
11
299.969999282
21
-70
0
LINE
5
140
100
AcDbEntity
8
bottom
6
ByLayer
62
256
370
-1
100
AcDbLine
10
299.969999282
20
-80
11
302
21
-80
0
LINE
5
141
100
AcDbEntity
8
bottom
6
ByLayer
62
256
370
-1
100
AcDbLine
10
302
20
-90
11
299.969999282
21
-90
0
LINE
5
142
100
AcDbEntity
8
bottom
6
ByLayer
62
256
370
-1
100
AcDbLine
10
448
20
-20
11
450
21
-20
0
LINE
5
143
100
AcDbEntity
8
bottom
6
ByLayer
62
256
370
-1
100
AcDbLine
10
450
20
-30
11
448
21
-30
0
LINE
5
144
100
AcDbEntity
8
bottom
6
ByLayer
62
256
370
-1
100
AcDbLine
10
448
20
-40
11
450
21
-40
0
LINE
5
145
100
AcDbEntity
8
bottom
6
ByLayer
62
256
370
-1
100
AcDbLine
10
450
20
-70
11
448
21
-70
0
LINE
5
146
100
AcDbEntity
8
bottom
6
ByLayer
62
256
370
-1
100
AcDbLine
10
448
20
-80
11
450
21
-80
0
LINE
5
147
100
AcDbEntity
8
bottom
6
ByLayer
62
256
370
-1
100
AcDbLine
10
450
20
-90
11
448
21
-90
0
LINE
5
148
100
AcDbEntity
8
bottom
6
ByLayer
62
256
370
-1
100
AcDbLine
10
508
20
-80
11
510
21
-80
0
LINE
5
149
100
AcDbEntity
8
bottom
6
ByLayer
62
256
370
-1
100
AcDbLine
10
510
20
-90
11
508
21
-90
0
LINE
5
14A
100
AcDbEntity
8
bottom
6
ByLayer
62
256
370
-1
100
AcDbLine
10
510
20
-70
11
508
21
-70
0
LINE
5
14B
100
AcDbEntity
8
bottom
6
ByLayer
62
256
370
-1
100
AcDbLine
10
508
20
-40
11
510
21
-40
0
LINE
5
14C
100
AcDbEntity
8
bottom
6
ByLayer
62
256
370
-1
100
AcDbLine
10
510
20
-30
11
508
21
-30
0
LINE
5
14D
100
AcDbEntity
8
bottom
6
ByLayer
62
256
370
-1
100
AcDbLine
10
508
20
-20
11
510
21
-20
0
LINE
5
14E
100
AcDbEntity
8
side-help
6
ByLayer
62
256
370
-1
100
AcDbLine
10
300
20
80
11
450
21
72.1388331075
0
LINE
5
14F
100
AcDbEntity
8
side-help
6
ByLayer
62
256
370
-1
100
AcDbLine
10
299.895328088
20
78.0027409305
11
449.895328088
21
70.141574038
0
LINE
5
150
100
AcDbEntity
8
bulkhead-help
6
ByLayer
62
256
370
-1
100
AcDbLine
10
2
20
50
11
2
21
-3.67394039744e-16
0
LINE
5
151
100
AcDbEntity
8
bulkhead
6
ByLayer
62
256
370
-1
100
AcDbLine
10
2
20
120
11
2
21
110
0
LINE
5
152
100
AcDbEntity
8
bulkhead
6
ByLayer
62
256
370
-1
100
AcDbLine
10
2
20
100
11
2
21
90
0
LINE
5
153
100
AcDbEntity
8
bulkhead
6
ByLayer
62
256
370
-1
100
AcDbLine
10
2
20
200
11
2
21
190
0
LINE
5
154
100
AcDbEntity
8
bulkhead
6
ByLayer
62
256
370
-1
100
AcDbLine
10
2
20
180
11
2
21
170
0
LINE
5
155
100
AcDbEntity
8
bulkhead
6
ByLayer
62
256
370
-1
100
AcDbLine
10
2
20
260
11
2
21
250
0
LINE
5
156
100
AcDbEntity
8
bulkhead
6
ByLayer
62
256
370
-1
100
AcDbLine
10
2
20
270
11
-0.0300007179431
21
270
0
LINE
5
157
100
AcDbEntity
8
bulkhead
6
ByLayer
62
256
370
-1
100
AcDbLine
10
-0.0200004786287
20
260
11
2
21
260
0
LINE
5
158
100
AcDbEntity
8
bulkhead
6
ByLayer
62
256
370
-1
100
AcDbLine
10
2
20
250
11
-0.0100002393144
21
250
0
LINE
5
159
100
AcDbEntity
8
bulkhead
6
ByLayer
62
256
370
-1
100
AcDbLine
10
0
20
245
11
2
21
245
0
LINE
5
15A
100
AcDbEntity
8
bulkhead
6
ByLayer
62
256
370
-1
100
AcDbLine
10
2
20
210
11
0
21
210
0
LINE
5
15B
100
AcDbEntity
8
bulkhead
6
ByLayer
62
256
370
-1
100
AcDbLine
10
2
20
220.465022673
11
2
21
210
0
LINE
5
15C
100
AcDbEntity
8
bulkhead
6
ByLayer
62
256
370
-1
100
AcDbLine
10
0
20
200
11
2
21
200
0
LINE
5
15D
100
AcDbEntity
8
bulkhead
6
ByLayer
62
256
370
-1
100
AcDbLine
10
2
20
190
11
0
21
190
0
LINE
5
15E
100
AcDbEntity
8
bulkhead
6
ByLayer
62
256
370
-1
100
AcDbLine
10
0
20
180
11
2
21
180
0
LINE
5
15F
100
AcDbEntity
8
bulkhead
6
ByLayer
62
256
370
-1
100
AcDbLine
10
2
20
170
11
0
21
170
0
LINE
5
160
100
AcDbEntity
8
bulkhead
6
ByLayer
62
256
370
-1
100
AcDbLine
10
0
20
160
11
2
21
160
0
LINE
5
161
100
AcDbEntity
8
bulkhead
6
ByLayer
62
256
370
-1
100
AcDbLine
10
2
20
138.245022673
11
2
21
130
0
LINE
5
162
100
AcDbEntity
8
bulkhead
6
ByLayer
62
256
370
-1
100
AcDbLine
10
2
20
130
11
0
21
130
0
LINE
5
163
100
AcDbEntity
8
bulkhead
6
ByLayer
62
256
370
-1
100
AcDbLine
10
0
20
120
11
2
21
120
0
LINE
5
164
100
AcDbEntity
8
bulkhead
6
ByLayer
62
256
370
-1
100
AcDbLine
10
2
20
110
11
0
21
110
0
LINE
5
165
100
AcDbEntity
8
bulkhead
6
ByLayer
62
256
370
-1
100
AcDbLine
10
0
20
100
11
2
21
100
0
LINE
5
166
100
AcDbEntity
8
bulkhead
6
ByLayer
62
256
370
-1
100
AcDbLine
10
2
20
90
11
0
21
90
0
LINE
5
167
100
AcDbEntity
8
bulkhead
6
ByLayer
62
256
370
-1
100
AcDbLine
10
0
20
70
11
2
21
70
0
LINE
5
168
100
AcDbEntity
8
bulkhead
6
ByLayer
62
256
370
-1
100
AcDbLine
10
2
20
30
11
2
21
20
0
LINE
5
169
100
AcDbEntity
8
bulkhead
6
ByLayer
62
256
370
-1
100
AcDbLine
10
2
20
10
11
0
21
10
0
LINE
5
16A
100
AcDbEntity
8
bulkhead
6
ByLayer
62
256
370
-1
100
AcDbLine
10
2
20
20
11
0
21
20
0
LINE
5
16B
100
AcDbEntity
8
bulkhead
6
ByLayer
62
256
370
-1
100
AcDbLine
10
0
20
30
11
2
21
30
0
LINE
5
16C
100
AcDbEntity
8
bulkhead
6
ByLayer
62
256
370
-1
100
AcDbLine
10
2
20
40
11
0
21
40
0
LINE
5
16D
100
AcDbEntity
8
bulkhead
6
ByLayer
62
256
370
-1
100
AcDbLine
10
20
20
242
11
30
21
242
0
LINE
5
16E
100
AcDbEntity
8
bulkhead
6
ByLayer
62
256
370
-1
100
AcDbLine
10
60
20
242
11
70
21
242
0
LINE
5
16F
100
AcDbEntity
8
bulkhead
6
ByLayer
62
256
370
-1
100
AcDbLine
10
20
20
152
11
30
21
152
0
LINE
5
170
100
AcDbEntity
8
bulkhead
6
ByLayer
62
256
370
-1
100
AcDbLine
10
60
20
152
11
70
21
152
0
LINE
5
171
100
AcDbEntity
8
bulkhead
6
ByLayer
62
256
370
-1
100
AcDbLine
10
20
20
62
11
30
21
62
0
LINE
5
172
100
AcDbEntity
8
bulkhead
6
ByLayer
62
256
370
-1
100
AcDbLine
10
60
20
62
11
70
21
62
0
LINE
5
173
100
AcDbEntity
8
bulkhead
6
ByLayer
62
256
370
-1
100
AcDbLine
10
20
20
2
11
30
21
2
0
LINE
5
174
100
AcDbEntity
8
bulkhead
6
ByLayer
62
256
370
-1
100
AcDbLine
10
60
20
2
11
70
21
2
0
LINE
5
175
100
AcDbEntity
8
bulkhead
6
ByLayer
62
256
370
-1
100
AcDbLine
10
2
20
242
11
10
21
242
0
LINE
5
176
100
AcDbEntity
8
bulkhead
6
ByLayer
62
256
370
-1
100
AcDbLine
10
2
20
152
11
10
21
152
0
LINE
5
177
100
AcDbEntity
8
bulkhead
6
ByLayer
62
256
370
-1
100
AcDbLine
10
2
20
62
11
10
21
62
0
LINE
5
178
100
AcDbEntity
8
bulkhead
6
ByLayer
62
256
370
-1
100
AcDbLine
10
2
20
2
11
10
21
2
0
LINE
5
179
100
AcDbEntity
8
bulkhead
6
ByLayer
62
256
370
-1
100
AcDbLine
10
2
20
245
11
2
21
242
0
LINE
5
17A
100
AcDbEntity
8
bulkhead
6
ByLayer
62
256
370
-1
100
AcDbLine
10
10
20
242
11
10
21
240
0
LINE
5
17B
100
AcDbEntity
8
bulkhead
6
ByLayer
62
256
370
-1
100
AcDbLine
10
20
20
240
11
20
21
242
0
LINE
5
17C
100
AcDbEntity
8
bulkhead
6
ByLayer
62
256
370
-1
100
AcDbLine
10
30
20
242
11
30
21
240
0
LINE
5
17D
100
AcDbEntity
8
bulkhead
6
ByLayer
62
256
370
-1
100
AcDbLine
10
60
20
240
11
60
21
242
0
LINE
5
17E
100
AcDbEntity
8
bulkhead
6
ByLayer
62
256
370
-1
100
AcDbLine
10
70
20
242
11
70
21
240
0
LINE
5
17F
100
AcDbEntity
8
bulkhead
6
ByLayer
62
256
370
-1
100
AcDbLine
10
80
20
240
11
80
21
242
0
LINE
5
180
100
AcDbEntity
8
bulkhead
6
ByLayer
62
256
370
-1
100
AcDbLine
10
2
20
160
11
2
21
152
0
LINE
5
181
100
AcDbEntity
8
bulkhead
6
ByLayer
62
256
370
-1
100
AcDbLine
10
10
20
152
11
10
21
150
0
LINE
5
182
100
AcDbEntity
8
bulkhead
6
ByLayer
62
256
370
-1
100
AcDbLine
10
20
20
150
11
20
21
152
0
LINE
5
183
100
AcDbEntity
8
bulkhead
6
ByLayer
62
256
370
-1
100
AcDbLine
10
30
20
152
11
30
21
150
0
LINE
5
184
100
AcDbEntity
8
bulkhead
6
ByLayer
62
256
370
-1
100
AcDbLine
10
60
20
150
11
60
21
152
0
LINE
5
185
100
AcDbEntity
8
bulkhead
6
ByLayer
62
256
370
-1
100
AcDbLine
10
70
20
152
11
70
21
150
0
LINE
5
186
100
AcDbEntity
8
bulkhead
6
ByLayer
62
256
370
-1
100
AcDbLine
10
2
20
70
11
2
21
62
0
LINE
5
187
100
AcDbEntity
8
bulkhead
6
ByLayer
62
256
370
-1
100
AcDbLine
10
10
20
62
11
10
21
60
0
LINE
5
188
100
AcDbEntity
8
bulkhead
6
ByLayer
62
256
370
-1
100
AcDbLine
10
20
20
60
11
20
21
62
0
LINE
5
189
100
AcDbEntity
8
bulkhead
6
ByLayer
62
256
370
-1
100
AcDbLine
10
30
20
62
11
30
21
60
0
LINE
5
18A
100
AcDbEntity
8
bulkhead
6
ByLayer
62
256
370
-1
100
AcDbLine
10
60
20
60
11
60
21
62
0
LINE
5
18B
100
AcDbEntity
8
bulkhead
6
ByLayer
62
256
370
-1
100
AcDbLine
10
70
20
62
11
70
21
60
0
LINE
5
18C
100
AcDbEntity
8
bulkhead
6
ByLayer
62
256
370
-1
100
AcDbLine
10
80
20
60
11
80
21
62
0
LINE
5
18D
100
AcDbEntity
8
bulkhead
6
ByLayer
62
256
370
-1
100
AcDbLine
10
2
20
10
11
2
21
2
0
LINE
5
18E
100
AcDbEntity
8
bulkhead
6
ByLayer
62
256
370
-1
100
AcDbLine
10
10
20
2
11
10
21
-3.13551809782e-16
0
LINE
5
18F
100
AcDbEntity
8
bulkhead
6
ByLayer
62
256
370
-1
100
AcDbLine
10
20
20
-2.50208009826e-16
11
20
21
2
0
LINE
5
190
100
AcDbEntity
8
bulkhead
6
ByLayer
62
256
370
-1
100
AcDbLine
10
30
20
2
11
30
21
-1.8686420987e-16
0
LINE
5
191
100
AcDbEntity
8
bulkhead
6
ByLayer
62
256
370
-1
100
AcDbLine
10
60
20
-1.46957615898e-14
11
60
21
2
0
LINE
5
192
100
AcDbEntity
8
bulkhead
6
ByLayer
62
256
370
-1
100
AcDbLine
10
70
20
2
11
70
21
7.34788079488e-15
0
LINE
5
193
100
AcDbEntity
8
bulkhead
6
ByLayer
62
256
370
-1
100
AcDbLine
10
80
20
3.67394039744e-15
11
80
21
2
0
LINE
5
194
100
AcDbEntity
8
bulkhead
6
ByLayer
62
256
370
-1
100
AcDbLine
10
90
20
40
11
90
21
30
0
LINE
5
195
100
AcDbEntity
8
bulkhead
6
ByLayer
62
256
370
-1
100
AcDbLine
10
90
20
10
11
88.5
21
10
0
LINE
5
196
100
AcDbEntity
8
bulkhead
6
ByLayer
62
256
370
-1
100
AcDbLine
10
90
20
10
11
90
21
20
0
LINE
5
197
100
AcDbEntity
8
bulkhead
6
ByLayer
62
256
370
-1
100
AcDbLine
10
90
20
130
11
90
21
120
0
LINE
5
198
100
AcDbEntity
8
bulkhead
6
ByLayer
62
256
370
-1
100
AcDbLine
10
90
20
110
11
90
21
100
0
LINE
5
199
100
AcDbEntity
8
bulkhead
6
ByLayer
62
256
370
-1
100
AcDbLine
10
90
20
90
11
90
21
70
0
LINE
5
19A
100
AcDbEntity
8
bulkhead
6
ByLayer
62
256
370
-1
100
AcDbLine
10
90
20
210
11
90
21
200
0
LINE
5
19B
100
AcDbEntity
8
bulkhead
6
ByLayer
62
256
370
-1
100
AcDbLine
10
90
20
190
11
90
21
180
0
LINE
5
19C
100
AcDbEntity
8
bulkhead
6
ByLayer
62
256
370
-1
100
AcDbLine
10
90
20
170
11
90
21
160
0
LINE
5
19D
100
AcDbEntity
8
bulkhead
6
ByLayer
62
256
370
-1
100
AcDbLine
10
90.0300007179
20
270
11
90.0200004786
21
260
0
LINE
5
19E
100
AcDbEntity
8
bulkhead
6
ByLayer
62
256
370
-1
100
AcDbLine
10
90.0100002393
20
250
11
90
21
245
0
LINE
5
19F
100
AcDbEntity
8
bulkhead
6
ByLayer
62
256
370
-1
100
AcDbLine
10
88
20
120
11
88
21
110
0
LINE
5
1A0
100
AcDbEntity
8
bulkhead
6
ByLayer
62
256
370
-1
100
AcDbLine
10
88
20
100
11
88
21
90
0
LINE
5
1A1
100
AcDbEntity
8
bulkhead
6
ByLayer
62
256
370
-1
100
AcDbLine
10
88
20
200
11
88
21
190
0
LINE
5
1A2
100
AcDbEntity
8
bulkhead
6
ByLayer
62
256
370
-1
100
AcDbLine
10
88
20
180
11
88
21
170
0
LINE
5
1A3
100
AcDbEntity
8
bulkhead
6
ByLayer
62
256
370
-1
100
AcDbLine
10
88
20
260
11
88
21
250
0
LINE
5
1A4
100
AcDbEntity
8
bulkhead
6
ByLayer
62
256
370
-1
100
AcDbLine
10
88
20
270
11
90.0300007179
21
270
0
LINE
5
1A5
100
AcDbEntity
8
bulkhead
6
ByLayer
62
256
370
-1
100
AcDbLine
10
90.0200004786
20
260
11
88
21
260
0
LINE
5
1A6
100
AcDbEntity
8
bulkhead
6
ByLayer
62
256
370
-1
100
AcDbLine
10
88
20
250
11
90.0100002393
21
250
0
LINE
5
1A7
100
AcDbEntity
8
bulkhead
6
ByLayer
62
256
370
-1
100
AcDbLine
10
90
20
245
11
88
21
245
0
LINE
5
1A8
100
AcDbEntity
8
bulkhead
6
ByLayer
62
256
370
-1
100
AcDbLine
10
88
20
210
11
90
21
210
0
LINE
5
1A9
100
AcDbEntity
8
bulkhead
6
ByLayer
62
256
370
-1
100
AcDbLine
10
88
20
220.465022673
11
88
21
210
0
LINE
5
1AA
100
AcDbEntity
8
bulkhead
6
ByLayer
62
256
370
-1
100
AcDbLine
10
90
20
200
11
88
21
200
0
LINE
5
1AB
100
AcDbEntity
8
bulkhead
6
ByLayer
62
256
370
-1
100
AcDbLine
10
88
20
190
11
90
21
190
0
LINE
5
1AC
100
AcDbEntity
8
bulkhead
6
ByLayer
62
256
370
-1
100
AcDbLine
10
90
20
180
11
88
21
180
0
LINE
5
1AD
100
AcDbEntity
8
bulkhead
6
ByLayer
62
256
370
-1
100
AcDbLine
10
88
20
170
11
90
21
170
0
LINE
5
1AE
100
AcDbEntity
8
bulkhead
6
ByLayer
62
256
370
-1
100
AcDbLine
10
90
20
160
11
88
21
160
0
LINE
5
1AF
100
AcDbEntity
8
bulkhead
6
ByLayer
62
256
370
-1
100
AcDbLine
10
88
20
138.245022673
11
88
21
130
0
LINE
5
1B0
100
AcDbEntity
8
bulkhead
6
ByLayer
62
256
370
-1
100
AcDbLine
10
88
20
130
11
90
21
130
0
LINE
5
1B1
100
AcDbEntity
8
bulkhead
6
ByLayer
62
256
370
-1
100
AcDbLine
10
90
20
120
11
88
21
120
0
LINE
5
1B2
100
AcDbEntity
8
bulkhead
6
ByLayer
62
256
370
-1
100
AcDbLine
10
88
20
110
11
90
21
110
0
LINE
5
1B3
100
AcDbEntity
8
bulkhead
6
ByLayer
62
256
370
-1
100
AcDbLine
10
90
20
100
11
88
21
100
0
LINE
5
1B4
100
AcDbEntity
8
bulkhead
6
ByLayer
62
256
370
-1
100
AcDbLine
10
88
20
90
11
90
21
90
0
LINE
5
1B5
100
AcDbEntity
8
bulkhead
6
ByLayer
62
256
370
-1
100
AcDbLine
10
90
20
70
11
88
21
70
0
LINE
5
1B6
100
AcDbEntity
8
bulkhead
6
ByLayer
62
256
370
-1
100
AcDbLine
10
88
20
30
11
88
21
20
0
LINE
5
1B7
100
AcDbEntity
8
bulkhead
6
ByLayer
62
256
370
-1
100
AcDbLine
10
88
20
10
11
90
21
10
0
LINE
5
1B8
100
AcDbEntity
8
bulkhead
6
ByLayer
62
256
370
-1
100
AcDbLine
10
88
20
20
11
90
21
20
0
LINE
5
1B9
100
AcDbEntity
8
bulkhead
6
ByLayer
62
256
370
-1
100
AcDbLine
10
90
20
30
11
88
21
30
0
LINE
5
1BA
100
AcDbEntity
8
bulkhead
6
ByLayer
62
256
370
-1
100
AcDbLine
10
88
20
40
11
90
21
40
0
LINE
5
1BB
100
AcDbEntity
8
bulkhead
6
ByLayer
62
256
370
-1
100
AcDbLine
10
88
20
242
11
80
21
242
0
LINE
5
1BC
100
AcDbEntity
8
bulkhead
6
ByLayer
62
256
370
-1
100
AcDbLine
10
88
20
245
11
88
21
242
0
LINE
5
1BD
100
AcDbEntity
8
bulkhead
6
ByLayer
62
256
370
-1
100
AcDbLine
10
80
20
242
11
80
21
240
0
LINE
5
1BE
100
AcDbEntity
8
bulkhead
6
ByLayer
62
256
370
-1
100
AcDbLine
10
88
20
160
11
88
21
152
0
LINE
5
1BF
100
AcDbEntity
8
bulkhead
6
ByLayer
62
256
370
-1
100
AcDbLine
10
80
20
152
11
80
21
150
0
LINE
5
1C0
100
AcDbEntity
8
bulkhead
6
ByLayer
62
256
370
-1
100
AcDbLine
10
88
20
70
11
88
21
62
0
LINE
5
1C1
100
AcDbEntity
8
bulkhead
6
ByLayer
62
256
370
-1
100
AcDbLine
10
80
20
62
11
80
21
60
0
LINE
5
1C2
100
AcDbEntity
8
bulkhead
6
ByLayer
62
256
370
-1
100
AcDbLine
10
88
20
10
11
88
21
2
0
LINE
5
1C3
100
AcDbEntity
8
bulkhead
6
ByLayer
62
256
370
-1
100
AcDbLine
10
80
20
2
11
80
21
-3.13551809782e-16
0
LINE
5
1C4
100
AcDbEntity
8
bulkhead
6
ByLayer
62
256
370
-1
100
AcDbLine
10
80
20
242
11
88
21
242
0
LINE
5
1C5
100
AcDbEntity
8
bulkhead
6
ByLayer
62
256
370
-1
100
AcDbLine
10
80
20
152
11
88
21
152
0
LINE
5
1C6
100
AcDbEntity
8
bulkhead
6
ByLayer
62
256
370
-1
100
AcDbLine
10
80
20
62
11
88
21
62
0
LINE
5
1C7
100
AcDbEntity
8
bulkhead
6
ByLayer
62
256
370
-1
100
AcDbLine
10
88
20
2
11
80
21
2
0
LINE
5
1C8
100
AcDbEntity
8
bulkhead
6
ByLayer
62
256
370
-1
100
AcDbLine
10
80
20
2
11
88
21
2
0
LINE
5
1C9
100
AcDbEntity
8
side
6
ByLayer
62
256
370
-1
100
AcDbLine
10
270
20
30
11
270
21
40
0
LINE
5
1CA
100
AcDbEntity
8
side
6
ByLayer
62
256
370
-1
100
AcDbLine
10
270
20
10
11
270
21
20
0
LINE
5
1CB
100
AcDbEntity
8
side
6
ByLayer
62
256
370
-1
100
AcDbLine
10
300
20
40
11
300
21
50
0
LINE
5
1CC
100
AcDbEntity
8
side
6
ByLayer
62
256
370
-1
100
AcDbLine
10
300
20
60
11
300
21
70
0
LINE
5
1CD
100
AcDbEntity
8
side
6
ByLayer
62
256
370
-1
100
AcDbLine
10
450
20
60
11
450
21
50
0
LINE
5
1CE
100
AcDbEntity
8
side
6
ByLayer
62
256
370
-1
100
AcDbLine
10
450
20
40
11
450
21
30
0
LINE
5
1CF
100
AcDbEntity
8
side
6
ByLayer
62
256
370
-1
100
AcDbLine
10
450
20
20
11
450
21
10
0
LINE
5
1D0
100
AcDbEntity
8
side
6
ByLayer
62
256
370
-1
100
AcDbLine
10
510
20
30
11
510
21
20
0
LINE
5
1D1
100
AcDbEntity
8
side
6
ByLayer
62
256
370
-1
100
AcDbLine
10
510
20
10
11
510
21
5
0
LINE
5
1D2
100
AcDbEntity
8
side
6
ByLayer
62
256
370
-1
100
AcDbLine
10
268
20
48
11
268
21
0
0
LINE
5
1D3
100
AcDbEntity
8
side
6
ByLayer
62
256
370
-1
100
AcDbLine
10
512
20
38.9287055631
11
512
21
0
0
LINE
5
1D4
100
AcDbEntity
8
side
6
ByLayer
62
256
370
-1
100
AcDbLine
10
439.808134866
20
72.6729661259
11
429.821839518
21
73.1963256884
0
LINE
5
1D5
100
AcDbEntity
8
side
6
ByLayer
62
256
370
-1
100
AcDbLine
10
419.835544171
20
73.7196852508
11
409.849248823
21
74.2430448132
0
LINE
5
1D6
100
AcDbEntity
8
side
6
ByLayer
62
256
370
-1
100
AcDbLine
10
399.862953475
20
74.7664043757
11
374.897215107
21
76.0748032818
0
LINE
5
1D7
100
AcDbEntity
8
side
6
ByLayer
62
256
370
-1
100
AcDbLine
10
349.931476738
20
77.3832021878
11
324.965738369
21
78.6916010939
0
LINE
5
1D8
100
AcDbEntity
8
side
6
ByLayer
62
256
370
-1
100
AcDbLine
10
299.969999282
20
10
11
299.969999282
21
30
0
LINE
5
1D9
100
AcDbEntity
8
side
6
ByLayer
62
256
370
-1
100
AcDbLine
10
268
20
0
11
306.5
21
0
0
LINE
5
1DA
100
AcDbEntity
8
side
6
ByLayer
62
256
370
-1
100
AcDbLine
10
341.5
20
0
11
376.5
21
0
0
LINE
5
1DB
100
AcDbEntity
8
side
6
ByLayer
62
256
370
-1
100
AcDbLine
10
411.5
20
0
11
446.5
21
0
0
LINE
5
1DC
100
AcDbEntity
8
side
6
ByLayer
62
256
370
-1
100
AcDbLine
10
481.5
20
0
11
512
21
-4.89858719659e-16
0
LINE
5
1DD
100
AcDbEntity
8
side
6
ByLayer
62
256
370
-1
100
AcDbLine
10
272
20
40
11
272
21
30
0
LINE
5
1DE
100
AcDbEntity
8
side
6
ByLayer
62
256
370
-1
100
AcDbLine
10
272
20
20
11
272
21
10
0
LINE
5
1DF
100
AcDbEntity
8
side
6
ByLayer
62
256
370
-1
100
AcDbLine
10
302
20
50
11
302
21
40
0
LINE
5
1E0
100
AcDbEntity
8
side
6
ByLayer
62
256
370
-1
100
AcDbLine
10
302
20
70
11
302
21
60
0
LINE
5
1E1
100
AcDbEntity
8
side
6
ByLayer
62
256
370
-1
100
AcDbLine
10
302
20
30
11
302
21
10
0
LINE
5
1E2
100
AcDbEntity
8
side
6
ByLayer
62
256
370
-1
100
AcDbLine
10
448
20
50
11
448
21
60
0
LINE
5
1E3
100
AcDbEntity
8
side
6
ByLayer
62
256
370
-1
100
AcDbLine
10
448
20
30
11
448
21
40
0
LINE
5
1E4
100
AcDbEntity
8
side
6
ByLayer
62
256
370
-1
100
AcDbLine
10
448
20
10
11
448
21
20
0
LINE
5
1E5
100
AcDbEntity
8
side
6
ByLayer
62
256
370
-1
100
AcDbLine
10
508
20
20
11
508
21
30
0
LINE
5
1E6
100
AcDbEntity
8
side
6
ByLayer
62
256
370
-1
100
AcDbLine
10
508
20
5
11
508
21
10
0
LINE
5
1E7
100
AcDbEntity
8
side
6
ByLayer
62
256
370
-1
100
AcDbLine
10
270
20
40
11
272
21
40
0
LINE
5
1E8
100
AcDbEntity
8
side
6
ByLayer
62
256
370
-1
100
AcDbLine
10
272
20
30
11
270
21
30
0
LINE
5
1E9
100
AcDbEntity
8
side
6
ByLayer
62
256
370
-1
100
AcDbLine
10
270
20
20
11
272
21
20
0
LINE
5
1EA
100
AcDbEntity
8
side
6
ByLayer
62
256
370
-1
100
AcDbLine
10
272
20
10
11
270
21
10
0
LINE
5
1EB
100
AcDbEntity
8
side
6
ByLayer
62
256
370
-1
100
AcDbLine
10
300
20
70
11
302
21
70
0
LINE
5
1EC
100
AcDbEntity
8
side
6
ByLayer
62
256
370
-1
100
AcDbLine
10
302
20
60
11
300
21
60
0
LINE
5
1ED
100
AcDbEntity
8
side
6
ByLayer
62
256
370
-1
100
AcDbLine
10
300
20
50
11
302
21
50
0
LINE
5
1EE
100
AcDbEntity
8
side
6
ByLayer
62
256
370
-1
100
AcDbLine
10
302
20
40
11
300
21
40
0
LINE
5
1EF
100
AcDbEntity
8
side
6
ByLayer
62
256
370
-1
100
AcDbLine
10
299.969999282
20
30
11
302
21
30
0
LINE
5
1F0
100
AcDbEntity
8
side
6
ByLayer
62
256
370
-1
100
AcDbLine
10
302
20
10
11
299.969999282
21
10
0
LINE
5
1F1
100
AcDbEntity
8
side
6
ByLayer
62
256
370
-1
100
AcDbLine
10
448
20
60
11
450
21
60
0
LINE
5
1F2
100
AcDbEntity
8
side
6
ByLayer
62
256
370
-1
100
AcDbLine
10
450
20
50
11
448
21
50
0
LINE
5
1F3
100
AcDbEntity
8
side
6
ByLayer
62
256
370
-1
100
AcDbLine
10
448
20
40
11
450
21
40
0
LINE
5
1F4
100
AcDbEntity
8
side
6
ByLayer
62
256
370
-1
100
AcDbLine
10
450
20
30
11
448
21
30
0
LINE
5
1F5
100
AcDbEntity
8
side
6
ByLayer
62
256
370
-1
100
AcDbLine
10
448
20
20
11
450
21
20
0
LINE
5
1F6
100
AcDbEntity
8
side
6
ByLayer
62
256
370
-1
100
AcDbLine
10
450
20
10
11
448
21
10
0
LINE
5
1F7
100
AcDbEntity
8
side
6
ByLayer
62
256
370
-1
100
AcDbLine
10
510
20
5
11
508
21
5
0
LINE
5
1F8
100
AcDbEntity
8
side
6
ByLayer
62
256
370
-1
100
AcDbLine
10
508
20
10
11
510
21
10
0
LINE
5
1F9
100
AcDbEntity
8
side
6
ByLayer
62
256
370
-1
100
AcDbLine
10
510
20
20
11
508
21
20
0
LINE
5
1FA
100
AcDbEntity
8
side
6
ByLayer
62
256
370
-1
100
AcDbLine
10
508
20
30
11
510
21
30
0
LINE
5
1FB
100
AcDbEntity
8
side
6
ByLayer
62
256
370
-1
100
AcDbLine
10
306.5
20
2
11
341.5
21
2
0
LINE
5
1FC
100
AcDbEntity
8
side
6
ByLayer
62
256
370
-1
100
AcDbLine
10
376.5
20
2
11
411.5
21
2
0
LINE
5
1FD
100
AcDbEntity
8
side
6
ByLayer
62
256
370
-1
100
AcDbLine
10
446.5
20
2
11
481.5
21
2
0
LINE
5
1FE
100
AcDbEntity
8
side
6
ByLayer
62
256
370
-1
100
AcDbLine
10
306.5
20
0
11
306.5
21
2
0
LINE
5
1FF
100
AcDbEntity
8
side
6
ByLayer
62
256
370
-1
100
AcDbLine
10
341.5
20
2
11
341.5
21
0
0
LINE
5
200
100
AcDbEntity
8
side
6
ByLayer
62
256
370
-1
100
AcDbLine
10
376.5
20
0
11
376.5
21
2
0
LINE
5
201
100
AcDbEntity
8
side
6
ByLayer
62
256
370
-1
100
AcDbLine
10
411.5
20
2
11
411.5
21
0
0
LINE
5
202
100
AcDbEntity
8
side
6
ByLayer
62
256
370
-1
100
AcDbLine
10
446.5
20
0
11
446.5
21
2
0
LINE
5
203
100
AcDbEntity
8
side
6
ByLayer
62
256
370
-1
100
AcDbLine
10
481.5
20
2
11
481.5
21
0
0
LINE
5
204
100
AcDbEntity
8
side
6
ByLayer
62
256
370
-1
100
AcDbLine
10
450
20
72.1388331075
11
449.895328088
21
70.141574038
0
LINE
5
205
100
AcDbEntity
8
side
6
ByLayer
62
256
370
-1
100
AcDbLine
10
439.703462953
20
70.6757070564
11
439.808134866
21
72.6729661259
0
LINE
5
206
100
AcDbEntity
8
side
6
ByLayer
62
256
370
-1
100
AcDbLine
10
429.821839518
20
73.1963256884
11
429.717167606
21
71.1990666189
0
LINE
5
207
100
AcDbEntity
8
side
6
ByLayer
62
256
370
-1
100
AcDbLine
10
419.730872258
20
71.7224261813
11
419.835544171
21
73.7196852508
0
LINE
5
208
100
AcDbEntity
8
side
6
ByLayer
62
256
370
-1
100
AcDbLine
10
409.849248823
20
74.2430448132
11
409.744576911
21
72.2457857437
0
LINE
5
209
100
AcDbEntity
8
side
6
ByLayer
62
256
370
-1
100
AcDbLine
10
399.758281563
20
72.7691453062
11
399.862953475
21
74.7664043757
0
LINE
5
20A
100
AcDbEntity
8
side
6
ByLayer
62
256
370
-1
100
AcDbLine
10
374.897215107
20
76.0748032818
11
374.792543194
21
74.0775442122
0
LINE
5
20B
100
AcDbEntity
8
side
6
ByLayer
62
256
370
-1
100
AcDbLine
10
349.826804825
20
75.3859431183
11
349.931476738
21
77.3832021878
0
LINE
5
20C
100
AcDbEntity
8
side
6
ByLayer
62
256
370
-1
100
AcDbLine
10
324.965738369
20
78.6916010939
11
324.861066456
21
76.6943420244
0
LINE
5
20D
100
AcDbEntity
8
side
6
ByLayer
62
256
370
-1
100
AcDbLine
10
299.895328088
20
78.0027409305
11
300
21
80
0
LINE
5
20E
100
AcDbEntity
8
side
6
ByLayer
62
256
370
-1
100
AcDbLine
10
299.895328088
20
78.0027409305
11
324.861066456
21
76.6943420244
0
LINE
5
20F
100
AcDbEntity
8
side
6
ByLayer
62
256
370
-1
100
AcDbLine
10
349.826804825
20
75.3859431183
11
374.792543194
21
74.0775442122
0
LINE
5
210
100
AcDbEntity
8
side
6
ByLayer
62
256
370
-1
100
AcDbLine
10
399.758281563
20
72.7691453062
11
409.744576911
21
72.2457857437
0
LINE
5
211
100
AcDbEntity
8
side
6
ByLayer
62
256
370
-1
100
AcDbLine
10
419.730872258
20
71.7224261813
11
429.717167606
21
71.1990666189
0
LINE
5
212
100
AcDbEntity
8
side
6
ByLayer
62
256
370
-1
100
AcDbLine
10
439.703462953
20
70.6757070564
11
449.895328088
21
70.141574038
0
LINE
5
213
100
AcDbEntity
8
top-help
6
ByLayer
62
256
370
-1
100
AcDbLine
10
300
20
102
11
450.206
21
102
0
LINE
5
214
100
AcDbEntity
8
top-help
6
ByLayer
62
256
370
-1
100
AcDbLine
10
450.206
20
188
11
300
21
188
0
LINE
5
215
100
AcDbEntity
8
top-help
6
ByLayer
62
256
370
-1
100
AcDbLine
10
300
20
145
11
450
21
145
0
LINE
5
216
100
AcDbEntity
8
top-help
6
ByLayer
62
256
370
-1
100
AcDbLine
10
448.206
20
100
11
448.206
21
190
0
LINE
5
217
100
AcDbEntity
8
top-help
6
ByLayer
62
256
370
-1
100
AcDbLine
10
302
20
190
11
302
21
100
0
LINE
5
218
100
AcDbEntity
8
top-help
6
ByLayer
62
256
370
-1
100
AcDbLine
10
450.206
20
200
11
300
21
200
0
LINE
5
219
100
AcDbEntity
8
top-help
6
ByLayer
62
256
370
-1
100
AcDbLine
10
450.206
20
178
11
300
21
178
0
LINE
5
21A
100
AcDbEntity
8
top-help
6
ByLayer
62
256
370
-1
100
AcDbLine
10
300
20
112
11
450.206
21
112
0
LINE
5
21B
100
AcDbEntity
8
top-help
6
ByLayer
62
256
370
-1
100
AcDbLine
10
300
20
90
11
450.206
21
90
0
LINE
5
21C
100
AcDbEntity
8
top-help
6
ByLayer
62
256
370
-1
100
AcDbLine
10
327
20
190
11
327
21
100
0
LINE
5
21D
100
AcDbEntity
8
top-help
6
ByLayer
62
256
370
-1
100
AcDbLine
10
423.206
20
100
11
423.206
21
190
0
LINE
5
21E
100
AcDbEntity
8
top-help
6
ByLayer
62
256
370
-1
100
AcDbLine
10
300
20
147
11
450
21
147
0
LINE
5
21F
100
AcDbEntity
8
top-help
6
ByLayer
62
256
370
-1
100
AcDbLine
10
300
20
143
11
450
21
143
0
LINE
5
220
100
AcDbEntity
8
top-help
6
ByLayer
62
256
370
-1
100
AcDbLine
10
307
20
190
11
307
21
100
0
LINE
5
221
100
AcDbEntity
8
top-help
6
ByLayer
62
256
370
-1
100
AcDbLine
10
312
20
190
11
312
21
100
0
LINE
5
222
100
AcDbEntity
8
top-help
6
ByLayer
62
256
370
-1
100
AcDbLine
10
317
20
190
11
317
21
100
0
LINE
5
223
100
AcDbEntity
8
top-help
6
ByLayer
62
256
370
-1
100
AcDbLine
10
322
20
190
11
322
21
100
0
LINE
5
224
100
AcDbEntity
8
top-help
6
ByLayer
62
256
370
-1
100
AcDbLine
10
443.206
20
100
11
443.206
21
190
0
LINE
5
225
100
AcDbEntity
8
top-help
6
ByLayer
62
256
370
-1
100
AcDbLine
10
438.206
20
100
11
438.206
21
190
0
LINE
5
226
100
AcDbEntity
8
top-help
6
ByLayer
62
256
370
-1
100
AcDbLine
10
433.206
20
100
11
433.206
21
190
0
LINE
5
227
100
AcDbEntity
8
top-help
6
ByLayer
62
256
370
-1
100
AcDbLine
10
428.206
20
100
11
428.206
21
190
0
LINE
5
228
100
AcDbEntity
8
top
6
ByLayer
62
256
370
-1
100
AcDbLine
10
300
20
145
11
302
21
145
0
LINE
5
229
100
AcDbEntity
8
top
6
ByLayer
62
256
370
-1
100
AcDbLine
10
302
20
145
11
302
21
147
0
LINE
5
22A
100
AcDbEntity
8
top
6
ByLayer
62
256
370
-1
100
AcDbLine
10
302
20
147
11
307
21
147
0
LINE
5
22B
100
AcDbEntity
8
top
6
ByLayer
62
256
370
-1
100
AcDbLine
10
307
20
147
11
307
21
145
0
LINE
5
22C
100
AcDbEntity
8
top
6
ByLayer
62
256
370
-1
100
AcDbLine
10
307
20
145
11
307
21
143
0
LINE
5
22D
100
AcDbEntity
8
top
6
ByLayer
62
256
370
-1
100
AcDbLine
10
307
20
143
11
312
21
143
0
LINE
5
22E
100
AcDbEntity
8
top
6
ByLayer
62
256
370
-1
100
AcDbLine
10
312
20
143
11
312
21
147
0
LINE
5
22F
100
AcDbEntity
8
top
6
ByLayer
62
256
370
-1
100
AcDbLine
10
312
20
147
11
317
21
147
0
LINE
5
230
100
AcDbEntity
8
top
6
ByLayer
62
256
370
-1
100
AcDbLine
10
317
20
147
11
317
21
143
0
LINE
5
231
100
AcDbEntity
8
top
6
ByLayer
62
256
370
-1
100
AcDbLine
10
317
20
143
11
322
21
143
0
LINE
5
232
100
AcDbEntity
8
top
6
ByLayer
62
256
370
-1
100
AcDbLine
10
322
20
143
11
322
21
145
0
LINE
5
233
100
AcDbEntity
8
top
6
ByLayer
62
256
370
-1
100
AcDbLine
10
322
20
145
11
327
21
145
0
LINE
5
234
100
AcDbEntity
8
top
6
ByLayer
62
256
370
-1
100
AcDbLine
10
450
20
145
11
448.206
21
145
0
LINE
5
235
100
AcDbEntity
8
top
6
ByLayer
62
256
370
-1
100
AcDbLine
10
448.206
20
145
11
448.206
21
143
0
LINE
5
236
100
AcDbEntity
8
top
6
ByLayer
62
256
370
-1
100
AcDbLine
10
448.206
20
143
11
443.206
21
143
0
LINE
5
237
100
AcDbEntity
8
top
6
ByLayer
62
256
370
-1
100
AcDbLine
10
443.206
20
143
11
443.206
21
147
0
LINE
5
238
100
AcDbEntity
8
top
6
ByLayer
62
256
370
-1
100
AcDbLine
10
443.206
20
147
11
438.206
21
147
0
LINE
5
239
100
AcDbEntity
8
top
6
ByLayer
62
256
370
-1
100
AcDbLine
10
438.206
20
147
11
438.206
21
143
0
LINE
5
23A
100
AcDbEntity
8
top
6
ByLayer
62
256
370
-1
100
AcDbLine
10
438.206
20
143
11
433.206
21
143
0
LINE
5
23B
100
AcDbEntity
8
top
6
ByLayer
62
256
370
-1
100
AcDbLine
10
433.206
20
143
11
433.206
21
147
0
LINE
5
23C
100
AcDbEntity
8
top
6
ByLayer
62
256
370
-1
100
AcDbLine
10
433.206
20
147
11
428.206
21
147
0
LINE
5
23D
100
AcDbEntity
8
top
6
ByLayer
62
256
370
-1
100
AcDbLine
10
428.206
20
147
11
428.206
21
145
0
ARC
5
23E
100
AcDbEntity
8
top
6
ByLayer
62
256
370
-1
100
AcDbCircle
10
332
20
173
40
5
100
AcDbArc
50
90
51
180
0
ARC
5
23F
100
AcDbEntity
8
top
6
ByLayer
62
256
370
-1
100
AcDbCircle
10
418.206
20
173
40
5
100
AcDbArc
50
0
51
90
0
ARC
5
240
100
AcDbEntity
8
top
6
ByLayer
62
256
370
-1
100
AcDbCircle
10
418.206
20
117
40
5
100
AcDbArc
50
270
51
0
0
ARC
5
241
100
AcDbEntity
8
top
6
ByLayer
62
256
370
-1
100
AcDbCircle
10
332
20
117
40
5
100
AcDbArc
50
180
51
270
0
LINE
5
242
100
AcDbEntity
8
top
6
ByLayer
62
256
370
-1
100
AcDbLine
10
332
20
112
11
418.206
21
112
0
LINE
5
243
100
AcDbEntity
8
top
6
ByLayer
62
256
370
-1
100
AcDbLine
10
423.206
20
172.999992371
11
423.206
21
117.000007629
0
LINE
5
244
100
AcDbEntity
8
top
6
ByLayer
62
256
370
-1
100
AcDbLine
10
332
20
178
11
418.205994605
21
178
0
LINE
5
245
100
AcDbEntity
8
top
6
ByLayer
62
256
370
-1
100
AcDbLine
10
327
20
173
11
327
21
117
0
LINE
5
246
100
AcDbEntity
8
top-help
6
ByLayer
62
256
370
-1
100
AcDbLine
10
325
20
200
11
325
21
90
0
LINE
5
247
100
AcDbEntity
8
top-help
6
ByLayer
62
256
370
-1
100
AcDbLine
10
350
20
200
11
350
21
90
0
LINE
5
248
100
AcDbEntity
8
top-help
6
ByLayer
62
256
370
-1
100
AcDbLine
10
375
20
200
11
375
21
90
0
LINE
5
249
100
AcDbEntity
8
top-help
6
ByLayer
62
256
370
-1
100
AcDbLine
10
400
20
200
11
400
21
90
0
LINE
5
24A
100
AcDbEntity
8
top-help
6
ByLayer
62
256
370
-1
100
AcDbLine
10
410
20
200
11
410
21
90
0
LINE
5
24B
100
AcDbEntity
8
top-help
6
ByLayer
62
256
370
-1
100
AcDbLine
10
420
20
200
11
420
21
90
0
LINE
5
24C
100
AcDbEntity
8
top-help
6
ByLayer
62
256
370
-1
100
AcDbLine
10
430
20
200
11
430
21
90
0
LINE
5
24D
100
AcDbEntity
8
top-help
6
ByLayer
62
256
370
-1
100
AcDbLine
10
440
20
200
11
440
21
90
0
LINE
5
24E
100
AcDbEntity
8
top-help
6
ByLayer
62
256
370
-1
100
AcDbLine
10
302
20
190
11
448.206
21
190
0
LINE
5
24F
100
AcDbEntity
8
top-help
6
ByLayer
62
256
370
-1
100
AcDbLine
10
302
20
100
11
448.206
21
100
0
LINE
5
250
100
AcDbEntity
8
top
6
ByLayer
62
256
370
-1
100
AcDbLine
10
325
20
100
11
350
21
100
0
LINE
5
251
100
AcDbEntity
8
top
6
ByLayer
62
256
370
-1
100
AcDbLine
10
350
20
100
11
350
21
102
0
LINE
5
252
100
AcDbEntity
8
top
6
ByLayer
62
256
370
-1
100
AcDbLine
10
350
20
102
11
325
21
102
0
LINE
5
253
100
AcDbEntity
8
top
6
ByLayer
62
256
370
-1
100
AcDbLine
10
325
20
102
11
325
21
100
0
LINE
5
254
100
AcDbEntity
8
top
6
ByLayer
62
256
370
-1
100
AcDbLine
10
375
20
100
11
400
21
100
0
LINE
5
255
100
AcDbEntity
8
top
6
ByLayer
62
256
370
-1
100
AcDbLine
10
400
20
100
11
400
21
102
0
LINE
5
256
100
AcDbEntity
8
top
6
ByLayer
62
256
370
-1
100
AcDbLine
10
400
20
102
11
375
21
102
0
LINE
5
257
100
AcDbEntity
8
top
6
ByLayer
62
256
370
-1
100
AcDbLine
10
375
20
102
11
375
21
100
0
LINE
5
258
100
AcDbEntity
8
top
6
ByLayer
62
256
370
-1
100
AcDbLine
10
410
20
100
11
420
21
100
0
LINE
5
259
100
AcDbEntity
8
top
6
ByLayer
62
256
370
-1
100
AcDbLine
10
420
20
100
11
420
21
102
0
LINE
5
25A
100
AcDbEntity
8
top
6
ByLayer
62
256
370
-1
100
AcDbLine
10
420
20
102
11
410
21
102
0
LINE
5
25B
100
AcDbEntity
8
top
6
ByLayer
62
256
370
-1
100
AcDbLine
10
410
20
102
11
410
21
100
0
LINE
5
25C
100
AcDbEntity
8
top
6
ByLayer
62
256
370
-1
100
AcDbLine
10
430
20
100
11
440
21
100
0
LINE
5
25D
100
AcDbEntity
8
top
6
ByLayer
62
256
370
-1
100
AcDbLine
10
440
20
100
11
440
21
102
0
LINE
5
25E
100
AcDbEntity
8
top
6
ByLayer
62
256
370
-1
100
AcDbLine
10
440
20
102
11
430
21
102
0
LINE
5
25F
100
AcDbEntity
8
top
6
ByLayer
62
256
370
-1
100
AcDbLine
10
430
20
102
11
430
21
100
0
LINE
5
260
100
AcDbEntity
8
top
6
ByLayer
62
256
370
-1
100
AcDbLine
10
325
20
190
11
350
21
190
0
LINE
5
261
100
AcDbEntity
8
top
6
ByLayer
62
256
370
-1
100
AcDbLine
10
350
20
190
11
350
21
188
0
LINE
5
262
100
AcDbEntity
8
top
6
ByLayer
62
256
370
-1
100
AcDbLine
10
350
20
188
11
325
21
188
0
LINE
5
263
100
AcDbEntity
8
top
6
ByLayer
62
256
370
-1
100
AcDbLine
10
325
20
188
11
325
21
190
0
LINE
5
264
100
AcDbEntity
8
top
6
ByLayer
62
256
370
-1
100
AcDbLine
10
375
20
190
11
400
21
190
0
LINE
5
265
100
AcDbEntity
8
top
6
ByLayer
62
256
370
-1
100
AcDbLine
10
400
20
190
11
400
21
188
0
LINE
5
266
100
AcDbEntity
8
top
6
ByLayer
62
256
370
-1
100
AcDbLine
10
400
20
188
11
375
21
188
0
LINE
5
267
100
AcDbEntity
8
top
6
ByLayer
62
256
370
-1
100
AcDbLine
10
375
20
188
11
375
21
190
0
LINE
5
268
100
AcDbEntity
8
top
6
ByLayer
62
256
370
-1
100
AcDbLine
10
410
20
190
11
420
21
190
0
LINE
5
269
100
AcDbEntity
8
top
6
ByLayer
62
256
370
-1
100
AcDbLine
10
420
20
190
11
420
21
188
0
LINE
5
26A
100
AcDbEntity
8
top
6
ByLayer
62
256
370
-1
100
AcDbLine
10
420
20
188
11
410
21
188
0
LINE
5
26B
100
AcDbEntity
8
top
6
ByLayer
62
256
370
-1
100
AcDbLine
10
410
20
188
11
410
21
190
0
LINE
5
26C
100
AcDbEntity
8
top
6
ByLayer
62
256
370
-1
100
AcDbLine
10
430
20
190
11
440
21
190
0
LINE
5
26D
100
AcDbEntity
8
top
6
ByLayer
62
256
370
-1
100
AcDbLine
10
440
20
190
11
440
21
188
0
LINE
5
26E
100
AcDbEntity
8
top
6
ByLayer
62
256
370
-1
100
AcDbLine
10
440
20
188
11
430
21
188
0
LINE
5
26F
100
AcDbEntity
8
top
6
ByLayer
62
256
370
-1
100
AcDbLine
10
430
20
188
11
430
21
190
0
LINE
5
270
100
AcDbEntity
8
top
6
ByLayer
62
256
370
-1
100
AcDbLine
10
300
20
200
11
450.206
21
200
0
LINE
5
271
100
AcDbEntity
8
top
6
ByLayer
62
256
370
-1
100
AcDbLine
10
300
20
90
11
450.206
21
90
0
LINE
5
272
100
AcDbEntity
8
top
6
ByLayer
62
256
370
-1
100
AcDbLine
10
428.206
20
145
11
423.206
21
145
0
LINE
5
273
100
AcDbEntity
8
bulkhead-help
6
ByLayer
62
256
370
-1
100
AcDbLine
10
87.8256885145
20
140.237412069
11
44.8256885145
21
136.475399538
0
LINE
5
274
100
AcDbEntity
8
bulkhead-help
6
ByLayer
62
256
370
-1
100
AcDbLine
10
2.1743114855
20
140.237412069
11
45.1743114855
21
136.475399538
0
LINE
5
275
100
AcDbEntity
8
bulkhead-help
6
ByLayer
62
256
370
-1
100
AcDbLine
10
87.8256885145
20
222.457412069
11
44.8256885145
21
218.695399538
0
LINE
5
276
100
AcDbEntity
8
bulkhead-help
6
ByLayer
62
256
370
-1
100
AcDbLine
10
2.1743114855
20
222.457412069
11
45.1743114855
21
218.695399538
0
LINE
5
277
100
AcDbEntity
8
top-help
6
ByLayer
62
2
370
-1
100
AcDbLine
10
300
20
153
11
450
21
153
0
LINE
5
278
100
AcDbEntity
8
top-help
6
ByLayer
62
2
370
-1
100
AcDbLine
10
300
20
161
11
450
21
161
0
LINE
5
279
100
AcDbEntity
8
top-help
6
ByLayer
62
2
370
-1
100
AcDbLine
10
300
20
169
11
450
21
169
0
LINE
5
27A
100
AcDbEntity
8
top-help
6
ByLayer
62
2
370
-1
100
AcDbLine
10
300
20
177
11
450
21
177
0
LINE
5
27B
100
AcDbEntity
8
top-help
6
ByLayer
62
2
370
-1
100
AcDbLine
10
300
20
137
11
450
21
137
0
LINE
5
27C
100
AcDbEntity
8
top-help
6
ByLayer
62
2
370
-1
100
AcDbLine
10
300
20
129
11
450
21
129
0
LINE
5
27D
100
AcDbEntity
8
top-help
6
ByLayer
62
2
370
-1
100
AcDbLine
10
300
20
121
11
450
21
121
0
LINE
5
27E
100
AcDbEntity
8
top-help
6
ByLayer
62
2
370
-1
100
AcDbLine
10
300
20
113
11
450
21
113
0
LINE
5
27F
100
AcDbEntity
8
bulkhead-help
6
ByLayer
62
2
370
-1
100
AcDbLine
10
45
20
0
11
45
21
500
0
LINE
5
280
100
AcDbEntity
8
bulkhead-help
6
ByLayer
62
2
370
-1
100
AcDbLine
10
37
20
9.79717439318e-16
11
37
21
500
0
LINE
5
281
100
AcDbEntity
8
bulkhead-help
6
ByLayer
62
2
370
-1
100
AcDbLine
10
29
20
1.95943487864e-15
11
29
21
500
0
LINE
5
282
100
AcDbEntity
8
bulkhead-help
6
ByLayer
62
2
370
-1
100
AcDbLine
10
21
20
2.93915231795e-15
11
21
21
500
0
LINE
5
283
100
AcDbEntity
8
bulkhead-help
6
ByLayer
62
2
370
-1
100
AcDbLine
10
13
20
3.91886975727e-15
11
13
21
500
0
LINE
5
284
100
AcDbEntity
8
bulkhead-help
6
ByLayer
62
2
370
-1
100
AcDbLine
10
53
20
-1.95943487864e-15
11
53
21
500
0
LINE
5
285
100
AcDbEntity
8
bulkhead-help
6
ByLayer
62
2
370
-1
100
AcDbLine
10
61
20
-3.91886975727e-15
11
61
21
500
0
LINE
5
286
100
AcDbEntity
8
bulkhead-help
6
ByLayer
62
2
370
-1
100
AcDbLine
10
69
20
-5.87830463591e-15
11
69
21
500
0
LINE
5
287
100
AcDbEntity
8
bulkhead-help
6
ByLayer
62
2
370
-1
100
AcDbLine
10
77
20
-7.83773951454e-15
11
77
21
500
0
LINE
5
288
100
AcDbEntity
8
bulkhead
6
ByLayer
62
256
370
-1
100
AcDbLine
10
2
20
220.465022673
11
13
21
219.502647374
0
LINE
5
289
100
AcDbEntity
8
bulkhead
6
ByLayer
62
256
370
-1
100
AcDbLine
10
13
20
219.502647374
11
13
21
221.510287049
0
LINE
5
28A
100
AcDbEntity
8
bulkhead
6
ByLayer
62
256
370
-1
100
AcDbLine
10
13
20
221.510287049
11
21
21
220.810377741
0
LINE
5
28B
100
AcDbEntity
8
bulkhead
6
ByLayer
62
256
370
-1
100
AcDbLine
10
21
20
220.810377741
11
21
21
218.802738066
0
LINE
5
28C
100
AcDbEntity
8
bulkhead
6
ByLayer
62
256
370
-1
100
AcDbLine
10
21
20
218.802738066
11
29
21
218.102828758
0
LINE
5
28D
100
AcDbEntity
8
bulkhead
6
ByLayer
62
256
370
-1
100
AcDbLine
10
29
20
218.102828758
11
29
21
220.110468433
0
LINE
5
28E
100
AcDbEntity
8
bulkhead
6
ByLayer
62
256
370
-1
100
AcDbLine
10
29
20
220.110468433
11
37
21
219.410559125
0
LINE
5
28F
100
AcDbEntity
8
bulkhead
6
ByLayer
62
256
370
-1
100
AcDbLine
10
37
20
219.410559125
11
37
21
217.40291945
0
LINE
5
290
100
AcDbEntity
8
bulkhead
6
ByLayer
62
256
370
-1
100
AcDbLine
10
37
20
217.40291945
11
45
21
216.703010141
0
LINE
5
291
100
AcDbEntity
8
bulkhead
6
ByLayer
62
256
370
-1
100
AcDbLine
10
45
20
216.703010141
11
53
21
217.40291945
0
LINE
5
292
100
AcDbEntity
8
bulkhead
6
ByLayer
62
256
370
-1
100
AcDbLine
10
53
20
217.40291945
11
53
21
219.410559125
0
LINE
5
293
100
AcDbEntity
8
bulkhead
6
ByLayer
62
256
370
-1
100
AcDbLine
10
53
20
219.410559125
11
61
21
220.110468433
0
LINE
5
294
100
AcDbEntity
8
bulkhead
6
ByLayer
62
256
370
-1
100
AcDbLine
10
61
20
220.110468433
11
61
21
218.102828758
0
LINE
5
295
100
AcDbEntity
8
bulkhead
6
ByLayer
62
256
370
-1
100
AcDbLine
10
61
20
218.102828758
11
69
21
218.802738066
0
LINE
5
296
100
AcDbEntity
8
bulkhead
6
ByLayer
62
256
370
-1
100
AcDbLine
10
69
20
218.802738066
11
69
21
220.810377741
0
LINE
5
297
100
AcDbEntity
8
bulkhead
6
ByLayer
62
256
370
-1
100
AcDbLine
10
69
20
220.810377741
11
77
21
221.510287049
0
LINE
5
298
100
AcDbEntity
8
bulkhead
6
ByLayer
62
256
370
-1
100
AcDbLine
10
77
20
221.510287049
11
77
21
219.502647374
0
LINE
5
299
100
AcDbEntity
8
bulkhead
6
ByLayer
62
256
370
-1
100
AcDbLine
10
77
20
219.502647374
11
88
21
220.465022673
0
LINE
5
29A
100
AcDbEntity
8
bulkhead
6
ByLayer
62
256
370
-1
100
AcDbLine
10
2
20
138.245022673
11
13
21
137.282647374
0
LINE
5
29B
100
AcDbEntity
8
bulkhead
6
ByLayer
62
256
370
-1
100
AcDbLine
10
13
20
137.282647374
11
13
21
139.290287049
0
LINE
5
29C
100
AcDbEntity
8
bulkhead
6
ByLayer
62
256
370
-1
100
AcDbLine
10
13
20
139.290287049
11
21
21
138.590377741
0
LINE
5
29D
100
AcDbEntity
8
bulkhead
6
ByLayer
62
256
370
-1
100
AcDbLine
10
21
20
138.590377741
11
21
21
136.582738066
0
LINE
5
29E
100
AcDbEntity
8
bulkhead
6
ByLayer
62
256
370
-1
100
AcDbLine
10
21
20
136.582738066
11
29
21
135.882828758
0
LINE
5
29F
100
AcDbEntity
8
bulkhead
6
ByLayer
62
256
370
-1
100
AcDbLine
10
29
20
135.882828758
11
29
21
137.890468433
0
LINE
5
2A0
100
AcDbEntity
8
bulkhead
6
ByLayer
62
256
370
-1
100
AcDbLine
10
29
20
137.890468433
11
37
21
137.190559125
0
LINE
5
2A1
100
AcDbEntity
8
bulkhead
6
ByLayer
62
256
370
-1
100
AcDbLine
10
37
20
137.190559125
11
37
21
135.18291945
0
LINE
5
2A2
100
AcDbEntity
8
bulkhead
6
ByLayer
62
256
370
-1
100
AcDbLine
10
37
20
135.18291945
11
45
21
134.483010141
0
LINE
5
2A3
100
AcDbEntity
8
bulkhead
6
ByLayer
62
256
370
-1
100
AcDbLine
10
45
20
134.483010141
11
53
21
135.18291945
0
LINE
5
2A4
100
AcDbEntity
8
bulkhead
6
ByLayer
62
256
370
-1
100
AcDbLine
10
53
20
135.18291945
11
53
21
137.190559125
0
LINE
5
2A5
100
AcDbEntity
8
bulkhead
6
ByLayer
62
256
370
-1
100
AcDbLine
10
53
20
137.190559125
11
61
21
137.890468433
0
LINE
5
2A6
100
AcDbEntity
8
bulkhead
6
ByLayer
62
256
370
-1
100
AcDbLine
10
61
20
137.890468433
11
61
21
135.882828758
0
LINE
5
2A7
100
AcDbEntity
8
bulkhead
6
ByLayer
62
256
370
-1
100
AcDbLine
10
61
20
135.882828758
11
69
21
136.582738066
0
LINE
5
2A8
100
AcDbEntity
8
bulkhead
6
ByLayer
62
256
370
-1
100
AcDbLine
10
69
20
136.582738066
11
69
21
138.590377741
0
LINE
5
2A9
100
AcDbEntity
8
bulkhead
6
ByLayer
62
256
370
-1
100
AcDbLine
10
69
20
138.590377741
11
77
21
139.290287049
0
LINE
5
2AA
100
AcDbEntity
8
bulkhead
6
ByLayer
62
256
370
-1
100
AcDbLine
10
77
20
139.290287049
11
77
21
137.282647374
0
LINE
5
2AB
100
AcDbEntity
8
bulkhead
6
ByLayer
62
256
370
-1
100
AcDbLine
10
77
20
137.282647374
11
88
21
138.245022673
0
LINE
5
2AC
100
AcDbEntity
8
top
6
ByLayer
62
256
370
-1
100
AcDbLine
10
300
20
177
11
302
21
177
0
LINE
5
2AD
100
AcDbEntity
8
top
6
ByLayer
62
256
370
-1
100
AcDbLine
10
302
20
177
11
302
21
169
0
LINE
5
2AE
100
AcDbEntity
8
top
6
ByLayer
62
256
370
-1
100
AcDbLine
10
302
20
169
11
300
21
169
0
LINE
5
2AF
100
AcDbEntity
8
top
6
ByLayer
62
256
370
-1
100
AcDbLine
10
302
20
161
11
300
21
161
0
LINE
5
2B0
100
AcDbEntity
8
top
6
ByLayer
62
256
370
-1
100
AcDbLine
10
300
20
153
11
302
21
153
0
LINE
5
2B1
100
AcDbEntity
8
top
6
ByLayer
62
256
370
-1
100
AcDbLine
10
302
20
153
11
302
21
161
0
LINE
5
2B2
100
AcDbEntity
8
top
6
ByLayer
62
256
370
-1
100
AcDbLine
10
302
20
137
11
300
21
137
0
LINE
5
2B3
100
AcDbEntity
8
top
6
ByLayer
62
256
370
-1
100
AcDbLine
10
300
20
129
11
302
21
129
0
LINE
5
2B4
100
AcDbEntity
8
top
6
ByLayer
62
256
370
-1
100
AcDbLine
10
302
20
129
11
302
21
137
0
LINE
5
2B5
100
AcDbEntity
8
top
6
ByLayer
62
256
370
-1
100
AcDbLine
10
302
20
121
11
300
21
121
0
LINE
5
2B6
100
AcDbEntity
8
top
6
ByLayer
62
256
370
-1
100
AcDbLine
10
300
20
113
11
302
21
113
0
LINE
5
2B7
100
AcDbEntity
8
top
6
ByLayer
62
256
370
-1
100
AcDbLine
10
302
20
113
11
302
21
121
0
LINE
5
2B8
100
AcDbEntity
8
top
6
ByLayer
62
256
370
-1
100
AcDbLine
10
448.206
20
113
11
450
21
113
0
LINE
5
2B9
100
AcDbEntity
8
top
6
ByLayer
62
256
370
-1
100
AcDbLine
10
450
20
121
11
448.206
21
121
0
LINE
5
2BA
100
AcDbEntity
8
top
6
ByLayer
62
256
370
-1
100
AcDbLine
10
448.206
20
121
11
448.206
21
113
0
LINE
5
2BB
100
AcDbEntity
8
top
6
ByLayer
62
256
370
-1
100
AcDbLine
10
450
20
137
11
448.206
21
137
0
LINE
5
2BC
100
AcDbEntity
8
top
6
ByLayer
62
256
370
-1
100
AcDbLine
10
448.206
20
137
11
448.206
21
129
0
LINE
5
2BD
100
AcDbEntity
8
top
6
ByLayer
62
256
370
-1
100
AcDbLine
10
448.206
20
129
11
450
21
129
0
LINE
5
2BE
100
AcDbEntity
8
top
6
ByLayer
62
256
370
-1
100
AcDbLine
10
450
20
169
11
448.206
21
169
0
LINE
5
2BF
100
AcDbEntity
8
top
6
ByLayer
62
256
370
-1
100
AcDbLine
10
448.206
20
169
11
448.206
21
177
0
LINE
5
2C0
100
AcDbEntity
8
top
6
ByLayer
62
256
370
-1
100
AcDbLine
10
448.206
20
177
11
450
21
177
0
LINE
5
2C1
100
AcDbEntity
8
top
6
ByLayer
62
256
370
-1
100
AcDbLine
10
450
20
161
11
448.206
21
161
0
LINE
5
2C2
100
AcDbEntity
8
top
6
ByLayer
62
256
370
-1
100
AcDbLine
10
448.206
20
161
11
448.206
21
153
0
LINE
5
2C3
100
AcDbEntity
8
top
6
ByLayer
62
256
370
-1
100
AcDbLine
10
448.206
20
153
11
450
21
153
0
LINE
5
2C4
100
AcDbEntity
8
top
6
ByLayer
62
256
370
-1
100
AcDbLine
10
300
20
200
11
300
21
177
0
LINE
5
2C5
100
AcDbEntity
8
top
6
ByLayer
62
256
370
-1
100
AcDbLine
10
300
20
169
11
300
21
161
0
LINE
5
2C6
100
AcDbEntity
8
top
6
ByLayer
62
256
370
-1
100
AcDbLine
10
300
20
153
11
300
21
137
0
LINE
5
2C7
100
AcDbEntity
8
top
6
ByLayer
62
256
370
-1
100
AcDbLine
10
300
20
129
11
300
21
121
0
LINE
5
2C8
100
AcDbEntity
8
top
6
ByLayer
62
256
370
-1
100
AcDbLine
10
300
20
113
11
300
21
90
0
LINE
5
2C9
100
AcDbEntity
8
top
6
ByLayer
62
256
370
-1
100
AcDbLine
10
450.206
20
90
11
450
21
113
0
LINE
5
2CA
100
AcDbEntity
8
top
6
ByLayer
62
256
370
-1
100
AcDbLine
10
450
20
121
11
450
21
129
0
LINE
5
2CB
100
AcDbEntity
8
top
6
ByLayer
62
256
370
-1
100
AcDbLine
10
450
20
145
11
450
21
153
0
LINE
5
2CC
100
AcDbEntity
8
top
6
ByLayer
62
256
370
-1
100
AcDbLine
10
450
20
161
11
450
21
169
0
LINE
5
2CD
100
AcDbEntity
8
top
6
ByLayer
62
256
370
-1
100
AcDbLine
10
450
20
177
11
450.206
21
200
0
LINE
5
2CE
100
AcDbEntity
8
top
6
ByLayer
62
256
370
-1
100
AcDbLine
10
450
20
145
11
450
21
137
0
CIRCLE
5
2CF
100
AcDbEntity
8
bulkhead
6
ByLayer
62
256
370
-1
100
AcDbCircle
10
45
20
10
40
8
0
CIRCLE
5
2D0
100
AcDbEntity
8
bulkhead
6
ByLayer
62
256
370
-1
100
AcDbCircle
10
45
20
70
40
8
0
CIRCLE
5
2D1
100
AcDbEntity
8
bulkhead
6
ByLayer
62
256
370
-1
100
AcDbCircle
10
45
20
160
40
8
0
CIRCLE
5
2D2
100
AcDbEntity
8
bulkhead
6
ByLayer
62
256
370
-1
100
AcDbCircle
10
45
20
250
40
8
0
LINE
5
2D3
100
AcDbEntity
8
bulkhead
6
ByLayer
62
256
370
-1
100
AcDbLine
10
27.7663120604
20
17
11
22
21
17
0
ARC
5
2D4
100
AcDbEntity
8
bulkhead
6
ByLayer
62
256
370
-1
100
AcDbCircle
10
27.7663120604
20
22
40
5
100
AcDbArc
50
270
51
325.150095421
0
ARC
5
2D5
100
AcDbEntity
8
bulkhead
6
ByLayer
62
256
370
-1
100
AcDbCircle
10
45
20
10
40
16
100
AcDbArc
50
34.849904579
51
145.150095421
0
LINE
5
2D6
100
AcDbEntity
8
bulkhead
6
ByLayer
62
256
370
-1
100
AcDbLine
10
68
20
17
11
62.2336879396
21
17
0
ARC
5
2D7
100
AcDbEntity
8
bulkhead
6
ByLayer
62
256
370
-1
100
AcDbCircle
10
62.2336879396
20
22
40
5
100
AcDbArc
50
214.849904579
51
270
0
LINE
5
2D8
100
AcDbEntity
8
bulkhead
6
ByLayer
62
256
370
-1
100
AcDbLine
10
27.7663120604
20
77
11
22
21
77
0
ARC
5
2D9
100
AcDbEntity
8
bulkhead
6
ByLayer
62
256
370
-1
100
AcDbCircle
10
27.7663120604
20
82
40
5
100
AcDbArc
50
270
51
325.150095421
0
ARC
5
2DA
100
AcDbEntity
8
bulkhead
6
ByLayer
62
256
370
-1
100
AcDbCircle
10
45
20
70
40
16
100
AcDbArc
50
34.849904579
51
145.150095421
0
LINE
5
2DB
100
AcDbEntity
8
bulkhead
6
ByLayer
62
256
370
-1
100
AcDbLine
10
68
20
77
11
62.2336879396
21
77
0
ARC
5
2DC
100
AcDbEntity
8
bulkhead
6
ByLayer
62
256
370
-1
100
AcDbCircle
10
62.2336879396
20
82
40
5
100
AcDbArc
50
214.849904579
51
270
0
LINE
5
2DD
100
AcDbEntity
8
bulkhead
6
ByLayer
62
256
370
-1
100
AcDbLine
10
68
20
167
11
62.2336879396
21
167
0
ARC
5
2DE
100
AcDbEntity
8
bulkhead
6
ByLayer
62
256
370
-1
100
AcDbCircle
10
62.2336879396
20
172
40
5
100
AcDbArc
50
214.849904579
51
270
0
ARC
5
2DF
100
AcDbEntity
8
bulkhead
6
ByLayer
62
256
370
-1
100
AcDbCircle
10
45
20
160
40
16
100
AcDbArc
50
34.849904579
51
145.150095421
0
LINE
5
2E0
100
AcDbEntity
8
bulkhead
6
ByLayer
62
256
370
-1
100
AcDbLine
10
27.7663120604
20
167
11
22
21
167
0
ARC
5
2E1
100
AcDbEntity
8
bulkhead
6
ByLayer
62
256
370
-1
100
AcDbCircle
10
27.7663120604
20
172
40
5
100
AcDbArc
50
270
51
325.150095421
0
LINE
5
2E2
100
AcDbEntity
8
bulkhead
6
ByLayer
62
256
370
-1
100
AcDbLine
10
22
20
257
11
27.7663120604
21
257
0
ARC
5
2E3
100
AcDbEntity
8
bulkhead
6
ByLayer
62
256
370
-1
100
AcDbCircle
10
27.7663120604
20
262
40
5
100
AcDbArc
50
270
51
325.150095421
0
LINE
5
2E4
100
AcDbEntity
8
bulkhead
6
ByLayer
62
256
370
-1
100
AcDbLine
10
68
20
257
11
62.2336879396
21
257
0
ARC
5
2E5
100
AcDbEntity
8
bulkhead
6
ByLayer
62
256
370
-1
100
AcDbCircle
10
45
20
250
40
16
100
AcDbArc
50
34.849904579
51
145.150095421
0
ARC
5
2E6
100
AcDbEntity
8
bulkhead
6
ByLayer
62
256
370
-1
100
AcDbCircle
10
62.2336879396
20
262
40
5
100
AcDbArc
50
214.849904579
51
270
0
LINE
5
2E7
100
AcDbEntity
8
top-help
6
ByLayer
62
256
370
-1
100
AcDbLine
10
300
20
77.1715728753
11
298.585786438
21
78.5857864376
0
LINE
5
2E8
100
AcDbEntity
8
top-help
6
ByLayer
62
256
370
-1
100
AcDbLine
10
268
20
48
11
269.414213562
21
46.5857864376
0
LINE
5
2E9
100
AcDbEntity
8
top-help
6
ByLayer
62
256
370
-1
100
AcDbLine
10
301.414213562
20
78.5857864376
11
269.414213562
21
46.5857864376
0
LINE
5
2EA
100
AcDbEntity
8
top-help
6
ByLayer
62
256
370
-1
100
AcDbLine
10
270
20
47.1715728753
11
268.585786438
21
48.5857864376
0
LINE
5
2EB
100
AcDbEntity
8
top-help
6
ByLayer
62
256
370
-1
100
AcDbLine
10
272.164213562
20
49.3357864376
11
270.75
21
50.75
0
LINE
5
2EC
100
AcDbEntity
8
top-help
6
ByLayer
62
256
370
-1
100
AcDbLine
10
270
20
47.1715728753
11
271.5
21
47.1715728753
0
LINE
5
2ED
100
AcDbEntity
8
bulkhead-help
6
ByLayer
62
256
370
-1
100
AcDbLine
10
2
20
47.17157
11
88
21
47.17157
0
LINE
5
2EE
100
AcDbEntity
8
bulkhead
6
ByLayer
62
256
370
-1
100
AcDbLine
10
2
20
47.17157
11
10
21
47.17157
0
LINE
5
2EF
100
AcDbEntity
8
bulkhead
6
ByLayer
62
256
370
-1
100
AcDbLine
10
10
20
47.17157
11
10
21
50
0
LINE
5
2F0
100
AcDbEntity
8
bulkhead
6
ByLayer
62
256
370
-1
100
AcDbLine
10
10
20
50
11
20
21
50
0
LINE
5
2F1
100
AcDbEntity
8
bulkhead
6
ByLayer
62
256
370
-1
100
AcDbLine
10
20
20
50
11
20
21
47.17157
0
LINE
5
2F2
100
AcDbEntity
8
bulkhead
6
ByLayer
62
256
370
-1
100
AcDbLine
10
20
20
47.17157
11
30
21
47.17157
0
LINE
5
2F3
100
AcDbEntity
8
bulkhead
6
ByLayer
62
256
370
-1
100
AcDbLine
10
30
20
47.17157
11
30
21
50
0
LINE
5
2F4
100
AcDbEntity
8
bulkhead
6
ByLayer
62
256
370
-1
100
AcDbLine
10
30
20
50
11
60
21
50
0
LINE
5
2F5
100
AcDbEntity
8
bulkhead
6
ByLayer
62
256
370
-1
100
AcDbLine
10
60
20
50
11
60
21
47.17157
0
LINE
5
2F6
100
AcDbEntity
8
bulkhead
6
ByLayer
62
256
370
-1
100
AcDbLine
10
60
20
47.17157
11
70
21
47.17157
0
LINE
5
2F7
100
AcDbEntity
8
bulkhead
6
ByLayer
62
256
370
-1
100
AcDbLine
10
70
20
47.17157
11
70
21
50
0
LINE
5
2F8
100
AcDbEntity
8
bulkhead
6
ByLayer
62
256
370
-1
100
AcDbLine
10
70
20
50
11
80
21
50
0
LINE
5
2F9
100
AcDbEntity
8
bulkhead
6
ByLayer
62
256
370
-1
100
AcDbLine
10
80
20
50
11
80
21
47.17157
0
LINE
5
2FA
100
AcDbEntity
8
bulkhead
6
ByLayer
62
256
370
-1
100
AcDbLine
10
80
20
47.17157
11
88
21
47.17157
0
LINE
5
2FB
100
AcDbEntity
8
bulkhead
6
ByLayer
62
256
370
-1
100
AcDbLine
10
2
20
47.17157
11
2
21
40
0
LINE
5
2FC
100
AcDbEntity
8
bulkhead
6
ByLayer
62
256
370
-1
100
AcDbLine
10
88
20
47.17157
11
88
21
40
0
LINE
5
2FD
100
AcDbEntity
8
top
6
ByLayer
62
256
370
-1
100
AcDbLine
10
200
20
190
11
200
21
100
0
LINE
5
2FE
100
AcDbEntity
8
top-help
6
ByLayer
62
256
370
-1
100
AcDbLine
10
200.828427
20
190
11
200.828427
21
100
0
LINE
5
2FF
100
AcDbEntity
8
top-help
6
ByLayer
62
256
370
-1
100
AcDbLine
10
203.88909
20
190
11
203.88909
21
100
0
LINE
5
300
100
AcDbEntity
8
top
6
ByLayer
62
256
370
-1
100
AcDbLine
10
200.828427
20
180
11
203.88909
21
180
0
LINE
5
301
100
AcDbEntity
8
top
6
ByLayer
62
256
370
-1
100
AcDbLine
10
203.88909
20
180
11
203.88909
21
170
0
LINE
5
302
100
AcDbEntity
8
top
6
ByLayer
62
256
370
-1
100
AcDbLine
10
203.88909
20
170
11
200.828427
21
170
0
LINE
5
303
100
AcDbEntity
8
top
6
ByLayer
62
256
370
-1
100
AcDbLine
10
200.828427
20
170
11
200.828427
21
180
0
LINE
5
304
100
AcDbEntity
8
top
6
ByLayer
62
256
370
-1
100
AcDbLine
10
200.828427
20
160
11
203.88909
21
160
0
LINE
5
305
100
AcDbEntity
8
top
6
ByLayer
62
256
370
-1
100
AcDbLine
10
203.88909
20
160
11
203.88909
21
130
0
LINE
5
306
100
AcDbEntity
8
top
6
ByLayer
62
256
370
-1
100
AcDbLine
10
203.88909
20
130
11
200.828427
21
130
0
LINE
5
307
100
AcDbEntity
8
top
6
ByLayer
62
256
370
-1
100
AcDbLine
10
200.828427
20
130
11
200.828427
21
160
0
LINE
5
308
100
AcDbEntity
8
top
6
ByLayer
62
256
370
-1
100
AcDbLine
10
200.828427
20
120
11
203.88909
21
120
0
LINE
5
309
100
AcDbEntity
8
top
6
ByLayer
62
256
370
-1
100
AcDbLine
10
203.88909
20
120
11
203.88909
21
110
0
LINE
5
30A
100
AcDbEntity
8
top
6
ByLayer
62
256
370
-1
100
AcDbLine
10
203.88909
20
110
11
200.828427
21
110
0
LINE
5
30B
100
AcDbEntity
8
top
6
ByLayer
62
256
370
-1
100
AcDbLine
10
200.828427
20
110
11
200.828427
21
120
0
LINE
5
30C
100
AcDbEntity
8
top-help
6
ByLayer
62
256
370
-1
100
AcDbLine
10
200
20
102
11
243.2548
21
102
0
LINE
5
30D
100
AcDbEntity
8
top-help
6
ByLayer
62
256
370
-1
100
AcDbLine
10
243.2548
20
188
11
200
21
188
0
LINE
5
30E
100
AcDbEntity
8
top-help
6
ByLayer
62
256
370
-1
100
AcDbLine
10
275.071067812
20
55.0710678119
11
276.485281374
21
53.6568542495
0
LINE
5
30F
100
AcDbEntity
8
top-help
6
ByLayer
62
256
370
-1
100
AcDbLine
10
292.928932188
20
70.1005050634
11
291.514718626
21
71.5147186258
0
LINE
5
310
100
AcDbEntity
8
top-help
6
ByLayer
62
256
370
-1
100
AcDbLine
10
210
20
190
11
210
21
100
0
LINE
5
311
100
AcDbEntity
8
top-help
6
ByLayer
62
256
370
-1
100
AcDbLine
10
233.2548
20
100
11
233.2548
21
190
0
LINE
5
312
100
AcDbEntity
8
top
6
ByLayer
62
256
370
-1
100
AcDbLine
10
200
20
100
11
210
21
100
0
LINE
5
313
100
AcDbEntity
8
top-help
6
ByLayer
62
256
370
-1
100
AcDbLine
10
223.2548
20
100
11
223.2548
21
190
0
LINE
5
314
100
AcDbEntity
8
top-help
6
ByLayer
62
256
370
-1
100
AcDbLine
10
285.857864376
20
63.0294372515
11
284.443650814
21
64.4436508139
0
LINE
5
315
100
AcDbEntity
8
top
6
ByLayer
62
256
370
-1
100
AcDbLine
10
200
20
100
11
210
21
100
0
LINE
5
316
100
AcDbEntity
8
top
6
ByLayer
62
256
370
-1
100
AcDbLine
10
210
20
100
11
210
21
102
0
LINE
5
317
100
AcDbEntity
8
top
6
ByLayer
62
256
370
-1
100
AcDbLine
10
210
20
102
11
223.2548
21
102
0
LINE
5
318
100
AcDbEntity
8
top
6
ByLayer
62
256
370
-1
100
AcDbLine
10
223.2548
20
102
11
223.2548
21
100
0
LINE
5
319
100
AcDbEntity
8
top
6
ByLayer
62
256
370
-1
100
AcDbLine
10
223.2548
20
100
11
233.2548
21
100
0
LINE
5
31A
100
AcDbEntity
8
top
6
ByLayer
62
256
370
-1
100
AcDbLine
10
233.2548
20
100
11
233.2548
21
102
0
LINE
5
31B
100
AcDbEntity
8
top
6
ByLayer
62
256
370
-1
100
AcDbLine
10
233.2548
20
102
11
243.2548
21
102
0
LINE
5
31C
100
AcDbEntity
8
top
6
ByLayer
62
256
370
-1
100
AcDbLine
10
200
20
190
11
210
21
190
0
LINE
5
31D
100
AcDbEntity
8
top
6
ByLayer
62
256
370
-1
100
AcDbLine
10
210
20
190
11
210
21
188
0
LINE
5
31E
100
AcDbEntity
8
top
6
ByLayer
62
256
370
-1
100
AcDbLine
10
210
20
188
11
223.2548
21
188
0
LINE
5
31F
100
AcDbEntity
8
top
6
ByLayer
62
256
370
-1
100
AcDbLine
10
223.2548
20
188
11
223.2548
21
190
0
LINE
5
320
100
AcDbEntity
8
top
6
ByLayer
62
256
370
-1
100
AcDbLine
10
223.2548
20
190
11
233.2548
21
190
0
LINE
5
321
100
AcDbEntity
8
top
6
ByLayer
62
256
370
-1
100
AcDbLine
10
233.2548
20
190
11
233.2548
21
188
0
LINE
5
322
100
AcDbEntity
8
top
6
ByLayer
62
256
370
-1
100
AcDbLine
10
233.2548
20
188
11
243.2548
21
188
0
LINE
5
323
100
AcDbEntity
8
top
6
ByLayer
62
256
370
-1
100
AcDbLine
10
243.2548
20
102
11
243.2548
21
188
0
LINE
5
324
100
AcDbEntity
8
side
6
ByLayer
62
256
370
-1
100
AcDbLine
10
300
20
80
11
291.514718626
21
71.5147186258
0
LINE
5
325
100
AcDbEntity
8
side
6
ByLayer
62
256
370
-1
100
AcDbLine
10
291.514718626
20
71.5147186258
11
292.928932188
21
70.1005050634
0
LINE
5
326
100
AcDbEntity
8
side
6
ByLayer
62
256
370
-1
100
AcDbLine
10
292.928932188
20
70.1005050634
11
285.857864376
21
63.0294372515
0
LINE
5
327
100
AcDbEntity
8
side
6
ByLayer
62
256
370
-1
100
AcDbLine
10
285.857864376
20
63.0294372515
11
284.443650814
21
64.4436508139
0
LINE
5
328
100
AcDbEntity
8
side
6
ByLayer
62
256
370
-1
100
AcDbLine
10
284.443650814
20
64.4436508139
11
275.071067812
21
55.0710678119
0
LINE
5
329
100
AcDbEntity
8
side
6
ByLayer
62
256
370
-1
100
AcDbLine
10
275.071067812
20
55.0710678119
11
276.485281374
21
53.6568542495
0
LINE
5
32A
100
AcDbEntity
8
side
6
ByLayer
62
256
370
-1
100
AcDbLine
10
276.485281374
20
53.6568542495
11
269.414213562
21
46.5857864376
0
LINE
5
32B
100
AcDbEntity
8
side
6
ByLayer
62
256
370
-1
100
AcDbLine
10
269.414213562
20
46.5857864376
11
268
21
48
0
ARC
5
32C
100
AcDbEntity
8
top
6
ByLayer
62
256
370
-1
100
AcDbCircle
10
216.88909
20
175
40
5
100
AcDbArc
50
90
51
180
0
LINE
5
32D
100
AcDbEntity
8
top
6
ByLayer
62
256
370
-1
100
AcDbLine
10
230.2548
20
180
11
216.88909
21
180
0
ARC
5
32E
100
AcDbEntity
8
top
6
ByLayer
62
256
370
-1
100
AcDbCircle
10
230.2548
20
175
40
5
100
AcDbArc
50
0
51
90
0
LINE
5
32F
100
AcDbEntity
8
top
6
ByLayer
62
256
370
-1
100
AcDbLine
10
235.2548
20
115
11
235.2548
21
175
0
ARC
5
330
100
AcDbEntity
8
top
6
ByLayer
62
256
370
-1
100
AcDbCircle
10
230.2548
20
115
40
5
100
AcDbArc
50
270
51
0
0
LINE
5
331
100
AcDbEntity
8
top
6
ByLayer
62
256
370
-1
100
AcDbLine
10
211.88909
20
175
11
211.88909
21
115
0
LINE
5
332
100
AcDbEntity
8
top
6
ByLayer
62
256
370
-1
100
AcDbLine
10
216.88909
20
110
11
230.2548
21
110
0
ARC
5
333
100
AcDbEntity
8
top
6
ByLayer
62
256
370
-1
100
AcDbCircle
10
216.88909
20
115
40
5
100
AcDbArc
50
180
51
270
0
LINE
5
334
100
AcDbEntity
8
top-help
6
ByLayer
62
256
370
-1
100
AcDbLine
10
512
20
36.6598574477
11
450
21
69.8699849921
0
LINE
5
335
100
AcDbEntity
8
top-help
6
ByLayer
62
256
370
-1
100
AcDbLine
10
450.94435095
20
71.6329941477
11
450
21
69.8699849921
0
LINE
5
336
100
AcDbEntity
8
top-help
6
ByLayer
62
256
370
-1
100
AcDbLine
10
512
20
38.9287055631
11
511.05564905
21
37.1656964075
0
LINE
5
337
100
AcDbEntity
8
summary
6
ByLayer
62
256
370
-1
100
AcDbLine
10
510
20
40
11
450.118554785
21
72.0753295669
0
LINE
5
338
100
AcDbEntity
8
top-help
6
ByLayer
62
256
370
-1
100
AcDbLine
10
508
20
41.0712944369
11
508
21
20
0
LINE
5
339
100
AcDbEntity
8
bulkhead-help
6
ByLayer
62
256
370
-1
100
AcDbLine
10
88
20
277.73115
11
2
21
277.73115
0
LINE
5
33A
100
AcDbEntity
8
bulkhead
6
ByLayer
62
256
370
-1
100
AcDbLine
10
2
20
277.73115
11
10
21
277.73115
0
LINE
5
33B
100
AcDbEntity
8
bulkhead
6
ByLayer
62
256
370
-1
100
AcDbLine
10
10
20
277.73115
11
10
21
280
0
LINE
5
33C
100
AcDbEntity
8
bulkhead
6
ByLayer
62
256
370
-1
100
AcDbLine
10
10
20
280
11
20
21
280
0
LINE
5
33D
100
AcDbEntity
8
bulkhead
6
ByLayer
62
256
370
-1
100
AcDbLine
10
20
20
280
11
20
21
277.73115
0
LINE
5
33E
100
AcDbEntity
8
bulkhead
6
ByLayer
62
256
370
-1
100
AcDbLine
10
20
20
277.73115
11
30
21
277.73115
0
LINE
5
33F
100
AcDbEntity
8
bulkhead
6
ByLayer
62
256
370
-1
100
AcDbLine
10
30
20
277.73115
11
30
21
280
0
LINE
5
340
100
AcDbEntity
8
bulkhead
6
ByLayer
62
256
370
-1
100
AcDbLine
10
30
20
280
11
60
21
280
0
LINE
5
341
100
AcDbEntity
8
bulkhead
6
ByLayer
62
256
370
-1
100
AcDbLine
10
60
20
280
11
60
21
277.73115
0
LINE
5
342
100
AcDbEntity
8
bulkhead
6
ByLayer
62
256
370
-1
100
AcDbLine
10
60
20
277.73115
11
70
21
277.73115
0
LINE
5
343
100
AcDbEntity
8
bulkhead
6
ByLayer
62
256
370
-1
100
AcDbLine
10
70
20
277.73115
11
70
21
280
0
LINE
5
344
100
AcDbEntity
8
bulkhead
6
ByLayer
62
256
370
-1
100
AcDbLine
10
70
20
280
11
80
21
280
0
LINE
5
345
100
AcDbEntity
8
bulkhead
6
ByLayer
62
256
370
-1
100
AcDbLine
10
80
20
280
11
80
21
277.73115
0
LINE
5
346
100
AcDbEntity
8
bulkhead
6
ByLayer
62
256
370
-1
100
AcDbLine
10
80
20
277.73115
11
88
21
277.73115
0
LINE
5
347
100
AcDbEntity
8
bulkhead
6
ByLayer
62
256
370
-1
100
AcDbLine
10
2
20
277.73115
11
2
21
270
0
LINE
5
348
100
AcDbEntity
8
bulkhead
6
ByLayer
62
256
370
-1
100
AcDbLine
10
88
20
277.73115
11
88
21
270
0
LINE
5
349
100
AcDbEntity
8
top-help
6
ByLayer
62
256
370
-1
100
AcDbLine
10
200
20
180
11
569.263
21
180
0
LINE
5
34A
100
AcDbEntity
8
top-help
6
ByLayer
62
256
370
-1
100
AcDbLine
10
200
20
170
11
569.263
21
170
0
LINE
5
34B
100
AcDbEntity
8
top-help
6
ByLayer
62
256
370
-1
100
AcDbLine
10
200
20
160
11
569.263
21
160
0
LINE
5
34C
100
AcDbEntity
8
top-help
6
ByLayer
62
256
370
-1
100
AcDbLine
10
200
20
130
11
569.263
21
130
0
LINE
5
34D
100
AcDbEntity
8
top-help
6
ByLayer
62
256
370
-1
100
AcDbLine
10
200
20
120
11
569.263
21
120
0
LINE
5
34E
100
AcDbEntity
8
top-help
6
ByLayer
62
256
370
-1
100
AcDbLine
10
200
20
110
11
569.263
21
110
0
LINE
5
34F
100
AcDbEntity
8
top-help
6
ByLayer
62
256
370
-1
100
AcDbLine
10
508.445899359
20
40.8324496857
11
507.501548408
21
39.0694405302
0
LINE
5
350
100
AcDbEntity
8
top-help
6
ByLayer
62
256
370
-1
100
AcDbLine
10
568.06545
20
100
11
568.06545
21
190
0
LINE
5
351
100
AcDbEntity
8
top-help
6
ByLayer
62
256
370
-1
100
AcDbLine
10
565.23114
20
100
11
565.23114
21
190
0
LINE
5
352
100
AcDbEntity
8
top
6
ByLayer
62
256
370
-1
100
AcDbLine
10
565.23114
20
180
11
568.06545
21
180
0
LINE
5
353
100
AcDbEntity
8
top
6
ByLayer
62
256
370
-1
100
AcDbLine
10
568.06545
20
180
11
568.06545
21
170
0
LINE
5
354
100
AcDbEntity
8
top
6
ByLayer
62
256
370
-1
100
AcDbLine
10
568.06545
20
170
11
565.23114
21
170
0
LINE
5
355
100
AcDbEntity
8
top
6
ByLayer
62
256
370
-1
100
AcDbLine
10
565.23114
20
170
11
565.23114
21
180
0
LINE
5
356
100
AcDbEntity
8
top
6
ByLayer
62
256
370
-1
100
AcDbLine
10
565.23114
20
160
11
568.06545
21
160
0
LINE
5
357
100
AcDbEntity
8
top
6
ByLayer
62
256
370
-1
100
AcDbLine
10
568.06545
20
160
11
568.06545
21
130
0
LINE
5
358
100
AcDbEntity
8
top
6
ByLayer
62
256
370
-1
100
AcDbLine
10
568.06545
20
130
11
565.23114
21
130
0
LINE
5
359
100
AcDbEntity
8
top
6
ByLayer
62
256
370
-1
100
AcDbLine
10
565.23114
20
130
11
565.23114
21
160
0
LINE
5
35A
100
AcDbEntity
8
top
6
ByLayer
62
256
370
-1
100
AcDbLine
10
565.23114
20
120
11
568.06545
21
120
0
LINE
5
35B
100
AcDbEntity
8
top
6
ByLayer
62
256
370
-1
100
AcDbLine
10
568.06545
20
120
11
568.06545
21
110
0
LINE
5
35C
100
AcDbEntity
8
top
6
ByLayer
62
256
370
-1
100
AcDbLine
10
568.06545
20
110
11
565.23114
21
110
0
LINE
5
35D
100
AcDbEntity
8
top
6
ByLayer
62
256
370
-1
100
AcDbLine
10
565.23114
20
110
11
565.23114
21
120
0
LINE
5
35E
100
AcDbEntity
8
top-help
6
ByLayer
62
256
370
-1
100
AcDbLine
10
459.759396728
20
66.9112393962
11
458.815045778
21
65.1482302406
0
LINE
5
35F
100
AcDbEntity
8
top-help
6
ByLayer
62
256
370
-1
100
AcDbLine
10
468.574442506
20
62.1894846447
11
467.630091556
21
60.4264754891
0
LINE
5
360
100
AcDbEntity
8
top-help
6
ByLayer
62
256
370
-1
100
AcDbLine
10
477.389488284
20
57.4677298932
11
476.445137334
21
55.7047207376
0
LINE
5
361
100
AcDbEntity
8
top-help
6
ByLayer
62
256
370
-1
100
AcDbLine
10
486.204534062
20
52.7459751417
11
485.260183112
21
50.9829659861
0
LINE
5
362
100
AcDbEntity
8
top-help
6
ByLayer
62
256
370
-1
100
AcDbLine
10
495.01957984
20
48.0242203901
11
494.07522889
21
46.2612112346
0
LINE
5
363
100
AcDbEntity
8
top-help
6
ByLayer
62
256
370
-1
100
AcDbLine
10
503.834625618
20
43.3024656386
11
502.890274667
21
41.539456483
0
LINE
5
364
100
AcDbEntity
8
top-help
6
ByLayer
62
256
370
-1
100
AcDbLine
10
510
20
190
11
510
21
100
0
LINE
5
365
100
AcDbEntity
8
top-help
6
ByLayer
62
256
370
-1
100
AcDbLine
10
520
20
190
11
520
21
100
0
LINE
5
366
100
AcDbEntity
8
top-help
6
ByLayer
62
256
370
-1
100
AcDbLine
10
530
20
190
11
530
21
100
0
LINE
5
367
100
AcDbEntity
8
top-help
6
ByLayer
62
256
370
-1
100
AcDbLine
10
540
20
190
11
540
21
100
0
LINE
5
368
100
AcDbEntity
8
top-help
6
ByLayer
62
256
370
-1
100
AcDbLine
10
550
20
190
11
550
21
100
0
LINE
5
369
100
AcDbEntity
8
top-help
6
ByLayer
62
256
370
-1
100
AcDbLine
10
560
20
190
11
560
21
100
0
LINE
5
36A
100
AcDbEntity
8
top-help
6
ByLayer
62
256
370
-1
100
AcDbLine
10
500
20
102
11
569.263
21
102
0
LINE
5
36B
100
AcDbEntity
8
top-help
6
ByLayer
62
256
370
-1
100
AcDbLine
10
569.263
20
188
11
500
21
188
0
LINE
5
36C
100
AcDbEntity
8
side
6
ByLayer
62
256
370
-1
100
AcDbLine
10
450
20
72.1388331075
11
459.759396728
21
66.9112393962
0
LINE
5
36D
100
AcDbEntity
8
side
6
ByLayer
62
256
370
-1
100
AcDbLine
10
459.759396728
20
66.9112393962
11
458.815045778
21
65.1482302406
0
LINE
5
36E
100
AcDbEntity
8
side
6
ByLayer
62
256
370
-1
100
AcDbLine
10
458.815045778
20
65.1482302406
11
467.630091556
21
60.4264754891
0
LINE
5
36F
100
AcDbEntity
8
side
6
ByLayer
62
256
370
-1
100
AcDbLine
10
467.630091556
20
60.4264754891
11
468.574442506
21
62.1894846447
0
LINE
5
370
100
AcDbEntity
8
side
6
ByLayer
62
256
370
-1
100
AcDbLine
10
468.574442506
20
62.1894846447
11
477.389488284
21
57.4677298932
0
LINE
5
371
100
AcDbEntity
8
side
6
ByLayer
62
256
370
-1
100
AcDbLine
10
477.389488284
20
57.4677298932
11
476.445137334
21
55.7047207376
0
LINE
5
372
100
AcDbEntity
8
side
6
ByLayer
62
256
370
-1
100
AcDbLine
10
476.445137334
20
55.7047207376
11
485.260183112
21
50.9829659861
0
LINE
5
373
100
AcDbEntity
8
side
6
ByLayer
62
256
370
-1
100
AcDbLine
10
485.260183112
20
50.9829659861
11
486.204534062
21
52.7459751417
0
LINE
5
374
100
AcDbEntity
8
side
6
ByLayer
62
256
370
-1
100
AcDbLine
10
486.204534062
20
52.7459751417
11
495.01957984
21
48.0242203901
0
LINE
5
375
100
AcDbEntity
8
side
6
ByLayer
62
256
370
-1
100
AcDbLine
10
495.01957984
20
48.0242203901
11
494.07522889
21
46.2612112346
0
LINE
5
376
100
AcDbEntity
8
side
6
ByLayer
62
256
370
-1
100
AcDbLine
10
494.07522889
20
46.2612112346
11
502.890274667
21
41.539456483
0
LINE
5
377
100
AcDbEntity
8
side
6
ByLayer
62
256
370
-1
100
AcDbLine
10
502.890274667
20
41.539456483
11
503.834625618
21
43.3024656386
0
LINE
5
378
100
AcDbEntity
8
side
6
ByLayer
62
256
370
-1
100
AcDbLine
10
503.834625618
20
43.3024656386
11
512
21
38.9287055631
0
LINE
5
379
100
AcDbEntity
8
top
6
ByLayer
62
256
370
-1
100
AcDbLine
10
500
20
102
11
510
21
102
0
LINE
5
37A
100
AcDbEntity
8
top
6
ByLayer
62
256
370
-1
100
AcDbLine
10
510
20
102
11
510
21
100
0
LINE
5
37B
100
AcDbEntity
8
top
6
ByLayer
62
256
370
-1
100
AcDbLine
10
510
20
100
11
520
21
100
0
LINE
5
37C
100
AcDbEntity
8
top
6
ByLayer
62
256
370
-1
100
AcDbLine
10
520
20
100
11
520
21
102
0
LINE
5
37D
100
AcDbEntity
8
top
6
ByLayer
62
256
370
-1
100
AcDbLine
10
520
20
102
11
530
21
102
0
LINE
5
37E
100
AcDbEntity
8
top
6
ByLayer
62
256
370
-1
100
AcDbLine
10
530
20
102
11
530
21
100
0
LINE
5
37F
100
AcDbEntity
8
top
6
ByLayer
62
256
370
-1
100
AcDbLine
10
530
20
100
11
540
21
100
0
LINE
5
380
100
AcDbEntity
8
top
6
ByLayer
62
256
370
-1
100
AcDbLine
10
540
20
100
11
540
21
102
0
LINE
5
381
100
AcDbEntity
8
top
6
ByLayer
62
256
370
-1
100
AcDbLine
10
540
20
102
11
550
21
102
0
LINE
5
382
100
AcDbEntity
8
top
6
ByLayer
62
256
370
-1
100
AcDbLine
10
550
20
102
11
550
21
100
0
LINE
5
383
100
AcDbEntity
8
top
6
ByLayer
62
256
370
-1
100
AcDbLine
10
550
20
100
11
560
21
100
0
LINE
5
384
100
AcDbEntity
8
top
6
ByLayer
62
256
370
-1
100
AcDbLine
10
560
20
100
11
560
21
102
0
LINE
5
385
100
AcDbEntity
8
top
6
ByLayer
62
256
370
-1
100
AcDbLine
10
560
20
102
11
569.263
21
102
0
LINE
5
386
100
AcDbEntity
8
top
6
ByLayer
62
256
370
-1
100
AcDbLine
10
500
20
188
11
510
21
188
0
LINE
5
387
100
AcDbEntity
8
top
6
ByLayer
62
256
370
-1
100
AcDbLine
10
510
20
188
11
510
21
190
0
LINE
5
388
100
AcDbEntity
8
top
6
ByLayer
62
256
370
-1
100
AcDbLine
10
510
20
190
11
520
21
190
0
LINE
5
389
100
AcDbEntity
8
top
6
ByLayer
62
256
370
-1
100
AcDbLine
10
520
20
190
11
520
21
188
0
LINE
5
38A
100
AcDbEntity
8
top
6
ByLayer
62
256
370
-1
100
AcDbLine
10
520
20
188
11
530
21
188
0
LINE
5
38B
100
AcDbEntity
8
top
6
ByLayer
62
256
370
-1
100
AcDbLine
10
530
20
188
11
530
21
190
0
LINE
5
38C
100
AcDbEntity
8
top
6
ByLayer
62
256
370
-1
100
AcDbLine
10
530
20
190
11
540
21
190
0
LINE
5
38D
100
AcDbEntity
8
top
6
ByLayer
62
256
370
-1
100
AcDbLine
10
540
20
190
11
540
21
188
0
LINE
5
38E
100
AcDbEntity
8
top
6
ByLayer
62
256
370
-1
100
AcDbLine
10
540
20
188
11
550
21
188
0
LINE
5
38F
100
AcDbEntity
8
top
6
ByLayer
62
256
370
-1
100
AcDbLine
10
550
20
188
11
550
21
190
0
LINE
5
390
100
AcDbEntity
8
top
6
ByLayer
62
256
370
-1
100
AcDbLine
10
550
20
190
11
560
21
190
0
LINE
5
391
100
AcDbEntity
8
top
6
ByLayer
62
256
370
-1
100
AcDbLine
10
560
20
190
11
560
21
188
0
LINE
5
392
100
AcDbEntity
8
top
6
ByLayer
62
256
370
-1
100
AcDbLine
10
560
20
188
11
569.263
21
188
0
LINE
5
393
100
AcDbEntity
8
top
6
ByLayer
62
256
370
-1
100
AcDbLine
10
569.263
20
102
11
569.263
21
188
0
LINE
5
394
100
AcDbEntity
8
top
6
ByLayer
62
256
370
-1
100
AcDbLine
10
500
20
188
11
500
21
102
0
LINE
5
395
100
AcDbEntity
8
summary
6
ByLayer
62
256
370
-1
100
AcDbLine
10
300
20
80
11
270
21
50
0
LINE
5
396
100
AcDbEntity
8
KT_conn-help
6
ByLayer
62
256
370
-1
100
AcDbLine
10
240
20
0
11
300
21
0
0
LINE
5
397
100
AcDbEntity
8
summary
6
ByLayer
62
256
370
-1
100
AcDbLine
10
270
20
0
11
270
21
50
0
LINE
5
398
100
AcDbEntity
8
KT_conn-help
6
ByLayer
62
256
370
-1
100
AcDbLine
10
284
20
0
11
284
21
80
0
LINE
5
399
100
AcDbEntity
8
KT_conn-help
6
ByLayer
62
256
370
-1
100
AcDbLine
10
292
20
0
11
292
21
80
0
LINE
5
39A
100
AcDbEntity
8
KT_conn-help
6
ByLayer
62
256
370
-1
100
AcDbLine
10
268
20
25
11
306.5
21
25
0
LINE
5
39B
100
AcDbEntity
8
KT_conn-help
6
ByLayer
62
256
370
-1
100
AcDbLine
10
268
20
37
11
306.5
21
37
0
LINE
5
39C
100
AcDbEntity
8
KT_conn-help
6
ByLayer
62
256
370
-1
100
AcDbLine
10
268
20
12
11
306.5
21
12
0
CIRCLE
5
39D
100
AcDbEntity
8
side
6
ByLayer
62
256
370
-1
100
AcDbCircle
10
292
20
50
40
1.5
0
CIRCLE
5
39E
100
AcDbEntity
8
side
6
ByLayer
62
256
370
-1
100
AcDbCircle
10
284
20
37
40
1.5
0
CIRCLE
5
39F
100
AcDbEntity
8
side
6
ByLayer
62
256
370
-1
100
AcDbCircle
10
292
20
25
40
1.5
0
CIRCLE
5
3A0
100
AcDbEntity
8
side
6
ByLayer
62
256
370
-1
100
AcDbCircle
10
284
20
12
40
1.5
0
LINE
5
3A1
100
AcDbEntity
8
KT_conn-help
6
ByLayer
62
256
370
-1
100
AcDbLine
10
270
20
50
11
306.5
21
50
0
LINE
5
3A2
100
AcDbEntity
8
KT_conn
6
ByLayer
62
256
370
-1
100
AcDbLine
10
0
20
-102
11
60
21
-102
0
LINE
5
3A3
100
AcDbEntity
8
KT_conn
6
ByLayer
62
256
370
-1
100
AcDbLine
10
0
20
-48.5552126494
11
0
21
-102
0
LINE
5
3A4
100
AcDbEntity
8
KT_conn
6
ByLayer
62
256
370
-1
100
AcDbLine
10
32.0380852251
20
-47.9619147749
11
-0.037030688012
21
-48.5558984029
0
LINE
5
3A5
100
AcDbEntity
8
KT_conn
6
ByLayer
62
256
370
-1
100
AcDbLine
10
60
20
-102
11
60
21
-20
0
CIRCLE
5
3A6
100
AcDbEntity
8
KT_conn
6
ByLayer
62
256
370
-1
100
AcDbCircle
10
28
20
-57
40
0.2
0
CIRCLE
5
3A7
100
AcDbEntity
8
KT_conn
6
ByLayer
62
256
370
-1
100
AcDbCircle
10
28
20
-72
40
0.2
0
CIRCLE
5
3A8
100
AcDbEntity
8
KT_conn
6
ByLayer
62
256
370
-1
100
AcDbCircle
10
28
20
-87
40
0.2
0
LINE
5
3A9
100
AcDbEntity
8
KT_conn
6
ByLayer
62
256
370
-1
100
AcDbLine
10
60
20
-20
11
32.0380852251
21
-47.9619147749
0
LINE
5
3AA
100
AcDbEntity
8
KT_conn-help
6
ByLayer
62
256
370
-1
100
AcDbLine
10
0
20
-100
11
60
21
-100
0
LINE
5
3AB
100
AcDbEntity
8
KT_conn-help
6
ByLayer
62
256
370
-1
100
AcDbLine
10
0
20
-57
11
30
21
-57
0
LINE
5
3AC
100
AcDbEntity
8
KT_conn-help
6
ByLayer
62
256
370
-1
100
AcDbLine
10
0
20
-72
11
30
21
-72
0
LINE
5
3AD
100
AcDbEntity
8
KT_conn-help
6
ByLayer
62
256
370
-1
100
AcDbLine
10
0
20
-87
11
30
21
-87
0
LINE
5
3AE
100
AcDbEntity
8
KT_conn-help
6
ByLayer
62
256
370
-1
100
AcDbLine
10
30
20
-100
11
30
21
-47.9996570939
0
LINE
5
3AF
100
AcDbEntity
8
KT_conn-help
6
ByLayer
62
256
370
-1
100
AcDbLine
10
20
20
-100
11
20
21
-47.9996570939
0
LINE
5
3B0
100
AcDbEntity
8
KT_conn-help
6
ByLayer
62
256
370
-1
100
AcDbLine
10
8
20
-48.5552126494
11
8
21
-102
0
LINE
5
3B1
100
AcDbEntity
8
KT_conn-help
6
ByLayer
62
256
370
-1
100
AcDbLine
10
32.1862079772
20
-55.9605433855
11
0.111092064036
21
-56.5545270135
0
LINE
5
3B2
100
AcDbEntity
8
KT_conn-help
6
ByLayer
62
256
370
-1
100
AcDbLine
10
8
20
-56.4084361258
11
20
21
-92
0
LINE
5
3B3
100
AcDbEntity
8
KT_conn-help
6
ByLayer
62
256
370
-1
100
AcDbLine
10
20
20
-56.1862139036
11
8
21
-92
0
ARC
5
3B4
100
AcDbEntity
8
KT_conn
6
ByLayer
62
256
370
-1
100
AcDbCircle
10
11.4814048838
20
-57.3441371181
40
1
100
AcDbArc
50
91.0609116903
51
198.631973742
0
ARC
5
3B5
100
AcDbEntity
8
KT_conn
6
ByLayer
62
256
370
-1
100
AcDbCircle
10
16.4791033827
20
-57.2515871459
40
1
100
AcDbArc
50
341.475724814
51
91.0609116903
0
ARC
5
3B6
100
AcDbEntity
8
KT_conn
6
ByLayer
62
256
370
-1
100
AcDbCircle
10
13.9724774074
20
-64.7325676877
40
1
100
AcDbArc
50
198.631973742
51
341.475724814
0
ARC
5
3B7
100
AcDbEntity
8
KT_conn
6
ByLayer
62
256
370
-1
100
AcDbCircle
10
9
20
-68.7644191477
40
1
100
AcDbArc
50
18.6319737417
51
180
0
ARC
5
3B8
100
AcDbEntity
8
KT_conn
6
ByLayer
62
256
370
-1
100
AcDbCircle
10
9
20
-79.5728378741
40
1
100
AcDbArc
50
180
51
341.475724814
0
ARC
5
3B9
100
AcDbEntity
8
KT_conn
6
ByLayer
62
256
370
-1
100
AcDbCircle
10
10.81640486
20
-74.1518099474
40
1
100
AcDbArc
50
341.475724814
51
18.6319737417
0
ARC
5
3BA
100
AcDbEntity
8
KT_conn
6
ByLayer
62
256
370
-1
100
AcDbCircle
10
17.1462496656
20
-74.1458608587
40
1
100
AcDbArc
50
161.475724814
51
198.631973742
0
ARC
5
3BB
100
AcDbEntity
8
KT_conn
6
ByLayer
62
256
370
-1
100
AcDbCircle
10
13.9901771183
20
-83.5651031184
40
1
100
AcDbArc
50
18.6319737417
51
161.475724814
0
ARC
5
3BC
100
AcDbEntity
8
KT_conn
6
ByLayer
62
256
370
-1
100
AcDbCircle
10
16.4969161561
20
-91
40
1
100
AcDbArc
50
270
51
18.6319737417
0
ARC
5
3BD
100
AcDbEntity
8
KT_conn
6
ByLayer
62
256
370
-1
100
AcDbCircle
10
11.4989922338
20
-91
40
1
100
AcDbArc
50
161.475724814
51
270
0
ARC
5
3BE
100
AcDbEntity
8
KT_conn
6
ByLayer
62
256
370
-1
100
AcDbCircle
10
19
20
-79.6440169781
40
1
100
AcDbArc
50
198.631973742
51
0
0
ARC
5
3BF
100
AcDbEntity
8
KT_conn
6
ByLayer
62
256
370
-1
100
AcDbCircle
10
19
20
-68.6133760294
40
1
100
AcDbArc
50
2.03555499614e-13
51
161.475724814
0
LINE
5
3C0
100
AcDbEntity
8
KT_conn
6
ByLayer
62
256
370
-1
100
AcDbLine
10
10.5338146157
20
-57.663625277
11
13.0248871392
21
-65.0520558467
0
LINE
5
3C1
100
AcDbEntity
8
KT_conn
6
ByLayer
62
256
370
-1
100
AcDbLine
10
14.9206665412
20
-65.0502741032
11
17.4272925165
21
-57.5692935614
0
LINE
5
3C2
100
AcDbEntity
8
KT_conn
6
ByLayer
62
256
370
-1
100
AcDbLine
10
16.460584224
20
-56.2517586402
11
11.4628933545
21
-56.3443084711
0
LINE
5
3C3
100
AcDbEntity
8
KT_conn
6
ByLayer
62
256
370
-1
100
AcDbLine
10
9.94759026814
20
-68.4449309887
11
11.7639951281
21
-73.8323217884
0
LINE
5
3C4
100
AcDbEntity
8
KT_conn
6
ByLayer
62
256
370
-1
100
AcDbLine
10
11.7645939939
20
-74.4695163629
11
9.94818913385
21
-79.8905442896
0
LINE
5
3C5
100
AcDbEntity
8
KT_conn
6
ByLayer
62
256
370
-1
100
AcDbLine
10
8
20
-79.5728359372
11
8
21
-68.7644224685
0
LINE
5
3C6
100
AcDbEntity
8
KT_conn
6
ByLayer
62
256
370
-1
100
AcDbLine
10
18.0518108662
20
-68.2956696139
11
16.1980605318
21
-73.8281544432
0
LINE
5
3C7
100
AcDbEntity
8
KT_conn
6
ByLayer
62
256
370
-1
100
AcDbLine
10
16.1986593975
20
-74.4653490177
11
18.0524097319
21
-79.9635051371
0
LINE
5
3C8
100
AcDbEntity
8
KT_conn
6
ByLayer
62
256
370
-1
100
AcDbLine
10
20
20
-79.6440128143
11
20
21
-68.6133796609
0
LINE
5
3C9
100
AcDbEntity
8
KT_conn
6
ByLayer
62
256
370
-1
100
AcDbLine
10
14.9377673864
20
-83.2456149594
11
17.4445064242
21
-90.680511841
0
LINE
5
3CA
100
AcDbEntity
8
KT_conn
6
ByLayer
62
256
370
-1
100
AcDbLine
10
16.4969161561
20
-92
11
11.4989922338
21
-92
0
LINE
5
3CB
100
AcDbEntity
8
KT_conn
6
ByLayer
62
256
370
-1
100
AcDbLine
10
10.5508030999
20
-90.6822935845
11
13.0419879844
21
-83.2473967029
0
LINE
5
3CC
100
AcDbEntity
8
KT_conn-help
6
ByLayer
62
256
370
-1
100
AcDbLine
10
44
20
-100
11
44
21
-20
0
LINE
5
3CD
100
AcDbEntity
8
KT_conn-help
6
ByLayer
62
256
370
-1
100
AcDbLine
10
52
20
-100
11
52
21
-20
0
LINE
5
3CE
100
AcDbEntity
8
KT_conn-help
6
ByLayer
62
256
370
-1
100
AcDbLine
10
0
20
-92
11
30
21
-92
0
LINE
5
3CF
100
AcDbEntity
8
KT_conn-help
6
ByLayer
62
256
370
-1
100
AcDbLine
10
28
20
-75
11
66.5
21
-75
0
LINE
5
3D0
100
AcDbEntity
8
KT_conn-help
6
ByLayer
62
256
370
-1
100
AcDbLine
10
28
20
-63
11
66.5
21
-63
0
LINE
5
3D1
100
AcDbEntity
8
KT_conn-help
6
ByLayer
62
256
370
-1
100
AcDbLine
10
28
20
-88
11
66.5
21
-88
0
CIRCLE
5
3D2
100
AcDbEntity
8
KT_conn
6
ByLayer
62
256
370
-1
100
AcDbCircle
10
52
20
-50
40
1.5
0
CIRCLE
5
3D3
100
AcDbEntity
8
KT_conn
6
ByLayer
62
256
370
-1
100
AcDbCircle
10
44
20
-63
40
1.5
0
CIRCLE
5
3D4
100
AcDbEntity
8
KT_conn
6
ByLayer
62
256
370
-1
100
AcDbCircle
10
52
20
-75
40
1.5
0
CIRCLE
5
3D5
100
AcDbEntity
8
KT_conn
6
ByLayer
62
256
370
-1
100
AcDbCircle
10
44
20
-88
40
1.5
0
LINE
5
3D6
100
AcDbEntity
8
KT_conn-help
6
ByLayer
62
256
370
-1
100
AcDbLine
10
30
20
-50
11
66.5
21
-50
0
LINE
5
3D7
100
AcDbEntity
8
KT_conn-help
6
ByLayer
62
256
370
-1
100
AcDbLine
10
32.0751159131
20
-49.9615719275
11
0
21
-50.5555555556
0
LINE
5
3D8
100
AcDbEntity
8
KT_conn-help
6
ByLayer
62
256
370
-1
100
AcDbLine
10
32.0380852251
20
-47.9619147749
11
32.0751159131
21
-49.9615719275
0
ENDSEC
0
SECTION
2
OBJECTS
0
DICTIONARY
5
C
330
0
100
AcDbDictionary
281
1
3
ACAD_GROUP
350
D
0
DICTIONARY
5
D
330
C
100
AcDbDictionary
281
1
0
ENDSEC
0
EOF
