999
dxfrw 0.5.10
0
SECTION
2
HEADER
9
$ACADVER
1
AC1021
9
$HANDSEED
5
20000
9
$DWGCODEPAGE
3
ANSI_1252
9
$INSBASE
10
0
20
0
30
0
9
$EXTMIN
10
-200
20
-315
30
0
9
$EXTMAX
10
569.263
20
500
30
0
9
$LIMMIN
10
0
20
0
9
$LIMMAX
10
420
20
297
9
$ORTHOMODE
70
0
9
$LTSCALE
40
1
9
$TEXTSTYLE
7
STANDARD
9
$CLAYER
8
KT
9
$DIMASZ
40
2.5
9
$DIMLFAC
40
1
9
$DIMSCALE
40
1
9
$DIMEXO
40
0.625
9
$DIMEXE
40
1.25
9
$DIMTXT
40
2.5
9
$DIMTSZ
40
0
9
$DIMAUNIT
70
0
9
$DIMADEC
70
0
9
$DIMLUNIT
70
2
9
$DIMSTYLE
2
STANDARD
9
$DIMGAP
40
0.625
9
$DIMTIH
70
0
9
$LUNITS
70
2
9
$LUPREC
70
4
9
$AUNITS
70
0
9
$AUPREC
70
2
9
$SPLINESEGS
70
8
9
$GRIDMODE
70
1
9
$SNAPSTYLE
70
0
9
$PINSBASE
10
0
20
0
30
0
9
$PLIMMIN
10
0
20
0
9
$PLIMMAX
10
210
20
297
9
$INSUNITS
70
4
9
$PSVPSCALE
40
1
0
ENDSEC
0
SECTION
2
CLASSES
0
ENDSEC
0
SECTION
2
TABLES
0
TABLE
2
VPORT
5
8
330
0
100
AcDbSymbolTable
70
1
0
VPORT
5
31
330
2
100
AcDbSymbolTableRecord
100
AcDbViewportTableRecord
2
*ACTIVE
70
0
10
0
20
0
11
1
21
1
12
384.500723589
22
258.299565847
13
0
23
0
14
10
24
10
15
10
25
10
16
0
26
0
36
1
17
0
27
0
37
0
40
838.589001448
41
1.3811533052
42
50
43
0
44
0
50
0
51
0
71
0
72
100
73
1
74
3
75
0
76
1
77
0
78
0
281
0
65
1
110
0
120
0
130
0
111
1
121
0
131
0
112
0
122
1
132
0
79
0
146
0
348
10020
60
7
61
5
292
1
282
1
141
0
142
0
63
250
421
3358443
0
ENDTAB
0
TABLE
2
LTYPE
5
5
330
0
100
AcDbSymbolTable
70
4
0
LTYPE
5
14
330
5
100
AcDbSymbolTableRecord
100
AcDbLinetypeTableRecord
2
ByBlock
70
0
3

72
65
73
0
40
0
0
LTYPE
5
15
330
5
100
AcDbSymbolTableRecord
100
AcDbLinetypeTableRecord
2
ByLayer
70
0
3

72
65
73
0
40
0
0
LTYPE
5
16
330
5
100
AcDbSymbolTableRecord
100
AcDbLinetypeTableRecord
2
Continuous
70
0
3
Solid line
72
65
73
0
40
0
0
LTYPE
5
32
330
5
100
AcDbSymbolTableRecord
100
AcDbLinetypeTableRecord
2
DOT
70
0
3
Dot . . . . . . . . . . . . . . . . . . . . . .
72
65
73
2
40
6.35
49
0
74
0
49
-6.35
74
0
0
LTYPE
5
33
330
5
100
AcDbSymbolTableRecord
100
AcDbLinetypeTableRecord
2
DOT2
70
0
3
Dot (.5x) .....................................
72
65
73
2
40
3.175
49
0
74
0
49
-3.175
74
0
0
LTYPE
5
34
330
5
100
AcDbSymbolTableRecord
100
AcDbLinetypeTableRecord
2
DOTX2
70
0
3
Dot (2x) .  .  .  .  .  .  .  .  .  .  .  .  .
72
65
73
2
40
12.7
49
0
74
0
49
-12.7
74
0
0
LTYPE
5
35
330
5
100
AcDbSymbolTableRecord
100
AcDbLinetypeTableRecord
2
DASHED
70
0
3
Dot . . . . . . . . . . . . . . . . . . . . . .
72
65
73
2
40
19.05
49
12.7
74
0
49
-6.35
74
0
0
LTYPE
5
36
330
5
100
AcDbSymbolTableRecord
100
AcDbLinetypeTableRecord
2
DASHED2
70
0
3
Dashed (.5x) _ _ _ _ _ _ _ _ _ _ _ _ _ _ _ _ _
72
65
73
2
40
9.525
49
6.35
74
0
49
-3.175
74
0
0
LTYPE
5
37
330
5
100
AcDbSymbolTableRecord
100
AcDbLinetypeTableRecord
2
DASHEDX2
70
0
3
Dashed (2x) ____  ____  ____  ____  ____  ___
72
65
73
2
40
38.1
49
25.4
74
0
49
-12.7
74
0
0
LTYPE
5
38
330
5
100
AcDbSymbolTableRecord
100
AcDbLinetypeTableRecord
2
DASHDOT
70
0
3
Dash dot __ . __ . __ . __ . __ . __ . __ . __
72
65
73
4
40
25.4
49
12.7
74
0
49
-6.35
74
0
49
0
74
0
49
-6.35
74
0
0
LTYPE
5
39
330
5
100
AcDbSymbolTableRecord
100
AcDbLinetypeTableRecord
2
DASHDOT2
70
0
3
Dash dot (.5x) _._._._._._._._._._._._._._._.
72
65
73
4
40
12.7
49
6.35
74
0
49
-3.175
74
0
49
0
74
0
49
-3.175
74
0
0
LTYPE
5
3A
330
5
100
AcDbSymbolTableRecord
100
AcDbLinetypeTableRecord
2
DASHDOTX2
70
0
3
Dash dot (2x) ____  .  ____  .  ____  .  ___
72
65
73
4
40
50.8
49
25.4
74
0
49
-12.7
74
0
49
0
74
0
49
-12.7
74
0
0
LTYPE
5
3B
330
5
100
AcDbSymbolTableRecord
100
AcDbLinetypeTableRecord
2
DIVIDE
70
0
3
Divide ____ . . ____ . . ____ . . ____ . . ____
72
65
73
6
40
31.75
49
12.7
74
0
49
-6.35
74
0
49
0
74
0
49
-6.35
74
0
49
0
74
0
49
-6.35
74
0
0
LTYPE
5
3C
330
5
100
AcDbSymbolTableRecord
100
AcDbLinetypeTableRecord
2
DIVIDE2
70
0
3
Divide (.5x) __..__..__..__..__..__..__..__.._
72
65
73
6
40
15.875
49
6.35
74
0
49
-3.175
74
0
49
0
74
0
49
-3.175
74
0
49
0
74
0
49
-3.175
74
0
0
LTYPE
5
3D
330
5
100
AcDbSymbolTableRecord
100
AcDbLinetypeTableRecord
2
DIVIDEX2
70
0
3
Divide (2x) ________  .  .  ________  .  .  _
72
65
73
6
40
63.5
49
25.4
74
0
49
-12.7
74
0
49
0
74
0
49
-12.7
74
0
49
0
74
0
49
-12.7
74
0
0
LTYPE
5
3E
330
5
100
AcDbSymbolTableRecord
100
AcDbLinetypeTableRecord
2
BORDER
70
0
3
Border __ __ . __ __ . __ __ . __ __ . __ __ .
72
65
73
6
40
44.45
49
12.7
74
0
49
-6.35
74
0
49
12.7
74
0
49
-6.35
74
0
49
0
74
0
49
-6.35
74
0
0
LTYPE
5
3F
330
5
100
AcDbSymbolTableRecord
100
AcDbLinetypeTableRecord
2
BORDER2
70
0
3
Border (.5x) __.__.__.__.__.__.__.__.__.__.__.
72
65
73
6
40
22.225
49
6.35
74
0
49
-3.175
74
0
49
6.35
74
0
49
-3.175
74
0
49
0
74
0
49
-3.175
74
0
0
LTYPE
5
40
330
5
100
AcDbSymbolTableRecord
100
AcDbLinetypeTableRecord
2
BORDERX2
70
0
3
Border (2x) ____  ____  .  ____  ____  .  ___
72
65
73
6
40
88.9
49
25.4
74
0
49
-12.7
74
0
49
25.4
74
0
49
-12.7
74
0
49
0
74
0
49
-12.7
74
0
0
LTYPE
5
41
330
5
100
AcDbSymbolTableRecord
100
AcDbLinetypeTableRecord
2
CENTER
70
0
3
Center ____ _ ____ _ ____ _ ____ _ ____ _ ____
72
65
73
4
40
50.8
49
31.75
74
0
49
-6.35
74
0
49
6.35
74
0
49
-6.35
74
0
0
LTYPE
5
42
330
5
100
AcDbSymbolTableRecord
100
AcDbLinetypeTableRecord
2
CENTER2
70
0
3
Center (.5x) ___ _ ___ _ ___ _ ___ _ ___ _ ___
72
65
73
4
40
28.575
49
19.05
74
0
49
-3.175
74
0
49
3.175
74
0
49
-3.175
74
0
0
LTYPE
5
43
330
5
100
AcDbSymbolTableRecord
100
AcDbLinetypeTableRecord
2
CENTERX2
70
0
3
Center (2x) ________  __  ________  __  _____
72
65
73
4
40
101.6
49
63.5
74
0
49
-12.7
74
0
49
12.7
74
0
49
-12.7
74
0
0
ENDTAB
0
TABLE
2
LAYER
5
2
330
0
100
AcDbSymbolTable
70
1
0
LAYER
5
10
330
2
100
AcDbSymbolTableRecord
100
AcDbLayerTableRecord
2
0
70
4
62
7
6
CONTINUOUS
370
0
390
F
0
LAYER
5
44
330
2
100
AcDbSymbolTableRecord
100
AcDbLayerTableRecord
2
summary
70
0
62
4
6
CONTINUOUS
370
0
390
F
0
LAYER
5
45
330
2
100
AcDbSymbolTableRecord
100
AcDbLayerTableRecord
2
side
70
0
62
7
6
CONTINUOUS
370
0
390
F
0
LAYER
5
46
330
2
100
AcDbSymbolTableRecord
100
AcDbLayerTableRecord
2
side-help
70
0
62
1
6
CONTINUOUS
370
0
390
F
0
LAYER
5
47
330
2
100
AcDbSymbolTableRecord
100
AcDbLayerTableRecord
2
bulkhead
70
0
62
7
6
CONTINUOUS
370
0
390
F
0
LAYER
5
48
330
2
100
AcDbSymbolTableRecord
100
AcDbLayerTableRecord
2
bulkhead-help
70
0
62
1
6
CONTINUOUS
370
0
390
F
0
LAYER
5
49
330
2
100
AcDbSymbolTableRecord
100
AcDbLayerTableRecord
2
bottom
70
0
62
7
6
CONTINUOUS
370
0
390
F
0
LAYER
5
4A
330
2
100
AcDbSymbolTableRecord
100
AcDbLayerTableRecord
2
bottom-help
70
0
62
1
6
CONTINUOUS
370
0
390
F
0
LAYER
5
4B
330
2
100
AcDbSymbolTableRecord
100
AcDbLayerTableRecord
2
top
70
0
62
7
6
CONTINUOUS
370
0
390
F
0
LAYER
5
4C
330
2
100
AcDbSymbolTableRecord
100
AcDbLayerTableRecord
2
top-help
70
0
62
1
6
CONTINUOUS
370
0
390
F
0
LAYER
5
4D
330
2
100
AcDbSymbolTableRecord
100
AcDbLayerTableRecord
2
KT_conn
70
0
62
7
6
CONTINUOUS
370
0
390
F
0
LAYER
5
4E
330
2
100
AcDbSymbolTableRecord
100
AcDbLayerTableRecord
2
KT_conn-help
70
0
62
1
6
CONTINUOUS
370
0
390
F
0
LAYER
5
4F
330
2
100
AcDbSymbolTableRecord
100
AcDbLayerTableRecord
2
KT
70
0
62
7
6
CONTINUOUS
370
0
390
F
0
LAYER
5
50
330
2
100
AcDbSymbolTableRecord
100
AcDbLayerTableRecord
2
KT-help
70
0
62
1
6
CONTINUOUS
370
0
390
F
0
LAYER
5
51
330
2
100
AcDbSymbolTableRecord
100
AcDbLayerTableRecord
2
motor
70
0
62
7
6
CONTINUOUS
370
0
390
F
0
LAYER
5
52
330
2
100
AcDbSymbolTableRecord
100
AcDbLayerTableRecord
2
motor-help
70
0
62
1
6
CONTINUOUS
370
0
390
F
0
LAYER
5
53
330
2
100
AcDbSymbolTableRecord
100
AcDbLayerTableRecord
2
out-connector
70
0
62
7
6
CONTINUOUS
370
0
390
F
0
LAYER
5
54
330
2
100
AcDbSymbolTableRecord
100
AcDbLayerTableRecord
2
out-connector-help
70
0
62
1
6
CONTINUOUS
370
0
390
F
0
ENDTAB
0
TABLE
2
STYLE
5
3
330
0
100
AcDbSymbolTable
70
3
0
STYLE
5
55
330
2
100
AcDbSymbolTableRecord
100
AcDbTextStyleTableRecord
2
Standard
70
0
40
0
41
1
50
0
71
0
42
1
3
txt
4

0
ENDTAB
0
TABLE
2
VIEW
5
6
330
0
100
AcDbSymbolTable
70
0
0
ENDTAB
0
TABLE
2
UCS
5
7
330
0
100
AcDbSymbolTable
70
0
0
ENDTAB
0
TABLE
2
APPID
5
9
330
0
100
AcDbSymbolTable
70
1
0
APPID
5
12
330
9
100
AcDbSymbolTableRecord
100
AcDbRegAppTableRecord
2
ACAD
70
0
0
ENDTAB
0
TABLE
2
DIMSTYLE
5
A
330
0
100
AcDbSymbolTable
70
1
100
AcDbDimStyleTable
71
1
0
DIMSTYLE
105
56
330
A
100
AcDbSymbolTableRecord
100
AcDbDimStyleTableRecord
2
Standard
70
0
40
1
41
2.5
42
0.625
43
0.38
44
1.25
45
0
46
0
47
0
48
0
140
2.5
141
0.09
142
0
143
25.4
144
1
145
0
146
1
147
0.625
148
0
71
0
72
0
73
0
74
1
75
0
76
0
77
0
78
0
79
0
170
0
171
2
172
0
173
0
174
0
175
0
176
0
177
0
178
0
179
0
271
4
272
4
273
2
274
2
275
0
276
0
277
2
278
46
279
0
280
0
281
0
282
0
283
1
284
0
285
0
286
0
288
0
289
3
340
Standard
341

371
-2
372
-2
0
ENDTAB
0
TABLE
2
BLOCK_RECORD
5
1
330
0
100
AcDbSymbolTable
70
2
0
BLOCK_RECORD
5
1F
330
1
100
AcDbSymbolTableRecord
100
AcDbBlockTableRecord
2
*Model_Space
70
0
280
1
281
0
0
BLOCK_RECORD
5
1E
330
1
100
AcDbSymbolTableRecord
100
AcDbBlockTableRecord
2
*Paper_Space
70
0
280
1
281
0
0
ENDTAB
0
ENDSEC
0
SECTION
2
BLOCKS
0
BLOCK
5
20
330
1F
100
AcDbEntity
8
0
100
AcDbBlockBegin
2
*Model_Space
70
0
10
0
20
0
30
0
3
*Model_Space
1

0
ENDBLK
5
21
330
1F
100
AcDbEntity
8
0
100
AcDbBlockEnd
0
BLOCK
5
1C
330
1B
100
AcDbEntity
8
0
100
AcDbBlockBegin
2
*Paper_Space
70
0
10
0
20
0
30
0
3
*Paper_Space
1

0
ENDBLK
5
1D
330
1F
100
AcDbEntity
8
0
100
AcDbBlockEnd
0
ENDSEC
0
SECTION
2
ENTITIES
0
LINE
5
57
100
AcDbEntity
8
summary
6
ByLayer
62
256
370
-1
100
AcDbLine
10
300
20
0
11
300
21
80
0
LINE
5
58
100
AcDbEntity
8
summary
6
ByLayer
62
256
370
-1
100
AcDbLine
10
300
20
0
11
450
21
0
0
LINE
5
59
100
AcDbEntity
8
summary
6
ByLayer
62
256
370
-1
100
AcDbLine
10
300
20
80
11
450
21
72.1388331075
0
LINE
5
5A
100
AcDbEntity
8
summary
6
ByLayer
62
256
370
-1
100
AcDbLine
10
450
20
0
11
450
21
72.1388331075
0
LINE
5
5B
100
AcDbEntity
8
summary
6
ByLayer
62
256
370
-1
100
AcDbLine
10
450
20
0
11
510
21
0
0
LINE
5
5C
100
AcDbEntity
8
summary
6
ByLayer
62
256
370
-1
100
AcDbLine
10
510
20
0
11
510
21
40
0
LINE
5
5D
100
AcDbEntity
8
summary
6
ByLayer
62
256
370
-1
100
AcDbLine
10
0
20
0
11
0
21
45
0
LINE
5
5E
100
AcDbEntity
8
summary
6
ByLayer
62
256
370
-1
100
AcDbLine
10
270
20
50
11
0
21
45
0
LINE
5
5F
100
AcDbEntity
8
summary
6
ByLayer
62
256
370
-1
100
AcDbLine
10
0
20
0
11
300
21
0
0
LINE
5
60
100
AcDbEntity
8
side-help
6
ByLayer
62
256
370
-1
100
AcDbLine
10
512
20
-4.89858719659e-16
11
512
21
40
0
LINE
5
61
100
AcDbEntity
8
side-help
6
ByLayer
62
256
370
-1
100
AcDbLine
10
270
20
60
11
300
21
60
0
LINE
5
62
100
AcDbEntity
8
side-help
6
ByLayer
62
256
370
-1
100
AcDbLine
10
270
20
70
11
300
21
70
0
LINE
5
63
100
AcDbEntity
8
side-help
6
ByLayer
62
256
370
-1
100
AcDbLine
10
270
20
80
11
300
21
80
0
LINE
5
64
100
AcDbEntity
8
side-help
6
ByLayer
62
256
370
-1
100
AcDbLine
10
270
20
90
11
300
21
90
0
LINE
5
65
100
AcDbEntity
8
side-help
6
ByLayer
62
256
370
-1
100
AcDbLine
10
270
20
100
11
300
21
100
0
LINE
5
66
100
AcDbEntity
8
side-help
6
ByLayer
62
256
370
-1
100
AcDbLine
10
300
20
80
11
450
21
80
0
LINE
5
67
100
AcDbEntity
8
side-help
6
ByLayer
62
256
370
-1
100
AcDbLine
10
300
20
100
11
450
21
100
0
LINE
5
68
100
AcDbEntity
8
side-help
6
ByLayer
62
256
370
-1
100
AcDbLine
10
450
20
10
11
510
21
10
0
LINE
5
69
100
AcDbEntity
8
side-help
6
ByLayer
62
256
370
-1
100
AcDbLine
10
450
20
20
11
510
21
20
0
LINE
5
6A
100
AcDbEntity
8
side-help
6
ByLayer
62
256
370
-1
100
AcDbLine
10
450
20
30
11
510
21
30
0
LINE
5
6B
100
AcDbEntity
8
side-help
6
ByLayer
62
256
370
-1
100
AcDbLine
10
450
20
40
11
510
21
40
0
LINE
5
6C
100
AcDbEntity
8
side-help
6
ByLayer
62
256
370
-1
100
AcDbLine
10
450
20
50
11
510
21
50
0
LINE
5
6D
100
AcDbEntity
8
side-help
6
ByLayer
62
256
370
-1
100
AcDbLine
10
450
20
60
11
510
21
60
0
LINE
5
6E
100
AcDbEntity
8
side-help
6
ByLayer
62
256
370
-1
100
AcDbLine
10
450
20
70
11
510
21
70
0
LINE
5
6F
100
AcDbEntity
8
side-help
6
ByLayer
62
256
370
-1
100
AcDbLine
10
450
20
80
11
510
21
80
0
LINE
5
70
100
AcDbEntity
8
side-help
6
ByLayer
62
256
370
-1
100
AcDbLine
10
450
20
90
11
510
21
90
0
LINE
5
71
100
AcDbEntity
8
side-help
6
ByLayer
62
256
370
-1
100
AcDbLine
10
450
20
100
11
510
21
100
0
LINE
5
72
100
AcDbEntity
8
side-help
6
ByLayer
62
256
370
-1
100
AcDbLine
10
300
20
80
11
299.921496066
21
78.5020556979
0
LINE
5
73
100
AcDbEntity
8
side-help
6
ByLayer
62
256
370
-1
100
AcDbLine
10
324.965738369
20
78.6916010939
11
324.887234434
21
77.1936567918
0
LINE
5
74
100
AcDbEntity
8
side-help
6
ByLayer
62
256
370
-1
100
AcDbLine
10
349.931476738
20
77.3832021878
11
349.852972803
21
75.8852578857
0
LINE
5
75
100
AcDbEntity
8
side-help
6
ByLayer
62
256
370
-1
100
AcDbLine
10
374.897215107
20
76.0748032818
11
374.818711172
21
74.5768589796
0
LINE
5
76
100
AcDbEntity
8
side-help
6
ByLayer
62
256
370
-1
100
AcDbLine
10
301.229894972
20
103.467794067
11
451.229894972
21
95.6066271742
0
LINE
5
77
100
AcDbEntity
8
side-help
6
ByLayer
62
256
370
-1
100
AcDbLine
10
399.862953475
20
74.7664043757
11
399.784449541
21
73.2684600735
0
LINE
5
78
100
AcDbEntity
8
side-help
6
ByLayer
62
256
370
-1
100
AcDbLine
10
409.849248823
20
74.2430448132
11
409.770744889
21
72.7451005111
0
LINE
5
79
100
AcDbEntity
8
side-help
6
ByLayer
62
256
370
-1
100
AcDbLine
10
419.835544171
20
73.7196852508
11
419.757040236
21
72.2217409487
0
LINE
5
7A
100
AcDbEntity
8
side-help
6
ByLayer
62
256
370
-1
100
AcDbLine
10
429.821839518
20
73.1963256884
11
429.743335584
21
71.6983813862
0
LINE
5
7B
100
AcDbEntity
8
side-help
6
ByLayer
62
256
370
-1
100
AcDbLine
10
439.808134866
20
72.6729661259
11
439.729630931
21
71.1750218238
0
LINE
5
7C
100
AcDbEntity
8
side-help
6
ByLayer
62
256
370
-1
100
AcDbLine
10
450
20
72.1388331075
11
449.921496066
21
70.6408888054
0
LINE
5
7D
100
AcDbEntity
8
side-help
6
ByLayer
62
256
370
-1
100
AcDbLine
10
0
20
20
11
450
21
20
0
LINE
5
7E
100
AcDbEntity
8
side-help
6
ByLayer
62
256
370
-1
100
AcDbLine
10
0
20
10
11
450
21
10
0
LINE
5
7F
100
AcDbEntity
8
side-help
6
ByLayer
62
256
370
-1
100
AcDbLine
10
0
20
30
11
450
21
30
0
LINE
5
80
100
AcDbEntity
8
side-help
6
ByLayer
62
256
370
-1
100
AcDbLine
10
0
20
40
11
450
21
40
0
LINE
5
81
100
AcDbEntity
8
side-help
6
ByLayer
62
256
370
-1
100
AcDbLine
10
0
20
70
11
450
21
70
0
LINE
5
82
100
AcDbEntity
8
side-help
6
ByLayer
62
256
370
-1
100
AcDbLine
10
0
20
60
11
450
21
60
0
LINE
5
83
100
AcDbEntity
8
bulkhead-help
6
ByLayer
62
256
370
-1
100
AcDbLine
10
101.5
20
78.42
11
101.5
21
-3.67394039744e-16
0
LINE
5
84
100
AcDbEntity
8
bulkhead-help
6
ByLayer
62
256
370
-1
100
AcDbLine
10
188.5
20
1.83697019872e-16
11
188.5
21
78.42
0
LINE
5
85
100
AcDbEntity
8
bulkhead-help
6
ByLayer
62
256
370
-1
100
AcDbLine
10
201.5
20
70.64
11
201.5
21
-3.67394039744e-16
0
LINE
5
86
100
AcDbEntity
8
bulkhead-help
6
ByLayer
62
256
370
-1
100
AcDbLine
10
288.5
20
1.83697019872e-16
11
288.5
21
70.64
0
LINE
5
87
100
AcDbEntity
8
bulkhead-help
6
ByLayer
62
256
370
-1
100
AcDbLine
10
388.5
20
1.83697019872e-16
11
388.5
21
40
0
LINE
5
88
100
AcDbEntity
8
side-help
6
ByLayer
62
256
370
-1
100
AcDbLine
10
300
20
5
11
510
21
5
0
LINE
5
89
100
AcDbEntity
8
bulkhead
6
ByLayer
62
256
370
-1
100
AcDbLine
10
0
20
130
11
0
21
120
0
LINE
5
8A
100
AcDbEntity
8
bulkhead
6
ByLayer
62
256
370
-1
100
AcDbLine
10
0
20
110
11
0
21
100
0
LINE
5
8B
100
AcDbEntity
8
bulkhead
6
ByLayer
62
256
370
-1
100
AcDbLine
10
0
20
90
11
0
21
70
0
LINE
5
8C
100
AcDbEntity
8
bulkhead
6
ByLayer
62
256
370
-1
100
AcDbLine
10
0
20
210
11
0
21
200
0
LINE
5
8D
100
AcDbEntity
8
bulkhead
6
ByLayer
62
256
370
-1
100
AcDbLine
10
0
20
190
11
0
21
180
0
LINE
5
8E
100
AcDbEntity
8
bulkhead
6
ByLayer
62
256
370
-1
100
AcDbLine
10
0
20
170
11
0
21
160
0
LINE
5
8F
100
AcDbEntity
8
bulkhead
6
ByLayer
62
256
370
-1
100
AcDbLine
10
-0.0300007179431
20
270
11
-0.0200004786287
21
260
0
LINE
5
90
100
AcDbEntity
8
bulkhead
6
ByLayer
62
256
370
-1
100
AcDbLine
10
-0.0100002393144
20
250
11
0
21
245
0
LINE
5
91
100
AcDbEntity
8
bulkhead-help
6
ByLayer
62
256
370
-1
100
AcDbLine
10
0
20
280
11
0
21
0
0
LINE
5
92
100
AcDbEntity
8
bulkhead-help
6
ByLayer
62
256
370
-1
100
AcDbLine
10
17
20
280
11
17
21
-4.1637991171e-15
0
LINE
5
93
100
AcDbEntity
8
bulkhead-help
6
ByLayer
62
256
370
-1
100
AcDbLine
10
73
20
280
11
73
21
6.24569867565e-15
0
LINE
5
94
100
AcDbEntity
8
bulkhead-help
6
ByLayer
62
256
370
-1
100
AcDbLine
10
1.5
20
33
11
88.5
21
33
0
LINE
5
95
100
AcDbEntity
8
bulkhead-help
6
ByLayer
62
256
370
-1
100
AcDbLine
10
1.04094977928e-15
20
77
11
90
21
77
0
LINE
5
96
100
AcDbEntity
8
bulkhead-help
6
ByLayer
62
256
370
-1
100
AcDbLine
10
88.5
20
17
11
1.5
21
17
0
LINE
5
97
100
AcDbEntity
8
bulkhead-help
6
ByLayer
62
256
370
-1
100
AcDbLine
10
90
20
121.42
11
-3.12284933783e-15
21
121.42
0
LINE
5
98
100
AcDbEntity
8
bulkhead-help
6
ByLayer
62
256
370
-1
100
AcDbLine
10
1.04094977928e-15
20
167
11
90
21
167
0
LINE
5
99
100
AcDbEntity
8
bulkhead-help
6
ByLayer
62
256
370
-1
100
AcDbLine
10
1.04094977928e-15
20
257
11
90
21
257
0
LINE
5
9A
100
AcDbEntity
8
bulkhead-help
6
ByLayer
62
256
370
-1
100
AcDbLine
10
90
20
263
11
-3.12284933783e-15
21
263
0
LINE
5
9B
100
AcDbEntity
8
bulkhead-help
6
ByLayer
62
256
370
-1
100
AcDbLine
10
90
20
203.64
11
-3.12284933783e-15
21
203.64
0
LINE
5
9C
100
AcDbEntity
8
bulkhead-help
6
ByLayer
62
256
370
-1
100
AcDbLine
10
6.12323399574e-16
20
160
11
90
21
160
0
LINE
5
9D
100
AcDbEntity
8
bulkhead-help
6
ByLayer
62
256
370
-1
100
AcDbLine
10
90
20
265
11
-2.75545529808e-15
21
265
0
LINE
5
9E
100
AcDbEntity
8
bulkhead-help
6
ByLayer
62
256
370
-1
100
AcDbLine
10
90
20
270
11
-1.83697019872e-15
21
270
0
LINE
5
9F
100
AcDbEntity
8
bulkhead-help
6
ByLayer
62
256
370
-1
100
AcDbLine
10
90
20
205.64
11
-2.75545529808e-15
21
205.64
0
LINE
5
A0
100
AcDbEntity
8
bulkhead-help
6
ByLayer
62
256
370
-1
100
AcDbLine
10
1.5
20
35
11
88.5
21
35
0
ARC
5
A1
100
AcDbEntity
8
bulkhead
6
ByLayer
62
256
370
-1
100
AcDbCircle
10
68
20
22
40
5
100
AcDbArc
50
270
51
0
0
ARC
5
A2
100
AcDbEntity
8
bulkhead
6
ByLayer
62
256
370
-1
100
AcDbCircle
10
68
20
30
40
5
100
AcDbArc
50
0
51
90
0
ARC
5
A3
100
AcDbEntity
8
bulkhead
6
ByLayer
62
256
370
-1
100
AcDbCircle
10
22
20
30
40
5
100
AcDbArc
50
90
51
180
0
ARC
5
A4
100
AcDbEntity
8
bulkhead
6
ByLayer
62
256
370
-1
100
AcDbCircle
10
22
20
22
40
5
100
AcDbArc
50
180
51
270
0
ARC
5
A5
100
AcDbEntity
8
bulkhead
6
ByLayer
62
256
370
-1
100
AcDbCircle
10
68
20
82
40
5
100
AcDbArc
50
270
51
0
0
ARC
5
A6
100
AcDbEntity
8
bulkhead
6
ByLayer
62
256
370
-1
100
AcDbCircle
10
22
20
82
40
5
100
AcDbArc
50
180
51
270
0
ARC
5
A7
100
AcDbEntity
8
bulkhead
6
ByLayer
62
256
370
-1
100
AcDbCircle
10
22
20
172
40
5
100
AcDbArc
50
180
51
270
0
ARC
5
A8
100
AcDbEntity
8
bulkhead
6
ByLayer
62
256
370
-1
100
AcDbCircle
10
68
20
172
40
5
100
AcDbArc
50
270
51
0
0
ARC
5
A9
100
AcDbEntity
8
bulkhead
6
ByLayer
62
256
370
-1
100
AcDbCircle
10
68
20
262
40
5
100
AcDbArc
50
270
51
0
0
ARC
5
AA
100
AcDbEntity
8
bulkhead
6
ByLayer
62
256
370
-1
100
AcDbCircle
10
68
20
265
40
5
100
AcDbArc
50
0
51
90
0
ARC
5
AB
100
AcDbEntity
8
bulkhead
6
ByLayer
62
256
370
-1
100
AcDbCircle
10
55.9544511501
20
275
40
5
100
AcDbArc
50
249.306458769
51
270
0
ARC
5
AC
100
AcDbEntity
8
bulkhead
6
ByLayer
62
256
370
-1
100
AcDbCircle
10
34.0455488499
20
275
40
5
100
AcDbArc
50
270
51
290.693541231
0
ARC
5
AD
100
AcDbEntity
8
bulkhead
6
ByLayer
62
256
370
-1
100
AcDbCircle
10
22
20
265
40
5
100
AcDbArc
50
90
51
180
0
ARC
5
AE
100
AcDbEntity
8
bulkhead
6
ByLayer
62
256
370
-1
100
AcDbCircle
10
22
20
262
40
5
100
AcDbArc
50
180
51
270
0
ARC
5
AF
100
AcDbEntity
8
bulkhead
6
ByLayer
62
256
370
-1
100
AcDbCircle
10
45
20
246
40
26
100
AcDbArc
50
67.380135052
51
112.619864948
0
LINE
5
B0
100
AcDbEntity
8
bulkhead
6
ByLayer
62
256
370
-1
100
AcDbLine
10
22
20
270
11
34.0455488499
21
270
0
LINE
5
B1
100
AcDbEntity
8
bulkhead
6
ByLayer
62
256
370
-1
100
AcDbLine
10
17
20
262
11
17
21
265
0
LINE
5
B2
100
AcDbEntity
8
bulkhead
6
ByLayer
62
256
370
-1
100
AcDbLine
10
55.9544511501
20
270
11
68
21
270
0
LINE
5
B3
100
AcDbEntity
8
bulkhead
6
ByLayer
62
256
370
-1
100
AcDbLine
10
73
20
265
11
73
21
262
0
LINE
5
B4
100
AcDbEntity
8
bulkhead
6
ByLayer
62
256
370
-1
100
AcDbLine
10
22
20
35
11
68
21
35
0
LINE
5
B5
100
AcDbEntity
8
bulkhead
6
ByLayer
62
256
370
-1
100
AcDbLine
10
73
20
30
11
73
21
22
0
LINE
5
B6
100
AcDbEntity
8
bulkhead
6
ByLayer
62
256
370
-1
100
AcDbLine
10
17
20
22
11
17
21
30
0
ARC
5
B7
100
AcDbEntity
8
bulkhead
6
ByLayer
62
256
370
-1
100
AcDbCircle
10
22
20
198.638852652
40
5
100
AcDbArc
50
85
51
180
0
ARC
5
B8
100
AcDbEntity
8
bulkhead
6
ByLayer
62
256
370
-1
100
AcDbCircle
10
68
20
198.638852652
40
5
100
AcDbArc
50
0
51
95
0
ARC
5
B9
100
AcDbEntity
8
bulkhead
6
ByLayer
62
256
370
-1
100
AcDbCircle
10
45
20
206.664811766
40
5
100
AcDbArc
50
265
51
275
0
LINE
5
BA
100
AcDbEntity
8
bulkhead
6
ByLayer
62
256
370
-1
100
AcDbLine
10
17
20
172
11
17
21
198.638852652
0
LINE
5
BB
100
AcDbEntity
8
bulkhead
6
ByLayer
62
256
370
-1
100
AcDbLine
10
73
20
198.638852652
11
73
21
172
0
LINE
5
BC
100
AcDbEntity
8
bulkhead
6
ByLayer
62
256
370
-1
100
AcDbLine
10
67.5642179826
20
203.619825853
11
45.4357809503
21
201.683838471
0
LINE
5
BD
100
AcDbEntity
8
bulkhead
6
ByLayer
62
256
370
-1
100
AcDbLine
10
22.4357801242
20
203.619826019
11
44.5642190497
21
201.683838471
0
ARC
5
BE
100
AcDbEntity
8
bulkhead
6
ByLayer
62
256
370
-1
100
AcDbCircle
10
22
20
116.418852652
40
5
100
AcDbArc
50
85
51
180
0
ARC
5
BF
100
AcDbEntity
8
bulkhead
6
ByLayer
62
256
370
-1
100
AcDbCircle
10
68
20
116.418852652
40
5
100
AcDbArc
50
0
51
95
0
ARC
5
C0
100
AcDbEntity
8
bulkhead
6
ByLayer
62
256
370
-1
100
AcDbCircle
10
45
20
124.444811766
40
5
100
AcDbArc
50
265
51
275
0
LINE
5
C1
100
AcDbEntity
8
bulkhead
6
ByLayer
62
256
370
-1
100
AcDbLine
10
22.4357808328
20
121.399825957
11
44.564219567
21
119.463838426
0
LINE
5
C2
100
AcDbEntity
8
bulkhead
6
ByLayer
62
256
370
-1
100
AcDbLine
10
17
20
82
11
17
21
116.418852652
0
LINE
5
C3
100
AcDbEntity
8
bulkhead
6
ByLayer
62
256
370
-1
100
AcDbLine
10
67.5642199376
20
121.399826024
11
45.4357796674
21
119.463838359
0
LINE
5
C4
100
AcDbEntity
8
bulkhead
6
ByLayer
62
256
370
-1
100
AcDbLine
10
73
20
116.418851303
11
73
21
82
0
LINE
5
C5
100
AcDbEntity
8
bulkhead-help
6
ByLayer
62
256
370
-1
100
AcDbLine
10
1.5
20
61.5
11
88.5
21
61.5
0
LINE
5
C6
100
AcDbEntity
8
bulkhead-help
6
ByLayer
62
256
370
-1
100
AcDbLine
10
1.5
20
151.5
11
88.5
21
151.5
0
LINE
5
C7
100
AcDbEntity
8
bulkhead-help
6
ByLayer
62
256
370
-1
100
AcDbLine
10
1.5
20
241.5
11
88.5
21
241.5
0
LINE
5
C8
100
AcDbEntity
8
bulkhead-help
6
ByLayer
62
256
370
-1
100
AcDbLine
10
30
20
280
11
30
21
-7.34788079488e-15
0
LINE
5
C9
100
AcDbEntity
8
bulkhead-help
6
ByLayer
62
256
370
-1
100
AcDbLine
10
60
20
280
11
60
21
-1.46957615898e-14
0
LINE
5
CA
100
AcDbEntity
8
bulkhead-help
6
ByLayer
62
256
370
-1
100
AcDbLine
10
10
20
280
11
10
21
-2.44929359829e-15
0
LINE
5
CB
100
AcDbEntity
8
bulkhead-help
6
ByLayer
62
256
370
-1
100
AcDbLine
10
20
20
280
11
20
21
-4.89858719659e-15
0
LINE
5
CC
100
AcDbEntity
8
bulkhead-help
6
ByLayer
62
256
370
-1
100
AcDbLine
10
80
20
280
11
80
21
3.67394039744e-15
0
LINE
5
CD
100
AcDbEntity
8
bulkhead-help
6
ByLayer
62
256
370
-1
100
AcDbLine
10
70
20
280
11
70
21
7.34788079488e-15
0
LINE
5
CE
100
AcDbEntity
8
bulkhead
6
ByLayer
62
256
370
-1
100
AcDbLine
10
10
20
240
11
20
21
240
0
LINE
5
CF
100
AcDbEntity
8
bulkhead
6
ByLayer
62
256
370
-1
100
AcDbLine
10
30
20
240
11
60
21
240
0
LINE
5
D0
100
AcDbEntity
8
bulkhead
6
ByLayer
62
256
370
-1
100
AcDbLine
10
70
20
240
11
80
21
240
0
LINE
5
D1
100
AcDbEntity
8
bulkhead
6
ByLayer
62
256
370
-1
100
AcDbLine
10
10
20
150
11
20
21
150
0
LINE
5
D2
100
AcDbEntity
8
bulkhead
6
ByLayer
62
256
370
-1
100
AcDbLine
10
30
20
150
11
60
21
150
0
LINE
5
D3
100
AcDbEntity
8
bulkhead
6
ByLayer
62
256
370
-1
100
AcDbLine
10
70
20
150
11
80
21
150
0
LINE
5
D4
100
AcDbEntity
8
bulkhead
6
ByLayer
62
256
370
-1
100
AcDbLine
10
10
20
60
11
20
21
60
0
LINE
5
D5
100
AcDbEntity
8
bulkhead
6
ByLayer
62
256
370
-1
100
AcDbLine
10
30
20
60
11
60
21
60
0
LINE
5
D6
100
AcDbEntity
8
bulkhead
6
ByLayer
62
256
370
-1
100
AcDbLine
10
70
20
60
11
80
21
60
0
LINE
5
D7
100
AcDbEntity
8
bottom-help
6
ByLayer
62
256
370
-1
100
AcDbLine
10
548
20
-40
11
268
21
-40
0
LINE
5
D8
100
AcDbEntity
8
bottom-help
6
ByLayer
62
256
370
-1
100
AcDbLine
10
548
20
-70
11
268
21
-70
0
LINE
5
D9
100
AcDbEntity
8
bottom-help
6
ByLayer
62
256
370
-1
100
AcDbLine
10
548
20
-20
11
268
21
-20
0
LINE
5
DA
100
AcDbEntity
8
bottom-help
6
ByLayer
62
256
370
-1
100
AcDbLine
10
548
20
-30
11
268
21
-30
0
LINE
5
DB
100
AcDbEntity
8
bottom-help
6
ByLayer
62
256
370
-1
100
AcDbLine
10
548
20
-90
11
268
21
-90
0
LINE
5
DC
100
AcDbEntity
8
bottom-help
6
ByLayer
62
256
370
-1
100
AcDbLine
10
548
20
-80
11
268
21
-80
0
LINE
5
DD
100
AcDbEntity
8
bottom-help
6
ByLayer
62
256
370
-1
100
AcDbLine
10
299.969999282
20
-100
11
299.969999282
21
30
0
LINE
5
DE
100
AcDbEntity
8
bottom-help
6
ByLayer
62
256
370
-1
100
AcDbLine
10
508.5
20
-100
11
508.5
21
10
0
LINE
5
DF
100
AcDbEntity
8
bottom-help
6
ByLayer
62
256
370
-1
100
AcDbLine
10
450
20
-100
11
450
21
20
0
LINE
5
E0
100
AcDbEntity
8
bottom-help
6
ByLayer
62
256
370
-1
100
AcDbLine
10
510
20
-100
11
510
21
10
0
LINE
5
E1
100
AcDbEntity
8
bottom
6
ByLayer
62
256
370
-1
100
AcDbLine
10
299.969999282
20
-30
11
299.969999282
21
-20
0
LINE
5
E2
100
AcDbEntity
8
bottom
6
ByLayer
62
256
370
-1
100
AcDbLine
10
299.969999282
20
-70
11
299.969999282
21
-40
0
LINE
5
E3
100
AcDbEntity
8
bottom
6
ByLayer
62
256
370
-1
100
AcDbLine
10
299.969999282
20
-90
11
299.969999282
21
-80
0
LINE
5
E4
100
AcDbEntity
8
bottom
6
ByLayer
62
256
370
-1
100
AcDbLine
10
450
20
-20
11
450
21
-30
0
LINE
5
E5
100
AcDbEntity
8
bottom
6
ByLayer
62
256
370
-1
100
AcDbLine
10
510
20
-20
11
510
21
-30
0
LINE
5
E6
100
AcDbEntity
8
bottom
6
ByLayer
62
256
370
-1
100
AcDbLine
10
450
20
-40
11
450
21
-70
0
LINE
5
E7
100
AcDbEntity
8
bottom
6
ByLayer
62
256
370
-1
100
AcDbLine
10
510
20
-40
11
510
21
-70
0
LINE
5
E8
100
AcDbEntity
8
bottom
6
ByLayer
62
256
370
-1
100
AcDbLine
10
450
20
-80
11
450
21
-90
0
LINE
5
E9
100
AcDbEntity
8
bottom
6
ByLayer
62
256
370
-1
100
AcDbLine
10
510
20
-80
11
510
21
-90
0
LINE
5
EA
100
AcDbEntity
8
bottom-help
6
ByLayer
62
256
370
-1
100
AcDbLine
10
268
20
-98.5
11
512
21
-98.5
0
LINE
5
EB
100
AcDbEntity
8
bottom-help
6
ByLayer
62
256
370
-1
100
AcDbLine
10
306.5
20
-100
11
306.5
21
20
0
LINE
5
EC
100
AcDbEntity
8
bottom-help
6
ByLayer
62
256
370
-1
100
AcDbLine
10
341.5
20
-100
11
341.5
21
20
0
LINE
5
ED
100
AcDbEntity
8
bottom-help
6
ByLayer
62
256
370
-1
100
AcDbLine
10
376.5
20
-100
11
376.5
21
20
0
LINE
5
EE
100
AcDbEntity
8
bottom-help
6
ByLayer
62
256
370
-1
100
AcDbLine
10
411.5
20
-100
11
411.5
21
20
0
LINE
5
EF
100
AcDbEntity
8
bottom-help
6
ByLayer
62
256
370
-1
100
AcDbLine
10
446.5
20
-100
11
446.5
21
20
0
LINE
5
F0
100
AcDbEntity
8
bottom-help
6
ByLayer
62
256
370
-1
100
AcDbLine
10
481.5
20
-100
11
481.5
21
20
0
LINE
5
F1
100
AcDbEntity
8
bottom-help
6
ByLayer
62
256
370
-1
100
AcDbLine
10
516.5
20
-100
11
516.5
21
20
0
LINE
5
F2
100
AcDbEntity
8
bottom-help
6
ByLayer
62
256
370
-1
100
AcDbLine
10
270
20
-12
11
516.5
21
-12
0
LINE
5
F3
100
AcDbEntity
8
bottom
6
ByLayer
62
256
370
-1
100
AcDbLine
10
306.5
20
-12
11
306.5
21
-10
0
LINE
5
F4
100
AcDbEntity
8
bottom
6
ByLayer
62
256
370
-1
100
AcDbLine
10
341.5
20
-10
11
341.5
21
-12
0
LINE
5
F5
100
AcDbEntity
8
bottom
6
ByLayer
62
256
370
-1
100
AcDbLine
10
341.5
20
-12
11
376.5
21
-12
0
LINE
5
F6
100
AcDbEntity
8
bottom
6
ByLayer
62
256
370
-1
100
AcDbLine
10
376.5
20
-12
11
376.5
21
-10
0
LINE
5
F7
100
AcDbEntity
8
bottom
6
ByLayer
62
256
370
-1
100
AcDbLine
10
411.5
20
-10
11
411.5
21
-12
0
LINE
5
F8
100
AcDbEntity
8
bottom
6
ByLayer
62
256
370
-1
100
AcDbLine
10
411.5
20
-12
11
446.5
21
-12
0
LINE
5
F9
100
AcDbEntity
8
bottom
6
ByLayer
62
256
370
-1
100
AcDbLine
10
446.5
20
-12
11
446.5
21
-10
0
LINE
5
FA
100
AcDbEntity
8
bottom
6
ByLayer
62
256
370
-1
100
AcDbLine
10
481.5
20
-10
11
481.5
21
-12
0
LINE
5
FB
100
AcDbEntity
8
bottom
6
ByLayer
62
256
370
-1
100
AcDbLine
10
306.5
20
-98
11
306.5
21
-100
0
LINE
5
FC
100
AcDbEntity
8
bottom
6
ByLayer
62
256
370
-1
100
AcDbLine
10
341.5
20
-100
11
341.5
21
-98
0
LINE
5
FD
100
AcDbEntity
8
bottom
6
ByLayer
62
256
370
-1
100
AcDbLine
10
341.5
20
-98
11
376.5
21
-98
0
LINE
5
FE
100
AcDbEntity
8
bottom
6
ByLayer
62
256
370
-1
100
AcDbLine
10
376.5
20
-98
11
376.5
21
-100
0
LINE
5
FF
100
AcDbEntity
8
bottom
6
ByLayer
62
256
370
-1
100
AcDbLine
10
411.5
20
-100
11
411.5
21
-98
0
LINE
5
100
100
AcDbEntity
8
bottom
6
ByLayer
62
256
370
-1
100
AcDbLine
10
411.5
20
-98
11
446.5
21
-98
0
LINE
5
101
100
AcDbEntity
8
bottom
6
ByLayer
62
256
370
-1
100
AcDbLine
10
446.5
20
-98
11
446.5
21
-100
0
LINE
5
102
100
AcDbEntity
8
bottom
6
ByLayer
62
256
370
-1
100
AcDbLine
10
481.5
20
-100
11
481.5
21
-98
0
LINE
5
103
100
AcDbEntity
8
bottom
6
ByLayer
62
256
370
-1
100
AcDbLine
10
301.969999282
20
-20
11
301.969999282
21
-30
0
LINE
5
104
100
AcDbEntity
8
bottom
6
ByLayer
62
256
370
-1
100
AcDbLine
10
301.969999282
20
-40
11
301.969999282
21
-70
0
LINE
5
105
100
AcDbEntity
8
bottom
6
ByLayer
62
256
370
-1
100
AcDbLine
10
301.969999282
20
-80
11
301.969999282
21
-90
0
LINE
5
106
100
AcDbEntity
8
bottom
6
ByLayer
62
256
370
-1
100
AcDbLine
10
448
20
-30
11
448
21
-20
0
LINE
5
107
100
AcDbEntity
8
bottom
6
ByLayer
62
256
370
-1
100
AcDbLine
10
508
20
-30
11
508
21
-20
0
LINE
5
108
100
AcDbEntity
8
bottom
6
ByLayer
62
256
370
-1
100
AcDbLine
10
448
20
-70
11
448
21
-40
0
LINE
5
109
100
AcDbEntity
8
bottom
6
ByLayer
62
256
370
-1
100
AcDbLine
10
508
20
-70
11
508
21
-40
0
LINE
5
10A
100
AcDbEntity
8
bottom
6
ByLayer
62
256
370
-1
100
AcDbLine
10
448
20
-90
11
448
21
-80
0
LINE
5
10B
100
AcDbEntity
8
bottom
6
ByLayer
62
256
370
-1
100
AcDbLine
10
508
20
-90
11
508
21
-80
0
LINE
5
10C
100
AcDbEntity
8
bottom
6
ByLayer
62
256
370
-1
100
AcDbLine
10
299.969999282
20
-20
11
302
21
-20
0
LINE
5
10D
100
AcDbEntity
8
bottom
6
ByLayer
62
256
370
-1
100
AcDbLine
10
302
20
-30
11
299.969999282
21
-30
0
LINE
5
10E
100
AcDbEntity
8
bottom
6
ByLayer
62
256
370
-1
100
AcDbLine
10
299.969999282
20
-40
11
302
21
-40
0
LINE
5
10F
100
AcDbEntity
8
bottom
6
ByLayer
62
256
370
-1
100
AcDbLine
10
302
20
-70
11
299.969999282
21
-70
0
LINE
5
110
100
AcDbEntity
8
bottom
6
ByLayer
62
256
370
-1
100
AcDbLine
10
299.969999282
20
-80
11
302
21
-80
0
LINE
5
111
100
AcDbEntity
8
bottom
6
ByLayer
62
256
370
-1
100
AcDbLine
10
302
20
-90
11
299.969999282
21
-90
0
LINE
5
112
100
AcDbEntity
8
bottom
6
ByLayer
62
256
370
-1
100
AcDbLine
10
448
20
-20
11
450
21
-20
0
LINE
5
113
100
AcDbEntity
8
bottom
6
ByLayer
62
256
370
-1
100
AcDbLine
10
450
20
-30
11
448
21
-30
0
LINE
5
114
100
AcDbEntity
8
bottom
6
ByLayer
62
256
370
-1
100
AcDbLine
10
448
20
-40
11
450
21
-40
0
LINE
5
115
100
AcDbEntity
8
bottom
6
ByLayer
62
256
370
-1
100
AcDbLine
10
450
20
-70
11
448
21
-70
0
LINE
5
116
100
AcDbEntity
8
bottom
6
ByLayer
62
256
370
-1
100
AcDbLine
10
448
20
-80
11
450
21
-80
0
LINE
5
117
100
AcDbEntity
8
bottom
6
ByLayer
62
256
370
-1
100
AcDbLine
10
450
20
-90
11
448
21
-90
0
LINE
5
118
100
AcDbEntity
8
bottom
6
ByLayer
62
256
370
-1
100
AcDbLine
10
508
20
-80
11
510
21
-80
0
LINE
5
119
100
AcDbEntity
8
bottom
6
ByLayer
62
256
370
-1
100
AcDbLine
10
510
20
-90
11
508
21
-90
0
LINE
5
11A
100
AcDbEntity
8
bottom
6
ByLayer
62
256
370
-1
100
AcDbLine
10
510
20
-70
11
508
21
-70
0
LINE
5
11B
100
AcDbEntity
8
bottom
6
ByLayer
62
256
370
-1
100
AcDbLine
10
508
20
-40
11
510
21
-40
0
LINE
5
11C
100
AcDbEntity
8
bottom
6
ByLayer
62
256
370
-1
100
AcDbLine
10
510
20
-30
11
508
21
-30
0
LINE
5
11D
100
AcDbEntity
8
bottom
6
ByLayer
62
256
370
-1
100
AcDbLine
10
508
20
-20
11
510
21
-20
0
LINE
5
11E
100
AcDbEntity
8
side-help
6
ByLayer
62
256
370
-1
100
AcDbLine
10
300
20
80
11
450
21
72.1388331075
0
LINE
5
11F
100
AcDbEntity
8
side-help
6
ByLayer
62
256
370
-1
100
AcDbLine
10
299.895328088
20
78.0027409305
11
449.895328088
21
70.141574038
0
LINE
5
120
100
AcDbEntity
8
bulkhead-help
6
ByLayer
62
256
370
-1
100
AcDbLine
10
2
20
50
11
2
21
-3.67394039744e-16
0
LINE
5
121
100
AcDbEntity
8
bulkhead
6
ByLayer
62
256
370
-1
100
AcDbLine
10
2
20
120
11
2
21
110
0
LINE
5
122
100
AcDbEntity
8
bulkhead
6
ByLayer
62
256
370
-1
100
AcDbLine
10
2
20
100
11
2
21
90
0
LINE
5
123
100
AcDbEntity
8
bulkhead
6
ByLayer
62
256
370
-1
100
AcDbLine
10
2
20
200
11
2
21
190
0
LINE
5
124
100
AcDbEntity
8
bulkhead
6
ByLayer
62
256
370
-1
100
AcDbLine
10
2
20
180
11
2
21
170
0
LINE
5
125
100
AcDbEntity
8
bulkhead
6
ByLayer
62
256
370
-1
100
AcDbLine
10
2
20
260
11
2
21
250
0
LINE
5
126
100
AcDbEntity
8
bulkhead
6
ByLayer
62
256
370
-1
100
AcDbLine
10
2
20
270
11
-0.0300007179431
21
270
0
LINE
5
127
100
AcDbEntity
8
bulkhead
6
ByLayer
62
256
370
-1
100
AcDbLine
10
-0.0200004786287
20
260
11
2
21
260
0
LINE
5
128
100
AcDbEntity
8
bulkhead
6
ByLayer
62
256
370
-1
100
AcDbLine
10
2
20
250
11
-0.0100002393144
21
250
0
LINE
5
129
100
AcDbEntity
8
bulkhead
6
ByLayer
62
256
370
-1
100
AcDbLine
10
0
20
245
11
2
21
245
0
LINE
5
12A
100
AcDbEntity
8
bulkhead
6
ByLayer
62
256
370
-1
100
AcDbLine
10
2
20
210
11
0
21
210
0
LINE
5
12B
100
AcDbEntity
8
bulkhead
6
ByLayer
62
256
370
-1
100
AcDbLine
10
2
20
220.465022673
11
2
21
210
0
LINE
5
12C
100
AcDbEntity
8
bulkhead
6
ByLayer
62
256
370
-1
100
AcDbLine
10
0
20
200
11
2
21
200
0
LINE
5
12D
100
AcDbEntity
8
bulkhead
6
ByLayer
62
256
370
-1
100
AcDbLine
10
2
20
190
11
0
21
190
0
LINE
5
12E
100
AcDbEntity
8
bulkhead
6
ByLayer
62
256
370
-1
100
AcDbLine
10
0
20
180
11
2
21
180
0
LINE
5
12F
100
AcDbEntity
8
bulkhead
6
ByLayer
62
256
370
-1
100
AcDbLine
10
2
20
170
11
0
21
170
0
LINE
5
130
100
AcDbEntity
8
bulkhead
6
ByLayer
62
256
370
-1
100
AcDbLine
10
0
20
160
11
2
21
160
0
LINE
5
131
100
AcDbEntity
8
bulkhead
6
ByLayer
62
256
370
-1
100
AcDbLine
10
2
20
138.245022673
11
2
21
130
0
LINE
5
132
100
AcDbEntity
8
bulkhead
6
ByLayer
62
256
370
-1
100
AcDbLine
10
2
20
130
11
0
21
130
0
LINE
5
133
100
AcDbEntity
8
bulkhead
6
ByLayer
62
256
370
-1
100
AcDbLine
10
0
20
120
11
2
21
120
0
LINE
5
134
100
AcDbEntity
8
bulkhead
6
ByLayer
62
256
370
-1
100
AcDbLine
10
2
20
110
11
0
21
110
0
LINE
5
135
100
AcDbEntity
8
bulkhead
6
ByLayer
62
256
370
-1
100
AcDbLine
10
0
20
100
11
2
21
100
0
LINE
5
136
100
AcDbEntity
8
bulkhead
6
ByLayer
62
256
370
-1
100
AcDbLine
10
2
20
90
11
0
21
90
0
LINE
5
137
100
AcDbEntity
8
bulkhead
6
ByLayer
62
256
370
-1
100
AcDbLine
10
0
20
70
11
2
21
70
0
LINE
5
138
100
AcDbEntity
8
bulkhead
6
ByLayer
62
256
370
-1
100
AcDbLine
10
20
20
242
11
30
21
242
0
LINE
5
139
100
AcDbEntity
8
bulkhead
6
ByLayer
62
256
370
-1
100
AcDbLine
10
60
20
242
11
70
21
242
0
LINE
5
13A
100
AcDbEntity
8
bulkhead
6
ByLayer
62
256
370
-1
100
AcDbLine
10
20
20
152
11
30
21
152
0
LINE
5
13B
100
AcDbEntity
8
bulkhead
6
ByLayer
62
256
370
-1
100
AcDbLine
10
60
20
152
11
70
21
152
0
LINE
5
13C
100
AcDbEntity
8
bulkhead
6
ByLayer
62
256
370
-1
100
AcDbLine
10
20
20
62
11
30
21
62
0
LINE
5
13D
100
AcDbEntity
8
bulkhead
6
ByLayer
62
256
370
-1
100
AcDbLine
10
60
20
62
11
70
21
62
0
LINE
5
13E
100
AcDbEntity
8
bulkhead
6
ByLayer
62
256
370
-1
100
AcDbLine
10
2
20
242
11
10
21
242
0
LINE
5
13F
100
AcDbEntity
8
bulkhead
6
ByLayer
62
256
370
-1
100
AcDbLine
10
2
20
152
11
10
21
152
0
LINE
5
140
100
AcDbEntity
8
bulkhead
6
ByLayer
62
256
370
-1
100
AcDbLine
10
2
20
62
11
10
21
62
0
LINE
5
141
100
AcDbEntity
8
bulkhead
6
ByLayer
62
256
370
-1
100
AcDbLine
10
2
20
245
11
2
21
242
0
LINE
5
142
100
AcDbEntity
8
bulkhead
6
ByLayer
62
256
370
-1
100
AcDbLine
10
10
20
242
11
10
21
240
0
LINE
5
143
100
AcDbEntity
8
bulkhead
6
ByLayer
62
256
370
-1
100
AcDbLine
10
20
20
240
11
20
21
242
0
LINE
5
144
100
AcDbEntity
8
bulkhead
6
ByLayer
62
256
370
-1
100
AcDbLine
10
30
20
242
11
30
21
240
0
LINE
5
145
100
AcDbEntity
8
bulkhead
6
ByLayer
62
256
370
-1
100
AcDbLine
10
60
20
240
11
60
21
242
0
LINE
5
146
100
AcDbEntity
8
bulkhead
6
ByLayer
62
256
370
-1
100
AcDbLine
10
70
20
242
11
70
21
240
0
LINE
5
147
100
AcDbEntity
8
bulkhead
6
ByLayer
62
256
370
-1
100
AcDbLine
10
80
20
240
11
80
21
242
0
LINE
5
148
100
AcDbEntity
8
bulkhead
6
ByLayer
62
256
370
-1
100
AcDbLine
10
2
20
160
11
2
21
152
0
LINE
5
149
100
AcDbEntity
8
bulkhead
6
ByLayer
62
256
370
-1
100
AcDbLine
10
10
20
152
11
10
21
150
0
LINE
5
14A
100
AcDbEntity
8
bulkhead
6
ByLayer
62
256
370
-1
100
AcDbLine
10
20
20
150
11
20
21
152
0
LINE
5
14B
100
AcDbEntity
8
bulkhead
6
ByLayer
62
256
370
-1
100
AcDbLine
10
30
20
152
11
30
21
150
0
LINE
5
14C
100
AcDbEntity
8
bulkhead
6
ByLayer
62
256
370
-1
100
AcDbLine
10
60
20
150
11
60
21
152
0
LINE
5
14D
100
AcDbEntity
8
bulkhead
6
ByLayer
62
256
370
-1
100
AcDbLine
10
70
20
152
11
70
21
150
0
LINE
5
14E
100
AcDbEntity
8
bulkhead
6
ByLayer
62
256
370
-1
100
AcDbLine
10
2
20
70
11
2
21
62
0
LINE
5
14F
100
AcDbEntity
8
bulkhead
6
ByLayer
62
256
370
-1
100
AcDbLine
10
10
20
62
11
10
21
60
0
LINE
5
150
100
AcDbEntity
8
bulkhead
6
ByLayer
62
256
370
-1
100
AcDbLine
10
20
20
60
11
20
21
62
0
LINE
5
151
100
AcDbEntity
8
bulkhead
6
ByLayer
62
256
370
-1
100
AcDbLine
10
30
20
62
11
30
21
60
0
LINE
5
152
100
AcDbEntity
8
bulkhead
6
ByLayer
62
256
370
-1
100
AcDbLine
10
60
20
60
11
60
21
62
0
LINE
5
153
100
AcDbEntity
8
bulkhead
6
ByLayer
62
256
370
-1
100
AcDbLine
10
70
20
62
11
70
21
60
0
LINE
5
154
100
AcDbEntity
8
bulkhead
6
ByLayer
62
256
370
-1
100
AcDbLine
10
80
20
60
11
80
21
62
0
LINE
5
155
100
AcDbEntity
8
bulkhead
6
ByLayer
62
256
370
-1
100
AcDbLine
10
90
20
130
11
90
21
120
0
LINE
5
156
100
AcDbEntity
8
bulkhead
6
ByLayer
62
256
370
-1
100
AcDbLine
10
90
20
110
11
90
21
100
0
LINE
5
157
100
AcDbEntity
8
bulkhead
6
ByLayer
62
256
370
-1
100
AcDbLine
10
90
20
90
11
90
21
70
0
LINE
5
158
100
AcDbEntity
8
bulkhead
6
ByLayer
62
256
370
-1
100
AcDbLine
10
90
20
210
11
90
21
200
0
LINE
5
159
100
AcDbEntity
8
bulkhead
6
ByLayer
62
256
370
-1
100
AcDbLine
10
90
20
190
11
90
21
180
0
LINE
5
15A
100
AcDbEntity
8
bulkhead
6
ByLayer
62
256
370
-1
100
AcDbLine
10
90
20
170
11
90
21
160
0
LINE
5
15B
100
AcDbEntity
8
bulkhead
6
ByLayer
62
256
370
-1
100
AcDbLine
10
90.0300007179
20
270
11
90.0200004786
21
260
0
LINE
5
15C
100
AcDbEntity
8
bulkhead
6
ByLayer
62
256
370
-1
100
AcDbLine
10
90.0100002393
20
250
11
90
21
245
0
LINE
5
15D
100
AcDbEntity
8
bulkhead
6
ByLayer
62
256
370
-1
100
AcDbLine
10
88
20
120
11
88
21
110
0
LINE
5
15E
100
AcDbEntity
8
bulkhead
6
ByLayer
62
256
370
-1
100
AcDbLine
10
88
20
100
11
88
21
90
0
LINE
5
15F
100
AcDbEntity
8
bulkhead
6
ByLayer
62
256
370
-1
100
AcDbLine
10
88
20
200
11
88
21
190
0
LINE
5
160
100
AcDbEntity
8
bulkhead
6
ByLayer
62
256
370
-1
100
AcDbLine
10
88
20
180
11
88
21
170
0
LINE
5
161
100
AcDbEntity
8
bulkhead
6
ByLayer
62
256
370
-1
100
AcDbLine
10
88
20
260
11
88
21
250
0
LINE
5
162
100
AcDbEntity
8
bulkhead
6
ByLayer
62
256
370
-1
100
AcDbLine
10
88
20
270
11
90.0300007179
21
270
0
LINE
5
163
100
AcDbEntity
8
bulkhead
6
ByLayer
62
256
370
-1
100
AcDbLine
10
90.0200004786
20
260
11
88
21
260
0
LINE
5
164
100
AcDbEntity
8
bulkhead
6
ByLayer
62
256
370
-1
100
AcDbLine
10
88
20
250
11
90.0100002393
21
250
0
LINE
5
165
100
AcDbEntity
8
bulkhead
6
ByLayer
62
256
370
-1
100
AcDbLine
10
90
20
245
11
88
21
245
0
LINE
5
166
100
AcDbEntity
8
bulkhead
6
ByLayer
62
256
370
-1
100
AcDbLine
10
88
20
210
11
90
21
210
0
LINE
5
167
100
AcDbEntity
8
bulkhead
6
ByLayer
62
256
370
-1
100
AcDbLine
10
88
20
220.465022673
11
88
21
210
0
LINE
5
168
100
AcDbEntity
8
bulkhead
6
ByLayer
62
256
370
-1
100
AcDbLine
10
90
20
200
11
88
21
200
0
LINE
5
169
100
AcDbEntity
8
bulkhead
6
ByLayer
62
256
370
-1
100
AcDbLine
10
88
20
190
11
90
21
190
0
LINE
5
16A
100
AcDbEntity
8
bulkhead
6
ByLayer
62
256
370
-1
100
AcDbLine
10
90
20
180
11
88
21
180
0
LINE
5
16B
100
AcDbEntity
8
bulkhead
6
ByLayer
62
256
370
-1
100
AcDbLine
10
88
20
170
11
90
21
170
0
LINE
5
16C
100
AcDbEntity
8
bulkhead
6
ByLayer
62
256
370
-1
100
AcDbLine
10
90
20
160
11
88
21
160
0
LINE
5
16D
100
AcDbEntity
8
bulkhead
6
ByLayer
62
256
370
-1
100
AcDbLine
10
88
20
138.245022673
11
88
21
130
0
LINE
5
16E
100
AcDbEntity
8
bulkhead
6
ByLayer
62
256
370
-1
100
AcDbLine
10
88
20
130
11
90
21
130
0
LINE
5
16F
100
AcDbEntity
8
bulkhead
6
ByLayer
62
256
370
-1
100
AcDbLine
10
90
20
120
11
88
21
120
0
LINE
5
170
100
AcDbEntity
8
bulkhead
6
ByLayer
62
256
370
-1
100
AcDbLine
10
88
20
110
11
90
21
110
0
LINE
5
171
100
AcDbEntity
8
bulkhead
6
ByLayer
62
256
370
-1
100
AcDbLine
10
90
20
100
11
88
21
100
0
LINE
5
172
100
AcDbEntity
8
bulkhead
6
ByLayer
62
256
370
-1
100
AcDbLine
10
88
20
90
11
90
21
90
0
LINE
5
173
100
AcDbEntity
8
bulkhead
6
ByLayer
62
256
370
-1
100
AcDbLine
10
90
20
70
11
88
21
70
0
LINE
5
174
100
AcDbEntity
8
bulkhead
6
ByLayer
62
256
370
-1
100
AcDbLine
10
88
20
242
11
80
21
242
0
LINE
5
175
100
AcDbEntity
8
bulkhead
6
ByLayer
62
256
370
-1
100
AcDbLine
10
88
20
245
11
88
21
242
0
LINE
5
176
100
AcDbEntity
8
bulkhead
6
ByLayer
62
256
370
-1
100
AcDbLine
10
80
20
242
11
80
21
240
0
LINE
5
177
100
AcDbEntity
8
bulkhead
6
ByLayer
62
256
370
-1
100
AcDbLine
10
88
20
160
11
88
21
152
0
LINE
5
178
100
AcDbEntity
8
bulkhead
6
ByLayer
62
256
370
-1
100
AcDbLine
10
80
20
152
11
80
21
150
0
LINE
5
179
100
AcDbEntity
8
bulkhead
6
ByLayer
62
256
370
-1
100
AcDbLine
10
88
20
70
11
88
21
62
0
LINE
5
17A
100
AcDbEntity
8
bulkhead
6
ByLayer
62
256
370
-1
100
AcDbLine
10
80
20
62
11
80
21
60
0
LINE
5
17B
100
AcDbEntity
8
bulkhead
6
ByLayer
62
256
370
-1
100
AcDbLine
10
80
20
242
11
88
21
242
0
LINE
5
17C
100
AcDbEntity
8
bulkhead
6
ByLayer
62
256
370
-1
100
AcDbLine
10
80
20
152
11
88
21
152
0
LINE
5
17D
100
AcDbEntity
8
bulkhead
6
ByLayer
62
256
370
-1
100
AcDbLine
10
80
20
62
11
88
21
62
0
LINE
5
17E
100
AcDbEntity
8
side
6
ByLayer
62
256
370
-1
100
AcDbLine
10
300
20
40
11
300
21
50
0
LINE
5
17F
100
AcDbEntity
8
side
6
ByLayer
62
256
370
-1
100
AcDbLine
10
300
20
60
11
300
21
70
0
LINE
5
180
100
AcDbEntity
8
side
6
ByLayer
62
256
370
-1
100
AcDbLine
10
450
20
60
11
450
21
50
0
LINE
5
181
100
AcDbEntity
8
side
6
ByLayer
62
256
370
-1
100
AcDbLine
10
450
20
40
11
450
21
30
0
LINE
5
182
100
AcDbEntity
8
side
6
ByLayer
62
256
370
-1
100
AcDbLine
10
450
20
20
11
450
21
10
0
LINE
5
183
100
AcDbEntity
8
side
6
ByLayer
62
256
370
-1
100
AcDbLine
10
510
20
30
11
510
21
20
0
LINE
5
184
100
AcDbEntity
8
side
6
ByLayer
62
256
370
-1
100
AcDbLine
10
510
20
10
11
510
21
5
0
LINE
5
185
100
AcDbEntity
8
side
6
ByLayer
62
256
370
-1
100
AcDbLine
10
439.808134866
20
72.6729661259
11
429.821839518
21
73.1963256884
0
LINE
5
186
100
AcDbEntity
8
side
6
ByLayer
62
256
370
-1
100
AcDbLine
10
419.835544171
20
73.7196852508
11
409.849248823
21
74.2430448132
0
LINE
5
187
100
AcDbEntity
8
side
6
ByLayer
62
256
370
-1
100
AcDbLine
10
399.862953475
20
74.7664043757
11
374.897215107
21
76.0748032818
0
LINE
5
188
100
AcDbEntity
8
side
6
ByLayer
62
256
370
-1
100
AcDbLine
10
349.931476738
20
77.3832021878
11
324.965738369
21
78.6916010939
0
LINE
5
189
100
AcDbEntity
8
side
6
ByLayer
62
256
370
-1
100
AcDbLine
10
299.969999282
20
10
11
299.969999282
21
30
0
LINE
5
18A
100
AcDbEntity
8
side
6
ByLayer
62
256
370
-1
100
AcDbLine
10
341.5
20
0
11
376.5
21
0
0
LINE
5
18B
100
AcDbEntity
8
side
6
ByLayer
62
256
370
-1
100
AcDbLine
10
411.5
20
0
11
446.5
21
0
0
LINE
5
18C
100
AcDbEntity
8
side
6
ByLayer
62
256
370
-1
100
AcDbLine
10
302
20
50
11
302
21
40
0
LINE
5
18D
100
AcDbEntity
8
side
6
ByLayer
62
256
370
-1
100
AcDbLine
10
302
20
70
11
302
21
60
0
LINE
5
18E
100
AcDbEntity
8
side
6
ByLayer
62
256
370
-1
100
AcDbLine
10
302
20
30
11
302
21
10
0
LINE
5
18F
100
AcDbEntity
8
side
6
ByLayer
62
256
370
-1
100
AcDbLine
10
448
20
50
11
448
21
60
0
LINE
5
190
100
AcDbEntity
8
side
6
ByLayer
62
256
370
-1
100
AcDbLine
10
448
20
30
11
448
21
40
0
LINE
5
191
100
AcDbEntity
8
side
6
ByLayer
62
256
370
-1
100
AcDbLine
10
448
20
10
11
448
21
20
0
LINE
5
192
100
AcDbEntity
8
side
6
ByLayer
62
256
370
-1
100
AcDbLine
10
508
20
20
11
508
21
30
0
LINE
5
193
100
AcDbEntity
8
side
6
ByLayer
62
256
370
-1
100
AcDbLine
10
508
20
5
11
508
21
10
0
LINE
5
194
100
AcDbEntity
8
side
6
ByLayer
62
256
370
-1
100
AcDbLine
10
270
20
40
11
272
21
40
0
LINE
5
195
100
AcDbEntity
8
side
6
ByLayer
62
256
370
-1
100
AcDbLine
10
270
20
20
11
272
21
20
0
LINE
5
196
100
AcDbEntity
8
side
6
ByLayer
62
256
370
-1
100
AcDbLine
10
300
20
70
11
302
21
70
0
LINE
5
197
100
AcDbEntity
8
side
6
ByLayer
62
256
370
-1
100
AcDbLine
10
302
20
60
11
300
21
60
0
LINE
5
198
100
AcDbEntity
8
side
6
ByLayer
62
256
370
-1
100
AcDbLine
10
300
20
50
11
302
21
50
0
LINE
5
199
100
AcDbEntity
8
side
6
ByLayer
62
256
370
-1
100
AcDbLine
10
302
20
40
11
300
21
40
0
LINE
5
19A
100
AcDbEntity
8
side
6
ByLayer
62
256
370
-1
100
AcDbLine
10
299.969999282
20
30
11
302
21
30
0
LINE
5
19B
100
AcDbEntity
8
side
6
ByLayer
62
256
370
-1
100
AcDbLine
10
302
20
10
11
299.969999282
21
10
0
LINE
5
19C
100
AcDbEntity
8
side
6
ByLayer
62
256
370
-1
100
AcDbLine
10
448
20
60
11
450
21
60
0
LINE
5
19D
100
AcDbEntity
8
side
6
ByLayer
62
256
370
-1
100
AcDbLine
10
450
20
50
11
448
21
50
0
LINE
5
19E
100
AcDbEntity
8
side
6
ByLayer
62
256
370
-1
100
AcDbLine
10
448
20
40
11
450
21
40
0
LINE
5
19F
100
AcDbEntity
8
side
6
ByLayer
62
256
370
-1
100
AcDbLine
10
450
20
30
11
448
21
30
0
LINE
5
1A0
100
AcDbEntity
8
side
6
ByLayer
62
256
370
-1
100
AcDbLine
10
448
20
20
11
450
21
20
0
LINE
5
1A1
100
AcDbEntity
8
side
6
ByLayer
62
256
370
-1
100
AcDbLine
10
450
20
10
11
448
21
10
0
LINE
5
1A2
100
AcDbEntity
8
side
6
ByLayer
62
256
370
-1
100
AcDbLine
10
510
20
5
11
508
21
5
0
LINE
5
1A3
100
AcDbEntity
8
side
6
ByLayer
62
256
370
-1
100
AcDbLine
10
508
20
10
11
510
21
10
0
LINE
5
1A4
100
AcDbEntity
8
side
6
ByLayer
62
256
370
-1
100
AcDbLine
10
510
20
20
11
508
21
20
0
LINE
5
1A5
100
AcDbEntity
8
side
6
ByLayer
62
256
370
-1
100
AcDbLine
10
508
20
30
11
510
21
30
0
LINE
5
1A6
100
AcDbEntity
8
side
6
ByLayer
62
256
370
-1
100
AcDbLine
10
306.5
20
2
11
341.5
21
2
0
LINE
5
1A7
100
AcDbEntity
8
side
6
ByLayer
62
256
370
-1
100
AcDbLine
10
376.5
20
2
11
411.5
21
2
0
LINE
5
1A8
100
AcDbEntity
8
side
6
ByLayer
62
256
370
-1
100
AcDbLine
10
446.5
20
2
11
481.5
21
2
0
LINE
5
1A9
100
AcDbEntity
8
side
6
ByLayer
62
256
370
-1
100
AcDbLine
10
306.5
20
0
11
306.5
21
2
0
LINE
5
1AA
100
AcDbEntity
8
side
6
ByLayer
62
256
370
-1
100
AcDbLine
10
341.5
20
2
11
341.5
21
0
0
LINE
5
1AB
100
AcDbEntity
8
side
6
ByLayer
62
256
370
-1
100
AcDbLine
10
376.5
20
0
11
376.5
21
2
0
LINE
5
1AC
100
AcDbEntity
8
side
6
ByLayer
62
256
370
-1
100
AcDbLine
10
411.5
20
2
11
411.5
21
0
0
LINE
5
1AD
100
AcDbEntity
8
side
6
ByLayer
62
256
370
-1
100
AcDbLine
10
446.5
20
0
11
446.5
21
2
0
LINE
5
1AE
100
AcDbEntity
8
side
6
ByLayer
62
256
370
-1
100
AcDbLine
10
481.5
20
2
11
481.5
21
0
0
LINE
5
1AF
100
AcDbEntity
8
side
6
ByLayer
62
256
370
-1
100
AcDbLine
10
450
20
72.1388331075
11
449.895328088
21
70.141574038
0
LINE
5
1B0
100
AcDbEntity
8
side
6
ByLayer
62
256
370
-1
100
AcDbLine
10
439.703462953
20
70.6757070564
11
439.808134866
21
72.6729661259
0
LINE
5
1B1
100
AcDbEntity
8
side
6
ByLayer
62
256
370
-1
100
AcDbLine
10
429.821839518
20
73.1963256884
11
429.717167606
21
71.1990666189
0
LINE
5
1B2
100
AcDbEntity
8
side
6
ByLayer
62
256
370
-1
100
AcDbLine
10
419.730872258
20
71.7224261813
11
419.835544171
21
73.7196852508
0
LINE
5
1B3
100
AcDbEntity
8
side
6
ByLayer
62
256
370
-1
100
AcDbLine
10
409.849248823
20
74.2430448132
11
409.744576911
21
72.2457857437
0
LINE
5
1B4
100
AcDbEntity
8
side
6
ByLayer
62
256
370
-1
100
AcDbLine
10
399.758281563
20
72.7691453062
11
399.862953475
21
74.7664043757
0
LINE
5
1B5
100
AcDbEntity
8
side
6
ByLayer
62
256
370
-1
100
AcDbLine
10
374.897215107
20
76.0748032818
11
374.792543194
21
74.0775442122
0
LINE
5
1B6
100
AcDbEntity
8
side
6
ByLayer
62
256
370
-1
100
AcDbLine
10
349.826804825
20
75.3859431183
11
349.931476738
21
77.3832021878
0
LINE
5
1B7
100
AcDbEntity
8
side
6
ByLayer
62
256
370
-1
100
AcDbLine
10
324.965738369
20
78.6916010939
11
324.861066456
21
76.6943420244
0
LINE
5
1B8
100
AcDbEntity
8
side
6
ByLayer
62
256
370
-1
100
AcDbLine
10
299.895328088
20
78.0027409305
11
300
21
80
0
LINE
5
1B9
100
AcDbEntity
8
side
6
ByLayer
62
256
370
-1
100
AcDbLine
10
299.895328088
20
78.0027409305
11
324.861066456
21
76.6943420244
0
LINE
5
1BA
100
AcDbEntity
8
side
6
ByLayer
62
256
370
-1
100
AcDbLine
10
349.826804825
20
75.3859431183
11
374.792543194
21
74.0775442122
0
LINE
5
1BB
100
AcDbEntity
8
side
6
ByLayer
62
256
370
-1
100
AcDbLine
10
399.758281563
20
72.7691453062
11
409.744576911
21
72.2457857437
0
LINE
5
1BC
100
AcDbEntity
8
side
6
ByLayer
62
256
370
-1
100
AcDbLine
10
419.730872258
20
71.7224261813
11
429.717167606
21
71.1990666189
0
LINE
5
1BD
100
AcDbEntity
8
side
6
ByLayer
62
256
370
-1
100
AcDbLine
10
439.703462953
20
70.6757070564
11
449.895328088
21
70.141574038
0
LINE
5
1BE
100
AcDbEntity
8
top-help
6
ByLayer
62
256
370
-1
100
AcDbLine
10
300
20
102
11
450.206
21
102
0
LINE
5
1BF
100
AcDbEntity
8
top-help
6
ByLayer
62
256
370
-1
100
AcDbLine
10
450.206
20
188
11
300
21
188
0
LINE
5
1C0
100
AcDbEntity
8
top-help
6
ByLayer
62
256
370
-1
100
AcDbLine
10
300
20
145
11
450
21
145
0
LINE
5
1C1
100
AcDbEntity
8
top-help
6
ByLayer
62
256
370
-1
100
AcDbLine
10
448.206
20
100
11
448.206
21
190
0
LINE
5
1C2
100
AcDbEntity
8
top-help
6
ByLayer
62
256
370
-1
100
AcDbLine
10
302
20
190
11
302
21
100
0
LINE
5
1C3
100
AcDbEntity
8
top-help
6
ByLayer
62
256
370
-1
100
AcDbLine
10
450.206
20
178
11
300
21
178
0
LINE
5
1C4
100
AcDbEntity
8
top-help
6
ByLayer
62
256
370
-1
100
AcDbLine
10
300
20
112
11
450.206
21
112
0
LINE
5
1C5
100
AcDbEntity
8
top-help
6
ByLayer
62
256
370
-1
100
AcDbLine
10
327
20
190
11
327
21
100
0
LINE
5
1C6
100
AcDbEntity
8
top-help
6
ByLayer
62
256
370
-1
100
AcDbLine
10
423.206
20
100
11
423.206
21
190
0
LINE
5
1C7
100
AcDbEntity
8
top-help
6
ByLayer
62
256
370
-1
100
AcDbLine
10
300
20
147
11
450
21
147
0
LINE
5
1C8
100
AcDbEntity
8
top-help
6
ByLayer
62
256
370
-1
100
AcDbLine
10
300
20
143
11
450
21
143
0
LINE
5
1C9
100
AcDbEntity
8
top-help
6
ByLayer
62
256
370
-1
100
AcDbLine
10
307
20
190
11
307
21
100
0
LINE
5
1CA
100
AcDbEntity
8
top-help
6
ByLayer
62
256
370
-1
100
AcDbLine
10
312
20
190
11
312
21
100
0
LINE
5
1CB
100
AcDbEntity
8
top-help
6
ByLayer
62
256
370
-1
100
AcDbLine
10
317
20
190
11
317
21
100
0
LINE
5
1CC
100
AcDbEntity
8
top-help
6
ByLayer
62
256
370
-1
100
AcDbLine
10
322
20
190
11
322
21
100
0
LINE
5
1CD
100
AcDbEntity
8
top-help
6
ByLayer
62
256
370
-1
100
AcDbLine
10
443.206
20
100
11
443.206
21
190
0
LINE
5
1CE
100
AcDbEntity
8
top-help
6
ByLayer
62
256
370
-1
100
AcDbLine
10
438.206
20
100
11
438.206
21
190
0
LINE
5
1CF
100
AcDbEntity
8
top-help
6
ByLayer
62
256
370
-1
100
AcDbLine
10
433.206
20
100
11
433.206
21
190
0
LINE
5
1D0
100
AcDbEntity
8
top-help
6
ByLayer
62
256
370
-1
100
AcDbLine
10
428.206
20
100
11
428.206
21
190
0
LINE
5
1D1
100
AcDbEntity
8
top
6
ByLayer
62
256
370
-1
100
AcDbLine
10
300
20
145
11
302
21
145
0
LINE
5
1D2
100
AcDbEntity
8
top
6
ByLayer
62
256
370
-1
100
AcDbLine
10
302
20
145
11
302
21
147
0
LINE
5
1D3
100
AcDbEntity
8
top
6
ByLayer
62
256
370
-1
100
AcDbLine
10
302
20
147
11
307
21
147
0
LINE
5
1D4
100
AcDbEntity
8
top
6
ByLayer
62
256
370
-1
100
AcDbLine
10
307
20
147
11
307
21
145
0
LINE
5
1D5
100
AcDbEntity
8
top
6
ByLayer
62
256
370
-1
100
AcDbLine
10
307
20
145
11
307
21
143
0
LINE
5
1D6
100
AcDbEntity
8
top
6
ByLayer
62
256
370
-1
100
AcDbLine
10
307
20
143
11
312
21
143
0
LINE
5
1D7
100
AcDbEntity
8
top
6
ByLayer
62
256
370
-1
100
AcDbLine
10
312
20
143
11
312
21
147
0
LINE
5
1D8
100
AcDbEntity
8
top
6
ByLayer
62
256
370
-1
100
AcDbLine
10
312
20
147
11
317
21
147
0
LINE
5
1D9
100
AcDbEntity
8
top
6
ByLayer
62
256
370
-1
100
AcDbLine
10
317
20
147
11
317
21
143
0
LINE
5
1DA
100
AcDbEntity
8
top
6
ByLayer
62
256
370
-1
100
AcDbLine
10
317
20
143
11
322
21
143
0
LINE
5
1DB
100
AcDbEntity
8
top
6
ByLayer
62
256
370
-1
100
AcDbLine
10
322
20
143
11
322
21
145
0
LINE
5
1DC
100
AcDbEntity
8
top
6
ByLayer
62
256
370
-1
100
AcDbLine
10
322
20
145
11
327
21
145
0
LINE
5
1DD
100
AcDbEntity
8
top
6
ByLayer
62
256
370
-1
100
AcDbLine
10
450
20
145
11
448.206
21
145
0
LINE
5
1DE
100
AcDbEntity
8
top
6
ByLayer
62
256
370
-1
100
AcDbLine
10
448.206
20
145
11
448.206
21
143
0
LINE
5
1DF
100
AcDbEntity
8
top
6
ByLayer
62
256
370
-1
100
AcDbLine
10
448.206
20
143
11
443.206
21
143
0
LINE
5
1E0
100
AcDbEntity
8
top
6
ByLayer
62
256
370
-1
100
AcDbLine
10
443.206
20
143
11
443.206
21
147
0
LINE
5
1E1
100
AcDbEntity
8
top
6
ByLayer
62
256
370
-1
100
AcDbLine
10
443.206
20
147
11
438.206
21
147
0
LINE
5
1E2
100
AcDbEntity
8
top
6
ByLayer
62
256
370
-1
100
AcDbLine
10
438.206
20
147
11
438.206
21
143
0
LINE
5
1E3
100
AcDbEntity
8
top
6
ByLayer
62
256
370
-1
100
AcDbLine
10
438.206
20
143
11
433.206
21
143
0
LINE
5
1E4
100
AcDbEntity
8
top
6
ByLayer
62
256
370
-1
100
AcDbLine
10
433.206
20
143
11
433.206
21
147
0
LINE
5
1E5
100
AcDbEntity
8
top
6
ByLayer
62
256
370
-1
100
AcDbLine
10
433.206
20
147
11
428.206
21
147
0
LINE
5
1E6
100
AcDbEntity
8
top
6
ByLayer
62
256
370
-1
100
AcDbLine
10
428.206
20
147
11
428.206
21
145
0
ARC
5
1E7
100
AcDbEntity
8
top
6
ByLayer
62
256
370
-1
100
AcDbCircle
10
332
20
173
40
5
100
AcDbArc
50
90
51
180
0
ARC
5
1E8
100
AcDbEntity
8
top
6
ByLayer
62
256
370
-1
100
AcDbCircle
10
418.206
20
173
40
5
100
AcDbArc
50
0
51
90
0
ARC
5
1E9
100
AcDbEntity
8
top
6
ByLayer
62
256
370
-1
100
AcDbCircle
10
418.206
20
117
40
5
100
AcDbArc
50
270
51
0
0
ARC
5
1EA
100
AcDbEntity
8
top
6
ByLayer
62
256
370
-1
100
AcDbCircle
10
332
20
117
40
5
100
AcDbArc
50
180
51
270
0
LINE
5
1EB
100
AcDbEntity
8
top
6
ByLayer
62
256
370
-1
100
AcDbLine
10
332
20
112
11
418.206
21
112
0
LINE
5
1EC
100
AcDbEntity
8
top
6
ByLayer
62
256
370
-1
100
AcDbLine
10
423.206
20
172.999992371
11
423.206
21
117.000007629
0
LINE
5
1ED
100
AcDbEntity
8
top
6
ByLayer
62
256
370
-1
100
AcDbLine
10
332
20
178
11
418.205994605
21
178
0
LINE
5
1EE
100
AcDbEntity
8
top
6
ByLayer
62
256
370
-1
100
AcDbLine
10
327
20
173
11
327
21
117
0
LINE
5
1EF
100
AcDbEntity
8
top-help
6
ByLayer
62
256
370
-1
100
AcDbLine
10
325
20
200
11
325
21
90
0
LINE
5
1F0
100
AcDbEntity
8
top-help
6
ByLayer
62
256
370
-1
100
AcDbLine
10
350
20
200
11
350
21
90
0
LINE
5
1F1
100
AcDbEntity
8
top-help
6
ByLayer
62
256
370
-1
100
AcDbLine
10
375
20
200
11
375
21
90
0
LINE
5
1F2
100
AcDbEntity
8
top-help
6
ByLayer
62
256
370
-1
100
AcDbLine
10
400
20
200
11
400
21
90
0
LINE
5
1F3
100
AcDbEntity
8
top-help
6
ByLayer
62
256
370
-1
100
AcDbLine
10
410
20
200
11
410
21
90
0
LINE
5
1F4
100
AcDbEntity
8
top-help
6
ByLayer
62
256
370
-1
100
AcDbLine
10
420
20
200
11
420
21
90
0
LINE
5
1F5
100
AcDbEntity
8
top-help
6
ByLayer
62
256
370
-1
100
AcDbLine
10
430
20
200
11
430
21
90
0
LINE
5
1F6
100
AcDbEntity
8
top-help
6
ByLayer
62
256
370
-1
100
AcDbLine
10
440
20
200
11
440
21
90
0
LINE
5
1F7
100
AcDbEntity
8
top-help
6
ByLayer
62
256
370
-1
100
AcDbLine
10
302
20
190
11
448.206
21
190
0
LINE
5
1F8
100
AcDbEntity
8
top-help
6
ByLayer
62
256
370
-1
100
AcDbLine
10
302
20
100
11
448.206
21
100
0
LINE
5
1F9
100
AcDbEntity
8
top
6
ByLayer
62
256
370
-1
100
AcDbLine
10
325
20
100
11
350
21
100
0
LINE
5
1FA
100
AcDbEntity
8
top
6
ByLayer
62
256
370
-1
100
AcDbLine
10
350
20
100
11
350
21
102
0
LINE
5
1FB
100
AcDbEntity
8
top
6
ByLayer
62
256
370
-1
100
AcDbLine
10
350
20
102
11
325
21
102
0
LINE
5
1FC
100
AcDbEntity
8
top
6
ByLayer
62
256
370
-1
100
AcDbLine
10
325
20
102
11
325
21
100
0
LINE
5
1FD
100
AcDbEntity
8
top
6
ByLayer
62
256
370
-1
100
AcDbLine
10
375
20
100
11
400
21
100
0
LINE
5
1FE
100
AcDbEntity
8
top
6
ByLayer
62
256
370
-1
100
AcDbLine
10
400
20
100
11
400
21
102
0
LINE
5
1FF
100
AcDbEntity
8
top
6
ByLayer
62
256
370
-1
100
AcDbLine
10
400
20
102
11
375
21
102
0
LINE
5
200
100
AcDbEntity
8
top
6
ByLayer
62
256
370
-1
100
AcDbLine
10
375
20
102
11
375
21
100
0
LINE
5
201
100
AcDbEntity
8
top
6
ByLayer
62
256
370
-1
100
AcDbLine
10
410
20
100
11
420
21
100
0
LINE
5
202
100
AcDbEntity
8
top
6
ByLayer
62
256
370
-1
100
AcDbLine
10
420
20
100
11
420
21
102
0
LINE
5
203
100
AcDbEntity
8
top
6
ByLayer
62
256
370
-1
100
AcDbLine
10
420
20
102
11
410
21
102
0
LINE
5
204
100
AcDbEntity
8
top
6
ByLayer
62
256
370
-1
100
AcDbLine
10
410
20
102
11
410
21
100
0
LINE
5
205
100
AcDbEntity
8
top
6
ByLayer
62
256
370
-1
100
AcDbLine
10
430
20
100
11
440
21
100
0
LINE
5
206
100
AcDbEntity
8
top
6
ByLayer
62
256
370
-1
100
AcDbLine
10
440
20
100
11
440
21
102
0
LINE
5
207
100
AcDbEntity
8
top
6
ByLayer
62
256
370
-1
100
AcDbLine
10
440
20
102
11
430
21
102
0
LINE
5
208
100
AcDbEntity
8
top
6
ByLayer
62
256
370
-1
100
AcDbLine
10
430
20
102
11
430
21
100
0
LINE
5
209
100
AcDbEntity
8
top
6
ByLayer
62
256
370
-1
100
AcDbLine
10
325
20
190
11
350
21
190
0
LINE
5
20A
100
AcDbEntity
8
top
6
ByLayer
62
256
370
-1
100
AcDbLine
10
350
20
190
11
350
21
188
0
LINE
5
20B
100
AcDbEntity
8
top
6
ByLayer
62
256
370
-1
100
AcDbLine
10
350
20
188
11
325
21
188
0
LINE
5
20C
100
AcDbEntity
8
top
6
ByLayer
62
256
370
-1
100
AcDbLine
10
325
20
188
11
325
21
190
0
LINE
5
20D
100
AcDbEntity
8
top
6
ByLayer
62
256
370
-1
100
AcDbLine
10
375
20
190
11
400
21
190
0
LINE
5
20E
100
AcDbEntity
8
top
6
ByLayer
62
256
370
-1
100
AcDbLine
10
400
20
190
11
400
21
188
0
LINE
5
20F
100
AcDbEntity
8
top
6
ByLayer
62
256
370
-1
100
AcDbLine
10
400
20
188
11
375
21
188
0
LINE
5
210
100
AcDbEntity
8
top
6
ByLayer
62
256
370
-1
100
AcDbLine
10
375
20
188
11
375
21
190
0
LINE
5
211
100
AcDbEntity
8
top
6
ByLayer
62
256
370
-1
100
AcDbLine
10
410
20
190
11
420
21
190
0
LINE
5
212
100
AcDbEntity
8
top
6
ByLayer
62
256
370
-1
100
AcDbLine
10
420
20
190
11
420
21
188
0
LINE
5
213
100
AcDbEntity
8
top
6
ByLayer
62
256
370
-1
100
AcDbLine
10
420
20
188
11
410
21
188
0
LINE
5
214
100
AcDbEntity
8
top
6
ByLayer
62
256
370
-1
100
AcDbLine
10
410
20
188
11
410
21
190
0
LINE
5
215
100
AcDbEntity
8
top
6
ByLayer
62
256
370
-1
100
AcDbLine
10
430
20
190
11
440
21
190
0
LINE
5
216
100
AcDbEntity
8
top
6
ByLayer
62
256
370
-1
100
AcDbLine
10
440
20
190
11
440
21
188
0
LINE
5
217
100
AcDbEntity
8
top
6
ByLayer
62
256
370
-1
100
AcDbLine
10
440
20
188
11
430
21
188
0
LINE
5
218
100
AcDbEntity
8
top
6
ByLayer
62
256
370
-1
100
AcDbLine
10
430
20
188
11
430
21
190
0
LINE
5
219
100
AcDbEntity
8
top
6
ByLayer
62
256
370
-1
100
AcDbLine
10
428.206
20
145
11
423.206
21
145
0
LINE
5
21A
100
AcDbEntity
8
bulkhead-help
6
ByLayer
62
256
370
-1
100
AcDbLine
10
87.8256885145
20
140.237412069
11
44.8256885145
21
136.475399538
0
LINE
5
21B
100
AcDbEntity
8
bulkhead-help
6
ByLayer
62
256
370
-1
100
AcDbLine
10
2.1743114855
20
140.237412069
11
45.1743114855
21
136.475399538
0
LINE
5
21C
100
AcDbEntity
8
bulkhead-help
6
ByLayer
62
256
370
-1
100
AcDbLine
10
87.8256885145
20
222.457412069
11
44.8256885145
21
218.695399538
0
LINE
5
21D
100
AcDbEntity
8
bulkhead-help
6
ByLayer
62
256
370
-1
100
AcDbLine
10
2.1743114855
20
222.457412069
11
45.1743114855
21
218.695399538
0
LINE
5
21E
100
AcDbEntity
8
top-help
6
ByLayer
62
2
370
-1
100
AcDbLine
10
300
20
153
11
450
21
153
0
LINE
5
21F
100
AcDbEntity
8
top-help
6
ByLayer
62
2
370
-1
100
AcDbLine
10
300
20
161
11
450
21
161
0
LINE
5
220
100
AcDbEntity
8
top-help
6
ByLayer
62
2
370
-1
100
AcDbLine
10
300
20
169
11
450
21
169
0
LINE
5
221
100
AcDbEntity
8
top-help
6
ByLayer
62
2
370
-1
100
AcDbLine
10
300
20
177
11
450
21
177
0
LINE
5
222
100
AcDbEntity
8
top-help
6
ByLayer
62
2
370
-1
100
AcDbLine
10
300
20
137
11
450
21
137
0
LINE
5
223
100
AcDbEntity
8
top-help
6
ByLayer
62
2
370
-1
100
AcDbLine
10
300
20
129
11
450
21
129
0
LINE
5
224
100
AcDbEntity
8
top-help
6
ByLayer
62
2
370
-1
100
AcDbLine
10
300
20
121
11
450
21
121
0
LINE
5
225
100
AcDbEntity
8
top-help
6
ByLayer
62
2
370
-1
100
AcDbLine
10
300
20
113
11
450
21
113
0
LINE
5
226
100
AcDbEntity
8
bulkhead-help
6
ByLayer
62
2
370
-1
100
AcDbLine
10
45
20
0
11
45
21
500
0
LINE
5
227
100
AcDbEntity
8
bulkhead-help
6
ByLayer
62
2
370
-1
100
AcDbLine
10
37
20
9.79717439318e-16
11
37
21
500
0
LINE
5
228
100
AcDbEntity
8
bulkhead-help
6
ByLayer
62
2
370
-1
100
AcDbLine
10
29
20
1.95943487864e-15
11
29
21
500
0
LINE
5
229
100
AcDbEntity
8
bulkhead-help
6
ByLayer
62
2
370
-1
100
AcDbLine
10
21
20
2.93915231795e-15
11
21
21
500
0
LINE
5
22A
100
AcDbEntity
8
bulkhead-help
6
ByLayer
62
2
370
-1
100
AcDbLine
10
13
20
3.91886975727e-15
11
13
21
500
0
LINE
5
22B
100
AcDbEntity
8
bulkhead-help
6
ByLayer
62
2
370
-1
100
AcDbLine
10
53
20
-1.95943487864e-15
11
53
21
500
0
LINE
5
22C
100
AcDbEntity
8
bulkhead-help
6
ByLayer
62
2
370
-1
100
AcDbLine
10
61
20
-3.91886975727e-15
11
61
21
500
0
LINE
5
22D
100
AcDbEntity
8
bulkhead-help
6
ByLayer
62
2
370
-1
100
AcDbLine
10
69
20
-5.87830463591e-15
11
69
21
500
0
LINE
5
22E
100
AcDbEntity
8
bulkhead-help
6
ByLayer
62
2
370
-1
100
AcDbLine
10
77
20
-7.83773951454e-15
11
77
21
500
0
LINE
5
22F
100
AcDbEntity
8
bulkhead
6
ByLayer
62
256
370
-1
100
AcDbLine
10
2
20
220.465022673
11
13
21
219.502647374
0
LINE
5
230
100
AcDbEntity
8
bulkhead
6
ByLayer
62
256
370
-1
100
AcDbLine
10
13
20
219.502647374
11
13
21
221.510287049
0
LINE
5
231
100
AcDbEntity
8
bulkhead
6
ByLayer
62
256
370
-1
100
AcDbLine
10
13
20
221.510287049
11
21
21
220.810377741
0
LINE
5
232
100
AcDbEntity
8
bulkhead
6
ByLayer
62
256
370
-1
100
AcDbLine
10
21
20
220.810377741
11
21
21
218.802738066
0
LINE
5
233
100
AcDbEntity
8
bulkhead
6
ByLayer
62
256
370
-1
100
AcDbLine
10
21
20
218.802738066
11
29
21
218.102828758
0
LINE
5
234
100
AcDbEntity
8
bulkhead
6
ByLayer
62
256
370
-1
100
AcDbLine
10
29
20
218.102828758
11
29
21
220.110468433
0
LINE
5
235
100
AcDbEntity
8
bulkhead
6
ByLayer
62
256
370
-1
100
AcDbLine
10
29
20
220.110468433
11
37
21
219.410559125
0
LINE
5
236
100
AcDbEntity
8
bulkhead
6
ByLayer
62
256
370
-1
100
AcDbLine
10
37
20
219.410559125
11
37
21
217.40291945
0
LINE
5
237
100
AcDbEntity
8
bulkhead
6
ByLayer
62
256
370
-1
100
AcDbLine
10
37
20
217.40291945
11
45
21
216.703010141
0
LINE
5
238
100
AcDbEntity
8
bulkhead
6
ByLayer
62
256
370
-1
100
AcDbLine
10
45
20
216.703010141
11
53
21
217.40291945
0
LINE
5
239
100
AcDbEntity
8
bulkhead
6
ByLayer
62
256
370
-1
100
AcDbLine
10
53
20
217.40291945
11
53
21
219.410559125
0
LINE
5
23A
100
AcDbEntity
8
bulkhead
6
ByLayer
62
256
370
-1
100
AcDbLine
10
53
20
219.410559125
11
61
21
220.110468433
0
LINE
5
23B
100
AcDbEntity
8
bulkhead
6
ByLayer
62
256
370
-1
100
AcDbLine
10
61
20
220.110468433
11
61
21
218.102828758
0
LINE
5
23C
100
AcDbEntity
8
bulkhead
6
ByLayer
62
256
370
-1
100
AcDbLine
10
61
20
218.102828758
11
69
21
218.802738066
0
LINE
5
23D
100
AcDbEntity
8
bulkhead
6
ByLayer
62
256
370
-1
100
AcDbLine
10
69
20
218.802738066
11
69
21
220.810377741
0
LINE
5
23E
100
AcDbEntity
8
bulkhead
6
ByLayer
62
256
370
-1
100
AcDbLine
10
69
20
220.810377741
11
77
21
221.510287049
0
LINE
5
23F
100
AcDbEntity
8
bulkhead
6
ByLayer
62
256
370
-1
100
AcDbLine
10
77
20
221.510287049
11
77
21
219.502647374
0
LINE
5
240
100
AcDbEntity
8
bulkhead
6
ByLayer
62
256
370
-1
100
AcDbLine
10
77
20
219.502647374
11
88
21
220.465022673
0
LINE
5
241
100
AcDbEntity
8
bulkhead
6
ByLayer
62
256
370
-1
100
AcDbLine
10
2
20
138.245022673
11
13
21
137.282647374
0
LINE
5
242
100
AcDbEntity
8
bulkhead
6
ByLayer
62
256
370
-1
100
AcDbLine
10
13
20
137.282647374
11
13
21
139.290287049
0
LINE
5
243
100
AcDbEntity
8
bulkhead
6
ByLayer
62
256
370
-1
100
AcDbLine
10
13
20
139.290287049
11
21
21
138.590377741
0
LINE
5
244
100
AcDbEntity
8
bulkhead
6
ByLayer
62
256
370
-1
100
AcDbLine
10
21
20
138.590377741
11
21
21
136.582738066
0
LINE
5
245
100
AcDbEntity
8
bulkhead
6
ByLayer
62
256
370
-1
100
AcDbLine
10
21
20
136.582738066
11
29
21
135.882828758
0
LINE
5
246
100
AcDbEntity
8
bulkhead
6
ByLayer
62
256
370
-1
100
AcDbLine
10
29
20
135.882828758
11
29
21
137.890468433
0
LINE
5
247
100
AcDbEntity
8
bulkhead
6
ByLayer
62
256
370
-1
100
AcDbLine
10
29
20
137.890468433
11
37
21
137.190559125
0
LINE
5
248
100
AcDbEntity
8
bulkhead
6
ByLayer
62
256
370
-1
100
AcDbLine
10
37
20
137.190559125
11
37
21
135.18291945
0
LINE
5
249
100
AcDbEntity
8
bulkhead
6
ByLayer
62
256
370
-1
100
AcDbLine
10
37
20
135.18291945
11
45
21
134.483010141
0
LINE
5
24A
100
AcDbEntity
8
bulkhead
6
ByLayer
62
256
370
-1
100
AcDbLine
10
45
20
134.483010141
11
53
21
135.18291945
0
LINE
5
24B
100
AcDbEntity
8
bulkhead
6
ByLayer
62
256
370
-1
100
AcDbLine
10
53
20
135.18291945
11
53
21
137.190559125
0
LINE
5
24C
100
AcDbEntity
8
bulkhead
6
ByLayer
62
256
370
-1
100
AcDbLine
10
53
20
137.190559125
11
61
21
137.890468433
0
LINE
5
24D
100
AcDbEntity
8
bulkhead
6
ByLayer
62
256
370
-1
100
AcDbLine
10
61
20
137.890468433
11
61
21
135.882828758
0
LINE
5
24E
100
AcDbEntity
8
bulkhead
6
ByLayer
62
256
370
-1
100
AcDbLine
10
61
20
135.882828758
11
69
21
136.582738066
0
LINE
5
24F
100
AcDbEntity
8
bulkhead
6
ByLayer
62
256
370
-1
100
AcDbLine
10
69
20
136.582738066
11
69
21
138.590377741
0
LINE
5
250
100
AcDbEntity
8
bulkhead
6
ByLayer
62
256
370
-1
100
AcDbLine
10
69
20
138.590377741
11
77
21
139.290287049
0
LINE
5
251
100
AcDbEntity
8
bulkhead
6
ByLayer
62
256
370
-1
100
AcDbLine
10
77
20
139.290287049
11
77
21
137.282647374
0
LINE
5
252
100
AcDbEntity
8
bulkhead
6
ByLayer
62
256
370
-1
100
AcDbLine
10
77
20
137.282647374
11
88
21
138.245022673
0
LINE
5
253
100
AcDbEntity
8
top
6
ByLayer
62
256
370
-1
100
AcDbLine
10
300
20
177
11
302
21
177
0
LINE
5
254
100
AcDbEntity
8
top
6
ByLayer
62
256
370
-1
100
AcDbLine
10
302
20
177
11
302
21
169
0
LINE
5
255
100
AcDbEntity
8
top
6
ByLayer
62
256
370
-1
100
AcDbLine
10
302
20
169
11
300
21
169
0
LINE
5
256
100
AcDbEntity
8
top
6
ByLayer
62
256
370
-1
100
AcDbLine
10
302
20
161
11
300
21
161
0
LINE
5
257
100
AcDbEntity
8
top
6
ByLayer
62
256
370
-1
100
AcDbLine
10
300
20
153
11
302
21
153
0
LINE
5
258
100
AcDbEntity
8
top
6
ByLayer
62
256
370
-1
100
AcDbLine
10
302
20
153
11
302
21
161
0
LINE
5
259
100
AcDbEntity
8
top
6
ByLayer
62
256
370
-1
100
AcDbLine
10
302
20
137
11
300
21
137
0
LINE
5
25A
100
AcDbEntity
8
top
6
ByLayer
62
256
370
-1
100
AcDbLine
10
300
20
129
11
302
21
129
0
LINE
5
25B
100
AcDbEntity
8
top
6
ByLayer
62
256
370
-1
100
AcDbLine
10
302
20
129
11
302
21
137
0
LINE
5
25C
100
AcDbEntity
8
top
6
ByLayer
62
256
370
-1
100
AcDbLine
10
302
20
121
11
300
21
121
0
LINE
5
25D
100
AcDbEntity
8
top
6
ByLayer
62
256
370
-1
100
AcDbLine
10
300
20
113
11
302
21
113
0
LINE
5
25E
100
AcDbEntity
8
top
6
ByLayer
62
256
370
-1
100
AcDbLine
10
302
20
113
11
302
21
121
0
LINE
5
25F
100
AcDbEntity
8
top
6
ByLayer
62
256
370
-1
100
AcDbLine
10
448.206
20
113
11
450
21
113
0
LINE
5
260
100
AcDbEntity
8
top
6
ByLayer
62
256
370
-1
100
AcDbLine
10
450
20
121
11
448.206
21
121
0
LINE
5
261
100
AcDbEntity
8
top
6
ByLayer
62
256
370
-1
100
AcDbLine
10
448.206
20
121
11
448.206
21
113
0
LINE
5
262
100
AcDbEntity
8
top
6
ByLayer
62
256
370
-1
100
AcDbLine
10
450
20
137
11
448.206
21
137
0
LINE
5
263
100
AcDbEntity
8
top
6
ByLayer
62
256
370
-1
100
AcDbLine
10
448.206
20
137
11
448.206
21
129
0
LINE
5
264
100
AcDbEntity
8
top
6
ByLayer
62
256
370
-1
100
AcDbLine
10
448.206
20
129
11
450
21
129
0
LINE
5
265
100
AcDbEntity
8
top
6
ByLayer
62
256
370
-1
100
AcDbLine
10
450
20
169
11
448.206
21
169
0
LINE
5
266
100
AcDbEntity
8
top
6
ByLayer
62
256
370
-1
100
AcDbLine
10
448.206
20
169
11
448.206
21
177
0
LINE
5
267
100
AcDbEntity
8
top
6
ByLayer
62
256
370
-1
100
AcDbLine
10
448.206
20
177
11
450
21
177
0
LINE
5
268
100
AcDbEntity
8
top
6
ByLayer
62
256
370
-1
100
AcDbLine
10
450
20
161
11
448.206
21
161
0
LINE
5
269
100
AcDbEntity
8
top
6
ByLayer
62
256
370
-1
100
AcDbLine
10
448.206
20
161
11
448.206
21
153
0
LINE
5
26A
100
AcDbEntity
8
top
6
ByLayer
62
256
370
-1
100
AcDbLine
10
448.206
20
153
11
450
21
153
0
LINE
5
26B
100
AcDbEntity
8
top
6
ByLayer
62
256
370
-1
100
AcDbLine
10
300
20
169
11
300
21
161
0
LINE
5
26C
100
AcDbEntity
8
top
6
ByLayer
62
256
370
-1
100
AcDbLine
10
300
20
153
11
300
21
137
0
LINE
5
26D
100
AcDbEntity
8
top
6
ByLayer
62
256
370
-1
100
AcDbLine
10
300
20
129
11
300
21
121
0
LINE
5
26E
100
AcDbEntity
8
top
6
ByLayer
62
256
370
-1
100
AcDbLine
10
450
20
121
11
450
21
129
0
LINE
5
26F
100
AcDbEntity
8
top
6
ByLayer
62
256
370
-1
100
AcDbLine
10
450
20
145
11
450
21
153
0
LINE
5
270
100
AcDbEntity
8
top
6
ByLayer
62
256
370
-1
100
AcDbLine
10
450
20
161
11
450
21
169
0
LINE
5
271
100
AcDbEntity
8
top
6
ByLayer
62
256
370
-1
100
AcDbLine
10
450
20
145
11
450
21
137
0
LINE
5
272
100
AcDbEntity
8
top-help
6
ByLayer
62
256
370
-1
100
AcDbLine
10
300
20
77.1715728753
11
298.585786438
21
78.5857864376
0
LINE
5
273
100
AcDbEntity
8
top-help
6
ByLayer
62
256
370
-1
100
AcDbLine
10
268
20
48
11
269.414213562
21
46.5857864376
0
LINE
5
274
100
AcDbEntity
8
top-help
6
ByLayer
62
256
370
-1
100
AcDbLine
10
301.414213562
20
78.5857864376
11
269.414213562
21
46.5857864376
0
LINE
5
275
100
AcDbEntity
8
top-help
6
ByLayer
62
256
370
-1
100
AcDbLine
10
270
20
47.1715728753
11
268.585786438
21
48.5857864376
0
LINE
5
276
100
AcDbEntity
8
top-help
6
ByLayer
62
256
370
-1
100
AcDbLine
10
272.164213562
20
49.3357864376
11
270.75
21
50.75
0
LINE
5
277
100
AcDbEntity
8
top-help
6
ByLayer
62
256
370
-1
100
AcDbLine
10
270
20
47.1715728753
11
271.5
21
47.1715728753
0
LINE
5
278
100
AcDbEntity
8
bulkhead-help
6
ByLayer
62
256
370
-1
100
AcDbLine
10
2
20
47.17157
11
88
21
47.17157
0
LINE
5
279
100
AcDbEntity
8
bulkhead
6
ByLayer
62
256
370
-1
100
AcDbLine
10
2
20
47.17157
11
10
21
47.17157
0
LINE
5
27A
100
AcDbEntity
8
bulkhead
6
ByLayer
62
256
370
-1
100
AcDbLine
10
10
20
47.17157
11
10
21
50
0
LINE
5
27B
100
AcDbEntity
8
bulkhead
6
ByLayer
62
256
370
-1
100
AcDbLine
10
10
20
50
11
20
21
50
0
LINE
5
27C
100
AcDbEntity
8
bulkhead
6
ByLayer
62
256
370
-1
100
AcDbLine
10
20
20
50
11
20
21
47.17157
0
LINE
5
27D
100
AcDbEntity
8
bulkhead
6
ByLayer
62
256
370
-1
100
AcDbLine
10
20
20
47.17157
11
30
21
47.17157
0
LINE
5
27E
100
AcDbEntity
8
bulkhead
6
ByLayer
62
256
370
-1
100
AcDbLine
10
30
20
47.17157
11
30
21
50
0
LINE
5
27F
100
AcDbEntity
8
bulkhead
6
ByLayer
62
256
370
-1
100
AcDbLine
10
30
20
50
11
60
21
50
0
LINE
5
280
100
AcDbEntity
8
bulkhead
6
ByLayer
62
256
370
-1
100
AcDbLine
10
60
20
50
11
60
21
47.17157
0
LINE
5
281
100
AcDbEntity
8
bulkhead
6
ByLayer
62
256
370
-1
100
AcDbLine
10
60
20
47.17157
11
70
21
47.17157
0
LINE
5
282
100
AcDbEntity
8
bulkhead
6
ByLayer
62
256
370
-1
100
AcDbLine
10
70
20
47.17157
11
70
21
50
0
LINE
5
283
100
AcDbEntity
8
bulkhead
6
ByLayer
62
256
370
-1
100
AcDbLine
10
70
20
50
11
80
21
50
0
LINE
5
284
100
AcDbEntity
8
bulkhead
6
ByLayer
62
256
370
-1
100
AcDbLine
10
80
20
50
11
80
21
47.17157
0
LINE
5
285
100
AcDbEntity
8
bulkhead
6
ByLayer
62
256
370
-1
100
AcDbLine
10
80
20
47.17157
11
88
21
47.17157
0
LINE
5
286
100
AcDbEntity
8
top-help
6
ByLayer
62
256
370
-1
100
AcDbLine
10
200.828427
20
190
11
200.828427
21
100
0
LINE
5
287
100
AcDbEntity
8
top-help
6
ByLayer
62
256
370
-1
100
AcDbLine
10
200
20
102
11
243.2548
21
102
0
LINE
5
288
100
AcDbEntity
8
top-help
6
ByLayer
62
256
370
-1
100
AcDbLine
10
243.2548
20
188
11
200
21
188
0
LINE
5
289
100
AcDbEntity
8
top-help
6
ByLayer
62
256
370
-1
100
AcDbLine
10
275.071067812
20
55.0710678119
11
276.485281374
21
53.6568542495
0
LINE
5
28A
100
AcDbEntity
8
top-help
6
ByLayer
62
256
370
-1
100
AcDbLine
10
292.928932188
20
70.1005050634
11
291.514718626
21
71.5147186258
0
LINE
5
28B
100
AcDbEntity
8
top-help
6
ByLayer
62
256
370
-1
100
AcDbLine
10
210
20
190
11
210
21
100
0
LINE
5
28C
100
AcDbEntity
8
top-help
6
ByLayer
62
256
370
-1
100
AcDbLine
10
233.2548
20
100
11
233.2548
21
190
0
LINE
5
28D
100
AcDbEntity
8
top-help
6
ByLayer
62
256
370
-1
100
AcDbLine
10
223.2548
20
100
11
223.2548
21
190
0
LINE
5
28E
100
AcDbEntity
8
top-help
6
ByLayer
62
256
370
-1
100
AcDbLine
10
285.857864376
20
63.0294372515
11
284.443650814
21
64.4436508139
0
LINE
5
28F
100
AcDbEntity
8
top
6
ByLayer
62
256
370
-1
100
AcDbLine
10
210
20
100
11
210
21
102
0
LINE
5
290
100
AcDbEntity
8
top
6
ByLayer
62
256
370
-1
100
AcDbLine
10
210
20
102
11
223.2548
21
102
0
LINE
5
291
100
AcDbEntity
8
top
6
ByLayer
62
256
370
-1
100
AcDbLine
10
223.2548
20
102
11
223.2548
21
100
0
LINE
5
292
100
AcDbEntity
8
top
6
ByLayer
62
256
370
-1
100
AcDbLine
10
223.2548
20
100
11
233.2548
21
100
0
LINE
5
293
100
AcDbEntity
8
top
6
ByLayer
62
256
370
-1
100
AcDbLine
10
233.2548
20
100
11
233.2548
21
102
0
LINE
5
294
100
AcDbEntity
8
top
6
ByLayer
62
256
370
-1
100
AcDbLine
10
233.2548
20
102
11
243.2548
21
102
0
LINE
5
295
100
AcDbEntity
8
top
6
ByLayer
62
256
370
-1
100
AcDbLine
10
210
20
190
11
210
21
188
0
LINE
5
296
100
AcDbEntity
8
top
6
ByLayer
62
256
370
-1
100
AcDbLine
10
210
20
188
11
223.2548
21
188
0
LINE
5
297
100
AcDbEntity
8
top
6
ByLayer
62
256
370
-1
100
AcDbLine
10
223.2548
20
188
11
223.2548
21
190
0
LINE
5
298
100
AcDbEntity
8
top
6
ByLayer
62
256
370
-1
100
AcDbLine
10
223.2548
20
190
11
233.2548
21
190
0
LINE
5
299
100
AcDbEntity
8
top
6
ByLayer
62
256
370
-1
100
AcDbLine
10
233.2548
20
190
11
233.2548
21
188
0
LINE
5
29A
100
AcDbEntity
8
top
6
ByLayer
62
256
370
-1
100
AcDbLine
10
233.2548
20
188
11
243.2548
21
188
0
LINE
5
29B
100
AcDbEntity
8
top
6
ByLayer
62
256
370
-1
100
AcDbLine
10
243.2548
20
102
11
243.2548
21
188
0
LINE
5
29C
100
AcDbEntity
8
side
6
ByLayer
62
256
370
-1
100
AcDbLine
10
300
20
80
11
291.514718626
21
71.5147186258
0
LINE
5
29D
100
AcDbEntity
8
side
6
ByLayer
62
256
370
-1
100
AcDbLine
10
291.514718626
20
71.5147186258
11
292.928932188
21
70.1005050634
0
LINE
5
29E
100
AcDbEntity
8
side
6
ByLayer
62
256
370
-1
100
AcDbLine
10
292.928932188
20
70.1005050634
11
285.857864376
21
63.0294372515
0
LINE
5
29F
100
AcDbEntity
8
side
6
ByLayer
62
256
370
-1
100
AcDbLine
10
285.857864376
20
63.0294372515
11
284.443650814
21
64.4436508139
0
LINE
5
2A0
100
AcDbEntity
8
side
6
ByLayer
62
256
370
-1
100
AcDbLine
10
275.071067812
20
55.0710678119
11
276.485281374
21
53.6568542495
0
ARC
5
2A1
100
AcDbEntity
8
top
6
ByLayer
62
256
370
-1
100
AcDbCircle
10
216.88909
20
175
40
5
100
AcDbArc
50
90
51
180
0
LINE
5
2A2
100
AcDbEntity
8
top
6
ByLayer
62
256
370
-1
100
AcDbLine
10
230.2548
20
180
11
216.88909
21
180
0
ARC
5
2A3
100
AcDbEntity
8
top
6
ByLayer
62
256
370
-1
100
AcDbCircle
10
230.2548
20
175
40
5
100
AcDbArc
50
0
51
90
0
LINE
5
2A4
100
AcDbEntity
8
top
6
ByLayer
62
256
370
-1
100
AcDbLine
10
235.2548
20
115
11
235.2548
21
175
0
ARC
5
2A5
100
AcDbEntity
8
top
6
ByLayer
62
256
370
-1
100
AcDbCircle
10
230.2548
20
115
40
5
100
AcDbArc
50
270
51
0
0
LINE
5
2A6
100
AcDbEntity
8
top
6
ByLayer
62
256
370
-1
100
AcDbLine
10
211.88909
20
175
11
211.88909
21
115
0
LINE
5
2A7
100
AcDbEntity
8
top
6
ByLayer
62
256
370
-1
100
AcDbLine
10
216.88909
20
110
11
230.2548
21
110
0
ARC
5
2A8
100
AcDbEntity
8
top
6
ByLayer
62
256
370
-1
100
AcDbCircle
10
216.88909
20
115
40
5
100
AcDbArc
50
180
51
270
0
LINE
5
2A9
100
AcDbEntity
8
top-help
6
ByLayer
62
256
370
-1
100
AcDbLine
10
512
20
36.6598574477
11
450
21
69.8699849921
0
LINE
5
2AA
100
AcDbEntity
8
top-help
6
ByLayer
62
256
370
-1
100
AcDbLine
10
450.94435095
20
71.6329941477
11
450
21
69.8699849921
0
LINE
5
2AB
100
AcDbEntity
8
top-help
6
ByLayer
62
256
370
-1
100
AcDbLine
10
512
20
38.9287055631
11
511.05564905
21
37.1656964075
0
LINE
5
2AC
100
AcDbEntity
8
summary
6
ByLayer
62
256
370
-1
100
AcDbLine
10
510
20
40
11
450.118554785
21
72.0753295669
0
LINE
5
2AD
100
AcDbEntity
8
top-help
6
ByLayer
62
256
370
-1
100
AcDbLine
10
508
20
41.0712944369
11
508
21
20
0
LINE
5
2AE
100
AcDbEntity
8
bulkhead-help
6
ByLayer
62
256
370
-1
100
AcDbLine
10
88
20
277.73115
11
2
21
277.73115
0
LINE
5
2AF
100
AcDbEntity
8
bulkhead
6
ByLayer
62
256
370
-1
100
AcDbLine
10
2
20
277.73115
11
10
21
277.73115
0
LINE
5
2B0
100
AcDbEntity
8
bulkhead
6
ByLayer
62
256
370
-1
100
AcDbLine
10
10
20
277.73115
11
10
21
280
0
LINE
5
2B1
100
AcDbEntity
8
bulkhead
6
ByLayer
62
256
370
-1
100
AcDbLine
10
10
20
280
11
20
21
280
0
LINE
5
2B2
100
AcDbEntity
8
bulkhead
6
ByLayer
62
256
370
-1
100
AcDbLine
10
20
20
280
11
20
21
277.73115
0
LINE
5
2B3
100
AcDbEntity
8
bulkhead
6
ByLayer
62
256
370
-1
100
AcDbLine
10
20
20
277.73115
11
30
21
277.73115
0
LINE
5
2B4
100
AcDbEntity
8
bulkhead
6
ByLayer
62
256
370
-1
100
AcDbLine
10
30
20
277.73115
11
30
21
280
0
LINE
5
2B5
100
AcDbEntity
8
bulkhead
6
ByLayer
62
256
370
-1
100
AcDbLine
10
30
20
280
11
60
21
280
0
LINE
5
2B6
100
AcDbEntity
8
bulkhead
6
ByLayer
62
256
370
-1
100
AcDbLine
10
60
20
280
11
60
21
277.73115
0
LINE
5
2B7
100
AcDbEntity
8
bulkhead
6
ByLayer
62
256
370
-1
100
AcDbLine
10
60
20
277.73115
11
70
21
277.73115
0
LINE
5
2B8
100
AcDbEntity
8
bulkhead
6
ByLayer
62
256
370
-1
100
AcDbLine
10
70
20
277.73115
11
70
21
280
0
LINE
5
2B9
100
AcDbEntity
8
bulkhead
6
ByLayer
62
256
370
-1
100
AcDbLine
10
70
20
280
11
80
21
280
0
LINE
5
2BA
100
AcDbEntity
8
bulkhead
6
ByLayer
62
256
370
-1
100
AcDbLine
10
80
20
280
11
80
21
277.73115
0
LINE
5
2BB
100
AcDbEntity
8
bulkhead
6
ByLayer
62
256
370
-1
100
AcDbLine
10
80
20
277.73115
11
88
21
277.73115
0
LINE
5
2BC
100
AcDbEntity
8
bulkhead
6
ByLayer
62
256
370
-1
100
AcDbLine
10
2
20
277.73115
11
2
21
270
0
LINE
5
2BD
100
AcDbEntity
8
bulkhead
6
ByLayer
62
256
370
-1
100
AcDbLine
10
88
20
277.73115
11
88
21
270
0
LINE
5
2BE
100
AcDbEntity
8
top-help
6
ByLayer
62
256
370
-1
100
AcDbLine
10
200
20
180
11
569.263
21
180
0
LINE
5
2BF
100
AcDbEntity
8
top-help
6
ByLayer
62
256
370
-1
100
AcDbLine
10
200
20
170
11
569.263
21
170
0
LINE
5
2C0
100
AcDbEntity
8
top-help
6
ByLayer
62
256
370
-1
100
AcDbLine
10
200
20
160
11
569.263
21
160
0
LINE
5
2C1
100
AcDbEntity
8
top-help
6
ByLayer
62
256
370
-1
100
AcDbLine
10
200
20
130
11
569.263
21
130
0
LINE
5
2C2
100
AcDbEntity
8
top-help
6
ByLayer
62
256
370
-1
100
AcDbLine
10
200
20
120
11
569.263
21
120
0
LINE
5
2C3
100
AcDbEntity
8
top-help
6
ByLayer
62
256
370
-1
100
AcDbLine
10
200
20
110
11
569.263
21
110
0
LINE
5
2C4
100
AcDbEntity
8
top-help
6
ByLayer
62
256
370
-1
100
AcDbLine
10
508.445899359
20
40.8324496857
11
507.501548408
21
39.0694405302
0
LINE
5
2C5
100
AcDbEntity
8
top-help
6
ByLayer
62
256
370
-1
100
AcDbLine
10
568.06545
20
100
11
568.06545
21
190
0
LINE
5
2C6
100
AcDbEntity
8
top-help
6
ByLayer
62
256
370
-1
100
AcDbLine
10
565.23114
20
100
11
565.23114
21
190
0
LINE
5
2C7
100
AcDbEntity
8
top
6
ByLayer
62
256
370
-1
100
AcDbLine
10
565.23114
20
180
11
568.06545
21
180
0
LINE
5
2C8
100
AcDbEntity
8
top
6
ByLayer
62
256
370
-1
100
AcDbLine
10
568.06545
20
180
11
568.06545
21
170
0
LINE
5
2C9
100
AcDbEntity
8
top
6
ByLayer
62
256
370
-1
100
AcDbLine
10
568.06545
20
170
11
565.23114
21
170
0
LINE
5
2CA
100
AcDbEntity
8
top
6
ByLayer
62
256
370
-1
100
AcDbLine
10
565.23114
20
170
11
565.23114
21
180
0
LINE
5
2CB
100
AcDbEntity
8
top
6
ByLayer
62
256
370
-1
100
AcDbLine
10
565.23114
20
160
11
568.06545
21
160
0
LINE
5
2CC
100
AcDbEntity
8
top
6
ByLayer
62
256
370
-1
100
AcDbLine
10
568.06545
20
160
11
568.06545
21
130
0
LINE
5
2CD
100
AcDbEntity
8
top
6
ByLayer
62
256
370
-1
100
AcDbLine
10
568.06545
20
130
11
565.23114
21
130
0
LINE
5
2CE
100
AcDbEntity
8
top
6
ByLayer
62
256
370
-1
100
AcDbLine
10
565.23114
20
130
11
565.23114
21
160
0
LINE
5
2CF
100
AcDbEntity
8
top
6
ByLayer
62
256
370
-1
100
AcDbLine
10
565.23114
20
120
11
568.06545
21
120
0
LINE
5
2D0
100
AcDbEntity
8
top
6
ByLayer
62
256
370
-1
100
AcDbLine
10
568.06545
20
120
11
568.06545
21
110
0
LINE
5
2D1
100
AcDbEntity
8
top
6
ByLayer
62
256
370
-1
100
AcDbLine
10
568.06545
20
110
11
565.23114
21
110
0
LINE
5
2D2
100
AcDbEntity
8
top
6
ByLayer
62
256
370
-1
100
AcDbLine
10
565.23114
20
110
11
565.23114
21
120
0
LINE
5
2D3
100
AcDbEntity
8
top-help
6
ByLayer
62
256
370
-1
100
AcDbLine
10
459.759396728
20
66.9112393962
11
458.815045778
21
65.1482302406
0
LINE
5
2D4
100
AcDbEntity
8
top-help
6
ByLayer
62
256
370
-1
100
AcDbLine
10
468.574442506
20
62.1894846447
11
467.630091556
21
60.4264754891
0
LINE
5
2D5
100
AcDbEntity
8
top-help
6
ByLayer
62
256
370
-1
100
AcDbLine
10
477.389488284
20
57.4677298932
11
476.445137334
21
55.7047207376
0
LINE
5
2D6
100
AcDbEntity
8
top-help
6
ByLayer
62
256
370
-1
100
AcDbLine
10
486.204534062
20
52.7459751417
11
485.260183112
21
50.9829659861
0
LINE
5
2D7
100
AcDbEntity
8
top-help
6
ByLayer
62
256
370
-1
100
AcDbLine
10
495.01957984
20
48.0242203901
11
494.07522889
21
46.2612112346
0
LINE
5
2D8
100
AcDbEntity
8
top-help
6
ByLayer
62
256
370
-1
100
AcDbLine
10
503.834625618
20
43.3024656386
11
502.890274667
21
41.539456483
0
LINE
5
2D9
100
AcDbEntity
8
top-help
6
ByLayer
62
256
370
-1
100
AcDbLine
10
510
20
190
11
510
21
100
0
LINE
5
2DA
100
AcDbEntity
8
top-help
6
ByLayer
62
256
370
-1
100
AcDbLine
10
520
20
190
11
520
21
100
0
LINE
5
2DB
100
AcDbEntity
8
top-help
6
ByLayer
62
256
370
-1
100
AcDbLine
10
530
20
190
11
530
21
100
0
LINE
5
2DC
100
AcDbEntity
8
top-help
6
ByLayer
62
256
370
-1
100
AcDbLine
10
540
20
190
11
540
21
100
0
LINE
5
2DD
100
AcDbEntity
8
top-help
6
ByLayer
62
256
370
-1
100
AcDbLine
10
550
20
190
11
550
21
100
0
LINE
5
2DE
100
AcDbEntity
8
top-help
6
ByLayer
62
256
370
-1
100
AcDbLine
10
560
20
190
11
560
21
100
0
LINE
5
2DF
100
AcDbEntity
8
top-help
6
ByLayer
62
256
370
-1
100
AcDbLine
10
500
20
102
11
569.263
21
102
0
LINE
5
2E0
100
AcDbEntity
8
top-help
6
ByLayer
62
256
370
-1
100
AcDbLine
10
569.263
20
188
11
500
21
188
0
LINE
5
2E1
100
AcDbEntity
8
side
6
ByLayer
62
256
370
-1
100
AcDbLine
10
450
20
72.1388331075
11
459.759396728
21
66.9112393962
0
LINE
5
2E2
100
AcDbEntity
8
side
6
ByLayer
62
256
370
-1
100
AcDbLine
10
459.759396728
20
66.9112393962
11
458.815045778
21
65.1482302406
0
LINE
5
2E3
100
AcDbEntity
8
side
6
ByLayer
62
256
370
-1
100
AcDbLine
10
458.815045778
20
65.1482302406
11
467.630091556
21
60.4264754891
0
LINE
5
2E4
100
AcDbEntity
8
side
6
ByLayer
62
256
370
-1
100
AcDbLine
10
467.630091556
20
60.4264754891
11
468.574442506
21
62.1894846447
0
LINE
5
2E5
100
AcDbEntity
8
side
6
ByLayer
62
256
370
-1
100
AcDbLine
10
468.574442506
20
62.1894846447
11
477.389488284
21
57.4677298932
0
LINE
5
2E6
100
AcDbEntity
8
side
6
ByLayer
62
256
370
-1
100
AcDbLine
10
477.389488284
20
57.4677298932
11
476.445137334
21
55.7047207376
0
LINE
5
2E7
100
AcDbEntity
8
side
6
ByLayer
62
256
370
-1
100
AcDbLine
10
476.445137334
20
55.7047207376
11
485.260183112
21
50.9829659861
0
LINE
5
2E8
100
AcDbEntity
8
side
6
ByLayer
62
256
370
-1
100
AcDbLine
10
485.260183112
20
50.9829659861
11
486.204534062
21
52.7459751417
0
LINE
5
2E9
100
AcDbEntity
8
side
6
ByLayer
62
256
370
-1
100
AcDbLine
10
486.204534062
20
52.7459751417
11
495.01957984
21
48.0242203901
0
LINE
5
2EA
100
AcDbEntity
8
side
6
ByLayer
62
256
370
-1
100
AcDbLine
10
495.01957984
20
48.0242203901
11
494.07522889
21
46.2612112346
0
LINE
5
2EB
100
AcDbEntity
8
side
6
ByLayer
62
256
370
-1
100
AcDbLine
10
494.07522889
20
46.2612112346
11
502.890274667
21
41.539456483
0
LINE
5
2EC
100
AcDbEntity
8
side
6
ByLayer
62
256
370
-1
100
AcDbLine
10
502.890274667
20
41.539456483
11
503.834625618
21
43.3024656386
0
LINE
5
2ED
100
AcDbEntity
8
side
6
ByLayer
62
256
370
-1
100
AcDbLine
10
503.834625618
20
43.3024656386
11
512
21
38.9287055631
0
LINE
5
2EE
100
AcDbEntity
8
top
6
ByLayer
62
256
370
-1
100
AcDbLine
10
500
20
102
11
510
21
102
0
LINE
5
2EF
100
AcDbEntity
8
top
6
ByLayer
62
256
370
-1
100
AcDbLine
10
510
20
102
11
510
21
100
0
LINE
5
2F0
100
AcDbEntity
8
top
6
ByLayer
62
256
370
-1
100
AcDbLine
10
510
20
100
11
520
21
100
0
LINE
5
2F1
100
AcDbEntity
8
top
6
ByLayer
62
256
370
-1
100
AcDbLine
10
520
20
100
11
520
21
102
0
LINE
5
2F2
100
AcDbEntity
8
top
6
ByLayer
62
256
370
-1
100
AcDbLine
10
520
20
102
11
530
21
102
0
LINE
5
2F3
100
AcDbEntity
8
top
6
ByLayer
62
256
370
-1
100
AcDbLine
10
530
20
102
11
530
21
100
0
LINE
5
2F4
100
AcDbEntity
8
top
6
ByLayer
62
256
370
-1
100
AcDbLine
10
530
20
100
11
540
21
100
0
LINE
5
2F5
100
AcDbEntity
8
top
6
ByLayer
62
256
370
-1
100
AcDbLine
10
540
20
100
11
540
21
102
0
LINE
5
2F6
100
AcDbEntity
8
top
6
ByLayer
62
256
370
-1
100
AcDbLine
10
540
20
102
11
550
21
102
0
LINE
5
2F7
100
AcDbEntity
8
top
6
ByLayer
62
256
370
-1
100
AcDbLine
10
550
20
102
11
550
21
100
0
LINE
5
2F8
100
AcDbEntity
8
top
6
ByLayer
62
256
370
-1
100
AcDbLine
10
550
20
100
11
560
21
100
0
LINE
5
2F9
100
AcDbEntity
8
top
6
ByLayer
62
256
370
-1
100
AcDbLine
10
560
20
100
11
560
21
102
0
LINE
5
2FA
100
AcDbEntity
8
top
6
ByLayer
62
256
370
-1
100
AcDbLine
10
560
20
102
11
569.263
21
102
0
LINE
5
2FB
100
AcDbEntity
8
top
6
ByLayer
62
256
370
-1
100
AcDbLine
10
500
20
188
11
510
21
188
0
LINE
5
2FC
100
AcDbEntity
8
top
6
ByLayer
62
256
370
-1
100
AcDbLine
10
510
20
188
11
510
21
190
0
LINE
5
2FD
100
AcDbEntity
8
top
6
ByLayer
62
256
370
-1
100
AcDbLine
10
510
20
190
11
520
21
190
0
LINE
5
2FE
100
AcDbEntity
8
top
6
ByLayer
62
256
370
-1
100
AcDbLine
10
520
20
190
11
520
21
188
0
LINE
5
2FF
100
AcDbEntity
8
top
6
ByLayer
62
256
370
-1
100
AcDbLine
10
520
20
188
11
530
21
188
0
LINE
5
300
100
AcDbEntity
8
top
6
ByLayer
62
256
370
-1
100
AcDbLine
10
530
20
188
11
530
21
190
0
LINE
5
301
100
AcDbEntity
8
top
6
ByLayer
62
256
370
-1
100
AcDbLine
10
530
20
190
11
540
21
190
0
LINE
5
302
100
AcDbEntity
8
top
6
ByLayer
62
256
370
-1
100
AcDbLine
10
540
20
190
11
540
21
188
0
LINE
5
303
100
AcDbEntity
8
top
6
ByLayer
62
256
370
-1
100
AcDbLine
10
540
20
188
11
550
21
188
0
LINE
5
304
100
AcDbEntity
8
top
6
ByLayer
62
256
370
-1
100
AcDbLine
10
550
20
188
11
550
21
190
0
LINE
5
305
100
AcDbEntity
8
top
6
ByLayer
62
256
370
-1
100
AcDbLine
10
550
20
190
11
560
21
190
0
LINE
5
306
100
AcDbEntity
8
top
6
ByLayer
62
256
370
-1
100
AcDbLine
10
560
20
190
11
560
21
188
0
LINE
5
307
100
AcDbEntity
8
top
6
ByLayer
62
256
370
-1
100
AcDbLine
10
560
20
188
11
569.263
21
188
0
LINE
5
308
100
AcDbEntity
8
top
6
ByLayer
62
256
370
-1
100
AcDbLine
10
569.263
20
102
11
569.263
21
188
0
LINE
5
309
100
AcDbEntity
8
top
6
ByLayer
62
256
370
-1
100
AcDbLine
10
500
20
188
11
500
21
102
0
LINE
5
30A
100
AcDbEntity
8
summary
6
ByLayer
62
256
370
-1
100
AcDbLine
10
300
20
80
11
270
21
50
0
LINE
5
30B
100
AcDbEntity
8
summary
6
ByLayer
62
256
370
-1
100
AcDbLine
10
270
20
0
11
270
21
50
0
LINE
5
30C
100
AcDbEntity
8
top-help
6
ByLayer
62
256
370
-1
100
AcDbLine
10
557.23114
20
100
11
557.23114
21
190
0
LINE
5
30D
100
AcDbEntity
8
top-help
6
ByLayer
62
256
370
-1
100
AcDbLine
10
508
20
188
11
508
21
102
0
ARC
5
30E
100
AcDbEntity
8
top
6
ByLayer
62
256
370
-1
100
AcDbCircle
10
513
20
175
40
5
100
AcDbArc
50
90
51
180
0
ARC
5
30F
100
AcDbEntity
8
top
6
ByLayer
62
256
370
-1
100
AcDbCircle
10
552.23114
20
175
40
5
100
AcDbArc
50
0
51
90
0
ARC
5
310
100
AcDbEntity
8
top
6
ByLayer
62
256
370
-1
100
AcDbCircle
10
552.23114
20
115
40
5
100
AcDbArc
50
270
51
0
0
ARC
5
311
100
AcDbEntity
8
top
6
ByLayer
62
256
370
-1
100
AcDbCircle
10
513
20
115
40
5
100
AcDbArc
50
180
51
270
0
LINE
5
312
100
AcDbEntity
8
top
6
ByLayer
62
256
370
-1
100
AcDbLine
10
508
20
175
11
508
21
115
0
LINE
5
313
100
AcDbEntity
8
top
6
ByLayer
62
256
370
-1
100
AcDbLine
10
513
20
110
11
552.23114
21
110
0
LINE
5
314
100
AcDbEntity
8
top
6
ByLayer
62
256
370
-1
100
AcDbLine
10
557.23114
20
115
11
557.23114
21
175
0
LINE
5
315
100
AcDbEntity
8
top
6
ByLayer
62
256
370
-1
100
AcDbLine
10
552.23114
20
180
11
513
21
180
0
LINE
5
316
100
AcDbEntity
8
side
6
ByLayer
62
256
370
-1
100
AcDbLine
10
276.485281374
20
53.6568542495
11
270
21
47.1715728756
0
LINE
5
317
100
AcDbEntity
8
side-help
6
ByLayer
62
256
370
-1
100
AcDbLine
10
268.585786438
20
48.5857864378
11
270
21
47.1715728756
0
LINE
5
318
100
AcDbEntity
8
side-help
6
ByLayer
62
256
370
-1
100
AcDbLine
10
270
20
50
11
271.414213562
21
48.5857864378
0
LINE
5
319
100
AcDbEntity
8
top
6
ByLayer
62
256
370
-1
100
AcDbLine
10
202.8284
20
100
11
210
21
100
0
LINE
5
31A
100
AcDbEntity
8
top
6
ByLayer
62
256
370
-1
100
AcDbLine
10
202.8284
20
100
11
210
21
100
0
LINE
5
31B
100
AcDbEntity
8
top
6
ByLayer
62
256
370
-1
100
AcDbLine
10
202.8284
20
190
11
210
21
190
0
LINE
5
31C
100
AcDbEntity
8
bottom-help
6
ByLayer
62
256
370
-1
100
AcDbLine
10
270
20
-12
11
270
21
-100
0
LINE
5
31D
100
AcDbEntity
8
bottom-help
6
ByLayer
62
256
370
-1
100
AcDbLine
10
285
20
-12
11
285
21
-100
0
LINE
5
31E
100
AcDbEntity
8
bottom-help
6
ByLayer
62
256
370
-1
100
AcDbLine
10
270
20
-55
11
516.5
21
-55
0
LINE
5
31F
100
AcDbEntity
8
bottom-help
6
ByLayer
62
256
370
-1
100
AcDbLine
10
335
20
-12
11
335
21
-100
0
LINE
5
320
100
AcDbEntity
8
bottom-help
6
ByLayer
62
256
370
-1
100
AcDbLine
10
385
20
-12
11
385
21
-100
0
LINE
5
321
100
AcDbEntity
8
bottom-help
6
ByLayer
62
256
370
-1
100
AcDbLine
10
435
20
-12
11
435
21
-100
0
LINE
5
322
100
AcDbEntity
8
bottom-help
6
ByLayer
62
256
370
-1
100
AcDbLine
10
485
20
-12
11
485
21
-100
0
CIRCLE
5
323
100
AcDbEntity
8
bottom
6
ByLayer
62
256
370
-1
100
AcDbCircle
10
485
20
-55
40
1.7
0
CIRCLE
5
324
100
AcDbEntity
8
bottom
6
ByLayer
62
256
370
-1
100
AcDbCircle
10
435
20
-55
40
1.7
0
CIRCLE
5
325
100
AcDbEntity
8
bottom
6
ByLayer
62
256
370
-1
100
AcDbCircle
10
385
20
-55
40
1.7
0
CIRCLE
5
326
100
AcDbEntity
8
bottom
6
ByLayer
62
256
370
-1
100
AcDbCircle
10
335
20
-55
40
1.7
0
CIRCLE
5
327
100
AcDbEntity
8
bottom
6
ByLayer
62
256
370
-1
100
AcDbCircle
10
285
20
-55
40
1.7
0
LINE
5
328
100
AcDbEntity
8
bottom
6
ByLayer
62
256
370
-1
100
AcDbLine
10
310.969999282
20
-40
11
310.969999282
21
-70
0
ARC
5
329
100
AcDbEntity
8
bottom
6
ByLayer
62
256
370
-1
100
AcDbCircle
10
315.969999282
20
-30
40
5
100
AcDbArc
50
90
51
180
0
ARC
5
32A
100
AcDbEntity
8
bottom
6
ByLayer
62
256
370
-1
100
AcDbCircle
10
321
20
-30
40
5
100
AcDbArc
50
0
51
90
0
ARC
5
32B
100
AcDbEntity
8
bottom
6
ByLayer
62
256
370
-1
100
AcDbCircle
10
321
20
-80
40
5
100
AcDbArc
50
270
51
0
0
ARC
5
32C
100
AcDbEntity
8
bottom
6
ByLayer
62
256
370
-1
100
AcDbCircle
10
315.969999282
20
-80
40
5
100
AcDbArc
50
180
51
270
0
ARC
5
32D
100
AcDbEntity
8
bottom
6
ByLayer
62
256
370
-1
100
AcDbCircle
10
349
20
-30
40
5
100
AcDbArc
50
90
51
180
0
LINE
5
32E
100
AcDbEntity
8
bottom
6
ByLayer
62
256
370
-1
100
AcDbLine
10
349
20
-25
11
421
21
-25
0
ARC
5
32F
100
AcDbEntity
8
bottom
6
ByLayer
62
256
370
-1
100
AcDbCircle
10
421
20
-30
40
5
100
AcDbArc
50
0
51
90
0
LINE
5
330
100
AcDbEntity
8
bottom
6
ByLayer
62
256
370
-1
100
AcDbLine
10
426
20
-30
11
426
21
-80
0
ARC
5
331
100
AcDbEntity
8
bottom
6
ByLayer
62
256
370
-1
100
AcDbCircle
10
421
20
-80
40
5
100
AcDbArc
50
270
51
0
0
LINE
5
332
100
AcDbEntity
8
bottom
6
ByLayer
62
256
370
-1
100
AcDbLine
10
349
20
-85
11
421
21
-85
0
LINE
5
333
100
AcDbEntity
8
bottom
6
ByLayer
62
256
370
-1
100
AcDbLine
10
344
20
-30
11
344
21
-80
0
ARC
5
334
100
AcDbEntity
8
bottom
6
ByLayer
62
256
370
-1
100
AcDbCircle
10
349
20
-80
40
5
100
AcDbArc
50
180
51
270
0
LINE
5
335
100
AcDbEntity
8
bottom
6
ByLayer
62
256
370
-1
100
AcDbLine
10
315.969999282
20
-25
11
321
21
-25
0
LINE
5
336
100
AcDbEntity
8
bottom
6
ByLayer
62
256
370
-1
100
AcDbLine
10
310.969999282
20
-30
11
310.969999282
21
-40
0
LINE
5
337
100
AcDbEntity
8
bottom
6
ByLayer
62
256
370
-1
100
AcDbLine
10
310.969999282
20
-70
11
310.969999282
21
-80
0
LINE
5
338
100
AcDbEntity
8
bottom
6
ByLayer
62
256
370
-1
100
AcDbLine
10
315.969999282
20
-85
11
321
21
-85
0
LINE
5
339
100
AcDbEntity
8
bottom
6
ByLayer
62
256
370
-1
100
AcDbLine
10
326
20
-80
11
326
21
-30
0
LINE
5
33A
100
AcDbEntity
8
bottom
6
ByLayer
62
256
370
-1
100
AcDbLine
10
481.5
20
-100
11
481.5
21
-98
0
LINE
5
33B
100
AcDbEntity
8
bottom
6
ByLayer
62
256
370
-1
100
AcDbLine
10
446.5
20
-98
11
411.5
21
-98
0
LINE
5
33C
100
AcDbEntity
8
bottom
6
ByLayer
62
256
370
-1
100
AcDbLine
10
411.5
20
-98
11
411.5
21
-100
0
LINE
5
33D
100
AcDbEntity
8
bottom
6
ByLayer
62
256
370
-1
100
AcDbLine
10
446.5
20
-100
11
446.5
21
-98
0
LINE
5
33E
100
AcDbEntity
8
bottom
6
ByLayer
62
256
370
-1
100
AcDbLine
10
376.5
20
-98
11
341.5
21
-98
0
LINE
5
33F
100
AcDbEntity
8
bottom
6
ByLayer
62
256
370
-1
100
AcDbLine
10
341.5
20
-98
11
341.5
21
-100
0
LINE
5
340
100
AcDbEntity
8
bottom
6
ByLayer
62
256
370
-1
100
AcDbLine
10
376.5
20
-100
11
376.5
21
-98
0
LINE
5
341
100
AcDbEntity
8
bottom
6
ByLayer
62
256
370
-1
100
AcDbLine
10
306.5
20
-100
11
306.5
21
-98
0
LINE
5
342
100
AcDbEntity
8
bottom
6
ByLayer
62
256
370
-1
100
AcDbLine
10
306.5
20
-12
11
306.5
21
-10
0
LINE
5
343
100
AcDbEntity
8
bottom
6
ByLayer
62
256
370
-1
100
AcDbLine
10
341.5
20
-12
11
376.5
21
-12
0
LINE
5
344
100
AcDbEntity
8
bottom
6
ByLayer
62
256
370
-1
100
AcDbLine
10
376.5
20
-12
11
376.5
21
-10
0
LINE
5
345
100
AcDbEntity
8
bottom
6
ByLayer
62
256
370
-1
100
AcDbLine
10
341.5
20
-10
11
341.5
21
-12
0
LINE
5
346
100
AcDbEntity
8
bottom
6
ByLayer
62
256
370
-1
100
AcDbLine
10
411.5
20
-12
11
446.5
21
-12
0
LINE
5
347
100
AcDbEntity
8
bottom
6
ByLayer
62
256
370
-1
100
AcDbLine
10
446.5
20
-12
11
446.5
21
-10
0
LINE
5
348
100
AcDbEntity
8
bottom
6
ByLayer
62
256
370
-1
100
AcDbLine
10
411.5
20
-10
11
411.5
21
-12
0
LINE
5
349
100
AcDbEntity
8
bottom
6
ByLayer
62
256
370
-1
100
AcDbLine
10
481.5
20
-10
11
481.5
21
-12
0
LINE
5
34A
100
AcDbEntity
8
bottom
6
ByLayer
62
256
370
-1
100
AcDbLine
10
512
20
-12
11
512
21
-98
0
LINE
5
34B
100
AcDbEntity
8
bottom
6
ByLayer
62
256
370
-1
100
AcDbLine
10
512
20
-10
11
512
21
-12
0
LINE
5
34C
100
AcDbEntity
8
bottom
6
ByLayer
62
256
370
-1
100
AcDbLine
10
512
20
-98
11
512
21
-100
0
LINE
5
34D
100
AcDbEntity
8
bulkhead
6
ByLayer
62
256
370
-1
100
AcDbLine
10
27.7663120604
20
17
11
27.6794919243
21
17
0
CIRCLE
5
34E
100
AcDbEntity
8
bulkhead
6
ByLayer
62
256
370
-1
100
AcDbCircle
10
45
20
12.5
40
10.5
0
CIRCLE
5
34F
100
AcDbEntity
8
bulkhead
6
ByLayer
62
256
370
-1
100
AcDbCircle
10
45
20
72.5
40
10.5
0
CIRCLE
5
350
100
AcDbEntity
8
bulkhead
6
ByLayer
62
256
370
-1
100
AcDbCircle
10
45
20
162.5
40
10.5
0
CIRCLE
5
351
100
AcDbEntity
8
bulkhead
6
ByLayer
62
256
370
-1
100
AcDbCircle
10
45
20
252.5
40
10.5
0
ARC
5
352
100
AcDbEntity
8
bulkhead
6
ByLayer
62
256
370
-1
100
AcDbCircle
10
63.1659021246
20
262
40
5
100
AcDbArc
50
207.607668059
51
270
0
ARC
5
353
100
AcDbEntity
8
bulkhead
6
ByLayer
62
256
370
-1
100
AcDbCircle
10
26.8340978754
20
262
40
5
100
AcDbArc
50
270
51
332.392331941
0
ARC
5
354
100
AcDbEntity
8
bulkhead
6
ByLayer
62
256
370
-1
100
AcDbCircle
10
26.8340978754
20
172
40
5
100
AcDbArc
50
270
51
332.392331941
0
ARC
5
355
100
AcDbEntity
8
bulkhead
6
ByLayer
62
256
370
-1
100
AcDbCircle
10
63.1659021246
20
172
40
5
100
AcDbArc
50
207.607668059
51
270
0
ARC
5
356
100
AcDbEntity
8
bulkhead
6
ByLayer
62
256
370
-1
100
AcDbCircle
10
26.8340978754
20
82
40
5
100
AcDbArc
50
270
51
332.392331941
0
ARC
5
357
100
AcDbEntity
8
bulkhead
6
ByLayer
62
256
370
-1
100
AcDbCircle
10
63.1659021246
20
82
40
5
100
AcDbArc
50
207.607668059
51
270
0
ARC
5
358
100
AcDbEntity
8
bulkhead
6
ByLayer
62
256
370
-1
100
AcDbCircle
10
26.8340978754
20
22
40
5
100
AcDbArc
50
270
51
332.392331941
0
ARC
5
359
100
AcDbEntity
8
bulkhead
6
ByLayer
62
256
370
-1
100
AcDbCircle
10
63.1659021246
20
22
40
5
100
AcDbArc
50
207.607668059
51
270
0
LINE
5
35A
100
AcDbEntity
8
bulkhead
6
ByLayer
62
256
370
-1
100
AcDbLine
10
26.8340978754
20
17
11
22
21
17
0
ARC
5
35B
100
AcDbEntity
8
bulkhead
6
ByLayer
62
256
370
-1
100
AcDbCircle
10
45
20
12.5
40
15.5
100
AcDbArc
50
27.6076748045
51
152.392331941
0
LINE
5
35C
100
AcDbEntity
8
bulkhead
6
ByLayer
62
256
370
-1
100
AcDbLine
10
68
20
17
11
63.1659021246
21
17
0
LINE
5
35D
100
AcDbEntity
8
bulkhead
6
ByLayer
62
256
370
-1
100
AcDbLine
10
68
20
77
11
63.1659039087
21
77
0
ARC
5
35E
100
AcDbEntity
8
bulkhead
6
ByLayer
62
256
370
-1
100
AcDbCircle
10
45
20
72.5
40
15.5
100
AcDbArc
50
27.6076778037
51
152.392327963
0
LINE
5
35F
100
AcDbEntity
8
bulkhead
6
ByLayer
62
256
370
-1
100
AcDbLine
10
26.8340972011
20
77
11
22
21
77
0
LINE
5
360
100
AcDbEntity
8
bulkhead
6
ByLayer
62
256
370
-1
100
AcDbLine
10
68
20
167
11
63.1659040319
21
167
0
LINE
5
361
100
AcDbEntity
8
bulkhead
6
ByLayer
62
256
370
-1
100
AcDbLine
10
26.8340957698
20
167
11
22
21
167
0
ARC
5
362
100
AcDbEntity
8
bulkhead
6
ByLayer
62
256
370
-1
100
AcDbCircle
10
45
20
162.5
40
15.5
100
AcDbArc
50
27.6077336695
51
152.392316028
0
LINE
5
363
100
AcDbEntity
8
bulkhead
6
ByLayer
62
256
370
-1
100
AcDbLine
10
68
20
257
11
63.1659042571
21
257
0
LINE
5
364
100
AcDbEntity
8
bulkhead
6
ByLayer
62
256
370
-1
100
AcDbLine
10
22
20
257
11
26.8340942912
21
257
0
ARC
5
365
100
AcDbEntity
8
bulkhead
6
ByLayer
62
256
370
-1
100
AcDbCircle
10
45
20
252.5
40
15.5
100
AcDbArc
50
27.6078925377
51
152.392191402
0
LINE
5
366
100
AcDbEntity
8
side
6
ByLayer
62
256
370
-1
100
AcDbLine
10
268.585786438
20
48.5857864378
11
270
21
47.1715728756
0
LINE
5
367
100
AcDbEntity
8
side
6
ByLayer
62
256
370
-1
100
AcDbLine
10
275.071067812
20
55.0710678119
11
284.443650814
21
64.4436508139
0
LINE
5
368
100
AcDbEntity
8
side-help
6
ByLayer
62
256
370
-1
100
AcDbLine
10
270
20
49.9999999999
11
270
21
1.5
0
LINE
5
369
100
AcDbEntity
8
side-help
6
ByLayer
62
256
370
-1
100
AcDbLine
10
272
20
40
11
272
21
51.9999999999
0
LINE
5
36A
100
AcDbEntity
8
top-help
6
ByLayer
62
256
370
-1
100
AcDbLine
10
200.82843
20
190
11
200.82843
21
100
0
LINE
5
36B
100
AcDbEntity
8
top-help
6
ByLayer
62
256
370
-1
100
AcDbLine
10
200.82843
20
190
11
200.82843
21
100
0
LINE
5
36C
100
AcDbEntity
8
top-help
6
ByLayer
62
256
370
-1
100
AcDbLine
10
200.82843
20
190
11
200.82843
21
100
0
LINE
5
36D
100
AcDbEntity
8
top
6
ByLayer
62
256
370
-1
100
AcDbLine
10
200.82843
20
100
11
200.82843
21
102
0
LINE
5
36E
100
AcDbEntity
8
top
6
ByLayer
62
256
370
-1
100
AcDbLine
10
200.828427
20
102
11
200.82843
21
102
0
LINE
5
36F
100
AcDbEntity
8
top
6
ByLayer
62
256
370
-1
100
AcDbLine
10
200.828427
20
100
11
202.8284
21
100
0
LINE
5
370
100
AcDbEntity
8
top
6
ByLayer
62
256
370
-1
100
AcDbLine
10
200.82843
20
188
11
200.82843
21
190
0
LINE
5
371
100
AcDbEntity
8
top
6
ByLayer
62
256
370
-1
100
AcDbLine
10
200.82843
20
190
11
202.8284
21
190
0
LINE
5
372
100
AcDbEntity
8
top-help
6
ByLayer
62
256
370
-1
100
AcDbLine
10
272.414213562
20
49.5857864377
11
271
21
51.0000000001
0
LINE
5
373
100
AcDbEntity
8
top-help
6
ByLayer
62
256
370
-1
100
AcDbLine
10
204.24264
20
190
11
204.24264
21
100
0
LINE
5
374
100
AcDbEntity
8
top
6
ByLayer
62
256
370
-1
100
AcDbLine
10
200.82843
20
180
11
204.24264
21
180
0
LINE
5
375
100
AcDbEntity
8
top
6
ByLayer
62
256
370
-1
100
AcDbLine
10
204.24264
20
180
11
204.24264
21
170
0
LINE
5
376
100
AcDbEntity
8
top
6
ByLayer
62
256
370
-1
100
AcDbLine
10
204.24264
20
170
11
200.82843
21
170
0
LINE
5
377
100
AcDbEntity
8
top
6
ByLayer
62
256
370
-1
100
AcDbLine
10
200.82843
20
170
11
200.82843
21
180
0
LINE
5
378
100
AcDbEntity
8
top
6
ByLayer
62
256
370
-1
100
AcDbLine
10
200.82843
20
160
11
204.24264
21
160
0
LINE
5
379
100
AcDbEntity
8
top
6
ByLayer
62
256
370
-1
100
AcDbLine
10
204.24264
20
160
11
204.24264
21
130
0
LINE
5
37A
100
AcDbEntity
8
top
6
ByLayer
62
256
370
-1
100
AcDbLine
10
204.24264
20
130
11
200.82843
21
130
0
LINE
5
37B
100
AcDbEntity
8
top
6
ByLayer
62
256
370
-1
100
AcDbLine
10
200.82843
20
130
11
200.82843
21
160
0
LINE
5
37C
100
AcDbEntity
8
top
6
ByLayer
62
256
370
-1
100
AcDbLine
10
200.82843
20
120
11
204.24264
21
120
0
LINE
5
37D
100
AcDbEntity
8
top
6
ByLayer
62
256
370
-1
100
AcDbLine
10
204.24264
20
120
11
204.24264
21
110
0
LINE
5
37E
100
AcDbEntity
8
top
6
ByLayer
62
256
370
-1
100
AcDbLine
10
204.24264
20
110
11
200.82843
21
110
0
LINE
5
37F
100
AcDbEntity
8
top
6
ByLayer
62
256
370
-1
100
AcDbLine
10
200.82843
20
110
11
200.82843
21
120
0
LINE
5
380
100
AcDbEntity
8
bulkhead-help
6
ByLayer
62
256
370
-1
100
AcDbLine
10
270
20
20
11
306.5
21
20
0
LINE
5
381
100
AcDbEntity
8
bulkhead-help
6
ByLayer
62
256
370
-1
100
AcDbLine
10
270
20
40
11
306.5
21
40
0
LINE
5
382
100
AcDbEntity
8
bulkhead-help
6
ByLayer
62
256
370
-1
100
AcDbLine
10
272
20
40
11
272
21
10
0
LINE
5
383
100
AcDbEntity
8
bulkhead-help
6
ByLayer
62
256
370
-1
100
AcDbLine
10
270
20
5
11
272
21
5
0
LINE
5
384
100
AcDbEntity
8
bulkhead-help
6
ByLayer
62
256
370
-1
100
AcDbLine
10
270
20
25
11
272
21
25
0
LINE
5
385
100
AcDbEntity
8
side
6
ByLayer
62
256
370
-1
100
AcDbLine
10
270
20
40
11
272
21
40
0
LINE
5
386
100
AcDbEntity
8
side
6
ByLayer
62
256
370
-1
100
AcDbLine
10
272
20
40
11
272
21
25
0
LINE
5
387
100
AcDbEntity
8
side
6
ByLayer
62
256
370
-1
100
AcDbLine
10
272
20
25
11
270
21
25
0
LINE
5
388
100
AcDbEntity
8
side
6
ByLayer
62
256
370
-1
100
AcDbLine
10
270
20
25
11
270
21
40
0
LINE
5
389
100
AcDbEntity
8
side
6
ByLayer
62
256
370
-1
100
AcDbLine
10
270
20
20
11
272
21
20
0
LINE
5
38A
100
AcDbEntity
8
side
6
ByLayer
62
256
370
-1
100
AcDbLine
10
272
20
20
11
272
21
5
0
LINE
5
38B
100
AcDbEntity
8
side
6
ByLayer
62
256
370
-1
100
AcDbLine
10
272
20
5
11
270
21
5
0
LINE
5
38C
100
AcDbEntity
8
side
6
ByLayer
62
256
370
-1
100
AcDbLine
10
270
20
5
11
270
21
20
0
LINE
5
38D
100
AcDbEntity
8
bulkhead-help
6
ByLayer
62
256
370
-1
100
AcDbLine
10
0
20
0
11
2
21
-3.67394039744e-16
0
LINE
5
38E
100
AcDbEntity
8
bulkhead-help
6
ByLayer
62
256
370
-1
100
AcDbLine
10
3.06161699787e-16
20
5
11
2
21
5
0
LINE
5
38F
100
AcDbEntity
8
bulkhead-help
6
ByLayer
62
256
370
-1
100
AcDbLine
10
1.22464679915e-15
20
20
11
2
21
20
0
LINE
5
390
100
AcDbEntity
8
bulkhead-help
6
ByLayer
62
256
370
-1
100
AcDbLine
10
1.53080849893e-15
20
25
11
2
21
25
0
LINE
5
391
100
AcDbEntity
8
bulkhead-help
6
ByLayer
62
256
370
-1
100
AcDbLine
10
2.44929359829e-15
20
40
11
2
21
40
0
LINE
5
392
100
AcDbEntity
8
bulkhead-help
6
ByLayer
62
256
370
-1
100
AcDbLine
10
3.06161699787e-15
20
50
11
2
21
50
0
LINE
5
393
100
AcDbEntity
8
bulkhead-help
6
ByLayer
62
256
370
-1
100
AcDbLine
10
0
20
2
11
90
21
2
0
LINE
5
394
100
AcDbEntity
8
bulkhead-help
6
ByLayer
62
256
370
-1
100
AcDbLine
10
10
20
2
11
2
21
2
0
LINE
5
395
100
AcDbEntity
8
bulkhead
6
ByLayer
62
256
370
-1
100
AcDbLine
10
2
20
2
11
2
21
5
0
LINE
5
396
100
AcDbEntity
8
bulkhead
6
ByLayer
62
256
370
-1
100
AcDbLine
10
2
20
5
11
3.06161699787e-16
21
5
0
LINE
5
397
100
AcDbEntity
8
bulkhead
6
ByLayer
62
256
370
-1
100
AcDbLine
10
3.06161699787e-16
20
5
11
1.22464679915e-15
21
20
0
LINE
5
398
100
AcDbEntity
8
bulkhead
6
ByLayer
62
256
370
-1
100
AcDbLine
10
1.22464679915e-15
20
20
11
2
21
20
0
LINE
5
399
100
AcDbEntity
8
bulkhead
6
ByLayer
62
256
370
-1
100
AcDbLine
10
2
20
20
11
2
21
25
0
LINE
5
39A
100
AcDbEntity
8
bulkhead
6
ByLayer
62
256
370
-1
100
AcDbLine
10
2
20
25
11
1.53080849893e-15
21
25
0
LINE
5
39B
100
AcDbEntity
8
bulkhead
6
ByLayer
62
256
370
-1
100
AcDbLine
10
1.53080849893e-15
20
25
11
2.44929359829e-15
21
40
0
LINE
5
39C
100
AcDbEntity
8
bulkhead
6
ByLayer
62
256
370
-1
100
AcDbLine
10
2.44929359829e-15
20
40
11
2
21
40
0
LINE
5
39D
100
AcDbEntity
8
bulkhead
6
ByLayer
62
256
370
-1
100
AcDbLine
10
2
20
40
11
2
21
47.17157
0
LINE
5
39E
100
AcDbEntity
8
bulkhead
6
ByLayer
62
256
370
-1
100
AcDbLine
10
88
20
2
11
88
21
5
0
LINE
5
39F
100
AcDbEntity
8
bulkhead
6
ByLayer
62
256
370
-1
100
AcDbLine
10
88
20
5
11
90
21
5
0
LINE
5
3A0
100
AcDbEntity
8
bulkhead
6
ByLayer
62
256
370
-1
100
AcDbLine
10
90
20
5
11
90
21
20
0
LINE
5
3A1
100
AcDbEntity
8
bulkhead
6
ByLayer
62
256
370
-1
100
AcDbLine
10
90
20
20
11
88
21
20
0
LINE
5
3A2
100
AcDbEntity
8
bulkhead
6
ByLayer
62
256
370
-1
100
AcDbLine
10
88
20
20
11
88
21
25
0
LINE
5
3A3
100
AcDbEntity
8
bulkhead
6
ByLayer
62
256
370
-1
100
AcDbLine
10
88
20
25
11
90
21
25
0
LINE
5
3A4
100
AcDbEntity
8
bulkhead
6
ByLayer
62
256
370
-1
100
AcDbLine
10
90
20
25
11
90
21
40
0
LINE
5
3A5
100
AcDbEntity
8
bulkhead
6
ByLayer
62
256
370
-1
100
AcDbLine
10
90
20
40
11
88
21
40
0
LINE
5
3A6
100
AcDbEntity
8
bulkhead
6
ByLayer
62
256
370
-1
100
AcDbLine
10
88
20
40
11
88
21
47.17157
0
LINE
5
3A7
100
AcDbEntity
8
bulkhead-help
6
ByLayer
62
256
370
-1
100
AcDbLine
10
4
20
50
11
4
21
-8.57252759403e-16
0
LINE
5
3A8
100
AcDbEntity
8
KT_conn-help
6
ByLayer
62
256
370
-1
100
AcDbLine
10
218
20
49.037037037
11
218
21
0
0
LINE
5
3A9
100
AcDbEntity
8
KT_conn-help
6
ByLayer
62
256
370
-1
100
AcDbLine
10
268
20
49.962962963
11
268
21
0
0
LINE
5
3AA
100
AcDbEntity
8
KT_conn-help
6
ByLayer
62
256
370
-1
100
AcDbLine
10
268
20
49.962962963
11
218
21
49.037037037
0
LINE
5
3AB
100
AcDbEntity
8
KT_conn-help
6
ByLayer
62
256
370
-1
100
AcDbLine
10
218
20
2
11
268
21
2
0
LINE
5
3AC
100
AcDbEntity
8
KT_conn-help
6
ByLayer
62
256
370
-1
100
AcDbLine
10
268.037030688
20
47.9633058103
11
218.037030688
21
47.0373798844
0
LINE
5
3AD
100
AcDbEntity
8
KT_conn-help
6
ByLayer
62
256
370
-1
100
AcDbLine
10
248
20
47.5922496865
11
248
21
2
0
LINE
5
3AE
100
AcDbEntity
8
bottom-help
6
ByLayer
62
256
370
-1
100
AcDbLine
10
272
20
-12
11
272
21
-100
0
LINE
5
3AF
100
AcDbEntity
8
bottom
6
ByLayer
62
256
370
-1
100
AcDbLine
10
272
20
-40
11
272
21
-70
0
LINE
5
3B0
100
AcDbEntity
8
bottom
6
ByLayer
62
256
370
-1
100
AcDbLine
10
270
20
-70
11
270
21
-40
0
LINE
5
3B1
100
AcDbEntity
8
side-help
6
ByLayer
62
256
370
-1
100
AcDbLine
10
-1.46957615898e-15
20
2
11
512
21
2
0
LINE
5
3B2
100
AcDbEntity
8
side
6
ByLayer
62
256
370
-1
100
AcDbLine
10
512
20
38.9287055631
11
512
21
2
0
LINE
5
3B3
100
AcDbEntity
8
side
6
ByLayer
62
256
370
-1
100
AcDbLine
10
507
20
2
11
512
21
2
0
LINE
5
3B4
100
AcDbEntity
8
KT_conn-help
6
ByLayer
62
256
370
-1
100
AcDbLine
10
280
20
32.5
11
260
21
32.5
0
LINE
5
3B5
100
AcDbEntity
8
KT_conn-help
6
ByLayer
62
256
370
-1
100
AcDbLine
10
280
20
12.5
11
260
21
12.5
0
LINE
5
3B6
100
AcDbEntity
8
KT_conn-help
6
ByLayer
62
256
370
-1
100
AcDbLine
10
260
20
32.5
11
260
21
12.5
0
LINE
5
3B7
100
AcDbEntity
8
KT_conn-help
6
ByLayer
62
256
370
-1
100
AcDbLine
10
280
20
32.5
11
280
21
12.5
0
CIRCLE
5
3B8
100
AcDbEntity
8
KT_conn
6
ByLayer
62
256
370
-1
100
AcDbCircle
10
260
20
32.5
40
1.5
0
CIRCLE
5
3B9
100
AcDbEntity
8
KT_conn
6
ByLayer
62
256
370
-1
100
AcDbCircle
10
260
20
12.5
40
1.5
0
CIRCLE
5
3BA
100
AcDbEntity
8
KT_conn
6
ByLayer
62
256
370
-1
100
AcDbCircle
10
260
20
82.5
40
1.5
0
CIRCLE
5
3BB
100
AcDbEntity
8
KT_conn
6
ByLayer
62
256
370
-1
100
AcDbCircle
10
280
20
82.5
40
1.5
0
LINE
5
3BC
100
AcDbEntity
8
KT_conn-help
6
ByLayer
62
256
370
-1
100
AcDbLine
10
260
20
82.5
11
280
21
82.5
0
LINE
5
3BD
100
AcDbEntity
8
KT_conn
6
ByLayer
62
256
370
-1
100
AcDbLine
10
260
20
86
11
280
21
86
0
LINE
5
3BE
100
AcDbEntity
8
KT_conn
6
ByLayer
62
256
370
-1
100
AcDbLine
10
260
20
79
11
280
21
79
0
ARC
5
3BF
100
AcDbEntity
8
KT_conn
6
ByLayer
62
256
370
-1
100
AcDbCircle
10
260
20
82.5
40
3.5
100
AcDbArc
50
90
51
270
0
ARC
5
3C0
100
AcDbEntity
8
KT_conn
6
ByLayer
62
256
370
-1
100
AcDbCircle
10
280
20
82.5
40
3.5
100
AcDbArc
50
270
51
90
0
LINE
5
3C1
100
AcDbEntity
8
KT_conn-help
6
ByLayer
62
256
370
-1
100
AcDbLine
10
260
20
79
11
260
21
86
0
LINE
5
3C2
100
AcDbEntity
8
KT_conn-help
6
ByLayer
62
256
370
-1
100
AcDbLine
10
280
20
86
11
280
21
79
0
LINE
5
3C3
100
AcDbEntity
8
KT_conn-help
6
ByLayer
62
256
370
-1
100
AcDbLine
10
2
20
12.5
11
4
21
12.5
0
LINE
5
3C4
100
AcDbEntity
8
KT_conn-help
6
ByLayer
62
256
370
-1
100
AcDbLine
10
2
20
32.5
11
4
21
32.5
0
LINE
5
3C5
100
AcDbEntity
8
KT_conn-help
6
ByLayer
62
256
370
-1
100
AcDbLine
10
2
20
29
11
4
21
29
0
LINE
5
3C6
100
AcDbEntity
8
KT_conn-help
6
ByLayer
62
256
370
-1
100
AcDbLine
10
2
20
36
11
4
21
36
0
LINE
5
3C7
100
AcDbEntity
8
KT_conn-help
6
ByLayer
62
256
370
-1
100
AcDbLine
10
2
20
16
11
4
21
16
0
LINE
5
3C8
100
AcDbEntity
8
KT_conn-help
6
ByLayer
62
256
370
-1
100
AcDbLine
10
2
20
9
11
4
21
9
0
LINE
5
3C9
100
AcDbEntity
8
bulkhead
6
ByLayer
62
256
370
-1
100
AcDbLine
10
4
20
16
11
2
21
16
0
LINE
5
3CA
100
AcDbEntity
8
bulkhead
6
ByLayer
62
256
370
-1
100
AcDbLine
10
2
20
16
11
2
21
9
0
LINE
5
3CB
100
AcDbEntity
8
bulkhead
6
ByLayer
62
256
370
-1
100
AcDbLine
10
2
20
9
11
4
21
9
0
LINE
5
3CC
100
AcDbEntity
8
bulkhead
6
ByLayer
62
256
370
-1
100
AcDbLine
10
4
20
9
11
4
21
16
0
LINE
5
3CD
100
AcDbEntity
8
bulkhead
6
ByLayer
62
256
370
-1
100
AcDbLine
10
4
20
36
11
2
21
36
0
LINE
5
3CE
100
AcDbEntity
8
bulkhead
6
ByLayer
62
256
370
-1
100
AcDbLine
10
2
20
36
11
2
21
29
0
LINE
5
3CF
100
AcDbEntity
8
bulkhead
6
ByLayer
62
256
370
-1
100
AcDbLine
10
2
20
29
11
4
21
29
0
LINE
5
3D0
100
AcDbEntity
8
bulkhead
6
ByLayer
62
256
370
-1
100
AcDbLine
10
4
20
29
11
4
21
36
0
LINE
5
3D1
100
AcDbEntity
8
bulkhead
6
ByLayer
62
256
370
-1
100
AcDbLine
10
86
20
16
11
88
21
16
0
LINE
5
3D2
100
AcDbEntity
8
bulkhead
6
ByLayer
62
256
370
-1
100
AcDbLine
10
88
20
16
11
88
21
9
0
LINE
5
3D3
100
AcDbEntity
8
bulkhead
6
ByLayer
62
256
370
-1
100
AcDbLine
10
88
20
9
11
86
21
9
0
LINE
5
3D4
100
AcDbEntity
8
bulkhead
6
ByLayer
62
256
370
-1
100
AcDbLine
10
86
20
9
11
86
21
16
0
LINE
5
3D5
100
AcDbEntity
8
bulkhead
6
ByLayer
62
256
370
-1
100
AcDbLine
10
86
20
36
11
88
21
36
0
LINE
5
3D6
100
AcDbEntity
8
bulkhead
6
ByLayer
62
256
370
-1
100
AcDbLine
10
88
20
36
11
88
21
29
0
LINE
5
3D7
100
AcDbEntity
8
bulkhead
6
ByLayer
62
256
370
-1
100
AcDbLine
10
88
20
29
11
86
21
29
0
LINE
5
3D8
100
AcDbEntity
8
bulkhead
6
ByLayer
62
256
370
-1
100
AcDbLine
10
86
20
29
11
86
21
36
0
LINE
5
3D9
100
AcDbEntity
8
KT_conn-help
6
ByLayer
62
256
370
-1
100
AcDbLine
10
30
20
-7.34788079488e-15
11
20
21
-4.89858719659e-15
0
LINE
5
3DA
100
AcDbEntity
8
KT_conn-help
6
ByLayer
62
256
370
-1
100
AcDbLine
10
20
20
-4.89858719659e-15
11
20
21
2
0
LINE
5
3DB
100
AcDbEntity
8
bulkhead
6
ByLayer
62
256
370
-1
100
AcDbLine
10
30
20
-7.34788079488e-15
11
20
21
-4.89858719659e-15
0
LINE
5
3DC
100
AcDbEntity
8
bulkhead
6
ByLayer
62
256
370
-1
100
AcDbLine
10
20
20
-4.89858719659e-15
11
20
21
2
0
LINE
5
3DD
100
AcDbEntity
8
bulkhead
6
ByLayer
62
256
370
-1
100
AcDbLine
10
60
20
-1.46957615898e-14
11
70
21
7.34788079488e-15
0
LINE
5
3DE
100
AcDbEntity
8
bulkhead
6
ByLayer
62
256
370
-1
100
AcDbLine
10
70
20
7.34788079488e-15
11
70
21
2
0
LINE
5
3DF
100
AcDbEntity
8
bottom
6
ByLayer
62
256
370
-1
100
AcDbLine
10
270
20
-70
11
270
21
-80
0
LINE
5
3E0
100
AcDbEntity
8
bottom
6
ByLayer
62
256
370
-1
100
AcDbLine
10
270
20
-80
11
272
21
-80
0
LINE
5
3E1
100
AcDbEntity
8
bottom
6
ByLayer
62
256
370
-1
100
AcDbLine
10
272
20
-80
11
272
21
-70
0
LINE
5
3E2
100
AcDbEntity
8
bottom
6
ByLayer
62
256
370
-1
100
AcDbLine
10
270
20
-40
11
270
21
-30
0
LINE
5
3E3
100
AcDbEntity
8
bottom
6
ByLayer
62
256
370
-1
100
AcDbLine
10
270
20
-30
11
272
21
-30
0
LINE
5
3E4
100
AcDbEntity
8
bottom
6
ByLayer
62
256
370
-1
100
AcDbLine
10
272
20
-30
11
272
21
-40
0
LINE
5
3E5
100
AcDbEntity
8
KT_conn-help
6
ByLayer
62
256
370
-1
100
AcDbLine
10
260
20
-38.5
11
280
21
-38.5
0
LINE
5
3E6
100
AcDbEntity
8
KT_conn-help
6
ByLayer
62
256
370
-1
100
AcDbLine
10
260
20
-71.5
11
280
21
-71.5
0
CIRCLE
5
3E7
100
AcDbEntity
8
KT_conn
6
ByLayer
62
256
370
-1
100
AcDbCircle
10
260
20
-38.5
40
1.5
0
CIRCLE
5
3E8
100
AcDbEntity
8
KT_conn
6
ByLayer
62
256
370
-1
100
AcDbCircle
10
260
20
-71.5
40
1.5
0
CIRCLE
5
3E9
100
AcDbEntity
8
bottom
6
ByLayer
62
256
370
-1
100
AcDbCircle
10
280
20
-71.5
40
1.5
0
CIRCLE
5
3EA
100
AcDbEntity
8
bottom
6
ByLayer
62
256
370
-1
100
AcDbCircle
10
280
20
-38.5
40
1.5
0
LINE
5
3EB
100
AcDbEntity
8
KT_conn-help
6
ByLayer
62
256
370
-1
100
AcDbLine
10
260
20
-20
11
280
21
-20
0
LINE
5
3EC
100
AcDbEntity
8
KT_conn-help
6
ByLayer
62
256
370
-1
100
AcDbLine
10
260
20
-90
11
280
21
-90
0
LINE
5
3ED
100
AcDbEntity
8
bulkhead
6
ByLayer
62
256
370
-1
100
AcDbLine
10
30
20
-1.8686420987e-16
11
59.9999999998
21
-1.46957615897e-14
0
LINE
5
3EE
100
AcDbEntity
8
KT_conn-help
6
ByLayer
62
256
370
-1
100
AcDbLine
10
20
20
4
11
10
21
4
0
LINE
5
3EF
100
AcDbEntity
8
KT_conn-help
6
ByLayer
62
256
370
-1
100
AcDbLine
10
10
20
2
11
10
21
4
0
LINE
5
3F0
100
AcDbEntity
8
KT_conn-help
6
ByLayer
62
256
370
-1
100
AcDbLine
10
28.5
20
2
11
28.5
21
4
0
LINE
5
3F1
100
AcDbEntity
8
KT_conn-help
6
ByLayer
62
256
370
-1
100
AcDbLine
10
61.5
20
2
11
61.5
21
4
0
LINE
5
3F2
100
AcDbEntity
8
KT_conn-help
6
ByLayer
62
256
370
-1
100
AcDbLine
10
80
20
2
11
80
21
4
0
LINE
5
3F3
100
AcDbEntity
8
bulkhead
6
ByLayer
62
256
370
-1
100
AcDbLine
10
32
20
2
11
25
21
2
0
LINE
5
3F4
100
AcDbEntity
8
bulkhead
6
ByLayer
62
256
370
-1
100
AcDbLine
10
58
20
2
11
65
21
2
0
LINE
5
3F5
100
AcDbEntity
8
bulkhead
6
ByLayer
62
256
370
-1
100
AcDbLine
10
6.5
20
2
11
2
21
2
0
LINE
5
3F6
100
AcDbEntity
8
bulkhead
6
ByLayer
62
256
370
-1
100
AcDbLine
10
20
20
2
11
13.5
21
2
0
LINE
5
3F7
100
AcDbEntity
8
bulkhead
6
ByLayer
62
256
370
-1
100
AcDbLine
10
70
20
2
11
76.5
21
2
0
LINE
5
3F8
100
AcDbEntity
8
bulkhead
6
ByLayer
62
256
370
-1
100
AcDbLine
10
88
20
2
11
83.5
21
2
0
LINE
5
3F9
100
AcDbEntity
8
bulkhead
6
ByLayer
62
256
370
-1
100
AcDbLine
10
83.5
20
2
11
88
21
2
0
LINE
5
3FA
100
AcDbEntity
8
KT_conn-help
6
ByLayer
62
256
370
-1
100
AcDbLine
10
218
20
-12
11
268
21
-12
0
LINE
5
3FB
100
AcDbEntity
8
KT_conn-help
6
ByLayer
62
256
370
-1
100
AcDbLine
10
218
20
-98
11
268
21
-98
0
LINE
5
3FC
100
AcDbEntity
8
KT_conn-help
6
ByLayer
62
256
370
-1
100
AcDbLine
10
258
20
49.962962963
11
258
21
3.67394039744e-15
0
LINE
5
3FD
100
AcDbEntity
8
KT_conn-help
6
ByLayer
62
256
370
-1
100
AcDbLine
10
248
20
49.962962963
11
248
21
7.34788079488e-15
0
LINE
5
3FE
100
AcDbEntity
8
KT_conn-help
6
ByLayer
62
256
370
-1
100
AcDbLine
10
238
20
49.962962963
11
238
21
1.10218211923e-14
0
LINE
5
3FF
100
AcDbEntity
8
KT_conn-help
6
ByLayer
62
256
370
-1
100
AcDbLine
10
228
20
49.962962963
11
228
21
1.46957615898e-14
0
LINE
5
400
100
AcDbEntity
8
KT_conn-help
6
ByLayer
62
256
370
-1
100
AcDbLine
10
258
20
20
11
258
21
-130
0
LINE
5
401
100
AcDbEntity
8
KT_conn-help
6
ByLayer
62
256
370
-1
100
AcDbLine
10
248
20
20
11
248
21
-130
0
LINE
5
402
100
AcDbEntity
8
KT_conn-help
6
ByLayer
62
256
370
-1
100
AcDbLine
10
238
20
20
11
238
21
-130
0
LINE
5
403
100
AcDbEntity
8
KT_conn-help
6
ByLayer
62
256
370
-1
100
AcDbLine
10
228
20
20
11
228
21
-130
0
LINE
5
404
100
AcDbEntity
8
KT_conn
6
ByLayer
62
256
370
-1
100
AcDbLine
10
228
20
2
11
228
21
0
0
LINE
5
405
100
AcDbEntity
8
KT_conn
6
ByLayer
62
256
370
-1
100
AcDbLine
10
238
20
1.10218211923e-14
11
238
21
2
0
LINE
5
406
100
AcDbEntity
8
KT_conn
6
ByLayer
62
256
370
-1
100
AcDbLine
10
238
20
2
11
248
21
2
0
LINE
5
407
100
AcDbEntity
8
KT_conn
6
ByLayer
62
256
370
-1
100
AcDbLine
10
248
20
2
11
248
21
7.34788079488e-15
0
LINE
5
408
100
AcDbEntity
8
KT_conn
6
ByLayer
62
256
370
-1
100
AcDbLine
10
258
20
3.67394039744e-15
11
258
21
2
0
LINE
5
409
100
AcDbEntity
8
KT_conn
6
ByLayer
62
256
370
-1
100
AcDbLine
10
228
20
-10
11
228
21
-12
0
LINE
5
40A
100
AcDbEntity
8
KT_conn
6
ByLayer
62
256
370
-1
100
AcDbLine
10
228
20
-12
11
238
21
-12
0
LINE
5
40B
100
AcDbEntity
8
KT_conn
6
ByLayer
62
256
370
-1
100
AcDbLine
10
238
20
-12
11
238
21
-10
0
LINE
5
40C
100
AcDbEntity
8
KT_conn
6
ByLayer
62
256
370
-1
100
AcDbLine
10
248
20
-10
11
248
21
-12
0
LINE
5
40D
100
AcDbEntity
8
KT_conn
6
ByLayer
62
256
370
-1
100
AcDbLine
10
248
20
-12
11
258
21
-12
0
LINE
5
40E
100
AcDbEntity
8
KT_conn
6
ByLayer
62
256
370
-1
100
AcDbLine
10
258
20
-12
11
258
21
-10
0
LINE
5
40F
100
AcDbEntity
8
KT_conn
6
ByLayer
62
256
370
-1
100
AcDbLine
10
238
20
-10
11
248
21
-10
0
LINE
5
410
100
AcDbEntity
8
KT_conn
6
ByLayer
62
256
370
-1
100
AcDbLine
10
228
20
0
11
238
21
1.10218211923e-14
0
LINE
5
411
100
AcDbEntity
8
KT_conn
6
ByLayer
62
256
370
-1
100
AcDbLine
10
248
20
7.34788079488e-15
11
258
21
3.67394039744e-15
0
LINE
5
412
100
AcDbEntity
8
KT_conn
6
ByLayer
62
256
370
-1
100
AcDbLine
10
228
20
-100
11
228
21
-98
0
LINE
5
413
100
AcDbEntity
8
KT_conn
6
ByLayer
62
256
370
-1
100
AcDbLine
10
228
20
-98
11
238
21
-98
0
LINE
5
414
100
AcDbEntity
8
KT_conn
6
ByLayer
62
256
370
-1
100
AcDbLine
10
238
20
-98
11
238
21
-100
0
LINE
5
415
100
AcDbEntity
8
KT_conn
6
ByLayer
62
256
370
-1
100
AcDbLine
10
238
20
-100
11
248
21
-100
0
LINE
5
416
100
AcDbEntity
8
KT_conn
6
ByLayer
62
256
370
-1
100
AcDbLine
10
248
20
-100
11
248
21
-98
0
LINE
5
417
100
AcDbEntity
8
KT_conn
6
ByLayer
62
256
370
-1
100
AcDbLine
10
248
20
-98
11
258
21
-98
0
LINE
5
418
100
AcDbEntity
8
KT_conn
6
ByLayer
62
256
370
-1
100
AcDbLine
10
258
20
-98
11
258
21
-100
0
LINE
5
419
100
AcDbEntity
8
KT_conn-help
6
ByLayer
62
256
370
-1
100
AcDbLine
10
246
20
47.5552126494
11
246
21
-100
0
LINE
5
41A
100
AcDbEntity
8
KT_conn
6
ByLayer
62
256
370
-1
100
AcDbLine
10
228
20
47.2218793161
11
228
21
49.2222222222
0
LINE
5
41B
100
AcDbEntity
8
KT_conn
6
ByLayer
62
256
370
-1
100
AcDbLine
10
228
20
49.2222222222
11
238
21
49.4074074074
0
LINE
5
41C
100
AcDbEntity
8
KT_conn
6
ByLayer
62
256
370
-1
100
AcDbLine
10
238
20
49.4074074074
11
238
21
47.4070645013
0
LINE
5
41D
100
AcDbEntity
8
KT_conn
6
ByLayer
62
256
370
-1
100
AcDbLine
10
238
20
47.4070645013
11
248
21
47.5922496865
0
LINE
5
41E
100
AcDbEntity
8
KT_conn
6
ByLayer
62
256
370
-1
100
AcDbLine
10
248
20
47.5922496865
11
248
21
49.5925925926
0
LINE
5
41F
100
AcDbEntity
8
KT_conn
6
ByLayer
62
256
370
-1
100
AcDbLine
10
248
20
49.5925925926
11
258
21
49.7777777778
0
LINE
5
420
100
AcDbEntity
8
KT_conn
6
ByLayer
62
256
370
-1
100
AcDbLine
10
258
20
49.7777777778
11
258
21
47.7774348716
0
LINE
5
421
100
AcDbEntity
8
KT_conn-help
6
ByLayer
62
256
370
-1
100
AcDbLine
10
112
20
49.037
11
112
21
-4.89858719659e-16
0
LINE
5
422
100
AcDbEntity
8
KT_conn-help
6
ByLayer
62
256
370
-1
100
AcDbLine
10
198
20
49.037
11
198
21
7.34788079488e-16
0
LINE
5
423
100
AcDbEntity
8
KT_conn-help
6
ByLayer
62
256
370
-1
100
AcDbLine
10
200
20
47.037
11
110
21
47.037
0
LINE
5
424
100
AcDbEntity
8
KT_conn-help
6
ByLayer
62
256
370
-1
100
AcDbLine
10
200
20
2
11
110
21
2
0
LINE
5
425
100
AcDbEntity
8
KT_conn-help
6
ByLayer
62
256
370
-1
100
AcDbLine
10
155
20
49.037
11
155
21
-1.10218211923e-14
0
ARC
5
426
100
AcDbEntity
8
KT_conn
6
ByLayer
62
256
370
-1
100
AcDbCircle
10
144.607695155
20
1
40
5
100
AcDbArc
50
47.8965511293
51
90
0
ARC
5
427
100
AcDbEntity
8
KT_conn
6
ByLayer
62
256
370
-1
100
AcDbCircle
10
165.392304845
20
1
40
5
100
AcDbArc
50
90
51
132.103448871
0
ARC
5
428
100
AcDbEntity
8
KT_conn
6
ByLayer
62
256
370
-1
100
AcDbCircle
10
121
20
11
40
5
100
AcDbArc
50
180
51
270
0
LINE
5
429
100
AcDbEntity
8
KT_conn
6
ByLayer
62
256
370
-1
100
AcDbLine
10
116
20
38.037
11
116
21
11
0
ARC
5
42A
100
AcDbEntity
8
KT_conn
6
ByLayer
62
256
370
-1
100
AcDbCircle
10
121
20
38.037
40
5
100
AcDbArc
50
90
51
180
0
LINE
5
42B
100
AcDbEntity
8
KT_conn
6
ByLayer
62
256
370
-1
100
AcDbLine
10
189
20
43.037
11
121
21
43.037
0
ARC
5
42C
100
AcDbEntity
8
KT_conn
6
ByLayer
62
256
370
-1
100
AcDbCircle
10
189
20
38.037
40
5
100
AcDbArc
50
0
51
90
0
LINE
5
42D
100
AcDbEntity
8
KT_conn
6
ByLayer
62
256
370
-1
100
AcDbLine
10
194
20
38.037
11
194
21
11
0
ARC
5
42E
100
AcDbEntity
8
KT_conn
6
ByLayer
62
256
370
-1
100
AcDbCircle
10
189
20
11
40
5
100
AcDbArc
50
270
51
360
0
LINE
5
42F
100
AcDbEntity
8
KT_conn
6
ByLayer
62
256
370
-1
100
AcDbLine
10
144.607695155
20
6
11
121
21
6
0
LINE
5
430
100
AcDbEntity
8
KT_conn
6
ByLayer
62
256
370
-1
100
AcDbLine
10
165.392304845
20
6
11
189
21
6
0
ARC
5
431
100
AcDbEntity
8
KT_conn
6
ByLayer
62
256
370
-1
100
AcDbCircle
10
155
20
12.5
40
10.5
100
AcDbArc
50
227.896551129
51
312.103357808
0
LINE
5
432
100
AcDbEntity
8
KT_conn-help
6
ByLayer
62
256
370
-1
100
AcDbLine
10
125
20
49.037
11
125
21
-3.67394039744e-15
0
LINE
5
433
100
AcDbEntity
8
KT_conn-help
6
ByLayer
62
256
370
-1
100
AcDbLine
10
140
20
49.037
11
140
21
-7.34788079488e-15
0
LINE
5
434
100
AcDbEntity
8
KT_conn-help
6
ByLayer
62
256
370
-1
100
AcDbLine
10
155
20
49.037
11
155
21
-1.10218211923e-14
0
LINE
5
435
100
AcDbEntity
8
KT_conn-help
6
ByLayer
62
256
370
-1
100
AcDbLine
10
170
20
49.037
11
170
21
-1.46957615898e-14
0
LINE
5
436
100
AcDbEntity
8
KT_conn-help
6
ByLayer
62
256
370
-1
100
AcDbLine
10
185
20
49.037
11
185
21
-1.83697019872e-14
0
LINE
5
437
100
AcDbEntity
8
KT_conn-help
6
ByLayer
62
256
370
-1
100
AcDbLine
10
218
20
-25
11
228
21
-25
0
LINE
5
438
100
AcDbEntity
8
KT_conn-help
6
ByLayer
62
256
370
-1
100
AcDbLine
10
218
20
-40
11
228
21
-40
0
LINE
5
439
100
AcDbEntity
8
KT_conn-help
6
ByLayer
62
256
370
-1
100
AcDbLine
10
218
20
-55
11
228
21
-55
0
LINE
5
43A
100
AcDbEntity
8
KT_conn-help
6
ByLayer
62
256
370
-1
100
AcDbLine
10
218
20
-70
11
228
21
-70
0
LINE
5
43B
100
AcDbEntity
8
KT_conn-help
6
ByLayer
62
256
370
-1
100
AcDbLine
10
218
20
-85
11
228
21
-85
0
LINE
5
43C
100
AcDbEntity
8
KT_conn-help
6
ByLayer
62
256
370
-1
100
AcDbLine
10
220
20
-10
11
220
21
-100
0
LINE
5
43D
100
AcDbEntity
8
KT_conn-help
6
ByLayer
62
256
370
-1
100
AcDbLine
10
220
20
49.037037037
11
220
21
-4.89858719659e-16
0
LINE
5
43E
100
AcDbEntity
8
KT_conn
6
ByLayer
62
256
370
-1
100
AcDbLine
10
125
20
-3.67394039744e-15
11
125
21
2
0
LINE
5
43F
100
AcDbEntity
8
KT_conn
6
ByLayer
62
256
370
-1
100
AcDbLine
10
125
20
2
11
140
21
2
0
LINE
5
440
100
AcDbEntity
8
KT_conn
6
ByLayer
62
256
370
-1
100
AcDbLine
10
140
20
2
11
140
21
-0
0
LINE
5
441
100
AcDbEntity
8
KT_conn
6
ByLayer
62
256
370
-1
100
AcDbLine
10
140
20
-0
11
170
21
-1.46957615898e-14
0
LINE
5
442
100
AcDbEntity
8
KT_conn
6
ByLayer
62
256
370
-1
100
AcDbLine
10
170
20
-1.46957615898e-14
11
170
21
2
0
LINE
5
443
100
AcDbEntity
8
KT_conn
6
ByLayer
62
256
370
-1
100
AcDbLine
10
170
20
2
11
185
21
2
0
LINE
5
444
100
AcDbEntity
8
KT_conn
6
ByLayer
62
256
370
-1
100
AcDbLine
10
185
20
2
11
185
21
-1.83697019872e-14
0
LINE
5
445
100
AcDbEntity
8
KT_conn
6
ByLayer
62
256
370
-1
100
AcDbLine
10
125
20
-3.67394039744e-15
11
110
21
0
0
LINE
5
446
100
AcDbEntity
8
KT_conn
6
ByLayer
62
256
370
-1
100
AcDbLine
10
185
20
-1.83697019872e-14
11
200
21
0
0
LINE
5
447
100
AcDbEntity
8
KT_conn
6
ByLayer
62
256
370
-1
100
AcDbLine
10
220
20
-10
11
220
21
-25
0
LINE
5
448
100
AcDbEntity
8
KT_conn
6
ByLayer
62
256
370
-1
100
AcDbLine
10
220
20
-25
11
218
21
-25
0
LINE
5
449
100
AcDbEntity
8
KT_conn
6
ByLayer
62
256
370
-1
100
AcDbLine
10
218
20
-25
11
218
21
-40
0
LINE
5
44A
100
AcDbEntity
8
KT_conn
6
ByLayer
62
256
370
-1
100
AcDbLine
10
218
20
-40
11
220
21
-40
0
LINE
5
44B
100
AcDbEntity
8
KT_conn
6
ByLayer
62
256
370
-1
100
AcDbLine
10
220
20
-40
11
220
21
-70
0
LINE
5
44C
100
AcDbEntity
8
KT_conn
6
ByLayer
62
256
370
-1
100
AcDbLine
10
220
20
-70
11
218
21
-70
0
LINE
5
44D
100
AcDbEntity
8
KT_conn
6
ByLayer
62
256
370
-1
100
AcDbLine
10
218
20
-70
11
218
21
-85
0
LINE
5
44E
100
AcDbEntity
8
KT_conn
6
ByLayer
62
256
370
-1
100
AcDbLine
10
218
20
-85
11
220
21
-85
0
LINE
5
44F
100
AcDbEntity
8
KT_conn
6
ByLayer
62
256
370
-1
100
AcDbLine
10
220
20
-85
11
220
21
-100
0
LINE
5
450
100
AcDbEntity
8
KT_conn
6
ByLayer
62
256
370
-1
100
AcDbLine
10
220
20
-10
11
228
21
-10
0
LINE
5
451
100
AcDbEntity
8
KT_conn
6
ByLayer
62
256
370
-1
100
AcDbLine
10
220
20
-100
11
228
21
-100
0
LINE
5
452
100
AcDbEntity
8
KT_conn
6
ByLayer
62
256
370
-1
100
AcDbLine
10
125
20
49.037
11
125
21
47.037
0
LINE
5
453
100
AcDbEntity
8
KT_conn
6
ByLayer
62
256
370
-1
100
AcDbLine
10
125
20
47.037
11
140
21
47.037
0
LINE
5
454
100
AcDbEntity
8
KT_conn
6
ByLayer
62
256
370
-1
100
AcDbLine
10
140
20
47.037
11
140
21
49.037
0
LINE
5
455
100
AcDbEntity
8
KT_conn
6
ByLayer
62
256
370
-1
100
AcDbLine
10
170
20
49.037
11
170
21
47.037
0
LINE
5
456
100
AcDbEntity
8
KT_conn
6
ByLayer
62
256
370
-1
100
AcDbLine
10
170
20
47.037
11
185
21
47.037
0
LINE
5
457
100
AcDbEntity
8
KT_conn
6
ByLayer
62
256
370
-1
100
AcDbLine
10
185
20
47.037
11
185
21
49.037
0
LINE
5
458
100
AcDbEntity
8
KT_conn
6
ByLayer
62
256
370
-1
100
AcDbLine
10
200
20
49.037
11
185
21
49.037
0
LINE
5
459
100
AcDbEntity
8
KT_conn
6
ByLayer
62
256
370
-1
100
AcDbLine
10
170
20
49.037
11
140
21
49.037
0
LINE
5
45A
100
AcDbEntity
8
KT_conn
6
ByLayer
62
256
370
-1
100
AcDbLine
10
125
20
49.037
11
110
21
49.037
0
LINE
5
45B
100
AcDbEntity
8
KT_conn-help
6
ByLayer
62
256
370
-1
100
AcDbLine
10
185
20
15
11
200
21
15
0
LINE
5
45C
100
AcDbEntity
8
KT_conn-help
6
ByLayer
62
256
370
-1
100
AcDbLine
10
185
20
30
11
200
21
30
0
LINE
5
45D
100
AcDbEntity
8
KT_conn-help
6
ByLayer
62
256
370
-1
100
AcDbLine
10
125
20
15
11
110
21
15
0
LINE
5
45E
100
AcDbEntity
8
KT_conn-help
6
ByLayer
62
256
370
-1
100
AcDbLine
10
125
20
30
11
110
21
30
0
LINE
5
45F
100
AcDbEntity
8
KT_conn-help
6
ByLayer
62
256
370
-1
100
AcDbLine
10
218
20
30
11
228
21
30
0
LINE
5
460
100
AcDbEntity
8
KT_conn-help
6
ByLayer
62
256
370
-1
100
AcDbLine
10
218
20
15
11
228
21
15
0
LINE
5
461
100
AcDbEntity
8
KT_conn
6
ByLayer
62
256
370
-1
100
AcDbLine
10
218
20
30
11
220
21
30
0
LINE
5
462
100
AcDbEntity
8
KT_conn
6
ByLayer
62
256
370
-1
100
AcDbLine
10
220
20
47.073731168
11
220
21
30
0
LINE
5
463
100
AcDbEntity
8
KT_conn
6
ByLayer
62
256
370
-1
100
AcDbLine
10
220
20
30
11
218
21
30
0
LINE
5
464
100
AcDbEntity
8
KT_conn
6
ByLayer
62
256
370
-1
100
AcDbLine
10
218
20
30
11
218
21
15
0
LINE
5
465
100
AcDbEntity
8
KT_conn
6
ByLayer
62
256
370
-1
100
AcDbLine
10
218
20
15
11
220
21
15
0
LINE
5
466
100
AcDbEntity
8
KT_conn
6
ByLayer
62
256
370
-1
100
AcDbLine
10
220
20
15
11
220
21
2
0
LINE
5
467
100
AcDbEntity
8
KT_conn
6
ByLayer
62
256
370
-1
100
AcDbLine
10
200
20
30
11
198
21
30
0
LINE
5
468
100
AcDbEntity
8
KT_conn
6
ByLayer
62
256
370
-1
100
AcDbLine
10
198
20
30
11
198
21
15
0
LINE
5
469
100
AcDbEntity
8
KT_conn
6
ByLayer
62
256
370
-1
100
AcDbLine
10
198
20
15
11
200
21
15
0
LINE
5
46A
100
AcDbEntity
8
KT_conn
6
ByLayer
62
256
370
-1
100
AcDbLine
10
110
20
30
11
112
21
30
0
LINE
5
46B
100
AcDbEntity
8
KT_conn
6
ByLayer
62
256
370
-1
100
AcDbLine
10
112
20
30
11
112
21
15
0
LINE
5
46C
100
AcDbEntity
8
KT_conn
6
ByLayer
62
256
370
-1
100
AcDbLine
10
112
20
15
11
110
21
15
0
LINE
5
46D
100
AcDbEntity
8
KT_conn
6
ByLayer
62
256
370
-1
100
AcDbLine
10
200
20
49.037
11
200
21
30
0
LINE
5
46E
100
AcDbEntity
8
KT_conn
6
ByLayer
62
256
370
-1
100
AcDbLine
10
200
20
15
11
200
21
0
0
LINE
5
46F
100
AcDbEntity
8
KT_conn
6
ByLayer
62
256
370
-1
100
AcDbLine
10
110
20
49.037
11
110
21
30
0
LINE
5
470
100
AcDbEntity
8
KT_conn
6
ByLayer
62
256
370
-1
100
AcDbLine
10
110
20
15
11
110
21
0
0
LINE
5
471
100
AcDbEntity
8
KT_conn
6
ByLayer
62
256
370
-1
100
AcDbLine
10
220
20
47.073731168
11
228
21
47.2218793161
0
LINE
5
472
100
AcDbEntity
8
KT_conn
6
ByLayer
62
256
370
-1
100
AcDbLine
10
220
20
2
11
228
21
2
0
ARC
5
473
100
AcDbEntity
8
KT_conn
6
ByLayer
62
256
370
-1
100
AcDbCircle
10
231.60840951
20
40.287501543
40
2
100
AcDbArc
50
91.0609116902
51
218.528055442
0
LINE
5
474
100
AcDbEntity
8
KT_conn
6
ByLayer
62
256
370
-1
100
AcDbLine
10
246.210846724
20
42.5582599531
11
231.571378822
21
42.2871586956
0
ARC
5
475
100
AcDbEntity
8
KT_conn
6
ByLayer
62
256
370
-1
100
AcDbCircle
10
246.247877412
20
40.5586028004
40
2
100
AcDbArc
50
321.879938394
51
91.0609116902
0
ARC
5
476
100
AcDbEntity
8
KT_conn
6
ByLayer
62
256
370
-1
100
AcDbCircle
10
251
20
33.6554168249
40
2
100
AcDbArc
50
0
51
141.879938394
0
LINE
5
477
100
AcDbEntity
8
KT_conn
6
ByLayer
62
256
370
-1
100
AcDbLine
10
253
20
33.6554168249
11
253
21
15.933418483
0
ARC
5
478
100
AcDbEntity
8
KT_conn
6
ByLayer
62
256
370
-1
100
AcDbCircle
10
251
20
15.933418483
40
2
100
AcDbArc
50
218.528055442
51
5.08888749034e-14
0
ARC
5
479
100
AcDbEntity
8
KT_conn
6
ByLayer
62
256
370
-1
100
AcDbCircle
10
246.294421828
20
9
40
2
100
AcDbArc
50
270
51
38.5280554419
0
LINE
5
47A
100
AcDbEntity
8
KT_conn
6
ByLayer
62
256
370
-1
100
AcDbLine
10
231.653739462
20
7
11
246.294421828
21
7
0
ARC
5
47B
100
AcDbEntity
8
KT_conn
6
ByLayer
62
256
370
-1
100
AcDbCircle
10
231.653739462
20
9
40
2
100
AcDbArc
50
141.879938394
51
270
0
ARC
5
47C
100
AcDbEntity
8
KT_conn
6
ByLayer
62
256
370
-1
100
AcDbCircle
10
227
20
16.0285681888
40
2
100
AcDbArc
50
180
51
321.879938394
0
LINE
5
47D
100
AcDbEntity
8
KT_conn
6
ByLayer
62
256
370
-1
100
AcDbLine
10
225
20
33.2320480122
11
225
21
16.0285681888
0
ARC
5
47E
100
AcDbEntity
8
KT_conn
6
ByLayer
62
256
370
-1
100
AcDbCircle
10
227
20
33.2320480122
40
2
100
AcDbArc
50
38.5280554419
51
180
0
ARC
5
47F
100
AcDbEntity
8
KT_conn
6
ByLayer
62
256
370
-1
100
AcDbCircle
10
233.798887286
20
24.6932607606
40
2
100
AcDbArc
50
321.879938394
51
38.5280554419
0
ARC
5
480
100
AcDbEntity
8
KT_conn
6
ByLayer
62
256
370
-1
100
AcDbCircle
10
238.920506025
20
18.2609710399
40
2
100
AcDbArc
50
38.5280554419
51
141.879938394
0
ARC
5
481
100
AcDbEntity
8
KT_conn
6
ByLayer
62
256
370
-1
100
AcDbCircle
10
243.996192024
20
24.7295675801
40
2
100
AcDbArc
50
141.879938394
51
218.528055442
0
ARC
5
482
100
AcDbEntity
8
KT_conn
6
ByLayer
62
256
370
-1
100
AcDbCircle
10
238.874573285
20
31.1618573008
40
2
100
AcDbArc
50
218.528055442
51
321.879938394
0
LINE
5
483
100
AcDbEntity
8
KT_conn
6
ByLayer
62
256
370
-1
100
AcDbLine
10
230.043803024
20
39.0417059954
11
237.309966799
21
29.9160617532
0
LINE
5
484
100
AcDbEntity
8
KT_conn
6
ByLayer
62
256
370
-1
100
AcDbLine
10
247.82131526
20
39.3239800492
11
240.448011133
21
29.9272345496
0
LINE
5
485
100
AcDbEntity
8
KT_conn
6
ByLayer
62
256
370
-1
100
AcDbLine
10
249.426562152
20
34.8900395761
11
242.422754176
21
25.9641903313
0
LINE
5
486
100
AcDbEntity
8
KT_conn
6
ByLayer
62
256
370
-1
100
AcDbLine
10
242.431585539
20
23.4837720326
11
249.435393515
21
14.6876229355
0
LINE
5
487
100
AcDbEntity
8
KT_conn
6
ByLayer
62
256
370
-1
100
AcDbLine
10
247.859028313
20
10.2457955475
11
240.48511251
21
19.5067665874
0
LINE
5
488
100
AcDbEntity
8
KT_conn
6
ByLayer
62
256
370
-1
100
AcDbLine
10
237.347068177
20
19.4955937911
11
230.080301614
21
10.2346227512
0
LINE
5
489
100
AcDbEntity
8
KT_conn
6
ByLayer
62
256
370
-1
100
AcDbLine
10
228.573437848
20
14.7939454376
11
235.372325134
21
23.4586380094
0
LINE
5
48A
100
AcDbEntity
8
KT_conn
6
ByLayer
62
256
370
-1
100
AcDbLine
10
235.363493771
20
25.9390563081
11
228.564606485
21
34.4778435598
0
ARC
5
48B
100
AcDbEntity
8
KT_conn
6
ByLayer
62
256
370
-1
100
AcDbCircle
10
229.999675101
20
-19
40
2
100
AcDbArc
50
90
51
200.224859431
0
ARC
5
48C
100
AcDbEntity
8
KT_conn
6
ByLayer
62
256
370
-1
100
AcDbCircle
10
227
20
-33.9991181322
40
2
100
AcDbArc
50
20.2248594312
51
180
0
LINE
5
48D
100
AcDbEntity
8
KT_conn
6
ByLayer
62
256
370
-1
100
AcDbLine
10
229.999675101
20
-17
11
248.000324899
21
-17
0
ARC
5
48E
100
AcDbEntity
8
KT_conn
6
ByLayer
62
256
370
-1
100
AcDbCircle
10
248.000324899
20
-19
40
2
100
AcDbArc
50
339.775140569
51
90
0
ARC
5
48F
100
AcDbEntity
8
KT_conn
6
ByLayer
62
256
370
-1
100
AcDbCircle
10
251
20
-33.9991181322
40
2
100
AcDbArc
50
360
51
159.775140569
0
LINE
5
490
100
AcDbEntity
8
KT_conn
6
ByLayer
62
256
370
-1
100
AcDbLine
10
253
20
-33.9991181322
11
253
21
-76.0008818678
0
ARC
5
491
100
AcDbEntity
8
KT_conn
6
ByLayer
62
256
370
-1
100
AcDbCircle
10
251
20
-76.0008818678
40
2
100
AcDbArc
50
200.224859431
51
0
0
ARC
5
492
100
AcDbEntity
8
KT_conn
6
ByLayer
62
256
370
-1
100
AcDbCircle
10
248.000324899
20
-91
40
2
100
AcDbArc
50
270
51
20.2248594312
0
LINE
5
493
100
AcDbEntity
8
KT_conn
6
ByLayer
62
256
370
-1
100
AcDbLine
10
229.999675101
20
-93
11
248.000324899
21
-93
0
ARC
5
494
100
AcDbEntity
8
KT_conn
6
ByLayer
62
256
370
-1
100
AcDbCircle
10
229.999675101
20
-91
40
2
100
AcDbArc
50
159.775140569
51
270
0
LINE
5
495
100
AcDbEntity
8
KT_conn
6
ByLayer
62
256
370
-1
100
AcDbLine
10
225
20
-33.9991181322
11
225
21
-76.0008818678
0
ARC
5
496
100
AcDbEntity
8
KT_conn
6
ByLayer
62
256
370
-1
100
AcDbCircle
10
227
20
-76.0008818678
40
2
100
AcDbArc
50
180
51
339.775140569
0
ARC
5
497
100
AcDbEntity
8
KT_conn
6
ByLayer
62
256
370
-1
100
AcDbCircle
10
234.737167004
20
-55
40
2
100
AcDbArc
50
339.775140569
51
20.2248594312
0
ARC
5
498
100
AcDbEntity
8
KT_conn
6
ByLayer
62
256
370
-1
100
AcDbCircle
10
239
20
-43.4294532964
40
2
100
AcDbArc
50
200.224859431
51
339.775140569
0
ARC
5
499
100
AcDbEntity
8
KT_conn
6
ByLayer
62
256
370
-1
100
AcDbCircle
10
243.262832996
20
-55
40
2
100
AcDbArc
50
159.775140569
51
200.224859431
0
LINE
5
49A
100
AcDbEntity
8
KT_conn
6
ByLayer
62
256
370
-1
100
AcDbLine
10
240.876686234
20
-65.879135986
11
249.877011132
21
-90.3085892823
0
LINE
5
49B
100
AcDbEntity
8
KT_conn
6
ByLayer
62
256
370
-1
100
AcDbLine
10
237.123313766
20
-65.879135986
11
228.122988868
21
-90.3085892823
0
ARC
5
49C
100
AcDbEntity
8
KT_conn
6
ByLayer
62
256
370
-1
100
AcDbCircle
10
239
20
-66.5705467036
40
2
100
AcDbArc
50
20.2248594312
51
159.775140569
0
LINE
5
49D
100
AcDbEntity
8
KT_conn
6
ByLayer
62
256
370
-1
100
AcDbLine
10
228.876686234
20
-33.3077074145
11
236.613853238
21
-54.3085892823
0
LINE
5
49E
100
AcDbEntity
8
KT_conn
6
ByLayer
62
256
370
-1
100
AcDbLine
10
236.613853238
20
-55.6914107177
11
228.876686234
21
-76.6922925855
0
LINE
5
49F
100
AcDbEntity
8
KT_conn
6
ByLayer
62
256
370
-1
100
AcDbLine
10
241.386146762
20
-55.6914107177
11
249.123313766
21
-76.6922925855
0
LINE
5
4A0
100
AcDbEntity
8
KT_conn
6
ByLayer
62
256
370
-1
100
AcDbLine
10
241.386146762
20
-54.3085892823
11
249.123313766
21
-33.3077074145
0
LINE
5
4A1
100
AcDbEntity
8
KT_conn
6
ByLayer
62
256
370
-1
100
AcDbLine
10
240.876686234
20
-44.120864014
11
249.877011132
21
-19.6914107177
0
LINE
5
4A2
100
AcDbEntity
8
KT_conn
6
ByLayer
62
256
370
-1
100
AcDbLine
10
228.122988868
20
-19.6914107177
11
237.123313766
21
-44.120864014
0
LINE
5
4A3
100
AcDbEntity
8
KT_conn-help
6
ByLayer
62
256
370
-1
100
AcDbLine
10
253
20
-95
11
255
21
-95
0
LINE
5
4A4
100
AcDbEntity
8
KT_conn-help
6
ByLayer
62
256
370
-1
100
AcDbLine
10
253
20
-90
11
255
21
-90
0
LINE
5
4A5
100
AcDbEntity
8
KT_conn-help
6
ByLayer
62
256
370
-1
100
AcDbLine
10
253
20
-85
11
255
21
-85
0
LINE
5
4A6
100
AcDbEntity
8
KT_conn-help
6
ByLayer
62
256
370
-1
100
AcDbLine
10
253
20
-80
11
255
21
-80
0
LINE
5
4A7
100
AcDbEntity
8
KT_conn-help
6
ByLayer
62
256
370
-1
100
AcDbLine
10
253
20
-75
11
255
21
-75
0
LINE
5
4A8
100
AcDbEntity
8
KT_conn-help
6
ByLayer
62
256
370
-1
100
AcDbLine
10
253
20
-70
11
255
21
-70
0
LINE
5
4A9
100
AcDbEntity
8
KT_conn-help
6
ByLayer
62
256
370
-1
100
AcDbLine
10
253
20
-65
11
255
21
-65
0
LINE
5
4AA
100
AcDbEntity
8
KT_conn-help
6
ByLayer
62
256
370
-1
100
AcDbLine
10
253
20
-60
11
255
21
-60
0
LINE
5
4AB
100
AcDbEntity
8
KT_conn-help
6
ByLayer
62
256
370
-1
100
AcDbLine
10
253
20
-55
11
255
21
-55
0
LINE
5
4AC
100
AcDbEntity
8
KT_conn-help
6
ByLayer
62
256
370
-1
100
AcDbLine
10
253
20
-50
11
255
21
-50
0
LINE
5
4AD
100
AcDbEntity
8
KT_conn-help
6
ByLayer
62
256
370
-1
100
AcDbLine
10
253
20
-45
11
255
21
-45
0
LINE
5
4AE
100
AcDbEntity
8
KT_conn-help
6
ByLayer
62
256
370
-1
100
AcDbLine
10
253
20
-40
11
255
21
-40
0
LINE
5
4AF
100
AcDbEntity
8
KT_conn-help
6
ByLayer
62
256
370
-1
100
AcDbLine
10
253
20
-35
11
255
21
-35
0
LINE
5
4B0
100
AcDbEntity
8
KT_conn-help
6
ByLayer
62
256
370
-1
100
AcDbLine
10
253
20
-30
11
255
21
-30
0
LINE
5
4B1
100
AcDbEntity
8
KT_conn-help
6
ByLayer
62
256
370
-1
100
AcDbLine
10
253
20
-25
11
255
21
-25
0
LINE
5
4B2
100
AcDbEntity
8
KT_conn-help
6
ByLayer
62
256
370
-1
100
AcDbLine
10
253
20
-20
11
255
21
-20
0
LINE
5
4B3
100
AcDbEntity
8
KT_conn-help
6
ByLayer
62
256
370
-1
100
AcDbLine
10
253
20
-15
11
255
21
-15
0
LINE
5
4B4
100
AcDbEntity
8
KT_conn-help
6
ByLayer
62
256
370
-1
100
AcDbLine
10
253
20
-10
11
255
21
-10
0
LINE
5
4B5
100
AcDbEntity
8
KT_conn-help
6
ByLayer
62
256
370
-1
100
AcDbLine
10
253
20
-5
11
255
21
-5
0
LINE
5
4B6
100
AcDbEntity
8
KT_conn-help
6
ByLayer
62
256
370
-1
100
AcDbLine
10
253
20
0
11
255
21
0
0
LINE
5
4B7
100
AcDbEntity
8
KT_conn-help
6
ByLayer
62
256
370
-1
100
AcDbLine
10
253
20
5
11
255
21
5
0
LINE
5
4B8
100
AcDbEntity
8
KT_conn-help
6
ByLayer
62
256
370
-1
100
AcDbLine
10
253
20
10
11
255
21
10
0
LINE
5
4B9
100
AcDbEntity
8
KT_conn-help
6
ByLayer
62
256
370
-1
100
AcDbLine
10
253
20
15
11
255
21
15
0
LINE
5
4BA
100
AcDbEntity
8
KT_conn-help
6
ByLayer
62
256
370
-1
100
AcDbLine
10
253
20
20
11
255
21
20
0
LINE
5
4BB
100
AcDbEntity
8
KT_conn-help
6
ByLayer
62
256
370
-1
100
AcDbLine
10
253
20
25
11
255
21
25
0
LINE
5
4BC
100
AcDbEntity
8
KT_conn-help
6
ByLayer
62
256
370
-1
100
AcDbLine
10
253
20
30
11
255
21
30
0
LINE
5
4BD
100
AcDbEntity
8
KT_conn-help
6
ByLayer
62
256
370
-1
100
AcDbLine
10
253
20
35
11
255
21
35
0
LINE
5
4BE
100
AcDbEntity
8
KT_conn-help
6
ByLayer
62
256
370
-1
100
AcDbLine
10
253
20
40
11
255
21
40
0
LINE
5
4BF
100
AcDbEntity
8
KT_conn-help
6
ByLayer
62
256
370
-1
100
AcDbLine
10
253
20
45
11
255
21
45
0
LINE
5
4C0
100
AcDbEntity
8
KT_conn-help
6
ByLayer
62
256
370
-1
100
AcDbLine
10
253
20
50
11
255
21
50
0
LINE
5
4C1
100
AcDbEntity
8
KT_conn-help
6
ByLayer
62
256
370
-1
100
AcDbLine
10
254
20
50
11
254
21
-130
0
CIRCLE
5
4C2
100
AcDbEntity
8
KT_conn
6
ByLayer
62
256
370
-1
100
AcDbCircle
10
254
20
45
40
0.05
0
CIRCLE
5
4C3
100
AcDbEntity
8
KT_conn
6
ByLayer
62
256
370
-1
100
AcDbCircle
10
254
20
40
40
0.05
0
CIRCLE
5
4C4
100
AcDbEntity
8
KT_conn
6
ByLayer
62
256
370
-1
100
AcDbCircle
10
254
20
35
40
0.05
0
CIRCLE
5
4C5
100
AcDbEntity
8
KT_conn
6
ByLayer
62
256
370
-1
100
AcDbCircle
10
254
20
30
40
0.05
0
CIRCLE
5
4C6
100
AcDbEntity
8
KT_conn
6
ByLayer
62
256
370
-1
100
AcDbCircle
10
254
20
25
40
0.05
0
CIRCLE
5
4C7
100
AcDbEntity
8
KT_conn
6
ByLayer
62
256
370
-1
100
AcDbCircle
10
254
20
20
40
0.05
0
CIRCLE
5
4C8
100
AcDbEntity
8
KT_conn
6
ByLayer
62
256
370
-1
100
AcDbCircle
10
254
20
15
40
0.05
0
CIRCLE
5
4C9
100
AcDbEntity
8
KT_conn
6
ByLayer
62
256
370
-1
100
AcDbCircle
10
254
20
10
40
0.05
0
CIRCLE
5
4CA
100
AcDbEntity
8
KT_conn
6
ByLayer
62
256
370
-1
100
AcDbCircle
10
254
20
5
40
0.05
0
CIRCLE
5
4CB
100
AcDbEntity
8
KT_conn
6
ByLayer
62
256
370
-1
100
AcDbCircle
10
254
20
47.7033607976
40
0.05
0
CIRCLE
5
4CC
100
AcDbEntity
8
KT_conn
6
ByLayer
62
256
370
-1
100
AcDbCircle
10
254
20
2
40
0.05
0
CIRCLE
5
4CD
100
AcDbEntity
8
KT_conn
6
ByLayer
62
256
370
-1
100
AcDbCircle
10
254
20
-15
40
0.05
0
CIRCLE
5
4CE
100
AcDbEntity
8
KT_conn
6
ByLayer
62
256
370
-1
100
AcDbCircle
10
254
20
-20
40
0.05
0
CIRCLE
5
4CF
100
AcDbEntity
8
KT_conn
6
ByLayer
62
256
370
-1
100
AcDbCircle
10
254
20
-25
40
0.05
0
CIRCLE
5
4D0
100
AcDbEntity
8
KT_conn
6
ByLayer
62
256
370
-1
100
AcDbCircle
10
254
20
-30
40
0.05
0
CIRCLE
5
4D1
100
AcDbEntity
8
KT_conn
6
ByLayer
62
256
370
-1
100
AcDbCircle
10
254
20
-35
40
0.05
0
CIRCLE
5
4D2
100
AcDbEntity
8
KT_conn
6
ByLayer
62
256
370
-1
100
AcDbCircle
10
254
20
-40
40
0.05
0
CIRCLE
5
4D3
100
AcDbEntity
8
KT_conn
6
ByLayer
62
256
370
-1
100
AcDbCircle
10
254
20
-45
40
0.05
0
CIRCLE
5
4D4
100
AcDbEntity
8
KT_conn
6
ByLayer
62
256
370
-1
100
AcDbCircle
10
254
20
-50
40
0.05
0
CIRCLE
5
4D5
100
AcDbEntity
8
KT_conn
6
ByLayer
62
256
370
-1
100
AcDbCircle
10
254
20
-55
40
0.05
0
CIRCLE
5
4D6
100
AcDbEntity
8
KT_conn
6
ByLayer
62
256
370
-1
100
AcDbCircle
10
254
20
-60
40
0.05
0
CIRCLE
5
4D7
100
AcDbEntity
8
KT_conn
6
ByLayer
62
256
370
-1
100
AcDbCircle
10
254
20
-65
40
0.05
0
CIRCLE
5
4D8
100
AcDbEntity
8
KT_conn
6
ByLayer
62
256
370
-1
100
AcDbCircle
10
254
20
-70
40
0.05
0
CIRCLE
5
4D9
100
AcDbEntity
8
KT_conn
6
ByLayer
62
256
370
-1
100
AcDbCircle
10
254
20
-75
40
0.05
0
CIRCLE
5
4DA
100
AcDbEntity
8
KT_conn
6
ByLayer
62
256
370
-1
100
AcDbCircle
10
254
20
-80
40
0.05
0
CIRCLE
5
4DB
100
AcDbEntity
8
KT_conn
6
ByLayer
62
256
370
-1
100
AcDbCircle
10
254
20
-85
40
0.05
0
CIRCLE
5
4DC
100
AcDbEntity
8
KT_conn
6
ByLayer
62
256
370
-1
100
AcDbCircle
10
254
20
-90
40
0.05
0
CIRCLE
5
4DD
100
AcDbEntity
8
KT_conn
6
ByLayer
62
256
370
-1
100
AcDbCircle
10
254
20
-95
40
0.05
0
LINE
5
4DE
100
AcDbEntity
8
bottom
6
ByLayer
62
256
370
-1
100
AcDbLine
10
280
20
-10
11
280
21
-12
0
LINE
5
4DF
100
AcDbEntity
8
bottom
6
ByLayer
62
256
370
-1
100
AcDbLine
10
280
20
-98
11
280
21
-100
0
LINE
5
4E0
100
AcDbEntity
8
bottom
6
ByLayer
62
256
370
-1
100
AcDbLine
10
502
20
-10
11
502
21
-12
0
LINE
5
4E1
100
AcDbEntity
8
bottom
6
ByLayer
62
256
370
-1
100
AcDbLine
10
502
20
-98
11
502
21
-100
0
LINE
5
4E2
100
AcDbEntity
8
side
6
ByLayer
62
256
370
-1
100
AcDbLine
10
280
20
2
11
280
21
-2.4492935983e-15
0
LINE
5
4E3
100
AcDbEntity
8
side
6
ByLayer
62
256
370
-1
100
AcDbLine
10
502
20
2
11
502
21
1.95943487864e-15
0
LINE
5
4E4
100
AcDbEntity
8
bottom
6
ByLayer
62
256
370
-1
100
AcDbLine
10
280
20
-12
11
306.5
21
-12
0
LINE
5
4E5
100
AcDbEntity
8
bottom
6
ByLayer
62
256
370
-1
100
AcDbLine
10
280
20
-12
11
306.5
21
-12
0
LINE
5
4E6
100
AcDbEntity
8
bottom
6
ByLayer
62
256
370
-1
100
AcDbLine
10
280
20
-98
11
306.5
21
-98
0
LINE
5
4E7
100
AcDbEntity
8
bottom
6
ByLayer
62
256
370
-1
100
AcDbLine
10
306.5
20
-98
11
280
21
-98
0
LINE
5
4E8
100
AcDbEntity
8
bottom
6
ByLayer
62
256
370
-1
100
AcDbLine
10
481.5
20
-98
11
502
21
-98
0
LINE
5
4E9
100
AcDbEntity
8
bottom
6
ByLayer
62
256
370
-1
100
AcDbLine
10
481.5
20
-98
11
502
21
-98
0
LINE
5
4EA
100
AcDbEntity
8
bottom
6
ByLayer
62
256
370
-1
100
AcDbLine
10
481.5
20
-12
11
502
21
-12
0
LINE
5
4EB
100
AcDbEntity
8
bottom
6
ByLayer
62
256
370
-1
100
AcDbLine
10
481.5
20
-12
11
502
21
-12
0
LINE
5
4EC
100
AcDbEntity
8
side
6
ByLayer
62
256
370
-1
100
AcDbLine
10
481.5
20
0
11
502
21
-3.29249303377e-16
0
LINE
5
4ED
100
AcDbEntity
8
side
6
ByLayer
62
256
370
-1
100
AcDbLine
10
280
20
0
11
306.5
21
0
0
LINE
5
4EE
100
AcDbEntity
8
side
6
ByLayer
62
256
370
-1
100
AcDbLine
10
275
20
2
11
280
21
2
0
LINE
5
4EF
100
AcDbEntity
8
side
6
ByLayer
62
256
370
-1
100
AcDbLine
10
502
20
2
11
507
21
2
0
LINE
5
4F0
100
AcDbEntity
8
KT-help
6
ByLayer
62
256
370
-1
100
AcDbLine
10
0
20
0
11
0
21
45
0
LINE
5
4F1
100
AcDbEntity
8
KT-help
6
ByLayer
62
256
370
-1
100
AcDbLine
10
254
20
50
11
254
21
0
0
LINE
5
4F2
100
AcDbEntity
8
KT-help
6
ByLayer
62
256
370
-1
100
AcDbLine
10
254
20
49.7037037037
11
0
21
45
0
LINE
5
4F3
100
AcDbEntity
8
KT-help
6
ByLayer
62
256
370
-1
100
AcDbLine
10
0
20
0
11
254
21
0
0
LINE
5
4F4
100
AcDbEntity
8
KT
6
ByLayer
62
256
370
-1
100
AcDbLine
10
0
20
50.5009429919
11
-0
21
-5.5
0
LINE
5
4F5
100
AcDbEntity
8
KT-help
6
ByLayer
62
256
370
-1
100
AcDbLine
10
0
20
-20
11
0
21
-110
0
LINE
5
4F6
100
AcDbEntity
8
KT-help
6
ByLayer
62
256
370
-1
100
AcDbLine
10
0
20
-110
11
254
21
-110
0
LINE
5
4F7
100
AcDbEntity
8
KT-help
6
ByLayer
62
256
370
-1
100
AcDbLine
10
0
20
-20
11
254
21
-20
0
LINE
5
4F8
100
AcDbEntity
8
KT-help
6
ByLayer
62
256
370
-1
100
AcDbLine
10
254
20
-20
11
254
21
-110
0
LINE
5
4F9
100
AcDbEntity
8
KT-help
6
ByLayer
62
256
370
-1
100
AcDbLine
10
100
20
-115.5
11
100
21
52.3527948437
0
LINE
5
4FA
100
AcDbEntity
8
KT-help
6
ByLayer
62
256
370
-1
100
AcDbLine
10
150
20
-115.5
11
150
21
53.2787207696
0
LINE
5
4FB
100
AcDbEntity
8
KT-help
6
ByLayer
62
256
370
-1
100
AcDbLine
10
200
20
-115.5
11
200
21
54.2046466956
0
LINE
5
4FC
100
AcDbEntity
8
KT
6
ByLayer
62
256
370
-1
100
AcDbLine
10
0
20
-20
11
50
21
-20
0
LINE
5
4FD
100
AcDbEntity
8
KT
6
ByLayer
62
256
370
-1
100
AcDbLine
10
50
20
-20
11
50
21
-14.5
0
LINE
5
4FE
100
AcDbEntity
8
KT
6
ByLayer
62
256
370
-1
100
AcDbLine
10
50
20
-14.5
11
100
21
-14.5
0
LINE
5
4FF
100
AcDbEntity
8
KT
6
ByLayer
62
256
370
-1
100
AcDbLine
10
100
20
-14.5
11
100
21
-20
0
LINE
5
500
100
AcDbEntity
8
KT
6
ByLayer
62
256
370
-1
100
AcDbLine
10
100
20
-20
11
150
21
-20
0
LINE
5
501
100
AcDbEntity
8
KT
6
ByLayer
62
256
370
-1
100
AcDbLine
10
150
20
-20
11
150
21
-14.5
0
LINE
5
502
100
AcDbEntity
8
KT
6
ByLayer
62
256
370
-1
100
AcDbLine
10
150
20
-14.5
11
200
21
-14.5
0
LINE
5
503
100
AcDbEntity
8
KT
6
ByLayer
62
256
370
-1
100
AcDbLine
10
200
20
-14.5
11
200
21
-20
0
LINE
5
504
100
AcDbEntity
8
KT
6
ByLayer
62
256
370
-1
100
AcDbLine
10
200
20
-20
11
254
21
-20
0
LINE
5
505
100
AcDbEntity
8
KT
6
ByLayer
62
256
370
-1
100
AcDbLine
10
0
20
-110
11
50
21
-110
0
LINE
5
506
100
AcDbEntity
8
KT
6
ByLayer
62
256
370
-1
100
AcDbLine
10
50
20
-110
11
50
21
-115.5
0
LINE
5
507
100
AcDbEntity
8
KT
6
ByLayer
62
256
370
-1
100
AcDbLine
10
50
20
-115.5
11
100
21
-115.5
0
LINE
5
508
100
AcDbEntity
8
KT
6
ByLayer
62
256
370
-1
100
AcDbLine
10
100
20
-115.5
11
100
21
-110
0
LINE
5
509
100
AcDbEntity
8
KT
6
ByLayer
62
256
370
-1
100
AcDbLine
10
100
20
-110
11
150
21
-110
0
LINE
5
50A
100
AcDbEntity
8
KT
6
ByLayer
62
256
370
-1
100
AcDbLine
10
150
20
-110
11
150
21
-115.5
0
LINE
5
50B
100
AcDbEntity
8
KT
6
ByLayer
62
256
370
-1
100
AcDbLine
10
150
20
-115.5
11
200
21
-115.5
0
LINE
5
50C
100
AcDbEntity
8
KT
6
ByLayer
62
256
370
-1
100
AcDbLine
10
200
20
-115.5
11
200
21
-110
0
LINE
5
50D
100
AcDbEntity
8
KT
6
ByLayer
62
256
370
-1
100
AcDbLine
10
200
20
-110
11
254
21
-110
0
LINE
5
50E
100
AcDbEntity
8
KT
6
ByLayer
62
256
370
-1
100
AcDbLine
10
-0
20
-5.5
11
50
21
-5.5
0
LINE
5
50F
100
AcDbEntity
8
KT
6
ByLayer
62
256
370
-1
100
AcDbLine
10
50
20
-5.5
11
50
21
0
0
LINE
5
510
100
AcDbEntity
8
KT
6
ByLayer
62
256
370
-1
100
AcDbLine
10
50
20
0
11
100
21
0
0
LINE
5
511
100
AcDbEntity
8
KT
6
ByLayer
62
256
370
-1
100
AcDbLine
10
100
20
0
11
100
21
-5.5
0
LINE
5
512
100
AcDbEntity
8
KT
6
ByLayer
62
256
370
-1
100
AcDbLine
10
100
20
-5.5
11
150
21
-5.5
0
LINE
5
513
100
AcDbEntity
8
KT
6
ByLayer
62
256
370
-1
100
AcDbLine
10
150
20
-5.5
11
150
21
0
0
LINE
5
514
100
AcDbEntity
8
KT
6
ByLayer
62
256
370
-1
100
AcDbLine
10
150
20
0
11
200
21
0
0
LINE
5
515
100
AcDbEntity
8
KT
6
ByLayer
62
256
370
-1
100
AcDbLine
10
200
20
0
11
200
21
-5.5
0
LINE
5
516
100
AcDbEntity
8
KT
6
ByLayer
62
256
370
-1
100
AcDbLine
10
200
20
-5.5
11
254
21
-5.5
0
LINE
5
517
100
AcDbEntity
8
KT
6
ByLayer
62
256
370
-1
100
AcDbLine
10
2.63420313975e-16
20
-20
11
-9.36976053506e-16
21
-110
0
LINE
5
518
100
AcDbEntity
8
KT
6
ByLayer
62
256
370
-1
100
AcDbLine
10
254
20
-20
11
254
21
-110
0
LINE
5
519
100
AcDbEntity
8
KT-help
6
ByLayer
62
256
370
-1
100
AcDbLine
10
0
20
-130
11
0
21
-220
0
LINE
5
51A
100
AcDbEntity
8
KT-help
6
ByLayer
62
256
370
-1
100
AcDbLine
10
0
20
-130
11
254
21
-130
0
LINE
5
51B
100
AcDbEntity
8
KT-help
6
ByLayer
62
256
370
-1
100
AcDbLine
10
0
20
-220
11
254
21
-220
0
LINE
5
51C
100
AcDbEntity
8
KT-help
6
ByLayer
62
256
370
-1
100
AcDbLine
10
254
20
-130
11
254
21
-220
0
LINE
5
51D
100
AcDbEntity
8
KT
6
ByLayer
62
256
370
-1
100
AcDbLine
10
254
20
-124.5
11
254
21
-225.5
0
LINE
5
51E
100
AcDbEntity
8
KT-help
6
ByLayer
62
256
370
-1
100
AcDbLine
10
40
20
-225.5
11
40
21
51.2416837326
0
LINE
5
51F
100
AcDbEntity
8
KT-help
6
ByLayer
62
256
370
-1
100
AcDbLine
10
30
20
-225.5
11
30
21
51.0564985474
0
LINE
5
520
100
AcDbEntity
8
KT
6
ByLayer
62
256
370
-1
100
AcDbLine
10
0
20
-130
11
30
21
-130
0
LINE
5
521
100
AcDbEntity
8
KT
6
ByLayer
62
256
370
-1
100
AcDbLine
10
30
20
-130
11
30
21
-124.5
0
LINE
5
522
100
AcDbEntity
8
KT
6
ByLayer
62
256
370
-1
100
AcDbLine
10
30
20
-124.5
11
40
21
-124.5
0
LINE
5
523
100
AcDbEntity
8
KT
6
ByLayer
62
256
370
-1
100
AcDbLine
10
40
20
-124.5
11
40
21
-130
0
LINE
5
524
100
AcDbEntity
8
KT
6
ByLayer
62
256
370
-1
100
AcDbLine
10
0
20
-220
11
30
21
-220
0
LINE
5
525
100
AcDbEntity
8
KT
6
ByLayer
62
256
370
-1
100
AcDbLine
10
30
20
-220
11
30
21
-225.5
0
LINE
5
526
100
AcDbEntity
8
KT
6
ByLayer
62
256
370
-1
100
AcDbLine
10
30
20
-225.5
11
40
21
-225.5
0
LINE
5
527
100
AcDbEntity
8
KT
6
ByLayer
62
256
370
-1
100
AcDbLine
10
40
20
-225.5
11
40
21
-220
0
LINE
5
528
100
AcDbEntity
8
KT
6
ByLayer
62
256
370
-1
100
AcDbLine
10
30
20
51.0564985474
11
30
21
45.5555555556
0
LINE
5
529
100
AcDbEntity
8
KT
6
ByLayer
62
256
370
-1
100
AcDbLine
10
30
20
45.5555555556
11
40
21
45.7407407407
0
LINE
5
52A
100
AcDbEntity
8
KT
6
ByLayer
62
256
370
-1
100
AcDbLine
10
40
20
45.7407407407
11
40
21
51.2416837326
0
LINE
5
52B
100
AcDbEntity
8
KT-help
6
ByLayer
62
256
370
-1
100
AcDbLine
10
50
20
-225.5
11
50
21
51.4268689178
0
LINE
5
52C
100
AcDbEntity
8
KT
6
ByLayer
62
256
370
-1
100
AcDbLine
10
50
20
-124.5
11
50
21
-225.5
0
LINE
5
52D
100
AcDbEntity
8
KT
6
ByLayer
62
256
370
-1
100
AcDbLine
10
50
20
-124.5
11
254
21
-124.5
0
LINE
5
52E
100
AcDbEntity
8
KT
6
ByLayer
62
256
370
-1
100
AcDbLine
10
50
20
-225.5
11
254
21
-225.5
0
LINE
5
52F
100
AcDbEntity
8
KT
6
ByLayer
62
256
370
-1
100
AcDbLine
10
40
20
-130
11
50
21
-130
0
LINE
5
530
100
AcDbEntity
8
KT
6
ByLayer
62
256
370
-1
100
AcDbLine
10
40
20
-220
11
50
21
-220
0
LINE
5
531
100
AcDbEntity
8
KT
6
ByLayer
62
256
370
-1
100
AcDbLine
10
2.63420313975e-16
20
-130
11
-9.36976053506e-16
21
-220
0
LINE
5
532
100
AcDbEntity
8
KT
6
ByLayer
62
256
370
-1
100
AcDbLine
10
0
20
50.5009429919
11
30
21
51.0564985474
0
LINE
5
533
100
AcDbEntity
8
KT
6
ByLayer
62
256
370
-1
100
AcDbLine
10
50
20
51.4268689178
11
50
21
45.9259259259
0
LINE
5
534
100
AcDbEntity
8
KT
6
ByLayer
62
256
370
-1
100
AcDbLine
10
50
20
45.9259259259
11
254
21
50
0
LINE
5
535
100
AcDbEntity
8
KT
6
ByLayer
62
256
370
-1
100
AcDbLine
10
40
20
51.2416837326
11
50
21
51.4268689178
0
LINE
5
536
100
AcDbEntity
8
KT
6
ByLayer
62
256
370
-1
100
AcDbLine
10
254
20
50
11
254
21
-5.5
0
LINE
5
537
100
AcDbEntity
8
KT-help
6
ByLayer
62
256
370
-1
100
AcDbLine
10
50
20
-135.5
11
254
21
-135.5
0
LINE
5
538
100
AcDbEntity
8
KT-help
6
ByLayer
62
256
370
-1
100
AcDbLine
10
50
20
-214.5
11
254
21
-214.5
0
LINE
5
539
100
AcDbEntity
8
KT-help
6
ByLayer
62
256
370
-1
100
AcDbLine
10
254
20
-290
11
50
21
-290
0
LINE
5
53A
100
AcDbEntity
8
KT-help
6
ByLayer
62
256
370
-1
100
AcDbLine
10
80
20
-290
11
80
21
-124.5
0
LINE
5
53B
100
AcDbEntity
8
KT-help
6
ByLayer
62
256
370
-1
100
AcDbLine
10
100
20
-290
11
100
21
-124.5
0
LINE
5
53C
100
AcDbEntity
8
KT-help
6
ByLayer
62
256
370
-1
100
AcDbLine
10
140
20
-290
11
140
21
-124.5
0
LINE
5
53D
100
AcDbEntity
8
KT-help
6
ByLayer
62
256
370
-1
100
AcDbLine
10
160
20
-290
11
160
21
-124.5
0
LINE
5
53E
100
AcDbEntity
8
KT-help
6
ByLayer
62
256
370
-1
100
AcDbLine
10
254
20
-284.5
11
50
21
-284.5
0
LINE
5
53F
100
AcDbEntity
8
KT
6
ByLayer
62
256
370
-1
100
AcDbLine
10
80
20
-130
11
100
21
-130
0
LINE
5
540
100
AcDbEntity
8
KT
6
ByLayer
62
256
370
-1
100
AcDbLine
10
100
20
-130
11
100
21
-135.5
0
LINE
5
541
100
AcDbEntity
8
KT
6
ByLayer
62
256
370
-1
100
AcDbLine
10
100
20
-135.5
11
80
21
-135.5
0
LINE
5
542
100
AcDbEntity
8
KT
6
ByLayer
62
256
370
-1
100
AcDbLine
10
80
20
-135.5
11
80
21
-130
0
LINE
5
543
100
AcDbEntity
8
KT
6
ByLayer
62
256
370
-1
100
AcDbLine
10
140
20
-130
11
160
21
-130
0
LINE
5
544
100
AcDbEntity
8
KT
6
ByLayer
62
256
370
-1
100
AcDbLine
10
160
20
-130
11
160
21
-135.5
0
LINE
5
545
100
AcDbEntity
8
KT
6
ByLayer
62
256
370
-1
100
AcDbLine
10
160
20
-135.5
11
140
21
-135.5
0
LINE
5
546
100
AcDbEntity
8
KT
6
ByLayer
62
256
370
-1
100
AcDbLine
10
140
20
-135.5
11
140
21
-130
0
LINE
5
547
100
AcDbEntity
8
KT
6
ByLayer
62
256
370
-1
100
AcDbLine
10
195
20
-130
11
215
21
-130
0
LINE
5
548
100
AcDbEntity
8
KT
6
ByLayer
62
256
370
-1
100
AcDbLine
10
215
20
-130
11
215
21
-135.5
0
LINE
5
549
100
AcDbEntity
8
KT
6
ByLayer
62
256
370
-1
100
AcDbLine
10
215
20
-135.5
11
195
21
-135.5
0
LINE
5
54A
100
AcDbEntity
8
KT
6
ByLayer
62
256
370
-1
100
AcDbLine
10
195
20
-135.5
11
195
21
-130
0
LINE
5
54B
100
AcDbEntity
8
KT
6
ByLayer
62
256
370
-1
100
AcDbLine
10
80
20
-214.5
11
100
21
-214.5
0
LINE
5
54C
100
AcDbEntity
8
KT
6
ByLayer
62
256
370
-1
100
AcDbLine
10
100
20
-214.5
11
100
21
-220
0
LINE
5
54D
100
AcDbEntity
8
KT
6
ByLayer
62
256
370
-1
100
AcDbLine
10
100
20
-220
11
80
21
-220
0
LINE
5
54E
100
AcDbEntity
8
KT
6
ByLayer
62
256
370
-1
100
AcDbLine
10
80
20
-220
11
80
21
-214.5
0
LINE
5
54F
100
AcDbEntity
8
KT
6
ByLayer
62
256
370
-1
100
AcDbLine
10
140
20
-214.5
11
160
21
-214.5
0
LINE
5
550
100
AcDbEntity
8
KT
6
ByLayer
62
256
370
-1
100
AcDbLine
10
160
20
-214.5
11
160
21
-220
0
LINE
5
551
100
AcDbEntity
8
KT
6
ByLayer
62
256
370
-1
100
AcDbLine
10
160
20
-220
11
140
21
-220
0
LINE
5
552
100
AcDbEntity
8
KT
6
ByLayer
62
256
370
-1
100
AcDbLine
10
140
20
-220
11
140
21
-214.5
0
LINE
5
553
100
AcDbEntity
8
KT
6
ByLayer
62
256
370
-1
100
AcDbLine
10
195
20
-214.5
11
215
21
-214.5
0
LINE
5
554
100
AcDbEntity
8
KT
6
ByLayer
62
256
370
-1
100
AcDbLine
10
215
20
-214.5
11
215
21
-220
0
LINE
5
555
100
AcDbEntity
8
KT
6
ByLayer
62
256
370
-1
100
AcDbLine
10
215
20
-220
11
195
21
-220
0
LINE
5
556
100
AcDbEntity
8
KT
6
ByLayer
62
256
370
-1
100
AcDbLine
10
195
20
-220
11
195
21
-214.5
0
LINE
5
557
100
AcDbEntity
8
KT
6
ByLayer
62
256
370
-1
100
AcDbLine
10
50
20
-290
11
80
21
-290
0
LINE
5
558
100
AcDbEntity
8
KT
6
ByLayer
62
256
370
-1
100
AcDbLine
10
80
20
-290
11
80
21
-284.5
0
LINE
5
559
100
AcDbEntity
8
KT
6
ByLayer
62
256
370
-1
100
AcDbLine
10
80
20
-284.5
11
100
21
-284.5
0
LINE
5
55A
100
AcDbEntity
8
KT
6
ByLayer
62
256
370
-1
100
AcDbLine
10
100
20
-284.5
11
100
21
-290
0
LINE
5
55B
100
AcDbEntity
8
KT
6
ByLayer
62
256
370
-1
100
AcDbLine
10
100
20
-290
11
140
21
-290
0
LINE
5
55C
100
AcDbEntity
8
KT
6
ByLayer
62
256
370
-1
100
AcDbLine
10
140
20
-290
11
140
21
-284.5
0
LINE
5
55D
100
AcDbEntity
8
KT
6
ByLayer
62
256
370
-1
100
AcDbLine
10
140
20
-284.5
11
160
21
-284.5
0
LINE
5
55E
100
AcDbEntity
8
KT
6
ByLayer
62
256
370
-1
100
AcDbLine
10
160
20
-284.5
11
160
21
-290
0
LINE
5
55F
100
AcDbEntity
8
KT
6
ByLayer
62
256
370
-1
100
AcDbLine
10
160
20
-290
11
195
21
-290
0
LINE
5
560
100
AcDbEntity
8
KT
6
ByLayer
62
256
370
-1
100
AcDbLine
10
195
20
-290
11
195
21
-284.5
0
LINE
5
561
100
AcDbEntity
8
KT
6
ByLayer
62
256
370
-1
100
AcDbLine
10
195
20
-284.5
11
215
21
-284.5
0
LINE
5
562
100
AcDbEntity
8
KT
6
ByLayer
62
256
370
-1
100
AcDbLine
10
215
20
-284.5
11
215
21
-290
0
LINE
5
563
100
AcDbEntity
8
KT-help
6
ByLayer
62
256
370
-1
100
AcDbLine
10
50
20
-285
11
50
21
-295
0
LINE
5
564
100
AcDbEntity
8
KT-help
6
ByLayer
62
256
370
-1
100
AcDbLine
10
50
20
-295
11
254
21
-295
0
LINE
5
565
100
AcDbEntity
8
KT-help
6
ByLayer
62
256
370
-1
100
AcDbLine
10
254
20
-295
11
254
21
-285
0
LINE
5
566
100
AcDbEntity
8
KT-help
6
ByLayer
62
256
370
-1
100
AcDbLine
10
215
20
-295
11
215
21
-119.5
0
ARC
5
567
100
AcDbEntity
8
KT
6
ByLayer
62
256
370
-1
100
AcDbCircle
10
170.505102572
20
-300
40
5
100
AcDbArc
50
11.5369590328
51
90
0
ARC
5
568
100
AcDbEntity
8
KT
6
ByLayer
62
256
370
-1
100
AcDbCircle
10
195
20
-295
40
20
100
AcDbArc
50
191.537165902
51
0
0
LINE
5
569
100
AcDbEntity
8
KT
6
ByLayer
62
256
370
-1
100
AcDbLine
10
170.505099875
20
-295
11
50
21
-295
0
LINE
5
56A
100
AcDbEntity
8
KT-help
6
ByLayer
62
256
370
-1
100
AcDbLine
10
160
20
-305
11
254
21
-305
0
LINE
5
56B
100
AcDbEntity
8
KT-help
6
ByLayer
62
256
370
-1
100
AcDbLine
10
195
20
-305
11
195
21
-119.5
0
CIRCLE
5
56C
100
AcDbEntity
8
KT
6
ByLayer
62
256
370
-1
100
AcDbCircle
10
195
20
-305
40
1
0
LINE
5
56D
100
AcDbEntity
8
KT-help
6
ByLayer
62
256
370
-1
100
AcDbLine
10
195
20
-295
11
195
21
53.6111111111
0
LINE
5
56E
100
AcDbEntity
8
KT-help
6
ByLayer
62
256
370
-1
100
AcDbLine
10
195
20
-304.5
11
215
21
-304.5
0
LINE
5
56F
100
AcDbEntity
8
KT
6
ByLayer
62
256
370
-1
100
AcDbLine
10
50
20
-295
11
50
21
-290
0
LINE
5
570
100
AcDbEntity
8
KT
6
ByLayer
62
256
370
-1
100
AcDbLine
10
215
20
-290
11
215
21
-295
0
LINE
5
571
100
AcDbEntity
8
KT-help
6
ByLayer
62
256
370
-1
100
AcDbLine
10
254.27773016
20
34.7062750588
11
0.27773016009
21
30.0025713551
0
CIRCLE
5
572
100
AcDbEntity
8
KT
6
ByLayer
62
256
370
-1
100
AcDbCircle
10
195
20
33.6085393151
40
1
0
LINE
5
573
100
AcDbEntity
8
motor-help
6
ByLayer
62
256
370
-1
100
AcDbLine
10
-200
20
56
11
-99
21
56
0
LINE
5
574
100
AcDbEntity
8
motor-help
6
ByLayer
62
256
370
-1
100
AcDbLine
10
-200
20
0
11
-99
21
0
0
LINE
5
575
100
AcDbEntity
8
motor-help
6
ByLayer
62
256
370
-1
100
AcDbLine
10
-99
20
56
11
-99
21
-2.47378653428e-14
0
LINE
5
576
100
AcDbEntity
8
motor-help
6
ByLayer
62
256
370
-1
100
AcDbLine
10
-200
20
56
11
-200
21
0
0
LINE
5
577
100
AcDbEntity
8
motor-help
6
ByLayer
62
256
370
-1
100
AcDbLine
10
-194.5
20
56
11
-194.5
21
-1.34711147906e-15
0
LINE
5
578
100
AcDbEntity
8
motor-help
6
ByLayer
62
256
370
-1
100
AcDbLine
10
-104.5
20
56
11
-104.5
21
-2.27171981242e-14
0
LINE
5
579
100
AcDbEntity
8
motor-help
6
ByLayer
62
256
370
-1
100
AcDbLine
10
-200
20
50.5
11
-99
21
50.5
0
LINE
5
57A
100
AcDbEntity
8
motor-help
6
ByLayer
62
256
370
-1
100
AcDbLine
10
-200
20
5.5
11
-99
21
5.5
0
LINE
5
57B
100
AcDbEntity
8
motor
6
ByLayer
62
256
370
-1
100
AcDbLine
10
-194.5
20
50.5
11
-104.5
21
50.5
0
LINE
5
57C
100
AcDbEntity
8
motor
6
ByLayer
62
256
370
-1
100
AcDbLine
10
-104.5
20
5.5
11
-194.5
21
5.5
0
LINE
5
57D
100
AcDbEntity
8
KT-help
6
ByLayer
62
256
370
-1
100
AcDbLine
10
0
20
80
11
0
21
125
0
LINE
5
57E
100
AcDbEntity
8
KT-help
6
ByLayer
62
256
370
-1
100
AcDbLine
10
254
20
130
11
254
21
80
0
LINE
5
57F
100
AcDbEntity
8
KT-help
6
ByLayer
62
256
370
-1
100
AcDbLine
10
254
20
129.703703704
11
0
21
125
0
LINE
5
580
100
AcDbEntity
8
KT-help
6
ByLayer
62
256
370
-1
100
AcDbLine
10
0
20
80
11
254
21
80
0
LINE
5
581
100
AcDbEntity
8
KT
6
ByLayer
62
256
370
-1
100
AcDbLine
10
0
20
130.500942992
11
0
21
74.5
0
LINE
5
582
100
AcDbEntity
8
KT-help
6
ByLayer
62
256
370
-1
100
AcDbLine
10
100
20
-35.5
11
100
21
132.352794844
0
LINE
5
583
100
AcDbEntity
8
KT-help
6
ByLayer
62
256
370
-1
100
AcDbLine
10
150
20
-35.5
11
150
21
133.27872077
0
LINE
5
584
100
AcDbEntity
8
KT-help
6
ByLayer
62
256
370
-1
100
AcDbLine
10
200
20
-35.5
11
200
21
134.204646696
0
LINE
5
585
100
AcDbEntity
8
KT
6
ByLayer
62
256
370
-1
100
AcDbLine
10
0
20
74.5
11
50
21
74.5
0
LINE
5
586
100
AcDbEntity
8
KT
6
ByLayer
62
256
370
-1
100
AcDbLine
10
50
20
74.5
11
50
21
80
0
LINE
5
587
100
AcDbEntity
8
KT
6
ByLayer
62
256
370
-1
100
AcDbLine
10
50
20
80
11
100
21
80
0
LINE
5
588
100
AcDbEntity
8
KT
6
ByLayer
62
256
370
-1
100
AcDbLine
10
100
20
80
11
100
21
74.5
0
LINE
5
589
100
AcDbEntity
8
KT
6
ByLayer
62
256
370
-1
100
AcDbLine
10
100
20
74.5
11
150
21
74.5
0
LINE
5
58A
100
AcDbEntity
8
KT
6
ByLayer
62
256
370
-1
100
AcDbLine
10
150
20
74.5
11
150
21
80
0
LINE
5
58B
100
AcDbEntity
8
KT
6
ByLayer
62
256
370
-1
100
AcDbLine
10
150
20
80
11
200
21
80
0
LINE
5
58C
100
AcDbEntity
8
KT
6
ByLayer
62
256
370
-1
100
AcDbLine
10
200
20
80
11
200
21
74.5
0
LINE
5
58D
100
AcDbEntity
8
KT
6
ByLayer
62
256
370
-1
100
AcDbLine
10
200
20
74.5
11
254
21
74.5
0
LINE
5
58E
100
AcDbEntity
8
KT-help
6
ByLayer
62
256
370
-1
100
AcDbLine
10
40
20
-145.5
11
40
21
131.241683733
0
LINE
5
58F
100
AcDbEntity
8
KT-help
6
ByLayer
62
256
370
-1
100
AcDbLine
10
30
20
-145.5
11
30
21
131.056498547
0
LINE
5
590
100
AcDbEntity
8
KT
6
ByLayer
62
256
370
-1
100
AcDbLine
10
30
20
131.056498547
11
30
21
125.555555556
0
LINE
5
591
100
AcDbEntity
8
KT
6
ByLayer
62
256
370
-1
100
AcDbLine
10
30
20
125.555555556
11
40
21
125.740740741
0
LINE
5
592
100
AcDbEntity
8
KT
6
ByLayer
62
256
370
-1
100
AcDbLine
10
40
20
125.740740741
11
40
21
131.241683733
0
LINE
5
593
100
AcDbEntity
8
KT-help
6
ByLayer
62
256
370
-1
100
AcDbLine
10
50
20
-145.5
11
50
21
131.426868918
0
LINE
5
594
100
AcDbEntity
8
KT
6
ByLayer
62
256
370
-1
100
AcDbLine
10
0
20
130.500942992
11
30
21
131.056498547
0
LINE
5
595
100
AcDbEntity
8
KT
6
ByLayer
62
256
370
-1
100
AcDbLine
10
50
20
131.426868918
11
50
21
125.925925926
0
LINE
5
596
100
AcDbEntity
8
KT
6
ByLayer
62
256
370
-1
100
AcDbLine
10
50
20
125.925925926
11
254
21
130
0
LINE
5
597
100
AcDbEntity
8
KT
6
ByLayer
62
256
370
-1
100
AcDbLine
10
40
20
131.241683733
11
50
21
131.426868918
0
LINE
5
598
100
AcDbEntity
8
KT
6
ByLayer
62
256
370
-1
100
AcDbLine
10
254
20
130
11
254
21
74.5
0
LINE
5
599
100
AcDbEntity
8
KT-help
6
ByLayer
62
256
370
-1
100
AcDbLine
10
195
20
-215
11
195
21
133.611111111
0
LINE
5
59A
100
AcDbEntity
8
KT-help
6
ByLayer
62
256
370
-1
100
AcDbLine
10
254.27773016
20
114.706275059
11
0.27773016009
21
110.002571355
0
CIRCLE
5
59B
100
AcDbEntity
8
KT
6
ByLayer
62
256
370
-1
100
AcDbCircle
10
195
20
113.608539315
40
1
0
LINE
5
59C
100
AcDbEntity
8
KT-help
6
ByLayer
62
256
370
-1
100
AcDbLine
10
7
20
-220
11
10.1428692543
21
-130
0
LINE
5
59D
100
AcDbEntity
8
KT-help
6
ByLayer
62
256
370
-1
100
AcDbLine
10
5
20
-220
11
8.14286925426
21
-130
0
LINE
5
59E
100
AcDbEntity
8
KT-help
6
ByLayer
62
256
370
-1
100
AcDbLine
10
6.99595501669
20
50.6304977144
11
9.93762975196
21
-5.5
0
LINE
5
59F
100
AcDbEntity
8
KT-help
6
ByLayer
62
256
370
-1
100
AcDbLine
10
4.99515213277
20
50.5934458091
11
7.93488505996
21
-5.5
0
LINE
5
5A0
100
AcDbEntity
8
KT-help
6
ByLayer
62
256
370
-1
100
AcDbLine
10
8.13497488947
20
130.651590675
11
11.07775506
21
74.5
0
LINE
5
5A1
100
AcDbEntity
8
KT-help
6
ByLayer
62
256
370
-1
100
AcDbLine
10
7.93488505996
20
-5.5
11
9.93214412947
21
-5.39532808751
0
LINE
5
5A2
100
AcDbEntity
8
KT-help
6
ByLayer
62
256
370
-1
100
AcDbLine
10
7.12367773819
20
9.9787577887
11
9.1209368077
21
10.0834297012
0
LINE
5
5A3
100
AcDbEntity
8
KT-help
6
ByLayer
62
256
370
-1
100
AcDbLine
10
6.86199795698
20
14.9719054625
11
8.85925702649
21
15.076577375
0
LINE
5
5A4
100
AcDbEntity
8
KT-help
6
ByLayer
62
256
370
-1
100
AcDbLine
10
6.07695861334
20
29.9513484838
11
8.07421768284
21
30.0560203963
0
LINE
5
5A5
100
AcDbEntity
8
KT-help
6
ByLayer
62
256
370
-1
100
AcDbLine
10
5.81527883212
20
34.9444961576
11
7.81253790163
21
35.04916807
0
LINE
5
5A6
100
AcDbEntity
8
KT
6
ByLayer
62
256
370
-1
100
AcDbLine
10
5.81527883212
20
34.9444961576
11
7.81253790163
21
35.04916807
0
LINE
5
5A7
100
AcDbEntity
8
KT
6
ByLayer
62
256
370
-1
100
AcDbLine
10
7.81253790163
20
35.04916807
11
8.07421768284
21
30.0560203963
0
LINE
5
5A8
100
AcDbEntity
8
KT
6
ByLayer
62
256
370
-1
100
AcDbLine
10
8.07421768284
20
30.0560203963
11
6.07695861334
21
29.9513484838
0
LINE
5
5A9
100
AcDbEntity
8
KT
6
ByLayer
62
256
370
-1
100
AcDbLine
10
6.07695861334
20
29.9513484838
11
5.81527883212
21
34.9444961576
0
LINE
5
5AA
100
AcDbEntity
8
KT
6
ByLayer
62
256
370
-1
100
AcDbLine
10
6.86199795698
20
14.9719054625
11
8.85925702649
21
15.076577375
0
LINE
5
5AB
100
AcDbEntity
8
KT
6
ByLayer
62
256
370
-1
100
AcDbLine
10
8.85925702649
20
15.076577375
11
9.1209368077
21
10.0834297012
0
LINE
5
5AC
100
AcDbEntity
8
KT
6
ByLayer
62
256
370
-1
100
AcDbLine
10
9.1209368077
20
10.0834297012
11
7.12367773819
21
9.9787577887
0
LINE
5
5AD
100
AcDbEntity
8
KT
6
ByLayer
62
256
370
-1
100
AcDbLine
10
7.12367773819
20
9.9787577887
11
6.86199795698
21
14.9719054625
0
LINE
5
5AE
100
AcDbEntity
8
KT-help
6
ByLayer
62
256
370
-1
100
AcDbLine
10
10.1357777734
20
130.68864258
11
13.0774525087
21
74.5581448659
0
LINE
5
5AF
100
AcDbEntity
8
KT-help
6
ByLayer
62
256
370
-1
100
AcDbLine
10
8.13497488947
20
130.651590675
11
11.0747078167
21
74.5581448659
0
LINE
5
5B0
100
AcDbEntity
8
KT-help
6
ByLayer
62
256
370
-1
100
AcDbLine
10
10.2635004949
20
90.0369026546
11
12.2607595644
21
90.141574567
0
LINE
5
5B1
100
AcDbEntity
8
KT-help
6
ByLayer
62
256
370
-1
100
AcDbLine
10
10.0018207137
20
95.0300503283
11
11.9990797832
21
95.1347222408
0
LINE
5
5B2
100
AcDbEntity
8
KT-help
6
ByLayer
62
256
370
-1
100
AcDbLine
10
9.21678137004
20
110.00949335
11
11.2140404395
21
110.114165262
0
LINE
5
5B3
100
AcDbEntity
8
KT-help
6
ByLayer
62
256
370
-1
100
AcDbLine
10
8.95510158882
20
115.002641023
11
10.9523606583
21
115.107312936
0
LINE
5
5B4
100
AcDbEntity
8
KT
6
ByLayer
62
256
370
-1
100
AcDbLine
10
8.95510158882
20
115.002641023
11
10.9523606583
21
115.107312936
0
LINE
5
5B5
100
AcDbEntity
8
KT
6
ByLayer
62
256
370
-1
100
AcDbLine
10
10.9523606583
20
115.107312936
11
11.2140404395
21
110.114165262
0
LINE
5
5B6
100
AcDbEntity
8
KT
6
ByLayer
62
256
370
-1
100
AcDbLine
10
11.2140404395
20
110.114165262
11
9.21678137004
21
110.00949335
0
LINE
5
5B7
100
AcDbEntity
8
KT
6
ByLayer
62
256
370
-1
100
AcDbLine
10
9.21678137004
20
110.00949335
11
8.95510158882
21
115.002641023
0
LINE
5
5B8
100
AcDbEntity
8
KT
6
ByLayer
62
256
370
-1
100
AcDbLine
10
10.0018207137
20
95.0300503283
11
11.9990797832
21
95.1347222408
0
LINE
5
5B9
100
AcDbEntity
8
KT
6
ByLayer
62
256
370
-1
100
AcDbLine
10
11.9990797832
20
95.1347222408
11
12.2607595644
21
90.141574567
0
LINE
5
5BA
100
AcDbEntity
8
KT
6
ByLayer
62
256
370
-1
100
AcDbLine
10
12.2607595644
20
90.141574567
11
10.2635004949
21
90.0369026546
0
LINE
5
5BB
100
AcDbEntity
8
KT
6
ByLayer
62
256
370
-1
100
AcDbLine
10
10.2635004949
20
90.0369026546
11
10.0018207137
21
95.0300503283
0
LINE
5
5BC
100
AcDbEntity
8
motor-help
6
ByLayer
62
256
370
-1
100
AcDbLine
10
-200
20
15.5
11
-99
21
15.5
0
LINE
5
5BD
100
AcDbEntity
8
motor-help
6
ByLayer
62
256
370
-1
100
AcDbLine
10
-200
20
20.5
11
-99
21
20.5
0
LINE
5
5BE
100
AcDbEntity
8
motor-help
6
ByLayer
62
256
370
-1
100
AcDbLine
10
-200
20
35.5
11
-99
21
35.5
0
LINE
5
5BF
100
AcDbEntity
8
motor-help
6
ByLayer
62
256
370
-1
100
AcDbLine
10
-200
20
40.5
11
-99
21
40.5
0
LINE
5
5C0
100
AcDbEntity
8
motor
6
ByLayer
62
256
370
-1
100
AcDbLine
10
-104.5
20
50.5
11
-104.5
21
40.5
0
LINE
5
5C1
100
AcDbEntity
8
motor
6
ByLayer
62
256
370
-1
100
AcDbLine
10
-104.5
20
40.5
11
-99
21
40.5
0
LINE
5
5C2
100
AcDbEntity
8
motor
6
ByLayer
62
256
370
-1
100
AcDbLine
10
-99
20
40.5
11
-99
21
35.5
0
LINE
5
5C3
100
AcDbEntity
8
motor
6
ByLayer
62
256
370
-1
100
AcDbLine
10
-99
20
35.5
11
-104.5
21
35.5
0
LINE
5
5C4
100
AcDbEntity
8
motor
6
ByLayer
62
256
370
-1
100
AcDbLine
10
-104.5
20
35.5
11
-104.5
21
20.5
0
LINE
5
5C5
100
AcDbEntity
8
motor
6
ByLayer
62
256
370
-1
100
AcDbLine
10
-104.5
20
20.5
11
-99
21
20.5
0
LINE
5
5C6
100
AcDbEntity
8
motor
6
ByLayer
62
256
370
-1
100
AcDbLine
10
-99
20
20.5
11
-99
21
15.5
0
LINE
5
5C7
100
AcDbEntity
8
motor
6
ByLayer
62
256
370
-1
100
AcDbLine
10
-99
20
15.5
11
-104.5
21
15.5
0
LINE
5
5C8
100
AcDbEntity
8
motor
6
ByLayer
62
256
370
-1
100
AcDbLine
10
-104.5
20
15.5
11
-104.5
21
5.5
0
LINE
5
5C9
100
AcDbEntity
8
motor
6
ByLayer
62
256
370
-1
100
AcDbLine
10
-194.5
20
50.5
11
-194.5
21
40.5
0
LINE
5
5CA
100
AcDbEntity
8
motor
6
ByLayer
62
256
370
-1
100
AcDbLine
10
-194.5
20
40.5
11
-200
21
40.5
0
LINE
5
5CB
100
AcDbEntity
8
motor
6
ByLayer
62
256
370
-1
100
AcDbLine
10
-200
20
40.5
11
-200
21
35.5
0
LINE
5
5CC
100
AcDbEntity
8
motor
6
ByLayer
62
256
370
-1
100
AcDbLine
10
-200
20
35.5
11
-194.5
21
35.5
0
LINE
5
5CD
100
AcDbEntity
8
motor
6
ByLayer
62
256
370
-1
100
AcDbLine
10
-194.5
20
35.5
11
-194.5
21
20.5
0
LINE
5
5CE
100
AcDbEntity
8
motor
6
ByLayer
62
256
370
-1
100
AcDbLine
10
-194.5
20
20.5
11
-200
21
20.5
0
LINE
5
5CF
100
AcDbEntity
8
motor
6
ByLayer
62
256
370
-1
100
AcDbLine
10
-200
20
20.5
11
-200
21
15.5
0
LINE
5
5D0
100
AcDbEntity
8
motor
6
ByLayer
62
256
370
-1
100
AcDbLine
10
-200
20
15.5
11
-194.5
21
15.5
0
LINE
5
5D1
100
AcDbEntity
8
motor
6
ByLayer
62
256
370
-1
100
AcDbLine
10
-194.5
20
15.5
11
-194.5
21
5.5
0
LINE
5
5D2
100
AcDbEntity
8
top
6
ByLayer
62
256
370
-1
100
AcDbLine
10
450.206
20
195
11
300
21
195
0
LINE
5
5D3
100
AcDbEntity
8
top
6
ByLayer
62
256
370
-1
100
AcDbLine
10
300
20
95
11
450
21
95
0
LINE
5
5D4
100
AcDbEntity
8
top
6
ByLayer
62
256
370
-1
100
AcDbLine
10
300
20
113
11
300
21
95
0
LINE
5
5D5
100
AcDbEntity
8
top
6
ByLayer
62
256
370
-1
100
AcDbLine
10
450.161217391
20
95
11
450
21
113
0
LINE
5
5D6
100
AcDbEntity
8
top
6
ByLayer
62
256
370
-1
100
AcDbLine
10
450
20
177
11
450.161217391
21
195
0
LINE
5
5D7
100
AcDbEntity
8
top
6
ByLayer
62
256
370
-1
100
AcDbLine
10
300
20
195
11
300
21
177
0
LINE
5
5D8
100
AcDbEntity
8
bottom
6
ByLayer
62
256
370
-1
100
AcDbLine
10
268
20
-100
11
280
21
-100
0
LINE
5
5D9
100
AcDbEntity
8
bottom
6
ByLayer
62
256
370
-1
100
AcDbLine
10
306.5
20
-100
11
341.5
21
-100
0
LINE
5
5DA
100
AcDbEntity
8
bottom
6
ByLayer
62
256
370
-1
100
AcDbLine
10
376.5
20
-100
11
411.5
21
-100
0
LINE
5
5DB
100
AcDbEntity
8
bottom
6
ByLayer
62
256
370
-1
100
AcDbLine
10
446.5
20
-100
11
481.5
21
-100
0
LINE
5
5DC
100
AcDbEntity
8
bottom
6
ByLayer
62
256
370
-1
100
AcDbLine
10
502
20
-100
11
512
21
-100
0
LINE
5
5DD
100
AcDbEntity
8
bottom
6
ByLayer
62
256
370
-1
100
AcDbLine
10
268
20
-10
11
280
21
-10
0
LINE
5
5DE
100
AcDbEntity
8
bottom
6
ByLayer
62
256
370
-1
100
AcDbLine
10
306.5
20
-10
11
341.5
21
-10
0
LINE
5
5DF
100
AcDbEntity
8
bottom
6
ByLayer
62
256
370
-1
100
AcDbLine
10
376.5
20
-10
11
411.5
21
-10
0
LINE
5
5E0
100
AcDbEntity
8
bottom
6
ByLayer
62
256
370
-1
100
AcDbLine
10
446.5
20
-10
11
481.5
21
-10
0
LINE
5
5E1
100
AcDbEntity
8
bottom
6
ByLayer
62
256
370
-1
100
AcDbLine
10
512
20
-10
11
502
21
-10
0
LINE
5
5E2
100
AcDbEntity
8
bottom
6
ByLayer
62
256
370
-1
100
AcDbLine
10
268
20
-10
11
268
21
-100
0
LINE
5
5E3
100
AcDbEntity
8
side-help
6
ByLayer
62
256
370
-1
100
AcDbLine
10
1.22464679915e-16
20
12
11
512
21
12
0
LINE
5
5E4
100
AcDbEntity
8
side-help
6
ByLayer
62
256
370
-1
100
AcDbLine
10
300
20
80
11
314.142135624
21
65.8578643763
0
LINE
5
5E5
100
AcDbEntity
8
side-help
6
ByLayer
62
256
370
-1
100
AcDbLine
10
450
20
72.1388331075
11
435.857864376
21
57.9966974838
0
CIRCLE
5
5E6
100
AcDbEntity
8
side
6
ByLayer
62
256
370
-1
100
AcDbCircle
10
314.142135624
20
65.8578643763
40
1
0
CIRCLE
5
5E7
100
AcDbEntity
8
side
6
ByLayer
62
256
370
-1
100
AcDbCircle
10
435.857864376
20
57.9966974838
40
1
0
LINE
5
5E8
100
AcDbEntity
8
out-connector-help
6
ByLayer
62
256
370
-1
100
AcDbLine
10
327
20
78.5849899593
11
327
21
0
0
LINE
5
5E9
100
AcDbEntity
8
out-connector
6
ByLayer
62
256
370
-1
100
AcDbLine
10
321.13600261
20
58.9712285281
11
270
21
49.9999999999
0
ARC
5
5EA
100
AcDbEntity
8
out-connector
6
ByLayer
62
256
370
-1
100
AcDbCircle
10
322
20
54.0464434048
40
5
100
AcDbArc
50
0
51
99.950626688
0
ARC
5
5EB
100
AcDbEntity
8
out-connector
6
ByLayer
62
256
370
-1
100
AcDbCircle
10
259
20
5
40
5
100
AcDbArc
50
180
51
270
0
LINE
5
5EC
100
AcDbEntity
8
out-connector
6
ByLayer
62
256
370
-1
100
AcDbLine
10
258.90742328
20
49.7945819126
11
270
21
49.9999999999
0
LINE
5
5ED
100
AcDbEntity
8
out-connector
6
ByLayer
62
256
370
-1
100
AcDbLine
10
254
20
44.7954390309
11
254
21
5
0
ARC
5
5EE
100
AcDbEntity
8
out-connector
6
ByLayer
62
256
370
-1
100
AcDbCircle
10
259
20
44.7954390309
40
5
100
AcDbArc
50
91.0609116899
51
180
0
CIRCLE
5
5EF
100
AcDbEntity
8
out-connector
6
ByLayer
62
256
370
-1
100
AcDbCircle
10
260
20
32.5
40
1.5
0
CIRCLE
5
5F0
100
AcDbEntity
8
out-connector
6
ByLayer
62
256
370
-1
100
AcDbCircle
10
260
20
12.5
40
1.5
0
LINE
5
5F1
100
AcDbEntity
8
side-help
6
ByLayer
62
256
370
-1
100
AcDbLine
10
317
20
60
11
317
21
5
0
LINE
5
5F2
100
AcDbEntity
8
side-help
6
ByLayer
62
256
370
-1
100
AcDbLine
10
270
20
50
11
317
21
50
0
CIRCLE
5
5F3
100
AcDbEntity
8
out-connector
6
ByLayer
62
256
370
-1
100
AcDbCircle
10
317
20
50
40
1.5
0
CIRCLE
5
5F4
100
AcDbEntity
8
out-connector
6
ByLayer
62
256
370
-1
100
AcDbCircle
10
317
20
25
40
1.5
0
LINE
5
5F5
100
AcDbEntity
8
out-connector
6
ByLayer
62
256
370
-1
100
AcDbLine
10
285.107487556
20
14.8192869726
11
286.443441434
21
14.9845001158
0
LINE
5
5F6
100
AcDbEntity
8
out-connector
6
ByLayer
62
256
370
-1
100
AcDbLine
10
322.613653926
20
19.4575546101
11
286.443441434
21
14.9845001158
0
LINE
5
5F7
100
AcDbEntity
8
out-connector
6
ByLayer
62
256
370
-1
100
AcDbLine
10
327
20
24.4197590596
11
327
21
54.0464434048
0
ARC
5
5F8
100
AcDbEntity
8
out-connector
6
ByLayer
62
256
370
-1
100
AcDbCircle
10
322
20
24.419754612
40
5
100
AcDbArc
50
277.049854881
51
359.999949034
0
ARC
5
5F9
100
AcDbEntity
8
out-connector
6
ByLayer
62
256
370
-1
100
AcDbCircle
10
287
20
5
40
10
100
AcDbArc
50
100.909090909
51
180
0
ARC
5
5FA
100
AcDbEntity
8
out-connector
6
ByLayer
62
256
370
-1
100
AcDbCircle
10
272
20
5
40
5
100
AcDbArc
50
270
51
0
0
LINE
5
5FB
100
AcDbEntity
8
out-connector
6
ByLayer
62
256
370
-1
100
AcDbLine
10
259
20
0
11
272
21
0
0
ARC
5
5FC
100
AcDbEntity
8
out-connector
6
ByLayer
62
256
370
-1
100
AcDbCircle
10
284
20
37.2270495127
40
5
100
AcDbArc
50
99.950626688
51
180
0
LINE
5
5FD
100
AcDbEntity
8
out-connector
6
ByLayer
62
256
370
-1
100
AcDbLine
10
296.13600261
20
44.4325363903
11
283.13600261
21
42.1518346359
0
ARC
5
5FE
100
AcDbEntity
8
out-connector
6
ByLayer
62
256
370
-1
100
AcDbCircle
10
297
20
39.5077512671
40
5
100
AcDbArc
50
0
51
99.950626688
0
LINE
5
5FF
100
AcDbEntity
8
out-connector
6
ByLayer
62
256
370
-1
100
AcDbLine
10
302
20
31.4042618111
11
302
21
39.5077512671
0
ARC
5
600
100
AcDbEntity
8
out-connector
6
ByLayer
62
256
370
-1
100
AcDbCircle
10
297
20
31.4042618111
40
5
100
AcDbArc
50
277.04979259
51
0
0
LINE
5
601
100
AcDbEntity
8
out-connector
6
ByLayer
62
256
370
-1
100
AcDbLine
10
297.613659321
20
26.4420624763
11
284.613659321
21
24.8343940547
0
LINE
5
602
100
AcDbEntity
8
out-connector
6
ByLayer
62
256
370
-1
100
AcDbLine
10
279
20
37.2270495127
11
279
21
29.7965933895
0
ARC
5
603
100
AcDbEntity
8
out-connector
6
ByLayer
62
256
370
-1
100
AcDbCircle
10
284
20
29.7965933895
40
5
100
AcDbArc
50
180
51
277.04979259
0
LINE
5
604
100
AcDbEntity
8
bulkhead
6
ByLayer
62
256
370
-1
100
AcDbLine
10
6.5
20
2
11
13.5
21
2
0
LINE
5
605
100
AcDbEntity
8
bulkhead
6
ByLayer
62
256
370
-1
100
AcDbLine
10
76.5
20
2
11
83.5
21
2
0
CIRCLE
5
606
100
AcDbEntity
8
side
6
ByLayer
62
256
370
-1
100
AcDbCircle
10
317
20
50
40
1.5
0
CIRCLE
5
607
100
AcDbEntity
8
side
6
ByLayer
62
256
370
-1
100
AcDbCircle
10
317
20
25
40
1.5
0
LINE
5
608
100
AcDbEntity
8
side-help
6
ByLayer
62
256
370
-1
100
AcDbLine
10
6.12323399542e-17
20
27
11
512
21
27
0
LINE
5
609
100
AcDbEntity
8
side-help
6
ByLayer
62
256
370
-1
100
AcDbLine
10
287
20
27
11
287
21
5
0
LINE
5
60A
100
AcDbEntity
8
side-help
6
ByLayer
62
256
370
-1
100
AcDbLine
10
347
20
27
11
347
21
5
0
LINE
5
60B
100
AcDbEntity
8
side-help
6
ByLayer
62
256
370
-1
100
AcDbLine
10
377
20
27
11
377
21
5
0
LINE
5
60C
100
AcDbEntity
8
side-help
6
ByLayer
62
256
370
-1
100
AcDbLine
10
407
20
27
11
407
21
5
0
LINE
5
60D
100
AcDbEntity
8
side-help
6
ByLayer
62
256
370
-1
100
AcDbLine
10
437
20
27
11
437
21
5
0
LINE
5
60E
100
AcDbEntity
8
side-help
6
ByLayer
62
256
370
-1
100
AcDbLine
10
467
20
27
11
467
21
5
0
LINE
5
60F
100
AcDbEntity
8
side-help
6
ByLayer
62
256
370
-1
100
AcDbLine
10
497
20
27
11
497
21
5
0
CIRCLE
5
610
100
AcDbEntity
8
side
6
ByLayer
62
256
370
-1
100
AcDbCircle
10
287
20
27
40
1
0
CIRCLE
5
611
100
AcDbEntity
8
side
6
ByLayer
62
256
370
-1
100
AcDbCircle
10
347
20
27
40
1
0
CIRCLE
5
612
100
AcDbEntity
8
side
6
ByLayer
62
256
370
-1
100
AcDbCircle
10
377
20
27
40
1
0
CIRCLE
5
613
100
AcDbEntity
8
side
6
ByLayer
62
256
370
-1
100
AcDbCircle
10
407
20
27
40
1
0
CIRCLE
5
614
100
AcDbEntity
8
side
6
ByLayer
62
256
370
-1
100
AcDbCircle
10
437
20
27
40
1
0
CIRCLE
5
615
100
AcDbEntity
8
side
6
ByLayer
62
256
370
-1
100
AcDbCircle
10
467
20
27
40
1
0
CIRCLE
5
616
100
AcDbEntity
8
side
6
ByLayer
62
256
370
-1
100
AcDbCircle
10
497
20
27
40
1
0
LINE
5
617
100
AcDbEntity
8
bulkhead
6
ByLayer
62
256
370
-1
100
AcDbLine
10
32
20
4.2
11
25
21
4.2
0
LINE
5
618
100
AcDbEntity
8
bulkhead
6
ByLayer
62
256
370
-1
100
AcDbLine
10
65
20
4.2
11
58
21
4.2
0
LINE
5
619
100
AcDbEntity
8
bulkhead
6
ByLayer
62
256
370
-1
100
AcDbLine
10
25
20
2
11
25
21
4.2
0
LINE
5
61A
100
AcDbEntity
8
bulkhead
6
ByLayer
62
256
370
-1
100
AcDbLine
10
32
20
2
11
32
21
4.2
0
LINE
5
61B
100
AcDbEntity
8
bulkhead
6
ByLayer
62
256
370
-1
100
AcDbLine
10
58
20
2
11
58
21
4.2
0
LINE
5
61C
100
AcDbEntity
8
bulkhead
6
ByLayer
62
256
370
-1
100
AcDbLine
10
65
20
2
11
65
21
4.2
0
LINE
5
61D
100
AcDbEntity
8
KT_conn-help
6
ByLayer
62
256
370
-1
100
AcDbLine
10
300
20
-200
11
333
21
-200
0
LINE
5
61E
100
AcDbEntity
8
KT_conn-help
6
ByLayer
62
256
370
-1
100
AcDbLine
10
333
20
-200
11
333
21
-193
0
LINE
5
61F
100
AcDbEntity
8
KT_conn-help
6
ByLayer
62
256
370
-1
100
AcDbLine
10
333
20
-193
11
300
21
-193
0
LINE
5
620
100
AcDbEntity
8
KT_conn-help
6
ByLayer
62
256
370
-1
100
AcDbLine
10
300
20
-193
11
300
21
-200
0
LINE
5
621
100
AcDbEntity
8
KT_conn-help
6
ByLayer
62
256
370
-1
100
AcDbLine
10
300
20
-230
11
325
21
-230
0
LINE
5
622
100
AcDbEntity
8
KT_conn-help
6
ByLayer
62
256
370
-1
100
AcDbLine
10
325
20
-230
11
325
21
-223
0
LINE
5
623
100
AcDbEntity
8
KT_conn-help
6
ByLayer
62
256
370
-1
100
AcDbLine
10
325
20
-223
11
300
21
-223
0
LINE
5
624
100
AcDbEntity
8
KT_conn-help
6
ByLayer
62
256
370
-1
100
AcDbLine
10
300
20
-223
11
300
21
-230
0
CIRCLE
5
625
100
AcDbEntity
8
KT_conn
6
ByLayer
62
256
370
-1
100
AcDbCircle
10
300
20
-196.5
40
1.5
0
CIRCLE
5
626
100
AcDbEntity
8
KT_conn
6
ByLayer
62
256
370
-1
100
AcDbCircle
10
333
20
-196.5
40
1.5
0
CIRCLE
5
627
100
AcDbEntity
8
KT_conn
6
ByLayer
62
256
370
-1
100
AcDbCircle
10
300
20
-226.5
40
1.5
0
CIRCLE
5
628
100
AcDbEntity
8
KT_conn
6
ByLayer
62
256
370
-1
100
AcDbCircle
10
325
20
-226.5
40
1.5
0
ARC
5
629
100
AcDbEntity
8
KT_conn
6
ByLayer
62
256
370
-1
100
AcDbCircle
10
300
20
-226.5
40
3.5
100
AcDbArc
50
90
51
270
0
ARC
5
62A
100
AcDbEntity
8
KT_conn
6
ByLayer
62
256
370
-1
100
AcDbCircle
10
325
20
-226.5
40
3.5
100
AcDbArc
50
270
51
90
0
ARC
5
62B
100
AcDbEntity
8
KT_conn
6
ByLayer
62
256
370
-1
100
AcDbCircle
10
300
20
-196.5
40
3.5
100
AcDbArc
50
90
51
270
0
ARC
5
62C
100
AcDbEntity
8
KT_conn
6
ByLayer
62
256
370
-1
100
AcDbCircle
10
333
20
-196.5
40
3.5
100
AcDbArc
50
270
51
90
0
LINE
5
62D
100
AcDbEntity
8
KT_conn
6
ByLayer
62
256
370
-1
100
AcDbLine
10
300
20
-193
11
333
21
-193
0
LINE
5
62E
100
AcDbEntity
8
KT_conn
6
ByLayer
62
256
370
-1
100
AcDbLine
10
333
20
-200
11
300
21
-200
0
LINE
5
62F
100
AcDbEntity
8
KT_conn
6
ByLayer
62
256
370
-1
100
AcDbLine
10
300
20
-223
11
325
21
-223
0
LINE
5
630
100
AcDbEntity
8
KT_conn
6
ByLayer
62
256
370
-1
100
AcDbLine
10
325
20
-230
11
300
21
-230
0
LINE
5
631
100
AcDbEntity
8
KT_conn
6
ByLayer
62
256
370
-1
100
AcDbLine
10
268.1
20
-10
11
268.1
21
-100
0
LINE
5
632
100
AcDbEntity
8
KT_conn
6
ByLayer
62
256
370
-1
100
AcDbLine
10
258
20
47.7774348716
11
268.1
21
47.9644719087
0
LINE
5
633
100
AcDbEntity
8
KT_conn
6
ByLayer
62
256
370
-1
100
AcDbLine
10
268.1
20
47.9644719087
11
268.1
21
2
0
LINE
5
634
100
AcDbEntity
8
KT_conn
6
ByLayer
62
256
370
-1
100
AcDbLine
10
258
20
2
11
268.1
21
2
0
LINE
5
635
100
AcDbEntity
8
KT_conn
6
ByLayer
62
256
370
-1
100
AcDbLine
10
258
20
-10
11
268.1
21
-10
0
LINE
5
636
100
AcDbEntity
8
KT_conn
6
ByLayer
62
256
370
-1
100
AcDbLine
10
258
20
-100
11
268.1
21
-100
0
LINE
5
637
100
AcDbEntity
8
side
6
ByLayer
62
256
370
-1
100
AcDbLine
10
267.9
20
47.8999999999
11
268.585786438
21
48.5857864378
0
LINE
5
638
100
AcDbEntity
8
side
6
ByLayer
62
256
370
-1
100
AcDbLine
10
267.9
20
47.8999999999
11
267.9
21
2
0
LINE
5
639
100
AcDbEntity
8
side
6
ByLayer
62
256
370
-1
100
AcDbLine
10
267.9
20
2
11
275
21
2
0
LINE
5
63A
100
AcDbEntity
8
top
6
ByLayer
62
256
370
-1
100
AcDbLine
10
199.9
20
188
11
199.9
21
102
0
LINE
5
63B
100
AcDbEntity
8
top
6
ByLayer
62
256
370
-1
100
AcDbLine
10
199.9
20
188
11
200.82843
21
188
0
LINE
5
63C
100
AcDbEntity
8
top
6
ByLayer
62
256
370
-1
100
AcDbLine
10
199.9
20
102
11
200.82843
21
102
0
ENDSEC
0
SECTION
2
OBJECTS
0
DICTIONARY
5
C
330
0
100
AcDbDictionary
281
1
3
ACAD_GROUP
350
D
0
DICTIONARY
5
D
330
C
100
AcDbDictionary
281
1
0
ENDSEC
0
EOF
