999
dxfrw 0.5.10
0
SECTION
2
HEADER
9
$ACADVER
1
AC1021
9
$HANDSEED
5
20000
9
$DWGCODEPAGE
3
ANSI_1252
9
$INSBASE
10
0
20
0
30
0
9
$EXTMIN
10
-6.10880765644e-15
20
-1.65327317885e-14
30
0
9
$EXTMAX
10
283
20
200
30
0
9
$LIMMIN
10
0
20
0
9
$LIMMAX
10
420
20
297
9
$ORTHOMODE
70
0
9
$LTSCALE
40
1
9
$TEXTSTYLE
7
STANDARD
9
$CLAYER
8
0
9
$DIMASZ
40
2.5
9
$DIMLFAC
40
1
9
$DIMSCALE
40
1
9
$DIMEXO
40
0.625
9
$DIMEXE
40
1.25
9
$DIMTXT
40
2.5
9
$DIMTSZ
40
0
9
$DIMAUNIT
70
0
9
$DIMADEC
70
0
9
$DIMLUNIT
70
2
9
$DIMSTYLE
2
STANDARD
9
$DIMGAP
40
0.625
9
$DIMTIH
70
0
9
$LUNITS
70
2
9
$LUPREC
70
4
9
$AUNITS
70
0
9
$AUPREC
70
2
9
$SPLINESEGS
70
8
9
$SNAPSTYLE
70
0
9
$PINSBASE
10
0
20
0
30
0
9
$PLIMMIN
10
0
20
0
9
$PLIMMAX
10
210
20
297
9
$INSUNITS
70
4
9
$PSVPSCALE
40
1
0
ENDSEC
0
SECTION
2
CLASSES
0
ENDSEC
0
SECTION
2
TABLES
0
TABLE
2
VPORT
5
8
330
0
100
AcDbSymbolTable
70
1
0
VPORT
5
31
330
2
100
AcDbSymbolTableRecord
100
AcDbViewportTableRecord
2
*ACTIVE
70
0
10
0
20
0
11
1
21
1
12
212.788581848
22
205.636024475
13
0
23
0
14
10
24
10
15
10
25
10
16
0
26
0
36
1
17
0
27
0
37
0
40
548.362731934
41
0.847826086957
42
50
43
0
44
0
50
0
51
0
71
0
72
100
73
1
74
3
75
0
76
1
77
0
78
0
281
0
65
1
110
0
120
0
130
0
111
1
121
0
131
0
112
0
122
1
132
0
79
0
146
0
348
10020
60
7
61
5
292
1
282
1
141
0
142
0
63
250
421
3358443
0
ENDTAB
0
TABLE
2
LTYPE
5
5
330
0
100
AcDbSymbolTable
70
4
0
LTYPE
5
14
330
5
100
AcDbSymbolTableRecord
100
AcDbLinetypeTableRecord
2
ByBlock
70
0
3

72
65
73
0
40
0
0
LTYPE
5
15
330
5
100
AcDbSymbolTableRecord
100
AcDbLinetypeTableRecord
2
ByLayer
70
0
3

72
65
73
0
40
0
0
LTYPE
5
16
330
5
100
AcDbSymbolTableRecord
100
AcDbLinetypeTableRecord
2
Continuous
70
0
3
Solid line
72
65
73
0
40
0
0
LTYPE
5
32
330
5
100
AcDbSymbolTableRecord
100
AcDbLinetypeTableRecord
2
DOT
70
0
3
Dot . . . . . . . . . . . . . . . . . . . . . .
72
65
73
2
40
6.35
49
0
74
0
49
-6.35
74
0
0
LTYPE
5
33
330
5
100
AcDbSymbolTableRecord
100
AcDbLinetypeTableRecord
2
DOT2
70
0
3
Dot (.5x) .....................................
72
65
73
2
40
3.175
49
0
74
0
49
-3.175
74
0
0
LTYPE
5
34
330
5
100
AcDbSymbolTableRecord
100
AcDbLinetypeTableRecord
2
DOTX2
70
0
3
Dot (2x) .  .  .  .  .  .  .  .  .  .  .  .  .
72
65
73
2
40
12.7
49
0
74
0
49
-12.7
74
0
0
LTYPE
5
35
330
5
100
AcDbSymbolTableRecord
100
AcDbLinetypeTableRecord
2
DASHED
70
0
3
Dot . . . . . . . . . . . . . . . . . . . . . .
72
65
73
2
40
19.05
49
12.7
74
0
49
-6.35
74
0
0
LTYPE
5
36
330
5
100
AcDbSymbolTableRecord
100
AcDbLinetypeTableRecord
2
DASHED2
70
0
3
Dashed (.5x) _ _ _ _ _ _ _ _ _ _ _ _ _ _ _ _ _
72
65
73
2
40
9.525
49
6.35
74
0
49
-3.175
74
0
0
LTYPE
5
37
330
5
100
AcDbSymbolTableRecord
100
AcDbLinetypeTableRecord
2
DASHEDX2
70
0
3
Dashed (2x) ____  ____  ____  ____  ____  ___
72
65
73
2
40
38.1
49
25.4
74
0
49
-12.7
74
0
0
LTYPE
5
38
330
5
100
AcDbSymbolTableRecord
100
AcDbLinetypeTableRecord
2
DASHDOT
70
0
3
Dash dot __ . __ . __ . __ . __ . __ . __ . __
72
65
73
4
40
25.4
49
12.7
74
0
49
-6.35
74
0
49
0
74
0
49
-6.35
74
0
0
LTYPE
5
39
330
5
100
AcDbSymbolTableRecord
100
AcDbLinetypeTableRecord
2
DASHDOT2
70
0
3
Dash dot (.5x) _._._._._._._._._._._._._._._.
72
65
73
4
40
12.7
49
6.35
74
0
49
-3.175
74
0
49
0
74
0
49
-3.175
74
0
0
LTYPE
5
3A
330
5
100
AcDbSymbolTableRecord
100
AcDbLinetypeTableRecord
2
DASHDOTX2
70
0
3
Dash dot (2x) ____  .  ____  .  ____  .  ___
72
65
73
4
40
50.8
49
25.4
74
0
49
-12.7
74
0
49
0
74
0
49
-12.7
74
0
0
LTYPE
5
3B
330
5
100
AcDbSymbolTableRecord
100
AcDbLinetypeTableRecord
2
DIVIDE
70
0
3
Divide ____ . . ____ . . ____ . . ____ . . ____
72
65
73
6
40
31.75
49
12.7
74
0
49
-6.35
74
0
49
0
74
0
49
-6.35
74
0
49
0
74
0
49
-6.35
74
0
0
LTYPE
5
3C
330
5
100
AcDbSymbolTableRecord
100
AcDbLinetypeTableRecord
2
DIVIDE2
70
0
3
Divide (.5x) __..__..__..__..__..__..__..__.._
72
65
73
6
40
15.875
49
6.35
74
0
49
-3.175
74
0
49
0
74
0
49
-3.175
74
0
49
0
74
0
49
-3.175
74
0
0
LTYPE
5
3D
330
5
100
AcDbSymbolTableRecord
100
AcDbLinetypeTableRecord
2
DIVIDEX2
70
0
3
Divide (2x) ________  .  .  ________  .  .  _
72
65
73
6
40
63.5
49
25.4
74
0
49
-12.7
74
0
49
0
74
0
49
-12.7
74
0
49
0
74
0
49
-12.7
74
0
0
LTYPE
5
3E
330
5
100
AcDbSymbolTableRecord
100
AcDbLinetypeTableRecord
2
BORDER
70
0
3
Border __ __ . __ __ . __ __ . __ __ . __ __ .
72
65
73
6
40
44.45
49
12.7
74
0
49
-6.35
74
0
49
12.7
74
0
49
-6.35
74
0
49
0
74
0
49
-6.35
74
0
0
LTYPE
5
3F
330
5
100
AcDbSymbolTableRecord
100
AcDbLinetypeTableRecord
2
BORDER2
70
0
3
Border (.5x) __.__.__.__.__.__.__.__.__.__.__.
72
65
73
6
40
22.225
49
6.35
74
0
49
-3.175
74
0
49
6.35
74
0
49
-3.175
74
0
49
0
74
0
49
-3.175
74
0
0
LTYPE
5
40
330
5
100
AcDbSymbolTableRecord
100
AcDbLinetypeTableRecord
2
BORDERX2
70
0
3
Border (2x) ____  ____  .  ____  ____  .  ___
72
65
73
6
40
88.9
49
25.4
74
0
49
-12.7
74
0
49
25.4
74
0
49
-12.7
74
0
49
0
74
0
49
-12.7
74
0
0
LTYPE
5
41
330
5
100
AcDbSymbolTableRecord
100
AcDbLinetypeTableRecord
2
CENTER
70
0
3
Center ____ _ ____ _ ____ _ ____ _ ____ _ ____
72
65
73
4
40
50.8
49
31.75
74
0
49
-6.35
74
0
49
6.35
74
0
49
-6.35
74
0
0
LTYPE
5
42
330
5
100
AcDbSymbolTableRecord
100
AcDbLinetypeTableRecord
2
CENTER2
70
0
3
Center (.5x) ___ _ ___ _ ___ _ ___ _ ___ _ ___
72
65
73
4
40
28.575
49
19.05
74
0
49
-3.175
74
0
49
3.175
74
0
49
-3.175
74
0
0
LTYPE
5
43
330
5
100
AcDbSymbolTableRecord
100
AcDbLinetypeTableRecord
2
CENTERX2
70
0
3
Center (2x) ________  __  ________  __  _____
72
65
73
4
40
101.6
49
63.5
74
0
49
-12.7
74
0
49
12.7
74
0
49
-12.7
74
0
0
ENDTAB
0
TABLE
2
LAYER
5
2
330
0
100
AcDbSymbolTable
70
1
0
LAYER
5
10
330
2
100
AcDbSymbolTableRecord
100
AcDbLayerTableRecord
2
0
70
0
62
7
6
CONTINUOUS
370
0
390
F
0
LAYER
5
44
330
2
100
AcDbSymbolTableRecord
100
AcDbLayerTableRecord
2
KT_conn
70
0
62
7
6
CONTINUOUS
370
0
390
F
0
LAYER
5
45
330
2
100
AcDbSymbolTableRecord
100
AcDbLayerTableRecord
2
top
70
0
62
7
6
CONTINUOUS
370
0
390
F
0
LAYER
5
46
330
2
100
AcDbSymbolTableRecord
100
AcDbLayerTableRecord
2
bulkhead
70
0
62
7
6
CONTINUOUS
370
0
390
F
0
LAYER
5
47
330
2
100
AcDbSymbolTableRecord
100
AcDbLayerTableRecord
2
motor
70
0
62
7
6
CONTINUOUS
370
0
390
F
0
ENDTAB
0
TABLE
2
STYLE
5
3
330
0
100
AcDbSymbolTable
70
3
0
STYLE
5
48
330
2
100
AcDbSymbolTableRecord
100
AcDbTextStyleTableRecord
2
Standard
70
0
40
0
41
1
50
0
71
0
42
1
3
txt
4

0
ENDTAB
0
TABLE
2
VIEW
5
6
330
0
100
AcDbSymbolTable
70
0
0
ENDTAB
0
TABLE
2
UCS
5
7
330
0
100
AcDbSymbolTable
70
0
0
ENDTAB
0
TABLE
2
APPID
5
9
330
0
100
AcDbSymbolTable
70
1
0
APPID
5
12
330
9
100
AcDbSymbolTableRecord
100
AcDbRegAppTableRecord
2
ACAD
70
0
0
ENDTAB
0
TABLE
2
DIMSTYLE
5
A
330
0
100
AcDbSymbolTable
70
1
100
AcDbDimStyleTable
71
1
0
DIMSTYLE
105
49
330
A
100
AcDbSymbolTableRecord
100
AcDbDimStyleTableRecord
2
Standard
70
0
40
1
41
2.5
42
0.625
43
0.38
44
1.25
45
0
46
0
47
0
48
0
140
2.5
141
0.09
142
0
143
25.4
144
1
145
0
146
1
147
0.625
148
0
71
0
72
0
73
0
74
1
75
0
76
0
77
0
78
0
79
0
170
0
171
2
172
0
173
0
174
0
175
0
176
0
177
0
178
0
179
0
271
4
272
4
273
2
274
2
275
0
276
0
277
2
278
46
279
0
280
0
281
0
282
0
283
1
284
0
285
0
286
0
288
0
289
3
340
Standard
341

371
-2
372
-2
0
ENDTAB
0
TABLE
2
BLOCK_RECORD
5
1
330
0
100
AcDbSymbolTable
70
2
0
BLOCK_RECORD
5
1F
330
1
100
AcDbSymbolTableRecord
100
AcDbBlockTableRecord
2
*Model_Space
70
0
280
1
281
0
0
BLOCK_RECORD
5
1E
330
1
100
AcDbSymbolTableRecord
100
AcDbBlockTableRecord
2
*Paper_Space
70
0
280
1
281
0
0
BLOCK_RECORD
5
4A
330
1
100
AcDbSymbolTableRecord
100
AcDbBlockTableRecord
2
ktconn-top
70
0
280
1
281
0
0
BLOCK_RECORD
5
4D
330
1
100
AcDbSymbolTableRecord
100
AcDbBlockTableRecord
2
ktconn-bulkhead
70
0
280
1
281
0
0
BLOCK_RECORD
5
50
330
1
100
AcDbSymbolTableRecord
100
AcDbBlockTableRecord
2
top-front
70
0
280
1
281
0
0
BLOCK_RECORD
5
53
330
1
100
AcDbSymbolTableRecord
100
AcDbBlockTableRecord
2
bulkhead-1
70
0
280
1
281
0
0
BLOCK_RECORD
5
56
330
1
100
AcDbSymbolTableRecord
100
AcDbBlockTableRecord
2
bulkhead-4
70
0
280
1
281
0
0
BLOCK_RECORD
5
59
330
1
100
AcDbSymbolTableRecord
100
AcDbBlockTableRecord
2
bulkhead-3
70
0
280
1
281
0
0
BLOCK_RECORD
5
5C
330
1
100
AcDbSymbolTableRecord
100
AcDbBlockTableRecord
2
bulkhead-2
70
0
280
1
281
0
0
BLOCK_RECORD
5
5F
330
1
100
AcDbSymbolTableRecord
100
AcDbBlockTableRecord
2
motor
70
0
280
1
281
0
0
BLOCK_RECORD
5
62
330
1
100
AcDbSymbolTableRecord
100
AcDbBlockTableRecord
2
top-back
70
0
280
1
281
0
0
BLOCK_RECORD
5
65
330
1
100
AcDbSymbolTableRecord
100
AcDbBlockTableRecord
2
connpole
70
0
280
1
281
0
0
ENDTAB
0
ENDSEC
0
SECTION
2
BLOCKS
0
BLOCK
5
20
330
1F
100
AcDbEntity
8
0
100
AcDbBlockBegin
2
*Model_Space
70
0
10
0
20
0
30
0
3
*Model_Space
1

0
ENDBLK
5
21
330
1F
100
AcDbEntity
8
0
100
AcDbBlockEnd
0
BLOCK
5
1C
330
1B
100
AcDbEntity
8
0
100
AcDbBlockBegin
2
*Paper_Space
70
0
10
0
20
0
30
0
3
*Paper_Space
1

0
ENDBLK
5
1D
330
1F
100
AcDbEntity
8
0
100
AcDbBlockEnd
0
BLOCK
5
4B
330
4A
100
AcDbEntity
8
0
100
AcDbBlockBegin
2
ktconn-top
70
0
10
0
20
0
3
ktconn-top
1

0
LINE
5
68
100
AcDbEntity
8
KT_conn
6
ByLayer
62
256
370
-1
100
AcDbLine
10
0
20
90
11
0
21
0
0
CIRCLE
5
69
100
AcDbEntity
8
KT_conn
6
ByLayer
62
256
370
-1
100
AcDbCircle
10
-8
20
61.5
40
1.5
0
CIRCLE
5
6A
100
AcDbEntity
8
KT_conn
6
ByLayer
62
256
370
-1
100
AcDbCircle
10
-8
20
28.5
40
1.5
0
LINE
5
6B
100
AcDbEntity
8
KT_conn
6
ByLayer
62
256
370
-1
100
AcDbLine
10
-40
20
90
11
-40
21
88
0
LINE
5
6C
100
AcDbEntity
8
KT_conn
6
ByLayer
62
256
370
-1
100
AcDbLine
10
-40
20
88
11
-30
21
88
0
LINE
5
6D
100
AcDbEntity
8
KT_conn
6
ByLayer
62
256
370
-1
100
AcDbLine
10
-30
20
88
11
-30
21
90
0
LINE
5
6E
100
AcDbEntity
8
KT_conn
6
ByLayer
62
256
370
-1
100
AcDbLine
10
-20
20
90
11
-20
21
88
0
LINE
5
6F
100
AcDbEntity
8
KT_conn
6
ByLayer
62
256
370
-1
100
AcDbLine
10
-20
20
88
11
-10
21
88
0
LINE
5
70
100
AcDbEntity
8
KT_conn
6
ByLayer
62
256
370
-1
100
AcDbLine
10
-10
20
88
11
-10
21
90
0
LINE
5
71
100
AcDbEntity
8
KT_conn
6
ByLayer
62
256
370
-1
100
AcDbLine
10
-30
20
90
11
-20
21
90
0
LINE
5
72
100
AcDbEntity
8
KT_conn
6
ByLayer
62
256
370
-1
100
AcDbLine
10
-10
20
90
11
0
21
90
0
LINE
5
73
100
AcDbEntity
8
KT_conn
6
ByLayer
62
256
370
-1
100
AcDbLine
10
-40
20
0
11
-40
21
2
0
LINE
5
74
100
AcDbEntity
8
KT_conn
6
ByLayer
62
256
370
-1
100
AcDbLine
10
-40
20
2
11
-30
21
2
0
LINE
5
75
100
AcDbEntity
8
KT_conn
6
ByLayer
62
256
370
-1
100
AcDbLine
10
-30
20
2
11
-30
21
0
0
LINE
5
76
100
AcDbEntity
8
KT_conn
6
ByLayer
62
256
370
-1
100
AcDbLine
10
-30
20
0
11
-20
21
0
0
LINE
5
77
100
AcDbEntity
8
KT_conn
6
ByLayer
62
256
370
-1
100
AcDbLine
10
-20
20
0
11
-20
21
2
0
LINE
5
78
100
AcDbEntity
8
KT_conn
6
ByLayer
62
256
370
-1
100
AcDbLine
10
-20
20
2
11
-10
21
2
0
LINE
5
79
100
AcDbEntity
8
KT_conn
6
ByLayer
62
256
370
-1
100
AcDbLine
10
-10
20
2
11
-10
21
0
0
LINE
5
7A
100
AcDbEntity
8
KT_conn
6
ByLayer
62
256
370
-1
100
AcDbLine
10
-10
20
0
11
0
21
0
0
LINE
5
7B
100
AcDbEntity
8
KT_conn
6
ByLayer
62
256
370
-1
100
AcDbLine
10
-48
20
90
11
-48
21
75
0
LINE
5
7C
100
AcDbEntity
8
KT_conn
6
ByLayer
62
256
370
-1
100
AcDbLine
10
-48
20
75
11
-50
21
75
0
LINE
5
7D
100
AcDbEntity
8
KT_conn
6
ByLayer
62
256
370
-1
100
AcDbLine
10
-50
20
75
11
-50
21
60
0
LINE
5
7E
100
AcDbEntity
8
KT_conn
6
ByLayer
62
256
370
-1
100
AcDbLine
10
-50
20
60
11
-48
21
60
0
LINE
5
7F
100
AcDbEntity
8
KT_conn
6
ByLayer
62
256
370
-1
100
AcDbLine
10
-48
20
60
11
-48
21
30
0
LINE
5
80
100
AcDbEntity
8
KT_conn
6
ByLayer
62
256
370
-1
100
AcDbLine
10
-48
20
30
11
-50
21
30
0
LINE
5
81
100
AcDbEntity
8
KT_conn
6
ByLayer
62
256
370
-1
100
AcDbLine
10
-50
20
30
11
-50
21
15
0
LINE
5
82
100
AcDbEntity
8
KT_conn
6
ByLayer
62
256
370
-1
100
AcDbLine
10
-50
20
15
11
-48
21
15
0
LINE
5
83
100
AcDbEntity
8
KT_conn
6
ByLayer
62
256
370
-1
100
AcDbLine
10
-48
20
15
11
-48
21
0
0
LINE
5
84
100
AcDbEntity
8
KT_conn
6
ByLayer
62
256
370
-1
100
AcDbLine
10
-48
20
90
11
-40
21
90
0
LINE
5
85
100
AcDbEntity
8
KT_conn
6
ByLayer
62
256
370
-1
100
AcDbLine
10
-48
20
0
11
-40
21
0
0
ARC
5
86
100
AcDbEntity
8
KT_conn
6
ByLayer
62
256
370
-1
100
AcDbCircle
10
-38.000324899
20
81
40
2
100
AcDbArc
50
90
51
200.224859431
0
ARC
5
87
100
AcDbEntity
8
KT_conn
6
ByLayer
62
256
370
-1
100
AcDbCircle
10
-41
20
66.0008818678
40
2
100
AcDbArc
50
20.2248594312
51
180
0
LINE
5
88
100
AcDbEntity
8
KT_conn
6
ByLayer
62
256
370
-1
100
AcDbLine
10
-38.000324899
20
83
11
-19.999675101
21
83
0
ARC
5
89
100
AcDbEntity
8
KT_conn
6
ByLayer
62
256
370
-1
100
AcDbCircle
10
-19.999675101
20
81
40
2
100
AcDbArc
50
339.775140569
51
90
0
ARC
5
8A
100
AcDbEntity
8
KT_conn
6
ByLayer
62
256
370
-1
100
AcDbCircle
10
-17
20
66.0008818678
40
2
100
AcDbArc
50
360
51
159.775140569
0
LINE
5
8B
100
AcDbEntity
8
KT_conn
6
ByLayer
62
256
370
-1
100
AcDbLine
10
-15
20
66.0008818678
11
-15
21
23.9991181322
0
ARC
5
8C
100
AcDbEntity
8
KT_conn
6
ByLayer
62
256
370
-1
100
AcDbCircle
10
-17
20
23.9991181322
40
2
100
AcDbArc
50
200.224859431
51
0
0
ARC
5
8D
100
AcDbEntity
8
KT_conn
6
ByLayer
62
256
370
-1
100
AcDbCircle
10
-19.999675101
20
9
40
2
100
AcDbArc
50
270
51
20.2248594312
0
LINE
5
8E
100
AcDbEntity
8
KT_conn
6
ByLayer
62
256
370
-1
100
AcDbLine
10
-38.000324899
20
7
11
-19.999675101
21
7
0
ARC
5
8F
100
AcDbEntity
8
KT_conn
6
ByLayer
62
256
370
-1
100
AcDbCircle
10
-38.000324899
20
9
40
2
100
AcDbArc
50
159.775140569
51
270
0
LINE
5
90
100
AcDbEntity
8
KT_conn
6
ByLayer
62
256
370
-1
100
AcDbLine
10
-43
20
66.0008818678
11
-43
21
23.9991181322
0
ARC
5
91
100
AcDbEntity
8
KT_conn
6
ByLayer
62
256
370
-1
100
AcDbCircle
10
-41
20
23.9991181322
40
2
100
AcDbArc
50
180
51
339.775140569
0
ARC
5
92
100
AcDbEntity
8
KT_conn
6
ByLayer
62
256
370
-1
100
AcDbCircle
10
-33.262832996
20
45
40
2
100
AcDbArc
50
339.775140569
51
20.2248594312
0
ARC
5
93
100
AcDbEntity
8
KT_conn
6
ByLayer
62
256
370
-1
100
AcDbCircle
10
-29
20
56.5705467036
40
2
100
AcDbArc
50
200.224859431
51
339.775140569
0
ARC
5
94
100
AcDbEntity
8
KT_conn
6
ByLayer
62
256
370
-1
100
AcDbCircle
10
-24.737167004
20
45
40
2
100
AcDbArc
50
159.775140569
51
200.224859431
0
LINE
5
95
100
AcDbEntity
8
KT_conn
6
ByLayer
62
256
370
-1
100
AcDbLine
10
-27.123313766
20
34.120864014
11
-18.122988868
21
9.6914107177
0
LINE
5
96
100
AcDbEntity
8
KT_conn
6
ByLayer
62
256
370
-1
100
AcDbLine
10
-30.876686234
20
34.120864014
11
-39.877011132
21
9.6914107177
0
ARC
5
97
100
AcDbEntity
8
KT_conn
6
ByLayer
62
256
370
-1
100
AcDbCircle
10
-29
20
33.4294532964
40
2
100
AcDbArc
50
20.2248594312
51
159.775140569
0
LINE
5
98
100
AcDbEntity
8
KT_conn
6
ByLayer
62
256
370
-1
100
AcDbLine
10
-39.123313766
20
66.6922925855
11
-31.386146762
21
45.6914107177
0
LINE
5
99
100
AcDbEntity
8
KT_conn
6
ByLayer
62
256
370
-1
100
AcDbLine
10
-31.386146762
20
44.3085892823
11
-39.123313766
21
23.3077074145
0
LINE
5
9A
100
AcDbEntity
8
KT_conn
6
ByLayer
62
256
370
-1
100
AcDbLine
10
-26.613853238
20
44.3085892823
11
-18.876686234
21
23.3077074145
0
LINE
5
9B
100
AcDbEntity
8
KT_conn
6
ByLayer
62
256
370
-1
100
AcDbLine
10
-26.613853238
20
45.6914107177
11
-18.876686234
21
66.6922925855
0
LINE
5
9C
100
AcDbEntity
8
KT_conn
6
ByLayer
62
256
370
-1
100
AcDbLine
10
-27.123313766
20
55.879135986
11
-18.122988868
21
80.3085892823
0
LINE
5
9D
100
AcDbEntity
8
KT_conn
6
ByLayer
62
256
370
-1
100
AcDbLine
10
-39.877011132
20
80.3085892823
11
-30.876686234
21
55.879135986
0
CIRCLE
5
9E
100
AcDbEntity
8
KT_conn
6
ByLayer
62
256
370
-1
100
AcDbCircle
10
-14
20
85
40
0.05
0
CIRCLE
5
9F
100
AcDbEntity
8
KT_conn
6
ByLayer
62
256
370
-1
100
AcDbCircle
10
-14
20
80
40
0.05
0
CIRCLE
5
A0
100
AcDbEntity
8
KT_conn
6
ByLayer
62
256
370
-1
100
AcDbCircle
10
-14
20
75
40
0.05
0
CIRCLE
5
A1
100
AcDbEntity
8
KT_conn
6
ByLayer
62
256
370
-1
100
AcDbCircle
10
-14
20
70
40
0.05
0
CIRCLE
5
A2
100
AcDbEntity
8
KT_conn
6
ByLayer
62
256
370
-1
100
AcDbCircle
10
-14
20
65
40
0.05
0
CIRCLE
5
A3
100
AcDbEntity
8
KT_conn
6
ByLayer
62
256
370
-1
100
AcDbCircle
10
-14
20
60
40
0.05
0
CIRCLE
5
A4
100
AcDbEntity
8
KT_conn
6
ByLayer
62
256
370
-1
100
AcDbCircle
10
-14
20
55
40
0.05
0
CIRCLE
5
A5
100
AcDbEntity
8
KT_conn
6
ByLayer
62
256
370
-1
100
AcDbCircle
10
-14
20
50
40
0.05
0
CIRCLE
5
A6
100
AcDbEntity
8
KT_conn
6
ByLayer
62
256
370
-1
100
AcDbCircle
10
-14
20
45
40
0.05
0
CIRCLE
5
A7
100
AcDbEntity
8
KT_conn
6
ByLayer
62
256
370
-1
100
AcDbCircle
10
-14
20
40
40
0.05
0
CIRCLE
5
A8
100
AcDbEntity
8
KT_conn
6
ByLayer
62
256
370
-1
100
AcDbCircle
10
-14
20
35
40
0.05
0
CIRCLE
5
A9
100
AcDbEntity
8
KT_conn
6
ByLayer
62
256
370
-1
100
AcDbCircle
10
-14
20
30
40
0.05
0
CIRCLE
5
AA
100
AcDbEntity
8
KT_conn
6
ByLayer
62
256
370
-1
100
AcDbCircle
10
-14
20
25
40
0.05
0
CIRCLE
5
AB
100
AcDbEntity
8
KT_conn
6
ByLayer
62
256
370
-1
100
AcDbCircle
10
-14
20
20
40
0.05
0
CIRCLE
5
AC
100
AcDbEntity
8
KT_conn
6
ByLayer
62
256
370
-1
100
AcDbCircle
10
-14
20
15
40
0.05
0
CIRCLE
5
AD
100
AcDbEntity
8
KT_conn
6
ByLayer
62
256
370
-1
100
AcDbCircle
10
-14
20
10
40
0.05
0
CIRCLE
5
AE
100
AcDbEntity
8
KT_conn
6
ByLayer
62
256
370
-1
100
AcDbCircle
10
-14
20
5
40
0.05
0
ENDBLK
5
4C
330
4A
100
AcDbEntity
8
0
100
AcDbBlockEnd
0
BLOCK
5
4E
330
4D
100
AcDbEntity
8
0
100
AcDbBlockBegin
2
ktconn-bulkhead
70
0
10
0
20
0
3
ktconn-bulkhead
1

0
ARC
5
AF
100
AcDbEntity
8
KT_conn
6
ByLayer
62
256
370
-1
100
AcDbCircle
10
34.607695155
20
1
40
5
100
AcDbArc
50
47.8965511293
51
90
0
ARC
5
B0
100
AcDbEntity
8
KT_conn
6
ByLayer
62
256
370
-1
100
AcDbCircle
10
55.392304845
20
1
40
5
100
AcDbArc
50
90
51
132.103448871
0
ARC
5
B1
100
AcDbEntity
8
KT_conn
6
ByLayer
62
256
370
-1
100
AcDbCircle
10
11
20
11
40
5
100
AcDbArc
50
180
51
270
0
LINE
5
B2
100
AcDbEntity
8
KT_conn
6
ByLayer
62
256
370
-1
100
AcDbLine
10
6
20
38.037
11
6
21
11
0
ARC
5
B3
100
AcDbEntity
8
KT_conn
6
ByLayer
62
256
370
-1
100
AcDbCircle
10
11
20
38.037
40
5
100
AcDbArc
50
90
51
180
0
LINE
5
B4
100
AcDbEntity
8
KT_conn
6
ByLayer
62
256
370
-1
100
AcDbLine
10
79
20
43.037
11
11
21
43.037
0
ARC
5
B5
100
AcDbEntity
8
KT_conn
6
ByLayer
62
256
370
-1
100
AcDbCircle
10
79
20
38.037
40
5
100
AcDbArc
50
0
51
90
0
LINE
5
B6
100
AcDbEntity
8
KT_conn
6
ByLayer
62
256
370
-1
100
AcDbLine
10
84
20
38.037
11
84
21
11
0
ARC
5
B7
100
AcDbEntity
8
KT_conn
6
ByLayer
62
256
370
-1
100
AcDbCircle
10
79
20
11
40
5
100
AcDbArc
50
270
51
360
0
LINE
5
B8
100
AcDbEntity
8
KT_conn
6
ByLayer
62
256
370
-1
100
AcDbLine
10
34.607695155
20
6
11
11
21
6
0
LINE
5
B9
100
AcDbEntity
8
KT_conn
6
ByLayer
62
256
370
-1
100
AcDbLine
10
55.392304845
20
6
11
79
21
6
0
ARC
5
BA
100
AcDbEntity
8
KT_conn
6
ByLayer
62
256
370
-1
100
AcDbCircle
10
45
20
12.5
40
10.5
100
AcDbArc
50
227.896551129
51
312.103357808
0
LINE
5
BB
100
AcDbEntity
8
KT_conn
6
ByLayer
62
256
370
-1
100
AcDbLine
10
15
20
0
11
15
21
2
0
LINE
5
BC
100
AcDbEntity
8
KT_conn
6
ByLayer
62
256
370
-1
100
AcDbLine
10
15
20
2
11
30
21
2
0
LINE
5
BD
100
AcDbEntity
8
KT_conn
6
ByLayer
62
256
370
-1
100
AcDbLine
10
30
20
2
11
30
21
0
0
LINE
5
BE
100
AcDbEntity
8
KT_conn
6
ByLayer
62
256
370
-1
100
AcDbLine
10
30
20
0
11
60
21
0
0
LINE
5
BF
100
AcDbEntity
8
KT_conn
6
ByLayer
62
256
370
-1
100
AcDbLine
10
60
20
0
11
60
21
2
0
LINE
5
C0
100
AcDbEntity
8
KT_conn
6
ByLayer
62
256
370
-1
100
AcDbLine
10
60
20
2
11
75
21
2
0
LINE
5
C1
100
AcDbEntity
8
KT_conn
6
ByLayer
62
256
370
-1
100
AcDbLine
10
75
20
2
11
75
21
-2.84217094304e-14
0
LINE
5
C2
100
AcDbEntity
8
KT_conn
6
ByLayer
62
256
370
-1
100
AcDbLine
10
15
20
0
11
0
21
0
0
LINE
5
C3
100
AcDbEntity
8
KT_conn
6
ByLayer
62
256
370
-1
100
AcDbLine
10
75
20
-2.84217094304e-14
11
90
21
0
0
LINE
5
C4
100
AcDbEntity
8
KT_conn
6
ByLayer
62
256
370
-1
100
AcDbLine
10
15
20
49.037
11
15
21
47.037
0
LINE
5
C5
100
AcDbEntity
8
KT_conn
6
ByLayer
62
256
370
-1
100
AcDbLine
10
15
20
47.037
11
30
21
47.037
0
LINE
5
C6
100
AcDbEntity
8
KT_conn
6
ByLayer
62
256
370
-1
100
AcDbLine
10
30
20
47.037
11
30
21
49.037
0
LINE
5
C7
100
AcDbEntity
8
KT_conn
6
ByLayer
62
256
370
-1
100
AcDbLine
10
60
20
49.037
11
60
21
47.037
0
LINE
5
C8
100
AcDbEntity
8
KT_conn
6
ByLayer
62
256
370
-1
100
AcDbLine
10
60
20
47.037
11
75
21
47.037
0
LINE
5
C9
100
AcDbEntity
8
KT_conn
6
ByLayer
62
256
370
-1
100
AcDbLine
10
75
20
47.037
11
75
21
49.037
0
LINE
5
CA
100
AcDbEntity
8
KT_conn
6
ByLayer
62
256
370
-1
100
AcDbLine
10
90
20
49.037
11
75
21
49.037
0
LINE
5
CB
100
AcDbEntity
8
KT_conn
6
ByLayer
62
256
370
-1
100
AcDbLine
10
60
20
49.037
11
30
21
49.037
0
LINE
5
CC
100
AcDbEntity
8
KT_conn
6
ByLayer
62
256
370
-1
100
AcDbLine
10
15
20
49.037
11
0
21
49.037
0
LINE
5
CD
100
AcDbEntity
8
KT_conn
6
ByLayer
62
256
370
-1
100
AcDbLine
10
90
20
30
11
88
21
30
0
LINE
5
CE
100
AcDbEntity
8
KT_conn
6
ByLayer
62
256
370
-1
100
AcDbLine
10
88
20
30
11
88
21
15
0
LINE
5
CF
100
AcDbEntity
8
KT_conn
6
ByLayer
62
256
370
-1
100
AcDbLine
10
88
20
15
11
90
21
15
0
LINE
5
D0
100
AcDbEntity
8
KT_conn
6
ByLayer
62
256
370
-1
100
AcDbLine
10
0
20
30
11
2
21
30
0
LINE
5
D1
100
AcDbEntity
8
KT_conn
6
ByLayer
62
256
370
-1
100
AcDbLine
10
2
20
30
11
2
21
15
0
LINE
5
D2
100
AcDbEntity
8
KT_conn
6
ByLayer
62
256
370
-1
100
AcDbLine
10
2
20
15
11
0
21
15
0
LINE
5
D3
100
AcDbEntity
8
KT_conn
6
ByLayer
62
256
370
-1
100
AcDbLine
10
90
20
49.037
11
90
21
30
0
LINE
5
D4
100
AcDbEntity
8
KT_conn
6
ByLayer
62
256
370
-1
100
AcDbLine
10
90
20
15
11
90
21
0
0
LINE
5
D5
100
AcDbEntity
8
KT_conn
6
ByLayer
62
256
370
-1
100
AcDbLine
10
0
20
49.037
11
0
21
30
0
LINE
5
D6
100
AcDbEntity
8
KT_conn
6
ByLayer
62
256
370
-1
100
AcDbLine
10
0
20
15
11
0
21
0
0
ENDBLK
5
4F
330
4D
100
AcDbEntity
8
0
100
AcDbBlockEnd
0
BLOCK
5
51
330
50
100
AcDbEntity
8
0
100
AcDbBlockBegin
2
top-front
70
0
10
0
20
0
3
top-front
1

0
LINE
5
D7
100
AcDbEntity
8
top
6
ByLayer
62
256
370
-1
100
AcDbLine
10
10
20
0
11
10
21
2
0
LINE
5
D8
100
AcDbEntity
8
top
6
ByLayer
62
256
370
-1
100
AcDbLine
10
10
20
2
11
23.2548
21
2
0
LINE
5
D9
100
AcDbEntity
8
top
6
ByLayer
62
256
370
-1
100
AcDbLine
10
23.2548
20
2
11
23.2548
21
0
0
LINE
5
DA
100
AcDbEntity
8
top
6
ByLayer
62
256
370
-1
100
AcDbLine
10
23.2548
20
0
11
33.2548
21
0
0
LINE
5
DB
100
AcDbEntity
8
top
6
ByLayer
62
256
370
-1
100
AcDbLine
10
33.2548
20
0
11
33.2548
21
2
0
LINE
5
DC
100
AcDbEntity
8
top
6
ByLayer
62
256
370
-1
100
AcDbLine
10
33.2548
20
2
11
43.2548
21
2
0
LINE
5
DD
100
AcDbEntity
8
top
6
ByLayer
62
256
370
-1
100
AcDbLine
10
10
20
90
11
10
21
88
0
LINE
5
DE
100
AcDbEntity
8
top
6
ByLayer
62
256
370
-1
100
AcDbLine
10
10
20
88
11
23.2548
21
88
0
LINE
5
DF
100
AcDbEntity
8
top
6
ByLayer
62
256
370
-1
100
AcDbLine
10
23.2548
20
88
11
23.2548
21
90
0
LINE
5
E0
100
AcDbEntity
8
top
6
ByLayer
62
256
370
-1
100
AcDbLine
10
23.2548
20
90
11
33.2548
21
90
0
LINE
5
E1
100
AcDbEntity
8
top
6
ByLayer
62
256
370
-1
100
AcDbLine
10
33.2548
20
90
11
33.2548
21
88
0
LINE
5
E2
100
AcDbEntity
8
top
6
ByLayer
62
256
370
-1
100
AcDbLine
10
33.2548
20
88
11
43.2548
21
88
0
LINE
5
E3
100
AcDbEntity
8
top
6
ByLayer
62
256
370
-1
100
AcDbLine
10
43.2548
20
2
11
43.2548
21
88
0
ARC
5
E4
100
AcDbEntity
8
top
6
ByLayer
62
256
370
-1
100
AcDbCircle
10
16.88909
20
75
40
5
100
AcDbArc
50
90
51
180
0
LINE
5
E5
100
AcDbEntity
8
top
6
ByLayer
62
256
370
-1
100
AcDbLine
10
30.2548
20
80
11
16.88909
21
80
0
ARC
5
E6
100
AcDbEntity
8
top
6
ByLayer
62
256
370
-1
100
AcDbCircle
10
30.2548
20
75
40
5
100
AcDbArc
50
0
51
90
0
LINE
5
E7
100
AcDbEntity
8
top
6
ByLayer
62
256
370
-1
100
AcDbLine
10
35.2548
20
15
11
35.2548
21
75
0
ARC
5
E8
100
AcDbEntity
8
top
6
ByLayer
62
256
370
-1
100
AcDbCircle
10
30.2548
20
15
40
5
100
AcDbArc
50
270
51
0
0
LINE
5
E9
100
AcDbEntity
8
top
6
ByLayer
62
256
370
-1
100
AcDbLine
10
11.88909
20
75
11
11.88909
21
15
0
LINE
5
EA
100
AcDbEntity
8
top
6
ByLayer
62
256
370
-1
100
AcDbLine
10
16.88909
20
10
11
30.2548
21
10
0
ARC
5
EB
100
AcDbEntity
8
top
6
ByLayer
62
256
370
-1
100
AcDbCircle
10
16.88909
20
15
40
5
100
AcDbArc
50
180
51
270
0
LINE
5
EC
100
AcDbEntity
8
top
6
ByLayer
62
256
370
-1
100
AcDbLine
10
2.8284
20
0
11
10
21
0
0
LINE
5
ED
100
AcDbEntity
8
top
6
ByLayer
62
256
370
-1
100
AcDbLine
10
2.8284
20
0
11
10
21
0
0
LINE
5
EE
100
AcDbEntity
8
top
6
ByLayer
62
256
370
-1
100
AcDbLine
10
2.8284
20
90
11
10
21
90
0
LINE
5
EF
100
AcDbEntity
8
top
6
ByLayer
62
256
370
-1
100
AcDbLine
10
0.82843
20
0
11
0.82843
21
2
0
LINE
5
F0
100
AcDbEntity
8
top
6
ByLayer
62
256
370
-1
100
AcDbLine
10
0.828427
20
2
11
0.82843
21
2
0
LINE
5
F1
100
AcDbEntity
8
top
6
ByLayer
62
256
370
-1
100
AcDbLine
10
0
20
2
11
0.82843
21
2
0
LINE
5
F2
100
AcDbEntity
8
top
6
ByLayer
62
256
370
-1
100
AcDbLine
10
0.828427
20
0
11
2.8284
21
0
0
LINE
5
F3
100
AcDbEntity
8
top
6
ByLayer
62
256
370
-1
100
AcDbLine
10
0
20
88
11
0.82843
21
88
0
LINE
5
F4
100
AcDbEntity
8
top
6
ByLayer
62
256
370
-1
100
AcDbLine
10
0.82843
20
88
11
0.82843
21
90
0
LINE
5
F5
100
AcDbEntity
8
top
6
ByLayer
62
256
370
-1
100
AcDbLine
10
0.82843
20
90
11
2.8284
21
90
0
LINE
5
F6
100
AcDbEntity
8
top
6
ByLayer
62
256
370
-1
100
AcDbLine
10
0
20
88
11
0
21
2
0
LINE
5
F7
100
AcDbEntity
8
top
6
ByLayer
62
256
370
-1
100
AcDbLine
10
0.82843
20
80
11
4.24264
21
80
0
LINE
5
F8
100
AcDbEntity
8
top
6
ByLayer
62
256
370
-1
100
AcDbLine
10
4.24264
20
80
11
4.24264
21
70
0
LINE
5
F9
100
AcDbEntity
8
top
6
ByLayer
62
256
370
-1
100
AcDbLine
10
4.24264
20
70
11
0.82843
21
70
0
LINE
5
FA
100
AcDbEntity
8
top
6
ByLayer
62
256
370
-1
100
AcDbLine
10
0.82843
20
70
11
0.82843
21
80
0
LINE
5
FB
100
AcDbEntity
8
top
6
ByLayer
62
256
370
-1
100
AcDbLine
10
0.82843
20
60
11
4.24264
21
60
0
LINE
5
FC
100
AcDbEntity
8
top
6
ByLayer
62
256
370
-1
100
AcDbLine
10
4.24264
20
60
11
4.24264
21
30
0
LINE
5
FD
100
AcDbEntity
8
top
6
ByLayer
62
256
370
-1
100
AcDbLine
10
4.24264
20
30
11
0.82843
21
30
0
LINE
5
FE
100
AcDbEntity
8
top
6
ByLayer
62
256
370
-1
100
AcDbLine
10
0.82843
20
30
11
0.82843
21
60
0
LINE
5
FF
100
AcDbEntity
8
top
6
ByLayer
62
256
370
-1
100
AcDbLine
10
0.82843
20
20
11
4.24264
21
20
0
LINE
5
100
100
AcDbEntity
8
top
6
ByLayer
62
256
370
-1
100
AcDbLine
10
4.24264
20
20
11
4.24264
21
10
0
LINE
5
101
100
AcDbEntity
8
top
6
ByLayer
62
256
370
-1
100
AcDbLine
10
4.24264
20
10
11
0.82843
21
10
0
LINE
5
102
100
AcDbEntity
8
top
6
ByLayer
62
256
370
-1
100
AcDbLine
10
0.82843
20
10
11
0.82843
21
20
0
ENDBLK
5
52
330
50
100
AcDbEntity
8
0
100
AcDbBlockEnd
0
BLOCK
5
54
330
53
100
AcDbEntity
8
0
100
AcDbBlockBegin
2
bulkhead-1
70
0
10
0
20
0
3
bulkhead-1
1

0
LINE
5
103
100
AcDbEntity
8
bulkhead
6
ByLayer
62
256
370
-1
100
AcDbLine
10
-0.0300007179431
20
30
11
-0.0200004786287
21
20
0
LINE
5
104
100
AcDbEntity
8
bulkhead
6
ByLayer
62
256
370
-1
100
AcDbLine
10
-0.0100002393144
20
10
11
0
21
5
0
ARC
5
105
100
AcDbEntity
8
bulkhead
6
ByLayer
62
256
370
-1
100
AcDbCircle
10
68
20
22
40
5
100
AcDbArc
50
270
51
0
0
ARC
5
106
100
AcDbEntity
8
bulkhead
6
ByLayer
62
256
370
-1
100
AcDbCircle
10
68
20
25
40
5
100
AcDbArc
50
0
51
90
0
ARC
5
107
100
AcDbEntity
8
bulkhead
6
ByLayer
62
256
370
-1
100
AcDbCircle
10
55.9544511501
20
35
40
5
100
AcDbArc
50
249.306458769
51
270
0
ARC
5
108
100
AcDbEntity
8
bulkhead
6
ByLayer
62
256
370
-1
100
AcDbCircle
10
34.0455488499
20
35
40
5
100
AcDbArc
50
270
51
290.693541231
0
ARC
5
109
100
AcDbEntity
8
bulkhead
6
ByLayer
62
256
370
-1
100
AcDbCircle
10
22
20
25
40
5
100
AcDbArc
50
90
51
180
0
ARC
5
10A
100
AcDbEntity
8
bulkhead
6
ByLayer
62
256
370
-1
100
AcDbCircle
10
22
20
22
40
5
100
AcDbArc
50
180
51
270
0
ARC
5
10B
100
AcDbEntity
8
bulkhead
6
ByLayer
62
256
370
-1
100
AcDbCircle
10
45
20
6
40
26
100
AcDbArc
50
67.380135052
51
112.619864948
0
LINE
5
10C
100
AcDbEntity
8
bulkhead
6
ByLayer
62
256
370
-1
100
AcDbLine
10
22
20
30
11
34.0455488499
21
30
0
LINE
5
10D
100
AcDbEntity
8
bulkhead
6
ByLayer
62
256
370
-1
100
AcDbLine
10
17
20
22
11
17
21
25
0
LINE
5
10E
100
AcDbEntity
8
bulkhead
6
ByLayer
62
256
370
-1
100
AcDbLine
10
55.9544511501
20
30
11
68
21
30
0
LINE
5
10F
100
AcDbEntity
8
bulkhead
6
ByLayer
62
256
370
-1
100
AcDbLine
10
73
20
25
11
73
21
22
0
LINE
5
110
100
AcDbEntity
8
bulkhead
6
ByLayer
62
256
370
-1
100
AcDbLine
10
10
20
0
11
20
21
0
0
LINE
5
111
100
AcDbEntity
8
bulkhead
6
ByLayer
62
256
370
-1
100
AcDbLine
10
30
20
0
11
60
21
0
0
LINE
5
112
100
AcDbEntity
8
bulkhead
6
ByLayer
62
256
370
-1
100
AcDbLine
10
70
20
0
11
80
21
0
0
LINE
5
113
100
AcDbEntity
8
bulkhead
6
ByLayer
62
256
370
-1
100
AcDbLine
10
2
20
20
11
2
21
10
0
LINE
5
114
100
AcDbEntity
8
bulkhead
6
ByLayer
62
256
370
-1
100
AcDbLine
10
2
20
30
11
-0.0300007179431
21
30
0
LINE
5
115
100
AcDbEntity
8
bulkhead
6
ByLayer
62
256
370
-1
100
AcDbLine
10
-0.0200004786287
20
20
11
2
21
20
0
LINE
5
116
100
AcDbEntity
8
bulkhead
6
ByLayer
62
256
370
-1
100
AcDbLine
10
2
20
10
11
-0.0100002393144
21
10
0
LINE
5
117
100
AcDbEntity
8
bulkhead
6
ByLayer
62
256
370
-1
100
AcDbLine
10
0
20
5
11
2
21
5
0
LINE
5
118
100
AcDbEntity
8
bulkhead
6
ByLayer
62
256
370
-1
100
AcDbLine
10
20
20
2
11
30
21
2
0
LINE
5
119
100
AcDbEntity
8
bulkhead
6
ByLayer
62
256
370
-1
100
AcDbLine
10
60
20
2
11
70
21
2
0
LINE
5
11A
100
AcDbEntity
8
bulkhead
6
ByLayer
62
256
370
-1
100
AcDbLine
10
2
20
2
11
10
21
2
0
LINE
5
11B
100
AcDbEntity
8
bulkhead
6
ByLayer
62
256
370
-1
100
AcDbLine
10
2
20
5
11
2
21
2
0
LINE
5
11C
100
AcDbEntity
8
bulkhead
6
ByLayer
62
256
370
-1
100
AcDbLine
10
10
20
2
11
10
21
0
0
LINE
5
11D
100
AcDbEntity
8
bulkhead
6
ByLayer
62
256
370
-1
100
AcDbLine
10
20
20
0
11
20
21
2
0
LINE
5
11E
100
AcDbEntity
8
bulkhead
6
ByLayer
62
256
370
-1
100
AcDbLine
10
30
20
2
11
30
21
0
0
LINE
5
11F
100
AcDbEntity
8
bulkhead
6
ByLayer
62
256
370
-1
100
AcDbLine
10
60
20
0
11
60
21
2
0
LINE
5
120
100
AcDbEntity
8
bulkhead
6
ByLayer
62
256
370
-1
100
AcDbLine
10
70
20
2
11
70
21
0
0
LINE
5
121
100
AcDbEntity
8
bulkhead
6
ByLayer
62
256
370
-1
100
AcDbLine
10
80
20
0
11
80
21
2
0
LINE
5
122
100
AcDbEntity
8
bulkhead
6
ByLayer
62
256
370
-1
100
AcDbLine
10
90.0300007179
20
30
11
90.0200004786
21
20
0
LINE
5
123
100
AcDbEntity
8
bulkhead
6
ByLayer
62
256
370
-1
100
AcDbLine
10
90.0100002393
20
10
11
90
21
5
0
LINE
5
124
100
AcDbEntity
8
bulkhead
6
ByLayer
62
256
370
-1
100
AcDbLine
10
88
20
20
11
88
21
10
0
LINE
5
125
100
AcDbEntity
8
bulkhead
6
ByLayer
62
256
370
-1
100
AcDbLine
10
88
20
30
11
90.0300007179
21
30
0
LINE
5
126
100
AcDbEntity
8
bulkhead
6
ByLayer
62
256
370
-1
100
AcDbLine
10
90.0200004786
20
20
11
88
21
20
0
LINE
5
127
100
AcDbEntity
8
bulkhead
6
ByLayer
62
256
370
-1
100
AcDbLine
10
88
20
10
11
90.0100002393
21
10
0
LINE
5
128
100
AcDbEntity
8
bulkhead
6
ByLayer
62
256
370
-1
100
AcDbLine
10
90
20
5
11
88
21
5
0
LINE
5
129
100
AcDbEntity
8
bulkhead
6
ByLayer
62
256
370
-1
100
AcDbLine
10
88
20
2
11
80
21
2
0
LINE
5
12A
100
AcDbEntity
8
bulkhead
6
ByLayer
62
256
370
-1
100
AcDbLine
10
88
20
5
11
88
21
2
0
LINE
5
12B
100
AcDbEntity
8
bulkhead
6
ByLayer
62
256
370
-1
100
AcDbLine
10
80
20
2
11
80
21
0
0
LINE
5
12C
100
AcDbEntity
8
bulkhead
6
ByLayer
62
256
370
-1
100
AcDbLine
10
80
20
2
11
88
21
2
0
LINE
5
12D
100
AcDbEntity
8
bulkhead
6
ByLayer
62
256
370
-1
100
AcDbLine
10
2
20
37.73115
11
10
21
37.73115
0
LINE
5
12E
100
AcDbEntity
8
bulkhead
6
ByLayer
62
256
370
-1
100
AcDbLine
10
10
20
37.73115
11
10
21
40
0
LINE
5
12F
100
AcDbEntity
8
bulkhead
6
ByLayer
62
256
370
-1
100
AcDbLine
10
10
20
40
11
20
21
40
0
LINE
5
130
100
AcDbEntity
8
bulkhead
6
ByLayer
62
256
370
-1
100
AcDbLine
10
20
20
40
11
20
21
37.73115
0
LINE
5
131
100
AcDbEntity
8
bulkhead
6
ByLayer
62
256
370
-1
100
AcDbLine
10
20
20
37.73115
11
30
21
37.73115
0
LINE
5
132
100
AcDbEntity
8
bulkhead
6
ByLayer
62
256
370
-1
100
AcDbLine
10
30
20
37.73115
11
30
21
40
0
LINE
5
133
100
AcDbEntity
8
bulkhead
6
ByLayer
62
256
370
-1
100
AcDbLine
10
30
20
40
11
60
21
40
0
LINE
5
134
100
AcDbEntity
8
bulkhead
6
ByLayer
62
256
370
-1
100
AcDbLine
10
60
20
40
11
60
21
37.73115
0
LINE
5
135
100
AcDbEntity
8
bulkhead
6
ByLayer
62
256
370
-1
100
AcDbLine
10
60
20
37.73115
11
70
21
37.73115
0
LINE
5
136
100
AcDbEntity
8
bulkhead
6
ByLayer
62
256
370
-1
100
AcDbLine
10
70
20
37.73115
11
70
21
40
0
LINE
5
137
100
AcDbEntity
8
bulkhead
6
ByLayer
62
256
370
-1
100
AcDbLine
10
70
20
40
11
80
21
40
0
LINE
5
138
100
AcDbEntity
8
bulkhead
6
ByLayer
62
256
370
-1
100
AcDbLine
10
80
20
40
11
80
21
37.73115
0
LINE
5
139
100
AcDbEntity
8
bulkhead
6
ByLayer
62
256
370
-1
100
AcDbLine
10
80
20
37.73115
11
88
21
37.73115
0
LINE
5
13A
100
AcDbEntity
8
bulkhead
6
ByLayer
62
256
370
-1
100
AcDbLine
10
2
20
37.73115
11
2
21
30
0
LINE
5
13B
100
AcDbEntity
8
bulkhead
6
ByLayer
62
256
370
-1
100
AcDbLine
10
88
20
37.73115
11
88
21
30
0
CIRCLE
5
13C
100
AcDbEntity
8
bulkhead
6
ByLayer
62
256
370
-1
100
AcDbCircle
10
45
20
12.5
40
10.5
0
ARC
5
13D
100
AcDbEntity
8
bulkhead
6
ByLayer
62
256
370
-1
100
AcDbCircle
10
63.1659021246
20
22
40
5
100
AcDbArc
50
207.607668059
51
270
0
ARC
5
13E
100
AcDbEntity
8
bulkhead
6
ByLayer
62
256
370
-1
100
AcDbCircle
10
26.8340978754
20
22
40
5
100
AcDbArc
50
270
51
332.392331941
0
LINE
5
13F
100
AcDbEntity
8
bulkhead
6
ByLayer
62
256
370
-1
100
AcDbLine
10
68
20
17
11
63.1659042571
21
17
0
LINE
5
140
100
AcDbEntity
8
bulkhead
6
ByLayer
62
256
370
-1
100
AcDbLine
10
22
20
17
11
26.8340942912
21
17
0
ARC
5
141
100
AcDbEntity
8
bulkhead
6
ByLayer
62
256
370
-1
100
AcDbCircle
10
45
20
12.5
40
15.5
100
AcDbArc
50
27.6078925377
51
152.392191402
0
ENDBLK
5
55
330
53
100
AcDbEntity
8
0
100
AcDbBlockEnd
0
BLOCK
5
57
330
56
100
AcDbEntity
8
0
100
AcDbBlockBegin
2
bulkhead-4
70
0
10
0
20
0
3
bulkhead-4
1

0
ARC
5
142
100
AcDbEntity
8
bulkhead
6
ByLayer
62
256
370
-1
100
AcDbCircle
10
68
20
22
40
5
100
AcDbArc
50
270
51
0
0
ARC
5
143
100
AcDbEntity
8
bulkhead
6
ByLayer
62
256
370
-1
100
AcDbCircle
10
68
20
30
40
5
100
AcDbArc
50
0
51
90
0
ARC
5
144
100
AcDbEntity
8
bulkhead
6
ByLayer
62
256
370
-1
100
AcDbCircle
10
22
20
30
40
5
100
AcDbArc
50
90
51
180
0
ARC
5
145
100
AcDbEntity
8
bulkhead
6
ByLayer
62
256
370
-1
100
AcDbCircle
10
22
20
22
40
5
100
AcDbArc
50
180
51
270
0
LINE
5
146
100
AcDbEntity
8
bulkhead
6
ByLayer
62
256
370
-1
100
AcDbLine
10
22
20
35
11
68
21
35
0
LINE
5
147
100
AcDbEntity
8
bulkhead
6
ByLayer
62
256
370
-1
100
AcDbLine
10
73
20
30
11
73
21
22
0
LINE
5
148
100
AcDbEntity
8
bulkhead
6
ByLayer
62
256
370
-1
100
AcDbLine
10
17
20
22
11
17
21
30
0
LINE
5
149
100
AcDbEntity
8
bulkhead
6
ByLayer
62
256
370
-1
100
AcDbLine
10
2
20
47.17157
11
10
21
47.17157
0
LINE
5
14A
100
AcDbEntity
8
bulkhead
6
ByLayer
62
256
370
-1
100
AcDbLine
10
10
20
47.17157
11
10
21
50
0
LINE
5
14B
100
AcDbEntity
8
bulkhead
6
ByLayer
62
256
370
-1
100
AcDbLine
10
10
20
50
11
20
21
50
0
LINE
5
14C
100
AcDbEntity
8
bulkhead
6
ByLayer
62
256
370
-1
100
AcDbLine
10
20
20
50
11
20
21
47.17157
0
LINE
5
14D
100
AcDbEntity
8
bulkhead
6
ByLayer
62
256
370
-1
100
AcDbLine
10
20
20
47.17157
11
30
21
47.17157
0
LINE
5
14E
100
AcDbEntity
8
bulkhead
6
ByLayer
62
256
370
-1
100
AcDbLine
10
30
20
47.17157
11
30
21
50
0
LINE
5
14F
100
AcDbEntity
8
bulkhead
6
ByLayer
62
256
370
-1
100
AcDbLine
10
30
20
50
11
60
21
50
0
LINE
5
150
100
AcDbEntity
8
bulkhead
6
ByLayer
62
256
370
-1
100
AcDbLine
10
60
20
50
11
60
21
47.17157
0
LINE
5
151
100
AcDbEntity
8
bulkhead
6
ByLayer
62
256
370
-1
100
AcDbLine
10
60
20
47.17157
11
70
21
47.17157
0
LINE
5
152
100
AcDbEntity
8
bulkhead
6
ByLayer
62
256
370
-1
100
AcDbLine
10
70
20
47.17157
11
70
21
50
0
LINE
5
153
100
AcDbEntity
8
bulkhead
6
ByLayer
62
256
370
-1
100
AcDbLine
10
70
20
50
11
80
21
50
0
LINE
5
154
100
AcDbEntity
8
bulkhead
6
ByLayer
62
256
370
-1
100
AcDbLine
10
80
20
50
11
80
21
47.17157
0
LINE
5
155
100
AcDbEntity
8
bulkhead
6
ByLayer
62
256
370
-1
100
AcDbLine
10
80
20
47.17157
11
88
21
47.17157
0
LINE
5
156
100
AcDbEntity
8
bulkhead
6
ByLayer
62
256
370
-1
100
AcDbLine
10
27.7663120604
20
17
11
27.6794919243
21
17
0
CIRCLE
5
157
100
AcDbEntity
8
bulkhead
6
ByLayer
62
256
370
-1
100
AcDbCircle
10
45
20
12.5
40
10.5
0
ARC
5
158
100
AcDbEntity
8
bulkhead
6
ByLayer
62
256
370
-1
100
AcDbCircle
10
26.8340978754
20
22
40
5
100
AcDbArc
50
270
51
332.392331941
0
ARC
5
159
100
AcDbEntity
8
bulkhead
6
ByLayer
62
256
370
-1
100
AcDbCircle
10
63.1659021246
20
22
40
5
100
AcDbArc
50
207.607668059
51
270
0
LINE
5
15A
100
AcDbEntity
8
bulkhead
6
ByLayer
62
256
370
-1
100
AcDbLine
10
26.8340978754
20
17
11
22
21
17
0
ARC
5
15B
100
AcDbEntity
8
bulkhead
6
ByLayer
62
256
370
-1
100
AcDbCircle
10
45
20
12.5
40
15.5
100
AcDbArc
50
27.6076748045
51
152.392331941
0
LINE
5
15C
100
AcDbEntity
8
bulkhead
6
ByLayer
62
256
370
-1
100
AcDbLine
10
68
20
17
11
63.1659021246
21
17
0
LINE
5
15D
100
AcDbEntity
8
bulkhead
6
ByLayer
62
256
370
-1
100
AcDbLine
10
2
20
2
11
2
21
5
0
LINE
5
15E
100
AcDbEntity
8
bulkhead
6
ByLayer
62
256
370
-1
100
AcDbLine
10
2
20
5
11
0
21
5
0
LINE
5
15F
100
AcDbEntity
8
bulkhead
6
ByLayer
62
256
370
-1
100
AcDbLine
10
0
20
5
11
0
21
20
0
LINE
5
160
100
AcDbEntity
8
bulkhead
6
ByLayer
62
256
370
-1
100
AcDbLine
10
0
20
20
11
2
21
20
0
LINE
5
161
100
AcDbEntity
8
bulkhead
6
ByLayer
62
256
370
-1
100
AcDbLine
10
2
20
20
11
2
21
25
0
LINE
5
162
100
AcDbEntity
8
bulkhead
6
ByLayer
62
256
370
-1
100
AcDbLine
10
2
20
25
11
0
21
25
0
LINE
5
163
100
AcDbEntity
8
bulkhead
6
ByLayer
62
256
370
-1
100
AcDbLine
10
0
20
25
11
0
21
40
0
LINE
5
164
100
AcDbEntity
8
bulkhead
6
ByLayer
62
256
370
-1
100
AcDbLine
10
0
20
40
11
2
21
40
0
LINE
5
165
100
AcDbEntity
8
bulkhead
6
ByLayer
62
256
370
-1
100
AcDbLine
10
2
20
40
11
2
21
47.17157
0
LINE
5
166
100
AcDbEntity
8
bulkhead
6
ByLayer
62
256
370
-1
100
AcDbLine
10
88
20
2
11
88
21
5
0
LINE
5
167
100
AcDbEntity
8
bulkhead
6
ByLayer
62
256
370
-1
100
AcDbLine
10
88
20
5
11
90
21
5
0
LINE
5
168
100
AcDbEntity
8
bulkhead
6
ByLayer
62
256
370
-1
100
AcDbLine
10
90
20
5
11
90
21
20
0
LINE
5
169
100
AcDbEntity
8
bulkhead
6
ByLayer
62
256
370
-1
100
AcDbLine
10
90
20
20
11
88
21
20
0
LINE
5
16A
100
AcDbEntity
8
bulkhead
6
ByLayer
62
256
370
-1
100
AcDbLine
10
88
20
20
11
88
21
25
0
LINE
5
16B
100
AcDbEntity
8
bulkhead
6
ByLayer
62
256
370
-1
100
AcDbLine
10
88
20
25
11
90
21
25
0
LINE
5
16C
100
AcDbEntity
8
bulkhead
6
ByLayer
62
256
370
-1
100
AcDbLine
10
90
20
25
11
90
21
40
0
LINE
5
16D
100
AcDbEntity
8
bulkhead
6
ByLayer
62
256
370
-1
100
AcDbLine
10
90
20
40
11
88
21
40
0
LINE
5
16E
100
AcDbEntity
8
bulkhead
6
ByLayer
62
256
370
-1
100
AcDbLine
10
88
20
40
11
88
21
47.17157
0
LINE
5
16F
100
AcDbEntity
8
bulkhead
6
ByLayer
62
256
370
-1
100
AcDbLine
10
4
20
16
11
2
21
16
0
LINE
5
170
100
AcDbEntity
8
bulkhead
6
ByLayer
62
256
370
-1
100
AcDbLine
10
2
20
16
11
2
21
9
0
LINE
5
171
100
AcDbEntity
8
bulkhead
6
ByLayer
62
256
370
-1
100
AcDbLine
10
2
20
9
11
4
21
9
0
LINE
5
172
100
AcDbEntity
8
bulkhead
6
ByLayer
62
256
370
-1
100
AcDbLine
10
4
20
9
11
4
21
16
0
LINE
5
173
100
AcDbEntity
8
bulkhead
6
ByLayer
62
256
370
-1
100
AcDbLine
10
4
20
36
11
2
21
36
0
LINE
5
174
100
AcDbEntity
8
bulkhead
6
ByLayer
62
256
370
-1
100
AcDbLine
10
2
20
36
11
2
21
29
0
LINE
5
175
100
AcDbEntity
8
bulkhead
6
ByLayer
62
256
370
-1
100
AcDbLine
10
2
20
29
11
4
21
29
0
LINE
5
176
100
AcDbEntity
8
bulkhead
6
ByLayer
62
256
370
-1
100
AcDbLine
10
4
20
29
11
4
21
36
0
LINE
5
177
100
AcDbEntity
8
bulkhead
6
ByLayer
62
256
370
-1
100
AcDbLine
10
86
20
16
11
88
21
16
0
LINE
5
178
100
AcDbEntity
8
bulkhead
6
ByLayer
62
256
370
-1
100
AcDbLine
10
88
20
16
11
88
21
9
0
LINE
5
179
100
AcDbEntity
8
bulkhead
6
ByLayer
62
256
370
-1
100
AcDbLine
10
88
20
9
11
86
21
9
0
LINE
5
17A
100
AcDbEntity
8
bulkhead
6
ByLayer
62
256
370
-1
100
AcDbLine
10
86
20
9
11
86
21
16
0
LINE
5
17B
100
AcDbEntity
8
bulkhead
6
ByLayer
62
256
370
-1
100
AcDbLine
10
86
20
36
11
88
21
36
0
LINE
5
17C
100
AcDbEntity
8
bulkhead
6
ByLayer
62
256
370
-1
100
AcDbLine
10
88
20
36
11
88
21
29
0
LINE
5
17D
100
AcDbEntity
8
bulkhead
6
ByLayer
62
256
370
-1
100
AcDbLine
10
88
20
29
11
86
21
29
0
LINE
5
17E
100
AcDbEntity
8
bulkhead
6
ByLayer
62
256
370
-1
100
AcDbLine
10
86
20
29
11
86
21
36
0
LINE
5
17F
100
AcDbEntity
8
bulkhead
6
ByLayer
62
256
370
-1
100
AcDbLine
10
30
20
-7.1054273576e-15
11
20
21
-7.1054273576e-15
0
LINE
5
180
100
AcDbEntity
8
bulkhead
6
ByLayer
62
256
370
-1
100
AcDbLine
10
20
20
-7.1054273576e-15
11
20
21
2
0
LINE
5
181
100
AcDbEntity
8
bulkhead
6
ByLayer
62
256
370
-1
100
AcDbLine
10
60
20
-1.42108547152e-14
11
70
21
7.1054273576e-15
0
LINE
5
182
100
AcDbEntity
8
bulkhead
6
ByLayer
62
256
370
-1
100
AcDbLine
10
70
20
7.1054273576e-15
11
70
21
2
0
LINE
5
183
100
AcDbEntity
8
bulkhead
6
ByLayer
62
256
370
-1
100
AcDbLine
10
30
20
0
11
59.9999999998
21
-1.42108547152e-14
0
LINE
5
184
100
AcDbEntity
8
bulkhead
6
ByLayer
62
256
370
-1
100
AcDbLine
10
25
20
2
11
25
21
4
0
LINE
5
185
100
AcDbEntity
8
bulkhead
6
ByLayer
62
256
370
-1
100
AcDbLine
10
32
20
2
11
32
21
4
0
LINE
5
186
100
AcDbEntity
8
bulkhead
6
ByLayer
62
256
370
-1
100
AcDbLine
10
58
20
2
11
58
21
4
0
LINE
5
187
100
AcDbEntity
8
bulkhead
6
ByLayer
62
256
370
-1
100
AcDbLine
10
65
20
2
11
65
21
4
0
LINE
5
188
100
AcDbEntity
8
bulkhead
6
ByLayer
62
256
370
-1
100
AcDbLine
10
32
20
2
11
25
21
2
0
LINE
5
189
100
AcDbEntity
8
bulkhead
6
ByLayer
62
256
370
-1
100
AcDbLine
10
32
20
4
11
25
21
4
0
LINE
5
18A
100
AcDbEntity
8
bulkhead
6
ByLayer
62
256
370
-1
100
AcDbLine
10
65
20
4
11
58
21
4
0
LINE
5
18B
100
AcDbEntity
8
bulkhead
6
ByLayer
62
256
370
-1
100
AcDbLine
10
58
20
2
11
65
21
2
0
LINE
5
18C
100
AcDbEntity
8
bulkhead
6
ByLayer
62
256
370
-1
100
AcDbLine
10
6.5
20
2
11
2
21
2
0
LINE
5
18D
100
AcDbEntity
8
bulkhead
6
ByLayer
62
256
370
-1
100
AcDbLine
10
20
20
2
11
13.5
21
2
0
LINE
5
18E
100
AcDbEntity
8
bulkhead
6
ByLayer
62
256
370
-1
100
AcDbLine
10
70
20
2
11
76.5
21
2
0
LINE
5
18F
100
AcDbEntity
8
bulkhead
6
ByLayer
62
256
370
-1
100
AcDbLine
10
88
20
2
11
83.5
21
2
0
LINE
5
190
100
AcDbEntity
8
bulkhead
6
ByLayer
62
256
370
-1
100
AcDbLine
10
83.5
20
2
11
88
21
2
0
LINE
5
191
100
AcDbEntity
8
bulkhead
6
ByLayer
62
256
370
-1
100
AcDbLine
10
6.5
20
2
11
13.5
21
2
0
LINE
5
192
100
AcDbEntity
8
bulkhead
6
ByLayer
62
256
370
-1
100
AcDbLine
10
76.5
20
2
11
83.5
21
2
0
ENDBLK
5
58
330
56
100
AcDbEntity
8
0
100
AcDbBlockEnd
0
BLOCK
5
5A
330
59
100
AcDbEntity
8
0
100
AcDbBlockBegin
2
bulkhead-3
70
0
10
0
20
0
3
bulkhead-3
1

0
LINE
5
193
100
AcDbEntity
8
bulkhead
6
ByLayer
62
256
370
-1
100
AcDbLine
10
0
20
70
11
0
21
60
0
LINE
5
194
100
AcDbEntity
8
bulkhead
6
ByLayer
62
256
370
-1
100
AcDbLine
10
0
20
50
11
0
21
40
0
LINE
5
195
100
AcDbEntity
8
bulkhead
6
ByLayer
62
256
370
-1
100
AcDbLine
10
0
20
30
11
0
21
10
0
ARC
5
196
100
AcDbEntity
8
bulkhead
6
ByLayer
62
256
370
-1
100
AcDbCircle
10
68
20
22
40
5
100
AcDbArc
50
270
51
0
0
ARC
5
197
100
AcDbEntity
8
bulkhead
6
ByLayer
62
256
370
-1
100
AcDbCircle
10
22
20
22
40
5
100
AcDbArc
50
180
51
270
0
ARC
5
198
100
AcDbEntity
8
bulkhead
6
ByLayer
62
256
370
-1
100
AcDbCircle
10
22
20
56.418852652
40
5
100
AcDbArc
50
85
51
180
0
ARC
5
199
100
AcDbEntity
8
bulkhead
6
ByLayer
62
256
370
-1
100
AcDbCircle
10
68
20
56.418852652
40
5
100
AcDbArc
50
0
51
95
0
ARC
5
19A
100
AcDbEntity
8
bulkhead
6
ByLayer
62
256
370
-1
100
AcDbCircle
10
45
20
64.444811766
40
5
100
AcDbArc
50
265
51
275
0
LINE
5
19B
100
AcDbEntity
8
bulkhead
6
ByLayer
62
256
370
-1
100
AcDbLine
10
22.4357808328
20
61.399825957
11
44.564219567
21
59.463838426
0
LINE
5
19C
100
AcDbEntity
8
bulkhead
6
ByLayer
62
256
370
-1
100
AcDbLine
10
17
20
22
11
17
21
56.418852652
0
LINE
5
19D
100
AcDbEntity
8
bulkhead
6
ByLayer
62
256
370
-1
100
AcDbLine
10
67.5642199376
20
61.399826024
11
45.4357796674
21
59.463838359
0
LINE
5
19E
100
AcDbEntity
8
bulkhead
6
ByLayer
62
256
370
-1
100
AcDbLine
10
73
20
56.418851303
11
73
21
22
0
LINE
5
19F
100
AcDbEntity
8
bulkhead
6
ByLayer
62
256
370
-1
100
AcDbLine
10
10
20
0
11
20
21
0
0
LINE
5
1A0
100
AcDbEntity
8
bulkhead
6
ByLayer
62
256
370
-1
100
AcDbLine
10
30
20
0
11
60
21
0
0
LINE
5
1A1
100
AcDbEntity
8
bulkhead
6
ByLayer
62
256
370
-1
100
AcDbLine
10
70
20
0
11
80
21
0
0
LINE
5
1A2
100
AcDbEntity
8
bulkhead
6
ByLayer
62
256
370
-1
100
AcDbLine
10
2
20
60
11
2
21
50
0
LINE
5
1A3
100
AcDbEntity
8
bulkhead
6
ByLayer
62
256
370
-1
100
AcDbLine
10
2
20
40
11
2
21
30
0
LINE
5
1A4
100
AcDbEntity
8
bulkhead
6
ByLayer
62
256
370
-1
100
AcDbLine
10
2
20
78.245022673
11
2
21
70
0
LINE
5
1A5
100
AcDbEntity
8
bulkhead
6
ByLayer
62
256
370
-1
100
AcDbLine
10
2
20
70
11
0
21
70
0
LINE
5
1A6
100
AcDbEntity
8
bulkhead
6
ByLayer
62
256
370
-1
100
AcDbLine
10
0
20
60
11
2
21
60
0
LINE
5
1A7
100
AcDbEntity
8
bulkhead
6
ByLayer
62
256
370
-1
100
AcDbLine
10
2
20
50
11
0
21
50
0
LINE
5
1A8
100
AcDbEntity
8
bulkhead
6
ByLayer
62
256
370
-1
100
AcDbLine
10
0
20
40
11
2
21
40
0
LINE
5
1A9
100
AcDbEntity
8
bulkhead
6
ByLayer
62
256
370
-1
100
AcDbLine
10
2
20
30
11
0
21
30
0
LINE
5
1AA
100
AcDbEntity
8
bulkhead
6
ByLayer
62
256
370
-1
100
AcDbLine
10
0
20
10
11
2
21
10
0
LINE
5
1AB
100
AcDbEntity
8
bulkhead
6
ByLayer
62
256
370
-1
100
AcDbLine
10
20
20
2
11
30
21
2
0
LINE
5
1AC
100
AcDbEntity
8
bulkhead
6
ByLayer
62
256
370
-1
100
AcDbLine
10
60
20
2
11
70
21
2
0
LINE
5
1AD
100
AcDbEntity
8
bulkhead
6
ByLayer
62
256
370
-1
100
AcDbLine
10
2
20
2
11
10
21
2
0
LINE
5
1AE
100
AcDbEntity
8
bulkhead
6
ByLayer
62
256
370
-1
100
AcDbLine
10
2
20
10
11
2
21
2
0
LINE
5
1AF
100
AcDbEntity
8
bulkhead
6
ByLayer
62
256
370
-1
100
AcDbLine
10
10
20
2
11
10
21
0
0
LINE
5
1B0
100
AcDbEntity
8
bulkhead
6
ByLayer
62
256
370
-1
100
AcDbLine
10
20
20
0
11
20
21
2
0
LINE
5
1B1
100
AcDbEntity
8
bulkhead
6
ByLayer
62
256
370
-1
100
AcDbLine
10
30
20
2
11
30
21
0
0
LINE
5
1B2
100
AcDbEntity
8
bulkhead
6
ByLayer
62
256
370
-1
100
AcDbLine
10
60
20
0
11
60
21
2
0
LINE
5
1B3
100
AcDbEntity
8
bulkhead
6
ByLayer
62
256
370
-1
100
AcDbLine
10
70
20
2
11
70
21
0
0
LINE
5
1B4
100
AcDbEntity
8
bulkhead
6
ByLayer
62
256
370
-1
100
AcDbLine
10
80
20
0
11
80
21
2
0
LINE
5
1B5
100
AcDbEntity
8
bulkhead
6
ByLayer
62
256
370
-1
100
AcDbLine
10
90
20
70
11
90
21
60
0
LINE
5
1B6
100
AcDbEntity
8
bulkhead
6
ByLayer
62
256
370
-1
100
AcDbLine
10
90
20
50
11
90
21
40
0
LINE
5
1B7
100
AcDbEntity
8
bulkhead
6
ByLayer
62
256
370
-1
100
AcDbLine
10
90
20
30
11
90
21
10
0
LINE
5
1B8
100
AcDbEntity
8
bulkhead
6
ByLayer
62
256
370
-1
100
AcDbLine
10
88
20
60
11
88
21
50
0
LINE
5
1B9
100
AcDbEntity
8
bulkhead
6
ByLayer
62
256
370
-1
100
AcDbLine
10
88
20
40
11
88
21
30
0
LINE
5
1BA
100
AcDbEntity
8
bulkhead
6
ByLayer
62
256
370
-1
100
AcDbLine
10
88
20
78.245022673
11
88
21
70
0
LINE
5
1BB
100
AcDbEntity
8
bulkhead
6
ByLayer
62
256
370
-1
100
AcDbLine
10
88
20
70
11
90
21
70
0
LINE
5
1BC
100
AcDbEntity
8
bulkhead
6
ByLayer
62
256
370
-1
100
AcDbLine
10
90
20
60
11
88
21
60
0
LINE
5
1BD
100
AcDbEntity
8
bulkhead
6
ByLayer
62
256
370
-1
100
AcDbLine
10
88
20
50
11
90
21
50
0
LINE
5
1BE
100
AcDbEntity
8
bulkhead
6
ByLayer
62
256
370
-1
100
AcDbLine
10
90
20
40
11
88
21
40
0
LINE
5
1BF
100
AcDbEntity
8
bulkhead
6
ByLayer
62
256
370
-1
100
AcDbLine
10
88
20
30
11
90
21
30
0
LINE
5
1C0
100
AcDbEntity
8
bulkhead
6
ByLayer
62
256
370
-1
100
AcDbLine
10
90
20
10
11
88
21
10
0
LINE
5
1C1
100
AcDbEntity
8
bulkhead
6
ByLayer
62
256
370
-1
100
AcDbLine
10
88
20
10
11
88
21
2
0
LINE
5
1C2
100
AcDbEntity
8
bulkhead
6
ByLayer
62
256
370
-1
100
AcDbLine
10
80
20
2
11
80
21
0
0
LINE
5
1C3
100
AcDbEntity
8
bulkhead
6
ByLayer
62
256
370
-1
100
AcDbLine
10
80
20
2
11
88
21
2
0
LINE
5
1C4
100
AcDbEntity
8
bulkhead
6
ByLayer
62
256
370
-1
100
AcDbLine
10
2
20
78.245022673
11
13
21
77.282647374
0
LINE
5
1C5
100
AcDbEntity
8
bulkhead
6
ByLayer
62
256
370
-1
100
AcDbLine
10
13
20
77.282647374
11
13
21
79.290287049
0
LINE
5
1C6
100
AcDbEntity
8
bulkhead
6
ByLayer
62
256
370
-1
100
AcDbLine
10
13
20
79.290287049
11
21
21
78.590377741
0
LINE
5
1C7
100
AcDbEntity
8
bulkhead
6
ByLayer
62
256
370
-1
100
AcDbLine
10
21
20
78.590377741
11
21
21
76.582738066
0
LINE
5
1C8
100
AcDbEntity
8
bulkhead
6
ByLayer
62
256
370
-1
100
AcDbLine
10
21
20
76.582738066
11
29
21
75.882828758
0
LINE
5
1C9
100
AcDbEntity
8
bulkhead
6
ByLayer
62
256
370
-1
100
AcDbLine
10
29
20
75.882828758
11
29
21
77.890468433
0
LINE
5
1CA
100
AcDbEntity
8
bulkhead
6
ByLayer
62
256
370
-1
100
AcDbLine
10
29
20
77.890468433
11
37
21
77.190559125
0
LINE
5
1CB
100
AcDbEntity
8
bulkhead
6
ByLayer
62
256
370
-1
100
AcDbLine
10
37
20
77.190559125
11
37
21
75.18291945
0
LINE
5
1CC
100
AcDbEntity
8
bulkhead
6
ByLayer
62
256
370
-1
100
AcDbLine
10
37
20
75.18291945
11
45
21
74.483010141
0
LINE
5
1CD
100
AcDbEntity
8
bulkhead
6
ByLayer
62
256
370
-1
100
AcDbLine
10
45
20
74.483010141
11
53
21
75.18291945
0
LINE
5
1CE
100
AcDbEntity
8
bulkhead
6
ByLayer
62
256
370
-1
100
AcDbLine
10
53
20
75.18291945
11
53
21
77.190559125
0
LINE
5
1CF
100
AcDbEntity
8
bulkhead
6
ByLayer
62
256
370
-1
100
AcDbLine
10
53
20
77.190559125
11
61
21
77.890468433
0
LINE
5
1D0
100
AcDbEntity
8
bulkhead
6
ByLayer
62
256
370
-1
100
AcDbLine
10
61
20
77.890468433
11
61
21
75.882828758
0
LINE
5
1D1
100
AcDbEntity
8
bulkhead
6
ByLayer
62
256
370
-1
100
AcDbLine
10
61
20
75.882828758
11
69
21
76.582738066
0
LINE
5
1D2
100
AcDbEntity
8
bulkhead
6
ByLayer
62
256
370
-1
100
AcDbLine
10
69
20
76.582738066
11
69
21
78.590377741
0
LINE
5
1D3
100
AcDbEntity
8
bulkhead
6
ByLayer
62
256
370
-1
100
AcDbLine
10
69
20
78.590377741
11
77
21
79.290287049
0
LINE
5
1D4
100
AcDbEntity
8
bulkhead
6
ByLayer
62
256
370
-1
100
AcDbLine
10
77
20
79.290287049
11
77
21
77.282647374
0
LINE
5
1D5
100
AcDbEntity
8
bulkhead
6
ByLayer
62
256
370
-1
100
AcDbLine
10
77
20
77.282647374
11
88
21
78.245022673
0
CIRCLE
5
1D6
100
AcDbEntity
8
bulkhead
6
ByLayer
62
256
370
-1
100
AcDbCircle
10
45
20
12.5
40
10.5
0
ARC
5
1D7
100
AcDbEntity
8
bulkhead
6
ByLayer
62
256
370
-1
100
AcDbCircle
10
26.8340978754
20
22
40
5
100
AcDbArc
50
270
51
332.392331941
0
ARC
5
1D8
100
AcDbEntity
8
bulkhead
6
ByLayer
62
256
370
-1
100
AcDbCircle
10
63.1659021246
20
22
40
5
100
AcDbArc
50
207.607668059
51
270
0
LINE
5
1D9
100
AcDbEntity
8
bulkhead
6
ByLayer
62
256
370
-1
100
AcDbLine
10
68
20
17
11
63.1659039087
21
17
0
ARC
5
1DA
100
AcDbEntity
8
bulkhead
6
ByLayer
62
256
370
-1
100
AcDbCircle
10
45
20
12.5
40
15.5
100
AcDbArc
50
27.6076778037
51
152.392327963
0
LINE
5
1DB
100
AcDbEntity
8
bulkhead
6
ByLayer
62
256
370
-1
100
AcDbLine
10
26.8340972011
20
17
11
22
21
17
0
ENDBLK
5
5B
330
59
100
AcDbEntity
8
0
100
AcDbBlockEnd
0
BLOCK
5
5D
330
5C
100
AcDbEntity
8
0
100
AcDbBlockBegin
2
bulkhead-2
70
0
10
0
20
0
3
bulkhead-2
1

0
LINE
5
1DC
100
AcDbEntity
8
bulkhead
6
ByLayer
62
256
370
-1
100
AcDbLine
10
0
20
60
11
0
21
50
0
LINE
5
1DD
100
AcDbEntity
8
bulkhead
6
ByLayer
62
256
370
-1
100
AcDbLine
10
0
20
40
11
0
21
30
0
LINE
5
1DE
100
AcDbEntity
8
bulkhead
6
ByLayer
62
256
370
-1
100
AcDbLine
10
0
20
20
11
0
21
10
0
ARC
5
1DF
100
AcDbEntity
8
bulkhead
6
ByLayer
62
256
370
-1
100
AcDbCircle
10
22
20
22
40
5
100
AcDbArc
50
180
51
270
0
ARC
5
1E0
100
AcDbEntity
8
bulkhead
6
ByLayer
62
256
370
-1
100
AcDbCircle
10
68
20
22
40
5
100
AcDbArc
50
270
51
0
0
ARC
5
1E1
100
AcDbEntity
8
bulkhead
6
ByLayer
62
256
370
-1
100
AcDbCircle
10
22
20
48.638852652
40
5
100
AcDbArc
50
85
51
180
0
ARC
5
1E2
100
AcDbEntity
8
bulkhead
6
ByLayer
62
256
370
-1
100
AcDbCircle
10
68
20
48.638852652
40
5
100
AcDbArc
50
0
51
95
0
ARC
5
1E3
100
AcDbEntity
8
bulkhead
6
ByLayer
62
256
370
-1
100
AcDbCircle
10
45
20
56.664811766
40
5
100
AcDbArc
50
265
51
275
0
LINE
5
1E4
100
AcDbEntity
8
bulkhead
6
ByLayer
62
256
370
-1
100
AcDbLine
10
17
20
22
11
17
21
48.638852652
0
LINE
5
1E5
100
AcDbEntity
8
bulkhead
6
ByLayer
62
256
370
-1
100
AcDbLine
10
73
20
48.638852652
11
73
21
22
0
LINE
5
1E6
100
AcDbEntity
8
bulkhead
6
ByLayer
62
256
370
-1
100
AcDbLine
10
67.5642179826
20
53.619825853
11
45.4357809503
21
51.683838471
0
LINE
5
1E7
100
AcDbEntity
8
bulkhead
6
ByLayer
62
256
370
-1
100
AcDbLine
10
22.4357801242
20
53.619826019
11
44.5642190497
21
51.683838471
0
LINE
5
1E8
100
AcDbEntity
8
bulkhead
6
ByLayer
62
256
370
-1
100
AcDbLine
10
10
20
0
11
20
21
0
0
LINE
5
1E9
100
AcDbEntity
8
bulkhead
6
ByLayer
62
256
370
-1
100
AcDbLine
10
30
20
0
11
60
21
0
0
LINE
5
1EA
100
AcDbEntity
8
bulkhead
6
ByLayer
62
256
370
-1
100
AcDbLine
10
70
20
0
11
80
21
0
0
LINE
5
1EB
100
AcDbEntity
8
bulkhead
6
ByLayer
62
256
370
-1
100
AcDbLine
10
2
20
50
11
2
21
40
0
LINE
5
1EC
100
AcDbEntity
8
bulkhead
6
ByLayer
62
256
370
-1
100
AcDbLine
10
2
20
30
11
2
21
20
0
LINE
5
1ED
100
AcDbEntity
8
bulkhead
6
ByLayer
62
256
370
-1
100
AcDbLine
10
2
20
60
11
0
21
60
0
LINE
5
1EE
100
AcDbEntity
8
bulkhead
6
ByLayer
62
256
370
-1
100
AcDbLine
10
2
20
70.465022673
11
2
21
60
0
LINE
5
1EF
100
AcDbEntity
8
bulkhead
6
ByLayer
62
256
370
-1
100
AcDbLine
10
0
20
50
11
2
21
50
0
LINE
5
1F0
100
AcDbEntity
8
bulkhead
6
ByLayer
62
256
370
-1
100
AcDbLine
10
2
20
40
11
0
21
40
0
LINE
5
1F1
100
AcDbEntity
8
bulkhead
6
ByLayer
62
256
370
-1
100
AcDbLine
10
0
20
30
11
2
21
30
0
LINE
5
1F2
100
AcDbEntity
8
bulkhead
6
ByLayer
62
256
370
-1
100
AcDbLine
10
2
20
20
11
0
21
20
0
LINE
5
1F3
100
AcDbEntity
8
bulkhead
6
ByLayer
62
256
370
-1
100
AcDbLine
10
0
20
10
11
2
21
10
0
LINE
5
1F4
100
AcDbEntity
8
bulkhead
6
ByLayer
62
256
370
-1
100
AcDbLine
10
20
20
2
11
30
21
2
0
LINE
5
1F5
100
AcDbEntity
8
bulkhead
6
ByLayer
62
256
370
-1
100
AcDbLine
10
60
20
2
11
70
21
2
0
LINE
5
1F6
100
AcDbEntity
8
bulkhead
6
ByLayer
62
256
370
-1
100
AcDbLine
10
2
20
2
11
10
21
2
0
LINE
5
1F7
100
AcDbEntity
8
bulkhead
6
ByLayer
62
256
370
-1
100
AcDbLine
10
2
20
10
11
2
21
2
0
LINE
5
1F8
100
AcDbEntity
8
bulkhead
6
ByLayer
62
256
370
-1
100
AcDbLine
10
10
20
2
11
10
21
0
0
LINE
5
1F9
100
AcDbEntity
8
bulkhead
6
ByLayer
62
256
370
-1
100
AcDbLine
10
20
20
0
11
20
21
2
0
LINE
5
1FA
100
AcDbEntity
8
bulkhead
6
ByLayer
62
256
370
-1
100
AcDbLine
10
30
20
2
11
30
21
0
0
LINE
5
1FB
100
AcDbEntity
8
bulkhead
6
ByLayer
62
256
370
-1
100
AcDbLine
10
60
20
0
11
60
21
2
0
LINE
5
1FC
100
AcDbEntity
8
bulkhead
6
ByLayer
62
256
370
-1
100
AcDbLine
10
70
20
2
11
70
21
0
0
LINE
5
1FD
100
AcDbEntity
8
bulkhead
6
ByLayer
62
256
370
-1
100
AcDbLine
10
90
20
60
11
90
21
50
0
LINE
5
1FE
100
AcDbEntity
8
bulkhead
6
ByLayer
62
256
370
-1
100
AcDbLine
10
90
20
40
11
90
21
30
0
LINE
5
1FF
100
AcDbEntity
8
bulkhead
6
ByLayer
62
256
370
-1
100
AcDbLine
10
90
20
20
11
90
21
10
0
LINE
5
200
100
AcDbEntity
8
bulkhead
6
ByLayer
62
256
370
-1
100
AcDbLine
10
88
20
50
11
88
21
40
0
LINE
5
201
100
AcDbEntity
8
bulkhead
6
ByLayer
62
256
370
-1
100
AcDbLine
10
88
20
30
11
88
21
20
0
LINE
5
202
100
AcDbEntity
8
bulkhead
6
ByLayer
62
256
370
-1
100
AcDbLine
10
88
20
60
11
90
21
60
0
LINE
5
203
100
AcDbEntity
8
bulkhead
6
ByLayer
62
256
370
-1
100
AcDbLine
10
88
20
70.465022673
11
88
21
60
0
LINE
5
204
100
AcDbEntity
8
bulkhead
6
ByLayer
62
256
370
-1
100
AcDbLine
10
90
20
50
11
88
21
50
0
LINE
5
205
100
AcDbEntity
8
bulkhead
6
ByLayer
62
256
370
-1
100
AcDbLine
10
88
20
40
11
90
21
40
0
LINE
5
206
100
AcDbEntity
8
bulkhead
6
ByLayer
62
256
370
-1
100
AcDbLine
10
90
20
30
11
88
21
30
0
LINE
5
207
100
AcDbEntity
8
bulkhead
6
ByLayer
62
256
370
-1
100
AcDbLine
10
88
20
20
11
90
21
20
0
LINE
5
208
100
AcDbEntity
8
bulkhead
6
ByLayer
62
256
370
-1
100
AcDbLine
10
90
20
10
11
88
21
10
0
LINE
5
209
100
AcDbEntity
8
bulkhead
6
ByLayer
62
256
370
-1
100
AcDbLine
10
88
20
10
11
88
21
2
0
LINE
5
20A
100
AcDbEntity
8
bulkhead
6
ByLayer
62
256
370
-1
100
AcDbLine
10
80
20
2
11
80
21
0
0
LINE
5
20B
100
AcDbEntity
8
bulkhead
6
ByLayer
62
256
370
-1
100
AcDbLine
10
80
20
2
11
88
21
2
0
LINE
5
20C
100
AcDbEntity
8
bulkhead
6
ByLayer
62
256
370
-1
100
AcDbLine
10
2
20
70.465022673
11
13
21
69.502647374
0
LINE
5
20D
100
AcDbEntity
8
bulkhead
6
ByLayer
62
256
370
-1
100
AcDbLine
10
13
20
69.502647374
11
13
21
71.510287049
0
LINE
5
20E
100
AcDbEntity
8
bulkhead
6
ByLayer
62
256
370
-1
100
AcDbLine
10
13
20
71.510287049
11
21
21
70.810377741
0
LINE
5
20F
100
AcDbEntity
8
bulkhead
6
ByLayer
62
256
370
-1
100
AcDbLine
10
21
20
70.810377741
11
21
21
68.802738066
0
LINE
5
210
100
AcDbEntity
8
bulkhead
6
ByLayer
62
256
370
-1
100
AcDbLine
10
21
20
68.802738066
11
29
21
68.102828758
0
LINE
5
211
100
AcDbEntity
8
bulkhead
6
ByLayer
62
256
370
-1
100
AcDbLine
10
29
20
68.102828758
11
29
21
70.110468433
0
LINE
5
212
100
AcDbEntity
8
bulkhead
6
ByLayer
62
256
370
-1
100
AcDbLine
10
29
20
70.110468433
11
37
21
69.410559125
0
LINE
5
213
100
AcDbEntity
8
bulkhead
6
ByLayer
62
256
370
-1
100
AcDbLine
10
37
20
69.410559125
11
37
21
67.40291945
0
LINE
5
214
100
AcDbEntity
8
bulkhead
6
ByLayer
62
256
370
-1
100
AcDbLine
10
37
20
67.40291945
11
45
21
66.703010141
0
LINE
5
215
100
AcDbEntity
8
bulkhead
6
ByLayer
62
256
370
-1
100
AcDbLine
10
45
20
66.703010141
11
53
21
67.40291945
0
LINE
5
216
100
AcDbEntity
8
bulkhead
6
ByLayer
62
256
370
-1
100
AcDbLine
10
53
20
67.40291945
11
53
21
69.410559125
0
LINE
5
217
100
AcDbEntity
8
bulkhead
6
ByLayer
62
256
370
-1
100
AcDbLine
10
53
20
69.410559125
11
61
21
70.110468433
0
LINE
5
218
100
AcDbEntity
8
bulkhead
6
ByLayer
62
256
370
-1
100
AcDbLine
10
61
20
70.110468433
11
61
21
68.102828758
0
LINE
5
219
100
AcDbEntity
8
bulkhead
6
ByLayer
62
256
370
-1
100
AcDbLine
10
61
20
68.102828758
11
69
21
68.802738066
0
LINE
5
21A
100
AcDbEntity
8
bulkhead
6
ByLayer
62
256
370
-1
100
AcDbLine
10
69
20
68.802738066
11
69
21
70.810377741
0
LINE
5
21B
100
AcDbEntity
8
bulkhead
6
ByLayer
62
256
370
-1
100
AcDbLine
10
69
20
70.810377741
11
77
21
71.510287049
0
LINE
5
21C
100
AcDbEntity
8
bulkhead
6
ByLayer
62
256
370
-1
100
AcDbLine
10
77
20
71.510287049
11
77
21
69.502647374
0
LINE
5
21D
100
AcDbEntity
8
bulkhead
6
ByLayer
62
256
370
-1
100
AcDbLine
10
77
20
69.502647374
11
88
21
70.465022673
0
CIRCLE
5
21E
100
AcDbEntity
8
bulkhead
6
ByLayer
62
256
370
-1
100
AcDbCircle
10
45
20
12.5
40
10.5
0
ARC
5
21F
100
AcDbEntity
8
bulkhead
6
ByLayer
62
256
370
-1
100
AcDbCircle
10
26.8340978754
20
22
40
5
100
AcDbArc
50
270
51
332.392331941
0
ARC
5
220
100
AcDbEntity
8
bulkhead
6
ByLayer
62
256
370
-1
100
AcDbCircle
10
63.1659021246
20
22
40
5
100
AcDbArc
50
207.607668059
51
270
0
LINE
5
221
100
AcDbEntity
8
bulkhead
6
ByLayer
62
256
370
-1
100
AcDbLine
10
68
20
17
11
63.1659040319
21
17
0
LINE
5
222
100
AcDbEntity
8
bulkhead
6
ByLayer
62
256
370
-1
100
AcDbLine
10
26.8340957698
20
17
11
22
21
17
0
ARC
5
223
100
AcDbEntity
8
bulkhead
6
ByLayer
62
256
370
-1
100
AcDbCircle
10
45
20
12.5
40
15.5
100
AcDbArc
50
27.6077336695
51
152.392316028
0
ENDBLK
5
5E
330
5C
100
AcDbEntity
8
0
100
AcDbBlockEnd
0
BLOCK
5
60
330
5F
100
AcDbEntity
8
0
100
AcDbBlockBegin
2
motor
70
0
10
0
20
0
3
motor
1

0
LINE
5
224
100
AcDbEntity
8
motor
6
ByLayer
62
256
370
-1
100
AcDbLine
10
5.5
20
45.5
11
95.5
21
45.5
0
LINE
5
225
100
AcDbEntity
8
motor
6
ByLayer
62
256
370
-1
100
AcDbLine
10
95.5
20
0.5
11
5.5
21
0.5
0
LINE
5
226
100
AcDbEntity
8
motor
6
ByLayer
62
256
370
-1
100
AcDbLine
10
95.5
20
45.5
11
95.5
21
35.5
0
LINE
5
227
100
AcDbEntity
8
motor
6
ByLayer
62
256
370
-1
100
AcDbLine
10
95.5
20
35.5
11
101
21
35.5
0
LINE
5
228
100
AcDbEntity
8
motor
6
ByLayer
62
256
370
-1
100
AcDbLine
10
101
20
35.5
11
101
21
30.5
0
LINE
5
229
100
AcDbEntity
8
motor
6
ByLayer
62
256
370
-1
100
AcDbLine
10
101
20
30.5
11
95.5
21
30.5
0
LINE
5
22A
100
AcDbEntity
8
motor
6
ByLayer
62
256
370
-1
100
AcDbLine
10
95.5
20
30.5
11
95.5
21
15.5
0
LINE
5
22B
100
AcDbEntity
8
motor
6
ByLayer
62
256
370
-1
100
AcDbLine
10
95.5
20
15.5
11
101
21
15.5
0
LINE
5
22C
100
AcDbEntity
8
motor
6
ByLayer
62
256
370
-1
100
AcDbLine
10
101
20
15.5
11
101
21
10.5
0
LINE
5
22D
100
AcDbEntity
8
motor
6
ByLayer
62
256
370
-1
100
AcDbLine
10
101
20
10.5
11
95.5
21
10.5
0
LINE
5
22E
100
AcDbEntity
8
motor
6
ByLayer
62
256
370
-1
100
AcDbLine
10
95.5
20
10.5
11
95.5
21
0.5
0
LINE
5
22F
100
AcDbEntity
8
motor
6
ByLayer
62
256
370
-1
100
AcDbLine
10
5.5
20
45.5
11
5.5
21
35.5
0
LINE
5
230
100
AcDbEntity
8
motor
6
ByLayer
62
256
370
-1
100
AcDbLine
10
5.5
20
35.5
11
0
21
35.5
0
LINE
5
231
100
AcDbEntity
8
motor
6
ByLayer
62
256
370
-1
100
AcDbLine
10
0
20
35.5
11
0
21
30.5
0
LINE
5
232
100
AcDbEntity
8
motor
6
ByLayer
62
256
370
-1
100
AcDbLine
10
0
20
30.5
11
5.5
21
30.5
0
LINE
5
233
100
AcDbEntity
8
motor
6
ByLayer
62
256
370
-1
100
AcDbLine
10
5.5
20
30.5
11
5.5
21
15.5
0
LINE
5
234
100
AcDbEntity
8
motor
6
ByLayer
62
256
370
-1
100
AcDbLine
10
5.5
20
15.5
11
0
21
15.5
0
LINE
5
235
100
AcDbEntity
8
motor
6
ByLayer
62
256
370
-1
100
AcDbLine
10
0
20
15.5
11
0
21
10.5
0
LINE
5
236
100
AcDbEntity
8
motor
6
ByLayer
62
256
370
-1
100
AcDbLine
10
0
20
10.5
11
5.5
21
10.5
0
LINE
5
237
100
AcDbEntity
8
motor
6
ByLayer
62
256
370
-1
100
AcDbLine
10
5.5
20
10.5
11
5.5
21
0.5
0
ENDBLK
5
61
330
5F
100
AcDbEntity
8
0
100
AcDbBlockEnd
0
BLOCK
5
63
330
62
100
AcDbEntity
8
0
100
AcDbBlockBegin
2
top-back
70
0
10
0
20
0
3
top-back
1

0
LINE
5
238
100
AcDbEntity
8
top
6
ByLayer
62
256
370
-1
100
AcDbLine
10
65.23114
20
80
11
68.06545
21
80
0
LINE
5
239
100
AcDbEntity
8
top
6
ByLayer
62
256
370
-1
100
AcDbLine
10
68.06545
20
80
11
68.06545
21
70
0
LINE
5
23A
100
AcDbEntity
8
top
6
ByLayer
62
256
370
-1
100
AcDbLine
10
68.06545
20
70
11
65.23114
21
70
0
LINE
5
23B
100
AcDbEntity
8
top
6
ByLayer
62
256
370
-1
100
AcDbLine
10
65.23114
20
70
11
65.23114
21
80
0
LINE
5
23C
100
AcDbEntity
8
top
6
ByLayer
62
256
370
-1
100
AcDbLine
10
65.23114
20
60
11
68.06545
21
60
0
LINE
5
23D
100
AcDbEntity
8
top
6
ByLayer
62
256
370
-1
100
AcDbLine
10
68.06545
20
60
11
68.06545
21
30
0
LINE
5
23E
100
AcDbEntity
8
top
6
ByLayer
62
256
370
-1
100
AcDbLine
10
68.06545
20
30
11
65.23114
21
30
0
LINE
5
23F
100
AcDbEntity
8
top
6
ByLayer
62
256
370
-1
100
AcDbLine
10
65.23114
20
30
11
65.23114
21
60
0
LINE
5
240
100
AcDbEntity
8
top
6
ByLayer
62
256
370
-1
100
AcDbLine
10
65.23114
20
20
11
68.06545
21
20
0
LINE
5
241
100
AcDbEntity
8
top
6
ByLayer
62
256
370
-1
100
AcDbLine
10
68.06545
20
20
11
68.06545
21
10
0
LINE
5
242
100
AcDbEntity
8
top
6
ByLayer
62
256
370
-1
100
AcDbLine
10
68.06545
20
10
11
65.23114
21
10
0
LINE
5
243
100
AcDbEntity
8
top
6
ByLayer
62
256
370
-1
100
AcDbLine
10
65.23114
20
10
11
65.23114
21
20
0
LINE
5
244
100
AcDbEntity
8
top
6
ByLayer
62
256
370
-1
100
AcDbLine
10
0
20
2
11
10
21
2
0
LINE
5
245
100
AcDbEntity
8
top
6
ByLayer
62
256
370
-1
100
AcDbLine
10
10
20
2
11
10
21
0
0
LINE
5
246
100
AcDbEntity
8
top
6
ByLayer
62
256
370
-1
100
AcDbLine
10
10
20
0
11
20
21
0
0
LINE
5
247
100
AcDbEntity
8
top
6
ByLayer
62
256
370
-1
100
AcDbLine
10
20
20
0
11
20
21
2
0
LINE
5
248
100
AcDbEntity
8
top
6
ByLayer
62
256
370
-1
100
AcDbLine
10
20
20
2
11
30
21
2
0
LINE
5
249
100
AcDbEntity
8
top
6
ByLayer
62
256
370
-1
100
AcDbLine
10
30
20
2
11
30
21
0
0
LINE
5
24A
100
AcDbEntity
8
top
6
ByLayer
62
256
370
-1
100
AcDbLine
10
30
20
0
11
40
21
0
0
LINE
5
24B
100
AcDbEntity
8
top
6
ByLayer
62
256
370
-1
100
AcDbLine
10
40
20
0
11
40
21
2
0
LINE
5
24C
100
AcDbEntity
8
top
6
ByLayer
62
256
370
-1
100
AcDbLine
10
40
20
2
11
50
21
2
0
LINE
5
24D
100
AcDbEntity
8
top
6
ByLayer
62
256
370
-1
100
AcDbLine
10
50
20
2
11
50
21
0
0
LINE
5
24E
100
AcDbEntity
8
top
6
ByLayer
62
256
370
-1
100
AcDbLine
10
50
20
0
11
60
21
0
0
LINE
5
24F
100
AcDbEntity
8
top
6
ByLayer
62
256
370
-1
100
AcDbLine
10
60
20
0
11
60
21
2
0
LINE
5
250
100
AcDbEntity
8
top
6
ByLayer
62
256
370
-1
100
AcDbLine
10
60
20
2
11
69.263
21
2
0
LINE
5
251
100
AcDbEntity
8
top
6
ByLayer
62
256
370
-1
100
AcDbLine
10
0
20
88
11
10
21
88
0
LINE
5
252
100
AcDbEntity
8
top
6
ByLayer
62
256
370
-1
100
AcDbLine
10
10
20
88
11
10
21
90
0
LINE
5
253
100
AcDbEntity
8
top
6
ByLayer
62
256
370
-1
100
AcDbLine
10
10
20
90
11
20
21
90
0
LINE
5
254
100
AcDbEntity
8
top
6
ByLayer
62
256
370
-1
100
AcDbLine
10
20
20
90
11
20
21
88
0
LINE
5
255
100
AcDbEntity
8
top
6
ByLayer
62
256
370
-1
100
AcDbLine
10
20
20
88
11
30
21
88
0
LINE
5
256
100
AcDbEntity
8
top
6
ByLayer
62
256
370
-1
100
AcDbLine
10
30
20
88
11
30
21
90
0
LINE
5
257
100
AcDbEntity
8
top
6
ByLayer
62
256
370
-1
100
AcDbLine
10
30
20
90
11
40
21
90
0
LINE
5
258
100
AcDbEntity
8
top
6
ByLayer
62
256
370
-1
100
AcDbLine
10
40
20
90
11
40
21
88
0
LINE
5
259
100
AcDbEntity
8
top
6
ByLayer
62
256
370
-1
100
AcDbLine
10
40
20
88
11
50
21
88
0
LINE
5
25A
100
AcDbEntity
8
top
6
ByLayer
62
256
370
-1
100
AcDbLine
10
50
20
88
11
50
21
90
0
LINE
5
25B
100
AcDbEntity
8
top
6
ByLayer
62
256
370
-1
100
AcDbLine
10
50
20
90
11
60
21
90
0
LINE
5
25C
100
AcDbEntity
8
top
6
ByLayer
62
256
370
-1
100
AcDbLine
10
60
20
90
11
60
21
88
0
LINE
5
25D
100
AcDbEntity
8
top
6
ByLayer
62
256
370
-1
100
AcDbLine
10
60
20
88
11
69.263
21
88
0
LINE
5
25E
100
AcDbEntity
8
top
6
ByLayer
62
256
370
-1
100
AcDbLine
10
69.263
20
2
11
69.263
21
88
0
LINE
5
25F
100
AcDbEntity
8
top
6
ByLayer
62
256
370
-1
100
AcDbLine
10
0
20
88
11
0
21
2
0
ARC
5
260
100
AcDbEntity
8
top
6
ByLayer
62
256
370
-1
100
AcDbCircle
10
13
20
75
40
5
100
AcDbArc
50
90
51
180
0
ARC
5
261
100
AcDbEntity
8
top
6
ByLayer
62
256
370
-1
100
AcDbCircle
10
52.23114
20
75
40
5
100
AcDbArc
50
0
51
90
0
ARC
5
262
100
AcDbEntity
8
top
6
ByLayer
62
256
370
-1
100
AcDbCircle
10
52.23114
20
15
40
5
100
AcDbArc
50
270
51
0
0
ARC
5
263
100
AcDbEntity
8
top
6
ByLayer
62
256
370
-1
100
AcDbCircle
10
13
20
15
40
5
100
AcDbArc
50
180
51
270
0
LINE
5
264
100
AcDbEntity
8
top
6
ByLayer
62
256
370
-1
100
AcDbLine
10
8
20
75
11
8
21
15
0
LINE
5
265
100
AcDbEntity
8
top
6
ByLayer
62
256
370
-1
100
AcDbLine
10
13
20
10
11
52.23114
21
10
0
LINE
5
266
100
AcDbEntity
8
top
6
ByLayer
62
256
370
-1
100
AcDbLine
10
57.23114
20
15
11
57.23114
21
75
0
LINE
5
267
100
AcDbEntity
8
top
6
ByLayer
62
256
370
-1
100
AcDbLine
10
52.23114
20
80
11
13
21
80
0
ENDBLK
5
64
330
62
100
AcDbEntity
8
0
100
AcDbBlockEnd
0
BLOCK
5
66
330
65
100
AcDbEntity
8
0
100
AcDbBlockBegin
2
connpole
70
0
10
0
20
0
3
connpole
1

0
CIRCLE
5
268
100
AcDbEntity
8
KT_conn
6
ByLayer
62
256
370
-1
100
AcDbCircle
10
3.545454545
20
3.5
40
1.5
0
CIRCLE
5
269
100
AcDbEntity
8
KT_conn
6
ByLayer
62
256
370
-1
100
AcDbCircle
10
23.545454545
20
3.5
40
1.5
0
LINE
5
26A
100
AcDbEntity
8
KT_conn
6
ByLayer
62
256
370
-1
100
AcDbLine
10
3.545454545
20
7
11
23.545454545
21
7
0
LINE
5
26B
100
AcDbEntity
8
KT_conn
6
ByLayer
62
256
370
-1
100
AcDbLine
10
3.545454545
20
0
11
23.545454545
21
0
0
ARC
5
26C
100
AcDbEntity
8
KT_conn
6
ByLayer
62
256
370
-1
100
AcDbCircle
10
3.545454545
20
3.5
40
3.5
100
AcDbArc
50
90
51
270
0
ARC
5
26D
100
AcDbEntity
8
KT_conn
6
ByLayer
62
256
370
-1
100
AcDbCircle
10
23.545454545
20
3.5
40
3.5
100
AcDbArc
50
270
51
90
0
ENDBLK
5
67
330
65
100
AcDbEntity
8
0
100
AcDbBlockEnd
0
ENDSEC
0
SECTION
2
ENTITIES
0
INSERT
5
26E
100
AcDbEntity
8
0
6
ByLayer
62
256
370
-1
100
AcDbBlockReference
2
ktconn-top
10
0
20
0
30
0
41
1
42
1
43
0
50
270
70
1
71
1
44
0
45
0
0
INSERT
5
26F
100
AcDbEntity
8
0
6
ByLayer
62
256
370
-1
100
AcDbBlockReference
2
ktconn-bulkhead
10
0
20
51
30
0
41
1
42
1
43
0
50
0
70
1
71
1
44
0
45
0
0
INSERT
5
270
100
AcDbEntity
8
0
6
ByLayer
62
256
370
-1
100
AcDbBlockReference
2
ktconn-top
10
0
20
101
30
0
41
1
42
1
43
0
50
270
70
1
71
1
44
0
45
0
0
INSERT
5
271
100
AcDbEntity
8
0
6
ByLayer
62
256
370
-1
100
AcDbBlockReference
2
top-front
10
0
20
197
30
0
41
1
42
1
43
0
50
270
70
1
71
1
44
0
45
0
0
INSERT
5
272
100
AcDbEntity
8
0
6
ByLayer
62
256
370
-1
100
AcDbBlockReference
2
bulkhead-1
10
91
20
0
30
0
41
1
42
1
43
0
50
0
70
1
71
1
44
0
45
0
0
INSERT
5
273
100
AcDbEntity
8
0
6
ByLayer
62
256
370
-1
100
AcDbBlockReference
2
bulkhead-4
10
91
20
41
30
0
41
1
42
1
43
0
50
0
70
1
71
1
44
0
45
0
0
INSERT
5
274
100
AcDbEntity
8
0
6
ByLayer
62
256
370
-1
100
AcDbBlockReference
2
bulkhead-3
10
91
20
92
30
0
41
1
42
1
43
0
50
0
70
1
71
1
44
0
45
0
0
INSERT
5
275
100
AcDbEntity
8
0
6
ByLayer
62
256
370
-1
100
AcDbBlockReference
2
bulkhead-2
10
182
20
0
30
0
41
1
42
1
43
0
50
0
70
1
71
1
44
0
45
0
0
INSERT
5
276
100
AcDbEntity
8
0
6
ByLayer
62
256
370
-1
100
AcDbBlockReference
2
motor
10
182
20
72
30
0
41
1
42
1
43
0
50
0
70
1
71
1
44
0
45
0
0
INSERT
5
277
100
AcDbEntity
8
0
6
ByLayer
62
256
370
-1
100
AcDbBlockReference
2
top-back
10
182
20
187
30
0
41
1
42
1
43
0
50
270
70
1
71
1
44
0
45
0
0
INSERT
5
278
100
AcDbEntity
8
0
6
ByLayer
62
256
370
-1
100
AcDbBlockReference
2
connpole
10
200
20
170
30
0
41
1
42
1
43
0
50
0
70
1
71
1
44
0
45
0
0
ENDSEC
0
SECTION
2
OBJECTS
0
DICTIONARY
5
C
330
0
100
AcDbDictionary
281
1
3
ACAD_GROUP
350
D
0
DICTIONARY
5
D
330
C
100
AcDbDictionary
281
1
0
ENDSEC
0
EOF
