999
dxfrw 0.5.10
0
SECTION
2
HEADER
9
$ACADVER
1
AC1021
9
$HANDSEED
5
20000
9
$DWGCODEPAGE
3
ANSI_1252
9
$INSBASE
10
0
20
0
30
0
9
$EXTMIN
10
0
20
-29.5
30
0
9
$EXTMAX
10
309.046443405
20
200
30
0
9
$LIMMIN
10
0
20
0
9
$LIMMAX
10
420
20
297
9
$ORTHOMODE
70
0
9
$LTSCALE
40
1
9
$TEXTSTYLE
7
STANDARD
9
$CLAYER
8
frame
9
$DIMASZ
40
2.5
9
$DIMLFAC
40
1
9
$DIMSCALE
40
1
9
$DIMEXO
40
0.625
9
$DIMEXE
40
1.25
9
$DIMTXT
40
2.5
9
$DIMTSZ
40
0
9
$DIMAUNIT
70
0
9
$DIMADEC
70
0
9
$DIMLUNIT
70
2
9
$DIMSTYLE
2
STANDARD
9
$DIMGAP
40
0.625
9
$DIMTIH
70
0
9
$LUNITS
70
2
9
$LUPREC
70
4
9
$AUNITS
70
0
9
$AUPREC
70
2
9
$SPLINESEGS
70
8
9
$SNAPSTYLE
70
0
9
$PINSBASE
10
0
20
0
30
0
9
$PLIMMIN
10
0
20
0
9
$PLIMMAX
10
210
20
297
9
$INSUNITS
70
4
9
$PSVPSCALE
40
1
0
ENDSEC
0
SECTION
2
CLASSES
0
ENDSEC
0
SECTION
2
TABLES
0
TABLE
2
VPORT
5
8
330
0
100
AcDbSymbolTable
70
1
0
VPORT
5
31
330
2
100
AcDbSymbolTableRecord
100
AcDbViewportTableRecord
2
*ACTIVE
70
0
10
0
20
0
11
1
21
1
12
343.627929688
22
198.059082031
13
0
23
0
14
10
24
10
15
10
25
10
16
0
26
0
36
1
17
0
27
0
37
0
40
471.19140625
41
2.04015544041
42
50
43
0
44
0
50
0
51
0
71
0
72
100
73
1
74
3
75
0
76
1
77
0
78
0
281
0
65
1
110
0
120
0
130
0
111
1
121
0
131
0
112
0
122
1
132
0
79
0
146
0
348
10020
60
7
61
5
292
1
282
1
141
0
142
0
63
250
421
3358443
0
ENDTAB
0
TABLE
2
LTYPE
5
5
330
0
100
AcDbSymbolTable
70
4
0
LTYPE
5
14
330
5
100
AcDbSymbolTableRecord
100
AcDbLinetypeTableRecord
2
ByBlock
70
0
3

72
65
73
0
40
0
0
LTYPE
5
15
330
5
100
AcDbSymbolTableRecord
100
AcDbLinetypeTableRecord
2
ByLayer
70
0
3

72
65
73
0
40
0
0
LTYPE
5
16
330
5
100
AcDbSymbolTableRecord
100
AcDbLinetypeTableRecord
2
Continuous
70
0
3
Solid line
72
65
73
0
40
0
0
LTYPE
5
32
330
5
100
AcDbSymbolTableRecord
100
AcDbLinetypeTableRecord
2
DOT
70
0
3
Dot . . . . . . . . . . . . . . . . . . . . . .
72
65
73
2
40
6.35
49
0
74
0
49
-6.35
74
0
0
LTYPE
5
33
330
5
100
AcDbSymbolTableRecord
100
AcDbLinetypeTableRecord
2
DOT2
70
0
3
Dot (.5x) .....................................
72
65
73
2
40
3.175
49
0
74
0
49
-3.175
74
0
0
LTYPE
5
34
330
5
100
AcDbSymbolTableRecord
100
AcDbLinetypeTableRecord
2
DOTX2
70
0
3
Dot (2x) .  .  .  .  .  .  .  .  .  .  .  .  .
72
65
73
2
40
12.7
49
0
74
0
49
-12.7
74
0
0
LTYPE
5
35
330
5
100
AcDbSymbolTableRecord
100
AcDbLinetypeTableRecord
2
DASHED
70
0
3
Dot . . . . . . . . . . . . . . . . . . . . . .
72
65
73
2
40
19.05
49
12.7
74
0
49
-6.35
74
0
0
LTYPE
5
36
330
5
100
AcDbSymbolTableRecord
100
AcDbLinetypeTableRecord
2
DASHED2
70
0
3
Dashed (.5x) _ _ _ _ _ _ _ _ _ _ _ _ _ _ _ _ _
72
65
73
2
40
9.525
49
6.35
74
0
49
-3.175
74
0
0
LTYPE
5
37
330
5
100
AcDbSymbolTableRecord
100
AcDbLinetypeTableRecord
2
DASHEDX2
70
0
3
Dashed (2x) ____  ____  ____  ____  ____  ___
72
65
73
2
40
38.1
49
25.4
74
0
49
-12.7
74
0
0
LTYPE
5
38
330
5
100
AcDbSymbolTableRecord
100
AcDbLinetypeTableRecord
2
DASHDOT
70
0
3
Dash dot __ . __ . __ . __ . __ . __ . __ . __
72
65
73
4
40
25.4
49
12.7
74
0
49
-6.35
74
0
49
0
74
0
49
-6.35
74
0
0
LTYPE
5
39
330
5
100
AcDbSymbolTableRecord
100
AcDbLinetypeTableRecord
2
DASHDOT2
70
0
3
Dash dot (.5x) _._._._._._._._._._._._._._._.
72
65
73
4
40
12.7
49
6.35
74
0
49
-3.175
74
0
49
0
74
0
49
-3.175
74
0
0
LTYPE
5
3A
330
5
100
AcDbSymbolTableRecord
100
AcDbLinetypeTableRecord
2
DASHDOTX2
70
0
3
Dash dot (2x) ____  .  ____  .  ____  .  ___
72
65
73
4
40
50.8
49
25.4
74
0
49
-12.7
74
0
49
0
74
0
49
-12.7
74
0
0
LTYPE
5
3B
330
5
100
AcDbSymbolTableRecord
100
AcDbLinetypeTableRecord
2
DIVIDE
70
0
3
Divide ____ . . ____ . . ____ . . ____ . . ____
72
65
73
6
40
31.75
49
12.7
74
0
49
-6.35
74
0
49
0
74
0
49
-6.35
74
0
49
0
74
0
49
-6.35
74
0
0
LTYPE
5
3C
330
5
100
AcDbSymbolTableRecord
100
AcDbLinetypeTableRecord
2
DIVIDE2
70
0
3
Divide (.5x) __..__..__..__..__..__..__..__.._
72
65
73
6
40
15.875
49
6.35
74
0
49
-3.175
74
0
49
0
74
0
49
-3.175
74
0
49
0
74
0
49
-3.175
74
0
0
LTYPE
5
3D
330
5
100
AcDbSymbolTableRecord
100
AcDbLinetypeTableRecord
2
DIVIDEX2
70
0
3
Divide (2x) ________  .  .  ________  .  .  _
72
65
73
6
40
63.5
49
25.4
74
0
49
-12.7
74
0
49
0
74
0
49
-12.7
74
0
49
0
74
0
49
-12.7
74
0
0
LTYPE
5
3E
330
5
100
AcDbSymbolTableRecord
100
AcDbLinetypeTableRecord
2
BORDER
70
0
3
Border __ __ . __ __ . __ __ . __ __ . __ __ .
72
65
73
6
40
44.45
49
12.7
74
0
49
-6.35
74
0
49
12.7
74
0
49
-6.35
74
0
49
0
74
0
49
-6.35
74
0
0
LTYPE
5
3F
330
5
100
AcDbSymbolTableRecord
100
AcDbLinetypeTableRecord
2
BORDER2
70
0
3
Border (.5x) __.__.__.__.__.__.__.__.__.__.__.
72
65
73
6
40
22.225
49
6.35
74
0
49
-3.175
74
0
49
6.35
74
0
49
-3.175
74
0
49
0
74
0
49
-3.175
74
0
0
LTYPE
5
40
330
5
100
AcDbSymbolTableRecord
100
AcDbLinetypeTableRecord
2
BORDERX2
70
0
3
Border (2x) ____  ____  .  ____  ____  .  ___
72
65
73
6
40
88.9
49
25.4
74
0
49
-12.7
74
0
49
25.4
74
0
49
-12.7
74
0
49
0
74
0
49
-12.7
74
0
0
LTYPE
5
41
330
5
100
AcDbSymbolTableRecord
100
AcDbLinetypeTableRecord
2
CENTER
70
0
3
Center ____ _ ____ _ ____ _ ____ _ ____ _ ____
72
65
73
4
40
50.8
49
31.75
74
0
49
-6.35
74
0
49
6.35
74
0
49
-6.35
74
0
0
LTYPE
5
42
330
5
100
AcDbSymbolTableRecord
100
AcDbLinetypeTableRecord
2
CENTER2
70
0
3
Center (.5x) ___ _ ___ _ ___ _ ___ _ ___ _ ___
72
65
73
4
40
28.575
49
19.05
74
0
49
-3.175
74
0
49
3.175
74
0
49
-3.175
74
0
0
LTYPE
5
43
330
5
100
AcDbSymbolTableRecord
100
AcDbLinetypeTableRecord
2
CENTERX2
70
0
3
Center (2x) ________  __  ________  __  _____
72
65
73
4
40
101.6
49
63.5
74
0
49
-12.7
74
0
49
12.7
74
0
49
-12.7
74
0
0
ENDTAB
0
TABLE
2
LAYER
5
2
330
0
100
AcDbSymbolTable
70
1
0
LAYER
5
10
330
2
100
AcDbSymbolTableRecord
100
AcDbLayerTableRecord
2
0
70
0
62
7
6
CONTINUOUS
370
0
390
F
0
LAYER
5
44
330
2
100
AcDbSymbolTableRecord
100
AcDbLayerTableRecord
2
KT_conn
70
1
62
1
6
CONTINUOUS
370
0
390
F
0
LAYER
5
45
330
2
100
AcDbSymbolTableRecord
100
AcDbLayerTableRecord
2
frame
70
0
62
7
6
CONTINUOUS
370
0
390
F
0
LAYER
5
46
330
2
100
AcDbSymbolTableRecord
100
AcDbLayerTableRecord
2
out-connector
70
0
62
7
6
CONTINUOUS
370
0
390
F
0
ENDTAB
0
TABLE
2
STYLE
5
3
330
0
100
AcDbSymbolTable
70
3
0
STYLE
5
47
330
2
100
AcDbSymbolTableRecord
100
AcDbTextStyleTableRecord
2
Standard
70
0
40
0
41
1
50
0
71
0
42
1
3
txt
4

0
ENDTAB
0
TABLE
2
VIEW
5
6
330
0
100
AcDbSymbolTable
70
0
0
ENDTAB
0
TABLE
2
UCS
5
7
330
0
100
AcDbSymbolTable
70
0
0
ENDTAB
0
TABLE
2
APPID
5
9
330
0
100
AcDbSymbolTable
70
1
0
APPID
5
12
330
9
100
AcDbSymbolTableRecord
100
AcDbRegAppTableRecord
2
ACAD
70
0
0
ENDTAB
0
TABLE
2
DIMSTYLE
5
A
330
0
100
AcDbSymbolTable
70
1
100
AcDbDimStyleTable
71
1
0
DIMSTYLE
105
48
330
A
100
AcDbSymbolTableRecord
100
AcDbDimStyleTableRecord
2
Standard
70
0
40
1
41
2.5
42
0.625
43
0.38
44
1.25
45
0
46
0
47
0
48
0
140
2.5
141
0.09
142
0
143
25.4
144
1
145
0
146
1
147
0.625
148
0
71
0
72
0
73
0
74
1
75
0
76
0
77
0
78
0
79
0
170
0
171
2
172
0
173
0
174
0
175
0
176
0
177
0
178
0
179
0
271
4
272
4
273
2
274
2
275
0
276
0
277
2
278
46
279
0
280
0
281
0
282
0
283
1
284
0
285
0
286
0
288
0
289
3
340
Standard
341

371
-2
372
-2
0
ENDTAB
0
TABLE
2
BLOCK_RECORD
5
1
330
0
100
AcDbSymbolTable
70
2
0
BLOCK_RECORD
5
1F
330
1
100
AcDbSymbolTableRecord
100
AcDbBlockTableRecord
2
*Model_Space
70
0
280
1
281
0
0
BLOCK_RECORD
5
1E
330
1
100
AcDbSymbolTableRecord
100
AcDbBlockTableRecord
2
*Paper_Space
70
0
280
1
281
0
0
BLOCK_RECORD
5
49
330
1
100
AcDbSymbolTableRecord
100
AcDbBlockTableRecord
2
kt-top
70
0
280
1
281
0
0
BLOCK_RECORD
5
4C
330
1
100
AcDbSymbolTableRecord
100
AcDbBlockTableRecord
2
kt-side
70
0
280
1
281
0
0
BLOCK_RECORD
5
4F
330
1
100
AcDbSymbolTableRecord
100
AcDbBlockTableRecord
2
bulkhead
70
0
280
1
281
0
0
BLOCK_RECORD
5
52
330
1
100
AcDbSymbolTableRecord
100
AcDbBlockTableRecord
2
pad-20
70
0
280
1
281
0
0
BLOCK_RECORD
5
55
330
1
100
AcDbSymbolTableRecord
100
AcDbBlockTableRecord
2
pad-33
70
0
280
1
281
0
0
BLOCK_RECORD
5
58
330
1
100
AcDbSymbolTableRecord
100
AcDbBlockTableRecord
2
pad-25
70
0
280
1
281
0
0
BLOCK_RECORD
5
5B
330
1
100
AcDbSymbolTableRecord
100
AcDbBlockTableRecord
2
kt-top-0
70
0
280
1
281
0
0
BLOCK_RECORD
5
5E
330
1
100
AcDbSymbolTableRecord
100
AcDbBlockTableRecord
2
kt-side-0
70
0
280
1
281
0
0
BLOCK_RECORD
5
61
330
1
100
AcDbSymbolTableRecord
100
AcDbBlockTableRecord
2
pad-25-0
70
0
280
1
281
0
0
BLOCK_RECORD
5
64
330
1
100
AcDbSymbolTableRecord
100
AcDbBlockTableRecord
2
out-conn
70
0
280
1
281
0
0
BLOCK_RECORD
5
67
330
1
100
AcDbSymbolTableRecord
100
AcDbBlockTableRecord
2
out-conn-0
70
0
280
1
281
0
0
BLOCK_RECORD
5
6A
330
1
100
AcDbSymbolTableRecord
100
AcDbBlockTableRecord
2
pad-25-0-0
70
0
280
1
281
0
0
BLOCK_RECORD
5
6D
330
1
100
AcDbSymbolTableRecord
100
AcDbBlockTableRecord
2
pad-25-0-0-0
70
0
280
1
281
0
0
BLOCK_RECORD
5
70
330
1
100
AcDbSymbolTableRecord
100
AcDbBlockTableRecord
2
pad-25-0-0-0-0
70
0
280
1
281
0
0
BLOCK_RECORD
5
73
330
1
100
AcDbSymbolTableRecord
100
AcDbBlockTableRecord
2
noname0
70
0
280
1
281
0
0
BLOCK_RECORD
5
76
330
1
100
AcDbSymbolTableRecord
100
AcDbBlockTableRecord
2
pad-25-0-0-0-0-0
70
0
280
1
281
0
0
BLOCK_RECORD
5
79
330
1
100
AcDbSymbolTableRecord
100
AcDbBlockTableRecord
2
noname1
70
0
280
1
281
0
0
BLOCK_RECORD
5
7C
330
1
100
AcDbSymbolTableRecord
100
AcDbBlockTableRecord
2
pad-25-0-0-0-1
70
0
280
1
281
0
0
BLOCK_RECORD
5
7F
330
1
100
AcDbSymbolTableRecord
100
AcDbBlockTableRecord
2
out-conn-0-0
70
0
280
1
281
0
0
BLOCK_RECORD
5
82
330
1
100
AcDbSymbolTableRecord
100
AcDbBlockTableRecord
2
pad-25-0-0-1
70
0
280
1
281
0
0
BLOCK_RECORD
5
85
330
1
100
AcDbSymbolTableRecord
100
AcDbBlockTableRecord
2
pad-25-0-0-0-1-0
70
0
280
1
281
0
0
BLOCK_RECORD
5
88
330
1
100
AcDbSymbolTableRecord
100
AcDbBlockTableRecord
2
pad-25-0-0-0-2
70
0
280
1
281
0
0
ENDTAB
0
ENDSEC
0
SECTION
2
BLOCKS
0
BLOCK
5
20
330
1F
100
AcDbEntity
8
0
100
AcDbBlockBegin
2
*Model_Space
70
0
10
0
20
0
30
0
3
*Model_Space
1

0
ENDBLK
5
21
330
1F
100
AcDbEntity
8
0
100
AcDbBlockEnd
0
BLOCK
5
1C
330
1B
100
AcDbEntity
8
0
100
AcDbBlockBegin
2
*Paper_Space
70
0
10
0
20
0
30
0
3
*Paper_Space
1

0
ENDBLK
5
1D
330
1F
100
AcDbEntity
8
0
100
AcDbBlockEnd
0
BLOCK
5
4A
330
49
100
AcDbEntity
8
0
100
AcDbBlockBegin
2
kt-top
70
0
10
0
20
0
3
kt-top
1

0
LINE
5
8B
100
AcDbEntity
8
0
6
ByLayer
62
256
370
-1
100
AcDbLine
10
-48
20
90
11
-40
21
90
0
LINE
5
8C
100
AcDbEntity
8
0
6
ByLayer
62
256
370
-1
100
AcDbLine
10
-40
20
90
11
-40
21
88
0
LINE
5
8D
100
AcDbEntity
8
0
6
ByLayer
62
256
370
-1
100
AcDbLine
10
-40
20
88
11
-30
21
88
0
LINE
5
8E
100
AcDbEntity
8
0
6
ByLayer
62
256
370
-1
100
AcDbLine
10
-30
20
88
11
-30
21
90
0
LINE
5
8F
100
AcDbEntity
8
0
6
ByLayer
62
256
370
-1
100
AcDbLine
10
-30
20
90
11
-20
21
90
0
LINE
5
90
100
AcDbEntity
8
0
6
ByLayer
62
256
370
-1
100
AcDbLine
10
-20
20
90
11
-20
21
88
0
LINE
5
91
100
AcDbEntity
8
0
6
ByLayer
62
256
370
-1
100
AcDbLine
10
-20
20
88
11
-10
21
88
0
LINE
5
92
100
AcDbEntity
8
0
6
ByLayer
62
256
370
-1
100
AcDbLine
10
-10
20
88
11
-10
21
90
0
LINE
5
93
100
AcDbEntity
8
0
6
ByLayer
62
256
370
-1
100
AcDbLine
10
-10
20
90
11
0
21
90
0
LINE
5
94
100
AcDbEntity
8
0
6
ByLayer
62
256
370
-1
100
AcDbLine
10
0
20
90
11
0
21
0
0
LINE
5
95
100
AcDbEntity
8
0
6
ByLayer
62
256
370
-1
100
AcDbLine
10
0
20
0
11
-10
21
0
0
LINE
5
96
100
AcDbEntity
8
0
6
ByLayer
62
256
370
-1
100
AcDbLine
10
-10
20
0
11
-10
21
2
0
LINE
5
97
100
AcDbEntity
8
0
6
ByLayer
62
256
370
-1
100
AcDbLine
10
-10
20
2
11
-20
21
2
0
LINE
5
98
100
AcDbEntity
8
0
6
ByLayer
62
256
370
-1
100
AcDbLine
10
-20
20
2
11
-20
21
0
0
LINE
5
99
100
AcDbEntity
8
0
6
ByLayer
62
256
370
-1
100
AcDbLine
10
-20
20
0
11
-30
21
0
0
LINE
5
9A
100
AcDbEntity
8
0
6
ByLayer
62
256
370
-1
100
AcDbLine
10
-30
20
0
11
-30
21
2
0
LINE
5
9B
100
AcDbEntity
8
0
6
ByLayer
62
256
370
-1
100
AcDbLine
10
-30
20
2
11
-40
21
2
0
LINE
5
9C
100
AcDbEntity
8
0
6
ByLayer
62
256
370
-1
100
AcDbLine
10
-40
20
2
11
-40
21
0
0
LINE
5
9D
100
AcDbEntity
8
0
6
ByLayer
62
256
370
-1
100
AcDbLine
10
-40
20
0
11
-48
21
0
0
LINE
5
9E
100
AcDbEntity
8
0
6
ByLayer
62
256
370
-1
100
AcDbLine
10
-48
20
0
11
-48
21
14.6
0
LINE
5
9F
100
AcDbEntity
8
0
6
ByLayer
62
256
370
-1
100
AcDbLine
10
-48
20
14.6
11
-50
21
14.6
0
LINE
5
A0
100
AcDbEntity
8
0
6
ByLayer
62
256
370
-1
100
AcDbLine
10
-50
20
14.6
11
-50
21
30.4
0
LINE
5
A1
100
AcDbEntity
8
0
6
ByLayer
62
256
370
-1
100
AcDbLine
10
-50
20
30.4
11
-48
21
30.4
0
LINE
5
A2
100
AcDbEntity
8
0
6
ByLayer
62
256
370
-1
100
AcDbLine
10
-48
20
30.4
11
-48
21
59.6
0
LINE
5
A3
100
AcDbEntity
8
0
6
ByLayer
62
256
370
-1
100
AcDbLine
10
-48
20
59.6
11
-50
21
59.6
0
LINE
5
A4
100
AcDbEntity
8
0
6
ByLayer
62
256
370
-1
100
AcDbLine
10
-50
20
59.6
11
-50
21
75.4
0
LINE
5
A5
100
AcDbEntity
8
0
6
ByLayer
62
256
370
-1
100
AcDbLine
10
-50
20
75.4
11
-48
21
75.4
0
LINE
5
A6
100
AcDbEntity
8
0
6
ByLayer
62
256
370
-1
100
AcDbLine
10
-48
20
75.4
11
-48
21
90
0
CIRCLE
5
A7
100
AcDbEntity
8
0
6
ByLayer
62
256
370
-1
100
AcDbCircle
10
-8
20
61.5
40
1.5
0
CIRCLE
5
A8
100
AcDbEntity
8
0
6
ByLayer
62
256
370
-1
100
AcDbCircle
10
-8
20
28.5
40
1.5
0
ARC
5
A9
100
AcDbEntity
8
0
6
ByLayer
62
256
370
-1
100
AcDbCircle
10
-38.000324899
20
81
40
2
100
AcDbArc
50
90
51
200.224859431
0
ARC
5
AA
100
AcDbEntity
8
0
6
ByLayer
62
256
370
-1
100
AcDbCircle
10
-41
20
66.0008818678
40
2
100
AcDbArc
50
20.2248594312
51
180
0
LINE
5
AB
100
AcDbEntity
8
0
6
ByLayer
62
256
370
-1
100
AcDbLine
10
-38.000324899
20
83
11
-19.999675101
21
83
0
ARC
5
AC
100
AcDbEntity
8
0
6
ByLayer
62
256
370
-1
100
AcDbCircle
10
-19.999675101
20
81
40
2
100
AcDbArc
50
339.775140569
51
90
0
ARC
5
AD
100
AcDbEntity
8
0
6
ByLayer
62
256
370
-1
100
AcDbCircle
10
-17
20
66.0008818678
40
2
100
AcDbArc
50
360
51
159.775140569
0
LINE
5
AE
100
AcDbEntity
8
0
6
ByLayer
62
256
370
-1
100
AcDbLine
10
-15
20
66.0008818678
11
-15
21
23.9991181322
0
ARC
5
AF
100
AcDbEntity
8
0
6
ByLayer
62
256
370
-1
100
AcDbCircle
10
-17
20
23.9991181322
40
2
100
AcDbArc
50
200.224859431
51
0
0
ARC
5
B0
100
AcDbEntity
8
0
6
ByLayer
62
256
370
-1
100
AcDbCircle
10
-19.999675101
20
9
40
2
100
AcDbArc
50
270
51
20.2248594312
0
LINE
5
B1
100
AcDbEntity
8
0
6
ByLayer
62
256
370
-1
100
AcDbLine
10
-38.000324899
20
7
11
-19.999675101
21
7
0
ARC
5
B2
100
AcDbEntity
8
0
6
ByLayer
62
256
370
-1
100
AcDbCircle
10
-38.000324899
20
9
40
2
100
AcDbArc
50
159.775140569
51
270
0
LINE
5
B3
100
AcDbEntity
8
0
6
ByLayer
62
256
370
-1
100
AcDbLine
10
-43
20
66.0008818678
11
-43
21
23.9991181322
0
ARC
5
B4
100
AcDbEntity
8
0
6
ByLayer
62
256
370
-1
100
AcDbCircle
10
-41
20
23.9991181322
40
2
100
AcDbArc
50
180
51
339.775140569
0
ARC
5
B5
100
AcDbEntity
8
0
6
ByLayer
62
256
370
-1
100
AcDbCircle
10
-33.262832996
20
45
40
2
100
AcDbArc
50
339.775140569
51
20.2248594312
0
ARC
5
B6
100
AcDbEntity
8
0
6
ByLayer
62
256
370
-1
100
AcDbCircle
10
-29
20
56.5705467036
40
2
100
AcDbArc
50
200.224859431
51
339.775140569
0
ARC
5
B7
100
AcDbEntity
8
0
6
ByLayer
62
256
370
-1
100
AcDbCircle
10
-24.737167004
20
45
40
2
100
AcDbArc
50
159.775140569
51
200.224859431
0
LINE
5
B8
100
AcDbEntity
8
0
6
ByLayer
62
256
370
-1
100
AcDbLine
10
-27.123313766
20
34.120864014
11
-18.122988868
21
9.6914107177
0
LINE
5
B9
100
AcDbEntity
8
0
6
ByLayer
62
256
370
-1
100
AcDbLine
10
-30.876686234
20
34.120864014
11
-39.877011132
21
9.6914107177
0
ARC
5
BA
100
AcDbEntity
8
0
6
ByLayer
62
256
370
-1
100
AcDbCircle
10
-29
20
33.4294532964
40
2
100
AcDbArc
50
20.2248594312
51
159.775140569
0
LINE
5
BB
100
AcDbEntity
8
0
6
ByLayer
62
256
370
-1
100
AcDbLine
10
-39.123313766
20
66.6922925855
11
-31.386146762
21
45.6914107177
0
LINE
5
BC
100
AcDbEntity
8
0
6
ByLayer
62
256
370
-1
100
AcDbLine
10
-31.386146762
20
44.3085892823
11
-39.123313766
21
23.3077074145
0
LINE
5
BD
100
AcDbEntity
8
0
6
ByLayer
62
256
370
-1
100
AcDbLine
10
-26.613853238
20
44.3085892823
11
-18.876686234
21
23.3077074145
0
LINE
5
BE
100
AcDbEntity
8
0
6
ByLayer
62
256
370
-1
100
AcDbLine
10
-26.613853238
20
45.6914107177
11
-18.876686234
21
66.6922925855
0
LINE
5
BF
100
AcDbEntity
8
0
6
ByLayer
62
256
370
-1
100
AcDbLine
10
-27.123313766
20
55.879135986
11
-18.122988868
21
80.3085892823
0
LINE
5
C0
100
AcDbEntity
8
0
6
ByLayer
62
256
370
-1
100
AcDbLine
10
-39.877011132
20
80.3085892823
11
-30.876686234
21
55.879135986
0
CIRCLE
5
C1
100
AcDbEntity
8
0
6
ByLayer
62
256
370
-1
100
AcDbCircle
10
-14
20
85
40
0.05
0
CIRCLE
5
C2
100
AcDbEntity
8
0
6
ByLayer
62
256
370
-1
100
AcDbCircle
10
-14
20
80
40
0.05
0
CIRCLE
5
C3
100
AcDbEntity
8
0
6
ByLayer
62
256
370
-1
100
AcDbCircle
10
-14
20
75
40
0.05
0
CIRCLE
5
C4
100
AcDbEntity
8
0
6
ByLayer
62
256
370
-1
100
AcDbCircle
10
-14
20
70
40
0.05
0
CIRCLE
5
C5
100
AcDbEntity
8
0
6
ByLayer
62
256
370
-1
100
AcDbCircle
10
-14
20
65
40
0.05
0
CIRCLE
5
C6
100
AcDbEntity
8
0
6
ByLayer
62
256
370
-1
100
AcDbCircle
10
-14
20
60
40
0.05
0
CIRCLE
5
C7
100
AcDbEntity
8
0
6
ByLayer
62
256
370
-1
100
AcDbCircle
10
-14
20
55
40
0.05
0
CIRCLE
5
C8
100
AcDbEntity
8
0
6
ByLayer
62
256
370
-1
100
AcDbCircle
10
-14
20
50
40
0.05
0
CIRCLE
5
C9
100
AcDbEntity
8
0
6
ByLayer
62
256
370
-1
100
AcDbCircle
10
-14
20
45
40
0.05
0
CIRCLE
5
CA
100
AcDbEntity
8
0
6
ByLayer
62
256
370
-1
100
AcDbCircle
10
-14
20
40
40
0.05
0
CIRCLE
5
CB
100
AcDbEntity
8
0
6
ByLayer
62
256
370
-1
100
AcDbCircle
10
-14
20
35
40
0.05
0
CIRCLE
5
CC
100
AcDbEntity
8
0
6
ByLayer
62
256
370
-1
100
AcDbCircle
10
-14
20
30
40
0.05
0
CIRCLE
5
CD
100
AcDbEntity
8
0
6
ByLayer
62
256
370
-1
100
AcDbCircle
10
-14
20
25
40
0.05
0
CIRCLE
5
CE
100
AcDbEntity
8
0
6
ByLayer
62
256
370
-1
100
AcDbCircle
10
-14
20
20
40
0.05
0
CIRCLE
5
CF
100
AcDbEntity
8
0
6
ByLayer
62
256
370
-1
100
AcDbCircle
10
-14
20
15
40
0.05
0
CIRCLE
5
D0
100
AcDbEntity
8
0
6
ByLayer
62
256
370
-1
100
AcDbCircle
10
-14
20
10
40
0.05
0
CIRCLE
5
D1
100
AcDbEntity
8
0
6
ByLayer
62
256
370
-1
100
AcDbCircle
10
-14
20
5
40
0.05
0
ENDBLK
5
4B
330
49
100
AcDbEntity
8
0
100
AcDbBlockEnd
0
BLOCK
5
4D
330
4C
100
AcDbEntity
8
0
100
AcDbBlockBegin
2
kt-side
70
0
10
0
20
0
3
kt-side
1

0
LINE
5
D2
100
AcDbEntity
8
0
6
ByLayer
62
256
370
-1
100
AcDbLine
10
-48
20
47.073731168
11
-40.4
21
47.2218793161
0
LINE
5
D3
100
AcDbEntity
8
0
6
ByLayer
62
256
370
-1
100
AcDbLine
10
-40.4
20
47.2218793161
11
-40.4
21
49.2222222222
0
LINE
5
D4
100
AcDbEntity
8
0
6
ByLayer
62
256
370
-1
100
AcDbLine
10
-40.4
20
49.2222222222
11
-29.6
21
49.4074074074
0
LINE
5
D5
100
AcDbEntity
8
0
6
ByLayer
62
256
370
-1
100
AcDbLine
10
-29.6
20
49.4074074074
11
-29.6
21
47.4070645013
0
LINE
5
D6
100
AcDbEntity
8
0
6
ByLayer
62
256
370
-1
100
AcDbLine
10
-29.6
20
47.4070645013
11
-20.4
21
47.5922496865
0
LINE
5
D7
100
AcDbEntity
8
0
6
ByLayer
62
256
370
-1
100
AcDbLine
10
-20.4
20
47.5922496865
11
-20.4
21
49.5925925926
0
LINE
5
D8
100
AcDbEntity
8
0
6
ByLayer
62
256
370
-1
100
AcDbLine
10
-20.4
20
49.5925925926
11
-9.6
21
49.7777777778
0
LINE
5
D9
100
AcDbEntity
8
0
6
ByLayer
62
256
370
-1
100
AcDbLine
10
-9.6
20
49.7777777778
11
-9.6
21
47.784842279
0
LINE
5
DA
100
AcDbEntity
8
0
6
ByLayer
62
256
370
-1
100
AcDbLine
10
-9.6
20
47.784842279
11
0
21
47.9626200568
0
LINE
5
DB
100
AcDbEntity
8
0
6
ByLayer
62
256
370
-1
100
AcDbLine
10
0
20
47.9626200568
11
0
21
2
0
LINE
5
DC
100
AcDbEntity
8
0
6
ByLayer
62
256
370
-1
100
AcDbLine
10
0
20
2
11
-9.6
21
2
0
LINE
5
DD
100
AcDbEntity
8
0
6
ByLayer
62
256
370
-1
100
AcDbLine
10
-9.6
20
2
11
-9.6
21
0
0
LINE
5
DE
100
AcDbEntity
8
0
6
ByLayer
62
256
370
-1
100
AcDbLine
10
-9.6
20
0
11
-20.4
21
0
0
LINE
5
DF
100
AcDbEntity
8
0
6
ByLayer
62
256
370
-1
100
AcDbLine
10
-20.4
20
0
11
-20.4
21
2
0
LINE
5
E0
100
AcDbEntity
8
0
6
ByLayer
62
256
370
-1
100
AcDbLine
10
-20.4
20
2
11
-29.6
21
2
0
LINE
5
E1
100
AcDbEntity
8
0
6
ByLayer
62
256
370
-1
100
AcDbLine
10
-29.6
20
2
11
-29.6
21
0
0
LINE
5
E2
100
AcDbEntity
8
0
6
ByLayer
62
256
370
-1
100
AcDbLine
10
-29.6
20
0
11
-40.4
21
0
0
LINE
5
E3
100
AcDbEntity
8
0
6
ByLayer
62
256
370
-1
100
AcDbLine
10
-40.4
20
0
11
-40.4
21
2
0
LINE
5
E4
100
AcDbEntity
8
0
6
ByLayer
62
256
370
-1
100
AcDbLine
10
-40.4
20
2
11
-48
21
2
0
LINE
5
E5
100
AcDbEntity
8
0
6
ByLayer
62
256
370
-1
100
AcDbLine
10
-48
20
2
11
-48
21
14.6
0
LINE
5
E6
100
AcDbEntity
8
0
6
ByLayer
62
256
370
-1
100
AcDbLine
10
-48
20
14.6
11
-50
21
14.6
0
LINE
5
E7
100
AcDbEntity
8
0
6
ByLayer
62
256
370
-1
100
AcDbLine
10
-50
20
14.6
11
-50
21
30.4
0
LINE
5
E8
100
AcDbEntity
8
0
6
ByLayer
62
256
370
-1
100
AcDbLine
10
-50
20
30.4
11
-48
21
30.4
0
LINE
5
E9
100
AcDbEntity
8
0
6
ByLayer
62
256
370
-1
100
AcDbLine
10
-48
20
30.4
11
-48
21
47.073731168
0
CIRCLE
5
EA
100
AcDbEntity
8
0
6
ByLayer
62
256
370
-1
100
AcDbCircle
10
-8
20
32.5
40
1.5
0
CIRCLE
5
EB
100
AcDbEntity
8
0
6
ByLayer
62
256
370
-1
100
AcDbCircle
10
-8
20
12.5
40
1.5
0
ARC
5
EC
100
AcDbEntity
8
0
6
ByLayer
62
256
370
-1
100
AcDbCircle
10
-36.39159049
20
40.287501543
40
2
100
AcDbArc
50
91.0609116902
51
218.528055442
0
LINE
5
ED
100
AcDbEntity
8
0
6
ByLayer
62
256
370
-1
100
AcDbLine
10
-21.789153276
20
42.5582599531
11
-36.428621178
21
42.2871586956
0
ARC
5
EE
100
AcDbEntity
8
0
6
ByLayer
62
256
370
-1
100
AcDbCircle
10
-21.752122588
20
40.5586028004
40
2
100
AcDbArc
50
321.879938394
51
91.0609116902
0
ARC
5
EF
100
AcDbEntity
8
0
6
ByLayer
62
256
370
-1
100
AcDbCircle
10
-17
20
33.6554168249
40
2
100
AcDbArc
50
0
51
141.879938394
0
LINE
5
F0
100
AcDbEntity
8
0
6
ByLayer
62
256
370
-1
100
AcDbLine
10
-15
20
33.6554168249
11
-15
21
15.933418483
0
ARC
5
F1
100
AcDbEntity
8
0
6
ByLayer
62
256
370
-1
100
AcDbCircle
10
-17
20
15.933418483
40
2
100
AcDbArc
50
218.528055442
51
5.08888749034e-14
0
ARC
5
F2
100
AcDbEntity
8
0
6
ByLayer
62
256
370
-1
100
AcDbCircle
10
-21.705578172
20
9
40
2
100
AcDbArc
50
270
51
38.5280554419
0
LINE
5
F3
100
AcDbEntity
8
0
6
ByLayer
62
256
370
-1
100
AcDbLine
10
-36.346260538
20
7
11
-21.705578172
21
7
0
ARC
5
F4
100
AcDbEntity
8
0
6
ByLayer
62
256
370
-1
100
AcDbCircle
10
-36.346260538
20
9
40
2
100
AcDbArc
50
141.879938394
51
270
0
ARC
5
F5
100
AcDbEntity
8
0
6
ByLayer
62
256
370
-1
100
AcDbCircle
10
-41
20
16.0285681888
40
2
100
AcDbArc
50
180
51
321.879938394
0
LINE
5
F6
100
AcDbEntity
8
0
6
ByLayer
62
256
370
-1
100
AcDbLine
10
-43
20
33.2320480122
11
-43
21
16.0285681888
0
ARC
5
F7
100
AcDbEntity
8
0
6
ByLayer
62
256
370
-1
100
AcDbCircle
10
-41
20
33.2320480122
40
2
100
AcDbArc
50
38.5280554419
51
180
0
ARC
5
F8
100
AcDbEntity
8
0
6
ByLayer
62
256
370
-1
100
AcDbCircle
10
-34.201112714
20
24.6932607606
40
2
100
AcDbArc
50
321.879938394
51
38.5280554419
0
ARC
5
F9
100
AcDbEntity
8
0
6
ByLayer
62
256
370
-1
100
AcDbCircle
10
-29.079493975
20
18.2609710399
40
2
100
AcDbArc
50
38.5280554419
51
141.879938394
0
ARC
5
FA
100
AcDbEntity
8
0
6
ByLayer
62
256
370
-1
100
AcDbCircle
10
-24.003807976
20
24.7295675801
40
2
100
AcDbArc
50
141.879938394
51
218.528055442
0
ARC
5
FB
100
AcDbEntity
8
0
6
ByLayer
62
256
370
-1
100
AcDbCircle
10
-29.125426715
20
31.1618573008
40
2
100
AcDbArc
50
218.528055442
51
321.879938394
0
LINE
5
FC
100
AcDbEntity
8
0
6
ByLayer
62
256
370
-1
100
AcDbLine
10
-37.956196976
20
39.0417059954
11
-30.690033201
21
29.9160617532
0
LINE
5
FD
100
AcDbEntity
8
0
6
ByLayer
62
256
370
-1
100
AcDbLine
10
-20.17868474
20
39.3239800492
11
-27.551988867
21
29.9272345496
0
LINE
5
FE
100
AcDbEntity
8
0
6
ByLayer
62
256
370
-1
100
AcDbLine
10
-18.573437848
20
34.8900395761
11
-25.577245824
21
25.9641903313
0
LINE
5
FF
100
AcDbEntity
8
0
6
ByLayer
62
256
370
-1
100
AcDbLine
10
-25.568414461
20
23.4837720326
11
-18.564606485
21
14.6876229355
0
LINE
5
100
100
AcDbEntity
8
0
6
ByLayer
62
256
370
-1
100
AcDbLine
10
-20.140971687
20
10.2457955475
11
-27.51488749
21
19.5067665874
0
LINE
5
101
100
AcDbEntity
8
0
6
ByLayer
62
256
370
-1
100
AcDbLine
10
-30.652931823
20
19.4955937911
11
-37.919698386
21
10.2346227512
0
LINE
5
102
100
AcDbEntity
8
0
6
ByLayer
62
256
370
-1
100
AcDbLine
10
-39.426562152
20
14.7939454376
11
-32.627674866
21
23.4586380094
0
LINE
5
103
100
AcDbEntity
8
0
6
ByLayer
62
256
370
-1
100
AcDbLine
10
-32.636506229
20
25.9390563081
11
-39.435393515
21
34.4778435598
0
CIRCLE
5
104
100
AcDbEntity
8
0
6
ByLayer
62
256
370
-1
100
AcDbCircle
10
-14
20
45
40
0.05
0
CIRCLE
5
105
100
AcDbEntity
8
0
6
ByLayer
62
256
370
-1
100
AcDbCircle
10
-14
20
40
40
0.05
0
CIRCLE
5
106
100
AcDbEntity
8
0
6
ByLayer
62
256
370
-1
100
AcDbCircle
10
-14
20
35
40
0.05
0
CIRCLE
5
107
100
AcDbEntity
8
0
6
ByLayer
62
256
370
-1
100
AcDbCircle
10
-14
20
30
40
0.05
0
CIRCLE
5
108
100
AcDbEntity
8
0
6
ByLayer
62
256
370
-1
100
AcDbCircle
10
-14
20
25
40
0.05
0
CIRCLE
5
109
100
AcDbEntity
8
0
6
ByLayer
62
256
370
-1
100
AcDbCircle
10
-14
20
20
40
0.05
0
CIRCLE
5
10A
100
AcDbEntity
8
0
6
ByLayer
62
256
370
-1
100
AcDbCircle
10
-14
20
15
40
0.05
0
CIRCLE
5
10B
100
AcDbEntity
8
0
6
ByLayer
62
256
370
-1
100
AcDbCircle
10
-14
20
10
40
0.05
0
CIRCLE
5
10C
100
AcDbEntity
8
0
6
ByLayer
62
256
370
-1
100
AcDbCircle
10
-14
20
5
40
0.05
0
CIRCLE
5
10D
100
AcDbEntity
8
0
6
ByLayer
62
256
370
-1
100
AcDbCircle
10
-14
20
47.7033607976
40
0.05
0
CIRCLE
5
10E
100
AcDbEntity
8
0
6
ByLayer
62
256
370
-1
100
AcDbCircle
10
-14
20
2
40
0.05
0
ENDBLK
5
4E
330
4C
100
AcDbEntity
8
0
100
AcDbBlockEnd
0
BLOCK
5
50
330
4F
100
AcDbEntity
8
0
100
AcDbBlockBegin
2
bulkhead
70
0
10
0
20
0
3
bulkhead
1

0
ARC
5
10F
100
AcDbEntity
8
0
6
ByLayer
62
256
370
-1
100
AcDbCircle
10
34.607695155
20
1
40
5
100
AcDbArc
50
47.8965511293
51
90
0
ARC
5
110
100
AcDbEntity
8
0
6
ByLayer
62
256
370
-1
100
AcDbCircle
10
55.392304845
20
1
40
5
100
AcDbArc
50
90
51
132.103448871
0
ARC
5
111
100
AcDbEntity
8
0
6
ByLayer
62
256
370
-1
100
AcDbCircle
10
11
20
11
40
5
100
AcDbArc
50
180
51
270
0
LINE
5
112
100
AcDbEntity
8
0
6
ByLayer
62
256
370
-1
100
AcDbLine
10
6
20
38.037
11
6
21
11
0
ARC
5
113
100
AcDbEntity
8
0
6
ByLayer
62
256
370
-1
100
AcDbCircle
10
11
20
38.037
40
5
100
AcDbArc
50
90
51
180
0
LINE
5
114
100
AcDbEntity
8
0
6
ByLayer
62
256
370
-1
100
AcDbLine
10
79
20
43.037
11
11
21
43.037
0
ARC
5
115
100
AcDbEntity
8
0
6
ByLayer
62
256
370
-1
100
AcDbCircle
10
79
20
38.037
40
5
100
AcDbArc
50
0
51
90
0
LINE
5
116
100
AcDbEntity
8
0
6
ByLayer
62
256
370
-1
100
AcDbLine
10
84
20
38.037
11
84
21
11
0
ARC
5
117
100
AcDbEntity
8
0
6
ByLayer
62
256
370
-1
100
AcDbCircle
10
79
20
11
40
5
100
AcDbArc
50
270
51
360
0
LINE
5
118
100
AcDbEntity
8
0
6
ByLayer
62
256
370
-1
100
AcDbLine
10
34.607695155
20
6
11
11
21
6
0
LINE
5
119
100
AcDbEntity
8
0
6
ByLayer
62
256
370
-1
100
AcDbLine
10
55.392304845
20
6
11
79
21
6
0
ARC
5
11A
100
AcDbEntity
8
0
6
ByLayer
62
256
370
-1
100
AcDbCircle
10
45
20
12.5
40
10.5
100
AcDbArc
50
227.896551129
51
312.103357808
0
LINE
5
11B
100
AcDbEntity
8
0
6
ByLayer
62
256
370
-1
100
AcDbLine
10
15
20
0
11
15
21
2
0
LINE
5
11C
100
AcDbEntity
8
0
6
ByLayer
62
256
370
-1
100
AcDbLine
10
15
20
2
11
30
21
2
0
LINE
5
11D
100
AcDbEntity
8
0
6
ByLayer
62
256
370
-1
100
AcDbLine
10
30
20
2
11
30
21
0
0
LINE
5
11E
100
AcDbEntity
8
0
6
ByLayer
62
256
370
-1
100
AcDbLine
10
30
20
0
11
60
21
-2.84217094304e-14
0
LINE
5
11F
100
AcDbEntity
8
0
6
ByLayer
62
256
370
-1
100
AcDbLine
10
60
20
-2.84217094304e-14
11
60
21
2
0
LINE
5
120
100
AcDbEntity
8
0
6
ByLayer
62
256
370
-1
100
AcDbLine
10
60
20
2
11
75
21
2
0
LINE
5
121
100
AcDbEntity
8
0
6
ByLayer
62
256
370
-1
100
AcDbLine
10
75
20
2
11
75
21
-2.84217094304e-14
0
LINE
5
122
100
AcDbEntity
8
0
6
ByLayer
62
256
370
-1
100
AcDbLine
10
15
20
0
11
0
21
0
0
LINE
5
123
100
AcDbEntity
8
0
6
ByLayer
62
256
370
-1
100
AcDbLine
10
75
20
-2.84217094304e-14
11
90
21
0
0
LINE
5
124
100
AcDbEntity
8
0
6
ByLayer
62
256
370
-1
100
AcDbLine
10
15
20
49.037
11
15
21
47.037
0
LINE
5
125
100
AcDbEntity
8
0
6
ByLayer
62
256
370
-1
100
AcDbLine
10
15
20
47.037
11
30
21
47.037
0
LINE
5
126
100
AcDbEntity
8
0
6
ByLayer
62
256
370
-1
100
AcDbLine
10
30
20
47.037
11
30
21
49.037
0
LINE
5
127
100
AcDbEntity
8
0
6
ByLayer
62
256
370
-1
100
AcDbLine
10
60
20
49.037
11
60
21
47.037
0
LINE
5
128
100
AcDbEntity
8
0
6
ByLayer
62
256
370
-1
100
AcDbLine
10
60
20
47.037
11
75
21
47.037
0
LINE
5
129
100
AcDbEntity
8
0
6
ByLayer
62
256
370
-1
100
AcDbLine
10
75
20
47.037
11
75
21
49.037
0
LINE
5
12A
100
AcDbEntity
8
0
6
ByLayer
62
256
370
-1
100
AcDbLine
10
90
20
49.037
11
75
21
49.037
0
LINE
5
12B
100
AcDbEntity
8
0
6
ByLayer
62
256
370
-1
100
AcDbLine
10
60
20
49.037
11
30
21
49.037
0
LINE
5
12C
100
AcDbEntity
8
0
6
ByLayer
62
256
370
-1
100
AcDbLine
10
15
20
49.037
11
0
21
49.037
0
LINE
5
12D
100
AcDbEntity
8
0
6
ByLayer
62
256
370
-1
100
AcDbLine
10
90
20
30
11
88
21
30
0
LINE
5
12E
100
AcDbEntity
8
0
6
ByLayer
62
256
370
-1
100
AcDbLine
10
88
20
30
11
88
21
15
0
LINE
5
12F
100
AcDbEntity
8
0
6
ByLayer
62
256
370
-1
100
AcDbLine
10
88
20
15
11
90
21
15
0
LINE
5
130
100
AcDbEntity
8
0
6
ByLayer
62
256
370
-1
100
AcDbLine
10
0
20
30
11
2
21
30
0
LINE
5
131
100
AcDbEntity
8
0
6
ByLayer
62
256
370
-1
100
AcDbLine
10
2
20
30
11
2
21
15
0
LINE
5
132
100
AcDbEntity
8
0
6
ByLayer
62
256
370
-1
100
AcDbLine
10
2
20
15
11
0
21
15
0
LINE
5
133
100
AcDbEntity
8
0
6
ByLayer
62
256
370
-1
100
AcDbLine
10
90
20
49.037
11
90
21
30
0
LINE
5
134
100
AcDbEntity
8
0
6
ByLayer
62
256
370
-1
100
AcDbLine
10
90
20
15
11
90
21
0
0
LINE
5
135
100
AcDbEntity
8
0
6
ByLayer
62
256
370
-1
100
AcDbLine
10
0
20
49.037
11
0
21
30
0
LINE
5
136
100
AcDbEntity
8
0
6
ByLayer
62
256
370
-1
100
AcDbLine
10
0
20
15
11
0
21
0
0
ENDBLK
5
51
330
4F
100
AcDbEntity
8
0
100
AcDbBlockEnd
0
BLOCK
5
53
330
52
100
AcDbEntity
8
0
100
AcDbBlockBegin
2
pad-20
70
0
10
0
20
0
3
pad-20
1

0
CIRCLE
5
137
100
AcDbEntity
8
0
6
ByLayer
62
256
370
-1
100
AcDbCircle
10
4
20
3.5
40
1.5
0
CIRCLE
5
138
100
AcDbEntity
8
0
6
ByLayer
62
256
370
-1
100
AcDbCircle
10
24
20
3.5
40
1.5
0
LINE
5
139
100
AcDbEntity
8
0
6
ByLayer
62
256
370
-1
100
AcDbLine
10
4
20
7
11
24
21
7
0
LINE
5
13A
100
AcDbEntity
8
0
6
ByLayer
62
256
370
-1
100
AcDbLine
10
4
20
0
11
24
21
0
0
ARC
5
13B
100
AcDbEntity
8
0
6
ByLayer
62
256
370
-1
100
AcDbCircle
10
4
20
3.5
40
3.5
100
AcDbArc
50
90
51
270
0
ARC
5
13C
100
AcDbEntity
8
0
6
ByLayer
62
256
370
-1
100
AcDbCircle
10
24
20
3.5
40
3.5
100
AcDbArc
50
270
51
90
0
ENDBLK
5
54
330
52
100
AcDbEntity
8
0
100
AcDbBlockEnd
0
BLOCK
5
56
330
55
100
AcDbEntity
8
0
100
AcDbBlockBegin
2
pad-33
70
0
10
0
20
0
3
pad-33
1

0
CIRCLE
5
13D
100
AcDbEntity
8
0
6
ByLayer
62
256
370
-1
100
AcDbCircle
10
4
20
3.5
40
1.5
0
CIRCLE
5
13E
100
AcDbEntity
8
0
6
ByLayer
62
256
370
-1
100
AcDbCircle
10
37
20
3.5
40
1.5
0
ARC
5
13F
100
AcDbEntity
8
0
6
ByLayer
62
256
370
-1
100
AcDbCircle
10
4
20
3.5
40
3.5
100
AcDbArc
50
90
51
270
0
ARC
5
140
100
AcDbEntity
8
0
6
ByLayer
62
256
370
-1
100
AcDbCircle
10
37
20
3.5
40
3.5
100
AcDbArc
50
270
51
90
0
LINE
5
141
100
AcDbEntity
8
0
6
ByLayer
62
256
370
-1
100
AcDbLine
10
4
20
7
11
37
21
7
0
LINE
5
142
100
AcDbEntity
8
0
6
ByLayer
62
256
370
-1
100
AcDbLine
10
37
20
0
11
4
21
0
0
ENDBLK
5
57
330
55
100
AcDbEntity
8
0
100
AcDbBlockEnd
0
BLOCK
5
59
330
58
100
AcDbEntity
8
0
100
AcDbBlockBegin
2
pad-25
70
0
10
0
20
0
3
pad-25
1

0
CIRCLE
5
143
100
AcDbEntity
8
0
6
ByLayer
62
256
370
-1
100
AcDbCircle
10
4
20
3.5
40
1.5
0
CIRCLE
5
144
100
AcDbEntity
8
0
6
ByLayer
62
256
370
-1
100
AcDbCircle
10
29
20
3.5
40
1.5
0
ARC
5
145
100
AcDbEntity
8
0
6
ByLayer
62
256
370
-1
100
AcDbCircle
10
4
20
3.5
40
3.5
100
AcDbArc
50
90
51
270
0
ARC
5
146
100
AcDbEntity
8
0
6
ByLayer
62
256
370
-1
100
AcDbCircle
10
29
20
3.5
40
3.5
100
AcDbArc
50
270
51
90
0
LINE
5
147
100
AcDbEntity
8
0
6
ByLayer
62
256
370
-1
100
AcDbLine
10
4
20
7
11
29
21
7
0
LINE
5
148
100
AcDbEntity
8
0
6
ByLayer
62
256
370
-1
100
AcDbLine
10
29
20
0
11
4
21
0
0
ENDBLK
5
5A
330
58
100
AcDbEntity
8
0
100
AcDbBlockEnd
0
BLOCK
5
5C
330
5B
100
AcDbEntity
8
0
100
AcDbBlockBegin
2
kt-top-0
70
0
10
0
20
0
3
kt-top-0
1

0
LINE
5
149
100
AcDbEntity
8
0
6
ByLayer
62
256
370
-1
100
AcDbLine
10
-48
20
90
11
-40
21
90
0
LINE
5
14A
100
AcDbEntity
8
0
6
ByLayer
62
256
370
-1
100
AcDbLine
10
-40
20
90
11
-40
21
88
0
LINE
5
14B
100
AcDbEntity
8
0
6
ByLayer
62
256
370
-1
100
AcDbLine
10
-40
20
88
11
-30
21
88
0
LINE
5
14C
100
AcDbEntity
8
0
6
ByLayer
62
256
370
-1
100
AcDbLine
10
-30
20
88
11
-30
21
90
0
LINE
5
14D
100
AcDbEntity
8
0
6
ByLayer
62
256
370
-1
100
AcDbLine
10
-30
20
90
11
-20
21
90
0
LINE
5
14E
100
AcDbEntity
8
0
6
ByLayer
62
256
370
-1
100
AcDbLine
10
-20
20
90
11
-20
21
88
0
LINE
5
14F
100
AcDbEntity
8
0
6
ByLayer
62
256
370
-1
100
AcDbLine
10
-20
20
88
11
-10
21
88
0
LINE
5
150
100
AcDbEntity
8
0
6
ByLayer
62
256
370
-1
100
AcDbLine
10
-10
20
88
11
-10
21
90
0
LINE
5
151
100
AcDbEntity
8
0
6
ByLayer
62
256
370
-1
100
AcDbLine
10
-10
20
90
11
0
21
90
0
LINE
5
152
100
AcDbEntity
8
0
6
ByLayer
62
256
370
-1
100
AcDbLine
10
0
20
90
11
0
21
0
0
LINE
5
153
100
AcDbEntity
8
0
6
ByLayer
62
256
370
-1
100
AcDbLine
10
0
20
0
11
-10
21
0
0
LINE
5
154
100
AcDbEntity
8
0
6
ByLayer
62
256
370
-1
100
AcDbLine
10
-10
20
0
11
-10
21
2
0
LINE
5
155
100
AcDbEntity
8
0
6
ByLayer
62
256
370
-1
100
AcDbLine
10
-10
20
2
11
-20
21
2
0
LINE
5
156
100
AcDbEntity
8
0
6
ByLayer
62
256
370
-1
100
AcDbLine
10
-20
20
2
11
-20
21
0
0
LINE
5
157
100
AcDbEntity
8
0
6
ByLayer
62
256
370
-1
100
AcDbLine
10
-20
20
0
11
-30
21
0
0
LINE
5
158
100
AcDbEntity
8
0
6
ByLayer
62
256
370
-1
100
AcDbLine
10
-30
20
0
11
-30
21
2
0
LINE
5
159
100
AcDbEntity
8
0
6
ByLayer
62
256
370
-1
100
AcDbLine
10
-30
20
2
11
-40
21
2
0
LINE
5
15A
100
AcDbEntity
8
0
6
ByLayer
62
256
370
-1
100
AcDbLine
10
-40
20
2
11
-40
21
0
0
LINE
5
15B
100
AcDbEntity
8
0
6
ByLayer
62
256
370
-1
100
AcDbLine
10
-40
20
0
11
-48
21
0
0
LINE
5
15C
100
AcDbEntity
8
0
6
ByLayer
62
256
370
-1
100
AcDbLine
10
-48
20
0
11
-48
21
14.6
0
LINE
5
15D
100
AcDbEntity
8
0
6
ByLayer
62
256
370
-1
100
AcDbLine
10
-48
20
14.6
11
-50
21
14.6
0
LINE
5
15E
100
AcDbEntity
8
0
6
ByLayer
62
256
370
-1
100
AcDbLine
10
-50
20
14.6
11
-50
21
30.4
0
LINE
5
15F
100
AcDbEntity
8
0
6
ByLayer
62
256
370
-1
100
AcDbLine
10
-50
20
30.4
11
-48
21
30.4
0
LINE
5
160
100
AcDbEntity
8
0
6
ByLayer
62
256
370
-1
100
AcDbLine
10
-48
20
30.4
11
-48
21
59.6
0
LINE
5
161
100
AcDbEntity
8
0
6
ByLayer
62
256
370
-1
100
AcDbLine
10
-48
20
59.6
11
-50
21
59.6
0
LINE
5
162
100
AcDbEntity
8
0
6
ByLayer
62
256
370
-1
100
AcDbLine
10
-50
20
59.6
11
-50
21
75.4
0
LINE
5
163
100
AcDbEntity
8
0
6
ByLayer
62
256
370
-1
100
AcDbLine
10
-50
20
75.4
11
-48
21
75.4
0
LINE
5
164
100
AcDbEntity
8
0
6
ByLayer
62
256
370
-1
100
AcDbLine
10
-48
20
75.4
11
-48
21
90
0
CIRCLE
5
165
100
AcDbEntity
8
0
6
ByLayer
62
256
370
-1
100
AcDbCircle
10
-8
20
61.5
40
1.5
0
CIRCLE
5
166
100
AcDbEntity
8
0
6
ByLayer
62
256
370
-1
100
AcDbCircle
10
-8
20
28.5
40
1.5
0
ARC
5
167
100
AcDbEntity
8
0
6
ByLayer
62
256
370
-1
100
AcDbCircle
10
-38.000324899
20
81
40
2
100
AcDbArc
50
90
51
200.224859431
0
ARC
5
168
100
AcDbEntity
8
0
6
ByLayer
62
256
370
-1
100
AcDbCircle
10
-41
20
66.0008818678
40
2
100
AcDbArc
50
20.2248594312
51
180
0
LINE
5
169
100
AcDbEntity
8
0
6
ByLayer
62
256
370
-1
100
AcDbLine
10
-38.000324899
20
83
11
-19.999675101
21
83
0
ARC
5
16A
100
AcDbEntity
8
0
6
ByLayer
62
256
370
-1
100
AcDbCircle
10
-19.999675101
20
81
40
2
100
AcDbArc
50
339.775140569
51
90
0
ARC
5
16B
100
AcDbEntity
8
0
6
ByLayer
62
256
370
-1
100
AcDbCircle
10
-17
20
66.0008818678
40
2
100
AcDbArc
50
360
51
159.775140569
0
LINE
5
16C
100
AcDbEntity
8
0
6
ByLayer
62
256
370
-1
100
AcDbLine
10
-15
20
66.0008818678
11
-15
21
23.9991181322
0
ARC
5
16D
100
AcDbEntity
8
0
6
ByLayer
62
256
370
-1
100
AcDbCircle
10
-17
20
23.9991181322
40
2
100
AcDbArc
50
200.224859431
51
0
0
ARC
5
16E
100
AcDbEntity
8
0
6
ByLayer
62
256
370
-1
100
AcDbCircle
10
-19.999675101
20
9
40
2
100
AcDbArc
50
270
51
20.2248594312
0
LINE
5
16F
100
AcDbEntity
8
0
6
ByLayer
62
256
370
-1
100
AcDbLine
10
-38.000324899
20
7
11
-19.999675101
21
7
0
ARC
5
170
100
AcDbEntity
8
0
6
ByLayer
62
256
370
-1
100
AcDbCircle
10
-38.000324899
20
9
40
2
100
AcDbArc
50
159.775140569
51
270
0
LINE
5
171
100
AcDbEntity
8
0
6
ByLayer
62
256
370
-1
100
AcDbLine
10
-43
20
66.0008818678
11
-43
21
23.9991181322
0
ARC
5
172
100
AcDbEntity
8
0
6
ByLayer
62
256
370
-1
100
AcDbCircle
10
-41
20
23.9991181322
40
2
100
AcDbArc
50
180
51
339.775140569
0
ARC
5
173
100
AcDbEntity
8
0
6
ByLayer
62
256
370
-1
100
AcDbCircle
10
-33.262832996
20
45
40
2
100
AcDbArc
50
339.775140569
51
20.2248594312
0
ARC
5
174
100
AcDbEntity
8
0
6
ByLayer
62
256
370
-1
100
AcDbCircle
10
-29
20
56.5705467036
40
2
100
AcDbArc
50
200.224859431
51
339.775140569
0
ARC
5
175
100
AcDbEntity
8
0
6
ByLayer
62
256
370
-1
100
AcDbCircle
10
-24.737167004
20
45
40
2
100
AcDbArc
50
159.775140569
51
200.224859431
0
LINE
5
176
100
AcDbEntity
8
0
6
ByLayer
62
256
370
-1
100
AcDbLine
10
-27.123313766
20
34.120864014
11
-18.122988868
21
9.6914107177
0
LINE
5
177
100
AcDbEntity
8
0
6
ByLayer
62
256
370
-1
100
AcDbLine
10
-30.876686234
20
34.120864014
11
-39.877011132
21
9.6914107177
0
ARC
5
178
100
AcDbEntity
8
0
6
ByLayer
62
256
370
-1
100
AcDbCircle
10
-29
20
33.4294532964
40
2
100
AcDbArc
50
20.2248594312
51
159.775140569
0
LINE
5
179
100
AcDbEntity
8
0
6
ByLayer
62
256
370
-1
100
AcDbLine
10
-39.123313766
20
66.6922925855
11
-31.386146762
21
45.6914107177
0
LINE
5
17A
100
AcDbEntity
8
0
6
ByLayer
62
256
370
-1
100
AcDbLine
10
-31.386146762
20
44.3085892823
11
-39.123313766
21
23.3077074145
0
LINE
5
17B
100
AcDbEntity
8
0
6
ByLayer
62
256
370
-1
100
AcDbLine
10
-26.613853238
20
44.3085892823
11
-18.876686234
21
23.3077074145
0
LINE
5
17C
100
AcDbEntity
8
0
6
ByLayer
62
256
370
-1
100
AcDbLine
10
-26.613853238
20
45.6914107177
11
-18.876686234
21
66.6922925855
0
LINE
5
17D
100
AcDbEntity
8
0
6
ByLayer
62
256
370
-1
100
AcDbLine
10
-27.123313766
20
55.879135986
11
-18.122988868
21
80.3085892823
0
LINE
5
17E
100
AcDbEntity
8
0
6
ByLayer
62
256
370
-1
100
AcDbLine
10
-39.877011132
20
80.3085892823
11
-30.876686234
21
55.879135986
0
CIRCLE
5
17F
100
AcDbEntity
8
0
6
ByLayer
62
256
370
-1
100
AcDbCircle
10
-14
20
85
40
0.05
0
CIRCLE
5
180
100
AcDbEntity
8
0
6
ByLayer
62
256
370
-1
100
AcDbCircle
10
-14
20
80
40
0.05
0
CIRCLE
5
181
100
AcDbEntity
8
0
6
ByLayer
62
256
370
-1
100
AcDbCircle
10
-14
20
75
40
0.05
0
CIRCLE
5
182
100
AcDbEntity
8
0
6
ByLayer
62
256
370
-1
100
AcDbCircle
10
-14
20
70
40
0.05
0
CIRCLE
5
183
100
AcDbEntity
8
0
6
ByLayer
62
256
370
-1
100
AcDbCircle
10
-14
20
65
40
0.05
0
CIRCLE
5
184
100
AcDbEntity
8
0
6
ByLayer
62
256
370
-1
100
AcDbCircle
10
-14
20
60
40
0.05
0
CIRCLE
5
185
100
AcDbEntity
8
0
6
ByLayer
62
256
370
-1
100
AcDbCircle
10
-14
20
55
40
0.05
0
CIRCLE
5
186
100
AcDbEntity
8
0
6
ByLayer
62
256
370
-1
100
AcDbCircle
10
-14
20
50
40
0.05
0
CIRCLE
5
187
100
AcDbEntity
8
0
6
ByLayer
62
256
370
-1
100
AcDbCircle
10
-14
20
45
40
0.05
0
CIRCLE
5
188
100
AcDbEntity
8
0
6
ByLayer
62
256
370
-1
100
AcDbCircle
10
-14
20
40
40
0.05
0
CIRCLE
5
189
100
AcDbEntity
8
0
6
ByLayer
62
256
370
-1
100
AcDbCircle
10
-14
20
35
40
0.05
0
CIRCLE
5
18A
100
AcDbEntity
8
0
6
ByLayer
62
256
370
-1
100
AcDbCircle
10
-14
20
30
40
0.05
0
CIRCLE
5
18B
100
AcDbEntity
8
0
6
ByLayer
62
256
370
-1
100
AcDbCircle
10
-14
20
25
40
0.05
0
CIRCLE
5
18C
100
AcDbEntity
8
0
6
ByLayer
62
256
370
-1
100
AcDbCircle
10
-14
20
20
40
0.05
0
CIRCLE
5
18D
100
AcDbEntity
8
0
6
ByLayer
62
256
370
-1
100
AcDbCircle
10
-14
20
15
40
0.05
0
CIRCLE
5
18E
100
AcDbEntity
8
0
6
ByLayer
62
256
370
-1
100
AcDbCircle
10
-14
20
10
40
0.05
0
CIRCLE
5
18F
100
AcDbEntity
8
0
6
ByLayer
62
256
370
-1
100
AcDbCircle
10
-14
20
5
40
0.05
0
ENDBLK
5
5D
330
5B
100
AcDbEntity
8
0
100
AcDbBlockEnd
0
BLOCK
5
5F
330
5E
100
AcDbEntity
8
0
100
AcDbBlockBegin
2
kt-side-0
70
0
10
0
20
0
3
kt-side-0
1

0
LINE
5
190
100
AcDbEntity
8
0
6
ByLayer
62
256
370
-1
100
AcDbLine
10
-48
20
47.073731168
11
-40.4
21
47.2218793161
0
LINE
5
191
100
AcDbEntity
8
0
6
ByLayer
62
256
370
-1
100
AcDbLine
10
-40.4
20
47.2218793161
11
-40.4
21
49.2222222222
0
LINE
5
192
100
AcDbEntity
8
0
6
ByLayer
62
256
370
-1
100
AcDbLine
10
-40.4
20
49.2222222222
11
-29.6
21
49.4074074074
0
LINE
5
193
100
AcDbEntity
8
0
6
ByLayer
62
256
370
-1
100
AcDbLine
10
-29.6
20
49.4074074074
11
-29.6
21
47.4070645013
0
LINE
5
194
100
AcDbEntity
8
0
6
ByLayer
62
256
370
-1
100
AcDbLine
10
-29.6
20
47.4070645013
11
-20.4
21
47.5922496865
0
LINE
5
195
100
AcDbEntity
8
0
6
ByLayer
62
256
370
-1
100
AcDbLine
10
-20.4
20
47.5922496865
11
-20.4
21
49.5925925926
0
LINE
5
196
100
AcDbEntity
8
0
6
ByLayer
62
256
370
-1
100
AcDbLine
10
-20.4
20
49.5925925926
11
-9.6
21
49.7777777778
0
LINE
5
197
100
AcDbEntity
8
0
6
ByLayer
62
256
370
-1
100
AcDbLine
10
-9.6
20
49.7777777778
11
-9.6
21
47.784842279
0
LINE
5
198
100
AcDbEntity
8
0
6
ByLayer
62
256
370
-1
100
AcDbLine
10
-9.6
20
47.784842279
11
0
21
47.9626200568
0
LINE
5
199
100
AcDbEntity
8
0
6
ByLayer
62
256
370
-1
100
AcDbLine
10
0
20
47.9626200568
11
0
21
2
0
LINE
5
19A
100
AcDbEntity
8
0
6
ByLayer
62
256
370
-1
100
AcDbLine
10
0
20
2
11
-9.6
21
2
0
LINE
5
19B
100
AcDbEntity
8
0
6
ByLayer
62
256
370
-1
100
AcDbLine
10
-9.6
20
2
11
-9.6
21
0
0
LINE
5
19C
100
AcDbEntity
8
0
6
ByLayer
62
256
370
-1
100
AcDbLine
10
-9.6
20
0
11
-20.4
21
0
0
LINE
5
19D
100
AcDbEntity
8
0
6
ByLayer
62
256
370
-1
100
AcDbLine
10
-20.4
20
0
11
-20.4
21
2
0
LINE
5
19E
100
AcDbEntity
8
0
6
ByLayer
62
256
370
-1
100
AcDbLine
10
-20.4
20
2
11
-29.6
21
2
0
LINE
5
19F
100
AcDbEntity
8
0
6
ByLayer
62
256
370
-1
100
AcDbLine
10
-29.6
20
2
11
-29.6
21
0
0
LINE
5
1A0
100
AcDbEntity
8
0
6
ByLayer
62
256
370
-1
100
AcDbLine
10
-29.6
20
0
11
-40.4
21
0
0
LINE
5
1A1
100
AcDbEntity
8
0
6
ByLayer
62
256
370
-1
100
AcDbLine
10
-40.4
20
0
11
-40.4
21
2
0
LINE
5
1A2
100
AcDbEntity
8
0
6
ByLayer
62
256
370
-1
100
AcDbLine
10
-40.4
20
2
11
-48
21
2
0
LINE
5
1A3
100
AcDbEntity
8
0
6
ByLayer
62
256
370
-1
100
AcDbLine
10
-48
20
2
11
-48
21
14.6
0
LINE
5
1A4
100
AcDbEntity
8
0
6
ByLayer
62
256
370
-1
100
AcDbLine
10
-48
20
14.6
11
-50
21
14.6
0
LINE
5
1A5
100
AcDbEntity
8
0
6
ByLayer
62
256
370
-1
100
AcDbLine
10
-50
20
14.6
11
-50
21
30.4
0
LINE
5
1A6
100
AcDbEntity
8
0
6
ByLayer
62
256
370
-1
100
AcDbLine
10
-50
20
30.4
11
-48
21
30.4
0
LINE
5
1A7
100
AcDbEntity
8
0
6
ByLayer
62
256
370
-1
100
AcDbLine
10
-48
20
30.4
11
-48
21
47.073731168
0
CIRCLE
5
1A8
100
AcDbEntity
8
0
6
ByLayer
62
256
370
-1
100
AcDbCircle
10
-8
20
32.5
40
1.5
0
CIRCLE
5
1A9
100
AcDbEntity
8
0
6
ByLayer
62
256
370
-1
100
AcDbCircle
10
-8
20
12.5
40
1.5
0
ARC
5
1AA
100
AcDbEntity
8
0
6
ByLayer
62
256
370
-1
100
AcDbCircle
10
-36.39159049
20
40.287501543
40
2
100
AcDbArc
50
91.0609116902
51
218.528055442
0
LINE
5
1AB
100
AcDbEntity
8
0
6
ByLayer
62
256
370
-1
100
AcDbLine
10
-21.789153276
20
42.5582599531
11
-36.428621178
21
42.2871586956
0
ARC
5
1AC
100
AcDbEntity
8
0
6
ByLayer
62
256
370
-1
100
AcDbCircle
10
-21.752122588
20
40.5586028004
40
2
100
AcDbArc
50
321.879938394
51
91.0609116902
0
ARC
5
1AD
100
AcDbEntity
8
0
6
ByLayer
62
256
370
-1
100
AcDbCircle
10
-17
20
33.6554168249
40
2
100
AcDbArc
50
0
51
141.879938394
0
LINE
5
1AE
100
AcDbEntity
8
0
6
ByLayer
62
256
370
-1
100
AcDbLine
10
-15
20
33.6554168249
11
-15
21
15.933418483
0
ARC
5
1AF
100
AcDbEntity
8
0
6
ByLayer
62
256
370
-1
100
AcDbCircle
10
-17
20
15.933418483
40
2
100
AcDbArc
50
218.528055442
51
5.08888749034e-14
0
ARC
5
1B0
100
AcDbEntity
8
0
6
ByLayer
62
256
370
-1
100
AcDbCircle
10
-21.705578172
20
9
40
2
100
AcDbArc
50
270
51
38.5280554419
0
LINE
5
1B1
100
AcDbEntity
8
0
6
ByLayer
62
256
370
-1
100
AcDbLine
10
-36.346260538
20
7
11
-21.705578172
21
7
0
ARC
5
1B2
100
AcDbEntity
8
0
6
ByLayer
62
256
370
-1
100
AcDbCircle
10
-36.346260538
20
9
40
2
100
AcDbArc
50
141.879938394
51
270
0
ARC
5
1B3
100
AcDbEntity
8
0
6
ByLayer
62
256
370
-1
100
AcDbCircle
10
-41
20
16.0285681888
40
2
100
AcDbArc
50
180
51
321.879938394
0
LINE
5
1B4
100
AcDbEntity
8
0
6
ByLayer
62
256
370
-1
100
AcDbLine
10
-43
20
33.2320480122
11
-43
21
16.0285681888
0
ARC
5
1B5
100
AcDbEntity
8
0
6
ByLayer
62
256
370
-1
100
AcDbCircle
10
-41
20
33.2320480122
40
2
100
AcDbArc
50
38.5280554419
51
180
0
ARC
5
1B6
100
AcDbEntity
8
0
6
ByLayer
62
256
370
-1
100
AcDbCircle
10
-34.201112714
20
24.6932607606
40
2
100
AcDbArc
50
321.879938394
51
38.5280554419
0
ARC
5
1B7
100
AcDbEntity
8
0
6
ByLayer
62
256
370
-1
100
AcDbCircle
10
-29.079493975
20
18.2609710399
40
2
100
AcDbArc
50
38.5280554419
51
141.879938394
0
ARC
5
1B8
100
AcDbEntity
8
0
6
ByLayer
62
256
370
-1
100
AcDbCircle
10
-24.003807976
20
24.7295675801
40
2
100
AcDbArc
50
141.879938394
51
218.528055442
0
ARC
5
1B9
100
AcDbEntity
8
0
6
ByLayer
62
256
370
-1
100
AcDbCircle
10
-29.125426715
20
31.1618573008
40
2
100
AcDbArc
50
218.528055442
51
321.879938394
0
LINE
5
1BA
100
AcDbEntity
8
0
6
ByLayer
62
256
370
-1
100
AcDbLine
10
-37.956196976
20
39.0417059954
11
-30.690033201
21
29.9160617532
0
LINE
5
1BB
100
AcDbEntity
8
0
6
ByLayer
62
256
370
-1
100
AcDbLine
10
-20.17868474
20
39.3239800492
11
-27.551988867
21
29.9272345496
0
LINE
5
1BC
100
AcDbEntity
8
0
6
ByLayer
62
256
370
-1
100
AcDbLine
10
-18.573437848
20
34.8900395761
11
-25.577245824
21
25.9641903313
0
LINE
5
1BD
100
AcDbEntity
8
0
6
ByLayer
62
256
370
-1
100
AcDbLine
10
-25.568414461
20
23.4837720326
11
-18.564606485
21
14.6876229355
0
LINE
5
1BE
100
AcDbEntity
8
0
6
ByLayer
62
256
370
-1
100
AcDbLine
10
-20.140971687
20
10.2457955475
11
-27.51488749
21
19.5067665874
0
LINE
5
1BF
100
AcDbEntity
8
0
6
ByLayer
62
256
370
-1
100
AcDbLine
10
-30.652931823
20
19.4955937911
11
-37.919698386
21
10.2346227512
0
LINE
5
1C0
100
AcDbEntity
8
0
6
ByLayer
62
256
370
-1
100
AcDbLine
10
-39.426562152
20
14.7939454376
11
-32.627674866
21
23.4586380094
0
LINE
5
1C1
100
AcDbEntity
8
0
6
ByLayer
62
256
370
-1
100
AcDbLine
10
-32.636506229
20
25.9390563081
11
-39.435393515
21
34.4778435598
0
CIRCLE
5
1C2
100
AcDbEntity
8
0
6
ByLayer
62
256
370
-1
100
AcDbCircle
10
-14
20
45
40
0.05
0
CIRCLE
5
1C3
100
AcDbEntity
8
0
6
ByLayer
62
256
370
-1
100
AcDbCircle
10
-14
20
40
40
0.05
0
CIRCLE
5
1C4
100
AcDbEntity
8
0
6
ByLayer
62
256
370
-1
100
AcDbCircle
10
-14
20
35
40
0.05
0
CIRCLE
5
1C5
100
AcDbEntity
8
0
6
ByLayer
62
256
370
-1
100
AcDbCircle
10
-14
20
30
40
0.05
0
CIRCLE
5
1C6
100
AcDbEntity
8
0
6
ByLayer
62
256
370
-1
100
AcDbCircle
10
-14
20
25
40
0.05
0
CIRCLE
5
1C7
100
AcDbEntity
8
0
6
ByLayer
62
256
370
-1
100
AcDbCircle
10
-14
20
20
40
0.05
0
CIRCLE
5
1C8
100
AcDbEntity
8
0
6
ByLayer
62
256
370
-1
100
AcDbCircle
10
-14
20
15
40
0.05
0
CIRCLE
5
1C9
100
AcDbEntity
8
0
6
ByLayer
62
256
370
-1
100
AcDbCircle
10
-14
20
10
40
0.05
0
CIRCLE
5
1CA
100
AcDbEntity
8
0
6
ByLayer
62
256
370
-1
100
AcDbCircle
10
-14
20
5
40
0.05
0
CIRCLE
5
1CB
100
AcDbEntity
8
0
6
ByLayer
62
256
370
-1
100
AcDbCircle
10
-14
20
47.7033607976
40
0.05
0
CIRCLE
5
1CC
100
AcDbEntity
8
0
6
ByLayer
62
256
370
-1
100
AcDbCircle
10
-14
20
2
40
0.05
0
ENDBLK
5
60
330
5E
100
AcDbEntity
8
0
100
AcDbBlockEnd
0
BLOCK
5
62
330
61
100
AcDbEntity
8
0
100
AcDbBlockBegin
2
pad-25-0
70
0
10
0
20
0
3
pad-25-0
1

0
CIRCLE
5
1CD
100
AcDbEntity
8
0
6
ByLayer
62
256
370
-1
100
AcDbCircle
10
4
20
3.5
40
1.5
0
CIRCLE
5
1CE
100
AcDbEntity
8
0
6
ByLayer
62
256
370
-1
100
AcDbCircle
10
29
20
3.5
40
1.5
0
ARC
5
1CF
100
AcDbEntity
8
0
6
ByLayer
62
256
370
-1
100
AcDbCircle
10
4
20
3.5
40
3.5
100
AcDbArc
50
90
51
270
0
ARC
5
1D0
100
AcDbEntity
8
0
6
ByLayer
62
256
370
-1
100
AcDbCircle
10
29
20
3.5
40
3.5
100
AcDbArc
50
270
51
90
0
LINE
5
1D1
100
AcDbEntity
8
0
6
ByLayer
62
256
370
-1
100
AcDbLine
10
4
20
7
11
29
21
7
0
LINE
5
1D2
100
AcDbEntity
8
0
6
ByLayer
62
256
370
-1
100
AcDbLine
10
29
20
0
11
4
21
0
0
ENDBLK
5
63
330
61
100
AcDbEntity
8
0
100
AcDbBlockEnd
0
BLOCK
5
65
330
64
100
AcDbEntity
8
0
100
AcDbBlockBegin
2
out-conn
70
0
10
0
20
0
3
out-conn
1

0
LINE
5
1D3
100
AcDbEntity
8
out-connector
6
ByLayer
62
256
370
-1
100
AcDbLine
10
67.13600261
20
58.9712285281
11
16
21
49.9999999999
0
ARC
5
1D4
100
AcDbEntity
8
out-connector
6
ByLayer
62
256
370
-1
100
AcDbCircle
10
68
20
54.0464434048
40
5
100
AcDbArc
50
0
51
99.950626688
0
ARC
5
1D5
100
AcDbEntity
8
out-connector
6
ByLayer
62
256
370
-1
100
AcDbCircle
10
5
20
5
40
5
100
AcDbArc
50
180
51
270
0
LINE
5
1D6
100
AcDbEntity
8
out-connector
6
ByLayer
62
256
370
-1
100
AcDbLine
10
4.90742328
20
49.7945819126
11
16
21
49.9999999999
0
LINE
5
1D7
100
AcDbEntity
8
out-connector
6
ByLayer
62
256
370
-1
100
AcDbLine
10
0
20
44.7954390309
11
0
21
5
0
ARC
5
1D8
100
AcDbEntity
8
out-connector
6
ByLayer
62
256
370
-1
100
AcDbCircle
10
5
20
44.7954390309
40
5
100
AcDbArc
50
91.0609116899
51
180
0
CIRCLE
5
1D9
100
AcDbEntity
8
out-connector
6
ByLayer
62
256
370
-1
100
AcDbCircle
10
6
20
32.5
40
1.5
0
CIRCLE
5
1DA
100
AcDbEntity
8
out-connector
6
ByLayer
62
256
370
-1
100
AcDbCircle
10
6
20
12.5
40
1.5
0
CIRCLE
5
1DB
100
AcDbEntity
8
out-connector
6
ByLayer
62
256
370
-1
100
AcDbCircle
10
63
20
50
40
1.5
0
CIRCLE
5
1DC
100
AcDbEntity
8
out-connector
6
ByLayer
62
256
370
-1
100
AcDbCircle
10
63
20
25
40
1.5
0
LINE
5
1DD
100
AcDbEntity
8
out-connector
6
ByLayer
62
256
370
-1
100
AcDbLine
10
31.107487556
20
14.8192869726
11
32.443441434
21
14.9845001158
0
LINE
5
1DE
100
AcDbEntity
8
out-connector
6
ByLayer
62
256
370
-1
100
AcDbLine
10
68.613653926
20
19.4575546101
11
32.443441434
21
14.9845001158
0
LINE
5
1DF
100
AcDbEntity
8
out-connector
6
ByLayer
62
256
370
-1
100
AcDbLine
10
73
20
24.4197590596
11
73
21
54.0464434048
0
ARC
5
1E0
100
AcDbEntity
8
out-connector
6
ByLayer
62
256
370
-1
100
AcDbCircle
10
68
20
24.419754612
40
5
100
AcDbArc
50
277.049854881
51
359.999949034
0
ARC
5
1E1
100
AcDbEntity
8
out-connector
6
ByLayer
62
256
370
-1
100
AcDbCircle
10
33
20
5
40
10
100
AcDbArc
50
100.909090909
51
180
0
ARC
5
1E2
100
AcDbEntity
8
out-connector
6
ByLayer
62
256
370
-1
100
AcDbCircle
10
18
20
5
40
5
100
AcDbArc
50
270
51
0
0
LINE
5
1E3
100
AcDbEntity
8
out-connector
6
ByLayer
62
256
370
-1
100
AcDbLine
10
5
20
0
11
18
21
0
0
ARC
5
1E4
100
AcDbEntity
8
out-connector
6
ByLayer
62
256
370
-1
100
AcDbCircle
10
30
20
37.2270495127
40
5
100
AcDbArc
50
99.950626688
51
180
0
LINE
5
1E5
100
AcDbEntity
8
out-connector
6
ByLayer
62
256
370
-1
100
AcDbLine
10
42.13600261
20
44.4325363903
11
29.13600261
21
42.1518346359
0
ARC
5
1E6
100
AcDbEntity
8
out-connector
6
ByLayer
62
256
370
-1
100
AcDbCircle
10
43
20
39.5077512671
40
5
100
AcDbArc
50
0
51
99.950626688
0
LINE
5
1E7
100
AcDbEntity
8
out-connector
6
ByLayer
62
256
370
-1
100
AcDbLine
10
48
20
31.4042618111
11
48
21
39.5077512671
0
ARC
5
1E8
100
AcDbEntity
8
out-connector
6
ByLayer
62
256
370
-1
100
AcDbCircle
10
43
20
31.4042618111
40
5
100
AcDbArc
50
277.04979259
51
0
0
LINE
5
1E9
100
AcDbEntity
8
out-connector
6
ByLayer
62
256
370
-1
100
AcDbLine
10
43.613659321
20
26.4420624763
11
30.613659321
21
24.8343940547
0
LINE
5
1EA
100
AcDbEntity
8
out-connector
6
ByLayer
62
256
370
-1
100
AcDbLine
10
25
20
37.2270495127
11
25
21
29.7965933895
0
ARC
5
1EB
100
AcDbEntity
8
out-connector
6
ByLayer
62
256
370
-1
100
AcDbCircle
10
30
20
29.7965933895
40
5
100
AcDbArc
50
180
51
277.04979259
0
ENDBLK
5
66
330
64
100
AcDbEntity
8
0
100
AcDbBlockEnd
0
BLOCK
5
68
330
67
100
AcDbEntity
8
0
100
AcDbBlockBegin
2
out-conn-0
70
0
10
0
20
0
3
out-conn-0
1

0
LINE
5
1EC
100
AcDbEntity
8
out-connector
6
ByLayer
62
256
370
-1
100
AcDbLine
10
67.13600261
20
58.9712285281
11
16
21
49.9999999999
0
ARC
5
1ED
100
AcDbEntity
8
out-connector
6
ByLayer
62
256
370
-1
100
AcDbCircle
10
68
20
54.0464434048
40
5
100
AcDbArc
50
0
51
99.950626688
0
ARC
5
1EE
100
AcDbEntity
8
out-connector
6
ByLayer
62
256
370
-1
100
AcDbCircle
10
5
20
5
40
5
100
AcDbArc
50
180
51
270
0
LINE
5
1EF
100
AcDbEntity
8
out-connector
6
ByLayer
62
256
370
-1
100
AcDbLine
10
4.90742328
20
49.7945819126
11
16
21
49.9999999999
0
LINE
5
1F0
100
AcDbEntity
8
out-connector
6
ByLayer
62
256
370
-1
100
AcDbLine
10
0
20
44.7954390309
11
0
21
5
0
ARC
5
1F1
100
AcDbEntity
8
out-connector
6
ByLayer
62
256
370
-1
100
AcDbCircle
10
5
20
44.7954390309
40
5
100
AcDbArc
50
91.0609116899
51
180
0
CIRCLE
5
1F2
100
AcDbEntity
8
out-connector
6
ByLayer
62
256
370
-1
100
AcDbCircle
10
6
20
32.5
40
1.5
0
CIRCLE
5
1F3
100
AcDbEntity
8
out-connector
6
ByLayer
62
256
370
-1
100
AcDbCircle
10
6
20
12.5
40
1.5
0
CIRCLE
5
1F4
100
AcDbEntity
8
out-connector
6
ByLayer
62
256
370
-1
100
AcDbCircle
10
63
20
50
40
1.5
0
CIRCLE
5
1F5
100
AcDbEntity
8
out-connector
6
ByLayer
62
256
370
-1
100
AcDbCircle
10
63
20
25
40
1.5
0
LINE
5
1F6
100
AcDbEntity
8
out-connector
6
ByLayer
62
256
370
-1
100
AcDbLine
10
31.107487556
20
14.8192869726
11
32.443441434
21
14.9845001158
0
LINE
5
1F7
100
AcDbEntity
8
out-connector
6
ByLayer
62
256
370
-1
100
AcDbLine
10
68.613653926
20
19.4575546101
11
32.443441434
21
14.9845001158
0
LINE
5
1F8
100
AcDbEntity
8
out-connector
6
ByLayer
62
256
370
-1
100
AcDbLine
10
73
20
24.4197590596
11
73
21
54.0464434048
0
ARC
5
1F9
100
AcDbEntity
8
out-connector
6
ByLayer
62
256
370
-1
100
AcDbCircle
10
68
20
24.419754612
40
5
100
AcDbArc
50
277.049854881
51
359.999949034
0
ARC
5
1FA
100
AcDbEntity
8
out-connector
6
ByLayer
62
256
370
-1
100
AcDbCircle
10
33
20
5
40
10
100
AcDbArc
50
100.909090909
51
180
0
ARC
5
1FB
100
AcDbEntity
8
out-connector
6
ByLayer
62
256
370
-1
100
AcDbCircle
10
18
20
5
40
5
100
AcDbArc
50
270
51
0
0
LINE
5
1FC
100
AcDbEntity
8
out-connector
6
ByLayer
62
256
370
-1
100
AcDbLine
10
5
20
0
11
18
21
0
0
ARC
5
1FD
100
AcDbEntity
8
out-connector
6
ByLayer
62
256
370
-1
100
AcDbCircle
10
30
20
37.2270495127
40
5
100
AcDbArc
50
99.950626688
51
180
0
LINE
5
1FE
100
AcDbEntity
8
out-connector
6
ByLayer
62
256
370
-1
100
AcDbLine
10
42.13600261
20
44.4325363903
11
29.13600261
21
42.1518346359
0
ARC
5
1FF
100
AcDbEntity
8
out-connector
6
ByLayer
62
256
370
-1
100
AcDbCircle
10
43
20
39.5077512671
40
5
100
AcDbArc
50
0
51
99.950626688
0
LINE
5
200
100
AcDbEntity
8
out-connector
6
ByLayer
62
256
370
-1
100
AcDbLine
10
48
20
31.4042618111
11
48
21
39.5077512671
0
ARC
5
201
100
AcDbEntity
8
out-connector
6
ByLayer
62
256
370
-1
100
AcDbCircle
10
43
20
31.4042618111
40
5
100
AcDbArc
50
277.04979259
51
0
0
LINE
5
202
100
AcDbEntity
8
out-connector
6
ByLayer
62
256
370
-1
100
AcDbLine
10
43.613659321
20
26.4420624763
11
30.613659321
21
24.8343940547
0
LINE
5
203
100
AcDbEntity
8
out-connector
6
ByLayer
62
256
370
-1
100
AcDbLine
10
25
20
37.2270495127
11
25
21
29.7965933895
0
ARC
5
204
100
AcDbEntity
8
out-connector
6
ByLayer
62
256
370
-1
100
AcDbCircle
10
30
20
29.7965933895
40
5
100
AcDbArc
50
180
51
277.04979259
0
ENDBLK
5
69
330
67
100
AcDbEntity
8
0
100
AcDbBlockEnd
0
BLOCK
5
6B
330
6A
100
AcDbEntity
8
0
100
AcDbBlockBegin
2
pad-25-0-0
70
0
10
0
20
0
3
pad-25-0-0
1

0
CIRCLE
5
205
100
AcDbEntity
8
0
6
ByLayer
62
256
370
-1
100
AcDbCircle
10
4
20
3.5
40
1.5
0
CIRCLE
5
206
100
AcDbEntity
8
0
6
ByLayer
62
256
370
-1
100
AcDbCircle
10
29
20
3.5
40
1.5
0
ARC
5
207
100
AcDbEntity
8
0
6
ByLayer
62
256
370
-1
100
AcDbCircle
10
4
20
3.5
40
3.5
100
AcDbArc
50
90
51
270
0
ARC
5
208
100
AcDbEntity
8
0
6
ByLayer
62
256
370
-1
100
AcDbCircle
10
29
20
3.5
40
3.5
100
AcDbArc
50
270
51
90
0
LINE
5
209
100
AcDbEntity
8
0
6
ByLayer
62
256
370
-1
100
AcDbLine
10
4
20
7
11
29
21
7
0
LINE
5
20A
100
AcDbEntity
8
0
6
ByLayer
62
256
370
-1
100
AcDbLine
10
29
20
0
11
4
21
0
0
ENDBLK
5
6C
330
6A
100
AcDbEntity
8
0
100
AcDbBlockEnd
0
BLOCK
5
6E
330
6D
100
AcDbEntity
8
0
100
AcDbBlockBegin
2
pad-25-0-0-0
70
0
10
0
20
0
3
pad-25-0-0-0
1

0
CIRCLE
5
20B
100
AcDbEntity
8
0
6
ByLayer
62
256
370
-1
100
AcDbCircle
10
4
20
3.5
40
1.5
0
CIRCLE
5
20C
100
AcDbEntity
8
0
6
ByLayer
62
256
370
-1
100
AcDbCircle
10
29
20
3.5
40
1.5
0
ARC
5
20D
100
AcDbEntity
8
0
6
ByLayer
62
256
370
-1
100
AcDbCircle
10
4
20
3.5
40
3.5
100
AcDbArc
50
90
51
270
0
ARC
5
20E
100
AcDbEntity
8
0
6
ByLayer
62
256
370
-1
100
AcDbCircle
10
29
20
3.5
40
3.5
100
AcDbArc
50
270
51
90
0
LINE
5
20F
100
AcDbEntity
8
0
6
ByLayer
62
256
370
-1
100
AcDbLine
10
4
20
7
11
29
21
7
0
LINE
5
210
100
AcDbEntity
8
0
6
ByLayer
62
256
370
-1
100
AcDbLine
10
29
20
0
11
4
21
0
0
ENDBLK
5
6F
330
6D
100
AcDbEntity
8
0
100
AcDbBlockEnd
0
BLOCK
5
71
330
70
100
AcDbEntity
8
0
100
AcDbBlockBegin
2
pad-25-0-0-0-0
70
0
10
0
20
0
3
pad-25-0-0-0-0
1

0
CIRCLE
5
211
100
AcDbEntity
8
0
6
ByLayer
62
256
370
-1
100
AcDbCircle
10
4
20
3.5
40
1.5
0
CIRCLE
5
212
100
AcDbEntity
8
0
6
ByLayer
62
256
370
-1
100
AcDbCircle
10
29
20
3.5
40
1.5
0
ARC
5
213
100
AcDbEntity
8
0
6
ByLayer
62
256
370
-1
100
AcDbCircle
10
4
20
3.5
40
3.5
100
AcDbArc
50
90
51
270
0
ARC
5
214
100
AcDbEntity
8
0
6
ByLayer
62
256
370
-1
100
AcDbCircle
10
29
20
3.5
40
3.5
100
AcDbArc
50
270
51
90
0
LINE
5
215
100
AcDbEntity
8
0
6
ByLayer
62
256
370
-1
100
AcDbLine
10
4
20
7
11
29
21
7
0
LINE
5
216
100
AcDbEntity
8
0
6
ByLayer
62
256
370
-1
100
AcDbLine
10
29
20
0
11
4
21
0
0
ENDBLK
5
72
330
70
100
AcDbEntity
8
0
100
AcDbBlockEnd
0
BLOCK
5
74
330
73
100
AcDbEntity
8
0
100
AcDbBlockBegin
2
noname0
70
0
10
0
20
0
3
noname0
1

0
ENDBLK
5
75
330
73
100
AcDbEntity
8
0
100
AcDbBlockEnd
0
BLOCK
5
77
330
76
100
AcDbEntity
8
0
100
AcDbBlockBegin
2
pad-25-0-0-0-0-0
70
0
10
0
20
0
3
pad-25-0-0-0-0-0
1

0
CIRCLE
5
217
100
AcDbEntity
8
0
6
ByLayer
62
256
370
-1
100
AcDbCircle
10
4
20
3.5
40
1.5
0
CIRCLE
5
218
100
AcDbEntity
8
0
6
ByLayer
62
256
370
-1
100
AcDbCircle
10
29
20
3.5
40
1.5
0
ARC
5
219
100
AcDbEntity
8
0
6
ByLayer
62
256
370
-1
100
AcDbCircle
10
4
20
3.5
40
3.5
100
AcDbArc
50
90
51
270
0
ARC
5
21A
100
AcDbEntity
8
0
6
ByLayer
62
256
370
-1
100
AcDbCircle
10
29
20
3.5
40
3.5
100
AcDbArc
50
270
51
90
0
LINE
5
21B
100
AcDbEntity
8
0
6
ByLayer
62
256
370
-1
100
AcDbLine
10
4
20
7
11
29
21
7
0
LINE
5
21C
100
AcDbEntity
8
0
6
ByLayer
62
256
370
-1
100
AcDbLine
10
29
20
0
11
4
21
0
0
ENDBLK
5
78
330
76
100
AcDbEntity
8
0
100
AcDbBlockEnd
0
BLOCK
5
7A
330
79
100
AcDbEntity
8
0
100
AcDbBlockBegin
2
noname1
70
0
10
0
20
0
3
noname1
1

0
ENDBLK
5
7B
330
79
100
AcDbEntity
8
0
100
AcDbBlockEnd
0
BLOCK
5
7D
330
7C
100
AcDbEntity
8
0
100
AcDbBlockBegin
2
pad-25-0-0-0-1
70
0
10
0
20
0
3
pad-25-0-0-0-1
1

0
CIRCLE
5
21D
100
AcDbEntity
8
0
6
ByLayer
62
256
370
-1
100
AcDbCircle
10
4
20
3.5
40
1.5
0
CIRCLE
5
21E
100
AcDbEntity
8
0
6
ByLayer
62
256
370
-1
100
AcDbCircle
10
29
20
3.5
40
1.5
0
ARC
5
21F
100
AcDbEntity
8
0
6
ByLayer
62
256
370
-1
100
AcDbCircle
10
4
20
3.5
40
3.5
100
AcDbArc
50
90
51
270
0
ARC
5
220
100
AcDbEntity
8
0
6
ByLayer
62
256
370
-1
100
AcDbCircle
10
29
20
3.5
40
3.5
100
AcDbArc
50
270
51
90
0
LINE
5
221
100
AcDbEntity
8
0
6
ByLayer
62
256
370
-1
100
AcDbLine
10
4
20
7
11
29
21
7
0
LINE
5
222
100
AcDbEntity
8
0
6
ByLayer
62
256
370
-1
100
AcDbLine
10
29
20
0
11
4
21
0
0
ENDBLK
5
7E
330
7C
100
AcDbEntity
8
0
100
AcDbBlockEnd
0
BLOCK
5
80
330
7F
100
AcDbEntity
8
0
100
AcDbBlockBegin
2
out-conn-0-0
70
0
10
0
20
0
3
out-conn-0-0
1

0
LINE
5
223
100
AcDbEntity
8
out-connector
6
ByLayer
62
256
370
-1
100
AcDbLine
10
67.13600261
20
58.9712285281
11
16
21
49.9999999999
0
ARC
5
224
100
AcDbEntity
8
out-connector
6
ByLayer
62
256
370
-1
100
AcDbCircle
10
68
20
54.0464434048
40
5
100
AcDbArc
50
0
51
99.950626688
0
ARC
5
225
100
AcDbEntity
8
out-connector
6
ByLayer
62
256
370
-1
100
AcDbCircle
10
5
20
5
40
5
100
AcDbArc
50
180
51
270
0
LINE
5
226
100
AcDbEntity
8
out-connector
6
ByLayer
62
256
370
-1
100
AcDbLine
10
4.90742328
20
49.7945819126
11
16
21
49.9999999999
0
LINE
5
227
100
AcDbEntity
8
out-connector
6
ByLayer
62
256
370
-1
100
AcDbLine
10
0
20
44.7954390309
11
0
21
5
0
ARC
5
228
100
AcDbEntity
8
out-connector
6
ByLayer
62
256
370
-1
100
AcDbCircle
10
5
20
44.7954390309
40
5
100
AcDbArc
50
91.0609116899
51
180
0
CIRCLE
5
229
100
AcDbEntity
8
out-connector
6
ByLayer
62
256
370
-1
100
AcDbCircle
10
6
20
32.5
40
1.5
0
CIRCLE
5
22A
100
AcDbEntity
8
out-connector
6
ByLayer
62
256
370
-1
100
AcDbCircle
10
6
20
12.5
40
1.5
0
CIRCLE
5
22B
100
AcDbEntity
8
out-connector
6
ByLayer
62
256
370
-1
100
AcDbCircle
10
63
20
50
40
1.5
0
CIRCLE
5
22C
100
AcDbEntity
8
out-connector
6
ByLayer
62
256
370
-1
100
AcDbCircle
10
63
20
25
40
1.5
0
LINE
5
22D
100
AcDbEntity
8
out-connector
6
ByLayer
62
256
370
-1
100
AcDbLine
10
31.107487556
20
14.8192869726
11
32.443441434
21
14.9845001158
0
LINE
5
22E
100
AcDbEntity
8
out-connector
6
ByLayer
62
256
370
-1
100
AcDbLine
10
68.613653926
20
19.4575546101
11
32.443441434
21
14.9845001158
0
LINE
5
22F
100
AcDbEntity
8
out-connector
6
ByLayer
62
256
370
-1
100
AcDbLine
10
73
20
24.4197590596
11
73
21
54.0464434048
0
ARC
5
230
100
AcDbEntity
8
out-connector
6
ByLayer
62
256
370
-1
100
AcDbCircle
10
68
20
24.419754612
40
5
100
AcDbArc
50
277.049854881
51
359.999949034
0
ARC
5
231
100
AcDbEntity
8
out-connector
6
ByLayer
62
256
370
-1
100
AcDbCircle
10
33
20
5
40
10
100
AcDbArc
50
100.909090909
51
180
0
ARC
5
232
100
AcDbEntity
8
out-connector
6
ByLayer
62
256
370
-1
100
AcDbCircle
10
18
20
5
40
5
100
AcDbArc
50
270
51
0
0
LINE
5
233
100
AcDbEntity
8
out-connector
6
ByLayer
62
256
370
-1
100
AcDbLine
10
5
20
0
11
18
21
0
0
ARC
5
234
100
AcDbEntity
8
out-connector
6
ByLayer
62
256
370
-1
100
AcDbCircle
10
30
20
37.2270495127
40
5
100
AcDbArc
50
99.950626688
51
180
0
LINE
5
235
100
AcDbEntity
8
out-connector
6
ByLayer
62
256
370
-1
100
AcDbLine
10
42.13600261
20
44.4325363903
11
29.13600261
21
42.1518346359
0
ARC
5
236
100
AcDbEntity
8
out-connector
6
ByLayer
62
256
370
-1
100
AcDbCircle
10
43
20
39.5077512671
40
5
100
AcDbArc
50
0
51
99.950626688
0
LINE
5
237
100
AcDbEntity
8
out-connector
6
ByLayer
62
256
370
-1
100
AcDbLine
10
48
20
31.4042618111
11
48
21
39.5077512671
0
ARC
5
238
100
AcDbEntity
8
out-connector
6
ByLayer
62
256
370
-1
100
AcDbCircle
10
43
20
31.4042618111
40
5
100
AcDbArc
50
277.04979259
51
0
0
LINE
5
239
100
AcDbEntity
8
out-connector
6
ByLayer
62
256
370
-1
100
AcDbLine
10
43.613659321
20
26.4420624763
11
30.613659321
21
24.8343940547
0
LINE
5
23A
100
AcDbEntity
8
out-connector
6
ByLayer
62
256
370
-1
100
AcDbLine
10
25
20
37.2270495127
11
25
21
29.7965933895
0
ARC
5
23B
100
AcDbEntity
8
out-connector
6
ByLayer
62
256
370
-1
100
AcDbCircle
10
30
20
29.7965933895
40
5
100
AcDbArc
50
180
51
277.04979259
0
ENDBLK
5
81
330
7F
100
AcDbEntity
8
0
100
AcDbBlockEnd
0
BLOCK
5
83
330
82
100
AcDbEntity
8
0
100
AcDbBlockBegin
2
pad-25-0-0-1
70
0
10
0
20
0
3
pad-25-0-0-1
1

0
CIRCLE
5
23C
100
AcDbEntity
8
0
6
ByLayer
62
256
370
-1
100
AcDbCircle
10
4
20
3.5
40
1.5
0
CIRCLE
5
23D
100
AcDbEntity
8
0
6
ByLayer
62
256
370
-1
100
AcDbCircle
10
29
20
3.5
40
1.5
0
ARC
5
23E
100
AcDbEntity
8
0
6
ByLayer
62
256
370
-1
100
AcDbCircle
10
4
20
3.5
40
3.5
100
AcDbArc
50
90
51
270
0
ARC
5
23F
100
AcDbEntity
8
0
6
ByLayer
62
256
370
-1
100
AcDbCircle
10
29
20
3.5
40
3.5
100
AcDbArc
50
270
51
90
0
LINE
5
240
100
AcDbEntity
8
0
6
ByLayer
62
256
370
-1
100
AcDbLine
10
4
20
7
11
29
21
7
0
LINE
5
241
100
AcDbEntity
8
0
6
ByLayer
62
256
370
-1
100
AcDbLine
10
29
20
0
11
4
21
0
0
ENDBLK
5
84
330
82
100
AcDbEntity
8
0
100
AcDbBlockEnd
0
BLOCK
5
86
330
85
100
AcDbEntity
8
0
100
AcDbBlockBegin
2
pad-25-0-0-0-1-0
70
0
10
0
20
0
3
pad-25-0-0-0-1-0
1

0
CIRCLE
5
242
100
AcDbEntity
8
0
6
ByLayer
62
256
370
-1
100
AcDbCircle
10
4
20
3.5
40
1.5
0
CIRCLE
5
243
100
AcDbEntity
8
0
6
ByLayer
62
256
370
-1
100
AcDbCircle
10
29
20
3.5
40
1.5
0
ARC
5
244
100
AcDbEntity
8
0
6
ByLayer
62
256
370
-1
100
AcDbCircle
10
4
20
3.5
40
3.5
100
AcDbArc
50
90
51
270
0
ARC
5
245
100
AcDbEntity
8
0
6
ByLayer
62
256
370
-1
100
AcDbCircle
10
29
20
3.5
40
3.5
100
AcDbArc
50
270
51
90
0
LINE
5
246
100
AcDbEntity
8
0
6
ByLayer
62
256
370
-1
100
AcDbLine
10
4
20
7
11
29
21
7
0
LINE
5
247
100
AcDbEntity
8
0
6
ByLayer
62
256
370
-1
100
AcDbLine
10
29
20
0
11
4
21
0
0
ENDBLK
5
87
330
85
100
AcDbEntity
8
0
100
AcDbBlockEnd
0
BLOCK
5
89
330
88
100
AcDbEntity
8
0
100
AcDbBlockBegin
2
pad-25-0-0-0-2
70
0
10
0
20
0
3
pad-25-0-0-0-2
1

0
CIRCLE
5
248
100
AcDbEntity
8
0
6
ByLayer
62
256
370
-1
100
AcDbCircle
10
4
20
3.5
40
1.5
0
CIRCLE
5
249
100
AcDbEntity
8
0
6
ByLayer
62
256
370
-1
100
AcDbCircle
10
29
20
3.5
40
1.5
0
ARC
5
24A
100
AcDbEntity
8
0
6
ByLayer
62
256
370
-1
100
AcDbCircle
10
4
20
3.5
40
3.5
100
AcDbArc
50
90
51
270
0
ARC
5
24B
100
AcDbEntity
8
0
6
ByLayer
62
256
370
-1
100
AcDbCircle
10
29
20
3.5
40
3.5
100
AcDbArc
50
270
51
90
0
LINE
5
24C
100
AcDbEntity
8
0
6
ByLayer
62
256
370
-1
100
AcDbLine
10
4
20
7
11
29
21
7
0
LINE
5
24D
100
AcDbEntity
8
0
6
ByLayer
62
256
370
-1
100
AcDbLine
10
29
20
0
11
4
21
0
0
ENDBLK
5
8A
330
88
100
AcDbEntity
8
0
100
AcDbBlockEnd
0
ENDSEC
0
SECTION
2
ENTITIES
0
CIRCLE
5
24E
100
AcDbEntity
8
KT_conn
6
ByLayer
62
256
370
-1
100
AcDbCircle
10
180
20
212.5
40
1.5
0
CIRCLE
5
24F
100
AcDbEntity
8
KT_conn
6
ByLayer
62
256
370
-1
100
AcDbCircle
10
180
20
192.5
40
1.5
0
CIRCLE
5
250
100
AcDbEntity
8
KT_conn
6
ByLayer
62
256
370
-1
100
AcDbCircle
10
180
20
262.5
40
1.5
0
CIRCLE
5
251
100
AcDbEntity
8
KT_conn
6
ByLayer
62
256
370
-1
100
AcDbCircle
10
200
20
262.5
40
1.5
0
LINE
5
252
100
AcDbEntity
8
KT_conn
6
ByLayer
62
256
370
-1
100
AcDbLine
10
180
20
266
11
200
21
266
0
LINE
5
253
100
AcDbEntity
8
KT_conn
6
ByLayer
62
256
370
-1
100
AcDbLine
10
180
20
259
11
200
21
259
0
ARC
5
254
100
AcDbEntity
8
KT_conn
6
ByLayer
62
256
370
-1
100
AcDbCircle
10
180
20
262.5
40
3.5
100
AcDbArc
50
90
51
270
0
ARC
5
255
100
AcDbEntity
8
KT_conn
6
ByLayer
62
256
370
-1
100
AcDbCircle
10
200
20
262.5
40
3.5
100
AcDbArc
50
270
51
90
0
LINE
5
256
100
AcDbEntity
8
KT_conn
6
ByLayer
62
256
370
-1
100
AcDbLine
10
188
20
170
11
188
21
80
0
CIRCLE
5
257
100
AcDbEntity
8
KT_conn
6
ByLayer
62
256
370
-1
100
AcDbCircle
10
180
20
141.5
40
1.5
0
CIRCLE
5
258
100
AcDbEntity
8
KT_conn
6
ByLayer
62
256
370
-1
100
AcDbCircle
10
180
20
108.5
40
1.5
0
LINE
5
259
100
AcDbEntity
8
KT_conn
6
ByLayer
62
256
370
-1
100
AcDbLine
10
148
20
182
11
148
21
180
0
LINE
5
25A
100
AcDbEntity
8
KT_conn
6
ByLayer
62
256
370
-1
100
AcDbLine
10
158
20
180
11
158
21
182
0
LINE
5
25B
100
AcDbEntity
8
KT_conn
6
ByLayer
62
256
370
-1
100
AcDbLine
10
158
20
182
11
168
21
182
0
LINE
5
25C
100
AcDbEntity
8
KT_conn
6
ByLayer
62
256
370
-1
100
AcDbLine
10
168
20
182
11
168
21
180
0
LINE
5
25D
100
AcDbEntity
8
KT_conn
6
ByLayer
62
256
370
-1
100
AcDbLine
10
178
20
180
11
178
21
182
0
LINE
5
25E
100
AcDbEntity
8
KT_conn
6
ByLayer
62
256
370
-1
100
AcDbLine
10
178
20
182
11
188
21
182
0
LINE
5
25F
100
AcDbEntity
8
KT_conn
6
ByLayer
62
256
370
-1
100
AcDbLine
10
148
20
170
11
148
21
168
0
LINE
5
260
100
AcDbEntity
8
KT_conn
6
ByLayer
62
256
370
-1
100
AcDbLine
10
148
20
168
11
158
21
168
0
LINE
5
261
100
AcDbEntity
8
KT_conn
6
ByLayer
62
256
370
-1
100
AcDbLine
10
158
20
168
11
158
21
170
0
LINE
5
262
100
AcDbEntity
8
KT_conn
6
ByLayer
62
256
370
-1
100
AcDbLine
10
168
20
170
11
168
21
168
0
LINE
5
263
100
AcDbEntity
8
KT_conn
6
ByLayer
62
256
370
-1
100
AcDbLine
10
168
20
168
11
178
21
168
0
LINE
5
264
100
AcDbEntity
8
KT_conn
6
ByLayer
62
256
370
-1
100
AcDbLine
10
178
20
168
11
178
21
170
0
LINE
5
265
100
AcDbEntity
8
KT_conn
6
ByLayer
62
256
370
-1
100
AcDbLine
10
158
20
170
11
168
21
170
0
LINE
5
266
100
AcDbEntity
8
KT_conn
6
ByLayer
62
256
370
-1
100
AcDbLine
10
178
20
170
11
188
21
170
0
LINE
5
267
100
AcDbEntity
8
KT_conn
6
ByLayer
62
256
370
-1
100
AcDbLine
10
148
20
180
11
158
21
180
0
LINE
5
268
100
AcDbEntity
8
KT_conn
6
ByLayer
62
256
370
-1
100
AcDbLine
10
168
20
180
11
178
21
180
0
LINE
5
269
100
AcDbEntity
8
KT_conn
6
ByLayer
62
256
370
-1
100
AcDbLine
10
148
20
80
11
148
21
82
0
LINE
5
26A
100
AcDbEntity
8
KT_conn
6
ByLayer
62
256
370
-1
100
AcDbLine
10
148
20
82
11
158
21
82
0
LINE
5
26B
100
AcDbEntity
8
KT_conn
6
ByLayer
62
256
370
-1
100
AcDbLine
10
158
20
82
11
158
21
80
0
LINE
5
26C
100
AcDbEntity
8
KT_conn
6
ByLayer
62
256
370
-1
100
AcDbLine
10
158
20
80
11
168
21
80
0
LINE
5
26D
100
AcDbEntity
8
KT_conn
6
ByLayer
62
256
370
-1
100
AcDbLine
10
168
20
80
11
168
21
82
0
LINE
5
26E
100
AcDbEntity
8
KT_conn
6
ByLayer
62
256
370
-1
100
AcDbLine
10
168
20
82
11
178
21
82
0
LINE
5
26F
100
AcDbEntity
8
KT_conn
6
ByLayer
62
256
370
-1
100
AcDbLine
10
178
20
82
11
178
21
80
0
LINE
5
270
100
AcDbEntity
8
KT_conn
6
ByLayer
62
256
370
-1
100
AcDbLine
10
178
20
80
11
188
21
80
0
LINE
5
271
100
AcDbEntity
8
KT_conn
6
ByLayer
62
256
370
-1
100
AcDbLine
10
148
20
227.221879316
11
148
21
229.222222222
0
LINE
5
272
100
AcDbEntity
8
KT_conn
6
ByLayer
62
256
370
-1
100
AcDbLine
10
148
20
229.222222222
11
158
21
229.407407407
0
LINE
5
273
100
AcDbEntity
8
KT_conn
6
ByLayer
62
256
370
-1
100
AcDbLine
10
158
20
229.407407407
11
158
21
227.407064501
0
LINE
5
274
100
AcDbEntity
8
KT_conn
6
ByLayer
62
256
370
-1
100
AcDbLine
10
158
20
227.407064501
11
168
21
227.592249686
0
LINE
5
275
100
AcDbEntity
8
KT_conn
6
ByLayer
62
256
370
-1
100
AcDbLine
10
168
20
227.592249686
11
168
21
229.592592593
0
LINE
5
276
100
AcDbEntity
8
KT_conn
6
ByLayer
62
256
370
-1
100
AcDbLine
10
168
20
229.592592593
11
178
21
229.777777778
0
LINE
5
277
100
AcDbEntity
8
KT_conn
6
ByLayer
62
256
370
-1
100
AcDbLine
10
178
20
229.777777778
11
178
21
227.777434872
0
LINE
5
278
100
AcDbEntity
8
KT_conn
6
ByLayer
62
256
370
-1
100
AcDbLine
10
178
20
227.777434872
11
188
21
227.962620057
0
LINE
5
279
100
AcDbEntity
8
KT_conn
6
ByLayer
62
256
370
-1
100
AcDbLine
10
188
20
227.962620057
11
188
21
182
0
ARC
5
27A
100
AcDbEntity
8
KT_conn
6
ByLayer
62
256
370
-1
100
AcDbCircle
10
64.607695155
20
181
40
5
100
AcDbArc
50
47.8965511293
51
90
0
ARC
5
27B
100
AcDbEntity
8
KT_conn
6
ByLayer
62
256
370
-1
100
AcDbCircle
10
85.392304845
20
181
40
5
100
AcDbArc
50
90
51
132.103448871
0
ARC
5
27C
100
AcDbEntity
8
KT_conn
6
ByLayer
62
256
370
-1
100
AcDbCircle
10
41
20
191
40
5
100
AcDbArc
50
180
51
270
0
LINE
5
27D
100
AcDbEntity
8
KT_conn
6
ByLayer
62
256
370
-1
100
AcDbLine
10
36
20
218.037
11
36
21
191
0
ARC
5
27E
100
AcDbEntity
8
KT_conn
6
ByLayer
62
256
370
-1
100
AcDbCircle
10
41
20
218.037
40
5
100
AcDbArc
50
90
51
180
0
LINE
5
27F
100
AcDbEntity
8
KT_conn
6
ByLayer
62
256
370
-1
100
AcDbLine
10
109
20
223.037
11
41
21
223.037
0
ARC
5
280
100
AcDbEntity
8
KT_conn
6
ByLayer
62
256
370
-1
100
AcDbCircle
10
109
20
218.037
40
5
100
AcDbArc
50
0
51
90
0
LINE
5
281
100
AcDbEntity
8
KT_conn
6
ByLayer
62
256
370
-1
100
AcDbLine
10
114
20
218.037
11
114
21
191
0
ARC
5
282
100
AcDbEntity
8
KT_conn
6
ByLayer
62
256
370
-1
100
AcDbCircle
10
109
20
191
40
5
100
AcDbArc
50
270
51
360
0
LINE
5
283
100
AcDbEntity
8
KT_conn
6
ByLayer
62
256
370
-1
100
AcDbLine
10
64.607695155
20
186
11
41
21
186
0
LINE
5
284
100
AcDbEntity
8
KT_conn
6
ByLayer
62
256
370
-1
100
AcDbLine
10
85.392304845
20
186
11
109
21
186
0
ARC
5
285
100
AcDbEntity
8
KT_conn
6
ByLayer
62
256
370
-1
100
AcDbCircle
10
75
20
192.5
40
10.5
100
AcDbArc
50
227.896551129
51
312.103357808
0
LINE
5
286
100
AcDbEntity
8
KT_conn
6
ByLayer
62
256
370
-1
100
AcDbLine
10
45
20
180
11
45
21
182
0
LINE
5
287
100
AcDbEntity
8
KT_conn
6
ByLayer
62
256
370
-1
100
AcDbLine
10
45
20
182
11
60
21
182
0
LINE
5
288
100
AcDbEntity
8
KT_conn
6
ByLayer
62
256
370
-1
100
AcDbLine
10
60
20
182
11
60
21
180
0
LINE
5
289
100
AcDbEntity
8
KT_conn
6
ByLayer
62
256
370
-1
100
AcDbLine
10
60
20
180
11
90
21
180
0
LINE
5
28A
100
AcDbEntity
8
KT_conn
6
ByLayer
62
256
370
-1
100
AcDbLine
10
90
20
180
11
90
21
182
0
LINE
5
28B
100
AcDbEntity
8
KT_conn
6
ByLayer
62
256
370
-1
100
AcDbLine
10
90
20
182
11
105
21
182
0
LINE
5
28C
100
AcDbEntity
8
KT_conn
6
ByLayer
62
256
370
-1
100
AcDbLine
10
105
20
182
11
105
21
180
0
LINE
5
28D
100
AcDbEntity
8
KT_conn
6
ByLayer
62
256
370
-1
100
AcDbLine
10
45
20
180
11
30
21
180
0
LINE
5
28E
100
AcDbEntity
8
KT_conn
6
ByLayer
62
256
370
-1
100
AcDbLine
10
105
20
180
11
120
21
180
0
LINE
5
28F
100
AcDbEntity
8
KT_conn
6
ByLayer
62
256
370
-1
100
AcDbLine
10
140
20
170
11
140
21
155
0
LINE
5
290
100
AcDbEntity
8
KT_conn
6
ByLayer
62
256
370
-1
100
AcDbLine
10
140
20
155
11
138
21
155
0
LINE
5
291
100
AcDbEntity
8
KT_conn
6
ByLayer
62
256
370
-1
100
AcDbLine
10
138
20
155
11
138
21
140
0
LINE
5
292
100
AcDbEntity
8
KT_conn
6
ByLayer
62
256
370
-1
100
AcDbLine
10
138
20
140
11
140
21
140
0
LINE
5
293
100
AcDbEntity
8
KT_conn
6
ByLayer
62
256
370
-1
100
AcDbLine
10
140
20
140
11
140
21
110
0
LINE
5
294
100
AcDbEntity
8
KT_conn
6
ByLayer
62
256
370
-1
100
AcDbLine
10
140
20
110
11
138
21
110
0
LINE
5
295
100
AcDbEntity
8
KT_conn
6
ByLayer
62
256
370
-1
100
AcDbLine
10
138
20
110
11
138
21
95
0
LINE
5
296
100
AcDbEntity
8
KT_conn
6
ByLayer
62
256
370
-1
100
AcDbLine
10
138
20
95
11
140
21
95
0
LINE
5
297
100
AcDbEntity
8
KT_conn
6
ByLayer
62
256
370
-1
100
AcDbLine
10
140
20
95
11
140
21
80
0
LINE
5
298
100
AcDbEntity
8
KT_conn
6
ByLayer
62
256
370
-1
100
AcDbLine
10
140
20
170
11
148
21
170
0
LINE
5
299
100
AcDbEntity
8
KT_conn
6
ByLayer
62
256
370
-1
100
AcDbLine
10
140
20
80
11
148
21
80
0
LINE
5
29A
100
AcDbEntity
8
KT_conn
6
ByLayer
62
256
370
-1
100
AcDbLine
10
45
20
229.037
11
45
21
227.037
0
LINE
5
29B
100
AcDbEntity
8
KT_conn
6
ByLayer
62
256
370
-1
100
AcDbLine
10
45
20
227.037
11
60
21
227.037
0
LINE
5
29C
100
AcDbEntity
8
KT_conn
6
ByLayer
62
256
370
-1
100
AcDbLine
10
60
20
227.037
11
60
21
229.037
0
LINE
5
29D
100
AcDbEntity
8
KT_conn
6
ByLayer
62
256
370
-1
100
AcDbLine
10
90
20
229.037
11
90
21
227.037
0
LINE
5
29E
100
AcDbEntity
8
KT_conn
6
ByLayer
62
256
370
-1
100
AcDbLine
10
90
20
227.037
11
105
21
227.037
0
LINE
5
29F
100
AcDbEntity
8
KT_conn
6
ByLayer
62
256
370
-1
100
AcDbLine
10
105
20
227.037
11
105
21
229.037
0
LINE
5
2A0
100
AcDbEntity
8
KT_conn
6
ByLayer
62
256
370
-1
100
AcDbLine
10
120
20
229.037
11
105
21
229.037
0
LINE
5
2A1
100
AcDbEntity
8
KT_conn
6
ByLayer
62
256
370
-1
100
AcDbLine
10
90
20
229.037
11
60
21
229.037
0
LINE
5
2A2
100
AcDbEntity
8
KT_conn
6
ByLayer
62
256
370
-1
100
AcDbLine
10
45
20
229.037
11
30
21
229.037
0
LINE
5
2A3
100
AcDbEntity
8
KT_conn
6
ByLayer
62
256
370
-1
100
AcDbLine
10
138
20
210
11
140
21
210
0
LINE
5
2A4
100
AcDbEntity
8
KT_conn
6
ByLayer
62
256
370
-1
100
AcDbLine
10
140
20
227.073731168
11
140
21
210
0
LINE
5
2A5
100
AcDbEntity
8
KT_conn
6
ByLayer
62
256
370
-1
100
AcDbLine
10
140
20
210
11
138
21
210
0
LINE
5
2A6
100
AcDbEntity
8
KT_conn
6
ByLayer
62
256
370
-1
100
AcDbLine
10
138
20
210
11
138
21
195
0
LINE
5
2A7
100
AcDbEntity
8
KT_conn
6
ByLayer
62
256
370
-1
100
AcDbLine
10
138
20
195
11
140
21
195
0
LINE
5
2A8
100
AcDbEntity
8
KT_conn
6
ByLayer
62
256
370
-1
100
AcDbLine
10
140
20
195
11
140
21
182
0
LINE
5
2A9
100
AcDbEntity
8
KT_conn
6
ByLayer
62
256
370
-1
100
AcDbLine
10
120
20
210
11
118
21
210
0
LINE
5
2AA
100
AcDbEntity
8
KT_conn
6
ByLayer
62
256
370
-1
100
AcDbLine
10
118
20
210
11
118
21
195
0
LINE
5
2AB
100
AcDbEntity
8
KT_conn
6
ByLayer
62
256
370
-1
100
AcDbLine
10
118
20
195
11
120
21
195
0
LINE
5
2AC
100
AcDbEntity
8
KT_conn
6
ByLayer
62
256
370
-1
100
AcDbLine
10
30
20
210
11
32
21
210
0
LINE
5
2AD
100
AcDbEntity
8
KT_conn
6
ByLayer
62
256
370
-1
100
AcDbLine
10
32
20
210
11
32
21
195
0
LINE
5
2AE
100
AcDbEntity
8
KT_conn
6
ByLayer
62
256
370
-1
100
AcDbLine
10
32
20
195
11
30
21
195
0
LINE
5
2AF
100
AcDbEntity
8
KT_conn
6
ByLayer
62
256
370
-1
100
AcDbLine
10
120
20
229.037
11
120
21
210
0
LINE
5
2B0
100
AcDbEntity
8
KT_conn
6
ByLayer
62
256
370
-1
100
AcDbLine
10
120
20
195
11
120
21
180
0
LINE
5
2B1
100
AcDbEntity
8
KT_conn
6
ByLayer
62
256
370
-1
100
AcDbLine
10
30
20
229.037
11
30
21
210
0
LINE
5
2B2
100
AcDbEntity
8
KT_conn
6
ByLayer
62
256
370
-1
100
AcDbLine
10
30
20
195
11
30
21
180
0
LINE
5
2B3
100
AcDbEntity
8
KT_conn
6
ByLayer
62
256
370
-1
100
AcDbLine
10
140
20
227.073731168
11
148
21
227.221879316
0
LINE
5
2B4
100
AcDbEntity
8
KT_conn
6
ByLayer
62
256
370
-1
100
AcDbLine
10
140
20
182
11
148
21
182
0
ARC
5
2B5
100
AcDbEntity
8
KT_conn
6
ByLayer
62
256
370
-1
100
AcDbCircle
10
151.60840951
20
220.287501543
40
2
100
AcDbArc
50
91.0609116902
51
218.528055442
0
LINE
5
2B6
100
AcDbEntity
8
KT_conn
6
ByLayer
62
256
370
-1
100
AcDbLine
10
166.210846724
20
222.558259953
11
151.571378822
21
222.287158696
0
ARC
5
2B7
100
AcDbEntity
8
KT_conn
6
ByLayer
62
256
370
-1
100
AcDbCircle
10
166.247877412
20
220.5586028
40
2
100
AcDbArc
50
321.879938394
51
91.0609116902
0
ARC
5
2B8
100
AcDbEntity
8
KT_conn
6
ByLayer
62
256
370
-1
100
AcDbCircle
10
171
20
213.655416825
40
2
100
AcDbArc
50
0
51
141.879938394
0
LINE
5
2B9
100
AcDbEntity
8
KT_conn
6
ByLayer
62
256
370
-1
100
AcDbLine
10
173
20
213.655416825
11
173
21
195.933418483
0
ARC
5
2BA
100
AcDbEntity
8
KT_conn
6
ByLayer
62
256
370
-1
100
AcDbCircle
10
171
20
195.933418483
40
2
100
AcDbArc
50
218.528055442
51
5.08888749034e-14
0
ARC
5
2BB
100
AcDbEntity
8
KT_conn
6
ByLayer
62
256
370
-1
100
AcDbCircle
10
166.294421828
20
189
40
2
100
AcDbArc
50
270
51
38.5280554419
0
LINE
5
2BC
100
AcDbEntity
8
KT_conn
6
ByLayer
62
256
370
-1
100
AcDbLine
10
151.653739462
20
187
11
166.294421828
21
187
0
ARC
5
2BD
100
AcDbEntity
8
KT_conn
6
ByLayer
62
256
370
-1
100
AcDbCircle
10
151.653739462
20
189
40
2
100
AcDbArc
50
141.879938394
51
270
0
ARC
5
2BE
100
AcDbEntity
8
KT_conn
6
ByLayer
62
256
370
-1
100
AcDbCircle
10
147
20
196.028568189
40
2
100
AcDbArc
50
180
51
321.879938394
0
LINE
5
2BF
100
AcDbEntity
8
KT_conn
6
ByLayer
62
256
370
-1
100
AcDbLine
10
145
20
213.232048012
11
145
21
196.028568189
0
ARC
5
2C0
100
AcDbEntity
8
KT_conn
6
ByLayer
62
256
370
-1
100
AcDbCircle
10
147
20
213.232048012
40
2
100
AcDbArc
50
38.5280554419
51
180
0
ARC
5
2C1
100
AcDbEntity
8
KT_conn
6
ByLayer
62
256
370
-1
100
AcDbCircle
10
153.798887286
20
204.693260761
40
2
100
AcDbArc
50
321.879938394
51
38.5280554419
0
ARC
5
2C2
100
AcDbEntity
8
KT_conn
6
ByLayer
62
256
370
-1
100
AcDbCircle
10
158.920506025
20
198.26097104
40
2
100
AcDbArc
50
38.5280554419
51
141.879938394
0
ARC
5
2C3
100
AcDbEntity
8
KT_conn
6
ByLayer
62
256
370
-1
100
AcDbCircle
10
163.996192024
20
204.72956758
40
2
100
AcDbArc
50
141.879938394
51
218.528055442
0
ARC
5
2C4
100
AcDbEntity
8
KT_conn
6
ByLayer
62
256
370
-1
100
AcDbCircle
10
158.874573285
20
211.161857301
40
2
100
AcDbArc
50
218.528055442
51
321.879938394
0
LINE
5
2C5
100
AcDbEntity
8
KT_conn
6
ByLayer
62
256
370
-1
100
AcDbLine
10
150.043803024
20
219.041705995
11
157.309966799
21
209.916061753
0
LINE
5
2C6
100
AcDbEntity
8
KT_conn
6
ByLayer
62
256
370
-1
100
AcDbLine
10
167.82131526
20
219.323980049
11
160.448011133
21
209.92723455
0
LINE
5
2C7
100
AcDbEntity
8
KT_conn
6
ByLayer
62
256
370
-1
100
AcDbLine
10
169.426562152
20
214.890039576
11
162.422754176
21
205.964190331
0
LINE
5
2C8
100
AcDbEntity
8
KT_conn
6
ByLayer
62
256
370
-1
100
AcDbLine
10
162.431585539
20
203.483772033
11
169.435393515
21
194.687622936
0
LINE
5
2C9
100
AcDbEntity
8
KT_conn
6
ByLayer
62
256
370
-1
100
AcDbLine
10
167.859028313
20
190.245795547
11
160.48511251
21
199.506766587
0
LINE
5
2CA
100
AcDbEntity
8
KT_conn
6
ByLayer
62
256
370
-1
100
AcDbLine
10
157.347068177
20
199.495593791
11
150.080301614
21
190.234622751
0
LINE
5
2CB
100
AcDbEntity
8
KT_conn
6
ByLayer
62
256
370
-1
100
AcDbLine
10
148.573437848
20
194.793945438
11
155.372325134
21
203.458638009
0
LINE
5
2CC
100
AcDbEntity
8
KT_conn
6
ByLayer
62
256
370
-1
100
AcDbLine
10
155.363493771
20
205.939056308
11
148.564606485
21
214.47784356
0
ARC
5
2CD
100
AcDbEntity
8
KT_conn
6
ByLayer
62
256
370
-1
100
AcDbCircle
10
149.999675101
20
161
40
2
100
AcDbArc
50
90
51
200.224859431
0
ARC
5
2CE
100
AcDbEntity
8
KT_conn
6
ByLayer
62
256
370
-1
100
AcDbCircle
10
147
20
146.000881868
40
2
100
AcDbArc
50
20.2248594312
51
180
0
LINE
5
2CF
100
AcDbEntity
8
KT_conn
6
ByLayer
62
256
370
-1
100
AcDbLine
10
149.999675101
20
163
11
168.000324899
21
163
0
ARC
5
2D0
100
AcDbEntity
8
KT_conn
6
ByLayer
62
256
370
-1
100
AcDbCircle
10
168.000324899
20
161
40
2
100
AcDbArc
50
339.775140569
51
90
0
ARC
5
2D1
100
AcDbEntity
8
KT_conn
6
ByLayer
62
256
370
-1
100
AcDbCircle
10
171
20
146.000881868
40
2
100
AcDbArc
50
360
51
159.775140569
0
LINE
5
2D2
100
AcDbEntity
8
KT_conn
6
ByLayer
62
256
370
-1
100
AcDbLine
10
173
20
146.000881868
11
173
21
103.999118132
0
ARC
5
2D3
100
AcDbEntity
8
KT_conn
6
ByLayer
62
256
370
-1
100
AcDbCircle
10
171
20
103.999118132
40
2
100
AcDbArc
50
200.224859431
51
0
0
ARC
5
2D4
100
AcDbEntity
8
KT_conn
6
ByLayer
62
256
370
-1
100
AcDbCircle
10
168.000324899
20
89
40
2
100
AcDbArc
50
270
51
20.2248594312
0
LINE
5
2D5
100
AcDbEntity
8
KT_conn
6
ByLayer
62
256
370
-1
100
AcDbLine
10
149.999675101
20
87
11
168.000324899
21
87
0
ARC
5
2D6
100
AcDbEntity
8
KT_conn
6
ByLayer
62
256
370
-1
100
AcDbCircle
10
149.999675101
20
89
40
2
100
AcDbArc
50
159.775140569
51
270
0
LINE
5
2D7
100
AcDbEntity
8
KT_conn
6
ByLayer
62
256
370
-1
100
AcDbLine
10
145
20
146.000881868
11
145
21
103.999118132
0
ARC
5
2D8
100
AcDbEntity
8
KT_conn
6
ByLayer
62
256
370
-1
100
AcDbCircle
10
147
20
103.999118132
40
2
100
AcDbArc
50
180
51
339.775140569
0
ARC
5
2D9
100
AcDbEntity
8
KT_conn
6
ByLayer
62
256
370
-1
100
AcDbCircle
10
154.737167004
20
125
40
2
100
AcDbArc
50
339.775140569
51
20.2248594312
0
ARC
5
2DA
100
AcDbEntity
8
KT_conn
6
ByLayer
62
256
370
-1
100
AcDbCircle
10
159
20
136.570546704
40
2
100
AcDbArc
50
200.224859431
51
339.775140569
0
ARC
5
2DB
100
AcDbEntity
8
KT_conn
6
ByLayer
62
256
370
-1
100
AcDbCircle
10
163.262832996
20
125
40
2
100
AcDbArc
50
159.775140569
51
200.224859431
0
LINE
5
2DC
100
AcDbEntity
8
KT_conn
6
ByLayer
62
256
370
-1
100
AcDbLine
10
160.876686234
20
114.120864014
11
169.877011132
21
89.6914107177
0
LINE
5
2DD
100
AcDbEntity
8
KT_conn
6
ByLayer
62
256
370
-1
100
AcDbLine
10
157.123313766
20
114.120864014
11
148.122988868
21
89.6914107177
0
ARC
5
2DE
100
AcDbEntity
8
KT_conn
6
ByLayer
62
256
370
-1
100
AcDbCircle
10
159
20
113.429453296
40
2
100
AcDbArc
50
20.2248594312
51
159.775140569
0
LINE
5
2DF
100
AcDbEntity
8
KT_conn
6
ByLayer
62
256
370
-1
100
AcDbLine
10
148.876686234
20
146.692292586
11
156.613853238
21
125.691410718
0
LINE
5
2E0
100
AcDbEntity
8
KT_conn
6
ByLayer
62
256
370
-1
100
AcDbLine
10
156.613853238
20
124.308589282
11
148.876686234
21
103.307707415
0
LINE
5
2E1
100
AcDbEntity
8
KT_conn
6
ByLayer
62
256
370
-1
100
AcDbLine
10
161.386146762
20
124.308589282
11
169.123313766
21
103.307707415
0
LINE
5
2E2
100
AcDbEntity
8
KT_conn
6
ByLayer
62
256
370
-1
100
AcDbLine
10
161.386146762
20
125.691410718
11
169.123313766
21
146.692292586
0
LINE
5
2E3
100
AcDbEntity
8
KT_conn
6
ByLayer
62
256
370
-1
100
AcDbLine
10
160.876686234
20
135.879135986
11
169.877011132
21
160.308589282
0
LINE
5
2E4
100
AcDbEntity
8
KT_conn
6
ByLayer
62
256
370
-1
100
AcDbLine
10
148.122988868
20
160.308589282
11
157.123313766
21
135.879135986
0
CIRCLE
5
2E5
100
AcDbEntity
8
KT_conn
6
ByLayer
62
256
370
-1
100
AcDbCircle
10
174
20
225
40
0.05
0
CIRCLE
5
2E6
100
AcDbEntity
8
KT_conn
6
ByLayer
62
256
370
-1
100
AcDbCircle
10
174
20
220
40
0.05
0
CIRCLE
5
2E7
100
AcDbEntity
8
KT_conn
6
ByLayer
62
256
370
-1
100
AcDbCircle
10
174
20
215
40
0.05
0
CIRCLE
5
2E8
100
AcDbEntity
8
KT_conn
6
ByLayer
62
256
370
-1
100
AcDbCircle
10
174
20
210
40
0.05
0
CIRCLE
5
2E9
100
AcDbEntity
8
KT_conn
6
ByLayer
62
256
370
-1
100
AcDbCircle
10
174
20
205
40
0.05
0
CIRCLE
5
2EA
100
AcDbEntity
8
KT_conn
6
ByLayer
62
256
370
-1
100
AcDbCircle
10
174
20
200
40
0.05
0
CIRCLE
5
2EB
100
AcDbEntity
8
KT_conn
6
ByLayer
62
256
370
-1
100
AcDbCircle
10
174
20
195
40
0.05
0
CIRCLE
5
2EC
100
AcDbEntity
8
KT_conn
6
ByLayer
62
256
370
-1
100
AcDbCircle
10
174
20
190
40
0.05
0
CIRCLE
5
2ED
100
AcDbEntity
8
KT_conn
6
ByLayer
62
256
370
-1
100
AcDbCircle
10
174
20
185
40
0.05
0
CIRCLE
5
2EE
100
AcDbEntity
8
KT_conn
6
ByLayer
62
256
370
-1
100
AcDbCircle
10
174
20
227.703360798
40
0.05
0
CIRCLE
5
2EF
100
AcDbEntity
8
KT_conn
6
ByLayer
62
256
370
-1
100
AcDbCircle
10
174
20
182
40
0.05
0
CIRCLE
5
2F0
100
AcDbEntity
8
KT_conn
6
ByLayer
62
256
370
-1
100
AcDbCircle
10
174
20
165
40
0.05
0
CIRCLE
5
2F1
100
AcDbEntity
8
KT_conn
6
ByLayer
62
256
370
-1
100
AcDbCircle
10
174
20
160
40
0.05
0
CIRCLE
5
2F2
100
AcDbEntity
8
KT_conn
6
ByLayer
62
256
370
-1
100
AcDbCircle
10
174
20
155
40
0.05
0
CIRCLE
5
2F3
100
AcDbEntity
8
KT_conn
6
ByLayer
62
256
370
-1
100
AcDbCircle
10
174
20
150
40
0.05
0
CIRCLE
5
2F4
100
AcDbEntity
8
KT_conn
6
ByLayer
62
256
370
-1
100
AcDbCircle
10
174
20
145
40
0.05
0
CIRCLE
5
2F5
100
AcDbEntity
8
KT_conn
6
ByLayer
62
256
370
-1
100
AcDbCircle
10
174
20
140
40
0.05
0
CIRCLE
5
2F6
100
AcDbEntity
8
KT_conn
6
ByLayer
62
256
370
-1
100
AcDbCircle
10
174
20
135
40
0.05
0
CIRCLE
5
2F7
100
AcDbEntity
8
KT_conn
6
ByLayer
62
256
370
-1
100
AcDbCircle
10
174
20
130
40
0.05
0
CIRCLE
5
2F8
100
AcDbEntity
8
KT_conn
6
ByLayer
62
256
370
-1
100
AcDbCircle
10
174
20
125
40
0.05
0
CIRCLE
5
2F9
100
AcDbEntity
8
KT_conn
6
ByLayer
62
256
370
-1
100
AcDbCircle
10
174
20
120
40
0.05
0
CIRCLE
5
2FA
100
AcDbEntity
8
KT_conn
6
ByLayer
62
256
370
-1
100
AcDbCircle
10
174
20
115
40
0.05
0
CIRCLE
5
2FB
100
AcDbEntity
8
KT_conn
6
ByLayer
62
256
370
-1
100
AcDbCircle
10
174
20
110
40
0.05
0
CIRCLE
5
2FC
100
AcDbEntity
8
KT_conn
6
ByLayer
62
256
370
-1
100
AcDbCircle
10
174
20
105
40
0.05
0
CIRCLE
5
2FD
100
AcDbEntity
8
KT_conn
6
ByLayer
62
256
370
-1
100
AcDbCircle
10
174
20
100
40
0.05
0
CIRCLE
5
2FE
100
AcDbEntity
8
KT_conn
6
ByLayer
62
256
370
-1
100
AcDbCircle
10
174
20
95
40
0.05
0
CIRCLE
5
2FF
100
AcDbEntity
8
KT_conn
6
ByLayer
62
256
370
-1
100
AcDbCircle
10
174
20
90
40
0.05
0
CIRCLE
5
300
100
AcDbEntity
8
KT_conn
6
ByLayer
62
256
370
-1
100
AcDbCircle
10
174
20
85
40
0.05
0
CIRCLE
5
301
100
AcDbEntity
8
KT_conn
6
ByLayer
62
256
370
-1
100
AcDbCircle
10
220
20
-16.5
40
1.5
0
CIRCLE
5
302
100
AcDbEntity
8
KT_conn
6
ByLayer
62
256
370
-1
100
AcDbCircle
10
253
20
-16.5
40
1.5
0
CIRCLE
5
303
100
AcDbEntity
8
KT_conn
6
ByLayer
62
256
370
-1
100
AcDbCircle
10
220
20
-46.5
40
1.5
0
CIRCLE
5
304
100
AcDbEntity
8
KT_conn
6
ByLayer
62
256
370
-1
100
AcDbCircle
10
245
20
-46.5
40
1.5
0
ARC
5
305
100
AcDbEntity
8
KT_conn
6
ByLayer
62
256
370
-1
100
AcDbCircle
10
220
20
-46.5
40
3.5
100
AcDbArc
50
90
51
270
0
ARC
5
306
100
AcDbEntity
8
KT_conn
6
ByLayer
62
256
370
-1
100
AcDbCircle
10
245
20
-46.5
40
3.5
100
AcDbArc
50
270
51
90
0
ARC
5
307
100
AcDbEntity
8
KT_conn
6
ByLayer
62
256
370
-1
100
AcDbCircle
10
220
20
-16.5
40
3.5
100
AcDbArc
50
90
51
270
0
ARC
5
308
100
AcDbEntity
8
KT_conn
6
ByLayer
62
256
370
-1
100
AcDbCircle
10
253
20
-16.5
40
3.5
100
AcDbArc
50
270
51
90
0
LINE
5
309
100
AcDbEntity
8
KT_conn
6
ByLayer
62
256
370
-1
100
AcDbLine
10
220
20
-13
11
253
21
-13
0
LINE
5
30A
100
AcDbEntity
8
KT_conn
6
ByLayer
62
256
370
-1
100
AcDbLine
10
253
20
-20
11
220
21
-20
0
LINE
5
30B
100
AcDbEntity
8
KT_conn
6
ByLayer
62
256
370
-1
100
AcDbLine
10
220
20
-43
11
245
21
-43
0
LINE
5
30C
100
AcDbEntity
8
KT_conn
6
ByLayer
62
256
370
-1
100
AcDbLine
10
245
20
-50
11
220
21
-50
0
LINE
5
30D
100
AcDbEntity
8
frame
6
ByLayer
62
256
370
-1
100
AcDbLine
10
300
20
0
11
300
21
200
0
LINE
5
30E
100
AcDbEntity
8
frame
6
ByLayer
62
256
370
-1
100
AcDbLine
10
300
20
200
11
0
21
200
0
LINE
5
30F
100
AcDbEntity
8
KT_conn
6
ByLayer
62
256
370
-1
100
AcDbLine
10
138
20
210.4
11
140
21
210.4
0
LINE
5
310
100
AcDbEntity
8
KT_conn
6
ByLayer
62
256
370
-1
100
AcDbLine
10
138
20
194.6
11
140
21
194.6
0
LINE
5
311
100
AcDbEntity
8
KT_conn
6
ByLayer
62
256
370
-1
100
AcDbLine
10
147.6
20
227.221879316
11
147.6
21
229.222222222
0
LINE
5
312
100
AcDbEntity
8
KT_conn
6
ByLayer
62
256
370
-1
100
AcDbLine
10
158.4
20
229.407407407
11
158.4
21
227.407064501
0
LINE
5
313
100
AcDbEntity
8
KT_conn
6
ByLayer
62
256
370
-1
100
AcDbLine
10
167.6
20
227.592249686
11
167.6
21
229.592592593
0
LINE
5
314
100
AcDbEntity
8
KT_conn
6
ByLayer
62
256
370
-1
100
AcDbLine
10
178.4
20
229.777777778
11
178.4
21
227.777434872
0
LINE
5
315
100
AcDbEntity
8
KT_conn
6
ByLayer
62
256
370
-1
100
AcDbLine
10
147.6
20
182
11
147.6
21
180
0
LINE
5
316
100
AcDbEntity
8
KT_conn
6
ByLayer
62
256
370
-1
100
AcDbLine
10
158.4
20
180
11
158.4
21
182
0
LINE
5
317
100
AcDbEntity
8
KT_conn
6
ByLayer
62
256
370
-1
100
AcDbLine
10
167.6
20
182
11
167.6
21
180
0
LINE
5
318
100
AcDbEntity
8
KT_conn
6
ByLayer
62
256
370
-1
100
AcDbLine
10
178.4
20
180
11
178.4
21
182
0
LINE
5
319
100
AcDbEntity
8
KT_conn
6
ByLayer
62
256
370
-1
100
AcDbLine
10
140
20
155.4
11
138
21
155.4
0
LINE
5
31A
100
AcDbEntity
8
KT_conn
6
ByLayer
62
256
370
-1
100
AcDbLine
10
138
20
139.6
11
140
21
139.6
0
LINE
5
31B
100
AcDbEntity
8
KT_conn
6
ByLayer
62
256
370
-1
100
AcDbLine
10
140
20
110.4
11
138
21
110.4
0
LINE
5
31C
100
AcDbEntity
8
KT_conn
6
ByLayer
62
256
370
-1
100
AcDbLine
10
138
20
94.6
11
140
21
94.6
0
INSERT
5
31D
100
AcDbEntity
8
0
6
ByLayer
62
256
370
-1
100
AcDbBlockReference
2
bulkhead
10
0
20
0
30
0
41
1
42
1
43
0
50
0
70
1
71
1
44
0
45
0
0
INSERT
5
31E
100
AcDbEntity
8
0
6
ByLayer
62
256
370
-1
100
AcDbBlockReference
2
kt-top
10
0
20
50
30
0
41
1
42
1
43
0
50
270
70
1
71
1
44
0
45
0
0
INSERT
5
31F
100
AcDbEntity
8
0
6
ByLayer
62
256
370
-1
100
AcDbBlockReference
2
kt-top-0
10
90
20
0
30
0
41
1
42
1
43
0
50
270
70
1
71
1
44
0
45
0
0
INSERT
5
320
100
AcDbEntity
8
0
6
ByLayer
62
256
370
-1
100
AcDbBlockReference
2
kt-side
10
90
20
50
30
0
41
1
42
1
43
0
50
270
70
1
71
1
44
0
45
0
0
INSERT
5
321
100
AcDbEntity
8
0
6
ByLayer
62
256
370
-1
100
AcDbBlockReference
2
kt-side-0
10
141
20
50
30
0
41
1
42
1
43
0
50
270
70
1
71
1
44
0
45
0
0
INSERT
5
322
100
AcDbEntity
8
0
6
ByLayer
62
256
370
-1
100
AcDbBlockReference
2
pad-20
10
7
20
35
30
0
41
1
42
1
43
0
50
0
70
1
71
1
44
0
45
0
0
INSERT
5
323
100
AcDbEntity
8
frame
6
ByLayer
62
256
370
-1
100
AcDbBlockReference
2
pad-20
10
7
20
28
30
0
41
1
42
1
43
0
50
0
70
1
71
1
44
0
45
0
0
INSERT
5
324
100
AcDbEntity
8
frame
6
ByLayer
62
256
370
-1
100
AcDbBlockReference
2
pad-20
10
7
20
21
30
0
41
1
42
1
43
0
50
0
70
1
71
1
44
0
45
0
0
INSERT
5
325
100
AcDbEntity
8
frame
6
ByLayer
62
256
370
-1
100
AcDbBlockReference
2
pad-20
10
7
20
14
30
0
41
1
42
1
43
0
50
0
70
1
71
1
44
0
45
0
0
INSERT
5
326
100
AcDbEntity
8
frame
6
ByLayer
62
256
370
-1
100
AcDbBlockReference
2
pad-20
10
7
20
7
30
0
41
1
42
1
43
0
50
0
70
1
71
1
44
0
45
0
0
INSERT
5
327
100
AcDbEntity
8
0
6
ByLayer
62
256
370
-1
100
AcDbBlockReference
2
pad-33
10
35
20
35
30
0
41
1
42
1
43
0
50
0
70
1
71
1
44
0
45
0
0
INSERT
5
328
100
AcDbEntity
8
frame
6
ByLayer
62
256
370
-1
100
AcDbBlockReference
2
pad-33
10
35
20
28
30
0
41
1
42
1
43
0
50
0
70
1
71
1
44
0
45
0
0
INSERT
5
329
100
AcDbEntity
8
frame
6
ByLayer
62
256
370
-1
100
AcDbBlockReference
2
pad-33
10
35
20
21
30
0
41
1
42
1
43
0
50
0
70
1
71
1
44
0
45
0
0
INSERT
5
32A
100
AcDbEntity
8
frame
6
ByLayer
62
256
370
-1
100
AcDbBlockReference
2
pad-33
10
35
20
14
30
0
41
1
42
1
43
0
50
0
70
1
71
1
44
0
45
0
0
INSERT
5
32B
100
AcDbEntity
8
frame
6
ByLayer
62
256
370
-1
100
AcDbBlockReference
2
pad-33
10
35
20
7
30
0
41
1
42
1
43
0
50
0
70
1
71
1
44
0
45
0
0
INSERT
5
32C
100
AcDbEntity
8
frame
6
ByLayer
62
256
370
-1
100
AcDbBlockReference
2
pad-25
10
76
20
42
30
0
41
1
42
1
43
0
50
270
70
1
71
1
44
0
45
0
0
INSERT
5
32D
100
AcDbEntity
8
frame
6
ByLayer
62
256
370
-1
100
AcDbBlockReference
2
noname0
10
108
20
109
30
0
41
1
42
1
43
0
50
360
70
1
71
1
44
0
45
0
0
INSERT
5
32E
100
AcDbEntity
8
frame
6
ByLayer
62
256
370
-1
100
AcDbBlockReference
2
out-conn-0
10
180
20
-1.64313007645e-14
30
0
41
-1
42
1
43
0
50
270
70
1
71
1
44
0
45
0
0
INSERT
5
32F
100
AcDbEntity
8
frame
6
ByLayer
62
256
370
-1
100
AcDbBlockReference
2
out-conn-0-0
10
232
20
0
30
0
41
-1
42
1
43
0
50
270
70
1
71
1
44
0
45
0
0
INSERT
5
330
100
AcDbEntity
8
frame
6
ByLayer
62
256
370
-1
100
AcDbBlockReference
2
pad-25-0-0
10
191
20
74
30
0
41
1
42
1
43
0
50
360
70
1
71
1
44
0
45
0
0
INSERT
5
331
100
AcDbEntity
8
frame
6
ByLayer
62
256
370
-1
100
AcDbBlockReference
2
pad-25-0-0-0-1
10
191
20
81
30
0
41
1
42
1
43
0
50
360
70
1
71
1
44
0
45
0
0
INSERT
5
332
100
AcDbEntity
8
frame
6
ByLayer
62
256
370
-1
100
AcDbBlockReference
2
pad-25-0-0-0
10
191
20
88
30
0
41
1
42
1
43
0
50
360
70
1
71
1
44
0
45
0
0
INSERT
5
333
100
AcDbEntity
8
frame
6
ByLayer
62
256
370
-1
100
AcDbBlockReference
2
pad-25-0-0-1
10
223
20
74
30
0
41
1
42
1
43
0
50
360
70
1
71
1
44
0
45
0
0
INSERT
5
334
100
AcDbEntity
8
frame
6
ByLayer
62
256
370
-1
100
AcDbBlockReference
2
pad-25-0-0-0-1-0
10
223
20
81
30
0
41
1
42
1
43
0
50
360
70
1
71
1
44
0
45
0
0
INSERT
5
335
100
AcDbEntity
8
frame
6
ByLayer
62
256
370
-1
100
AcDbBlockReference
2
pad-25-0-0-0-2
10
223
20
88
30
0
41
1
42
1
43
0
50
360
70
1
71
1
44
0
45
0
0
ENDSEC
0
SECTION
2
OBJECTS
0
DICTIONARY
5
C
330
0
100
AcDbDictionary
281
1
3
ACAD_GROUP
350
D
0
DICTIONARY
5
D
330
C
100
AcDbDictionary
281
1
0
ENDSEC
0
EOF
